<?xml version="1.0" encoding="UTF-8" standalone="no"?>
<svg
   viewBox="0 0 24 24"
   version="1.1"
   id="svg1"
   sodipodi:docname="gnumeric-group.svg"
   inkscape:version="1.3 (0e150ed6c4, 2023-07-21)"
   xmlns:inkscape="http://www.inkscape.org/namespaces/inkscape"
   xmlns:sodipodi="http://sodipodi.sourceforge.net/DTD/sodipodi-0.dtd"
   xmlns:xlink="http://www.w3.org/1999/xlink"
   xmlns="http://www.w3.org/2000/svg"
   xmlns:svg="http://www.w3.org/2000/svg">
  <sodipodi:namedview
     id="namedview1"
     pagecolor="#ffffff"
     bordercolor="#000000"
     borderopacity="0.25"
     inkscape:showpageshadow="2"
     inkscape:pageopacity="0.0"
     inkscape:pagecheckerboard="0"
     inkscape:deskcolor="#d1d1d1"
     showgrid="true"
     inkscape:zoom="11.298977"
     inkscape:cx="8.1865818"
     inkscape:cy="8.0980783"
     inkscape:window-width="1920"
     inkscape:window-height="994"
     inkscape:window-x="0"
     inkscape:window-y="0"
     inkscape:window-maximized="1"
     inkscape:current-layer="svg1">
    <inkscape:grid
       id="grid8"
       units="px"
       originx="0"
       originy="0"
       spacingx="1"
       spacingy="1"
       empcolor="#0099e5"
       empopacity="0.30196078"
       color="#0099e5"
       opacity="0.14902"
       empspacing="5"
       dotted="false"
       gridanglex="30"
       gridanglez="30"
       visible="true" />
  </sodipodi:namedview>
  <defs
     id="defs1">
    <linearGradient
       id="linearGradient1"
       inkscape:collect="always">
      <stop
         style="stop-color:#ff9955;stop-opacity:1"
         offset="0"
         id="stop1" />
      <stop
         style="stop-color:#ff7cff;stop-opacity:1;"
         offset="1"
         id="stop2" />
    </linearGradient>
    <style
       type="text/css"
       id="style1">.ColorScheme-Text { color:#d8dee9; }&#10;</style>
    <linearGradient
       id="linearGradient24"
       x1="0"
       x2="0"
       y1="0"
       y2="1">
      <stop
         offset="0%"
         style="stop-color:#febc85;stop-opacity:1"
         id="stop23" />
      <stop
         offset="1"
         style="stop-color:#8660cb;stop-opacity:1"
         id="stop24" />
    </linearGradient>
    <linearGradient
       inkscape:collect="always"
       xlink:href="#linearGradient1"
       id="linearGradient2"
       x1="3.5"
       y1="12"
       x2="20.5"
       y2="12"
       gradientUnits="userSpaceOnUse" />
    <linearGradient
       inkscape:collect="always"
       xlink:href="#linearGradient1"
       id="linearGradient4"
       x1="13.329597"
       y1="8.608593"
       x2="17.301708"
       y2="8.608593"
       gradientUnits="userSpaceOnUse" />
    <linearGradient
       inkscape:collect="always"
       xlink:href="#linearGradient1"
       id="linearGradient6"
       x1="6.6824288"
       y1="8.608593"
       x2="10.605499"
       y2="8.608593"
       gradientUnits="userSpaceOnUse" />
    <linearGradient
       inkscape:collect="always"
       xlink:href="#linearGradient1"
       id="linearGradient8"
       x1="12.490411"
       y1="14.991066"
       x2="17.656414"
       y2="14.991066"
       gradientUnits="userSpaceOnUse" />
    <linearGradient
       inkscape:collect="always"
       xlink:href="#linearGradient1"
       id="linearGradient10"
       x1="7.1787162"
       y1="15.040913"
       x2="10.109211"
       y2="15.040913"
       gradientUnits="userSpaceOnUse" />
  </defs>
  <path
     class="ColorScheme-Text "
     d="M 5.3214275,4 C 4.3232846,4 3.5,4.904 3.5,6 v 12 c 0,1.097326 0.8232846,2 1.8214275,2 H 18.678563 C 19.676719,20 20.5,19.097326 20.5,18 V 6 c 0,-1.096 -0.823281,-2 -1.821437,-2 z m 0,1.333332 h 4.2499992 1.2142853 v 0 H 15.4 v 0 0 0 h 3.278563 C 19.025844,5.333332 19.285695,5.62 19.285695,6 v 12 c 0,0.381326 -0.259851,0.666674 -0.607132,0.666674 H 5.3214275 C 4.9826809,18.675874 4.7058472,18.371966 4.7142849,18 V 6 c 0,-0.38 0.2598578,-0.666668 0.6071426,-0.666668 z m 5.4642845,0 h 2.428573 v 0 0 z"
     font-family="sans-serif"
     font-weight="400"
     overflow="visible"
     id="path22"
     sodipodi:nodetypes="sssssssssscccccccssssccssccccc"
     style="stroke-width:1.13811;fill-opacity:1;fill:url(#linearGradient2)" />
  <path
     d="m 10.605499,8.608584 c 0,1.105112 -0.8776885,2.000009 -1.9615356,2.000009 -1.082934,10e-7 -1.9615346,-0.894897 -1.9615346,-2.000009 0,-1.104169 0.8786006,-1.999991 1.9615346,-1.999991 1.0838471,0 1.9615356,0.895822 1.9615356,1.999991 z"
     id="path72-3"
     style="stroke-width:0.0235797;fill-opacity:1;fill:url(#linearGradient6)"
     class="ColorScheme-Text " />
  <path
     d="m 16.843385,10.633593 h -3.055463 c -0.253132,0 -0.458325,-0.20922 -0.458325,-0.467312 V 7.050905 c 0,-0.258095 0.205194,-0.467312 0.458325,-0.467312 h 3.055463 c 0.25313,0 0.458324,0.209217 0.458324,0.467312 v 3.115376 c 0,0.258092 -0.205195,0.467312 -0.458324,0.467312 z M 13.635142,7.050905 Z"
     id="path8"
     style="stroke-width:0.154267;fill-opacity:1;fill:url(#linearGradient4)"
     sodipodi:nodetypes="sssssssssccccccccc"
     class="ColorScheme-Text " />
  <path
     d="M 9.7710749,17.781638 H 7.5168534 c -0.1867521,0 -0.3381372,-0.283167 -0.3381372,-0.632481 v -4.216488 c 0,-0.349318 0.1513851,-0.632481 0.3381372,-0.632481 h 2.2542215 c 0.1867502,0 0.3381361,0.283163 0.3381361,0.632481 v 4.216488 c 0,0.349314 -0.1513859,0.632481 -0.3381361,0.632481 z M 7.404138,12.932669 Z"
     id="path8-1"
     style="stroke-width:0.154154;fill-opacity:1;fill:url(#linearGradient10)"
     sodipodi:nodetypes="sssssssssccccccccc"
     class="ColorScheme-Text " />
  <path
     d="m 15.072747,12.365068 c 0.08069,-2.14e-4 0.1579,0.04892 0.214917,0.136511 l 2.240904,3.818853 c 0.184337,0.373732 0.250911,1.287531 -0.375918,1.287866 h -1.933753 -1.679068 c -0.234461,0 -0.685188,0.07926 -0.893413,-0.238838 v 0 c -0.208007,-0.318966 -0.208007,-0.836161 0,-1.155126 l 2.210985,-3.712755 c 0.05701,-0.08761 0.134636,-0.136733 0.215346,-0.136511 z"
     id="path4-3-3-9-9"
     style="stroke-width:0.188435;fill-opacity:1;fill:url(#linearGradient8)"
     sodipodi:nodetypes="ccccccssccc"
     class="ColorScheme-Text " />
</svg>
