<?xml version="1.0" encoding="UTF-8" standalone="no"?>
<svg
   viewBox="0 0 24 24"
   version="1.1"
   id="svg1"
   sodipodi:docname="show-menu.svg"
   inkscape:version="1.3 (0e150ed6c4, 2023-07-21)"
   xmlns:inkscape="http://www.inkscape.org/namespaces/inkscape"
   xmlns:sodipodi="http://sodipodi.sourceforge.net/DTD/sodipodi-0.dtd"
   xmlns:xlink="http://www.w3.org/1999/xlink"
   xmlns="http://www.w3.org/2000/svg"
   xmlns:svg="http://www.w3.org/2000/svg">
  <sodipodi:namedview
     id="namedview1"
     pagecolor="#ffffff"
     bordercolor="#000000"
     borderopacity="0.25"
     inkscape:showpageshadow="2"
     inkscape:pageopacity="0.0"
     inkscape:pagecheckerboard="0"
     inkscape:deskcolor="#d1d1d1"
     inkscape:zoom="31.958333"
     inkscape:cx="12"
     inkscape:cy="12"
     inkscape:window-width="1920"
     inkscape:window-height="994"
     inkscape:window-x="0"
     inkscape:window-y="0"
     inkscape:window-maximized="1"
     inkscape:current-layer="svg1" />
  <defs
     id="defs1">
    <linearGradient
       id="linearGradient1"
       inkscape:collect="always">
      <stop
         style="stop-color:#d35f8d;stop-opacity:1"
         offset="0"
         id="stop1" />
      <stop
         style="stop-color:#55ddff;stop-opacity:1"
         offset="1"
         id="stop2" />
    </linearGradient>
    <style
       type="text/css"
       id="style1">.ColorScheme-Text {&#10;        color:#d8dee9;&#10;      }</style>
    <linearGradient
       inkscape:collect="always"
       xlink:href="#linearGradient1"
       id="linearGradient2"
       x1="4"
       y1="12"
       x2="20"
       y2="12"
       gradientUnits="userSpaceOnUse" />
  </defs>
  <path
     d="m4 4v3h3v-3h-3zm4 0v1h9l1-1h-10zm0 2v1h6.1699l1-1h-7.1699zm-4 5v3h3v-3h-3zm4 0v1h2l1-1h-3zm7 0-1 1h4v-1h-3zm-2 2-1 1h2v-1h-1zm-3.1699 3-1 1h9.1699v-1h-8.1699zm-1.8301 2-1 1h8v-1h-7zm10 1v1h2v-1h-2z"
     id="path1"
     style="fill:url(#linearGradient2)" />
</svg>
