<?xml version="1.0" encoding="UTF-8" standalone="no"?>
<svg
   width="22"
   height="22"
   version="1.1"
   id="svg1"
   sodipodi:docname="kruler-symbolic.svg"
   inkscape:version="1.3.2 (091e20ef0f, 2023-11-25)"
   xmlns:inkscape="http://www.inkscape.org/namespaces/inkscape"
   xmlns:sodipodi="http://sodipodi.sourceforge.net/DTD/sodipodi-0.dtd"
   xmlns:xlink="http://www.w3.org/1999/xlink"
   xmlns="http://www.w3.org/2000/svg"
   xmlns:svg="http://www.w3.org/2000/svg">
  <defs
     id="defs1">
    <linearGradient
       inkscape:collect="always"
       xlink:href="#linearGradient1"
       id="linearGradient4"
       x1="33"
       y1="21.000002"
       x2="53"
       y2="21.000002"
       gradientUnits="userSpaceOnUse"
       gradientTransform="translate(-32,-10.000001)" />
    <linearGradient
       id="linearGradient1"
       inkscape:collect="always">
      <stop
         style="stop-color:#ff9955;stop-opacity:1"
         offset="0"
         id="stop1" />
      <stop
         style="stop-color:#ffd42a;stop-opacity:1"
         offset="1"
         id="stop2" />
    </linearGradient>
  </defs>
  <sodipodi:namedview
     id="namedview1"
     pagecolor="#ffffff"
     bordercolor="#999999"
     borderopacity="1"
     inkscape:showpageshadow="2"
     inkscape:pageopacity="0"
     inkscape:pagecheckerboard="0"
     inkscape:deskcolor="#d1d1d1"
     inkscape:zoom="12.245804"
     inkscape:cx="8.3293838"
     inkscape:cy="19.190247"
     inkscape:window-width="1920"
     inkscape:window-height="994"
     inkscape:window-x="0"
     inkscape:window-y="0"
     inkscape:window-maximized="1"
     inkscape:current-layer="svg1" />
  <style
     type="text/css"
     id="current-color-scheme">.ColorScheme-Text { color: #fcfcfc; } </style>
  <g
     id="kruler">
    <rect
       style="opacity:0.00100002"
       width="22"
       height="22"
       x="0"
       y="-4.6325681e-08"
       id="rect2" />
    <path
       d="M 21,16.337265 V 5.662737 C 20.999999,5.296719 20.772349,5.000002 20.491528,5 H 1.508476 C 1.227653,4.999999 1.000001,5.296716 1,5.662737 v 10.674528 c 2e-6,0.36602 0.227654,0.662736 0.508476,0.662735 h 18.983052 c 0.28082,-2e-6 0.50847,-0.296717 0.508472,-0.662735 z M 1.999999,12.999999 v -7 h 1 v 3 c 0,0.883665 1,0.883665 1,0 v -3 h 1 v 2 c 0.002,0.881096 0.998043,0.881096 1,0 v -2 h 1 v 3 c 0.0019,0.881145 0.99808,0.881145 1,0 v -3 h 1 v 2 c 0,0.883657 2,0.883657 2,0 v -2 h 1 v 3 c 0.0014,0.881791 0.998574,0.881791 1,0 v -3 h 1 v 2 c 0.0019,0.881195 0.998118,0.881195 1,0 v -2 h 1 v 3 c 0.002,0.881049 0.998007,0.881049 1,0 v -3 h 1 v 2 c 0,0.883662 1,0.883662 1,0 v -2 h 1 v 7 z"
       id="path2-3"
       style="fill:url(#linearGradient4);fill-opacity:1;stroke-width:0.387003"
       sodipodi:nodetypes="ccccccccccccssccccccccccssccccccccccccccsscccc" />
  </g>
</svg>
