<?xml version="1.0" encoding="UTF-8" standalone="no"?>
<svg
   width="22"
   height="22"
   version="1.1"
   id="svg1"
   sodipodi:docname="kteatime-symbolic.svg"
   inkscape:version="1.3.2 (091e20ef0f, 2023-11-25)"
   xmlns:inkscape="http://www.inkscape.org/namespaces/inkscape"
   xmlns:sodipodi="http://sodipodi.sourceforge.net/DTD/sodipodi-0.dtd"
   xmlns:xlink="http://www.w3.org/1999/xlink"
   xmlns="http://www.w3.org/2000/svg"
   xmlns:svg="http://www.w3.org/2000/svg">
  <defs
     id="defs1">
    <linearGradient
       inkscape:collect="always"
       xlink:href="#linearGradient1"
       id="linearGradient3"
       gradientUnits="userSpaceOnUse"
       x1="44.378269"
       y1="935.55542"
       x2="806.60034"
       y2="118.88887"
       gradientTransform="matrix(0.01836735,0,0,0.01836735,1.815765,1.8163245)" />
    <linearGradient
       id="linearGradient1"
       inkscape:collect="always">
      <stop
         style="stop-color:#aa87de;stop-opacity:1"
         offset="0"
         id="stop1" />
      <stop
         style="stop-color:#00ccff;stop-opacity:1"
         offset="1"
         id="stop2" />
    </linearGradient>
  </defs>
  <sodipodi:namedview
     id="namedview1"
     pagecolor="#ffffff"
     bordercolor="#999999"
     borderopacity="1"
     inkscape:showpageshadow="2"
     inkscape:pageopacity="0"
     inkscape:pagecheckerboard="0"
     inkscape:deskcolor="#d1d1d1"
     inkscape:zoom="12.245804"
     inkscape:cx="4.0013707"
     inkscape:cy="26.539703"
     inkscape:window-width="1920"
     inkscape:window-height="994"
     inkscape:window-x="0"
     inkscape:window-y="0"
     inkscape:window-maximized="1"
     inkscape:current-layer="svg1" />
  <style
     type="text/css"
     id="current-color-scheme">.ColorScheme-Text{color:#31363b;}.ColorScheme-Background{color:#eff0f1;}.ColorScheme-Highlight{color:#3daee9;}.ColorScheme-ViewText{color:#31363b;}.ColorScheme-ViewBackground{color:#fcfcfc;}.ColorScheme-ViewHover{color:#93cee9;}.ColorScheme-ViewFocus{color:#3daee9;}.ColorScheme-ButtonText{color:#31363b;}.ColorScheme-ButtonBackground{color:#eff0f1;}.ColorScheme-ButtonHover{color:#93cee9;}.ColorScheme-ButtonFocus { color: #3daee9; } </style>
  <g
     id="kteatime">
    <rect
       y="1.2212453e-15"
       x="1.2212453e-15"
       height="22"
       width="22"
       id="rect3825"
       style="fill:#566060;fill-opacity:0;stroke:none" />
    <path
       style="fill:url(#linearGradient3);fill-opacity:1;stroke-width:0.0183674"
       inkscape:connector-curvature="0"
       id="path4"
       d="m 11.398012,9.3487755 c 4.975714,-3.427348 -1.6567355,-4.681838 0.907347,-7.348777 -2.283062,0.380204 -1.845919,2.984694 -1.375715,3.460409 0.468368,0.475714 2.470408,1.158979 0.468368,3.888368 z m -2.4042866,0 c 4.0738776,-2.808368 -1.3573472,-3.809389 0.7438777,-5.993267 -1.8697963,0.312245 -1.5116329,2.444695 -1.1277553,2.834083 0.3838776,0.391224 2.0240822,0.923877 0.3838776,3.159184 z M 19.283115,12.59796 c -0.03306,-0.115714 -0.07898,-0.225918 -0.130409,-0.334286 -0.01286,-0.02571 -0.02388,-0.04959 -0.03673,-0.07531 -0.0551,-0.104695 -0.113878,-0.203879 -0.183674,-0.297551 -0.0037,-0.0037 -0.0055,-0.0074 -0.0092,-0.01102 -0.0698,-0.09184 -0.146939,-0.176327 -0.229592,-0.257143 -0.01653,-0.01653 -0.03306,-0.03306 -0.05143,-0.04959 -0.08816,-0.08265 -0.181837,-0.159796 -0.282857,-0.227755 -0.0018,-0.0018 -0.0037,-0.0018 -0.0055,-0.0037 -0.101017,-0.0698 -0.211221,-0.130408 -0.323262,-0.18551 -0.01469,-0.0073 -0.02939,-0.01469 -0.04408,-0.02204 -0.236939,-0.11204 -0.494082,-0.192856 -0.765919,-0.240612 -0.0092,-0.0018 -0.0202,-0.0037 -0.02939,-0.0055 -0.13959,-0.02388 -0.281019,-0.03857 -0.426121,-0.04408 C 16.685971,10.399372 16.30393,9.9181485 15.84291,9.9181485 H 5.1420921 c -0.5179593,0 -0.9385716,0.5693875 -0.9385716,1.0965305 h -0.012857 c 0,0 0,0.132245 0.012857,0.361837 v 0.0202 c 0,0.01102 0.00367,0.02204 0.00367,0.0349 0.07898,1.293062 0.5657144,5.532246 3.5320414,7.089797 h 5.5689841 c 0.848571,-0.754898 1.485918,-1.774286 1.97449,-2.492449 0.123061,0.02755 0.249796,0.04592 0.378367,0.06061 0.02755,0.0037 0.05327,0.0055 0.08082,0.0073 0.130408,0.01102 0.262653,0.01653 0.398571,0.01102 h 0.0037 c 0.130408,-0.0055 0.262653,-0.02021 0.394898,-0.03857 0.03306,-0.0055 0.06612,-0.01102 0.09918,-0.01653 0.135919,-0.02388 0.27,-0.05326 0.405919,-0.09367 1.63102,-0.483061 2.633878,-1.989184 2.23898,-3.361225 z M 5.6012759,11.016531 h 1.5685716 c 0,0 -1.1130614,1.950612 1.2140819,6.57 -2.9846944,-1.592449 -2.7826535,-6.57 -2.7826535,-6.57 z M 16.766788,15.00592 c -0.110204,0.03306 -0.222245,0.05326 -0.330613,0.06796 -0.02939,0.0037 -0.05877,0.0073 -0.08633,0.01102 -0.104694,0.0092 -0.207551,0.01469 -0.310408,0.01102 -0.02204,-0.0018 -0.04408,-0.0055 -0.06612,-0.0073 -0.05326,-0.0037 -0.104694,-0.01469 -0.157959,-0.02204 0.690612,-1.250817 0.911021,-2.428164 0.947755,-3.190409 0.661225,0.07898 1.214082,0.466531 1.384898,1.059796 0.242449,0.844898 -0.37653,1.770613 -1.381224,2.070001 z M 2.640459,18.929185 c 0,0 -0.1873469,1.070817 1.0946941,1.070817 H 16.873318 c 1.032245,0 0.969796,-1.070817 0.969796,-1.070817 z" />
  </g>
</svg>
