<?xml version="1.0" encoding="UTF-8" standalone="no"?>
<svg
   width="22"
   height="22"
   x="0"
   y="0"
   version="1.1"
   xml:space="preserve"
   id="svg1459"
   sodipodi:docname="thunderbird-symbolic.svg"
   inkscape:version="1.3.2 (091e20ef0f, 2023-11-25)"
   xmlns:inkscape="http://www.inkscape.org/namespaces/inkscape"
   xmlns:sodipodi="http://sodipodi.sourceforge.net/DTD/sodipodi-0.dtd"
   xmlns:xlink="http://www.w3.org/1999/xlink"
   xmlns="http://www.w3.org/2000/svg"
   xmlns:svg="http://www.w3.org/2000/svg"><g
   id="22-22-thunderbird"
   style="fill:#d3dae3;fill-opacity:1"><rect
     style="opacity:0.00100002;fill:#d3dae3;fill-opacity:1"
     width="22"
     height="22"
     x="0"
     y="0"
     id="rect1452" /><path
     d="M 18.819712,9.800111 C 18.66971,8.986857 18.357313,8.199025 17.932512,7.487462 17.812112,7.268285 17.654379,7.060701 17.520112,6.864777 16.620446,5.581374 15.908114,5.149324 15.770716,5.073056 15.645784,4.984106 15.520782,4.895165 15.395848,4.818965 14.233716,4.081912 13.483985,3.980288 13.483985,3.980288 12.946651,3.751552 12.421853,3.624507 12.034455,3.560916 c -0.837201,-0.10169 -1.537,-0.08894 -2.149264,0 0.1,-0.17789 0.187467,-0.241346 0.212398,-0.25409 0.01546,0 0.01107,0 0,0 C 9.797724,3.332246 9.435324,3.535562 9.110458,3.738875 9.335324,3.294148 9.81019,3.039922 9.872658,3.001754 h 0.01246 C 9.510314,2.976404 8.448184,3.21788 7.535984,4.247192 4.699331,5.45426 3,8.097335 3,10.981755 c 0,2.185671 0.837199,3.761333 1.749398,4.803323 0.862198,0.953044 1.81193,1.461295 2.261729,1.601086 0.0472,0.01892 0.15,0.02543 0.15,0.02543 0.01246,-0.03811 -0.574799,-0.991144 -0.837265,-2.134825 0.524866,0.546418 1.149664,0.96579 1.849397,1.04199 0.075,0.01275 -0.249933,-0.393881 -0.599798,-0.927554 l 0.474865,0.165145 5.210727,1.7663 c -0.512334,0.533671 -1.1996,1.054666 -2.136797,1.512138 0,0 2.09933,-0.177892 3.136462,-1.359672 -0.424867,0.991146 -1.586997,1.524886 -1.586997,1.524886 0.84973,-0.127114 3.098995,-0.800577 4.523525,-2.617651 1.624466,-2.058558 2.111798,-3.99007 1.624466,-6.5823 z m -4.148661,4.815999 c -0.1624,0.800509 -0.4998,1.6901 -1.262,2.541384 L 4.199531,14.04427 C 3.937132,13.192916 3.812199,12.201772 3.887132,11.045414 c 0.162467,0.305005 0.649799,0.559096 0.949665,0.57184 -0.699732,-1.588407 -0.424866,-2.681243 0.1,-3.405483 a 423.78608,430.95131 0 0 1 0.687266,1.029244 v -0.07627 c 0.01247,-0.10169 0.025,-0.17789 0.05,-0.25409 C 5.436597,8.554805 5.236731,8.249869 5.086731,8.03381 5.374131,7.703451 5.698996,7.462038 5.986462,7.296825 c 0.01247,0.13979 0.03747,0.266836 0.07493,0.419304 0.05,0.216058 0.06247,0.53374 0.03747,0.787899 v -0.01275 c 0,0.05085 -0.01246,0.101691 -0.02493,0.152536 -0.01253,0.05085 -0.150001,0.190501 -0.187467,0.559096 -0.03747,0.393882 0.1,0.60994 0.2374,0.775086 C 6.286331,9.825528 6.586264,9.444324 7.136064,9.228265 7.685862,8.999596 8.048261,8.66917 8.748061,8.313388 9.160393,8.097397 9.597727,8.122752 10.147527,8.148174 c 0.987197,0.177892 2.286729,0.533741 3.498859,0.597264 0.274866,0.660786 0.387334,1.613763 0.387334,1.639252 0,0.08888 0.01253,0.165146 0.01253,0.241346 -2.149332,0.826 -4.673461,1.766298 -5.735594,2.04588 -0.08746,0.02543 -1.012196,-1.334181 -1.874395,-2.630397 -0.01246,0.02543 -0.03747,0.03817 -0.05,0.05085 -0.02493,0.02543 -0.05,0.05085 -0.06247,0.07627 h -0.07493 c 0.924663,1.385026 1.911862,2.820897 2.011797,2.820897 0.937197,-0.343036 3.73626,-1.321502 5.773057,-2.033066 -0.01247,1.562985 -0.387333,2.147502 -0.387333,2.147502 0,0 0.512334,-0.203381 1.037133,-0.736986 0,0.431982 -0.112466,1.55024 -0.999665,2.63033 0,0 0.462332,-0.127045 0.987131,-0.381204 z"
     id="path1299-3"
     style="fill:url(#linearGradient4);fill-opacity:1;stroke-width:0.672287" /></g><defs
   id="defs1463"><linearGradient
   id="linearGradient1"
   inkscape:collect="always"><stop
     style="stop-color:#00ccff;stop-opacity:1"
     offset="0"
     id="stop1" /><stop
     style="stop-color:#2a7fff;stop-opacity:1"
     offset="1"
     id="stop2" /></linearGradient>
  
  
  
 
  
  
  
 <linearGradient
   inkscape:collect="always"
   xlink:href="#linearGradient1"
   id="linearGradient4"
   x1="3"
   y1="11.000001"
   x2="18.999998"
   y2="11.000001"
   gradientUnits="userSpaceOnUse" /></defs><sodipodi:namedview
   id="namedview1461"
   pagecolor="#02334b"
   bordercolor="#000000"
   borderopacity="1"
   inkscape:showpageshadow="2"
   inkscape:pageopacity="0"
   inkscape:pagecheckerboard="true"
   inkscape:deskcolor="#02334b"
   showgrid="true"
   inkscape:zoom="10.429825"
   inkscape:cx="-2.6846088"
   inkscape:cy="11.21783"
   inkscape:window-width="1920"
   inkscape:window-height="994"
   inkscape:window-x="0"
   inkscape:window-y="0"
   inkscape:window-maximized="1"
   inkscape:current-layer="svg1459"><inkscape:grid
     type="xygrid"
     id="grid1674"
     originx="-32"
     originy="-10"
     spacingy="1"
     spacingx="1"
     units="px"
     visible="true" /></sodipodi:namedview>
 
 
</svg>
