<?xml version="1.0" encoding="UTF-8" standalone="no"?>
<svg
   width="16"
   height="16"
   version="1.1"
   id="svg760"
   sodipodi:docname="configure-shortcuts.svg"
   inkscape:version="1.2.2 (b0a8486541, 2022-12-01)"
   xmlns:inkscape="http://www.inkscape.org/namespaces/inkscape"
   xmlns:sodipodi="http://sodipodi.sourceforge.net/DTD/sodipodi-0.dtd"
   xmlns="http://www.w3.org/2000/svg"
   xmlns:svg="http://www.w3.org/2000/svg">
  <sodipodi:namedview
     id="namedview762"
     pagecolor="#ffffff"
     bordercolor="#000000"
     borderopacity="0.25"
     inkscape:showpageshadow="2"
     inkscape:pageopacity="0.0"
     inkscape:pagecheckerboard="0"
     inkscape:deskcolor="#d1d1d1"
     showgrid="false"
     inkscape:zoom="14.75"
     inkscape:cx="3.0508475"
     inkscape:cy="8.0338983"
     inkscape:window-width="1920"
     inkscape:window-height="998"
     inkscape:window-x="0"
     inkscape:window-y="0"
     inkscape:window-maximized="1"
     inkscape:current-layer="svg760" />
  <defs
     id="defs756">
    <style
       type="text/css"
       id="style754">.ColorScheme-Text { color:#d8dee9; }
</style>
  </defs>
  <path
     fill-rule="evenodd"
     clip-rule="evenodd"
     d="M 12.375,6.25 H 10.84375 10.625 9.75 9.53125 6.46875 6.25 5.375 5.15625 3.625 C 2.175236,6.25 1,5.074656 1,3.625 1,2.175344 2.175236,1 3.625,1 5.074764,1 6.25,2.175344 6.25,3.625 V 4.0625 C 6.25,4.30411 6.054111,4.5 5.8125,4.5 5.570889,4.5 5.375,4.30411 5.375,4.0625 V 3.625 c 0,-0.966438 -0.783452,-1.75 -1.75,-1.75 -0.966548,0 -1.75,0.783562 -1.75,1.75 0,0.966437 0.783452,1.75 1.75,1.75 H 4.0625 4.5 6.25 6.46875 9.53125 9.75 11.5 11.9375 12.375 c 0.966438,0 1.75,-0.783563 1.75,-1.75 0,-0.966438 -0.783562,-1.75 -1.75,-1.75 -0.966438,0 -1.75,0.783562 -1.75,1.75 V 4.0625 C 10.625,4.30411 10.429111,4.5 10.1875,4.5 9.9458886,4.5 9.75,4.30411 9.75,4.0625 V 3.625 C 9.75,2.175344 10.925347,1 12.375,1 13.824653,1 15,2.175344 15,3.625 15,5.074656 13.824653,6.25 12.375,6.25 Z m -8.75,3.5 H 4.0625 C 4.304111,9.75 4.5,9.94589 4.5,10.1875 4.5,10.429109 4.304111,10.625 4.0625,10.625 H 3.625 c -0.966548,0 -1.75,0.783562 -1.75,1.75 0,0.966437 0.783452,1.75 1.75,1.75 0.966548,0 1.75,-0.783563 1.75,-1.75 V 11.71875 11.5 9.75 9.53125 7.5625 C 5.375,7.32089 5.570889,7.125 5.8125,7.125 6.054111,7.125 6.25,7.32089 6.25,7.5625 V 9.53125 9.75 10.625 10.84375 12.375 C 6.25,13.824656 5.074764,15 3.625,15 2.175236,15 1,13.824656 1,12.375 1,10.925343 2.175236,9.75 3.625,9.75 Z M 9.75,8.4375 v -0.875 c 0,-0.24161 0.1958886,-0.4375 0.4375,-0.4375 0.241611,0 0.4375,0.19589 0.4375,0.4375 v 0.875 c 0,0.2416097 -0.195889,0.4375 -0.4375,0.4375 C 9.9458886,8.875 9.75,8.6791097 9.75,8.4375 Z M 7.5625,9.75 H 9.53125 9.75 10.625 10.84375 12.375 C 13.824653,9.75 15,10.925343 15,12.375 15,13.824656 13.824653,15 12.375,15 10.925347,15 9.75,13.824656 9.75,12.375 v -0.4375 c 0,-0.24161 0.1958886,-0.4375 0.4375,-0.4375 0.241611,0 0.4375,0.19589 0.4375,0.4375 v 0.4375 c 0,0.966437 0.783562,1.75 1.75,1.75 0.966438,0 1.75,-0.783563 1.75,-1.75 0,-0.966438 -0.783562,-1.75 -1.75,-1.75 H 11.71875 11.5 9.75 9.53125 7.5625 C 7.320889,10.625 7.125,10.429109 7.125,10.1875 7.125,9.94589 7.320889,9.75 7.5625,9.75 Z"
     id="path2"
     style="fill:currentColor;fill-opacity:1;stroke-width:0.0273438"
     class="  ColorScheme-Text" />
</svg>
