<?xml version="1.0" encoding="UTF-8" standalone="no"?>
<svg
   width="16"
   height="16"
   version="1.1"
   id="svg2"
   sodipodi:docname="system-lock-screen-symbolic.svg"
   inkscape:version="1.3 (0e150ed6c4, 2023-07-21)"
   xmlns:inkscape="http://www.inkscape.org/namespaces/inkscape"
   xmlns:sodipodi="http://sodipodi.sourceforge.net/DTD/sodipodi-0.dtd"
   xmlns:xlink="http://www.w3.org/1999/xlink"
   xmlns="http://www.w3.org/2000/svg"
   xmlns:svg="http://www.w3.org/2000/svg">
  <defs
     id="defs2">
    <linearGradient
       id="linearGradient2"
       inkscape:collect="always">
      <stop
         style="stop-color:#00d4aa;stop-opacity:1"
         offset="0"
         id="stop2" />
      <stop
         style="stop-color:#2ad4ff;stop-opacity:1"
         offset="1"
         id="stop3" />
    </linearGradient>
    <linearGradient
       inkscape:collect="always"
       xlink:href="#linearGradient2"
       id="linearGradient3"
       x1="18"
       y1="93"
       x2="81.903975"
       y2="50"
       gradientUnits="userSpaceOnUse" />
  </defs>
  <sodipodi:namedview
     id="namedview2"
     pagecolor="#ffffff"
     bordercolor="#000000"
     borderopacity="0.25"
     inkscape:showpageshadow="2"
     inkscape:pageopacity="0.0"
     inkscape:pagecheckerboard="0"
     inkscape:deskcolor="#d1d1d1"
     inkscape:zoom="16.948466"
     inkscape:cx="3.6876494"
     inkscape:cy="8.1718312"
     inkscape:window-width="1920"
     inkscape:window-height="994"
     inkscape:window-x="0"
     inkscape:window-y="0"
     inkscape:window-maximized="1"
     inkscape:current-layer="svg2" />
  <g
     id="g3"
     transform="matrix(0.1627907,0,0,0.1627907,-0.13171902,-0.139535)"
     style="fill:url(#linearGradient3)">
    <path
       d="M 73.4,38 H 73 V 30.3 C 73,17.5 62.7,7 50,7 37.3,7 27,17.5 27,30.3 V 38 h -0.4 c -4.8,0 -8.6,3.9 -8.6,8.6 0,2.2 1.8,4 4,4 2.2,0 4,-1.8 4,-4 0,-0.4 0.3,-0.6 0.6,-0.6 h 6.9 c 0.4,0 0.9,-0.1 1.2,-0.2 0.4,0.1 0.8,0.2 1.2,0.2 h 37.4 c 0.4,0 0.6,0.3 0.6,0.6 v 23.2 c 0,2.2 1.8,4 4,4 2.2,0 4,-1.8 4,-4 V 46.6 C 82,41.9 78.1,38 73.4,38 Z M 65,38 H 36 c -0.3,0 -0.7,0.1 -1,0.1 V 30.3 C 35,21.9 41.7,15 50,15 c 8.3,0 15,6.9 15,15.3 z"
       id="path1-6"
       style="fill:url(#linearGradient3)" />
    <path
       d="m 78,76.1 c -2.2,0 -4,1.8 -4,4 v 4.2 c 0,0.4 -0.3,0.6 -0.6,0.6 H 26.6 C 26.2,84.9 26,84.6 26,84.3 V 57 c 0,-2.2 -1.8,-4 -4,-4 -2.2,0 -4,1.8 -4,4 v 27.4 c 0,4.8 3.9,8.6 8.6,8.6 h 46.7 c 4.8,0 8.6,-3.9 8.6,-8.6 V 80.2 C 82,77.9 80.2,76.1 78,76.1 Z"
       id="path2-2"
       style="fill:url(#linearGradient3)" />
    <path
       d="m 50,83 c 2.2,0 4,-1.8 4,-4 v -6.2 c 0.1,0 0.2,-0.1 0.3,-0.1 1.3,-0.6 2.5,-1.3 3.5,-2.3 1.1,-1.1 2,-2.5 2.6,-4 0.4,-1.2 0.7,-2.5 0.7,-3.8 0,-6.1 -5,-11 -11,-11 -6,0 -11,4.9 -11,11 0,4.7 2.9,8.7 7,10.3 V 79 c -0.1,2.2 1.7,4 3.9,4 z m 0,-23.5 c 1.7,0 3,1.4 3,3 0,0.4 -0.1,0.7 -0.2,1 -0.2,0.4 -0.4,0.8 -0.7,1.1 -0.3,0.3 -0.6,0.5 -1,0.6 -0.2,0.1 -0.4,0.1 -0.6,0.2 -0.2,0 -0.4,0.1 -0.6,0.1 -1.7,0 -3,-1.4 -3,-3 0,-1.6 1.4,-3 3.1,-3 z"
       id="path3"
       style="fill:url(#linearGradient3)" />
  </g>
</svg>
