<?xml version="1.0" encoding="UTF-8" standalone="no"?>
<svg
   width="16"
   height="16"
   version="1.1"
   viewBox="0 0 16 16"
   id="svg8"
   sodipodi:docname="albumfolder-user-trash.svg"
   inkscape:version="1.2.2 (b0a8486541, 2022-12-01)"
   xmlns:inkscape="http://www.inkscape.org/namespaces/inkscape"
   xmlns:sodipodi="http://sodipodi.sourceforge.net/DTD/sodipodi-0.dtd"
   xmlns="http://www.w3.org/2000/svg"
   xmlns:svg="http://www.w3.org/2000/svg">
  <sodipodi:namedview
     id="namedview10"
     pagecolor="#ffffff"
     bordercolor="#000000"
     borderopacity="0.25"
     inkscape:showpageshadow="2"
     inkscape:pageopacity="0.0"
     inkscape:pagecheckerboard="0"
     inkscape:deskcolor="#d1d1d1"
     showgrid="false"
     inkscape:zoom="14.75"
     inkscape:cx="2.3050847"
     inkscape:cy="8.0338983"
     inkscape:window-width="1920"
     inkscape:window-height="998"
     inkscape:window-x="0"
     inkscape:window-y="0"
     inkscape:window-maximized="1"
     inkscape:current-layer="svg8" />
  <defs
     id="defs4">
    <style
       type="text/css"
       id="style2">.ColorScheme-Text {
        color:#d8dee9;
      }
      .ColorScheme-NegativeText {
        color:#bf616a;
      }</style>
  </defs>
  <path
     style="color:#eff0f1;fill:#bf616a;fill-opacity:1;stroke:none;stroke-width:1.16667"
     d="M 5.666667,1 V 2.166667 H 1 V 3.333333 H 2.166667 V 8 11.657227 c 0,1.852309 1.490467,3.342774 3.3427741,3.342774 h 4.9811179 c 1.852307,0 3.342774,-1.490465 3.342774,-3.342774 V 8 3.333333 H 15 V 2.166667 H 10.333333 V 1 Z M 6.8333331,2.166667 H 9.166667 v 1.166666 h 1.166666 2.333334 V 8 11.500001 c 0,1.292666 -1.040667,2.333333 -2.333334,2.333333 H 5.666667 c -1.2926669,0 -2.3333339,-1.040668 -2.3333339,-2.333333 V 8 3.333333 h 3.5 z M 5.666667,5.6666667 V 8 11.500001 H 6.8333331 V 8 5.6666667 Z m 3.5,0 V 8 11.500001 h 1.166666 V 8 5.6666667 Z"
     class="ColorScheme-Text"
     id="path187" />
</svg>
