<?xml version="1.0" encoding="UTF-8" standalone="no"?>
<svg
   viewBox="0 0 16 16"
   version="1.1"
   id="svg1"
   sodipodi:docname="show-menu.svg"
   inkscape:version="1.3 (0e150ed6c4, 2023-07-21)"
   xmlns:inkscape="http://www.inkscape.org/namespaces/inkscape"
   xmlns:sodipodi="http://sodipodi.sourceforge.net/DTD/sodipodi-0.dtd"
   xmlns:xlink="http://www.w3.org/1999/xlink"
   xmlns="http://www.w3.org/2000/svg"
   xmlns:svg="http://www.w3.org/2000/svg">
  <sodipodi:namedview
     id="namedview1"
     pagecolor="#ffffff"
     bordercolor="#000000"
     borderopacity="0.25"
     inkscape:showpageshadow="2"
     inkscape:pageopacity="0.0"
     inkscape:pagecheckerboard="0"
     inkscape:deskcolor="#d1d1d1"
     inkscape:zoom="47.9375"
     inkscape:cx="8"
     inkscape:cy="8"
     inkscape:window-width="1920"
     inkscape:window-height="994"
     inkscape:window-x="0"
     inkscape:window-y="0"
     inkscape:window-maximized="1"
     inkscape:current-layer="svg1" />
  <defs
     id="defs1">
    <linearGradient
       id="linearGradient1"
       inkscape:collect="always">
      <stop
         style="stop-color:#d56592;stop-opacity:1;"
         offset="0"
         id="stop1" />
      <stop
         style="stop-color:#2ad4ff;stop-opacity:1"
         offset="1"
         id="stop2" />
    </linearGradient>
    <style
       type="text/css"
       id="style1">.ColorScheme-Text {&#10;        color:#d8dee9;&#10;      }</style>
    <linearGradient
       inkscape:collect="always"
       xlink:href="#linearGradient1"
       id="linearGradient2"
       x1="2"
       y1="8.4999905"
       x2="14.313249"
       y2="8.4171553"
       gradientUnits="userSpaceOnUse" />
  </defs>
  <path
     d="m2 2v3h3v-3h-3zm4 0v1h4.8789l1-1h-5.8789zm7.3145 0-11.314 11.295 0.71484 0.70508 11.285-11.303-0.68555-0.69727zm-7.3145 2v1h2.8789l1-1h-3.8789zm8 0.12109-0.87891 0.87891h0.87891v-0.87891zm-12 2.8789v3h1.8789l1.1211-1.1211v-1.8789h-3zm4 0v0.87891l0.87891-0.87891h-0.87891zm5.1211 0-1 1h3.8789v-1h-2.8789zm-2 2-1 1h5.8789v-1h-4.8789zm-3 3-1 1h8.8789v-1h-7.8789z"
     id="path1"
     style="fill:url(#linearGradient2)" />
</svg>
