<?xml version="1.0" encoding="UTF-8" standalone="no"?>
<svg
   viewBox="0 0 24 24"
   version="1.1"
   id="svg1"
   sodipodi:docname="system-log-out-rtl.svg"
   inkscape:version="1.3.2 (091e20ef0f, 2023-11-25)"
   width="100%"
   height="100%"
   xmlns:inkscape="http://www.inkscape.org/namespaces/inkscape"
   xmlns:sodipodi="http://sodipodi.sourceforge.net/DTD/sodipodi-0.dtd"
   xmlns="http://www.w3.org/2000/svg"
   xmlns:svg="http://www.w3.org/2000/svg">
  <sodipodi:namedview
     id="namedview1"
     pagecolor="#ffffff"
     bordercolor="#000000"
     borderopacity="0.25"
     inkscape:showpageshadow="2"
     inkscape:pageopacity="0.0"
     inkscape:pagecheckerboard="0"
     inkscape:deskcolor="#d1d1d1"
     inkscape:zoom="11.298977"
     inkscape:cx="7.4343014"
     inkscape:cy="13.895063"
     inkscape:window-width="1920"
     inkscape:window-height="994"
     inkscape:window-x="0"
     inkscape:window-y="0"
     inkscape:window-maximized="1"
     inkscape:current-layer="svg1" />
  <defs
     id="defs1">
    <style
       type="text/css"
       id="style1">.ColorScheme-Text {
        color:#d8dee9;
      }</style>
  </defs>
  <g
     id="g1"
     transform="rotate(-90,11.999576,12.000002)">
    <path
       d="m 16.58282,7.7366583 c -1.66e-4,0.016342 -0.002,0.032644 -0.0044,0.048828 L 15.677,13.646696 c -0.03904,0.259496 -0.357534,0.363256 -0.542057,0.176615 L 14.007815,12.696022 10.401549,16.3033 c -0.373541,0.373374 -0.979058,0.373374 -1.3525995,0 l -1.352204,-1.353019 c -0.3734329,-0.37348 -0.3734329,-0.978893 0,-1.352378 L 11.304305,9.9909604 10.176831,8.8639888 C 9.9901645,8.6793889 10.094165,8.3609025 10.353839,8.3220119 l 5.862176,-0.9015706 c 0.193083,-0.029688 0.367239,0.1196456 0.367314,0.3149764 z m -1.441548,5.1910997 0.740062,-4.8098076 -4.808989,0.7412163 4.808989,-0.7412163 v 0 0 0 0 0 0 0 z"
       id="path8"
       style="fill:#b380ff;fill-opacity:1;stroke-width:0.318834"
       sodipodi:nodetypes="ccccccccccccccccccccccccccc" />
    <path
       d="M 4.923401,4.9378776 C 0.99307884,8.8706935 1.0252374,15.29 5.0198673,19.182106 8.7406733,22.80745 14.736636,22.955631 18.619907,19.505132 22.022468,16.481781 22.92548,11.664926 21.011231,7.6874363 20.78148,7.2100649 20.180028,7.0461672 19.727414,7.3211145 c -0.40581,0.2465457 -0.542982,0.7588904 -0.338972,1.1878546 1.577237,3.3163449 0.767952,7.3363359 -2.153354,9.7893279 -2.96309,2.488108 -7.3594155,2.529965 -10.36688,0.09573 C 3.0325604,15.289447 2.8127782,9.6223904 6.208884,6.2241455 8.6838908,3.747559 12.40048,3.1363784 15.500421,4.615478 15.926558,4.8187907 16.435815,4.678922 16.68082,4.2750927 l 0.002,-0.00268 C 16.956443,3.8209029 16.79522,3.2202916 16.319729,2.9908882 12.52255,1.1590786 7.9589407,1.900494 4.9234262,4.9379221 Z"
       id="path1-0-9"
       style="fill:#b380ff;fill-opacity:1;stroke-width:0.363697" />
  </g>
</svg>
