<?xml version="1.0" encoding="UTF-8" standalone="no"?>
<svg
   width="16"
   height="16"
   version="1.1"
   viewBox="0 0 16 16"
   id="svg1"
   sodipodi:docname="system-shutdown.svg"
   inkscape:version="1.3.2 (091e20ef0f, 2023-11-25)"
   xmlns:inkscape="http://www.inkscape.org/namespaces/inkscape"
   xmlns:sodipodi="http://sodipodi.sourceforge.net/DTD/sodipodi-0.dtd"
   xmlns="http://www.w3.org/2000/svg"
   xmlns:svg="http://www.w3.org/2000/svg">
  <defs
     id="defs1" />
  <sodipodi:namedview
     id="namedview1"
     pagecolor="#ffffff"
     bordercolor="#000000"
     borderopacity="0.25"
     inkscape:showpageshadow="2"
     inkscape:pageopacity="0.0"
     inkscape:pagecheckerboard="0"
     inkscape:deskcolor="#d1d1d1"
     inkscape:zoom="12.045287"
     inkscape:cx="10.792603"
     inkscape:cy="12.079414"
     inkscape:window-width="1920"
     inkscape:window-height="994"
     inkscape:window-x="0"
     inkscape:window-y="0"
     inkscape:window-maximized="1"
     inkscape:current-layer="svg1" />
  <path
     d="m 3.0466289,3.0565421 c -2.75124654,2.752993 -2.72873644,7.2465489 0.067528,9.9710549 2.6045879,2.537748 6.8017897,2.641477 9.5201131,0.2261 2.38181,-2.116352 3.013928,-5.4881789 1.67394,-8.2724439 -0.160829,-0.334165 -0.581849,-0.448896 -0.898691,-0.25643 -0.284072,0.172581 -0.380083,0.531229 -0.237273,0.831509 1.10407,2.32146 0.537562,5.1354769 -1.507349,6.8525829 -2.0742024,1.741687 -5.1516454,1.770988 -7.2568893,0.067 C 1.7230314,10.302696 1.5691813,6.3357261 3.9464742,3.9569381 c 1.7325193,-1.733628 4.3341544,-2.161459 6.5041318,-1.126081 0.298304,0.142323 0.65478,0.0444 0.826283,-0.238269 l 0.0018,-0.0018 c 0.191392,-0.31607 0.07854,-0.736499 -0.254311,-0.897086 C 8.3662816,0.41142507 5.1717218,0.93042107 3.0468421,3.0566421 Z"
     id="path1-0-4"
     style="fill:#c83771;stroke-width:0.25459" />
  <path
     d="m 4.9066562,8.4758531 c -0.011169,-0.06724 -0.02029,-0.135117 -0.027378,-0.203616 0.00445,0.0407 0.00812,0.0807 0.012528,0.121395 -0.031511,-0.309245 -0.023721,-0.6216 0.02181,-0.928978 -0.00643,0.04044 -0.012145,0.0802 -0.018563,0.120642 0.047614,-0.309361 0.1349089,-0.610312 0.2604099,-0.897488 -0.016497,0.03815 -0.033012,0.07633 -0.049477,0.113132 0.1283028,-0.291166 0.2940495,-0.565184 0.4936712,-0.814706 -0.026516,0.03319 -0.053725,0.06704 -0.080273,0.100194 0.2016685,-0.250142 0.4344071,-0.471805 0.6940571,-0.661009 -0.03443,0.02485 -0.06954,0.0504 -0.103978,0.07528 0.261699,-0.189836 0.546848,-0.343925 0.848593,-0.458371 -0.0389,0.01464 -0.07782,0.02923 -0.115377,0.04387 0.288063,-0.108018 0.58938,-0.178502 0.895859,-0.211659 -0.0407,0.0047 -0.08067,0.0081 -0.121356,0.0126 0.307104,-0.0311 0.616621,-0.02362 0.92181,0.02234 -0.0404,-0.0063 -0.08017,-0.01208 -0.120584,-0.0185 0.30449,0.0466 0.601239,0.132302 0.884919,0.254191 -0.03813,-0.0165 -0.07627,-0.03297 -0.113045,-0.0494 0.295673,0.128941 0.574146,0.296709 0.8254086,0.49831 -0.03315,-0.02649 -0.06693,-0.05372 -0.1000996,-0.08023 0.2499026,0.201572 0.4713096,0.434249 0.6602656,0.693869 -0.02481,-0.03441 -0.05032,-0.06953 -0.07519,-0.103968 0.189575,0.261674 0.343406,0.546827 0.456908,0.849269 -0.01464,-0.0389 -0.02915,-0.07783 -0.04377,-0.115389 0.107765,0.288098 0.178012,0.589491 0.210251,0.896728 -0.0045,-0.0407 -0.008,-0.0807 -0.01248,-0.121397 0.03093,0.307205 0.02313,0.616853 -0.02301,0.922187 0.0069,-0.04043 0.01212,-0.08021 0.01857,-0.120642 -0.04687,0.304641 -0.132673,0.601569 -0.255369,0.884752 0.01647,-0.03816 0.03294,-0.07632 0.0495,-0.113124 -0.129106,0.295878 -0.297656,0.573889 -0.499362,0.8253949 0.02649,-0.03317 0.05379,-0.06701 0.08027,-0.1002069 -0.201662,0.2501489 -0.43506,0.4711169 -0.6940536,0.6610089 0.03442,-0.02484 0.06955,-0.05041 0.103986,-0.07528 -0.258244,0.186532 -0.539297,0.339367 -0.837646,0.453219 0.03888,-0.0146 0.07782,-0.02919 0.115377,-0.04389 -0.292184,0.110628 -0.598291,0.183023 -0.908818,0.216081 0.0407,-0.0045 0.08067,-0.0081 0.121356,-0.01262 -0.308455,0.03111 -0.617978,0.02354 -0.924512,-0.02245 0.04041,0.0069 0.08017,0.01206 0.120586,0.01849 -0.07813,-0.01277 -0.156217,-0.02684 -0.23289,-0.04358 0.06565,0.268807 0.131306,0.537615 0.196292,0.805735 0.0035,-0.0035 0.0077,-0.007 0.01108,-0.01053 0.08866,-0.08447 0.145269,-0.212283 0.148997,-0.334639 0.0032,-0.117633 -0.04559,-0.258844 -0.132132,-0.341447 -0.08918,-0.08536 -0.206569,-0.150454 -0.334417,-0.148827 -0.127184,0.0024 -0.247205,0.0427 -0.341408,0.132432 -0.0035,0.0034 -0.0077,0.007 -0.01109,0.01055 -0.121908,0.116098 -0.174327,0.292749 -0.135813,0.456717 0.0373,0.158533 0.16868,0.313255 0.332769,0.349711 0.709562,0.154541 1.463951,0.138343 2.157371,-0.09037 0.630011,-0.207988 1.2113756,-0.553104 1.6756806,-1.030946 0.464275,-0.476495 0.813592,-1.0613029 1.003308,-1.7000559 0.195581,-0.657529 0.21869,-1.367293 0.07379,-2.037159 -0.141221,-0.654845 -0.452653,-1.26381 -0.882811,-1.775537 -0.212797,-0.252754 -0.461579,-0.472557 -0.727176,-0.668429 -0.268267,-0.197296 -0.5620536,-0.347839 -0.8692646,-0.475036 -0.315253,-0.130089 -0.641354,-0.204978 -0.97759,-0.253051 -0.346326,-0.05034 -0.69007,-0.04107 -1.035883,-0.0035 -0.299026,0.03267 -0.593594,0.103309 -0.874826,0.208788 -0.311931,0.11623 -0.608909,0.256505 -0.8847856,0.445314 -0.2731338,0.187532 -0.5285454,0.396458 -0.7504185,0.64341 -0.2211792,0.246292 -0.4199239,0.514778 -0.5766477,0.806604 -0.3248311,0.606381 -0.5015222,1.292124 -0.493697,1.981666 0.00201,0.221261 0.02408,0.444369 0.059891,0.662393 0.019389,0.117505 0.1204573,0.240375 0.2190598,0.299595 0.098619,0.05921 0.243972,0.0871 0.3563427,0.05532 0.1205456,-0.03429 0.238639,-0.105842 0.2996271,-0.219368 0.060983,-0.113526 0.075324,-0.227505 0.054858,-0.355859 z"
     id="path2-2-8"
     style="fill:#c83771;stroke-width:0.00956237" />
  <path
     d="M 2.4121807,13.963954 7.9022316,8.9099311 c 0.135374,-0.124621 0.14657,-0.490142 -0.07152,-0.727044 -0.218088,-0.236904 -0.62618,-0.216437 -0.761553,-0.09181 L 1.6220032,13.105616 c -0.1353736,0.124617 -0.146547,0.490114 0.071542,0.72702 0.2180869,0.236899 0.5832589,0.255945 0.7186322,0.131322 z"
     id="path2653-4-7"
     style="fill:#c83771;fill-opacity:0.986348;stroke-width:0.220474"
     sodipodi:nodetypes="sssssss" />
</svg>
