<?xml version="1.0" encoding="UTF-8" standalone="no"?>
<svg
   width="16px"
   height="16px"
   version="1.1"
   viewBox="0 0 16 16"
   id="svg1"
   sodipodi:docname="system-suspend-hibernate.svg"
   inkscape:version="1.3.2 (091e20ef0f, 2023-11-25)"
   xmlns:inkscape="http://www.inkscape.org/namespaces/inkscape"
   xmlns:sodipodi="http://sodipodi.sourceforge.net/DTD/sodipodi-0.dtd"
   xmlns="http://www.w3.org/2000/svg"
   xmlns:svg="http://www.w3.org/2000/svg">
  <defs
     id="defs1" />
  <sodipodi:namedview
     id="namedview1"
     pagecolor="#ffffff"
     bordercolor="#000000"
     borderopacity="0.25"
     inkscape:showpageshadow="2"
     inkscape:pageopacity="0.0"
     inkscape:pagecheckerboard="0"
     inkscape:deskcolor="#d1d1d1"
     inkscape:zoom="11.984375"
     inkscape:cx="10.430248"
     inkscape:cy="-3.2959583"
     inkscape:window-width="1920"
     inkscape:window-height="994"
     inkscape:window-x="0"
     inkscape:window-y="0"
     inkscape:window-maximized="1"
     inkscape:current-layer="svg1" />
  <path
     d="m 5.6217714,3.714037 -0.488349,0.282084 0.928151,1.610613 -1.267866,-0.339714 -0.148632,0.545967 1.816854,0.485312 0.885673,1.534826 h -1.77135 l -1.328511,-1.32851 -0.400381,0.400379 0.928151,0.928145 h -1.859326 v 0.564178 h 1.859326 l -0.928151,0.931178 0.400381,0.397346 1.328511,-1.328511 h 1.768317 l -0.885672,1.531803 -1.813822,0.488345 0.145593,0.545969 1.270895,-0.342749 -0.931176,1.61061 0.488345,0.282086 0.93118,-1.610615 0.339719,1.270897 0.545979,-0.145594 -0.488347,-1.816849 1.049511,-1.813826 h 0.0031 l 1.049516,1.81996 -0.488347,1.813821 0.54597,0.145595 0.339719,-1.267865 0.9311756,1.607582 0.488348,-0.282086 -0.9281486,-1.610616 1.2678666,0.339721 0.14863,-0.542943 L 9.5377534,9.932227 8.6520784,8.397403 h 1.7713486 l 1.328511,1.32851 0.400379,-0.397354 -0.928149,-0.931175 h 1.859326 V 7.833209 h -1.859191 l 0.928148,-0.928144 -0.02732,-0.03335 H 11.388057 L 10.42349,7.833248 H 8.6521374 l 0.558108,-0.961533 h -0.646097 l -0.564173,0.961533 -0.0031,-0.0031 -1.046484,-1.813823 0.488346,-1.813823 -0.545973,-0.148629 -0.339718,1.270895 z m 6.0512526,1.03732 h 0.849334 L 12.504128,5.17601 H 10.82371 L 11.673049,3.905115 H 10.823714 V 3.4835 h 1.698591 z M 9.4102324,5.882715 h 0.8493306 l -0.01823,0.42162 H 8.5639394 L 9.4101664,5.036468 H 8.5639394 V 4.611815 h 1.6955586 z"
     id="path1"
     style="stroke-width:0.776499;fill:#5599ff;fill-opacity:1" />
  <path
     d="m 3.046631,3.0567951 c -2.75116759,2.752918 -2.72865709,7.2463259 0.067522,9.9707489 2.604509,2.53767 6.8015838,2.641405 9.519818,0.226098 2.381736,-2.116295 3.013832,-5.4880049 1.673886,-8.2721899 -0.160821,-0.334155 -0.581837,-0.448883 -0.898666,-0.256424 -0.284061,0.172583 -0.380069,0.531212 -0.237264,0.831482 1.104043,2.321399 0.537546,5.1353269 -1.507304,6.8523709 C 9.5904926,14.15052 6.513137,14.179824 4.4079693,12.475851 1.7230744,10.302693 1.5692318,6.3358501 3.9464477,3.9571321 c 1.7324641,-1.733571 4.3340196,-2.161391 6.5039263,-1.126044 0.298303,0.14232 0.654761,0.04436 0.82626,-0.238264 l 0.0018,-0.0022 c 0.191545,-0.31603 0.07866,-0.736438 -0.254149,-0.897021 C 8.3663294,0.41136609 5.1718709,0.93035009 3.047062,3.0564961 Z"
     id="path1-0-9-2-6"
     style="fill:#5599ff;fill-opacity:1;stroke-width:0.254585" />
</svg>
