<?xml version="1.0" encoding="UTF-8" standalone="no"?>
<svg
   width="16px"
   height="16px"
   version="1.1"
   viewBox="0 0 16 16"
   id="svg1"
   sodipodi:docname="system-switch-user.svg"
   inkscape:version="1.3.2 (091e20ef0f, 2023-11-25)"
   xmlns:inkscape="http://www.inkscape.org/namespaces/inkscape"
   xmlns:sodipodi="http://sodipodi.sourceforge.net/DTD/sodipodi-0.dtd"
   xmlns="http://www.w3.org/2000/svg"
   xmlns:svg="http://www.w3.org/2000/svg">
  <defs
     id="defs1" />
  <sodipodi:namedview
     id="namedview1"
     pagecolor="#ffffff"
     bordercolor="#000000"
     borderopacity="0.25"
     inkscape:showpageshadow="2"
     inkscape:pageopacity="0.0"
     inkscape:pagecheckerboard="0"
     inkscape:deskcolor="#d1d1d1"
     inkscape:zoom="33.896931"
     inkscape:cx="11.534967"
     inkscape:cy="7.921071"
     inkscape:window-width="1920"
     inkscape:window-height="994"
     inkscape:window-x="0"
     inkscape:window-y="0"
     inkscape:window-maximized="1"
     inkscape:current-layer="svg1" />
  <path
     d="M 8.33037,1 C 6.5967866,1 5.5238661,2.0640375 5.3691364,3.3590409 V 4.2147952 L 3.4902969,2.9333884 2.75,3.494843 4.9709263,5.1701193 5.7112228,5.7270417 6.4515189,5.1701193 8.6724448,3.494843 7.9321491,2.9333884 6.2406654,4.2147952 V 3.3590409 c 0,-0.8738727 0.9277126,-1.5168246 2.0897046,-1.5168246 1.161993,0 2.286415,0.6429519 2.272378,1.5168246 v 0.6836949 h 0.871488 V 3.3590409 C 11.474236,2.0550306 10.068584,1 8.3303223,1 Z m 2.272378,3.8849059 c -0.965191,0 -1.747612,0.7561401 -1.747612,1.6888382 0,0.9282 0.782456,1.6843167 1.747612,1.6843167 0.960506,0 1.742944,-0.7561402 1.742944,-1.6843167 0,-0.9327323 -0.782458,-1.6888382 -1.742944,-1.6888382 z M 5.3691364,6.5737441 c -0.9651967,0 -1.747619,0.7516194 -1.747619,1.6843167 0,0.932697 0.782459,1.6843152 1.747619,1.6843152 0.9605059,0 1.7429391,-0.7516182 1.7429391,-1.6843152 0,-0.9326973 -0.7824579,-1.6843167 -1.7429391,-1.6843167 z m 5.2476486,2.5265326 c -1.326005,0 -2.4129586,0.9825413 -2.600434,2.2548343 0.5107075,0.556922 0.8386881,1.118363 0.8386881,1.960539 H 12.720553 C 13.062592,12.858336 13.25,12.305955 13.25,11.735424 13.25,10.282 12.069275,9.1002767 10.616827,9.1002767 Z m -0.04687,0.8421713 c 0.965192,0 1.742942,0.71086 1.742942,1.580228 0,0.344119 -0.121818,0.67917 -0.346718,0.950839 H 9.501608 C 9.431318,12.020742 9.192375,11.61323 8.855025,11.296309 8.9815319,10.531104 9.69839,9.942459 10.569901,9.942459 Z m -5.2007494,0.846696 c -1.4477524,0 -2.6191481,1.177206 -2.6191481,2.63063 0,0.570507 0.1874164,1.127429 0.529455,1.580226 h 4.1794066 c 0.3420384,-0.452773 0.5247649,-1.009696 0.5247649,-1.580226 0,-1.453424 -1.1713473,-2.63063 -2.6144695,-2.63063 z m 0,0.842175 c 0.9605061,0 1.7429395,0.846705 1.7429395,1.897134 0,0.212802 -0.037484,0.425614 -0.10308,0.629361 h -3.284475 c -0.065601,-0.203747 -0.103078,-0.416559 -0.103078,-0.629361 0,-1.050453 0.7824578,-1.897134 1.7476183,-1.897134 z"
     id="path1"
     style="stroke-width:1.17913;fill:#ff89ff;fill-opacity:1" />
</svg>
