<?xml version="1.0" encoding="UTF-8" standalone="no"?>
<svg
   width="16px"
   height="16px"
   version="1.1"
   viewBox="0 0 16 16"
   id="svg1"
   sodipodi:docname="system-lock-screen.svg"
   inkscape:version="1.3.2 (091e20ef0f, 2023-11-25)"
   xmlns:inkscape="http://www.inkscape.org/namespaces/inkscape"
   xmlns:sodipodi="http://sodipodi.sourceforge.net/DTD/sodipodi-0.dtd"
   xmlns="http://www.w3.org/2000/svg"
   xmlns:svg="http://www.w3.org/2000/svg">
  <defs
     id="defs1" />
  <sodipodi:namedview
     id="namedview1"
     pagecolor="#ffffff"
     bordercolor="#000000"
     borderopacity="0.25"
     inkscape:showpageshadow="2"
     inkscape:pageopacity="0.0"
     inkscape:pagecheckerboard="0"
     inkscape:deskcolor="#d1d1d1"
     inkscape:zoom="23.96875"
     inkscape:cx="7.3011734"
     inkscape:cy="0.85528031"
     inkscape:window-width="1920"
     inkscape:window-height="994"
     inkscape:window-x="0"
     inkscape:window-y="0"
     inkscape:window-maximized="1"
     inkscape:current-layer="svg1" />
  <path
     class="fil0"
     d="m 4.8517316,7.9709927 c 0.6654079,-0.640506 1.6788527,-0.747627 2.4704318,-0.268995 l 3.4558356,-3.326568 c 0.493689,-0.475183 1.21686,0.276021 0.72317,0.751313 l -0.214655,0.206567 0.475221,0.493713 c 0.371924,0.386363 -0.229093,0.964895 -0.601015,0.578528 l -0.475216,-0.49364 -0.193187,0.185917 0.47523,0.493665 c 0.39257,0.407843 -0.20844,0.986421 -0.601017,0.578541 L 9.8912999,6.6763877 8.0453341,8.4532907 C 8.5149293,9.2418277 8.3684866,10.292657 7.7030716,10.933141 6.887413,11.71828 5.5814886,11.693416 4.7963352,10.877841 4.0111818,10.062153 4.036073,8.7561987 4.8517034,7.9710677 Z m 0.7231702,0.751262 c -0.4078292,0.39261 -0.4198758,1.024498 -0.027299,1.4322983 0.3925696,0.407883 1.0244765,0.419892 1.4323059,0.02719 0.4078292,-0.3926443 0.4198689,-1.0244643 0.0273,-1.4323193 -0.3925769,-0.407878 -1.0244765,-0.419872 -1.432313,-0.0272 z"
     id="path1-4-2"
     style="fill:#37c8ab;fill-opacity:1;fill-rule:nonzero;stroke:#37c8ab;stroke-width:0.029794;stroke-opacity:1;image-rendering:optimizeQuality;shape-rendering:geometricPrecision;text-rendering:geometricPrecision" />
  <path
     d="m 3.0469313,3.0571757 c -2.7510749,2.752854 -2.7285636,7.2461163 0.067548,9.9704373 2.6044223,2.537595 6.8013618,2.641283 9.5195117,0.226066 2.38166,-2.116222 3.01374,-5.4878143 1.673834,-8.2719063 -0.160816,-0.33413 -0.581815,-0.448835 -0.898626,-0.256433 -0.284054,0.17256 -0.380066,0.531232 -0.237267,0.831459 1.104009,2.321326 0.537538,5.1351563 -1.507257,6.8521863 -2.0740586,1.741592 -5.1513172,1.7709 -7.2564227,0.06685 -2.6848089,-2.173091 -2.83865,-6.1397713 -0.4615047,-8.5184293 1.7324083,-1.733541 4.3338766,-2.161318 6.5037164,-1.126024 0.298282,0.142314 0.65474,0.0447 0.826235,-0.238257 l 0.0014,-0.0025 C 11.46987,2.2745887 11.357015,1.8541927 11.024191,1.6936057 8.366319,0.41134674 5.1719605,0.93035874 3.0472204,3.0564357 Z"
     id="path1-0-9-9-7"
     style="fill:#37c8ab;fill-opacity:1;stroke-width:0.254582" />
</svg>
