<?xml version="1.0" encoding="UTF-8" standalone="no"?>
<svg
   version="1.1"
   viewBox="0 0 16 16"
   id="svg1"
   sodipodi:docname="system-save-session.svg"
   inkscape:version="1.3.2 (091e20ef0f, 2023-11-25)"
   xmlns:inkscape="http://www.inkscape.org/namespaces/inkscape"
   xmlns:sodipodi="http://sodipodi.sourceforge.net/DTD/sodipodi-0.dtd"
   xmlns:xlink="http://www.w3.org/1999/xlink"
   xmlns="http://www.w3.org/2000/svg"
   xmlns:svg="http://www.w3.org/2000/svg">
  <sodipodi:namedview
     id="namedview1"
     pagecolor="#ffffff"
     bordercolor="#000000"
     borderopacity="0.25"
     inkscape:showpageshadow="2"
     inkscape:pageopacity="0.0"
     inkscape:pagecheckerboard="0"
     inkscape:deskcolor="#d1d1d1"
     inkscape:zoom="47.9375"
     inkscape:cx="7.9895698"
     inkscape:cy="8"
     inkscape:window-width="1920"
     inkscape:window-height="994"
     inkscape:window-x="0"
     inkscape:window-y="0"
     inkscape:window-maximized="1"
     inkscape:current-layer="svg1" />
  <defs
     id="defs1">
    <linearGradient
       id="linearGradient1"
       inkscape:collect="always">
      <stop
         style="stop-color:#00ffcc;stop-opacity:1"
         offset="0"
         id="stop1" />
      <stop
         style="stop-color:#00ccff;stop-opacity:1"
         offset="1"
         id="stop2" />
    </linearGradient>
    <style
       type="text/css"
       id="style1">.ColorScheme-Text {
        color:#d8dee9;
      }</style>
    <linearGradient
       inkscape:collect="always"
       xlink:href="#linearGradient1"
       id="linearGradient2"
       x1="1"
       y1="15"
       x2="14.770535"
       y2="1"
       gradientUnits="userSpaceOnUse" />
  </defs>
  <path
     d="m3 1c-1.108 0-2 0.892-2 2v10c0 1.108 0.892 2 2 2h10c1.108 0 2-0.892 2-2v-8l-4-4h-8zm0 1h2v3c0 1.108 0.892 2 2 2h2c1.108 0 2-0.892 2-2v-2.5859l3 3v7.5859c0 0.554-0.446 1-1 1v-2c0-1.108-0.892-2-2-2h-6c-1.108 0-2 0.892-2 2v2c-0.554 0-1-0.446-1-1v-10c0-0.554 0.446-1 1-1zm3 0h2v4h-1c-0.554 0-1-0.446-1-1v-3zm-1 9h6c0.554 0 1 0.446 1 1v2h-8v-2c0-0.554 0.446-1 1-1z"
     id="path1"
     style="fill:url(#linearGradient2)" />
</svg>
