<?xml version="1.0" encoding="UTF-8" standalone="no"?>
<!-- Created with Inkscape (http://www.inkscape.org/) -->

<svg
   width="16"
   version="1.1"
   height="16"
   id="svg57"
   sodipodi:docname="camera-web.svg"
   inkscape:version="1.3.1 (91b66b0783, 2023-11-16)"
   xmlns:inkscape="http://www.inkscape.org/namespaces/inkscape"
   xmlns:sodipodi="http://sodipodi.sourceforge.net/DTD/sodipodi-0.dtd"
   xmlns:xlink="http://www.w3.org/1999/xlink"
   xmlns="http://www.w3.org/2000/svg"
   xmlns:svg="http://www.w3.org/2000/svg">
  <sodipodi:namedview
     id="namedview59"
     pagecolor="#ffffff"
     bordercolor="#000000"
     borderopacity="0.25"
     inkscape:showpageshadow="2"
     inkscape:pageopacity="0.0"
     inkscape:pagecheckerboard="0"
     inkscape:deskcolor="#d1d1d1"
     showgrid="false"
     inkscape:zoom="10.429825"
     inkscape:cx="6.8074009"
     inkscape:cy="7.6223714"
     inkscape:window-width="1920"
     inkscape:window-height="994"
     inkscape:window-x="0"
     inkscape:window-y="0"
     inkscape:window-maximized="1"
     inkscape:current-layer="layer1" />
  <defs
     id="defs5455">
    <linearGradient
       id="linearGradient5"
       inkscape:collect="always">
      <stop
         style="stop-color:#ff00ff;stop-opacity:1"
         offset="0"
         id="stop4" />
      <stop
         style="stop-color:#ffd42a;stop-opacity:1"
         offset="1"
         id="stop5" />
    </linearGradient>
    <linearGradient
       inkscape:collect="always"
       id="linearGradient5002">
      <stop
         style="stop-color:#2e5d89"
         id="stop5004" />
      <stop
         offset="1"
         style="stop-color:#1b92f4"
         id="stop5006" />
    </linearGradient>
    <linearGradient
       inkscape:collect="always"
       id="linearGradient4352"
       xlink:href="#linearGradient5002"
       y1="512.79797"
       y2="527.79797"
       x1="400.57144"
       x2="415.57144"
       gradientUnits="userSpaceOnUse"
       gradientTransform="matrix(1.1818182,0,0,1.1818182,-74.28571,-95.23599)" />
    <linearGradient
       inkscape:collect="always"
       xlink:href="#linearGradient5"
       id="linearGradient2"
       x1="381.2381"
       y1="505.07922"
       x2="387.90479"
       y2="505.07922"
       gradientUnits="userSpaceOnUse" />
    <linearGradient
       inkscape:collect="always"
       xlink:href="#linearGradient5"
       id="linearGradient3"
       x1="379.57144"
       y1="498.17297"
       x2="389.57144"
       y2="498.17297"
       gradientUnits="userSpaceOnUse" />
    <linearGradient
       inkscape:collect="always"
       xlink:href="#linearGradient5"
       id="linearGradient4"
       x1="381.2381"
       y1="498.17297"
       x2="387.90479"
       y2="498.17297"
       gradientUnits="userSpaceOnUse" />
  </defs>
  <metadata
     id="metadata5458" />
  <g
     inkscape:label="Capa 1"
     inkscape:groupmode="layer"
     id="layer1"
     transform="translate(-376.57144,-491.79797)">
    <path
       cx="408.57144"
       cy="519.79797"
       inkscape:connector-curvature="0"
       style="fill:url(#linearGradient4352);stroke-width:2;stroke-linecap:round;stroke-linejoin:round"
       id="circle4309-6"
       r="9.999989"
       d="" />
    <path
       d="m 382.90477,503.86047 v 0.8125 h 3.33334 v -0.8125 z m -1.66666,1.625 v 0.8125 h 6.66666 v -0.8125 z"
       id="path1"
       style="stroke-width:0.82285;fill:url(#linearGradient2)" />
    <path
       d="m 384.57144,493.29797 c -2.76142,0 -5,2.18261 -5,4.875 0,2.69239 2.23858,4.875 5,4.875 2.76142,0 5,-2.18261 5,-4.875 0,-2.69239 -2.23858,-4.875 -5,-4.875 z m 0,0.8125 c 2.30118,0 4.16667,1.81884 4.16667,4.0625 0,2.24366 -1.86549,4.0625 -4.16667,4.0625 -2.30119,0 -4.16667,-1.81884 -4.16667,-4.0625 0,-2.24366 1.86548,-4.0625 4.16667,-4.0625 z"
       id="path2"
       style="stroke-width:0.82285;fill:url(#linearGradient3)" />
    <path
       d="m 384.57144,494.92297 c -1.84095,0 -3.33333,1.45507 -3.33333,3.25 0,1.79493 1.49238,3.25 3.33333,3.25 1.84095,0 3.33333,-1.45507 3.33333,-3.25 0,-1.79493 -1.49238,-3.25 -3.33333,-3.25 z m 0,1.625 c 0.92047,0 1.66667,0.72754 1.66667,1.625 0,0.89746 -0.7462,1.625 -1.66667,1.625 -0.92047,0 -1.66667,-0.72754 -1.66667,-1.625 0,-0.89746 0.7462,-1.625 1.66667,-1.625 z"
       id="path3-1"
       style="stroke-width:0.82285;fill:url(#linearGradient4)" />
  </g>
</svg>
