<?xml version="1.0" encoding="UTF-8" standalone="no"?>
<!-- Created with Inkscape (http://www.inkscape.org/) -->

<svg
   width="64"
   version="1.1"
   height="64"
   id="svg2900"
   sodipodi:docname="cpu.svg"
   inkscape:version="1.3.1 (91b66b0783, 2023-11-16)"
   xmlns:inkscape="http://www.inkscape.org/namespaces/inkscape"
   xmlns:sodipodi="http://sodipodi.sourceforge.net/DTD/sodipodi-0.dtd"
   xmlns:xlink="http://www.w3.org/1999/xlink"
   xmlns="http://www.w3.org/2000/svg"
   xmlns:svg="http://www.w3.org/2000/svg">
  <sodipodi:namedview
     id="namedview2902"
     pagecolor="#ffffff"
     bordercolor="#666666"
     borderopacity="1.0"
     inkscape:showpageshadow="2"
     inkscape:pageopacity="0.0"
     inkscape:pagecheckerboard="0"
     inkscape:deskcolor="#d1d1d1"
     showgrid="false"
     inkscape:zoom="3.6875"
     inkscape:cx="11.389831"
     inkscape:cy="21.288136"
     inkscape:window-width="1920"
     inkscape:window-height="994"
     inkscape:window-x="0"
     inkscape:window-y="0"
     inkscape:window-maximized="1"
     inkscape:current-layer="layer1">
    <inkscape:grid
       type="xygrid"
       id="grid4377"
       originx="0"
       originy="0"
       spacingy="1"
       spacingx="1"
       units="px"
       visible="false" />
  </sodipodi:namedview>
  <defs
     id="defs5455">
    <linearGradient
       inkscape:collect="always"
       id="linearGradient4251-0">
      <stop
         style="stop-color:#63984b"
         id="stop4253-4" />
      <stop
         offset="1"
         style="stop-color:#8fc278"
         id="stop4255-2" />
    </linearGradient>
    <linearGradient
       id="i"
       x1="8.4668999"
       x2="8.4668999"
       y1="280.59"
       y2="296.45999"
       gradientUnits="userSpaceOnUse"
       gradientTransform="matrix(3.2754668,0,0,3.2754668,380.83844,-421.27251)"
       xlink:href="#linearGradient4251-0">
      <stop
         stop-color="#69a7cc"
         offset="0"
         id="stop3068" />
      <stop
         stop-color="#325695"
         offset="1"
         id="stop3070" />
    </linearGradient>
    <filter
       id="m"
       x="-0.060000045"
       y="-0.060000045"
       width="1.1200001"
       height="1.1200001"
       color-interpolation-filters="sRGB">
      <feGaussianBlur
         stdDeviation="0.21980767"
         id="feGaussianBlur3073" />
    </filter>
    <linearGradient
       id="b"
       x1="-42"
       x2="-6"
       y1="-24"
       y2="-24"
       gradientTransform="matrix(0.77033905,0,0,0.77032278,-434.32914,-330.74948)"
       gradientUnits="userSpaceOnUse">
      <stop
         stop-color="#d0d0d0"
         offset="0"
         id="stop3021" />
      <stop
         stop-color="#f1eeee"
         offset="1"
         id="stop3023" />
    </linearGradient>
    <linearGradient
       id="paint0_linear"
       x1="23.200001"
       y1="112.889"
       x2="138.625"
       y2="12.178"
       gradientUnits="userSpaceOnUse"
       gradientTransform="matrix(0.40625,0,0,0.40625,382.57144,497.79797)">
      <stop
         stop-color="#FE0844"
         id="stop1" />
      <stop
         offset="1"
         stop-color="#FEB302"
         id="stop2" />
    </linearGradient>
  </defs>
  <metadata
     id="metadata5458" />
  <g
     inkscape:label="Capa 1"
     inkscape:groupmode="layer"
     id="layer1"
     transform="matrix(1 0 0 1 -376.57144 -491.79797)">
    <path
       d="m 402.47769,531.41516 h 12.1875 c 0.84134,0 1.52344,-0.6821 1.52344,-1.52344 v -12.1875 c 0,-0.84134 -0.6821,-1.52344 -1.52344,-1.52344 h -12.1875 c -0.84134,0 -1.52344,0.6821 -1.52344,1.52344 v 12.1875 c 0,0.84134 0.6821,1.52344 1.52344,1.52344 z m 1.52344,-12.1875 h 9.14062 v 9.14062 h -9.14062 z m 22.95312,3.04687 h 6.09375 c 0.84135,0 1.52344,-0.68209 1.52344,-1.52343 v -6.09375 c 0,-0.84135 -0.68209,-1.52344 -1.52344,-1.52344 h -6.09375 c -0.84134,0 -1.52344,0.68209 -1.52344,1.52344 v 1.52343 h -3.14843 v -4.57031 c 0,-0.84134 -0.6821,-1.52344 -1.52344,-1.52344 h -4.57031 v -3.14843 h 1.52343 c 0.84135,0 1.52344,-0.6821 1.52344,-1.52344 v -6.09375 c 0,-0.84135 -0.68209,-1.52344 -1.52344,-1.52344 h -6.09375 c -0.84134,0 -1.52343,0.68209 -1.52343,1.52344 v 6.09375 c 0,0.84134 0.68209,1.52344 1.52343,1.52344 h 1.52344 v 3.14843 h -9.14062 v -3.14843 h 1.52343 c 0.84135,0 1.52344,-0.6821 1.52344,-1.52344 v -6.09375 c 0,-0.84135 -0.68209,-1.52344 -1.52344,-1.52344 h -6.09375 c -0.84134,0 -1.52343,0.68209 -1.52343,1.52344 v 6.09375 c 0,0.84134 0.68209,1.52344 1.52343,1.52344 h 1.52344 v 3.14843 h -4.57031 c -0.84134,0 -1.52344,0.6821 -1.52344,1.52344 v 4.57031 h -3.14844 v -1.52343 c 0,-0.84135 -0.68209,-1.52344 -1.52343,-1.52344 h -6.09375 c -0.84135,0 -1.52344,0.68209 -1.52344,1.52344 v 6.09375 c 0,0.84134 0.68209,1.52343 1.52344,1.52343 h 6.09375 c 0.84134,0 1.52343,-0.68209 1.52343,-1.52343 v -1.52344 h 3.14844 v 9.14062 h -3.14844 v -1.52343 c 0,-0.84135 -0.68209,-1.52344 -1.52343,-1.52344 h -6.09375 c -0.84135,0 -1.52344,0.68209 -1.52344,1.52344 v 6.09375 c 0,0.84134 0.68209,1.52343 1.52344,1.52343 h 6.09375 c 0.84134,0 1.52343,-0.68209 1.52343,-1.52343 v -1.52344 h 3.14844 v 4.57031 c 0,0.84134 0.6821,1.52344 1.52344,1.52344 h 4.57031 v 3.14844 h -1.52344 c -0.84134,0 -1.52343,0.68209 -1.52343,1.52343 v 6.09375 c 0,0.84135 0.68209,1.52344 1.52343,1.52344 h 6.09375 c 0.84135,0 1.52344,-0.68209 1.52344,-1.52344 v -6.09375 c 0,-0.84134 -0.68209,-1.52343 -1.52344,-1.52343 h -1.52343 v -3.14844 h 9.14062 v 3.14844 h -1.52344 c -0.84134,0 -1.52343,0.68209 -1.52343,1.52343 v 6.09375 c 0,0.84135 0.68209,1.52344 1.52343,1.52344 h 6.09375 c 0.84135,0 1.52344,-0.68209 1.52344,-1.52344 v -6.09375 c 0,-0.84134 -0.68209,-1.52343 -1.52344,-1.52343 h -1.52343 v -3.14844 h 4.57031 c 0.84134,0 1.52344,-0.6821 1.52344,-1.52344 v -4.57031 h 3.14843 v 1.52344 c 0,0.84134 0.6821,1.52343 1.52344,1.52343 h 6.09375 c 0.84135,0 1.52344,-0.68209 1.52344,-1.52343 v -6.09375 c 0,-0.84135 -0.68209,-1.52344 -1.52344,-1.52344 h -6.09375 c -0.84134,0 -1.52344,0.68209 -1.52344,1.52344 v 1.52343 h -3.14843 v -9.14062 h 3.14843 v 1.52344 c 0,0.84134 0.6821,1.52343 1.52344,1.52343 z m 1.52344,-6.09375 h 3.04687 v 3.04688 h -3.04687 z m -39.8125,3.04688 h -3.04688 v -3.04688 h 3.04688 z m 0,12.1875 h -3.04688 v -3.04688 h 3.04688 z m 24.47656,-30.57031 h 3.04688 v 3.04687 h -3.04688 z m -12.1875,0 h 3.04688 v 3.04687 h -3.04688 z m 3.04688,45.90625 h -3.04688 v -3.04688 h 3.04688 z m 12.1875,0 h -3.04688 v -3.04688 h 3.04688 z m 3.04687,-12.28907 h -21.32812 v -21.32812 h 21.32812 z m 9.24219,-6.09375 h 3.04687 v 3.04688 h -3.04687 z"
       fill="url(#paint0_linear)"
       id="path1"
       style="fill:url(#paint0_linear);stroke-width:0.40625" />
  </g>
</svg>
