<?xml version="1.0" encoding="UTF-8" standalone="no"?>
<svg
   width="16"
   height="16"
   version="1.1"
   id="svg1"
   sodipodi:docname="drive-multidisk.svg"
   inkscape:version="1.3.1 (91b66b0783, 2023-11-16)"
   xmlns:inkscape="http://www.inkscape.org/namespaces/inkscape"
   xmlns:sodipodi="http://sodipodi.sourceforge.net/DTD/sodipodi-0.dtd"
   xmlns:xlink="http://www.w3.org/1999/xlink"
   xmlns="http://www.w3.org/2000/svg"
   xmlns:svg="http://www.w3.org/2000/svg">
  <defs
     id="defs1">
    <linearGradient
       id="linearGradient1"
       inkscape:collect="always">
      <stop
         style="stop-color:#ffd42a;stop-opacity:1"
         offset="0"
         id="stop1" />
      <stop
         style="stop-color:#ff3fff;stop-opacity:1;"
         offset="1"
         id="stop2" />
    </linearGradient>
    <linearGradient
       inkscape:collect="always"
       xlink:href="#linearGradient1"
       id="linearGradient2"
       x1="3.5312512"
       y1="14.5"
       x2="14.5"
       y2="1.5000001"
       gradientUnits="userSpaceOnUse"
       gradientTransform="matrix(1,0,0,0.96153943,0,0.30769073)" />
  </defs>
  <sodipodi:namedview
     id="namedview1"
     pagecolor="#ffffff"
     bordercolor="#000000"
     borderopacity="0.25"
     inkscape:showpageshadow="2"
     inkscape:pageopacity="0.0"
     inkscape:pagecheckerboard="0"
     inkscape:deskcolor="#d1d1d1"
     inkscape:zoom="22.512993"
     inkscape:cx="6.1742124"
     inkscape:cy="13.347848"
     inkscape:window-width="1920"
     inkscape:window-height="994"
     inkscape:window-x="0"
     inkscape:window-y="0"
     inkscape:window-maximized="1"
     inkscape:current-layer="svg1" />
  <path
     d="m 6.3749339,1.7533663 c -1.2183439,0 -2.065782,0.8096244 -2.3819253,1.5880071 L 1.6618641,8.4059402 c -0.00263,0.00594 -0.00378,0.012343 -0.00634,0.018311 l -0.047609,0.1174597 h 0.00952 c -0.070735,0.1989645 -0.1174373,0.408963 -0.1174373,0.6315358 0,0.5248327 0.2152556,0.9983253 0.5633551,1.3485463 l -0.4014869,1.00831 c -0.00263,0.0063 -0.00378,0.01231 -0.00634,0.01826 l -0.047609,0.117459 h 0.00952 c -0.070734,0.199013 -0.1174365,0.40901 -0.1174365,0.631581 0,1.081745 0.9059377,1.952597 2.0312506,1.952597 h 8.9375059 c 1.12531,4e-6 2.031243,-0.870848 2.031243,-1.952593 0,-0.222581 -0.04668,-0.432568 -0.117429,-0.631542 h 0.0099 l -0.04758,-0.117456 -0.0031,-0.01215 c -0.0011,-0.0027 -0.0028,-0.0043 -0.0031,-0.0062 L 13.93626,10.521613 c 0.348097,-0.350179 0.563348,-0.8236854 0.563348,-1.348542 0,-0.2225809 -0.04668,-0.4325704 -0.117427,-0.6315405 h 0.0099 l -0.04755,-0.117503 -0.0031,-0.012202 c -0.0011,-0.0021 -0.0028,-0.00406 -0.0031,-0.00606 L 12.007025,3.341384 C 11.690833,2.5630085 10.841498,1.6887844 9.6251001,1.7533764 h -1.625 -1.6250006 z m 0,0.7810385 H 9.624935 c 0.900248,0 1.388156,0.5075808 1.625003,1.0907197 l 1.744031,3.6779117 C 12.81553,7.2540615 12.663929,7.2206601 12.468702,7.2206601 H 3.5311994 c -0.1952272,0 -0.3484242,0.030349 -0.526857,0.079317 L 4.7499172,3.6251174 C 4.986786,3.0420094 5.4746674,2.5343968 6.374918,2.5343968 Z M 3.531184,8.0016752 h 8.937499 c 0.675187,0 1.218753,0.5225139 1.218753,1.1715569 0,0.6490442 -0.543566,1.1715589 -1.218753,1.1715589 H 3.531184 c -0.6751884,0 -1.2187511,-0.5225147 -1.2187511,-1.1715589 0,-0.649043 0.5435627,-1.1715569 1.2187511,-1.1715569 z M 8.396679,8.7827134 A 0.40625013,0.39051928 0 0 0 7.999951,9.1732321 0.40625013,0.39051928 0 0 0 8.4062007,9.5637518 0.40625013,0.39051928 0 0 0 8.8124513,9.1732321 0.40625013,0.39051928 0 0 0 8.4062007,8.7827134 a 0.40625013,0.39051928 0 0 0 -0.00949,0 z m 1.624998,0 A 0.40625013,0.39051928 0 0 0 9.6249515,9.1732321 0.40625013,0.39051928 0 0 0 10.0312,9.5637518 0.40625013,0.39051928 0 0 0 10.437451,9.1732321 0.40625013,0.39051928 0 0 0 10.0312,8.7827134 a 0.40625013,0.39051928 0 0 0 -0.0095,0 z m 1.625006,0 a 0.40625013,0.39051928 0 0 0 -0.396727,0.3905187 0.40625013,0.39051928 0 0 0 0.40625,0.3905197 0.40625013,0.39051928 0 0 0 0.406243,-0.3905197 0.40625013,0.39051928 0 0 0 -0.406243,-0.3905187 0.40625013,0.39051928 0 0 0 -0.0096,0 z M 3.531184,11.125825 h 8.937499 c 0.675187,0 1.218753,0.522517 1.218753,1.17156 0,0.649044 -0.543566,1.171567 -1.218753,1.171567 H 3.531184 c -0.6751884,0 -1.2187511,-0.522523 -1.2187511,-1.171567 0,-0.649043 0.5435627,-1.17156 1.2187511,-1.17156 z m 4.865495,0.781036 a 0.40625013,0.39051928 0 0 0 -0.396728,0.390524 0.40625013,0.39051928 0 0 0 0.4062497,0.390524 0.40625013,0.39051928 0 0 0 0.4062506,-0.390524 0.40625013,0.39051928 0 0 0 -0.4062506,-0.390524 0.40625013,0.39051928 0 0 0 -0.00949,0 z m 1.624998,0 a 0.40625013,0.39051928 0 0 0 -0.3967255,0.390524 0.40625013,0.39051928 0 0 0 0.4062485,0.390524 0.40625013,0.39051928 0 0 0 0.406251,-0.390524 0.40625013,0.39051928 0 0 0 -0.406251,-0.390524 0.40625013,0.39051928 0 0 0 -0.0095,0 z m 1.625006,0 a 0.40625013,0.39051928 0 0 0 -0.396727,0.390524 0.40625013,0.39051928 0 0 0 0.40625,0.390524 0.40625013,0.39051928 0 0 0 0.406243,-0.390524 0.40625013,0.39051928 0 0 0 -0.406243,-0.390524 0.40625013,0.39051928 0 0 0 -0.0096,0 z"
     id="path1"
     style="fill:url(#linearGradient2);stroke-width:0.796613" />
</svg>
