<?xml version="1.0" encoding="UTF-8" standalone="no"?>
<svg
   version="1.1"
   viewBox="0 0 16 16"
   id="svg3"
   sodipodi:docname="drive-harddisk-encrypted.svg"
   inkscape:version="1.3.1 (91b66b0783, 2023-11-16)"
   xmlns:inkscape="http://www.inkscape.org/namespaces/inkscape"
   xmlns:sodipodi="http://sodipodi.sourceforge.net/DTD/sodipodi-0.dtd"
   xmlns:xlink="http://www.w3.org/1999/xlink"
   xmlns="http://www.w3.org/2000/svg"
   xmlns:svg="http://www.w3.org/2000/svg">
  <sodipodi:namedview
     id="namedview3"
     pagecolor="#ffffff"
     bordercolor="#000000"
     borderopacity="0.25"
     inkscape:showpageshadow="2"
     inkscape:pageopacity="0.0"
     inkscape:pagecheckerboard="0"
     inkscape:deskcolor="#d1d1d1"
     inkscape:zoom="16.948466"
     inkscape:cx="4.838196"
     inkscape:cy="6.2247521"
     inkscape:window-width="1920"
     inkscape:window-height="994"
     inkscape:window-x="0"
     inkscape:window-y="0"
     inkscape:window-maximized="1"
     inkscape:current-layer="svg3" />
  <defs
     id="defs1">
    <linearGradient
       id="linearGradient3"
       inkscape:collect="always">
      <stop
         style="stop-color:#ff5bff;stop-opacity:1;"
         offset="0"
         id="stop3" />
      <stop
         style="stop-color:#ffd42a;stop-opacity:1"
         offset="1"
         id="stop4" />
    </linearGradient>
    <style
       type="text/css"
       id="style1">.ColorScheme-Text { color:#d8dee9; }</style>
    <linearGradient
       inkscape:collect="always"
       xlink:href="#linearGradient3"
       id="linearGradient4"
       x1="1.4161394"
       y1="15.00002"
       x2="16.000082"
       y2="2"
       gradientUnits="userSpaceOnUse" />
    <linearGradient
       inkscape:collect="always"
       xlink:href="#linearGradient3"
       id="linearGradient1"
       gradientUnits="userSpaceOnUse"
       x1="1.4161394"
       y1="15.00002"
       x2="16.000082"
       y2="2" />
    <linearGradient
       inkscape:collect="always"
       xlink:href="#linearGradient3"
       id="linearGradient2"
       gradientUnits="userSpaceOnUse"
       x1="1.4161394"
       y1="15.00002"
       x2="16.000082"
       y2="2" />
    <linearGradient
       inkscape:collect="always"
       xlink:href="#linearGradient3"
       id="linearGradient5"
       gradientUnits="userSpaceOnUse"
       x1="1.4161394"
       y1="15.00002"
       x2="16.000082"
       y2="2" />
    <linearGradient
       inkscape:collect="always"
       xlink:href="#linearGradient3"
       id="linearGradient6"
       gradientUnits="userSpaceOnUse"
       x1="1.4161394"
       y1="15.00002"
       x2="16.000082"
       y2="2" />
  </defs>
  <g
     id="g3"
     transform="matrix(0.8125,0,0,0.84615254,1.500003,0.80769492)"
     style="fill:url(#linearGradient4)">
    <path
       d="M 6,2 C 4.5005,2 3.4575,3.0366 3.0684,4.0332 l -2.8691,7.4844 c -0.003232,0.0076 -0.004654,0.01581 -0.007813,0.02344 l -0.058594,0.15039 h 0.011719 c -0.08705,0.25475 -0.14453,0.52362 -0.14453,0.80859 0,1.385 1.115,2.5 2.5,2.5 h 11 c 1.385,0 2.5,-1.115 2.5,-2.5 0,-0.28498 -0.05748,-0.55384 -0.14453,-0.80859 h 0.01172 l -0.05859,-0.15039 -0.0039,-0.01563 c -0.0011,-0.0027 -0.0028,-0.0051 -0.0039,-0.0078 l -2.8692,-7.4844 c -0.38916,-0.99659 -1.4322,-2.0332 -2.9316,-2.0332 h -2 z m 0,1 h 4 c 1.108,0 1.7085,0.6499 2,1.3965 l 2.1875,5.7109 C 13.96789,10.044695 13.74028,9.99998 13.5,9.99998 h -11 c -0.24028,0 -0.46789,0.04472 -0.6875,0.10742 L 4,4.3965 C 4.29153,3.64992 4.892,3 6,3 Z m -3.5,8 h 11 c 0.831,0 1.5,0.669 1.5,1.5 0,0.831 -0.669,1.5 -1.5,1.5 H 2.5 C 1.669,14 1,13.331 1,12.5 1,11.669 1.669,11 2.5,11 Z"
       id="path1"
       style="fill:url(#linearGradient1)" />
    <circle
       cx="12.5"
       cy="12.5"
       r="0.5"
       id="circle1"
       style="fill:url(#linearGradient2)" />
    <circle
       cx="10.5"
       cy="12.5"
       r="0.5"
       id="circle2"
       style="fill:url(#linearGradient5)" />
    <circle
       cx="8.5"
       cy="12.5"
       r="0.5"
       id="circle3"
       style="fill:url(#linearGradient6)" />
  </g>
  <path
     d="M 9.172487,5.9814464 H 9.0609932 L 9.0603892,5.402775 C 9.0597848,4.7723915 8.5674718,4.2595239 7.9621584,4.2599974 7.3568453,4.2608439 6.8643817,4.7733339 6.8648313,5.4037157 l 0.0012,0.5786737 h -0.03965 C 6.6182997,5.9830184 6.4494739,6.1586679 6.4499296,6.3753798 v 1.7228618 c 0,0.2167105 0.1692662,0.3925183 0.3773571,0.3925183 l 2.3463271,-0.00159 c 0.2080879,0 0.3769094,-0.1758109 0.3764567,-0.3925201 v -1.723305 c 0,-0.2167082 -0.1692684,-0.3920496 -0.3773594,-0.3920496 z m -1.9021524,0.00114 -0.0012,-0.5786732 c 0,-0.3981621 0.3105537,-0.7220557 0.6928807,-0.7225253 0.3823265,0 0.6933328,0.3238921 0.6933328,0.7215837 l 0.00104,0.5786758 z"
     id="path2-67"
     style="fill:#ff557f;fill-opacity:1;stroke-width:0.0460659" />
</svg>
