<?xml version="1.0" encoding="UTF-8" standalone="no"?>
<svg
   width="64"
   height="64"
   viewBox="0 0 64 64"
   fill="none"
   version="1.1"
   id="svg38"
   sodipodi:docname="input-tablet.svg"
   inkscape:version="1.3.1 (91b66b0783, 2023-11-16)"
   xmlns:inkscape="http://www.inkscape.org/namespaces/inkscape"
   xmlns:sodipodi="http://sodipodi.sourceforge.net/DTD/sodipodi-0.dtd"
   xmlns="http://www.w3.org/2000/svg"
   xmlns:svg="http://www.w3.org/2000/svg">
  <sodipodi:namedview
     id="namedview38"
     pagecolor="#ffffff"
     bordercolor="#000000"
     borderopacity="0.25"
     inkscape:showpageshadow="2"
     inkscape:pageopacity="0.0"
     inkscape:pagecheckerboard="0"
     inkscape:deskcolor="#d1d1d1"
     inkscape:zoom="5.9921875"
     inkscape:cx="43.556714"
     inkscape:cy="61.997392"
     inkscape:window-width="1920"
     inkscape:window-height="994"
     inkscape:window-x="0"
     inkscape:window-y="0"
     inkscape:window-maximized="1"
     inkscape:current-layer="svg38" />
  <path
     d="m 48.564876,7.194914 c 1.997912,-0.2293109 2.365129,-0.1130772 4.134975,0.9392631 1.5729,0.8670511 2.733236,2.3246289 3.461892,3.9518999 -0.229844,0.02383 -0.461912,0.03637 -0.691756,0.05935 -0.504146,0.05037 -0.956722,0.313913 -1.275925,0.707227 -0.447685,0.552026 -0.810457,1.176075 -1.222132,1.755932 -0.184498,-1.357061 -0.953609,-2.654459 -2.189078,-3.289043 -1.247473,-0.719364 -0.951387,-0.32356 -2.293109,-0.599996 -0.243181,-0.06153 -0.436571,-0.184276 -0.597906,-0.343566 -0.716074,-0.7079384 -0.754619,-2.0160506 -0.0694,-2.7538821 0.192945,-0.207549 0.43257,-0.3635631 0.742437,-0.4271859 z"
     fill="url(#paint0_linear_644_96)"
     id="path1"
     style="fill:url(#paint0_linear_644_96);stroke-width:0.444573" />
  <path
     d="m 7.1122305,14.853635 c -0.018765,-3.964438 3.3773515,-7.5644626 7.3269405,-7.7152618 3.467982,-0.040847 6.936053,-0.018845 10.404079,-0.00941 -0.759908,1.2376784 -1.582369,2.4377149 -2.348546,3.6722498 -2.586127,0.03459 -5.172298,-0.04708 -7.752201,0.02832 -1.507281,0.03766 -2.886392,0.9958 -3.521198,2.359173 -0.140707,0.307867 -0.253317,0.625114 -0.340854,0.954988 -0.500323,3.534046 -0.112566,7.130954 -0.278303,10.690163 C 9.3981992,26.225504 8.4475239,27.827568 7.121611,29.115541 7.08721,24.362654 7.102855,19.606565 7.112231,14.853633 Z"
     fill="url(#paint1_linear_644_96)"
     id="path2"
     style="fill:url(#paint1_linear_644_96);stroke-width:0.444573" />
  <path
     d="m 24.84325,7.128966 c 4.143467,-0.01572 5.619495,-0.012564 9.762961,-0.00944 0.860116,-0.078529 1.735525,0.4555141 1.973194,1.3037109 0.03259,0.086959 0.05477,0.1735614 0.0682,0.2597641 0.183698,1.1819868 -1.184031,2.028721 -2.377977,2.101853 -1.033277,0.06331 -2.076201,0.02072 -3.109478,0.02267 -3.777628,-0.0063 -4.887816,0.0032 -8.665443,-0.0063 0.766177,-1.2345348 1.588638,-2.4345713 2.348546,-3.6722497 z"
     fill="url(#paint2_linear_644_96)"
     id="path3"
     style="fill:url(#paint2_linear_644_96);stroke-width:0.444573" />
  <path
     d="m 40.165466,9.8144415 c -0.0092,-0.1832086 -0.02436,-0.3618381 -0.01867,-0.5452246 0.02045,-0.655701 0.116211,-1.4439026 0.869763,-1.5809912 0.664681,-0.087447 1.358215,-0.1301932 2.024453,-0.013226 0.246782,0.043324 0.499833,0.1234046 0.66068,0.3154913 0.301243,0.3597042 0.296175,0.9059069 0.301287,1.3720863 -0.02152,0.1742727 -0.01685,0.3631274 -0.01094,0.5547829 0.02618,0.8448228 -0.720965,1.3300738 -1.565876,1.3514578 -0.193212,0.0049 -0.386601,0.0054 -0.579946,0.0018 -0.901239,-0.01676 -1.635629,-0.555895 -1.680753,-1.4561555 z"
     fill="url(#paint3_linear_644_96)"
     id="path4"
     style="fill:url(#paint3_linear_644_96);stroke-width:0.444573" />
  <path
     d="m 54.194062,12.852655 c 0.319203,-0.393314 0.771779,-0.656857 1.275925,-0.707227 0.229844,-0.02299 0.461912,-0.03552 0.691756,-0.05935 0.256519,0.876476 0.487697,1.771758 0.513037,2.689047 -0.02534,4.712075 0.0093,9.420995 -0.02223,14.129958 -1.028743,1.200037 -2.038813,2.422035 -2.892394,3.753977 -0.581501,0.854425 -0.522373,1.931892 -0.537933,2.918489 0.04046,2.616714 -0.0093,5.236583 -0.02534,7.856453 -0.0249,1.99809 0.131594,4.017831 -0.243626,5.993736 0.03734,-11.607495 0.02178,-23.214812 0.01867,-34.81915 0.411675,-0.579857 0.774447,-1.203906 1.222132,-1.755932 z"
     fill="url(#paint4_linear_644_96)"
     id="path5"
     style="fill:url(#paint4_linear_644_96);stroke-width:0.444573" />
  <path
     d="m 40.083175,18.339712 c 0.01063,-1.063553 0.871542,-1.885302 1.935094,-1.885836 v 0 c 1.017095,-4.89e-4 1.871431,0.744394 1.88419,1.761399 0.0071,0.566609 -0.01543,1.135129 -0.0092,1.699737 0.01885,5.136199 0.02841,10.272353 0.0469,15.408552 0.135195,1.357548 -0.7315,2.490543 -1.420189,3.586505 -0.08402,0.133683 -0.214595,0.226065 -0.369885,0.254918 v 0 c -0.201436,0.03739 -0.413897,-0.03699 -0.536244,-0.201347 -0.505613,-0.679174 -0.942362,-1.427036 -1.260498,-2.211174 -0.135061,-0.332941 -0.191033,-0.691178 -0.196768,-1.050437 -0.08598,-5.364487 -0.01449,-10.737332 -0.06575,-16.104309 -0.0051,-0.418299 -0.01178,-0.838242 -0.0076,-1.258008 z"
     fill="url(#paint5_linear_644_96)"
     id="path6"
     style="fill:url(#paint5_linear_644_96);stroke-width:0.444573" />
  <path
     d="m 10.602148,24.833859 c 0.165737,-3.559209 -0.22202,-7.156117 0.278303,-10.690163 -0.128215,11.541476 -0.0156,23.085975 -0.05317,34.630963 -0.08754,1.291041 0.519128,2.475384 1.360305,3.408098 -0.766133,0.948719 -1.4979,1.922779 -2.1983702,2.918179 C 9.5951896,54.764838 9.2199254,54.403845 8.8634221,54.033071 7.7658109,52.628664 7.1184857,50.8726 7.1091052,49.082304 c -0.00938,-1.941362 -0.01251,-3.885881 0.012506,-5.830355 1.172713,-1.112234 2.2234173,-2.362551 3.0646388,-3.744552 0.494054,-0.794941 0.412786,-1.768823 0.431547,-2.663927 -0.08447,-4.002225 0.02814,-8.007474 -0.01565,-12.009611 z"
     fill="url(#paint6_linear_644_96)"
     id="path7"
     style="fill:url(#paint6_linear_644_96);stroke-width:0.444573" />
  <path
     d="m 56.67478,14.775124 c 0.103141,0.537177 0.19339,1.077467 0.209394,1.627226 -0.03468,9.323634 0,18.650335 -0.01912,27.974235 -0.0249,1.592506 0.159601,3.207285 -0.184054,4.780852 -0.03734,-6.750533 0.0062,-13.501422 -0.02845,-20.252355 0.03156,-4.708963 -0.0031,-9.417883 0.02223,-14.129958 z"
     fill="url(#paint7_linear_644_96)"
     id="path8"
     style="fill:url(#paint7_linear_644_96);stroke-width:0.444573" />
  <path
     d="m 7.121611,29.115543 c 1.3259129,-1.287973 2.2765882,-2.890037 3.480537,-4.281684 0.04379,4.002137 -0.06882,8.007386 0.01565,12.009611 -0.01876,0.895104 0.06251,1.868986 -0.431547,2.663927 -0.8412217,1.382001 -1.891926,2.632318 -3.064639,3.744552 -0.028146,-4.712343 -0.028146,-9.424374 -1e-6,-14.136406 z"
     fill="url(#paint8_linear_644_96)"
     id="path9"
     style="fill:url(#paint8_linear_644_96);stroke-width:0.444573" />
  <path
     d="m 53.760158,32.659059 c 0.853581,-1.331942 1.863651,-2.55394 2.892394,-3.753977 0.03468,6.750933 -0.0089,13.501822 0.02845,20.252355 -0.03156,1.88499 -0.772668,3.72908 -1.998356,5.149046 -1.291485,1.306601 -2.967971,2.308669 -4.822286,2.494056 -3.273481,-0.171161 -6.553231,-0.129815 -9.831514,-0.165826 -1.830441,-0.02001 -2.871942,-1.983241 -1.788873,-3.459224 v 0 c 3.54307,-0.0093 7.086141,0.0093 10.625877,-0.0093 1.782739,0.01867 3.455668,-1.272368 3.934028,-2.990644 0.0409,-0.185387 0.115589,-0.562385 0.153378,-0.747772 0.37522,-1.975905 0.21873,-3.995646 0.243626,-5.993736 0.016,-2.61987 0.0658,-5.239739 0.02534,-7.856453 0.01556,-0.986597 -0.04357,-2.064064 0.537933,-2.918489 z"
     fill="url(#paint9_linear_644_96)"
     id="path10"
     style="fill:url(#paint9_linear_644_96);stroke-width:0.444573" />
  <path
     d="m 9.9892148,55.100936 c 0.7004702,-0.9954 1.4322372,-1.96946 2.1983702,-2.918179 0.850602,0.556161 1.804389,1.030521 2.84887,0.98962 3.061509,0.01245 6.122973,-0.01245 9.184482,0.0062 -0.54887,0.886924 -1.017895,1.855649 -1.68182,2.665661 -0.31138,0.38011 -0.744172,0.647743 -1.230135,0.719764 -0.715496,0.105809 -1.460111,0.05068 -2.182187,0.06713 -1.698047,-0.05646 -3.396139,0.05335 -5.09103,0.172494 -1.485408,-0.12537 -2.889504,-0.778892 -4.0465502,-1.702715 z"
     fill="url(#paint10_linear_644_96)"
     id="path11"
     style="fill:url(#paint10_linear_644_96);stroke-width:0.444573" />
  <path
     d="m 24.220937,53.178601 c 4.675087,-0.0062 9.346974,-0.0093 14.019038,-0.0031 v 0 c -1.083069,1.475983 -0.04157,3.439218 1.788873,3.459224 3.278283,0.03601 6.558033,-0.0053 9.831514,0.165826 -0.644186,0.06624 -1.294597,0.08491 -1.941851,0.08803 -10.013166,-0.0062 -20.026289,-0.0093 -30.036343,-0.01245 -1.282149,-0.0093 -2.56741,0.0409 -3.846403,-0.07247 1.694891,-0.119146 3.392983,-0.228955 5.09103,-0.172494 0.722076,-0.01645 1.466691,0.03868 2.182187,-0.06713 0.485963,-0.07202 0.918755,-0.339654 1.230135,-0.719764 0.663925,-0.810012 1.13295,-1.778737 1.68182,-2.665661 z"
     fill="url(#paint11_linear_644_96)"
     id="path12"
     style="fill:url(#paint11_linear_644_96);stroke-width:0.444573" />
  <path
     d="M 56.161743,12.086077 C 55.433087,10.458806 54.272751,9.0012282 52.699851,8.1341771 50.930005,7.0818368 50.562788,6.9656031 48.564876,7.194914 c -0.309867,0.063623 -0.549492,0.2196369 -0.742437,0.4271859 -0.685221,0.7378315 -0.646676,2.0459437 0.0694,2.7538821 0.161335,0.15929 0.354725,0.282037 0.597906,0.343566 1.341722,0.276436 1.045636,-0.119368 2.293109,0.599996 1.235469,0.634584 2.00458,1.931982 2.189078,3.289043 m 3.189813,-2.52251 c -0.229844,0.02383 -0.461912,0.03637 -0.691756,0.05935 -0.504146,0.05037 -0.956722,0.313913 -1.275925,0.707227 -0.447685,0.552026 -0.810457,1.176075 -1.222132,1.755932 m 3.189813,-2.52251 c 0.256519,0.876476 0.487697,1.771758 0.513037,2.689047 m -3.70285,-0.166537 c 0.0031,11.604338 0.01867,23.211655 -0.01867,34.81915 M 24.84325,7.128966 c -3.468026,-0.00944 -6.936097,-0.03144 -10.404079,0.00941 -3.949589,0.1507992 -7.3457059,3.750824 -7.3269405,7.715262 -0.00938,4.752932 -0.025021,9.509021 0.00938,14.261908 M 24.84325,7.128966 c -0.759908,1.2376784 -1.582369,2.4377149 -2.348546,3.67225 m 2.348546,-3.67225 c 4.143467,-0.01572 5.619495,-0.012564 9.762961,-0.00944 0.860116,-0.078529 1.735525,0.4555141 1.973194,1.3037109 0.03259,0.086959 0.05477,0.1735614 0.0682,0.2597641 0.183698,1.1819868 -1.184031,2.028721 -2.377977,2.101853 -1.033277,0.06331 -2.076201,0.02072 -3.109478,0.02267 -3.777628,-0.0063 -4.887816,0.0032 -8.665443,-0.0063 m 0,0 c -2.586127,0.03459 -5.172298,-0.04708 -7.752201,0.02832 -1.507281,0.03766 -2.886392,0.9958 -3.521198,2.359173 -0.140707,0.307867 -0.253317,0.625114 -0.340854,0.954988 m 0,0 c -0.500323,3.534046 -0.112566,7.130954 -0.278303,10.690163 m 0.278303,-10.690163 c -0.128215,11.541476 -0.0156,23.085975 -0.05317,34.630963 -0.08754,1.291041 0.519128,2.475384 1.360305,3.408098 M 10.602148,24.833859 C 9.3981992,26.225506 8.4475239,27.82757 7.121611,29.115543 m 3.480537,-4.281684 c 0.04379,4.002137 -0.06882,8.007386 0.01565,12.009611 -0.01876,0.895104 0.06251,1.868986 -0.431547,2.663927 -0.8412217,1.382001 -1.891926,2.632318 -3.064639,3.744552 m 0,-14.136406 c -0.028146,4.712032 -0.028146,9.424063 0,14.136406 M 56.67478,14.775124 c -0.02534,4.712075 0.0093,9.420995 -0.02223,14.129958 m 0.02223,-14.129958 c 0.103141,0.537177 0.19339,1.077467 0.209394,1.627226 -0.03468,9.323634 0,18.650335 -0.01912,27.974235 -0.0249,1.592506 0.159601,3.207285 -0.184054,4.780852 M 56.65255,28.905082 c -1.028743,1.200037 -2.038813,2.422035 -2.892394,3.753977 -0.581501,0.854425 -0.522373,1.931892 -0.537933,2.918489 0.04046,2.616714 -0.0093,5.236583 -0.02534,7.856453 -0.0249,1.99809 0.131594,4.017831 -0.243626,5.993736 m 3.699294,-20.522655 c 0.03468,6.750933 -0.0089,13.501822 0.02845,20.252355 m -3.727746,0.2703 c -0.03779,0.185387 -0.112477,0.562385 -0.153378,0.747772 -0.47836,1.718276 -2.151289,3.009316 -3.934028,2.990644 -3.539736,0.01867 -7.082807,0 -10.625877,0.0093 M 12.187582,52.182721 C 11.421449,53.13144 10.689682,54.1055 9.9892118,55.1009 m 2.1983702,-2.918179 c 0.850602,0.556161 1.804389,1.030521 2.84887,0.98962 3.061509,0.01245 6.122973,-0.01245 9.184482,0.0062 M 9.9892148,55.100936 C 9.5951896,54.764838 9.2199254,54.403845 8.8634221,54.033071 7.7658109,52.628664 7.1184857,50.8726 7.1091052,49.082304 c -0.00938,-1.941362 -0.01251,-3.885881 0.012506,-5.830355 M 9.989215,55.100936 c 1.157046,0.923823 2.561142,1.577345 4.04655,1.702715 m 42.645239,-7.646214 c -0.03156,1.88499 -0.772668,3.72908 -1.998356,5.149046 -1.291485,1.306601 -2.967971,2.308669 -4.822286,2.494056 m 0,0 c -3.273481,-0.171161 -6.553231,-0.129815 -9.831514,-0.165826 -1.830441,-0.02001 -2.871942,-1.983241 -1.788873,-3.459224 v 0 m 11.620387,3.62505 c -0.644186,0.06624 -1.294597,0.08491 -1.941851,0.08803 -10.013166,-0.0062 -20.026289,-0.0093 -30.036343,-0.01245 -1.282149,-0.0093 -2.56741,0.0409 -3.846403,-0.07247 m 24.20421,-3.628162 c -4.672064,-0.0062 -9.343951,-0.0031 -14.019038,0.0031 m 0,0 c -0.54887,0.886924 -1.017895,1.855649 -1.68182,2.665661 -0.31138,0.38011 -0.744172,0.647743 -1.230135,0.719764 -0.715496,0.105809 -1.460111,0.05068 -2.182187,0.06713 -1.698047,-0.05646 -3.396139,0.05335 -5.09103,0.172494 M 41.016557,7.6882257 c -0.753552,0.1370886 -0.849313,0.9252902 -0.869763,1.5809912 -0.0057,0.1833865 0.0095,0.362016 0.01867,0.5452246 v 0 c 0.04512,0.9002605 0.779514,1.4393945 1.680753,1.4561555 0.193345,0.0036 0.386734,0.0031 0.579946,-0.0018 0.844911,-0.02138 1.592061,-0.506635 1.565876,-1.3514578 -0.0059,-0.1916555 -0.01058,-0.3805102 0.01094,-0.5547829 C 43.997879,8.8963769 44.002935,8.3501742 43.701692,7.99047 43.540845,7.7983833 43.287794,7.7183023 43.041012,7.6749787 42.374774,7.5580115 41.68124,7.6007567 41.016559,7.6882047 Z m 2.876655,12.2267863 c -0.0062,-0.564608 0.01632,-1.133128 0.0092,-1.699737 -0.01276,-1.017005 -0.867095,-1.761888 -1.88419,-1.761399 v 0 c -1.063552,5.34e-4 -1.924468,0.822283 -1.935094,1.885836 -0.0042,0.419766 0.0025,0.839709 0.0076,1.258008 0.05126,5.366977 -0.02023,10.739822 0.06575,16.104309 0.0057,0.359259 0.06171,0.717496 0.196768,1.050437 0.318136,0.784138 0.754885,1.532 1.260498,2.211174 0.122347,0.164359 0.334808,0.238736 0.536244,0.201347 v 0 c 0.15529,-0.02885 0.285861,-0.121235 0.369885,-0.254918 0.688689,-1.095962 1.555384,-2.228957 1.420189,-3.586505 -0.01849,-5.136199 -0.02805,-10.272353 -0.0469,-15.408552 z"
     stroke="url(#paint12_linear_644_96)"
     stroke-width="2.22287"
     id="path13"
     style="stroke:url(#paint12_linear_644_96)" />
  <defs
     id="defs38">
    <linearGradient
       id="paint0_linear_644_96"
       x1="7.9999599"
       y1="120"
       x2="143.14301"
       y2="61.097198"
       gradientUnits="userSpaceOnUse"
       gradientTransform="matrix(0.4445732,0,0,0.4445732,3.543837,3.5397799)">
      <stop
         stop-color="#0357D1"
         id="stop13" />
      <stop
         offset="1"
         stop-color="#27CDFC"
         id="stop14" />
    </linearGradient>
    <linearGradient
       id="paint1_linear_644_96"
       x1="7.9999599"
       y1="120"
       x2="143.14301"
       y2="61.097198"
       gradientUnits="userSpaceOnUse"
       gradientTransform="matrix(0.4445732,0,0,0.4445732,3.543837,3.5397799)">
      <stop
         stop-color="#0357D1"
         id="stop15" />
      <stop
         offset="1"
         stop-color="#27CDFC"
         id="stop16" />
    </linearGradient>
    <linearGradient
       id="paint2_linear_644_96"
       x1="7.9999599"
       y1="120"
       x2="143.14301"
       y2="61.097198"
       gradientUnits="userSpaceOnUse"
       gradientTransform="matrix(0.4445732,0,0,0.4445732,3.543837,3.5397799)">
      <stop
         stop-color="#0357D1"
         id="stop17" />
      <stop
         offset="1"
         stop-color="#27CDFC"
         id="stop18" />
    </linearGradient>
    <linearGradient
       id="paint3_linear_644_96"
       x1="7.9999599"
       y1="120"
       x2="143.14301"
       y2="61.097198"
       gradientUnits="userSpaceOnUse"
       gradientTransform="matrix(0.4445732,0,0,0.4445732,3.543837,3.5397799)">
      <stop
         stop-color="#0357D1"
         id="stop19" />
      <stop
         offset="1"
         stop-color="#27CDFC"
         id="stop20" />
    </linearGradient>
    <linearGradient
       id="paint4_linear_644_96"
       x1="7.9999599"
       y1="120"
       x2="143.14301"
       y2="61.097198"
       gradientUnits="userSpaceOnUse"
       gradientTransform="matrix(0.4445732,0,0,0.4445732,3.543837,3.5397799)">
      <stop
         stop-color="#0357D1"
         id="stop21" />
      <stop
         offset="1"
         stop-color="#27CDFC"
         id="stop22" />
    </linearGradient>
    <linearGradient
       id="paint5_linear_644_96"
       x1="7.9999599"
       y1="120"
       x2="143.14301"
       y2="61.097198"
       gradientUnits="userSpaceOnUse"
       gradientTransform="matrix(0.4445732,0,0,0.4445732,3.543837,3.5397799)">
      <stop
         stop-color="#0357D1"
         id="stop23" />
      <stop
         offset="1"
         stop-color="#27CDFC"
         id="stop24" />
    </linearGradient>
    <linearGradient
       id="paint6_linear_644_96"
       x1="7.9999599"
       y1="120"
       x2="143.14301"
       y2="61.097198"
       gradientUnits="userSpaceOnUse"
       gradientTransform="matrix(0.4445732,0,0,0.4445732,3.543837,3.5397799)">
      <stop
         stop-color="#0357D1"
         id="stop25" />
      <stop
         offset="1"
         stop-color="#27CDFC"
         id="stop26" />
    </linearGradient>
    <linearGradient
       id="paint7_linear_644_96"
       x1="7.9999599"
       y1="120"
       x2="143.14301"
       y2="61.097198"
       gradientUnits="userSpaceOnUse"
       gradientTransform="matrix(0.4445732,0,0,0.4445732,3.543837,3.5397799)">
      <stop
         stop-color="#0357D1"
         id="stop27" />
      <stop
         offset="1"
         stop-color="#27CDFC"
         id="stop28" />
    </linearGradient>
    <linearGradient
       id="paint8_linear_644_96"
       x1="7.9999599"
       y1="120"
       x2="143.14301"
       y2="61.097198"
       gradientUnits="userSpaceOnUse"
       gradientTransform="matrix(0.4445732,0,0,0.4445732,3.543837,3.5397799)">
      <stop
         stop-color="#0357D1"
         id="stop29" />
      <stop
         offset="1"
         stop-color="#27CDFC"
         id="stop30" />
    </linearGradient>
    <linearGradient
       id="paint9_linear_644_96"
       x1="7.9999599"
       y1="120"
       x2="143.14301"
       y2="61.097198"
       gradientUnits="userSpaceOnUse"
       gradientTransform="matrix(0.4445732,0,0,0.4445732,3.543837,3.5397799)">
      <stop
         stop-color="#0357D1"
         id="stop31" />
      <stop
         offset="1"
         stop-color="#27CDFC"
         id="stop32" />
    </linearGradient>
    <linearGradient
       id="paint10_linear_644_96"
       x1="7.9999599"
       y1="120"
       x2="143.14301"
       y2="61.097198"
       gradientUnits="userSpaceOnUse"
       gradientTransform="matrix(0.4445732,0,0,0.4445732,3.543837,3.5397799)">
      <stop
         stop-color="#0357D1"
         id="stop33" />
      <stop
         offset="1"
         stop-color="#27CDFC"
         id="stop34" />
    </linearGradient>
    <linearGradient
       id="paint11_linear_644_96"
       x1="7.9999599"
       y1="120"
       x2="143.14301"
       y2="61.097198"
       gradientUnits="userSpaceOnUse"
       gradientTransform="matrix(0.4445732,0,0,0.4445732,3.543837,3.5397799)">
      <stop
         stop-color="#0357D1"
         id="stop35" />
      <stop
         offset="1"
         stop-color="#27CDFC"
         id="stop36" />
    </linearGradient>
    <linearGradient
       id="paint12_linear_644_96"
       x1="7.9999599"
       y1="120"
       x2="143.14301"
       y2="61.097198"
       gradientUnits="userSpaceOnUse"
       gradientTransform="matrix(0.4445732,0,0,0.4445732,3.543837,3.5397799)">
      <stop
         stop-color="#0357D1"
         id="stop37" />
      <stop
         offset="1"
         stop-color="#27CDFC"
         id="stop38" />
    </linearGradient>
  </defs>
</svg>
