<?xml version="1.0" encoding="UTF-8" standalone="no"?>
<svg
   width="64"
   height="64"
   viewBox="0 0 64 64"
   fill="none"
   version="1.1"
   id="svg5"
   sodipodi:docname="input-touchpad-off.svg"
   inkscape:version="1.3.1 (91b66b0783, 2023-11-16)"
   xmlns:inkscape="http://www.inkscape.org/namespaces/inkscape"
   xmlns:sodipodi="http://sodipodi.sourceforge.net/DTD/sodipodi-0.dtd"
   xmlns="http://www.w3.org/2000/svg"
   xmlns:svg="http://www.w3.org/2000/svg">
  <sodipodi:namedview
     id="namedview5"
     pagecolor="#ffffff"
     bordercolor="#000000"
     borderopacity="0.25"
     inkscape:showpageshadow="2"
     inkscape:pageopacity="0.0"
     inkscape:pagecheckerboard="0"
     inkscape:deskcolor="#d1d1d1"
     inkscape:zoom="5.9921875"
     inkscape:cx="31.541069"
     inkscape:cy="31.958279"
     inkscape:window-width="1920"
     inkscape:window-height="994"
     inkscape:window-x="0"
     inkscape:window-y="0"
     inkscape:window-maximized="1"
     inkscape:current-layer="svg5" />
  <path
     fill-rule="evenodd"
     clip-rule="evenodd"
     d="m 9.599995,9.4666668 c -0.07363,0 -0.133328,0.059696 -0.133328,0.133328 V 54.40004 c 0,0.07349 0.0597,0.133293 0.133328,0.133293 h 3.333356 -1.8e-5 V 47.6 h 5.2e-5 17.333282 v 6.933333 h 5.2 V 47.6 H 52.8 v 6.933333 h -7.583333 9.183373 c 0.07367,0 0.133293,-0.0598 0.133293,-0.133293 V 9.5999948 c 0,-0.073632 -0.05963,-0.133328 -0.133293,-0.133328 z M 6,9.5999948 C 6,7.6117748 7.611775,6.0000001 9.599995,6.0000001 H 54.40004 C 56.388173,6 58,7.6117747 58,9.5999948 V 54.40004 C 58,56.388173 56.388173,58 54.40004,58 H 9.599995 C 7.611775,58 6,56.388173 6,54.40004 Z"
     fill="url(#paint0_linear)"
     id="path1"
     style="fill:url(#paint0_linear);stroke-width:1.73333" />
  <path
     d="m 26.910587,12.933333 c -1.408334,0 -2.75912,0.559503 -3.755094,1.555442 C 22.15952,15.484713 21.6,16.8355 21.6,18.243972 c 5.2e-4,1.176916 0.39208,2.320327 1.112973,3.250589 0.720894,0.930332 1.730387,1.594719 2.870054,1.888866 v -2.847174 c -0.402654,-0.232422 -0.737187,-0.566488 -0.970147,-0.96876 -0.23296,-0.402272 -0.3562,-0.858658 -0.357587,-1.323521 0,-0.704236 0.27976,-1.379629 0.777747,-1.877599 0.497987,-0.497969 1.173293,-0.777712 1.877547,-0.777729 0.348746,0 0.694026,0.06866 1.016253,0.202107 0.322053,0.133449 0.614813,0.329021 0.861467,0.575588 0.24648,0.246566 0.442173,0.539309 0.575466,0.861466 0.133467,0.322158 0.20228,0.667472 0.20228,1.016167 -8.66e-4,0.119756 -0.0097,0.239287 -0.02669,0.357847 l 2.240507,1.742554 c 0.288253,-0.662844 0.43836,-1.377566 0.440786,-2.100401 0,-0.697407 -0.13728,-1.388019 -0.404213,-2.032333 -0.266936,-0.644315 -0.65815,-1.229714 -1.151283,-1.722864 -0.493133,-0.493134 -1.07848,-0.884312 -1.72276,-1.151211 -0.644453,-0.266881 -1.335013,-0.404231 -2.032333,-0.404231 z m 0,5.310639 0.01595,25.889361 7.950454,-10.621346 H 46.825893 L 26.910933,18.243972 Z"
     fill="url(#paint1_linear)"
     id="path2"
     style="fill:url(#paint1_linear);stroke-width:1.73333" />
  <defs
     id="defs5">
    <linearGradient
       id="paint0_linear"
       x1="16"
       y1="31"
       x2="16"
       y2="1"
       gradientUnits="userSpaceOnUse"
       gradientTransform="matrix(1.7333333,0,0,1.7333333,4.266667,4.2666667)">
      <stop
         stop-color="#FD3A84"
         id="stop2" />
      <stop
         offset="1"
         stop-color="#FFA68D"
         id="stop3" />
    </linearGradient>
    <linearGradient
       id="paint1_linear"
       x1="17.276699"
       y1="23"
       x2="17.276699"
       y2="5"
       gradientUnits="userSpaceOnUse"
       gradientTransform="matrix(1.7333333,0,0,1.7333333,4.266667,4.2666667)">
      <stop
         stop-color="#FF2424"
         id="stop4" />
      <stop
         offset="1"
         stop-color="#FF8D8D"
         id="stop5" />
    </linearGradient>
  </defs>
</svg>
