<?xml version="1.0" encoding="UTF-8" standalone="no"?>
<svg
   version="1.1"
   viewBox="0 0 16 16"
   id="svg3"
   sodipodi:docname="media-optical-audio.svg"
   inkscape:version="1.3.1 (91b66b0783, 2023-11-16)"
   xmlns:inkscape="http://www.inkscape.org/namespaces/inkscape"
   xmlns:sodipodi="http://sodipodi.sourceforge.net/DTD/sodipodi-0.dtd"
   xmlns:xlink="http://www.w3.org/1999/xlink"
   xmlns="http://www.w3.org/2000/svg"
   xmlns:svg="http://www.w3.org/2000/svg">
  <sodipodi:namedview
     id="namedview3"
     pagecolor="#ffffff"
     bordercolor="#000000"
     borderopacity="0.25"
     inkscape:showpageshadow="2"
     inkscape:pageopacity="0.0"
     inkscape:pagecheckerboard="0"
     inkscape:deskcolor="#d1d1d1"
     inkscape:zoom="16.948466"
     inkscape:cx="6.3722582"
     inkscape:cy="2.9206184"
     inkscape:window-width="1920"
     inkscape:window-height="994"
     inkscape:window-x="0"
     inkscape:window-y="0"
     inkscape:window-maximized="1"
     inkscape:current-layer="svg3" />
  <defs
     id="defs1">
    <linearGradient
       id="linearGradient7"
       inkscape:collect="always">
      <stop
         style="stop-color:#9955ff;stop-opacity:1"
         offset="0"
         id="stop6" />
      <stop
         style="stop-color:#ffdd55;stop-opacity:1"
         offset="1"
         id="stop7" />
    </linearGradient>
    <linearGradient
       id="linearGradient3"
       inkscape:collect="always">
      <stop
         style="stop-color:#000000;stop-opacity:1;"
         offset="0"
         id="stop3" />
      <stop
         style="stop-color:#000000;stop-opacity:0;"
         offset="1"
         id="stop4" />
    </linearGradient>
    <style
       id="current-color-scheme"
       type="text/css">.ColorScheme-Text { color:#dedede; }</style>
    <linearGradient
       inkscape:collect="always"
       xlink:href="#linearGradient7"
       id="linearGradient4"
       x1="11.007483"
       y1="12.360239"
       x2="13.980041"
       y2="12.360239"
       gradientUnits="userSpaceOnUse" />
    <linearGradient
       inkscape:collect="always"
       xlink:href="#linearGradient3"
       id="linearGradient5"
       x1="1238"
       y1="69"
       x2="1244"
       y2="69"
       gradientUnits="userSpaceOnUse" />
    <linearGradient
       inkscape:collect="always"
       xlink:href="#linearGradient7"
       id="linearGradient6"
       x1="1.4999"
       y1="8"
       x2="14.49989"
       y2="8"
       gradientUnits="userSpaceOnUse" />
    <linearGradient
       inkscape:collect="always"
       xlink:href="#linearGradient7"
       id="linearGradient8"
       gradientUnits="userSpaceOnUse"
       x1="1238"
       y1="69"
       x2="1244"
       y2="69" />
  </defs>
  <path
     d="m 12.4524,10.456187 c 0.03768,0 0.07833,0.0029 0.12051,0.0072 h 0.0019 c 0.571796,0.04837 0.976464,0.242458 1.202097,0.57724 0.2508,0.3721 0.21583,0.826149 0.172571,1.063724 -0.0037,0.02144 -0.0217,0.03788 -0.04315,0.04167 -0.02149,0.0036 -0.04255,-0.0051 -0.05357,-0.02379 -0.04493,-0.07658 -0.120432,-0.193067 -0.229159,-0.309448 -0.263758,-0.282318 -0.592442,-0.431452 -0.949154,-0.431452 -0.02967,0 -0.06038,0.0012 -0.09077,0.0032 v 2.109569 c 0,0.391032 -0.29315,0.712141 -0.697741,0.763207 -0.03672,0.0046 -0.07343,0.0073 -0.110096,0.0073 -0.390321,0 -0.719031,-0.264358 -0.763203,-0.614431 -0.02381,-0.188573 0.03545,-0.376122 0.166626,-0.528139 0.131163,-0.152021 0.318851,-0.250308 0.528143,-0.276723 0.120103,-0.01525 0.242191,-0.0044 0.355569,0.02969 v -2.151292 c -6e-5,-0.123615 0.10145,-0.267842 0.389731,-0.267842 z"
     id="path1"
     style="stroke-width:0.8125;fill:url(#linearGradient4);fill-opacity:1" />
  <g
     transform="matrix(0.8125,0,0,0.8125,-1000.3125,-48.0625)"
     color="#bebebe"
     id="g2"
     style="fill:url(#linearGradient5);fill-opacity:1">
    <path
       transform="translate(1233,61)"
       d="M 8,5 C 6.32,5 5,6.32 5,8 5,9.68 6.32,11 8,11 9.68,11 11,9.68 11,8 11,6.32 9.68,5 8,5 Z m 0.00586,1.0059 a 2.002,2.002 0 0 1 1.9961,1.9961 2.002,2.002 0 0 1 -1.9961,1.9961 c -1.098,0 -2.0137,-0.89709 -2.0137,-1.9961 0,-1.098 0.91567,-1.9961 2.0137,-1.9961 z"
       style="font-variant-ligatures:normal;font-variant-position:normal;font-variant-caps:normal;font-variant-numeric:normal;font-variant-alternates:normal;font-feature-settings:normal;text-indent:0;text-decoration-line:none;text-decoration-style:solid;text-decoration-color:#000000;text-transform:none;text-orientation:mixed;shape-padding:0;isolation:auto;mix-blend-mode:normal;fill:url(#linearGradient8);fill-opacity:1"
       id="path2" />
  </g>
  <path
     d="m 7.9999,1.5 a 6.5,6.5 0 0 0 -6.5,6.5 6.5,6.5 0 0 0 6.5,6.5 6.5,6.5 0 0 0 2.4375,-0.47448 V 13.138429 A 5.6875,5.6875 0 0 1 7.9999,13.6875 5.6875,5.6875 0 0 1 2.3124,8 5.6875,5.6875 0 0 1 7.9236872,2.3125 a 5.6875,5.6875 0 0 1 0.07617,0 A 5.6875,5.6875 0 0 1 13.687361,8 5.6875,5.6875 0 0 1 13.449321,9.625 H 14.29359 A 6.5,6.5 0 0 0 14.49989,8 6.5,6.5 0 0 0 7.9998919,1.5 Z"
     id="path3"
     style="stroke-width:0.8125;fill:url(#linearGradient6);fill-opacity:1" />
</svg>
