<?xml version="1.0" encoding="UTF-8" standalone="no"?>
<svg
   viewBox="0 0 16 16"
   version="1.1"
   id="svg1"
   sodipodi:docname="media-optical-dvd.svg"
   inkscape:version="1.3.1 (91b66b0783, 2023-11-16)"
   xmlns:inkscape="http://www.inkscape.org/namespaces/inkscape"
   xmlns:sodipodi="http://sodipodi.sourceforge.net/DTD/sodipodi-0.dtd"
   xmlns:xlink="http://www.w3.org/1999/xlink"
   xmlns="http://www.w3.org/2000/svg"
   xmlns:svg="http://www.w3.org/2000/svg">
  <sodipodi:namedview
     id="namedview1"
     pagecolor="#ffffff"
     bordercolor="#000000"
     borderopacity="0.25"
     inkscape:showpageshadow="2"
     inkscape:pageopacity="0.0"
     inkscape:pagecheckerboard="0"
     inkscape:deskcolor="#d1d1d1"
     inkscape:zoom="23.96875"
     inkscape:cx="-6.3415906"
     inkscape:cy="8.3650587"
     inkscape:window-width="1920"
     inkscape:window-height="994"
     inkscape:window-x="0"
     inkscape:window-y="0"
     inkscape:window-maximized="1"
     inkscape:current-layer="svg1" />
  <defs
     id="defs3051">
    <linearGradient
       id="linearGradient1"
       inkscape:collect="always">
      <stop
         style="stop-color:#00ccff;stop-opacity:1"
         offset="0"
         id="stop1" />
      <stop
         style="stop-color:#b380ff;stop-opacity:1"
         offset="1"
         id="stop2" />
    </linearGradient>
    <style
       type="text/css"
       id="current-color-scheme">
      .ColorScheme-Text {
        color:#e1e1e1;
      }
      </style>
    <linearGradient
       inkscape:collect="always"
       xlink:href="#linearGradient1"
       id="linearGradient2"
       x1="1.5"
       y1="14.5"
       x2="14.5"
       y2="1.5"
       gradientUnits="userSpaceOnUse" />
    <linearGradient
       inkscape:collect="always"
       xlink:href="#linearGradient1"
       id="linearGradient4"
       x1="5.4343486"
       y1="11.115717"
       x2="10.565649"
       y2="11.115717"
       gradientUnits="userSpaceOnUse"
       gradientTransform="translate(0,0.7000912)" />
  </defs>
  <path
     style="fill:url(#linearGradient2);fill-opacity:1;stroke:none;stroke-width:1.0833"
     d="M 8,1.5 C 4.410147,1.5 1.5,4.410147 1.5,8 c 0,3.58985 2.910147,6.5 6.5,6.5 3.58985,0 6.5,-2.91015 6.5,-6.5 C 14.5,4.410147 11.58985,1.5 8,1.5 Z m 0,1.083333 c 2.99154,0 5.41667,2.425129 5.41667,5.416667 0,2.99154 -2.42513,5.41667 -5.41667,5.41667 C 5.008462,13.41667 2.583333,10.99154 2.583333,8 2.583333,5.008462 5.008462,2.583333 8,2.583333 Z m 0,3.25 C 6.8033835,5.833333 5.833333,6.8033835 5.833333,8 5.833333,9.1966165 6.8033835,10.16667 8,10.16667 9.1966165,10.16667 10.16667,9.1966165 10.16667,8 10.16667,6.8033835 9.1966165,5.833333 8,5.833333 Z M 8,6.916667 C 8.5983087,6.916667 9.083333,7.4016913 9.083333,8 9.083333,8.5983087 8.5983087,9.083333 8,9.083333 7.4016913,9.083333 6.916667,8.5983087 6.916667,8 6.916667,7.4016913 7.4016913,6.916667 8,6.916667 Z"
     class="ColorScheme-Text"
     id="path1" />
  <path
     id="path585-5"
     style="opacity:1;fill:url(#linearGradient4);stroke-width:0.136178"
     d="m 5.7457817,11.016744 h 1.263167 0.628783 c 0.01158,0 0.02333,-0.0013 0.03507,-3.03e-4 0.01397,0.0013 0.018223,0.01885 0.02308,0.03037 0.015983,0.03629 0.025589,0.07519 0.037179,0.113055 0.028402,0.09316 0.064687,0.184414 0.097289,0.276356 0.033321,0.09421 0.061874,0.189305 0.090276,0.284732 0.012973,0.04361 0.023669,0.08636 0.027,0.13138 4.034e-4,0.0057 0.00544,0.01188 0.00964,0.01188 0.00277,-0.0082 0.00625,-0.01604 0.010125,-0.02376 0.00947,-0.01845 0.021027,-0.03612 0.032973,-0.05303 0.024196,-0.03388 0.051169,-0.06542 0.076786,-0.09857 0.028759,-0.03717 0.056098,-0.07554 0.085365,-0.112358 0.063286,-0.07903 0.1298952,-0.155101 0.1950999,-0.232566 0.066972,-0.0792 0.1339283,-0.158414 0.2008956,-0.237614 0.014375,-0.01709 0.029455,-0.03366 0.042919,-0.05147 0.010688,-0.01376 0.021339,-0.0302 0.038919,-0.03577 0.031919,-0.0099 0.06924,-0.0051 0.1018481,-0.0035 0.096934,0.0039 0.1945697,0.0013 0.291692,0.0013 h 0.311148 c 0.1037758,0 0.2075472,1.97e-4 0.3111525,3.75e-4 0.051009,1.97e-4 0.102198,-0.0013 0.153212,0.0026 0.046982,0.0035 0.093432,0.0094 0.1398825,0.01762 0.1710897,0.0295 0.3460277,0.09194 0.4725857,0.214249 0.05943,0.05774 0.108335,0.128579 0.13025,0.209002 0.02068,0.07519 0.01666,0.154575 -0.0053,0.228722 -0.04417,0.149867 -0.152682,0.27949 -0.281343,0.365852 -0.08012,0.05356 -0.160566,0.102935 -0.249275,0.14115 -0.087472,0.0373 -0.1784434,0.06612 -0.2713542,0.08601 -0.1961553,0.04221 -0.397041,0.03454 -0.5963544,0.03454 H 8.6817108 c 0.00385,-0.04694 0.020179,-0.09281 0.031169,-0.138515 0.01174,-0.05008 0.023839,-0.100318 0.035777,-0.150398 0.024188,-0.101541 0.048384,-0.203081 0.072749,-0.304613 0.013679,-0.05775 0.026642,-0.115667 0.039794,-0.173763 0.00615,-0.02774 0.012794,-0.05496 0.020169,-0.08252 0.00392,-0.01446 0.00733,-0.03577 0.017527,-0.04761 0.00517,-0.0061 0.016821,-0.0068 0.024027,-0.0075 0.015723,-0.0013 0.031919,-0.0013 0.047661,-0.0013 0.037375,0.0013 0.074499,0.0013 0.1118445,0.0013 h 0.3202604 c -0.00652,0.04972 -0.021027,0.0977 -0.032919,0.146203 -0.012794,0.05164 -0.024723,0.103982 -0.03699,0.156139 -0.025206,0.105376 -0.051375,0.210751 -0.073445,0.317013 0.095712,0 0.1912465,0.0035 0.2859019,-0.0098 0.048223,-0.0068 0.098692,-0.02042 0.1447959,-0.03577 0.042607,-0.01376 0.083964,-0.03125 0.1227069,-0.05303 0.1181525,-0.06664 0.2129816,-0.182489 0.2185926,-0.32224 0.0022,-0.05914 -0.01385,-0.118636 -0.05116,-0.165385 -0.045759,-0.05792 -0.1165731,-0.08932 -0.1863332,-0.10886 -0.1740618,-0.0492 -0.3618064,-0.03125 -0.5407851,-0.03037 -0.051884,2.01e-4 -0.1036009,3.03e-4 -0.1556665,3.75e-4 -0.024892,0 -0.049767,1.92e-4 -0.074847,1.92e-4 -0.025429,1.97e-4 -0.05399,-0.0031 -0.079053,0.0013 -0.021419,0.0035 -0.036125,0.02897 -0.049419,0.04379 -0.018223,0.02042 -0.036286,0.04045 -0.054526,0.06089 -0.035071,0.03905 -0.069937,0.07798 -0.1051731,0.11689 -0.1398835,0.155623 -0.2783733,0.312472 -0.4175505,0.468791 -0.1097321,0.123342 -0.2184132,0.247569 -0.3292095,0.370034 -0.066963,0.07397 -0.1365531,0.146374 -0.2001758,0.223322 -0.00615,0.0075 -0.015259,0.01604 -0.018804,0.02547 -1.964e-4,3.75e-4 -1.964e-4,3.75e-4 -1.964e-4,0.0013 -0.00706,0 -0.00767,0.0022 -0.00928,-0.0056 -0.00277,-0.01104 -0.00527,-0.02183 -0.00875,-0.03265 -0.00706,-0.02323 -0.015973,-0.04586 -0.024911,-0.06856 -0.037178,-0.09474 -0.06907,-0.191916 -0.1032502,-0.287526 -0.07011,-0.197498 -0.140409,-0.395157 -0.210529,-0.592659 -0.02172,-0.06089 -0.04401,-0.121776 -0.06557,-0.182494 -0.01086,-0.0295 -0.02138,-0.05879 -0.03209,-0.08828 -0.0058,-0.01569 -0.01366,-0.06263 -0.03716,-0.06263 0,0.02774 0.0077,0.05269 0.01629,0.07921 0.01103,0.03563 0.01717,0.07118 0.02053,0.108343 0.0087,0.09159 -3.78e-4,0.185457 -0.03683,0.270934 -0.06732,0.15877 -0.214914,0.280542 -0.360408,0.366729 -0.153378,0.09072 -0.325695,0.146729 -0.501176,0.174631 -0.095,0.01521 -0.189841,0.02025 -0.285723,0.01972 -0.102548,-1.97e-4 -0.204923,-3.71e-4 -0.307461,-3.71e-4 h -0.312736 -0.07503 c 0,-0.02336 0.01071,-0.04869 0.01664,-0.07136 0.01297,-0.04869 0.02385,-0.09805 0.03541,-0.147071 0.04874,-0.202551 0.09694,-0.405273 0.146023,-0.607666 0.0053,-0.02231 0.0107,-0.04446 0.0161,-0.06664 0.0022,-0.0081 -1.98e-4,-0.01205 0.0091,-0.01205 h 0.01872 0.03753 0.150573 0.294496 c -0.04926,0.206211 -0.09834,0.412956 -0.14743,0.619167 0.09905,0 0.199133,0.0051 0.296776,-0.01118 0.0491,-0.0079 0.09711,-0.02183 0.143912,-0.03765 0.03816,-0.01293 0.07556,-0.02652 0.11061,-0.04607 0.130776,-0.07275 0.237521,-0.213898 0.220865,-0.369161 -0.0184,-0.172712 -0.201937,-0.237795 -0.351987,-0.253849 -0.09081,-0.0099 -0.182481,-0.0075 -0.273636,-0.0073 -0.104301,3.02e-4 -0.208417,0 -0.312729,0 h -0.119375 -0.02508 c -0.007,0 -0.02522,0.0035 -0.02522,-0.0035 0,-0.01867 0.0087,-0.03993 0.01334,-0.05793 0.0188,-0.07589 0.03753,-0.151608 0.05628,-0.227495"
     inkscape:connector-curvature="0" />
</svg>
