<?xml version="1.0" encoding="UTF-8" standalone="no"?>
<svg
   viewBox="0 0 16 16"
   version="1.1"
   id="svg1"
   sodipodi:docname="media-optical-dvd.svg"
   inkscape:version="1.3.1 (91b66b0783, 2023-11-16)"
   xmlns:inkscape="http://www.inkscape.org/namespaces/inkscape"
   xmlns:sodipodi="http://sodipodi.sourceforge.net/DTD/sodipodi-0.dtd"
   xmlns:xlink="http://www.w3.org/1999/xlink"
   xmlns="http://www.w3.org/2000/svg"
   xmlns:svg="http://www.w3.org/2000/svg">
  <sodipodi:namedview
     id="namedview1"
     pagecolor="#ffffff"
     bordercolor="#000000"
     borderopacity="0.25"
     inkscape:showpageshadow="2"
     inkscape:pageopacity="0.0"
     inkscape:pagecheckerboard="0"
     inkscape:deskcolor="#d1d1d1"
     inkscape:zoom="23.96875"
     inkscape:cx="5.0065189"
     inkscape:cy="5.0273794"
     inkscape:window-width="1920"
     inkscape:window-height="994"
     inkscape:window-x="0"
     inkscape:window-y="0"
     inkscape:window-maximized="1"
     inkscape:current-layer="svg1" />
  <defs
     id="defs3051">
    <linearGradient
       id="linearGradient1"
       inkscape:collect="always">
      <stop
         style="stop-color:#00ccff;stop-opacity:1"
         offset="0"
         id="stop1" />
      <stop
         style="stop-color:#b380ff;stop-opacity:1"
         offset="1"
         id="stop2" />
    </linearGradient>
    <style
       type="text/css"
       id="current-color-scheme">
      .ColorScheme-Text {
        color:#e1e1e1;
      }
      </style>
    <linearGradient
       inkscape:collect="always"
       xlink:href="#linearGradient1"
       id="linearGradient2"
       x1="1.5"
       y1="14.5"
       x2="14.5"
       y2="1.5"
       gradientUnits="userSpaceOnUse" />
  </defs>
  <path
     style="fill:url(#linearGradient2);fill-opacity:1;stroke:none;stroke-width:1.0833"
     d="M 8,1.5 C 4.410147,1.5 1.5,4.410147 1.5,8 c 0,3.58985 2.910147,6.5 6.5,6.5 3.58985,0 6.5,-2.91015 6.5,-6.5 C 14.5,4.410147 11.58985,1.5 8,1.5 Z m 0,1.083333 c 2.99154,0 5.41667,2.425129 5.41667,5.416667 0,2.99154 -2.42513,5.41667 -5.41667,5.41667 C 5.008462,13.41667 2.583333,10.99154 2.583333,8 2.583333,5.008462 5.008462,2.583333 8,2.583333 Z m 0,3.25 C 6.8033835,5.833333 5.833333,6.8033835 5.833333,8 5.833333,9.1966165 6.8033835,10.16667 8,10.16667 9.1966165,10.16667 10.16667,9.1966165 10.16667,8 10.16667,6.8033835 9.1966165,5.833333 8,5.833333 Z M 8,6.916667 C 8.5983087,6.916667 9.083333,7.4016913 9.083333,8 9.083333,8.5983087 8.5983087,9.083333 8,9.083333 7.4016913,9.083333 6.916667,8.5983087 6.916667,8 6.916667,7.4016913 7.4016913,6.916667 8,6.916667 Z"
     class="ColorScheme-Text"
     id="path1" />
</svg>
