<?xml version="1.0" encoding="UTF-8" standalone="no"?>
<svg
   width="16"
   height="16"
   version="1.1"
   id="svg10"
   sodipodi:docname="media-write-cd.svg"
   inkscape:version="1.3.1 (91b66b0783, 2023-11-16)"
   xmlns:inkscape="http://www.inkscape.org/namespaces/inkscape"
   xmlns:sodipodi="http://sodipodi.sourceforge.net/DTD/sodipodi-0.dtd"
   xmlns:xlink="http://www.w3.org/1999/xlink"
   xmlns="http://www.w3.org/2000/svg"
   xmlns:svg="http://www.w3.org/2000/svg">
  <sodipodi:namedview
     id="namedview10"
     pagecolor="#ffffff"
     bordercolor="#000000"
     borderopacity="0.25"
     inkscape:showpageshadow="2"
     inkscape:pageopacity="0.0"
     inkscape:pagecheckerboard="0"
     inkscape:deskcolor="#d1d1d1"
     inkscape:zoom="16.948466"
     inkscape:cx="11.741476"
     inkscape:cy="5.3987187"
     inkscape:window-width="1920"
     inkscape:window-height="994"
     inkscape:window-x="0"
     inkscape:window-y="0"
     inkscape:window-maximized="1"
     inkscape:current-layer="svg10" />
  <defs
     id="defs6">
    <linearGradient
       id="A"
       y1="32"
       y2="50.200001"
       x1="32"
       x2="50.199001"
       gradientUnits="userSpaceOnUse"
       gradientTransform="translate(-146.79795,-39.64961)">
      <stop
         stop-color="#292c2f"
         id="stop1" />
      <stop
         offset="1"
         stop-opacity="0"
         id="stop2" />
    </linearGradient>
    <linearGradient
       id="B"
       xlink:href="#E"
       y1="58"
       y2="6"
       x2="-592.82098"
       x1="-592.82098"
       gradientTransform="translate(-146.79795,-39.64961)" />
    <linearGradient
       id="C"
       xlink:href="#F"
       y1="41"
       y2="23"
       x2="-184.30299"
       x1="-184.30299"
       gradientTransform="translate(-146.79795,-39.64961)" />
    <linearGradient
       xlink:href="#F"
       id="D"
       x1="414.57101"
       x2="434.57101"
       y1="-618.94598"
       y2="-618.94598"
       gradientTransform="translate(-523.36895,-531.44761)" />
    <linearGradient
       id="E"
       gradientUnits="userSpaceOnUse">
      <stop
         stop-color="#bdc3c7"
         id="stop3" />
      <stop
         offset="1"
         stop-color="#dadfe1"
         id="stop4" />
    </linearGradient>
    <linearGradient
       id="F"
       gradientUnits="userSpaceOnUse">
      <stop
         stop-color="#566472"
         id="stop5" />
      <stop
         offset="1"
         stop-color="#6c7a89"
         id="stop6" />
    </linearGradient>
    <linearGradient
       xlink:href="#E"
       id="G"
       y1="545.79102"
       y2="533.79102"
       x2="-0.001"
       x1="-0.001"
       gradientTransform="matrix(0.51666668,0,0,0.51666668,-195.0669,-256.44843)" />
    <linearGradient
       inkscape:collect="always"
       xlink:href="#linearGradient1"
       id="linearGradient2"
       x1="1.5"
       y1="14.5"
       x2="14.5"
       y2="1.5"
       gradientUnits="userSpaceOnUse" />
    <linearGradient
       id="linearGradient1"
       inkscape:collect="always">
      <stop
         style="stop-color:#00ccff;stop-opacity:1"
         offset="0"
         id="stop1-8" />
      <stop
         style="stop-color:#b380ff;stop-opacity:1"
         offset="1"
         id="stop2-9" />
    </linearGradient>
  </defs>
  <path
     style="color:#e1e1e1;fill:url(#linearGradient2);fill-opacity:1;stroke:none;stroke-width:1.0833"
     d="M 8,1.5 C 4.410147,1.5 1.5,4.410147 1.5,8 c 0,3.58985 2.910147,6.5 6.5,6.5 3.58985,0 6.5,-2.91015 6.5,-6.5 C 14.5,4.410147 11.58985,1.5 8,1.5 Z m 0,1.083333 c 2.99154,0 5.41667,2.425129 5.41667,5.416667 0,2.99154 -2.42513,5.41667 -5.41667,5.41667 C 5.008462,13.41667 2.583333,10.99154 2.583333,8 2.583333,5.008462 5.008462,2.583333 8,2.583333 Z m 0,3.25 C 6.803384,5.833333 5.833333,6.803383 5.833333,8 5.833333,9.196617 6.803384,10.16667 8,10.16667 9.196616,10.16667 10.16667,9.196617 10.16667,8 10.16667,6.803383 9.196616,5.833333 8,5.833333 Z M 8,6.916667 C 8.598309,6.916667 9.083333,7.401691 9.083333,8 9.083333,8.598309 8.598309,9.083333 8,9.083333 7.401691,9.083333 6.916667,8.598309 6.916667,8 6.916667,7.401691 7.401691,6.916667 8,6.916667 Z"
     class="ColorScheme-Text"
     id="path1" />
  <path
     d="m 10.784105,8.3 a 2.0718331,2.0718331 0 0 1 1.648681,2.03825 2.0759669,2.0759669 0 0 1 -0.663919,1.524167 1.5551669,1.5551669 0 0 1 -0.369412,-1.003884 c 0,-0.08525 0.01342,-0.166883 0.02636,-0.248 a 2.0718331,2.0718331 0 0 0 -1.059167,1.808334 c 0,1.1532 0.921219,2.081133 2.066669,2.081133 1.14545,0 2.066662,-0.927933 2.066662,-2.081133 A 4.1261,4.1261 0 0 0 10.784111,8.3 Z"
     fill-rule="evenodd"
     id="path10-6"
     style="fill:#c83771;stroke-width:0.516668" />
</svg>
