<?xml version="1.0" encoding="UTF-8" standalone="no"?>
<!-- Created with Inkscape (http://www.inkscape.org/) -->

<svg
   width="64"
   version="1.1"
   height="64"
   id="svg584"
   sodipodi:docname="multimedia-player.svg"
   inkscape:version="1.3.1 (91b66b0783, 2023-11-16)"
   xmlns:inkscape="http://www.inkscape.org/namespaces/inkscape"
   xmlns:sodipodi="http://sodipodi.sourceforge.net/DTD/sodipodi-0.dtd"
   xmlns:xlink="http://www.w3.org/1999/xlink"
   xmlns="http://www.w3.org/2000/svg"
   xmlns:svg="http://www.w3.org/2000/svg">
  <sodipodi:namedview
     id="namedview586"
     pagecolor="#ffffff"
     bordercolor="#000000"
     borderopacity="0.25"
     inkscape:showpageshadow="2"
     inkscape:pageopacity="0.0"
     inkscape:pagecheckerboard="0"
     inkscape:deskcolor="#d1d1d1"
     showgrid="true"
     inkscape:zoom="20.85965"
     inkscape:cx="35.475188"
     inkscape:cy="41.539527"
     inkscape:window-width="1920"
     inkscape:window-height="994"
     inkscape:window-x="0"
     inkscape:window-y="0"
     inkscape:window-maximized="1"
     inkscape:current-layer="layer1"
     showguides="false">
    <inkscape:grid
       type="xygrid"
       id="grid734"
       originx="0"
       originy="0"
       spacingy="1"
       spacingx="1"
       units="px"
       visible="true" />
  </sodipodi:namedview>
  <defs
     id="defs5455">
    <linearGradient
       inkscape:collect="always"
       id="linearGradient3">
      <stop
         style="stop-color:#bc5fd3;stop-opacity:1"
         id="stop2" />
      <stop
         offset="1"
         style="stop-color:#2ad4ff;stop-opacity:1"
         id="stop3" />
    </linearGradient>
    <linearGradient
       inkscape:collect="always"
       id="linearGradient4213">
      <stop
         style="stop-color:#ee6406"
         id="stop4215" />
      <stop
         offset="1"
         style="stop-color:#ffce0d"
         id="stop4217" />
    </linearGradient>
    <linearGradient
       inkscape:collect="always"
       xlink:href="#linearGradient4213"
       id="linearGradient4219"
       y1="21"
       x1="33"
       y2="12"
       x2="24"
       gradientUnits="userSpaceOnUse"
       gradientTransform="matrix(1.2857142,0,0,1.2857143,401.7143,500.79795)" />
    <linearGradient
       inkscape:collect="always"
       xlink:href="#linearGradient4213"
       id="linearGradient4234"
       x1="419.41013"
       x2="399.24881"
       gradientUnits="userSpaceOnUse"
       gradientTransform="matrix(1.2399993,0,0,1,-74.49681,9.499947)" />
    <linearGradient
       inkscape:collect="always"
       xlink:href="#linearGradient3"
       id="linearGradient2"
       x1="393.57144"
       y1="523.79797"
       x2="423.57144"
       y2="523.79797"
       gradientUnits="userSpaceOnUse" />
  </defs>
  <metadata
     id="metadata5458" />
  <g
     inkscape:label="Capa 1"
     inkscape:groupmode="layer"
     id="layer1"
     transform="matrix(1 0 0 1 -376.57144 -491.79797)">
    <rect
       width="29.999998"
       x="393.57144"
       y="497.79797"
       height="51.99995"
       id="rect4232"
       ry="4.9999962"
       rx="5.0000014"
       style="fill:url(#linearGradient2)" />
    <rect
       width="23.999998"
       x="396.57144"
       y="502.79797"
       height="41.999996"
       style="fill:#182030;fill-opacity:1"
       id="rect4300" />
    <rect
       width="7"
       x="405.07144"
       y="545.79797"
       height="2"
       style="fill:#1c1e20"
       id="rect4164" />
    <rect
       width="7"
       x="405.07144"
       y="499.798"
       height="2"
       style="fill:#1c1e20"
       id="rect4166" />
    <g
       inkscape:label="Capa 1"
       id="layer1-4"
       transform="translate(-24.500002,-3.999981)">
      <path
         inkscape:connector-curvature="0"
         style="fill:url(#linearGradient4234);stroke-width:0.1"
         id="rect4195"
         d="m 421.19146,542.79795 c -0.3435,0 -0.62001,0.223 -0.62001,0.5 0,0.277 0.27651,0.5 0.62001,0.5 h 11.68726 6.69272 v -1 z" />
      <path
         inkscape:connector-curvature="0"
         style="opacity:0.85;fill:#ffffff;fill-opacity:0.452632;stroke-width:0.1"
         id="rect4188"
         d="m 432.57145,518.79795 c -4.98599,0 -9,4.01401 -9,9 0,4.98599 4.01401,9 9,9 4.98599,0 9,-4.01401 9,-9 0,-4.98599 -4.01401,-9 -9,-9 z m 0,1 a 8,8 0 0 1 8,8 8,8 0 0 1 -8,8 8,8 0 0 1 -8,-8 8,8 0 0 1 8,-8 z" />
      <path
         inkscape:connector-curvature="0"
         style="opacity:0.85;fill:url(#linearGradient4219);stroke-width:0.1"
         id="path4197"
         d="m 432.57145,518.79795 v 1 a 8,8 0 0 1 8,8 h 1 c 0,-4.98599 -4.01401,-9 -9,-9 z" />
      <g
         id="g4462"
         transform="translate(24,3.999977)">
        <rect
           width="5.9090738"
           x="405.61691"
           y="520.79797"
           rx="2.9545369"
           ry="2.9999919"
           height="5.9999838"
           style="opacity:0.8;stroke-width:0.1;fill:#00ccff"
           id="rect4190" />
        <path
           inkscape:connector-curvature="0"
           style="fill:#131313;fill-rule:evenodd;fill-opacity:1"
           id="path4221"
           d="m 410.34414,523.79796 -2.95454,-1.8 v 3.6 z" />
      </g>
      <path
         inkscape:connector-curvature="0"
         style="fill:#999999;stroke-width:0.1"
         id="rect4223"
         d="m 440.57145,542.79795 v 1 h 4.38431 c 0.34094,0 0.61539,-0.223 0.61539,-0.5 0,-0.277 -0.27445,-0.5 -0.61539,-0.5 z" />
      <rect
         width="3"
         x="438.57144"
         y="541.79797"
         rx="1.5"
         height="3"
         style="fill:#ffffff;stroke-width:0.1"
         id="rect4239" />
    </g>
  </g>
</svg>
