<?xml version="1.0" encoding="UTF-8" standalone="no"?>
<svg
   width="16"
   height="16"
   viewBox="0 0 16 16"
   fill="none"
   version="1.1"
   id="svg6"
   sodipodi:docname="printer.svg"
   inkscape:version="1.3.1 (91b66b0783, 2023-11-16)"
   xmlns:inkscape="http://www.inkscape.org/namespaces/inkscape"
   xmlns:sodipodi="http://sodipodi.sourceforge.net/DTD/sodipodi-0.dtd"
   xmlns:xlink="http://www.w3.org/1999/xlink"
   xmlns="http://www.w3.org/2000/svg"
   xmlns:svg="http://www.w3.org/2000/svg">
  <sodipodi:namedview
     id="namedview6"
     pagecolor="#ffffff"
     bordercolor="#000000"
     borderopacity="0.25"
     inkscape:showpageshadow="2"
     inkscape:pageopacity="0.0"
     inkscape:pagecheckerboard="0"
     inkscape:deskcolor="#d1d1d1"
     inkscape:zoom="31.83818"
     inkscape:cx="6.5644456"
     inkscape:cy="9.6582154"
     inkscape:window-width="1920"
     inkscape:window-height="994"
     inkscape:window-x="0"
     inkscape:window-y="0"
     inkscape:window-maximized="1"
     inkscape:current-layer="svg6" />
  <path
     d="m 3.524179,7.6538037 c -0.2048461,0 -0.3709182,0.166073 -0.3709182,0.37093 0,0.204846 0.1660721,0.370918 0.3709182,0.370918 0.2048574,0 0.3709296,-0.166072 0.3709296,-0.370918 0,-0.204857 -0.1660722,-0.37093 -0.3709296,-0.37093 z m 1.4836959,0 c -0.2048463,0 -0.3709185,0.166073 -0.3709185,0.37093 0,0.204846 0.1660722,0.370918 0.3709185,0.370918 0.204857,0 0.370929,-0.166072 0.370929,-0.370918 0,-0.204857 -0.166072,-0.37093 -0.370929,-0.37093 z M 13.959539,5.4282606 H 12.080191 V 3.5241788 c 0,-0.1239974 -0.06195,-0.239833 -0.165213,-0.30862 L 9.6894349,1.7318553 c -0.06093,-0.040628 -0.132521,-0.06229 -0.205739,-0.06229 H 4.2660382 c -0.2048574,0 -0.3709296,0.1660745 -0.3709296,0.3709239 V 5.4282606 H 2.0404834 c -0.2048438,0 -0.3709183,0.1660721 -0.3709183,0.3709182 v 5.1929462 c 0,0.204846 0.1660745,0.370918 0.3709183,0.370918 h 1.8546252 v 2.596496 c 0,0.204835 0.1660722,0.370896 0.3709296,0.370896 h 7.4432008 c 0.204846,0 0.370952,-0.166061 0.370952,-0.370896 v -2.596496 h 1.879348 c 0.204835,0 0.370896,-0.166072 0.370896,-0.370918 V 5.7991788 c 0,-0.2048461 -0.166061,-0.3709182 -0.370896,-0.3709182 z M 9.8546139,2.7335754 10.484153,3.1532606 H 9.8546139 Z M 4.6369564,2.4114127 h 4.4758205 v 1.1127661 c 0,0.2048574 0.166073,0.3709296 0.370919,0.3709296 H 11.33831 v 1.9040704 c 0,0.2045296 -0.1664,0.3709296 -0.370919,0.3709296 H 5.0078749 c -0.2045185,0 -0.3709185,-0.1664 -0.3709185,-0.3709296 z M 11.33831,13.588643 H 4.6369564 v -3.338377 c 0,-0.204518 0.1664,-0.3709183 0.3709185,-0.3709183 h 5.9595161 c 0.204519,0 0.370919,0.1664003 0.370919,0.3709183 z m 2.250333,-2.967447 h -1.508452 v -0.37093 c 0,-0.6135663 -0.499245,-1.1127663 -1.1128,-1.1127663 H 5.0078749 c -0.6135663,0 -1.1127663,0.4992 -1.1127663,1.1127663 v 0.37093 H 2.4114129 V 6.1701084 h 1.5474974 c 0.1531174,0.4317243 0.5653983,0.7418478 1.0489646,0.7418478 h 5.9595161 c 0.483566,0 0.895859,-0.3101235 1.048976,-0.7418478 h 1.572276 z m -3.3631,0 H 5.7497339 c -0.204857,0 -0.37093,0.166072 -0.37093,0.370929 0,0.204846 0.166073,0.370918 0.37093,0.370918 h 4.4758091 c 0.204847,0 0.37093,-0.166072 0.37093,-0.370918 0,-0.204857 -0.166083,-0.370929 -0.37093,-0.370929 z m 0,1.483695 H 5.7497339 c -0.204857,0 -0.37093,0.166072 -0.37093,0.370952 0,0.204835 0.166073,0.370896 0.37093,0.370896 h 4.4758091 c 0.204847,0 0.37093,-0.166061 0.37093,-0.370896 0,-0.20488 -0.166083,-0.370952 -0.37093,-0.370952 z"
     stroke-width="0.33913"
     id="path1"
     style="fill:url(#linearGradient8);fill-opacity:1" />
  <defs
     id="defs6">
    <linearGradient
       id="linearGradient6"
       inkscape:collect="always">
      <stop
         style="stop-color:#00ccff;stop-opacity:1"
         offset="0"
         id="stop7" />
      <stop
         style="stop-color:#ffcc00;stop-opacity:1"
         offset="1"
         id="stop8" />
    </linearGradient>
    <linearGradient
       id="paint0_linear_640_125"
       x1="64"
       y1="118"
       x2="64"
       y2="6"
       gradientUnits="userSpaceOnUse"
       gradientTransform="matrix(0.11304348,0,0,0.11304348,0.7652173,0.991304)">
      <stop
         stop-color="#FD5B00"
         id="stop1" />
      <stop
         offset="0.411458"
         stop-color="#AB18A8"
         id="stop2" />
      <stop
         offset="1"
         stop-color="#8E00E4"
         id="stop3" />
    </linearGradient>
    <linearGradient
       id="paint1_linear_640_125"
       x1="64"
       y1="118"
       x2="64"
       y2="6"
       gradientUnits="userSpaceOnUse"
       gradientTransform="matrix(0.11304348,0,0,0.11304348,0.7652173,0.991304)">
      <stop
         stop-color="#FD5B00"
         id="stop4" />
      <stop
         offset="0.411458"
         stop-color="#AB18A8"
         id="stop5" />
      <stop
         offset="1"
         stop-color="#8E00E4"
         id="stop6" />
    </linearGradient>
    <linearGradient
       inkscape:collect="always"
       xlink:href="#linearGradient6"
       id="linearGradient8"
       x1="1.6695651"
       y1="14.330435"
       x2="14.330435"
       y2="1.6695653"
       gradientUnits="userSpaceOnUse" />
  </defs>
</svg>
