<?xml version="1.0" encoding="UTF-8" standalone="no"?>
<svg
   width="22"
   height="22"
   version="1.1"
   id="svg1"
   sodipodi:docname="applications-engineering-symbolic.svg"
   inkscape:version="1.4 (unknown)"
   xmlns:inkscape="http://www.inkscape.org/namespaces/inkscape"
   xmlns:sodipodi="http://sodipodi.sourceforge.net/DTD/sodipodi-0.dtd"
   xmlns="http://www.w3.org/2000/svg"
   xmlns:svg="http://www.w3.org/2000/svg">
  <defs
     id="defs1" />
  <sodipodi:namedview
     id="namedview1"
     pagecolor="#ffffff"
     bordercolor="#000000"
     borderopacity="0.25"
     inkscape:showpageshadow="2"
     inkscape:pageopacity="0.0"
     inkscape:pagecheckerboard="0"
     inkscape:deskcolor="#d1d1d1"
     inkscape:zoom="14.142136"
     inkscape:cx="10.288404"
     inkscape:cy="16.935207"
     inkscape:window-width="1920"
     inkscape:window-height="998"
     inkscape:window-x="0"
     inkscape:window-y="0"
     inkscape:window-maximized="1"
     inkscape:current-layer="svg1" />
  <path
     style="fill:#dfdfdf;stroke-width:1.12916"
     d="M 12.7,2 C 11.4964,2 10.528193,2.9216224 10.448859,4.102738 L 7.90328,6.623076 C 7.6233476,6.555576 7.3370666,6.5 7.0333334,6.5 c -1.8836,0 -3.4,1.5075 -3.4,3.375 0,1.00125 0.442,1.890788 1.1333332,2.498286 V 16.625 H 9.3 V 12.373286 C 9.9913334,11.765788 10.433333,10.87625 10.433333,9.875 c 0,-0.30375 -0.05247,-0.584438 -0.126139,-0.865688 L 12.853005,6.488974 C 12.9992,6.477732 13.140861,6.454892 13.27801,6.409892 L 14.329744,7.455804 13.99881,7.78318 C 13.892266,7.895674 13.833334,8.03 13.833334,8.1875 v 2.25 C 13.833334,10.74125 14.0872,11 14.4,11 h 2.266666 c 0.766134,0 0.766134,-1.125 0,-1.125 h -1.7 V 8.424762 L 16.901271,6.5 h 1.465395 v 1.6875 c 0,0.75825 1.133334,0.753862 1.133334,0 v -2.25 C 19.5,5.6225 19.246134,5.375 18.933334,5.375 h -2.266668 c -0.150727,0 -0.295795,0.05692 -0.40119,0.158176 L 15.932266,5.869438 14.88281,4.823526 C 14.931529,4.643526 14.966666,4.4525 14.966666,4.25 14.966666,3.00125 13.955734,2 12.7,2 Z m 0,1.125 c 0.627876,0 1.133334,0.50625 1.133334,1.125 0,0.61875 -0.505458,1.125 -1.133334,1.125 -0.627871,0 -1.133334,-0.50625 -1.133334,-1.125 0,-0.61875 0.505463,-1.125 1.133334,-1.125 z m -5.6666666,4.5 C 8.2852124,7.625 9.3,8.632326 9.3,9.875 c 0,1.242676 -1.0147876,2.25 -2.2666666,2.25 -1.251879,0 -2.2666668,-1.007324 -2.2666668,-2.25 0,-1.242674 1.0147878,-2.25 2.2666668,-2.25 z m 0,1.125 C 6.4073929,8.75 5.9,9.253662 5.9,9.875 5.9,10.496338 6.4073929,11 7.0333334,11 7.6592739,11 8.1666666,10.496338 8.1666666,9.875 8.1666666,9.253662 7.6592739,8.75 7.0333334,8.75 Z m -3.4,9 c 0,0 -1.1333334,0 -1.1333334,1.125 V 20 h 9.066666 v -1.125 c 0,0 0,-1.125 -1.133333,-1.125 z"
     id="path1" />
</svg>
