<?xml version="1.0" encoding="UTF-8" standalone="no"?>
<svg
   width="24"
   height="20"
   viewBox="0 0 24 20"
   fill="none"
   version="1.1"
   id="svg9"
   sodipodi:docname="virt-manager.svg"
   inkscape:version="1.3 (0e150ed6c4, 2023-07-21)"
   xmlns:inkscape="http://www.inkscape.org/namespaces/inkscape"
   xmlns:sodipodi="http://sodipodi.sourceforge.net/DTD/sodipodi-0.dtd"
   xmlns:xlink="http://www.w3.org/1999/xlink"
   xmlns="http://www.w3.org/2000/svg"
   xmlns:svg="http://www.w3.org/2000/svg">
  <sodipodi:namedview
     id="namedview9"
     pagecolor="#ffffff"
     bordercolor="#000000"
     borderopacity="0.25"
     inkscape:showpageshadow="2"
     inkscape:pageopacity="0.0"
     inkscape:pagecheckerboard="0"
     inkscape:deskcolor="#d1d1d1"
     inkscape:zoom="7.9595449"
     inkscape:cx="13.631433"
     inkscape:cy="4.2087833"
     inkscape:window-width="1920"
     inkscape:window-height="994"
     inkscape:window-x="0"
     inkscape:window-y="0"
     inkscape:window-maximized="1"
     inkscape:current-layer="svg9" />
  <path
     d="M 6.4912314,4.330528 C 6.5889015,3.9094617 7.021018,3.6167382 7.4269595,3.7075777 7.7792329,3.7682387 8.0379283,4.0911456 8.0998463,4.4487624 8.8016502,7.2043763 9.525474,9.95568 10.210758,12.71569 c 0.255954,-0.555182 0.388054,-1.176761 0.715559,-1.690066 0.509144,-0.64024 1.611334,-0.04906 1.396717,0.75994 -0.440358,1.274766 -0.964633,2.519076 -1.431117,3.7837 -0.09907,0.299926 -0.29036,0.608609 -0.609609,0.672061 C 9.8626094,16.375427 9.3795939,16.092711 9.2791467,15.642865 8.669543,13.3112 8.0833363,10.972337 7.4764916,8.639157 7.3857215,8.320475 7.3044824,7.9989121 7.2686993,7.6686992 6.4705744,10.340686 5.7481415,13.0372 4.9679106,15.714922 4.8303074,16.221026 4.2028056,16.474858 3.7789701,16.186476 3.4555937,15.999062 3.3799136,15.593803 3.2767065,15.254935 2.2666593,11.84041 1.2373581,8.432954 0.23282983,5.0168979 0.10347667,4.6290056 0.2947299,4.1632499 0.65115733,3.9930872 1.2511221,3.6599998 1.8428348,4.2526586 1.9020159,4.8698168 2.6533478,7.4163438 3.4239517,9.95568 4.1711556,12.503612 4.9472655,9.779757 5.7123625,7.0529709 6.4912314,4.330528 Z"
     stroke-width="0.380567"
     id="path1"
     style="fill:url(#linearGradient11);fill-opacity:1;stroke:url(#linearGradient13)" />
  <path
     d="m 13.210902,4.1498889 c 0.269604,-0.6604237 1.296259,-0.591202 1.486057,0.099445 0.703181,2.6734291 1.377438,5.3555071 2.066975,8.0332771 0.77334,-2.638842 1.512241,-5.2892025 2.303496,-7.9208158 0.255949,-0.692143 1.330716,-0.6286845 1.508237,0.093696 1.064986,3.5025648 2.113582,7.0108978 3.169049,10.5163578 0.210597,0.497499 -0.137552,1.133333 -0.65634,1.179448 -0.381218,0.06055 -0.773466,-0.208988 -0.879327,-0.59691 -0.802287,-2.643173 -1.593546,-5.290605 -2.393078,-7.9351986 -0.762312,2.6820846 -1.541182,5.3568986 -2.31865,8.0332006 -0.166506,0.751317 -1.285226,0.813363 -1.526028,0.08667 C 15.212977,12.915621 14.519441,10.072043 13.773646,7.245768 13.574089,7.7864985 13.374643,8.32868 13.158535,8.863669 13.001682,9.290489 12.482908,9.508228 12.089377,9.310677 11.675186,9.139076 11.471523,8.583911 11.668304,8.164296 12.181574,6.8261404 12.68247,5.4807696 13.210902,4.1498207 Z"
     stroke-width="0.380567"
     id="path2"
     style="fill:url(#linearGradient17);stroke:url(#linearGradient15);stroke-opacity:1" />
  <defs
     id="defs9">
    <linearGradient
       id="linearGradient14"
       inkscape:collect="always">
      <stop
         style="stop-color:#5a9cfe;stop-opacity:1"
         offset="0"
         id="stop14" />
      <stop
         style="stop-color:#7e36f4;stop-opacity:1"
         offset="1"
         id="stop15" />
    </linearGradient>
    <linearGradient
       id="linearGradient9"
       inkscape:collect="always">
      <stop
         style="stop-color:#ffcb2f;stop-opacity:1"
         offset="0"
         id="stop10" />
      <stop
         style="stop-color:#e25563;stop-opacity:1"
         offset="1"
         id="stop11" />
    </linearGradient>
    <linearGradient
       id="paint0_linear_677_21"
       x1="50.5242"
       y1="145.22"
       x2="50.5242"
       y2="47"
       gradientUnits="userSpaceOnUse">
      <stop
         stop-color="#FD2E00"
         id="stop2" />
      <stop
         offset="1"
         stop-color="#FF9900"
         id="stop3" />
    </linearGradient>
    <linearGradient
       id="paint1_linear_677_21"
       x1="50.5242"
       y1="145.22"
       x2="50.5242"
       y2="47"
       gradientUnits="userSpaceOnUse">
      <stop
         stop-color="#FD2E00"
         id="stop4" />
      <stop
         offset="1"
         stop-color="#FF9900"
         id="stop5" />
    </linearGradient>
    <linearGradient
       id="paint2_linear_677_21"
       x1="141.74899"
       y1="144.783"
       x2="141.74899"
       y2="47"
       gradientUnits="userSpaceOnUse">
      <stop
         stop-color="#5570FF"
         id="stop6" />
      <stop
         offset="1"
         stop-color="#4DD3FF"
         id="stop7" />
    </linearGradient>
    <linearGradient
       id="paint3_linear_677_21"
       x1="141.74899"
       y1="144.783"
       x2="141.74899"
       y2="47"
       gradientUnits="userSpaceOnUse">
      <stop
         stop-color="#5570FF"
         id="stop8" />
      <stop
         offset="1"
         stop-color="#4DD3FF"
         id="stop9" />
    </linearGradient>
    <linearGradient
       inkscape:collect="always"
       xlink:href="#linearGradient9"
       id="linearGradient11"
       x1="100.54253"
       y1="45.494312"
       x2="0.48541406"
       y2="146.74269"
       gradientUnits="userSpaceOnUse"
       gradientTransform="matrix(0.12527878,0,0,0.12845257,-0.05824152,-2.3462854)" />
    <linearGradient
       inkscape:collect="always"
       xlink:href="#linearGradient9"
       id="linearGradient13"
       x1="100.54253"
       y1="45.494312"
       x2="0.48541406"
       y2="146.74269"
       gradientUnits="userSpaceOnUse"
       gradientTransform="matrix(0.12527878,0,0,0.12845257,-0.05824152,-2.3462854)" />
    <linearGradient
       inkscape:collect="always"
       xlink:href="#linearGradient14"
       id="linearGradient15"
       x1="91.47702"
       y1="146.22887"
       x2="192.01701"
       y2="45.521637"
       gradientUnits="userSpaceOnUse"
       gradientTransform="matrix(0.12527878,0,0,0.12845257,-0.05824152,-2.3462854)" />
    <linearGradient
       inkscape:collect="always"
       xlink:href="#linearGradient14"
       id="linearGradient17"
       x1="91.47702"
       y1="146.22887"
       x2="192.01701"
       y2="45.521637"
       gradientUnits="userSpaceOnUse"
       gradientTransform="matrix(0.12527878,0,0,0.12845257,-0.05824152,-2.3462854)" />
  </defs>
</svg>
