<?xml version="1.0" encoding="UTF-8" standalone="no"?>
<svg
   viewBox="0 0 32 32"
   width="32"
   height="32"
   version="1.1"
   id="svg5"
   sodipodi:docname="audio-volume-medium.svg"
   inkscape:version="1.3.2 (091e20ef0f, 2023-11-25)"
   xmlns:inkscape="http://www.inkscape.org/namespaces/inkscape"
   xmlns:sodipodi="http://sodipodi.sourceforge.net/DTD/sodipodi-0.dtd"
   xmlns:xlink="http://www.w3.org/1999/xlink"
   xmlns="http://www.w3.org/2000/svg"
   xmlns:svg="http://www.w3.org/2000/svg">
  <defs
     id="defs5">
    <linearGradient
       inkscape:collect="always"
       xlink:href="#linearGradient24"
       id="linearGradient6"
       x1="0"
       y1="16"
       x2="32"
       y2="16"
       gradientUnits="userSpaceOnUse" />
    <linearGradient
       id="linearGradient24"
       inkscape:collect="always">
      <stop
         style="stop-color:#058bce;stop-opacity:1;"
         offset="0"
         id="stop22" />
      <stop
         style="stop-color:#ffcc00;stop-opacity:1"
         offset="1"
         id="stop23" />
    </linearGradient>
    <linearGradient
       inkscape:collect="always"
       xlink:href="#linearGradient8"
       id="linearGradient17"
       gradientUnits="userSpaceOnUse"
       x1="0"
       y1="16"
       x2="32"
       y2="16" />
    <linearGradient
       id="linearGradient8"
       inkscape:collect="always">
      <stop
         style="stop-color:#058bce;stop-opacity:1;"
         offset="0"
         id="stop5" />
      <stop
         style="stop-color:#ff66ff;stop-opacity:1;"
         offset="1"
         id="stop6" />
    </linearGradient>
    <linearGradient
       inkscape:collect="always"
       xlink:href="#linearGradient42"
       id="linearGradient25"
       gradientUnits="userSpaceOnUse"
       x1="0"
       y1="16"
       x2="32"
       y2="16" />
    <linearGradient
       id="linearGradient42"
       inkscape:collect="always">
      <stop
         style="stop-color:#058bce;stop-opacity:0.43983957;"
         offset="0"
         id="stop40" />
      <stop
         style="stop-color:#ff66ff;stop-opacity:0.50999999;"
         offset="1"
         id="stop41" />
    </linearGradient>
    <linearGradient
       inkscape:collect="always"
       xlink:href="#linearGradient40"
       id="linearGradient27"
       gradientUnits="userSpaceOnUse"
       x1="0"
       y1="16"
       x2="32"
       y2="16" />
    <linearGradient
       id="linearGradient40"
       inkscape:collect="always">
      <stop
         style="stop-color:#058bce;stop-opacity:0.52005345;"
         offset="0"
         id="stop38" />
      <stop
         style="stop-color:#ff66ff;stop-opacity:0.50999999;"
         offset="1"
         id="stop39" />
    </linearGradient>
    <linearGradient
       inkscape:collect="always"
       xlink:href="#linearGradient16"
       id="linearGradient18"
       gradientUnits="userSpaceOnUse"
       x1="0"
       y1="16"
       x2="32"
       y2="16" />
    <linearGradient
       id="linearGradient16"
       inkscape:collect="always">
      <stop
         style="stop-color:#058bce;stop-opacity:1;"
         offset="0"
         id="stop15" />
      <stop
         style="stop-color:#ff66ff;stop-opacity:0.50999999;"
         offset="1"
         id="stop16" />
    </linearGradient>
    <linearGradient
       inkscape:collect="always"
       xlink:href="#linearGradient24"
       id="linearGradient5"
       gradientUnits="userSpaceOnUse"
       x1="0"
       y1="16"
       x2="32"
       y2="16" />
  </defs>
  <sodipodi:namedview
     id="namedview5"
     pagecolor="#ffffff"
     bordercolor="#000000"
     borderopacity="0.25"
     inkscape:showpageshadow="2"
     inkscape:pageopacity="0.0"
     inkscape:pagecheckerboard="0"
     inkscape:deskcolor="#d1d1d1"
     inkscape:zoom="7.9895833"
     inkscape:cx="15.770535"
     inkscape:cy="-14.205997"
     inkscape:window-width="1920"
     inkscape:window-height="994"
     inkscape:window-x="0"
     inkscape:window-y="0"
     inkscape:window-maximized="1"
     inkscape:current-layer="svg5" />
  <style
     id="current-color-scheme"
     type="text/css">.ColorScheme-Text { color: #fcfcfc; } </style>
  <g
     id="audio-volume-low"
     style="fill:url(#linearGradient6)">
    <path
       style="opacity:0.00100002;fill:url(#linearGradient5);fill-opacity:1"
       d="M 0,0 H 32.000001 V 32.000001 H 0 Z"
       id="path38" />
    <path
       d="M 20,5.669887 C 20,4.231754 18.333355,3.468796 17.279346,4.424351 L 11.405769,9.748597 C 11.22623,9.911354 10.994355,10 10.754102,10 H 5.942311 C 4.317317,10 3,11.34438 3,13.001202 v 5.9971 C 3,20.65507 4.317317,22 5.942311,22 h 4.811725 c 0.240271,0 0.472175,0.08806 0.651723,0.250861 l 5.873463,5.324832 C 18.333357,28.531459 20,27.768534 20,26.330289 Z M 12.7091,11.243262 18,6.41226 V 25.587918 L 12.709165,20.756402 C 12.170525,20.26801 11.474808,20 10.754036,20 L 10.754,12 v 0 0 0 h 1.02e-4 c 0.72072,0 1.416374,-0.268494 1.954998,-0.756738 z"
       id="path2057-6"
       style="fill:url(#linearGradient17);fill-opacity:1;stroke-width:1.3205"
       sodipodi:nodetypes="sccssssssccssccccsccccsc" />
    <path
       d="m 25.40486,8.188621 c 0.443719,-0.315569 1.06997,-0.225995 1.398758,0.200049 1.64129,2.127447 2.612329,4.761928 2.612329,7.611315 0,2.849386 -0.97104,5.483869 -2.612329,7.611344 -0.328787,0.426102 -0.955037,0.51558 -1.398758,0.200051 -0.443855,-0.315512 -0.537056,-0.916726 -0.208386,-1.342831 1.394891,-1.807991 2.203524,-4.044388 2.203524,-6.468564 0,-2.42405 -0.808632,-4.660501 -2.203524,-6.468551 -0.32867,-0.426045 -0.235467,-1.027245 0.208386,-1.342813 z"
       id="path2059-2"
       style="fill:url(#linearGradient25);fill-opacity:0.5;stroke-width:1.30642"
       sodipodi:nodetypes="ccscccssc" />
    <path
       d="m 23.024213,11.352758 c 0.485595,-0.252398 1.09251,-0.07907 1.355428,0.38721 0.714925,1.26797 1.120517,2.719932 1.120517,4.260017 0,1.540084 -0.405592,2.992106 -1.120517,4.260068 -0.262918,0.466173 -0.869833,0.639611 -1.355428,0.387197 -0.485712,-0.252414 -0.666371,-0.835067 -0.403453,-1.301242 0.56065,-0.994294 0.879448,-2.132978 0.879448,-3.346023 0,-1.213047 -0.318798,-2.351731 -0.879448,-3.345989 -0.262917,-0.466246 -0.08227,-1.048834 0.403453,-1.301238 z"
       id="path2061-91"
       style="fill:url(#linearGradient27);fill-opacity:0.52;stroke-width:1.30642" />
    <path
       d="M 22,15.999991 C 22,17.105103 21.105101,18 20.000003,18 c -1.104169,1e-6 -1.999996,-0.894897 -1.999996,-2.000009 C 18.000007,14.895822 18.895835,14 20.000003,14 21.105101,14 22,14.895822 22,15.999991 Z"
       id="path72-3-2"
       style="color:#e5e9ef;fill:url(#linearGradient18);fill-opacity:0.5;stroke-width:0.0238098" />
    <path
       d="M 4.999993,15.999991 C 4.999993,17.105103 4.105095,18 2.999996,18 1.895828,18.000001 1,17.105103 1,15.999991 1,14.895822 1.895828,14 2.999996,14 c 1.105099,0 1.999997,0.895822 1.999997,1.999991 z"
       id="path72-3-7-0-9"
       style="color:#e5e9ef;fill:#058bce;fill-opacity:1;stroke-width:0.0238098" />
  </g>
</svg>
