<?xml version="1.0" encoding="UTF-8" standalone="no"?>
<svg
   viewBox="0 0 31.999996 32"
   width="31.999996"
   height="32"
   version="1.1"
   id="svg8"
   sodipodi:docname="audio-volume-muted.svg"
   inkscape:version="1.3.2 (091e20ef0f, 2023-11-25)"
   xmlns:inkscape="http://www.inkscape.org/namespaces/inkscape"
   xmlns:sodipodi="http://sodipodi.sourceforge.net/DTD/sodipodi-0.dtd"
   xmlns:xlink="http://www.w3.org/1999/xlink"
   xmlns="http://www.w3.org/2000/svg"
   xmlns:svg="http://www.w3.org/2000/svg">
  <defs
     id="defs8">
    <linearGradient
       inkscape:collect="always"
       xlink:href="#linearGradient5"
       id="linearGradient7"
       x1="0"
       y1="16"
       x2="31.999996"
       y2="16"
       gradientUnits="userSpaceOnUse" />
    <linearGradient
       id="linearGradient5"
       inkscape:collect="always">
      <stop
         style="stop-color:#058bce;stop-opacity:1;"
         offset="0"
         id="stop3" />
      <stop
         style="stop-color:#ffcc00;stop-opacity:1"
         offset="1"
         id="stop4" />
    </linearGradient>
    <linearGradient
       inkscape:collect="always"
       xlink:href="#linearGradient8"
       id="linearGradient29"
       gradientUnits="userSpaceOnUse"
       x1="0"
       y1="16"
       x2="31.999996"
       y2="16" />
    <linearGradient
       id="linearGradient8"
       inkscape:collect="always">
      <stop
         style="stop-color:#058bce;stop-opacity:1;"
         offset="0"
         id="stop5" />
      <stop
         style="stop-color:#ff66ff;stop-opacity:1;"
         offset="1"
         id="stop6" />
    </linearGradient>
    <linearGradient
       inkscape:collect="always"
       xlink:href="#linearGradient16"
       id="linearGradient36"
       gradientUnits="userSpaceOnUse"
       x1="0"
       y1="16"
       x2="31.999996"
       y2="16" />
    <linearGradient
       id="linearGradient16"
       inkscape:collect="always">
      <stop
         style="stop-color:#058bce;stop-opacity:1;"
         offset="0"
         id="stop15" />
      <stop
         style="stop-color:#ff66ff;stop-opacity:0.50999999;"
         offset="1"
         id="stop16" />
    </linearGradient>
    <linearGradient
       inkscape:collect="always"
       xlink:href="#linearGradient44"
       id="linearGradient34"
       gradientUnits="userSpaceOnUse"
       x1="0"
       y1="16"
       x2="31.999996"
       y2="16" />
    <linearGradient
       id="linearGradient44"
       inkscape:collect="always">
      <stop
         style="stop-color:#058bce;stop-opacity:0.49598929;"
         offset="0"
         id="stop42" />
      <stop
         style="stop-color:#ff66ff;stop-opacity:0.50999999;"
         offset="1"
         id="stop43" />
    </linearGradient>
    <linearGradient
       inkscape:collect="always"
       xlink:href="#linearGradient5"
       id="linearGradient9"
       gradientUnits="userSpaceOnUse"
       x1="0"
       y1="16"
       x2="31.999996"
       y2="16" />
    <linearGradient
       inkscape:collect="always"
       xlink:href="#linearGradient8"
       id="linearGradient10"
       gradientUnits="userSpaceOnUse"
       x1="0"
       y1="16"
       x2="31.999996"
       y2="16" />
  </defs>
  <sodipodi:namedview
     id="namedview8"
     pagecolor="#ffffff"
     bordercolor="#000000"
     borderopacity="0.25"
     inkscape:showpageshadow="2"
     inkscape:pageopacity="0.0"
     inkscape:pagecheckerboard="0"
     inkscape:deskcolor="#d1d1d1"
     inkscape:zoom="7.9895833"
     inkscape:cx="16.146023"
     inkscape:cy="25.971317"
     inkscape:window-width="1920"
     inkscape:window-height="994"
     inkscape:window-x="0"
     inkscape:window-y="0"
     inkscape:window-maximized="1"
     inkscape:current-layer="svg8" />
  <style
     id="current-color-scheme"
     type="text/css">.ColorScheme-Text{color:#232629;}.ColorScheme-NegativeText { color: #da4453; } </style>
  <g
     id="audio-volume-muted"
     style="fill:url(#linearGradient7)">
    <path
       style="opacity:0.00100002;fill:url(#linearGradient9);fill-opacity:1"
       d="M 0,0 H 31.999997 V 32.000001 H 0 Z"
       id="path45" />
    <path
       d="M 4.664429,3.2855783 C 4.283678,2.9048212 3.666335,2.9048012 3.285584,3.2855543 c -0.380763,0.380755 -0.380777,0.998087 -3e-5,1.378849 L 8.769121,10 H 5.924981 C 4.309556,10 3,11.457624 3,13.073038 v 5.847276 C 3,20.535683 4.2090655,22 5.8244905,22 H 11.00751 c 0.291637,0 0.17001,-0.06708 0.34849,0.09163 l 5.8391,5.19177 c 1.047919,0.93183 2.834209,0.187545 2.8049,-1.21432 v -4.790064 l 7.335014,7.435411 c 0.380761,0.380761 0.998127,0.380761 1.378895,0 0.380761,-0.380768 0.380761,-0.998134 0,-1.378895 z M 18,19.329031 v 6.016214 L 12.651965,20.634349 C 12.116496,20.158292 11.42489,20 10.708363,20 l 0.01064,-8 v 0 0 0 h -0.01058 c -0.0031,0 0.007,10e-6 0.0104,0 z"
       id="path1707"
       style="fill:url(#linearGradient10);fill-opacity:1;stroke-width:1.29999"
       sodipodi:nodetypes="ccccsssssccsccccccccsccccscc" />
    <path
       d="m 18,6.6487703 v 7.1647977 l 2,1.949981 V 5.9249453 c 0,-1.40219 -1.632937,-2.146086 -2.680731,-1.214417 L 12.9,8.639518 l 1.381194,1.381231 z"
       id="path1709"
       style="fill:url(#linearGradient29);fill-opacity:1;stroke-width:1.29999"
       sodipodi:nodetypes="cccscccc" />
    <path
       d="m 22.683128,18.546822 1.479391,1.479525 c 0.600332,-1.214847 0.937286,-2.582564 0.937286,-4.026459 0,-1.564144 -0.395454,-3.03882 -1.092505,-4.326602 -0.256358,-0.473544 -0.848114,-0.649613 -1.321572,-0.393255 -0.473575,0.256348 -0.649736,0.848038 -0.393377,1.321571 0.546647,1.009811 0.857475,2.16628 0.857475,3.398286 0,0.898294 -0.165229,1.756548 -0.466698,2.546934 z"
       id="path1711"
       style="fill:url(#linearGradient36);fill-opacity:0.5;stroke-width:1.29999" />
    <path
       d="m 25.604335,21.468162 1.42141,1.421405 c 1.250846,-1.997686 1.974032,-4.36029 1.974032,-6.889679 0,-2.893935 -0.946784,-5.569567 -2.547068,-7.730253 C 26.132131,7.8369333 25.521525,7.7459593 25.088889,8.0664563 24.65612,8.386944 24.565252,8.997536 24.885698,9.430252 c 1.360052,1.836299 2.164098,4.107718 2.164098,6.569636 0,1.990412 -0.525457,3.85616 -1.445461,5.468274 z"
       id="path1713"
       style="fill:url(#linearGradient34);fill-opacity:0.501676;stroke-width:1.29999" />
    <path
       d="M 4.999993,15.999991 C 4.999993,17.105103 4.105095,18 2.999996,18 1.895828,18.000001 1,17.105103 1,15.999991 1,14.895822 1.895828,14 2.999996,14 c 1.105099,0 1.999997,0.895822 1.999997,1.999991 z"
       id="path72-3-7-0-3"
       style="color:#e5e9ef;fill:#058bce;fill-opacity:1;stroke-width:0.0238098" />
  </g>
</svg>
