<?xml version="1.0" encoding="UTF-8" standalone="no"?>
<svg
   width="32"
   height="32"
   version="1.1"
   id="svg2"
   sodipodi:docname="telegram-attention-panel.svg"
   inkscape:version="1.3.2 (091e20ef0f, 2023-11-25)"
   xmlns:inkscape="http://www.inkscape.org/namespaces/inkscape"
   xmlns:sodipodi="http://sodipodi.sourceforge.net/DTD/sodipodi-0.dtd"
   xmlns:xlink="http://www.w3.org/1999/xlink"
   xmlns="http://www.w3.org/2000/svg"
   xmlns:svg="http://www.w3.org/2000/svg">
  <sodipodi:namedview
     id="namedview2"
     pagecolor="#ffffff"
     bordercolor="#000000"
     borderopacity="0.25"
     inkscape:showpageshadow="2"
     inkscape:pageopacity="0.0"
     inkscape:pagecheckerboard="0"
     inkscape:deskcolor="#d1d1d1"
     inkscape:zoom="7.9895833"
     inkscape:cx="16.771838"
     inkscape:cy="-8.1981747"
     inkscape:window-width="1920"
     inkscape:window-height="994"
     inkscape:window-x="0"
     inkscape:window-y="0"
     inkscape:window-maximized="1"
     inkscape:current-layer="svg2" />
  <defs
     id="defs1">
    <style
       id="current-color-scheme"
       type="text/css">
      .ColorScheme-Text {
        color:#eff0f1;
      }
      .ColorScheme-Highlight {
        color:#3daee9;
      }
    </style>
    <linearGradient
       inkscape:collect="always"
       xlink:href="#linearGradient22"
       id="linearGradient24"
       x1="0.7499975"
       y1="8"
       x2="15.250002"
       y2="8"
       gradientUnits="userSpaceOnUse"
       gradientTransform="matrix(1.862095,0,0,1.8460828,1.1014646,1.2322938)" />
    <linearGradient
       id="linearGradient22"
       inkscape:collect="always">
      <stop
         style="stop-color:#00ccff;stop-opacity:1"
         offset="0"
         id="stop23" />
      <stop
         style="stop-color:#5599ff;stop-opacity:1"
         offset="1"
         id="stop24" />
    </linearGradient>
  </defs>
  <path
     class="ColorScheme-Text"
     d="m 27.498844,4.0040328 c -0.332435,0.02347 -0.65981,0.100376 -0.968626,0.228774 h -0.002 c -0.296588,0.115211 -1.70397,0.701338 -3.843726,1.589694 l -7.667873,3.196115 C 9.5153295,11.309655 4.1068616,13.567292 4.1068616,13.567292 l 0.064138,-0.02495 c 0,0 -0.3729381,0.122047 -0.7627536,0.385747 -0.239628,0.151951 -0.4471913,0.350677 -0.6075032,0.582777 -0.192376,0.277197 -0.3459401,0.703013 -0.2885646,1.140515 0.094501,0.743088 0.5805023,1.187268 0.9281285,1.432737 0.3543798,0.248807 0.6901914,0.365696 0.6901914,0.365696 h 0.00823 l 5.0726064,1.689899 c 0.226122,0.723042 1.5457565,5.011232 1.8613195,5.999783 0.187319,0.589456 0.369562,0.958499 0.597379,1.240706 0.109674,0.14367 0.237941,0.263834 0.393186,0.360679 0.08106,0.0451 0.165373,0.08176 0.254817,0.108587 l -0.05055,-0.01277 c 0.01522,0.005 0.02695,0.01625 0.03879,0.02168 0.0422,0.01271 0.06927,0.01456 0.123186,0.02334 0.801545,0.240453 1.447859,-0.25215 1.447859,-0.25215 l 0.03541,-0.03014 2.995327,-2.696797 5.018659,3.808925 0.114822,0.04842 c 1.044574,0.454186 2.104324,0.202032 2.664576,-0.243814 0.563647,-0.449189 0.783016,-1.023614 0.783016,-1.023614 l 0.03707,-0.09355 3.877866,-19.6610132 c 0.1097,-0.486222 0.138271,-0.940418 0.01649,-1.381271 -0.124398,-0.447401 -0.414676,-0.831461 -0.811223,-1.076926 -0.332442,-0.200379 -0.718887,-0.29726 -1.108707,-0.277198 z m -0.104642,2.105689 c -0.002,0.06496 0.0085,0.05838 -0.02023,0.182015 v 0.0097 L 23.531666,25.758557 c -0.01648,0.02841 -0.04378,0.08861 -0.121466,0.148646 -0.08133,0.06345 -0.14512,0.10345 -0.482624,-0.02845 l -6.1391,-4.657252 -3.707458,3.344712 0.777941,-4.922726 10.030559,-9.251 c 0.41344,-0.380728 0.275063,-0.460875 0.275063,-0.460875 0.02875,-0.4659082 -0.624378,-0.136879 -0.624378,-0.136879 l -12.647883,7.753132 -0.0029,-0.01996 -6.0615332,-2.020482 v -0.0017 l -0.015267,-0.0018 c 0.010106,-0.0018 0.020249,-0.007 0.03036,-0.01 l 0.033764,-0.01689 0.032056,-0.01 c 0,0 5.4118492,-2.25764 10.9148232,-4.548687 2.754017,-1.148816 5.52997,-2.3043522 7.664674,-3.1977242 1.265619,-0.526008 2.532952,-1.050347 3.801937,-1.571335 0.08426,-0.0335 0.04384,-0.0335 0.104652,-0.0335 z"
     id="path22"
     style="color:#d5c289;isolation:isolate;fill:url(#linearGradient24);fill-opacity:1;stroke-width:1.85387" />
  <path
     d="m 30.249003,20.500685 c 0,2.486494 -2.013537,4.50001 -4.499997,4.50001 -2.484384,1e-6 -4.49999,-2.013516 -4.49999,-4.50001 0,-2.484385 2.015606,-4.499987 4.49999,-4.499987 2.48646,0 4.499997,2.015602 4.499997,4.499987 z"
     id="path72-3-6"
     style="color:#e5e9ef;fill:#00aa7f;fill-opacity:1;stroke-width:0.0535701"
     class="ColorScheme-Text" />
  <path
     id="path4166"
     d="m 27.999013,17.650697 1.5,1.500001 -4.499998,4.499998 -2.999999,-2.999999 1.499999,-1.499999 1.5,1.499999 z"
     class="ColorScheme-Background"
     fill="currentColor"
     fill-rule="evenodd"
     stroke="none"
     stroke-width="1.5"
     stroke-linecap="butt"
     stroke-linejoin="miter"
     stroke-opacity="1"
     style="color:#eff0f1;fill:#d3dae3;fill-opacity:1" />
</svg>
