<?xml version="1.0" encoding="UTF-8" standalone="no"?>
<svg
   inkscape:version="1.3.2 (091e20ef0f, 2023-11-25)"
   sodipodi:docname="uninstall.svg"
   id="svg8"
   version="1.1"
   viewBox="0 0 32 32"
   width="32"
   height="32"
   xmlns:inkscape="http://www.inkscape.org/namespaces/inkscape"
   xmlns:sodipodi="http://sodipodi.sourceforge.net/DTD/sodipodi-0.dtd"
   xmlns:xlink="http://www.w3.org/1999/xlink"
   xmlns="http://www.w3.org/2000/svg"
   xmlns:svg="http://www.w3.org/2000/svg"
   xmlns:rdf="http://www.w3.org/1999/02/22-rdf-syntax-ns#"
   xmlns:cc="http://creativecommons.org/ns#"
   xmlns:dc="http://purl.org/dc/elements/1.1/">
  <metadata
     id="metadata12">
    <rdf:RDF>
      <cc:Work
         rdf:about="">
        <dc:format>image/svg+xml</dc:format>
        <dc:type
           rdf:resource="http://purl.org/dc/dcmitype/StillImage" />
      </cc:Work>
    </rdf:RDF>
  </metadata>
  <sodipodi:namedview
     inkscape:current-layer="svg8"
     inkscape:window-maximized="1"
     inkscape:window-y="0"
     inkscape:window-x="0"
     inkscape:cy="14.434154"
     inkscape:cx="13.212454"
     inkscape:zoom="11.05018"
     showgrid="true"
     id="namedview10"
     inkscape:window-height="994"
     inkscape:window-width="1920"
     inkscape:pageshadow="2"
     inkscape:pageopacity="0"
     guidetolerance="10"
     gridtolerance="10"
     objecttolerance="10"
     borderopacity="1"
     bordercolor="#666666"
     pagecolor="#ffffff"
     inkscape:showpageshadow="2"
     inkscape:pagecheckerboard="0"
     inkscape:deskcolor="#d1d1d1">
    <inkscape:grid
       id="grid1"
       units="px"
       originx="0"
       originy="0"
       spacingx="1"
       spacingy="1"
       empcolor="#0099e5"
       empopacity="0.30196078"
       color="#0099e5"
       opacity="0.14901961"
       empspacing="5"
       dotted="false"
       gridanglex="30"
       gridanglez="30"
       visible="true" />
  </sodipodi:namedview>
  <defs
     id="defs3051">
    <style
       id="current-color-scheme"
       type="text/css">
      .ColorScheme-Text {
        color:#eff0f1;
      }
      </style>
    <linearGradient
       inkscape:collect="always"
       xlink:href="#linearGradient3"
       id="linearGradient4"
       x1="0.94218123"
       y1="304.40173"
       x2="7.5679665"
       y2="298.05173"
       gradientUnits="userSpaceOnUse"
       gradientTransform="matrix(-3.7795276,0,0,-3.7795276,32.103339,1154.4947)" />
    <linearGradient
       id="linearGradient3"
       inkscape:collect="always">
      <stop
         style="stop-color:#ab37c8;stop-opacity:1"
         offset="0"
         id="stop3" />
      <stop
         style="stop-color:#cd87de;stop-opacity:1"
         offset="1"
         id="stop4" />
    </linearGradient>
    <linearGradient
       inkscape:collect="always"
       xlink:href="#linearGradient3"
       id="linearGradient13"
       x1="9.9999561"
       y1="18.5"
       x2="22.000044"
       y2="18.5"
       gradientUnits="userSpaceOnUse"
       gradientTransform="translate(4.857e-5,-2.4999963)" />
  </defs>
  <path
     d="M 8.362813,23.849777 3.5,21.376605 4.969319,20.655698 C 4.363707,19.22526 4.023844,17.653203 4.023844,15.999887 4.023844,9.374337 9.395173,4 16.023731,4 c 2.123486,0 4.116653,0.557518 5.846615,1.525871 L 20.656562,6.739364 C 19.261342,6.039395 17.692366,5.63544 16.023731,5.63544 c -5.72397,0 -10.361912,4.640541 -10.361912,10.362141 0,1.535433 0.3552,2.982199 0.955696,4.29275 z m 7.825247,-2.545966 z m 0,0 z m -0.166904,5.060864 c 5.723967,0 10.361912,-4.64092 10.361912,-10.364788 0,-1.535471 -0.3552,-2.981972 -0.955699,-4.292523 l -1.747854,-3.55714 4.862824,2.473512 -1.469322,0.720756 c 0.60562,1.430853 0.945479,3.002532 0.945479,4.655395 0.0025,6.626457 -5.371336,12.000114 -11.99734,12.000114 -2.123485,0 -4.116657,-0.556876 -5.846618,-1.525304 l 1.213784,-1.214022 c 1.395216,0.70012 2.96675,1.104 4.632834,1.104 z"
     id="path4-9-3-36"
     sodipodi:nodetypes="cccssccsscccccccccccccccccccccccccccsscccccscc"
     style="fill:url(#linearGradient4);fill-opacity:1;stroke-width:0.0255532" />
  <path
     d="m 16.00006,17.618503 4.046139,4.046279 c 0.44701,0.446952 1.17171,0.446952 1.618626,0 0.447009,-0.446949 0.447009,-1.171548 0,-1.618497 l -4.046325,-4.046279 4.046325,-4.04628 c 0.447019,-0.446943 0.447019,-1.171569 0,-1.618512 -0.446915,-0.4469438 -1.171605,-0.4469438 -1.618616,0 l -4.046149,4.046285 -4.046291,-4.046292 c -0.44701,-0.4469425 -1.17166,-0.4469425 -1.61853,0 -0.4469854,0.446944 -0.4469854,1.171569 0,1.618513 l 4.04627,4.046285 -4.04627,4.046282 c -0.4469854,0.44695 -0.4469854,1.171549 0,1.618498 0.44687,0.446953 1.17153,0.446953 1.61853,0 z"
     style="fill:url(#linearGradient13);fill-opacity:1;fill-rule:evenodd;stroke:none;stroke-width:0.76291"
     id="path2838" />
</svg>
