<?xml version="1.0" encoding="UTF-8" standalone="no"?>
<svg
   inkscape:version="1.3.2 (091e20ef0f, 2023-11-25)"
   sodipodi:docname="update-none.svg"
   id="svg9"
   viewBox="0 0 22 22"
   version="1.1"
   width="22"
   height="22"
   xmlns:inkscape="http://www.inkscape.org/namespaces/inkscape"
   xmlns:sodipodi="http://sodipodi.sourceforge.net/DTD/sodipodi-0.dtd"
   xmlns:xlink="http://www.w3.org/1999/xlink"
   xmlns="http://www.w3.org/2000/svg"
   xmlns:svg="http://www.w3.org/2000/svg"
   xmlns:rdf="http://www.w3.org/1999/02/22-rdf-syntax-ns#"
   xmlns:cc="http://creativecommons.org/ns#"
   xmlns:dc="http://purl.org/dc/elements/1.1/">
  <metadata
     id="metadata13">
    <rdf:RDF>
      <cc:Work
         rdf:about="">
        <dc:format>image/svg+xml</dc:format>
        <dc:type
           rdf:resource="http://purl.org/dc/dcmitype/StillImage" />
      </cc:Work>
    </rdf:RDF>
  </metadata>
  <sodipodi:namedview
     inkscape:current-layer="svg9"
     inkscape:window-maximized="1"
     inkscape:window-y="0"
     inkscape:window-x="0"
     inkscape:cy="-9.8188446"
     inkscape:cx="13.755432"
     inkscape:zoom="11.05018"
     showgrid="true"
     id="namedview11"
     inkscape:window-height="994"
     inkscape:window-width="1920"
     inkscape:pageshadow="2"
     inkscape:pageopacity="0"
     guidetolerance="10"
     gridtolerance="10"
     objecttolerance="10"
     borderopacity="1"
     bordercolor="#666666"
     pagecolor="#ffffff"
     inkscape:showpageshadow="2"
     inkscape:pagecheckerboard="0"
     inkscape:deskcolor="#d1d1d1">
    <inkscape:grid
       id="grid1"
       units="px"
       originx="6.8053842"
       originy="-33.542689"
       spacingx="1"
       spacingy="1"
       empcolor="#0099e5"
       empopacity="0.30196078"
       color="#0099e5"
       opacity="0.14902"
       empspacing="5"
       dotted="false"
       gridanglex="30"
       gridanglez="30"
       visible="true" />
  </sodipodi:namedview>
  <defs
     id="defs3">
    <style
       id="current-color-scheme"
       type="text/css">.ColorScheme-Text {
        color:#eff0f1;
      }</style>
    <linearGradient
       inkscape:collect="always"
       xlink:href="#linearGradient3"
       id="linearGradient4"
       x1="0.94218123"
       y1="304.40173"
       x2="7.5679665"
       y2="298.05173"
       gradientUnits="userSpaceOnUse"
       gradientTransform="matrix(3.7795276,0,0,3.7795276,6.7443842,-1156.0375)" />
    <linearGradient
       id="linearGradient3"
       inkscape:collect="always">
      <stop
         style="stop-color:#ab37c8;stop-opacity:1"
         offset="0"
         id="stop3" />
      <stop
         style="stop-color:#cd87de;stop-opacity:1"
         offset="1"
         id="stop4" />
    </linearGradient>
    <linearGradient
       inkscape:collect="always"
       xlink:href="#linearGradient3"
       id="linearGradient2"
       x1="3.1999998e-06"
       y1="296.17917"
       x2="5.2470813"
       y2="291.84061"
       gradientUnits="userSpaceOnUse" />
  </defs>
  <path
     d="M 27.959885,-18.541921 22.95958,-23.54473 c -0.047,-0.04687 -0.110472,-0.07295 -0.176942,-0.07295 -0.06647,0 -0.129963,0.02646 -0.176943,0.07332 l -4.985333,5.002318 c -0.07149,0.07143 -0.09248,0.178771 -0.05398,0.272504 0.03899,0.09335 0.129963,0.153826 0.230921,0.153826 h 2.749069 v 6.2479 c 0,0.137953 0.111969,0.249827 0.249925,0.249827 h 3.998666 c 0.137952,0 0.249925,-0.111874 0.249925,-0.249827 v -6.2479 h 2.738572 c 0.100959,0 0.191936,-0.06085 0.230922,-0.154582 0.03898,-0.09335 0.01697,-0.200315 -0.0545,-0.271748 z"
     id="path2-3"
     style="fill:#f4d7e3;fill-opacity:1;stroke-width:0.0234296" />
  <path
     d="m 30.484909,-25.392465 4.862813,2.473171 -1.469318,0.720907 c 0.605612,1.430438 0.945475,3.002494 0.945475,4.655811 0,6.62555 -5.371329,11.9998867 -11.999887,11.9998867 -2.123486,0 -4.116654,-0.557518 -5.846616,-1.525871 l 1.213784,-1.213493 c 1.395221,0.699968 2.964197,1.103924 4.632832,1.103924 5.72397,0 10.361912,-4.6405407 10.361912,-10.3621407 0,-1.535434 -0.3552,-2.982199 -0.955696,-4.29275 z m -7.825247,2.545965 z m 0,0 z m 0.166904,-5.060863 c -5.723966,0 -10.361912,4.64092 -10.361912,10.364787 0,1.535471 0.3552,2.981972 0.955699,4.292523 l 1.747854,3.5571397 -4.862823,-2.4735117 1.469321,-0.720756 c -0.60562,-1.430853 -0.945479,-3.002532 -0.945479,-4.655395 -0.0026,-6.626456 5.371337,-12.000113 11.99734,-12.000113 2.123486,0 4.116658,0.556876 5.846619,1.525304 l -1.213784,1.214022 c -1.395216,-0.70012 -2.966751,-1.104 -4.632835,-1.104 z"
     id="path4-9-3-36"
     sodipodi:nodetypes="cccssccsscccccccccccccccccccccccccccsscccccscc"
     style="fill:url(#linearGradient4);fill-opacity:1;stroke-width:0.0255532" />
  <g
     id="22-22-update-none"
     transform="matrix(3.7795276,0,0,3.7795276,0,-1100.5196)">
    <rect
       style="opacity:0.003;fill:#000000;fill-opacity:1;stroke:none;stroke-width:0.10795;stroke-miterlimit:4;stroke-dasharray:none;stroke-opacity:1"
       id="rect1396"
       width="5.8208332"
       height="5.8208332"
       x="0"
       y="291.17914"
       ry="1.2988289e-06" />
    <path
       d="m 4.3357173,292.61835 0.9113638,0.46358 -0.2753727,0.13505 c 0.1135015,0.26819 0.1771964,0.56272 0.1771964,0.87257 0,1.24182 -1.0066667,2.24896 -2.2489567,2.24896 -0.3979734,0 -0.7715224,-0.1044 -1.0957438,-0.28591 l 0.2274818,-0.22748 c 0.2614843,0.13122 0.5555344,0.20689 0.868262,0.20689 1.0727562,0 1.941976,-0.8697 1.941976,-1.94198 0,-0.28782 -0.066568,-0.55888 -0.179112,-0.80456 z m -1.4665676,0.47724 z m 0,0 z m 0.031277,-0.94849 c -1.0727561,0 -1.94197598,0.8697 -1.94197598,1.94245 0,0.28783 0.0665684,0.55889 0.17911198,0.80457 l 0.3275737,0.66664 -0.91136378,-0.46358 0.27537268,-0.13505 c -0.11350144,-0.26819 -0.17719633,-0.56272 -0.17719633,-0.87258 -4.7891e-4,-1.24181 1.00666673,-2.24895 2.24847773,-2.24895 0.3979734,0 0.7715224,0.1044 1.0957438,0.28591 L 3.768689,292.35399 C 3.5072047,292.22277 3.2126757,292.1471 2.9004267,292.1471 Z"
       id="path4"
       sodipodi:nodetypes="cccssccsscccccccccccccccccccccccccccsscccccscc"
       style="fill:url(#linearGradient2);fill-opacity:1;stroke-width:0.00478909" />
    <path
       d="m 3.9387446,293.93201 -0.9922727,-0.99279 c -0.00935,-0.0104 -0.021922,-0.0138 -0.035117,-0.0138 -0.013189,0 -0.025787,0.007 -0.035115,0.0138 L 1.886938,293.9319 c -0.014182,0.0138 -0.01835,0.0353 -0.010714,0.0541 0.0077,0.0187 0.02579,0.0312 0.045828,0.0312 h 0.545532 v 1.23978 c 0,0.0275 0.022215,0.0498 0.049597,0.0498 h 0.793504 c 0.02738,0 0.049598,-0.0219 0.049598,-0.0498 v -1.23977 h 0.5434483 c 0.020035,0 0.038092,-0.0124 0.045828,-0.0311 0.0077,-0.0187 0.00336,-0.0402 -0.010819,-0.0539 z"
       id="path2-3-5"
       style="fill:#f4d7e3;fill-opacity:1;stroke-width:0.00464939" />
  </g>
</svg>
