<?xml version="1.0" encoding="UTF-8" standalone="no"?>
<svg
   height="16"
   width="16"
   version="1.1"
   id="svg6"
   sodipodi:docname="amarok.svg"
   inkscape:version="1.3 (0e150ed6c4, 2023-07-21)"
   xmlns:inkscape="http://www.inkscape.org/namespaces/inkscape"
   xmlns:sodipodi="http://sodipodi.sourceforge.net/DTD/sodipodi-0.dtd"
   xmlns:xlink="http://www.w3.org/1999/xlink"
   xmlns="http://www.w3.org/2000/svg"
   xmlns:svg="http://www.w3.org/2000/svg"
   xmlns:rdf="http://www.w3.org/1999/02/22-rdf-syntax-ns#"
   xmlns:cc="http://creativecommons.org/ns#"
   xmlns:dc="http://purl.org/dc/elements/1.1/">
  <metadata
     id="metadata12">
    <rdf:RDF>
      <cc:Work
         rdf:about="">
        <dc:format>image/svg+xml</dc:format>
        <dc:type
           rdf:resource="http://purl.org/dc/dcmitype/StillImage" />
      </cc:Work>
    </rdf:RDF>
  </metadata>
  <defs
     id="defs10">
    <linearGradient
       id="linearGradient1"
       inkscape:collect="always">
      <stop
         style="stop-color:#2a7fff;stop-opacity:1"
         offset="0"
         id="stop1" />
      <stop
         style="stop-color:#00ccff;stop-opacity:1"
         offset="1"
         id="stop2" />
    </linearGradient>
    <marker
       style="overflow:visible"
       id="DotL"
       refX="0"
       refY="0"
       orient="auto"
       inkscape:stockid="DotL"
       inkscape:isstock="true">
      <path
         transform="matrix(0.8,0,0,0.8,5.92,0.8)"
         style="fill:#000000;fill-opacity:1;fill-rule:evenodd;stroke:#000000;stroke-width:1pt;stroke-opacity:1"
         d="m -2.5,-1 c 0,2.76 -2.24,5 -5,5 -2.76,0 -5,-2.24 -5,-5 0,-2.76 2.24,-5 5,-5 2.76,0 5,2.24 5,5 z"
         id="path898" />
    </marker>
    <linearGradient
       inkscape:collect="always"
       xlink:href="#linearGradient1"
       id="linearGradient2"
       x1="1.5"
       y1="13.568481"
       x2="10.699604"
       y2="5.7835612"
       gradientUnits="userSpaceOnUse" />
    <linearGradient
       inkscape:collect="always"
       xlink:href="#linearGradient1"
       id="linearGradient4"
       x1="2.5833344"
       y1="8"
       x2="12.777028"
       y2="8"
       gradientUnits="userSpaceOnUse" />
  </defs>
  <sodipodi:namedview
     pagecolor="#ffffff"
     bordercolor="#666666"
     borderopacity="1"
     objecttolerance="10"
     gridtolerance="10"
     guidetolerance="10"
     inkscape:pageopacity="0"
     inkscape:pageshadow="2"
     inkscape:window-width="1920"
     inkscape:window-height="994"
     id="namedview8"
     showgrid="false"
     inkscape:zoom="22.627417"
     inkscape:cx="9.5680386"
     inkscape:cy="5.2370096"
     inkscape:window-x="0"
     inkscape:window-y="0"
     inkscape:window-maximized="1"
     inkscape:current-layer="svg6"
     inkscape:document-rotation="0"
     inkscape:pagecheckerboard="0"
     inkscape:showpageshadow="2"
     inkscape:deskcolor="#d1d1d1" />
  <path
     style="color:#d6dbf1;fill:url(#linearGradient2);fill-opacity:1;stroke-width:0.8125"
     class="ColorScheme-Text "
     d="M 7.9999995,1.500015 C 4.4054998,1.500015 1.5,4.4055149 1.5,8.0000139 c 0,3.5945001 2.9054998,6.5000011 6.4999995,6.5000011 3.5944975,0 6.4999965,-2.905501 6.4999965,-6.5000012 0,-3.5944989 -2.905499,-6.4999988 -6.4999965,-6.4999988 z m 0,0.8124999 c 3.1443765,0 5.6874965,2.543124 5.6874965,5.687499 0,3.1443761 -2.54312,5.6875011 -5.6874965,5.6875011 -3.1443734,0 -5.6874996,-2.543125 -5.6874996,-5.6875012 0,-3.1443749 2.5431262,-5.6874989 5.6874996,-5.6874989 z M 8.609375,6.9592017 v 0 0 0 0 0 c 0,0 -0.027613,0.0065 0,0 z M 7.9748065,10.615454 Z"
     id="path58-9"
     sodipodi:nodetypes="ssssssssssccccccccccccccccc" />
  <path
     d="m 12.773713,7.1538757 c -0.0082,-0.073387 -0.07752,-0.1223149 -0.1509,-0.1100836 -0.05912,0.010163 -0.118264,0.02041 -0.177362,0.030595 L 12.308839,6.7318379 c -0.01624,-0.03874 -0.0734,-0.036707 -0.08362,0.00426 L 12.11712,7.1316499 C 11.338216,7.272315 10.708211,7.3763459 10.549135,7.2009866 10.408472,7.0460309 11.120029,6.173332 11.415733,5.2231947 l 0.342548,0.1590071 c 0.04075,0.018359 0.08363,-0.022393 0.06528,-0.063218 L 11.568695,4.7519467 c 0.04894,-0.299746 -0.04893,-0.4547069 -0.130498,-0.764611 -0.228346,-0.7870026 -1.043953,0.1223158 -1.043953,0.1223158 0,0 -1.6270783,1.1173338 -1.7433559,1.1887333 -0.8584043,-0.048945 -0.9379241,-0.061152 -2.658851,1.7250035 -0.997092,0.3099046 -1.3028633,0.071398 -1.5863347,0.1895878 -0.079505,0.032622 0.3507398,1.0154201 1.2641787,1.0439483 0,0 -0.6096522,0.8441138 -2.2776372,1.1479174 0.330331,0.4344279 0.8339562,0.4711304 0.8339562,0.4711304 0,0 -0.7666705,0.2569258 -1.5945098,0.2589278 -0.05298,0 -0.067273,0.07339 -0.018346,0.0938 0.1610738,0.06322 0.3242141,0.110082 0.4751165,0.146776 0.2772634,0.06934 0.5668513,0.06934 0.8502324,0.06727 0.2793367,-0.0022 0.5566006,-0.04076 0.8257627,-0.118266 C 5.3007202,10.171596 5.7472362,9.8779724 6.1183095,9.4660864 6.2834365,9.2826158 6.4486418,9.0888932 6.5934266,8.8869997 6.7463202,8.6770042 6.8645918,8.3976663 6.6994571,8.1611477 c -0.0022,-0.0022 -0.0022,-0.0022 -0.0022,-0.00428 C 6.4240678,7.7552301 5.302616,7.6594348 5.3148325,7.6491852 5.5044199,7.4799358 6.1711824,7.3759653 6.3547247,7.369848 6.5545618,7.3637302 6.8787584,7.365518 7.0805797,7.2454721 7.1335599,7.153734 7.4516544,6.7622558 7.5332121,6.6888708 7.7351074,6.5012679 7.9695717,6.3340906 8.2387336,6.2647496 8.4079837,6.2198939 8.5873967,6.2035902 8.7464172,6.1220251 8.8606262,6.0629278 8.9625308,5.981361 9.058395,5.8936782 8.567005,6.0588042 8.2652736,5.8915182 8.2999013,5.8814422 8.3447583,5.8671582 8.6445232,5.6510404 8.9238445,5.6816062 9.0726867,5.6978772 9.225575,5.6653312 9.3520272,5.5857472 9.4009562,5.5551542 9.4437632,5.5225262 9.4743447,5.5001252 9.6394688,5.330875 9.796485,5.1575816 9.955574,4.9822116 10.208392,4.7008168 10.512182,4.4765305 10.77317,4.2053664 c 0.01016,-0.012233 0.02447,-0.010172 0.03462,-0.00408 0.0082,-0.00612 0.02039,-0.010172 0.03056,0 0.114214,0.087683 0.269167,0.057103 0.403721,0.055042 0.02238,0 0.03055,0.018349 0.02846,0.036694 0,0.00204 0.002,0.00612 0.002,0.00818 0.01841,0.5546116 -0.252773,1.0479875 -0.572927,1.482359 -0.154929,0.2120463 -0.579058,0.8624563 -0.848221,1.5985603 0.165127,0.3323848 1.097004,0.42412 0.738088,0.8808121 -0.08768,0.1121466 -0.201896,0.199837 -0.318097,0.279337 -0.554616,0.3813047 -1.9594119,2.0205752 0.348663,3.7720762 0.06728,0.051 0.161075,-0.0082 0.14479,-0.08974 -0.362972,-1.867652 0.322138,-3.2949249 0.322138,-3.2949249 0,0 0.189585,-0.6504127 0.766667,-0.8910455 0.522129,-0.2201734 0.968641,-0.4668691 0.919721,-0.8848566 z"
     id="path67-3"
     style="color:#d6dbf1;fill:url(#linearGradient4);fill-opacity:1;stroke-width:0.0182047"
     class="ColorScheme-Text" />
</svg>
