<?xml version="1.0" encoding="UTF-8" standalone="no"?>
<svg
   viewBox="0 0 16 16"
   version="1.1"
   id="svg2"
   sodipodi:docname="joplin.svg"
   inkscape:version="1.3 (0e150ed6c4, 2023-07-21)"
   width="16"
   height="16"
   xmlns:inkscape="http://www.inkscape.org/namespaces/inkscape"
   xmlns:sodipodi="http://sodipodi.sourceforge.net/DTD/sodipodi-0.dtd"
   xmlns:xlink="http://www.w3.org/1999/xlink"
   xmlns="http://www.w3.org/2000/svg"
   xmlns:svg="http://www.w3.org/2000/svg">
  <defs
     id="defs2">
    <linearGradient
       id="linearGradient2"
       inkscape:collect="always">
      <stop
         style="stop-color:#ff00ff;stop-opacity:1;"
         offset="0"
         id="stop3" />
      <stop
         style="stop-color:#ffcc00;stop-opacity:1"
         offset="1"
         id="stop4" />
    </linearGradient>
    <linearGradient
       inkscape:collect="always"
       xlink:href="#linearGradient2"
       id="linearGradient4"
       x1="4.6100001"
       y1="44.524998"
       x2="42.733116"
       y2="4.3476849"
       gradientUnits="userSpaceOnUse"
       gradientTransform="matrix(0.30622796,0,0,0.30622796,0.5882116,0.59356534)" />
  </defs>
  <sodipodi:namedview
     id="namedview2"
     pagecolor="#ffffff"
     bordercolor="#000000"
     borderopacity="0.25"
     inkscape:showpageshadow="2"
     inkscape:pageopacity="0.0"
     inkscape:pagecheckerboard="0"
     inkscape:deskcolor="#d1d1d1"
     inkscape:zoom="16.060382"
     inkscape:cx="9.0906927"
     inkscape:cy="11.799221"
     inkscape:window-width="1920"
     inkscape:window-height="994"
     inkscape:window-x="0"
     inkscape:window-y="0"
     inkscape:window-maximized="1"
     inkscape:current-layer="svg2" />
  <linearGradient
     id="a"
     gradientUnits="userSpaceOnUse"
     x1="3.9979513"
     x2="43.799984"
     y1="2.8296185"
     y2="44.932224">
    <stop
       offset="0"
       stop-color="#00e5ff"
       id="stop1"
       style="stop-color:#ff00ff;stop-opacity:1" />
    <stop
       offset="1"
       stop-color="#0079cd"
       id="stop2" />
  </linearGradient>
  <path
     style="fill:url(#linearGradient4);fill-opacity:1;stroke-width:0.306228"
     d="m 7.4997765,1.5000001 v 2.000281 h 1.000141 c 0.276217,0 0.50007,0.2235464 0.50007,0.4997641 V 10.750228 A 1.7461118,1.7461118 0 0 1 7.2498946,12.500014 1.7461118,1.7461118 0 0 1 5.5001081,10.750228 v -0.50007 A 1.7500928,1.7500928 0 0 0 3.7500153,8.500065 1.7500928,1.7500928 0 0 0 1.9999225,10.250158 c 0,2.215865 1.7840841,4.249831 3.9999496,4.249831 H 7.9998465 A 4.4902206,4.4902206 0 0 0 12.499867,10.000276 V 4.0000452 c 0,-0.2759114 0.223853,-0.4997641 0.50007,-0.4997641 h 1.000141 v -2.000281 z"
     id="path1" />
</svg>
