<?xml version="1.0" encoding="UTF-8" standalone="no"?>
<svg
   id="SimpleNote"
   width="16"
   height="16"
   enable-background="new 0 0 1024 1024"
   image-rendering="optimizeSpeed"
   version="1.1"
   viewBox="0 0 16 16"
   sodipodi:docname="applications-multimedia.svg"
   inkscape:version="1.3 (0e150ed6c4, 2023-07-21)"
   xmlns:inkscape="http://www.inkscape.org/namespaces/inkscape"
   xmlns:sodipodi="http://sodipodi.sourceforge.net/DTD/sodipodi-0.dtd"
   xmlns:xlink="http://www.w3.org/1999/xlink"
   xmlns="http://www.w3.org/2000/svg"
   xmlns:svg="http://www.w3.org/2000/svg"
   xmlns:rdf="http://www.w3.org/1999/02/22-rdf-syntax-ns#"
   xmlns:cc="http://creativecommons.org/ns#"
   xmlns:dc="http://purl.org/dc/elements/1.1/">
  <sodipodi:namedview
     id="namedview16"
     pagecolor="#ffffff"
     bordercolor="#000000"
     borderopacity="0.25"
     inkscape:showpageshadow="2"
     inkscape:pageopacity="0.0"
     inkscape:pagecheckerboard="0"
     inkscape:deskcolor="#d1d1d1"
     inkscape:zoom="16.948466"
     inkscape:cx="5.2512127"
     inkscape:cy="12.479005"
     inkscape:window-width="1920"
     inkscape:window-height="994"
     inkscape:window-x="0"
     inkscape:window-y="0"
     inkscape:window-maximized="1"
     inkscape:current-layer="SimpleNote" />
  <metadata
     id="metadata1">
    <rdf:RDF>
      <cc:Work
         rdf:about="">
        <dc:format>image/svg+xml</dc:format>
        <dc:type
           rdf:resource="http://purl.org/dc/dcmitype/StillImage" />
      </cc:Work>
    </rdf:RDF>
  </metadata>
  <defs
     id="defs12">
    <linearGradient
       id="linearGradient16"
       inkscape:collect="always">
      <stop
         style="stop-color:#ffff37;stop-opacity:1;"
         offset="0"
         id="stop16" />
      <stop
         style="stop-color:#ff50ff;stop-opacity:1;"
         offset="1"
         id="stop17" />
    </linearGradient>
    <linearGradient
       id="i"
       x1="400.39999"
       x2="400.39999"
       y1="545.62"
       y2="517.62"
       gradientTransform="matrix(1.5862,0,0,1.5862,-585.75,-804.34)"
       gradientUnits="userSpaceOnUse">
      <stop
         stop-color="#d3d3d3"
         offset="0"
         id="stop1" />
      <stop
         stop-color="#fcf9f9"
         offset="1"
         id="stop2" />
    </linearGradient>
    <linearGradient
       id="f"
       x1="400.39999"
       x2="400.39999"
       y1="545.62"
       y2="517.62"
       gradientTransform="matrix(1.6382,0,0,1.6382,-660.38,-809.85)"
       gradientUnits="userSpaceOnUse">
      <stop
         stop-color="#8d3aff"
         offset="0"
         id="stop3" />
      <stop
         stop-color="#ff3680"
         offset="1"
         id="stop4" />
    </linearGradient>
    <radialGradient
       id="radialGradient1813"
       cx="-41.678001"
       cy="-40.515999"
       r="28"
       gradientTransform="matrix(0.26824824,0,0,0.26784647,19.180651,18.852203)"
       gradientUnits="userSpaceOnUse">
      <stop
         stop-color="#e74b86"
         offset="0"
         id="stop5" />
      <stop
         stop-color="#e44c89"
         offset="1"
         id="stop6" />
    </radialGradient>
    <linearGradient
       id="linearGradient31502"
       x1="10.796"
       x2="9.8303003"
       y1="19.263"
       y2="26.26"
       gradientUnits="userSpaceOnUse">
      <stop
         stop-color="#e74b86"
         stop-opacity="0"
         offset="0"
         id="stop7" />
      <stop
         stop-color="#922153"
         offset="1"
         id="stop8" />
    </linearGradient>
    <linearGradient
       id="linearGradient37204"
       x1="10.796"
       x2="9.8303003"
       y1="19.263"
       y2="26.26"
       gradientTransform="rotate(120,32.035,32.048)"
       gradientUnits="userSpaceOnUse">
      <stop
         stop-color="#e74b86"
         stop-opacity="0"
         offset="0"
         id="stop9" />
      <stop
         stop-color="#922153"
         offset="1"
         id="stop10" />
    </linearGradient>
    <linearGradient
       id="linearGradient37208"
       x1="10.796"
       x2="9.8303003"
       y1="19.263"
       y2="26.26"
       gradientTransform="rotate(-120,32.147,32.089)"
       gradientUnits="userSpaceOnUse">
      <stop
         stop-color="#e74b86"
         stop-opacity="0"
         offset="0"
         id="stop11" />
      <stop
         stop-color="#922153"
         offset="1"
         id="stop12" />
    </linearGradient>
    <linearGradient
       inkscape:collect="always"
       xlink:href="#linearGradient16"
       id="linearGradient17"
       x1="0.50023848"
       y1="0.50023001"
       x2="15.499762"
       y2="15.49977"
       gradientUnits="userSpaceOnUse"
       gradientTransform="matrix(0.80002455,0,0,0.80002455,1.5998069,1.5998037)" />
  </defs>
  <circle
     cx="49.639"
     cy="39.205002"
     r="0"
     fill="url(#i)"
     id="circle12"
     style="fill:url(#i)" />
  <circle
     cx="-4.1496"
     cy="61.361"
     r="0"
     fill="none"
     stroke="url(#f)"
     stroke-width="2.1297"
     id="circle13"
     style="stroke:url(#f)" />
  <path
     id="path13"
     d="M 8.0001668,2.0001632 A 5.9999458,5.9999458 0 0 0 2.2466479,6.3012659 c 0.012936,0.1737866 0.067402,0.4088961 0.2699545,0.4088961 h 2.2812645 c 0,0 0.2243343,-0.018231 0.2243343,-0.238968 V 4.30157 c 0,0 -0.021595,-0.4543022 0.374568,-0.6830284 0.3961679,-0.2287273 0.7596994,-0.1601457 1.1856738,0.085796 l 1.8126264,1.0463056 c 0,0 0.5411734,0.3101109 0.3406682,0.9747334 C 8.5733456,6.263678 7.4988929,7.5011673 6.2504747,7.5011673 H 2.4670809 c 0,0 -0.2785043,0.038272 -0.4616308,0.4227178 A 5.9999458,5.9999458 0 0 0 2.0000061,8.0000521 5.9999458,5.9999458 0 0 0 7.9999521,14 5.9999458,5.9999458 0 0 0 9.5614589,13.784886 c 0.096381,-0.09374 0.1656892,-0.210946 0.094167,-0.334818 L 8.51474,11.47421 c 0,0 -0.1281636,-0.184857 -0.3193266,-0.07452 l -1.8787538,1.084819 c 0,0 -0.3826887,0.245465 -0.778878,0.01673 C 5.1416138,12.27254 5.0192364,11.923833 5.0192364,11.431943 V 9.3389179 c 0,0 -0.00196,-0.6239741 0.6738142,-0.782628 0.5473674,-0.1285135 2.1565528,0.1832584 2.7807601,1.2643587 l 1.8917163,3.2766174 c 0,0 0.133588,0.172021 0.454926,0.190426 A 5.9999458,5.9999458 0 0 0 13.999994,8.000023 5.9999458,5.9999458 0 0 0 12.348917,3.8671331 c -0.156113,-0.071883 -0.372782,-0.1303025 -0.470003,0.03808 l -1.140485,1.9754387 c 0,0 -0.09617,0.2039382 0.095,0.3143132 l 1.878763,1.0848106 c 0,0 0.404291,0.2084094 0.404291,0.6658659 0,0.4574525 -0.240728,0.7375847 -0.666701,0.9835187 l -1.813042,1.0467322 c 0,0 -0.539181,0.3138436 -1.0145035,-0.1920989 C 9.2372525,9.374018 8.7030002,7.824746 9.3271664,6.7435343 L 11.218884,3.4664932 c 0,0 0.106104,-0.262176 -0.138535,-0.6148 A 5.9999458,5.9999458 0 0 0 8.0000261,2 Z"
     style="fill:url(#linearGradient17);stroke-width:0.800021" />
  <g
     fill-rule="evenodd"
     id="g16"
     transform="matrix(0.26784647,0,0,0.26784647,-0.5708835,-0.570952)" />
</svg>
