<?xml version="1.0" encoding="UTF-8" standalone="no"?>
<svg
   width="20"
   height="16"
   preserveAspectRatio="xMidYMid"
   viewBox="0 0 20 16"
   version="1.1"
   id="svg4"
   sodipodi:docname="distributor-logo-MicroOS.svg"
   inkscape:version="1.3 (0e150ed6c4, 2023-07-21)"
   xmlns:inkscape="http://www.inkscape.org/namespaces/inkscape"
   xmlns:sodipodi="http://sodipodi.sourceforge.net/DTD/sodipodi-0.dtd"
   xmlns:xlink="http://www.w3.org/1999/xlink"
   xmlns="http://www.w3.org/2000/svg"
   xmlns:svg="http://www.w3.org/2000/svg">
  <defs
     id="defs8">
    <linearGradient
       id="linearGradient1"
       inkscape:collect="always">
      <stop
         style="stop-color:#008080;stop-opacity:1"
         offset="0"
         id="stop1" />
      <stop
         style="stop-color:#00d455;stop-opacity:1"
         offset="1"
         id="stop2" />
    </linearGradient>
    <linearGradient
       inkscape:collect="always"
       xlink:href="#linearGradient1"
       id="linearGradient2"
       x1="4.8553819e-09"
       y1="14"
       x2="20"
       y2="1.5"
       gradientUnits="userSpaceOnUse" />
  </defs>
  <sodipodi:namedview
     id="namedview6"
     pagecolor="#ffffff"
     bordercolor="#000000"
     borderopacity="0.25"
     inkscape:showpageshadow="2"
     inkscape:pageopacity="0.0"
     inkscape:pagecheckerboard="0"
     inkscape:deskcolor="#d1d1d1"
     showgrid="false"
     inkscape:zoom="5.2149125"
     inkscape:cx="26.366694"
     inkscape:cy="-15.436501"
     inkscape:window-width="1920"
     inkscape:window-height="994"
     inkscape:window-x="0"
     inkscape:window-y="0"
     inkscape:window-maximized="1"
     inkscape:current-layer="svg4" />
  <path
     d="M 9.9999996,1.5 C 6.7696586,1.5 4.102254,3.972948 3.7872693,7.125 H 0.63333567 a 0.62450659,0.62506247 0 1 0 0,1.25 H 3.7872693 C 4.102254,11.527054 6.7696586,14 9.9999996,14 13.230342,14 15.897744,11.527054 16.212728,8.375 h 3.153936 a 0.62450659,0.62506247 0 1 0 0,-1.25 H 16.212728 C 15.897744,3.972948 13.230342,1.5 9.9999996,1.5 Z m 0,1.25 c 2.7455184,0 4.9574324,2.1991395 4.9906734,4.9389625 a 0.62450659,0.62506247 0 0 0 0,0.119625 c -0.03193,2.7409825 -2.244327,4.9414135 -4.9906734,4.9414135 -2.7455227,0 -4.9574327,-2.199141 -4.9906745,-4.9389635 a 0.62450659,0.62506247 0 0 0 0,-0.119625 C 5.0412476,4.950427 7.2536495,2.75 9.9999996,2.75 Z m 0,2.5 c -1.3720889,0 -2.4977748,1.1266875 -2.4977748,2.5 0,1.3733135 1.1256859,2.500001 2.4977748,2.500001 1.3720854,0 2.4977754,-1.1266875 2.4977754,-2.500001 0,-1.3733125 -1.12569,-2.5 -2.4977754,-2.5 z m 0,1.25 c 0.6971354,0 1.2488874,0.5522355 1.2488874,1.25 0,0.6977645 -0.551752,1.25 -1.2488874,1.25 -0.6971383,0 -1.248888,-0.5522355 -1.248888,-1.25 0,-0.6977645 0.5517497,-1.25 1.248888,-1.25 z"
     id="path2-6-6"
     style="stroke-width:0.178649;fill:url(#linearGradient2)" />
</svg>
