<?xml version="1.0" encoding="UTF-8" standalone="no"?>
<!-- Generator: Gravit.io -->

<svg
   style="isolation:isolate"
   viewBox="0 0 16 16"
   width="16pt"
   height="16pt"
   version="1.1"
   id="svg2"
   sodipodi:docname="distributor-logo-fedora.svg"
   inkscape:version="1.3 (0e150ed6c4, 2023-07-21)"
   xmlns:inkscape="http://www.inkscape.org/namespaces/inkscape"
   xmlns:sodipodi="http://sodipodi.sourceforge.net/DTD/sodipodi-0.dtd"
   xmlns="http://www.w3.org/2000/svg"
   xmlns:svg="http://www.w3.org/2000/svg">
  <defs
     id="defs2" />
  <sodipodi:namedview
     id="namedview2"
     pagecolor="#ffffff"
     bordercolor="#000000"
     borderopacity="0.25"
     inkscape:showpageshadow="2"
     inkscape:pageopacity="0.0"
     inkscape:pagecheckerboard="0"
     inkscape:deskcolor="#d1d1d1"
     inkscape:document-units="pt"
     inkscape:zoom="16.948466"
     inkscape:cx="10.590929"
     inkscape:cy="11.239956"
     inkscape:window-width="1920"
     inkscape:window-height="994"
     inkscape:window-x="0"
     inkscape:window-y="0"
     inkscape:window-maximized="1"
     inkscape:current-layer="svg2" />
  <linearGradient
     id="_lgradient_0"
     x1="0.078804351"
     y1="0.90760869"
     x2="0.60126084"
     y2="0.32276088"
     gradientTransform="matrix(13,0,0,13,1.5,1.5)"
     gradientUnits="userSpaceOnUse">
    <stop
       offset="0%"
       stop-opacity="1"
       style="stop-color:#003380;stop-opacity:1"
       id="stop1" />
    <stop
       offset="83.88839793817618%"
       stop-opacity="1"
       style="stop-color:#2a7fff;stop-opacity:1"
       id="stop2" />
  </linearGradient>
  <path
     d="M 8.0197826,2.6304348 C 9.4384783,2.6360848 10.800652,3.2041304 11.803913,4.2102174 12.807174,5.2163043 13.369565,6.5784783 13.369565,8 c 0,1.4243478 -0.565217,2.789348 -1.571304,3.795435 -1.006087,1.006087 -2.3710871,1.57413 -3.7954349,1.57413 H 2.9865217 C 2.8932609,13.369565 2.8,13.332826 2.735,13.265 2.6671739,13.2 2.6304348,13.106739 2.6304348,13.013478 V 7.9971739 c 0,-1.4215217 0.5680435,-2.7893478 1.5741304,-3.7954348 C 5.2106522,3.1956522 6.5784783,2.6304348 8,2.6304348 c 0.00565,0 0.01413,0 0.019783,0 z M 7.9802174,1.5 c 0.00565,0 0.01413,0 0.019783,0 1.723913,0 3.377174,0.683913 4.595217,1.9047826 C 13.816087,4.6228261 14.5,6.276087 14.5,8 c 0,1.723913 -0.683913,3.377174 -1.901957,4.595217 C 11.38,13.813261 9.7267391,14.5 8.0028261,14.5 c 0,0 0,0 0,0 H 2.9865217 C 2.5908696,14.5 2.215,14.344565 1.9352174,14.064783 1.6554348,13.785 1.5,13.40913 1.5,13.013478 V 7.9971739 c 0,0 0,0 0,0 C 1.5,6.278913 2.183913,4.6284783 3.3991304,3.4104348 4.6115217,2.1923913 6.2591304,1.5056522 7.9802174,1.5 Z m 1.3361739,2.969087 c -1.0162609,0 -1.8400652,0.8238043 -1.8400652,1.8400652 v 1.6775652 2.0031304 0.2046082 0 c -0.097217,0.475914 -0.5366739,0.81787 -1.0224783,0.81787 -0.5646521,0 -1.0224782,-0.457826 -1.0224782,-1.0224782 0,-0.5646521 0.4578261,-1.0224782 1.0224782,-1.0224782 H 7.0673913 V 7.7405652 H 6.4538478 c -1.2423478,0 -2.2492826,1.0072174 -2.2492826,2.2492826 0,1.2423482 1.0069348,2.2492822 2.2492826,2.2492822 1.2420652,0 2.2492826,-1.006934 2.2492826,-2.2492822 V 8.9673696 h 0.6132609 c 0.3388478,0 0.6135435,-0.2744131 0.6135435,-0.6132609 0,-0.3388478 -0.2746957,-0.6135435 -0.6135435,-0.6135435 H 8.7031304 v -1.431413 c 0,-0.3385652 0.2746957,-0.6132609 0.6132609,-0.6132609 0.3388478,0 0.6135435,0.2746957 0.6135435,0.6132609 V 6.718087 c 0,0.3388478 0.2746952,0.6135434 0.6135432,0.6135434 0.338565,0 0.613261,-0.2746956 0.613261,-0.6135434 V 6.3091522 c 0,-1.0162609 -0.823804,-1.8400652 -1.8403477,-1.8400652 z"
     fill-rule="evenodd"
     id="path2"
     style="fill:url(#_lgradient_0);stroke-width:0.282609" />
</svg>
