<?xml version="1.0" encoding="UTF-8" standalone="no"?>
<svg
   width="21"
   height="16"
   viewBox="0 0 21 16"
   version="1.1"
   id="svg11"
   sodipodi:docname="distributor-logo-pclinuxos.svg"
   inkscape:version="1.3 (0e150ed6c4, 2023-07-21)"
   xmlns:inkscape="http://www.inkscape.org/namespaces/inkscape"
   xmlns:sodipodi="http://sodipodi.sourceforge.net/DTD/sodipodi-0.dtd"
   xmlns:xlink="http://www.w3.org/1999/xlink"
   xmlns="http://www.w3.org/2000/svg"
   xmlns:svg="http://www.w3.org/2000/svg">
  <defs
     id="defs15">
    <linearGradient
       id="linearGradient1"
       inkscape:collect="always">
      <stop
         style="stop-color:#5599ff;stop-opacity:1"
         offset="0"
         id="stop1" />
      <stop
         style="stop-color:#00ccff;stop-opacity:1"
         offset="1"
         id="stop2" />
    </linearGradient>
    <linearGradient
       inkscape:collect="always"
       xlink:href="#linearGradient1"
       id="linearGradient2"
       x1="0"
       y1="8.0000002"
       x2="21"
       y2="8.0000002"
       gradientUnits="userSpaceOnUse" />
  </defs>
  <sodipodi:namedview
     id="namedview13"
     pagecolor="#ffffff"
     bordercolor="#000000"
     borderopacity="0.25"
     inkscape:showpageshadow="2"
     inkscape:pageopacity="0.0"
     inkscape:pagecheckerboard="0"
     inkscape:deskcolor="#d1d1d1"
     showgrid="false"
     inkscape:zoom="4.9166667"
     inkscape:cx="-7.2203389"
     inkscape:cy="24.508474"
     inkscape:window-width="1920"
     inkscape:window-height="994"
     inkscape:window-x="0"
     inkscape:window-y="0"
     inkscape:window-maximized="1"
     inkscape:current-layer="svg11" />
  <path
     style="fill:url(#linearGradient2);fill-opacity:1;fill-rule:nonzero;stroke:none;stroke-width:0.725194"
     d="m 21,1.5035719 c 0,-0.019964 -0.101273,0.045639 -0.222237,0.1454822 -0.306632,0.2481751 -0.624515,0.348015 -1.530341,0.4820868 -0.841126,0.1255144 -1.249029,0.2681434 -1.355928,0.4735298 -0.135029,0.236764 -0.481044,0.430741 -0.554186,0.687473 0.0619,0.827251 1.0071,1.349275 1.023977,2.145147 0,0.245323 -0.02813,0.305226 -0.227863,0.49635 -0.340388,0.330899 -0.770795,0.447856 -1.59223,0.44215 -1.198392,-0.0086 -2.320829,-0.322342 -4.537573,-1.280811 -1.817281,-0.787314 -2.6077701,-0.984143 -3.4095118,-0.832955 -0.4304081,0.07987 -1.0858667,0.402214 -1.4262547,0.69603 -0.5344951,0.464972 -1.5331554,1.945465 -2.1604831,3.214867 L 4.5910273,9.0201397 4.2703295,8.6806827 C 3.7414615,8.1244277 3.578301,7.9047777 3.578301,7.7478857 c 0,-0.09413 -0.033747,-0.148334 -0.09565,-0.148334 -0.081577,0 -0.092829,0.04849 -0.067514,0.299522 0.030947,0.325194 0.2616213,0.718851 0.7398526,1.260843 l 0.2616205,0.293817 -0.2137982,0.6903253 c -0.118151,0.382247 -0.2475554,0.88145 -0.2841261,1.106805 -0.070325,0.393657 -0.084388,0.427888 -0.5119883,0.878596 -0.511989,0.541993 -0.5823178,0.559108 -1.1899534,0.328048 C 1.9748158,12.360518 0.03375715,11.712983 0,12.320584 c 1.0464833,-0.05134 2.2111178,1.012669 3.1394502,0.847219 0.1687878,-0.03423 0.3235084,-0.139777 0.6132617,-0.425037 L 4.1437366,12.36052 c 0.4219683,0.445004 1.0211651,0.62757 1.5753514,0.790167 l -0.2672475,0.06561 c -0.3657064,0.09414 -0.5991958,0.279557 -0.7286001,0.573373 -0.1097113,0.245323 -0.1097113,0.251029 0,0.333753 0.1434693,0.105546 1.1702615,0.108399 1.3784335,0.0029 0.1209647,-0.0599 0.3516404,-0.390805 0.4247818,-0.601896 0.5626252,0.08843 1.2124576,0.168303 1.7413255,-0.02567 0.1631616,-0.06275 0.2953785,-0.09414 0.2953785,-0.06847 0,0.02567 -0.118151,0.162598 -0.2644339,0.310933 -0.1744139,0.17686 -0.2616203,0.31949 -0.2616203,0.41933 0,0.336605 0.00848,0.339458 0.8298725,0.339458 0.5513727,0 0.7651709,-0.01712 0.7820485,-0.07131 v -0.0057 c 0.014063,-0.03993 0.033757,-0.541991 0.042199,-1.121066 0.016884,-0.955616 0.028126,-1.066867 0.1378429,-1.218055 0.9930336,-0.741672 2.1576696,-1.141035 3.3110506,-1.255139 v 0.182566 c 0,0.102694 -0.123778,0.53914 -0.275685,0.96988 l -0.281313,0.781609 -0.309444,0.07132 c -0.351642,0.07987 -0.663899,0.31949 -0.776424,0.596191 -0.13503,0.330901 -0.07876,0.356574 0.703282,0.356574 0.827059,0 0.765171,0.03708 1.204019,-0.747379 0.239115,-0.430741 0.444474,-0.676063 1.13369,-1.372095 l 0.843939,-0.85007 c 1.066174,0.493497 2.4643,1.403472 3.066308,2.433257 0.09563,0.185418 0.07314,0.302374 -0.09563,0.527728 -0.137843,0.179714 -0.143469,0.402215 -0.01126,0.436446 0.233489,0.0599 1.249029,0.05134 1.361555,-0.01141 0.06752,-0.03422 0.123777,-0.122661 0.123777,-0.193976 0,-0.07417 -0.213798,-0.507761 -0.469794,-0.964175 -0.556998,-0.995552 -0.635765,-1.178118 -1.271533,-3.0779413 -0.413531,-1.238024 -0.489485,-1.528987 -0.489485,-1.85133 0,-0.670358 0.278501,-1.195234 0.917081,-1.728668 0.748292,-0.601896 0.416343,-1.577481 -0.07878,-2.170819 -0.396651,-0.476382 -0.464166,-0.636127 -0.331948,-0.787315 0.05907,-0.06275 0.18004,-0.111251 0.286937,-0.111251 0.309445,0 0.78205,-0.171155 1.31092,-0.479234 0.275686,-0.159745 0.542933,-0.2938169 0.593569,-0.2938169 0.137843,0 0.312255,-0.2139428 0.520428,-0.6361261 C 20.915608,1.7033162 21,1.5236035 21,1.5036349 Z m 0,0"
     id="path8-3" />
</svg>
