<?xml version="1.0" encoding="UTF-8" standalone="no"?>
<svg
   width="16"
   height="16"
   version="1.1"
   id="svg22"
   sodipodi:docname="firefox-nightly.svg"
   inkscape:version="1.3 (0e150ed6c4, 2023-07-21)"
   xmlns:inkscape="http://www.inkscape.org/namespaces/inkscape"
   xmlns:sodipodi="http://sodipodi.sourceforge.net/DTD/sodipodi-0.dtd"
   xmlns:xlink="http://www.w3.org/1999/xlink"
   xmlns="http://www.w3.org/2000/svg"
   xmlns:svg="http://www.w3.org/2000/svg">
  <sodipodi:namedview
     id="namedview22"
     pagecolor="#ffffff"
     bordercolor="#000000"
     borderopacity="0.25"
     inkscape:showpageshadow="2"
     inkscape:pageopacity="0.0"
     inkscape:pagecheckerboard="0"
     inkscape:deskcolor="#d1d1d1"
     inkscape:zoom="11.984375"
     inkscape:cx="-4.714472"
     inkscape:cy="10.054759"
     inkscape:window-width="1920"
     inkscape:window-height="994"
     inkscape:window-x="0"
     inkscape:window-y="0"
     inkscape:window-maximized="1"
     inkscape:current-layer="svg22"
     showgrid="true">
    <inkscape:grid
       id="grid27"
       units="px"
       originx="0"
       originy="0"
       spacingx="1"
       spacingy="1"
       empcolor="#0099e5"
       empopacity="0.30196078"
       color="#0099e5"
       opacity="0.14902"
       empspacing="5"
       dotted="false"
       gridanglex="30"
       gridanglez="30"
       visible="true" />
  </sodipodi:namedview>
  <defs
     id="defs22">
    <linearGradient
       id="linearGradient1"
       inkscape:collect="always">
      <stop
         style="stop-color:#ff5555;stop-opacity:1"
         offset="0"
         id="stop24" />
      <stop
         style="stop-color:#ff00ff;stop-opacity:1"
         offset="0.58928567"
         id="stop28" />
      <stop
         style="stop-color:#ffb380;stop-opacity:1"
         offset="1"
         id="stop27" />
    </linearGradient>
    <style
       id="current-color-scheme"
       type="text/css">&#10;   .ColorScheme-Text { color:#d5c289; } .ColorScheme-Highlight { color:#5294e2; }&#10;  </style>
    <linearGradient
       id="arrongin"
       x1="0%"
       x2="0%"
       y1="0%"
       y2="100%">
      <stop
         offset="0%"
         style="stop-color:#dd9b44; stop-opacity:1"
         id="stop1" />
      <stop
         offset="100%"
         style="stop-color:#ad6c16; stop-opacity:1"
         id="stop2" />
    </linearGradient>
    <linearGradient
       id="aurora"
       x1="0%"
       x2="0%"
       y1="0%"
       y2="100%">
      <stop
         offset="0%"
         style="stop-color:#09D4DF; stop-opacity:1"
         id="stop3" />
      <stop
         offset="100%"
         style="stop-color:#9269F4; stop-opacity:1"
         id="stop4" />
    </linearGradient>
    <linearGradient
       id="fitdance"
       x1="0%"
       x2="0%"
       y1="0%"
       y2="100%">
      <stop
         offset="0%"
         style="stop-color:#1AD6AB; stop-opacity:1"
         id="stop5" />
      <stop
         offset="100%"
         style="stop-color:#329DB6; stop-opacity:1"
         id="stop6" />
    </linearGradient>
    <linearGradient
       id="oomox"
       x1="15.999997"
       x2="-8.1294915e-10"
       y1="5.5739447e-06"
       y2="16.000004"
       gradientUnits="userSpaceOnUse"
       gradientTransform="matrix(0.87500218,0,0,0.87500218,-17.440678,3.9621859)">
      <stop
         offset="0%"
         style="stop-color:#5599ff;stop-opacity:1"
         id="stop7" />
      <stop
         offset="0.51303768"
         style="stop-color:#fff3c1;stop-opacity:1;"
         id="stop23" />
      <stop
         offset="1"
         style="stop-color:#ffa264;stop-opacity:1;"
         id="stop8" />
    </linearGradient>
    <linearGradient
       id="rainblue"
       x1="0%"
       x2="0%"
       y1="0%"
       y2="100%">
      <stop
         offset="0%"
         style="stop-color:#00F260; stop-opacity:1"
         id="stop9" />
      <stop
         offset="100%"
         style="stop-color:#0575E6; stop-opacity:1"
         id="stop10" />
    </linearGradient>
    <linearGradient
       id="sunrise"
       x1="0%"
       x2="0%"
       y1="0%"
       y2="100%">
      <stop
         offset="0"
         style="stop-color:#d08770;stop-opacity:1;"
         id="stop11" />
      <stop
         offset="0.25290769"
         style="stop-color:#d08770;stop-opacity:1;"
         id="stop26" />
      <stop
         offset="0.67384863"
         style="stop-color:#5e81ac;stop-opacity:1;"
         id="stop25" />
      <stop
         offset="1"
         style="stop-color:#ebcb8b;stop-opacity:1;"
         id="stop12" />
    </linearGradient>
    <linearGradient
       id="telinkrin"
       x1="0%"
       x2="0%"
       y1="0%"
       y2="100%">
      <stop
         offset="0%"
         style="stop-color: #b2ced6; stop-opacity:1"
         id="stop13" />
      <stop
         offset="100%"
         style="stop-color: #6da5b7; stop-opacity:1"
         id="stop14" />
    </linearGradient>
    <linearGradient
       id="60spsycho"
       x1="0%"
       x2="0%"
       y1="0%"
       y2="100%">
      <stop
         offset="0%"
         style="stop-color: #df5940; stop-opacity:1"
         id="stop15" />
      <stop
         offset="25%"
         style="stop-color: #d8d15f; stop-opacity:1"
         id="stop16" />
      <stop
         offset="50%"
         style="stop-color: #e9882a; stop-opacity:1"
         id="stop17" />
      <stop
         offset="100%"
         style="stop-color: #279362; stop-opacity:1"
         id="stop18" />
    </linearGradient>
    <linearGradient
       id="90ssummer"
       x1="0%"
       x2="0%"
       y1="0%"
       y2="100%">
      <stop
         offset="0%"
         style="stop-color: #f618c7; stop-opacity:1"
         id="stop19" />
      <stop
         offset="20%"
         style="stop-color: #94ffab; stop-opacity:1"
         id="stop20" />
      <stop
         offset="50%"
         style="stop-color: #fbfd54; stop-opacity:1"
         id="stop21" />
      <stop
         offset="100%"
         style="stop-color: #0f83ae; stop-opacity:1"
         id="stop22" />
    </linearGradient>
    <linearGradient
       inkscape:collect="always"
       xlink:href="#linearGradient1"
       id="linearGradient27"
       x1="1"
       y1="16"
       x2="12.999999"
       y2="2.9999998"
       gradientUnits="userSpaceOnUse"
       gradientTransform="matrix(0.80000007,0,0,0.80000008,1.5999999,1.5999999)" />
  </defs>
  <path
     fill-rule="nonzero"
     d="M 8.0000007,2 C 11.3138,2 14,4.6862 14,8.0000009 14,11.3138 11.3138,14 8.0000007,14 4.6862,14 2,11.3138 2,8.0000009 2,7.1216009 2.1884,6.2876005 2.528,5.5363999 2.8076,4.9730001 3.2678,4.412 3.638,4.22 3.2462137,4.989813 3.0542137,5.744 3.014,6.2498131 3.2864,5.349813 3.8029863,4.5956268 4.526,4.063413 5.7656,3.1520268 7.4348007,3.1111999 8.0996007,3.691413 6.8660007,4.1156 5.522,5.820213 5.8178136,7.8170139 c 0.048,0.33 0.1469332,0.6504001 0.2934135,0.9492001 -0.2304,-0.6060002 -0.2509335,-1.4598131 0.1210665,-2.0148008 0.4152,-0.618 1.0068003,-0.7488002 1.3236007,-0.6816002 -0.1248001,-0.0264 -0.4008005,0.5016001 -0.4416005,0.594614 -0.1037334,0.2365334 -0.155467,0.492 -0.150667,0.75 a 2.037,2.037 0 0 0 0.618,1.4280008 C 8.7348267,9.965042 10.595425,9.523414 11.428828,8.2412275 12.0008,7.3586009 12.0704,5.8603999 11.336,4.6700001 A 4.1490002,4.1490003 0 0 0 10.685601,3.878 C 9.5756008,2.8184 7.9976007,2.336 6.4964007,2.555 5.8328,2.6612 5.2682,2.8526 4.802,3.1286001 5.453,2.4788001 6.7460007,2 8.0000007,2 Z M 4.925,5.423 C 3.5732,5.8915999 2.8244,7.3250009 3.3776,9.2990008 A 4.8024007,4.8024008 0 0 0 7.8506007,12.7976 l 0.1494,0.0025 A 4.8000007,4.8000008 0 0 0 12.791,8.2976009 l 0.0061,-0.1272 c -0.07788,0.2093325 -0.169905,0.4043999 -0.277824,0.588 l -0.084,0.1362657 C 11.17241,10.838057 8.4262085,11.339658 6.7468085,9.7034666 A 3.2352,3.2352 0 0 1 6.1694003,8.9492009 L 6.1056662,8.8286666 c -1.0416,-0.2322657 -1.5504004,-0.7956 -1.5257871,-1.6902132 0.0162,-0.5945868 0.137867,-1.1760001 0.3450136,-1.7160001 z"
     id="path2"
     style="fill:url(#linearGradient27);stroke-width:0.6" />
</svg>
