<?xml version="1.0" encoding="UTF-8" standalone="no"?>
<svg
   width="16"
   height="16"
   version="1.1"
   id="svg23"
   sodipodi:docname="gucharmap.svg"
   inkscape:version="1.3 (0e150ed6c4, 2023-07-21)"
   xmlns:inkscape="http://www.inkscape.org/namespaces/inkscape"
   xmlns:sodipodi="http://sodipodi.sourceforge.net/DTD/sodipodi-0.dtd"
   xmlns:xlink="http://www.w3.org/1999/xlink"
   xmlns="http://www.w3.org/2000/svg"
   xmlns:svg="http://www.w3.org/2000/svg">
  <sodipodi:namedview
     id="namedview23"
     pagecolor="#ffffff"
     bordercolor="#000000"
     borderopacity="0.25"
     inkscape:showpageshadow="2"
     inkscape:pageopacity="0.0"
     inkscape:pagecheckerboard="0"
     inkscape:deskcolor="#d1d1d1"
     inkscape:zoom="23.96875"
     inkscape:cx="7.2177314"
     inkscape:cy="11.452412"
     inkscape:window-width="1920"
     inkscape:window-height="994"
     inkscape:window-x="0"
     inkscape:window-y="0"
     inkscape:window-maximized="1"
     inkscape:current-layer="svg23"
     showgrid="true">
    <inkscape:grid
       id="grid1"
       units="px"
       originx="0"
       originy="0"
       spacingx="1"
       spacingy="1"
       empcolor="#0099e5"
       empopacity="0.30196078"
       color="#0099e5"
       opacity="0.14902"
       empspacing="5"
       dotted="false"
       gridanglex="30"
       gridanglez="30"
       visible="true" />
  </sodipodi:namedview>
  <defs
     id="defs22">
    <linearGradient
       id="linearGradient1"
       inkscape:collect="always">
      <stop
         style="stop-color:#ff4fff;stop-opacity:1;"
         offset="0"
         id="stop25" />
      <stop
         style="stop-color:#ffdd55;stop-opacity:1"
         offset="1"
         id="stop26" />
    </linearGradient>
    <style
       id="current-color-scheme"
       type="text/css">&#10;   .ColorScheme-Text { color:#d5c289; } .ColorScheme-Highlight { color:#5294e2; }&#10;  </style>
    <linearGradient
       id="arrongin"
       x1="0%"
       x2="0%"
       y1="0%"
       y2="100%">
      <stop
         offset="0%"
         style="stop-color:#dd9b44; stop-opacity:1"
         id="stop1" />
      <stop
         offset="100%"
         style="stop-color:#ad6c16; stop-opacity:1"
         id="stop2" />
    </linearGradient>
    <linearGradient
       id="aurora"
       x1="0%"
       x2="0%"
       y1="0%"
       y2="100%">
      <stop
         offset="0%"
         style="stop-color:#09D4DF; stop-opacity:1"
         id="stop3" />
      <stop
         offset="100%"
         style="stop-color:#9269F4; stop-opacity:1"
         id="stop4" />
    </linearGradient>
    <linearGradient
       id="fitdance"
       x1="0%"
       x2="0%"
       y1="0%"
       y2="100%">
      <stop
         offset="0%"
         style="stop-color:#1AD6AB; stop-opacity:1"
         id="stop5" />
      <stop
         offset="100%"
         style="stop-color:#329DB6; stop-opacity:1"
         id="stop6" />
    </linearGradient>
    <linearGradient
       id="oomox"
       x1="0%"
       x2="0%"
       y1="0%"
       y2="100%">
      <stop
         offset="0%"
         style="stop-color:#303b3d; stop-opacity:1"
         id="stop7" />
      <stop
         offset="100%"
         style="stop-color:#bc985d; stop-opacity:1"
         id="stop8" />
    </linearGradient>
    <linearGradient
       id="rainblue"
       x1="0%"
       x2="0%"
       y1="0%"
       y2="100%">
      <stop
         offset="0%"
         style="stop-color:#00F260; stop-opacity:1"
         id="stop9" />
      <stop
         offset="100%"
         style="stop-color:#0575E6; stop-opacity:1"
         id="stop10" />
    </linearGradient>
    <linearGradient
       id="sunrise"
       x1="0%"
       x2="0%"
       y1="0%"
       y2="100%">
      <stop
         offset="0%"
         style="stop-color: #FF8501; stop-opacity:1"
         id="stop11" />
      <stop
         offset="100%"
         style="stop-color: #FFCB01; stop-opacity:1"
         id="stop12" />
    </linearGradient>
    <linearGradient
       id="telinkrin"
       x1="0%"
       x2="0%"
       y1="0%"
       y2="100%">
      <stop
         offset="0%"
         style="stop-color: #b2ced6; stop-opacity:1"
         id="stop13" />
      <stop
         offset="100%"
         style="stop-color: #6da5b7; stop-opacity:1"
         id="stop14" />
    </linearGradient>
    <linearGradient
       id="60spsycho"
       x1="0%"
       x2="0%"
       y1="0%"
       y2="100%">
      <stop
         offset="0%"
         style="stop-color: #df5940; stop-opacity:1"
         id="stop15" />
      <stop
         offset="25%"
         style="stop-color: #d8d15f; stop-opacity:1"
         id="stop16" />
      <stop
         offset="50%"
         style="stop-color: #e9882a; stop-opacity:1"
         id="stop17" />
      <stop
         offset="100%"
         style="stop-color: #279362; stop-opacity:1"
         id="stop18" />
    </linearGradient>
    <linearGradient
       id="90ssummer"
       x1="0%"
       x2="0%"
       y1="0%"
       y2="100%">
      <stop
         offset="0%"
         style="stop-color: #f618c7; stop-opacity:1"
         id="stop19" />
      <stop
         offset="20%"
         style="stop-color: #94ffab; stop-opacity:1"
         id="stop20" />
      <stop
         offset="50%"
         style="stop-color: #fbfd54; stop-opacity:1"
         id="stop21" />
      <stop
         offset="100%"
         style="stop-color: #0f83ae; stop-opacity:1"
         id="stop22" />
    </linearGradient>
    <linearGradient
       inkscape:collect="always"
       xlink:href="#linearGradient1"
       id="linearGradient27"
       x1="493.32956"
       y1="208.5"
       x2="503.55682"
       y2="208.5"
       gradientUnits="userSpaceOnUse" />
  </defs>
  <g
     transform="matrix(0.97777766,0,0,1,-480.36661,-200.5)"
     id="g23"
     style="fill:url(#linearGradient27)">
    <path
       class="ColorScheme-Text"
       d="m 495.994,203 c -1.258,0.015 -2.179,-0.03 -2.932,0.385 a 1.88,1.88 0 0 0 -0.837,0.998 C 492.06,204.821 492,205.343 492,206 v 5 c 0,0.658 0.06,1.179 0.225,1.617 0.164,0.439 0.461,0.79 0.837,0.998 0.753,0.416 1.674,0.37 2.932,0.385 h 7.012 c 1.258,-0.015 2.179,0.03 2.932,-0.385 a 1.88,1.88 0 0 0 0.838,-0.998 C 506.94,212.179 507,211.657 507,211 v -5 c 0,-0.658 -0.06,-1.179 -0.225,-1.617 a 1.88,1.88 0 0 0 -0.837,-0.998 c -0.753,-0.416 -1.674,-0.37 -2.932,-0.385 h -7.008 z m 0.006,1 h 7 c 1.259,0.015 2.087,0.06 2.453,0.262 0.184,0.1 0.29,0.212 0.387,0.472 0.097,0.26 0.16,0.674 0.16,1.266 v 5 c 0,0.592 -0.063,1.006 -0.16,1.266 -0.098,0.26 -0.203,0.371 -0.387,0.472 -0.366,0.202 -1.194,0.247 -2.453,0.262 h -7 c -1.259,-0.015 -2.087,-0.06 -2.453,-0.262 -0.184,-0.1 -0.29,-0.212 -0.387,-0.472 C 493.063,212.006 493,211.592 493,211 v -5 c 0,-0.592 0.063,-1.006 0.16,-1.266 0.098,-0.26 0.203,-0.371 0.387,-0.472 0.366,-0.202 1.194,-0.247 2.453,-0.262 z"
       font-family="sans-serif"
       font-weight="400"
       overflow="visible"
       id="path22"
       style="fill:url(#linearGradient27)" />
    <path
       class="ColorScheme-Text"
       fill-rule="evenodd"
       d="m 495,206 v 1 h 1 v -1 z m 2,0 v 1 h 1 v -1 z m 2,0 v 1 h 1 v -1 z m 2,0 v 1 h 1 v -1 z m 2,0 v 1 h 1 v -1 z m -7.002,2 0.004,1 H 497 v -1 z m 2.002,0 v 1 h 1 v -1 z m 2,0 v 1 h 1 v -1 z m 2,0 v 1 h 1 v -1 z m -7,2 v 1 h 1 v -1 z m 2,0 v 1 h 5 v -1 z m 6,0 0.012,1 h 0.994 l -0.012,-1 z"
       font-family="sans-serif"
       font-weight="400"
       overflow="visible"
       id="path23"
       style="fill:url(#linearGradient27)" />
  </g>
</svg>
