<?xml version="1.0" encoding="UTF-8" standalone="no"?>
<svg
   height="32"
   width="32"
   version="1.1"
   id="svg6"
   sodipodi:docname="io.github.antimicrox.antimicrox.svg"
   inkscape:version="1.3.2 (091e20ef0f, 2023-11-25)"
   xmlns:inkscape="http://www.inkscape.org/namespaces/inkscape"
   xmlns:sodipodi="http://sodipodi.sourceforge.net/DTD/sodipodi-0.dtd"
   xmlns:xlink="http://www.w3.org/1999/xlink"
   xmlns="http://www.w3.org/2000/svg"
   xmlns:svg="http://www.w3.org/2000/svg"
   xmlns:rdf="http://www.w3.org/1999/02/22-rdf-syntax-ns#"
   xmlns:cc="http://creativecommons.org/ns#"
   xmlns:dc="http://purl.org/dc/elements/1.1/">
  <metadata
     id="metadata12">
    <rdf:RDF>
      <cc:Work
         rdf:about="">
        <dc:format>image/svg+xml</dc:format>
        <dc:type
           rdf:resource="http://purl.org/dc/dcmitype/StillImage" />
      </cc:Work>
    </rdf:RDF>
  </metadata>
  <defs
     id="defs10">
    <linearGradient
       id="linearGradient1"
       inkscape:collect="always">
      <stop
         style="stop-color:#cd87de;stop-opacity:1"
         offset="0"
         id="stop1" />
      <stop
         style="stop-color:#00ccff;stop-opacity:1"
         offset="1"
         id="stop2" />
    </linearGradient>
    <marker
       style="overflow:visible"
       id="DotL"
       refX="0"
       refY="0"
       orient="auto"
       inkscape:stockid="DotL"
       inkscape:isstock="true">
      <path
         transform="matrix(0.8,0,0,0.8,5.92,0.8)"
         style="fill:#000000;fill-opacity:1;fill-rule:evenodd;stroke:#000000;stroke-width:1pt;stroke-opacity:1"
         d="m -2.5,-1 c 0,2.76 -2.24,5 -5,5 -2.76,0 -5,-2.24 -5,-5 0,-2.76 2.24,-5 5,-5 2.76,0 5,2.24 5,5 z"
         id="path898" />
    </marker>
    <linearGradient
       id="linearGradient10376"
       x1="30.393"
       x2="30.393"
       y1="10.498"
       y2="18.433001"
       gradientTransform="matrix(2.2594179,0,0,2.2384543,-53.727089,-14.203688)"
       gradientUnits="userSpaceOnUse">
      <stop
         stop-color="#0183fb"
         offset="0"
         id="stop2-4" />
      <stop
         stop-color="#08e083"
         offset="1"
         id="stop3" />
    </linearGradient>
    <linearGradient
       inkscape:collect="always"
       xlink:href="#linearGradient1"
       id="linearGradient2"
       x1="0.79549509"
       y1="27.53693"
       x2="31.469616"
       y2="5.6166215"
       gradientUnits="userSpaceOnUse"
       gradientTransform="matrix(0.84374309,0,0,0.84444428,2.5,2.1511115)" />
  </defs>
  <sodipodi:namedview
     pagecolor="#ffffff"
     bordercolor="#666666"
     borderopacity="1"
     objecttolerance="10"
     gridtolerance="10"
     guidetolerance="10"
     inkscape:pageopacity="0"
     inkscape:pageshadow="2"
     inkscape:window-width="1920"
     inkscape:window-height="994"
     id="namedview8"
     showgrid="true"
     inkscape:zoom="11.313709"
     inkscape:cx="22.715804"
     inkscape:cy="9.4133586"
     inkscape:window-x="0"
     inkscape:window-y="0"
     inkscape:window-maximized="1"
     inkscape:current-layer="svg6"
     inkscape:document-rotation="0"
     inkscape:pagecheckerboard="0"
     inkscape:showpageshadow="2"
     inkscape:deskcolor="#d1d1d1">
    <inkscape:grid
       id="grid1"
       units="px"
       originx="0"
       originy="0"
       spacingx="1"
       spacingy="1"
       empcolor="#0099e5"
       empopacity="0.30196078"
       color="#0099e5"
       opacity="0.14901961"
       empspacing="5"
       dotted="false"
       gridanglex="30"
       gridanglez="30"
       visible="true" />
  </sodipodi:namedview>
  <path
     d="M 7.6222326,6.5004567 C 5.8332254,6.4794214 3.9622191,7.324503 3.1004385,10.482922 2.4613192,12.825242 2.4980348,20.769075 2.5014689,22.81768 c 0.00363,2.004316 2.9034487,3.512095 4.8499315,2.174719 1.9464857,-1.337302 3.5481176,-3.673765 4.9030726,-3.673765 h 7.411341 c 0.140899,0.146738 0.351949,0.391469 0.616712,0.737304 0.595114,0.777337 1.287584,1.854842 2.466754,2.692355 1.394153,0.99011 3.084138,0.911188 4.350425,0.289071 1.266198,-0.622121 2.396018,-1.893221 2.398839,-3.632776 0.0019,-0.803597 0.0097,-2.808528 -0.04639,-4.856433 -0.0549,-2.047925 -0.09071,-3.950388 -0.481717,-5.431634 -0.410731,-1.556119 -1.1504,-2.7933471 -2.15934,-3.5809781 -1.009008,-0.7876013 -2.191029,-1.0472946 -3.190928,-1.035138 -1.849716,0.022457 -3.066386,0.6750695 -3.665824,1.0380654 h -8.133424 c 0,0 -2.0386825,-1.0127087 -4.1977102,-1.0380654 z M 23.642768,8.4800036 c 1.370333,-0.01664 2.802632,0.6525513 3.462773,3.1533164 0.489572,1.854676 0.461696,8.144404 0.459078,9.766587 -0.0032,1.587029 -2.223947,2.781487 -3.71508,1.722652 C 22.358537,22.063684 21.132064,19.33839 20.094153,19.33839 H 16.481827 V 9.519138 h 3.944337 c 0,0 1.562685,-1.0189713 3.21646,-1.0390484 z"
     id="path9"
     style="fill:url(#linearGradient2);fill-opacity:1;stroke-width:0.844098" />
  <g
     transform="matrix(1.7594537,0,0,1.744095,1.4284994,1.2336387)"
     id="g13">
    <path
       d="M 5.8749,7.5461 H 5.21592 v 0.67729 c 0,0.14646 -0.10984,0.25628 -0.25628,0.25628 H 4.37388 C 4.22742,8.47967 4.1176,8.36985 4.1176,8.22339 V 7.5461 H 3.45862 C 3.31216,7.5461 3.20234,7.43628 3.20234,7.28982 V 6.70405 c 0,-0.14646 0.10982,-0.25628 0.25628,-0.25628 H 4.1176 V 5.78879 c 0,-0.14646 0.10982,-0.25628 0.25628,-0.25628 h 0.58576 c 0.14646,0 0.25628,0.10982 0.25628,0.25628 V 6.44777 H 5.8749 c 0.14646,0 0.25628,0.10982 0.25628,0.25628 v 0.58577 c 0,0.14646 -0.10982,0.25628 -0.25628,0.25628 z"
       stroke-width="0.046478"
       id="path10" />
    <g
       transform="translate(-0.26458)"
       stroke-width="0.047982"
       id="g12">
      <path
         d="m 12.964,5.5325 c -0.35906,0 -0.66144,0.30239 -0.66144,0.66144 0,0.35906 0.30239,0.66145 0.66144,0.66145 0.35906,0 0.66145,-0.30239 0.66145,-0.66145 C 13.625403,5.83485 13.32306,5.5325 12.964,5.5325 Z"
         id="path11"
         style="fill:#00ccff" />
      <path
         d="m 11.377,7.1568 c -0.35906,0 -0.66145,0.30239 -0.66145,0.66145 0,0.35906 0.30239,0.66144 0.66145,0.66144 0.35906,0 0.66144,-0.30239 0.66144,-0.66144 0,-0.35906 -0.30239,-0.66145 -0.66144,-0.66145 z"
         id="path12"
         style="fill:#bc5fd3" />
    </g>
  </g>
</svg>
