<?xml version="1.0" encoding="UTF-8" standalone="no"?>
<svg
   width="20"
   height="18"
   version="1.1"
   id="svg6492"
   sodipodi:docname="ktnef.svg"
   inkscape:version="1.3 (0e150ed6c4, 2023-07-21)"
   xmlns:inkscape="http://www.inkscape.org/namespaces/inkscape"
   xmlns:sodipodi="http://sodipodi.sourceforge.net/DTD/sodipodi-0.dtd"
   xmlns:xlink="http://www.w3.org/1999/xlink"
   xmlns="http://www.w3.org/2000/svg"
   xmlns:svg="http://www.w3.org/2000/svg">
  <sodipodi:namedview
     id="namedview6494"
     pagecolor="#ffffff"
     bordercolor="#666666"
     borderopacity="1.0"
     inkscape:showpageshadow="2"
     inkscape:pageopacity="0.0"
     inkscape:pagecheckerboard="0"
     inkscape:deskcolor="#d1d1d1"
     showgrid="false"
     inkscape:zoom="19.666667"
     inkscape:cx="12.20339"
     inkscape:cy="9.8898303"
     inkscape:window-width="1920"
     inkscape:window-height="994"
     inkscape:window-x="0"
     inkscape:window-y="0"
     inkscape:window-maximized="1"
     inkscape:current-layer="svg6492" />
  <defs
     id="defs6462">
    <linearGradient
       id="linearGradient1"
       inkscape:collect="always">
      <stop
         style="stop-color:#ff94ff;stop-opacity:1;"
         offset="0"
         id="stop1" />
      <stop
         style="stop-color:#00ccff;stop-opacity:1"
         offset="1"
         id="stop2" />
    </linearGradient>
    <linearGradient
       id="a"
       x1="543.79999"
       x2="503.79999"
       gradientUnits="userSpaceOnUse"
       gradientTransform="matrix(0,1,-1.16667,0,-371.2088,-545.25371)">
      <stop
         stop-color="#197cf1"
         id="stop6427" />
      <stop
         offset="1"
         stop-color="#21c9fb"
         id="stop6429" />
    </linearGradient>
    <linearGradient
       id="b"
       y1="547.79999"
       x1="384.57001"
       y2="530.47998"
       x2="394.57001"
       gradientUnits="userSpaceOnUse"
       gradientTransform="translate(-303.1088,-545.25371)">
      <stop
         stop-color="#ffffff"
         stop-opacity="0"
         id="stop6432" />
      <stop
         offset="1"
         stop-color="#ffffff"
         stop-opacity=".314"
         id="stop6434" />
    </linearGradient>
    <linearGradient
       id="c"
       x1="384.57001"
       x2="414.57001"
       gradientUnits="userSpaceOnUse"
       gradientTransform="translate(-303.1088,-545.25371)">
      <stop
         stop-opacity=".275"
         id="stop6437" />
      <stop
         offset="1"
         stop-color="#ffffff"
         stop-opacity="0"
         id="stop6439" />
    </linearGradient>
    <linearGradient
       id="d"
       y1="547.79999"
       x1="432.57001"
       y2="527.79999"
       x2="421.01999"
       gradientUnits="userSpaceOnUse"
       gradientTransform="translate(-303.1088,-545.25371)">
      <stop
         stop-opacity=".082"
         id="stop6442" />
      <stop
         offset="1"
         stop-opacity="0"
         id="stop6444" />
    </linearGradient>
    <linearGradient
       id="e"
       y1="44"
       y2="20"
       x2="0"
       gradientUnits="userSpaceOnUse"
       gradientTransform="translate(81.461202,-45.453707)">
      <stop
         stop-color="#eef1f2"
         id="stop6447" />
      <stop
         offset="1"
         stop-color="#f9fafb"
         id="stop6449" />
    </linearGradient>
    <linearGradient
       id="f"
       y1="511.79999"
       x1="414.57001"
       y2="519.79999"
       x2="422.57001"
       gradientUnits="userSpaceOnUse"
       gradientTransform="translate(-336.03651,-549.25371)">
      <stop
         stop-color="#292c2f"
         id="stop6452" />
      <stop
         offset="1"
         stop-opacity="0"
         id="stop6454" />
    </linearGradient>
    <linearGradient
       id="g"
       y1="527.79999"
       y2="511.79999"
       x2="0"
       gradientUnits="userSpaceOnUse"
       gradientTransform="translate(-443.17516,-537.24971)">
      <stop
         stop-color="#7cbaf8"
         id="stop6457" />
      <stop
         offset="1"
         stop-color="#f4fcff"
         id="stop6459" />
    </linearGradient>
    <linearGradient
       inkscape:collect="always"
       xlink:href="#b-5"
       id="linearGradient1095"
       gradientUnits="userSpaceOnUse"
       gradientTransform="matrix(1.445657,0,0,1.445657,-504.70411,-730.10818)"
       x1="399.57001"
       y1="545.79999"
       x2="399.57001"
       y2="517.79999" />
    <linearGradient
       id="b-5"
       x1="399.57001"
       x2="399.57001"
       y1="545.79999"
       y2="517.79999"
       gradientTransform="matrix(2.1429,0,0,2.1429,-826.34,-1107.5)"
       gradientUnits="userSpaceOnUse">
      <stop
         id="stop7"
         stop-color="#3889e9"
         offset="0" />
      <stop
         id="stop9"
         stop-color="#5ea5fb"
         offset="1" />
    </linearGradient>
    <linearGradient
       gradientUnits="userSpaceOnUse"
       gradientTransform="matrix(0.29999835,0,0,0.29999835,-102.81483,2.0000887)"
       y2="209.87"
       y1="-9.0071001"
       x2="97.425003"
       x1="97.425003"
       id="b-3">
      <stop
         id="stop859"
         offset="0"
         stop-color="#5beaff" />
      <stop
         id="stop861"
         offset="1"
         stop-color="#4076ff" />
    </linearGradient>
    <linearGradient
       id="g-9"
       y1="527.79999"
       y2="511.79999"
       x2="0"
       gradientUnits="userSpaceOnUse"
       gradientTransform="translate(-384.82526,-502.97551)">
      <stop
         stop-color="#7cbaf8"
         id="stop6457-4" />
      <stop
         offset="1"
         stop-color="#f4fcff"
         id="stop6459-9" />
    </linearGradient>
    <linearGradient
       id="b-3-3"
       y1="44"
       y2="4"
       x2="0"
       gradientUnits="userSpaceOnUse">
      <stop
         stop-color="#7cbaf8"
         id="stop7-6" />
      <stop
         offset="1"
         stop-color="#f4fcff"
         id="stop9-7" />
    </linearGradient>
    <linearGradient
       id="c-5"
       y1="39"
       y2="9"
       x2="0"
       gradientUnits="userSpaceOnUse"
       gradientTransform="matrix(1.02857,0,0,1.2,-5.314,-4.8)">
      <stop
         stop-color="#197cf1"
         id="stop12-3" />
      <stop
         offset="1"
         stop-color="#20bcfa"
         id="stop14-5" />
    </linearGradient>
    <linearGradient
       id="a-6"
       y1="1016.36"
       x1="13"
       y2="1040.36"
       gradientUnits="userSpaceOnUse"
       x2="36">
      <stop
         stop-color="#292c2f"
         id="stop2-2" />
      <stop
         offset="1"
         stop-opacity="0"
         id="stop4-9" />
    </linearGradient>
    <linearGradient
       id="b-3-36"
       y1="44"
       y2="4"
       x2="0"
       gradientUnits="userSpaceOnUse"
       gradientTransform="matrix(1.05,0,0,1.05,2.8000076,2.8000057)">
      <stop
         stop-color="#7cbaf8"
         id="stop7-6-7" />
      <stop
         offset="1"
         stop-color="#f4fcff"
         id="stop9-7-5" />
    </linearGradient>
    <linearGradient
       inkscape:collect="always"
       xlink:href="#linearGradient1"
       id="linearGradient2"
       x1="3.9748929"
       y1="11.480467"
       x2="15.005786"
       y2="2.6157725"
       gradientUnits="userSpaceOnUse"
       gradientTransform="matrix(0.93749984,0,0,0.85714283,2.5000025,2.1428572)" />
    <linearGradient
       inkscape:collect="always"
       xlink:href="#linearGradient1"
       id="linearGradient4"
       x1="7.1817846"
       y1="6.8266325"
       x2="7.9502759"
       y2="2.9328284"
       gradientUnits="userSpaceOnUse"
       gradientTransform="matrix(0.93749984,0,0,0.85714283,2.5000025,2.1428572)" />
  </defs>
  <circle
     id="circle54-9"
     stroke-width="1.06018"
     fill="url(#b)"
     r="0"
     cy="38.627277"
     cx="74.366203"
     style="fill:url(#linearGradient1095)" />
  <circle
     id="circle866"
     stroke-width="0.674631"
     r="0"
     cy="-839.65723"
     cx="-876.8772"
     style="fill:#5e4aa6" />
  <circle
     id="circle868"
     r="0"
     cy="-866.14307"
     cx="-796.98431"
     style="fill:#5e4aa6;stroke-width:0.674631" />
  <circle
     id="circle870"
     fill-rule="evenodd"
     r="0"
     cy="-12.409245"
     cx="-55.206669"
     style="fill:#5e4aa6;stroke-width:0.674631" />
  <circle
     id="circle872"
     r="0"
     cy="-914.38568"
     cx="-744.0246"
     style="fill:#5e4aa6;stroke-width:0.674631" />
  <circle
     id="circle874"
     fill-rule="evenodd"
     r="0"
     cy="-60.627094"
     cx="-2.2489548"
     style="fill:#5e4aa6;stroke-width:0.674631" />
  <circle
     id="circle878"
     r="0"
     cy="-850.61078"
     cx="-817.04004"
     style="fill:#5e4aa6;stroke-width:0.674631;image-rendering:optimizeSpeed" />
  <circle
     id="circle880"
     r="0"
     cy="-850.61078"
     cx="-817.04004"
     style="fill:#5e4aa6;stroke-width:0.674631;image-rendering:optimizeSpeed" />
  <circle
     id="circle882"
     r="0"
     cy="-872.19897"
     cx="-873.84399"
     style="fill:#5e4aa6;stroke-width:0.674631;image-rendering:optimizeSpeed" />
  <circle
     id="circle884"
     r="0"
     cy="-865.25031"
     cx="-793.29309"
     style="fill:#5e4aa6;stroke-width:0.674631;image-rendering:optimizeSpeed" />
  <circle
     id="circle886"
     r="0"
     cy="-891.76263"
     cx="-713.38025"
     style="fill:#5e4aa6;stroke-width:0.674636;image-rendering:optimizeSpeed" />
  <circle
     id="circle888"
     fill-rule="evenodd"
     r="0"
     cy="-38.023201"
     cx="28.402266"
     style="fill:#5e4aa6;stroke-width:0.674636;image-rendering:optimizeSpeed" />
  <circle
     id="circle890"
     r="0"
     cy="-940.00555"
     cx="-660.42017"
     style="fill:#5e4aa6;stroke-width:0.674636;image-rendering:optimizeSpeed" />
  <circle
     id="circle892"
     fill-rule="evenodd"
     r="0"
     cy="-86.241364"
     cx="81.360321"
     style="fill:#5e4aa6;stroke-width:0.674636;image-rendering:optimizeSpeed" />
  <path
     d="m 4.9007811,12.635998 c -0.1829059,-0.180079 -0.1829059,-0.472377 0,-0.652422 l 1.3259064,-1.305455 c 0.1829874,-0.180717 0.4797391,-0.180717 0.6627291,0 0.1829898,0.180053 0.1829898,0.47234 0,0.652397 L 5.563511,12.635997 c -0.1830184,0.180221 -0.4797416,0.180221 -0.6627299,1e-6 z m 9.5358709,0 -1.325913,-1.30548 c -0.182845,-0.180058 -0.182845,-0.472344 0,-0.652397 0.183116,-0.180717 0.479711,-0.180717 0.662848,0 l 1.325949,1.305455 c 0.182813,0.180045 0.182813,0.472343 0,0.652422 -0.183138,0.180221 -0.479807,0.180221 -0.662884,0 z m 2.52411,-6.9457737 -5.634809,5.0863777 c -0.732224,0.720926 -1.9194303,0.720926 -2.6517172,0 L 5.3681269,7.5214092 5.1567814,7.3134384 4.2539843,6.4244246 l -0.00365,0.0012 C 4.1648098,6.3203967 4.0429048,6.2307187 3.906265,6.2307187 c -0.2590774,0 -0.4688737,0.206675 -0.4688737,0.4615242 V 7.9925003 8.5387444 13.1535 c 0,0.510186 0.4196513,0.923186 0.9376277,0.923186 h 11.249765 c 0.517965,0 0.937441,-0.413 0.937441,-0.923186 V 7.6154946 c 0,-0.2551078 0.209919,-0.4615241 0.469027,-0.4615241 0.258893,0 0.468751,0.2064439 0.468751,0.4615241 v 5.5380064 c 0,1.019672 -0.839786,1.8465 -1.875219,1.8465 H 4.3752293 C 3.3396616,14.999966 2.5000024,14.17314 2.5000024,13.153475 V 6.6922429 c 0,-0.7643993 0.6298905,-1.3841424 1.4064756,-1.3841424 0.3618762,0 0.6884816,0.1629459 0.9375923,0.3993642 v -0.0078 l 4.4932928,4.4240793 c 0.365894,0.360827 0.9594839,0.360827 1.3254619,0 L 16.29735,5.0373421 C 16.480954,4.8572848 16.569034,4.62087 16.56793,4.3849437 h -0.0062 c 1.29e-4,-0.509957 -0.419351,-0.461525 -0.937334,-0.461525 H 5.7813255 c -0.2585194,0 -0.4688438,-0.2066453 -0.4688438,-0.4617531 0,-0.2548491 0.2103244,-0.4615259 0.4688438,-0.4615259 h 9.8437275 c 0.859904,0 1.583364,0.2535222 1.804035,0.9232531 v 0 c 0.159949,0.6123252 0.01855,1.2878824 -0.468284,1.7669729 z M 3.9065196,3.9232792 C 3.6474424,3.9232792 3.4376465,3.7166311 3.4376465,3.461526 3.4376465,3.2066786 3.6474424,3 3.9065196,3 4.1655064,3 4.375274,3.2066485 4.375274,3.461526 c 0,0.2551051 -0.2097676,0.4617532 -0.4687544,0.4617532 z"
     id="path2-3"
     style="fill:url(#linearGradient2);fill-opacity:1;stroke-width:0.0290708" />
  <path
     d="M 9.1734763,6.705662 H 8.2855475 A 0.05943953,0.05377056 0 0 1 8.2389005,6.618551 L 9.9533846,4.6567119 a 0.05943953,0.05377056 0 0 1 0.093256,0 l 1.714458,1.9618378 a 0.05943953,0.05377056 0 0 1 -0.0466,0.087112 h -0.887941 a 0.05943953,0.05377056 0 0 0 -0.05942,0.053768 v 2.469659 a 0.05943953,0.05377056 0 0 1 -0.0594,0.053773 H 9.2923485 a 0.05943953,0.05377056 0 0 1 -0.059423,-0.053776 v -2.469658 a 0.05943953,0.05377056 0 0 0 -0.05945,-0.053775 z"
     stroke="none"
     id="path2-6"
     style="color:#d6dbf1;fill:url(#linearGradient4);fill-opacity:1;stroke-width:0.529872"
     class="ColorScheme-Text" />
</svg>
