<?xml version="1.0" encoding="UTF-8" standalone="no"?>
<!-- Generator: Gravit.io -->

<svg
   style="isolation:isolate"
   viewBox="0 0 16 16"
   width="16pt"
   height="16pt"
   version="1.1"
   id="svg8"
   sodipodi:docname="nvim.svg"
   inkscape:version="1.3.1 (91b66b0783, 2023-11-16)"
   xmlns:inkscape="http://www.inkscape.org/namespaces/inkscape"
   xmlns:sodipodi="http://sodipodi.sourceforge.net/DTD/sodipodi-0.dtd"
   xmlns="http://www.w3.org/2000/svg"
   xmlns:svg="http://www.w3.org/2000/svg">
  <defs
     id="defs8" />
  <sodipodi:namedview
     id="namedview8"
     pagecolor="#ffffff"
     bordercolor="#000000"
     borderopacity="0.25"
     inkscape:showpageshadow="2"
     inkscape:pageopacity="0.0"
     inkscape:pagecheckerboard="0"
     inkscape:deskcolor="#d1d1d1"
     inkscape:document-units="pt"
     inkscape:zoom="5.9921875"
     inkscape:cx="63.249022"
     inkscape:cy="38.967405"
     inkscape:window-width="1920"
     inkscape:window-height="994"
     inkscape:window-x="0"
     inkscape:window-y="0"
     inkscape:window-maximized="1"
     inkscape:current-layer="svg8" />
  <linearGradient
     id="_lgradient_0"
     x1="0.2"
     y1="0.83749998"
     x2="1.0904868"
     y2="0.023340708"
     gradientTransform="matrix(1.7801896,0,0,7.1207583,4.7957457,4.4396086)"
     gradientUnits="userSpaceOnUse">
    <stop
       offset="0%"
       stop-opacity="1"
       style="stop-color:rgb(84,51,255)"
       id="stop1" />
    <stop
       offset="51.73913043478261%"
       stop-opacity="1"
       style="stop-color:rgb(32,189,255)"
       id="stop2" />
    <stop
       offset="98.26086956521739%"
       stop-opacity="1"
       style="stop-color:rgb(165,254,203)"
       id="stop3" />
  </linearGradient>
  <path
     d="M 4.7962874,5.6857143 6.5759353,4.4396086 V 11.560367 L 4.7957457,10.314261 Z"
     fill="url(#_lgradient_0)"
     id="path3"
     style="fill:url(#_lgradient_0);stroke-width:0.270834" />
  <linearGradient
     id="_lgradient_1"
     x1="0"
     y1="0.5"
     x2="1"
     y2="0.5"
     gradientTransform="matrix(6.0628821,0,0,7.1207583,5.1413294,4.4396086)"
     gradientUnits="userSpaceOnUse">
    <stop
       offset="0%"
       stop-opacity="1"
       style="stop-color:rgb(67,233,123)"
       id="stop4" />
    <stop
       offset="97.82608695652173%"
       stop-opacity="1"
       style="stop-color:rgb(56,249,215)"
       id="stop5" />
  </linearGradient>
  <path
     d="M 9.424022,8.5075301 V 4.4396086 l 1.78019,1.2461057 V 10.314261 L 9.424022,11.560367 5.1413295,5.4441307 6.5759353,4.4396086 Z"
     fill-rule="evenodd"
     fill="url(#_lgradient_1)"
     id="path5"
     style="fill:url(#_lgradient_1);stroke-width:0.270834" />
  <linearGradient
     id="_lgradient_2"
     x1="0.071553186"
     y1="0.74391294"
     x2="0.99873358"
     y2="0.49568295"
     gradientTransform="matrix(13.000015,0,0,13.000015,1.499971,1.4999802)"
     gradientUnits="userSpaceOnUse">
    <stop
       offset="0%"
       stop-opacity="1"
       style="stop-color:rgb(84,51,255)"
       id="stop6" />
    <stop
       offset="51.73913043478261%"
       stop-opacity="1"
       style="stop-color:rgb(32,189,255)"
       id="stop7" />
    <stop
       offset="98.26086956521739%"
       stop-opacity="1"
       style="stop-color:rgb(165,254,203)"
       id="stop8" />
  </linearGradient>
  <path
     d="m 10.67744,12.652369 v 0 c 0.270563,-0.154646 0.61723,-0.06094 0.773501,0.208812 v 0 c 0.156271,0.269751 0.06338,0.615876 -0.207459,0.771876 v 0 c -1.05273,0.606126 -2.2533355,0.904585 -3.4650453,0.863147 -1.0987721,-0.03738 -2.1710025,-0.35398 -3.1159411,-0.917855 v 0 C 4.3949119,13.418015 4.3079743,13.070265 4.4683078,12.802681 v 0 c 0.1606044,-0.267583 0.508084,-0.354521 0.7759385,-0.194188 v 0 c 0.7786467,0.46773 1.6631894,0.726918 2.5726488,0.758064 1.002897,0.03412 1.9922524,-0.212063 2.8605449,-0.714188 z m 2.129294,-7.047634 v 0 C 12.666442,5.3252347 12.77938,4.9850676 13.05888,4.8455883 v 0 c 0.2795,-0.1394793 0.618855,-0.026 0.757793,0.2535003 v 0 c 0.48425,0.9666053 0.716355,2.0407316 0.679521,3.1224412 -0.02817,0.8246885 -0.21125,1.6355644 -0.54248,2.3879402 v 0 c -0.125125,0.286 -0.459063,0.416542 -0.745063,0.291146 v 0 c -0.286,-0.125125 -0.416542,-0.459063 -0.291146,-0.745063 v 0 c 0.275708,-0.6212925 0.42575,-1.2918766 0.448771,-1.9724816 0.0306,-0.8926677 -0.1625,-1.7785646 -0.559542,-2.5783364 z M 5.6737884,3.1615446 v 0 C 5.3929339,3.2956073 5.0549335,3.1764405 4.9192459,2.895586 v 0 C 4.783829,2.6147315 4.9016417,2.2764603 5.1824962,2.1410434 v 0 C 6.1282473,1.6868554 7.170686,1.4680218 8.2215206,1.5037718 9.2325426,1.5381677 10.224606,1.8068347 11.11267,2.2924394 v 0 c 0.274354,0.149771 0.375375,0.4940006 0.225604,0.7683551 v 0 c -0.149771,0.2740837 -0.494,0.3751046 -0.768355,0.2253336 v 0 C 9.8370433,2.8850235 9.0188549,2.6621274 8.1830622,2.633419 7.3158529,2.6038981 6.4556852,2.7840025 5.6737884,3.1615446 Z M 2.9055977,9.7038024 v 0 C 3.0049937,9.999011 2.8452017,10.319407 2.5491806,10.418532 v 0 C 2.2531594,10.517657 1.9322215,10.357053 1.8330964,10.06049 v 0 C 1.5896169,9.3254477 1.4774918,8.5524885 1.5037627,7.7784459 1.5387002,6.7560489 1.8130547,5.7531519 2.3103053,4.8566925 v 0 C 2.4600763,4.583963 2.8034934,4.4853795 3.0770354,4.6367755 v 0 c 0.273542,0.1513961 0.3726671,0.4956256 0.2212711,0.7683551 v 0 C 2.8885351,6.1461315 2.662389,6.972445 2.6334098,7.8169043 2.6117431,8.4582384 2.7030141,9.0946975 2.9055977,9.7038024 Z M 12.865234,3.8930663 c -0.01083,0.3120004 -0.272459,0.5562924 -0.584188,0.5457298 -0.31173,-0.010562 -0.556293,-0.2724586 -0.54573,-0.5841881 0.01056,-0.3117296 0.272459,-0.5562924 0.584188,-0.545459 0.31173,0.010563 0.556292,0.2721878 0.54573,0.5839173 z M 4.0355157,11.727472 c -0.010563,0.311729 -0.2721879,0.556292 -0.5839174,0.545729 -0.3120004,-0.01083 -0.5562923,-0.272458 -0.5457298,-0.584188 0.010563,-0.31173 0.2724587,-0.556292 0.5841882,-0.54573 0.3117295,0.01056 0.5562923,0.272459 0.545459,0.584189 z m 9.0482813,0.308479 c 0.01056,-0.311729 -0.234001,-0.573355 -0.54573,-0.584188 -0.31173,-0.01056 -0.573355,0.234 -0.584188,0.54573 -0.01056,0.311729 0.234,0.573625 0.545729,0.584188 0.31173,0.01056 0.573626,-0.234 0.584189,-0.54573 z M 4.4425786,3.6059827 C 4.4531412,3.2942531 4.2088492,3.032357 3.8971197,3.0217945 3.5851193,3.011232 3.323494,3.2557947 3.3129315,3.5675243 3.3020981,3.8792538 3.5466609,4.1408791 3.8583905,4.1517125 4.1703908,4.162275 4.4320161,3.9177122 4.4425786,3.6059827 Z"
     fill-rule="evenodd"
     fill="url(#_lgradient_2)"
     id="path8"
     style="fill:url(#_lgradient_2);stroke-width:0.270834" />
</svg>
