<?xml version="1.0" encoding="UTF-8" standalone="no"?>
<svg
   width="16"
   height="16"
   viewBox="0 0 16 16"
   fill="none"
   version="1.1"
   id="svg13"
   sodipodi:docname="net.davidotek.pupgui2.svg"
   inkscape:version="1.3.2 (091e20ef0f, 2023-11-25)"
   xmlns:inkscape="http://www.inkscape.org/namespaces/inkscape"
   xmlns:sodipodi="http://sodipodi.sourceforge.net/DTD/sodipodi-0.dtd"
   xmlns:xlink="http://www.w3.org/1999/xlink"
   xmlns="http://www.w3.org/2000/svg"
   xmlns:svg="http://www.w3.org/2000/svg">
  <sodipodi:namedview
     id="namedview13"
     pagecolor="#ffffff"
     bordercolor="#000000"
     borderopacity="0.25"
     inkscape:showpageshadow="2"
     inkscape:pageopacity="0.0"
     inkscape:pagecheckerboard="0"
     inkscape:deskcolor="#d1d1d1"
     inkscape:zoom="11.984375"
     inkscape:cx="11.848761"
     inkscape:cy="5.8826597"
     inkscape:window-width="1920"
     inkscape:window-height="994"
     inkscape:window-x="0"
     inkscape:window-y="0"
     inkscape:window-maximized="1"
     inkscape:current-layer="svg13" />
  <defs
     id="defs13">
    <linearGradient
       id="linearGradient14"
       inkscape:collect="always">
      <stop
         style="stop-color:#9955ff;stop-opacity:1"
         offset="0"
         id="stop14" />
      <stop
         style="stop-color:#00c7c7;stop-opacity:1;"
         offset="1"
         id="stop15" />
    </linearGradient>
    <linearGradient
       id="paint0_linear_730_49"
       x1="64"
       y1="11"
       x2="52.939602"
       y2="115.833"
       gradientUnits="userSpaceOnUse"
       gradientTransform="translate(-115.59,-11.681877)">
      <stop
         stop-color="#A6FF70"
         id="stop2" />
      <stop
         offset="0.752309"
         stop-color="#FF913B"
         id="stop3" />
      <stop
         offset="1"
         stop-color="#FE3E02"
         id="stop4" />
    </linearGradient>
    <linearGradient
       id="paint1_linear_730_49"
       x1="64"
       y1="11"
       x2="52.939602"
       y2="115.833"
       gradientUnits="userSpaceOnUse"
       gradientTransform="translate(-115.59,-11.681877)">
      <stop
         stop-color="#A6FF70"
         id="stop5" />
      <stop
         offset="0.752309"
         stop-color="#FF913B"
         id="stop6" />
      <stop
         offset="1"
         stop-color="#FE3E02"
         id="stop7" />
    </linearGradient>
    <linearGradient
       id="paint2_linear_730_49"
       x1="64"
       y1="38"
       x2="58.884499"
       y2="89.855904"
       gradientUnits="userSpaceOnUse"
       gradientTransform="translate(-10.51369,-70.258149)">
      <stop
         stop-color="#A6FF70"
         id="stop8" />
      <stop
         offset="0.752309"
         stop-color="#FF913B"
         id="stop9" />
      <stop
         offset="1"
         stop-color="#FE3E02"
         id="stop10" />
    </linearGradient>
    <linearGradient
       id="paint3_linear_730_49"
       x1="64"
       y1="38"
       x2="58.884499"
       y2="89.855904"
       gradientUnits="userSpaceOnUse">
      <stop
         stop-color="#A6FF70"
         id="stop11" />
      <stop
         offset="0.752309"
         stop-color="#FF913B"
         id="stop12" />
      <stop
         offset="1"
         stop-color="#FE3E02"
         id="stop13" />
    </linearGradient>
    <linearGradient
       id="_lgradient_2"
       x1="0.071553186"
       y1="0.74391294"
       x2="0.99873358"
       y2="0.49568295"
       gradientTransform="matrix(13.000019,0,0,13.000019,1.4999713,1.49998)"
       gradientUnits="userSpaceOnUse">
      <stop
         offset="0%"
         stop-opacity="1"
         style="stop-color:rgb(84,51,255)"
         id="stop6-0" />
      <stop
         offset="51.73913043478261%"
         stop-opacity="1"
         style="stop-color:rgb(32,189,255)"
         id="stop7-6" />
      <stop
         offset="98.26086956521739%"
         stop-opacity="1"
         style="stop-color:rgb(165,254,203)"
         id="stop8-8" />
    </linearGradient>
    <linearGradient
       inkscape:collect="always"
       xlink:href="#linearGradient14"
       id="linearGradient15"
       x1="3.7444291"
       y1="7.2238591"
       x2="12.255571"
       y2="7.2238591"
       gradientUnits="userSpaceOnUse" />
  </defs>
  <path
     d="m 10.677438,12.652372 v 0 c 0.270565,-0.15465 0.617234,-0.06091 0.773501,0.208811 v 0 c 0.156273,0.269751 0.06337,0.615878 -0.207454,0.771878 v 0 C 10.190751,14.239186 8.9901509,14.537639 7.7784348,14.496204 6.6796659,14.458822 5.6074352,14.142221 4.6624961,13.578352 v 0 C 4.3949125,13.418017 4.307975,13.070267 4.468309,12.802682 v 0 C 4.628913,12.5351 4.9763925,12.44816 5.2442473,12.608493 v 0 c 0.7786464,0.467728 1.663188,0.726918 2.5726511,0.758068 1.0028935,0.03412 1.9922535,-0.212067 2.8605396,-0.714189 z m 2.129297,-7.0476373 v 0 c -0.140293,-0.2795001 -0.02736,-0.619667 0.252148,-0.7591465 v 0 c 0.2795,-0.1394795 0.618854,-0.026 0.75779,0.2535003 v 0 c 0.48425,0.9666052 0.716355,2.0407321 0.679521,3.1224416 -0.02817,0.8246888 -0.21125,1.635565 -0.542477,2.3879409 v 0 c -0.125124,0.286 -0.45906,0.416542 -0.745061,0.291146 v 0 C 12.922657,10.775492 12.79211,10.441553 12.917504,10.155553 v 0 c 0.27571,-0.6212916 0.425751,-1.2918761 0.448771,-1.972481 0.0306,-0.8926679 -0.1625,-1.7785652 -0.55954,-2.5783373 z M 5.6737896,3.1615445 v 0 C 5.392935,3.2956071 5.0549345,3.1764395 4.9192467,2.8955855 v 0 C 4.7838297,2.6147308 4.9016437,2.2764599 5.1824971,2.1410431 v 0 c 0.945751,-0.4541878 1.988187,-0.6730212 3.0390207,-0.6372713 1.0110251,0.03439 2.0030912,0.3030622 2.8911542,0.7886667 v 0 c 0.274349,0.1497717 0.375375,0.4940008 0.2256,0.768356 v 0 c -0.149769,0.2740835 -0.494,0.3751044 -0.768349,0.2253334 v 0 C 9.8370439,2.885023 9.0188599,2.6621273 8.1830652,2.6334189 7.3158565,2.6038978 6.4556862,2.7840024 5.6737896,3.1615445 Z M 2.9055982,9.7038028 v 0 c 0.099397,0.2952089 -0.060396,0.6156042 -0.3564173,0.7147302 v 0 c -0.2960207,0.09913 -0.6169593,-0.06148 -0.7160844,-0.358042 v 0 C 1.5896176,9.3254481 1.4774924,8.552489 1.5037633,7.7784465 1.5387002,6.7560494 1.8130547,5.7531516 2.3103054,4.8566926 v 0 C 2.4600768,4.5839629 2.8034944,4.4853794 3.0770361,4.6367756 v 0 C 3.350578,4.7881715 3.4497029,5.1324013 3.298307,5.4051305 v 0 C 2.8885361,6.1461315 2.6623895,6.9724453 2.6334107,7.8169045 2.6117437,8.458239 2.7030141,9.0946979 2.9055982,9.7038028 Z M 12.865234,3.8930661 c -0.01087,0.3120005 -0.27246,0.5562925 -0.584186,0.5457299 -0.311727,-0.010562 -0.556295,-0.2724586 -0.545727,-0.5841882 0.01059,-0.3117296 0.272453,-0.5562924 0.584183,-0.545459 0.31173,0.010564 0.556294,0.2721878 0.54573,0.5839173 z M 4.0355167,11.727472 C 4.0249535,12.0392 3.7633281,12.283766 3.4515991,12.2732 3.1395985,12.262372 2.8953064,12.000743 2.9058695,11.689014 c 0.010563,-0.31173 0.2724583,-0.556292 0.5841879,-0.54573 0.3117296,0.01056 0.5562926,0.272459 0.5454593,0.584188 z m 9.0482823,0.308478 c 0.0106,-0.311727 -0.234001,-0.573353 -0.545726,-0.584186 -0.311732,-0.01056 -0.57336,0.234 -0.584192,0.54573 -0.01061,0.311728 0.234,0.573627 0.545728,0.584188 0.311733,0.01058 0.573626,-0.234001 0.58419,-0.545732 z M 4.4425793,3.6059824 C 4.453143,3.2942529 4.2088499,3.0323566 3.8971201,3.0217946 3.5851196,3.0112316 3.3234945,3.2557945 3.3129321,3.5675241 3.3020971,3.8792536 3.5466617,4.140879 3.8583914,4.1517123 4.1703919,4.1622749 4.4320173,3.917712 4.4425793,3.6059824 Z"
     fill-rule="evenodd"
     fill="url(#_lgradient_2)"
     id="path8"
     style="isolation:isolate;fill:url(#_lgradient_2);stroke-width:0.270837" />
  <path
     d="M 9.4682926,9.1741232 12.255571,10.134914 C 10.376308,7.3534702 7.9995137,4.1238592 7.9995137,4.1238592 c 0,0 -2.3757034,3.230223 -4.2550846,6.0110548 L 6.5306113,9.1741232 7.9999998,10.323859 Z"
     id="path1"
     style="fill:url(#linearGradient15);fill-opacity:1;stroke-width:0.12159" />
</svg>
