<?xml version="1.0" encoding="UTF-8" standalone="no"?>
<svg
   style="isolation:isolate"
   width="16"
   height="16"
   viewBox="0 0 16 16"
   version="1.1"
   id="svg22"
   sodipodi:docname="nulloy.svg"
   inkscape:version="1.3 (0e150ed6c4, 2023-07-21)"
   xmlns:inkscape="http://www.inkscape.org/namespaces/inkscape"
   xmlns:sodipodi="http://sodipodi.sourceforge.net/DTD/sodipodi-0.dtd"
   xmlns:xlink="http://www.w3.org/1999/xlink"
   xmlns="http://www.w3.org/2000/svg"
   xmlns:svg="http://www.w3.org/2000/svg">
  <sodipodi:namedview
     id="namedview22"
     pagecolor="#ffffff"
     bordercolor="#000000"
     borderopacity="0.25"
     inkscape:showpageshadow="2"
     inkscape:pageopacity="0.0"
     inkscape:pagecheckerboard="0"
     inkscape:deskcolor="#d1d1d1"
     inkscape:zoom="23.96875"
     inkscape:cx="8.5945241"
     inkscape:cy="7.7809648"
     inkscape:window-width="1920"
     inkscape:window-height="994"
     inkscape:window-x="0"
     inkscape:window-y="0"
     inkscape:window-maximized="1"
     inkscape:current-layer="svg22" />
  <defs
     id="defs22">
    <linearGradient
       id="linearGradient22"
       inkscape:collect="always">
      <stop
         style="stop-color:#c779da;stop-opacity:1;"
         offset="0"
         id="stop23" />
      <stop
         style="stop-color:#0086a7;stop-opacity:1;"
         offset="1"
         id="stop24" />
    </linearGradient>
    <style
       id="current-color-scheme"
       type="text/css">&#10;   .ColorScheme-Text { color:#d5c289; } .ColorScheme-Highlight { color:#5294e2; }&#10;  </style>
    <linearGradient
       id="arrongin"
       x1="0%"
       x2="0%"
       y1="0%"
       y2="100%">
      <stop
         offset="0%"
         style="stop-color:#dd9b44; stop-opacity:1"
         id="stop1" />
      <stop
         offset="100%"
         style="stop-color:#ad6c16; stop-opacity:1"
         id="stop2" />
    </linearGradient>
    <linearGradient
       id="aurora"
       x1="0%"
       x2="0%"
       y1="0%"
       y2="100%">
      <stop
         offset="0%"
         style="stop-color:#09D4DF; stop-opacity:1"
         id="stop3" />
      <stop
         offset="100%"
         style="stop-color:#9269F4; stop-opacity:1"
         id="stop4" />
    </linearGradient>
    <linearGradient
       id="fitdance"
       x1="0%"
       x2="0%"
       y1="0%"
       y2="100%">
      <stop
         offset="0%"
         style="stop-color:#1AD6AB; stop-opacity:1"
         id="stop5" />
      <stop
         offset="100%"
         style="stop-color:#329DB6; stop-opacity:1"
         id="stop6" />
    </linearGradient>
    <linearGradient
       id="oomox"
       x1="0"
       x2="0"
       y1="0.14938829"
       y2="16.000697"
       gradientTransform="matrix(0.83589344,0,0,0.82012154,1.375,1.3774835)"
       gradientUnits="userSpaceOnUse">
      <stop
         offset="0%"
         style="stop-color:#303b3d; stop-opacity:1"
         id="stop7" />
      <stop
         offset="100%"
         style="stop-color:#bc985d; stop-opacity:1"
         id="stop8" />
    </linearGradient>
    <linearGradient
       id="rainblue"
       x1="0%"
       x2="0%"
       y1="0%"
       y2="100%">
      <stop
         offset="0%"
         style="stop-color:#00F260; stop-opacity:1"
         id="stop9" />
      <stop
         offset="100%"
         style="stop-color:#0575E6; stop-opacity:1"
         id="stop10" />
    </linearGradient>
    <linearGradient
       id="sunrise"
       x1="0%"
       x2="0%"
       y1="0%"
       y2="100%">
      <stop
         offset="0%"
         style="stop-color: #FF8501; stop-opacity:1"
         id="stop11" />
      <stop
         offset="100%"
         style="stop-color: #FFCB01; stop-opacity:1"
         id="stop12" />
    </linearGradient>
    <linearGradient
       id="telinkrin"
       x1="0%"
       x2="0%"
       y1="0%"
       y2="100%">
      <stop
         offset="0%"
         style="stop-color: #b2ced6; stop-opacity:1"
         id="stop13" />
      <stop
         offset="100%"
         style="stop-color: #6da5b7; stop-opacity:1"
         id="stop14" />
    </linearGradient>
    <linearGradient
       id="60spsycho"
       x1="0%"
       x2="0%"
       y1="0%"
       y2="100%">
      <stop
         offset="0%"
         style="stop-color: #df5940; stop-opacity:1"
         id="stop15" />
      <stop
         offset="25%"
         style="stop-color: #d8d15f; stop-opacity:1"
         id="stop16" />
      <stop
         offset="50%"
         style="stop-color: #e9882a; stop-opacity:1"
         id="stop17" />
      <stop
         offset="100%"
         style="stop-color: #279362; stop-opacity:1"
         id="stop18" />
    </linearGradient>
    <linearGradient
       id="90ssummer"
       x1="0%"
       x2="0%"
       y1="0%"
       y2="100%">
      <stop
         offset="0%"
         style="stop-color: #f618c7; stop-opacity:1"
         id="stop19" />
      <stop
         offset="20%"
         style="stop-color: #94ffab; stop-opacity:1"
         id="stop20" />
      <stop
         offset="50%"
         style="stop-color: #fbfd54; stop-opacity:1"
         id="stop21" />
      <stop
         offset="100%"
         style="stop-color: #0f83ae; stop-opacity:1"
         id="stop22" />
    </linearGradient>
    <linearGradient
       inkscape:collect="always"
       xlink:href="#linearGradient22"
       id="linearGradient24"
       x1="4.0451431"
       y1="4.0867014"
       x2="14.625"
       y2="11.880053"
       gradientUnits="userSpaceOnUse" />
  </defs>
  <path
     class="ColorScheme-Text"
     d="m 1.3998438,1.5 0.01325,0.086921 C 1.725297,3.6539735 1.9025158,5.1200333 2.135219,6.1564569 2.3670941,7.1928805 2.6561095,7.8096028 3.1985319,8.1514903 3.7401258,8.4933778 4.5119388,8.5215235 5.6994699,8.4834436 6.8870016,8.4461925 8.4943929,8.3410599 10.711282,8.2731786 l 0.0712,-0.00166 -0.0099,-0.069534 C 10.56388,6.6134106 10.494316,5.5132454 10.352707,4.7201983 10.211923,3.92798 9.9908133,3.4337746 9.4840025,3.0985101 8.97719,2.7632449 8.2012365,2.5860923 6.940002,2.3807952 5.6795953,2.1754967 3.9322502,1.9445365 1.4867969,1.5157284 Z M 12.072723,1.8940398 c -0.862907,0 -1.566812,0.6986755 -1.566812,1.5653971 0,0.8667217 0.703905,1.5653978 1.566812,1.5653978 0.862081,0 1.565979,-0.6986761 1.565979,-1.5653978 0,-0.8667216 -0.703898,-1.5653971 -1.565979,-1.5653971 z M 14.625,4.6249997 14.494158,4.7036407 c -1.044265,0.6241733 -1.814423,0.7359277 -2.412325,1.0637425 -0.298129,0.163907 -0.552361,0.3849333 -0.75856,0.745033 -0.20621,0.3600999 -0.36769,0.8584436 -0.497706,1.5827814 l -0.01988,0.1100998 0.105174,-0.038078 C 12.532324,7.5612583 13.25113,7.5074502 13.68756,7.191225 13.906176,7.033113 14.041167,6.8087752 14.164558,6.4387423 14.288777,6.0695363 14.404711,5.5496691 14.589384,4.7740067 Z m -0.133327,2.7135766 -0.172245,0.057122 c -1.732442,0.5778128 -2.442144,0.7433753 -2.806521,1.0082759 -0.181355,0.1324509 -0.269968,0.2938741 -0.336216,0.5223507 -0.06625,0.2276494 -0.117593,0.5273182 -0.237676,0.9644039 l -0.02815,0.1018225 0.104342,-0.021531 c 1.049239,-0.2317861 1.533691,-0.2880765 1.942784,-0.5761565 0.409923,-0.2889075 0.718813,-0.7922184 1.434313,-1.9039737 z m -3.660312,1.4362579 -0.08778,0.00585 C 8.1084865,8.9180462 6.7354545,8.7127479 5.8220327,9.2963572 5.3649069,9.5885765 5.0344854,10.060433 4.7330482,10.821195 4.430782,11.581129 4.1550168,12.632454 3.8014067,14.101824 l -0.025674,0.10761 0.105172,-0.03059 c 1.5726101,-0.461935 2.6880942,-0.662266 3.502142,-0.793063 0.8148751,-0.130798 1.3316254,-0.189575 1.7142187,-0.384104 0.3834218,-0.194541 0.6144691,-0.525669 0.8446895,-1.1606 C 10.172175,11.205313 10.40819,10.32038 10.808173,8.8609424 Z m 3.163438,0.2665565 c -0.773463,0.8112588 -1.435145,0.9586073 -1.946921,1.1382483 -0.255894,0.09023 -0.478658,0.189565 -0.645935,0.388241 -0.168112,0.19868 -0.274941,0.489239 -0.317175,0.950335 l -0.0061,0.07951 0.07781,-0.0091 c 0.94161,-0.121776 1.469954,-0.216976 1.86994,-0.552239 0.399984,-0.336097 0.65422,-0.894873 1.07325,-1.9271546 z m -9.4886577,1.3559623 -0.1134535,0.03062 c -1.1949839,0.29967 -1.7473434,0.666391 -2.0885315,1.273186 -0.3420155,0.607615 -0.4794844,1.43543 -0.8902344,2.678801 L 1.375,14.5 1.4959063,14.458606 c 0.542422,-0.179637 0.9266721,-0.307949 1.221485,-0.455293 0.2939837,-0.14652 0.4985311,-0.313746 0.6641558,-0.561261 0.3320781,-0.495032 0.518407,-1.293871 1.0856721,-2.934601 z m 9.2352567,0.88742 -0.115112,0.04385 c -0.958967,0.36507 -1.487315,0.528148 -1.775502,0.777324 -0.144094,0.124995 -0.22277,0.277317 -0.250921,0.470199 -0.02813,0.192874 -0.0099,0.206122 0.02813,0.519867 l 0.0091,0.07206 0.07041,-0.01821 c 0.32711,-0.08276 0.565611,-0.08028 0.756076,-0.07206 0.191297,0.008 0.340363,0.02732 0.480317,-0.03809 0.139952,-0.06541 0.246777,-0.210269 0.359403,-0.491726 0.113456,-0.28228 0.237675,-0.489232 0.407437,-1.144033 z"
     id="path22"
     style="fill:url(#linearGradient24)" />
</svg>
