<?xml version="1.0" encoding="UTF-8" standalone="no"?>
<svg
   inkscape:version="1.3 (0e150ed6c4, 2023-07-21)"
   sodipodi:docname="okular.svg"
   viewBox="0 0 16 16"
   height="16"
   width="16"
   id="svg3040"
   version="1.1"
   xmlns:inkscape="http://www.inkscape.org/namespaces/inkscape"
   xmlns:sodipodi="http://sodipodi.sourceforge.net/DTD/sodipodi-0.dtd"
   xmlns:xlink="http://www.w3.org/1999/xlink"
   xmlns="http://www.w3.org/2000/svg"
   xmlns:svg="http://www.w3.org/2000/svg"
   xmlns:rdf="http://www.w3.org/1999/02/22-rdf-syntax-ns#"
   xmlns:cc="http://creativecommons.org/ns#"
   xmlns:dc="http://purl.org/dc/elements/1.1/">
  <metadata
     id="metadata3046">
    <rdf:RDF>
      <cc:Work
         rdf:about="">
        <dc:format>image/svg+xml</dc:format>
        <dc:type
           rdf:resource="http://purl.org/dc/dcmitype/StillImage" />
      </cc:Work>
    </rdf:RDF>
  </metadata>
  <defs
     id="defs3044">
    <linearGradient
       id="linearGradient788">
      <stop
         style="stop-color:#f7f7f7;stop-opacity:1;"
         offset="0"
         id="stop784" />
      <stop
         style="stop-color:#f7f7f7;stop-opacity:0.392"
         offset="1"
         id="stop786" />
    </linearGradient>
    <linearGradient
       id="linearGradient4143">
      <stop
         id="stop1180"
         offset="0"
         style="stop-color:#197cf1;stop-opacity:1" />
      <stop
         id="stop1182"
         offset="1"
         style="stop-color:#20bcfa;stop-opacity:1" />
    </linearGradient>
    <linearGradient
       gradientUnits="userSpaceOnUse"
       y2="5.4949999"
       x2="30.045"
       y1="10.71"
       x1="34.237"
       id="linearGradient4483"
       xlink:href="#linearGradient788"
       gradientTransform="matrix(2.2357723,0,0,2.2357723,-19.866555,-10.798983)" />
    <linearGradient
       id="linearGradient4477">
      <stop
         id="stop3986"
         offset="0"
         style="stop-color:#f7f7f7;stop-opacity:1;" />
      <stop
         id="stop3988"
         offset="1"
         style="stop-color:#f7f7f7;stop-opacity:0.392" />
    </linearGradient>
    <linearGradient
       xlink:href="#linearGradient4485"
       gradientTransform="matrix(2.1868346,0.45888721,-0.44661079,2.192088,438.55318,-2222.385)"
       x2="0"
       gradientUnits="userSpaceOnUse"
       y2="1012.95"
       y1="1040.95"
       id="e">
      <stop
         id="stop4002"
         stop-color="#f2f2f2" />
      <stop
         id="stop4004"
         stop-color="#ffffff"
         offset="1" />
    </linearGradient>
    <linearGradient
       gradientUnits="userSpaceOnUse"
       y2="5.4949999"
       x2="30.045"
       y1="10.71"
       x1="34.237"
       id="linearGradient4483-2"
       xlink:href="#linearGradient4477"
       gradientTransform="translate(-25.534062,-47.872155)" />
    <linearGradient
       gradientTransform="matrix(1,0,0,0.9661017,-25.534062,-1017.9827)"
       x2="0"
       gradientUnits="userSpaceOnUse"
       y2="1012.95"
       y1="1040.95"
       id="e-8">
      <stop
         id="stop4002-7"
         stop-color="#f2f2f2" />
      <stop
         id="stop4004-9"
         stop-color="#ffffff"
         offset="1" />
    </linearGradient>
    <linearGradient
       gradientUnits="userSpaceOnUse"
       y2="3.1719999"
       x2="13"
       y1="44.006001"
       x1="13"
       id="linearGradient4491"
       xlink:href="#linearGradient4485"
       gradientTransform="translate(-25.534062,-47.872155)" />
    <linearGradient
       id="linearGradient4485">
      <stop
         id="stop3981"
         offset="0"
         style="stop-color:#000000;stop-opacity:1;" />
      <stop
         id="stop3983"
         offset="1"
         style="stop-color:#000000;stop-opacity:0.384" />
    </linearGradient>
    <linearGradient
       id="c"
       y1="40"
       y2="6"
       gradientUnits="userSpaceOnUse"
       x2="0"
       gradientTransform="matrix(0.69597654,0,0,0.68423827,-7.3401807,-10.191357)">
      <stop
         stop-color="#b1b1b1"
         id="stop570" />
      <stop
         offset="1"
         stop-color="#dddddd"
         id="stop572" />
    </linearGradient>
    <linearGradient
       gradientTransform="matrix(0.72441175,0.14848198,-0.15068799,0.73517444,-5.8537563,-13.196481)"
       xlink:href="#b"
       id="d"
       y1="21"
       x1="23"
       y2="39"
       gradientUnits="userSpaceOnUse"
       x2="40" />
    <linearGradient
       id="b"
       y1="11"
       x1="17"
       y2="41"
       gradientUnits="userSpaceOnUse"
       x2="44"
       gradientTransform="translate(0,1004.36)">
      <stop
         id="stop565" />
      <stop
         offset="1"
         stop-opacity="0"
         id="stop567" />
    </linearGradient>
    <linearGradient
       id="e-6"
       y1="1040.95"
       y2="1012.95"
       gradientUnits="userSpaceOnUse"
       x2="0"
       gradientTransform="matrix(0.72441175,0.14848198,-0.15068799,0.73517444,145.49123,-751.57629)">
      <stop
         stop-color="#f2f2f2"
         id="stop576" />
      <stop
         offset="1"
         stop-color="#ffffff"
         id="stop578" />
    </linearGradient>
    <linearGradient
       gradientTransform="matrix(0.7394723,0,0,0.75045874,-8.3843157,-11.752311)"
       xlink:href="#linearGradient4485"
       id="linearGradient4491-2"
       x1="13"
       y1="44.006001"
       x2="13"
       y2="3.1719999"
       gradientUnits="userSpaceOnUse" />
    <linearGradient
       gradientTransform="matrix(0.72441175,0.14848198,-0.15068799,0.73517444,-5.8537563,-13.196481)"
       xlink:href="#linearGradient788"
       id="linearGradient4483-9"
       x1="34.237"
       y1="10.71"
       x2="30.045"
       y2="5.4949999"
       gradientUnits="userSpaceOnUse" />
    <linearGradient
       gradientTransform="matrix(-0.72441175,-0.14848198,0.15068799,-0.73517444,46.373033,26.618705)"
       x2="49"
       gradientUnits="userSpaceOnUse"
       y2="20.735001"
       x1="49.088001"
       y1="26.497"
       id="d-3">
      <stop
         id="stop581" />
      <stop
         stop-opacity="0"
         stop-color="#655c6f"
         offset="1"
         id="stop583" />
    </linearGradient>
    <linearGradient
       gradientTransform="matrix(0.89013508,0,0,1.0204399,47.191638,-31.184689)"
       xlink:href="#linearGradient4143"
       id="linearGradient4555"
       x1="35"
       y1="44"
       x2="35"
       y2="7"
       gradientUnits="userSpaceOnUse" />
    <linearGradient
       inkscape:collect="always"
       xlink:href="#linearGradient4143"
       id="linearGradient3667-2"
       gradientUnits="userSpaceOnUse"
       gradientTransform="matrix(0.66090133,0,0,0.69246156,1.9087578,-1.3071134)"
       x1="35"
       y1="44"
       x2="35"
       y2="7" />
    <linearGradient
       gradientTransform="translate(52.674487,-9.522441)"
       xlink:href="#linearGradient4227"
       id="linearGradient4884"
       x1="8"
       y1="4"
       x2="22"
       y2="18"
       gradientUnits="userSpaceOnUse" />
    <linearGradient
       id="linearGradient4227">
      <stop
         offset="0"
         style="stop-color:#292c2f;stop-opacity:1"
         id="stop1324" />
      <stop
         offset="1"
         style="stop-color:#000000;stop-opacity:0;"
         id="stop1326" />
    </linearGradient>
    <linearGradient
       gradientUnits="userSpaceOnUse"
       y2="18"
       x2="22"
       y1="4"
       x1="8"
       id="linearGradient4884-7"
       xlink:href="#linearGradient4227"
       gradientTransform="translate(69.028736,-15.350184)" />
    <linearGradient
       xlink:href="#linearGradient4763"
       id="linearGradient4151"
       gradientUnits="userSpaceOnUse"
       x1="4.0000024"
       y1="43.999989"
       x2="43.999992"
       y2="3.9999998"
       gradientTransform="matrix(1.0499999,0,0,1.0499999,43.800006,17.800008)" />
    <linearGradient
       id="linearGradient4763">
      <stop
         style="stop-color:#f2f2f2;stop-opacity:1"
         offset="0"
         id="stop267" />
      <stop
         style="stop-color:#cccccc;stop-opacity:1"
         offset="1"
         id="stop269" />
    </linearGradient>
    <linearGradient
       id="shadow-3">
      <stop
         style="stop-color:#31363b;stop-opacity:0.208"
         offset="0"
         id="stop210" />
      <stop
         style="stop-color:#31363b;stop-opacity:0;"
         offset="1"
         id="stop212" />
    </linearGradient>
    <linearGradient
       id="darker-shadow-6">
      <stop
         offset="0"
         style="stop-color:#31363b;stop-opacity:0.404"
         id="stop205" />
      <stop
         offset="1"
         style="stop-color:#31363b;stop-opacity:0;"
         id="stop207" />
    </linearGradient>
    <linearGradient
       id="linearGradient1545"
       x1="70.794998"
       x2="81.377998"
       y1="20.511999"
       y2="20.511999"
       gradientTransform="matrix(7.5637,0,0,7.5637,-543.5,-123.14)"
       gradientUnits="userSpaceOnUse">
      <stop
         stop-color="#b5cddc"
         offset="0"
         id="stop10521" />
      <stop
         stop-color="#cee0e9"
         offset="1"
         id="stop10523" />
    </linearGradient>
    <linearGradient
       id="linearGradient1454"
       x1="76.042999"
       x2="76.042999"
       y1="24.482"
       y2="20.084"
       gradientTransform="matrix(7.5637,0,0,7.5637,-543.5,-123.14)"
       gradientUnits="userSpaceOnUse">
      <stop
         stop-color="#dde8ed"
         offset="0"
         id="stop10516" />
      <stop
         stop-color="#dee6ee"
         offset="1"
         id="stop10518" />
    </linearGradient>
    <linearGradient
       id="a-0"
       x1="543.79999"
       x2="503.79999"
       gradientUnits="userSpaceOnUse"
       gradientTransform="matrix(0,1,-1.16667,0,-452.67,-499.8)">
      <stop
         stop-color="#197cf1"
         id="stop1649" />
      <stop
         offset="1"
         stop-color="#21c9fb"
         id="stop1651" />
    </linearGradient>
    <linearGradient
       inkscape:collect="always"
       xlink:href="#linearGradient26"
       id="linearGradient27"
       x1="286"
       y1="156"
       x2="276.25"
       y2="144.8"
       gradientUnits="userSpaceOnUse"
       gradientTransform="matrix(0.73076924,0,0,0.75,-196.25,-103)" />
    <linearGradient
       id="linearGradient26"
       inkscape:collect="always">
      <stop
         style="stop-color:#00c4c4;stop-opacity:1;"
         offset="0"
         id="stop26" />
      <stop
         style="stop-color:#ff81ff;stop-opacity:1;"
         offset="1"
         id="stop27" />
    </linearGradient>
    <linearGradient
       inkscape:collect="always"
       xlink:href="#linearGradient26"
       id="linearGradient2"
       x1="5"
       y1="7"
       x2="5"
       y2="2"
       gradientUnits="userSpaceOnUse"
       gradientTransform="matrix(0.79166668,0,0,0.79999999,1.6666666,1.5999999)" />
    <linearGradient
       inkscape:collect="always"
       xlink:href="#linearGradient26"
       id="linearGradient4"
       x1="13"
       y1="15"
       x2="7"
       y2="7"
       gradientUnits="userSpaceOnUse"
       gradientTransform="matrix(0.79166668,0,0,0.79999999,1.6666666,1.5999999)" />
  </defs>
  <sodipodi:namedview
     inkscape:document-rotation="0"
     inkscape:current-layer="svg3040"
     inkscape:window-maximized="1"
     inkscape:window-y="0"
     inkscape:window-x="0"
     inkscape:cy="12.206966"
     inkscape:cx="7.7495296"
     inkscape:zoom="17.162332"
     inkscape:snap-global="false"
     showgrid="false"
     id="namedview3042"
     inkscape:window-height="994"
     inkscape:window-width="1920"
     inkscape:pageshadow="2"
     inkscape:pageopacity="0"
     guidetolerance="10"
     gridtolerance="10"
     objecttolerance="10"
     borderopacity="1"
     bordercolor="#666666"
     pagecolor="#ffffff"
     inkscape:showpageshadow="2"
     inkscape:pagecheckerboard="0"
     inkscape:deskcolor="#d1d1d1">
    <inkscape:grid
       id="grid154"
       type="xygrid"
       originx="45"
       originy="19"
       spacingy="1"
       spacingx="1"
       units="px"
       visible="false" />
  </sodipodi:namedview>
  <path
     style="color:#d5c289;fill:url(#linearGradient27);fill-opacity:1;stroke-width:0.740321"
     class="ColorScheme-Text"
     d="M 6.1687948,2 C 5.2493403,2.010875 4.5765287,1.97705 4.026442,2.2885775 3.7514031,2.4443223 3.5344667,2.7081128 3.4141383,3.0371072 3.2938019,3.36611 3.25,3.7567928 3.25,4.25 v 7.5 c 0,0.493209 0.043769,0.883894 0.1641383,1.212898 0.1203354,0.328991 0.3372648,0.59279 0.6123037,0.748528 C 4.5765287,14.022911 5.2493483,13.989071 6.1687948,14 h 0.00297 3.656699 0.0031 c 0.9194442,-0.01089 1.5922672,0.02299 2.1423472,-0.288574 0.275019,-0.155747 0.491949,-0.419537 0.61228,-0.748528 C 12.706202,12.63389 12.75,12.243209 12.75,11.75 V 4.25 C 12.75,3.7567928 12.70622,3.36611 12.585858,3.0371072 12.465534,2.7081128 12.248596,2.4443223 11.973553,2.2885775 11.423474,1.9770724 10.750662,2.01089 9.8312035,2 h -0.00309 -3.6566956 z m 0.00436,0.75 h 3.6538534 c 0.9196898,0.011021 1.5252378,0.044849 1.7926628,0.19629 0.134036,0.0759 0.211312,0.1595549 0.282605,0.354495 0.07119,0.1949329 0.11694,0.5049222 0.11694,0.949215 v 7.5 c 0,0.444298 -0.04575,0.75429 -0.117042,0.949219 -0.07134,0.194923 -0.148569,0.278595 -0.282604,0.354491 -0.267421,0.151436 -0.872971,0.185259 -1.792661,0.19629 H 6.1773511 6.1730684 C 5.2533849,13.23898 4.6464148,13.205152 4.3789831,13.053711 4.2449528,12.97781 4.1691064,12.894142 4.0978121,12.699219 4.0265113,12.50429 3.9807721,12.194298 3.9807721,11.75 v -7.5 c 0,-0.4442928 0.045746,-0.75429 0.11704,-0.9492151 C 4.1691319,3.1058528 4.2449499,3.0221821 4.37898,2.94629 4.6464119,2.7948579 5.2533817,2.7610328 6.1730767,2.75 Z"
     id="path22" />
  <path
     d="M 12.037498,3.9999998 C 11.776101,4.0972938 11.51549,4.2253987 11.25408,4.392422 A 6.3240229,6.5122526 0 0 0 10.006918,5.454554 8.1640686,8.407065 0 0 0 8.967609,6.8758684 6.4035451,6.5941418 0 0 0 8.2912731,8.500683 C 8.1298652,9.0625642 8.0605793,9.5790352 8.0834112,10.04686 c 0.034641,0.458095 0.144873,0.843222 0.3291132,1.156187 0.1850278,0.312154 0.4393437,0.535934 0.7621582,0.671333 0.3236023,0.135397 0.7054683,0.161342 1.1440244,0.0778 0.427535,-0.0835 0.860575,-0.265128 1.299134,-0.546469 a 6.1413564,6.32415 0 0 0 0.419657,-0.299988 V 10.12469 c -0.08661,0.06079 -0.173213,0.118381 -0.26297,0.171892 -0.346436,0.197832 -0.681856,0.312969 -1.005456,0.343775 -0.334625,0.0316 -0.617281,-0.02106 -0.8487657,-0.156482 A 1.3180296,1.3572598 0 0 1 9.383332,9.8757829 C 9.2675909,9.604172 9.2101149,9.281477 9.2101149,8.906894 c 0,-0.3851251 0.069289,-0.8026848 0.207861,-1.250235 A 5.2114922,5.3666092 0 0 1 10.006918,6.3756105 6.1547419,6.3379334 0 0 1 10.83836,5.2826673 c 0.31179,-0.3226933 0.635395,-0.5837674 0.970808,-0.7807897 0.07636,-0.046217 0.152748,-0.085945 0.228332,-0.1232403 z"
     id="path4"
     style="fill:url(#linearGradient4);stroke-width:0.798994" />
  <path
     d="M 5.625,2.72 V 5.9199998 L 6.5354164,5.3858271 7.4458335,5.9189917 V 2.72 Z"
     id="path3"
     style="fill:url(#linearGradient2);stroke-width:0.658512" />
</svg>
