<?xml version="1.0" encoding="UTF-8" standalone="no"?>
<!-- Generator: Gravit.io -->

<svg
   style="isolation:isolate"
   viewBox="0 0 16 16"
   width="16pt"
   height="16pt"
   version="1.1"
   id="svg6"
   sodipodi:docname="onlyoffice.svg"
   inkscape:version="1.3 (0e150ed6c4, 2023-07-21)"
   xmlns:inkscape="http://www.inkscape.org/namespaces/inkscape"
   xmlns:sodipodi="http://sodipodi.sourceforge.net/DTD/sodipodi-0.dtd"
   xmlns="http://www.w3.org/2000/svg"
   xmlns:svg="http://www.w3.org/2000/svg">
  <defs
     id="defs6" />
  <sodipodi:namedview
     id="namedview6"
     pagecolor="#ffffff"
     bordercolor="#000000"
     borderopacity="0.25"
     inkscape:showpageshadow="2"
     inkscape:pageopacity="0.0"
     inkscape:pagecheckerboard="0"
     inkscape:deskcolor="#d1d1d1"
     inkscape:document-units="pt"
     inkscape:zoom="16.948466"
     inkscape:cx="13.629552"
     inkscape:cy="9.9419029"
     inkscape:window-width="1920"
     inkscape:window-height="994"
     inkscape:window-x="0"
     inkscape:window-y="0"
     inkscape:window-maximized="1"
     inkscape:current-layer="svg6" />
  <linearGradient
     id="_lgradient_15"
     x1="0"
     y1="0.5"
     x2="1"
     y2="0.5"
     gradientTransform="matrix(13.535943,0,0,5.7334325,1.2320286,9.059402)"
     gradientUnits="userSpaceOnUse">
    <stop
       offset="0%"
       stop-opacity="1"
       style="stop-color:rgb(255,224,49)"
       id="stop1" />
    <stop
       offset="100%"
       stop-opacity="1"
       style="stop-color:rgb(250,0,117)"
       id="stop2" />
  </linearGradient>
  <path
     d="m 11.049269,10.548561 -0.599143,-0.296499 0.595796,-1.19266 0.599143,0.2964997 2.224191,1.1033763 c 0.496051,0.245862 0.509104,0.669623 0.02911,0.945467 l -5.0287845,2.888371 c -0.479984,0.275844 -1.259205,0.275844 -1.739187,0 L 2.1016225,11.404745 C 1.6216388,11.128901 1.6346928,10.70514 2.130743,10.459278 l 2.2241921,-1.1033763 0.599143,-0.2964997 0.5957956,1.19266 -0.5991429,0.296499 -0.594122,0.294501 c -0.1653501,0.08195 -0.1697015,0.223207 -0.00971,0.314822 l 3.3632328,1.929578 c 0.159994,0.09161 0.419734,0.09161 0.57973,0 l 3.3632314,-1.929578 c 0.159994,-0.09162 0.155643,-0.232868 -0.0098,-0.314822 z"
     fill="url(#_lgradient_15)"
     id="path2"
     style="fill:url(#_lgradient_15);stroke-width:0.33393" />
  <linearGradient
     id="_lgradient_16"
     x1="0.39980158"
     y1="0.20242152"
     x2="0.36506835"
     y2="1.1185315"
     gradientTransform="matrix(13.462304,0,0,5.8233818,1.2688474,5.9711445)"
     gradientUnits="userSpaceOnUse">
    <stop
       offset="0%"
       stop-opacity="1"
       style="stop-color:rgb(67,233,123)"
       id="stop3" />
    <stop
       offset="97.82608695652173%"
       stop-opacity="1"
       style="stop-color:rgb(56,249,215)"
       id="stop4" />
  </linearGradient>
  <path
     d="m 11.029187,7.4603044 -0.589102,-0.3164881 0.635962,-1.1726718 0.589101,0.3164881 2.181348,1.1660089 c 0.488352,0.261186 0.495047,0.6969405 0.01506,0.9727845 l -4.9919655,2.868381 c -0.479984,0.275844 -1.259205,0.275844 -1.739188,0 L 2.1384414,8.426426 C 1.6584577,8.150582 1.665152,7.7148275 2.1535037,7.4536415 L 4.3348522,6.2876326 4.9239535,5.9711445 5.5599153,7.1438163 4.9708138,7.4603044 4.3147691,7.812106 C 4.1520969,7.899057 4.1500886,8.044641 4.3100891,8.13659 l 3.4000521,1.952231 c 0.159994,0.09195 0.4197339,0.09195 0.5797299,0 L 11.689918,8.13659 c 0.159995,-0.09195 0.157986,-0.2375331 -0.0047,-0.324484 z"
     fill="url(#_lgradient_16)"
     id="path4"
     style="fill:url(#_lgradient_16);stroke-width:0.33393" />
  <linearGradient
     id="_lgradient_17"
     x1="-3.8208334e-05"
     y1="0.50000006"
     x2="0.99996185"
     y2="0.50000006"
     gradientTransform="matrix(13.388667,0,0,7.0660141,1.3056663,1.2071652)"
     gradientUnits="userSpaceOnUse">
    <stop
       offset="0%"
       stop-opacity="1"
       style="stop-color:rgb(0,198,255)"
       id="stop5" />
    <stop
       offset="98.69565217391305%"
       stop-opacity="1"
       style="stop-color:rgb(0,114,255)"
       id="stop6" />
  </linearGradient>
  <path
     d="m 6.9958495,6.7840193 v 0 c 0.319654,0.1838962 0.429107,0.5919994 0.244343,0.9111527 v 0 C 7.0554285,8.014325 6.6460705,8.12393 6.3264163,7.9400338 v 0 L 2.1752603,5.5547127 c -0.4799838,-0.2758444 -0.4799838,-0.7235918 0,-0.9994362 L 7.1304055,1.7068833 c 0.479983,-0.2758444 1.259204,-0.2758444 1.739188,0 l 4.9551455,2.8483932 c 0.479985,0.2758444 0.479985,0.7235918 0,0.9994362 L 9.6735835,7.9400338 v 0 C 9.3539285,8.12393 8.9445705,8.0143248 8.7598065,7.695172 v 0 C 8.5750425,7.3760187 8.6844935,6.9679155 9.0041505,6.7840193 v 0 l 2.7225855,-1.562452 c 0.159994,-0.091948 0.159994,-0.2411973 0,-0.3331454 L 8.2898655,2.9128697 c -0.159996,-0.091948 -0.419736,-0.091948 -0.5797299,0 L 4.2732643,4.8884219 c -0.1599945,0.091948 -0.1599945,0.2411973 0,0.3331454 z"
     fill="url(#_lgradient_17)"
     id="path6"
     style="fill:url(#_lgradient_17);stroke-width:0.33393" />
</svg>
