<?xml version="1.0" encoding="UTF-8" standalone="no"?>
<svg
   style="isolation:isolate"
   width="16"
   height="16"
   viewBox="0 0 16 16"
   version="1.1"
   id="svg22"
   sodipodi:docname="voice.svg"
   inkscape:version="1.3 (0e150ed6c4, 2023-07-21)"
   xmlns:inkscape="http://www.inkscape.org/namespaces/inkscape"
   xmlns:sodipodi="http://sodipodi.sourceforge.net/DTD/sodipodi-0.dtd"
   xmlns:xlink="http://www.w3.org/1999/xlink"
   xmlns="http://www.w3.org/2000/svg"
   xmlns:svg="http://www.w3.org/2000/svg">
  <sodipodi:namedview
     id="namedview22"
     pagecolor="#ffffff"
     bordercolor="#000000"
     borderopacity="0.25"
     inkscape:showpageshadow="2"
     inkscape:pageopacity="0.0"
     inkscape:pagecheckerboard="0"
     inkscape:deskcolor="#d1d1d1"
     inkscape:zoom="23.96875"
     inkscape:cx="9.345502"
     inkscape:cy="7.3637549"
     inkscape:window-width="1920"
     inkscape:window-height="994"
     inkscape:window-x="0"
     inkscape:window-y="0"
     inkscape:window-maximized="1"
     inkscape:current-layer="svg22" />
  <defs
     id="defs22">
    <linearGradient
       id="linearGradient22"
       inkscape:collect="always">
      <stop
         style="stop-color:#feac5e;stop-opacity:1;"
         offset="0"
         id="stop23" />
      <stop
         style="stop-color:#c779d0;stop-opacity:1;"
         offset="0.51188445"
         id="stop25" />
      <stop
         style="stop-color:#4bc0c8;stop-opacity:1;"
         offset="1"
         id="stop24" />
    </linearGradient>
    <style
       id="current-color-scheme"
       type="text/css">&#10;   .ColorScheme-Text { color:#d5c289; } .ColorScheme-Highlight { color:#5294e2; }&#10;  </style>
    <linearGradient
       id="arrongin"
       x1="0%"
       x2="0%"
       y1="0%"
       y2="100%">
      <stop
         offset="0%"
         style="stop-color:#dd9b44; stop-opacity:1"
         id="stop1" />
      <stop
         offset="100%"
         style="stop-color:#ad6c16; stop-opacity:1"
         id="stop2" />
    </linearGradient>
    <linearGradient
       id="aurora"
       x1="0%"
       x2="0%"
       y1="0%"
       y2="100%">
      <stop
         offset="0%"
         style="stop-color:#09D4DF; stop-opacity:1"
         id="stop3" />
      <stop
         offset="100%"
         style="stop-color:#9269F4; stop-opacity:1"
         id="stop4" />
    </linearGradient>
    <linearGradient
       id="fitdance"
       x1="0%"
       x2="0%"
       y1="0%"
       y2="100%">
      <stop
         offset="0%"
         style="stop-color:#1AD6AB; stop-opacity:1"
         id="stop5" />
      <stop
         offset="100%"
         style="stop-color:#329DB6; stop-opacity:1"
         id="stop6" />
    </linearGradient>
    <linearGradient
       id="oomox"
       x1="4.5290803"
       x2="4.5290803"
       y1="0"
       y2="12.099587"
       gradientTransform="matrix(0.61985592,0,0,1.0744172,1.442623,1.5)"
       gradientUnits="userSpaceOnUse">
      <stop
         offset="0%"
         style="stop-color:#303b3d; stop-opacity:1"
         id="stop7" />
      <stop
         offset="100%"
         style="stop-color:#bc985d; stop-opacity:1"
         id="stop8" />
    </linearGradient>
    <linearGradient
       id="rainblue"
       x1="0%"
       x2="0%"
       y1="0%"
       y2="100%">
      <stop
         offset="0%"
         style="stop-color:#00F260; stop-opacity:1"
         id="stop9" />
      <stop
         offset="100%"
         style="stop-color:#0575E6; stop-opacity:1"
         id="stop10" />
    </linearGradient>
    <linearGradient
       id="sunrise"
       x1="0%"
       x2="0%"
       y1="0%"
       y2="100%">
      <stop
         offset="0%"
         style="stop-color: #FF8501; stop-opacity:1"
         id="stop11" />
      <stop
         offset="100%"
         style="stop-color: #FFCB01; stop-opacity:1"
         id="stop12" />
    </linearGradient>
    <linearGradient
       id="telinkrin"
       x1="0%"
       x2="0%"
       y1="0%"
       y2="100%">
      <stop
         offset="0%"
         style="stop-color: #b2ced6; stop-opacity:1"
         id="stop13" />
      <stop
         offset="100%"
         style="stop-color: #6da5b7; stop-opacity:1"
         id="stop14" />
    </linearGradient>
    <linearGradient
       id="60spsycho"
       x1="0%"
       x2="0%"
       y1="0%"
       y2="100%">
      <stop
         offset="0%"
         style="stop-color: #df5940; stop-opacity:1"
         id="stop15" />
      <stop
         offset="25%"
         style="stop-color: #d8d15f; stop-opacity:1"
         id="stop16" />
      <stop
         offset="50%"
         style="stop-color: #e9882a; stop-opacity:1"
         id="stop17" />
      <stop
         offset="100%"
         style="stop-color: #279362; stop-opacity:1"
         id="stop18" />
    </linearGradient>
    <linearGradient
       id="90ssummer"
       x1="0%"
       x2="0%"
       y1="0%"
       y2="100%">
      <stop
         offset="0%"
         style="stop-color: #f618c7; stop-opacity:1"
         id="stop19" />
      <stop
         offset="20%"
         style="stop-color: #94ffab; stop-opacity:1"
         id="stop20" />
      <stop
         offset="50%"
         style="stop-color: #fbfd54; stop-opacity:1"
         id="stop21" />
      <stop
         offset="100%"
         style="stop-color: #0f83ae; stop-opacity:1"
         id="stop22" />
    </linearGradient>
    <linearGradient
       inkscape:collect="always"
       xlink:href="#linearGradient22"
       id="linearGradient24"
       x1="4.25"
       y1="3.6192961"
       x2="11.75"
       y2="11.880053"
       gradientUnits="userSpaceOnUse" />
  </defs>
  <path
     class="ColorScheme-Text"
     d="m 11.437707,6.142625 c -0.172135,0 -0.312298,0.13975 -0.312298,0.3095625 v 2.4765 C 11.125409,10.63575 9.7229508,12.02675 8,12.02675 c -1.7229508,0 -3.1254099,-1.391 -3.1254099,-3.0980625 v -2.4765 C 4.8745901,6.282375 4.7344262,6.142625 4.5622951,6.142625 4.3909836,6.142625 4.25,6.282375 4.25,6.4521875 v 2.4765 c 0,1.9451255 1.5147541,3.5441265 3.4377049,3.7009375 v 1.25125 H 6.5713115 C 6.4,13.880875 6.2590164,14.020625 6.2590164,14.190436 6.2590164,14.361064 6.4,14.5 6.5713115,14.5 h 2.857377 C 9.6,14.5 9.7409836,14.361064 9.7409836,14.190436 9.7409836,14.020625 9.6,13.880875 9.4286885,13.880875 H 8.3122951 v -1.25125 C 10.232787,12.472814 11.75,10.870563 11.75,8.9286875 v -2.4765 C 11.75,6.282375 11.609016,6.142625 11.437707,6.142625 Z M 6.7508197,4.904375 c 0.1729508,0 0.312295,0.1389375 0.312295,0.3095625 0,0.1714375 -0.1393442,0.3095625 -0.312295,0.3095625 -0.1721312,0 -0.3122951,-0.138125 -0.3122951,-0.3095625 0,-0.170625 0.1401639,-0.3095625 0.3122951,-0.3095625 z m 2.5008196,0 c 0.1721312,0 0.3122952,0.1389375 0.3122952,0.3095625 0,0.1714375 -0.140164,0.3095625 -0.3122952,0.3095625 -0.1721311,0 -0.3122951,-0.138125 -0.3122951,-0.3095625 0,-0.170625 0.140164,-0.3095625 0.3122951,-0.3095625 z M 8.6245901,4.2860625 c 0.1721312,0 0.3122952,0.138125 0.3122952,0.3095625 0,0.170625 -0.140164,0.30875 -0.3122952,0.30875 -0.172131,0 -0.312295,-0.138125 -0.312295,-0.30875 0,-0.1714375 0.140164,-0.3095625 0.312295,-0.3095625 z m -1.2491802,0 c 0.172131,0 0.312295,0.138125 0.312295,0.3095625 0,0.170625 -0.140164,0.30875 -0.312295,0.30875 -0.1721312,0 -0.3122952,-0.138125 -0.3122952,-0.30875 0,-0.1714375 0.140164,-0.3095625 0.3122952,-0.3095625 z m 1.2491802,-1.23825 c 0.1721312,0 0.3122952,0.138125 0.3122952,0.3095625 0,0.170625 -0.140164,0.3095625 -0.3122952,0.3095625 -0.172131,0 -0.312295,-0.1389375 -0.312295,-0.3095625 0,-0.1714375 0.140164,-0.3095625 0.312295,-0.3095625 z m -1.2491802,0 c 0.172131,0 0.312295,0.138125 0.312295,0.3095625 0,0.170625 -0.140164,0.3095625 -0.312295,0.3095625 -0.1721312,0 -0.3122952,-0.1389375 -0.3122952,-0.3095625 0,-0.1714375 0.140164,-0.3095625 0.3122952,-0.3095625 z M 8,4.904375 c 0.1721312,0 0.3122951,0.1389375 0.3122951,0.3095625 C 8.3122951,5.385375 8.1721312,5.5235 8,5.5235 7.8278688,5.5235 7.6877049,5.385375 7.6877049,5.2139375 7.6877049,5.0433125 7.8278688,4.904375 8,4.904375 Z M 6.7508197,3.6669375 c 0.1729508,0 0.312295,0.138125 0.312295,0.3095625 0,0.170625 -0.1393442,0.3095625 -0.312295,0.3095625 -0.1721312,0 -0.3122951,-0.1389375 -0.3122951,-0.3095625 0,-0.1714375 0.1401639,-0.3095625 0.3122951,-0.3095625 z m 2.5008196,0 c 0.1721312,0 0.3122952,0.138125 0.3122952,0.3095625 0,0.170625 -0.140164,0.3095625 -0.3122952,0.3095625 -0.1721311,0 -0.3122951,-0.1389375 -0.3122951,-0.3095625 0,-0.1714375 0.140164,-0.3095625 0.3122951,-0.3095625 z M 8,3.6669375 c 0.1721312,0 0.3122951,0.138125 0.3122951,0.3095625 C 8.3122951,4.147125 8.1721312,4.2860625 8,4.2860625 7.8278688,4.2860625 7.6877049,4.147125 7.6877049,3.9765 7.6877049,3.8050625 7.8278688,3.6669375 8,3.6669375 Z M 10.50082,3.9765 C 10.50082,2.6090625 9.3795082,1.5 8.0024591,1.5 6.6262295,1.5 5.504918,2.6115 5.504918,3.9765 v 4.9521875 c 0,1.3666255 1.1188525,2.4756875 2.4975411,2.4756875 1.3795081,0 2.4983609,-1.109062 2.4983609,-2.4756875 z M 9.8762295,6.142625 h -3.75 V 3.9765 C 6.1262295,2.9519375 6.9672131,2.119125 8,2.119125 c 1.0327869,0 1.8737715,0.8328125 1.8737715,1.857375 v 2.166125 h 0.00254 z"
     id="path22"
     style="fill:url(#linearGradient24);fill-opacity:1" />
</svg>
