<?xml version="1.0" encoding="UTF-8" standalone="no"?>
<svg
   style="isolation:isolate"
   width="16"
   height="16"
   viewBox="0 0 16 16"
   version="1.1"
   id="svg22"
   sodipodi:docname="kaddressbook.svg"
   inkscape:version="1.3 (0e150ed6c4, 2023-07-21)"
   xmlns:inkscape="http://www.inkscape.org/namespaces/inkscape"
   xmlns:sodipodi="http://sodipodi.sourceforge.net/DTD/sodipodi-0.dtd"
   xmlns:xlink="http://www.w3.org/1999/xlink"
   xmlns="http://www.w3.org/2000/svg"
   xmlns:svg="http://www.w3.org/2000/svg">
  <sodipodi:namedview
     id="namedview22"
     pagecolor="#ffffff"
     bordercolor="#000000"
     borderopacity="0.25"
     inkscape:showpageshadow="2"
     inkscape:pageopacity="0.0"
     inkscape:pagecheckerboard="0"
     inkscape:deskcolor="#d1d1d1"
     inkscape:zoom="16.727495"
     inkscape:cx="10.282472"
     inkscape:cy="15.15469"
     inkscape:window-width="1920"
     inkscape:window-height="994"
     inkscape:window-x="0"
     inkscape:window-y="0"
     inkscape:window-maximized="1"
     inkscape:current-layer="svg22" />
  <defs
     id="defs22">
    <linearGradient
       id="linearGradient24"
       inkscape:collect="always">
      <stop
         style="stop-color:#00ccff;stop-opacity:1"
         offset="0"
         id="stop24" />
      <stop
         style="stop-color:#2a7fff;stop-opacity:1"
         offset="1"
         id="stop25" />
    </linearGradient>
    <style
       id="current-color-scheme"
       type="text/css">&#10;   .ColorScheme-Text { color:#d5c289; } .ColorScheme-Highlight { color:#5294e2; }&#10;  </style>
    <linearGradient
       id="arrongin"
       x1="0%"
       x2="0%"
       y1="0%"
       y2="100%">
      <stop
         offset="0%"
         style="stop-color:#dd9b44; stop-opacity:1"
         id="stop1" />
      <stop
         offset="100%"
         style="stop-color:#ad6c16; stop-opacity:1"
         id="stop2" />
    </linearGradient>
    <linearGradient
       id="aurora"
       x1="0%"
       x2="0%"
       y1="0%"
       y2="100%">
      <stop
         offset="0%"
         style="stop-color:#09D4DF; stop-opacity:1"
         id="stop3" />
      <stop
         offset="100%"
         style="stop-color:#9269F4; stop-opacity:1"
         id="stop4" />
    </linearGradient>
    <linearGradient
       id="fitdance"
       x1="0%"
       x2="0%"
       y1="0%"
       y2="100%">
      <stop
         offset="0%"
         style="stop-color:#1AD6AB; stop-opacity:1"
         id="stop5" />
      <stop
         offset="100%"
         style="stop-color:#329DB6; stop-opacity:1"
         id="stop6" />
    </linearGradient>
    <linearGradient
       id="oomox"
       x1="0"
       x2="0"
       y1="1.069045"
       y2="16.035675"
       gradientTransform="matrix(1.069045,0,0,1.0022297,0,-0.57142857)"
       gradientUnits="userSpaceOnUse">
      <stop
         offset="0%"
         style="stop-color:#303b3d; stop-opacity:1"
         id="stop7" />
      <stop
         offset="100%"
         style="stop-color:#bc985d; stop-opacity:1"
         id="stop8" />
    </linearGradient>
    <linearGradient
       id="rainblue"
       x1="0%"
       x2="0%"
       y1="0%"
       y2="100%">
      <stop
         offset="0%"
         style="stop-color:#00F260; stop-opacity:1"
         id="stop9" />
      <stop
         offset="100%"
         style="stop-color:#0575E6; stop-opacity:1"
         id="stop10" />
    </linearGradient>
    <linearGradient
       id="sunrise"
       x1="0%"
       x2="0%"
       y1="0%"
       y2="100%">
      <stop
         offset="0%"
         style="stop-color: #FF8501; stop-opacity:1"
         id="stop11" />
      <stop
         offset="100%"
         style="stop-color: #FFCB01; stop-opacity:1"
         id="stop12" />
    </linearGradient>
    <linearGradient
       id="telinkrin"
       x1="0%"
       x2="0%"
       y1="0%"
       y2="100%">
      <stop
         offset="0%"
         style="stop-color: #b2ced6; stop-opacity:1"
         id="stop13" />
      <stop
         offset="100%"
         style="stop-color: #6da5b7; stop-opacity:1"
         id="stop14" />
    </linearGradient>
    <linearGradient
       id="60spsycho"
       x1="0%"
       x2="0%"
       y1="0%"
       y2="100%">
      <stop
         offset="0%"
         style="stop-color: #df5940; stop-opacity:1"
         id="stop15" />
      <stop
         offset="25%"
         style="stop-color: #d8d15f; stop-opacity:1"
         id="stop16" />
      <stop
         offset="50%"
         style="stop-color: #e9882a; stop-opacity:1"
         id="stop17" />
      <stop
         offset="100%"
         style="stop-color: #279362; stop-opacity:1"
         id="stop18" />
    </linearGradient>
    <linearGradient
       id="90ssummer"
       x1="0%"
       x2="0%"
       y1="0%"
       y2="100%">
      <stop
         offset="0%"
         style="stop-color: #f618c7; stop-opacity:1"
         id="stop19" />
      <stop
         offset="20%"
         style="stop-color: #94ffab; stop-opacity:1"
         id="stop20" />
      <stop
         offset="50%"
         style="stop-color: #fbfd54; stop-opacity:1"
         id="stop21" />
      <stop
         offset="100%"
         style="stop-color: #0f83ae; stop-opacity:1"
         id="stop22" />
    </linearGradient>
    <linearGradient
       inkscape:collect="always"
       xlink:href="#linearGradient24"
       id="linearGradient25"
       x1="0"
       y1="16"
       x2="16"
       y2="0.5"
       gradientUnits="userSpaceOnUse"
       gradientTransform="matrix(0.81250124,0,0,0.79999998,1.5,1.6)" />
  </defs>
  <path
     class="ColorScheme-Text"
     fill-rule="evenodd"
     d="m 13.687519,10.142857 v -1.7142857 0 h -0.812498 v 1.7142857 z m 0,0.857143 v 0.428573 c 0,0.507427 -0.05118,0.862287 -0.129997,1.08514 -0.07965,0.22286 -0.164131,0.318 -0.312819,0.404574 -0.08939,0.05229 -0.212873,0.09258 -0.369682,0.122573 V 11 Z m 0,-3.4285713 v -1.714286 0 h -0.812498 v 1.714286 z M 13.687519,5 V 4.5714287 c 0,-0.5074287 -0.05118,-0.862286 -0.129997,-1.0851427 -0.07964,-0.222 -0.163313,-0.318 -0.312819,-0.404572 C 13.155303,3.02943 13.03183,2.989998 12.875021,2.9591427 v 0 V 5 Z M 7.1875086,5.4285713 c 0.4485007,0 0.8125019,0.48 0.8125019,1.0714287 0,0.5914287 -0.3640012,1.0714287 -0.8125019,1.0714287 -0.4485007,0 -0.8125009,-0.48 -0.8125009,-1.0714287 0,-0.5914287 0.3640002,-1.0714287 0.8125009,-1.0714287 z m 0.013,4.2874287 c 1.3056889,0 1.5851896,-0.00409 1.9613775,0.311143 0.1876877,0.157714 0.300626,0.263144 0.377813,0.539145 0,0.0018 8.132e-4,0.0032 0.00165,0.005 H 4.8361427 c 0,-0.0018 8.128e-4,-0.0032 0.00165,-0.005 0.077181,-0.276001 0.190929,-0.381431 0.3786169,-0.539145 C 5.5925689,9.7117123 5.8948194,9.716 7.2005086,9.716 Z m -0.013,-5.1445713 c -0.2299376,0 -0.4485007,0.04714 -0.6491882,0.1422853 C 6.3384453,4.804572 6.1605075,4.9365713 6.0134451,5.1088573 v 0.00172 l -0.00165,0.00174 C 5.8680069,5.2854287 5.757507,5.492 5.6795069,5.7285713 5.6006938,5.964286 5.5625067,6.2231427 5.5625067,6.5 c 0,0.280286 0.038191,0.541714 0.1178123,0.778286 0.078,0.2322853 0.1876879,0.4371427 0.3315005,0.609428 l 0.00165,0.00173 c 0.1470628,0.1722858 0.3233755,0.3068574 0.5216258,0.402 l 0.00165,0.00173 h 0.00163 c 0.2006704,0.090901 0.4200458,0.1354701 0.6491711,0.1354701 0.2291254,0 0.4468758,-0.044571 0.6475635,-0.1354281 V 8.291476 C 8.0341355,8.1971427 8.2071983,8.061714 8.351011,7.8894287 8.4980734,7.7171427 8.6118239,7.5114287 8.6906362,7.278286 8.7702622,7.041714 8.8076364,6.780286 8.8076364,6.5 h 0.00488 c 0,-0.276 -0.038188,-0.534 -0.1178123,-0.769714 C 8.6166989,5.4928573 8.5029484,5.283714 8.355886,5.1105713 8.2112602,4.9374287 8.0357599,4.8045713 7.8366977,4.713714 7.6351971,4.6194287 7.417447,4.5714287 7.1875086,4.5714287 Z m 0.012997,4.285714 c -1.3381895,0 -2.0548156,0.138 -2.588629,0.5862873 -0.2664994,0.2237136 -0.443624,0.528 -0.5427496,0.883713 -0.099126,0.355715 -0.1308129,0.627427 -0.1316252,1.099717 0.812501,0.002 5.6875087,0.002 6.5000132,0.002 0,-0.472284 -0.0309,-0.744 -0.130004,-1.099714 C 10.208391,9.973131 10.03289,9.6671325 9.766387,9.4434157 9.2325742,8.9951427 8.5378857,8.8571427 7.2005056,8.8571427 Z M 12.062513,2.877714 C 11.822019,2.8674286 11.551455,2.8605714 11.250015,2.8571426 H 4.7500047 v 0 0 0 0 C 3.7270663,2.8700001 3.05269,2.9085716 2.7553145,3.081714 2.6066267,3.168286 2.5221263,3.2634287 2.4425016,3.486286 2.3636886,3.7091427 2.3125012,4.064 2.3125012,4.5714287 v 6.8571443 c 0,0.507427 0.051188,0.862287 0.1300004,1.08514 0.079625,0.222 0.1641251,0.318 0.3128129,0.404574 C 3.05269,13.091427 3.7270663,13.13 4.7500047,13.14286 h 0.00488 6.4951353 c 0.30144,-0.0033 0.572004,-0.0093 0.812498,-0.0206 v -10.2445707 0 0 z M 4.7451297,2 C 3.7230034,2.012 2.9746898,1.973429 2.3636886,2.33 2.0573759,2.5074287 1.816063,2.8091427 1.6828128,3.1854287 1.5487501,3.5608573 1.5,4.0074287 1.5,4.5714287 v 6.8571443 c 0,0.564 0.04875,1.010567 0.1828128,1.386 C 1.816063,13.19086 2.0573759,13.49086 2.3636886,13.668287 2.9746898,14.024 3.7230034,13.98714 4.7451297,14 h 0.00165 6.5048863 0.0032 c 1.022127,-0.012 1.77044,0.0266 2.382253,-0.33 0.305502,-0.177427 0.546815,-0.47914 0.680878,-0.855427 C 14.45125,12.43914 14.5,11.992573 14.5,11.428573 V 4.5714287 c 0,-0.564 -0.04875,-1.0105714 -0.182813,-1.386 C 14.183919,2.8091427 13.942605,2.5091427 13.637101,2.3317144 13.025327,1.976 12.277014,2.0128568 11.25489,2 h -0.0019 -6.5048859 z"
     id="path22"
     style="fill:url(#linearGradient25);stroke-width:0.806224" />
</svg>
