<?xml version="1.0" encoding="UTF-8" standalone="no"?>
<svg
   height="16"
   width="16"
   version="1.1"
   id="svg220"
   sodipodi:docname="pattern-basis-addon.svg"
   inkscape:version="1.3 (0e150ed6c4, 2023-07-21)"
   xmlns:inkscape="http://www.inkscape.org/namespaces/inkscape"
   xmlns:sodipodi="http://sodipodi.sourceforge.net/DTD/sodipodi-0.dtd"
   xmlns:xlink="http://www.w3.org/1999/xlink"
   xmlns="http://www.w3.org/2000/svg"
   xmlns:svg="http://www.w3.org/2000/svg">
  <defs
     id="defs224">
    <linearGradient
       id="b-3"
       gradientTransform="matrix(0.77019253,0,0,0.57051057,-35.963383,-17.968177)"
       gradientUnits="userSpaceOnUse"
       x1="17.444"
       x2="17.444"
       y1="35.000999"
       y2="3.8">
      <stop
         offset="0"
         stop-color="#c0392b"
         id="stop7" />
      <stop
         offset="1"
         stop-color="#e74c3c"
         id="stop9" />
    </linearGradient>
    <linearGradient
       gradientTransform="matrix(1.0499636,0,0,1.0499041,-504.98598,-505.93779)"
       gradientUnits="userSpaceOnUse"
       x2="426.69501"
       y2="499.92099"
       y1="547.67499"
       id="a-6"
       x1="389.32001">
      <stop
         stop-color="#18222a"
         style="stop-color:#1e2b35;stop-opacity:1"
         id="stop216" />
      <stop
         stop-color="#566069"
         offset="1"
         style="stop-color:#6d7983;stop-opacity:1"
         id="stop218" />
    </linearGradient>
    <filter
       id="d-7"
       x="-0.035999998"
       y="-0.036000062"
       width="1.072"
       height="1.0720001"
       color-interpolation-filters="sRGB">
      <feGaussianBlur
         stdDeviation="9"
         id="feGaussianBlur238-5" />
    </filter>
    <linearGradient
       inkscape:collect="always"
       xlink:href="#linearGradient1"
       id="linearGradient2"
       x1="10.707618"
       y1="18.301517"
       x2="37.173615"
       y2="44.767513"
       gradientUnits="userSpaceOnUse"
       gradientTransform="matrix(0.49119628,0,0,0.49119634,-3.759542,-7.489638)" />
    <linearGradient
       id="linearGradient1"
       inkscape:collect="always">
      <stop
         style="stop-color:#ffd42a;stop-opacity:1"
         offset="0"
         id="stop1" />
      <stop
         style="stop-color:#c779d0;stop-opacity:1;"
         offset="0.46874997"
         id="stop6" />
      <stop
         style="stop-color:#4bc0c8;stop-opacity:1;"
         offset="1"
         id="stop2-9" />
    </linearGradient>
    <linearGradient
       id="paint3_linear"
       x1="69.25"
       y1="28.75"
       x2="75.501099"
       y2="35.5"
       gradientUnits="userSpaceOnUse"
       gradientTransform="matrix(0.642,0,0,0.642,-67.471,-33.235)">
      <stop
         id="stop67" />
      <stop
         offset="1"
         stop-opacity="0"
         id="stop69" />
    </linearGradient>
    <linearGradient
       inkscape:collect="always"
       xlink:href="#b-3"
       id="linearGradient3"
       gradientUnits="userSpaceOnUse"
       gradientTransform="matrix(0.28259691,0,0,0.21283274,3.247012,3.912359)"
       x1="17.444"
       y1="35.000999"
       x2="17.444"
       y2="3.8" />
  </defs>
  <sodipodi:namedview
     id="namedview222"
     pagecolor="#ffffff"
     bordercolor="#666666"
     borderopacity="1.0"
     inkscape:showpageshadow="2"
     inkscape:pageopacity="0.0"
     inkscape:pagecheckerboard="0"
     inkscape:deskcolor="#d1d1d1"
     showgrid="false"
     inkscape:zoom="7.375"
     inkscape:cx="6.5084746"
     inkscape:cy="51.050847"
     inkscape:window-width="1920"
     inkscape:window-height="994"
     inkscape:window-x="0"
     inkscape:window-y="0"
     inkscape:window-maximized="1"
     inkscape:current-layer="svg220" />
  <linearGradient
     id="a"
     gradientUnits="userSpaceOnUse"
     x1="16"
     x2="16"
     y1="46"
     y2="18"
     gradientTransform="translate(-48.939445,-42.101695)">
    <stop
       offset="0"
       stop-color="#afb0b3"
       id="stop200" />
    <stop
       offset="1"
       stop-color="#bdc3c7"
       id="stop202" />
  </linearGradient>
  <linearGradient
     id="b"
     gradientTransform="matrix(1.125,0,0,0.83333,-51.564445,-26.268695)"
     gradientUnits="userSpaceOnUse"
     x1="17.444"
     x2="17.444"
     y1="35.000999"
     y2="3.8">
    <stop
       offset="0"
       stop-color="#c0392b"
       id="stop205" />
    <stop
       offset="1"
       stop-color="#e74c3c"
       id="stop207" />
  </linearGradient>
  <path
     id="circle2"
     style="opacity:0.99;fill:url(#linearGradient2);fill-opacity:1;stroke-width:0.491196"
     d="m 14.499999,8 a 6.4999994,6.5000002 0 0 1 -6.5,6.5 A 6.4999994,6.5000002 0 0 1 1.5,8 6.4999994,6.5000002 0 0 1 7.999999,1.5 a 6.4999994,6.5000002 0 0 1 6.5,6.5 z" />
  <path
     id="circle858"
     style="fill:#1c202f;fill-opacity:1;stroke-width:0.417883"
     d="M 13.529825,8 A 5.5298259,5.529827 0 0 1 7.999999,13.529827 5.5298259,5.529827 0 0 1 2.470173,8 5.5298259,5.529827 0 0 1 7.999999,2.470173 5.5298259,5.529827 0 0 1 13.529825,8 Z" />
  <path
     d="m 4.66,10.08462 h 2.26078 v 1.276995 H 4.66 Z m 2.763169,0 h 3.767955 v 1.276995 H 7.423169 Z M 4.66,8.296821 H 8.427957 V 9.573814 H 4.66 Z m 4.270349,0 h 2.260775 V 9.573814 H 8.930349 Z M 4.66,6.50901 H 6.92078 V 7.786008 H 4.66 Z m 2.763169,0 h 3.767955 V 7.786008 H 7.423169 Z m 1.50718,-1.787799 h 2.260775 V 5.998207 H 8.930349 Z m -4.270349,0 H 8.427957 V 5.998207 H 4.66 Z"
     id="path14-5-5-2"
     style="fill:url(#linearGradient3);stroke-width:0.253292" />
  <rect
     fill="#eff0f1"
     height="4.2528453"
     ry="0.5316056"
     width="4.1828566"
     x="7.4771419"
     y="7.468369"
     id="rect216-6-5-6-8"
     style="stroke-width:0.263609" />
  <path
     d="M 9.307151,8 V 9.329016 H 8.000004 v 0.531612 h 1.307147 v 1.32901 h 0.522853 v -1.32901 h 1.307143 V 9.329016 H 9.830004 V 8 Z"
     fill="#232629"
     id="path218-7-3-2-9"
     style="stroke-width:0.263609" />
</svg>
