<?xml version="1.0" encoding="UTF-8" standalone="no"?>
<svg
   height="16"
   width="16"
   version="1.1"
   id="svg1616"
   sodipodi:docname="pattern-java-devel.svg"
   inkscape:version="1.3 (0e150ed6c4, 2023-07-21)"
   xmlns:inkscape="http://www.inkscape.org/namespaces/inkscape"
   xmlns:sodipodi="http://sodipodi.sourceforge.net/DTD/sodipodi-0.dtd"
   xmlns:xlink="http://www.w3.org/1999/xlink"
   xmlns="http://www.w3.org/2000/svg"
   xmlns:svg="http://www.w3.org/2000/svg">
  <defs
     id="defs1620">
    <linearGradient
       xlink:href="#linearGradient4435"
       id="linearGradient4389-3-5"
       y1="524.79797"
       y2="515.79797"
       x2="0"
       gradientUnits="userSpaceOnUse"
       gradientTransform="matrix(1.3624978,0,0,1.3624978,-528.67724,-680.90488)" />
    <linearGradient
       id="linearGradient4435">
      <stop
         style="stop-color:#c61423"
         id="stop15" />
      <stop
         offset="1"
         style="stop-color:#dc2b41"
         id="stop17" />
    </linearGradient>
    <linearGradient
       id="linearGradient2331"
       gradientTransform="matrix(-1.4488887,-0.38822857,0.38822857,-1.4488887,-56.474163,71.466707)"
       gradientUnits="userSpaceOnUse"
       x1="-80.458"
       x2="-73.210999"
       y1="16.417999"
       y2="43.464001">
      <stop
         offset="0"
         stop-color="#b0b4b8"
         id="stop1582-3" />
      <stop
         offset="1"
         stop-color="#dadcde"
         id="stop1584-5" />
    </linearGradient>
    <linearGradient
       id="linearGradient2333"
       gradientUnits="userSpaceOnUse"
       x1="18"
       x2="24"
       xlink:href="#b"
       y1="22"
       y2="28"
       gradientTransform="matrix(1.5,0,0,1.5,63.47458,33.915257)" />
    <linearGradient
       id="linearGradient2337">
      <stop
         offset="0"
         stop-color="#292c2f"
         id="stop1595-6" />
      <stop
         offset="1"
         stop-color="#0b0000"
         stop-opacity="0"
         id="stop1597-2" />
    </linearGradient>
    <linearGradient
       id="linearGradient2339"
       gradientUnits="userSpaceOnUse"
       x1="13.667"
       x2="18.885"
       xlink:href="#b"
       y1="8.6660004"
       y2="13.885"
       gradientTransform="matrix(1.5,0,0,1.5,63.47458,33.915257)" />
    <linearGradient
       id="linearGradient2341"
       gradientUnits="userSpaceOnUse"
       x1="17.666"
       x2="23"
       xlink:href="#b"
       y1="9.3330002"
       y2="14.667"
       gradientTransform="matrix(1.5,0,0,1.5,63.47458,33.915257)" />
    <linearGradient
       id="linearGradient2343"
       gradientUnits="userSpaceOnUse"
       x1="21.666"
       x2="21.666"
       xlink:href="#a"
       y1="16"
       y2="6.6669998"
       gradientTransform="matrix(1.5,0,0,1.5,63.47458,33.915257)" />
    <linearGradient
       id="linearGradient2347">
      <stop
         offset="0"
         stop-color="#f67400"
         id="stop1590-9" />
      <stop
         offset="1"
         stop-color="#f39c1f"
         id="stop1592-1" />
    </linearGradient>
    <linearGradient
       id="linearGradient2349"
       gradientUnits="userSpaceOnUse"
       x1="11"
       x2="11"
       xlink:href="#a"
       y1="14"
       y2="2"
       gradientTransform="matrix(1.5,0,0,1.5,63.47458,33.915257)" />
    <linearGradient
       id="linearGradient2354"
       gradientUnits="userSpaceOnUse"
       x1="15"
       x2="15"
       y1="28"
       y2="15"
       gradientTransform="matrix(1.5,0,0,1.5,63.47458,33.915257)">
      <stop
         offset="0"
         stop-color="#375a7d"
         id="stop1575-2" />
      <stop
         offset=".154"
         stop-color="#3b85b5"
         id="stop1577-7" />
      <stop
         offset="1"
         stop-color="#7cbcec"
         id="stop1579-0" />
    </linearGradient>
    <clipPath
       id="_clipPath_tyPTbJgDRIx9GnsvcJ79ORX1XOYTVPvh">
      <rect
         width="16"
         height="16"
         id="rect22"
         x="0"
         y="0" />
    </clipPath>
    <linearGradient
       id="oomox"
       x1="2.8332694"
       x2="2.8332694"
       y1="0.43038622"
       y2="13.345809"
       gradientTransform="matrix(0.74621098,0,0,1.0065496,0.3252821,0.06665115)"
       gradientUnits="userSpaceOnUse">
      <stop
         offset="0%"
         style="stop-color:#303b3d; stop-opacity:1"
         id="stop7" />
      <stop
         offset="100%"
         style="stop-color:#bc985d; stop-opacity:1"
         id="stop8" />
    </linearGradient>
    <linearGradient
       inkscape:collect="always"
       xlink:href="#a"
       id="linearGradient2"
       x1="2.4394636"
       y1="6.9998546"
       x2="12.07715"
       y2="6.9998546"
       gradientUnits="userSpaceOnUse" />
  </defs>
  <sodipodi:namedview
     id="namedview1618"
     pagecolor="#ffffff"
     bordercolor="#000000"
     borderopacity="0.25"
     inkscape:showpageshadow="2"
     inkscape:pageopacity="0.0"
     inkscape:pagecheckerboard="0"
     inkscape:deskcolor="#d1d1d1"
     showgrid="false"
     inkscape:zoom="20.85965"
     inkscape:cx="9.1084941"
     inkscape:cy="14.453742"
     inkscape:window-width="1920"
     inkscape:window-height="994"
     inkscape:window-x="0"
     inkscape:window-y="0"
     inkscape:window-maximized="1"
     inkscape:current-layer="svg1616" />
  <linearGradient
     id="h"
     gradientUnits="userSpaceOnUse"
     x1="11"
     x2="11"
     xlink:href="#a"
     y1="14"
     y2="2"
     gradientTransform="matrix(1.5,0,0,1.5,63.47458,33.915257)" />
  <linearGradient
     id="g"
     gradientUnits="userSpaceOnUse"
     x1="21.666"
     x2="21.666"
     xlink:href="#a"
     y1="16"
     y2="6.6669998"
     gradientTransform="matrix(1.5,0,0,1.5,63.47458,33.915257)" />
  <linearGradient
     id="i"
     gradientUnits="userSpaceOnUse"
     x1="15"
     x2="15"
     y1="28"
     y2="15"
     gradientTransform="matrix(1.5,0,0,1.5,63.47458,33.915257)">
    <stop
       offset="0"
       stop-color="#375a7d"
       id="stop1575" />
    <stop
       offset=".154"
       stop-color="#3b85b5"
       id="stop1577" />
    <stop
       offset="1"
       stop-color="#7cbcec"
       id="stop1579" />
  </linearGradient>
  <linearGradient
     id="c"
     gradientTransform="matrix(-1.4488887,-0.38822857,0.38822857,-1.4488887,-56.474163,71.466707)"
     gradientUnits="userSpaceOnUse"
     x1="-80.458"
     x2="-73.210999"
     y1="16.417999"
     y2="43.464001">
    <stop
       offset="0"
       stop-color="#b0b4b8"
       id="stop1582" />
    <stop
       offset="1"
       stop-color="#dadcde"
       id="stop1584" />
  </linearGradient>
  <linearGradient
     id="f"
     gradientUnits="userSpaceOnUse"
     x1="17.666"
     x2="23"
     xlink:href="#b"
     y1="9.3330002"
     y2="14.667"
     gradientTransform="matrix(1.5,0,0,1.5,63.47458,33.915257)" />
  <linearGradient
     id="e"
     gradientUnits="userSpaceOnUse"
     x1="13.667"
     x2="18.885"
     xlink:href="#b"
     y1="8.6660004"
     y2="13.885"
     gradientTransform="matrix(1.5,0,0,1.5,63.47458,33.915257)" />
  <linearGradient
     id="d"
     gradientUnits="userSpaceOnUse"
     x1="18"
     x2="24"
     xlink:href="#b"
     y1="22"
     y2="28"
     gradientTransform="matrix(1.5,0,0,1.5,63.47458,33.915257)" />
  <linearGradient
     id="a">
    <stop
       offset="0"
       stop-color="#f67400"
       id="stop1590" />
    <stop
       offset="1"
       stop-color="#f39c1f"
       id="stop1592" />
  </linearGradient>
  <linearGradient
     id="b">
    <stop
       offset="0"
       stop-color="#292c2f"
       id="stop1595" />
    <stop
       offset="1"
       stop-color="#0b0000"
       stop-opacity="0"
       id="stop1597" />
  </linearGradient>
  <g
     clip-path="url(#_clipPath_tyPTbJgDRIx9GnsvcJ79ORX1XOYTVPvh)"
     id="g23"
     style="isolation:isolate">
    <rect
       style="fill:#000000"
       fill-opacity="0"
       width="16"
       height="16"
       id="rect23"
       x="0"
       y="0" />
    <path
       class="ColorScheme-Text"
       fill-rule="evenodd"
       d="M 7.194424,2.9084275 C 6.5938291,3.331357 5.9135015,3.8097531 5.5486378,4.6018794 4.91511,5.9842013 6.8442937,7.4921886 6.9266263,7.5554543 c 0.019936,0.014737 0.042463,0.022536 0.064999,0.022536 0.024263,0 0.049399,-0.00863 0.068463,-0.025136 0.038136,-0.032063 0.0494,-0.086662 0.026,-0.1308652 C 7.0791585,7.4081225 6.3866974,6.0630669 6.4126971,5.0976085 6.4222306,4.761345 6.8919598,4.3800149 7.3902891,3.9761516 7.846152,3.6060877 8.3635475,3.186625 8.6660117,2.6960957 9.3298721,1.617105 8.5914788,0.55544704 8.5845458,0.54504713 8.5550789,0.50344758 8.5004798,0.48871429 8.4545467,0.50864748 8.408613,0.52944729 8.382614,0.57971344 8.393014,0.62911312 8.3947506,0.63604679 8.538613,1.3380402 8.1390829,2.0608344 7.9744175,2.3598316 7.6130207,2.6146296 7.194424,2.9084275 Z m 2.5297784,0.4766622 c 0.042448,-0.032063 0.0546,-0.090134 0.029449,-0.1369324 -0.026,-0.0468 -0.081452,-0.066736 -0.131727,-0.047663 -0.1013989,0.038136 -2.4977148,0.961992 -2.4977148,2.0782493 0,0.7695931 0.3284635,1.1760565 0.5685285,1.4733207 0.094463,0.1161321 0.1750649,0.2166646 0.2019315,0.3024639 0.075399,0.2478649 -0.1031325,0.6950609 -0.1785317,0.8458595 -0.0208,0.0442 -0.0104,0.096199 0.026,0.128266 0.019936,0.017336 0.045063,0.026 0.070199,0.026 0.0208,0 0.042463,-0.00603 0.060663,-0.019063 C 7.913751,8.0069834 8.8792098,7.3240564 8.7067445,6.5007303 8.6417451,6.188733 8.4883464,5.9599344 8.3531476,5.7580033 8.1425493,5.4460056 7.9908839,5.2198074 8.2214154,4.8029447 8.4909464,4.3167485 9.7120684,3.3937567 9.7242024,3.3850897 Z M 3.4877221,8.0719834 c -0.0416,0.1230658 -0.021663,0.2452649 0.055463,0.3535973 0.2599976,0.3605303 1.1795233,0.558995 2.5904447,0.558995 8.666e-4,0 8.666e-4,0 8.666e-4,0 0.1906652,0 0.3925967,-0.00355 0.5997283,-0.011253 2.2559144,-0.0806 3.0922415,-0.783461 3.1269079,-0.8137943 0.037241,-0.032063 0.04764,-0.086662 0.024241,-0.1299988 -0.023396,-0.0442 -0.07364,-0.065863 -0.1221917,-0.052863 C 8.9684565,8.1933284 7.4856024,8.270461 6.456011,8.270461 5.3050874,8.270461 4.7183591,8.187262 4.5744933,8.1265957 4.6481473,8.0251971 5.1031469,7.8440654 5.665609,7.7339995 5.719345,7.7227365 5.756608,7.6733365 5.751408,7.6187339 5.746208,7.5641349 5.700272,7.5225349 5.6456754,7.5225349 c -0.330197,0 -1.9855165,0.026863 -2.1579818,0.5494621 v 0 0 0 0 0 z M 11.035455,7.3483227 c -0.465395,0 -0.906523,0.2331315 -0.924723,0.242665 -0.04337,0.0234 -0.065,0.072799 -0.05283,0.1204653 0.01123,0.0468 0.05377,0.080599 0.103135,0.080599 0.0094,0 0.992323,0.0078 1.08159,0.5693957 0.07883,0.4844627 -0.929927,1.2696568 -1.3251232,1.5313855 -0.04244,0.0286 -0.0598,0.0832 -0.03984,0.1299998 0.017359,0.03983 0.05636,0.065 0.098799,0.065 0.00655,0 0.014766,-8.67e-4 0.021634,-0.002 C 10.091683,10.065901 12.293003,9.5805988 12.05987,8.2988092 11.918588,7.5129758 11.424594,7.3483101 11.035458,7.3483101 Z M 9.5266059,9.735969 c 0.0075,-0.040753 -0.00958,-0.0832 -0.0442,-0.1065994 L 8.9554758,9.2593089 c -0.026,-0.0182 -0.058936,-0.0234 -0.089264,-0.0156 -0.0052,0.00185 -0.5572618,0.1464633 -1.3580552,0.2357273 -0.3180639,0.035553 -0.6742612,0.0546 -1.0304581,0.0546 -0.800793,0 -1.3242553,-0.094462 -1.4005214,-0.1637987 -0.0104,-0.019046 -0.00697,-0.027755 -0.0052,-0.032955 0.013863,-0.038158 0.088399,-0.084043 0.1360654,-0.1022682 0.052863,-0.019957 0.081463,-0.077156 0.064999,-0.1308649 -0.016463,-0.0546 -0.071936,-0.0858 -0.1273988,-0.0728 -0.5286626,0.1273977 -0.7877937,0.3067963 -0.7687272,0.531261 0.032936,0.3977983 0.9550585,0.6023296 1.735052,0.6569296 0.111799,0.0065 0.2331314,0.01123 0.3605301,0.01123 0,0 0,0 0,0 1.2965224,0 2.9579101,-0.4073321 2.9743743,-0.410797 0.040757,-0.0104 0.07196,-0.043356 0.079757,-0.084045 v 0 0 0 z m -3.9788346,0.854528 c 0.039863,-0.026 0.058063,-0.0754 0.043336,-0.120469 -0.013863,-0.04597 -0.056336,-0.0754 -0.1039992,-0.0754 -0.071063,0.002 -0.6941941,0.03037 -0.7383937,0.427266 -0.013,0.118729 0.0208,0.227063 0.1013991,0.322397 0.2235982,0.265198 0.8276597,0.422931 1.8459844,0.481859 0.1204657,0.0065 0.2435312,0.0104 0.363997,0.0104 1.2947889,0 2.1666454,-0.405595 2.2039141,-0.422927 0.03465,-0.01643 0.058048,-0.05117 0.06065,-0.09015 0.00184,-0.039 -0.017351,-0.07623 -0.051151,-0.09706 L 8.607079,10.619094 c -0.0234,-0.01383 -0.051136,-0.0182 -0.077999,-0.013 -0.00343,8.63e-4 -0.4272632,0.0884 -1.0659911,0.175062 -0.1213322,0.01643 -0.2729975,0.02517 -0.4506628,0.02517 -0.6378612,0 -1.3476553,-0.103999 -1.4845874,-0.172466 -0.00177,-0.013 8.668e-4,-0.02943 0.019936,-0.04337 v 0 0 z m 0.9091256,2.270644 c 2.96571,-0.003 4.5577591,-0.530395 4.8645551,-0.862324 0.108339,-0.116998 0.120472,-0.227928 0.110939,-0.300728 -0.02257,-0.179399 -0.185467,-0.288599 -0.204538,-0.300735 -0.0442,-0.0286 -0.103999,-0.0208 -0.138659,0.01903 -0.03463,0.04077 -0.03557,0.0988 -8.68e-4,0.138667 0.01903,0.02423 0.02943,0.065 -0.02517,0.119598 -0.122199,0.114399 -1.3589255,0.461933 -3.4172388,0.566794 -0.2825311,0.01477 -0.578062,0.02163 -0.8796591,0.02163 -1.8433842,0 -3.1919063,-0.252199 -3.3695717,-0.399525 0.068462,-0.09794 0.5459957,-0.254797 1.0529911,-0.343197 0.057199,-0.0104 0.096199,-0.06417 0.087535,-0.121338 -0.00956,-0.05803 -0.062399,-0.09705 -0.1195989,-0.08924 -0.014737,0.002 -0.063263,0.0047 -0.1195991,0.0073 -0.8371931,0.05117 -1.8043849,0.165529 -1.8555175,0.597128 -0.014737,0.130866 0.024263,0.250465 0.116132,0.354463 0.2261984,0.253931 0.8761926,0.591929 3.8982341,0.591929 0,0 0,0 0,0 v 0 z m 5.4469521,-0.768725 c -0.0416,-0.01903 -0.09185,-0.0094 -0.123062,0.02423 -0.0047,0.0057 -0.449795,0.471461 -1.7905206,0.745329 -0.5139306,0.10313 -1.4767868,0.15513 -2.8643085,0.15513 -1.3892549,0 -2.7117771,-0.0546 -2.724777,-0.05543 -0.055463,-0.003 -0.1022656,0.03723 -0.1100656,0.09185 -0.00697,0.0546 0.027736,0.105732 0.081463,0.118732 0.013,0.003 1.3987881,0.327596 3.2933054,0.327596 0.9091257,0 1.793121,-0.07363 2.6285793,-0.219261 1.557386,-0.272997 1.666585,-1.046062 1.670057,-1.078991 0.0064,-0.04503 -0.01903,-0.08925 -0.06063,-0.109199 z"
       id="path23"
       style="fill:url(#linearGradient2);fill-opacity:1" />
  </g>
</svg>
