<?xml version="1.0" encoding="UTF-8" standalone="no"?>
<!-- Generator: Adobe Illustrator 22.1.0, SVG Export Plug-In . SVG Version: 6.00 Build 0)  -->

<svg
   version="1.1"
   id="Layer_1"
   x="0px"
   y="0px"
   viewBox="0 0 16 16"
   xml:space="preserve"
   sodipodi:docname="pattern-deepin.svg"
   width="16"
   height="16"
   inkscape:version="1.3 (0e150ed6c4, 2023-07-21)"
   xmlns:inkscape="http://www.inkscape.org/namespaces/inkscape"
   xmlns:sodipodi="http://sodipodi.sourceforge.net/DTD/sodipodi-0.dtd"
   xmlns:xlink="http://www.w3.org/1999/xlink"
   xmlns="http://www.w3.org/2000/svg"
   xmlns:svg="http://www.w3.org/2000/svg"><defs
   id="defs338"><linearGradient
     id="a-6"
     y1="543.79999"
     y2="503.79999"
     x2="0"
     gradientUnits="userSpaceOnUse"
     gradientTransform="matrix(1.0499472,0,0,1.0499996,-525.99931,-514.68129)"><stop
       stop-color="#c6cdd1"
       id="stop2" /><stop
       offset="1"
       stop-color="#e0e5e7"
       id="stop4" /></linearGradient><linearGradient
     id="linearGradient3822"><stop
       offset="0"
       stop-color="#bdc3c7"
       id="stop2257-1" /><stop
       offset="1"
       stop-color="#eff0f1"
       id="stop2259-8" /></linearGradient><linearGradient
     id="f-7-0"
     gradientUnits="userSpaceOnUse"
     x1="17.538"
     x2="17.538"
     xlink:href="#linearGradient3822"
     y1="26"
     y2="7.5380001" /><linearGradient
     id="g-9-3"
     gradientUnits="userSpaceOnUse"
     x1="16"
     x2="19.077"
     xlink:href="#linearGradient3828"
     y1="7.9229999"
     y2="11" /><linearGradient
     id="linearGradient3828"><stop
       offset="0"
       stop-color="#292c2f"
       id="stop2276-2" /><stop
       offset="1"
       stop-opacity="0"
       id="stop2278-0" /></linearGradient><linearGradient
     id="h-2-0"
     gradientUnits="userSpaceOnUse"
     x1="8.3079996"
     x2="8.3079996"
     xlink:href="#linearGradient3833"
     y1="18.308001"
     y2="7.1539998" /><linearGradient
     id="linearGradient3833"><stop
       offset="0"
       stop-color="#3b85b5"
       id="stop2269-3" /><stop
       offset="1"
       stop-color="#54a3d8"
       id="stop2271-7" /></linearGradient><linearGradient
     id="i-9-0"
     gradientUnits="userSpaceOnUse"
     x1="6.7690001"
     x2="17.538"
     xlink:href="#linearGradient3828"
     y1="7.1539998"
     y2="17.923" /><linearGradient
     id="linearGradient3836"
     gradientTransform="matrix(0.38443,0,0,0.38462,3.698,3.692)"
     gradientUnits="userSpaceOnUse"
     x1="12"
     x2="12"
     xlink:href="#linearGradient3833"
     y1="38"
     y2="9" /><linearGradient
     id="k-2-6"
     gradientUnits="userSpaceOnUse"
     x1="16"
     x2="16"
     xlink:href="#linearGradient3833"
     y1="26"
     y2="10.615" /><linearGradient
     id="l-2-1"
     gradientUnits="userSpaceOnUse"
     x1="17.923"
     x2="17.923"
     y1="11.385"
     y2="6"><stop
       offset="0"
       stop-color="#292c2f"
       id="stop2263-8-5" /><stop
       offset="1"
       stop-color="#4d4d4d"
       id="stop2265-9-5" /></linearGradient><linearGradient
     gradientTransform="matrix(1.0419659,0,0,1.0394363,-514.65937,-497.73258)"
     gradientUnits="userSpaceOnUse"
     x2="426.69501"
     y2="499.92099"
     y1="547.67499"
     id="a-6-3"
     x1="389.32001"><stop
       stop-color="#18222a"
       style="stop-color:#1e2b35;stop-opacity:1"
       id="stop216" /><stop
       stop-color="#566069"
       offset="1"
       style="stop-color:#6d7983;stop-opacity:1"
       id="stop218" /></linearGradient><linearGradient
     id="e"
     x1="8.4461002"
     x2="24.603001"
     y1="6.2688999"
     y2="24.570999"
     gradientUnits="userSpaceOnUse"
     gradientTransform="translate(0.254427,-38.49298)"><stop
       stop-opacity=".2088"
       offset="0"
       id="stop4-6" /><stop
       stop-opacity="0"
       offset="1"
       id="stop6" /></linearGradient><linearGradient
     id="d"
     x1="7.8488002"
     x2="14.108"
     y1="3.5121"
     y2="14.183"
     gradientUnits="userSpaceOnUse"
     gradientTransform="translate(0.254427,-38.49298)"><stop
       stop-opacity=".2088"
       offset="0"
       id="stop14" /><stop
       stop-opacity="0"
       offset="1"
       id="stop16" /></linearGradient><linearGradient
     id="a-6-7"
     y1="543.79999"
     y2="503.79999"
     x2="0"
     gradientUnits="userSpaceOnUse"
     gradientTransform="matrix(1.0499472,0,0,1.0499996,-456.97695,-521.98987)"><stop
       stop-color="#c6cdd1"
       id="stop2-5" /><stop
       offset="1"
       stop-color="#e0e5e7"
       id="stop4-3" /></linearGradient><linearGradient
     inkscape:collect="always"
     xlink:href="#linearGradient3833"
     id="linearGradient3"
     x1="31.067417"
     y1="256.03629"
     x2="480.93259"
     y2="256.03629"
     gradientUnits="userSpaceOnUse" /></defs><sodipodi:namedview
   id="namedview336"
   pagecolor="#ffffff"
   bordercolor="#666666"
   borderopacity="1.0"
   inkscape:showpageshadow="2"
   inkscape:pageopacity="0.0"
   inkscape:pagecheckerboard="0"
   inkscape:deskcolor="#d1d1d1"
   showgrid="false"
   inkscape:zoom="15.91909"
   inkscape:cx="10.867456"
   inkscape:cy="6.8157163"
   inkscape:window-width="1920"
   inkscape:window-height="994"
   inkscape:window-x="0"
   inkscape:window-y="0"
   inkscape:window-maximized="1"
   inkscape:current-layer="Layer_1" />&#10;&#10;<g
   id="g333-3-2"
   transform="matrix(0.02888976,0,0,0.02888976,0.60422144,0.60317296)"
   style="fill:url(#linearGradient3);fill-opacity:1">&#10;	<title
   id="title327-6-9"
   style="fill:url(#linearGradient3)">deepin</title>&#10;	<g
   id="g331-7-1"
   style="fill:url(#linearGradient3);fill-opacity:1">&#10;		<path
   d="M 333,44.1 C 300.6,32.3 267.5,29.1 235.4,32.1 198.1,35.1 180,46.6 181.1,44.5 120,66.3 68.5,113 44.7,178.7 2.2,295.6 62.4,424.8 179,467.4 295.7,509.9 424.8,449.7 467.3,332.8 509.8,215.9 449.6,86.6 333,44.1 Z M 186.8,446.2 c -12.2,-4.5 -23.9,-10.2 -35,-16.9 54.4,4.2 125.4,-8.4 173.2,-53.2 0,0 91.3,-72.9 25.3,-192.5 0,0 10.6,48.3 -2.9,87.9 0,0 -13,54 -70.4,69.6 -84.7,23.1 -181.2,-36.2 -221.5,-64.9 -3,-29.5 -0.4,-60 10.5,-89.8 16,-44.1 46.2,-78.5 83,-101.6 -9.2,64.4 -1.9,123.7 8.5,148.5 14.1,33.3 38.4,72.2 86.1,77.2 47.7,5 73.9,-39.6 73.9,-39.6 24.5,-37.1 28.3,-90.4 27.9,-91.8 -0.4,-1.3 -6.5,-4.8 -6.5,-4.8 -16.4,66.5 -43.5,88.8 -43.5,88.8 -42.8,41.2 -73.1,12.6 -73.1,12.6 -32.5,-34.9 -9.7,-91.8 -9.7,-91.8 12.7,-38.7 49.9,-95.3 92,-124.1 7,1.8 14.1,2.9 21,5.3 24.6,9 47.2,22.8 66.6,40.5 -30.8,11.3 -80.4,35 -80.4,35 -78.7,33.2 -84.1,83.3 -84.1,83.3 -8.2,51.7 32.9,29.8 32.9,29.8 42.2,-20.6 63,-84.7 63,-84.7 -13.2,-2.6 -23.6,1.5 -23.6,1.5 -16.8,41.7 -51.3,58.7 -51.3,58.7 -13.6,7.2 -16.7,-5.5 -16.7,-5.5 -2.3,-9.5 9.8,-11.1 9.8,-11.1 18.7,-7.3 30.8,-27 33.5,-35 2.7,-8.1 7.7,-8.7 7.7,-8.7 16,-5 32.4,-8.4 49.1,-10 31.9,-3.9 80.6,11.3 80.6,11.3 11,4.4 21.5,7.7 30.8,10.3 17.9,44.7 20.7,95.6 3,144.3 C 408,430.2 291.8,484.5 186.8,446.2 Z"
   id="path329-5-2"
   style="fill:url(#linearGradient3);fill-opacity:1" />&#10;	</g>&#10;</g></svg>
