<?xml version="1.0" encoding="UTF-8" standalone="no"?>
<svg
   width="16"
   height="16"
   version="1.1"
   id="svg22"
   sodipodi:docname="preferences-virtualization-container.svg"
   inkscape:version="1.3 (0e150ed6c4, 2023-07-21)"
   xmlns:inkscape="http://www.inkscape.org/namespaces/inkscape"
   xmlns:sodipodi="http://sodipodi.sourceforge.net/DTD/sodipodi-0.dtd"
   xmlns:xlink="http://www.w3.org/1999/xlink"
   xmlns="http://www.w3.org/2000/svg"
   xmlns:svg="http://www.w3.org/2000/svg">
  <sodipodi:namedview
     id="namedview22"
     pagecolor="#ffffff"
     bordercolor="#000000"
     borderopacity="0.25"
     inkscape:showpageshadow="2"
     inkscape:pageopacity="0.0"
     inkscape:pagecheckerboard="0"
     inkscape:deskcolor="#d1d1d1"
     showgrid="true"
     inkscape:zoom="23.96875"
     inkscape:cx="6.821382"
     inkscape:cy="10.409387"
     inkscape:window-width="1920"
     inkscape:window-height="994"
     inkscape:window-x="0"
     inkscape:window-y="0"
     inkscape:window-maximized="1"
     inkscape:current-layer="svg22">
    <inkscape:grid
       id="grid22"
       units="px"
       originx="0"
       originy="0"
       spacingx="1"
       spacingy="1"
       empcolor="#0099e5"
       empopacity="0.30196078"
       color="#0099e5"
       opacity="0.14902"
       empspacing="5"
       dotted="false"
       gridanglex="30"
       gridanglez="30"
       visible="true" />
  </sodipodi:namedview>
  <defs
     id="defs22">
    <style
       id="current-color-scheme"
       type="text/css">&#10;   .ColorScheme-Text { color:#d5c289; } .ColorScheme-Highlight { color:#5294e2; }&#10;  </style>
    <linearGradient
       id="arrongin"
       x1="0%"
       x2="0%"
       y1="0%"
       y2="100%">
      <stop
         offset="0%"
         style="stop-color:#dd9b44; stop-opacity:1"
         id="stop1" />
      <stop
         offset="100%"
         style="stop-color:#ad6c16; stop-opacity:1"
         id="stop2" />
    </linearGradient>
    <linearGradient
       id="aurora"
       x1="0%"
       x2="0%"
       y1="0%"
       y2="100%">
      <stop
         offset="0%"
         style="stop-color:#09D4DF; stop-opacity:1"
         id="stop3" />
      <stop
         offset="100%"
         style="stop-color:#9269F4; stop-opacity:1"
         id="stop4" />
    </linearGradient>
    <linearGradient
       id="fitdance"
       x1="0%"
       x2="0%"
       y1="0%"
       y2="100%">
      <stop
         offset="0%"
         style="stop-color:#1AD6AB; stop-opacity:1"
         id="stop5" />
      <stop
         offset="100%"
         style="stop-color:#329DB6; stop-opacity:1"
         id="stop6" />
    </linearGradient>
    <linearGradient
       id="oomox"
       x1="0.9258201"
       x2="0.9258201"
       y1="2.1980512"
       y2="15.159533"
       gradientTransform="matrix(1.157274,0,0,1.0801235,-0.57142812,-1.3741667)"
       gradientUnits="userSpaceOnUse">
      <stop
         offset="0%"
         style="stop-color:#303b3d; stop-opacity:1"
         id="stop7" />
      <stop
         offset="100%"
         style="stop-color:#bc985d; stop-opacity:1"
         id="stop8" />
    </linearGradient>
    <linearGradient
       id="rainblue"
       x1="0%"
       x2="0%"
       y1="0%"
       y2="100%">
      <stop
         offset="0%"
         style="stop-color:#00F260; stop-opacity:1"
         id="stop9" />
      <stop
         offset="100%"
         style="stop-color:#0575E6; stop-opacity:1"
         id="stop10" />
    </linearGradient>
    <linearGradient
       id="sunrise"
       x1="0%"
       x2="0%"
       y1="0%"
       y2="100%">
      <stop
         offset="0%"
         style="stop-color: #FF8501; stop-opacity:1"
         id="stop11" />
      <stop
         offset="100%"
         style="stop-color: #FFCB01; stop-opacity:1"
         id="stop12" />
    </linearGradient>
    <linearGradient
       id="telinkrin"
       x1="0%"
       x2="0%"
       y1="0%"
       y2="100%">
      <stop
         offset="0%"
         style="stop-color: #b2ced6; stop-opacity:1"
         id="stop13" />
      <stop
         offset="100%"
         style="stop-color: #6da5b7; stop-opacity:1"
         id="stop14" />
    </linearGradient>
    <linearGradient
       id="60spsycho"
       x1="0%"
       x2="0%"
       y1="0%"
       y2="100%">
      <stop
         offset="0%"
         style="stop-color: #df5940; stop-opacity:1"
         id="stop15" />
      <stop
         offset="25%"
         style="stop-color: #d8d15f; stop-opacity:1"
         id="stop16" />
      <stop
         offset="50%"
         style="stop-color: #e9882a; stop-opacity:1"
         id="stop17" />
      <stop
         offset="100%"
         style="stop-color: #279362; stop-opacity:1"
         id="stop18" />
    </linearGradient>
    <linearGradient
       id="90ssummer"
       x1="0%"
       x2="0%"
       y1="0%"
       y2="100%">
      <stop
         offset="0%"
         style="stop-color: #f618c7; stop-opacity:1"
         id="stop19" />
      <stop
         offset="20%"
         style="stop-color: #94ffab; stop-opacity:1"
         id="stop20" />
      <stop
         offset="50%"
         style="stop-color: #fbfd54; stop-opacity:1"
         id="stop21" />
      <stop
         offset="100%"
         style="stop-color: #0f83ae; stop-opacity:1"
         id="stop22" />
    </linearGradient>
    <linearGradient
       id="linearGradient24"
       x1="0"
       x2="0"
       y1="0"
       y2="1">
      <stop
         offset="0%"
         style="stop-color:#febc85;stop-opacity:1"
         id="stop23" />
      <stop
         offset="1"
         style="stop-color:#8660cb;stop-opacity:1"
         id="stop24" />
    </linearGradient>
    <linearGradient
       inkscape:collect="always"
       xlink:href="#aurora"
       id="linearGradient26"
       x1="0.5"
       y1="15"
       x2="15.5"
       y2="1"
       gradientUnits="userSpaceOnUse"
       gradientTransform="matrix(0.86666667,0,0,0.85714286,1.0666667,1.1428572)" />
    <linearGradient
       id="c-6">
      <stop
         offset="0"
         stop-color="#c6cdd1"
         id="stop226" />
      <stop
         offset="1"
         stop-color="#e0e5e7"
         id="stop228" />
    </linearGradient>
    <linearGradient
       id="e-3">
      <stop
         offset="0"
         id="stop232" />
      <stop
         offset="1"
         stop-opacity="0"
         id="stop234" />
    </linearGradient>
    <linearGradient
       inkscape:collect="always"
       xlink:href="#aurora"
       id="linearGradient27"
       x1="3"
       y1="5.5"
       x2="7"
       y2="5.5"
       gradientUnits="userSpaceOnUse" />
    <linearGradient
       inkscape:collect="always"
       xlink:href="#aurora"
       id="linearGradient29"
       x1="8.5"
       y1="5.6999998"
       x2="13.01"
       y2="5.6999998"
       gradientUnits="userSpaceOnUse" />
    <linearGradient
       inkscape:collect="always"
       xlink:href="#aurora"
       id="linearGradient31"
       x1="3"
       y1="10.5"
       x2="7"
       y2="10.5"
       gradientUnits="userSpaceOnUse" />
    <linearGradient
       inkscape:collect="always"
       xlink:href="#aurora"
       id="linearGradient33"
       x1="9.0050001"
       y1="10.5"
       x2="13.005"
       y2="10.5"
       gradientUnits="userSpaceOnUse"
       gradientTransform="matrix(1.125,0,0,1,-1.625625,0)" />
  </defs>
  <path
     class="ColorScheme-Text"
     d="M 2.8928565,2 C 2.1295708,2 1.5,2.678 1.5,3.5 v 9 c 0,0.822994 0.6295708,1.5 1.3928565,1.5 H 13.107141 C 13.870429,14 14.5,13.322994 14.5,12.5 v -9 C 14.5,2.678 13.870429,2 13.107141,2 Z m 0,0.9999994 h 3.249999 0.9285709 v 0 H 10.6 v 0 0 0 h 2.507141 c 0.265565,0 0.464277,0.2150006 0.464277,0.5000006 v 9 c 0,0.285994 -0.198712,0.500006 -0.464277,0.500006 H 2.8928565 C 2.6338146,13.006906 2.4221185,12.778974 2.4285704,12.5 v -9 c 0,-0.285 0.1987156,-0.5000006 0.4642861,-0.5000006 z m 4.1785699,0 h 1.8571437 v 0 0 z"
     font-family="sans-serif"
     font-weight="400"
     overflow="visible"
     id="path22"
     sodipodi:nodetypes="sssssssssscccccccssssccssccccc"
     style="fill:url(#linearGradient26);stroke-width:0.861892" />
  <path
     d="M 3.8563682,4 H 6.1436318 C 6.6205958,4 7,4.2845519 7,4.6422737 V 6.3577262 C 7,6.7154481 6.6205958,7 6.1436318,7 H 3.8563682 C 3.3794042,7 3,6.7154481 3,6.3577262 V 4.6422737 C 3,4.2845519 3.3902438,4 3.8563682,4 Z"
     id="path14"
     style="fill:url(#linearGradient27);fill-opacity:1;stroke-width:0.09388" />
  <path
     d="m 3.8563682,9 h 2.2872637 c 0.476964,0 0.856368,0.2845515 0.856368,0.6422738 V 11.357726 C 6.9999999,11.715448 6.6205959,12 6.1436319,12 H 3.8563682 C 3.3794042,12 3,11.715448 3,11.357726 V 9.6422738 C 3,9.2845515 3.3902438,9 3.8563682,9 Z"
     id="path14-6"
     style="fill:url(#linearGradient31);fill-opacity:1;stroke-width:0.0938798" />
  <path
     d="M 9.4684142,9 H 12.041586 C 12.578171,9 13.005,9.2845515 13.005,9.6422739 V 11.357726 C 13.005,11.715448 12.578171,12 12.041586,12 H 9.4684142 C 8.9318297,12 8.505,11.715448 8.505,11.357726 V 9.6422739 C 8.505,9.2845515 8.9440243,9 9.4684142,9 Z"
     id="path14-6-1"
     style="fill:url(#linearGradient33);fill-opacity:1;stroke-width:0.0995746" />
  <path
     d="M 11.8,7.955 H 9.7099999 C 9.05,7.955 8.5,7.4172208 8.5,6.7450012 V 4.6549998 C 8.5,3.9949999 9.0377777,3.445 9.7099999,3.445 H 11.8 c 0.66,0 1.21,0.5377776 1.21,1.2099998 V 6.7450012 C 13.01,7.4049989 12.46,7.955 11.8,7.955 Z M 9.7099999,3.9216668 c -0.4033333,0 -0.7211109,0.3299997 -0.7211109,0.7211108 v 2.0900015 c 0,0.4033318 0.3299999,0.7211085 0.7211109,0.7211085 H 11.8 c 0.403333,0 0.721111,-0.3299987 0.721111,-0.7211085 V 4.6549998 c 0,-0.4033333 -0.33,-0.7211109 -0.721111,-0.7211109 H 9.7099999 Z"
     id="path2-3"
     style="fill:url(#linearGradient29);fill-opacity:1;stroke-width:0.122224" />
</svg>
