<?xml version="1.0" encoding="UTF-8" standalone="no"?>
<svg
   height="16"
   width="16"
   version="1.1"
   id="svg276"
   sodipodi:docname="pattern-e17.svg"
   inkscape:version="1.3 (0e150ed6c4, 2023-07-21)"
   xmlns:inkscape="http://www.inkscape.org/namespaces/inkscape"
   xmlns:sodipodi="http://sodipodi.sourceforge.net/DTD/sodipodi-0.dtd"
   xmlns:xlink="http://www.w3.org/1999/xlink"
   xmlns="http://www.w3.org/2000/svg"
   xmlns:svg="http://www.w3.org/2000/svg">
  <defs
     id="defs280">
    <linearGradient
       id="linearGradient1"
       inkscape:collect="always">
      <stop
         style="stop-color:#008080;stop-opacity:1"
         offset="0"
         id="stop1" />
      <stop
         style="stop-color:#00cfcf;stop-opacity:1;"
         offset="1"
         id="stop2" />
    </linearGradient>
    <linearGradient
       gradientTransform="matrix(1.0499563,0,0,1.0498968,-511.30474,-492.96796)"
       gradientUnits="userSpaceOnUse"
       x2="426.69501"
       y2="499.92099"
       y1="547.67499"
       id="a-6"
       x1="389.32001">
      <stop
         stop-color="#18222a"
         style="stop-color:#1e2b35;stop-opacity:1"
         id="stop216" />
      <stop
         stop-color="#566069"
         offset="1"
         style="stop-color:#6d7983;stop-opacity:1"
         id="stop218" />
    </linearGradient>
    <linearGradient
       id="e-3"
       x1="8.4461002"
       x2="24.603001"
       y1="6.2688999"
       y2="24.570999"
       gradientUnits="userSpaceOnUse"
       gradientTransform="translate(0.254427,-38.49298)">
      <stop
         stop-opacity=".2088"
         offset="0"
         id="stop4" />
      <stop
         stop-opacity="0"
         offset="1"
         id="stop6" />
    </linearGradient>
    <linearGradient
       id="d-6"
       x1="7.8488002"
       x2="14.108"
       y1="3.5121"
       y2="14.183"
       gradientUnits="userSpaceOnUse"
       gradientTransform="translate(0.254427,-38.49298)">
      <stop
         stop-opacity=".2088"
         offset="0"
         id="stop14" />
      <stop
         stop-opacity="0"
         offset="1"
         id="stop16" />
    </linearGradient>
    <linearGradient
       id="linearGradient1139"
       gradientUnits="userSpaceOnUse"
       x1="10"
       x2="30"
       y1="10"
       y2="30"
       gradientTransform="matrix(0.82164929,0,0,0.77777884,-9.1358737,-31.887605)">
      <stop
         offset="0"
         id="stop232-7" />
      <stop
         offset="1"
         stop-opacity="0"
         id="stop234-5" />
    </linearGradient>
    <linearGradient
       id="linearGradient1143"
       gradientUnits="userSpaceOnUse"
       x1="10"
       x2="22"
       y1="10"
       y2="22"
       gradientTransform="matrix(0.82164929,0,0,0.77777884,-9.1358737,-31.887605)">
      <stop
         offset="0"
         stop-color="#171e25"
         id="stop219-3" />
      <stop
         offset="1"
         stop-opacity="0"
         id="stop221-5" />
    </linearGradient>
    <linearGradient
       id="linearGradient1145"
       gradientUnits="userSpaceOnUse"
       x1="16"
       x2="17.993"
       xlink:href="#b"
       y1="3"
       y2="4.993"
       gradientTransform="matrix(0.82164929,0,0,0.77777884,-9.1358737,-31.887605)" />
    <linearGradient
       id="linearGradient1149">
      <stop
         offset="0"
         stop-color="#292c2f"
         id="stop237-6" />
      <stop
         offset="1"
         stop-opacity="0"
         id="stop239-2" />
    </linearGradient>
    <linearGradient
       id="linearGradient1151"
       gradientUnits="userSpaceOnUse"
       x1="13.277"
       x2="15.44"
       xlink:href="#b"
       y1="3.2809999"
       y2="5.4439998"
       gradientTransform="matrix(0.82164929,0,0,0.77777884,-9.1358737,-31.887605)" />
    <linearGradient
       id="linearGradient1153"
       gradientUnits="userSpaceOnUse"
       x1="18.694"
       x2="20.542999"
       xlink:href="#b"
       y1="3.3150001"
       y2="5.1479998"
       gradientTransform="matrix(0.82164929,0,0,0.77777884,-9.1358737,-31.887605)" />
    <linearGradient
       id="linearGradient1155"
       gradientUnits="userSpaceOnUse"
       x1="10.753"
       x2="13.038"
       xlink:href="#b"
       y1="4.0830002"
       y2="6.368"
       gradientTransform="matrix(0.82164929,0,0,0.77777884,-9.1358737,-31.887605)" />
    <linearGradient
       id="linearGradient1157"
       gradientUnits="userSpaceOnUse"
       x1="21.214001"
       x2="23.052999"
       xlink:href="#b"
       y1="4.1149998"
       y2="5.9429998"
       gradientTransform="matrix(0.82164929,0,0,0.77777884,-9.1358737,-31.887605)" />
    <linearGradient
       id="linearGradient1159"
       gradientUnits="userSpaceOnUse"
       x1="23.558001"
       x2="25.417999"
       xlink:href="#b"
       y1="5.454"
       y2="7.3140001"
       gradientTransform="matrix(0.82164929,0,0,0.77777884,-9.1358737,-31.887605)" />
    <linearGradient
       id="linearGradient1161"
       gradientUnits="userSpaceOnUse"
       x1="26.400999"
       x2="26.400999"
       xlink:href="#a"
       y1="29"
       y2="3"
       gradientTransform="matrix(0.82164929,0,0,0.77777884,-9.1358737,-31.887605)" />
    <linearGradient
       id="linearGradient1165"
       gradientUnits="userSpaceOnUse"
       x1="567.30701"
       x2="567.30701"
       y1="691.461"
       y2="39.515999">
      <stop
         offset="0"
         stop-color="#73ba25"
         id="stop242-9" />
      <stop
         offset="1"
         stop-color="#96cb5c"
         id="stop244-1" />
    </linearGradient>
    <linearGradient
       id="linearGradient1167"
       gradientUnits="userSpaceOnUse"
       x1="26"
       x2="26"
       xlink:href="#a"
       y1="29"
       y2="3"
       gradientTransform="matrix(0.82164929,0,0,0.77777884,-9.1358737,-31.887605)" />
    <linearGradient
       inkscape:collect="always"
       xlink:href="#linearGradient1"
       id="linearGradient2"
       x1="3.246307"
       y1="7.9999243"
       x2="12.754077"
       y2="7.9999243"
       gradientUnits="userSpaceOnUse" />
    <linearGradient
       inkscape:collect="always"
       xlink:href="#linearGradient1"
       id="linearGradient5"
       x1="2.9235699"
       y1="8"
       x2="13.07643"
       y2="8"
       gradientUnits="userSpaceOnUse" />
  </defs>
  <sodipodi:namedview
     id="namedview278"
     pagecolor="#ffffff"
     bordercolor="#666666"
     borderopacity="1.0"
     inkscape:showpageshadow="2"
     inkscape:pageopacity="0.0"
     inkscape:pagecheckerboard="0"
     inkscape:deskcolor="#d1d1d1"
     showgrid="false"
     inkscape:zoom="7.375"
     inkscape:cx="55.322034"
     inkscape:cy="41.016949"
     inkscape:window-width="1920"
     inkscape:window-height="994"
     inkscape:window-x="0"
     inkscape:window-y="0"
     inkscape:window-maximized="1"
     inkscape:current-layer="svg276" />
  <linearGradient
     id="e"
     gradientUnits="userSpaceOnUse"
     x1="10"
     x2="22"
     y1="10"
     y2="22"
     gradientTransform="matrix(0.82164929,0,0,0.77777884,-9.1358737,-31.887605)">
    <stop
       offset="0"
       stop-color="#171e25"
       id="stop219" />
    <stop
       offset="1"
       stop-opacity="0"
       id="stop221" />
  </linearGradient>
  <linearGradient
     id="m"
     gradientUnits="userSpaceOnUse"
     x1="26"
     x2="26"
     xlink:href="#a"
     y1="29"
     y2="3"
     gradientTransform="matrix(0.82164929,0,0,0.77777884,-9.1358737,-31.887605)" />
  <linearGradient
     id="k"
     gradientUnits="userSpaceOnUse"
     x1="23.558001"
     x2="25.417999"
     xlink:href="#b"
     y1="5.454"
     y2="7.3140001"
     gradientTransform="matrix(0.82164929,0,0,0.77777884,-9.1358737,-31.887605)" />
  <linearGradient
     id="j"
     gradientUnits="userSpaceOnUse"
     x1="21.214001"
     x2="23.052999"
     xlink:href="#b"
     y1="4.1149998"
     y2="5.9429998"
     gradientTransform="matrix(0.82164929,0,0,0.77777884,-9.1358737,-31.887605)" />
  <linearGradient
     id="h"
     gradientUnits="userSpaceOnUse"
     x1="18.694"
     x2="20.542999"
     xlink:href="#b"
     y1="3.3150001"
     y2="5.1479998"
     gradientTransform="matrix(0.82164929,0,0,0.77777884,-9.1358737,-31.887605)" />
  <linearGradient
     id="f"
     gradientUnits="userSpaceOnUse"
     x1="16"
     x2="17.993"
     xlink:href="#b"
     y1="3"
     y2="4.993"
     gradientTransform="matrix(0.82164929,0,0,0.77777884,-9.1358737,-31.887605)" />
  <linearGradient
     id="i"
     gradientUnits="userSpaceOnUse"
     x1="10.753"
     x2="13.038"
     xlink:href="#b"
     y1="4.0830002"
     y2="6.368"
     gradientTransform="matrix(0.82164929,0,0,0.77777884,-9.1358737,-31.887605)" />
  <linearGradient
     id="g"
     gradientUnits="userSpaceOnUse"
     x1="13.277"
     x2="15.44"
     xlink:href="#b"
     y1="3.2809999"
     y2="5.4439998"
     gradientTransform="matrix(0.82164929,0,0,0.77777884,-9.1358737,-31.887605)" />
  <linearGradient
     id="l"
     gradientUnits="userSpaceOnUse"
     x1="26.400999"
     x2="26.400999"
     xlink:href="#a"
     y1="29"
     y2="3"
     gradientTransform="matrix(0.82164929,0,0,0.77777884,-9.1358737,-31.887605)" />
  <linearGradient
     id="d"
     gradientUnits="userSpaceOnUse"
     x1="10"
     x2="30"
     y1="10"
     y2="30"
     gradientTransform="matrix(0.82164929,0,0,0.77777884,-9.1358737,-31.887605)">
    <stop
       offset="0"
       id="stop232" />
    <stop
       offset="1"
       stop-opacity="0"
       id="stop234" />
  </linearGradient>
  <linearGradient
     id="b">
    <stop
       offset="0"
       stop-color="#292c2f"
       id="stop237" />
    <stop
       offset="1"
       stop-opacity="0"
       id="stop239" />
  </linearGradient>
  <linearGradient
     id="a"
     gradientUnits="userSpaceOnUse"
     x1="567.30701"
     x2="567.30701"
     y1="691.461"
     y2="39.515999">
    <stop
       offset="0"
       stop-color="#73ba25"
       id="stop242" />
    <stop
       offset="1"
       stop-color="#96cb5c"
       id="stop244" />
  </linearGradient>
  <linearGradient
     id="c"
     gradientUnits="userSpaceOnUse"
     x1="2"
     x2="2"
     y1="30"
     y2="2"
     gradientTransform="translate(-61.204205,-21.327331)">
    <stop
       offset="0"
       stop-color="#171e25"
       id="stop247" />
    <stop
       offset="1"
       stop-color="#333c45"
       id="stop249" />
  </linearGradient>
  <path
     d="m 3.757085,5.0643845 c 0.03909,-0.116502 -0.0034,-0.342507 -0.09719,-0.516509 -0.10036,-0.1865 -0.359186,-0.519004 -0.634911,-0.815008 -0.05599,-0.06 -0.101414,-0.116505 -0.101414,-0.126003 0,-0.0095 0.07395,0.03253 0.163746,0.0935 0.637547,0.433007 0.968734,0.590008 1.245517,0.590008 0.144199,0 0.182758,-0.02499 0.203887,-0.132003 0.04754,-0.2375 -0.08821,-0.619006 -0.433133,-1.219017 -0.07078,-0.123498 -0.120957,-0.224001 -0.110919,-0.224001 0.009,0 0.116204,0.103501 0.237692,0.230004 0.439999,0.459007 0.782809,0.696007 1.043212,0.721507 l 0.110924,0.0105 0.04807,-0.087 c 0.03909,-0.071 0.05018,-0.128002 0.05705,-0.298004 0.01003,-0.253506 -0.03326,-0.484012 -0.175896,-0.937015 -0.05282,-0.167003 -0.09138,-0.307503 -0.0861,-0.312008 0.0053,-0.0051 0.08979,0.119505 0.188042,0.276508 0.09825,0.157003 0.223962,0.344005 0.279424,0.415007 0.284176,0.365502 0.624873,0.596504 0.716782,0.485506 0.121488,-0.146005 0.175365,-0.326509 0.191736,-0.639009 0.01059,-0.215503 -0.02113,-0.815012 -0.04913,-0.908013 -0.0058,-0.01952 -0.0026,-0.03497 0.0069,-0.03497 0.0095,0 0.05494,0.105002 0.100359,0.234004 0.120962,0.338004 0.248789,0.626509 0.348622,0.785509 0.101941,0.162002 0.283118,0.341507 0.375553,0.372008 0.05969,0.02 0.07078,0.01599 0.149488,-0.05651 0.197548,-0.181499 0.325902,-0.568505 0.403552,-1.215017 a 1.684989,1.5950221 0 0 1 0.04226,-0.239999 c 0.01586,-0.025 0.01796,-0.025 0.01847,0.0032 0,0.01802 0.02006,0.170001 0.04332,0.339005 0.07817,0.559008 0.191741,0.902511 0.358128,1.081512 0.107225,0.115504 0.134693,0.123004 0.24086,0.064 0.219735,-0.122 0.437885,-0.472506 0.645471,-1.038512 0.122547,-0.332504 0.156353,-0.391505 0.137337,-0.239504 -0.09878,0.800011 -0.0449,1.324018 0.153182,1.494019 0.03909,0.0335 0.0544,0.03497 0.126769,0.0145 0.240333,-0.068 0.518702,-0.365006 0.877883,-0.935011 0.09191,-0.145504 0.169027,-0.256504 0.172721,-0.246504 0.0039,0.0095 -0.03699,0.155001 -0.08979,0.323501 -0.188047,0.60001 -0.226074,0.978015 -0.121489,1.199018 0.04383,0.092 0.04755,0.095 0.135752,0.0945 0.263048,-0.0017 0.592653,-0.232503 1.173683,-0.823011 0.07395,-0.0745 0.137333,-0.131503 0.142613,-0.127001 0.0044,0.0047 -0.05493,0.118501 -0.132053,0.253003 -0.348617,0.606008 -0.469047,0.959013 -0.408832,1.196516 0.02957,0.116502 0.05916,0.130002 0.259881,0.114504 0.242977,-0.01849 0.574695,-0.176005 1.064344,-0.505508 0.154763,-0.104504 0.285231,-0.186503 0.289461,-0.182006 0.0043,0.0041 -0.06339,0.0865 -0.151596,0.183504 -0.541417,0.598512 -0.725765,0.918511 -0.697766,1.212015 0.0111,0.118505 0.01003,0.122004 -0.02374,0.082 -0.01903,-0.02302 -0.09508,-0.114004 -0.167437,-0.202504 C 11.869914,4.6815925 11.473755,4.3140865 11.217573,4.1210865 10.48178,3.5660775 9.47237,3.1820735 8.51631,3.0930745 a 5.2118442,4.9335684 0 0 0 -3.928296,1.172011 4.7390966,4.4860619 0 0 0 -0.68139,0.668011 1.8962725,1.7950247 0 0 1 -0.154236,0.175003 c -0.0053,0 -0.0034,-0.02 0.0048,-0.04398 z M 7.950541,14.206011 C 7.867081,13.537502 7.719187,13.130996 7.510016,12.989993 l -0.06497,-0.044 -0.08346,0.04449 C 7.147135,13.103987 6.923173,13.460992 6.716115,14.0215 l -0.11779,0.317004 c -0.02799,0.074 -0.0264,-0.02 0.0034,-0.328505 0.06233,-0.628507 -0.0034,-1.082515 -0.179591,-1.233015 -0.03909,-0.03351 -0.05388,-0.03499 -0.126773,-0.01501 -0.238747,0.068 -0.513418,0.361504 -0.876825,0.935512 -0.09191,0.145003 -0.170085,0.256504 -0.173784,0.247005 -0.003,-0.01001 0.03699,-0.153503 0.08874,-0.319006 0.18857,-0.597009 0.22766,-0.983013 0.122543,-1.204516 -0.04332,-0.0915 -0.04754,-0.0945 -0.13522,-0.094 -0.261993,0.0017 -0.600046,0.238505 -1.17421,0.823011 -0.07342,0.0745 -0.137338,0.131503 -0.142618,0.126503 -0.0048,-0.0046 0.04542,-0.101502 0.111983,-0.215004 0.359182,-0.614508 0.497042,-1.014012 0.428903,-1.245017 -0.03116,-0.104998 -0.06497,-0.117999 -0.259349,-0.103501 -0.242978,0.01851 -0.574692,0.176003 -1.064872,0.505507 -0.154764,0.104503 -0.285231,0.186503 -0.288929,0.182504 -0.0043,-0.0041 0.06919,-0.092 0.163214,-0.195004 0.322209,-0.356004 0.490181,-0.583007 0.611669,-0.826507 0.06233,-0.125005 0.06973,-0.158002 0.06973,-0.315005 0,-0.160004 0.0034,-0.172502 0.03167,-0.137505 l 0.16427,0.198505 c 0.158466,0.192003 0.554621,0.559007 0.810802,0.75251 0.562546,0.424005 1.358554,0.781507 2.085373,0.93551 a 5.5462004,5.2500719 0 0 0 1.753128,0.0815 5.1516283,4.8765677 0 0 0 2.813246,-1.182017 c 0.298971,-0.247504 0.457956,-0.404004 0.660793,-0.650005 a 1.8592979,1.7600244 0 0 1 0.152127,-0.172004 c 0.0054,0 0.0034,0.01953 -0.0043,0.0435 -0.03913,0.116504 0.0034,0.342505 0.09666,0.516511 0.100364,0.186501 0.359709,0.519003 0.635433,0.815008 0.05548,0.0595 0.100892,0.116001 0.100892,0.1255 0,0.0095 -0.05915,-0.0235 -0.131526,-0.0735 -0.624869,-0.430005 -1.001486,-0.610008 -1.27721,-0.610008 -0.144731,0 -0.18329,0.025 -0.204419,0.132501 -0.04754,0.237502 0.08821,0.619009 0.433133,1.219016 0.07078,0.123002 0.121489,0.224004 0.111983,0.224004 -0.009,0 -0.116209,-0.104002 -0.237693,-0.230505 -0.462717,-0.481504 -0.829292,-0.726508 -1.088114,-0.726508 -0.05969,0 -0.07554,0.011 -0.109342,0.075 -0.0581,0.109002 -0.06972,0.172003 -0.06867,0.367006 8.57e-4,0.212001 0.05388,0.465006 0.181704,0.871511 0.05283,0.168503 0.09191,0.310005 0.08715,0.315004 -0.0054,0.005 -0.08979,-0.120001 -0.188569,-0.277003 -0.351793,-0.561005 -0.653931,-0.871509 -0.896377,-0.92201 -0.07765,-0.016 -0.09719,-0.0011 -0.17537,0.139003 -0.07183,0.127501 -0.102999,0.263003 -0.116204,0.512006 -0.0111,0.204003 0.01903,0.781511 0.04754,0.908513 0.0053,0.025 0.0021,0.045 -0.0074,0.045 -0.0095,0 -0.04384,-0.0785 -0.07659,-0.175002 C 9.252699,13.871001 9.097935,13.515495 8.997576,13.353492 8.88771,13.175991 8.712341,13.000988 8.611454,12.967986 c -0.06233,-0.02049 -0.07237,-0.01701 -0.16163,0.061 -0.195966,0.171003 -0.318513,0.530009 -0.398799,1.168518 -0.02113,0.166503 -0.04384,0.302505 -0.05124,0.302505 -0.0069,0 -0.02906,-0.132503 -0.04966,-0.294004 z"
     id="path272-2-2"
     style="fill:url(#linearGradient5);fill-opacity:1" />
  <path
     d="M 8.000192,3.4998615 A 4.7538863,4.5000622 0 0 0 3.246307,7.9999255 4.7538863,4.5000622 0 0 0 8.000192,12.499987 4.7538863,4.5000622 0 0 0 12.754077,7.9999255 4.7538863,4.5000622 0 0 0 8.000192,3.4998615 Z m 0,0.562511 a 4.1596511,3.9375544 0 0 1 4.15965,3.937553 4.1596511,3.9375544 0 0 1 -4.15965,3.9375565 4.1596511,3.9375544 0 0 1 -3.130697,-1.352521 c 0.299493,-0.205003 0.790732,-0.153003 1.395004,-0.0885 0.294209,0.03253 0.629622,0.069 0.976658,0.0765 0.968738,0.006 2.012476,-0.163503 2.655307,-0.430005 0.41623,-0.1710065 0.681394,-0.2850045 0.847781,-0.4280105 0.06021,-0.04699 0.09138,-0.123497 0.123597,-0.205 l 0.02271,-0.05452 c 0.0264,-0.0665 0.06603,-0.206501 0.08346,-0.283504 0.0074,-0.0335 0.01586,-0.0665 -0.01427,-0.0885 -0.0264,-0.01952 -0.08874,0.01599 -0.08874,0.01599 C 10.588411,9.2604165 9.882194,9.5649195 9.22246,9.5779185 8.402678,9.5934185 6.742513,8.7929115 6.570847,8.7079065 6.45517,8.4484025 6.34002,8.1889015 6.223284,7.9298955 c 1.188473,0.741011 2.173583,1.150515 2.927338,1.214021 0.839856,0.0705 1.494837,-0.36301 1.778482,-0.54351 0.03694,-0.02352 0.07395,-0.05001 0.108284,-0.075 0.0063,-0.0047 0.02113,-0.01599 0.01903,-0.027 -0.04754,-0.278504 -0.485955,-1.630025 -0.817669,-1.955024 -0.09138,-0.088 -0.1648,-0.175006 -0.312702,-0.257509 -1.200619,-0.662505 -4.049253,-1.06201 -4.182361,-1.080015 0,0 -0.01371,-0.0031 -0.02271,0.0055 -0.0074,0.007 -0.009,0.02 -0.009,0.02 0,0 -0.01054,0.558508 -0.01269,0.621009 a 17.279851,16.357225 0 0 0 -0.974018,-0.273004 4.1596511,3.9375544 0 0 1 3.274896,-1.51702 z m 0.866792,2.28403 0.06127,5.14e-4 a 1.2228055,1.1575162 0 0 1 1.175796,1.194018 1.2148823,1.1500159 0 0 1 -0.386122,0.80301 C 9.480235,8.5554465 9.170173,8.6639475 8.842684,8.6539475 A 1.2228055,1.1575162 0 0 1 7.667943,7.4599325 c 0.01217,-0.308006 0.147901,-0.594008 0.385594,-0.803512 0.223434,-0.197501 0.510251,-0.305002 0.813443,-0.310004 z m 0.0084,0.34 a 0.83721228,0.79251104 0 0 0 -0.56624,0.215008 c -0.165327,0.147002 -0.26252,0.345003 -0.269386,0.560005 a 0.85305856,0.80751126 0 0 0 0.819782,0.834516 c 0.227128,0.0065 0.444751,-0.07 0.61061,-0.216504 A 0.8520022,0.80651135 0 0 0 8.875384,6.6864025 Z m 0.181177,0.404011 c 0.208644,0 0.37767,0.106501 0.37767,0.238501 0,0.131003 -0.169026,0.237507 -0.37767,0.237507 -0.208113,0 -0.376612,-0.106504 -0.376612,-0.237507 0,-0.132 0.168499,-0.238501 0.376612,-0.238501 z"
     id="path274-6-0"
     style="fill:url(#linearGradient2);fill-opacity:1" />
</svg>
