<?xml version="1.0" encoding="UTF-8" standalone="no"?>
<!-- Generator: Gravit.io -->

<svg
   style="isolation:isolate"
   viewBox="0 0 16 16"
   width="16pt"
   height="16pt"
   version="1.1"
   id="svg2"
   sodipodi:docname="peek.svg"
   inkscape:version="1.3 (0e150ed6c4, 2023-07-21)"
   xmlns:inkscape="http://www.inkscape.org/namespaces/inkscape"
   xmlns:sodipodi="http://sodipodi.sourceforge.net/DTD/sodipodi-0.dtd"
   xmlns:xlink="http://www.w3.org/1999/xlink"
   xmlns="http://www.w3.org/2000/svg"
   xmlns:svg="http://www.w3.org/2000/svg">
  <defs
     id="defs2">
    <linearGradient
       id="linearGradient2"
       inkscape:collect="always">
      <stop
         style="stop-color:#2a7fff;stop-opacity:1"
         offset="0"
         id="stop3" />
      <stop
         style="stop-color:#ffcc00;stop-opacity:1"
         offset="1"
         id="stop4" />
    </linearGradient>
    <linearGradient
       inkscape:collect="always"
       xlink:href="#linearGradient2"
       id="linearGradient4"
       x1="1.5"
       y1="14.5"
       x2="14.5"
       y2="1.5"
       gradientUnits="userSpaceOnUse" />
  </defs>
  <sodipodi:namedview
     id="namedview2"
     pagecolor="#ffffff"
     bordercolor="#000000"
     borderopacity="0.25"
     inkscape:showpageshadow="2"
     inkscape:pageopacity="0.0"
     inkscape:pagecheckerboard="0"
     inkscape:deskcolor="#d1d1d1"
     inkscape:document-units="pt"
     inkscape:zoom="16.948466"
     inkscape:cx="10.944944"
     inkscape:cy="14.662094"
     inkscape:window-width="1920"
     inkscape:window-height="994"
     inkscape:window-x="0"
     inkscape:window-y="0"
     inkscape:window-maximized="1"
     inkscape:current-layer="svg2" />
  <linearGradient
     id="_lgradient_65"
     x1="0"
     y1="0.5"
     x2="1"
     y2="0.5"
     gradientTransform="matrix(13,0,0,13,1.5,1.5)"
     gradientUnits="userSpaceOnUse">
    <stop
       offset="0%"
       stop-opacity="1"
       style="stop-color:rgb(255,95,109)"
       id="stop1" />
    <stop
       offset="98.26086956521739%"
       stop-opacity="1"
       style="stop-color:rgb(255,195,113)"
       id="stop2" />
  </linearGradient>
  <path
     d="M 5.0783197,12.53341 5.6655315,9.6678705 v 0 l 0.685958,-0.00824 c 0.3374465,0.03317 0.6748942,0.060834 1.0123398,0.066382 0.282128,0.00295 0.5642561,-0.00824 0.8436182,-0.035934 C 8.5144685,9.6624324 8.818723,9.6099173 9.1146803,9.535214 9.3636172,9.4743816 9.6042584,9.3886272 9.833832,9.2807541 c 0.26,-0.1189359 0.500641,-0.2738294 0.71915,-0.4536163 0.204673,-0.1714893 0.387231,-0.3706381 0.536591,-0.5891491 0.154902,-0.2295742 0.27936,-0.4812772 0.365112,-0.7440426 0.09958,-0.3014891 0.163181,-0.6140425 0.19084,-0.929361 0.01379,-0.1770214 0.01934,-0.3540427 0.0081,-0.531064 -0.0081,-0.1549623 -0.0303,-0.3098559 -0.06344,-0.4592181 C 11.557073,5.4387325 11.515572,5.3087325 11.460268,5.181498 11.410452,5.0597866 11.34683,4.9436163 11.272161,4.8357443 11.200244,4.727872 11.114496,4.6255315 11.023216,4.5342557 10.926403,4.4402134 10.824071,4.3544685 10.713431,4.2797866 10.591732,4.1968079 10.464497,4.1248933 10.32896,4.0668079 10.179573,4.0004264 10.027446,3.947872 9.869787,3.9063837 9.745316,3.8731921 9.6208517,3.8455315 9.4936184,3.8261707 9.349787,3.801277 9.2059573,3.7846803 9.0593624,3.7736163 8.9542557,3.765319 8.8463837,3.7597866 8.741277,3.7597866 c -0.118936,-0.0028 -0.2378719,-0.0028 -0.3568085,0 -0.3402128,0.00833 -0.6776606,0.038723 -1.0151061,0.082981 C 6.9129787,3.9063839 6.462128,3.9865951 6.0140427,4.0861709 5.801064,4.1331922 5.6351067,4.3019148 5.5908506,4.5148935 L 4.761064,8.5614895 H 2.7446803 2.6152345 C 2.6080429,8.3592984 2.6063836,8.1654051 2.6063836,8 c 0,-1.43 0.569787,-2.8019146 1.5793606,-3.8142557 C 5.1980854,3.1761707 6.57,2.6063837 8,2.6063837 c 1.43,0 2.80192,0.569787 3.814264,1.5793606 C 12.823837,5.1980854 13.393624,6.57 13.393624,8 c 0,1.43 -0.569787,2.80192 -1.57936,3.814264 C 10.80192,12.823837 9.43,13.393624 8,13.393624 c -1.0405525,0 -2.0548293,-0.301214 -2.9216803,-0.860214 z M 3.84,12.992557 3.9368079,12.591494 4.5370213,9.6678705 H 2.7446803 2.575128 l -0.8483195,0.04148 C 1.5774468,9.1534051 1.5,8.5780854 1.5,8 1.5,6.2768079 2.1859573,4.6227654 3.4029787,3.4029787 4.6227654,2.1859573 6.2768079,1.5 8,1.5 9.723194,1.5 11.37723,2.1859573 12.597016,3.4029787 13.814051,4.6227654 14.5,6.2768079 14.5,8 c 0,1.723194 -0.685949,3.37723 -1.902984,4.597016 C 11.37723,13.814051 9.723194,14.5 8,14.5 6.4814895,14.5 5.0072345,13.966163 3.84,12.992557 Z m 2.052341,-4.4310675 0.5421275,0.027658 c 0.016589,0 0.035953,0.0028 0.055314,0.0028 0.3125538,0.033197 0.5725538,0.022131 0.887873,0.027653 0.2434034,0.0028 0.4840425,-0.00836 0.7246808,-0.030427 C 8.3540424,8.5642604 8.6029784,8.5227703 8.8491491,8.4619197 9.0261707,8.417659 9.2004264,8.3540427 9.3691487,8.2765949 9.540638,8.1963837 9.7010648,8.0968079 9.8476575,7.9751067 9.9721307,7.87 10.082767,7.7482984 10.174047,7.6155315 10.270853,7.4717016 10.348295,7.3140427 10.403621,7.1480854 10.475525,6.9268079 10.522556,6.7 10.541919,6.467659 c 0.01107,-0.1244669 0.0138,-0.248936 0.0082,-0.3761695 -0.0059,-0.088509 -0.01934,-0.1797879 -0.0387,-0.2682974 C 10.494876,5.7512739 10.472738,5.682128 10.442268,5.6157443 10.42014,5.5604278 10.389706,5.5051067 10.356524,5.4553197 10.32338,5.4055315 10.284648,5.361277 10.243169,5.3197866 10.196071,5.2727654 10.146286,5.2312774 10.09097,5.1953197 10.024652,5.1510642 9.9582639,5.112341 9.883587,5.0791494 9.7867745,5.0376586 9.6871999,5.0017012 9.5820966,4.9740427 9.4963492,4.9519149 9.4078396,4.9325525 9.316563,4.9187233 9.2059255,4.8993631 9.0897548,4.8855316 8.976351,4.8772353 8.8906056,4.8717078 8.8048615,4.8661704 8.7191167,4.8661704 c -0.1023406,-0.0028 -0.2019148,-0.0028 -0.3042552,0 C 8.116138,4.8745063 7.817415,4.899365 7.5214572,4.9408479 7.2117016,4.9823408 6.9074475,5.0348915 6.6031921,5.0929762 Z"
     fill-rule="evenodd"
     id="path2"
     style="fill:url(#linearGradient4);stroke-width:0.27659;fill-opacity:1" />
</svg>
