<?xml version="1.0" encoding="UTF-8" standalone="no"?>
<svg
   width="16"
   height="16"
   version="1"
   id="svg22"
   sodipodi:docname="smplayer.svg"
   inkscape:version="1.3 (0e150ed6c4, 2023-07-21)"
   xmlns:inkscape="http://www.inkscape.org/namespaces/inkscape"
   xmlns:sodipodi="http://sodipodi.sourceforge.net/DTD/sodipodi-0.dtd"
   xmlns:xlink="http://www.w3.org/1999/xlink"
   xmlns="http://www.w3.org/2000/svg"
   xmlns:svg="http://www.w3.org/2000/svg">
  <sodipodi:namedview
     id="namedview22"
     pagecolor="#ffffff"
     bordercolor="#000000"
     borderopacity="0.25"
     inkscape:showpageshadow="2"
     inkscape:pageopacity="0.0"
     inkscape:pagecheckerboard="0"
     inkscape:deskcolor="#d1d1d1"
     inkscape:zoom="23.96875"
     inkscape:cx="8.0104302"
     inkscape:cy="6.73794"
     inkscape:window-width="1920"
     inkscape:window-height="994"
     inkscape:window-x="0"
     inkscape:window-y="0"
     inkscape:window-maximized="1"
     inkscape:current-layer="svg22" />
  <defs
     id="defs22">
    <linearGradient
       id="linearGradient22"
       inkscape:collect="always">
      <stop
         style="stop-color:#2a7fff;stop-opacity:1"
         offset="0"
         id="stop23" />
      <stop
         style="stop-color:#bc5fd3;stop-opacity:1"
         offset="1"
         id="stop24" />
    </linearGradient>
    <style
       id="current-color-scheme"
       type="text/css">&#10;   .ColorScheme-Text { color:#d5c289; } .ColorScheme-Highlight { color:#5294e2; }&#10;  </style>
    <linearGradient
       id="arrongin"
       x1="0%"
       x2="0%"
       y1="0%"
       y2="100%">
      <stop
         offset="0%"
         style="stop-color:#dd9b44; stop-opacity:1"
         id="stop1" />
      <stop
         offset="100%"
         style="stop-color:#ad6c16; stop-opacity:1"
         id="stop2" />
    </linearGradient>
    <linearGradient
       id="aurora"
       x1="0%"
       x2="0%"
       y1="0%"
       y2="100%">
      <stop
         offset="0%"
         style="stop-color:#09D4DF; stop-opacity:1"
         id="stop3" />
      <stop
         offset="100%"
         style="stop-color:#9269F4; stop-opacity:1"
         id="stop4" />
    </linearGradient>
    <linearGradient
       id="fitdance"
       x1="0%"
       x2="0%"
       y1="0%"
       y2="100%">
      <stop
         offset="0%"
         style="stop-color:#1AD6AB; stop-opacity:1"
         id="stop5" />
      <stop
         offset="100%"
         style="stop-color:#329DB6; stop-opacity:1"
         id="stop6" />
    </linearGradient>
    <linearGradient
       id="oomox"
       x1="0"
       x2="0"
       y1="0"
       y2="16"
       gradientUnits="userSpaceOnUse"
       gradientTransform="matrix(0.8125,0,0,0.8125,1.5,1.5)">
      <stop
         offset="0%"
         style="stop-color:#303b3d; stop-opacity:1"
         id="stop7" />
      <stop
         offset="100%"
         style="stop-color:#bc985d; stop-opacity:1"
         id="stop8" />
    </linearGradient>
    <linearGradient
       id="rainblue"
       x1="0%"
       x2="0%"
       y1="0%"
       y2="100%">
      <stop
         offset="0%"
         style="stop-color:#00F260; stop-opacity:1"
         id="stop9" />
      <stop
         offset="100%"
         style="stop-color:#0575E6; stop-opacity:1"
         id="stop10" />
    </linearGradient>
    <linearGradient
       id="sunrise"
       x1="0%"
       x2="0%"
       y1="0%"
       y2="100%">
      <stop
         offset="0%"
         style="stop-color: #FF8501; stop-opacity:1"
         id="stop11" />
      <stop
         offset="100%"
         style="stop-color: #FFCB01; stop-opacity:1"
         id="stop12" />
    </linearGradient>
    <linearGradient
       id="telinkrin"
       x1="0%"
       x2="0%"
       y1="0%"
       y2="100%">
      <stop
         offset="0%"
         style="stop-color: #b2ced6; stop-opacity:1"
         id="stop13" />
      <stop
         offset="100%"
         style="stop-color: #6da5b7; stop-opacity:1"
         id="stop14" />
    </linearGradient>
    <linearGradient
       id="60spsycho"
       x1="0%"
       x2="0%"
       y1="0%"
       y2="100%">
      <stop
         offset="0%"
         style="stop-color: #df5940; stop-opacity:1"
         id="stop15" />
      <stop
         offset="25%"
         style="stop-color: #d8d15f; stop-opacity:1"
         id="stop16" />
      <stop
         offset="50%"
         style="stop-color: #e9882a; stop-opacity:1"
         id="stop17" />
      <stop
         offset="100%"
         style="stop-color: #279362; stop-opacity:1"
         id="stop18" />
    </linearGradient>
    <linearGradient
       id="90ssummer"
       x1="0%"
       x2="0%"
       y1="0%"
       y2="100%">
      <stop
         offset="0%"
         style="stop-color: #f618c7; stop-opacity:1"
         id="stop19" />
      <stop
         offset="20%"
         style="stop-color: #94ffab; stop-opacity:1"
         id="stop20" />
      <stop
         offset="50%"
         style="stop-color: #fbfd54; stop-opacity:1"
         id="stop21" />
      <stop
         offset="100%"
         style="stop-color: #0f83ae; stop-opacity:1"
         id="stop22" />
    </linearGradient>
    <style
       id="style22"
       type="text/css">&#10;   .ColorScheme-Text { color:#d5c289; } .ColorScheme-Highlight { color:#d5c289; } .ColorScheme-ButtonBackground { color:#d5c289; }&#10;  </style>
    <linearGradient
       inkscape:collect="always"
       xlink:href="#linearGradient22"
       id="linearGradient24"
       x1="2.6635847"
       y1="4.2786016"
       x2="13.458261"
       y2="11.540178"
       gradientUnits="userSpaceOnUse" />
  </defs>
  <path
     class="ColorScheme-ButtonBackground"
     d="M 8,1.5 C 4.399,1.5 1.5,4.399 1.5,8 c 0,3.601 2.899,6.5 6.5,6.5 3.601,0 6.5,-2.899 6.5,-6.5 C 14.5,4.399 11.601,1.5 8,1.5 Z M 8,2.3125 A 1.625,1.625 0 0 1 9.625,3.9375 1.625,1.625 0 0 1 8,5.5625 1.625,1.625 0 0 1 6.375,3.9375 1.625,1.625 0 0 1 8,2.3125 Z M 3.9375,6.375 A 1.625,1.625 0 0 1 5.5625,8 1.625,1.625 0 0 1 3.9375,9.625 1.625,1.625 0 0 1 2.3125,8 1.625,1.625 0 0 1 3.9375,6.375 Z m 8.125,0 A 1.625,1.625 0 0 1 13.6875,8 1.625,1.625 0 0 1 12.0625,9.625 1.625,1.625 0 0 1 10.4375,8 1.625,1.625 0 0 1 12.0625,6.375 Z M 7.5842435,6.890751 A 0.40625,0.40625 0 0 1 7.9460576,7.093876 0.40625,0.40625 0 0 1 7.797371,7.6471876 0.40625,0.40625 0 0 1 7.241621,7.500126 0.40625,0.40625 0 0 1 7.391121,6.944376 0.40625,0.40625 0 0 1 7.584496,6.890752 Z m 1.109875,0.2965616 a 0.40625,0.40625 0 0 1 0.3618141,0.203125 0.40625,0.40625 0 0 1 -0.1491661,0.5554174 0.40625,0.40625 0 0 1 -0.554125,-0.1495 0.40625,0.40625 0 0 1 0.147062,-0.55575 0.40625,0.40625 0 0 1 0.194188,-0.053625 z m -1.406031,0.8125 a 0.40625,0.40625 0 0 1 0.36023,0.203125 0.40625,0.40625 0 0 1 -0.1475825,0.5554174 0.40625,0.40625 0 0 1 -0.5565625,-0.1495 0.40625,0.40625 0 0 1 0.1495,-0.55575 0.40625,0.40625 0 0 1 0.193375,-0.053625 z m 1.109225,0.2967499 a 0.40625,0.40625 0 0 1 0.3618149,0.203125 0.40625,0.40625 0 0 1 -0.1495,0.55575 0.40625,0.40625 0 0 1 -0.55575,-0.1495 0.40625,0.40625 0 0 1 0.1495,-0.5533125 0.40625,0.40625 0 0 1 0.193375,-0.056065 z M 8,10.4375 A 1.625,1.625 0 0 1 9.625,12.0625 1.625,1.625 0 0 1 8,13.6875 1.625,1.625 0 0 1 6.375,12.0625 1.625,1.625 0 0 1 8,10.4375 Z"
     id="path22"
     style="fill:url(#linearGradient24)" />
</svg>
