<?xml version="1.0" encoding="UTF-8" standalone="no"?>
<svg
   width="16"
   height="16"
   viewBox="0 0 16 16"
   fill="none"
   version="1.1"
   id="svg2"
   sodipodi:docname="switch-user.svg"
   inkscape:version="1.3 (0e150ed6c4, 2023-07-21)"
   xmlns:inkscape="http://www.inkscape.org/namespaces/inkscape"
   xmlns:sodipodi="http://sodipodi.sourceforge.net/DTD/sodipodi-0.dtd"
   xmlns:xlink="http://www.w3.org/1999/xlink"
   xmlns="http://www.w3.org/2000/svg"
   xmlns:svg="http://www.w3.org/2000/svg">
  <sodipodi:namedview
     id="namedview2"
     pagecolor="#ffffff"
     bordercolor="#000000"
     borderopacity="0.25"
     inkscape:showpageshadow="2"
     inkscape:pageopacity="0.0"
     inkscape:pagecheckerboard="0"
     inkscape:deskcolor="#d1d1d1"
     inkscape:zoom="33.896931"
     inkscape:cx="10.413922"
     inkscape:cy="10.074658"
     inkscape:window-width="1920"
     inkscape:window-height="994"
     inkscape:window-x="0"
     inkscape:window-y="0"
     inkscape:window-maximized="1"
     inkscape:current-layer="svg2" />
  <path
     d="M 8.3464988,1.5 C 6.5284496,1.5 5.4034499,2.4887944 5.2415501,3.6904085 V 4.4870293 L 3.2758262,3.2974089 2.5000022,3.8162822 4.8274609,5.3728926 5.6033007,5.8917852 6.3791,5.3728926 8.7065489,3.8162822 7.9307481,3.2974089 6.15535,4.4870293 V 3.6904085 c 0,-0.8104152 0.9728992,-1.4075533 2.1909987,-1.4078374 1.2180502,2.841e-4 2.3951963,0.5975522 2.3781923,1.4078374 v 0.6362248 h 0.913853 V 3.6901485 C 11.638395,2.4805659 10.164597,1.5 8.3464988,1.5 Z m 2.3780432,3.6091852 c -1.009395,0 -1.627542,0.7007481 -1.627542,1.5651037 0,0.8644518 0.618147,1.5651518 1.627542,1.5651518 1.009405,0 1.627458,-0.7009889 1.627458,-1.5654407 0,-0.8643556 -0.618053,-1.5648148 -1.627458,-1.5648148 z M 5.2415501,6.6742889 c -0.2399996,0 -0.4776793,0.040493 -0.6994694,0.1191667 -0.2217197,0.078626 -0.423225,0.1939888 -0.5928998,0.3393 C 3.7794363,7.2780667 3.6448109,7.4505815 3.5529611,7.6405259 3.4611211,7.8303741 3.614,8.0339444 3.614,8.2394407 c 0,0.2055445 -0.1528776,0.4090663 -0.061039,0.5990113 0.09185,0.189848 0.2264752,0.362363 0.3962198,0.507722 0.1696748,0.145359 0.3711801,0.260626 0.5928998,0.3393 0.2217901,0.07863 0.4594698,0.119119 0.6994694,0.119119 0.2399998,0 0.4776502,-0.04049 0.6993998,-0.119119 C 6.1626495,9.606804 6.3641502,9.491533 6.5338993,9.346174 6.7035999,9.200815 6.8382491,9.0283 6.9300988,8.838452 7.0219488,8.648507 6.869,8.4445445 6.869,8.239 6.869,8.0335037 7.0219488,7.8303741 6.9300988,7.6405259 6.8382491,7.4505815 6.7035999,7.2780667 6.5338993,7.1327556 6.3641502,6.9874444 6.1626495,6.8720815 5.9409499,6.7934556 5.7192003,6.7147815 5.4815499,6.6742889 5.2415501,6.6742889 Z M 10.738842,9.022041 c -1.3878946,0 -2.5260434,0.910144 -2.7218434,2.090881 0.5325996,0.518219 0.8798997,1.039422 0.8798997,1.821926 h 1.8419437 1.656352 0.549698 c 0.35935,-0.423029 0.554501,-0.937974 0.555108,-1.467315 0,-1.350555 -1.235706,-2.445492 -2.761158,-2.445492 z m -0.0446,0.782552 c 1.007499,0 1.824048,0.656933 1.824048,1.467314 -3.96e-4,0.317634 -0.128499,0.626552 -0.365851,0.880437 H 11.788333 10.694235 9.5982879 9.5751379 C 9.496795,11.730856 9.2486978,11.354193 8.8968983,11.057889 9.0262478,10.349485 9.777446,9.804593 10.694247,9.804593 Z m -5.4526959,0.7826 c -0.3600499,0 -0.7165194,0.06327 -1.0491293,0.18614 C 3.8597689,10.896207 3.557544,11.076378 3.3029743,11.303444 3.0483996,11.530559 2.8464595,11.800141 2.7086848,12.096878 2.57091,12.393519 2.5,12.711489 2.5,13.032685 2.50143,13.562315 2.6956096,14.077259 3.0532997,14.5 h 0.5426104 1.6456535 1.6455993 0.5461494 c 0.3564495,-0.423174 0.5493002,-0.938022 0.5497002,-1.467315 0,-0.321196 -0.070854,-0.639166 -0.2086503,-0.935807 C 7.6365995,11.800141 7.4346494,11.530559 7.1800995,11.303444 6.925499,11.076378 6.6232999,10.896207 6.2906501,10.773333 5.9580494,10.650459 5.6015003,10.587193 5.2415511,10.587193 Z m 0,0.782551 c 0.4846996,0 0.9495493,0.185515 1.2923491,0.515715 0.3427497,0.3302 0.5352996,0.778074 0.5352996,1.245015 -8.498e-4,0.200152 -0.037052,0.398619 -0.1071011,0.586974 H 3.5209318 C 3.4508798,13.529093 3.4146671,13.330626 3.41384,13.130474 c 0,-0.466941 0.1925595,-0.914815 0.5353395,-1.245015 0.3427197,-0.3302 0.8076095,-0.515715 1.2923692,-0.515715 z"
     id="path1"
     style="fill:url(#linearGradient4);fill-opacity:1;stroke-width:1.0488"
     sodipodi:nodetypes="sccccccccccsccccsssssssscccscccscccscccssccccccsccccccccccscccccccccccccssccccccccc" />
  <defs
     id="defs2">
    <linearGradient
       id="linearGradient2"
       inkscape:collect="always">
      <stop
         style="stop-color:#ffb380;stop-opacity:1"
         offset="0"
         id="stop3" />
      <stop
         style="stop-color:#bc5fd3;stop-opacity:1"
         offset="1"
         id="stop4" />
    </linearGradient>
    <linearGradient
       id="paint0_linear"
       x1="16"
       y1="30"
       x2="16"
       y2="3"
       gradientUnits="userSpaceOnUse"
       gradientTransform="matrix(0.45454535,0,0,0.48148148,0.7272729,0.0555556)">
      <stop
         stop-color="#FD2E00"
         id="stop1" />
      <stop
         offset="1"
         stop-color="#FF9900"
         id="stop2" />
    </linearGradient>
    <linearGradient
       inkscape:collect="always"
       xlink:href="#linearGradient2"
       id="linearGradient4"
       x1="2.9999998"
       y1="8"
       x2="13"
       y2="8"
       gradientUnits="userSpaceOnUse"
       gradientTransform="matrix(1.0999996,0,0,1,-0.79999622,0)" />
  </defs>
</svg>
