<?xml version="1.0" encoding="UTF-8" standalone="no"?>
<svg
   style="enable-background:new"
   width="16"
   height="16"
   version="1.1"
   id="svg23"
   sodipodi:docname="system-run.svg"
   inkscape:version="1.3 (0e150ed6c4, 2023-07-21)"
   xmlns:inkscape="http://www.inkscape.org/namespaces/inkscape"
   xmlns:sodipodi="http://sodipodi.sourceforge.net/DTD/sodipodi-0.dtd"
   xmlns:xlink="http://www.w3.org/1999/xlink"
   xmlns="http://www.w3.org/2000/svg"
   xmlns:svg="http://www.w3.org/2000/svg">
  <sodipodi:namedview
     id="namedview23"
     pagecolor="#ffffff"
     bordercolor="#000000"
     borderopacity="0.25"
     inkscape:showpageshadow="2"
     inkscape:pageopacity="0.0"
     inkscape:pagecheckerboard="0"
     inkscape:deskcolor="#d1d1d1"
     inkscape:zoom="23.96875"
     inkscape:cx="7.5097784"
     inkscape:cy="7.8226858"
     inkscape:window-width="1920"
     inkscape:window-height="994"
     inkscape:window-x="0"
     inkscape:window-y="0"
     inkscape:window-maximized="1"
     inkscape:current-layer="svg23" />
  <defs
     id="defs22">
    <style
       id="current-color-scheme"
       type="text/css">&#10;   .ColorScheme-Text { color:#d5c289; } .ColorScheme-Highlight { color:#5294e2; }&#10;  </style>
    <linearGradient
       id="arrongin"
       x1="0%"
       x2="0%"
       y1="0%"
       y2="100%">
      <stop
         offset="0%"
         style="stop-color:#dd9b44; stop-opacity:1"
         id="stop1" />
      <stop
         offset="100%"
         style="stop-color:#ad6c16; stop-opacity:1"
         id="stop2" />
    </linearGradient>
    <linearGradient
       id="aurora"
       x1="0%"
       x2="0%"
       y1="0%"
       y2="100%">
      <stop
         offset="0%"
         style="stop-color:#09D4DF; stop-opacity:1"
         id="stop3" />
      <stop
         offset="100%"
         style="stop-color:#9269F4; stop-opacity:1"
         id="stop4" />
    </linearGradient>
    <linearGradient
       id="fitdance"
       x1="0%"
       x2="0%"
       y1="0%"
       y2="100%">
      <stop
         offset="0%"
         style="stop-color:#1AD6AB; stop-opacity:1"
         id="stop5" />
      <stop
         offset="100%"
         style="stop-color:#329DB6; stop-opacity:1"
         id="stop6" />
    </linearGradient>
    <linearGradient
       id="oomox"
       x1="0%"
       x2="0%"
       y1="0%"
       y2="100%">
      <stop
         offset="0%"
         style="stop-color:#303b3d; stop-opacity:1"
         id="stop7" />
      <stop
         offset="100%"
         style="stop-color:#bc985d; stop-opacity:1"
         id="stop8" />
    </linearGradient>
    <linearGradient
       id="rainblue"
       x1="0%"
       x2="0%"
       y1="0%"
       y2="100%">
      <stop
         offset="0%"
         style="stop-color:#00F260; stop-opacity:1"
         id="stop9" />
      <stop
         offset="100%"
         style="stop-color:#0575E6; stop-opacity:1"
         id="stop10" />
    </linearGradient>
    <linearGradient
       id="sunrise"
       x1="0%"
       x2="0%"
       y1="0%"
       y2="100%">
      <stop
         offset="0%"
         style="stop-color: #FF8501; stop-opacity:1"
         id="stop11" />
      <stop
         offset="100%"
         style="stop-color: #FFCB01; stop-opacity:1"
         id="stop12" />
    </linearGradient>
    <linearGradient
       id="telinkrin"
       x1="0%"
       x2="0%"
       y1="0%"
       y2="100%">
      <stop
         offset="0%"
         style="stop-color: #b2ced6; stop-opacity:1"
         id="stop13" />
      <stop
         offset="100%"
         style="stop-color: #6da5b7; stop-opacity:1"
         id="stop14" />
    </linearGradient>
    <linearGradient
       id="60spsycho"
       x1="0%"
       x2="0%"
       y1="0%"
       y2="100%">
      <stop
         offset="0%"
         style="stop-color: #df5940; stop-opacity:1"
         id="stop15" />
      <stop
         offset="25%"
         style="stop-color: #d8d15f; stop-opacity:1"
         id="stop16" />
      <stop
         offset="50%"
         style="stop-color: #e9882a; stop-opacity:1"
         id="stop17" />
      <stop
         offset="100%"
         style="stop-color: #279362; stop-opacity:1"
         id="stop18" />
    </linearGradient>
    <linearGradient
       id="90ssummer"
       x1="0%"
       x2="0%"
       y1="0%"
       y2="100%">
      <stop
         offset="0%"
         style="stop-color: #f618c7; stop-opacity:1"
         id="stop19" />
      <stop
         offset="20%"
         style="stop-color: #94ffab; stop-opacity:1"
         id="stop20" />
      <stop
         offset="50%"
         style="stop-color: #fbfd54; stop-opacity:1"
         id="stop21" />
      <stop
         offset="100%"
         style="stop-color: #0f83ae; stop-opacity:1"
         id="stop22" />
    </linearGradient>
    <linearGradient
       inkscape:collect="always"
       xlink:href="#aurora"
       id="linearGradient25"
       x1="289.05408"
       y1="31.990417"
       x2="298.96481"
       y2="31.990417"
       gradientUnits="userSpaceOnUse" />
    <linearGradient
       inkscape:collect="always"
       xlink:href="#rainblue"
       id="linearGradient27"
       x1="287.03925"
       y1="25.036352"
       x2="293.0394"
       y2="25.036352"
       gradientUnits="userSpaceOnUse" />
  </defs>
  <g
     transform="matrix(0.9643153,0,0,0.93787936,-274.54633,-19.69255)"
     id="g23">
    <path
       d="m 292.75946,26.990418 -0.11022,1.316964 a 3.9285714,3.9285714 0 0 0 -1.14815,0.664065 l -1.19699,-0.563615 -1.25,2.165172 1.08677,0.75475 a 3.9285714,3.9285714 0 0 0 -0.06,0.662664 3.9285714,3.9285714 0 0 0 0.0572,0.665457 l -1.08399,0.751957 1.25,2.165172 1.1942,-0.562215 a 3.9285714,3.9285714 0 0 0 1.15094,0.659872 l 0.11022,1.319757 h 2.5 l 0.11021,-1.316964 a 3.9285714,3.9285714 0 0 0 1.14816,-0.664065 l 1.19698,0.563615 1.25,-2.165172 -1.08677,-0.75475 a 3.9285714,3.9285714 0 0 0 0.06,-0.662664 3.9285714,3.9285714 0 0 0 -0.0572,-0.665457 l 1.08398,-0.751957 -1.25,-2.165172 -1.1942,0.562215 a 3.9285714,3.9285714 0 0 0 -1.15094,-0.659872 l -0.1102,-1.319757 z m 1.25,3.571429 a 1.4285714,1.4285714 0 0 1 1.42857,1.428571 1.4285714,1.4285714 0 0 1 -1.42857,1.428571 1.4285714,1.4285714 0 0 1 -1.42857,-1.428571 1.4285714,1.4285714 0 0 1 1.42857,-1.428571 z"
       class="ColorScheme-Text"
       id="path22"
       style="fill:url(#linearGradient25);fill-opacity:1" />
    <path
       d="m 292.18879,27.259573 -0.33784,-0.71736 a 2.3571428,2.3571428 0 0 0 0.39738,-0.689498 l 0.79106,-0.0662 -3e-5,-1.500061 -0.79113,-0.0661 a 2.3571428,2.3571428 0 0 0 -0.16762,-0.36233 2.3571428,2.3571428 0 0 0 -0.22934,-0.32863 l 0.3377,-0.715903 -1.29908,-0.750061 -0.45184,0.650411 a 2.3571428,2.3571428 0 0 0 -0.796,0.002 l -0.45317,-0.652716 -1.29903,0.75 0.33783,0.717366 a 2.3571428,2.3571428 0 0 0 -0.39738,0.689504 l -0.79106,0.0662 4e-5,1.500053 0.79113,0.0661 a 2.3571428,2.3571428 0 0 0 0.16763,0.36233 2.3571428,2.3571428 0 0 0 0.22934,0.32863 l -0.3377,0.715903 1.29908,0.750062 0.45184,-0.650412 a 2.3571428,2.3571428 0 0 0 0.796,-0.002 l 0.45317,0.652721 1.29904,-0.75 z m -1.72094,-1.480758 a 0.85714284,0.85714284 0 0 1 -1.17088,-0.313741 0.85714284,0.85714284 0 0 1 0.31373,-1.17088 0.85714284,0.85714284 0 0 1 1.17088,0.31374 0.85714284,0.85714284 0 0 1 -0.31373,1.170881 z"
       class="ColorScheme-Text"
       id="path23"
       style="fill:url(#linearGradient27)" />
  </g>
</svg>
