<?xml version="1.0" encoding="UTF-8" standalone="no"?>
<svg
   width="16"
   height="16"
   version="1.1"
   id="svg22"
   sodipodi:docname="bug.svg"
   inkscape:version="1.3 (0e150ed6c4, 2023-07-21)"
   xmlns:inkscape="http://www.inkscape.org/namespaces/inkscape"
   xmlns:sodipodi="http://sodipodi.sourceforge.net/DTD/sodipodi-0.dtd"
   xmlns:xlink="http://www.w3.org/1999/xlink"
   xmlns="http://www.w3.org/2000/svg"
   xmlns:svg="http://www.w3.org/2000/svg">
  <sodipodi:namedview
     id="namedview22"
     pagecolor="#ffffff"
     bordercolor="#000000"
     borderopacity="0.25"
     inkscape:showpageshadow="2"
     inkscape:pageopacity="0.0"
     inkscape:pagecheckerboard="0"
     inkscape:deskcolor="#d1d1d1"
     inkscape:zoom="33.896931"
     inkscape:cx="4.3071746"
     inkscape:cy="8.3045866"
     inkscape:window-width="1920"
     inkscape:window-height="994"
     inkscape:window-x="0"
     inkscape:window-y="0"
     inkscape:window-maximized="1"
     inkscape:current-layer="svg22" />
  <defs
     id="defs22">
    <linearGradient
       id="linearGradient22"
       inkscape:collect="always">
      <stop
         style="stop-color:#9955ff;stop-opacity:1"
         offset="0"
         id="stop23" />
      <stop
         style="stop-color:#ff8080;stop-opacity:1"
         offset="1"
         id="stop24" />
    </linearGradient>
    <style
       id="current-color-scheme"
       type="text/css">&#10;   .ColorScheme-Text { color:#d5c289; } .ColorScheme-Highlight { color:#5294e2; }&#10;  </style>
    <linearGradient
       id="arrongin"
       x1="0%"
       x2="0%"
       y1="0%"
       y2="100%">
      <stop
         offset="0%"
         style="stop-color:#dd9b44; stop-opacity:1"
         id="stop1" />
      <stop
         offset="100%"
         style="stop-color:#ad6c16; stop-opacity:1"
         id="stop2" />
    </linearGradient>
    <linearGradient
       id="aurora"
       x1="0%"
       x2="0%"
       y1="0%"
       y2="100%">
      <stop
         offset="0%"
         style="stop-color:#09D4DF; stop-opacity:1"
         id="stop3" />
      <stop
         offset="100%"
         style="stop-color:#9269F4; stop-opacity:1"
         id="stop4" />
    </linearGradient>
    <linearGradient
       id="fitdance"
       x1="0%"
       x2="0%"
       y1="0%"
       y2="100%">
      <stop
         offset="0%"
         style="stop-color:#1AD6AB; stop-opacity:1"
         id="stop5" />
      <stop
         offset="100%"
         style="stop-color:#329DB6; stop-opacity:1"
         id="stop6" />
    </linearGradient>
    <linearGradient
       id="oomox"
       x1="832.37583"
       x2="832.37583"
       y1="465.3418"
       y2="479.35616"
       gradientTransform="matrix(1.0703309,0,0,1.0702868,-58.417093,-33.549198)"
       gradientUnits="userSpaceOnUse">
      <stop
         offset="0%"
         style="stop-color:#303b3d; stop-opacity:1"
         id="stop7" />
      <stop
         offset="100%"
         style="stop-color:#bc985d; stop-opacity:1"
         id="stop8" />
    </linearGradient>
    <linearGradient
       id="rainblue"
       x1="0%"
       x2="0%"
       y1="0%"
       y2="100%">
      <stop
         offset="0%"
         style="stop-color:#00F260; stop-opacity:1"
         id="stop9" />
      <stop
         offset="100%"
         style="stop-color:#0575E6; stop-opacity:1"
         id="stop10" />
    </linearGradient>
    <linearGradient
       id="sunrise"
       x1="0%"
       x2="0%"
       y1="0%"
       y2="100%">
      <stop
         offset="0%"
         style="stop-color: #FF8501; stop-opacity:1"
         id="stop11" />
      <stop
         offset="100%"
         style="stop-color: #FFCB01; stop-opacity:1"
         id="stop12" />
    </linearGradient>
    <linearGradient
       id="telinkrin"
       x1="0%"
       x2="0%"
       y1="0%"
       y2="100%">
      <stop
         offset="0%"
         style="stop-color: #b2ced6; stop-opacity:1"
         id="stop13" />
      <stop
         offset="100%"
         style="stop-color: #6da5b7; stop-opacity:1"
         id="stop14" />
    </linearGradient>
    <linearGradient
       id="60spsycho"
       x1="0%"
       x2="0%"
       y1="0%"
       y2="100%">
      <stop
         offset="0%"
         style="stop-color: #df5940; stop-opacity:1"
         id="stop15" />
      <stop
         offset="25%"
         style="stop-color: #d8d15f; stop-opacity:1"
         id="stop16" />
      <stop
         offset="50%"
         style="stop-color: #e9882a; stop-opacity:1"
         id="stop17" />
      <stop
         offset="100%"
         style="stop-color: #279362; stop-opacity:1"
         id="stop18" />
    </linearGradient>
    <linearGradient
       id="90ssummer"
       x1="0%"
       x2="0%"
       y1="0%"
       y2="100%">
      <stop
         offset="0%"
         style="stop-color: #f618c7; stop-opacity:1"
         id="stop19" />
      <stop
         offset="20%"
         style="stop-color: #94ffab; stop-opacity:1"
         id="stop20" />
      <stop
         offset="50%"
         style="stop-color: #fbfd54; stop-opacity:1"
         id="stop21" />
      <stop
         offset="100%"
         style="stop-color: #0f83ae; stop-opacity:1"
         id="stop22" />
    </linearGradient>
    <linearGradient
       inkscape:collect="always"
       xlink:href="#linearGradient22"
       id="linearGradient24"
       x1="832.82452"
       y1="479.16879"
       x2="842.62079"
       y2="469.91965"
       gradientUnits="userSpaceOnUse" />
  </defs>
  <g
     transform="matrix(0.79999955,0,0,0.79999955,-663.99962,-369.59979)"
     id="g22">
    <path
       class="ColorScheme-Text"
       d="m 835.72221,464.5 a 0.53477231,0.53553677 0 0 0 -0.53479,0.53555 0.53477231,0.53553677 0 0 0 0.53479,0.53556 v 0.011 a 2.0171611,2.3210165 0 0 1 1.58291,1.18888 4.2781783,5.3553677 0 0 0 -1.35829,2.43134 6.4493542,5.3553677 0 0 0 0.021,0.011 5.7370374,5.7452386 0 0 0 -2.9413,2.90262 c -1.2834,2.82763 -0.13896,6.10513 2.54558,7.33686 a 0.53370275,0.53446568 0 0 0 0.7059,-0.26776 l 0.95188,-2.09931 a 4.2781783,5.6231362 0 0 0 2.77009,1.33884 4.2781783,5.6231362 0 0 0 2.75945,-1.33884 l 0.96261,2.09931 c 0.11761,0.26776 0.43847,0.38558 0.7059,0.25705 2.68454,-1.22102 3.82894,-4.49852 2.54548,-7.33685 a 5.7381066,5.7463093 0 0 0 -2.94123,-2.89192 6.4493542,5.3553677 0 0 0 0.011,-0.011 4.2781783,5.3553677 0 0 0 -1.35834,-2.43134 2.0171611,2.3210165 0 0 1 1.59364,-1.18888 v -0.011 a 0.53477231,0.53553677 0 0 0 0.53477,-0.53556 0.53477231,0.53553677 0 0 0 -0.53477,-0.53555 0.53477231,0.53553677 0 0 0 -0.18184,0.032 3.0867056,3.39209 0 0 0 -2.25671,1.56378 4.2781783,5.3553677 0 0 0 -1.83966,-0.52476 4.2781783,5.3553677 0 0 0 -1.83959,0.53546 3.0867056,3.39209 0 0 0 -2.25676,-1.57448 0.53477231,0.53553677 0 0 0 -0.18166,-0.032 z m 1.65778,5.41963 a 6.4493542,5.3553677 0 0 0 1.74334,0.41769 l -2.59898,5.73025 -0.97326,2.13147 c -1.79683,-1.13534 -2.50273,-3.53455 -1.55085,-5.64457 a 4.5936942,4.6002609 0 0 1 2.29949,-2.30283 c 0.0858,-0.043 0.18185,-0.075 0.27813,-0.10707 a 4.4386103,4.4449553 0 0 1 0.72726,-0.21424 z m 5.24078,0 0.0535,0.011 c 0.28877,0.054 0.57757,0.13926 0.85564,0.24635 0.0538,0.0211 0.0958,0.043 0.14973,0.064 a 4.5947636,4.6013318 0 0 1 2.32092,2.31352 c 0.95189,2.11002 0.24599,4.50923 -1.55085,5.64457 l -0.97327,-2.14217 -2.59899,-5.71955 a 6.4493542,5.3553677 0 0 0 1.74336,-0.41769 z"
       id="path22"
       style="fill:url(#linearGradient24)" />
  </g>
</svg>
