<?xml version="1.0" encoding="UTF-8" standalone="no"?>
<svg
   style="isolation:isolate"
   width="16"
   height="16"
   viewBox="0 0 16 16"
   version="1.1"
   id="svg22"
   sodipodi:docname="utilities-terminal_su.svg"
   inkscape:version="1.3 (0e150ed6c4, 2023-07-21)"
   xmlns:inkscape="http://www.inkscape.org/namespaces/inkscape"
   xmlns:sodipodi="http://sodipodi.sourceforge.net/DTD/sodipodi-0.dtd"
   xmlns:xlink="http://www.w3.org/1999/xlink"
   xmlns="http://www.w3.org/2000/svg"
   xmlns:svg="http://www.w3.org/2000/svg">
  <sodipodi:namedview
     id="namedview22"
     pagecolor="#ffffff"
     bordercolor="#000000"
     borderopacity="0.25"
     inkscape:showpageshadow="2"
     inkscape:pageopacity="0.0"
     inkscape:pagecheckerboard="0"
     inkscape:deskcolor="#d1d1d1"
     inkscape:zoom="23.96875"
     inkscape:cx="-1.1890482"
     inkscape:cy="8.1981747"
     inkscape:window-width="1920"
     inkscape:window-height="994"
     inkscape:window-x="0"
     inkscape:window-y="0"
     inkscape:window-maximized="1"
     inkscape:current-layer="svg22" />
  <defs
     id="defs22">
    <linearGradient
       id="linearGradient22"
       inkscape:collect="always">
      <stop
         style="stop-color:#ff42ff;stop-opacity:1;"
         offset="0"
         id="stop23" />
      <stop
         style="stop-color:#ff5555;stop-opacity:1"
         offset="1"
         id="stop24" />
    </linearGradient>
    <style
       id="current-color-scheme"
       type="text/css">&#10;   .ColorScheme-Text { color:#d5c289; } .ColorScheme-Highlight { color:#5294e2; }&#10;  </style>
    <linearGradient
       id="arrongin"
       x1="0"
       x2="0"
       y1="0"
       y2="1">
      <stop
         offset="0%"
         style="stop-color:#dd9b44; stop-opacity:1"
         id="stop1" />
      <stop
         offset="100%"
         style="stop-color:#ad6c16; stop-opacity:1"
         id="stop2" />
    </linearGradient>
    <linearGradient
       id="aurora"
       x1="0"
       x2="0"
       y1="0"
       y2="1">
      <stop
         offset="0%"
         style="stop-color:#09D4DF; stop-opacity:1"
         id="stop3" />
      <stop
         offset="100%"
         style="stop-color:#9269F4; stop-opacity:1"
         id="stop4" />
    </linearGradient>
    <linearGradient
       id="fitdance"
       x1="0"
       x2="0"
       y1="0"
       y2="1">
      <stop
         offset="0%"
         style="stop-color:#1AD6AB; stop-opacity:1"
         id="stop5" />
      <stop
         offset="100%"
         style="stop-color:#329DB6; stop-opacity:1"
         id="stop6" />
    </linearGradient>
    <linearGradient
       id="oomox"
       x1="0"
       x2="0"
       y1="0"
       y2="1">
      <stop
         offset="0%"
         style="stop-color:#303b3d; stop-opacity:1"
         id="stop7" />
      <stop
         offset="100%"
         style="stop-color:#bc985d; stop-opacity:1"
         id="stop8" />
    </linearGradient>
    <linearGradient
       id="rainblue"
       x1="0"
       x2="0"
       y1="0"
       y2="1">
      <stop
         offset="0%"
         style="stop-color:#00F260; stop-opacity:1"
         id="stop9" />
      <stop
         offset="100%"
         style="stop-color:#0575E6; stop-opacity:1"
         id="stop10" />
    </linearGradient>
    <linearGradient
       id="sunrise"
       x1="0"
       x2="0"
       y1="0"
       y2="1">
      <stop
         offset="0%"
         style="stop-color: #FF8501; stop-opacity:1"
         id="stop11" />
      <stop
         offset="100%"
         style="stop-color: #FFCB01; stop-opacity:1"
         id="stop12" />
    </linearGradient>
    <linearGradient
       id="telinkrin"
       x1="0"
       x2="0"
       y1="0"
       y2="1">
      <stop
         offset="0%"
         style="stop-color: #b2ced6; stop-opacity:1"
         id="stop13" />
      <stop
         offset="100%"
         style="stop-color: #6da5b7; stop-opacity:1"
         id="stop14" />
    </linearGradient>
    <linearGradient
       id="60spsycho"
       x1="0"
       x2="0"
       y1="0"
       y2="1">
      <stop
         offset="0%"
         style="stop-color: #df5940; stop-opacity:1"
         id="stop15" />
      <stop
         offset="25%"
         style="stop-color: #d8d15f; stop-opacity:1"
         id="stop16" />
      <stop
         offset="50%"
         style="stop-color: #e9882a; stop-opacity:1"
         id="stop17" />
      <stop
         offset="100%"
         style="stop-color: #279362; stop-opacity:1"
         id="stop18" />
    </linearGradient>
    <linearGradient
       id="90ssummer"
       x1="0"
       x2="0"
       y1="0"
       y2="1">
      <stop
         offset="0%"
         style="stop-color: #f618c7; stop-opacity:1"
         id="stop19" />
      <stop
         offset="20%"
         style="stop-color: #94ffab; stop-opacity:1"
         id="stop20" />
      <stop
         offset="50%"
         style="stop-color: #fbfd54; stop-opacity:1"
         id="stop21" />
      <stop
         offset="100%"
         style="stop-color: #0f83ae; stop-opacity:1"
         id="stop22" />
    </linearGradient>
    <linearGradient
       inkscape:collect="always"
       xlink:href="#linearGradient22"
       id="linearGradient25"
       x1="317.30087"
       y1="280.79498"
       x2="317.30087"
       y2="284.26617"
       gradientTransform="scale(0.86666306,1.153851)"
       gradientUnits="userSpaceOnUse" />
    <linearGradient
       id="linearGradient28"
       x1="0"
       x2="0"
       y1="0"
       y2="1">
      <stop
         offset="0"
         style="stop-color:#00d3d3;stop-opacity:1;"
         id="stop27" />
      <stop
         offset="1"
         style="stop-color:#ac8adf;stop-opacity:1;"
         id="stop28" />
    </linearGradient>
    <linearGradient
       inkscape:collect="always"
       xlink:href="#linearGradient22"
       id="linearGradient27"
       x1="278"
       y1="328.5"
       x2="281"
       y2="328.5"
       gradientUnits="userSpaceOnUse" />
    <linearGradient
       inkscape:collect="always"
       xlink:href="#linearGradient22"
       id="linearGradient8"
       x1="147"
       y1="462"
       x2="167"
       y2="439"
       gradientUnits="userSpaceOnUse" />
  </defs>
  <g
     transform="matrix(1.0756565,0,0,1.1067118,-291.02871,-353.03872)"
     id="g23">
    <path
       style="color:#d5c289;fill:url(#linearGradient25)"
       class="ColorScheme-Text"
       d="m 275.47266,323.99609 a 0.50005,0.50005 0 0 0 -0.27344,0.9043 l 1.4668,1.09961 -1.4668,1.09961 a 0.50078015,0.50078015 0 1 0 0.60156,0.80078 l 2,-1.5 a 0.50005,0.50005 0 0 0 0,-0.80078 l -2,-1.5 a 0.50005,0.50005 0 0 0 -0.32812,-0.10352 z"
       id="path23" />
    <rect
       class="ColorScheme-Text"
       width="3"
       height="1"
       x="278"
       y="328"
       id="rect23"
       style="color:#d5c289;fill:url(#linearGradient27)"
       ry="0.53634512"
       rx="0.56581467" />
  </g>
  <g
     transform="matrix(0.46153829,0,0,0.42857143,-65.846143,-184)"
     id="g2">
    <path
       d="M 171,445.707 V 438 c 0,-0.796 -0.316,-1.559 -0.879,-2.121 C 169.559,435.316 168.796,435 168,435 h -8.5 v 0.028 l -0.244,-0.226 C 158.701,434.286 157.9715,434 157.2145,434 H 150 c -1.657,0 -3,1.343 -3,3 v 22 c 0,0.796 0.316,1.559 0.879,2.121 0.562,0.563 1.325,0.879 2.121,0.879 h 20 c 0.796,0 1.559,-0.316 2.121,-0.879 C 172.684,460.559 173,459.796 173,459 v -10.128 c 0,-0.834 -0.347,-1.631 -0.959,-2.198 z m 0,3.165 V 459 c 0,0.265 -0.105,0.52 -0.293,0.707 -0.187,0.188 -0.442,0.13916 -0.707,0.13916 h -20 c -0.265,0 -0.52,0.0488 -0.707,-0.13916 -0.188,-0.187 -0.2937,-0.442 -0.29301,-0.707 l 0.0575,-22 c 0.001,-0.552 0.39051,-0.84615 0.94251,-0.84615 h 7.215 c 0.252,0 0.495,-0.0588 0.68,0.11315 l 12.785,11.872 c 0.204,0.19 0.32,0.455 0.32,0.733 z M 161.623,437 169,443.85 V 438 c 0,-0.265 -0.105,-0.52 -0.293,-0.707 C 168.52,437.105 168.265,437 168,437 Z m -8.62301,-0.84615 z"
       id="path1-0"
       style="fill:url(#linearGradient8)"
       sodipodi:nodetypes="cscscccsssscsscssccsscsscssssccscscscccccsccc" />
  </g>
</svg>
