<?xml version="1.0" encoding="UTF-8" standalone="no"?>
<svg
   width="16"
   height="16"
   version="1.1"
   id="svg22"
   sodipodi:docname="veracrypt.svg"
   inkscape:version="1.3 (0e150ed6c4, 2023-07-21)"
   xmlns:inkscape="http://www.inkscape.org/namespaces/inkscape"
   xmlns:sodipodi="http://sodipodi.sourceforge.net/DTD/sodipodi-0.dtd"
   xmlns="http://www.w3.org/2000/svg"
   xmlns:svg="http://www.w3.org/2000/svg">
  <defs
     id="defs22" />
  <sodipodi:namedview
     id="namedview22"
     pagecolor="#ffffff"
     bordercolor="#000000"
     borderopacity="0.25"
     inkscape:showpageshadow="2"
     inkscape:pageopacity="0.0"
     inkscape:pagecheckerboard="0"
     inkscape:deskcolor="#d1d1d1"
     inkscape:zoom="5.9921875"
     inkscape:cx="36.964798"
     inkscape:cy="33.794003"
     inkscape:window-width="1920"
     inkscape:window-height="994"
     inkscape:window-x="0"
     inkscape:window-y="0"
     inkscape:window-maximized="1"
     inkscape:current-layer="svg22" />
  <path
     d="m 16,12.999708 h -2.666795 v -1.730527 l 1.333532,-0.767624 z"
     fill="#2bac8f"
     id="path1"
     style="stroke-width:0.275436" />
  <path
     d="m 14.666475,10.501557 h -2.666538 l 0.266698,1.344068 1.06657,1.154083 z"
     fill="#2e997c"
     id="path2"
     style="stroke-width:0.275436" />
  <path
     d="M 13.333723,12.999708 H 10.66692 l 0.533421,-1.730527 0.799855,-0.767624 z"
     fill="#278768"
     id="path3"
     style="stroke-width:0.275436" />
  <path
     d="M 10.666413,8.0019094 9.599847,7.2287075 7.9996106,8.0019094 9.333143,10.500086 Z"
     fill="#21674f"
     id="path4"
     style="stroke-width:0.275436" />
  <path
     d="m 12.000451,10.501557 -1.333016,-0.386763 -1.333524,0.386763 1.33379,2.498151 z"
     fill="#2a8d70"
     id="path5"
     style="stroke-width:0.275436" />
  <path
     d="M 12.000451,10.499193 H 9.334431 L 9.98958,9.271293 10.667435,8.0010384 Z"
     fill="#2f9f81"
     id="path6"
     style="stroke-width:0.275436" />
  <path
     d="m 16,3 h -2.666535 v 1.3390767 l 1.333272,1.1593816 z"
     fill="#96cfba"
     id="path7"
     style="stroke-width:0.275436" />
  <path
     d="M 14.666475,5.4984583 H 11.999418 L 12.266379,3.7620311 13.332685,3.0002969 Z"
     fill="#85c8b1"
     id="path8"
     style="stroke-width:0.275436" />
  <path
     d="M 13.333723,3 H 10.66692 v 1.3390767 l 1.333017,1.1593816 z"
     fill="#6bbfa4"
     id="path9"
     style="stroke-width:0.275436" />
  <path
     d="M 12.000451,5.498749 10.667435,6.0702081 9.333911,5.498749 10.667435,3.0005896 Z"
     fill="#52b99b"
     id="path10"
     style="stroke-width:0.275436" />
  <path
     d="m 12.000451,5.5008103 h -2.66602 l 0.26671,1.1484914 1.06656,1.349967 z"
     fill="#44b799"
     id="path11"
     style="stroke-width:0.275436" />
  <path
     d="M 10.666413,7.9998563 H 7.9998715 L 9.333399,5.5013959 Z"
     fill="#33b394"
     id="path12"
     style="stroke-width:0.275436" />
  <path
     d="M 9.332877,10.499785 7.9998715,11.267412 6.6663445,10.499785 7.9998715,8.0013311 Z"
     fill="#2da4ad"
     id="path13"
     style="stroke-width:0.275436" />
  <path
     d="M 9.333399,10.501557 H 6.6663445 l 0.042543,1.62524 L 7.9998591,13 Z"
     fill="#2f98af"
     id="path14"
     style="stroke-width:0.275436" />
  <path
     d="M 7.9991003,12.999708 H 5.3323014 v -1.730527 l 1.3335284,-0.767624 0.6572205,1.231429 z"
     fill="#0d657a"
     id="path15"
     style="stroke-width:0.275436" />
  <path
     d="M 6.6663445,10.501557 5.332818,10.114503 3.9992907,10.501259 5.3330756,12.999708"
     fill="#2a69b1"
     id="path16"
     style="stroke-width:0.275436" />
  <path
     d="M 6.6663445,10.499193 H 3.9998059 L 4.2665118,8.958947 5.3330756,8.0010384 Z"
     fill="#2077bc"
     id="path17"
     style="stroke-width:0.275436" />
  <path
     d="M 5.332818,8.0019094 3.7331012,7.2287075 2.6662795,8.0019094 3.9998059,10.500086"
     fill="#2886c7"
     id="path18"
     style="stroke-width:0.275436" />
  <path
     d="M 5.3333331,7.9998563 H 2.6665379 V 6.0725591 L 4.0000646,5.5011 Z"
     fill="#238dcd"
     id="path19"
     style="stroke-width:0.275436" />
  <path
     d="M 4.0075435,5.4934584 2.6662795,4.9111201 1.3327533,5.4934584 2.6701485,7.9992687"
     fill="#1a9cd1"
     id="path20"
     style="stroke-width:0.275436" />
  <path
     d="M 3.9995483,5.4984583 H 1.333011 L 1.5999739,4.3390767 2.6665379,3 Z"
     fill="#0ea6d3"
     id="path21"
     style="stroke-width:0.275436" />
  <path
     d="M 2.6665379,3 H 0 l 1.3335268,2.4984583 z"
     fill="#08abd8"
     id="path22"
     style="stroke-width:0.275436" />
</svg>
