<?xml version="1.0" encoding="UTF-8" standalone="no"?>
<svg
   width="16"
   height="16"
   version="1.1"
   id="svg23"
   sodipodi:docname="vokoscreen.svg"
   inkscape:version="1.3 (0e150ed6c4, 2023-07-21)"
   xmlns:inkscape="http://www.inkscape.org/namespaces/inkscape"
   xmlns:sodipodi="http://sodipodi.sourceforge.net/DTD/sodipodi-0.dtd"
   xmlns:xlink="http://www.w3.org/1999/xlink"
   xmlns="http://www.w3.org/2000/svg"
   xmlns:svg="http://www.w3.org/2000/svg">
  <sodipodi:namedview
     id="namedview23"
     pagecolor="#ffffff"
     bordercolor="#000000"
     borderopacity="0.25"
     inkscape:showpageshadow="2"
     inkscape:pageopacity="0.0"
     inkscape:pagecheckerboard="0"
     inkscape:deskcolor="#d1d1d1"
     inkscape:zoom="16.948466"
     inkscape:cx="8.6143491"
     inkscape:cy="0.44251793"
     inkscape:window-width="1920"
     inkscape:window-height="994"
     inkscape:window-x="0"
     inkscape:window-y="0"
     inkscape:window-maximized="1"
     inkscape:current-layer="svg23" />
  <defs
     id="defs22">
    <linearGradient
       id="linearGradient29"
       inkscape:collect="always">
      <stop
         style="stop-color:#feac5e;stop-opacity:1;"
         offset="0"
         id="stop27" />
      <stop
         style="stop-color:#c779d0;stop-opacity:1;"
         offset="0.66666669"
         id="stop28" />
      <stop
         style="stop-color:#4bc0c8;stop-opacity:1;"
         offset="1"
         id="stop29" />
    </linearGradient>
    <linearGradient
       id="linearGradient23"
       inkscape:collect="always">
      <stop
         style="stop-color:#feac5e;stop-opacity:1;"
         offset="0"
         id="stop23" />
      <stop
         style="stop-color:#c779d0;stop-opacity:1;"
         offset="0.50724912"
         id="stop25" />
      <stop
         style="stop-color:#4bc0c8;stop-opacity:1;"
         offset="1"
         id="stop24" />
    </linearGradient>
    <style
       id="current-color-scheme"
       type="text/css">&#10;   .ColorScheme-Text { color:#d5c289; } .ColorScheme-Highlight { color:#5294e2; }&#10;  </style>
    <linearGradient
       id="arrongin"
       x1="0%"
       x2="0%"
       y1="0%"
       y2="100%">
      <stop
         offset="0%"
         style="stop-color:#dd9b44; stop-opacity:1"
         id="stop1" />
      <stop
         offset="100%"
         style="stop-color:#ad6c16; stop-opacity:1"
         id="stop2" />
    </linearGradient>
    <linearGradient
       id="aurora"
       x1="0%"
       x2="0%"
       y1="0%"
       y2="100%">
      <stop
         offset="0%"
         style="stop-color:#09D4DF; stop-opacity:1"
         id="stop3" />
      <stop
         offset="100%"
         style="stop-color:#9269F4; stop-opacity:1"
         id="stop4" />
    </linearGradient>
    <linearGradient
       id="fitdance"
       x1="0%"
       x2="0%"
       y1="0%"
       y2="100%">
      <stop
         offset="0%"
         style="stop-color:#1AD6AB; stop-opacity:1"
         id="stop5" />
      <stop
         offset="100%"
         style="stop-color:#329DB6; stop-opacity:1"
         id="stop6" />
    </linearGradient>
    <linearGradient
       id="oomox"
       x1="0%"
       x2="0%"
       y1="0%"
       y2="100%">
      <stop
         offset="0%"
         style="stop-color:#303b3d; stop-opacity:1"
         id="stop7" />
      <stop
         offset="100%"
         style="stop-color:#bc985d; stop-opacity:1"
         id="stop8" />
    </linearGradient>
    <linearGradient
       id="rainblue"
       x1="0%"
       x2="0%"
       y1="0%"
       y2="100%">
      <stop
         offset="0%"
         style="stop-color:#00F260; stop-opacity:1"
         id="stop9" />
      <stop
         offset="100%"
         style="stop-color:#0575E6; stop-opacity:1"
         id="stop10" />
    </linearGradient>
    <linearGradient
       id="sunrise"
       x1="0%"
       x2="0%"
       y1="0%"
       y2="100%">
      <stop
         offset="0%"
         style="stop-color: #FF8501; stop-opacity:1"
         id="stop11" />
      <stop
         offset="100%"
         style="stop-color: #FFCB01; stop-opacity:1"
         id="stop12" />
    </linearGradient>
    <linearGradient
       id="telinkrin"
       x1="0%"
       x2="0%"
       y1="0%"
       y2="100%">
      <stop
         offset="0%"
         style="stop-color: #b2ced6; stop-opacity:1"
         id="stop13" />
      <stop
         offset="100%"
         style="stop-color: #6da5b7; stop-opacity:1"
         id="stop14" />
    </linearGradient>
    <linearGradient
       id="60spsycho"
       x1="0%"
       x2="0%"
       y1="0%"
       y2="100%">
      <stop
         offset="0%"
         style="stop-color: #df5940; stop-opacity:1"
         id="stop15" />
      <stop
         offset="25%"
         style="stop-color: #d8d15f; stop-opacity:1"
         id="stop16" />
      <stop
         offset="50%"
         style="stop-color: #e9882a; stop-opacity:1"
         id="stop17" />
      <stop
         offset="100%"
         style="stop-color: #279362; stop-opacity:1"
         id="stop18" />
    </linearGradient>
    <linearGradient
       id="90ssummer"
       x1="0%"
       x2="0%"
       y1="0%"
       y2="100%">
      <stop
         offset="0%"
         style="stop-color: #f618c7; stop-opacity:1"
         id="stop19" />
      <stop
         offset="20%"
         style="stop-color: #94ffab; stop-opacity:1"
         id="stop20" />
      <stop
         offset="50%"
         style="stop-color: #fbfd54; stop-opacity:1"
         id="stop21" />
      <stop
         offset="100%"
         style="stop-color: #0f83ae; stop-opacity:1"
         id="stop22" />
    </linearGradient>
    <linearGradient
       inkscape:collect="always"
       xlink:href="#linearGradient23"
       id="linearGradient24"
       x1="392.82602"
       y1="180.80171"
       x2="405.94708"
       y2="194.84428"
       gradientUnits="userSpaceOnUse" />
    <linearGradient
       inkscape:collect="always"
       xlink:href="#linearGradient29"
       id="linearGradient27"
       x1="393"
       y1="187.99986"
       x2="408"
       y2="188"
       gradientUnits="userSpaceOnUse" />
    <linearGradient
       xlink:href="#linearGradient29"
       id="linearGradient4389-3-5"
       y1="524.79797"
       y2="515.79797"
       x2="0"
       gradientUnits="userSpaceOnUse"
       gradientTransform="matrix(0.49999957,0,0,0.49999957,-198.28531,-252.14875)" />
    <linearGradient
       id="linearGradient4435">
      <stop
         style="stop-color:#c61423"
         id="stop15-6" />
      <stop
         offset="1"
         style="stop-color:#dc2b41"
         id="stop17-1" />
    </linearGradient>
  </defs>
  <g
     transform="translate(-391.99991,-179.99994)"
     id="g23">
    <path
       class="ColorScheme-Text"
       d="m 395,183 c -0.65761,0 -1.17853,0.0599 -1.61719,0.22461 -0.43866,0.16467 -0.79039,0.46152 -0.99804,0.83789 -0.41532,0.75275 -0.3702,1.67345 -0.38477,2.93164 v 0.004 2.0039 0.004 c 0.0145,1.25819 -0.0306,2.17889 0.38477,2.93164 0.20766,0.37637 0.55938,0.67322 0.99804,0.83789 C 393.82148,192.94006 394.34239,193 395,193 h 6 c 0.65761,0 1.17852,-0.0599 1.61719,-0.22461 0.43866,-0.16466 0.79038,-0.46152 0.99804,-0.83789 0.41534,-0.75275 0.37025,-1.67344 0.38477,-2.93164 v -0.004 -2.0039 -0.004 c -0.0145,-1.2582 0.0306,-2.17889 -0.38477,-2.93164 -0.20766,-0.37637 -0.55938,-0.67323 -0.99804,-0.83789 C 402.17852,183.05994 401.65761,183 401,183 Z m 0,1 h 6 c 0.59239,0 1.00572,0.0626 1.26562,0.16016 0.25991,0.0976 0.37147,0.20135 0.47266,0.38476 0.20191,0.36596 0.24701,1.19655 0.26172,2.45508 v 1.99414 c -0.0146,1.26353 -0.0593,2.09217 -0.26172,2.45898 -0.1012,0.18341 -0.21274,0.28916 -0.47266,0.38672 C 402.00571,191.93741 401.59239,192 401,192 h -6 c -0.59239,0 -1.00572,-0.0626 -1.26562,-0.16016 -0.25991,-0.0976 -0.37147,-0.20331 -0.47266,-0.38672 C 393.05981,191.08717 393.01471,190.25852 393,189 v -0.006 -1.98828 V 187 c 0.0147,-1.25853 0.0598,-2.08912 0.26172,-2.45508 0.10119,-0.18341 0.21275,-0.2872 0.47266,-0.38476 C 393.99428,184.06259 394.40761,184 395,184 Z"
       id="path22"
       style="fill:url(#linearGradient24)" />
    <path
       class="ColorScheme-Text"
       d="m 408,184.71875 c -1.23971,0.58734 -2.98131,1.54153 -5,2.71094 v 1.14258 c 1.99268,1.15764 3.73306,2.10927 5,2.70898 z"
       id="path23"
       style="fill:url(#linearGradient27)" />
  </g>
  <circle
     cx="6.0000901"
     cy="8.0000601"
     style="fill:url(#linearGradient4389-3-5);stroke-width:1.4;stroke-opacity:0.550265"
     r="2.5"
     id="circle46-9-7" />
</svg>
