<?xml version="1.0" encoding="UTF-8" standalone="no"?>
<svg
   height="22"
   viewBox="0 0 5.821 5.821"
   width="22"
   version="1.1"
   id="svg1"
   sodipodi:docname="hotspot-symbolic.svg"
   inkscape:version="1.3.2 (091e20ef0f, 2023-11-25)"
   xmlns:inkscape="http://www.inkscape.org/namespaces/inkscape"
   xmlns:sodipodi="http://sodipodi.sourceforge.net/DTD/sodipodi-0.dtd"
   xmlns:xlink="http://www.w3.org/1999/xlink"
   xmlns="http://www.w3.org/2000/svg"
   xmlns:svg="http://www.w3.org/2000/svg">
  <sodipodi:namedview
     id="namedview1"
     pagecolor="#ffffff"
     bordercolor="#999999"
     borderopacity="1"
     inkscape:showpageshadow="2"
     inkscape:pageopacity="0"
     inkscape:pagecheckerboard="0"
     inkscape:deskcolor="#d1d1d1"
     inkscape:zoom="34.636364"
     inkscape:cx="11"
     inkscape:cy="11"
     inkscape:window-width="1920"
     inkscape:window-height="994"
     inkscape:window-x="0"
     inkscape:window-y="0"
     inkscape:window-maximized="1"
     inkscape:current-layer="svg1" />
  <defs
     id="defs1">
    <linearGradient
       id="linearGradient1"
       inkscape:collect="always">
      <stop
         style="stop-color:#00ccff;stop-opacity:1"
         offset="0"
         id="stop1" />
      <stop
         style="stop-color:#bc5fd3;stop-opacity:1"
         offset="1"
         id="stop2" />
    </linearGradient>
    <style
       type="text/css"
       id="current-color-scheme">.ColorScheme-Text { color: #fcfcfc; } </style>
    <linearGradient
       inkscape:collect="always"
       xlink:href="#linearGradient1"
       id="linearGradient2"
       x1="1.572032"
       y1="2.9095407"
       x2="4.3613799"
       y2="2.9095407"
       gradientUnits="userSpaceOnUse" />
  </defs>
  <path
     style="fill:url(#linearGradient2);fill-opacity:1;stroke:none"
     class="ColorScheme-Text"
     d="M2.75 3.404a.907.907 0 0 0-.094.007c-.468.06-.81.469-.824.945l.003.004c.026.042.056.085.082.134l.047-.048a.475.475 0 0 1 .176-.107.117.122 0 0 1 .098.22c.02-.012-.003.007-.012.048a.42.42 0 0 0-.004.13c.074.275.377.488.762.42.285-.068.562-.236.655-.595.06-.236.04-.461-.043-.653a.937.937 0 0 0-.846-.505zM3.246.239l-.017.19-.05.074-.021.14.03.075a.732.732 0 0 0 .024.06l.016.04.035-.124a2.69 2.69 0 0 0 .016-.057l.046-.161-.02-.144zm-.052.854a1.1 1.1 0 0 0-.083.16l-.073.142-.106.334a.301.301 0 0 0-.013.04l.166.271.085.089.031.032-.03-.191-.002-.017-.007-.682zM1.68 2.879l.01.371-.079.157-.009.277.076.139a.933.933 0 0 0 .017.033 1.03 1.03 0 0 1 .168-.378l.025-.158-.073-.275zM3.033.659c-.059.04-.114.083-.165.127l-.199.205-.213.353-.129.388-.048.425a2.43 2.43 0 0 0 .062.625v.002c.045.189.053.278.137.428.956-.167 1.59.571 1.376 1.368-.113.421-.46.624-.793.7-.469.081-.864-.172-.96-.527-.018-.117.01-.275.078-.315-.039.014-.086.03-.142.082-.095.09-.098.122-.222.156.06-.17-.273-.31-.213-.677l-.013.061c-.147.812.684 1.726 1.607 1.479a1.497 1.497 0 0 0 1.121-1.133c.071-.3.05-.608-.015-.867a1.71 1.71 0 0 0-.322-.638 2.196 2.196 0 0 0-.161-.181l-.002-.002-.004-.004a4.11 4.11 0 0 0-.376-.325l-.365-.316-.02-.021-.114-.15a.882.882 0 0 1-.026-.045l-.087-.25-.03-.342.042-.29a.879.879 0 0 1 .005-.019z"
     id="path1" />
</svg>
