<?xml version="1.0" encoding="UTF-8" standalone="no"?>
<svg
   viewBox="0 0 22 22"
   version="1.1"
   id="svg1"
   sodipodi:docname="kde-symbolic.svg"
   inkscape:version="1.3.2 (091e20ef0f, 2023-11-25)"
   xmlns:inkscape="http://www.inkscape.org/namespaces/inkscape"
   xmlns:sodipodi="http://sodipodi.sourceforge.net/DTD/sodipodi-0.dtd"
   xmlns:xlink="http://www.w3.org/1999/xlink"
   xmlns="http://www.w3.org/2000/svg"
   xmlns:svg="http://www.w3.org/2000/svg">
  <sodipodi:namedview
     id="namedview1"
     pagecolor="#ffffff"
     bordercolor="#999999"
     borderopacity="1"
     inkscape:showpageshadow="2"
     inkscape:pageopacity="0"
     inkscape:pagecheckerboard="0"
     inkscape:deskcolor="#d1d1d1"
     inkscape:zoom="34.636364"
     inkscape:cx="11"
     inkscape:cy="11"
     inkscape:window-width="1920"
     inkscape:window-height="994"
     inkscape:window-x="0"
     inkscape:window-y="0"
     inkscape:window-maximized="1"
     inkscape:current-layer="svg1" />
  <defs
     id="defs3051">
    <linearGradient
       id="linearGradient1"
       inkscape:collect="always">
      <stop
         style="stop-color:#5599ff;stop-opacity:1"
         offset="0"
         id="stop1" />
      <stop
         style="stop-color:#00ccff;stop-opacity:1"
         offset="1"
         id="stop2" />
    </linearGradient>
    <style
       type="text/css"
       id="current-color-scheme">.ColorScheme-Text { color: #fcfcfc; } </style>
    <linearGradient
       inkscape:collect="always"
       xlink:href="#linearGradient1"
       id="linearGradient2"
       x1="2.9999998"
       y1="1041.3622"
       x2="19"
       y2="1041.3622"
       gradientUnits="userSpaceOnUse" />
  </defs>
  <path
     style="fill:url(#linearGradient2);fill-opacity:1;stroke:none"
     d="m 12.338532,1033.3623 -2.8326777,0.2648 0,10.9399 2.8015387,-0.3823 0,-4.676 3.735415,5.176 2.926063,-0.8824 -3.828788,-4.97 3.859917,-4.7054 -2.988315,-0.647 -3.704286,4.7054 0.03122,-4.823 z m -6.3812958,2.6761 c -0.031669,0 -0.069523,0.017 -0.093407,0.03 l -1.0894896,1.0587 c -0.0464,0.046 -0.06524,0.1229 -0.031228,0.1765 l 1.2762647,1.9999 c -0.22912,0.3639 -0.3979586,0.7624 -0.5291917,1.176 l -2.3657544,0.4708 c -0.06596,0.017 -0.1244304,0.054 -0.1244304,0.1181 l 0,1.4705 c 0,0.062 0.060955,0.1314 0.1244304,0.1465 l 2.3034978,0.5294 c 0.1226483,0.4795 0.3089159,0.9352 0.5603035,1.3526 l -1.3385048,1.9119 c -0.037132,0.054 -0.017821,0.1314 0.031228,0.1765 l 1.0895061,1.0291 c 0.0464,0.042 0.1301352,0.064 0.1867586,0.03 l 2.0856111,-1.2056 c 0.41008,0.2235 0.8399555,0.41 1.3073987,0.5292 l 0.4980409,2.2057 c 0.01429,0.064 0.05727,0.1179 0.124442,0.1179 l 1.5564029,0 c 0.0656,0 0.139939,-0.057 0.155625,-0.1179 l 0.560303,-2.2057 c 0.481832,-0.1229 0.949588,-0.3248 1.369655,-0.5586 l 2.054466,1.294 c 0.05654,0.034 0.138693,0.017 0.18677,-0.03 l 1.089485,-1.0294 c 0.04668,-0.046 0.06543,-0.1229 0.03122,-0.1763 l -0.747078,-1.1761 -0.249027,0.088 c -0.03554,0.017 -0.07255,0 -0.09341,-0.03 0,0 -0.470824,-0.6738 -1.089489,-1.5294 -0.739591,1.3676 -2.246808,2.2941 -3.98442,2.2941 -2.4687221,0 -4.4824767,-1.873 -4.4824767,-4.2055 0,-1.7157 1.0908083,-3.1915 2.6459092,-3.8525 l 0,-1.0882 c -0.2830458,0.094 -0.5494623,0.1896 -0.8093519,0.3237 -1.931e-4,0 -0.030455,0 -0.031228,0 l -2.0855889,-1.2942 c -0.02836,-0.017 -0.061672,-0.032 -0.093419,-0.029 z"
     transform="translate(0,-1030.3622)"
     class="ColorScheme-Text"
     id="path1" />
</svg>
