<?xml version="1.0" encoding="UTF-8" standalone="no"?>
<svg
   height="22"
   width="22"
   version="1.1"
   id="svg256"
   sodipodi:docname="preferences-plugin.svg"
   inkscape:version="1.3.2 (091e20ef0f, 2023-11-25)"
   xmlns:inkscape="http://www.inkscape.org/namespaces/inkscape"
   xmlns:sodipodi="http://sodipodi.sourceforge.net/DTD/sodipodi-0.dtd"
   xmlns:xlink="http://www.w3.org/1999/xlink"
   xmlns="http://www.w3.org/2000/svg"
   xmlns:svg="http://www.w3.org/2000/svg">
  <defs
     id="defs260">
    <linearGradient
       id="linearGradient1"
       inkscape:collect="always">
      <stop
         style="stop-color:#ff4dff;stop-opacity:1;"
         offset="0"
         id="stop1" />
      <stop
         style="stop-color:#00ccff;stop-opacity:1"
         offset="1"
         id="stop2" />
    </linearGradient>
    <linearGradient
       gradientTransform="matrix(0.84996453,0,0,0.84991636,-362.54275,-477.02652)"
       gradientUnits="userSpaceOnUse"
       x2="426.69501"
       y2="499.92099"
       y1="547.67499"
       id="a-6"
       x1="389.32001">
      <stop
         stop-color="#18222a"
         style="stop-color:#1e2b35;stop-opacity:1"
         id="stop216" />
      <stop
         stop-color="#566069"
         offset="1"
         style="stop-color:#6d7983;stop-opacity:1"
         id="stop218" />
    </linearGradient>
    <linearGradient
       id="a-3">
      <stop
         offset="0"
         stop-color="#292c2f"
         id="stop8" />
      <stop
         offset="1"
         stop-opacity="0"
         id="stop10" />
    </linearGradient>
    <linearGradient
       id="d-6"
       gradientTransform="matrix(0.52174,0,0,0.53846,45.597466,-33.196963)"
       gradientUnits="userSpaceOnUse"
       x1="1.3329999"
       x2="1.3329999"
       y1="48.714001"
       y2="9.7139997">
      <stop
         offset="0"
         stop-color="#eef1f2"
         id="stop19-7" />
      <stop
         offset="1"
         stop-color="#f9fafb"
         id="stop21" />
    </linearGradient>
    <linearGradient
       id="b-3"
       gradientUnits="userSpaceOnUse"
       x1="6"
       x2="20"
       y1="5"
       y2="16"
       gradientTransform="matrix(0.38666491,0,0,0.38666491,-14.932957,-19.595831)">
      <stop
         offset="0"
         stop-color="#31363b"
         id="stop7" />
      <stop
         offset="1"
         stop-color="#232629"
         id="stop9" />
    </linearGradient>
    <linearGradient
       id="c-6"
       gradientUnits="userSpaceOnUse"
       x1="7"
       x2="14"
       y1="7"
       y2="14"
       gradientTransform="matrix(0.38666491,0,0,0.38666491,-14.932957,-19.595831)">
      <stop
         offset="0"
         stop-color="#292c2f"
         id="stop12" />
      <stop
         offset="1"
         stop-opacity="0"
         id="stop14" />
    </linearGradient>
    <linearGradient
       id="linearGradient919"
       gradientUnits="userSpaceOnUse"
       x1="-2.75001"
       x2="12.874999"
       y1="18.874969"
       y2="6.9999781"
       gradientTransform="matrix(0.61111108,0,0,0.61111108,6.3888885,-26.469276)">
      <stop
         offset="0"
         stop-color="#197cf1"
         id="stop225-7" />
      <stop
         offset="1"
         stop-color="#21c9fb"
         id="stop227-5" />
    </linearGradient>
    <linearGradient
       id="linearGradient923"
       gradientUnits="userSpaceOnUse"
       x1="24.749971"
       x2="12.249979"
       y1="18.249971"
       y2="-4.2499962"
       gradientTransform="matrix(0.61111108,0,0,0.61111108,6.3888885,-26.469276)">
      <stop
         offset="0"
         stop-color="#c6cdd1"
         id="stop230-3" />
      <stop
         offset="1"
         stop-color="#e0e5e7"
         id="stop232-5" />
    </linearGradient>
    <linearGradient
       id="linearGradient927"
       gradientTransform="matrix(0.6111107,0,0,0.36666646,3.5319444,-29.906763)"
       gradientUnits="userSpaceOnUse"
       x1="9"
       x2="3.7460971"
       y1="34"
       y2="22.724428">
      <stop
         offset="0"
         stop-color="#7cbaf8"
         id="stop235-6" />
      <stop
         offset="1"
         stop-color="#f4fcff"
         id="stop237-2" />
    </linearGradient>
    <linearGradient
       id="linearGradient4167">
      <stop
         style="stop-color:#a3be8c;stop-opacity:1;"
         offset="0"
         id="stop2-3" />
      <stop
         style="stop-color:#88c0d0;stop-opacity:1;"
         offset="1"
         id="stop4-6" />
    </linearGradient>
    <linearGradient
       id="linearGradient4426"
       x1="39.580002"
       x2="39.580002"
       y1="17.903"
       y2="20.146999"
       gradientUnits="userSpaceOnUse">
      <stop
         stop-color="#2e3440"
         stop-opacity=".25"
         offset="0"
         id="stop29850" />
      <stop
         stop-color="#2e3440"
         stop-opacity="0"
         offset="1"
         id="stop29852" />
    </linearGradient>
    <linearGradient
       id="b-36"
       gradientUnits="userSpaceOnUse"
       x1="12.200004"
       x2="12.200004"
       y1="16.999983"
       y2="4.9999828"
       gradientTransform="translate(0.82392402,-25.565363)">
      <stop
         offset="0"
         stop-color="#999a9c"
         id="stop7-7" />
      <stop
         offset="1"
         stop-color="#dcdfdf"
         id="stop9-5" />
    </linearGradient>
    <linearGradient
       inkscape:collect="always"
       xlink:href="#linearGradient1"
       id="linearGradient2"
       x1="2.0000119"
       y1="7.8983493"
       x2="13.999988"
       y2="13.796614"
       gradientUnits="userSpaceOnUse"
       gradientTransform="matrix(1.3333329,0,0,1.3333329,0.3333293,0.33333327)" />
  </defs>
  <sodipodi:namedview
     id="namedview258"
     pagecolor="#ffffff"
     bordercolor="#666666"
     borderopacity="1.0"
     inkscape:showpageshadow="2"
     inkscape:pageopacity="0.0"
     inkscape:pagecheckerboard="0"
     inkscape:deskcolor="#d1d1d1"
     showgrid="false"
     inkscape:zoom="21.454546"
     inkscape:cx="5.9194914"
     inkscape:cy="7.4110168"
     inkscape:window-width="1920"
     inkscape:window-height="994"
     inkscape:window-x="0"
     inkscape:window-y="0"
     inkscape:window-maximized="1"
     inkscape:current-layer="svg256" />
  <linearGradient
     id="a"
     gradientUnits="userSpaceOnUse"
     x1="-2.75001"
     x2="12.874999"
     y1="18.874969"
     y2="6.9999781"
     gradientTransform="matrix(0.61111108,0,0,0.61111108,6.3888885,-26.469276)">
    <stop
       offset="0"
       stop-color="#197cf1"
       id="stop225" />
    <stop
       offset="1"
       stop-color="#21c9fb"
       id="stop227" />
  </linearGradient>
  <linearGradient
     id="b"
     gradientUnits="userSpaceOnUse"
     x1="24.749971"
     x2="12.249979"
     y1="18.249971"
     y2="-4.2499962"
     gradientTransform="matrix(0.61111108,0,0,0.61111108,6.3888885,-26.469276)">
    <stop
       offset="0"
       stop-color="#c6cdd1"
       id="stop230" />
    <stop
       offset="1"
       stop-color="#e0e5e7"
       id="stop232" />
  </linearGradient>
  <linearGradient
     id="c"
     gradientTransform="matrix(0.6111107,0,0,0.36666646,3.5319444,-29.906763)"
     gradientUnits="userSpaceOnUse"
     x1="9"
     x2="3.7460971"
     y1="34"
     y2="22.724428">
    <stop
       offset="0"
       stop-color="#7cbaf8"
       id="stop235" />
    <stop
       offset="1"
       stop-color="#f4fcff"
       id="stop237" />
  </linearGradient>
  <path
     style="opacity:0.2;stroke-width:0.273501"
     d="m 9.6206876,3.2712953 c -0.916963,0 -1.655169,0.725691 -1.655169,1.627107 V 6.5255097 H 4.1034572 c -0.6113071,0 -1.1034452,0.4837932 -1.1034452,1.0847407 v 3.2542146 h 1.6551688 c 0.9169637,0 1.6551689,0.725691 1.6551689,1.627109 0,0.901409 -0.7382052,1.627116 -1.6551689,1.627116 H 3.000012 v 3.796568 C 3.000012,18.516207 3.4921501,19 4.1034572,19 h 3.8620614 v -1.084742 c 0,-0.9014 0.738206,-1.627102 1.655169,-1.627102 0.9169634,0 1.6551694,0.725702 1.6551694,1.627101 v 1.084742 h 3.310347 c 0.611297,0 1.103429,-0.483793 1.103429,-1.084742 v -3.796568 h 1.655178 c 0.916961,0 1.655177,-0.725706 1.655177,-1.627115 0,-0.901418 -0.738216,-1.627109 -1.655177,-1.627109 H 15.689633 V 7.6102504 c 0,-0.6009445 -0.492132,-1.0847406 -1.103429,-1.0847406 H 11.275857 V 4.8984023 c 0,-0.9014159 -0.738206,-1.627107 -1.6551694,-1.627107 z"
     id="path1" />
  <path
     d="m 9.6206876,3.0001122 c -0.916963,0 -1.655169,0.725691 -1.655169,1.6271072 V 6.2543267 H 4.1034572 c -0.6113071,0 -1.1034452,0.4837955 -1.1034452,1.0847406 v 3.2542147 h 1.6551688 c 0.9169637,0 1.6551689,0.725692 1.6551689,1.627106 0,0.90142 -0.7382052,1.627112 -1.6551689,1.627112 H 3.000012 v 3.796595 c 0,0.600924 0.4921381,1.08472 1.1034452,1.08472 h 3.8620614 v -1.08472 c 0,-0.901422 0.738206,-1.627125 1.655169,-1.627125 0.9169634,0 1.6551694,0.725703 1.6551694,1.627125 v 1.08472 h 3.310347 c 0.611297,0 1.103429,-0.483796 1.103429,-1.08472 V 13.8475 h 1.655178 c 0.916961,0 1.655177,-0.725692 1.655177,-1.627112 0,-0.901414 -0.738216,-1.627106 -1.655177,-1.627106 H 15.689633 V 7.3390673 c 0,-0.6009451 -0.492132,-1.0847406 -1.103429,-1.0847406 H 11.275857 V 4.6272194 c 0,-0.9014161 -0.738206,-1.6271072 -1.6551694,-1.6271072 z"
     id="path2"
     style="fill:url(#linearGradient2);stroke-width:0.273501" />
  <path
     style="opacity:0.1;fill:#ffffff;stroke-width:0.273501"
     d="M 9.620734,3 C 8.7037707,3 7.9655532,3.7257007 7.9655532,4.6271193 v 0.2711863 c 0,-0.9014161 0.7382175,-1.6271195 1.6551808,-1.6271195 0.916964,0 1.655181,0.7257034 1.655181,1.6271195 V 4.6271193 C 11.275915,3.7257007 10.537698,3.0000001 9.620734,3 Z M 4.1034661,6.2542388 c -0.6113097,0 -1.1034541,0.4837992 -1.1034541,1.0847445 v 0.2711882 c 0,-0.6009449 0.4921444,-1.0847467 1.1034541,-1.0847467 h 3.8620871 v -0.271186 z m 7.1724489,0 v 0.2711859 h 3.310357 c 0.611321,0 1.103466,0.483802 1.103466,1.0847468 V 7.3389833 c 0,-0.6009453 -0.492145,-1.0847445 -1.103466,-1.0847445 z m 4.413823,4.3389832 v 0.271185 h 1.655181 c 0.867279,0 1.573537,0.649467 1.647623,1.482524 0.0033,-0.04162 0.0062,-0.08353 0.0062,-0.126592 0,-0.901415 -0.738217,-1.627117 -1.655182,-1.627117 z M 6.2823546,12.491526 C 6.1510462,13.2617 5.4772601,13.847468 4.6551931,13.847468 H 3.000012 v 0.271191 h 1.6551811 c 0.822067,0 1.4958531,-0.58579 1.6271615,-1.355943 0.00828,0.04932 0.01527,0.09883 0.020475,0.148829 0.00457,-0.04909 0.00766,-0.09861 0.00766,-0.148829 0,-0.09328 -0.012898,-0.182238 -0.028013,-0.27119 z"
     id="path3" />
</svg>
