<?xml version="1.0" encoding="UTF-8" standalone="no"?>
<svg
   width="22"
   height="22"
   version="1.1"
   id="svg1"
   sodipodi:docname="steam_tray_mono.svg"
   inkscape:version="1.3.2 (091e20ef0f, 2023-11-25)"
   xmlns:inkscape="http://www.inkscape.org/namespaces/inkscape"
   xmlns:sodipodi="http://sodipodi.sourceforge.net/DTD/sodipodi-0.dtd"
   xmlns:xlink="http://www.w3.org/1999/xlink"
   xmlns="http://www.w3.org/2000/svg"
   xmlns:svg="http://www.w3.org/2000/svg">
  <sodipodi:namedview
     id="namedview1"
     pagecolor="#ffffff"
     bordercolor="#000000"
     borderopacity="1"
     inkscape:showpageshadow="2"
     inkscape:pageopacity="0"
     inkscape:pagecheckerboard="0"
     inkscape:deskcolor="#d1d1d1"
     inkscape:zoom="17.363636"
     inkscape:cx="10.712042"
     inkscape:cy="20.790576"
     inkscape:window-width="1920"
     inkscape:window-height="996"
     inkscape:window-x="0"
     inkscape:window-y="0"
     inkscape:window-maximized="1"
     inkscape:current-layer="svg1" />
  <defs
     id="defs1">
    <linearGradient
       id="linearGradient1"
       inkscape:collect="always">
      <stop
         style="stop-color:#00aad4;stop-opacity:1"
         offset="0"
         id="stop1" />
      <stop
         style="stop-color:#5fd3bc;stop-opacity:1"
         offset="1"
         id="stop2" />
    </linearGradient>
    <style
       id="current-color-scheme"
       type="text/css">
   .ColorScheme-Text { color:#dfdfdf; } .ColorScheme-Highlight { color:#4285f4; } .ColorScheme-NeutralText { color:#ff9800; } .ColorScheme-PositiveText { color:#4caf50; } .ColorScheme-NegativeText { color:#f44336; }
  </style>
    <linearGradient
       inkscape:collect="always"
       xlink:href="#linearGradient1"
       id="linearGradient2"
       x1="3.295958"
       y1="18.83246"
       x2="18.309095"
       y2="3.2251308"
       gradientUnits="userSpaceOnUse" />
  </defs>
  <path
     style="fill:url(#linearGradient2)"
     class="ColorScheme-Text"
     d="m 11.000194,3 c -4.2971754,0 -7.8032291,3.3881043 -7.9921875,7.638672 -2.612e-4,0.0059 0.00739,0.02162 0.00977,0.03125 a 8,8 0 0 1 0.00391,-0.0957 l 3.8984291,1.99414 A 2.5,2.5 0 0 1 8.5001936,12 a 2.5,2.5 0 0 1 0.05859,0.002 L 10.00605,9.587941 A 3.5,3.5 0 0 1 10.00015,9.5 3.5,3.5 0 0 1 13.50015,5.9999996 3.5,3.5 0 0 1 17.000151,9.5 3.5,3.5 0 0 1 13.50015,13 3.5,3.5 0 0 1 13.004056,12.96484 l -2.029296,1.18164 a 2.5,2.5 0 0 1 0.02539,0.353516 2.5,2.5 0 0 1 -2.5000004,2.5 2.5,2.5 0 0 1 -2.4999996,-2.5 2.5,2.5 0 0 1 0.011719,-0.150391 L 3.2443346,12.933594 a 8,8 0 0 1 -0.041016,-0.210938 c 0.00101,0.05524 0.010387,0.118484 0.029297,0.195313 C 4.0920411,16.409691 7.2432323,19 11.000193,19 c 4.418279,0 8.000001,-3.581722 8.000001,-8 0,-4.418278 -3.581722,-8 -8,-8 z m 2.5,4.4999999 a 2,2 0 0 0 -2,2.0000001 2,2 0 0 0 2,2 2,2 0 0 0 2.000001,-2 2,2 0 0 0 -2.000001,-2.0000001 z m 0,0.5 a 1.5,1.5 0 0 1 1.5,1.5000001 1.5,1.5 0 0 1 -1.5,1.5 1.5,1.5 0 0 1 -1.5,-1.5 1.5,1.5 0 0 1 1.5,-1.5000001 z M 8.5001936,13 a 1.5000003,1.5000003 0 0 0 -0.539062,0.101562 l 0.994141,0.507813 a 1.0001547,1.0001547 0 1 1 -0.910157,1.78125 L 7.0568346,14.884766 A 1.5000003,1.5000003 0 0 0 8.5001936,16 1.5000003,1.5000003 0 0 0 10.000194,14.5 1.5000003,1.5000003 0 0 0 8.5001936,13 Z"
     id="path1" />
</svg>
