<?xml version="1.0" encoding="UTF-8" standalone="no"?>
<svg
   width="22"
   height="22"
   version="1"
   id="svg419"
   sodipodi:docname="strawberry.svg"
   inkscape:version="1.3.2 (091e20ef0f, 2023-11-25)"
   xmlns:inkscape="http://www.inkscape.org/namespaces/inkscape"
   xmlns:sodipodi="http://sodipodi.sourceforge.net/DTD/sodipodi-0.dtd"
   xmlns:xlink="http://www.w3.org/1999/xlink"
   xmlns="http://www.w3.org/2000/svg"
   xmlns:svg="http://www.w3.org/2000/svg">
  <defs
     id="defs423">
    <linearGradient
       id="linearGradient1"
       inkscape:collect="always">
      <stop
         style="stop-color:#c83771;stop-opacity:1"
         offset="0"
         id="stop1" />
      <stop
         style="stop-color:#c83771;stop-opacity:1"
         offset="0.57944292"
         id="stop4" />
      <stop
         style="stop-color:#00a489;stop-opacity:1;"
         offset="0.83333331"
         id="stop3" />
      <stop
         style="stop-color:#00a489;stop-opacity:1"
         offset="1"
         id="stop2" />
    </linearGradient>
    <linearGradient
       inkscape:collect="always"
       xlink:href="#linearGradient1"
       id="linearGradient6"
       x1="3"
       y1="18"
       x2="20"
       y2="7"
       gradientUnits="userSpaceOnUse" />
  </defs>
  <sodipodi:namedview
     id="namedview421"
     pagecolor="#02334b"
     bordercolor="#000000"
     borderopacity="1"
     inkscape:showpageshadow="true"
     inkscape:pageopacity="0.0"
     inkscape:pagecheckerboard="true"
     inkscape:deskcolor="#02334b"
     showgrid="true"
     inkscape:zoom="7.375"
     inkscape:cx="-16"
     inkscape:cy="15.050847"
     inkscape:window-width="1920"
     inkscape:window-height="994"
     inkscape:window-x="0"
     inkscape:window-y="0"
     inkscape:window-maximized="1"
     inkscape:current-layer="svg419">
    <inkscape:grid
       id="grid1"
       units="px"
       originx="-32"
       originy="-10"
       spacingx="1"
       spacingy="1"
       empcolor="#0099e5"
       empopacity="0.30196078"
       color="#0099e5"
       opacity="0.14901961"
       empspacing="5"
       dotted="false"
       gridanglex="30"
       gridanglez="30"
       visible="true" />
  </sodipodi:namedview>
  <g
     id="22-22-strawberry"
     transform="rotate(-90,11,11)"
     style="fill:#bac8df;fill-opacity:1">
    <rect
       style="opacity:0.00100002;fill:#bac8df;fill-opacity:1"
       width="22"
       height="22"
       x="0"
       y="0"
       id="rect409" />
    <path
       style="opacity:1;fill:url(#linearGradient6);fill-opacity:1;stroke-width:0.973342"
       d="m 12.504164,3.0000203 c -0.0841,0 -0.10921,0.181015 -0.05735,0.4199219 0,0 0.149064,0.7619522 1.149089,1.3203125 0.695544,0.3629505 0.695138,0.573374 -0.0039,0.7910156 -0.304559,0.094846 -0.675715,0.273527 -0.823423,0.3984375 -0.243608,0.2060136 -0.154601,0.290926 0.95665,0.9160156 0.673788,0.3790096 1.350089,0.8002842 1.502519,0.9355469 0.264641,0.2348395 0.253553,0.2672029 -0.262758,0.7226562 -0.576391,0.5084535 -1.258264,1.6971555 -1.258264,2.1933595 0,0.268262 0.11281,0.291638 1.062125,0.207031 0.584006,-0.05205 1.225269,-0.118481 1.426646,-0.146485 l 0.366379,-0.05078 -0.05179,1.34961 c -0.02875,0.74213 -0.112692,1.534076 -0.186889,1.759765 -0.07421,0.22569 -0.104925,0.44416 -0.06847,0.486328 0.153499,0.17752 0.778794,-0.213548 1.208308,-0.755859 0.439098,-0.554422 0.467303,-0.566767 0.560661,-0.226563 0.314418,0.609879 0.453988,1.145229 0.941852,1.679688 0.108945,0.01131 0.191006,-0.136263 0.260907,-0.439453 0.215187,-0.933414 0.09977,-1.836435 -0.353425,-2.769531 -0.24421,-0.502807 -0.482705,-1.295915 -0.531057,-1.76172 -0.04834,-0.4658049 -0.127009,-1.0065695 -0.175791,-1.2031248 -0.07414,-0.2986775 0.06795,-0.4742129 0.873386,-1.0625 0.917073,-0.6698438 1.155445,-1.0509254 0.808616,-1.2988281 -0.08616,-0.061593 -0.541479,0.125064 -1.010311,0.4140624 -0.468831,0.2889975 -0.943939,0.5253907 -1.05657,0.5253907 -0.112636,0 -0.465438,-0.3625728 -0.784565,-0.8046875 -0.554612,-0.7683677 -0.581006,-0.8561844 -0.581006,-1.9902344 0,-1.0775591 -0.02865,-1.1900384 -0.309017,-1.2363281 -0.226602,-0.037414 -0.35818,0.085476 -0.494048,0.4648437 -0.1018,0.2842238 -0.235156,0.5175782 -0.297916,0.5175782 -0.06274,0 -0.688907,-0.3050904 -1.389644,-0.6777344 C 13.224397,3.3051127 12.58531,3.0000203 12.504049,3.0000203 Z m -0.827122,1.0410156 c -0.06285,0.00626 -0.09217,0.00375 -0.162835,0.011719 C 9.2000382,4.3136669 7.270273,5.8268719 5.0619041,9.1074422 4.3950982,10.097995 3.538459,11.369096 3.1578539,11.933614 c -1.603357,2.378122 -1.5350393,4.819444 0.1646847,5.845703 1.0985448,0.663275 2.1591703,0.925376 3.8395566,0.951172 0.8446204,0.01295 2.082873,0.07777 2.7496789,0.142578 1.8604099,0.180839 2.0933689,0.17624 3.4028609,-0.06445 1.465621,-0.269402 2.594812,-0.83045 3.502784,-1.738282 0.365688,-0.365628 0.807632,-1.062621 1.176847,-1.771484 -0.128761,-0.219608 -0.205117,-0.4261 -0.310864,-0.648437 -0.149311,0.132513 -0.284064,0.304158 -0.444092,0.404297 -0.17148,0.107294 -0.342007,0.200902 -0.586575,0.257812 -0.244566,0.05691 -0.725728,0.09377 -1.097279,-0.335938 -0.329481,-0.381027 -0.258207,-0.5705 -0.262757,-0.697265 -0.0048,-0.126766 0.0069,-0.213818 0.01853,-0.298828 0.02401,-0.170015 0.06174,-0.3253 0.116575,-0.492188 -0.03901,0.118766 0.03372,-0.17892 0.06476,-0.470703 0.03104,-0.291783 0.05873,-0.656165 0.07217,-1.001953 l 0.0078,-0.189453 c -0.257189,0.02598 -0.432158,0.04825 -0.723503,0.07422 -0.484579,0.04319 -0.731019,0.09436 -1.137989,0.01563 -0.203485,-0.03938 -0.543348,-0.17616 -0.749407,-0.488282 -0.206049,-0.312122 -0.201693,-0.589621 -0.201693,-0.730468 0,-0.7316494 0.264494,-1.1124668 0.549567,-1.6093751 C 13.503485,8.7493678 13.769335,8.4626057 14.023508,8.1679891 13.793814,8.028104 13.545895,7.8773568 13.281328,7.7285359 12.719235,7.4123537 12.439392,7.2933499 12.10448,6.9726765 12.02075,6.8925085 11.922211,6.7892054 11.832472,6.6074422 11.742747,6.4256789 11.684526,6.1348192 11.730702,5.8828328 11.823055,5.37886 12.070852,5.2414439 12.178496,5.1504109 12.284908,5.0604219 12.38144,5.0601939 12.48011,4.9980672 12.278119,4.7982545 11.972915,4.6066957 11.856529,4.4199422 11.771782,4.283957 11.727015,4.1618981 11.677042,4.0410359 Z m -0.717951,1.2871094 c -0.04936,0.1309597 -0.131764,0.2158767 -0.159135,0.3652344 -0.0955,0.5211216 -0.01526,0.9246172 0.168387,1.3183594 -0.08306,-0.01127 -0.170392,-0.014615 -0.260906,-0.00195 -0.304276,0.042563 -0.629539,0.2094159 -0.8345198,0.4257813 -0.364422,0.3846491 -0.394594,0.9780336 -0.06661,1.3242187 0.3279728,0.3461847 0.8901428,0.3143404 1.2545608,-0.070312 0.23012,-0.2428941 0.382212,-0.640227 0.394134,-0.9921875 0.0037,0.00345 0.0093,0.012406 0.01297,0.015625 0.363942,0.3484723 0.721405,0.5189479 1.123184,0.7382813 -0.03104,0.048977 -0.06245,0.06676 -0.09256,0.1191406 -0.261669,0.4561189 -0.686495,1.1409209 -0.686495,2.1269525 0,0.119083 0.01172,0.757085 0.37193,1.302734 0.147824,0.223913 0.31404,0.379275 0.482951,0.507812 -0.308021,0.383793 -0.327916,0.925365 -0.01853,1.251955 0.327972,0.346184 0.890143,0.314336 1.254561,-0.07031 0.180958,-0.191003 0.323896,-0.480972 0.383033,-0.767579 0.08778,-0.0081 0.176561,-0.01522 0.264605,-0.02344 -2.37e-4,0.0022 2.37e-4,0.0056 0,0.0078 -0.01031,0.0972 -0.03145,0.221389 -0.04808,0.314454 -0.0088,0.04653 -0.01224,0.04576 -0.02594,0.164063 -4.17e-4,0.0036 -0.0015,0.0115 -0.002,0.01563 -0.03775,0.142581 -0.08057,0.28344 -0.101774,0.433593 -0.01332,0.09437 -0.03514,0.27696 -0.02779,0.482422 -0.0058,-0.152837 -0.03348,0.128051 0.03331,0.4375 0.06683,0.309449 0.237021,0.618493 0.477404,0.896485 0.423646,0.489958 0.908552,0.613146 1.343382,0.642578 -0.0078,0.0079 -0.02642,0.04393 -0.03331,0.05078 -0.764744,0.764627 -1.686659,1.236432 -3.014282,1.480469 -0.829094,0.152392 -1.162105,0.197284 -1.759722,0.167969 0.218714,-0.01896 0.440898,-0.117723 0.616182,-0.302735 0.364415,-0.384651 0.579626,-1.173347 0.251653,-1.519531 -0.08199,-0.08654 -0.190888,-0.136813 -0.312716,-0.158203 -0.09134,-0.01609 -0.19094,-0.01614 -0.292362,-0.002 -0.304274,0.04256 -0.629538,0.209416 -0.834527,0.425781 -0.364417,0.38465 -0.394586,0.978033 -0.06661,1.324219 0.145542,0.153618 0.338437,0.219616 0.538463,0.226562 -0.318744,-0.01935 -0.695935,-0.0513 -1.2934189,-0.109375 C 9.2827802,17.807442 8.0521298,17.743936 7.175047,17.730489 5.5821691,17.706039 4.7563214,17.494039 3.7925371,16.912129 3.2189763,16.565825 2.9699193,16.086553 2.94876,15.334004 2.9276046,14.581456 3.2202705,13.56558 3.9294659,12.513692 4.3102303,11.948937 5.1664561,10.67845 5.8335159,9.6875203 7.723447,6.8799949 9.2610292,5.7449821 10.959091,5.3281453 Z M 6.9178434,9.0097859 C 6.6135672,9.0523489 6.2883025,9.2192016 6.0833185,9.4355672 5.7189005,9.8202165 5.6887287,10.413607 6.016707,10.759786 6.3446822,11.105971 6.9068536,11.074123 7.2712706,10.689476 7.6356875,10.304826 7.8508987,9.5161302 7.5229233,9.1699452 7.4409261,9.0833992 7.3320376,9.0331321 7.2102078,9.0117421 7.1188407,8.9957021 7.0192719,8.9956011 6.9178462,9.0097921 Z m 2.8421988,2.0000001 c -0.304277,0.04256 -0.629542,0.209415 -0.834527,0.425781 -0.364416,0.38465 -0.3945896,0.978034 -0.066611,1.324219 0.327974,0.346184 0.890149,0.314336 1.2545618,-0.07031 0.364416,-0.384649 0.579629,-1.173345 0.251655,-1.519531 -0.08199,-0.08654 -0.190888,-0.136813 -0.312714,-0.158203 -0.09136,-0.01609 -0.1909398,-0.01614 -0.2923618,-0.002 z m -4.7369966,2 c -0.3042761,0.04256 -0.62954,0.209415 -0.8345251,0.425781 -0.3644157,0.38465 -0.3945895,0.978034 -0.066611,1.324219 0.3279747,0.346184 0.890147,0.314336 1.254563,-0.07031 0.364417,-0.38465 0.5796291,-1.173346 0.2516527,-1.519531 -0.081998,-0.08655 -0.1908856,-0.136816 -0.3127154,-0.158206 -0.091366,-0.01609 -0.190936,-0.01614 -0.2923617,-0.002 z m 3.7895955,2 c -0.3042759,0.04256 -0.6295407,0.209415 -0.8345247,0.425781 -0.3644171,0.384648 -0.3945899,0.978033 -0.066612,1.324219 0.3279742,0.346184 0.8901476,0.314336 1.2545628,-0.07031 0.364419,-0.38465 0.579626,-1.173345 0.251652,-1.519531 -0.08198,-0.08655 -0.190885,-0.136816 -0.312715,-0.158206 -0.09138,-0.01609 -0.1909359,-0.01614 -0.2923616,-0.002 z"
       id="path411" />
  </g>
</svg>
