<?xml version="1.0" encoding="UTF-8" standalone="no"?>
<svg
   viewBox="0 0 16 16"
   version="1.1"
   id="svg2"
   sodipodi:docname="virt-manager-symbolic.svg"
   inkscape:version="1.3.2 (091e20ef0f, 2023-11-25)"
   xmlns:inkscape="http://www.inkscape.org/namespaces/inkscape"
   xmlns:sodipodi="http://sodipodi.sourceforge.net/DTD/sodipodi-0.dtd"
   xmlns:xlink="http://www.w3.org/1999/xlink"
   xmlns="http://www.w3.org/2000/svg"
   xmlns:svg="http://www.w3.org/2000/svg">
  <sodipodi:namedview
     id="namedview2"
     pagecolor="#ffffff"
     bordercolor="#000000"
     borderopacity="0.25"
     inkscape:showpageshadow="2"
     inkscape:pageopacity="0.0"
     inkscape:pagecheckerboard="0"
     inkscape:deskcolor="#d1d1d1"
     inkscape:zoom="11.984375"
     inkscape:cx="-0.83441982"
     inkscape:cy="-0.83441982"
     inkscape:window-width="1920"
     inkscape:window-height="994"
     inkscape:window-x="0"
     inkscape:window-y="0"
     inkscape:window-maximized="1"
     inkscape:current-layer="svg2" />
  <defs
     id="defs3051">
    <style
       type="text/css"
       id="current-color-scheme">
      .ColorScheme-Text {
        color:#232629;
      }
      </style>
    <linearGradient
       inkscape:collect="always"
       xlink:href="#linearGradient1"
       id="linearGradient4"
       x1="-3"
       y1="-4"
       x2="8.3990746"
       y2="-16.993114"
       gradientUnits="userSpaceOnUse"
       gradientTransform="matrix(0.28535684,0,0,0.28319688,22.750895,39.78689)" />
    <linearGradient
       id="linearGradient1"
       inkscape:collect="always">
      <stop
         style="stop-color:#e14e5c;stop-opacity:1;"
         offset="0"
         id="stop1" />
      <stop
         style="stop-color:#ffcb2f;stop-opacity:1;"
         offset="1"
         id="stop2" />
    </linearGradient>
    <linearGradient
       inkscape:collect="always"
       xlink:href="#linearGradient1"
       id="linearGradient8"
       x1="9"
       y1="-4.9999995"
       x2="21"
       y2="-17"
       gradientUnits="userSpaceOnUse"
       gradientTransform="matrix(0.67428791,0,0,0.69576773,1.8389479,15.100496)" />
    <linearGradient
       inkscape:collect="always"
       xlink:href="#linearGradient1"
       id="linearGradient5"
       x1="-7.8228397"
       y1="-17.537752"
       x2="11.390011"
       y2="-37.956394"
       gradientUnits="userSpaceOnUse"
       gradientTransform="matrix(0.42114807,0,0,0.40890152,11.202111,18.792871)" />
  </defs>
  <g
     id="g2">
    <g
       id="g1">
      <path
         d="M 4.3999324,3.8488491 C 4.4661073,3.5572293 4.7588957,3.3544996 5.033951,3.4174063 5.2726372,3.4594664 5.4479259,3.6830599 5.4898805,3.9307378 5.9653981,5.8392137 6.4558383,7.7447071 6.9201634,9.6562441 7.0935917,9.2717313 7.1831021,8.8412419 7.4050115,8.4857374 7.7499856,8.0423171 8.4967968,8.451796 8.3513819,9.0120541 8.0530054,9.8949301 7.6977747,10.756718 7.3816962,11.632568 7.3145811,11.84029 7.1849565,12.05408 6.9686426,12.098021 6.68427,12.190901 6.3569992,11.995099 6.2889315,11.683544 5.8758919,10.068678 5.4786917,8.448831 5.0675116,6.8329163 5.0060077,6.6122089 4.9509673,6.3895059 4.9267178,6.1607954 4.3859352,8.0113592 3.8964373,9.87891 3.3677765,11.733451 3.2745452,12.083965 2.8493649,12.25976 2.5621878,12.060038 2.3430772,11.930241 2.2917994,11.649563 2.2218696,11.414868 1.5374936,9.0500403 0.84007053,6.6901071 0.15943327,4.3242218 0.07179341,4.0555723 0.20137278,3.732995 0.4428795,3.6151442 0.84939666,3.3844514 1.2503235,3.7949198 1.2904217,4.2223472 1.7995009,5.986025 2.3216384,7.7447071 2.8279212,9.5093649 3.3537882,7.6228735 3.8721947,5.7343585 4.3999324,3.8488491 Z"
         stroke-width="0.260694"
         id="path1-3"
         style="fill:url(#linearGradient4);stroke:url(#linearGradient4);stroke-opacity:1" />
      <path
         d="M 8.7240334,3.724615 C 8.9058187,3.2651178 9.5980895,3.3132765 9.7260685,3.793857 10.20021,5.6539323 10.654854,7.5200429 11.119798,9.3831471 c 0.52145,-1.8360229 1.019684,-3.6800529 1.553223,-5.5110461 0.172584,-0.4815715 0.897282,-0.4374167 1.01698,0.065203 0.718117,2.4369746 1.425169,4.8779476 2.136857,7.316934 0.142004,0.346146 -0.09276,0.78854 -0.442562,0.82062 -0.257057,0.04211 -0.521544,-0.145402 -0.592925,-0.415306 -0.540967,-1.839036 -1.074512,-3.6810366 -1.613615,-5.5210508 -0.514017,1.8660991 -1.03921,3.7271503 -1.563438,5.5892398 -0.11228,0.522733 -0.866612,0.565908 -1.028991,0.06031 C 10.074012,9.8235919 9.6063646,7.8451182 9.1034864,5.8786857 8.9689249,6.2549047 8.8344405,6.6321338 8.6887224,7.0043703 8.5829554,7.3013412 8.2331582,7.4528383 7.9677989,7.3153878 7.6885167,7.195989 7.5511865,6.8097224 7.6838826,6.5177606 8.0299691,5.586719 8.3677187,4.6506652 8.7240334,3.7246247 Z"
         stroke-width="0.260659"
         id="path2-8"
         style="fill:url(#linearGradient8);fill-opacity:1;stroke:url(#linearGradient5);stroke-opacity:1" />
    </g>
  </g>
</svg>
