<?xml version="1.0" encoding="UTF-8" standalone="no"?>
<svg
   width="16"
   height="16"
   viewBox="0 0 16 16"
   fill="none"
   version="1.1"
   id="svg5"
   sodipodi:docname="applications-office.svg"
   inkscape:version="1.3.2 (091e20ef0f, 2023-11-25)"
   xmlns:inkscape="http://www.inkscape.org/namespaces/inkscape"
   xmlns:sodipodi="http://sodipodi.sourceforge.net/DTD/sodipodi-0.dtd"
   xmlns:xlink="http://www.w3.org/1999/xlink"
   xmlns="http://www.w3.org/2000/svg"
   xmlns:svg="http://www.w3.org/2000/svg">
  <sodipodi:namedview
     id="namedview5"
     pagecolor="#ffffff"
     bordercolor="#000000"
     borderopacity="0.25"
     inkscape:showpageshadow="2"
     inkscape:pageopacity="0.0"
     inkscape:pagecheckerboard="0"
     inkscape:deskcolor="#d1d1d1"
     inkscape:zoom="7.9595449"
     inkscape:cx="12.312262"
     inkscape:cy="22.677176"
     inkscape:window-width="1920"
     inkscape:window-height="994"
     inkscape:window-x="0"
     inkscape:window-y="0"
     inkscape:window-maximized="1"
     inkscape:current-layer="svg5" />
  <path
     d="m 5.7670551,14.377672 c 0.3715018,0.1208 0.7840869,0.181169 1.1601973,0.04288 0.092441,-0.03317 0.1848802,-0.06622 0.2773189,-0.09924 0.3785072,-0.135183 0.756882,-0.27033 1.1302262,-0.419118 0.96711,-0.338547 1.9296755,-0.690189 2.8922415,-1.04181 0.674468,-0.246373 1.349035,-0.49279 2.025082,-0.734673 0.02226,-0.0095 0.04526,-0.01817 0.06829,-0.02708 0.102412,-0.03954 0.208197,-0.08042 0.275249,-0.168585 0.08663,-0.110063 0.08689,-0.249303 0.0871,-0.38329 4.1e-5,-0.03155 7.1e-5,-0.0628 0.0014,-0.09334 -0.0036,-0.62341 -0.0029,-1.246828 -0.0018,-1.8702364 0.0016,-0.8434334 0.0031,-1.6868669 -0.0073,-2.5302988 -4.6e-5,-0.2728141 0.0031,-0.5457922 0.0069,-0.8189198 0.0072,-0.7001207 0.0148,-1.4006827 -0.02712,-2.0989046 l -0.007,-0.00549 C 13.46647,3.9901334 13.282964,3.8479262 13.060191,3.7778628 12.794092,3.6859727 12.529093,3.5908328 12.264048,3.4956936 12.084978,3.4314155 11.905767,3.3670226 11.726264,3.3036744 10.993734,3.0387897 10.260183,2.7761112 9.5266828,2.5134327 9.0539453,2.3441534 8.5812422,2.1748743 8.1088977,2.0051307 8.1008077,2.2510874 7.933739,2.4321834 7.7722351,2.6072427 7.7329271,2.6498457 7.6939361,2.6919867 7.6576065,2.734822 7.7636451,2.772414 7.86893,2.811399 7.9741569,2.8502671 l 5.98e-5,1.159e-4 C 8.0591437,2.881825 8.1440395,2.913268 8.2292431,2.943898 8.6154785,3.075351 9.0009375,3.2081963 9.3786421,3.3606596 9.0215134,3.3218246 8.665943,3.2719696 8.3102554,3.2221108 8.0024524,3.1788608 7.6945538,3.1357277 7.385453,3.0996742 7.2836267,3.0891247 7.1810261,3.072776 7.0781865,3.0564256 6.7802142,3.0088799 6.4797646,2.9608705 6.1856994,3.0552751 6.1221284,3.2040877 6.0663204,3.358935 6.0709942,3.5220145 c 0.00113,2.6437016 -0.00304,5.2880893 -0.00887,7.9325005 0.00332,0.09657 8.807e-4,0.19377 -0.00152,0.290989 -0.00516,0.214421 -0.010317,0.429027 0.04352,0.637905 v 1.12e-4 c 0.1272147,0.2009 0.3808302,0.259026 0.6018427,0.183454 1.4300005,-0.329524 2.8592524,-0.661328 4.2877221,-0.993116 0.164417,-0.03176 0.332681,-0.126199 0.372987,-0.296143 0.02823,-0.141237 0.02695,-0.285378 0.02563,-0.429339 -4.52e-4,-0.05004 -8.64e-4,-0.10011 -9e-5,-0.149998 -0.0026,-0.8588274 -0.0023,-1.7176403 -0.0021,-2.5766153 v -2.902e-4 c 2.49e-4,-0.6012263 4.26e-4,-1.202535 -2.88e-4,-1.804006 l -3.7e-4,-0.034132 c -0.0031,-0.280231 -0.0062,-0.5610657 0.02582,-0.8405359 l 0.07189,-0.02645 C 11.907028,5.2619824 12.328564,5.107 12.732755,4.9168973 c 0.08925,0.1314958 0.08717,0.2871597 0.08499,0.439748 -5.93e-4,0.043724 -0.0013,0.087157 3.6e-4,0.1297561 -0.0043,1.8913386 -0.004,3.7819213 0.0018,5.6725056 0.05273,0.233575 -0.156274,0.299849 -0.342294,0.358852 -0.04137,0.01314 -0.08164,0.02585 -0.11753,0.04001 -0.166908,0.06011 -0.333852,0.120047 -0.500784,0.179997 -0.828223,0.297438 -1.656278,0.594804 -2.4778605,0.907359 -0.5082001,0.175208 -1.0128105,0.359667 -1.5172071,0.544051 l -1.431e-4,4.4e-5 c -0.2721174,0.09945 -0.5442755,0.198958 -0.8168522,0.296917 -0.044519,0.0154 -0.089492,0.03234 -0.1348646,0.04945 -0.2236108,0.08422 -0.4561815,0.171792 -0.6941273,0.09646 C 6.0170622,13.575473 5.8166594,13.515755 5.6162553,13.45602 5.279034,13.35552 4.9416665,13.254969 4.5996416,13.169267 4.4895893,13.13772 4.3796931,13.10562 4.2696406,13.073521 3.9137295,12.969643 3.5574841,12.865648 3.1966054,12.779729 3.176949,12.047832 3.1795734,11.315695 3.182082,10.58359 c 0.00196,-0.571202 0.004,-1.1424028 -0.00472,-1.7134383 C 2.9735989,9.0384741 2.8216817,9.2498271 2.6696451,9.4615174 2.5637208,9.6089796 2.4576769,9.7566016 2.3337533,9.8899746 c -0.024934,0.5936754 -0.021029,1.1890304 -0.01712,1.7843604 0.00237,0.380988 0.00489,0.762007 -2.986e-4,1.142534 -0.02319,0.277962 0.1009145,0.604999 0.4011341,0.687284 0.1133419,0.03198 0.2264453,0.0643 0.3395479,0.0967 l 2.379e-4,8.5e-5 c 0.3677944,0.105249 0.7354333,0.210429 1.106609,0.301051 0.2669558,0.08659 0.5369258,0.163072 0.8068232,0.239512 0.2665616,0.07552 0.5331215,0.150958 0.7962757,0.236113 z M 9.4706744,4.2228947 c 0.4588489,0.064147 0.9176246,0.128276 1.3768906,0.1867431 0.191563,0.026419 0.383101,0.05358 0.571564,0.098113 -0.103939,0.087554 -0.244114,0.1328216 -0.383162,0.1777043 -0.229266,0.07398 -0.455467,0.1470596 -0.510942,0.4070452 -1.52e-4,0.6197515 6.66e-4,1.2394923 0.0015,1.8592437 0.0017,1.2912947 0.0031,2.5827286 -0.0036,3.874453 -0.6111377,0.139575 -1.2215948,0.281271 -1.8319692,0.422954 -0.5398601,0.125307 -1.0796608,0.250616 -1.6197956,0.374431 -0.017838,0.0041 -0.044746,0.01016 -0.071578,0.01627 l -1.555e-4,3.9e-5 c -0.026986,0.0062 -0.053899,0.01208 -0.071737,0.01631 -0.00133,-0.23554 -7.3e-5,-0.471088 0.00123,-0.706628 0.00191,-0.34152 0.0037,-0.683036 -0.00222,-1.0245404 5.841e-4,-0.174549 0.00113,-0.349155 0.00181,-0.5237028 0.00623,-1.8323636 0.012479,-3.664715 0.00503,-5.4970649 0.8482369,0.082594 1.6928676,0.2006731 2.5372844,0.3187557 z M 2.669624,9.4615798 C 2.821779,9.2498895 2.9735782,9.0385354 3.1774618,8.8702021 c 0.00669,-1.0319108 0.00559,-2.063844 0.00462,-3.0957772 -8.458e-4,-0.8443033 -0.00178,-1.6886073 0.00159,-2.5328771 l 0.061237,-0.021131 C 3.4654405,3.1579348 3.6862512,3.0956889 3.9069565,3.0334427 4.6265348,2.8306766 5.3462802,2.6279103 6.0637699,2.4163232 6.4608873,2.2499347 6.8371986,2.4093616 7.2086231,2.5667004 7.3586992,2.6302871 7.5080008,2.6935228 7.6575258,2.7348223 7.69384,2.6919868 7.732841,2.649847 7.7721529,2.6072431 7.9336824,2.4321834 8.1007629,2.2510874 8.1088402,2.0051307 7.9195315,1.9415518 7.7335105,1.8693821 7.547597,1.7970971 7.3335308,1.714137 7.1195496,1.6310614 6.9004572,1.5611019 6.5855782,1.4592371 6.245122,1.4970103 5.9318214,1.5846904 5.6039341,1.6771306 5.2766078,1.7715449 4.9493416,1.8658431 4.2555879,2.0658195 3.5618594,2.2656798 2.8631581,2.4484785 2.6988204,2.4906357 2.5566573,2.5822378 2.416401,2.6726779 2.408381,2.6777679 2.400439,2.6828939 2.392448,2.6880009 2.33671,2.8874203 2.304072,3.0920589 2.31424,3.2983164 2.32018,4.1771846 2.31803,5.0562416 2.31592,5.9352151 2.3126,7.2537071 2.30943,8.5721393 2.33381,9.8900236 2.4576145,9.7566516 2.5637775,9.6090396 2.6695833,9.4615798 Z"
     id="path1"
     style="fill:url(#linearGradient8);fill-opacity:1;stroke-width:0.87078" />
  <defs
     id="defs5">
    <linearGradient
       id="linearGradient7"
       inkscape:collect="always">
      <stop
         style="stop-color:#ff3eff;stop-opacity:1;"
         offset="0"
         id="stop7" />
      <stop
         style="stop-color:#00b4b4;stop-opacity:1;"
         offset="1"
         id="stop8" />
    </linearGradient>
    <linearGradient
       id="paint0_linear_640_162"
       x1="63.717602"
       y1="120"
       x2="63.717602"
       y2="7.99999"
       gradientUnits="userSpaceOnUse"
       gradientTransform="matrix(-0.13621307,2.0102457e-5,-2.0445352e-5,-0.1339286,16.680976,16.569889)">
      <stop
         stop-color="#FD5900"
         id="stop2" />
      <stop
         offset="1"
         stop-color="#FFDE00"
         id="stop3" />
    </linearGradient>
    <linearGradient
       id="paint1_linear_640_162"
       x1="63.7178"
       y1="120"
       x2="63.7178"
       y2="8"
       gradientUnits="userSpaceOnUse"
       gradientTransform="rotate(161.68845,63.718409,63.99943)">
      <stop
         stop-color="#FD5900"
         id="stop4" />
      <stop
         offset="1"
         stop-color="#FFDE00"
         id="stop5" />
    </linearGradient>
    <linearGradient
       inkscape:collect="always"
       xlink:href="#linearGradient7"
       id="linearGradient8"
       x1="0"
       y1="16"
       x2="16"
       y2="0"
       gradientUnits="userSpaceOnUse"
       gradientTransform="matrix(0.87492413,0,0,0.8666667,1.0000077,1.0666659)" />
  </defs>
</svg>
