<?xml version="1.0" encoding="UTF-8" standalone="no"?>
<svg
   style="isolation:isolate"
   width="16"
   height="16"
   viewBox="0 0 16 16"
   version="1.1"
   id="svg22"
   sodipodi:docname="applications-education-science.svg"
   inkscape:version="1.3 (0e150ed6c4, 2023-07-21)"
   xmlns:inkscape="http://www.inkscape.org/namespaces/inkscape"
   xmlns:sodipodi="http://sodipodi.sourceforge.net/DTD/sodipodi-0.dtd"
   xmlns:xlink="http://www.w3.org/1999/xlink"
   xmlns="http://www.w3.org/2000/svg"
   xmlns:svg="http://www.w3.org/2000/svg">
  <sodipodi:namedview
     id="namedview22"
     pagecolor="#ffffff"
     bordercolor="#000000"
     borderopacity="0.25"
     inkscape:showpageshadow="2"
     inkscape:pageopacity="0.0"
     inkscape:pagecheckerboard="0"
     inkscape:deskcolor="#d1d1d1"
     inkscape:zoom="23.96875"
     inkscape:cx="7.1134289"
     inkscape:cy="7.5306388"
     inkscape:window-width="1920"
     inkscape:window-height="994"
     inkscape:window-x="0"
     inkscape:window-y="0"
     inkscape:window-maximized="1"
     inkscape:current-layer="svg22" />
  <defs
     id="defs22">
    <linearGradient
       id="linearGradient22"
       inkscape:collect="always">
      <stop
         style="stop-color:#00ccff;stop-opacity:1"
         offset="0"
         id="stop23" />
      <stop
         style="stop-color:#ff55dd;stop-opacity:1"
         offset="1"
         id="stop24" />
    </linearGradient>
    <style
       id="current-color-scheme"
       type="text/css">&#10;   .ColorScheme-Text { color:#d5c289; } .ColorScheme-Highlight { color:#5294e2; }&#10;  </style>
    <linearGradient
       id="arrongin"
       x1="0%"
       x2="0%"
       y1="0%"
       y2="100%">
      <stop
         offset="0%"
         style="stop-color:#dd9b44; stop-opacity:1"
         id="stop1" />
      <stop
         offset="100%"
         style="stop-color:#ad6c16; stop-opacity:1"
         id="stop2" />
    </linearGradient>
    <linearGradient
       id="aurora"
       x1="0%"
       x2="0%"
       y1="0%"
       y2="100%">
      <stop
         offset="0%"
         style="stop-color:#09D4DF; stop-opacity:1"
         id="stop3" />
      <stop
         offset="100%"
         style="stop-color:#9269F4; stop-opacity:1"
         id="stop4" />
    </linearGradient>
    <linearGradient
       id="fitdance"
       x1="0%"
       x2="0%"
       y1="0%"
       y2="100%">
      <stop
         offset="0%"
         style="stop-color:#1AD6AB; stop-opacity:1"
         id="stop5" />
      <stop
         offset="100%"
         style="stop-color:#329DB6; stop-opacity:1"
         id="stop6" />
    </linearGradient>
    <linearGradient
       id="oomox"
       x1="3.3408261"
       x2="3.3408261"
       y1="-9.0818004e-08"
       y2="13.004238"
       gradientTransform="matrix(0.76898034,0,0,0.99967408,0.4309704,1.5000001)"
       gradientUnits="userSpaceOnUse">
      <stop
         offset="0%"
         style="stop-color:#303b3d; stop-opacity:1"
         id="stop7" />
      <stop
         offset="100%"
         style="stop-color:#bc985d; stop-opacity:1"
         id="stop8" />
    </linearGradient>
    <linearGradient
       id="rainblue"
       x1="0%"
       x2="0%"
       y1="0%"
       y2="100%">
      <stop
         offset="0%"
         style="stop-color:#00F260; stop-opacity:1"
         id="stop9" />
      <stop
         offset="100%"
         style="stop-color:#0575E6; stop-opacity:1"
         id="stop10" />
    </linearGradient>
    <linearGradient
       id="sunrise"
       x1="0%"
       x2="0%"
       y1="0%"
       y2="100%">
      <stop
         offset="0%"
         style="stop-color: #FF8501; stop-opacity:1"
         id="stop11" />
      <stop
         offset="100%"
         style="stop-color: #FFCB01; stop-opacity:1"
         id="stop12" />
    </linearGradient>
    <linearGradient
       id="telinkrin"
       x1="0%"
       x2="0%"
       y1="0%"
       y2="100%">
      <stop
         offset="0%"
         style="stop-color: #b2ced6; stop-opacity:1"
         id="stop13" />
      <stop
         offset="100%"
         style="stop-color: #6da5b7; stop-opacity:1"
         id="stop14" />
    </linearGradient>
    <linearGradient
       id="60spsycho"
       x1="0%"
       x2="0%"
       y1="0%"
       y2="100%">
      <stop
         offset="0%"
         style="stop-color: #df5940; stop-opacity:1"
         id="stop15" />
      <stop
         offset="25%"
         style="stop-color: #d8d15f; stop-opacity:1"
         id="stop16" />
      <stop
         offset="50%"
         style="stop-color: #e9882a; stop-opacity:1"
         id="stop17" />
      <stop
         offset="100%"
         style="stop-color: #279362; stop-opacity:1"
         id="stop18" />
    </linearGradient>
    <linearGradient
       id="90ssummer"
       x1="0%"
       x2="0%"
       y1="0%"
       y2="100%">
      <stop
         offset="0%"
         style="stop-color: #f618c7; stop-opacity:1"
         id="stop19" />
      <stop
         offset="20%"
         style="stop-color: #94ffab; stop-opacity:1"
         id="stop20" />
      <stop
         offset="50%"
         style="stop-color: #fbfd54; stop-opacity:1"
         id="stop21" />
      <stop
         offset="100%"
         style="stop-color: #0f83ae; stop-opacity:1"
         id="stop22" />
    </linearGradient>
    <linearGradient
       inkscape:collect="always"
       xlink:href="#linearGradient22"
       id="linearGradient24"
       x1="2.9999999"
       y1="8"
       x2="13"
       y2="8"
       gradientUnits="userSpaceOnUse" />
  </defs>
  <path
     class="ColorScheme-Text"
     d="M 6.4204333,1.5089977 4.1603666,2.3229072 c -0.077574,0.027047 -0.1207337,0.091659 -0.09157,0.1562712 l 0.2554609,0.5163937 c 0.032075,0.065109 0.1073145,0.090158 0.1825556,0.062604 L 5.017151,2.8858825 5.1629617,3.214953 4.9442459,3.2930871 C 4.5884666,3.4142976 4.5838004,3.426319 4.7255298,3.7313471 L 5.2901085,4.905381 4.8165136,5.0616516 C 3.3309933,5.5800491 2.6106873,7.0435835 3.2125954,8.3172894 l 0.5832432,1.221115 C 4.2169406,9.1877984 4.7686893,8.9629084 5.3997582,8.9589015 L 4.8345953,7.7538135 C 4.5969108,7.2437498 4.881427,6.6644124 5.4726626,6.4545639 L 5.9462569,6.2982934 6.201719,6.8146874 8.7714886,5.9226422 7.3133803,2.8232746 C 7.1722357,2.5162424 7.1769013,2.5127356 6.8211227,2.6359496 L 6.5475816,2.7296116 6.4017708,2.4010424 6.7849616,2.2597982 C 6.8625376,2.232751 6.889945,2.154616 6.857864,2.0880008 L 6.6210702,1.5871326 C 6.5889914,1.5220197 6.4980055,1.4814498 6.4204333,1.5084963 Z M 9.1360165,6.7049979 6.5475816,7.5980449 6.8578673,8.2551829 7.7688921,8.5837514 9.0450296,8.1299659 9.4457189,7.3631375 Z m 2.4606985,1.7064552 c -0.05736,0.00794 -0.112976,0.023823 -0.16446,0.047087 L 6.7849616,10.070324 C 6.4635954,9.7222232 5.9760016,9.4913241 5.4178397,9.4913241 c -0.9663497,0 -1.749731,0.6727349 -1.749731,1.5026069 0.00223,0.744709 0.6372652,1.376473 1.494853,1.487074 0.013405,0.02509 0.024491,0.05256 0.036163,0.07817 0.1802233,0.379648 0.4648446,0.688689 0.8019598,0.939124 h -1.749734 c -0.322117,0 -0.5832425,0.224248 -0.5832425,0.500868 V 14.5 H 13 v -0.500862 c 0,-0.277992 -0.259529,-0.500869 -0.58324,-0.500869 h -2.132339 l 1.785895,-0.595029 c 0.45144,-0.148265 0.685898,-0.583016 0.510341,-0.970184 -0.08372,-0.185331 -0.250069,-0.334253 -0.462242,-0.413644 -0.212176,-0.07941 -0.452511,-0.08267 -0.667514,-0.0092 l -3.1168448,1.033372 c -0.5939698,0.205879 -1.2700355,-0.03897 -1.5129335,-0.54795 -0.00874,-0.02008 -0.027413,-0.05515 -0.03616,-0.07817 C 7.02604,11.6593 7.1606008,11.339761 7.1675753,11.00889 L 11.870265,9.3811324 c 0.266539,-0.086149 0.423429,-0.3245619 0.368608,-0.5654789 -0.05415,-0.2403196 -0.302985,-0.4116111 -0.587905,-0.404701 h -0.05417 z M 5.4178397,10.493064 c 0.3207819,0 0.5832425,0.225388 0.5832425,0.500867 0,0.275476 -0.2624606,0.500865 -0.5832425,0.500865 -0.3207858,0 -0.5832444,-0.225389 -0.5832444,-0.500865 0,-0.275479 0.2624586,-0.500867 0.5832444,-0.500867 z"
     id="path22"
     style="fill:url(#linearGradient24)" />
</svg>
