<?xml version="1.0" encoding="UTF-8" standalone="no"?>
<!-- Created with Inkscape (http://www.inkscape.org/) -->

<svg
   width="16"
   version="1.1"
   height="16"
   viewBox="0 0 16 16"
   id="svg35"
   sodipodi:docname="applications-science.svg"
   inkscape:version="1.3.2 (091e20ef0f, 2023-11-25)"
   xmlns:inkscape="http://www.inkscape.org/namespaces/inkscape"
   xmlns:sodipodi="http://sodipodi.sourceforge.net/DTD/sodipodi-0.dtd"
   xmlns:xlink="http://www.w3.org/1999/xlink"
   xmlns="http://www.w3.org/2000/svg"
   xmlns:svg="http://www.w3.org/2000/svg">
  <sodipodi:namedview
     id="namedview37"
     pagecolor="#ffffff"
     bordercolor="#000000"
     borderopacity="0.25"
     inkscape:showpageshadow="2"
     inkscape:pageopacity="0.0"
     inkscape:pagecheckerboard="0"
     inkscape:deskcolor="#d1d1d1"
     showgrid="false"
     inkscape:zoom="20.965671"
     inkscape:cx="4.0065496"
     inkscape:cy="8.0846447"
     inkscape:window-width="1920"
     inkscape:window-height="994"
     inkscape:window-x="0"
     inkscape:window-y="0"
     inkscape:window-maximized="1"
     inkscape:current-layer="layer1">
    <inkscape:grid
       type="xygrid"
       id="grid52702"
       originx="0"
       originy="0"
       spacingy="1"
       spacingx="1"
       units="px"
       visible="false" />
  </sodipodi:namedview>
  <defs
     id="defs5455">
    <linearGradient
       id="linearGradient1"
       inkscape:collect="always">
      <stop
         style="stop-color:#9a56ff;stop-opacity:1;"
         offset="0"
         id="stop1" />
      <stop
         style="stop-color:#00d455;stop-opacity:1"
         offset="1"
         id="stop3" />
    </linearGradient>
    <linearGradient
       id="linearGradient4167">
      <stop
         style="stop-color:#009467;stop-opacity:1"
         offset="0"
         id="stop2" />
      <stop
         style="stop-color:#49a72f;stop-opacity:1;"
         offset="1"
         id="stop4" />
    </linearGradient>
    <linearGradient
       inkscape:collect="always"
       xlink:href="#linearGradient1"
       id="linearGradient3"
       x1="389.92621"
       y1="526.10699"
       x2="395.58591"
       y2="521.01904"
       gradientUnits="userSpaceOnUse"
       gradientTransform="matrix(1.0030894,0,0,0.99999825,-1.2128293,8.6661e-4)" />
  </defs>
  <metadata
     id="metadata5458" />
  <g
     inkscape:label="Capa 1"
     inkscape:groupmode="layer"
     id="layer1"
     transform="translate(-384.57143,-515.798)">
    <path
       d="m 392.79625,517.298 c -0.16285,0.002 -0.31922,0.0405 -0.46681,0.1124 -0.17387,0.0895 -0.33189,0.2067 -0.46699,0.34674 -0.17237,0.17732 -0.32287,0.37314 -0.45001,0.58105 -0.11469,0.18806 -0.21713,0.38059 -0.31012,0.5794 0.26352,0.10932 0.52114,0.23718 0.76928,0.3776 0.31646,0.17701 0.62673,0.36798 0.92464,0.57611 0.2978,-0.20813 0.60857,-0.3991 0.9262,-0.57611 0.24835,-0.14042 0.50459,-0.26828 0.76812,-0.3776 -0.0914,-0.19881 -0.19526,-0.39134 -0.31029,-0.5794 -0.12723,-0.20791 -0.27763,-0.40373 -0.44984,-0.58105 -0.13508,-0.14004 -0.29314,-0.25705 -0.46699,-0.34674 -0.14594,-0.0724 -0.30393,-0.11074 -0.46719,-0.1124 z m -3.65838,1.57357 c -0.19093,-0.006 -0.38313,0.024 -0.56612,0.085 -0.15058,0.0526 -0.28866,0.13543 -0.40362,0.24524 -0.10998,0.11381 -0.19382,0.25091 -0.24644,0.40027 -0.0598,0.18194 -0.09,0.37281 -0.0854,0.56253 0,0.18042 0.0192,0.35729 0.049,0.5344 0.0389,0.20372 0.09,0.40556 0.15524,0.60143 0.0263,0.0766 0.0544,0.15362 0.0847,0.231 0.27123,-0.10346 0.54764,-0.19416 0.8269,-0.27292 0.34441,-0.0959 0.69358,-0.17562 1.04713,-0.23875 0.0636,-0.34974 0.1445,-0.69813 0.24065,-1.04003 0.0772,-0.27743 0.17074,-0.55147 0.27433,-0.82142 -0.0773,-0.0301 -0.15476,-0.0561 -0.23433,-0.0837 -0.19527,-0.0647 -0.39826,-0.11568 -0.6049,-0.15378 -0.17671,-0.0319 -0.35541,-0.0486 -0.53685,-0.0486 z m 7.31694,0 c -0.18007,0 -0.35826,0.0185 -0.53668,0.0486 -0.20501,0.0381 -0.40816,0.0889 -0.60539,0.15387 -0.0771,0.0284 -0.15635,0.0544 -0.2343,0.0832 0.10577,0.26996 0.1974,0.54402 0.27476,0.82152 0.0985,0.34188 0.17841,0.69021 0.242,1.04005 0.35226,0.0626 0.70295,0.14304 1.04729,0.2387 0.27931,0.079 0.55419,0.1695 0.82715,0.2729 0.0281,-0.0771 0.0569,-0.15419 0.083,-0.23108 0.0652,-0.19588 0.11798,-0.39764 0.15539,-0.60144 0.0324,-0.17698 0.0491,-0.35392 0.0491,-0.53441 0.005,-0.18971 -0.0247,-0.3805 -0.0846,-0.56244 -0.051,-0.14937 -0.13491,-0.2865 -0.24495,-0.40028 -0.11648,-0.10982 -0.25303,-0.19302 -0.40521,-0.24528 -0.18306,-0.0596 -0.37368,-0.089 -0.56635,-0.0843 z m -5.52486,0.46051 c -0.0966,0.25091 -0.18164,0.50844 -0.25431,0.76729 -0.0795,0.27893 -0.14614,0.55772 -0.205,0.83973 0.36141,-0.0524 0.72468,-0.0945 1.08763,-0.1188 0.20325,-0.17681 0.41259,-0.34663 0.62679,-0.50976 0.0711,-0.0566 0.14285,-0.1093 0.21569,-0.16354 -0.24184,-0.16639 -0.49501,-0.3189 -0.75095,-0.46213 -0.2327,-0.13249 -0.47163,-0.2514 -0.71985,-0.35279 z m 3.73311,0 c -0.24661,0.10136 -0.48736,0.2203 -0.72017,0.35279 -0.25573,0.14323 -0.50726,0.29574 -0.74953,0.46213 0.0731,0.0545 0.14635,0.1079 0.21731,0.16354 0.21246,0.16313 0.42237,0.33132 0.62416,0.50843 0.36441,0.026 0.72582,0.0686 1.08747,0.12013 -0.0589,-0.28201 -0.12596,-0.5608 -0.20354,-0.83973 -0.0719,-0.25885 -0.15811,-0.51638 -0.2557,-0.76729 z m -1.86681,1.07869 c -0.11322,0.085 -0.22484,0.16773 -0.33645,0.25376 -0.047,0.0366 -0.0982,0.0753 -0.14585,0.11446 0.15974,-0.006 0.32108,-0.011 0.4823,-0.008 0.16159,-0.002 0.323,0.002 0.48417,0.009 -0.0469,-0.04 -0.0977,-0.0787 -0.14746,-0.11559 -0.11135,-0.0857 -0.22307,-0.16923 -0.33671,-0.25405 z m 0,0.8105 c -0.35036,-0.002 -0.70112,0.011 -1.05187,0.0316 -0.27149,0.22976 -0.53207,0.47157 -0.78177,0.72277 -0.25312,0.24813 -0.49662,0.50691 -0.72775,0.7761 -0.0223,0.3484 -0.0337,0.69679 -0.0337,1.04516 0,0.34974 0.011,0.6978 0.035,1.04613 0.22967,0.26956 0.47315,0.52691 0.72626,0.77651 0.24974,0.2496 0.50866,0.49141 0.78183,0.71952 0.34919,0.0247 0.70001,0.0366 1.05184,0.0345 0.35234,0.002 0.70315,-0.011 1.05213,-0.0323 0.27139,-0.22809 0.53209,-0.4699 0.78332,-0.72131 0.25131,-0.24959 0.49518,-0.50836 0.72652,-0.77804 0.0222,-0.34667 0.0364,-0.69484 0.0325,-1.04462 8.1e-4,-0.34838 -0.011,-0.69814 -0.0349,-1.04498 -0.22964,-0.26934 -0.47333,-0.52809 -0.72478,-0.77626 -0.25113,-0.25108 -0.51039,-0.49148 -0.78178,-0.72093 -0.35055,-0.0247 -0.70131,-0.0345 -1.0537,-0.0335 z m -1.81364,0.10451 c -0.19858,0.021 -0.39562,0.0486 -0.59256,0.0827 -0.0327,0.194 -0.0593,0.3912 -0.083,0.58845 0.11016,-0.11393 0.22176,-0.2264 0.33361,-0.33886 0.11179,-0.11075 0.22642,-0.22165 0.34126,-0.33136 z m 3.62933,0 c 0.11455,0.11082 0.22793,0.22052 0.33927,0.33133 0.11338,0.11231 0.22378,0.22491 0.3338,0.33873 -0.0208,-0.19715 -0.0489,-0.39414 -0.081,-0.58833 -0.19683,-0.0326 -0.39401,-0.0597 -0.59235,-0.0827 z m -4.69394,0.16329 c -0.28389,0.0575 -0.56574,0.12504 -0.84546,0.20207 -0.26063,0.0715 -0.5195,0.15684 -0.7724,0.25261 0.10236,0.24673 0.22191,0.48362 0.35551,0.71485 0.14422,0.25452 0.29763,0.50377 0.46517,0.74442 0.055,-0.0721 0.1087,-0.1432 0.16473,-0.21419 0.16431,-0.21266 0.33472,-0.42103 0.51345,-0.62104 0.0262,-0.36029 0.0665,-0.72097 0.119,-1.07872 z m 5.75614,0 c 0.0549,0.35775 0.0954,0.71843 0.12131,1.08038 0.17814,0.19997 0.34922,0.40834 0.51342,0.62085 0.0549,0.071 0.11006,0.1417 0.16308,0.21437 0.16751,-0.24064 0.32106,-0.48997 0.46532,-0.74607 0.13333,-0.23123 0.25475,-0.46812 0.35703,-0.71485 -0.25447,-0.0968 -0.51182,-0.18012 -0.7744,-0.25261 -0.27929,-0.0768 -0.56171,-0.14484 -0.84576,-0.20207 z m -7.79156,0.62566 c -0.20015,0.0929 -0.39405,0.19417 -0.58296,0.30963 -0.20982,0.12504 -0.40673,0.27608 -0.58506,0.44529 -0.14261,0.13413 -0.25892,0.29156 -0.35076,0.46377 -0.0717,0.14652 -0.10831,0.30398 -0.11153,0.46399 0.002,0.16171 0.0402,0.31867 0.11153,0.46409 0.0918,0.17214 0.20816,0.32957 0.35076,0.46487 0.17833,0.16953 0.37524,0.32057 0.58506,0.44529 0.18891,0.11409 0.38281,0.21733 0.58296,0.30798 0.11039,-0.2617 0.23934,-0.51589 0.3802,-0.76237 0.1787,-0.31591 0.371,-0.62239 0.58038,-0.91986 -0.20938,-0.29577 -0.40168,-0.60229 -0.58038,-0.91821 -0.14087,-0.2466 -0.26981,-0.50111 -0.3802,-0.76447 z m 9.82722,0 c -0.10841,0.26336 -0.2371,0.51787 -0.3801,0.76447 -0.1781,0.31592 -0.37048,0.62244 -0.57997,0.91965 0.20949,0.29437 0.40186,0.60251 0.57997,0.91842 0.14299,0.24648 0.27174,0.50067 0.3801,0.76237 0.20026,-0.0906 0.39614,-0.19389 0.58513,-0.30798 0.20915,-0.12472 0.40519,-0.27576 0.58339,-0.44529 0.14254,-0.1353 0.26041,-0.29273 0.3507,-0.46487 0.0718,-0.14542 0.10995,-0.30238 0.11326,-0.46409 -0.004,-0.16001 -0.0426,-0.31747 -0.11326,-0.46399 -0.0901,-0.17221 -0.20816,-0.32964 -0.3507,-0.46377 -0.1782,-0.16921 -0.37424,-0.32025 -0.58339,-0.44529 -0.18899,-0.11546 -0.38487,-0.21686 -0.58513,-0.30963 z m -4.91355,0.5624 c 0.30112,0 0.58676,0.11888 0.79911,0.32665 0.20919,0.21122 0.32892,0.49621 0.32892,0.79363 0,0.29899 -0.11973,0.58369 -0.32892,0.79366 -0.21235,0.2094 -0.49799,0.32823 -0.79911,0.32823 -0.29944,0 -0.58614,-0.11883 -0.7987,-0.32823 -0.20987,-0.20997 -0.32891,-0.49467 -0.32891,-0.79366 0,-0.29742 0.11904,-0.58241 0.32891,-0.79363 0.21256,-0.20777 0.49926,-0.32665 0.7987,-0.32665 z m 0,0.44856 c -0.18,0 -0.35178,0.0721 -0.47775,0.19721 -0.12711,0.1248 -0.19868,0.29581 -0.19868,0.47451 0,0.18037 0.0718,0.34977 0.19868,0.47614 0.12597,0.12455 0.29775,0.19725 0.47775,0.19725 0.18157,0 0.35238,-0.0722 0.47942,-0.19725 0.12586,-0.12637 0.19861,-0.29577 0.19861,-0.47614 0,-0.1787 -0.0723,-0.34971 -0.19861,-0.47451 -0.12704,-0.12498 -0.29785,-0.19721 -0.47942,-0.19721 z m -3.03921,0.19252 c -0.039,0.0466 -0.0773,0.0968 -0.11493,0.14639 -0.086,0.1092 -0.17053,0.22209 -0.25613,0.33281 0.0855,0.11239 0.16932,0.22489 0.25613,0.33439 0.0369,0.0486 0.0752,0.098 0.11493,0.14651 -0.006,-0.16057 -0.009,-0.32085 -0.009,-0.4809 0,-0.16001 0.003,-0.31913 0.009,-0.4792 z m 6.07898,0 c 0.007,0.15846 0.009,0.31919 0.009,0.4792 0,0.16005 0,0.32033 -0.009,0.4809 0.0384,-0.0465 0.0772,-0.0971 0.11641,-0.14651 0.0855,-0.1095 0.17028,-0.222 0.25411,-0.33439 -0.0847,-0.11072 -0.16883,-0.22361 -0.25411,-0.33281 -0.039,-0.0484 -0.0779,-0.0989 -0.11641,-0.14639 z m -10.03544,0.4778 v 0.006 z m 3.32025,0.39583 c -0.16754,0.24015 -0.32095,0.48991 -0.46517,0.74436 -0.1336,0.23245 -0.25317,0.4698 -0.35551,0.71491 0.2529,0.0968 0.51177,0.18178 0.7724,0.25422 0.28089,0.0768 0.56157,0.14497 0.84547,0.20162 -0.0543,-0.35891 -0.0947,-0.71796 -0.12035,-1.07988 -0.17904,-0.20047 -0.3478,-0.40837 -0.51211,-0.61942 -0.0567,-0.0714 -0.11043,-0.14355 -0.16473,-0.21581 z m 7.35113,0 c -0.053,0.0716 -0.10849,0.14485 -0.16308,0.21581 -0.16587,0.21265 -0.33528,0.41895 -0.51342,0.62085 -0.0263,0.36049 -0.0691,0.71954 -0.11965,1.07845 0.284,-0.0575 0.5648,-0.12454 0.8441,-0.20162 0.26258,-0.0718 0.51993,-0.15729 0.7744,-0.25422 -0.10216,-0.24511 -0.22371,-0.48246 -0.35703,-0.71491 -0.14426,-0.25445 -0.29781,-0.50421 -0.46532,-0.74436 z m -6.16406,1.40834 c 0.0208,0.19715 0.0491,0.39281 0.0811,0.58833 0.19693,0.0322 0.39568,0.0589 0.59253,0.0807 -0.1131,-0.10931 -0.22792,-0.21859 -0.33951,-0.32925 -0.11197,-0.11295 -0.22362,-0.22531 -0.33362,-0.33925 z m 4.97712,0 c -0.11002,0.11382 -0.22042,0.22642 -0.3338,0.33922 -0.11135,0.1109 -0.22634,0.2201 -0.33928,0.33084 0.19664,-0.0221 0.39555,-0.0486 0.59245,-0.0827 0.0318,-0.19566 0.0584,-0.3912 0.0811,-0.58845 z m -7.16011,0.46543 c -0.0308,0.0766 -0.058,0.15369 -0.0842,0.23106 -0.065,0.19563 -0.11639,0.39763 -0.15517,0.60089 -0.032,0.17714 -0.0491,0.35446 -0.0491,0.53324 -0.006,0.19088 0.0247,0.3823 0.0852,0.56252 0.053,0.15053 0.13654,0.28778 0.2465,0.40193 0.11481,0.10932 0.25304,0.19252 0.40363,0.24335 0.183,0.0612 0.37517,0.091 0.56602,0.0854 0.18158,0 0.3601,-0.0188 0.53681,-0.0486 0.20667,-0.0386 0.40959,-0.0906 0.60502,-0.15542 0.0795,-0.0265 0.15678,-0.0544 0.23436,-0.083 -0.10369,-0.27091 -0.19694,-0.54349 -0.27428,-0.82124 -0.097,-0.34188 -0.17689,-0.69022 -0.2407,-1.03977 -0.35354,-0.0626 -0.70284,-0.14362 -1.0472,-0.24061 -0.27917,-0.0766 -0.55559,-0.16759 -0.8269,-0.27101 z m 9.34473,0 c -0.27295,0.10318 -0.54784,0.19399 -0.82715,0.27079 -0.34434,0.0969 -0.69503,0.17777 -1.04729,0.24065 -0.0632,0.3495 -0.14401,0.69785 -0.242,1.03975 -0.0771,0.27795 -0.16904,0.55037 -0.27476,0.82145 0.0776,0.0286 0.15685,0.0566 0.2343,0.0837 0.19722,0.0647 0.40038,0.11679 0.60539,0.15539 0.17842,0.0322 0.35661,0.0486 0.53668,0.0486 0.19265,0.006 0.38317,-0.024 0.56619,-0.0855 0.15222,-0.0506 0.28893,-0.134 0.4054,-0.24331 0.11005,-0.11414 0.19383,-0.2514 0.2449,-0.40192 0.0597,-0.18032 0.0897,-0.37166 0.0855,-0.56255 0,-0.17875 -0.018,-0.35615 -0.0491,-0.53322 -0.0369,-0.20326 -0.09,-0.40523 -0.1552,-0.60089 -0.0262,-0.0771 -0.0548,-0.15418 -0.083,-0.23106 z m -6.999,0.59014 c 0.0584,0.28365 0.12548,0.56237 0.205,0.83972 0.0724,0.26043 0.1581,0.51754 0.25431,0.76873 0.24822,-0.10165 0.48715,-0.22174 0.71985,-0.35258 0.25594,-0.14372 0.50745,-0.29603 0.7493,-0.46242 -0.0726,-0.0545 -0.14425,-0.108 -0.21688,-0.16328 -0.213,-0.16312 -0.42233,-0.33294 -0.62395,-0.51006 -0.36295,-0.0264 -0.72622,-0.0666 -1.08763,-0.12011 z m 4.65166,0 c -0.36165,0.0544 -0.72306,0.0941 -1.08624,0.12011 -0.20302,0.17712 -0.41293,0.34694 -0.62539,0.51006 -0.0717,0.0561 -0.14416,0.10932 -0.2173,0.16328 0.24226,0.16639 0.49379,0.3187 0.74952,0.46242 0.23281,0.13084 0.47356,0.25091 0.72017,0.35258 0.0981,-0.25119 0.18318,-0.5083 0.2557,-0.76873 0.0773,-0.27735 0.14584,-0.55607 0.20354,-0.83972 z m -2.81001,0.1601 c 0.0491,0.0405 0.0992,0.0773 0.14751,0.11562 0.11161,0.0855 0.22323,0.1694 0.33645,0.2526 0.11364,-0.0837 0.22536,-0.16639 0.33671,-0.2526 0.0491,-0.0381 0.0992,-0.0747 0.14746,-0.11562 -0.16117,0.008 -0.32258,0.011 -0.48417,0.011 -0.16122,0 -0.32256,-0.002 -0.48396,-0.011 z m 0.48396,0.90907 c -0.29791,0.20791 -0.60819,0.39925 -0.92465,0.57639 -0.24813,0.13992 -0.50576,0.26826 -0.76928,0.37594 0.0931,0.19881 0.19544,0.39295 0.31012,0.58105 0.12714,0.20791 0.27764,0.40344 0.45001,0.58056 0.1351,0.14042 0.29312,0.25752 0.46699,0.34674 0.14759,0.0718 0.30396,0.10959 0.46681,0.1124 0.16327,-0.003 0.32126,-0.0421 0.46719,-0.1124 0.17386,-0.089 0.33192,-0.20632 0.467,-0.34674 0.1722,-0.17712 0.32261,-0.37265 0.44983,-0.58056 0.11504,-0.1881 0.21897,-0.38224 0.3103,-0.58105 -0.26353,-0.1077 -0.51977,-0.23602 -0.76812,-0.37594 -0.31763,-0.17714 -0.6284,-0.36848 -0.9262,-0.57639 z"
       fill-rule="evenodd"
       id="path1"
       style="isolation:isolate;fill:url(#linearGradient3);stroke-width:0.132314" />
  </g>
</svg>
