<?xml version="1.0" encoding="UTF-8" standalone="no"?>
<!-- Created with Inkscape (http://www.inkscape.org/) -->

<svg
   width="16"
   version="1.1"
   height="16"
   viewBox="0 0 16 16"
   id="svg1292"
   sodipodi:docname="applications-development.svg"
   inkscape:version="1.3.2 (091e20ef0f, 2023-11-25)"
   xmlns:inkscape="http://www.inkscape.org/namespaces/inkscape"
   xmlns:sodipodi="http://sodipodi.sourceforge.net/DTD/sodipodi-0.dtd"
   xmlns:xlink="http://www.w3.org/1999/xlink"
   xmlns="http://www.w3.org/2000/svg"
   xmlns:svg="http://www.w3.org/2000/svg">
  <sodipodi:namedview
     id="namedview1294"
     pagecolor="#ffffff"
     bordercolor="#000000"
     borderopacity="0.25"
     inkscape:showpageshadow="2"
     inkscape:pageopacity="0.0"
     inkscape:pagecheckerboard="0"
     inkscape:deskcolor="#d1d1d1"
     showgrid="false"
     inkscape:zoom="7.375"
     inkscape:cx="36.610169"
     inkscape:cy="8.0677966"
     inkscape:window-width="1920"
     inkscape:window-height="994"
     inkscape:window-x="0"
     inkscape:window-y="0"
     inkscape:window-maximized="1"
     inkscape:current-layer="layer1" />
  <defs
     id="defs5455">
    <linearGradient
       id="linearGradient2144">
      <stop
         style="stop-color:#ffffff;stop-opacity:1;"
         id="stop2140"
         offset="0" />
      <stop
         offset="1"
         style="stop-color:#d5e8ff"
         id="stop2142" />
    </linearGradient>
    <linearGradient
       id="linearGradient4256">
      <stop
         style="stop-color:#8cbdf8"
         id="stop4258" />
      <stop
         offset="1"
         style="stop-color:#d5e8ff"
         id="stop4260" />
    </linearGradient>
    <linearGradient
       id="linearGradient4232">
      <stop
         style="stop-color:#3889e9"
         id="stop4234-0" />
      <stop
         offset="1"
         style="stop-color:#5ea5fb"
         id="stop4236" />
    </linearGradient>
    <linearGradient
       inkscape:collect="always"
       xlink:href="#linearGradient4232"
       id="linearGradient3426"
       y1="545.79797"
       y2="517.79797"
       x2="0"
       gradientUnits="userSpaceOnUse" />
    <linearGradient
       inkscape:collect="always"
       xlink:href="#oomox-3"
       id="linearGradient24"
       x1="2.9999981"
       y1="8"
       x2="13.000002"
       y2="8"
       gradientUnits="userSpaceOnUse"
       gradientTransform="matrix(0.81249995,0,0,0.81249995,361.07133,547.29797)" />
    <linearGradient
       id="oomox-3"
       x1="0"
       x2="0"
       y1="0"
       y2="1">
      <stop
         offset="0"
         style="stop-color:#ff89ff;stop-opacity:1;"
         id="stop7-6" />
      <stop
         offset="1"
         style="stop-color:#2a7fff;stop-opacity:1"
         id="stop8-7" />
    </linearGradient>
    <linearGradient
       inkscape:collect="always"
       xlink:href="#oomox-3"
       id="linearGradient4"
       x1="288"
       y1="160"
       x2="272"
       y2="176"
       gradientUnits="userSpaceOnUse" />
  </defs>
  <metadata
     id="metadata5458" />
  <g
     inkscape:label="Capa 1"
     inkscape:groupmode="layer"
     id="layer1"
     transform="translate(-359.57143,-545.798)">
    <circle
       cx="400.57138"
       cy="531.79791"
       style="fill:url(#linearGradient3426);stroke-width:4"
       id="ellipse4233"
       r="0" />
    <path
       style="color:#d5c289;isolation:isolate;fill:url(#linearGradient24);fill-opacity:1;stroke-width:0.517551"
       class="ColorScheme-Text"
       d="m 365.61808,549.7355 c -0.082,0 -0.15626,0.063 -0.17355,0.14659 -0.017,0.0839 0.0284,0.16836 0.10308,0.20253 0.009,0.004 0.67025,0.31331 1.44324,1.15524 0.34623,0.37758 0.71137,0.87769 0.4667,1.12657 -0.007,0.008 -0.0347,0.0415 -0.14128,0.15251 -0.011,0.011 -0.0139,0.019 -0.0215,0.0283 l -0.007,0.007 1.329,1.38029 0.12494,-0.12396 c 0.003,-0.003 0.004,-0.011 0.007,-0.011 l 0.19501,-0.2031 0.24428,0.25373 c 0.0705,0.0728 0.0543,0.2542 0.0324,0.29849 -0.065,0.13504 -0.053,0.2775 0.0324,0.36659 l 0.60221,0.62507 c 0.0943,0.0976 0.21836,0.14668 0.34179,0.14668 0.12342,0 0.24277,-0.0492 0.33624,-0.14668 l 0.96019,-0.99168 c 0.18796,-0.19459 0.18743,-0.5148 0,-0.70994 l -0.60223,-0.62551 c -0.0874,-0.0907 -0.2188,-0.10976 -0.33114,-0.0503 -0.0524,0.0278 -0.2376,0.0458 -0.3036,-0.0219 l -0.24936,-0.25948 c 0.0577,-0.0841 0.0877,-0.18461 0.0867,-0.2875 7.6e-4,-0.13292 -0.0494,-0.26106 -0.1412,-0.35499 l -0.65105,-0.6762 c -0.004,-0.004 -0.015,-0.011 -0.0208,-0.0172 l -0.13607,-0.1408 c -0.28334,-0.29437 -0.54539,-0.57232 -0.61293,-0.64192 -0.57485,-0.59814 -2.67522,-0.62507 -2.91289,-0.62556 z m 1.42713,3.0703 -3.39578,3.52776 c -0.18743,0.19461 -0.18743,0.50998 0,0.70412 l 0.65051,0.67623 c 0.0942,0.0975 0.2184,0.14659 0.34179,0.14659 0.12338,0 0.24272,-0.0488 0.33668,-0.14659 l 3.39573,-3.52133 z"
       id="path22" />
    <g
       transform="matrix(0.8125,0,0,0.8125,140.07136,417.298)"
       id="g23"
       style="isolation:isolate">
      <path
         d="m 280,160 a 8,8 0 0 0 -8,8 8,8 0 0 0 8,8 8,8 0 0 0 8,-8 8,8 0 0 0 -8,-8 z m 0,1 a 7,7 0 0 1 7,7 7,7 0 0 1 -7,7 7,7 0 0 1 -7,-7 7,7 0 0 1 7,-7 z"
         style="color:#d5c289;fill:url(#linearGradient4)"
         class="ColorScheme-Text"
         id="path23" />
    </g>
  </g>
</svg>
