<?xml version="1.0" encoding="UTF-8" standalone="no"?>
<!-- Generator: Gravit.io -->

<svg
   style="isolation:isolate"
   viewBox="0 0 16 16"
   width="16pt"
   height="16pt"
   version="1.1"
   id="svg2"
   sodipodi:docname="applications-system.svg"
   inkscape:version="1.3.2 (091e20ef0f, 2023-11-25)"
   xmlns:inkscape="http://www.inkscape.org/namespaces/inkscape"
   xmlns:sodipodi="http://sodipodi.sourceforge.net/DTD/sodipodi-0.dtd"
   xmlns:xlink="http://www.w3.org/1999/xlink"
   xmlns="http://www.w3.org/2000/svg"
   xmlns:svg="http://www.w3.org/2000/svg">
  <defs
     id="defs2">
    <linearGradient
       id="linearGradient1"
       inkscape:collect="always">
      <stop
         style="stop-color:#ffd42a;stop-opacity:1"
         offset="0"
         id="stop3" />
      <stop
         style="stop-color:#2ad4ff;stop-opacity:1"
         offset="0.37094396"
         id="stop6" />
      <stop
         style="stop-color:#ff7eff;stop-opacity:1;"
         offset="0.51873392"
         id="stop5" />
      <stop
         style="stop-color:#ffb380;stop-opacity:1"
         offset="0.64987147"
         id="stop7" />
      <stop
         style="stop-color:#ff0000;stop-opacity:1"
         offset="1"
         id="stop4" />
    </linearGradient>
    <linearGradient
       inkscape:collect="always"
       xlink:href="#linearGradient1"
       id="linearGradient4"
       x1="7.695519"
       y1="22.394566"
       x2="8.3044748"
       y2="-6.3945622"
       gradientUnits="userSpaceOnUse"
       gradientTransform="matrix(0.46090468,0.44181009,-0.44181009,0.46090468,7.8472447,0.77828239)" />
  </defs>
  <sodipodi:namedview
     id="namedview2"
     pagecolor="#ffffff"
     bordercolor="#000000"
     borderopacity="0.25"
     inkscape:showpageshadow="2"
     inkscape:pageopacity="0.0"
     inkscape:pagecheckerboard="0"
     inkscape:deskcolor="#d1d1d1"
     inkscape:document-units="pt"
     inkscape:zoom="11.984375"
     inkscape:cx="15.853977"
     inkscape:cy="18.816167"
     inkscape:window-width="1920"
     inkscape:window-height="994"
     inkscape:window-x="0"
     inkscape:window-y="0"
     inkscape:window-maximized="1"
     inkscape:current-layer="svg2" />
  <linearGradient
     id="_lgradient_3"
     x1="-6.9388939e-18"
     y1="1"
     x2="1"
     y2="-6.9388939e-18"
     gradientTransform="matrix(15,0,0,15,0.5,0.5)"
     gradientUnits="userSpaceOnUse">
    <stop
       offset="0%"
       stop-opacity="1"
       style="stop-color:#000000;stop-opacity:1"
       id="stop1" />
    <stop
       offset="98.26086956521739%"
       stop-opacity="1"
       style="stop-color:rgb(239,98,159)"
       id="stop2" />
  </linearGradient>
  <path
     d="M 7.8763208,2.1528711 10.076095,4.2615096 7.9674537,6.4612819 5.7676812,4.3526428 Z M 11.647364,5.76768 13.847131,7.8763195 11.738491,10.076094 9.5387211,7.9674529 Z M 4.2615109,5.9239087 6.461283,8.0325478 4.3526435,10.232324 2.1528721,8.1236817 Z m 4.066661,-4.242417 2.1997701,2.1086381 c 0.260201,0.2494217 0.268954,0.6630295 0.01953,0.9232316 L 8.4388334,6.9131335 C 8.1894121,7.1733348 7.7758041,7.1820832 7.5156026,6.9326611 L 5.3158303,4.8240226 C 5.0556284,4.5746012 5.0468805,4.1609937 5.2963011,3.9007921 l 2.10864,-2.199773 C 7.6543622,1.4408189 8.0679702,1.4320688 8.3281719,1.6814917 Z M 12.099212,5.2963001 14.298986,7.40494 c 0.2602,0.2494213 0.268951,0.6630293 0.01948,0.923228 l -2.108617,2.199774 c -0.249419,0.260199 -0.663023,0.268952 -0.923225,0.01953 L 9.0868679,8.4388324 C 8.8266676,8.1894111 8.8179183,7.775803 9.0673404,7.5156016 L 11.175984,5.3158292 c 0.249415,-0.2602017 0.663025,-0.2689499 0.923228,-0.019529 z M 4.7133626,5.4525294 6.9131345,7.5611682 c 0.2602014,0.2494215 0.2689497,0.6630296 0.019525,0.9232305 L 4.8240232,10.684178 c -0.2494212,0.260194 -0.663029,0.268943 -0.9232308,0.01952 L 1.7010202,8.5950612 C 1.4408198,8.3456397 1.43207,7.9320323 1.6814926,7.6718304 L 3.7901314,5.4720581 C 4.0395525,5.2118558 4.4531604,5.203107 4.7133626,5.4525294 Z M 8.032549,9.5387192 10.232325,11.647362 8.1236827,13.847129 5.9239098,11.73849 Z m 0.4518516,-0.47138 2.1997784,2.1086428 c 0.260194,0.249417 0.268943,0.663026 0.01952,0.923228 l -2.1086411,2.199775 c -0.2494218,0.260199 -0.6630295,0.26895 -0.9232297,0.0195 L 5.4720587,12.209875 C 5.211857,11.960446 5.2031079,11.546844 5.4525306,11.286639 L 7.56117,9.0868668 C 7.8105907,8.8266665 8.224199,8.8179172 8.4844006,9.0673392 Z"
     fill-rule="evenodd"
     id="path2"
     style="fill:url(#linearGradient4);fill-opacity:1;stroke-width:0.21765" />
</svg>
