<?xml version="1.0" encoding="UTF-8" standalone="no"?>
<!-- Created with Inkscape (http://www.inkscape.org/) -->

<svg
   width="16"
   height="16"
   viewBox="0 0 16 16"
   id="svg7266"
   version="1.1"
   inkscape:version="1.3 (0e150ed6c4, 2023-07-21)"
   sodipodi:docname="preferences-system-windows-effect-flipswitch.svg"
   xmlns:inkscape="http://www.inkscape.org/namespaces/inkscape"
   xmlns:sodipodi="http://sodipodi.sourceforge.net/DTD/sodipodi-0.dtd"
   xmlns:xlink="http://www.w3.org/1999/xlink"
   xmlns="http://www.w3.org/2000/svg"
   xmlns:svg="http://www.w3.org/2000/svg"
   xmlns:rdf="http://www.w3.org/1999/02/22-rdf-syntax-ns#"
   xmlns:cc="http://creativecommons.org/ns#"
   xmlns:dc="http://purl.org/dc/elements/1.1/">
  <metadata
     id="metadata7">
    <rdf:RDF>
      <cc:Work
         rdf:about="">
        <dc:format>image/svg+xml</dc:format>
        <dc:type
           rdf:resource="http://purl.org/dc/dcmitype/StillImage" />
      </cc:Work>
    </rdf:RDF>
  </metadata>
  <defs
     id="defs7268">
    <linearGradient
       inkscape:collect="always"
       xlink:href="#linearGradient1"
       id="linearGradient2"
       x1="7.4553571"
       y1="8.7763033"
       x2="13.5"
       y2="2"
       gradientUnits="userSpaceOnUse"
       gradientTransform="translate(-2.674001e-8,988.36239)" />
    <linearGradient
       id="linearGradient1"
       inkscape:collect="always">
      <stop
         style="stop-color:#00c5c5;stop-opacity:1;"
         offset="0"
         id="stop1" />
      <stop
         style="stop-color:#ff81ff;stop-opacity:1;"
         offset="1"
         id="stop2" />
    </linearGradient>
  </defs>
  <sodipodi:namedview
     id="base"
     pagecolor="#ffffff"
     bordercolor="#666666"
     borderopacity="1.0"
     inkscape:pageopacity="0.0"
     inkscape:pageshadow="2"
     inkscape:zoom="31.839392"
     inkscape:cx="6.4542689"
     inkscape:cy="5.7947086"
     inkscape:document-units="px"
     inkscape:current-layer="layer1"
     showgrid="false"
     units="px"
     inkscape:window-width="1920"
     inkscape:window-height="994"
     inkscape:window-x="0"
     inkscape:window-y="0"
     inkscape:window-maximized="1"
     inkscape:showpageshadow="2"
     inkscape:pagecheckerboard="0"
     inkscape:deskcolor="#d1d1d1">
    <inkscape:grid
       type="xygrid"
       id="grid7814"
       originx="0"
       originy="0"
       spacingy="1"
       spacingx="1"
       units="px"
       visible="false" />
  </sodipodi:namedview>
  <g
     inkscape:label="Ebene 1"
     inkscape:groupmode="layer"
     id="layer1"
     transform="translate(0,-988.36216)">
    <path
       d="M 10.876708,993.57519 H 3.212401 c -0.392897,0 -0.712401,0.3091 -0.712401,0.6891 v 7.40841 c 0,0.3801 0.319504,0.6892 0.712401,0.6892 h 7.664307 c 0.392766,0 0.712375,-0.3091 0.712375,-0.6892 v -7.40851 c 0,-0.38 -0.319633,-0.689 -0.712375,-0.689 z m -0.482703,0.7844 c 0.168465,0 0.305048,0.1322 0.305048,0.2952 0,0.1633 -0.136734,0.2954 -0.305048,0.2954 -0.168777,0 -0.305332,-0.1321 -0.305332,-0.2954 0,-0.163 0.136555,-0.2952 0.305332,-0.2952 z m -1.0938499,0 c 0.1687736,0 0.3051766,0.1322 0.3051766,0.2952 0,0.1633 -0.136555,0.2954 -0.3051766,0.2954 -0.168468,0 -0.3050488,-0.1321 -0.3050488,-0.2954 0,-0.163 0.1365808,-0.2952 0.3050488,-0.2952 z m 1.4750139,7.21451 H 3.314067 v -5.89051 h 7.460796 v 5.89051 z m 2.012606,-11.21171 H 5.123318 c -0.392821,0 -0.712248,0.3091 -0.712248,0.6892 v 2.0266 h 0.813838 v -0.6073 h 7.461022 v 5.8905 h -0.264434 v 0.7878 h 0.366129 c 0.392742,0 0.712375,-0.3094 0.712375,-0.6892 v -7.4086 c 1.51e-4,-0.3801 -0.319477,-0.689 -0.712225,-0.689 z m -1.576398,1.3751 c -0.168771,0 -0.305175,-0.1322 -0.305175,-0.2953 0,-0.163 0.136554,-0.2953 0.305175,-0.2953 0.168471,0 0.305049,0.1323 0.305049,0.2953 0,0.1631 -0.136578,0.2953 -0.305049,0.2953 z m 1.093695,0 c -0.168927,0 -0.305355,-0.1322 -0.305355,-0.2953 0,-0.163 0.136734,-0.2953 0.305355,-0.2953 0.168471,0 0.304898,0.1323 0.304898,0.2953 3.31e-4,0.1631 -0.136403,0.2953 -0.304898,0.2953 z"
       id="path1-3"
       style="isolation:isolate;fill:url(#linearGradient2);stroke-width:0.0250333" />
  </g>
</svg>
