<?xml version="1.0" encoding="UTF-8" standalone="no"?>
<svg
   sodipodi:docname="shutdown_primary.svg"
   inkscape:version="1.3.1 (91b66b0783, 2023-11-16)"
   id="svg1699"
   version="1.1"
   viewBox="0 0 32 32"
   height="32"
   width="32"
   xmlns:inkscape="http://www.inkscape.org/namespaces/inkscape"
   xmlns:sodipodi="http://sodipodi.sourceforge.net/DTD/sodipodi-0.dtd"
   xmlns="http://www.w3.org/2000/svg"
   xmlns:svg="http://www.w3.org/2000/svg"
   xmlns:rdf="http://www.w3.org/1999/02/22-rdf-syntax-ns#"
   xmlns:cc="http://creativecommons.org/ns#"
   xmlns:dc="http://purl.org/dc/elements/1.1/">
  <defs
     id="defs1693">
    <linearGradient
       id="a-5"
       x1="16"
       x2="16"
       y1="1"
       y2="31"
       gradientUnits="userSpaceOnUse">
      <stop
         stop-color="#f4282c"
         offset="0"
         id="stop1009" />
      <stop
         stop-color="#fac136"
         offset="1"
         id="stop1011" />
    </linearGradient>
    <linearGradient
       id="linearGradient1120"
       x1="16"
       x2="16"
       y1="1"
       y2="31"
       gradientUnits="userSpaceOnUse">
      <stop
         stop-color="#ff791d"
         offset="0"
         id="stop1115"
         style="stop-color:#ff5555;stop-opacity:1" />
      <stop
         stop-color="#f8c430"
         offset="1"
         id="stop1117"
         style="stop-color:#ffb380;stop-opacity:1" />
    </linearGradient>
  </defs>
  <sodipodi:namedview
     inkscape:document-rotation="0"
     inkscape:window-maximized="1"
     inkscape:window-y="0"
     inkscape:window-x="0"
     inkscape:window-height="994"
     inkscape:window-width="1920"
     showgrid="false"
     inkscape:current-layer="layer1"
     inkscape:document-units="px"
     inkscape:cy="15.848214"
     inkscape:cx="17.857143"
     inkscape:zoom="11.2"
     inkscape:pageshadow="2"
     inkscape:pageopacity="0"
     borderopacity="1"
     bordercolor="#ff1919"
     pagecolor="#000000"
     id="base"
     inkscape:pagecheckerboard="true"
     inkscape:showpageshadow="false"
     inkscape:deskcolor="#000000">
    <inkscape:grid
       type="xygrid"
       id="grid844"
       originx="0"
       originy="0"
       spacingy="1"
       spacingx="1"
       units="mm"
       visible="false" />
  </sodipodi:namedview>
  <metadata
     id="metadata1696">
    <rdf:RDF>
      <cc:Work
         rdf:about="">
        <dc:format>image/svg+xml</dc:format>
        <dc:type
           rdf:resource="http://purl.org/dc/dcmitype/StillImage" />
      </cc:Work>
    </rdf:RDF>
  </metadata>
  <g
     transform="translate(-98.729144,-81.918987)"
     id="layer1"
     inkscape:groupmode="layer"
     inkscape:label="Layer 1">
    <g
       id="system-switch-user"
       transform="translate(-184.27085,81.918987)">
      <g
         id="g1729">
        <circle
           style="opacity:0;fill:none;fill-opacity:1;stroke-width:1.06667"
           id="circle955"
           r="16"
           cy="-16"
           cx="299"
           transform="scale(1,-1)" />
      </g>
    </g>
    <path
       d="m 104.11486,87.325797 c -5.895486,5.899226 -5.847246,15.528183 0.1447,21.366343 5.58121,5.43801 14.57516,5.66028 20.40007,0.48454 5.10384,-4.53503 6.45836,-11.760307 3.58697,-17.726545 -0.34461,-0.716057 -1.2468,-0.961903 -1.92572,-0.549482 -0.60871,0.369819 -0.81446,1.138336 -0.50846,1.781782 2.36585,4.974528 1.15193,11.004505 -3.23002,14.683985 -4.44466,3.73217 -11.03913,3.79496 -15.55033,0.1436 -5.75348,-4.65688 -6.08315,-13.157452 -0.98899,-18.254821 3.71251,-3.714881 9.2874,-4.631652 13.93731,-2.413002 0.63921,0.304969 1.40308,0.09516 1.7706,-0.510577 l 0.003,-0.004 c 0.41094,-0.677287 0.1691,-1.578203 -0.54414,-1.922309 -5.69576,-2.747716 -12.54118,-1.635592 -17.09446,2.920552 z"
       id="path1-0"
       style="fill:#c83771;stroke-width:0.545547" />
    <path
       d="m 108.10059,98.938513 c -0.024,-0.1441 -0.0435,-0.28954 -0.0586,-0.43632 0.009,0.0872 0.0174,0.17293 0.0269,0.26013 -0.0675,-0.66266 -0.0508,-1.33199 0.0468,-1.990649 -0.0138,0.08666 -0.026,0.17187 -0.0397,0.258519 0.102,-0.662908 0.28909,-1.307799 0.55803,-1.923172 -0.0354,0.08177 -0.0707,0.16354 -0.106,0.242419 0.27492,-0.623921 0.6301,-1.211097 1.05785,-1.745782 -0.0569,0.07111 -0.11513,0.143642 -0.172,0.214702 0.43214,-0.536023 0.93086,-1.011001 1.48725,-1.416445 -0.0737,0.05327 -0.14901,0.108038 -0.22281,0.161319 0.56078,-0.406786 1.17181,-0.736975 1.8184,-0.982216 -0.0834,0.03133 -0.16675,0.06264 -0.24723,0.09403 0.61726,-0.231459 1.26295,-0.3825 1.91969,-0.453545 -0.0872,0.0095 -0.17288,0.01755 -0.26006,0.02704 0.65808,-0.06666 1.32133,-0.05057 1.97528,0.04793 -0.0866,-0.01368 -0.17178,-0.02591 -0.25838,-0.03961 0.65247,0.09991 1.28836,0.283496 1.89625,0.544679 -0.0817,-0.03533 -0.16344,-0.07065 -0.24225,-0.1059 0.63358,0.276306 1.23031,0.635798 1.76872,1.067802 -0.071,-0.0568 -0.14351,-0.115075 -0.2145,-0.171929 0.53551,0.43194 1.00995,0.930527 1.41485,1.486858 -0.0532,-0.07379 -0.10788,-0.149 -0.1611,-0.222785 0.40622,0.560716 0.73586,1.171758 0.97907,1.819845 -0.0312,-0.08339 -0.0625,-0.166773 -0.0939,-0.247262 0.23094,0.61735 0.38147,1.263185 0.45055,1.921552 -0.01,-0.0872 -0.0174,-0.17293 -0.0269,-0.26014 0.0661,0.65828 0.0496,1.32182 -0.0493,1.976101 0.0138,-0.0866 0.026,-0.171871 0.0397,-0.258531 -0.10037,0.652801 -0.28428,1.289067 -0.5472,1.895887 0.0354,-0.0817 0.0708,-0.16354 0.106,-0.24241 -0.27663,0.63402 -0.63781,1.22975 -1.07003,1.76867 0.0569,-0.0711 0.11512,-0.14362 0.172,-0.21472 -0.43214,0.53602 -0.93227,1.00951 -1.48725,1.41645 0.0738,-0.0533 0.14903,-0.108 0.22282,-0.1613 -0.55336,0.39971 -1.15563,0.72721 -1.79493,0.97118 0.0834,-0.0312 0.16675,-0.0626 0.24722,-0.094 -0.6261,0.23705 -1.28202,0.39219 -1.94745,0.46302 0.0871,-0.01 0.17288,-0.0175 0.26005,-0.027 -0.66097,0.0666 -1.32422,0.0505 -1.98107,-0.0481 0.0866,0.0136 0.17178,0.0259 0.25838,0.0396 -0.16741,-0.0273 -0.33475,-0.0574 -0.49903,-0.0933 0.14067,0.57601 0.28136,1.15203 0.42062,1.72657 0.008,-0.008 0.0162,-0.0155 0.0238,-0.0226 0.18999,-0.18095 0.31129,-0.45488 0.31928,-0.71707 0.006,-0.25208 -0.0977,-0.55468 -0.28315,-0.73168 -0.19107,-0.18294 -0.44262,-0.32242 -0.71657,-0.31892 -0.27253,0.005 -0.52972,0.0915 -0.73158,0.28378 -0.008,0.008 -0.0162,0.0155 -0.0238,0.0226 -0.26123,0.24879 -0.37355,0.62732 -0.29103,0.97868 0.0799,0.33971 0.36145,0.67125 0.71308,0.74936 1.52046,0.33118 3.137,0.29646 4.62288,-0.1937 1.35003,-0.44562 2.5958,-1.18515 3.59074,-2.2091 0.99486,-1.02105 1.74339,-2.2742 2.14992,-3.64292 0.41914,-1.409027 0.46867,-2.929937 0.15814,-4.36535 -0.30262,-1.403341 -0.96996,-2.708251 -1.89172,-3.804792 -0.45599,-0.541618 -0.98909,-1.012625 -1.55823,-1.432348 -0.57485,-0.422766 -1.20439,-0.745356 -1.86268,-1.017918 -0.67555,-0.27877 -1.37433,-0.439238 -2.09482,-0.542248 -0.74212,-0.107887 -1.47872,-0.08806 -2.21973,-0.0075 -0.64078,0.06999 -1.27198,0.221375 -1.87462,0.447395 -0.66842,0.249063 -1.3048,0.549649 -1.89595,0.954243 -0.58528,0.401842 -1.13258,0.849548 -1.60803,1.378721 -0.47395,0.527765 -0.89983,1.103087 -1.23567,1.728425 -0.69606,1.29937 -1.07467,2.768811 -1.05791,4.246385 0.004,0.47413 0.0516,0.95221 0.12834,1.419411 0.0415,0.25179 0.25812,0.51507 0.46941,0.641966 0.21133,0.12687 0.5228,0.18664 0.76359,0.1185 0.25831,-0.0735 0.51136,-0.226766 0.64205,-0.470046 0.13069,-0.24326 0.16141,-0.4875 0.1175,-0.762541 z"
       id="path2-2"
       style="fill:#c83771;stroke-width:0.0204904" />
    <path
       d="m 102.75533,110.69864 11.7643,-10.829956 c 0.29009,-0.26705 0.31408,-1.050311 -0.15325,-1.557951 -0.46732,-0.50765 -1.3418,-0.46379 -1.63187,-0.19674 l -11.67239,10.745347 c -0.29009,0.26705 -0.31403,1.05025 0.1533,1.55789 0.46732,0.50765 1.24982,0.54845 1.53991,0.28141 z"
       id="path2653-4"
       style="fill:#c83771;fill-opacity:0.986348;stroke-width:0.472456"
       sodipodi:nodetypes="sssssss" />
  </g>
</svg>
