<?xml version="1.0" encoding="UTF-8" standalone="no"?>
<svg
   viewBox="0 0 16 16"
   version="1.1"
   id="svg1"
   sodipodi:docname="audio-volume-high.svg"
   width="16"
   height="16"
   inkscape:version="1.3.2 (091e20ef0f, 2023-11-25)"
   xmlns:inkscape="http://www.inkscape.org/namespaces/inkscape"
   xmlns:sodipodi="http://sodipodi.sourceforge.net/DTD/sodipodi-0.dtd"
   xmlns:xlink="http://www.w3.org/1999/xlink"
   xmlns="http://www.w3.org/2000/svg"
   xmlns:svg="http://www.w3.org/2000/svg">
  <sodipodi:namedview
     id="namedview1"
     pagecolor="#ffffff"
     bordercolor="#000000"
     borderopacity="0.25"
     inkscape:showpageshadow="2"
     inkscape:pageopacity="0.0"
     inkscape:pagecheckerboard="0"
     inkscape:deskcolor="#d1d1d1"
     inkscape:zoom="11.298977"
     inkscape:cx="7.6998121"
     inkscape:cy="21.993142"
     inkscape:window-width="1920"
     inkscape:window-height="994"
     inkscape:window-x="0"
     inkscape:window-y="0"
     inkscape:window-maximized="1"
     inkscape:current-layer="svg1" />
  <defs
     id="defs3051">
    <style
       type="text/css"
       id="current-color-scheme">
      .ColorScheme-Text {
        color:#eff0f1;
      }
      </style>
    <linearGradient
       inkscape:collect="always"
       xlink:href="#linearGradient8"
       id="linearGradient3"
       gradientUnits="userSpaceOnUse"
       x1="0"
       y1="16"
       x2="32"
       y2="16"
       gradientTransform="translate(-17,-33.152357)" />
    <linearGradient
       id="linearGradient8"
       inkscape:collect="always">
      <stop
         style="stop-color:#058bce;stop-opacity:1;"
         offset="0"
         id="stop5" />
      <stop
         style="stop-color:#ff66ff;stop-opacity:1;"
         offset="1"
         id="stop6" />
    </linearGradient>
    <linearGradient
       inkscape:collect="always"
       xlink:href="#linearGradient8"
       id="linearGradient1"
       gradientUnits="userSpaceOnUse"
       x1="0"
       y1="16"
       x2="32"
       y2="16"
       gradientTransform="translate(-17,-33.152357)" />
    <linearGradient
       inkscape:collect="always"
       xlink:href="#linearGradient8"
       id="linearGradient2"
       gradientUnits="userSpaceOnUse"
       x1="0"
       y1="16"
       x2="32"
       y2="16"
       gradientTransform="translate(-17,-33.152357)" />
    <linearGradient
       inkscape:collect="always"
       xlink:href="#linearGradient8"
       id="linearGradient4"
       gradientUnits="userSpaceOnUse"
       x1="0"
       y1="16"
       x2="32"
       y2="16"
       gradientTransform="translate(-17,-33.152357)" />
    <linearGradient
       inkscape:collect="always"
       xlink:href="#linearGradient8"
       id="linearGradient19"
       x1="1.571425"
       y1="8"
       x2="10.142857"
       y2="8"
       gradientUnits="userSpaceOnUse"
       gradientTransform="matrix(0.97003629,0,0,1,0.01498186,0)" />
    <linearGradient
       inkscape:collect="always"
       xlink:href="#linearGradient8"
       id="linearGradient23"
       x1="12.986737"
       y1="8.1000004"
       x2="15.963339"
       y2="8.1000004"
       gradientUnits="userSpaceOnUse"
       gradientTransform="matrix(0.97003629,0,0,1,0.01498186,0)" />
    <linearGradient
       inkscape:collect="always"
       xlink:href="#linearGradient8"
       id="linearGradient21"
       x1="11.3"
       y1="8.1018438"
       x2="13.284395"
       y2="8.1018438"
       gradientUnits="userSpaceOnUse"
       gradientTransform="matrix(0.97003629,0,0,1,0.01498186,0)" />
  </defs>
  <g
     transform="translate(13.75,57.152263)"
     id="g1">
    <path
       d="m 3,-27.48247 c 0,-1.438133 -1.666644,-2.201091 -2.720654,-1.245536 l -5.873577,5.324246 c -0.179539,0.162757 -0.411413,0.251403 -0.651666,0.251403 h -4.811792 c -1.624994,0 -2.942311,1.34438 -2.942311,3.001202 v 5.9971 c 0,1.656768 1.317317,3.001698 2.942311,3.001698 h 4.811726 c 0.24027,0 0.472175,0.08806 0.651723,0.250861 l 5.873462,5.3248318 C 1.333356,-4.6208982 3,-5.3838232 3,-6.8220682 Z M -4.290901,-21.909095 1,-26.740097 v 19.1756578 l -5.290835,-4.8315158 c -0.53864,-0.488392 -1.234356,-0.756402 -1.955128,-0.756402 l -3.7e-5,-8 v 0 0 0 h 1.03e-4 c 0.72072,0 1.416374,-0.268494 1.954996,-0.756738 z"
       id="path2057"
       style="fill:url(#linearGradient1);fill-opacity:1;stroke-width:1.3205"
       sodipodi:nodetypes="sccssssssccssccccsccccsc" />
    <path
       d="m 8.404862,-24.963736 c 0.44372,-0.315569 1.06997,-0.225995 1.398758,0.200049 1.641289,2.127447 2.69638,4.761928 2.69638,7.611315 0,2.849386 -1.055091,5.483869 -2.69638,7.6113438 -0.328788,0.426102 -0.955038,0.51558 -1.398758,0.200051 C 7.961008,-9.6564892 7.867806,-10.257703 8.196475,-10.683808 9.591367,-12.491799 10.4,-14.728196 10.4,-17.152372 c 0,-2.42405 -0.808632,-4.660501 -2.203525,-6.468551 -0.328669,-0.426045 -0.235467,-1.027245 0.208387,-1.342813 z"
       id="path2059"
       style="fill:url(#linearGradient2);fill-opacity:1;stroke-width:1.30642"
       sodipodi:nodetypes="ccscccscc" />
    <path
       d="m 6.024215,-21.799599 c 0.485595,-0.252398 1.09251,-0.07907 1.355428,0.38721 0.714925,1.26797 1.120517,2.719932 1.120517,4.260017 0,1.540084 -0.405592,2.992106 -1.120517,4.260068 -0.262918,0.466173 -0.869833,0.639611 -1.355428,0.387197 -0.485712,-0.252414 -0.666371,-0.835067 -0.403453,-1.301242 0.56065,-0.994294 0.879448,-2.132978 0.879448,-3.346023 0,-1.213047 -0.318798,-2.351731 -0.879448,-3.345989 -0.262918,-0.466246 -0.08227,-1.048834 0.403453,-1.301238 z"
       id="path2061"
       style="fill:url(#linearGradient4);fill-opacity:1;stroke-width:1.30642" />
    <path
       d="m 5,-17.152366 c 0,1.105112 -0.894898,2.000009 -1.999997,2.000009 -1.104168,1e-6 -1.999996,-0.894897 -1.999996,-2.000009 0,-1.104169 0.895828,-1.999991 1.999996,-1.999991 1.105099,0 1.999997,0.895822 1.999997,1.999991 z"
       id="path72-3"
       style="color:#e5e9ef;fill:url(#linearGradient3);fill-opacity:1;stroke-width:0.0238098" />
    <path
       d="m -12.000007,-17.152366 c 0,1.105112 -0.894898,2.000009 -1.999997,2.000009 -1.104168,1e-6 -1.999996,-0.894897 -1.999996,-2.000009 0,-1.104169 0.895828,-1.999991 1.999996,-1.999991 1.105099,0 1.999997,0.895822 1.999997,1.999991 z"
       id="path72-3-7"
       style="color:#e5e9ef;fill:#058bce;fill-opacity:1;stroke-width:0.0238098" />
  </g>
  <path
     id="rect858"
     d="M 0,0 H 16 V 16 H 0 Z"
     fill="none" />
  <path
     d="m 9.8539185,2.7748198 c 0,-0.716335 -0.815145,-1.021474 -1.3306455,-0.545503 l -2.8727432,2.652037 c -0.087809,0.08105 -0.2012117,0.125224 -0.318718,0.125224 H 2.9783884 c -0.794776,0 -1.4390672,0.669649 -1.4390672,1.494923 v 2.987182 c 0,0.8252462 0.6442912,1.4951672 1.4390672,1.4951672 h 2.3533887 c 0.1175149,0 0.2309411,0.04381 0.3187501,0.124948 l 2.8726701,2.65233 c 0.5155752,0.476074 1.3307242,0.211445 1.3307242,-0.535718 z M 9.161037,7.2301448 V 2.7651088 13.22541 7.2301448 v 0 l -4.1572951,0.747168 v 0 z"
     id="path2057-3-3"
     style="fill:url(#linearGradient19);fill-opacity:1;stroke-width:0.651777"
     sodipodi:nodetypes="sccssssssccsscccccccccccc" />
  <path
     d="M 12.877321,2.7296699 C 13.167447,2.5127275 13.576929,2.5743033 13.791906,2.8672154 14.865083,4.3298309 15.5,6.1410311 15.5,8.0999937 c 0,1.9589513 -0.634917,3.7701593 -1.708094,5.2327983 -0.214978,0.292949 -0.624459,0.354452 -0.914585,0.137534 -0.290232,-0.216921 -0.351167,-0.63024 -0.136265,-0.923199 0.912056,-1.242985 1.451269,-2.780518 1.451269,-4.44713 0,-1.6665437 -0.539209,-3.2041006 -1.451269,-4.4471328 -0.214902,-0.2929115 -0.153967,-0.7062401 0.136265,-0.9231914 z"
     id="path2059-6-6"
     style="fill:url(#linearGradient23);fill-opacity:1;stroke-width:0.875915" />
  <path
     d="m 11.312743,4.906861 c 0.31155,-0.1735327 0.700968,-0.054299 0.869652,0.2662063 0.458704,0.8717221 0.71893,1.8699523 0.71893,2.9287527 0,1.058821 -0.260225,2.057082 -0.71893,2.92881 -0.168684,0.320489 -0.558102,0.439731 -0.869652,0.2662 -0.31165,-0.173551 -0.427558,-0.574107 -0.258854,-0.894621 0.359715,-0.683566 0.564261,-1.466413 0.564261,-2.300389 0,-0.8339622 -0.204545,-1.6168045 -0.564261,-2.3003663 -0.168704,-0.3205454 -0.05284,-0.7210722 0.258854,-0.8945927 z"
     id="path2061-7-7"
     style="fill:url(#linearGradient21);fill-opacity:1;stroke-width:0.867678" />
  <path
     d="m 2.5786473,7.9773048 c 0,0.619275 -0.4650451,1.120754 -1.0393242,1.120754 C 0.96552914,9.0980588 0.5,8.5965798 0.5,7.9773048 c 0,-0.618743 0.46552914,-1.120732 1.0393231,-1.120732 0.5742791,0 1.0393242,0.501989 1.0393242,1.120732 z"
     id="path72-3-7-3-5"
     style="color:#e5e9ef;fill:#058bce;fill-opacity:1;stroke-width:0.0128482" />
  <path
     d="m 10.5468,7.9773048 c 0,0.619275 -0.465039,1.120754 -1.0393242,1.120754 -0.3464388,0 -0.3464388,-1.120754 -0.3464388,-1.120754 0,0 0,-1.120732 0.3464388,-1.120732 0.5742852,0 1.0393242,0.501989 1.0393242,1.120732 z"
     id="path72-3-7-3-6-35"
     style="color:#e5e9ef;fill:#ff66ff;fill-opacity:1;stroke-width:0.0128482"
     sodipodi:nodetypes="sscss" />
</svg>
