<?xml version="1.0" encoding="UTF-8" standalone="no"?>
<svg
   width="32"
   height="32"
   version="1.1"
   id="svg196"
   sodipodi:docname="weather-overcast-night.svg"
   inkscape:version="1.2.1 (9c6d41e410, 2022-07-14)"
   xmlns:inkscape="http://www.inkscape.org/namespaces/inkscape"
   xmlns:sodipodi="http://sodipodi.sourceforge.net/DTD/sodipodi-0.dtd"
   xmlns="http://www.w3.org/2000/svg"
   xmlns:svg="http://www.w3.org/2000/svg">
  <sodipodi:namedview
     id="namedview198"
     pagecolor="#ffffff"
     bordercolor="#666666"
     borderopacity="1.0"
     inkscape:showpageshadow="2"
     inkscape:pageopacity="0.0"
     inkscape:pagecheckerboard="0"
     inkscape:deskcolor="#d1d1d1"
     showgrid="false"
     inkscape:zoom="7.375"
     inkscape:cx="16"
     inkscape:cy="16.067797"
     inkscape:window-width="1920"
     inkscape:window-height="1000"
     inkscape:window-x="0"
     inkscape:window-y="0"
     inkscape:window-maximized="1"
     inkscape:current-layer="svg196" />
  <defs
     id="defs190">
    <linearGradient
       id="linearGradient1090"
       x1="15.909"
       x2="15.909"
       y1="7.1975"
       y2="25.334"
       gradientTransform="translate(29.474 -3.3333)"
       gradientUnits="userSpaceOnUse">
      <stop
         stop-color="#fff"
         offset="0"
         id="stop185" />
      <stop
         stop-color="#ececec"
         offset="1"
         id="stop187" />
    </linearGradient>
  </defs>
  <path
     d="m29.031 1.2354a0.5 0.5 0 0 0-0.5 0.5 0.5 0.5 0 0 0 0.5 0.5 0.5 0.5 0 0 0 0.5-0.5 0.5 0.5 0 0 0-0.5-0.5zm-25.5 1a1 1 0 0 0-1 1 1 1 0 0 0 1 1 1 1 0 0 0 1-1 1 1 0 0 0-1-1zm19 0a3 3 0 0 1-3 3 3 3 0 0 1 3 3 3 3 0 0 1 3-3 3 3 0 0 1-3-3zm4 5a2 2 0 0 1-2 2 2 2 0 0 1 2 2 2 2 0 0 1 2-2 2 2 0 0 1-2-2zm3.5 17a1.5 1.5 0 0 0-1.5 1.5 1.5 1.5 0 0 0 1.5 1.5 1.5 1.5 0 0 0 1.5-1.5 1.5 1.5 0 0 0-1.5-1.5zm-5 4a0.5 0.5 0 0 0-0.5 0.5 0.5 0.5 0 0 0 0.5 0.5 0.5 0.5 0 0 0 0.5-0.5 0.5 0.5 0 0 0-0.5-0.5z"
     fill="#d1d9dd"
     id="path194" />
  <path
     d="M 9.446858,7.34 C 9.226763,7.34 8.991053,7.35065 8.751785,7.38118 4.92851,7.8732004 5.044942,11.154046 5.044942,11.154046 3.47872,11.420292 2.205,12.786305 2.205,14.215507 c 0,1.427074 1.630837,2.693689 3.001817,3.06146 0.815779,0.218679 1.883598,0 1.883598,0 0.484217,0.853399 2.080259,1.419979 3.193514,1.419979 1.81473,0 3.680574,-0.602079 4.110116,-1.419979 0,0 7.51663,0.60136 9.076467,0 2.271246,-0.87541 1.561257,-3.610279 0.05038,-4.535391 -1.510845,-0.925112 -3.485322,-0.278314 -3.485322,-0.278314 0,0 -0.0085,-1.883594 -2.144159,-2.783147 -2.137055,-0.9002625 -3.938996,1.092669 -3.938996,1.092669 0,0 -1.197045,-3.4121936 -4.502736,-3.4327832 z"
     fill="#d8d8d8"
     id="path2"
     style="stroke-width:0.709986" />
  <path
     d="m 17.060754,14.439863 c -0.19312,0 -0.399015,0.0092 -0.608455,0.03621 -3.345454,0.430961 -3.243933,3.301441 -3.243933,3.301441 -1.37027,0.232878 -2.485656,1.427068 -2.485656,2.678776 0,1.250285 1.42707,2.357145 2.626943,2.678773 0.709985,0.191697 1.64859,0 1.64859,0 0.423862,0.746913 1.820404,1.244611 2.794504,1.244611 1.588242,0 3.2205,-0.526822 3.596087,-1.244611 0,0 6.576599,0.526095 7.941903,0 1.987251,-0.766074 1.366012,-3.15944 0.044,-3.968822 -1.321995,-0.809378 -3.0501,-0.243521 -3.0501,-0.243521 0,0 -0.0079,-1.647878 -1.877209,-2.435259 -1.870104,-0.787372 -3.446267,0.956355 -3.446267,0.956355 0,0 -1.047942,-2.985493 -3.939716,-3.003243 z"
     fill="#eceff4"
     id="path4"
     style="stroke-width:0.709986" />
</svg>
