<?xml version="1.0" encoding="UTF-8" standalone="no"?>
<svg
   width="32"
   height="32"
   viewBox="0 0 32 32"
   fill="none"
   version="1.1"
   id="svg2"
   sodipodi:docname="elisa-symbolic.svg"
   inkscape:version="1.3.2 (091e20ef0f, 2023-11-25)"
   xmlns:inkscape="http://www.inkscape.org/namespaces/inkscape"
   xmlns:sodipodi="http://sodipodi.sourceforge.net/DTD/sodipodi-0.dtd"
   xmlns:xlink="http://www.w3.org/1999/xlink"
   xmlns="http://www.w3.org/2000/svg"
   xmlns:svg="http://www.w3.org/2000/svg">
  <defs
     id="defs2">
    <linearGradient
       inkscape:collect="always"
       xlink:href="#linearGradient1"
       id="linearGradient5"
       x1="-37.24036"
       y1="35.330158"
       x2="-16.793045"
       y2="35.330158"
       gradientUnits="userSpaceOnUse" />
    <linearGradient
       id="linearGradient1"
       inkscape:collect="always">
      <stop
         style="stop-color:#55ff99;stop-opacity:1"
         offset="0"
         id="stop1" />
      <stop
         style="stop-color:#00d455;stop-opacity:1"
         offset="1"
         id="stop2" />
    </linearGradient>
    <linearGradient
       inkscape:collect="always"
       xlink:href="#linearGradient1"
       id="linearGradient2"
       x1="-25"
       y1="-5"
       x2="-5"
       y2="-28"
       gradientUnits="userSpaceOnUse" />
  </defs>
  <sodipodi:namedview
     id="namedview2"
     pagecolor="#ffffff"
     bordercolor="#000000"
     borderopacity="0.25"
     inkscape:showpageshadow="2"
     inkscape:pageopacity="0.0"
     inkscape:pagecheckerboard="0"
     inkscape:deskcolor="#d1d1d1"
     inkscape:zoom="8.4742328"
     inkscape:cx="8.0243252"
     inkscape:cy="-3.3631363"
     inkscape:window-width="1920"
     inkscape:window-height="994"
     inkscape:window-x="0"
     inkscape:window-y="0"
     inkscape:window-maximized="1"
     inkscape:current-layer="svg2" />
  <style
     type="text/css"
     id="current-color-scheme">
.ColorScheme-Text {
  color:#232629;
}
</style>
  <path
     fill="currentColor"
     fill-rule="evenodd"
     clip-rule="evenodd"
     d="m 4.4476939,-25.99877 c 0,-0.10355 0.00525,-0.20588 0.01549,-0.30673 0.15363,-1.51277 1.43121,-2.69327 2.98451,-2.69327 H 25.447694 c 1.6569,0 3,1.34315 3,3 v 12 c 0,1.6569 -1.3431,3 -3,3 H 7.4476939 c -1.65685,0 -3,-1.3431 -3,-3 z m 1.01033,-0.20449 c 0.10242,-1.00851 0.95414,-1.79551 1.98967,-1.79551 H 25.447694 c 1.1046,0 2,0.89543 2,2 v 9 c 0,1.1046 -0.8954,2 -2,2 H 7.4476939 c -1.10457,0 -2,-0.8954 -2,-2 v -9 c 0,-0.06904 0.0035,-0.13725 0.01033,-0.20449 z m 21.9896701,11.44059 v 0.7639 c 0,1.1046 -0.8954,2 -2,2 H 7.4476939 c -1.10457,0 -2,-0.8954 -2,-2 v -0.7639 c 0.53076,0.475 1.23165,0.7639 2,0.7639 H 25.447694 c 0.7684,0 1.4692,-0.2889 2,-0.7639 z"
     class="ColorScheme-Text"
     id="path1" />
  <path
     fill="currentColor"
     fill-rule="evenodd"
     clip-rule="evenodd"
     d="m 11.947694,-23.99877 c -1.3807,0 -2.5000001,1.1193 -2.5000001,2.5 0,1.3807 1.1193001,2.5 2.5000001,2.5 h 9 c 1.3807,0 2.5,-1.1193 2.5,-2.5 0,-1.3807 -1.1193,-2.5 -2.5,-2.5 z m -1.5,2.5 c 0,-0.8284 0.6716,-1.5 1.5,-1.5 0.8284,0 1.5,0.6716 1.5,1.5 0,0.8284 -0.6716,1.5 -1.5,1.5 -0.8284,0 -1.5,-0.6716 -1.5,-1.5 z m 9,0 c 0,-0.8284 0.6716,-1.5 1.5,-1.5 0.8284,0 1.5,0.6716 1.5,1.5 0,0.8284 -0.6716,1.5 -1.5,1.5 -0.8284,0 -1.5,-0.6716 -1.5,-1.5 z"
     class="ColorScheme-Text"
     id="path2" />
  <g
     id="elisa">
    <rect
       style="opacity:0.00100002"
       width="32"
       height="32"
       x="0"
       y="0"
       id="rect9" />
    <g
       id="g12"
       transform="matrix(0.52861192,0,0,0.52861192,30.213835,-2.620193)">
      <g
         id="g5" />
      <g
         id="g10">
        <g
           id="g8">
          <path
             d="m -17.282004,39.629847 c 0,0 1.100157,-0.331975 0,0 -0.340092,1.245438 -0.868076,2.452551 -1.508898,3.509044 -0.717442,1.358275 -1.660568,2.527596 -2.792108,3.509031 -1.093753,1.018704 -2.339183,1.811204 -3.697443,2.376447 -1.433327,0.566297 -3.093373,0.830288 -4.640058,0.830288 -1.207118,0 -2.603181,-0.188415 -3.509038,-0.527982 -0.86755,-0.37788 -1.485292,-0.934573 -2.051585,-1.500866 -0.603554,-0.641347 -1.080093,-1.29125 -1.344085,-2.083746 -0.26399,-0.829759 -0.415143,-1.659523 -0.415143,-2.527073 0,-0.980907 0.151153,-1.999615 0.452931,-3.018314 0.33957,-1.056492 0.791967,-2.037405 1.396056,-2.942749 1.357748,-1.961817 3.017793,-3.206719 5.31919,-3.810284 -0.830288,-0.60355 -1.395537,-1.282691 -1.77289,-2.075192 -0.377881,-0.791975 -0.566295,-1.622256 -0.566295,-2.452017 0,-1.018705 0.188414,-1.924042 0.603558,-2.904954 0.452923,-0.905337 1.0187,-1.81068 1.735627,-2.602652 0.716916,-0.791976 1.584994,-1.396052 2.603176,-1.886255 1.018695,-0.452925 2.112973,-0.716916 3.320087,-0.716916 6.225054,0 7.055342,6.941973 4.980669,11.091304 -1.245427,-0.791969 -1.811722,-1.924039 -2.604223,-2.565389 3.885865,-5.394757 -4.112067,-8.941058 -5.923272,-2.79211 -0.188408,0.641345 -0.301245,1.282693 -0.301245,1.886249 0,0.566297 0.07502,1.094279 0.226726,1.622263 0.754181,2.980525 1.710954,2.263077 4.690954,2.074665 l -1.203436,2.603172 c -5.207743,0.263684 -10.591477,3.423702 -9.420809,8.40086 1.286165,5.468203 11.404149,4.690053 14.49752,-3.119461 -2.150767,0.452403 1.924034,-0.377363 1.924034,-0.377363 z"
             id="path6-3"
             sodipodi:nodetypes="cccccscccsccccscscscccscccscc"
             style="fill:url(#linearGradient5);fill-opacity:1;stroke:none;stroke-width:0.524834" />
        </g>
      </g>
    </g>
    <path
       style="color:#31363b;fill:none;fill-opacity:1;stroke:url(#linearGradient2);stroke-width:1.60375;stroke-linecap:round;stroke-miterlimit:4;stroke-dasharray:none;stroke-opacity:1;stop-color:#31363b"
       class="ColorScheme-Text"
       sodipodi:type="arc"
       sodipodi:cx="-15.999636"
       sodipodi:cy="-15.998841"
       sodipodi:rx="11.20006"
       sodipodi:ry="11.20006"
       sodipodi:start="4.2664334"
       sodipodi:end="3.7574109"
       sodipodi:open="true"
       sodipodi:arc-type="arc"
       transform="scale(-1)"
       d="m -20.830448,-26.103523 a 11.20006,11.20006 0 0 1 14.2406968,4.030522 11.20006,11.20006 0 0 1 -2.1906096,14.6370688 11.20006,11.20006 0 0 1 -14.7967282,-0.3152701 11.20006,11.20006 0 0 1 -1.565168,-14.7170917"
       id="path12" />
    <path
       id="path9-3"
       class="ColorScheme-Text"
       d="m 17.392072,9.6689628 v 7.5515342 c -0.645003,-0.278058 -1.39401,-0.202909 -2.19249,0.127814 -1.336562,0.553055 -2.102916,1.765397 -1.712459,2.707991 0.390456,0.942916 1.791616,1.260069 3.128488,0.706707 1.054558,-0.437588 1.700409,-1.57477 1.700409,-2.259921 v -6.706096 0 0 0 0 -1.9255714 C 18.025866,9.7487728 17.718077,9.6806968 17.392072,9.6689628 Z"
       style="fill:#d3dae3;fill-opacity:1;stroke:none;stroke-width:0.770148"
       sodipodi:nodetypes="cccccsccccccc" />
  </g>
</svg>
