<?xml version="1.0" encoding="UTF-8" standalone="no"?>
<svg
   width="36"
   version="1.1"
   height="36"
   id="svg19"
   sodipodi:docname="folder-development.svg"
   inkscape:version="1.3.1 (91b66b0783, 2023-11-16)"
   xmlns:inkscape="http://www.inkscape.org/namespaces/inkscape"
   xmlns:sodipodi="http://sodipodi.sourceforge.net/DTD/sodipodi-0.dtd"
   xmlns:xlink="http://www.w3.org/1999/xlink"
   xmlns="http://www.w3.org/2000/svg"
   xmlns:svg="http://www.w3.org/2000/svg"
   xmlns:rdf="http://www.w3.org/1999/02/22-rdf-syntax-ns#"
   xmlns:cc="http://creativecommons.org/ns#"
   xmlns:dc="http://purl.org/dc/elements/1.1/">
  <sodipodi:namedview
     pagecolor="#ffffff"
     bordercolor="#666666"
     borderopacity="1"
     objecttolerance="10"
     gridtolerance="10"
     guidetolerance="10"
     inkscape:pageopacity="0"
     inkscape:pageshadow="2"
     inkscape:window-width="1920"
     inkscape:window-height="994"
     id="namedview21"
     showgrid="true"
     inkscape:zoom="9.8623731"
     inkscape:cx="-7.2497764"
     inkscape:cy="29.35399"
     inkscape:window-x="0"
     inkscape:window-y="0"
     inkscape:window-maximized="1"
     inkscape:current-layer="layer1"
     inkscape:document-rotation="0"
     inkscape:showpageshadow="2"
     inkscape:pagecheckerboard="0"
     inkscape:deskcolor="#d1d1d1">
    <inkscape:grid
       type="xygrid"
       id="grid941"
       originx="0"
       originy="0"
       spacingy="1"
       spacingx="1"
       units="px"
       visible="true" />
  </sodipodi:namedview>
  <defs
     id="defs5455">
    <clipPath
       clipPathUnits="userSpaceOnUse"
       id="clipPath79425-9-5-3">
      <rect
         style="opacity:0.5;fill:#000000;fill-opacity:1;stroke:none;stroke-width:0.855869;stroke-dasharray:none;stroke-opacity:1;paint-order:stroke fill markers"
         id="rect79427-1-9-6"
         width="26.417742"
         height="29.037542"
         x="-16.227774"
         y="-6.4845476" />
    </clipPath>
    <clipPath
       clipPathUnits="userSpaceOnUse"
       id="clipPath79425-9-5-5">
      <rect
         style="opacity:0.5;fill:#000000;fill-opacity:1;stroke:none;stroke-width:0.855869;stroke-dasharray:none;stroke-opacity:1;paint-order:stroke fill markers"
         id="rect79427-1-9-62"
         width="26.417742"
         height="29.037542"
         x="-16.227774"
         y="-6.4845476" />
    </clipPath>
    <linearGradient
       id="linearGradient1"
       inkscape:collect="always">
      <stop
         style="stop-color:#ffd42a;stop-opacity:1"
         offset="0"
         id="stop7-9" />
      <stop
         style="stop-color:#ddafe9;stop-opacity:1"
         offset="1"
         id="stop8-2" />
    </linearGradient>
    <linearGradient
       inkscape:collect="always"
       xlink:href="#linearGradient1"
       id="linearGradient17"
       x1="392.57144"
       y1="536.79797"
       x2="444.57144"
       y2="507.798"
       gradientUnits="userSpaceOnUse"
       gradientTransform="matrix(0.4937764,0,0,0.86206901,196.10014,51.44108)" />
    <linearGradient
       inkscape:collect="always"
       xlink:href="#linearGradient1"
       id="linearGradient8-5"
       x1="147"
       y1="462"
       x2="162.78572"
       y2="445"
       gradientUnits="userSpaceOnUse" />
    <linearGradient
       inkscape:collect="always"
       xlink:href="#linearGradient1"
       id="linearGradient2"
       gradientUnits="userSpaceOnUse"
       gradientTransform="matrix(0.88456835,0,0,0.85719785,54.358582,-3.389655)"
       x1="389.57144"
       y1="598.79797"
       x2="399.57144"
       y2="588.79797" />
  </defs>
  <metadata
     id="metadata5458">
    <rdf:RDF>
      <cc:Work
         rdf:about="">
        <dc:format>image/svg+xml</dc:format>
        <dc:type
           rdf:resource="http://purl.org/dc/dcmitype/StillImage" />
      </cc:Work>
    </rdf:RDF>
  </metadata>
  <g
     inkscape:label="Capa 1"
     inkscape:groupmode="layer"
     id="layer1"
     transform="translate(-384.57143,-483.798)">
    <path
       inkscape:connector-curvature="0"
       id="fill-3"
       d="m 390.43641,490.4049 2e-5,22.71983 c -0.0461,0.49262 -0.11376,0.78206 -0.318,1.07327 h 24.51303 c 0.62105,0 0.98756,-0.17715 0.98756,-1.71864 V 504.198 l -2,-4 v -7 -2 c 0,-0.5752 -1.22689,-2 -2,-2 h -20.19948 c -0.48934,0 -0.98311,0 -0.98313,1.2069 z"
       style="color:#1e92ff;opacity:0.4;fill:url(#linearGradient17);fill-opacity:0.4;fill-rule:nonzero;stroke:none;stroke-width:5.29537"
       sodipodi:nodetypes="cccccccccccc" />
    <path
       id="path2996-5-2-2"
       d="m 405.63643,499.798 c -0.39865,1.8e-4 -0.78759,0.13189 -0.9921,0.29446 -0.24106,0.19178 -0.36205,0.4391 -0.4411,0.66798 -0.19511,0.56524 -0.1524,0.7674 -0.36628,0.93761 -0.21307,0.16948 -0.46227,0.30749 -0.72194,0.39992 -0.26019,0.0924 -0.42153,-0.0441 -1.03018,-0.16413 -0.2468,-0.0487 -0.53375,-0.0705 -0.8227,0.0322 -0.24623,0.088 -0.56277,0.34677 -0.76309,0.67978 l -0.18313,0.30475 c -0.19929,0.33072 -0.27696,0.71933 -0.23199,0.97271 0.0533,0.30049 0.2169,0.52236 0.38309,0.70163 0.41141,0.44415 0.61553,0.50936 0.6624,0.77349 0.0464,0.26191 0.0464,0.53797 0,0.79985 -0.0464,0.26396 -0.251,0.32942 -0.6624,0.7735 -0.16395,0.17696 -0.32961,0.39851 -0.38309,0.70025 -0.0452,0.25487 0.0323,0.6424 0.23199,0.97419 l 0.18313,0.30468 c 0.19911,0.33142 0.51318,0.59132 0.76162,0.67973 v -0.002 c 0.29175,0.10408 0.5762,0.0823 0.82417,0.0333 0.60866,-0.11995 0.76974,-0.25674 1.03018,-0.16409 0.25962,0.0922 0.50886,0.23043 0.72194,0.39991 0.21374,0.17004 0.17119,0.37231 0.36628,0.93755 0.0791,0.2288 0.20013,0.47627 0.4411,0.66807 0.20556,0.16323 0.59395,0.29466 0.9921,0.29466 h 0.36783 c 0.39903,2.5e-4 0.789,-0.13187 0.99357,-0.29445 0.24168,-0.19213 0.3622,-0.43872 0.44104,-0.66654 0.19535,-0.56388 0.15359,-0.76861 0.36785,-0.93906 0.21363,-0.16986 0.46141,-0.3077 0.72047,-0.39992 0.26014,-0.0924 0.42156,0.044 1.03025,0.16413 0.24669,0.0486 0.53372,0.0705 0.82259,-0.0321 0.24615,-0.0879 0.56285,-0.34666 0.76311,-0.67976 l 0.0919,-0.15236 0.0919,-0.15227 c 0.19928,-0.33084 0.2769,-0.71942 0.23199,-0.97276 -0.0533,-0.30057 -0.21698,-0.52233 -0.3831,-0.70169 -0.4115,-0.44415 -0.61559,-0.50935 -0.66242,-0.77347 -0.0462,-0.2619 -0.0462,-0.53795 0,-0.79986 0.0465,-0.26398 0.25093,-0.3294 0.66242,-0.77347 0.16397,-0.17696 0.32956,-0.39852 0.3831,-0.70028 0.0452,-0.25489 -0.0322,-0.64238 -0.23199,-0.97416 l -0.0919,-0.15236 -0.0919,-0.15235 c -0.19904,-0.33139 -0.51323,-0.59124 -0.7616,-0.67975 v 0.002 c -0.29171,-0.10412 -0.57624,-0.0824 -0.8241,-0.0333 -0.60872,0.11995 -0.76989,0.25676 -1.03025,0.16409 -0.25902,-0.092 -0.50679,-0.23001 -0.72047,-0.39994 -0.21477,-0.17088 -0.17278,-0.37443 -0.36785,-0.93755 -0.0789,-0.22772 -0.19946,-0.4745 -0.44104,-0.66657 -0.20008,-0.15906 -0.59061,-0.29591 -0.99202,-0.29591 h -0.18468 -0.18314 z m 0,0.75004 h 0.18471 0.18468 c 0.29114,0 0.41408,0.059 0.49447,0.12304 0.0806,0.0639 0.14077,0.16456 0.19689,0.32669 0.11226,0.32428 0.11804,0.88448 0.61198,1.27746 0.28136,0.22372 0.60291,0.40371 0.94628,0.5259 0.60167,0.2141 1.10999,-0.0646 1.45919,-0.13332 0.17461,-0.0341 0.29739,-0.033 0.39527,0.002 0.0979,0.0347 0.21023,0.10953 0.35561,0.3516 l 0.0931,0.15231 0.0918,0.1523 c 0.14556,0.242 0.15487,0.37595 0.13738,0.47466 -0.0179,0.0988 -0.0786,0.19741 -0.1969,0.32521 -0.23679,0.25551 -0.73958,0.53978 -0.84712,1.14707 -0.0611,0.34619 -0.0612,0.70555 0,1.0518 0.10762,0.6073 0.61025,0.89136 0.84712,1.14702 0.1184,0.12781 0.17934,0.22954 0.1969,0.32815 0.0174,0.0987 0.009,0.22988 -0.13738,0.47173 l -0.0918,0.15234 -0.0931,0.15236 c -0.14559,0.24193 -0.25914,0.31665 -0.35711,0.35153 -0.0982,0.0347 -0.21922,0.0358 -0.39376,0.002 -0.34912,-0.0688 -0.85757,-0.34759 -1.4592,-0.13334 -0.34335,0.1221 -0.6649,0.302 -0.94628,0.52588 -0.49393,0.39295 -0.49968,0.95443 -0.61197,1.27884 -0.0559,0.16221 -0.11659,0.26285 -0.19689,0.32671 -0.0803,0.0638 -0.20341,0.12169 -0.49448,0.12158 h -0.36938 c -0.29115,0 -0.41438,-0.0575 -0.49455,-0.12162 -0.0799,-0.064 -0.1409,-0.16481 -0.19689,-0.32695 -0.11189,-0.32422 -0.11641,-0.88577 -0.61052,-1.27883 -0.28184,-0.2242 -0.60476,-0.40388 -0.94777,-0.52594 -0.60158,-0.2141 -1.10986,0.0646 -1.45908,0.13332 -0.1746,0.0341 -0.29744,0.0331 -0.39537,-0.002 -0.098,-0.0346 -0.21021,-0.10947 -0.35559,-0.35151 l -0.18462,-0.30456 c -0.14562,-0.24199 -0.15488,-0.37591 -0.13744,-0.47466 0.0179,-0.0987 0.0786,-0.19741 0.19687,-0.3252 0.23684,-0.2556 0.73956,-0.53978 0.84706,-1.14707 0.0611,-0.34617 0.0611,-0.70554 0,-1.05175 -0.10755,-0.60734 -0.61017,-0.89151 -0.84706,-1.14711 -0.1184,-0.1278 -0.17936,-0.22949 -0.19687,-0.32814 -0.0179,-0.0986 -0.009,-0.2299 0.13744,-0.47176 l 0.18462,-0.30462 c 0.1456,-0.24201 0.25915,-0.31669 0.35718,-0.35156 0.0981,-0.0347 0.21923,-0.0358 0.39377,-0.002 0.34907,0.0687 0.85752,0.34742 1.45908,0.1333 0.34298,-0.12205 0.66592,-0.30159 0.94778,-0.5259 0.4941,-0.3931 0.49858,-0.95456 0.61051,-1.27889 0.0562,-0.1622 0.11679,-0.26298 0.1969,-0.32667 0.0803,-0.0637 0.20349,-0.12173 0.49454,-0.12151 z m 0.18471,3.00018 c -1.2935,0 -2.34435,1.00864 -2.34435,2.25014 0,1.24153 1.05084,2.25015 2.34435,2.25015 1.29345,0 2.34437,-1.00862 2.34437,-2.25015 0,-1.2415 -1.05092,-2.25014 -2.34437,-2.25014 z m 0,2.25014 z"
       sodipodi:nodetypes="scccscscccscssscccccssscscsccscsccccsssssccccccssscsccsccssssssccccsssssscccscscsscsssssscccssscssccscscsccsssssccscc"
       style="fill:url(#linearGradient2);stroke-width:0.76558"
       inkscape:transform-center-x="-7.5032651"
       inkscape:transform-center-y="-11.559084" />
    <g
       transform="matrix(1.0769231,0,0,1,230.26373,53.798)"
       id="g3">
      <path
         d="M 171,445.707 V 438 c 0,-0.796 -0.316,-1.559 -0.879,-2.121 C 169.559,435.316 168.796,435 168,435 h -8.5 v 0.028 l -0.244,-0.226 C 158.701,434.286 157.972,434 157.215,434 H 150 c -1.657,0 -3,1.343 -3,3 v 22 c 0,0.796 0.316,1.559 0.879,2.121 0.562,0.563 1.325,0.879 2.121,0.879 h 20 c 0.796,0 1.559,-0.316 2.121,-0.879 C 172.684,460.559 173,459.796 173,459 v -10.128 c 0,-0.834 -0.347,-1.631 -0.959,-2.198 z m 0.14286,3.165 V 459 c 0,0.265 -0.24786,0.52 -0.43586,0.707 C 170.52,459.895 170.265,460 170,460 h -20 c -0.265,0 -0.52,-0.105 -0.707,-0.293 -0.188,-0.187 -0.43585,-0.442 -0.43585,-0.707 v -22 c 0,-0.552 0.59085,-1 1.14285,-1 h 7.215 c 0.252,0 0.495,0.095 0.68,0.267 l 12.785,11.872 c 0.204,0.19 0.46286,0.455 0.46286,0.733 z M 153.5,440 Z m 8.123,-3 7.377,6.85 V 438 c 0,-0.265 -0.105,-0.52 -0.293,-0.707 C 168.52,437.105 168.265,437 168,437 Z M 152,440 h 5 c 0.552,0 1,-0.448 1,-1 0,-0.552 -0.448,-1 -1,-1 h -5 c -0.552,0 -1,0.448 -1,1 0,0.552 0.448,1 1,1 z"
         id="path1-0-8"
         style="fill:url(#linearGradient8-5)"
         sodipodi:nodetypes="cscscccsssscsscssccsscsscssssccscscscccccscscsssssss" />
    </g>
  </g>
</svg>
