<?xml version="1.0" encoding="UTF-8" standalone="no"?>
<svg
   width="36"
   version="1.1"
   height="36"
   id="svg24"
   sodipodi:docname="folder-black.svg"
   inkscape:version="1.3.1 (91b66b0783, 2023-11-16)"
   xmlns:inkscape="http://www.inkscape.org/namespaces/inkscape"
   xmlns:sodipodi="http://sodipodi.sourceforge.net/DTD/sodipodi-0.dtd"
   xmlns:xlink="http://www.w3.org/1999/xlink"
   xmlns="http://www.w3.org/2000/svg"
   xmlns:svg="http://www.w3.org/2000/svg"
   xmlns:rdf="http://www.w3.org/1999/02/22-rdf-syntax-ns#"
   xmlns:cc="http://creativecommons.org/ns#"
   xmlns:dc="http://purl.org/dc/elements/1.1/">
  <sodipodi:namedview
     pagecolor="#ffffff"
     bordercolor="#666666"
     borderopacity="1"
     objecttolerance="10"
     gridtolerance="10"
     guidetolerance="10"
     inkscape:pageopacity="0"
     inkscape:pageshadow="2"
     inkscape:window-width="1920"
     inkscape:window-height="994"
     id="namedview26"
     showgrid="false"
     inkscape:zoom="9.8623729"
     inkscape:cx="9.683268"
     inkscape:cy="18.403279"
     inkscape:window-x="0"
     inkscape:window-y="0"
     inkscape:window-maximized="1"
     inkscape:current-layer="layer1"
     inkscape:document-rotation="0"
     inkscape:showpageshadow="2"
     inkscape:pagecheckerboard="0"
     inkscape:deskcolor="#d1d1d1" />
  <defs
     id="defs5455">
    <linearGradient
       id="linearGradient6"
       inkscape:collect="always">
      <stop
         style="stop-color:#000000;stop-opacity:1;"
         offset="0"
         id="stop1" />
      <stop
         style="stop-color:#1f1f1f;stop-opacity:0.40000001;"
         offset="0.53227156"
         id="stop2" />
      <stop
         style="stop-color:#000000;stop-opacity:1;"
         offset="1"
         id="stop6" />
    </linearGradient>
    <linearGradient
       id="linearGradient3"
       inkscape:collect="always">
      <stop
         style="stop-color:#000000;stop-opacity:1;"
         offset="0"
         id="stop3" />
      <stop
         style="stop-color:#121212;stop-opacity:1;"
         offset="0.53227156"
         id="stop5" />
      <stop
         style="stop-color:#000000;stop-opacity:1;"
         offset="1"
         id="stop4" />
    </linearGradient>
    <linearGradient
       id="linearGradient4232">
      <stop
         style="stop-color:#333333"
         id="stop4234" />
      <stop
         offset="1"
         style="stop-color:#353535"
         id="stop4236" />
    </linearGradient>
    <linearGradient
       id="linearGradient4172">
      <stop
         style="stop-color:#383e43;stop-opacity:0.47496617;"
         id="stop4174"
         offset="0" />
      <stop
         offset="1"
         style="stop-color:#4f4f4f;stop-opacity:0.46955344;"
         id="stop4176" />
    </linearGradient>
    <linearGradient
       id="linearGradient4233">
      <stop
         style="stop-color:#212121"
         id="stop4235" />
      <stop
         offset="1"
         style="stop-color:#1d2022;stop-opacity:0"
         id="stop4237" />
    </linearGradient>
    <clipPath
       clipPathUnits="userSpaceOnUse"
       id="clipPath79425-9-5-3">
      <rect
         style="opacity:0.5;fill:#000000;fill-opacity:1;stroke:none;stroke-width:0.855869;stroke-dasharray:none;stroke-opacity:1;paint-order:stroke fill markers"
         id="rect79427-1-9-6"
         width="26.417742"
         height="29.037542"
         x="-16.227774"
         y="-6.4845476" />
    </clipPath>
    <clipPath
       clipPathUnits="userSpaceOnUse"
       id="clipPath79425-9-5-5">
      <rect
         style="opacity:0.5;fill:#000000;fill-opacity:1;stroke:none;stroke-width:0.855869;stroke-dasharray:none;stroke-opacity:1;paint-order:stroke fill markers"
         id="rect79427-1-9-62"
         width="26.417742"
         height="29.037542"
         x="-16.227774"
         y="-6.4845476" />
    </clipPath>
    <linearGradient
       inkscape:collect="always"
       xlink:href="#linearGradient6"
       id="linearGradient17"
       x1="392.57144"
       y1="536.79797"
       x2="444.57144"
       y2="507.798"
       gradientUnits="userSpaceOnUse"
       gradientTransform="matrix(0.4937764,0,0,0.86206901,196.23514,51.47426)" />
    <linearGradient
       inkscape:collect="always"
       xlink:href="#linearGradient3"
       id="linearGradient2-5"
       gradientUnits="userSpaceOnUse"
       x1="147"
       y1="462"
       x2="173"
       y2="434"
       gradientTransform="matrix(1.0769231,0,0,1,230.26373,53.797995)" />
  </defs>
  <metadata
     id="metadata5458">
    <rdf:RDF>
      <cc:Work
         rdf:about="">
        <dc:format>image/svg+xml</dc:format>
        <dc:type
           rdf:resource="http://purl.org/dc/dcmitype/StillImage" />
      </cc:Work>
    </rdf:RDF>
  </metadata>
  <g
     inkscape:label="Capa 1"
     inkscape:groupmode="layer"
     id="layer1"
     transform="translate(-384.57143,-483.798)">
    <path
       inkscape:connector-curvature="0"
       id="fill-3-9"
       d="m 390.57141,490.43808 2e-5,22.71983 c -0.0461,0.49262 -0.11376,0.78206 -0.31799,1.07327 h 24.51303 c 0.62105,0 0.98756,-0.17715 0.98756,-1.71865 v -8.28135 l -2,-4 v -7 -2 c 0,-0.5752 -1.2269,-2 -2,-2 h -20.19948 c -0.48935,0 -0.98312,0 -0.98314,1.2069 z"
       style="color:#1e92ff;opacity:1;fill:url(#linearGradient17);fill-opacity:0.4;fill-rule:nonzero;stroke:none;stroke-width:5.29537"
       sodipodi:nodetypes="cccccccccccc" />
    <path
       d="m 414.41757,499.505 v -7.707 c 0,-0.79601 -0.3403,-1.559 -0.94662,-2.121 -0.60523,-0.563 -1.42692,-0.879 -2.28415,-0.879 h -9.15384 v 0.028 l -0.26277,-0.226 c -0.59769,-0.516 -1.38277,-0.802 -2.19799,-0.802 h -7.77002 c -1.78446,0 -3.23075,1.34299 -3.23075,3 v 22 c 0,0.796 0.3403,1.55899 0.94661,2.12099 0.60523,0.563 1.42692,0.87901 2.28415,0.87901 h 21.53847 c 0.85723,0 1.67892,-0.31601 2.28415,-0.87901 0.60631,-0.562 0.94662,-1.325 0.94662,-2.12099 v -10.12801 c 0,-0.83399 -0.3737,-1.631 -1.03277,-2.198 z m 0.15385,3.16499 V 512.798 c 0,0.26499 -0.26693,0.51999 -0.46939,0.707 -0.20137,0.18799 -0.476,0.293 -0.76137,0.293 h -21.53848 c -0.28537,0 -0.56,-0.10501 -0.76137,-0.293 -0.20246,-0.18701 -0.46938,-0.44201 -0.46938,-0.707 v -22 c 0,-0.55201 0.6363,-1 1.23077,-1 h 7.77 c 0.27138,0 0.53307,0.095 0.7323,0.267 l 13.76846,11.872 c 0.2197,0.19 0.49847,0.455 0.49846,0.73299 z m -19,-8.87199 z m 8.74784,-3 7.94446,6.85 v -5.85 c 0,-0.265 -0.11307,-0.52 -0.31553,-0.707 -0.20139,-0.188 -0.476,-0.293 -0.76139,-0.293 z m -10.36323,3 h 5.38462 c 0.59446,0 1.07692,-0.448 1.07692,-1 0,-0.55201 -0.48246,-1 -1.07692,-1 h -5.38462 c -0.59446,0 -1.07691,0.44799 -1.07691,1 0,0.552 0.48246,1 1.07691,1 z"
       id="path1-0-1"
       style="fill:url(#linearGradient2-5);stroke-width:1.03775"
       sodipodi:nodetypes="cscscccsssscsscssccsscsscssssccscscscccccscscsssssss" />
  </g>
</svg>
