<?xml version="1.0" encoding="UTF-8" standalone="no"?>
<svg
   width="36"
   version="1.1"
   height="36"
   id="svg15"
   sodipodi:docname="folder-rpm.svg"
   inkscape:version="1.3.1 (91b66b0783, 2023-11-16)"
   xmlns:inkscape="http://www.inkscape.org/namespaces/inkscape"
   xmlns:sodipodi="http://sodipodi.sourceforge.net/DTD/sodipodi-0.dtd"
   xmlns:xlink="http://www.w3.org/1999/xlink"
   xmlns="http://www.w3.org/2000/svg"
   xmlns:svg="http://www.w3.org/2000/svg"
   xmlns:rdf="http://www.w3.org/1999/02/22-rdf-syntax-ns#"
   xmlns:cc="http://creativecommons.org/ns#"
   xmlns:dc="http://purl.org/dc/elements/1.1/">
  <sodipodi:namedview
     pagecolor="#ffffff"
     bordercolor="#666666"
     borderopacity="1"
     objecttolerance="10"
     gridtolerance="10"
     guidetolerance="10"
     inkscape:pageopacity="0"
     inkscape:pageshadow="2"
     inkscape:window-width="1920"
     inkscape:window-height="994"
     id="namedview17"
     showgrid="true"
     inkscape:zoom="13.947502"
     inkscape:cx="19.537549"
     inkscape:cy="22.118657"
     inkscape:window-x="0"
     inkscape:window-y="0"
     inkscape:window-maximized="1"
     inkscape:current-layer="layer1"
     inkscape:document-rotation="0"
     inkscape:showpageshadow="2"
     inkscape:pagecheckerboard="0"
     inkscape:deskcolor="#d1d1d1">
    <inkscape:grid
       type="xygrid"
       id="grid547"
       originx="0"
       originy="0"
       spacingy="1"
       spacingx="1"
       units="px"
       visible="true" />
  </sodipodi:namedview>
  <defs
     id="defs5455">
    <clipPath
       clipPathUnits="userSpaceOnUse"
       id="clipPath79425-9-5-3">
      <rect
         style="opacity:0.5;fill:#000000;fill-opacity:1;stroke:none;stroke-width:0.855869;stroke-dasharray:none;stroke-opacity:1;paint-order:stroke fill markers"
         id="rect79427-1-9-6"
         width="26.417742"
         height="29.037542"
         x="-16.227774"
         y="-6.4845476" />
    </clipPath>
    <clipPath
       clipPathUnits="userSpaceOnUse"
       id="clipPath79425-9-5-5">
      <rect
         style="opacity:0.5;fill:#000000;fill-opacity:1;stroke:none;stroke-width:0.855869;stroke-dasharray:none;stroke-opacity:1;paint-order:stroke fill markers"
         id="rect79427-1-9-62"
         width="26.417742"
         height="29.037542"
         x="-16.227774"
         y="-6.4845476" />
    </clipPath>
    <linearGradient
       id="linearGradient12"
       inkscape:collect="always">
      <stop
         style="stop-color:#ff5599;stop-opacity:1"
         offset="0"
         id="stop10" />
      <stop
         style="stop-color:#d35f8d;stop-opacity:1"
         offset="0.53372043"
         id="stop11" />
      <stop
         style="stop-color:#a02c5a;stop-opacity:1"
         offset="1"
         id="stop12" />
    </linearGradient>
    <linearGradient
       inkscape:collect="always"
       xlink:href="#linearGradient12"
       id="linearGradient2"
       x1="422.57144"
       y1="523.79797"
       x2="440.57144"
       y2="523.79797"
       gradientUnits="userSpaceOnUse"
       gradientTransform="matrix(0.6666571,0,0,0.6666571,117.85876,156.60494)" />
    <linearGradient
       inkscape:collect="always"
       xlink:href="#linearGradient12"
       id="linearGradient17-9"
       x1="392.57144"
       y1="536.79797"
       x2="444.57144"
       y2="507.798"
       gradientUnits="userSpaceOnUse"
       gradientTransform="matrix(0.4937764,0,0,0.86206901,196.23515,51.474265)" />
    <linearGradient
       inkscape:collect="always"
       xlink:href="#linearGradient12"
       id="linearGradient2-0"
       gradientUnits="userSpaceOnUse"
       x1="147"
       y1="462"
       x2="173"
       y2="434"
       gradientTransform="matrix(1.0769231,0,0,1,230.26373,53.798)" />
  </defs>
  <metadata
     id="metadata5458">
    <rdf:RDF>
      <cc:Work
         rdf:about="">
        <dc:format>image/svg+xml</dc:format>
        <dc:type
           rdf:resource="http://purl.org/dc/dcmitype/StillImage" />
      </cc:Work>
    </rdf:RDF>
  </metadata>
  <g
     inkscape:label="Capa 1"
     inkscape:groupmode="layer"
     id="layer1"
     transform="translate(-384.57143,-483.798)">
    <path
       fill-rule="evenodd"
       clip-rule="evenodd"
       d="m 401.06865,505.42324 c 0,-0.20704 0.16791,-0.37495 0.37501,-0.37495 0.20709,0 0.37498,0.16791 0.37498,0.37495 0,0.20714 -0.16789,0.37504 -0.37498,0.37504 -0.2071,0 -0.37501,-0.1679 -0.37501,-0.37504 z m 1.31252,-2.62491 c 0,-0.20712 0.16791,-0.37504 0.37497,-0.37504 0.20709,0 0.37502,0.16792 0.37502,0.37504 0,0.20703 -0.16793,0.37495 -0.37502,0.37495 -0.20706,0 -0.37497,-0.16792 -0.37497,-0.37495 z m 2.81243,-1.12503 c 0,-0.20704 0.16792,-0.37495 0.37499,-0.37495 0.20709,0 0.375,0.16791 0.375,0.37495 0,0.20712 -0.16791,0.37504 -0.375,0.37504 -0.20707,0 -0.37499,-0.16792 -0.37499,-0.37504 z m 3.44968,1.23178 c 0.14904,0.14889 0.14904,0.3904 0,0.53924 l -2.42649,2.42661 c -0.14906,0.14886 -0.39035,0.14886 -0.53923,0 -0.14893,-0.14886 -0.14893,-0.39029 0,-0.53918 l 2.42648,-2.42667 c 0.14902,-0.14886 0.39037,-0.14886 0.53924,0 z m 1.05026,2.14321 c 0.20709,0 0.37498,0.16791 0.37498,0.37495 0,0.20714 -0.16789,0.37504 -0.37498,0.37504 -0.20708,0 -0.37501,-0.1679 -0.37501,-0.37504 0,-0.20704 0.16793,-0.37495 0.37501,-0.37495 z m -5.24993,3.74994 h 2.24997 c 0.20709,0 0.37499,0.16791 0.37499,0.37495 0,0.20715 -0.1679,0.37504 -0.37499,0.37504 h -2.24997 c -0.20709,0 -0.37501,-0.16789 -0.37501,-0.37504 0,-0.20704 0.16792,-0.37495 0.37501,-0.37495 z m 1.12498,2.99995 c -1.65341,0 -3.15054,-0.66903 -4.2358,-1.75083 -0.0754,-0.0685 -0.1235,-0.1666 -0.1235,-0.27652 0,-0.20706 0.16789,-0.37494 0.37502,-0.37494 0.10655,0 0.20222,0.0449 0.27042,0.11625 l 0.002,-0.002 c 0.95001,0.95011 2.26255,1.53768 3.71226,1.53768 2.89941,0 5.24992,-2.35047 5.24992,-5.24992 0,-2.89943 -2.35051,-5.24991 -5.24992,-5.24991 -2.89947,0 -5.24995,2.35048 -5.24995,5.24991 0,0.34701 0.0398,0.6837 0.10669,1.01069 0.10607,0.28551 0.37962,0.48929 0.70191,0.48929 h 2.98821 c 0.094,0 0.17746,-0.0461 0.22854,-0.11719 0.003,-0.004 0.008,-0.007 0.01,-0.008 0.27207,-0.37885 0.71373,-0.62746 1.21575,-0.62746 0.50206,0 0.94368,0.24861 1.21581,0.62748 0.006,5.8e-4 0.01,0.004 0.01,0.008 0.0508,0.0707 0.13439,0.11717 0.22847,0.11717 h 1.92189 c 0.2071,0 0.37496,0.16788 0.37496,0.37502 0,0.20711 -0.16786,0.37496 -0.37496,0.37496 h -1.97458 c -0.31966,0 -0.60151,-0.16058 -0.77071,-0.40496 -0.13342,-0.20717 -0.36489,-0.34502 -0.62966,-0.34502 -0.26476,0 -0.49619,0.13785 -0.62971,0.34502 -0.1692,0.24438 -0.45084,0.40496 -0.77066,0.40496 H 401.13 c -0.70236,0 -1.28767,-0.48462 -1.4508,-1.13654 -0.0683,-0.36104 -0.10777,-0.73234 -0.10777,-1.11342 0,-3.31377 2.68623,-5.9999 5.9999,-5.9999 3.31364,0 5.99991,2.68613 5.99991,5.9999 0,3.31364 -2.68627,5.99991 -5.99991,5.99991 z"
       id="path5690-1-7-4"
       style="fill:url(#linearGradient2);fill-opacity:1;stroke-width:0.0234375" />
    <path
       inkscape:connector-curvature="0"
       id="fill-3-6"
       d="m 390.57142,490.43808 2e-5,22.71983 c -0.0461,0.49262 -0.11376,0.78207 -0.318,1.07328 l 24.51303,-10e-6 c 0.62105,0 0.98756,-0.17715 0.98756,-1.71864 v -8.28136 l -2,-4 v -7 -2 c 0,-0.57519 -1.22689,-2 -2,-2 h -20.19948 c -0.48934,0 -0.98311,0 -0.98313,1.2069 z"
       style="color:#1e92ff;opacity:0.4;fill:url(#linearGradient17-9);fill-opacity:0.4;fill-rule:nonzero;stroke:none;stroke-width:5.29537"
       sodipodi:nodetypes="cccccccccccc" />
    <path
       d="m 414.41758,499.505 v -7.707 c 0,-0.796 -0.34031,-1.559 -0.94662,-2.121 -0.60523,-0.563 -1.42692,-0.879 -2.28415,-0.879 h -9.15385 v 0.028 L 401.7702,488.6 c -0.5977,-0.516 -1.38277,-0.802 -2.198,-0.802 h -7.77001 c -1.78446,0 -3.23076,1.343 -3.23076,3 v 22 c 0,0.796 0.3403,1.559 0.94661,2.121 0.60523,0.563 1.42692,0.879 2.28415,0.879 h 21.53847 c 0.85723,0 1.67892,-0.316 2.28415,-0.879 0.60631,-0.562 0.94662,-1.325 0.94662,-2.121 V 502.67 c 0,-0.834 -0.3737,-1.631 -1.03277,-2.198 z m 0.15385,3.165 v 10.128 c 0,0.265 -0.26693,0.52 -0.46939,0.707 -0.20138,0.188 -0.476,0.293 -0.76138,0.293 h -21.53847 c -0.28538,0 -0.56,-0.105 -0.76138,-0.293 -0.20246,-0.187 -0.46938,-0.442 -0.46938,-0.707 v -22 c 0,-0.552 0.6363,-1 1.23077,-1 h 7.77 c 0.27138,0 0.53307,0.095 0.7323,0.267 l 13.76846,11.872 c 0.2197,0.19 0.49847,0.455 0.49847,0.733 z m -19,-8.872 z m 8.74784,-3 7.94446,6.85 v -5.85 c 0,-0.265 -0.11307,-0.52 -0.31553,-0.707 -0.20139,-0.188 -0.476,-0.293 -0.76139,-0.293 z m -10.36323,3 h 5.38462 c 0.59446,0 1.07692,-0.448 1.07692,-1 0,-0.552 -0.48246,-1 -1.07692,-1 h -5.38462 c -0.59446,0 -1.07692,0.448 -1.07692,1 0,0.552 0.48246,1 1.07692,1 z"
       id="path1-0-1"
       style="fill:url(#linearGradient2-0);stroke-width:1.03775"
       sodipodi:nodetypes="cscscccsssscsscssccsscsscssssccscscscccccscscsssssss" />
  </g>
</svg>
