<?xml version="1.0" encoding="UTF-8" standalone="no"?>
<svg
   width="36"
   version="1.1"
   height="36"
   id="svg17"
   sodipodi:docname="folder_html.svg"
   inkscape:version="1.3.1 (91b66b0783, 2023-11-16)"
   xmlns:inkscape="http://www.inkscape.org/namespaces/inkscape"
   xmlns:sodipodi="http://sodipodi.sourceforge.net/DTD/sodipodi-0.dtd"
   xmlns:xlink="http://www.w3.org/1999/xlink"
   xmlns="http://www.w3.org/2000/svg"
   xmlns:svg="http://www.w3.org/2000/svg"
   xmlns:rdf="http://www.w3.org/1999/02/22-rdf-syntax-ns#"
   xmlns:cc="http://creativecommons.org/ns#"
   xmlns:dc="http://purl.org/dc/elements/1.1/">
  <sodipodi:namedview
     pagecolor="#ffffff"
     bordercolor="#666666"
     borderopacity="1"
     objecttolerance="10"
     gridtolerance="10"
     guidetolerance="10"
     inkscape:pageopacity="0"
     inkscape:pageshadow="2"
     inkscape:window-width="1920"
     inkscape:window-height="994"
     id="namedview19"
     showgrid="true"
     inkscape:zoom="6.9384853"
     inkscape:cx="-8.431235"
     inkscape:cy="14.628553"
     inkscape:window-x="0"
     inkscape:window-y="0"
     inkscape:window-maximized="1"
     inkscape:current-layer="layer1"
     inkscape:document-rotation="0"
     inkscape:showpageshadow="2"
     inkscape:pagecheckerboard="0"
     inkscape:deskcolor="#d1d1d1">
    <inkscape:grid
       type="xygrid"
       id="grid925"
       originx="0"
       originy="0"
       spacingy="1"
       spacingx="1"
       units="px"
       visible="true" />
  </sodipodi:namedview>
  <defs
     id="defs5455">
    <clipPath
       clipPathUnits="userSpaceOnUse"
       id="clipPath79425-9-5-3">
      <rect
         style="opacity:0.5;fill:#000000;fill-opacity:1;stroke:none;stroke-width:0.855869;stroke-dasharray:none;stroke-opacity:1;paint-order:stroke fill markers"
         id="rect79427-1-9-6"
         width="26.417742"
         height="29.037542"
         x="-16.227774"
         y="-6.4845476" />
    </clipPath>
    <clipPath
       clipPathUnits="userSpaceOnUse"
       id="clipPath79425-9-5-5">
      <rect
         style="opacity:0.5;fill:#000000;fill-opacity:1;stroke:none;stroke-width:0.855869;stroke-dasharray:none;stroke-opacity:1;paint-order:stroke fill markers"
         id="rect79427-1-9-62"
         width="26.417742"
         height="29.037542"
         x="-16.227774"
         y="-6.4845476" />
    </clipPath>
    <linearGradient
       id="linearGradient24"
       inkscape:collect="always">
      <stop
         style="stop-color:#ff73ff;stop-opacity:1;"
         offset="0"
         id="stop22" />
      <stop
         style="stop-color:#0066ff;stop-opacity:1"
         offset="0.48888862"
         id="stop23" />
      <stop
         style="stop-color:#ffe680;stop-opacity:1"
         offset="1"
         id="stop24" />
    </linearGradient>
    <linearGradient
       id="linearGradient3"
       inkscape:collect="always">
      <stop
         style="stop-color:#ff73ff;stop-opacity:1;"
         offset="0"
         id="stop1" />
      <stop
         style="stop-color:#0066ff;stop-opacity:1"
         offset="0.48888862"
         id="stop2" />
      <stop
         style="stop-color:#00aad4;stop-opacity:1"
         offset="1"
         id="stop3" />
    </linearGradient>
    <linearGradient
       inkscape:collect="always"
       xlink:href="#linearGradient24"
       id="linearGradient6"
       x1="422.57144"
       y1="523.79797"
       x2="440.57147"
       y2="523.79797"
       gradientUnits="userSpaceOnUse"
       gradientTransform="matrix(0.66675883,0,0,0.66648178,117.81819,156.69785)" />
    <linearGradient
       inkscape:collect="always"
       xlink:href="#linearGradient24"
       id="linearGradient17-4"
       x1="392.57144"
       y1="536.79797"
       x2="444.57144"
       y2="507.798"
       gradientUnits="userSpaceOnUse"
       gradientTransform="matrix(0.4937764,0,0,0.86206901,196.23515,51.474265)" />
    <linearGradient
       inkscape:collect="always"
       xlink:href="#linearGradient3"
       id="linearGradient2"
       gradientUnits="userSpaceOnUse"
       x1="147"
       y1="462"
       x2="173"
       y2="434"
       gradientTransform="matrix(1.0769231,0,0,1,230.26373,53.798)" />
  </defs>
  <metadata
     id="metadata5458">
    <rdf:RDF>
      <cc:Work
         rdf:about="">
        <dc:format>image/svg+xml</dc:format>
        <dc:type
           rdf:resource="http://purl.org/dc/dcmitype/StillImage" />
      </cc:Work>
    </rdf:RDF>
  </metadata>
  <g
     inkscape:label="Capa 1"
     inkscape:groupmode="layer"
     id="layer1"
     transform="translate(-384.57143,-483.798)">
    <path
       d="m 411.33441,504.40406 z m -4.31831,7.22381 c -2.93315,0.71555 -6.04289,-0.87773 -7.0885,-3.80769 -0.38016,-1.06678 -0.46162,-2.16041 -0.21724,-3.26767 0.0143,-0.0273 0.0276,-0.067 0.0416,-0.0944 0,0.0273 0,0.0669 0.0142,0.0944 0,0.0142 0.0142,0.0412 0.0276,0.0539 0,-0.0273 0.0144,-0.041 0.0144,-0.067 0,-0.0808 0,-0.162 0.014,-0.25657 0.0811,0.067 0.0274,0.16205 0.0541,0.22955 0.0414,0.10804 0.0414,0.21607 0.0414,0.33759 -0.0142,0.17549 0.14935,0.29704 0.27159,0.31053 0.23081,0.0277 0.36667,0.20255 0.57031,0.27007 0.095,0.0275 0.1494,0.12149 0.16294,0.16205 0.0276,0.17547 0.163,0.22949 0.2716,0.29703 0.0277,0.0142 0.0539,0.0412 0.0811,0 0.095,-0.18901 0.10865,-0.0536 0.14938,0.0271 0.095,0.20251 0.0144,0.36455 -0.095,0.52657 -0.0812,0.10801 -0.17653,0.21604 -0.0812,0.3646 0.0142,0.0142 0,0.054 -0.0142,0.067 -0.0675,0.10804 -0.0276,0.189 0.0414,0.28359 0.095,0.135 0.17655,0.27002 0.2445,0.41854 0.095,0.18905 0.17651,0.36458 0.39378,0.45907 0.13581,0.0538 0.21729,0.17553 0.23083,0.33755 0.0414,0.45911 0.10867,0.91817 0.17653,1.36375 0.0414,0.27004 0.25802,0.45914 0.35309,0.70209 0.0414,0.10803 0.10863,0.20254 0.1901,0.29716 0.14935,0.17546 0.36661,0.18899 0.55676,0.28348 0.0144,0 0.0414,0 0.0541,0 -0.0142,-0.0144 -0.0415,-0.0273 -0.0541,-0.0412 -0.12218,-0.10802 -0.38024,-0.13497 -0.21729,-0.39144 0,-0.0142 -0.0142,-0.0413 -0.0142,-0.0413 -0.19016,-0.0412 -0.095,-0.17553 -0.0812,-0.2701 0,-0.0539 0.0541,-0.0944 -0.0275,-0.10798 -0.0142,0 -0.0276,-0.0273 -0.0276,-0.0414 0.14943,0.0414 0.095,-0.17551 0.2173,-0.17551 0.17653,0 0.24445,-0.067 0.14941,-0.24307 -0.0275,-0.0412 -0.0675,-0.0945 0.0414,-0.0669 0.10867,0.0274 0.16295,-0.0142 0.19012,-0.10799 0.0276,-0.0945 0.0676,-0.18906 0.14937,-0.27006 0.0675,-0.0808 0.10863,-0.17562 0.0812,-0.29707 -0.0414,-0.20258 0.16293,-0.24309 0.28514,-0.25659 0.25801,-0.0273 0.27164,-0.20255 0.32589,-0.37803 0.0414,-0.13502 0.0414,-0.27003 0.0277,-0.41861 -0.0142,-0.14855 0.10863,-0.24301 0.19014,-0.35106 0.10862,-0.13496 0.17649,-0.31048 0.0675,-0.43212 -0.10868,-0.12151 -0.24447,-0.2565 -0.43455,-0.27005 -0.27159,-0.0142 -0.47529,-0.18898 -0.70612,-0.28346 -0.0812,-0.0275 -0.0812,-0.16204 -0.10865,-0.24312 -0.0675,-0.18898 -0.19017,-0.27004 -0.38023,-0.29697 -0.23085,-0.0273 -0.3259,-0.20254 -0.42095,-0.36457 -0.0675,-0.12153 -0.16296,-0.067 -0.21729,-0.0541 -0.1358,0.0412 -0.24441,0 -0.33947,-0.0541 -0.23083,-0.12159 -0.42098,-0.0807 -0.58396,0.16204 -0.0274,0.0412 -0.0675,0.10802 -0.13579,0.0412 -0.0414,-0.0412 -0.0949,-0.0412 -0.1629,-0.0142 -0.12223,0.0541 -0.23088,-0.0412 -0.21729,-0.17549 0,-0.0539 0.0144,-0.10799 0.0274,-0.162 0.0412,-0.22953 0.0277,-0.25664 -0.20366,-0.22953 -0.095,0.0142 -0.10864,-0.0141 -0.0675,-0.0945 0.0414,-0.0807 0.0813,-0.16203 0.095,-0.25659 0.0141,-0.0539 0.095,-0.1215 0,-0.16203 -0.0676,-0.0274 -0.19013,0 -0.2037,0.0945 -0.0275,0.16206 -0.12221,0.20254 -0.25804,0.1755 -0.14933,-0.0411 -0.13577,-0.18903 -0.10863,-0.29705 0.0277,-0.21607 0.0415,-0.45906 0.2716,-0.59412 0.0542,-0.0414 0.10864,-0.0539 0.17654,-0.0414 0.0675,0.0141 0.12223,0.0141 0.19013,-0.0541 0.095,-0.0944 0.20368,-0.0273 0.31234,0 0.0812,0.0274 0.0414,0.10804 0.0542,0.16202 0.0142,0.0808 0.0142,0.20257 0.095,0.18913 0.095,0 0.10862,-0.12154 0.0811,-0.21605 -0.0541,-0.20251 0.0141,-0.37808 0.20371,-0.47256 0.20371,-0.10804 0.29877,-0.28359 0.42095,-0.45919 0.0811,-0.13496 0.23091,-0.20254 0.36667,-0.297 0.13578,-0.0807 0.2444,-0.22959 0.42098,-0.29704 0.0276,-0.0142 0.0541,-0.0142 0.0674,-0.0276 -0.0141,0.0276 -0.0141,0.0411 -0.0277,0.067 -0.0142,0.0274 -0.0277,0.0412 0,0.0539 0.0142,0 0.0416,0 0.0542,-0.0141 0.0416,-0.0538 0.10873,-0.067 0.17663,-0.0807 0.0414,-0.0142 0.10863,-0.0412 0.12214,-0.0669 0,-0.0541 -0.0675,-0.0273 -0.0949,-0.0541 -0.0539,-0.041 -0.0539,-0.0807 -0.0278,-0.12148 0.0278,-0.0669 0.12227,-0.13505 -0.041,-0.13505 0,0 -0.0142,-0.0142 -0.0142,-0.0275 0.0142,0 0.0274,-0.0141 0.0417,-0.0141 0.19009,-0.0411 0.39382,0.0276 0.57033,-0.108 0.0142,0 0.0276,0.0141 0.0414,0.0141 -0.0142,0.0142 -0.0142,0.0273 -0.0277,0.0413 -0.0412,0.0944 -0.21728,0.13495 -0.16286,0.24295 0.0273,0.0541 0.1901,-0.0412 0.29869,0.0414 0.0414,0.0274 0.10867,0 0.0812,-0.0414 -0.0411,-0.067 0.0951,-0.17545 -0.0275,-0.17545 -0.12217,-0.0142 -0.0811,-0.054 -0.0544,-0.10805 0.0812,-0.13505 0.10868,-0.24309 -0.0674,-0.3106 -0.095,-0.0411 -0.0412,-0.13498 -0.0675,-0.20254 -0.0275,-0.10802 -0.0415,-0.18898 -0.17652,-0.0807 -0.0546,0.0411 -0.20367,0.17549 -0.16295,-0.067 0.0142,-0.0541 -0.0812,-0.10805 -0.12217,-0.10805 -0.10862,0 -0.2445,-0.0669 -0.29878,0.067 -0.0542,0.10802 -0.19016,0.17551 -0.19016,0.32407 0,0.0412 -0.0675,0.0807 -0.12216,0.10802 -0.10864,0.0412 -0.19006,0.0945 -0.20372,0.21604 -0.0142,0.067 -0.0675,0.12147 -0.13575,0.0945 -0.0812,-0.0413 -0.0144,-0.10803 0.0142,-0.14854 0.0539,-0.067 0.0539,-0.12149 -0.0543,-0.10801 -0.10864,0.014 -0.17652,-0.0945 -0.29872,-0.10802 -0.0416,0 -0.0416,-0.10802 0.0142,-0.14857 0.17649,-0.17549 0.40739,-0.22952 0.61104,-0.36461 0.0544,-0.0413 0.0675,0.12156 0.10869,0.0413 0.0413,-0.0807 0.29875,0.0541 0.17654,-0.1755 0.0674,-0.0273 0.12221,-0.0413 0.19006,-0.0671 0.095,-0.0413 0.1222,-0.16202 0.24449,-0.189 0.1086,-0.0142 0.23079,-0.0273 0.24441,0.067 0.0142,0.0945 -0.12224,0.12157 -0.20371,0.16202 -0.0416,0.0142 -0.0812,0 -0.12224,0.0142 -0.0276,0.0142 -0.0675,0.0412 -0.0675,0.0539 0,0.0412 0.0539,0.0276 0.0811,0.0276 0.0812,-0.0142 0.14941,-0.0142 0.20372,0.067 0.0414,0.0539 0.19008,0.0808 0.19008,0.0539 0.0142,-0.12153 0.32596,-0.0273 0.16296,-0.24304 0,-0.0142 0,-0.0412 0,-0.0412 0.0275,-0.0276 0.0542,-0.0142 0.0811,0.0141 0.095,0.10804 0.17654,0.0142 0.2173,-0.0411 0.0541,-0.0808 -0.0949,-0.0808 -0.0949,-0.10803 0,-0.17558 -0.16301,-0.1485 -0.24451,-0.20253 -0.0812,-0.0539 -0.14936,-0.0539 -0.23082,-0.0412 0.0276,0.0141 0.0276,0.054 0,0.0412 -0.10865,-0.0671 -0.19009,-0.0141 -0.28522,0 -0.0949,0.0273 -0.17653,0.0273 -0.25798,-0.0273 -0.0543,-0.0414 -0.10861,-0.0277 -0.1629,0 -0.0142,0 -0.0277,0.014 -0.0277,0.0273 0,0 0.0141,0.0141 0.0277,0.0141 0.0414,0 0.0811,-0.0671 0.12212,-0.0141 -0.0541,0.0412 -0.10856,0.067 -0.1765,0.0807 v 0 c 0,0 0,0 0,0 -0.16291,-0.0273 -0.21727,0.0275 -0.20361,0.16202 0,0.0273 -0.0142,0.0543 -0.0277,0.0807 -0.0675,-0.0541 -0.2037,0.041 -0.2037,-0.0142 0,-0.0808 -0.0412,-0.20246 0.0675,-0.27006 1.30357,-0.76958 2.68868,-1.05319 4.18243,-0.79669 0.99128,0.17568 1.87399,0.56722 2.67516,1.17474 0.0414,0.0278 0.0674,0.067 0.095,0.0945 -0.0544,0.0274 -0.0812,-0.0273 -0.12226,-0.041 -0.12221,-0.0542 -0.23085,-0.14852 -0.36667,-0.17552 -0.17652,-0.0276 -0.35308,-0.0539 -0.48885,0.0945 -0.0949,0.0944 -0.20368,0.162 -0.33948,0.189 -0.10861,0.0271 -0.13583,0.0807 -0.0812,0.18904 0.0414,0.108 0.095,0.1755 0.20369,0.12149 0.095,-0.0539 0.13581,-0.014 0.19012,0.0541 0.0675,0.0807 0.0416,0.10804 -0.0141,0.16206 -0.0142,0.0142 0.0141,0.067 -0.0412,0.0538 -0.0675,0.0142 -0.0542,-0.0142 -0.0542,-0.0538 0,-0.0413 0.0542,-0.10803 -0.0276,-0.10803 -0.0675,0 -0.12219,0.0671 -0.095,0.13502 0.0541,0.10803 -0.0142,0.13505 -0.0951,0.13505 -0.13579,0.0144 -0.19007,0.1755 -0.31232,0.18901 -0.0674,0.14852 -0.23083,0.067 -0.3395,0.13504 -0.0275,0.014 -0.0811,0 -0.095,0.0412 0,0.014 0.0414,0.0412 0.0676,0.054 0.0543,0.0275 0.0949,0.067 0.13573,0.108 0.0543,0.0669 0.0415,0.13502 0.0142,0.20257 -0.0277,0.0808 -0.095,0.0412 -0.14931,0.0412 -0.0144,0 -0.0278,0 -0.0278,0 -0.35302,-0.0412 -0.46169,0.0671 -0.40735,0.41855 0.0142,0.0672 0.0142,0.16205 0.13579,0.14855 0.095,0 0.13584,0.067 0.0675,0.14857 -0.13576,0.16198 -0.28516,0.32399 -0.35305,0.54005 -0.0413,0.0945 -0.19014,0.0945 -0.25802,0.21604 -0.095,0.216 -0.33951,0.36453 -0.24445,0.66162 0.0414,0.12152 0,0.24299 -0.0415,0.37808 -0.0413,0.12151 -0.0413,0.27005 0.0812,0.37806 0.20367,0.16202 0.27155,0.43204 0.50244,0.56711 0.095,0.0538 0.16294,0.067 0.27158,0.0538 0.25804,-0.0273 0.50245,-0.10803 0.74686,-0.12152 0.14939,-0.0141 0.31231,0.14848 0.47529,0.21609 0.095,0.0412 0,0.21603 -0.0142,0.32403 -0.0142,0.0945 -0.0142,0.16202 0.0542,0.22957 0.20368,0.21603 0.23084,0.48605 0.28519,0.75607 0.0277,0.1216 -0.10867,0.20261 -0.13584,0.32407 -0.0413,0.16202 -0.0674,0.31056 0.0274,0.45914 0.0951,0.14847 0.13583,0.31051 0.1087,0.48603 -0.0142,0.17557 0.13575,0.27007 0.16294,0.41863 0.0541,0.297 0.0674,0.28354 0.38022,0.22953 0.35306,-0.0671 0.51599,-0.35112 0.66538,-0.63465 0.0415,-0.0671 0.0415,-0.13499 0.12221,-0.16205 0.0812,-0.0411 0.12222,-0.14846 0.095,-0.22947 -0.0413,-0.17558 0.0542,-0.29709 0.17658,-0.37809 0.258,-0.16206 0.28512,-0.40511 0.21727,-0.6346 -0.12225,-0.44557 0.095,-0.75618 0.35305,-1.05327 0.20372,-0.22951 0.27157,-0.48601 0.31233,-0.75605 0.0142,-0.067 0,-0.12154 -0.095,-0.067 -0.0414,0.0276 -0.0812,0.0411 -0.13579,0.0536 -0.0675,0.0142 -0.14939,0.0414 -0.19013,-0.0536 -0.0541,-0.12158 0.0676,-0.0945 0.10866,-0.10804 0.24439,-0.13503 0.50242,-0.27004 0.54317,-0.59415 0.0143,-0.0944 0,-0.18896 -0.0675,-0.27001 -0.0416,-0.0538 -0.0675,-0.12153 -0.0416,-0.18903 0.2987,0.32407 0.25799,0.75616 0.2716,1.13417 0.14935,2.87604 -1.79253,5.37403 -4.54916,6.04914 z m -5.22813,-6.84577 c -0.14927,-0.0945 -0.2715,-0.24303 -0.47525,-0.24303 -0.0542,0.0141 -0.1222,0.0275 -0.17651,0.0809 -0.0142,0.0142 -0.0276,0.067 0.0141,0.0541 0.21729,-0.0807 0.33945,0.0144 0.47531,0.16202 0.0276,0.0271 0.10854,0.0539 0.1765,0.0142 0,-0.0276 -0.0142,-0.0669 -0.0142,-0.0669 z m 0.40744,0.14852 c -0.0542,-0.0807 -0.13577,-0.0945 -0.23089,-0.10804 -0.12218,-0.0273 -0.0675,0.14856 -0.16292,0.13503 0.0416,0.0142 0.0813,0.0413 0.13581,0.054 0.0812,-0.0414 0.17654,-0.054 0.258,-0.0808 z m 4.69849,-3.90221 c 0,-0.0539 -0.0543,-0.0669 -0.095,-0.0669 -0.10861,0 -0.21726,0 -0.32587,0 -0.0415,0 -0.095,-0.0413 -0.12224,0.0142 0.0542,0.0278 0.0141,0.12155 0.095,0.14857 0.0416,0.0141 0.095,0.0141 0.14939,0.0273 0.0674,-0.014 0.14934,-0.0413 0.21728,-0.054 0.0414,-0.0273 0.0812,-0.0273 0.0812,-0.0669 z m 0.43453,0.72913 c 0.0812,0.0412 0.21726,0.0539 0.0675,0.18903 -0.0414,0.0413 0,0.13506 -0.0542,0.18907 0.0676,0.041 0.12223,-0.0141 0.17653,-0.0141 0.0811,0 0.17652,-0.0142 0.258,-0.0273 0,-0.12153 -0.0675,-0.21604 -0.16297,-0.31057 -0.0275,-0.0273 -0.0675,-0.0669 -0.0675,-0.10803 0.0145,-0.13501 -0.0675,-0.2025 -0.17647,-0.17548 -0.10866,0.0413 -0.095,0.14849 -0.0414,0.2565 z m -0.12216,-0.0275 c -0.0675,0.0142 -0.1766,0.0414 -0.1766,0.12154 0,0.0541 -0.0812,0.13501 0,0.16199 0.0542,0.0142 0.163,-0.0141 0.20374,-0.0539 0.0544,-0.0541 0.0676,-0.13505 0.095,-0.2026 -0.0415,-0.014 -0.0811,-0.0271 -0.12216,-0.0271 z m -0.88274,-0.94514 c 0.0539,0 0.10869,-0.0412 0.16296,-0.0669 0.0277,-0.0142 0.0541,-0.0275 0.0414,-0.0539 -0.14939,-0.16202 0.0542,-0.067 0.0812,-0.10801 0.0277,-0.0273 0.10866,-0.0412 0.12225,-0.067 0.0413,-0.17553 0.1765,-0.20248 0.33947,-0.20248 -0.0142,0 0.0142,-0.0142 0.0273,-0.0142 -0.0141,-0.0142 -0.0273,-0.0275 -0.0542,-0.0275 -0.14937,-0.0276 -0.29877,-0.0539 -0.44812,-0.0808 -0.63826,-0.0807 -1.27647,0.0539 -1.92832,0.0142 -0.36665,-0.0276 -0.70606,0.135 -1.07274,0.17555 -0.0539,0 -0.10861,0.0413 -0.16295,0.0539 -0.0142,0 -0.0542,0.0413 -0.0142,0.0413 0.12227,0.0273 0,0.0539 0,0.0539 -0.0411,0.0539 -0.10862,0.0273 -0.16289,0.0412 -0.0276,0.0142 -0.0676,0.0411 -0.0676,0.0539 0.0142,0.0411 0.0542,0.0142 0.0812,0.0142 0.095,0 0.19008,0 0.28513,-0.0142 v 0 c 0.20373,-0.14855 0.43459,-0.20254 0.66541,-0.28357 0.0276,-0.0142 0.0542,0 0.0812,-0.0142 0,0.24307 0.17656,0.0808 0.25803,0.10804 0.10863,0.0276 0.27159,-0.0411 0.23085,0.17556 0,0.0142 0.0141,0.0275 0.0275,0.0412 0.0811,0.0669 0.0543,0.13501 -0.0275,0.16202 -0.16296,0.0413 -0.13577,0.17555 -0.14935,0.29703 0,0.18906 0.16294,0.20259 0.28518,0.25659 0.10862,0.0411 0.1494,-0.0541 0.20369,-0.10801 0.10861,-0.0945 0.17649,-0.22954 0.32588,-0.24308 0.29872,-0.0412 0.57037,-0.18901 0.86908,-0.20253 z m 4.72567,6.89979 c -0.0142,-0.0414 -0.0274,-0.067 -0.0274,-0.10804 -0.0276,0.0273 -0.0542,0.0541 -0.0675,0.0808 -0.0276,0.0412 -0.0412,0.12149 -0.0949,0.14849 -0.25803,0.17556 -0.19014,0.45908 -0.28519,0.70218 -0.0142,0.0413 -0.0142,0.0944 0.0415,0.10802 0.0413,0.0142 0.0812,-0.014 0.10864,-0.0541 0.1358,-0.28358 0.25802,-0.56714 0.32586,-0.87771 z m -0.96415,-3.87517 c -0.0412,0.0944 -0.13577,0 -0.19004,0.014 -0.23093,0.0541 -0.4074,-0.0539 -0.59759,-0.14853 -0.0674,-0.0273 -0.14934,-0.0142 -0.16294,0.0413 -0.095,0.31052 -0.21726,-0.0273 -0.31232,0.0142 -0.0141,0 -0.0413,-0.067 -0.0542,-0.067 -0.21727,-0.0276 -0.36663,-0.0945 -0.29877,-0.36465 0.0142,-0.0411 -0.0675,-0.0669 -0.1086,-0.0538 -0.27158,0.0412 -0.57036,-0.0539 -0.81481,0.13502 -0.0276,0.0274 -0.0812,0 -0.12216,0 -0.0413,0 -0.12228,0.0142 -0.12228,-0.0412 0,-0.067 0.0676,-0.0539 0.12228,-0.067 0.13576,-0.0142 0.20368,-0.0944 0.25801,-0.21605 0.0675,-0.17552 0.24445,-0.25657 0.36662,-0.33756 0.2716,-0.20255 0.36667,0.0412 0.51602,0.14858 0.0546,0.0412 0.10865,0.0807 0.17651,0.10802 0.0415,0.0273 0.0811,0.0669 0.0676,0.10802 -0.0142,0.067 -0.0676,0.0541 -0.12225,0.0541 -0.0276,0.0142 -0.0812,-0.0271 -0.095,0.0276 0,0.0142 0.0275,0.0413 0.0542,0.0539 0.0414,0.0142 0.095,0.0809 0.12219,0.0275 0.0277,-0.0669 0.0812,-0.10804 0.12221,-0.17555 0.13578,-0.20255 -0.095,-0.17552 -0.14938,-0.25657 -0.0142,-0.0273 -0.0674,-0.0273 -0.0674,-0.0538 -0.0277,-0.067 -0.16296,-0.12152 -0.095,-0.18901 0.0675,-0.067 0.12223,0.067 0.1901,0.0945 0.25802,0.0945 0.28519,0.36457 0.42093,0.54006 0.0276,0.0413 0.0414,0.12156 0.10863,0.0945 0.0542,-0.0273 0.0814,-0.0945 0.0542,-0.16205 -0.0142,-0.067 -0.0675,-0.135 0.0277,-0.16204 0.10863,-0.0271 0.12213,0.067 0.13577,0.13506 0.0276,0.17554 0.13581,0.24305 0.31232,0.24305 0.095,0 0.17656,0.0807 0.28515,0.0409 0.0143,0 0.0416,0.0141 0.0416,0.0414 0.0141,0.16204 -0.0275,0.27007 -0.0676,0.37806 z m -1.72456,-0.79667 c -0.0277,-0.0671 0.0142,-0.1486 -0.0542,-0.21606 -0.0142,0.067 -0.0414,0.13502 -0.0541,0.20251 0.0415,0.0276 -0.0145,0.10803 0.0675,0.10803 0.0415,-0.0142 0.0542,-0.067 0.0415,-0.0944 z m 1.60238,-0.25663 c -0.0541,0.0142 -0.095,0.0142 -0.13584,-0.0412 -0.0414,-0.0539 -0.0811,-0.14851 -0.14933,-0.0807 -0.0812,0.0671 -0.12224,0.17558 -0.095,0.2836 0.0276,0.0807 0.10866,0.1215 0.17655,0.0945 0.16298,-0.0671 0.29874,-0.0273 0.43452,0.0539 0.0414,0.0276 0.10861,0.0669 0.13582,0 0.0276,-0.0671 -0.0278,-0.0945 -0.0675,-0.12158 -0.0675,-0.0541 -0.14934,-0.10797 -0.20368,-0.17553 -0.0275,-0.0412 0.0277,-0.12149 -0.0811,-0.108 -0.0144,0 -0.0276,0 -0.0276,0.0142 -0.0274,0.0541 0.0413,0.0414 0.0545,0.067 0,0.014 -0.0142,0.014 -0.0414,0.014 z m 0.42097,1.75535 c -0.0413,-0.12149 -0.12225,-0.21604 -0.19015,-0.32406 -0.0141,-0.0273 -0.0415,-0.0542 -0.0811,-0.0412 -0.0542,0.0141 -0.0276,0.0539 -0.0142,0.0807 0.16296,0.3241 0.2988,0.66166 0.43456,0.98565 0.0276,0.0669 0.10866,0.1216 0.17653,0.18912 0.0142,0.0141 0.0276,0.0141 0.0414,0.0273 0,-0.0142 0.0142,-0.0414 0,-0.0142 0,-0.39152 -0.25802,-0.60761 -0.36663,-0.90467 z m -1.49379,-3.03803 c -0.0542,-0.0945 -0.0144,-0.13504 0.0675,-0.17551 0.0142,-0.0142 0.0414,-0.0413 0.0142,-0.0413 -0.0276,-0.0142 -0.0811,-0.0142 -0.0811,0 -0.0414,0.0945 -0.35305,0.0808 -0.10864,0.28359 0,0 0,0.0413 0,0.0413 -0.095,0.067 -0.0675,0.27004 -0.258,0.24305 -0.0142,0 -0.0547,0 -0.0276,0.0273 0.10864,0.13501 0.25805,0 0.39383,0.0411 0.0415,0.0142 0.0675,-0.0411 0.0811,-0.0945 0.0142,-0.1485 0.0542,-0.27002 0.24446,-0.17555 0.0143,0.0142 0.0539,0.0142 0.0539,-0.014 0,0 -0.0274,-0.0273 -0.0539,-0.0273 -0.0276,0 -0.0675,0 -0.095,0 -0.095,-0.0142 -0.17655,-0.0142 -0.23087,-0.10801 z m 2.44436,2.93001 c -0.13582,-0.067 -0.25803,-0.14848 -0.29878,-0.29707 -0.0142,-0.0273 -0.0412,-0.0807 -0.0812,-0.0541 -0.0414,0.0276 -0.0276,0.067 0,0.10803 0.0544,0.0809 0.12223,0.13506 0.14935,0.21607 0.0675,0.25652 0.13583,0.17552 0.23089,0.0276 0,0 0,0 0,0 z m -8.52792,-3.64562 c -0.095,0.0541 0.0542,0.0669 0.0142,0.13499 -0.0414,0.0669 0.0675,0.108 0.095,0.0945 0.12216,-0.014 0.12216,-0.12151 0.095,-0.21604 -0.0141,-0.0541 -0.0675,-0.0144 -0.10869,0 -0.0412,0.0276 -0.0676,0.0276 -0.095,-0.0144 -0.0142,0 0,0 0,0 z m -0.96415,1.72827 c 0.0142,-0.0541 -0.0415,-0.0671 -0.0811,-0.0671 -0.0812,0.0142 -0.16297,0.0538 -0.20372,0.10803 -0.0142,0.0274 0.0812,-0.0142 0.10857,0.0274 0.0542,-0.0413 0.16298,0.0412 0.17659,-0.067 z m -0.0142,0.216 c -0.0275,0.0278 0.0142,0.0669 0.0276,0.0539 0.0543,-0.0412 0.12224,-0.0807 0.16295,-0.13502 0.0142,-0.0141 -0.0675,-0.0413 -0.12217,-0.0413 -0.10866,-0.0275 -0.0273,0.0808 -0.0676,0.12155 z m 8.32415,3.87522 c -0.0675,0 -0.095,0.0413 -0.10865,0.0945 0,0.0413 -0.0142,0.0945 0.0542,0.0945 0.0675,0 0.0675,-0.0807 0.095,-0.12153 0.0277,-0.0539 -0.0142,-0.0539 -0.0414,-0.067 z m -8.45998,-3.92922 c -0.0675,0.0141 -0.10861,0.067 -0.13579,0.12157 -0.0276,0.0412 -0.0543,0.10802 -0.0675,0.14846 0.0142,0 0.0276,0.0142 0.0413,0 0.0812,-0.067 0.0812,-0.18903 0.19016,-0.2565 -0.0276,0 -0.0276,-0.0142 -0.0276,-0.0142 z"
       id="path2-2-3-7"
       style="fill:url(#linearGradient6);fill-opacity:1;stroke-width:0.135411" />
    <path
       inkscape:connector-curvature="0"
       id="fill-3-7"
       d="m 390.57142,490.43808 2e-5,22.71983 c -0.0461,0.49262 -0.11376,0.78207 -0.318,1.07328 l 24.51303,-10e-6 c 0.62105,0 0.98756,-0.17715 0.98756,-1.71864 v -8.28136 l -2,-4 v -7 -2 c 0,-0.57519 -1.22689,-2 -2,-2 h -20.19948 c -0.48934,0 -0.98311,0 -0.98313,1.2069 z"
       style="color:#1e92ff;opacity:0.4;fill:url(#linearGradient17-4);fill-opacity:0.4;fill-rule:nonzero;stroke:none;stroke-width:5.29537"
       sodipodi:nodetypes="cccccccccccc" />
    <path
       d="m 414.41758,499.505 v -7.707 c 0,-0.796 -0.34031,-1.559 -0.94662,-2.121 -0.60523,-0.563 -1.42692,-0.879 -2.28415,-0.879 h -9.15385 v 0.028 L 401.7702,488.6 c -0.5977,-0.516 -1.38277,-0.802 -2.198,-0.802 h -7.77001 c -1.78446,0 -3.23076,1.343 -3.23076,3 v 22 c 0,0.796 0.3403,1.559 0.94661,2.121 0.60523,0.563 1.42692,0.879 2.28415,0.879 h 21.53847 c 0.85723,0 1.67892,-0.316 2.28415,-0.879 0.60631,-0.562 0.94662,-1.325 0.94662,-2.121 V 502.67 c 0,-0.834 -0.3737,-1.631 -1.03277,-2.198 z m 0.15385,3.165 v 10.128 c 0,0.265 -0.26693,0.52 -0.46939,0.707 -0.20138,0.188 -0.476,0.293 -0.76138,0.293 h -21.53847 c -0.28538,0 -0.56,-0.105 -0.76138,-0.293 -0.20246,-0.187 -0.46938,-0.442 -0.46938,-0.707 v -22 c 0,-0.552 0.6363,-1 1.23077,-1 h 7.77 c 0.27138,0 0.53307,0.095 0.7323,0.267 l 13.76846,11.872 c 0.2197,0.19 0.49847,0.455 0.49847,0.733 z m -19,-8.872 z m 8.74784,-3 7.94446,6.85 v -5.85 c 0,-0.265 -0.11307,-0.52 -0.31553,-0.707 -0.20139,-0.188 -0.476,-0.293 -0.76139,-0.293 z m -10.36323,3 h 5.38462 c 0.59446,0 1.07692,-0.448 1.07692,-1 0,-0.552 -0.48246,-1 -1.07692,-1 h -5.38462 c -0.59446,0 -1.07692,0.448 -1.07692,1 0,0.552 0.48246,1 1.07692,1 z"
       id="path1-0-1"
       style="fill:url(#linearGradient2);stroke-width:1.03775"
       sodipodi:nodetypes="cscscccsssscsscssccsscsscssssccscscscccccscscsssssss" />
  </g>
</svg>
