<?xml version="1.0" encoding="UTF-8" standalone="no"?>
<svg
   width="36"
   version="1.1"
   height="36"
   id="svg17"
   sodipodi:docname="folder-presentation.svg"
   inkscape:version="1.3.1 (91b66b0783, 2023-11-16)"
   xmlns:inkscape="http://www.inkscape.org/namespaces/inkscape"
   xmlns:sodipodi="http://sodipodi.sourceforge.net/DTD/sodipodi-0.dtd"
   xmlns:xlink="http://www.w3.org/1999/xlink"
   xmlns="http://www.w3.org/2000/svg"
   xmlns:svg="http://www.w3.org/2000/svg"
   xmlns:rdf="http://www.w3.org/1999/02/22-rdf-syntax-ns#"
   xmlns:cc="http://creativecommons.org/ns#"
   xmlns:dc="http://purl.org/dc/elements/1.1/">
  <sodipodi:namedview
     pagecolor="#ffffff"
     bordercolor="#666666"
     borderopacity="1"
     objecttolerance="10"
     gridtolerance="10"
     guidetolerance="10"
     inkscape:pageopacity="0"
     inkscape:pageshadow="2"
     inkscape:window-width="1920"
     inkscape:window-height="994"
     id="namedview19"
     showgrid="true"
     inkscape:zoom="13.947501"
     inkscape:cx="14.590427"
     inkscape:cy="19.680944"
     inkscape:window-x="0"
     inkscape:window-y="0"
     inkscape:window-maximized="1"
     inkscape:current-layer="layer1"
     inkscape:document-rotation="0"
     inkscape:showpageshadow="2"
     inkscape:pagecheckerboard="0"
     inkscape:deskcolor="#d1d1d1">
    <inkscape:grid
       type="xygrid"
       id="grid931"
       originx="0"
       originy="0"
       spacingy="1"
       spacingx="1"
       units="px"
       visible="true" />
  </sodipodi:namedview>
  <defs
     id="defs5455">
    <clipPath
       clipPathUnits="userSpaceOnUse"
       id="clipPath79425-9-5-3">
      <rect
         style="opacity:0.5;fill:#000000;fill-opacity:1;stroke:none;stroke-width:0.855869;stroke-dasharray:none;stroke-opacity:1;paint-order:stroke fill markers"
         id="rect79427-1-9-6"
         width="26.417742"
         height="29.037542"
         x="-16.227774"
         y="-6.4845476" />
    </clipPath>
    <clipPath
       clipPathUnits="userSpaceOnUse"
       id="clipPath79425-9-5-5">
      <rect
         style="opacity:0.5;fill:#000000;fill-opacity:1;stroke:none;stroke-width:0.855869;stroke-dasharray:none;stroke-opacity:1;paint-order:stroke fill markers"
         id="rect79427-1-9-62"
         width="26.417742"
         height="29.037542"
         x="-16.227774"
         y="-6.4845476" />
    </clipPath>
    <linearGradient
       id="linearGradient9"
       inkscape:collect="always">
      <stop
         style="stop-color:#3385ff;stop-opacity:1"
         offset="0"
         id="stop7" />
      <stop
         style="stop-color:#3aacbe;stop-opacity:1;"
         offset="0.48888862"
         id="stop8" />
      <stop
         style="stop-color:#b07bff;stop-opacity:1;"
         offset="1"
         id="stop9" />
    </linearGradient>
    <linearGradient
       inkscape:collect="always"
       xlink:href="#linearGradient9"
       id="linearGradient2"
       x1="426.80594"
       y1="523.76794"
       x2="436.40594"
       y2="523.76794"
       gradientUnits="userSpaceOnUse"
       gradientTransform="matrix(0.66666665,0,0,0.66666665,117.85717,156.59935)" />
    <linearGradient
       inkscape:collect="always"
       xlink:href="#linearGradient9"
       id="linearGradient3"
       x1="422.57144"
       y1="523.79797"
       x2="440.57144"
       y2="523.79797"
       gradientUnits="userSpaceOnUse"
       gradientTransform="matrix(0.66666665,0,0,0.66666665,117.85717,156.59935)" />
    <linearGradient
       inkscape:collect="always"
       xlink:href="#linearGradient9"
       id="linearGradient17-8"
       x1="392.57144"
       y1="536.79797"
       x2="444.57144"
       y2="507.798"
       gradientUnits="userSpaceOnUse"
       gradientTransform="matrix(0.4937764,0,0,0.86206901,196.23515,51.474265)" />
    <linearGradient
       inkscape:collect="always"
       xlink:href="#linearGradient9"
       id="linearGradient2-8"
       gradientUnits="userSpaceOnUse"
       x1="147"
       y1="462"
       x2="173"
       y2="434"
       gradientTransform="matrix(1.0769231,0,0,1,230.26373,53.798)" />
  </defs>
  <metadata
     id="metadata5458">
    <rdf:RDF>
      <cc:Work
         rdf:about="">
        <dc:format>image/svg+xml</dc:format>
        <dc:type
           rdf:resource="http://purl.org/dc/dcmitype/StillImage" />
      </cc:Work>
    </rdf:RDF>
  </metadata>
  <g
     inkscape:label="Capa 1"
     inkscape:groupmode="layer"
     id="layer1"
     transform="translate(-384.57143,-483.798)">
    <path
       fill-rule="evenodd"
       clip-rule="evenodd"
       d="m 409.85751,511.798 h -6.42888 c -0.23634,0 -0.4282,-0.19236 -0.4282,-0.42864 0,-0.23676 0.19186,-0.42876 0.4282,-0.42876 h 6.42888 c 0.47344,0 0.85725,-0.38379 0.85725,-0.85708 v -8.57133 c 0,-0.47352 -0.38381,-0.85698 -0.85725,-0.85698 h -8.5716 c -0.47313,0 -0.85713,0.38346 -0.85713,0.85698 v 8.1428 c 0,0.23681 -0.19188,0.42853 -0.42863,0.42853 -0.23646,0 -0.42872,-0.19172 -0.42872,-0.42853 v -8.1428 c 0,-0.94679 0.76784,-1.71419 1.71448,-1.71419 h 8.5716 c 0.94652,0 1.71392,0.7674 1.71392,1.71419 v 8.57133 c 0,0.94675 -0.7674,1.71448 -1.71392,1.71448 z m -8.14291,-0.8574 c 0.23633,0 0.42865,0.192 0.42865,0.42876 0,0.23628 -0.19232,0.42864 -0.42865,0.42864 -0.23697,0 -0.42869,-0.19236 -0.42869,-0.42864 0,-0.23676 0.19172,-0.42876 0.42869,-0.42876 z"
       id="path2-7-4-7"
       style="fill:url(#linearGradient3);fill-opacity:1;stroke-width:0.0267863" />
    <path
       fill-rule="evenodd"
       clip-rule="evenodd"
       d="m 408.59447,507.57797 c -0.11042,0 -0.20004,-0.0899 -0.20004,-0.20015 v -3.19992 c 0,-0.11048 -0.0899,-0.19993 -0.20004,-0.19993 h -0.39996 c -0.1104,0 -0.20004,0.0897 -0.20004,0.19993 v 4.09992 c 0,0.27626 -0.22372,0.50015 -0.49992,0.50015 h -0.20004 c -0.27608,0 -0.50004,-0.22389 -0.50004,-0.50015 v -2.1 c 0,-0.11042 -0.0894,-0.19993 -0.19992,-0.19993 h -0.40008 c -0.11047,0 -0.19992,0.0895 -0.19992,0.19993 v 2.1 c 0,0.27626 -0.22396,0.50015 -0.50004,0.50015 h -0.20004 c -0.2762,0 -0.49992,-0.22389 -0.49992,-0.50015 v -1.29985 c 0,-0.11045 -0.0897,-0.20015 -0.20004,-0.20015 h -0.39996 c -0.11041,0 -0.20004,0.09 -0.20004,0.20015 v 1.39993 c 0,0.22095 -0.17908,0.40007 -0.39996,0.40007 -0.44184,0 -0.80004,-0.35829 -0.80004,-0.80015 v -3.6 -1.39993 c 0,-0.11047 0.0898,-0.19992 0.20004,-0.19992 0.11048,0 0.19992,0.0897 0.19992,0.19992 v 0.70789 0.69204 3.6 c 0,0.22095 0.15416,0.40006 0.3,0.40006 0.0548,0 0.10008,-0.0443 0.10008,-0.10007 v -1.39993 c 0,-0.2762 0.22372,-0.49991 0.49992,-0.49991 h 0.6 c 0.2762,0 0.50004,0.22371 0.50004,0.49991 v 1.3001 c 0,0.11047 0.0897,0.1999 0.20004,0.1999 0.11047,0 0.19992,-0.0895 0.19992,-0.1999 v -2.10001 c 0,-0.27614 0.22396,-0.50015 0.50004,-0.50015 h 0.6 c 0.27608,0 0.50004,0.22401 0.50004,0.50015 v 2.10001 c 0,0.11047 0.0895,0.1999 0.19992,0.1999 0.11041,0 0.20004,-0.0895 0.20004,-0.1999 v -4.10016 c 0,-0.27602 0.22384,-0.49993 0.50004,-0.49993 h 0.6 c 0.2762,0 0.49992,0.22391 0.49992,0.49993 v 3.3 c 0,0.11048 -0.0895,0.20015 -0.19992,0.20015 z m 0,0.39985 c 0.11047,0 0.19992,0.09 0.19992,0.20015 0,0.11048 -0.0895,0.19993 -0.19992,0.19993 -0.11042,0 -0.20004,-0.0894 -0.20004,-0.19993 0,-0.11045 0.0897,-0.20015 0.20004,-0.20015 z"
       id="path2-3-3-5-9-4"
       style="fill:url(#linearGradient2);fill-opacity:1;stroke-width:0.0124992" />
    <path
       inkscape:connector-curvature="0"
       id="fill-3-2"
       d="m 390.57142,490.43808 2e-5,22.71983 c -0.0461,0.49262 -0.11376,0.78207 -0.318,1.07328 l 24.51303,-10e-6 c 0.62105,0 0.98756,-0.17715 0.98756,-1.71864 v -8.28136 l -2,-4 v -7 -2 c 0,-0.57519 -1.22689,-2 -2,-2 h -20.19948 c -0.48934,0 -0.98311,0 -0.98313,1.2069 z"
       style="color:#1e92ff;opacity:0.4;fill:url(#linearGradient17-8);fill-opacity:0.4;fill-rule:nonzero;stroke:none;stroke-width:5.29537"
       sodipodi:nodetypes="cccccccccccc" />
    <path
       d="m 414.41758,499.505 v -7.707 c 0,-0.796 -0.34031,-1.559 -0.94662,-2.121 -0.60523,-0.563 -1.42692,-0.879 -2.28415,-0.879 h -9.15385 v 0.028 L 401.7702,488.6 c -0.5977,-0.516 -1.38277,-0.802 -2.198,-0.802 h -7.77001 c -1.78446,0 -3.23076,1.343 -3.23076,3 v 22 c 0,0.796 0.3403,1.559 0.94661,2.121 0.60523,0.563 1.42692,0.879 2.28415,0.879 h 21.53847 c 0.85723,0 1.67892,-0.316 2.28415,-0.879 0.60631,-0.562 0.94662,-1.325 0.94662,-2.121 V 502.67 c 0,-0.834 -0.3737,-1.631 -1.03277,-2.198 z m 0.15385,3.165 v 10.128 c 0,0.265 -0.26693,0.52 -0.46939,0.707 -0.20138,0.188 -0.476,0.293 -0.76138,0.293 h -21.53847 c -0.28538,0 -0.56,-0.105 -0.76138,-0.293 -0.20246,-0.187 -0.46938,-0.442 -0.46938,-0.707 v -22 c 0,-0.552 0.6363,-1 1.23077,-1 h 7.77 c 0.27138,0 0.53307,0.095 0.7323,0.267 l 13.76846,11.872 c 0.2197,0.19 0.49847,0.455 0.49847,0.733 z m -19,-8.872 z m 8.74784,-3 7.94446,6.85 v -5.85 c 0,-0.265 -0.11307,-0.52 -0.31553,-0.707 -0.20139,-0.188 -0.476,-0.293 -0.76139,-0.293 z m -10.36323,3 h 5.38462 c 0.59446,0 1.07692,-0.448 1.07692,-1 0,-0.552 -0.48246,-1 -1.07692,-1 h -5.38462 c -0.59446,0 -1.07692,0.448 -1.07692,1 0,0.552 0.48246,1 1.07692,1 z"
       id="path1-0-1"
       style="fill:url(#linearGradient2-8);stroke-width:1.03775"
       sodipodi:nodetypes="cscscccsssscsscssccsscsscssssccscscscccccscscsssssss" />
  </g>
</svg>
