<?xml version="1.0" encoding="UTF-8" standalone="no"?>
<svg
   width="36"
   version="1.1"
   height="36"
   id="svg17"
   sodipodi:docname="folder-windows.svg"
   inkscape:version="1.3.1 (91b66b0783, 2023-11-16)"
   xmlns:inkscape="http://www.inkscape.org/namespaces/inkscape"
   xmlns:sodipodi="http://sodipodi.sourceforge.net/DTD/sodipodi-0.dtd"
   xmlns:xlink="http://www.w3.org/1999/xlink"
   xmlns="http://www.w3.org/2000/svg"
   xmlns:svg="http://www.w3.org/2000/svg"
   xmlns:rdf="http://www.w3.org/1999/02/22-rdf-syntax-ns#"
   xmlns:cc="http://creativecommons.org/ns#"
   xmlns:dc="http://purl.org/dc/elements/1.1/">
  <sodipodi:namedview
     pagecolor="#ffffff"
     bordercolor="#666666"
     borderopacity="1"
     objecttolerance="10"
     gridtolerance="10"
     guidetolerance="10"
     inkscape:pageopacity="0"
     inkscape:pageshadow="2"
     inkscape:window-width="1920"
     inkscape:window-height="994"
     id="namedview19"
     showgrid="true"
     inkscape:zoom="9.8125004"
     inkscape:cx="15.337579"
     inkscape:cy="24.407642"
     inkscape:window-x="0"
     inkscape:window-y="0"
     inkscape:window-maximized="1"
     inkscape:current-layer="layer1"
     inkscape:document-rotation="0"
     inkscape:showpageshadow="2"
     inkscape:pagecheckerboard="0"
     inkscape:deskcolor="#d1d1d1">
    <inkscape:grid
       type="xygrid"
       id="grid908"
       originx="0"
       originy="0"
       spacingy="1"
       spacingx="1"
       units="px"
       visible="true" />
  </sodipodi:namedview>
  <defs
     id="defs5455">
    <clipPath
       clipPathUnits="userSpaceOnUse"
       id="clipPath79425-9-5-3">
      <rect
         style="opacity:0.5;fill:#000000;fill-opacity:1;stroke:none;stroke-width:0.855869;stroke-dasharray:none;stroke-opacity:1;paint-order:stroke fill markers"
         id="rect79427-1-9-6"
         width="26.417742"
         height="29.037542"
         x="-16.227774"
         y="-6.4845476" />
    </clipPath>
    <clipPath
       clipPathUnits="userSpaceOnUse"
       id="clipPath79425-9-5-5">
      <rect
         style="opacity:0.5;fill:#000000;fill-opacity:1;stroke:none;stroke-width:0.855869;stroke-dasharray:none;stroke-opacity:1;paint-order:stroke fill markers"
         id="rect79427-1-9-62"
         width="26.417742"
         height="29.037542"
         x="-16.227774"
         y="-6.4845476" />
    </clipPath>
    <linearGradient
       id="linearGradient12"
       inkscape:collect="always">
      <stop
         style="stop-color:#2a7fff;stop-opacity:1"
         offset="0"
         id="stop10" />
      <stop
         style="stop-color:#8787de;stop-opacity:1"
         offset="0.5477823"
         id="stop11" />
      <stop
         style="stop-color:#00aad4;stop-opacity:1"
         offset="1"
         id="stop12" />
    </linearGradient>
    <linearGradient
       inkscape:collect="always"
       xlink:href="#linearGradient12"
       id="linearGradient17-9"
       x1="392.57144"
       y1="536.79797"
       x2="444.57144"
       y2="507.798"
       gradientUnits="userSpaceOnUse"
       gradientTransform="matrix(0.4937764,0,0,0.86206901,196.23515,51.474265)" />
    <linearGradient
       inkscape:collect="always"
       xlink:href="#linearGradient12"
       id="linearGradient2-3"
       gradientUnits="userSpaceOnUse"
       x1="147"
       y1="462"
       x2="173"
       y2="434"
       gradientTransform="matrix(1.0769231,0,0,1,230.26373,53.798)" />
    <linearGradient
       inkscape:collect="always"
       xlink:href="#linearGradient12"
       id="linearGradient1"
       gradientUnits="userSpaceOnUse"
       gradientTransform="matrix(0.66666329,0,0,0.66666329,118.56002,155.84843)"
       x1="421.52237"
       y1="524.92126"
       x2="439.52283"
       y2="524.92126" />
  </defs>
  <metadata
     id="metadata5458">
    <rdf:RDF>
      <cc:Work
         rdf:about="">
        <dc:format>image/svg+xml</dc:format>
        <dc:type
           rdf:resource="http://purl.org/dc/dcmitype/StillImage" />
      </cc:Work>
    </rdf:RDF>
  </metadata>
  <g
     inkscape:label="Capa 1"
     inkscape:groupmode="layer"
     id="layer1"
     transform="translate(-384.57143,-483.798)">
    <path
       inkscape:connector-curvature="0"
       id="fill-3-4"
       d="m 390.57142,490.43808 2e-5,22.71983 c -0.0461,0.49262 -0.11376,0.78207 -0.318,1.07328 l 24.51303,-10e-6 c 0.62105,0 0.98756,-0.17715 0.98756,-1.71864 v -8.28136 l -2,-4 v -7 -2 c 0,-0.57519 -1.22689,-2 -2,-2 h -20.19948 c -0.48934,0 -0.98311,0 -0.98313,1.2069 z"
       style="color:#1e92ff;opacity:0.4;fill:url(#linearGradient17-9);fill-opacity:0.4;fill-rule:nonzero;stroke:none;stroke-width:5.29537"
       sodipodi:nodetypes="cccccccccccc" />
    <path
       d="m 414.41758,499.505 v -7.707 c 0,-0.796 -0.34031,-1.559 -0.94662,-2.121 -0.60523,-0.563 -1.42692,-0.879 -2.28415,-0.879 h -9.15385 v 0.028 L 401.7702,488.6 c -0.5977,-0.516 -1.38277,-0.802 -2.198,-0.802 h -7.77001 c -1.78446,0 -3.23076,1.343 -3.23076,3 v 22 c 0,0.796 0.3403,1.559 0.94661,2.121 0.60523,0.563 1.42692,0.879 2.28415,0.879 h 21.53847 c 0.85723,0 1.67892,-0.316 2.28415,-0.879 0.60631,-0.562 0.94662,-1.325 0.94662,-2.121 V 502.67 c 0,-0.834 -0.3737,-1.631 -1.03277,-2.198 z m 0.15385,3.165 v 10.128 c 0,0.265 -0.26693,0.52 -0.46939,0.707 -0.20138,0.188 -0.476,0.293 -0.76138,0.293 h -21.53847 c -0.28538,0 -0.56,-0.105 -0.76138,-0.293 -0.20246,-0.187 -0.46938,-0.442 -0.46938,-0.707 v -22 c 0,-0.552 0.6363,-1 1.23077,-1 h 7.77 c 0.27138,0 0.53307,0.095 0.7323,0.267 l 13.76846,11.872 c 0.2197,0.19 0.49847,0.455 0.49847,0.733 z m -19,-8.872 z m 8.74784,-3 7.94446,6.85 v -5.85 c 0,-0.265 -0.11307,-0.52 -0.31553,-0.707 -0.20139,-0.188 -0.476,-0.293 -0.76139,-0.293 z m -10.36323,3 h 5.38462 c 0.59446,0 1.07692,-0.448 1.07692,-1 0,-0.552 -0.48246,-1 -1.07692,-1 h -5.38462 c -0.59446,0 -1.07692,0.448 -1.07692,1 0,0.552 0.48246,1 1.07692,1 z"
       id="path1-0-1"
       style="fill:url(#linearGradient2-3);stroke-width:1.03775"
       sodipodi:nodetypes="cscscccsssscsscssccsscsscssssccscscscccccscscsssssss" />
    <path
       fill-rule="evenodd"
       clip-rule="evenodd"
       d="m 410.07334,511.79292 h -2.62486 c -0.20691,0 -0.37524,-0.16812 -0.37524,-0.37499 0,-0.2073 0.16833,-0.37498 0.37524,-0.37498 h 2.4374 c 0.51786,0 0.93745,-0.41969 0.93745,-0.93752 v -2.43744 c 0,-0.20729 0.16777,-0.37535 0.37509,-0.37535 0.20726,0 0.37489,0.16806 0.37489,0.37535 v 2.62495 c 0,0.82836 -0.67157,1.49998 -1.49997,1.49998 z m -10.12483,-8.24972 c 0.20729,0 0.37514,0.1677 0.37514,0.37496 0,0.20669 -0.16785,0.37462 -0.37514,0.37462 -0.20718,0 -0.37499,-0.16793 -0.37499,-0.37462 0,-0.20726 0.16781,-0.37496 0.37499,-0.37496 z m 11.61095,1.69533 c -0.007,0.0405 -0.0109,0.0801 -0.0195,0.11936 -0.006,0.019 -0.01,0.0375 -0.0144,0.0554 -0.01,0.0325 -0.0171,0.0657 -0.0275,0.0975 -0.007,0.0142 -0.01,0.028 -0.0152,0.042 -0.0139,0.0369 -0.0272,0.0732 -0.0433,0.10785 -0.006,0.01 -0.01,0.0179 -0.0135,0.027 -0.018,0.0381 -0.0381,0.0763 -0.0587,0.11206 -0.007,0.01 -0.01,0.0151 -0.0138,0.0221 -0.0226,0.0377 -0.0471,0.0739 -0.0737,0.10948 -0.006,0.007 -0.01,0.01 -0.0108,0.0152 -0.0288,0.0376 -0.0578,0.0735 -0.0896,0.10733 -0.003,0.004 -0.008,0.01 -0.01,0.01 -0.034,0.0375 -0.0702,0.0721 -0.10803,0.10548 -0.26438,0.23258 -0.61014,0.37504 -0.98983,0.37504 v 0.0188 c -0.0609,-0.0121 -0.12343,-0.0188 -0.18751,-0.0188 h -2.62487 c -0.51781,0 -0.93752,0.41967 -0.93752,0.93745 v 2.62493 c 0,0.0641 0.01,0.12706 0.019,0.18753 h -0.019 c 0,0.37966 -0.14222,0.72539 -0.37495,0.98983 -0.0332,0.0379 -0.0684,0.0738 -0.10547,0.10803 -0.003,0.003 -0.008,0.007 -0.01,0.01 -0.0342,0.0311 -0.0704,0.0615 -0.10756,0.0892 -0.007,0.006 -0.01,0.01 -0.0148,0.0109 -0.0353,0.0262 -0.0719,0.0505 -0.10939,0.0738 -0.01,0.007 -0.0147,0.01 -0.0221,0.0138 -0.0362,0.0211 -0.074,0.041 -0.11208,0.0586 -0.01,0.007 -0.0179,0.01 -0.0272,0.0135 -0.0345,0.0169 -0.0707,0.0299 -0.10776,0.0433 -0.0141,0.007 -0.028,0.0103 -0.0418,0.0154 -0.0315,0.0103 -0.065,0.0188 -0.0975,0.0276 -0.0183,0.007 -0.0369,0.0101 -0.0552,0.0144 -0.0388,0.01 -0.079,0.0146 -0.11921,0.0194 -0.0108,0.002 -0.0213,0.006 -0.0329,0.007 -0.0534,0.01 -0.1078,0.01 -0.16261,0.01 h -3.74963 c -0.82841,-1.2e-4 -1.50011,-0.6717 -1.50011,-1.50007 v -3.74988 c 0,-0.8285 0.6717,-1.50009 1.50011,-1.50009 h 0.37506 2.43717 c 0.51789,0 0.9375,-0.41967 0.9375,-0.93746 v -2.62525 c 0,-0.51774 -0.41961,-0.93747 -0.9375,-0.93747 h -2.62481 c -0.51778,0 -0.93736,0.41973 -0.93736,0.93747 v 0.9375 c 0,0.20709 -0.16784,0.37498 -0.37512,0.37498 -0.20717,0 -0.37492,-0.16789 -0.37492,-0.37498 v -1.12556 c 0,-0.82858 0.6717,-1.50019 1.50007,-1.50019 h 3.00001 c 0.0548,0 0.10865,0.003 0.16191,0.01 0.0126,5.8e-4 0.0243,0.007 0.0369,0.01 0.0396,0.007 0.0781,0.0108 0.11694,0.0192 0.0175,0.006 0.0343,0.01 0.0529,0.0138 0.0337,0.01 0.067,0.0171 0.0999,0.028 0.0137,0.007 0.0269,0.01 0.0409,0.015 0.0368,0.0139 0.0737,0.0276 0.10892,0.0434 0.01,0.007 0.0189,0.01 0.029,0.0139 0.0376,0.0179 0.0742,0.0379 0.11014,0.0582 0.01,0.007 0.0154,0.01 0.0223,0.0139 0.0377,0.0227 0.074,0.0469 0.10937,0.0738 0.007,0.006 0.0102,0.01 0.0152,0.0108 0.0376,0.0285 0.0736,0.0579 0.10735,0.0895 0.003,0.003 0.008,0.008 0.01,0.01 0.0374,0.0339 0.0719,0.0701 0.10539,0.1082 0.23275,0.26443 0.37505,0.61014 0.37505,0.98982 h 0.0188 c -0.0126,0.0606 -0.0188,0.12327 -0.0188,0.18731 v 2.81228 c 0,0.82853 -0.67169,1.50015 -1.49978,1.50015 h -2.81265 c -0.51779,0 -0.93741,0.41977 -0.93741,0.93756 v 3.37496 c 0,0.51778 0.4196,0.93744 0.93741,0.93744 h 3.37513 c 0.51781,0 0.93736,-0.41966 0.93736,-0.93744 v -2.81309 c 0,-0.82836 0.67168,-1.49967 1.4998,-1.49967 h 2.81261 c 0.51784,0 0.93748,-0.4195 0.93748,-0.93728 v -3.37517 c 0,-0.51779 -0.41964,-0.93745 -0.93748,-0.93745 h -3.18741 c -0.20714,0 -0.3752,-0.16773 -0.3752,-0.37503 0,-0.20725 0.16806,-0.37496 0.3752,-0.37496 h 3.3747 c 0.82839,0 1.49999,0.6716 1.49999,1.50013 v 3.74976 c 0,0.0544 -0.005,0.1093 -0.01,0.16259 -6e-4,0.0113 -0.005,0.0218 -0.007,0.0329 z"
       id="path2-3-3-7-4-3-7"
       style="fill:url(#linearGradient1);stroke-width:0.023437" />
  </g>
</svg>
