<?xml version="1.0" encoding="UTF-8" standalone="no"?>
<svg
   width="36"
   version="1.1"
   height="36"
   id="svg15"
   sodipodi:docname="folder-extension.svg"
   inkscape:version="1.3.1 (91b66b0783, 2023-11-16)"
   xmlns:inkscape="http://www.inkscape.org/namespaces/inkscape"
   xmlns:sodipodi="http://sodipodi.sourceforge.net/DTD/sodipodi-0.dtd"
   xmlns:xlink="http://www.w3.org/1999/xlink"
   xmlns="http://www.w3.org/2000/svg"
   xmlns:svg="http://www.w3.org/2000/svg"
   xmlns:rdf="http://www.w3.org/1999/02/22-rdf-syntax-ns#"
   xmlns:cc="http://creativecommons.org/ns#"
   xmlns:dc="http://purl.org/dc/elements/1.1/">
  <sodipodi:namedview
     pagecolor="#ffffff"
     bordercolor="#666666"
     borderopacity="1"
     objecttolerance="10"
     gridtolerance="10"
     guidetolerance="10"
     inkscape:pageopacity="0"
     inkscape:pageshadow="2"
     inkscape:window-width="1920"
     inkscape:window-height="994"
     id="namedview17"
     showgrid="true"
     inkscape:zoom="6.9384853"
     inkscape:cx="26.734942"
     inkscape:cy="13.475564"
     inkscape:window-x="0"
     inkscape:window-y="0"
     inkscape:window-maximized="1"
     inkscape:current-layer="layer1"
     inkscape:document-rotation="0"
     inkscape:showpageshadow="2"
     inkscape:pagecheckerboard="0"
     inkscape:deskcolor="#d1d1d1">
    <inkscape:grid
       type="xygrid"
       id="grid919"
       originx="0"
       originy="0"
       spacingy="1"
       spacingx="1"
       units="px"
       visible="true" />
  </sodipodi:namedview>
  <defs
     id="defs5455">
    <clipPath
       clipPathUnits="userSpaceOnUse"
       id="clipPath79425-9-5-3">
      <rect
         style="opacity:0.5;fill:#000000;fill-opacity:1;stroke:none;stroke-width:0.855869;stroke-dasharray:none;stroke-opacity:1;paint-order:stroke fill markers"
         id="rect79427-1-9-6"
         width="26.417742"
         height="29.037542"
         x="-16.227774"
         y="-6.4845476" />
    </clipPath>
    <clipPath
       clipPathUnits="userSpaceOnUse"
       id="clipPath79425-9-5-5">
      <rect
         style="opacity:0.5;fill:#000000;fill-opacity:1;stroke:none;stroke-width:0.855869;stroke-dasharray:none;stroke-opacity:1;paint-order:stroke fill markers"
         id="rect79427-1-9-62"
         width="26.417742"
         height="29.037542"
         x="-16.227774"
         y="-6.4845476" />
    </clipPath>
    <linearGradient
       id="linearGradient24"
       inkscape:collect="always">
      <stop
         style="stop-color:#5398ff;stop-opacity:1;"
         offset="0"
         id="stop22" />
      <stop
         style="stop-color:#61c0cf;stop-opacity:1"
         offset="0.48888862"
         id="stop23" />
      <stop
         style="stop-color:#b07bff;stop-opacity:1;"
         offset="1"
         id="stop24" />
    </linearGradient>
    <linearGradient
       id="linearGradient12"
       inkscape:collect="always">
      <stop
         style="stop-color:#5398ff;stop-opacity:1;"
         offset="0"
         id="stop10" />
      <stop
         style="stop-color:#47b7c7;stop-opacity:1;"
         offset="0.48888862"
         id="stop11" />
      <stop
         style="stop-color:#b07bff;stop-opacity:1;"
         offset="1"
         id="stop12" />
    </linearGradient>
    <linearGradient
       inkscape:collect="always"
       xlink:href="#linearGradient24"
       id="linearGradient2"
       x1="421.72147"
       y1="526.4809"
       x2="439.7215"
       y2="526.4809"
       gradientUnits="userSpaceOnUse"
       gradientTransform="matrix(0.66666814,0,0,0.66666814,118.42315,154.80995)" />
    <linearGradient
       inkscape:collect="always"
       xlink:href="#linearGradient12"
       id="linearGradient17-3"
       x1="392.57144"
       y1="536.79797"
       x2="444.57144"
       y2="507.798"
       gradientUnits="userSpaceOnUse"
       gradientTransform="matrix(0.4937764,0,0,0.86206901,196.23515,51.474265)" />
    <linearGradient
       inkscape:collect="always"
       xlink:href="#linearGradient12"
       id="linearGradient2-5"
       gradientUnits="userSpaceOnUse"
       x1="147"
       y1="462"
       x2="173"
       y2="434"
       gradientTransform="matrix(1.0769231,0,0,1,230.26373,53.798)" />
  </defs>
  <metadata
     id="metadata5458">
    <rdf:RDF>
      <cc:Work
         rdf:about="">
        <dc:format>image/svg+xml</dc:format>
        <dc:type
           rdf:resource="http://purl.org/dc/dcmitype/StillImage" />
      </cc:Work>
    </rdf:RDF>
  </metadata>
  <g
     inkscape:label="Capa 1"
     inkscape:groupmode="layer"
     id="layer1"
     transform="translate(-384.57143,-483.798)">
    <path
       d="m 399.57143,509.29943 a 0.43918796,0.43918796 0 0 0 0.43899,0.43907 h 2.07111 a 2.4991211,2.4991211 0 0 0 4.9203,0 h 2.07103 a 0.4391938,0.4391938 0 0 0 0.43908,-0.43907 v -2.07102 a 2.4991211,2.4991211 0 0 0 0,-4.92031 v -2.07111 a 0.4391938,0.4391938 0 0 0 -0.43908,-0.43899 h -2.05963 a 0.43899772,0.43899772 0 0 0 -0.43902,0.43899 1.620605,1.620605 0 0 1 -3.24121,0 0.43918796,0.43918796 0 0 0 -0.43902,-0.43899 h -2.88356 a 0.43918796,0.43918796 0 0 0 -0.43899,0.43899 v 2.47151 a 0.43900062,0.43900062 0 0 0 0.43899,0.43901 1.620769,1.620769 0 0 1 0,3.2415 0.43900062,0.43900062 0 0 0 -0.43899,0.43906 z m 0.87807,-0.43898 v -1.63204 a 2.4991237,2.4991237 0 0 0 0,-4.92031 v -1.63203 h 2.04377 a 2.4991211,2.4991211 0 0 0 4.92043,0 h 1.22021 v 2.03245 a 0.43900062,0.43900062 0 0 0 0.43895,0.43899 1.620762,1.620762 0 0 1 0,3.2415 0.43900062,0.43900062 0 0 0 -0.43895,0.43906 v 2.03241 h -2.03241 a 0.43900062,0.43900062 0 0 0 -0.43906,0.43895 1.6207701,1.6207701 0 0 1 -3.2415,0 0.43900062,0.43900062 0 0 0 -0.43902,-0.43895 z"
       fill-rule="evenodd"
       id="path2-9-6-8"
       style="fill:url(#linearGradient2);stroke-width:0.292703" />
    <path
       inkscape:connector-curvature="0"
       id="fill-3-7"
       d="m 390.57142,490.43808 2e-5,22.71983 c -0.0461,0.49262 -0.11376,0.78207 -0.318,1.07328 l 24.51303,-10e-6 c 0.62105,0 0.98756,-0.17715 0.98756,-1.71864 v -8.28136 l -2,-4 v -7 -2 c 0,-0.57519 -1.22689,-2 -2,-2 h -20.19948 c -0.48934,0 -0.98311,0 -0.98313,1.2069 z"
       style="color:#1e92ff;opacity:0.4;fill:url(#linearGradient17-3);fill-opacity:0.4;fill-rule:nonzero;stroke:none;stroke-width:5.29537"
       sodipodi:nodetypes="cccccccccccc" />
    <path
       d="m 414.41758,499.505 v -7.707 c 0,-0.796 -0.34031,-1.559 -0.94662,-2.121 -0.60523,-0.563 -1.42692,-0.879 -2.28415,-0.879 h -9.15385 v 0.028 L 401.7702,488.6 c -0.5977,-0.516 -1.38277,-0.802 -2.198,-0.802 h -7.77001 c -1.78446,0 -3.23076,1.343 -3.23076,3 v 22 c 0,0.796 0.3403,1.559 0.94661,2.121 0.60523,0.563 1.42692,0.879 2.28415,0.879 h 21.53847 c 0.85723,0 1.67892,-0.316 2.28415,-0.879 0.60631,-0.562 0.94662,-1.325 0.94662,-2.121 V 502.67 c 0,-0.834 -0.3737,-1.631 -1.03277,-2.198 z m 0.15385,3.165 v 10.128 c 0,0.265 -0.26693,0.52 -0.46939,0.707 -0.20138,0.188 -0.476,0.293 -0.76138,0.293 h -21.53847 c -0.28538,0 -0.56,-0.105 -0.76138,-0.293 -0.20246,-0.187 -0.46938,-0.442 -0.46938,-0.707 v -22 c 0,-0.552 0.6363,-1 1.23077,-1 h 7.77 c 0.27138,0 0.53307,0.095 0.7323,0.267 l 13.76846,11.872 c 0.2197,0.19 0.49847,0.455 0.49847,0.733 z m -19,-8.872 z m 8.74784,-3 7.94446,6.85 v -5.85 c 0,-0.265 -0.11307,-0.52 -0.31553,-0.707 -0.20139,-0.188 -0.476,-0.293 -0.76139,-0.293 z m -10.36323,3 h 5.38462 c 0.59446,0 1.07692,-0.448 1.07692,-1 0,-0.552 -0.48246,-1 -1.07692,-1 h -5.38462 c -0.59446,0 -1.07692,0.448 -1.07692,1 0,0.552 0.48246,1 1.07692,1 z"
       id="path1-0-1"
       style="fill:url(#linearGradient2-5);stroke-width:1.03775"
       sodipodi:nodetypes="cscscccsssscsscssccsscsscssssccscscscccccscscsssssss" />
  </g>
</svg>
