<?xml version="1.0" encoding="UTF-8" standalone="no"?>
<svg
   width="36"
   version="1.1"
   height="36"
   id="svg15"
   sodipodi:docname="folder-deb.svg"
   inkscape:version="1.3.1 (91b66b0783, 2023-11-16)"
   xmlns:inkscape="http://www.inkscape.org/namespaces/inkscape"
   xmlns:sodipodi="http://sodipodi.sourceforge.net/DTD/sodipodi-0.dtd"
   xmlns:xlink="http://www.w3.org/1999/xlink"
   xmlns="http://www.w3.org/2000/svg"
   xmlns:svg="http://www.w3.org/2000/svg"
   xmlns:rdf="http://www.w3.org/1999/02/22-rdf-syntax-ns#"
   xmlns:cc="http://creativecommons.org/ns#"
   xmlns:dc="http://purl.org/dc/elements/1.1/">
  <sodipodi:namedview
     pagecolor="#ffffff"
     bordercolor="#666666"
     borderopacity="1"
     objecttolerance="10"
     gridtolerance="10"
     guidetolerance="10"
     inkscape:pageopacity="0"
     inkscape:pageshadow="2"
     inkscape:window-width="1920"
     inkscape:window-height="994"
     id="namedview17"
     showgrid="true"
     inkscape:zoom="4.9062499"
     inkscape:cx="-19.261147"
     inkscape:cy="28.840765"
     inkscape:window-x="0"
     inkscape:window-y="0"
     inkscape:window-maximized="1"
     inkscape:current-layer="layer1"
     inkscape:document-rotation="0"
     inkscape:showpageshadow="2"
     inkscape:pagecheckerboard="0"
     inkscape:deskcolor="#d1d1d1">
    <inkscape:grid
       type="xygrid"
       id="grid475"
       originx="0"
       originy="0"
       spacingy="1"
       spacingx="1"
       units="px"
       visible="true" />
  </sodipodi:namedview>
  <defs
     id="defs5455">
    <linearGradient
       inkscape:collect="always"
       id="linearGradient3">
      <stop
         style="stop-color:#ff3939;stop-opacity:1;"
         offset="0"
         id="stop2" />
      <stop
         style="stop-color:#ff5599;stop-opacity:1"
         offset="0.47642779"
         id="stop4" />
      <stop
         style="stop-color:#d15454;stop-opacity:1;"
         offset="1"
         id="stop3" />
    </linearGradient>
    <linearGradient
       id="linearGradient4194">
      <stop
         style="stop-color:#ff66c0;stop-opacity:1;"
         id="stop4196"
         offset="0" />
      <stop
         style="stop-color:#aa0044;stop-opacity:1"
         id="stop13504"
         offset="0.55095536" />
      <stop
         offset="1"
         style="stop-color:#ff5bba;stop-opacity:1;"
         id="stop4198" />
    </linearGradient>
    <clipPath
       clipPathUnits="userSpaceOnUse"
       id="clipPath79425-9-5-3">
      <rect
         style="opacity:0.5;fill:#000000;fill-opacity:1;stroke:none;stroke-width:0.855869;stroke-dasharray:none;stroke-opacity:1;paint-order:stroke fill markers"
         id="rect79427-1-9-6"
         width="26.417742"
         height="29.037542"
         x="-16.227774"
         y="-6.4845476" />
    </clipPath>
    <clipPath
       clipPathUnits="userSpaceOnUse"
       id="clipPath79425-9-5-5">
      <rect
         style="opacity:0.5;fill:#000000;fill-opacity:1;stroke:none;stroke-width:0.855869;stroke-dasharray:none;stroke-opacity:1;paint-order:stroke fill markers"
         id="rect79427-1-9-62"
         width="26.417742"
         height="29.037542"
         x="-16.227774"
         y="-6.4845476" />
    </clipPath>
    <linearGradient
       inkscape:collect="always"
       xlink:href="#linearGradient3"
       id="linearGradient2"
       x1="423.86438"
       y1="525.3468"
       x2="438.58078"
       y2="525.3468"
       gradientUnits="userSpaceOnUse"
       gradientTransform="matrix(0.67936657,0,0,0.66586879,113.61166,155.98198)" />
    <linearGradient
       inkscape:collect="always"
       xlink:href="#linearGradient4194"
       id="linearGradient17-6"
       x1="392.57144"
       y1="536.79797"
       x2="444.57144"
       y2="507.798"
       gradientUnits="userSpaceOnUse"
       gradientTransform="matrix(0.4937764,0,0,0.86206901,196.23515,51.474265)" />
    <linearGradient
       inkscape:collect="always"
       xlink:href="#linearGradient4194"
       id="linearGradient2-3"
       gradientUnits="userSpaceOnUse"
       x1="147"
       y1="462"
       x2="173"
       y2="434"
       gradientTransform="matrix(1.0769231,0,0,1,230.26373,53.798)" />
  </defs>
  <metadata
     id="metadata5458">
    <rdf:RDF>
      <cc:Work
         rdf:about="">
        <dc:format>image/svg+xml</dc:format>
        <dc:type
           rdf:resource="http://purl.org/dc/dcmitype/StillImage" />
      </cc:Work>
    </rdf:RDF>
  </metadata>
  <g
     inkscape:label="Capa 1"
     inkscape:groupmode="layer"
     id="layer1"
     transform="translate(-384.57143,-483.798)">
    <path
       style="color:#232629;fill:url(#linearGradient2);stroke:none;stroke-width:0.550373"
       d="m 407.40771,511.72864 c -0.66714,-0.10897 -1.61222,-0.49038 -2.16809,-0.84456 -1.27863,-0.81735 -2.11549,-1.72647 -2.63272,-2.86114 -0.16679,-0.38137 -0.26574,-0.65385 -0.55589,-1.63465 -0.0552,-0.24516 -0.14998,-0.51996 -0.18473,-0.60556 -0.0582,-0.14439 -0.0613,-0.19316 -0.0348,-0.67489 0.0241,-0.43589 0.11115,-1.08971 0.16663,-1.14206 0.0102,-0.0132 0.0283,-0.0166 0.0427,-0.01 0.053,0.0301 0.10064,-0.11022 0.14811,-0.4308 0.0267,-0.17577 0.0674,-0.35991 0.0909,-0.40943 0.0235,-0.0501 0.0651,-0.15876 0.0907,-0.24276 0.0583,-0.19337 0.13949,-0.34196 0.38806,-0.71706 0.10937,-0.16493 0.22301,-0.34468 0.25263,-0.39924 0.0339,-0.0651 0.0726,-0.0958 0.10776,-0.0898 0.0328,0.01 0.0895,-0.0349 0.14731,-0.11058 0.25269,-0.32701 1.4435,-1.29191 1.55368,-1.25899 0.0304,0.01 0.15572,-0.0303 0.27922,-0.0901 0.22337,-0.10584 0.32183,-0.13026 0.32183,-0.0795 0,0.0155 -0.0313,0.0469 -0.0712,0.0736 -0.0689,0.0445 -0.0677,0.0453 0.0404,0.0207 0.0615,-0.0149 0.16478,-0.0335 0.2297,-0.0432 0.0801,-0.0134 0.11291,-0.0307 0.10185,-0.0581 -0.0102,-0.0237 0.0141,-0.0469 0.0564,-0.0577 0.10981,-0.0286 0.28087,-0.0224 0.28087,0.01 0,0.0372 -0.0978,0.0739 -0.17544,0.0662 -0.0539,-0.009 -0.0549,-4.9e-4 -0.017,0.0256 0.0404,0.0262 0.0406,0.0303 0.005,0.0303 -0.0251,2.2e-4 -0.0372,0.01 -0.0281,0.0181 0.0102,0.01 0.0769,-0.0102 0.1478,-0.0444 0.0711,-0.0335 0.20184,-0.0772 0.29007,-0.0944 0.10875,-0.0213 0.16047,-0.0468 0.16047,-0.0785 0,-0.0413 0.0512,-0.0427 0.39059,-0.0272 0.21493,0.0102 0.53916,0.042 0.72054,0.0702 0.32979,0.0513 0.32981,0.0513 0.45269,-0.017 0.14743,-0.0793 0.38458,-0.0901 0.44688,-0.0187 0.0221,0.0266 0.0855,0.0682 0.13943,0.0946 0.0881,0.0418 0.0933,0.0422 0.0559,4.8e-4 -0.0704,-0.0795 -5.1e-4,-0.0776 0.27201,0.01 0.8787,0.27675 1.59503,0.76973 2.12654,1.46343 0.12604,0.16456 0.13373,0.23851 0.015,0.13844 l -0.0681,-0.0568 0.0528,0.096 c 0.0298,0.0537 0.053,0.11221 0.053,0.13182 0,0.0188 0.0844,0.16549 0.18779,0.32394 0.23279,0.35714 0.29787,0.47737 0.28223,0.52151 -0.0102,0.0181 -0.10979,-0.10685 -0.22911,-0.27948 -0.11933,-0.17261 -0.29596,-0.40524 -0.39246,-0.51688 -0.14404,-0.16671 -0.18179,-0.1952 -0.2112,-0.15954 -0.019,0.0238 -0.0674,0.0474 -0.10685,0.0537 l -0.0709,0.01 0.07,0.12964 c 0.0394,0.0711 0.0757,0.11514 0.0812,0.0976 0.0331,-0.0947 0.18982,0.0301 0.26088,0.20784 0.0222,0.057 0.0841,0.1766 0.13611,0.26417 0.0525,0.0881 0.0879,0.16539 0.0797,0.17287 -0.0102,0.01 -0.0554,-0.0176 -0.10499,-0.0536 l -0.0908,-0.0667 0.0621,0.0996 c 0.0331,0.054 0.0912,0.12191 0.12629,0.14904 0.0433,0.0331 0.0664,0.0878 0.0676,0.17057 0.007,0.15357 0.0972,0.33502 0.14805,0.2872 0.0793,-0.0746 0.0954,-0.029 0.0759,0.2161 -0.0154,0.17985 -0.0102,0.29836 0.0288,0.42416 0.054,0.1911 0.0423,0.23817 -0.0352,0.14892 -0.0494,-0.0564 -0.0503,-0.0561 -0.0283,0.004 0.0466,0.12633 0.0822,0.31525 0.0724,0.38943 -0.0182,0.13838 -0.0736,0.0806 -0.0922,-0.0964 l -0.0182,-0.17307 -0.0102,0.18411 c -0.005,0.1013 -0.0292,0.29704 -0.0556,0.43495 -0.0292,0.13937 -0.0426,0.30804 -0.0314,0.37976 0.0185,0.13487 0.0102,0.14011 -0.11415,0.0426 -0.0486,-0.04 -0.0563,-0.0306 -0.0911,0.0859 -0.0292,0.0985 -0.0289,0.15448 0.002,0.2369 0.02,0.0591 0.0319,0.13999 0.0277,0.17906 -0.0147,0.09 -0.0911,0.11823 -0.0911,0.0324 0,-0.10687 -0.0429,-0.0686 -0.17535,0.15436 -0.35686,0.60271 -0.92151,1.06917 -1.56047,1.28914 -0.37679,0.12973 -0.62948,0.17784 -1.05433,0.2007 l -0.38261,0.0198 0.18903,0.0542 c 0.15247,0.0432 0.24192,0.0515 0.46235,0.0334 0.28874,-0.0211 0.62775,-0.0806 0.78146,-0.13582 0.0615,-0.0213 0.10279,-0.0223 0.12403,-0.006 0.0508,0.0464 -0.39407,0.23193 -0.65776,0.27378 -0.44855,0.0711 -1.04894,-0.01 -1.57896,-0.20255 -0.35962,-0.13358 -0.89324,-0.48138 -0.81148,-0.52888 0.0163,-0.01 0.11703,0.0368 0.22562,0.10104 0.13876,0.0823 0.19744,0.1043 0.19744,0.0735 0,-0.0581 0.0195,-0.0549 0.13081,0.0178 0.0996,0.0661 0.40585,0.19057 0.62652,0.25327 0.24048,0.0682 0.14723,-0.0152 -0.17541,-0.15597 -1.02008,-0.44733 -1.44355,-0.89475 -1.65459,-1.74815 -0.078,-0.31294 0.0102,-0.99899 0.14666,-1.21385 0.0352,-0.0545 0.0659,-0.12139 0.0659,-0.14878 0,-0.11886 0.21068,-0.4329 0.4269,-0.63634 0.38106,-0.35835 0.77713,-0.50712 1.29142,-0.48496 0.24859,0.01 0.35471,0.0302 0.56159,0.10874 0.23461,0.0884 0.53015,0.27189 0.43967,0.27381 -0.0206,3.9e-4 -0.11459,-0.0298 -0.20733,-0.0658 -0.14097,-0.0547 -0.23132,-0.0661 -0.55115,-0.0669 -0.44923,-0.003 -0.66887,0.0577 -0.98857,0.2699 -0.45326,0.3 -0.70533,0.64551 -0.79462,1.08925 -0.0592,0.29771 -0.062,0.38025 -0.016,0.6756 0.0278,0.17015 0.0452,0.22011 0.0794,0.20795 0.0294,-0.01 0.0431,0.009 0.0431,0.0418 0,0.10548 0.24397,0.53338 0.41325,0.72465 0.40724,0.46034 1.06617,0.75415 1.69127,0.75415 0.32448,0 0.58677,-0.0579 0.82817,-0.18493 0.0969,-0.0515 0.21933,-0.11282 0.27194,-0.1379 0.18567,-0.0891 0.30083,-0.18961 0.43546,-0.38226 0.0752,-0.1071 0.15628,-0.1947 0.18086,-0.1947 0.0361,0 0.034,0.0163 -0.0102,0.0824 -0.14232,0.22095 0.19174,-0.1808 0.36469,-0.43865 l 0.19371,-0.28874 -0.0204,-0.18969 c -0.0193,-0.18229 -0.0178,-0.19335 0.0757,-0.28494 0.0897,-0.0887 0.0973,-0.11427 0.10764,-0.34986 0.0102,-0.21095 0.005,-0.25476 -0.0367,-0.25499 -0.0369,-2.1e-4 -0.0534,-0.0547 -0.068,-0.24027 -0.0202,-0.24409 -0.2323,-1.06566 -0.2815,-1.09427 -0.0155,-0.01 -0.0554,-0.0881 -0.0917,-0.17552 -0.11985,-0.29674 -0.33007,-0.58202 -0.65786,-0.89285 -0.47167,-0.44722 -1.06581,-0.79257 -1.62701,-0.9457 -0.47739,-0.13025 -1.28802,-0.0828 -1.86539,0.10878 -0.28184,0.0935 -0.55945,0.21754 -0.60633,0.27065 -0.0205,0.0242 -0.0527,0.036 -0.068,0.0273 -0.0181,-0.01 -0.0127,-0.0376 0.0106,-0.0648 0.10636,-0.12058 -0.24664,0.10011 -0.47386,0.2962 -0.13738,0.11852 -0.2548,0.21917 -0.26092,0.22359 -0.0102,0.008 0.0196,2.3e-4 0.0589,-0.01 0.065,-0.0168 0.0674,-0.0114 0.0313,0.0506 -0.0217,0.0402 -0.13934,0.11039 -0.28262,0.17156 -0.24073,0.10268 -0.39646,0.21559 -0.52021,0.37709 -0.0497,0.0651 -0.0529,0.0783 -0.0139,0.065 0.0283,-0.01 0.0506,-0.007 0.0506,0.0145 0,0.086 -0.0824,0.18129 -0.2053,0.23735 -0.27148,0.12408 -0.74858,0.78692 -1.00413,1.39526 -0.11388,0.27108 -0.11201,0.26165 -0.0509,0.26165 0.0662,0 0.0604,0.0696 -0.0299,0.44419 -0.13054,0.54552 -0.13067,0.52803 0.0108,1.29547 0.17326,0.93501 0.27452,1.24738 0.46697,1.44094 0.044,0.0447 0.0894,0.14192 0.1086,0.239 0.0226,0.11584 0.0629,0.19223 0.13597,0.26504 0.0671,0.0659 0.0897,0.10699 0.064,0.11585 -0.0511,0.0178 0.10743,0.23872 0.25145,0.35275 0.0721,0.0568 0.1262,0.0771 0.18438,0.0662 0.12744,-0.0222 0.25724,0.0455 0.45672,0.24303 0.20734,0.20463 0.22809,0.25961 0.0912,0.24071 -0.0888,-0.0124 -0.0908,-0.01 -0.0462,0.0536 0.0257,0.0359 0.11739,0.12239 0.20532,0.19209 0.12343,0.0979 0.15522,0.14024 0.13968,0.18614 -0.0215,0.0659 0.0422,0.1277 0.18501,0.17941 0.0895,0.031 0.11795,0.10115 0.0515,0.1222 -0.0192,0.01 0.10528,0.12789 0.27905,0.27012 0.19578,0.16017 0.32739,0.24804 0.34621,0.23083 0.0501,-0.0446 0.11306,-0.0303 0.11422,0.0255 0.002,0.0619 0.0568,0.12596 0.26001,0.29804 0.1279,0.10873 0.15985,0.12248 0.23826,0.10218 0.0714,-0.0183 0.11703,-0.01 0.21818,0.0571 0.20175,0.12832 0.32409,0.17956 0.42889,0.17956 0.10306,0 0.11774,0.0288 0.0646,0.12193 -0.0294,0.0505 -0.0215,0.0574 0.0428,0.0574 0.0424,0 0.15928,0.0277 0.26121,0.06 0.23175,0.0753 0.32844,0.0796 0.27041,0.0151 -0.086,-0.0973 0.009,-0.0703 0.31182,0.0909 0.42849,0.22603 0.64522,0.25181 1.49847,0.17851 0.12629,-0.0101 0.1674,-0.008 0.1674,0.0266 0,0.027 -0.10966,0.0656 -0.31093,0.11087 -0.26464,0.0604 -0.40584,0.0719 -0.94866,0.0785 -0.42772,0.009 -0.71991,-0.01 -0.88715,-0.0326 z m -0.43617,-4.49633 c 0,-0.01 -0.0402,-0.0333 -0.0879,-0.0622 l -0.0879,-0.0508 0.0755,0.0621 c 0.0734,0.0605 0.10014,0.0739 0.10014,0.051 z m 4.39035,-3.14344 c -0.0102,-0.0239 -0.0179,-0.0174 -0.0185,0.0179 -0.003,0.0306 0.0102,0.0499 0.018,0.0402 0.0102,-0.01 0.0113,-0.0357 0.004,-0.0568 z m -7.23629,-3.14571 c 0.0404,-0.0472 0.0392,-0.0492 -0.0119,-0.0108 -0.0306,0.0219 -0.0552,0.0454 -0.0552,0.0534 0,0.0253 0.0271,0.01 0.0677,-0.0419 z m 0.36259,-0.27747 c 0.0313,-0.0325 0.0512,-0.06 0.0424,-0.06 -0.0102,0 -0.0424,0.0279 -0.0737,0.06 -0.0314,0.0323 -0.0512,0.06 -0.0425,0.06 0.0102,0 0.0426,-0.0278 0.0737,-0.06 z m 0.40142,-0.21084 c 0.10514,-0.0324 0.16492,-0.0402 0.187,-0.0181 0.0214,0.0202 0.10438,0.01 0.25751,-0.0395 0.12371,-0.0388 0.21928,-0.0748 0.21239,-0.081 -0.0102,-0.01 -0.10886,0.0184 -0.22639,0.0544 -0.1615,0.0514 -0.21959,0.0577 -0.23751,0.0301 -0.0308,-0.0456 -0.32061,0.0443 -0.44541,0.14008 l -0.0851,0.0655 0.0917,-0.0527 c 0.0512,-0.0295 0.16115,-0.0741 0.24603,-0.10089 z m 0.91927,-0.0768 c 0.0922,-0.0267 0.16287,-0.0532 0.15618,-0.058 -0.016,-0.0149 -0.34479,0.0752 -0.34479,0.0928 0,0.018 0.005,0.018 0.18861,-0.0336 z m 0.52881,-0.16346 0.12759,-0.0213 -0.11163,-0.005 c -0.0615,-0.003 -0.14745,0.0179 -0.19126,0.0423 -0.0523,0.0299 -0.0564,0.0393 -0.017,0.0251 0.0344,-0.0116 0.12115,-0.0305 0.1913,-0.0424 z m 0.25328,-0.056 c 0.0102,-0.0157 -0.0102,-0.0192 -0.0452,-0.0111 -0.0749,0.0178 -0.0837,0.0393 -0.0183,0.0393 0.0261,0 0.0547,-0.0125 0.0642,-0.0281 z m 1.02958,0.01 c -0.0102,-0.01 -0.039,-0.0102 -0.061,-0.004 -0.0262,0.01 -0.0183,0.0176 0.0187,0.018 0.0328,0.002 0.0531,-0.01 0.0424,-0.0168 z m -0.19067,-0.0317 c -0.0306,-0.01 -0.0804,-0.01 -0.11163,0 -0.0306,0.01 -0.0102,0.0144 0.0552,0.0144 0.0615,0 0.0867,-0.01 0.0555,-0.0144 z m -0.318,-0.0299 c -0.0662,-0.01 -0.1801,-0.01 -0.25515,-1.8e-4 -0.0753,0.01 -0.021,0.0113 0.11874,0.0115 0.14034,9e-5 0.20169,-0.009 0.13641,-0.0111 z m -0.41606,-0.0273 c -0.0102,-0.01 -0.0387,-0.0104 -0.061,-0.004 -0.0262,0.01 -0.0182,0.0179 0.0184,0.0179 0.0328,0.002 0.0533,-0.01 0.0424,-0.0167 z m -0.21587,7.20931 c -0.3248,-0.21894 -0.44514,-0.33215 -0.44514,-0.41885 0,-0.0451 0.0104,-0.0836 0.0246,-0.0836 0.045,0 0.58898,0.53316 0.57704,0.56665 -0.0102,0.0185 -0.072,-0.01 -0.15649,-0.0649 z m -0.16713,-0.55583 c -0.16869,-0.16034 -0.22274,-0.24658 -0.15453,-0.24658 0.042,0 0.35484,0.33806 0.35484,0.38217 0,0.02 -0.007,0.0384 -0.0102,0.0384 -0.009,0 -0.0913,-0.078 -0.19128,-0.17328 z m 1.86642,-0.65639 c -0.0894,-0.0332 -0.0328,-0.0965 0.11164,-0.12567 0.0831,-0.0175 0.21567,-0.057 0.29416,-0.0905 0.0789,-0.0322 0.14839,-0.0541 0.15531,-0.0485 0.0102,0.01 -0.0299,0.0736 -0.0792,0.1481 -0.0913,0.13546 -0.0924,0.13634 -0.26692,0.13405 -0.0965,-0.002 -0.19333,-0.01 -0.21524,-0.0178 z m 0.95662,-0.67095 c -0.0863,-0.0317 -0.0901,-0.0884 -0.0183,-0.27646 0.062,-0.16198 0.12577,-0.19397 0.0907,-0.0443 -0.0133,0.0535 -0.0305,0.13125 -0.0387,0.17247 l -0.0157,0.0753 0.0643,-0.068 c 0.0385,-0.0413 0.0723,-0.13524 0.0855,-0.23214 0.0117,-0.0902 0.0337,-0.15644 0.0507,-0.14742 0.0402,0.0222 0.0343,0.26007 -0.0102,0.41954 -0.0378,0.13924 -0.0706,0.15548 -0.21145,0.10229 z m -7.54593,-0.37643 c -0.0102,-0.0267 -0.0185,-0.12845 -0.0185,-0.22747 0,-0.13064 0.0102,-0.17652 0.0406,-0.16762 0.0469,0.0157 0.0757,0.44254 0.0297,0.44254 -0.0176,0 -0.0393,-0.0207 -0.0495,-0.047 z m 7.67119,-0.70151 c -0.05,-0.0634 -0.0655,-0.1128 -0.0514,-0.16548 0.0299,-0.10818 0.10438,-0.0926 0.16007,0.0317 0.0868,0.19495 0.0108,0.28642 -0.1093,0.13277 z m -7.67776,-0.47611 c -0.004,-0.1701 -3e-5,-0.17533 0.0799,-0.17249 0.0676,0.004 0.0841,0.0188 0.0917,0.0944 0.0102,0.0851 -0.0897,0.25337 -0.14761,0.25337 -0.0119,0 -0.0224,-0.0785 -0.0244,-0.17542 z m 8.26562,-3.68724 c 0.008,-0.26846 0.0533,-0.3594 0.0904,-0.17153 0.027,0.13098 -0.0102,0.36227 -0.0571,0.40185 -0.0284,0.0204 -0.0352,-0.0377 -0.0312,-0.23032 z m -4.18993,-0.1608 c 0.0133,-0.0363 0.45267,-0.20574 0.53379,-0.20574 0.0951,0 -0.076,0.10979 -0.27292,0.17542 -0.21998,0.0733 -0.2785,0.0791 -0.26087,0.03 z"
       class="ColorScheme-Text"
       id="path7225-4-2-5" />
    <path
       inkscape:connector-curvature="0"
       id="fill-3-0"
       d="m 390.57142,490.43808 2e-5,22.71983 c -0.0461,0.49262 -0.11376,0.78207 -0.318,1.07328 l 24.51303,-10e-6 c 0.62105,0 0.98756,-0.17715 0.98756,-1.71864 v -8.28136 l -2,-4 v -7 -2 c 0,-0.57519 -1.22689,-2 -2,-2 h -20.19948 c -0.48934,0 -0.98311,0 -0.98313,1.2069 z"
       style="color:#1e92ff;opacity:0.4;fill:url(#linearGradient17-6);fill-opacity:0.4;fill-rule:nonzero;stroke:none;stroke-width:5.29537"
       sodipodi:nodetypes="cccccccccccc" />
    <path
       d="m 414.41758,499.505 v -7.707 c 0,-0.796 -0.34031,-1.559 -0.94662,-2.121 -0.60523,-0.563 -1.42692,-0.879 -2.28415,-0.879 h -9.15385 v 0.028 L 401.7702,488.6 c -0.5977,-0.516 -1.38277,-0.802 -2.198,-0.802 h -7.77001 c -1.78446,0 -3.23076,1.343 -3.23076,3 v 22 c 0,0.796 0.3403,1.559 0.94661,2.121 0.60523,0.563 1.42692,0.879 2.28415,0.879 h 21.53847 c 0.85723,0 1.67892,-0.316 2.28415,-0.879 0.60631,-0.562 0.94662,-1.325 0.94662,-2.121 V 502.67 c 0,-0.834 -0.3737,-1.631 -1.03277,-2.198 z m 0.15385,3.165 v 10.128 c 0,0.265 -0.26693,0.52 -0.46939,0.707 -0.20138,0.188 -0.476,0.293 -0.76138,0.293 h -21.53847 c -0.28538,0 -0.56,-0.105 -0.76138,-0.293 -0.20246,-0.187 -0.46938,-0.442 -0.46938,-0.707 v -22 c 0,-0.552 0.6363,-1 1.23077,-1 h 7.77 c 0.27138,0 0.53307,0.095 0.7323,0.267 l 13.76846,11.872 c 0.2197,0.19 0.49847,0.455 0.49847,0.733 z m -19,-8.872 z m 8.74784,-3 7.94446,6.85 v -5.85 c 0,-0.265 -0.11307,-0.52 -0.31553,-0.707 -0.20139,-0.188 -0.476,-0.293 -0.76139,-0.293 z m -10.36323,3 h 5.38462 c 0.59446,0 1.07692,-0.448 1.07692,-1 0,-0.552 -0.48246,-1 -1.07692,-1 h -5.38462 c -0.59446,0 -1.07692,0.448 -1.07692,1 0,0.552 0.48246,1 1.07692,1 z"
       id="path1-0-1"
       style="fill:url(#linearGradient2-3);stroke-width:1.03775"
       sodipodi:nodetypes="cscscccsssscsscssccsscsscssssccscscscccccscscsssssss" />
  </g>
</svg>
