<?xml version="1.0" encoding="UTF-8" standalone="no"?>
<svg
   width="36"
   version="1.1"
   height="36"
   id="svg17"
   sodipodi:docname="folder-design.svg"
   inkscape:version="1.3.1 (91b66b0783, 2023-11-16)"
   xmlns:inkscape="http://www.inkscape.org/namespaces/inkscape"
   xmlns:sodipodi="http://sodipodi.sourceforge.net/DTD/sodipodi-0.dtd"
   xmlns:xlink="http://www.w3.org/1999/xlink"
   xmlns="http://www.w3.org/2000/svg"
   xmlns:svg="http://www.w3.org/2000/svg"
   xmlns:rdf="http://www.w3.org/1999/02/22-rdf-syntax-ns#"
   xmlns:cc="http://creativecommons.org/ns#"
   xmlns:dc="http://purl.org/dc/elements/1.1/">
  <sodipodi:namedview
     pagecolor="#ffffff"
     bordercolor="#666666"
     borderopacity="1"
     objecttolerance="10"
     gridtolerance="10"
     guidetolerance="10"
     inkscape:pageopacity="0"
     inkscape:pageshadow="2"
     inkscape:window-width="1920"
     inkscape:window-height="994"
     id="namedview19"
     showgrid="true"
     inkscape:zoom="4.6126114"
     inkscape:cx="59.077164"
     inkscape:cy="17.885747"
     inkscape:window-x="0"
     inkscape:window-y="0"
     inkscape:window-maximized="1"
     inkscape:current-layer="layer1"
     inkscape:document-rotation="0"
     inkscape:showpageshadow="2"
     inkscape:pagecheckerboard="0"
     inkscape:deskcolor="#d1d1d1">
    <inkscape:grid
       type="xygrid"
       id="grid908"
       originx="0"
       originy="0"
       spacingy="1"
       spacingx="1"
       units="px"
       visible="true" />
  </sodipodi:namedview>
  <defs
     id="defs5455">
    <linearGradient
       id="linearGradient1"
       inkscape:collect="always">
      <stop
         style="stop-color:#ff80e5;stop-opacity:1"
         offset="0"
         id="stop7" />
      <stop
         style="stop-color:#ffb380;stop-opacity:1"
         offset="0.48888862"
         id="stop9" />
      <stop
         style="stop-color:#b380ff;stop-opacity:1"
         offset="1"
         id="stop8" />
    </linearGradient>
    <clipPath
       clipPathUnits="userSpaceOnUse"
       id="clipPath79425-9-5-3">
      <rect
         style="opacity:0.5;fill:#000000;fill-opacity:1;stroke:none;stroke-width:0.855869;stroke-dasharray:none;stroke-opacity:1;paint-order:stroke fill markers"
         id="rect79427-1-9-6"
         width="26.417742"
         height="29.037542"
         x="-16.227774"
         y="-6.4845476" />
    </clipPath>
    <clipPath
       clipPathUnits="userSpaceOnUse"
       id="clipPath79425-9-5-5">
      <rect
         style="opacity:0.5;fill:#000000;fill-opacity:1;stroke:none;stroke-width:0.855869;stroke-dasharray:none;stroke-opacity:1;paint-order:stroke fill markers"
         id="rect79427-1-9-62"
         width="26.417742"
         height="29.037542"
         x="-16.227774"
         y="-6.4845476" />
    </clipPath>
    <linearGradient
       id="New_Gradient_Swatch_3"
       gradientUnits="userSpaceOnUse"
       x1="256"
       x2="256"
       y1="56.152"
       y2="455.849"
       gradientTransform="matrix(0.12406948,0,0,0.11508628,384.80964,486.3357)">
      <stop
         offset="0"
         stop-color="#5ee4ff"
         id="stop1"
         style="stop-color:#b380ff;stop-opacity:1" />
      <stop
         offset=".094"
         stop-color="#5ad9f9"
         id="stop2"
         style="stop-color:#9955ff;stop-opacity:1" />
      <stop
         offset=".26"
         stop-color="#4ebbea"
         id="stop3"
         style="stop-color:#6600ff;stop-opacity:1" />
      <stop
         offset=".479"
         stop-color="#3a8bd1"
         id="stop4"
         style="stop-opacity:1;stop-color:#8d5fd3" />
      <stop
         offset=".739"
         stop-color="#1f49ae"
         id="stop5"
         style="stop-color:#ffb380;stop-opacity:1" />
      <stop
         offset="1"
         stop-color="#020088"
         id="stop6"
         style="stop-color:#ff66ff;stop-opacity:1;" />
    </linearGradient>
    <linearGradient
       inkscape:collect="always"
       xlink:href="#linearGradient1"
       id="linearGradient3"
       gradientUnits="userSpaceOnUse"
       gradientTransform="matrix(0.74239033,0,0,0.66617191,83.77584,156.18783)"
       x1="428.07144"
       y1="524.8045"
       x2="441.54102"
       y2="524.8045" />
    <linearGradient
       inkscape:collect="always"
       xlink:href="#linearGradient1"
       id="linearGradient17-0"
       x1="392.57144"
       y1="536.79797"
       x2="444.57144"
       y2="507.798"
       gradientUnits="userSpaceOnUse"
       gradientTransform="matrix(0.4937764,0,0,0.86206901,196.23515,51.474265)" />
    <linearGradient
       inkscape:collect="always"
       xlink:href="#linearGradient1"
       id="linearGradient2"
       gradientUnits="userSpaceOnUse"
       x1="147"
       y1="462"
       x2="173"
       y2="434"
       gradientTransform="matrix(1.0769231,0,0,1,230.26373,53.798)" />
  </defs>
  <metadata
     id="metadata5458">
    <rdf:RDF>
      <cc:Work
         rdf:about="">
        <dc:format>image/svg+xml</dc:format>
        <dc:type
           rdf:resource="http://purl.org/dc/dcmitype/StillImage" />
      </cc:Work>
    </rdf:RDF>
  </metadata>
  <g
     inkscape:label="Capa 1"
     inkscape:groupmode="layer"
     id="layer1"
     transform="translate(-384.57143,-483.798)">
    <path
       style="color:#232629;opacity:1;fill:url(#linearGradient3);fill-opacity:1;stroke:none;stroke-width:0.441163"
       d="m 406.55719,499.798 c -0.23592,0 -0.42935,0.17101 -0.42935,0.38283 v 0.35004 c -0.76069,0.17528 -1.30793,0.78094 -1.30793,1.5084 0,0.50943 0.27112,0.96286 0.69403,1.24798 0.0465,0.0476 0.0732,0.10826 0.0732,0.1757 0,0.0181 3e-5,0.0394 -0.006,0.0566 l -1.88009,3.57593 h -0.77758 c -0.12702,0 -0.2312,0.0914 -0.2312,0.20561 v 0.002 c 0,0.11386 0.10371,0.20561 0.2312,0.20561 h 0.56119 l -1.45182,2.76123 c -0.0908,0.1751 -0.047,0.37764 0.0982,0.50866 l -0.55961,1.01941 0.88421,-0.85951 c 0.23454,0.0545 0.4858,-0.0448 0.59201,-0.24743 l 1.67382,-3.18238 h 1.47079 v 0.27348 c 0,0.17396 0.15781,0.3143 0.35292,0.3143 h 0.0197 c 0.19523,0 0.3539,-0.14034 0.3539,-0.3143 v -0.27348 h 1.50453 l 1.67281,3.18237 c 0.10482,0.20345 0.3579,0.30241 0.59122,0.24744 l 0.88406,0.8595 -0.55764,-1.0194 c 0.14188,-0.13102 0.18799,-0.33231 0.0972,-0.50866 l -1.45159,-2.76125 h 0.52669 c 0.12812,0 0.2309,-0.0914 0.2309,-0.20559 0,-0.11383 -0.10234,-0.20532 -0.2309,-0.20654 h -0.74321 l -1.87924,-3.57581 c -0.006,-0.0181 -0.006,-0.0387 -0.006,-0.0565 0,-0.0662 0.0283,-0.12771 0.0717,-0.17543 0.4231,-0.28536 0.69596,-0.73861 0.69596,-1.24802 0,-0.73766 -0.57321,-1.3505 -1.34262,-1.51653 v -0.34202 c 0,-0.21189 -0.19111,-0.3828 -0.4285,-0.3828 z m 0.40857,1.412 c 0.36177,0.13661 0.61571,0.45613 0.61571,0.82927 0,0.49731 -0.45021,0.90045 -1.00699,0.90045 -0.55936,0 -1.00695,-0.40314 -1.00695,-0.90045 0,-0.36101 0.23922,-0.67024 0.58408,-0.81379 0.0504,0.15967 0.2093,0.27935 0.40558,0.27935 0.20148,0 0.36311,-0.12694 0.40857,-0.29483 z m -0.39937,2.98989 h 0.011 0.011 c 0.056,0 0.10222,0.0217 0.13283,0.0569 l 1.49264,2.83884 h -1.28819 v -0.33228 c 0,-0.1751 -0.1587,-0.31577 -0.35385,-0.31577 h -0.0197 c -0.19512,0 -0.35294,0.1419 -0.35294,0.31577 v 0.33228 h -1.25428 l 1.49264,-2.83884 c 0.0327,-0.0349 0.0788,-0.0569 0.13371,-0.0569 z"
       class="ColorScheme-Text"
       id="path8133-5-8-2" />
    <path
       inkscape:connector-curvature="0"
       id="fill-3-5"
       d="m 390.57142,490.43808 2e-5,22.71983 c -0.0461,0.49262 -0.11376,0.78207 -0.318,1.07328 l 24.51303,-10e-6 c 0.62105,0 0.98756,-0.17715 0.98756,-1.71864 v -8.28136 l -2,-4 v -7 -2 c 0,-0.57519 -1.22689,-2 -2,-2 h -20.19948 c -0.48934,0 -0.98311,0 -0.98313,1.2069 z"
       style="color:#1e92ff;opacity:0.4;fill:url(#linearGradient17-0);fill-opacity:0.4;fill-rule:nonzero;stroke:none;stroke-width:5.29537"
       sodipodi:nodetypes="cccccccccccc" />
    <path
       d="m 414.41758,499.505 v -7.707 c 0,-0.796 -0.34031,-1.559 -0.94662,-2.121 -0.60523,-0.563 -1.42692,-0.879 -2.28415,-0.879 h -9.15385 v 0.028 L 401.7702,488.6 c -0.5977,-0.516 -1.38277,-0.802 -2.198,-0.802 h -7.77001 c -1.78446,0 -3.23076,1.343 -3.23076,3 v 22 c 0,0.796 0.3403,1.559 0.94661,2.121 0.60523,0.563 1.42692,0.879 2.28415,0.879 h 21.53847 c 0.85723,0 1.67892,-0.316 2.28415,-0.879 0.60631,-0.562 0.94662,-1.325 0.94662,-2.121 V 502.67 c 0,-0.834 -0.3737,-1.631 -1.03277,-2.198 z m 0.15385,3.165 v 10.128 c 0,0.265 -0.26693,0.52 -0.46939,0.707 -0.20138,0.188 -0.476,0.293 -0.76138,0.293 h -21.53847 c -0.28538,0 -0.56,-0.105 -0.76138,-0.293 -0.20246,-0.187 -0.46938,-0.442 -0.46938,-0.707 v -22 c 0,-0.552 0.6363,-1 1.23077,-1 h 7.77 c 0.27138,0 0.53307,0.095 0.7323,0.267 l 13.76846,11.872 c 0.2197,0.19 0.49847,0.455 0.49847,0.733 z m -19,-8.872 z m 8.74784,-3 7.94446,6.85 v -5.85 c 0,-0.265 -0.11307,-0.52 -0.31553,-0.707 -0.20139,-0.188 -0.476,-0.293 -0.76139,-0.293 z m -10.36323,3 h 5.38462 c 0.59446,0 1.07692,-0.448 1.07692,-1 0,-0.552 -0.48246,-1 -1.07692,-1 h -5.38462 c -0.59446,0 -1.07692,0.448 -1.07692,1 0,0.552 0.48246,1 1.07692,1 z"
       id="path1-0-1"
       style="fill:url(#linearGradient2);stroke-width:1.03775"
       sodipodi:nodetypes="cscscccsssscsscssccsscsscssssccscscscccccscscsssssss" />
  </g>
</svg>
