<?xml version="1.0" encoding="UTF-8" standalone="no"?>
<svg
   width="36"
   version="1.1"
   height="36"
   id="svg16"
   sodipodi:docname="folder-orange.svg"
   inkscape:version="1.3.1 (91b66b0783, 2023-11-16)"
   xmlns:inkscape="http://www.inkscape.org/namespaces/inkscape"
   xmlns:sodipodi="http://sodipodi.sourceforge.net/DTD/sodipodi-0.dtd"
   xmlns:xlink="http://www.w3.org/1999/xlink"
   xmlns="http://www.w3.org/2000/svg"
   xmlns:svg="http://www.w3.org/2000/svg"
   xmlns:rdf="http://www.w3.org/1999/02/22-rdf-syntax-ns#"
   xmlns:cc="http://creativecommons.org/ns#"
   xmlns:dc="http://purl.org/dc/elements/1.1/">
  <sodipodi:namedview
     pagecolor="#ffffff"
     bordercolor="#666666"
     borderopacity="1"
     objecttolerance="10"
     gridtolerance="10"
     guidetolerance="10"
     inkscape:pageopacity="0"
     inkscape:pageshadow="2"
     inkscape:window-width="1920"
     inkscape:window-height="994"
     id="namedview18"
     showgrid="false"
     inkscape:zoom="9.8623729"
     inkscape:cx="16.273974"
     inkscape:cy="11.812573"
     inkscape:window-x="0"
     inkscape:window-y="0"
     inkscape:window-maximized="1"
     inkscape:current-layer="layer1-2"
     inkscape:document-rotation="0"
     inkscape:showpageshadow="2"
     inkscape:pagecheckerboard="0"
     inkscape:deskcolor="#d1d1d1" />
  <defs
     id="defs5455">
    <linearGradient
       id="linearGradient4172-0">
      <stop
         style="stop-color:#f89406"
         id="stop4174-4" />
      <stop
         offset="1"
         style="stop-color:#faa938"
         id="stop4176-5" />
    </linearGradient>
    <clipPath
       clipPathUnits="userSpaceOnUse"
       id="clipPath79425-9-5-3">
      <rect
         style="opacity:0.5;fill:#000000;fill-opacity:1;stroke:none;stroke-width:0.855869;stroke-dasharray:none;stroke-opacity:1;paint-order:stroke fill markers"
         id="rect79427-1-9-6"
         width="26.417742"
         height="29.037542"
         x="-16.227774"
         y="-6.4845476" />
    </clipPath>
    <clipPath
       clipPathUnits="userSpaceOnUse"
       id="clipPath79425-9-5-5">
      <rect
         style="opacity:0.5;fill:#000000;fill-opacity:1;stroke:none;stroke-width:0.855869;stroke-dasharray:none;stroke-opacity:1;paint-order:stroke fill markers"
         id="rect79427-1-9-62"
         width="26.417742"
         height="29.037542"
         x="-16.227774"
         y="-6.4845476" />
    </clipPath>
    <linearGradient
       id="linearGradient12"
       inkscape:collect="always">
      <stop
         style="stop-color:#ffb380;stop-opacity:1"
         offset="0"
         id="stop10" />
      <stop
         style="stop-color:#d4aa00;stop-opacity:1"
         offset="0.54358137"
         id="stop11" />
      <stop
         style="stop-color:#ffb380;stop-opacity:1"
         offset="1"
         id="stop12" />
    </linearGradient>
    <linearGradient
       inkscape:collect="always"
       xlink:href="#linearGradient4172-0"
       id="linearGradient17-2"
       x1="392.57144"
       y1="536.79797"
       x2="444.57144"
       y2="507.798"
       gradientUnits="userSpaceOnUse"
       gradientTransform="matrix(0.4937764,0,0,0.86206901,196.23515,51.474285)" />
    <linearGradient
       inkscape:collect="always"
       xlink:href="#linearGradient12"
       id="linearGradient2"
       gradientUnits="userSpaceOnUse"
       x1="147"
       y1="462"
       x2="173"
       y2="434"
       gradientTransform="matrix(1.0769231,0,0,1,230.26373,53.798025)" />
  </defs>
  <metadata
     id="metadata5458">
    <rdf:RDF>
      <cc:Work
         rdf:about="">
        <dc:format>image/svg+xml</dc:format>
        <dc:type
           rdf:resource="http://purl.org/dc/dcmitype/StillImage" />
      </cc:Work>
    </rdf:RDF>
  </metadata>
  <g
     inkscape:label="Capa 1"
     inkscape:groupmode="layer"
     id="layer1-2"
     transform="translate(-384.57143,-483.79801)">
    <path
       inkscape:connector-curvature="0"
       id="fill-3-9"
       d="m 390.57141,490.4381 2e-5,22.71983 c -0.0461,0.49262 -0.11376,0.78207 -0.31799,1.07328 l 24.51304,-1e-5 c 0.62105,0 0.98755,-0.17715 0.98755,-1.71864 v -8.28136 l -2,-4 v -7 -2 c 0,-0.57519 -1.2269,-2 -2,-2 h -20.19948 c -0.48935,0 -0.98312,0 -0.98314,1.2069 z"
       style="color:#1e92ff;opacity:0.4;fill:url(#linearGradient17-2);fill-opacity:0.4;fill-rule:nonzero;stroke:none;stroke-width:5.29537"
       sodipodi:nodetypes="cccccccccccc" />
    <path
       d="m 414.41757,499.50502 v -7.707 c 0,-0.796 -0.3403,-1.55899 -0.94662,-2.12099 -0.60523,-0.563 -1.42692,-0.87901 -2.28415,-0.87901 h -9.15384 v 0.028 l -0.26277,-0.226 c -0.59769,-0.516 -1.38277,-0.80201 -2.19799,-0.80201 h -7.77002 c -1.78446,0 -3.23075,1.343 -3.23075,3 v 22 c 0,0.79601 0.34031,1.559 0.94662,2.121 0.60523,0.563 1.42692,0.879 2.28415,0.879 h 21.53847 c 0.85723,0 1.67892,-0.316 2.28415,-0.879 0.60631,-0.562 0.94662,-1.325 0.94662,-2.121 v -10.128 c 0,-0.834 -0.3737,-1.631 -1.03277,-2.198 z m 0.15385,3.165 v 10.128 c 0,0.265 -0.26693,0.52 -0.46939,0.707 -0.20137,0.188 -0.476,0.293 -0.76137,0.293 h -21.53848 c -0.28537,0 -0.56,-0.105 -0.76137,-0.293 -0.20245,-0.187 -0.46938,-0.442 -0.46938,-0.707 v -22 c 0,-0.552 0.63631,-1 1.23078,-1 h 7.76999 c 0.27139,0 0.53307,0.095 0.7323,0.26701 l 13.76846,11.87199 c 0.2197,0.19001 0.49847,0.45501 0.49846,0.733 z m -19,-8.872 z m 8.74784,-3 7.94446,6.85001 v -5.85001 c 0,-0.265 -0.11307,-0.51999 -0.31553,-0.707 -0.20139,-0.18799 -0.476,-0.293 -0.76139,-0.293 z m -10.36323,3 h 5.38462 c 0.59446,0 1.07692,-0.44799 1.07692,-1 0,-0.552 -0.48246,-1 -1.07692,-1 h -5.38462 c -0.59446,0 -1.07691,0.448 -1.07691,1 0,0.55201 0.48246,1 1.07691,1 z"
       id="path1-0-1"
       style="fill:url(#linearGradient2);stroke-width:1.03775"
       sodipodi:nodetypes="cscscccsssscsscssccsscsscssssccscscscccccscscsssssss" />
  </g>
</svg>
