<?xml version="1.0" encoding="UTF-8" standalone="no"?>
<svg
   id="svg2"
   height="36"
   version="1.1"
   width="36"
   sodipodi:docname="folder-unlocked.svg"
   inkscape:version="1.3.1 (91b66b0783, 2023-11-16)"
   xmlns:inkscape="http://www.inkscape.org/namespaces/inkscape"
   xmlns:sodipodi="http://sodipodi.sourceforge.net/DTD/sodipodi-0.dtd"
   xmlns:xlink="http://www.w3.org/1999/xlink"
   xmlns="http://www.w3.org/2000/svg"
   xmlns:svg="http://www.w3.org/2000/svg"
   xmlns:rdf="http://www.w3.org/1999/02/22-rdf-syntax-ns#"
   xmlns:cc="http://creativecommons.org/ns#"
   xmlns:dc="http://purl.org/dc/elements/1.1/">
  <sodipodi:namedview
     pagecolor="#ffffff"
     bordercolor="#666666"
     borderopacity="1"
     objecttolerance="10"
     gridtolerance="10"
     guidetolerance="10"
     inkscape:pageopacity="0"
     inkscape:pageshadow="2"
     inkscape:window-width="1920"
     inkscape:window-height="994"
     id="namedview18"
     showgrid="true"
     inkscape:zoom="13.876971"
     inkscape:cx="13.583656"
     inkscape:cy="22.951695"
     inkscape:window-x="0"
     inkscape:window-y="0"
     inkscape:window-maximized="1"
     inkscape:current-layer="svg2"
     inkscape:document-rotation="0"
     inkscape:showpageshadow="2"
     inkscape:pagecheckerboard="0"
     inkscape:deskcolor="#d1d1d1">
    <inkscape:grid
       type="xygrid"
       id="grid945"
       originx="0"
       originy="0"
       spacingy="1"
       spacingx="1"
       units="px"
       visible="true" />
  </sodipodi:namedview>
  <defs
     id="defs5455">
    <linearGradient
       gradientTransform="matrix(1,0,0,0.99967455,0,0.17645)"
       x2="0"
       gradientUnits="userSpaceOnUse"
       y2="499.78421"
       y1="541.79797"
       xlink:href="#linearGradient4172-5"
       id="linearGradient4178" />
    <linearGradient
       id="linearGradient4172-5">
      <stop
         id="stop4174-6"
         style="stop-color:#3daee9" />
      <stop
         id="stop4176-6"
         style="stop-color:#6cc1ef"
         offset="1" />
    </linearGradient>
    <linearGradient
       x2="0"
       gradientUnits="userSpaceOnUse"
       y2="8"
       y1="29"
       xlink:href="#linearGradient4172-5"
       id="linearGradient4342" />
    <clipPath
       clipPathUnits="userSpaceOnUse"
       id="clipPath79425-9-5-3">
      <rect
         style="opacity:0.5;fill:#000000;fill-opacity:1;stroke:none;stroke-width:0.855869;stroke-dasharray:none;stroke-opacity:1;paint-order:stroke fill markers"
         id="rect79427-1-9-6"
         width="26.417742"
         height="29.037542"
         x="-16.227774"
         y="-6.4845476" />
    </clipPath>
    <clipPath
       clipPathUnits="userSpaceOnUse"
       id="clipPath79425-9-5-5">
      <rect
         style="opacity:0.5;fill:#000000;fill-opacity:1;stroke:none;stroke-width:0.855869;stroke-dasharray:none;stroke-opacity:1;paint-order:stroke fill markers"
         id="rect79427-1-9-62"
         width="26.417742"
         height="29.037542"
         x="-16.227774"
         y="-6.4845476" />
    </clipPath>
    <linearGradient
       id="linearGradient12"
       inkscape:collect="always">
      <stop
         style="stop-color:#008080;stop-opacity:1"
         offset="0"
         id="stop10" />
      <stop
         style="stop-color:#00ccff;stop-opacity:1"
         offset="0.53372037"
         id="stop11" />
      <stop
         style="stop-color:#008080;stop-opacity:1"
         offset="1"
         id="stop12" />
    </linearGradient>
    <linearGradient
       inkscape:collect="always"
       xlink:href="#linearGradient12"
       id="linearGradient2"
       x1="37.799999"
       y1="39.099998"
       x2="52.200001"
       y2="39.099998"
       gradientUnits="userSpaceOnUse"
       gradientTransform="matrix(0.66666665,0,0,0.66666665,-7.700001,-4.0666668)" />
    <linearGradient
       inkscape:collect="always"
       xlink:href="#linearGradient12"
       id="linearGradient17-2"
       x1="392.57144"
       y1="536.79797"
       x2="444.57144"
       y2="507.798"
       gradientUnits="userSpaceOnUse"
       gradientTransform="matrix(0.4937764,0,0,0.86206901,-188.33628,-432.32373)" />
    <linearGradient
       inkscape:collect="always"
       xlink:href="#linearGradient12"
       id="linearGradient2-4"
       gradientUnits="userSpaceOnUse"
       x1="147"
       y1="462"
       x2="173"
       y2="434"
       gradientTransform="matrix(1.0769231,0,0,1,-154.3077,-430)" />
  </defs>
  <metadata
     id="metadata5458">
    <rdf:RDF>
      <cc:Work
         rdf:about="">
        <dc:format>image/svg+xml</dc:format>
        <dc:type
           rdf:resource="http://purl.org/dc/dcmitype/StillImage" />
      </cc:Work>
    </rdf:RDF>
  </metadata>
  <path
     id="rect4136-3-6-9-4-7"
     d="m 22.299999,16 c -1.661999,0 -3,1.338 -3,3 v 0.6 h 0.6 V 19 c 0,-1.454251 1.153501,-2.4 2.4,-2.4 1.246501,0 2.4,0.945749 2.4,2.4 v 3 h -4.8 -0.6 H 17.5 v 0.6 5.4 h 1.049999 7.5 1.05 v -6 h -1.05 -0.75 v -3 c 0,-1.662 -1.338,-3 -3,-3 z m -4.2,6.6 h 8.4 v 4.8 h -8.4 z"
     style="fill:url(#linearGradient2);fill-opacity:1;stroke-width:0.6" />
  <path
     inkscape:connector-curvature="0"
     id="fill-3-1"
     d="m 5.99999,6.64008 2e-5,22.71983 c -0.0461,0.49262 -0.11376,0.78207 -0.318,1.07328 l 24.51303,-10e-6 c 0.62105,0 0.98756,-0.17715 0.98756,-1.71864 v -8.28136 l -2,-4 v -7 -2 c 0,-0.57519 -1.22689,-2 -2,-2 H 6.98312 c -0.48934,0 -0.98311,0 -0.98313,1.2069 z"
     style="color:#1e92ff;opacity:0.4;fill:url(#linearGradient17-2);fill-opacity:0.4;fill-rule:nonzero;stroke:none;stroke-width:5.29537"
     sodipodi:nodetypes="cccccccccccc" />
  <path
     d="M 29.84615,15.707 V 8 c 0,-0.796 -0.34031,-1.559 -0.94662,-2.121 C 28.2943,5.316 27.47261,5 26.61538,5 H 17.46153 V 5.028 L 17.19877,4.802 C 16.60107,4.286 15.816,4 15.00077,4 H 7.23076 C 5.4463,4 4,5.343 4,7 v 22 c 0,0.796 0.3403,1.559 0.94661,2.121 C 5.55184,31.684 6.37353,32 7.23076,32 h 21.53847 c 0.85723,0 1.67892,-0.316 2.28415,-0.879 C 31.65969,30.559 32,29.796 32,29 V 18.872 c 0,-0.834 -0.3737,-1.631 -1.03277,-2.198 z M 30,18.872 V 29 c 0,0.265 -0.26693,0.52 -0.46939,0.707 C 29.32923,29.895 29.05461,30 28.76923,30 H 7.23076 C 6.94538,30 6.67076,29.895 6.46938,29.707 6.26692,29.52 6,29.265 6,29 V 7 C 6,6.448 6.6363,6 7.23077,6 h 7.77 c 0.27138,0 0.53307,0.095 0.7323,0.267 L 29.50153,18.139 C 29.72123,18.329 30,18.594 30,18.872 Z M 11,10 Z m 8.74784,-3 7.94446,6.85 V 8 c 0,-0.265 -0.11307,-0.52 -0.31553,-0.707 C 27.17538,7.105 26.90077,7 26.61538,7 Z M 9.38461,10 h 5.38462 c 0.59446,0 1.07692,-0.448 1.07692,-1 0,-0.552 -0.48246,-1 -1.07692,-1 H 9.38461 C 8.79015,8 8.30769,8.448 8.30769,9 c 0,0.552 0.48246,1 1.07692,1 z"
     id="path1-0-1"
     style="fill:url(#linearGradient2-4);stroke-width:1.03775"
     sodipodi:nodetypes="cscscccsssscsscssccsscsscssssccscscscccccscscsssssss" />
</svg>
