<svg xmlns="http://www.w3.org/2000/svg" height="64" width="64">
    <path d="M11.67 56.08c0 1.71 1.71 3.42 3.417 3.42h33.996c1.709 0 3.417-1.71 3.417-3.42V27.017c0-1.71 0-1.71-1.708-3.42L35.417 8.21C34.51 7.524 33.708 6.5 32 6.5H14.917c-1.709 0-3.417 1.71-3.417 3.42z" fill="#323232" stroke="#323232"/>
    <path fill="#807F7F" d="M15 59h34v1H15z"/>
        <g
      transform="scale(2 2) translate(8 11)"
     id="g2522">     <path fill="#FE8C19" color="#807F7F" d="M2 2v2c5.523 0 10 4.477 10 10h2v-.063c0-.391-.026-.775-.063-1.156-.002-.021.002-.042 0-.063a11.888 11.888 0 0 0-.188-1.125c-.004-.02.004-.043 0-.063a11.755 11.755 0 0 0-1.188-3.25c-.004-.008.004-.024 0-.031a11.94 11.94 0 0 0-8.094-6c-.02-.004-.043.004-.063 0a11.942 11.942 0 0 0-1.125-.188c-.021-.002-.042.002-.063 0-.383-.039-.764-.06-1.156-.063h-.063m0 4v2a6 6 0 0 1 6 6h2a8 8 0 0 0-8-8m2 4a2 2 0 1 0-.001 3.999 2 2 0 0 0 .001-3.999"/>
    </g>
</svg>
