<svg xmlns="http://www.w3.org/2000/svg" height="64" width="64">
    <path d="M11.67 56.08c0 1.71 1.71 3.42 3.417 3.42h33.996c1.709 0 3.417-1.71 3.417-3.42V27.017c0-1.71 0-1.71-1.708-3.42L35.417 8.21C34.51 7.524 33.708 6.5 32 6.5H14.917c-1.709 0-3.417 1.71-3.417 3.42z" fill="#323232" stroke="#323232"/>
    <path fill="#19C5FF" d="M15 59h34v1H15z"/>
        <g
      transform="scale(2 2) translate(8 11)"
     id="g2522">     <rect y="2.472" x="2.472" ry=".633" rx=".633" height="11.055" width="11.055" fill="none" stroke="#19C5FF" stroke-width=".945" stroke-linecap="round" stroke-linejoin="round"/>
    <path style="marker:none" d="M7.1 3.21v1.8h-.956L8 7.11l1.856-2.1H8.9v-1.8zM7.672 7.41c-.052 0-.084.088-.084.197v.684a1.87 1.87 0 0 0-.582.244l-.487-.488c-.077-.076-.16-.111-.197-.075l-.46.46c-.036.036-.001.12.076.196l.487.488a1.87 1.87 0 0 0-.244.581h-.684c-.109 0-.197.033-.197.085v.656c0 .052.088.084.197.084h.684c.048.21.133.406.244.582l-.487.487c-.077.077-.112.16-.075.197l.459.46c.037.036.12.001.197-.076l.487-.487c.176.11.373.196.582.244v.684c0 .108.032.197.084.197h.656c.052 0 .085-.089.085-.197v-.684a1.87 1.87 0 0 0 .58-.244l.488.487c.077.077.16.112.197.075l.46-.46c.036-.036.001-.12-.075-.196l-.488-.487a1.87 1.87 0 0 0 .244-.582h.684c.109 0 .197-.032.197-.084v-.656c0-.052-.088-.085-.197-.085H9.82a1.87 1.87 0 0 0-.244-.581l.487-.488c.077-.076.112-.16.075-.196l-.459-.46c-.037-.036-.12-.001-.197.075l-.487.488a1.87 1.87 0 0 0-.582-.244v-.684c0-.109-.032-.197-.084-.197zM8 9.275c.459 0 .834.376.834.835a.837.837 0 0 1-.834.834.837.837 0 0 1-.834-.834c0-.459.375-.835.834-.835z" overflow="visible" fill="#19C5FF"/>
    </g>
</svg>
