<svg xmlns="http://www.w3.org/2000/svg" height="64" width="64">
    <path d="M11.67 56.08c0 1.71 1.71 3.42 3.417 3.42h33.996c1.709 0 3.417-1.71 3.417-3.42V27.017c0-1.71 0-1.71-1.708-3.42L35.417 8.21C34.51 7.524 33.708 6.5 32 6.5H14.917c-1.709 0-3.417 1.71-3.417 3.42z" fill="#323232" stroke="#323232"/>
    <path fill="#807F7F" d="M15 59h34v1H15z"/>
        <g
      transform="scale(2 2) translate(8 11)"
     id="g2522">     <path color="#807F7F" d="M3 2c-.554 0-1 .446-1 1v10c0 .554.446 1 1 1h10c.554 0 1-.446 1-1V3c0-.554-.446-1-1-1zm0 1h10v10H3zm6 1v3h3a3 3 0 0 0-3-3M8 5a3 3 0 0 0-3 3 3 3 0 0 0 3 3 3 3 0 0 0 3-3H8z" fill="#807F7F"/>
    </g>
</svg>
