<svg xmlns="http://www.w3.org/2000/svg" height="64" width="64">
    <path d="M11.67 56.08c0 1.71 1.71 3.42 3.417 3.42h33.996c1.709 0 3.417-1.71 3.417-3.42V27.017c0-1.71 0-1.71-1.708-3.42L35.417 8.21C34.51 7.524 33.708 6.5 32 6.5H14.917c-1.709 0-3.417 1.71-3.417 3.42z" fill="#323232" stroke="#323232"/>
    <path fill="#807F7F" d="M15 59h34v1H15z"/>
        <g
      transform="scale(2 2) translate(8 11)"
     id="g2522">     <path fill="#FFC519" color="#807F7F" d="M8 2c-1.072 3.818-4 6.073-4 8.182S5.791 14 8 14s4-1.709 4-3.818S9.072 5.818 8 2m2.75 6.233a3.429 3.273 0 0 1 .679 1.949A3.429 3.273 0 0 1 8 13.454a3.429 3.273 0 0 1-2.038-.645 4 3.818 0 0 0 .895.1 4 3.818 0 0 0 4-3.818 4 3.818 0 0 0-.107-.858"/>
    </g>
</svg>
