<svg xmlns="http://www.w3.org/2000/svg" height="64" width="64">
    <path d="M11.67 56.08c0 1.71 1.71 3.42 3.417 3.42h33.996c1.709 0 3.417-1.71 3.417-3.42V27.017c0-1.71 0-1.71-1.708-3.42L35.417 8.21C34.51 7.524 33.708 6.5 32 6.5H14.917c-1.709 0-3.417 1.71-3.417 3.42z" fill="#323232" stroke="#323232"/>
    <path fill="#198CFE" d="M15 59h34v1H15z"/>
        <g
      transform="scale(2 2) translate(8 11)"
     id="g2522">     <path fill="#198CFE" d="M2 3c-.554 0-1 .446-1 1v8c0 .554.446 1 1 1h12c.554 0 1-.446 1-1V4c0-.554-.446-1-1-1zm0 1h.293l3.641 3.641L2.198 12h-.197zm1.707 0h8.586L8 8.293zm10 0H14v8h-.197l-3.736-4.359zm-7.06 4.35l1.357 1.357L9.361 8.35 12.488 12H3.517z"/>
    </g>
</svg>
