<svg xmlns="http://www.w3.org/2000/svg" height="64" width="64">
    <path d="M11.67 56.08c0 1.71 1.71 3.42 3.417 3.42h33.996c1.709 0 3.417-1.71 3.417-3.42V27.017c0-1.71 0-1.71-1.708-3.42L35.417 8.21C34.51 7.524 33.708 6.5 32 6.5H14.917c-1.709 0-3.417 1.71-3.417 3.42z" fill="#323232" stroke="#323232"/>
    <path fill="#FE198C" d="M15 59h34v1H15z"/>
        <g
      transform="scale(2 2) translate(8 11)"
     id="g2522">     <path fill="#FE198C" d="M3 2c-.554 0-1 .446-1 1v10c0 .554.446 1 1 1h8c.554 0 1-.446 1-1h1c.554 0 1-.446 1-1v-2a.976.976 0 0 0-.152-.5A.976.976 0 0 0 14 9V7a.976.976 0 0 0-.152-.5A.976.976 0 0 0 14 6V4c0-.554-.446-1-1-1h-1c0-.554-.446-1-1-1zm0 1h8v10H3zm1 1v2h6V4zm8 0h1v2h-1zM4 7v1h6V7zm8 0h1v2h-1zM4 9v1h6V9zm8 1h1v2h-1zm-8 1v1h6v-1z"/>
    </g>
</svg>
