<svg xmlns="http://www.w3.org/2000/svg" height="64" width="64">
    <path d="M11.67 56.08c0 1.71 1.71 3.42 3.417 3.42h33.996c1.709 0 3.417-1.71 3.417-3.42V27.017c0-1.71 0-1.71-1.708-3.42L35.417 8.21C34.51 7.524 33.708 6.5 32 6.5H14.917c-1.709 0-3.417 1.71-3.417 3.42z" fill="#323232" stroke="#323232"/>
    <path fill="#FE8C19" d="M15 59h34v1H15z"/>
        <g
      transform="scale(2 2) translate(8 11)"
     id="g2522">     <path fill="#FE8C19" d="M7 2v3h1V2zM5 3v2h1V3zm4 0v2h1V3zM3 4v1h1V4zM2 6v4c0 1.813 1.01 3 3 3H3v1h8v-1H9c1.572 0 2.507-.727 3-2h1c1 0 1-.003 1-1.094V8.812c0-1.818 0-1.813-1-1.813h-1v-1zm1 1h8v3c0 1.511-1.338 2-3 2H6c-1.662 0-3-.489-3-2zm9 1h1v2h-1z"/>
    </g>
</svg>
