<svg xmlns="http://www.w3.org/2000/svg" height="64" width="64">
    <path d="M11.67 56.08c0 1.71 1.71 3.42 3.417 3.42h33.996c1.709 0 3.417-1.71 3.417-3.42V27.017c0-1.71 0-1.71-1.708-3.42L35.417 8.21C34.51 7.524 33.708 6.5 32 6.5H14.917c-1.709 0-3.417 1.71-3.417 3.42z" fill="#323232" stroke="#323232"/>
    <path fill="#19C5FF" d="M15 59h34v1H15z"/>
        <g
      transform="scale(2 2) translate(8 11)"
     id="g2522">     <path d="M3 2v4H2v7c0 .554.448.958 1 1h11V7c0-.554-.446-1-1-1h-2V2zm1 1h6v3H9a2.515 2.515 0 0 0-2-1c-.786 0-1.528.371-2 1H4zM3 7h10v1H8c-1.108 0-2 .892-2 2s.892 2 2 2h5v1H3zm6 2a1 1 0 1 1 0 2 1 1 0 0 1 0-2z" color="#807F7F" fill="#19C5FF"/>
    </g>
</svg>
