<svg xmlns="http://www.w3.org/2000/svg" height="64" width="64">
    <path d="M11.67 56.08c0 1.71 1.71 3.42 3.417 3.42h33.996c1.709 0 3.417-1.71 3.417-3.42V27.017c0-1.71 0-1.71-1.708-3.42L35.417 8.21C34.51 7.524 33.708 6.5 32 6.5H14.917c-1.709 0-3.417 1.71-3.417 3.42z" fill="#323232" stroke="#323232"/>
    <path fill="#C5FE19" d="M15 59h34v1H15z"/>
        <g
      transform="scale(2 2) translate(8 11)"
     id="g2522">     <path fill="#C5FE19" d="M2.498 1.988a.5.5 0 0 0-.348.858l1.278 1.277A6 6 0 0 0 2 8v6h12V8a6 6 0 0 0-1.418-3.875l1.279-1.279a.5.5 0 0 0-.363-.858.5.5 0 0 0-.344.15L11.87 3.425A6 6 0 0 0 8 2a6 6 0 0 0-3.87 1.412L2.858 2.14a.5.5 0 0 0-.359-.15M8 3a5 5 0 0 1 5 5H3a5 5 0 0 1 5-5M6 5a1 1 0 0 0-1 1 1 1 0 0 0 1 1 1 1 0 0 0 1-1 1 1 0 0 0-1-1m4 0a1 1 0 0 0-1 1 1 1 0 0 0 1 1 1 1 0 0 0 1-1 1 1 0 0 0-1-1M3 9h4v1h1v1h1V9h4v4H3zm5 2H7v1h1z"/>
    </g>
</svg>
