<svg xmlns="http://www.w3.org/2000/svg" height="64" width="64">
    <path d="M11.67 56.08c0 1.71 1.71 3.42 3.417 3.42h33.996c1.709 0 3.417-1.71 3.417-3.42V27.017c0-1.71 0-1.71-1.708-3.42L35.417 8.21C34.51 7.524 33.708 6.5 32 6.5H14.917c-1.709 0-3.417 1.71-3.417 3.42z" fill="#323232" stroke="#323232"/>
    <path fill="#807F7F" d="M15 59h34v1H15z"/>
        <g
      transform="scale(2 2) translate(8 11)"
     id="g2522">     <path color="#807F7F" d="M13.996 3.654l-7 .004-2.441 6.691L3 7.654H2v1h.428l2.133 3.693 3.02-7.693h6.42zm-4 2c-1.662 0-3 1.338-3 3a2.993 2.993 0 0 0 5 2.225v.775h1v-6h-1v.775a2.98 2.98 0 0 0-2-.775m0 1c1.108 0 2 .892 2 2s-.892 2-2 2-2-.892-2-2 .892-2 2-2" fill="#807F7F"/>
    </g>
</svg>
