<?xml version="1.0" encoding="UTF-8" standalone="no"?>
<svg
   version="1.1"
   viewBox="0 0 22 22"
   id="svg1"
   sodipodi:docname="document-multiple.svg"
   inkscape:version="1.3 (0e150ed6c4, 2023-07-21)"
   xmlns:inkscape="http://www.inkscape.org/namespaces/inkscape"
   xmlns:sodipodi="http://sodipodi.sourceforge.net/DTD/sodipodi-0.dtd"
   xmlns="http://www.w3.org/2000/svg"
   xmlns:svg="http://www.w3.org/2000/svg">
  <sodipodi:namedview
     id="namedview1"
     pagecolor="#ffffff"
     bordercolor="#000000"
     borderopacity="0.25"
     inkscape:showpageshadow="2"
     inkscape:pageopacity="0.0"
     inkscape:pagecheckerboard="0"
     inkscape:deskcolor="#d1d1d1"
     inkscape:zoom="12.326157"
     inkscape:cx="3.6507729"
     inkscape:cy="8.8835475"
     inkscape:window-width="1920"
     inkscape:window-height="994"
     inkscape:window-x="0"
     inkscape:window-y="0"
     inkscape:window-maximized="1"
     inkscape:current-layer="svg1" />
  <defs
     id="defs1">
    <style
       type="text/css"
       id="style1">.ColorScheme-Text {&#10;        color:#d8dee9;&#10;      }</style>
  </defs>
  <path
     class="ColorScheme-Text"
     d="M 6.5555566,3 C 5.0782234,3 3.88889,4.1893334 3.88889,5.6666666 V 14.55556 c 0,1.208974 0.801964,2.21422 1.9010666,2.543374 C 6.119174,18.19804 7.1243566,19 8.333334,19 h 5.333336 l 4.44444,-4.44444 V 7.444444 c 0,-1.2089774 -0.801964,-2.214222 -1.90106,-2.5433774 C 15.880826,3.801956 14.87565,3 13.66667,3 Z m 0,0.8888886 H 13.66667 c 0.65873,0 1.22578,0.3592894 1.53298,0.8888894 H 8.333334 c -1.4773326,0 -2.666666,1.1893334 -2.666666,2.666666 v 8.64409 C 5.137068,15.781366 4.7777786,15.21428 4.7777786,14.55556 V 5.6666666 c 0,-0.9848886 0.7928894,-1.777778 1.777778,-1.777778 z M 15.44445,4.777778 c 0.145934,0 0.28736,0.016362 0.425346,0.041669 C 15.73037,4.7971123 15.59037,4.777778 15.44445,4.777778 Z M 8.333334,5.6666666 h 7.111116 c 0.98488,0 1.777774,0.7928894 1.777774,1.7777774 v 6.222222 h -4.444448 v 4.444448 H 8.333334 c -0.984888,0 -1.7777774,-0.792894 -1.7777774,-1.77778 v -8.88889 c 0,-0.984888 0.7928894,-1.7777774 1.7777774,-1.7777774 z M 13.66667,14.55556 h 3.18746 l -3.18746,3.18746 z m -8.000002,1.777774 c 0,0.14592 0.019326,0.28592 0.041669,0.425346 -0.025308,-0.137986 -0.041669,-0.2794 -0.041669,-0.425346 z"
     fill="currentColor"
     id="path1"
     style="stroke-width:0.888887" />
</svg>
