<?xml version="1.0" encoding="UTF-8" standalone="no"?>
<svg
   viewBox="0 0 22 22"
   version="1.1"
   id="svg1"
   sodipodi:docname="audio-headphones.svg"
   inkscape:version="1.3.2 (091e20ef0f, 2023-11-25)"
   xmlns:inkscape="http://www.inkscape.org/namespaces/inkscape"
   xmlns:sodipodi="http://sodipodi.sourceforge.net/DTD/sodipodi-0.dtd"
   xmlns="http://www.w3.org/2000/svg"
   xmlns:svg="http://www.w3.org/2000/svg">
  <sodipodi:namedview
     id="namedview1"
     pagecolor="#ffffff"
     bordercolor="#999999"
     borderopacity="1"
     inkscape:showpageshadow="2"
     inkscape:pageopacity="0"
     inkscape:pagecheckerboard="0"
     inkscape:deskcolor="#d1d1d1"
     inkscape:zoom="34.727273"
     inkscape:cx="11"
     inkscape:cy="11"
     inkscape:window-width="1920"
     inkscape:window-height="996"
     inkscape:window-x="0"
     inkscape:window-y="0"
     inkscape:window-maximized="1"
     inkscape:current-layer="svg1" />
  <defs
     id="defs3051">
    <style
       type="text/css"
       id="current-color-scheme">.ColorScheme-Text { color: #fcfcfc; } </style>
  </defs>
  <path
     style="fill:#b380ff;fill-opacity:1;stroke:none"
     d="M 11 3 A 8 8 0 0 0 3 11 L 3 19 L 4 19 L 4 17 L 6 19 L 7 19 L 7 13 L 6 13 L 4 15 L 4 11 A 7 7 0 0 1 11 4 A 7 7 0 0 1 18 11 L 18 15 L 16 13 L 15 13 L 15 19 L 16 19 L 18 17 L 18 19 L 19 19 L 19 11 A 8 8 0 0 0 11 3 z "
     class="ColorScheme-Text"
     id="path1" />
</svg>
