<?xml version="1.0" encoding="UTF-8" standalone="no"?>
<svg
   viewBox="0 0 22 22"
   version="1.1"
   id="svg1"
   sodipodi:docname="auth-sim.svg"
   inkscape:version="1.3.2 (091e20ef0f, 2023-11-25)"
   xmlns:inkscape="http://www.inkscape.org/namespaces/inkscape"
   xmlns:sodipodi="http://sodipodi.sourceforge.net/DTD/sodipodi-0.dtd"
   xmlns="http://www.w3.org/2000/svg"
   xmlns:svg="http://www.w3.org/2000/svg">
  <defs
     id="defs1" />
  <sodipodi:namedview
     id="namedview1"
     pagecolor="#ffffff"
     bordercolor="#999999"
     borderopacity="1"
     inkscape:showpageshadow="2"
     inkscape:pageopacity="0"
     inkscape:pagecheckerboard="0"
     inkscape:deskcolor="#d1d1d1"
     inkscape:zoom="34.727273"
     inkscape:cx="11"
     inkscape:cy="11"
     inkscape:window-width="1920"
     inkscape:window-height="996"
     inkscape:window-x="0"
     inkscape:window-y="0"
     inkscape:window-maximized="1"
     inkscape:current-layer="svg1" />
  <style
     type="text/css"
     id="current-color-scheme">.ColorScheme-Text { color: #fcfcfc; } </style>
  <path
     d="m5 3v16h12v-13.707031l-2.292969-2.2929688zm2 2h1v3h-.7070312l-1.2929688 1.2929688v-3.2929688c0-.554.446-1 1-1zm2 0h4v3h-4zm5 0h1c.554 0 1 .446 1 1v3.2929688l-1.292969-1.2929688h-.707031zm-6.2929688 4h6.5859378l1 1h.707031v3h-.707031l-1 1h-6.5859378l-1-1h-.7070312v-3h.7070312zm-1.7070312 4.707031 1.2929688 1.292969h.7070312v3h-1c-.554 0-1-.446-1-1zm10 0v3.292969c0 .554-.446 1-1 1h-1v-3h.707031zm-7 1.292969h4v3h-4z"
     class="ColorScheme-Text"
     fill="currentColor"
     fill-rule="evenodd"
     id="path1"
     style="fill:#ffdd55" />
</svg>
