<?xml version="1.0" encoding="UTF-8" standalone="no"?>
<svg
   viewBox="0 0 22 22"
   version="1.1"
   id="svg1"
   sodipodi:docname="camera-web.svg"
   inkscape:version="1.3.2 (091e20ef0f, 2023-11-25)"
   xmlns:inkscape="http://www.inkscape.org/namespaces/inkscape"
   xmlns:sodipodi="http://sodipodi.sourceforge.net/DTD/sodipodi-0.dtd"
   xmlns="http://www.w3.org/2000/svg"
   xmlns:svg="http://www.w3.org/2000/svg">
  <sodipodi:namedview
     id="namedview1"
     pagecolor="#ffffff"
     bordercolor="#999999"
     borderopacity="1"
     inkscape:showpageshadow="2"
     inkscape:pageopacity="0"
     inkscape:pagecheckerboard="0"
     inkscape:deskcolor="#d1d1d1"
     inkscape:zoom="34.727273"
     inkscape:cx="11"
     inkscape:cy="11"
     inkscape:window-width="1920"
     inkscape:window-height="996"
     inkscape:window-x="0"
     inkscape:window-y="0"
     inkscape:window-maximized="1"
     inkscape:current-layer="svg1" />
  <defs
     id="defs3051">
    <style
       type="text/css"
       id="current-color-scheme">.ColorScheme-Text { color: #fcfcfc; } </style>
  </defs>
  <path
     style="fill:#ff80e5;fill-opacity:1;stroke:none"
     d="M 2 3 L 2 17 L 10 17 L 10 19 L 8 19 L 8 20 L 14 20 L 14 19 L 12 19 L 12 17 L 20 17 L 20 3 L 2 3 z M 3 4 L 19 4 L 19 16 L 3 16 L 3 4 z M 11 5 A 5 5 0 0 0 6 10 A 5 5 0 0 0 11 15 A 5 5 0 0 0 16 10 A 5 5 0 0 0 11 5 z M 11 6 A 4 4 0 0 1 15 10 A 4 4 0 0 1 11 14 A 4 4 0 0 1 7 10 A 4 4 0 0 1 11 6 z "
     class="ColorScheme-Text"
     id="path1" />
</svg>
