<?xml version="1.0" encoding="UTF-8" standalone="no"?>
<svg
   viewBox="0 0 22 22"
   version="1.1"
   id="svg1"
   sodipodi:docname="camera-photo.svg"
   inkscape:version="1.3.2 (091e20ef0f, 2023-11-25)"
   xmlns:inkscape="http://www.inkscape.org/namespaces/inkscape"
   xmlns:sodipodi="http://sodipodi.sourceforge.net/DTD/sodipodi-0.dtd"
   xmlns="http://www.w3.org/2000/svg"
   xmlns:svg="http://www.w3.org/2000/svg">
  <sodipodi:namedview
     id="namedview1"
     pagecolor="#ffffff"
     bordercolor="#999999"
     borderopacity="1"
     inkscape:showpageshadow="2"
     inkscape:pageopacity="0"
     inkscape:pagecheckerboard="0"
     inkscape:deskcolor="#d1d1d1"
     inkscape:zoom="34.727273"
     inkscape:cx="11"
     inkscape:cy="11"
     inkscape:window-width="1920"
     inkscape:window-height="996"
     inkscape:window-x="0"
     inkscape:window-y="0"
     inkscape:window-maximized="1"
     inkscape:current-layer="svg1" />
  <defs
     id="defs3051">
    <style
       type="text/css"
       id="current-color-scheme">.ColorScheme-Text { color: #fcfcfc; } </style>
  </defs>
  <path
     style="fill:#5599ff;fill-opacity:1;stroke:none"
     d="M 16 4 L 16 5 L 2 5 L 2 18 L 20 18 L 20 5 L 19 5 L 19 4 L 16 4 z M 3 6 L 19 6 L 19 17 L 3 17 L 3 6 z M 8.5 7 A 4.5 4.5 0 0 0 4 11.5 A 4.5 4.5 0 0 0 8.5 16 A 4.5 4.5 0 0 0 13 11.5 A 4.5 4.5 0 0 0 8.5 7 z M 8.5 8 A 3.5 3.5 0 0 1 12 11.5 A 3.5 3.5 0 0 1 8.5 15 A 3.5 3.5 0 0 1 5 11.5 A 3.5 3.5 0 0 1 8.5 8 z "
     id="rect4211"
     class="ColorScheme-Text" />
</svg>
