<?xml version="1.0" encoding="UTF-8" standalone="no"?>
<svg
   viewBox="0 0 22 22"
   version="1.1"
   id="svg1"
   sodipodi:docname="computer.svg"
   inkscape:version="1.3.1 (91b66b0783, 2023-11-16)"
   xmlns:inkscape="http://www.inkscape.org/namespaces/inkscape"
   xmlns:sodipodi="http://sodipodi.sourceforge.net/DTD/sodipodi-0.dtd"
   xmlns:xlink="http://www.w3.org/1999/xlink"
   xmlns="http://www.w3.org/2000/svg"
   xmlns:svg="http://www.w3.org/2000/svg">
  <sodipodi:namedview
     id="namedview1"
     pagecolor="#ffffff"
     bordercolor="#000000"
     borderopacity="0.25"
     inkscape:showpageshadow="2"
     inkscape:pageopacity="0.0"
     inkscape:pagecheckerboard="0"
     inkscape:deskcolor="#d1d1d1"
     inkscape:zoom="34.863636"
     inkscape:cx="11.014342"
     inkscape:cy="11"
     inkscape:window-width="1920"
     inkscape:window-height="994"
     inkscape:window-x="0"
     inkscape:window-y="0"
     inkscape:window-maximized="1"
     inkscape:current-layer="svg1" />
  <defs
     id="defs3051">
    <linearGradient
       id="linearGradient1"
       inkscape:collect="always">
      <stop
         style="stop-color:#00ccff;stop-opacity:1"
         offset="0"
         id="stop1" />
      <stop
         style="stop-color:#5599ff;stop-opacity:1"
         offset="1"
         id="stop2" />
    </linearGradient>
    <style
       type="text/css"
       id="current-color-scheme">
      .ColorScheme-Text {
        color:#eff0f1;
      }
      </style>
    <linearGradient
       inkscape:collect="always"
       xlink:href="#linearGradient1"
       id="linearGradient2"
       x1="3"
       y1="17.76923"
       x2="18.627119"
       y2="4"
       gradientUnits="userSpaceOnUse" />
  </defs>
  <path
     style="fill:url(#linearGradient2);fill-opacity:1;stroke:none"
     d="M 6,4 C 4.338,4 3,5.3116157 3,6.9414062 V 12.058594 C 3,13.688384 4.338,15 6,15 h 4 v 2 H 7 v 1 h 8 v -1 h -3 v -2 h 4 c 1.662,0 3,-1.311616 3,-2.941406 V 6.9414062 C 19,5.3116156 17.662,4 16,4 Z m 0,1 h 10 c 0.554,0 1.054516,0.2224844 1.416016,0.5839844 C 17.777516,5.9454844 18,6.446 18,7 v 5 c 0,0.554 -0.222484,1.054516 -0.583984,1.416016 C 17.054516,13.777516 16.554,14 16,14 H 6 C 5.446,14 4.945484,13.777516 4.583984,13.416016 4.222484,13.054516 4,12.554 4,12 V 7 C 4,6.446 4.222484,5.9454844 4.583984,5.5839844 4.945484,5.2224844 5.446,5 6,5 Z"
     id="rect4211"
     class="ColorScheme-Text" />
</svg>
