<?xml version="1.0" encoding="UTF-8" standalone="no"?>
<svg
   width="24"
   height="24"
   viewBox="0 0 24 24"
   version="1.1"
   id="svg1"
   sodipodi:docname="apport.svg"
   inkscape:version="1.3.2 (091e20ef0f, 2023-11-25)"
   xmlns:inkscape="http://www.inkscape.org/namespaces/inkscape"
   xmlns:sodipodi="http://sodipodi.sourceforge.net/DTD/sodipodi-0.dtd"
   xmlns:xlink="http://www.w3.org/1999/xlink"
   xmlns="http://www.w3.org/2000/svg"
   xmlns:svg="http://www.w3.org/2000/svg">
  <defs
     id="defs1">
    <linearGradient
       inkscape:collect="always"
       xlink:href="#linearGradient2"
       id="linearGradient15"
       x1="34"
       y1="31"
       x2="49"
       y2="18"
       gradientUnits="userSpaceOnUse" />
    <linearGradient
       id="linearGradient2"
       inkscape:collect="always">
      <stop
         style="stop-color:#c83771;stop-opacity:1"
         offset="0"
         id="stop2" />
      <stop
         style="stop-color:#de87aa;stop-opacity:1"
         offset="1"
         id="stop3" />
    </linearGradient>
    <linearGradient
       inkscape:collect="always"
       xlink:href="#linearGradient2"
       id="linearGradient21"
       x1="34.642857"
       y1="16.666664"
       x2="51.35714"
       y2="16.666664"
       gradientUnits="userSpaceOnUse" />
    <linearGradient
       inkscape:collect="always"
       xlink:href="#linearGradient2"
       id="linearGradient27"
       x1="49.098999"
       y1="15.199852"
       x2="50.098999"
       y2="15.199852"
       gradientUnits="userSpaceOnUse" />
    <linearGradient
       inkscape:collect="always"
       xlink:href="#linearGradient2"
       id="linearGradient23"
       x1="45"
       y1="15.2"
       x2="46"
       y2="15.2"
       gradientUnits="userSpaceOnUse" />
    <linearGradient
       inkscape:collect="always"
       xlink:href="#linearGradient2"
       id="linearGradient25"
       x1="47"
       y1="15.2"
       x2="48"
       y2="15.2"
       gradientUnits="userSpaceOnUse" />
    <linearGradient
       inkscape:collect="always"
       xlink:href="#linearGradient2"
       id="linearGradient17"
       x1="39"
       y1="22.5"
       x2="47"
       y2="22.5"
       gradientUnits="userSpaceOnUse" />
  </defs>
  <sodipodi:namedview
     id="namedview1"
     pagecolor="#ffffff"
     bordercolor="#999999"
     borderopacity="1"
     inkscape:showpageshadow="2"
     inkscape:pageopacity="0"
     inkscape:pagecheckerboard="0"
     inkscape:deskcolor="#d1d1d1"
     inkscape:zoom="11.22532"
     inkscape:cx="14.698913"
     inkscape:cy="21.202068"
     inkscape:window-width="1920"
     inkscape:window-height="994"
     inkscape:window-x="0"
     inkscape:window-y="0"
     inkscape:window-maximized="1"
     inkscape:current-layer="svg1" />
  <style
     type="text/css"
     id="current-color-scheme">.ColorScheme-Text { color: #fcfcfc; } </style>
  <g
     id="22-22-apport"
     transform="translate(-31,-9)">
    <path
       id="path9"
       d="M 32,10 V 32 H 54 V 10 Z"
       style="fill:none" />
    <path
       d="M 52,14.200002 V 27.8 C 52,28.566961 51.620085,29 50.757357,29 H 35.306929 C 34.444201,29 34,28.566961 34,27.8 V 14.200002 c 0,-0.766958 0.444201,-1.199996 1.306929,-1.199996 H 50.691143 C 51.555964,12.998206 52,13.433044 52,14.200002 Z M 35,27 c 0,1 0,1 1,1 h 14 c 1,0 1,0 1,-1 V 15 c 0,-1 0,-1 -1,-1 H 36 c -1,0 -1,0 -1,1 z"
       id="path2-5"
       style="color:#d6dbf1;fill:url(#linearGradient15);fill-opacity:1;stroke-width:0.197437;enable-background:new"
       sodipodi:nodetypes="ssssssscssssssssss"
       class="ColorScheme-Text" />
    <path
       d="M 51.357141,16.333332 H 34.642857 v 0 0.666666 h 16.714284 v 0 z"
       id="path2653-4-3"
       style="fill:url(#linearGradient21);fill-opacity:1;stroke-width:0.229083"
       sodipodi:nodetypes="ccccccc" />
    <path
       d="M 49.099,15.199857 C 49.099,14.923659 49.322727,14.7 49.598994,14.7 c 0.276054,0 0.500006,0.223659 0.500006,0.499857 0,0.275959 -0.223952,0.499847 -0.500006,0.499847 -0.276267,0 -0.499994,-0.223888 -0.499994,-0.499847 z"
       id="path72-3-6-5"
       style="color:#e5e9ef;fill:url(#linearGradient27);fill-opacity:1;stroke-width:0.00595174"
       class="ColorScheme-Text" />
    <path
       d="M 45,15.200005 C 45,14.923725 45.22373,14.7 45.500003,14.7 45.776044,14.7 46,14.923725 46,15.200005 46,15.476045 45.776044,15.7 45.500003,15.7 45.22373,15.7 45,15.476045 45,15.200005 Z"
       id="path72-3-6-6-6"
       style="color:#e5e9ef;fill:url(#linearGradient23);fill-opacity:1;stroke-width:0.00595262"
       class="ColorScheme-Text" />
    <path
       d="M 47,15.200005 C 47,14.923725 47.223724,14.7 47.499999,14.7 47.776043,14.7 48,14.923725 48,15.200005 48,15.476045 47.776043,15.7 47.499999,15.7 47.223724,15.7 47,15.476045 47,15.200005 Z"
       id="path72-3-6-7-2"
       style="color:#e5e9ef;fill:url(#linearGradient25);fill-opacity:1;stroke-width:0.00595261"
       class="ColorScheme-Text" />
    <path
       d="m 43.000017,23.579004 2.697394,2.697514 c 0.298012,0.297975 0.781148,0.297975 1.079082,0 0.298002,-0.297965 0.298002,-0.781024 0,-1.078995 l -2.69753,-2.697517 2.69753,-2.697524 c 0.298009,-0.297966 0.298009,-0.781047 0,-1.079009 -0.297934,-0.297962 -0.781066,-0.297962 -1.079073,0 l -2.697403,2.697523 -2.697518,-2.697524 c -0.298005,-0.297963 -0.781094,-0.297963 -1.079006,0 -0.297991,0.297961 -0.297991,0.78104 0,1.079004 l 2.697497,2.69753 -2.697497,2.697521 c -0.297991,0.297967 -0.297991,0.781029 0,1.078994 0.297911,0.297972 0.781008,0.297972 1.079006,0 z"
       style="fill:url(#linearGradient17);fill-opacity:1;fill-rule:evenodd;stroke:none;stroke-width:0.508609"
       id="path2838-9" />
  </g>
</svg>
