<?xml version="1.0" encoding="UTF-8" standalone="no"?>
<svg
   viewBox="0 0 24 24"
   version="1.1"
   id="svg2"
   sodipodi:docname="disk-quota.svg"
   width="24"
   height="24"
   inkscape:version="1.3.2 (091e20ef0f, 2023-11-25)"
   xmlns:inkscape="http://www.inkscape.org/namespaces/inkscape"
   xmlns:sodipodi="http://sodipodi.sourceforge.net/DTD/sodipodi-0.dtd"
   xmlns:xlink="http://www.w3.org/1999/xlink"
   xmlns="http://www.w3.org/2000/svg"
   xmlns:svg="http://www.w3.org/2000/svg">
  <sodipodi:namedview
     id="namedview2"
     pagecolor="#ffffff"
     bordercolor="#000000"
     borderopacity="0.25"
     inkscape:showpageshadow="2"
     inkscape:pageopacity="0.0"
     inkscape:pagecheckerboard="0"
     inkscape:deskcolor="#d1d1d1"
     inkscape:zoom="12.326157"
     inkscape:cx="15.089861"
     inkscape:cy="29.246747"
     inkscape:window-width="1920"
     inkscape:window-height="994"
     inkscape:window-x="0"
     inkscape:window-y="0"
     inkscape:window-maximized="1"
     inkscape:current-layer="svg2"
     showgrid="true">
    <inkscape:grid
       id="grid1"
       units="px"
       originx="0"
       originy="0"
       spacingx="1"
       spacingy="1"
       empcolor="#0099e5"
       empopacity="0.30196078"
       color="#0099e5"
       opacity="0.14901961"
       empspacing="5"
       dotted="false"
       gridanglex="30"
       gridanglez="30"
       visible="true" />
  </sodipodi:namedview>
  <defs
     id="defs1">
    <style
       type="text/css"
       id="current-color-scheme">.ColorScheme-Text { color: #fcfcfc; } </style>
    <linearGradient
       inkscape:collect="always"
       xlink:href="#linearGradient1"
       id="linearGradient4"
       x1="4"
       y1="-3"
       x2="17"
       y2="-15.221187"
       gradientUnits="userSpaceOnUse"
       gradientTransform="translate(1,23)" />
    <linearGradient
       id="linearGradient1"
       inkscape:collect="always">
      <stop
         style="stop-color:#00aa44;stop-opacity:1"
         offset="0"
         id="stop1" />
      <stop
         style="stop-color:#2aff80;stop-opacity:1"
         offset="1"
         id="stop2" />
    </linearGradient>
    <linearGradient
       inkscape:collect="always"
       xlink:href="#linearGradient1"
       id="linearGradient10"
       x1="6.1999998"
       y1="-5.5"
       x2="15.909"
       y2="-5.5"
       gradientUnits="userSpaceOnUse"
       gradientTransform="translate(1,23)" />
    <linearGradient
       inkscape:collect="always"
       xlink:href="#linearGradient1"
       id="linearGradient12"
       x1="6.9999952"
       y1="-8"
       x2="13.000002"
       y2="-14"
       gradientUnits="userSpaceOnUse"
       gradientTransform="translate(1,23)" />
  </defs>
  <rect
     style="opacity:0.00100002;fill:#d3dae3;fill-opacity:1;stroke-width:1.09096"
     width="24"
     height="24"
     x="0"
     y="0"
     id="rect4" />
  <path
     d="M 17.571432,4 H 6.428586 C 5.6428722,4 5,4.6 5,5.333332 V 18.666665 C 5,19.4 5.6428722,20 6.428586,20 H 17.571432 C 18.357149,20 19,19.4 19,18.666665 V 5.333332 C 19,4.6 18.357149,4 17.571432,4 Z M 18,18 c 0,1 0,1 -1,1 H 7 C 6,19 6,19 6,18 V 6 C 6,5 6,5 7,5 h 10 c 1,0 1,0 1,1 z"
     id="path2-3-3-3-0"
     style="fill:url(#linearGradient4);fill-opacity:1;stroke-width:0.345031"
     sodipodi:nodetypes="ssssssssscscccsscc" />
  <path
     d="M 16.354003,17 H 7.7551294 C 7.44823,17 7.2,17.199407 7.2,17.44439 v 0.111612 C 7.2,17.801302 7.4483571,18 7.7551294,18 H 16.354003 C 16.660523,18 16.909,17.801305 16.909,17.556002 V 17.44439 C 16.909,17.199601 16.660516,17 16.354003,17 Z M 16.005602,17.99364 8,18 7.99736,17.9961 7.9969628,17.997006 16,18 l 0.0028,-0.0031 -9.69e-4,-0.0033 z"
     id="path79-3-8"
     style="fill:url(#linearGradient10);fill-opacity:1;stroke-width:0.0292304"
     sodipodi:nodetypes="ssssssssssccccccs" />
  <path
     d="M 12,7 C 10.939219,7 9.9218833,7.421585 9.1715973,8.171595 8.4215893,8.921824 7.9999953,9.939157 7.9999953,11 c 0,1.060843 0.4215827,2.07812 1.171602,2.828407 C 9.9218253,14.578411 10.939161,15 12,15 c 1.060839,0 2.078119,-0.421585 2.828403,-1.171593 0.750008,-0.750231 1.171603,-1.767566 1.171603,-2.828408 C 15.998906,9.939608 15.576866,8.922953 14.826823,8.173174 14.076987,7.423172 13.060332,7.001356 12,7 Z m 0,7.010693 v 2.27e-4 l -0.0076,0.03445 v 0 0 0 0 0 0 0 z"
     id="path74-6-6"
     style="fill:url(#linearGradient12);fill-opacity:1;stroke-width:0.0565059"
     sodipodi:nodetypes="ccscsccccccccccccccc" />
  <path
     d="m 12,9 c -0.530392,0 -1.039056,0.210792 -1.414202,0.585797 -0.375003,0.375115 -0.585801,0.88378 -0.585801,1.414202 0,0.530424 0.210793,1.039058 0.585801,1.414205 C 10.960913,12.789205 11.469583,13 12,13 c 0.530421,0 1.039061,-0.210793 1.414201,-0.585796 0.375003,-0.375117 0.585801,-0.883787 0.585801,-1.414205 C 13.999429,10.469803 13.788433,9.961476 13.41341,9.586586 13.038491,9.211585 12.530165,9.000677 12,9 Z m 0,3.505348 v 1.15e-4 l -0.0038,0.01722 v 0 0 0 0 0 0 0 z"
     id="path74-6-7-7"
     style="fill:#000000;fill-opacity:1;stroke-width:0.0282529"
     sodipodi:nodetypes="ccscsccccccccccccccc" />
</svg>
