<?xml version="1.0" encoding="UTF-8" standalone="no"?>
<svg
   viewBox="0 0 24 24"
   width="24"
   height="24"
   version="1.1"
   id="svg1"
   sodipodi:docname="dropboxstatus-logo.svg"
   inkscape:version="1.3.2 (091e20ef0f, 2023-11-25)"
   xmlns:inkscape="http://www.inkscape.org/namespaces/inkscape"
   xmlns:sodipodi="http://sodipodi.sourceforge.net/DTD/sodipodi-0.dtd"
   xmlns="http://www.w3.org/2000/svg"
   xmlns:svg="http://www.w3.org/2000/svg">
  <sodipodi:namedview
     id="namedview1"
     pagecolor="#ffffff"
     bordercolor="#999999"
     borderopacity="1"
     inkscape:showpageshadow="2"
     inkscape:pageopacity="0"
     inkscape:pagecheckerboard="0"
     inkscape:deskcolor="#d1d1d1"
     inkscape:zoom="31.75"
     inkscape:cx="12"
     inkscape:cy="12"
     inkscape:window-width="1920"
     inkscape:window-height="994"
     inkscape:window-x="0"
     inkscape:window-y="0"
     inkscape:window-maximized="1"
     inkscape:current-layer="svg1" />
  <defs
     id="defs3051">
    <style
       type="text/css"
       id="current-color-scheme">.ColorScheme-Text { color: #fcfcfc; } </style>
  </defs>
  <g
     transform="translate(1,1)"
     id="g1">
    <path
       style="fill:#aaeeff;fill-opacity:1;stroke:none"
       d="M 7.4648438,2.9667969 2.0175781,5.8808594 5.6386719,8.9511719 2.3652344,12.214844 7.828125,15.130859 11,12 l 3.123047,2.669922 5.275391,-3.009766 c -0.0047,0.0035 -3.419922,-2.9667966 -3.419922,-2.9667966 L 18.996094,6.0351562 14.5,3 10.992188,5.9921875 Z M 7.2675781,4.0664062 10.0625,6.5058594 6.578125,8.3925781 3.71875,6.0429688 Z M 14.460937,4.0917969 17.587891,6.1816406 15.083984,8.2089844 11.894531,6.484375 Z M 11,7 14.486328,9 11,11 7.5136719,9 Z M 6.4257812,9.5253906 10.078125,11.501953 7.6289062,13.890625 4.015625,11.894531 Z m 9.1093748,0.021484 2.310547,1.984375 -3.673828,1.941406 -2.236328,-1.978515 z M 16,13.636719 15,14.222656 15,16.705078 11,19 7,16.705078 7,14.742188 6,14.207031 6,17.294922 11,20 16,17.294922 Z"
       class="ColorScheme-Text"
       id="path1" />
  </g>
</svg>
