<?xml version="1.0" encoding="UTF-8" standalone="no"?>
<svg
   height="16"
   viewBox="0 0 16 16"
   width="16"
   version="1.1"
   id="svg26"
   sodipodi:docname="financial-account.svg"
   inkscape:version="1.3 (0e150ed6c4, 2023-07-21)"
   xmlns:inkscape="http://www.inkscape.org/namespaces/inkscape"
   xmlns:sodipodi="http://sodipodi.sourceforge.net/DTD/sodipodi-0.dtd"
   xmlns:xlink="http://www.w3.org/1999/xlink"
   xmlns="http://www.w3.org/2000/svg"
   xmlns:svg="http://www.w3.org/2000/svg">
  <defs
     id="defs26" />
  <sodipodi:namedview
     id="namedview26"
     pagecolor="#ffffff"
     bordercolor="#000000"
     borderopacity="0.25"
     inkscape:showpageshadow="2"
     inkscape:pageopacity="0.0"
     inkscape:pagecheckerboard="0"
     inkscape:deskcolor="#d1d1d1"
     showgrid="false"
     inkscape:zoom="24.090573"
     inkscape:cx="3.1547609"
     inkscape:cy="8.6548376"
     inkscape:window-width="1920"
     inkscape:window-height="994"
     inkscape:window-x="0"
     inkscape:window-y="0"
     inkscape:window-maximized="1"
     inkscape:current-layer="svg26">
    <inkscape:grid
       id="grid26"
       units="px"
       originx="0"
       originy="0"
       spacingx="1"
       spacingy="1"
       empcolor="#0099e5"
       empopacity="0.30196078"
       color="#0099e5"
       opacity="0.14901961"
       empspacing="5"
       dotted="false"
       gridanglex="30"
       gridanglez="30"
       visible="false" />
  </sodipodi:namedview>
  <linearGradient
     id="a"
     gradientTransform="matrix(0.88842045,0,0,1,-3.995784,-1)"
     gradientUnits="userSpaceOnUse"
     x1="9"
     x2="9"
     y1="37"
     y2="40">
    <stop
       offset="0"
       stop-color="#fcfcfc"
       stop-opacity=".8"
       id="stop1" />
    <stop
       offset="1"
       stop-color="#fcfcfc"
       stop-opacity=".45"
       id="stop2" />
  </linearGradient>
  <linearGradient
     id="b"
     gradientUnits="userSpaceOnUse"
     x1="2"
     x2="24"
     y1="38"
     y2="38">
    <stop
       offset="0"
       stop-color="#3daee9"
       id="stop3" />
    <stop
       offset="1"
       stop-color="#2a7aaf"
       id="stop4" />
  </linearGradient>
  <linearGradient
     id="c"
     gradientUnits="userSpaceOnUse"
     x1="14"
     x2="15"
     y1="43"
     y2="47">
    <stop
       offset="0"
       stop-color="#318bba"
       id="stop5" />
    <stop
       offset="1"
       stop-color="#115c92"
       id="stop6" />
  </linearGradient>
  <linearGradient
     id="d"
     gradientUnits="userSpaceOnUse"
     x1="23"
     x2="32.799999"
     y1="16.700001"
     y2="30"
     gradientTransform="matrix(0.4642857,0,0,0.4642857,0.5714286,0.57142857)">
    <stop
       offset="0"
       id="stop7" />
    <stop
       offset="1"
       stop-opacity="0"
       id="stop8" />
  </linearGradient>
  <linearGradient
     id="e">
    <stop
       offset="0"
       stop-opacity=".102"
       id="stop9" />
    <stop
       offset="1"
       stop-opacity=".03"
       id="stop10" />
  </linearGradient>
  <linearGradient
     id="f"
     gradientTransform="matrix(0.71428571,0,0,0.7,-1.428571,-0.8)"
     gradientUnits="userSpaceOnUse"
     x1="30"
     x2="30"
     y1="4"
     y2="44">
    <stop
       offset="0"
       stop-color="#fcfcfc"
       id="stop11" />
    <stop
       offset="1"
       stop-color="#cacaca"
       id="stop12" />
  </linearGradient>
  <linearGradient
     id="g"
     gradientTransform="matrix(0.6875,0,0,0.75000001,-0.75,12.5)"
     gradientUnits="userSpaceOnUse"
     x1="20"
     x2="20"
     y1="26"
     y2="30">
    <stop
       offset="0"
       stop-color="#194d6f"
       id="stop13" />
    <stop
       offset="1"
       stop-color="#0c3d61"
       id="stop14" />
  </linearGradient>
  <linearGradient
     id="h"
     gradientTransform="matrix(0.99999999,0,0,0.61538461,-6,2.5384612)"
     gradientUnits="userSpaceOnUse"
     x1="16"
     x2="16"
     xlink:href="#e"
     y1="43"
     y2="4" />
  <linearGradient
     id="i"
     gradientTransform="matrix(0.99999999,0,0,0.61538461,-14,2.5384612)"
     gradientUnits="userSpaceOnUse"
     x1="43"
     x2="43"
     xlink:href="#e"
     y1="43"
     y2="4" />
  <g
     stroke-linejoin="round"
     id="g20"
     transform="matrix(0.4642857,0,0,0.4642857,0.5714286,0.57142857)">
    <path
       d="M 10,4.9999998 C 10,2.9721476 11,1.9999999 12.933507,2 H 26.868318 C 29,1.9999999 30,3.1500623 30,4.9999998 V 30 H 10 Z"
       fill="url(#f)"
       stroke-width="0.999997"
       id="path14"
       sodipodi:nodetypes="ccccccc"
       style="fill:url(#f)" />
    <g
       stroke-width="1.42857"
       id="g18">
      <path
         d="m 10,29 h 20 v 1.000001 H 10 Z"
         fill="#979797"
         id="path15" />
      <path
         d="M 12,6 V 6.9999999 H 22 V 6 Z m 0,2.0000003 V 9 h 9 V 8.0000003 Z m 0,1.9999994 V 11 H 22 V 9.9999997 Z"
         fill="#4d4d4d"
         id="path16" />
      <path
         d="m 24,6 v 0.9999999 h 4 V 6 Z m 0,3.9999997 V 11 h 4 V 9.9999997 Z"
         fill="#da4453"
         id="path17" />
      <path
         d="m 24,8.0000003 h 4 V 9 h -4 z"
         fill="#27ae60"
         id="path18" />
    </g>
    <path
       d="m 10,4.9999998 h 1 V 29 h -1 z"
       fill="url(#h)"
       id="path19"
       style="fill:url(#h);stroke-width:0.942809" />
    <path
       d="m 29,4.9999998 h 1 V 29 h -1 z"
       fill="url(#i)"
       id="path20"
       style="fill:url(#i);stroke-width:0.942809" />
  </g>
  <path
     d="M 11.25,7.9999996 V 14.5 H 14.5 V 11.05957 L 11.577357,8.1369276 Z"
     fill="url(#d)"
     opacity="0.1"
     stroke-width="0.464285"
     id="path21"
     style="fill:url(#d)" />
  <g
     transform="matrix(0.4642857,0,0,0.4642857,0.5714286,-6.3928574)"
     id="g26">
    <path
       d="m 3,31 c -0.554,0 -1,0.446 -1,1 v 8 A 1,1.5 0 0 1 3,41.5 1,1.5 0 0 1 2,43 v 1 c 0,0.554 0.446,1 1,1 h 20 c 0.554,0 1,-0.446 1,-1 V 32 c 0,-0.554 -0.446,-1 -1,-1 z"
       fill="url(#b)"
       stroke-linejoin="round"
       id="path22"
       style="fill:url(#b)" />
    <path
       d="m 2,32 h 22 v 3 H 2 Z"
       fill="url(#g)"
       stroke-width="1.42857"
       id="path23"
       style="fill:url(#g)" />
    <g
       stroke-linejoin="round"
       id="g25">
      <path
         d="m 2,43 v 1 c 0,0.554 0.446,1 1,1 h 20 c 0.554,0 1,-0.446 1,-1 v -1 c 0,0.554 -0.446,1 -1,1 H 3 C 2.446,44 2,43.554 2,43 Z"
         fill="url(#c)"
         id="path24"
         style="fill:url(#c)" />
      <rect
         fill="url(#a)"
         height="3"
         rx="0.5"
         width="4"
         x="4"
         y="36"
         id="rect24"
         style="fill:url(#a)" />
      <path
         d="m 6,41 v 1 h 3 v -1 z m 4,0 v 1 h 3 v -1 z m 4,0 v 1 h 3 v -1 z m 4,0 v 1 h 3 v -1 z"
         fill="#1f5b83"
         id="path25" />
    </g>
  </g>
</svg>
