<svg xmlns="http://www.w3.org/2000/svg" height="32" width="32">
    <path d="M4.6 29.5c0 1 1 2 2 2h19.9c1 0 2-1 2-2v-17c0-1 0-1-1-2l-9-9c-.531-.401-1-1-2-1h-10c-1 0-2 1-2 2z" fill="#323232" stroke="#323232"/>
    <g transform="translate(5 8)">
            <path d="M3.498 2.996a.5.5 0 0 0-.348.858l1.86 1.859A8 8 0 0 0 3 11v8h16v-8a8 8 0 0 0-1.998-5.28l1.86-1.859A.5.5 0 0 0 18.503 3a.5.5 0 0 0-.35.154l-1.861 1.862A8 8 0 0 0 11 3a8 8 0 0 0-5.285 2.004L3.857 3.146a.5.5 0 0 0-.359-.15zM10.908 4A7 7 0 0 1 11 4a7 7 0 0 1 4.588 1.72 7 7 0 0 1 .703.712A7 7 0 0 1 18 11H4a7 7 0 0 1 1.715-4.582 7 7 0 0 1 .642-.645 7 7 0 0 1 .067-.06A7 7 0 0 1 10.908 4zM8 7a1 1 0 0 0-1 1 1 1 0 0 0 1 1 1 1 0 0 0 1-1 1 1 0 0 0-1-1zm6 0a1 1 0 0 0-1 1 1 1 0 0 0 1 1 1 1 0 0 0 1-1 1 1 0 0 0-1-1zM4 12h6v1h1v-1h7v6H4v-6zm7 1v1h1v-1h-1zm0 1h-1v2h2v-1h-1v-1z" fill="#C5FE19"/>

    </g>
    <path fill="#C5FE19" d="M7 31h19v1H7z"/>
</svg>
