<svg xmlns="http://www.w3.org/2000/svg" height="32" width="32">
    <path d="M4.6 29.5c0 1 1 2 2 2h19.9c1 0 2-1 2-2v-17c0-1 0-1-1-2l-9-9c-.531-.401-1-1-2-1h-10c-1 0-2 1-2 2z" fill="#323232" stroke="#323232"/>
    <g transform="translate(5 8)">
            <defs>
        <linearGradient id="c">
            <stop stop-color="#FE8C19"/>
            <stop offset="1" stop-color="#FE8C19"/>
        </linearGradient>
        <linearGradient id="b">
            <stop stop-color="#807F7F"/>
            <stop offset="1" stop-color="#807F7F" stop-opacity="0"/>
        </linearGradient>
        <linearGradient id="a">
            <stop stop-color="#807F7F"/>
            <stop offset="1" stop-color="#807F7F"/>
        </linearGradient>
    </defs>
    <path d="M8 3v4h1V3H8zm2 1v3h1V4h-1zM6 5v2h1V5H6zm6 0v2h1V5h-1zM4 6v1h1V6H4zm10 0v1h1V6h-1zM3 8v6a4 3.99 0 0 0 0 .01A4 3.99 0 0 0 7 18H4v1h11v-1h-3a4 3.99 0 0 0 4-3.99 4 3.99 0 0 0 0-.01h2c.554 0 1-.446 1-1v-3c0-.554-.446-1-1-1h-2V8H3zm1 1h11v5a3 3 0 0 1-3 3H7a3 3 0 0 1-3-3V9zm12 1h2v3h-2v-3z" fill="#FE8C19" stroke-width="6"/>

    </g>
    <path fill="#FE8C19" d="M7 31h19v1H7z"/>
</svg>
