<svg xmlns="http://www.w3.org/2000/svg" height="32" width="32">
    <path d="M4.6 29.5c0 1 1 2 2 2h19.9c1 0 2-1 2-2v-17c0-1 0-1-1-2l-9-9c-.531-.401-1-1-2-1h-10c-1 0-2 1-2 2z" fill="#323232" stroke="#323232"/>
    <g transform="translate(5 8)">
            <path style="line-height:normal;text-indent:0;text-align:start;text-decoration-line:none;text-decoration-style:solid;text-decoration-color:#000;text-transform:none;block-progression:tb;white-space:normal;isolation:auto;mix-blend-mode:normal;solid-color:#000;solid-opacity:1" d="M14 2l-4 4h2v1H6v9H4l4 4 4-4h-2v-1h6V6h2l-4-4zm0 1.414L15.586 5H15v9h-5v-1h3V5h-.586L14 3.414zM7 8h5v1H9v8h.586L8 18.586 6.414 17H7V8zm3 2h2v2h-2v-2z" color="#807F7F" font-weight="400" font-family="sans-serif" overflow="visible" fill="#1952FE" fill-rule="evenodd"/>

    </g>
    <path fill="#1952FE" d="M7 31h19v1H7z"/>
</svg>
