<svg xmlns="http://www.w3.org/2000/svg" height="32" width="32">
    <path d="M4.6 29.5c0 1 1 2 2 2h19.9c1 0 2-1 2-2v-17c0-1 0-1-1-2l-9-9c-.531-.401-1-1-2-1h-10c-1 0-2 1-2 2z" fill="#323232" stroke="#323232"/>
    <g transform="translate(5 8)">
            <path d="M7 3c-.554 0-1 .446-1 1v2H4c-.554 0-1 .446-1 1v11c0 .554.446 1 1 1h11c.554 0 1-.446 1-1v-2h2c.554 0 1-.446 1-1V4c0-.554-.446-1-1-1H7zm0 1h11v11h-2V7c0-.554-.446-1-1-1-3 0-8-.325-8-2zM4 7h11v11H4V7zm1 1v2h9V8H5zm0 4v1h9v-1H5zm0 2v1h9v-1H5zm0 2v1h9v-1H5z" fill="#19FE8C"/>

    </g>
    <path fill="#19FE8C" d="M7 31h19v1H7z"/>
</svg>
