<svg xmlns="http://www.w3.org/2000/svg" height="32" width="32">
    <path d="M4.6 29.5c0 1 1 2 2 2h19.9c1 0 2-1 2-2v-17c0-1 0-1-1-2l-9-9c-.531-.401-1-1-2-1h-10c-1 0-2 1-2 2z" fill="#323232" stroke="#323232"/>
    <g transform="translate(5 8)">
            <path d="M11 3a8 3 0 0 0-8 3v10a8 3 0 0 0 8 3 8 3 0 0 0 8-3V6a8 3 0 0 0-8-3zm0 1a7 2 0 0 1 7 2 7 2 0 0 1-7 2 7 2 0 0 1-7-2 7 2 0 0 1 7-2zm7 3.445V11a7 2 0 0 1-7 2 7 2 0 0 1-7-2V7.451A8 3 0 0 0 11 9a8 3 0 0 0 7-1.555zm0 5V16a7 2 0 0 1-7 2 7 2 0 0 1-7-2v-3.549A8 3 0 0 0 11 14a8 3 0 0 0 7-1.555z" fill="#FF19C5" stroke-width="2"/>

    </g>
    <path fill="#FF19C5" d="M7 31h19v1H7z"/>
</svg>
