<svg xmlns="http://www.w3.org/2000/svg" height="32" width="32">
    <path d="M4.6 29.5c0 1 1 2 2 2h19.9c1 0 2-1 2-2v-17c0-1 0-1-1-2l-9-9c-.531-.401-1-1-2-1h-10c-1 0-2 1-2 2z" fill="#323232" stroke="#323232"/>
    <g transform="translate(5 8)">
            <g transform="translate(0 -1030.362)">
        <rect y="1033.844" x="3.482" ry=".861" rx=".861" height="15.036" width="15.036" fill="none" stroke="#19C5FF" stroke-width=".964" stroke-linecap="round" stroke-linejoin="round"/>
        <path style="marker:none" d="M9.804 1034.979v2.4H8.53l2.475 2.8 2.475-2.8h-1.275v-2.4zM10.567 1040.579c-.07 0-.113.118-.113.262v.913c-.278.063-.54.177-.775.325l-.65-.65c-.102-.102-.213-.15-.262-.1l-.613.612c-.049.05-.002.16.1.263l.65.65a2.494 2.494 0 0 0-.325.775h-.912c-.145 0-.263.043-.263.112v.875c0 .07.118.113.263.113h.912c.064.278.177.54.325.775l-.65.65c-.102.102-.149.214-.1.262l.613.613c.049.049.16 0 .262-.1l.65-.65c.235.148.497.262.775.325v.912c0 .145.044.263.113.263h.875c.07 0 .112-.118.112-.263v-.912c.279-.063.541-.177.775-.325l.65.65c.103.102.214.149.263.1l.612-.613c.05-.049.003-.16-.1-.262l-.65-.65c.148-.234.262-.497.325-.775h.913c.144 0 .262-.043.262-.113v-.875c0-.069-.118-.112-.262-.112h-.913a2.494 2.494 0 0 0-.325-.775l.65-.65c.103-.102.15-.214.1-.263l-.612-.612c-.049-.05-.16 0-.263.1l-.65.65a2.492 2.492 0 0 0-.775-.325v-.913c0-.144-.043-.262-.112-.262zm.437 2.487c.612 0 1.113.501 1.113 1.113 0 .611-.501 1.112-1.113 1.112a1.116 1.116 0 0 1-1.112-1.112c0-.612.5-1.113 1.112-1.113z" overflow="visible" fill="#19C5FF"/>
    </g>

    </g>
    <path fill="#19C5FF" d="M7 31h19v1H7z"/>
</svg>
