<svg xmlns="http://www.w3.org/2000/svg" height="32" width="32">
    <path d="M4.6 29.5c0 1 1 2 2 2h19.9c1 0 2-1 2-2v-17c0-1 0-1-1-2l-9-9c-.531-.401-1-1-2-1h-10c-1 0-2 1-2 2z" fill="#323232" stroke="#323232"/>
    <g transform="translate(5 8)">
            <path d="M19 5l-9.332.006L6.5 14.5 4.334 11H3v1h1l2.5 5 3.941-11H19zm-5 3a4 4 0 1 0 0 8 4 4 0 0 0 3-1.361V16h1V8h-1v1.361A4 4 0 0 0 14 8zm0 1a3 3 0 1 1 0 6 3 3 0 0 1 0-6z" color="#807F7F" fill="#807F7F"/>

    </g>
    <path fill="#807F7F" d="M7 31h19v1H7z"/>
</svg>
