<svg xmlns="http://www.w3.org/2000/svg" height="32" width="32">
    <path d="M4.6 29.5c0 1 1 2 2 2h19.9c1 0 2-1 2-2v-17c0-1 0-1-1-2l-9-9c-.531-.401-1-1-2-1h-10c-1 0-2 1-2 2z" fill="#323232" stroke="#323232"/>
    <g transform="translate(5 8)">
            <g fill="#19FE8C">
        <path d="M13.734 3.021a5.244 5.244 0 0 0-5.246 5.243c0 .787.178 1.53.489 2.199l-.897 1.062-.078.996c-.008.008-.979.038-.979.038l-.498.36s.002 1.088-.002 1.073l-1.068.018-.451.515-.01.975s-.922-.06-1.015.025l.001.002c-.589.543-.986.93-.986.93l.004 2.549.5-.002 6.793-6.793a5.26 5.26 0 0 0 1.56.934 5.18 5.18 0 0 0 1.885.36 5.243 5.243 0 0 0-.002-10.484zm1.002 2.497a1.75 1.75 0 1 1-.002 3.498 1.75 1.75 0 0 1 .002-3.498z"/>
        <path d="M14.736 5.518a1.75 1.75 0 1 0 0 0zm0 1a.749.749 0 1 1-.001 1.497.749.749 0 0 1 .001-1.497zm-4.445 5.693l-6.797 6.797h2.498l5.934-5.828a5.262 5.262 0 0 1-1.635-.97z" opacity=".5"/>
    </g>

    </g>
    <path fill="#19FE8C" d="M7 31h19v1H7z"/>
</svg>
