<svg xmlns="http://www.w3.org/2000/svg" height="32" width="32">
    <path d="M4.6 29.5c0 1 1 2 2 2h19.9c1 0 2-1 2-2v-17c0-1 0-1-1-2l-9-9c-.531-.401-1-1-2-1h-10c-1 0-2 1-2 2z" fill="#323232" stroke="#323232"/>
    <g transform="translate(5 8)">
            <path d="M3 3v4H2v11c0 .554.446 1 1 1h17V8c0-.554-.446-1-1-1h-5V3zm1 1h9v3h-2.508A2.5 2.5 0 0 0 8.5 6a2.5 2.5 0 0 0-1.998 1H4zM3 8h16v3h-7c-1.108 0-2 .892-2 2s.892 2 2 2h7v3H3zm10 4a1 1 0 1 1 0 2 1 1 0 0 1 0-2z" fill="#19C5FF"/>

    </g>
    <path fill="#19C5FF" d="M7 31h19v1H7z"/>
</svg>
