<svg xmlns="http://www.w3.org/2000/svg" height="32" width="32">
    <path d="M4.6 29.5c0 1 1 2 2 2h19.9c1 0 2-1 2-2v-17c0-1 0-1-1-2l-9-9c-.531-.401-1-1-2-1h-10c-1 0-2 1-2 2z" fill="#323232" stroke="#323232"/>
    <g transform="translate(5 8)">
            <path d="M4 3c-.554 0-1 .446-1 1v14c0 .554.446 1 1 1h11c.554 0 1-.446 1-1v-1h2c.554 0 1-.446 1-1v-3a.975.975 0 0 0-.152-.5A.975.975 0 0 0 19 12V9a.975.975 0 0 0-.152-.5A.975.975 0 0 0 19 8V5c0-.554-.446-1-1-1h-2c0-.554-.446-1-1-1H4zm0 1h11v14H4V4zm1 1v3h9V5H5zm11 0h2v3h-2V5zm0 4h2v3h-2V9zM5 10v1h9v-1H5zm0 2v1h9v-1H5zm11 1h2v3h-2v-3zM5 14v1h9v-1H5zm0 2v1h9v-1H5z" fill="#FE198C"/>

    </g>
    <path fill="#FE198C" d="M7 31h19v1H7z"/>
</svg>
