<?xml version="1.0" encoding="UTF-8" standalone="no"?>
<svg
   width="16"
   height="16"
   version="1.1"
   id="svg1"
   sodipodi:docname="input-touchpad-symbolic.svg"
   inkscape:version="1.3 (0e150ed6c4, 2023-07-21)"
   xmlns:inkscape="http://www.inkscape.org/namespaces/inkscape"
   xmlns:sodipodi="http://sodipodi.sourceforge.net/DTD/sodipodi-0.dtd"
   xmlns:xlink="http://www.w3.org/1999/xlink"
   xmlns="http://www.w3.org/2000/svg"
   xmlns:svg="http://www.w3.org/2000/svg">
  <defs
     id="defs1">
    <linearGradient
       id="linearGradient1"
       inkscape:collect="always">
      <stop
         style="stop-color:#00ccff;stop-opacity:1;"
         offset="0"
         id="stop1" />
      <stop
         style="stop-color:#e580ff;stop-opacity:1;"
         offset="1"
         id="stop2" />
    </linearGradient>
    <linearGradient
       inkscape:collect="always"
       xlink:href="#linearGradient1"
       id="linearGradient2"
       x1="1192.99"
       y1="89.004"
       x2="1207.99"
       y2="89.004"
       gradientUnits="userSpaceOnUse" />
  </defs>
  <sodipodi:namedview
     id="namedview1"
     pagecolor="#ffffff"
     bordercolor="#000000"
     borderopacity="0.25"
     inkscape:showpageshadow="2"
     inkscape:pageopacity="0.0"
     inkscape:pagecheckerboard="0"
     inkscape:deskcolor="#d1d1d1"
     inkscape:zoom="47.9375"
     inkscape:cx="8"
     inkscape:cy="8"
     inkscape:window-width="1920"
     inkscape:window-height="994"
     inkscape:window-x="0"
     inkscape:window-y="0"
     inkscape:window-maximized="1"
     inkscape:current-layer="svg1" />
  <g
     transform="translate(-1193 -80.993)"
     id="g1">
    <path
       d="M1194.49 82.004c-.822 0-1.5.678-1.5 1.5v11c0 .822.678 1.5 1.5 1.5h12c.823 0 1.5-.678 1.5-1.5v-11c0-.822-.677-1.5-1.5-1.5zm0 1h12c.286 0 .5.214.5.5V92h-13v-8.496c0-.286.215-.5.5-.5zm-.5 9.996h6.01v2.004h-5.51a.488.488 0 0 1-.5-.5zm7.01 0h5.99v1.504c0 .286-.214.5-.5.5H1201z"
       font-family="sans-serif"
       font-weight="400"
       overflow="visible"
       style="font-feature-settings:normal;font-variant-alternates:normal;font-variant-caps:normal;font-variant-ligatures:normal;font-variant-numeric:normal;font-variant-position:normal;isolation:auto;mix-blend-mode:normal;shape-padding:0;text-decoration-color:#000;text-decoration-line:none;text-decoration-style:solid;text-indent:0;text-orientation:mixed;text-transform:none;fill:url(#linearGradient2)"
       white-space="normal"
       id="path1" />
  </g>
</svg>
