<?xml version="1.0" encoding="UTF-8" standalone="no"?>
<svg
   width="32"
   height="32"
   version="1.1"
   id="svg1"
   sodipodi:docname="applications-all-symbolic.svg"
   inkscape:version="1.3.2 (091e20ef0f, 2023-11-25)"
   xmlns:inkscape="http://www.inkscape.org/namespaces/inkscape"
   xmlns:sodipodi="http://sodipodi.sourceforge.net/DTD/sodipodi-0.dtd"
   xmlns="http://www.w3.org/2000/svg"
   xmlns:svg="http://www.w3.org/2000/svg">
  <defs
     id="defs1" />
  <sodipodi:namedview
     id="namedview1"
     pagecolor="#ffffff"
     bordercolor="#000000"
     borderopacity="0.25"
     inkscape:showpageshadow="2"
     inkscape:pageopacity="0.0"
     inkscape:pagecheckerboard="0"
     inkscape:deskcolor="#d1d1d1"
     inkscape:zoom="5.9921875"
     inkscape:cx="15.853977"
     inkscape:cy="15.436767"
     inkscape:window-width="1920"
     inkscape:window-height="994"
     inkscape:window-x="0"
     inkscape:window-y="0"
     inkscape:window-maximized="1"
     inkscape:current-layer="svg1" />
  <style
     type="text/css"
     id="current-color-scheme">
      .ColorScheme-Text {
        color:#31363b;
      }
      .ColorScheme-Background{
        color:#E9E8E8;
      }
      .ColorScheme-ViewText {
        color:#31363b;
      }
      .ColorScheme-ViewBackground{
        color:#ffffff;
      }
      .ColorScheme-ViewHover {
        color:#000000;
      }
      .ColorScheme-ViewFocus{
        color:#5a5a5a;
      }
      .ColorScheme-ButtonText {
        color:#31363b;
      }
      .ColorScheme-ButtonBackground{
        color:#E9E8E8;
      }
      .ColorScheme-ButtonHover {
        color:#1489ff;
      }
      .ColorScheme-ButtonFocus{
        color:#2B74C7;
      }
</style>
  <g
     transform="matrix(1.0000028,0,0,1.0000009,-412.71557,-575.7912)"
     id="applications-other">
    <rect
       style="opacity:0.01;fill:#000000;fill-opacity:0.00392157;stroke:none"
       id="rect2994"
       width="32"
       height="32"
       x="-7.1557004e-08"
       y="-7.9999948"
       transform="matrix(0.99999706,0,0,0.99999899,420.71433,524.79072)" />
    <path
       style="fill:currentColor;fill-opacity:1;stroke:none"
       d="m 424.71433,520.79075 v 9.99995 l 9.99995,10e-6 v -9.99994 z m 13.99994,2e-5 v 9.99994 l 9.99998,-10e-6 v -9.99995 z m -12.99995,0.99994 h 7.99998 v 7.99999 h -7.99998 z m 13.99996,0 h 7.99998 v 7.99999 h -7.99998 z m -14.99995,13 v 9.99998 l 9.99995,2e-5 v -9.99998 z m 13.99994,2e-5 v 9.99998 l 1.99999,-2e-5 h 5.99999 2 v -1.99998 -5.99999 -2.00001 h -2 -5.99999 z m -12.99995,0.99997 h 7.99998 v 7.99999 h -7.99998 z m 13.99996,0 h 7.99998 v 7.99999 h -7.99998 z"
       id="path2996"
       class="ColorScheme-Text" />
  </g>
  <g
     id="applications-other-5">
    <path
       style="clip-rule:evenodd;fill:#ffffc1;fill-opacity:0;fill-rule:evenodd;stroke-width:1.00213;stroke-linejoin:round;stroke-miterlimit:1.41421"
       d="M 0,0 V 32 H 32 V 0 Z"
       id="rect817"
       inkscape:connector-curvature="0" />
    <path
       d="m 12.742642,10.00006 h -0.34326 C 11.074252,10.00006 10,11.074482 10,12.399874 v 0.343308 c 0,0.636596 0.252938,1.24713 0.703067,1.697127 0.450177,0.450094 1.060632,0.702821 1.697122,0.702559 h 2.742591 v -2.743013 c 0,-0.636595 -0.25282,-1.247134 -0.702971,-1.697301 -0.449972,-0.449785 -1.060192,-0.702512 -1.69637,-0.702512 H 12.7426"
       stroke-width="0.428579"
       id="path2618-3-2"
       style="fill:#b44bcd;fill-opacity:1" />
    <path
       d="m 12.399782,16.857159 c -0.636562,0 -1.247233,0.252931 -1.697224,0.703111 -0.450033,0.45013 -0.702725,1.060619 -0.702548,1.697131 v 0.343252 c 0,0.636293 0.252859,1.246618 0.702852,1.696614 C 11.1529,21.747178 11.763319,22 12.399731,22 h 0.343619 c 0.636595,0 1.247053,-0.253051 1.697049,-0.703254 0.449993,-0.45003 0.702593,-1.060529 0.702462,-1.697046 v -2.742581 z"
       stroke-width="0.428579"
       id="path2620-6-0"
       style="fill:#b44bcd;fill-opacity:1"
       sodipodi:nodetypes="cccscsscccc" />
    <path
       d="m 19.599721,16.857159 h -2.742496 v 2.743439 c 0,0.636502 0.252892,1.246793 0.703075,1.696789 0.450149,0.449988 1.060615,0.702715 1.697131,0.702501 h 0.343233 c 0.636299,0 1.246634,-0.252809 1.696631,-0.702715 0.449906,-0.449987 0.702764,-1.060276 0.702764,-1.696625 v -0.34323 c 0,-0.636716 -0.252591,-1.247225 -0.702764,-1.697485 -0.449986,-0.449901 -1.060376,-0.702666 -1.696631,-0.702714 h -8.39e-4"
       stroke-width="0.428579"
       id="path2622-7-6"
       style="fill:#b44bcd;fill-opacity:1" />
    <path
       d="m 19.256867,10.00006 h -5.99e-4 c -0.636466,0 -1.246867,0.253004 -1.696944,0.703151 -0.44997,0.450169 -0.702722,1.060618 -0.702435,1.697047 v 2.742584 h 2.743021 c 0.636595,0 1.247049,-0.252889 1.697126,-0.703067 0.450127,-0.450175 0.702801,-1.060628 0.702644,-1.697224 V 12.399298 C 21.99968,11.07417 20.925242,10 19.599859,10 h -0.343298 z"
       stroke-width="0.428579"
       id="path2624-5-8"
       style="fill:#b44bcd;fill-opacity:1"
       sodipodi:nodetypes="cscccsccsscc" />
    <path
       d="m 7.5085836,7.5254475 c -4.716385,4.7193815 -4.677798,12.4225535 0.115759,17.0930905 4.4649734,4.350407 11.6601294,4.52822 16.3200594,0.387626 4.083077,-3.628021 5.166692,-9.408252 2.869588,-14.181245 -0.275697,-0.572846 -0.997441,-0.769523 -1.540581,-0.439586 -0.486977,0.295855 -0.651575,0.910669 -0.406768,1.425426 1.892679,3.979621 0.921547,8.803616 -2.584012,11.747197 C 18.7269,26.543691 13.451318,26.59392 9.8423556,23.672829 5.2395736,19.947334 4.9758336,13.146865 9.0511616,9.0689695 12.021171,6.0970645 16.481085,5.3636475 20.201013,7.1385675 c 0.51137,0.243975 1.122468,0.07613 1.416486,-0.408462 l 0.002,-0.0032 c 0.328743,-0.541829 0.135279,-1.262562 -0.435316,-1.537847 -4.556606,-2.198173 -10.032948,-1.308474 -13.6755704,2.336442 z"
       id="path1-0"
       style="fill:#b44bcd;fill-opacity:1;stroke-width:0.436438" />
  </g>
</svg>
