<?xml version="1.0" encoding="UTF-8"?>
<svg xmlns="http://www.w3.org/2000/svg" xmlns:xlink="http://www.w3.org/1999/xlink" xmlns:cc="http://creativecommons.org/ns#" xmlns:dc="http://purl.org/dc/elements/1.1/" xmlns:rdf="http://www.w3.org/1999/02/22-rdf-syntax-ns#" xmlns:inkscape="http://www.inkscape.org/namespaces/inkscape" xmlns:sodipodi="http://sodipodi.sourceforge.net/DTD/sodipodi-0.dtd" width="32" height="32">
    <style type="text/css" id="current-color-scheme">
        .ColorScheme-Text {
            color:#eff0f1;
        }
        .ColorScheme-Background {
            color:#eff0f1;
        }
    </style>
    <g id="32-32-user-desktop" transform="translate(-260) translate(260,0)">
        <path id="rect844" d="m0 0h32v32h-32z" fill="none"/>
        <path id="path819" class="ColorScheme-Text" d="m 4,8 c 0,4 0,12 0,16 0,4 4,4 4,4 h 16 c 0,0 4,0 4,-4 C 28,20 28,12 28,8 28,4 24,4 24,4 H 8 C 8,4 4,4 4,8 Z M 5,8 C 5,5 8,5 8,5 h 16 c 0,0 3,0 3,3 0,3 0,13 0,16 0,3 -3,3 -3,3 L 8,27 C 8,27 5,27 5,24 5,21 5,11 5,8 Z m 2,16 v 1 h 18 v -1 z" fill="currentColor"/>
    </g>
</svg>
