<?xml version="1.0" encoding="UTF-8" standalone="no"?>
<svg
   width="64"
   height="64"
   viewBox="0 0 64 64"
   version="1.1"
   id="svg51"
   sodipodi:docname="user-trash-full.svg"
   inkscape:version="1.3.2 (091e20ef0f, 2023-11-25)"
   xmlns:inkscape="http://www.inkscape.org/namespaces/inkscape"
   xmlns:sodipodi="http://sodipodi.sourceforge.net/DTD/sodipodi-0.dtd"
   xmlns:xlink="http://www.w3.org/1999/xlink"
   xmlns="http://www.w3.org/2000/svg"
   xmlns:svg="http://www.w3.org/2000/svg"
   xmlns:rdf="http://www.w3.org/1999/02/22-rdf-syntax-ns#"
   xmlns:cc="http://creativecommons.org/ns#"
   xmlns:dc="http://purl.org/dc/elements/1.1/">
  <metadata
     id="metadata55">
    <rdf:RDF>
      <cc:Work
         rdf:about="">
        <dc:format>image/svg+xml</dc:format>
        <dc:type
           rdf:resource="http://purl.org/dc/dcmitype/StillImage" />
      </cc:Work>
    </rdf:RDF>
  </metadata>
  <sodipodi:namedview
     pagecolor="#ffffff"
     bordercolor="#666666"
     borderopacity="1"
     objecttolerance="10"
     gridtolerance="10"
     guidetolerance="10"
     inkscape:pageopacity="0"
     inkscape:pageshadow="2"
     inkscape:window-width="1920"
     inkscape:window-height="994"
     id="namedview53"
     showgrid="false"
     inkscape:zoom="7.375"
     inkscape:cx="28.20339"
     inkscape:cy="40.745763"
     inkscape:window-x="0"
     inkscape:window-y="0"
     inkscape:window-maximized="1"
     inkscape:current-layer="svg51"
     showguides="false"
     inkscape:showpageshadow="2"
     inkscape:pagecheckerboard="0"
     inkscape:deskcolor="#d1d1d1" />
  <defs
     id="defs43">
    <linearGradient
       inkscape:collect="always"
       id="linearGradient888">
      <stop
         style="stop-color:#ffffff;stop-opacity:1"
         offset="0"
         id="stop884" />
      <stop
         style="stop-color:#bfc6dc;stop-opacity:0"
         offset="1"
         id="stop886" />
    </linearGradient>
    <linearGradient
       inkscape:collect="always"
       id="linearGradient878">
      <stop
         style="stop-color:#d6dae8;stop-opacity:0;"
         offset="0"
         id="stop874" />
      <stop
         style="stop-color:#ffffff;stop-opacity:0.44999999;"
         offset="1"
         id="stop876" />
    </linearGradient>
    <filter
       id="user-trash-empty-opened-64px-a"
       width="130.8%"
       height="130.8%"
       x="-15.4%"
       y="-15.4%"
       filterUnits="objectBoundingBox">
      <feOffset
         dy="1"
         in="SourceAlpha"
         result="shadowOffsetOuter1"
         id="feOffset2" />
      <feGaussianBlur
         in="shadowOffsetOuter1"
         result="shadowBlurOuter1"
         stdDeviation="1.5"
         id="feGaussianBlur4" />
      <feComposite
         in="shadowBlurOuter1"
         in2="SourceAlpha"
         operator="out"
         result="shadowBlurOuter1"
         id="feComposite6" />
      <feColorMatrix
         in="shadowBlurOuter1"
         result="shadowMatrixOuter1"
         values="0 0 0 0 0   0 0 0 0 0   0 0 0 0 0  0 0 0 0.2 0"
         id="feColorMatrix8" />
      <feMerge
         id="feMerge14">
        <feMergeNode
           in="shadowMatrixOuter1"
           id="feMergeNode10" />
        <feMergeNode
           in="SourceGraphic"
           id="feMergeNode12" />
      </feMerge>
    </filter>
    <path
       id="user-trash-empty-opened-64px-b"
       d="M2.3801021,0 L49.6198979,-1.33226763e-15 C50.7433101,-5.52979683e-15 51.6540156,0.910705491 51.6540156,2.03411765 C51.6540156,2.14024369 51.6457102,2.24620699 51.6291756,2.35103705 L44.8163767,45.5443675 C44.2300339,49.2617969 41.0260879,52 37.2627013,52 L14.7372987,52 C10.9739121,52 7.76996614,49.2617969 7.18362333,45.5443675 L0.370824441,2.35103705 C0.195794687,1.24134364 0.953489284,0.199869747 2.06318269,0.0248399925 C2.16801275,0.00830535314 2.27397605,1.94950375e-17 2.3801021,0 Z" />
    <filter
       id="user-trash-empty-opened-64px-c"
       width="141%"
       height="142.3%"
       x="-20.5%"
       y="-21.2%"
       filterUnits="objectBoundingBox">
      <feMorphology
         in="SourceAlpha"
         radius="6"
         result="shadowSpreadInner1"
         id="feMorphology18" />
      <feGaussianBlur
         in="shadowSpreadInner1"
         result="shadowBlurInner1"
         stdDeviation="5"
         id="feGaussianBlur20" />
      <feOffset
         dy="-6"
         in="shadowBlurInner1"
         result="shadowOffsetInner1"
         id="feOffset22" />
      <feComposite
         in="shadowOffsetInner1"
         in2="SourceAlpha"
         k2="-1"
         k3="1"
         operator="arithmetic"
         result="shadowInnerInner1"
         id="feComposite24"
         k1="0"
         k4="0" />
      <feColorMatrix
         in="shadowInnerInner1"
         result="shadowMatrixInner1"
         values="0 0 0 0 1   0 0 0 0 1   0 0 0 0 1  0 0 0 0.6 0"
         id="feColorMatrix26" />
      <feGaussianBlur
         in="SourceAlpha"
         result="shadowBlurInner2"
         stdDeviation=".5"
         id="feGaussianBlur28" />
      <feOffset
         dy="1"
         in="shadowBlurInner2"
         result="shadowOffsetInner2"
         id="feOffset30" />
      <feComposite
         in="shadowOffsetInner2"
         in2="SourceAlpha"
         k2="-1"
         k3="1"
         operator="arithmetic"
         result="shadowInnerInner2"
         id="feComposite32"
         k1="0"
         k4="0" />
      <feColorMatrix
         in="shadowInnerInner2"
         result="shadowMatrixInner2"
         values="0 0 0 0 1   0 0 0 0 1   0 0 0 0 1  0 0 0 0.6 0"
         id="feColorMatrix34" />
      <feMerge
         id="feMerge40">
        <feMergeNode
           in="shadowMatrixInner1"
           id="feMergeNode36" />
        <feMergeNode
           in="shadowMatrixInner2"
           id="feMergeNode38" />
      </feMerge>
    </filter>
    <radialGradient
       inkscape:collect="always"
       xlink:href="#linearGradient878"
       id="radialGradient880"
       cx="-40.551296"
       cy="28.676498"
       fx="-40.551296"
       fy="28.676498"
       r="25.708008"
       gradientTransform="matrix(1,0,0,1.0492991,71.909305,-1.01557)"
       gradientUnits="userSpaceOnUse" />
    <linearGradient
       inkscape:collect="always"
       xlink:href="#linearGradient888"
       id="linearGradient890"
       x1="-34.619274"
       y1="5.9046426"
       x2="-34.619274"
       y2="8.5892534"
       gradientUnits="userSpaceOnUse"
       gradientTransform="translate(71.909164,2.3010928)" />
    <radialGradient
       inkscape:collect="always"
       xlink:href="#linearGradient878-6"
       id="radialGradient880-3"
       cx="-40.551296"
       cy="24.290535"
       fx="-40.551296"
       fy="24.290535"
       r="25.708008"
       gradientTransform="matrix(0.16563806,0,0,0.203456,40.672211,33.862092)"
       gradientUnits="userSpaceOnUse" />
    <linearGradient
       inkscape:collect="always"
       id="linearGradient878-6">
      <stop
         style="stop-color:#bec4db;stop-opacity:0"
         offset="0"
         id="stop874-7" />
      <stop
         style="stop-color:#ffffff;stop-opacity:0.59929079"
         offset="1"
         id="stop876-5" />
    </linearGradient>
    <linearGradient
       inkscape:collect="always"
       xlink:href="#linearGradient888"
       id="linearGradient890-3"
       x1="-34.619274"
       y1="5.9046426"
       x2="-34.619274"
       y2="8.5892534"
       gradientUnits="userSpaceOnUse"
       gradientTransform="matrix(0.16563806,0,0,0.16563806,40.672211,35.221598)" />
    <linearGradient
       gradientUnits="userSpaceOnUse"
       gradientTransform="matrix(0.17071366,0,0,0.16071336,28.715906,34.91233)"
       id="user-trash-64px-d"
       x1="42.694286"
       x2="18.435099"
       y1="33.899948"
       y2="33.899948">
      <stop
         offset="0%"
         stop-color="#9BAF03"
         id="stop43" />
      <stop
         offset="45.365%"
         stop-color="#4F6A00"
         id="stop45" />
      <stop
         offset="100%"
         stop-color="#A7BB00"
         id="stop47" />
    </linearGradient>
  </defs>
  <path
     style="opacity:0.57;fill:url(#linearGradient890);fill-opacity:1;stroke:none;stroke-width:1.5;stroke-linecap:round;stroke-miterlimit:4;stroke-dasharray:none;stroke-opacity:1"
     d="m 7.351031,7.3094035 c -0.94254,0 -1.70117,0.7586351 -1.70117,1.7011724 l 6.91601,43.6152341 c 0,3.721927 2.996827,6.716797 6.718754,6.716797 H 31.356891 43.43111 c 3.721927,0 6.718749,-2.99487 6.71875,-6.716797 L 57.065875,9.0105759 c 0,-0.9425373 -0.758635,-1.7011724 -1.701172,-1.7011724 H 31.356891 Z"
     id="path882"
     inkscape:connector-curvature="0" />
  <path
     style="opacity:1;fill:#bdc5db;fill-opacity:0.80784314;stroke:none;stroke-width:1.5;stroke-linecap:round;stroke-miterlimit:4;stroke-dasharray:none;stroke-opacity:1"
     d="m 7.351031,7.309404 c -0.942537,0 -1.701172,0.7586351 -1.701172,1.7011719 L 12.565875,52.62581 c 0,3.721927 2.996823,6.716797 6.71875,6.716797 H 31.356891 43.43111 c 3.721927,0 6.718749,-2.99487 6.71875,-6.716797 L 57.065875,9.0105759 c 0,-0.9425368 -0.758635,-1.7011719 -1.701172,-1.7011719 H 31.356891 Z"
     id="rect864"
     inkscape:connector-curvature="0" />
  <path
     inkscape:connector-curvature="0"
     id="rect864-2"
     d="m 29.978927,36.051165 c -0.15612,0 -0.281779,0.125659 -0.281779,0.28178 l 1.145556,7.224342 c 0,0.616493 0.496388,1.112558 1.11288,1.112558 h 1.999627 1.99995 c 0.616493,0 1.112881,-0.496065 1.112881,-1.112558 l 1.145555,-7.224342 c 0,-0.156121 -0.125659,-0.28178 -0.281779,-0.28178 h -3.976607 z"
     style="fill:#bdc5db;fill-opacity:0.807843;stroke:none;stroke-width:0.248457;stroke-linecap:round;stroke-miterlimit:4;stroke-dasharray:none;stroke-opacity:1" />
  <path
     id="rect1685"
     d="m 15.458984,37.183594 c -1.270848,-0.01907 -2.511136,0.733424 -3.099609,2.013672 L 10.929688,42.306641 12.566406,52.625 c 0,1.964536 0.840004,3.721339 2.175782,4.947266 l 3.736328,1.71875 c 0.264691,0.03142 0.533222,0.05078 0.80664,0.05078 h 12.072266 8.982422 l 2.763672,-6.011719 c 0.784631,-1.706996 0.104127,-3.684576 -1.525391,-4.433594 L 16.716797,37.46875 c -0.40738,-0.187254 -0.834197,-0.2788 -1.257813,-0.285156 z"
     style="fill:#6c763f;fill-opacity:1;stroke:none;stroke-width:0.248457;stroke-linecap:round;stroke-miterlimit:4;stroke-dasharray:none;stroke-opacity:1" />
  <path
     style="fill:url(#radialGradient880-3);fill-opacity:1;stroke:none;stroke-width:0.248457;stroke-linecap:round;stroke-miterlimit:4;stroke-dasharray:none;stroke-opacity:1"
     d="m 29.978927,36.051165 c -0.15612,0 -0.281779,0.125659 -0.281779,0.28178 l 1.145556,7.224342 c 0,0.616493 0.496388,1.112558 1.11288,1.112558 h 1.999627 1.99995 c 0.616493,0 1.112881,-0.496065 1.112881,-1.112558 l 1.145555,-7.224342 c 0,-0.156121 -0.125659,-0.28178 -0.281779,-0.28178 h -3.976607 z"
     id="path872-9"
     inkscape:connector-curvature="0" />
  <path
     inkscape:connector-curvature="0"
     id="path882-1"
     d="m 29.978927,36.051165 c -0.156121,0 -0.281779,0.125659 -0.281779,0.28178 l 1.145555,7.224342 c 0,0.616493 0.496389,1.112558 1.112881,1.112558 h 1.999627 1.99995 c 0.616493,0 1.112881,-0.496065 1.112881,-1.112558 l 1.145555,-7.224342 c 0,-0.156121 -0.125659,-0.28178 -0.281779,-0.28178 h -3.976607 z"
     style="opacity:0.57;fill:url(#linearGradient890-3);fill-opacity:1;stroke:none;stroke-width:0.248457;stroke-linecap:round;stroke-miterlimit:4;stroke-dasharray:none;stroke-opacity:1" />
  <path
     id="path58"
     d="m 34.047011,38.952141 c -0.463438,-0.93291 -0.950937,-0.181683 -0.950937,-0.181683 l -0.369634,0.639292 0.760889,0.433793 z m 1.64557,-0.285793 -0.410085,0.226593 -0.150294,-0.258914 c 0,0 -0.116121,-0.269462 -0.689055,-0.241224 0,0 -0.709977,0.01939 -0.783904,0.0061 0,0 0.201207,0.03879 0.301287,0.19087 l 0.453326,0.782527 -0.331277,0.182364 1.111693,0.02348 z m -2.724833,2.256403 c -0.575025,0.870646 0.336507,0.887318 0.336507,0.887318 l 0.750776,-0.02416 -0.01499,-0.859759 z m -1.104719,-1.222785 0.41148,0.223871 -0.149248,0.259595 c 0,0 -0.175054,0.23748 0.147505,0.699511 0,0 0.386721,0.582473 0.412526,0.65086 0,0 -0.07079,-0.187807 0.01046,-0.350437 l 0.449838,-0.78457 0.332323,0.180663 -0.55759,-0.938353 z m 3.468636,1.092477 c 1.059735,0.06532 0.629773,-0.718566 0.629773,-0.718566 l -0.388116,-0.628402 -0.761586,0.43277 z m -1.123898,0.665829 0.5684,-0.932569 v 0.371871 h 0.920948 c 0.185166,-0.0102 0.318722,-0.162291 0.318722,-0.162291 -0.04847,0.05512 -0.381142,0.668891 -0.381142,0.668891 -0.255954,0.500138 -0.553754,0.466797 -0.553754,0.466797 h -0.304774 v 0.459309 z"
     style="fill:url(#user-trash-64px-d);stroke-width:0.165638"
     inkscape:connector-curvature="0" />
  <path
     id="rect904"
     d="m 25.880859,29.785156 c -1.261417,-0.02928 -2.472317,0.685135 -3.023437,1.91211 l -9.847656,21.925781 c -0.104071,0.231694 -0.171699,0.468508 -0.21875,0.707031 0.518614,1.991909 1.918318,3.617714 3.767578,4.435547 l 0.140625,0.06445 c 0.795108,0.329784 1.668775,0.511719 2.585937,0.511719 h 7.072266 l 9.74414,-21.695313 c 0.734828,-1.635966 0.009,-3.544469 -1.626953,-4.279296 l -7.33789,-3.296876 c -0.408992,-0.183706 -0.835387,-0.275395 -1.25586,-0.285156 z"
     style="fill:#adbd6a;fill-opacity:1;stroke:none;stroke-width:0.248457;stroke-linecap:round;stroke-miterlimit:4;stroke-dasharray:none;stroke-opacity:1" />
  <rect
     id="rect894"
     width="14.098516"
     height="23.298159"
     x="43.48082"
     y="-23.069117"
     rx="3.2372215"
     ry="3.2372215"
     transform="rotate(52.290679)"
     style="fill:#00ccff;fill-opacity:1" />
  <rect
     ry="3.2372215"
     rx="3.2372215"
     y="10.604449"
     x="25.845184"
     height="24.77466"
     width="16.008244"
     id="rect892"
     transform="rotate(22.183022)"
     style="fill:#9955ff;fill-opacity:1" />
  <path
     id="rect910"
     d="m 27.267578,30.566406 c -1.258139,-0.09549 -2.504345,0.555614 -3.11914,1.751953 L 13.162109,53.695312 c -0.154034,0.299739 -0.241674,0.613128 -0.296875,0.927735 0.846948,2.739863 3.394364,4.71875 6.419922,4.71875 h 7.300782 L 37.0625,38.955078 c 0.819727,-1.595119 0.194728,-3.539647 -1.400391,-4.359375 l -7.154297,-3.677734 c -0.398779,-0.204932 -0.820854,-0.319734 -1.240234,-0.351563 z"
     style="fill:#37c871" />
  <path
     id="rect906"
     d="m 15.462891,30.326172 c -1.036295,0.06513 -2.020643,0.628946 -2.587891,1.595703 l -2.828125,4.818359 1.15625,7.28125 19.484375,11.433594 c 1.546811,0.907597 3.52209,0.392515 4.429688,-1.154297 l 4.072265,-6.939453 c 0.907597,-1.546811 0.392515,-3.52209 -1.154297,-4.429687 L 17.304688,30.767578 c -0.580055,-0.340349 -1.22002,-0.480485 -1.841797,-0.441406 z"
     style="fill:#e580ff" />
  <rect
     transform="rotate(114.68616)"
     ry="3.2372215"
     rx="3.2372215"
     y="-54.264416"
     x="23.793749"
     height="23.298161"
     width="14.098516"
     id="rect896"
     style="fill:#ff9955" />
  <path
     id="rect898"
     d="m 48.691406,30.892578 c -1.258138,-0.09549 -2.506298,0.553661 -3.121094,1.75 L 34.585938,54.021484 c -0.819728,1.595119 -0.196682,3.539648 1.398437,4.359375 l 1.871094,0.960938 h 5.576172 c 3.721927,0 6.718749,-2.99487 6.71875,-6.716797 l 3.11914,-19.666016 -3.339843,-1.714843 c -0.39878,-0.204932 -0.818902,-0.319734 -1.238282,-0.351563 z"
     style="fill:#ff4343;fill-opacity:1" />
  <path
     inkscape:connector-curvature="0"
     id="path872"
     d="M 7.351172,7.852 C 6.408635,7.852 5.65,8.610635 5.65,9.553172 l 6.916016,43.615238 c 0,3.72192 2.996823,6.71679 6.71875,6.71679 h 12.072266 12.07422 c 3.721927,0 6.718748,-2.99487 6.718749,-6.71679 L 57.066016,9.553172 C 57.066016,8.610635 56.307381,7.852 55.364844,7.852 H 31.357032 Z"
     style="opacity:1;fill:url(#radialGradient880);fill-opacity:1;stroke:none;stroke-width:1.5;stroke-linecap:round;stroke-miterlimit:4;stroke-dasharray:none;stroke-opacity:1" />
</svg>
