<?xml version="1.0" encoding="UTF-8" standalone="no"?>
<svg
   width="16"
   height="16"
   viewBox="0 0 16 16"
   fill="none"
   version="1.1"
   id="svg1"
   sodipodi:docname="kate-symbolic.svg"
   inkscape:version="1.3.2 (091e20ef0f, 2023-11-25)"
   xmlns:inkscape="http://www.inkscape.org/namespaces/inkscape"
   xmlns:sodipodi="http://sodipodi.sourceforge.net/DTD/sodipodi-0.dtd"
   xmlns:xlink="http://www.w3.org/1999/xlink"
   xmlns="http://www.w3.org/2000/svg"
   xmlns:svg="http://www.w3.org/2000/svg">
  <defs
     id="defs1">
    <linearGradient
       id="linearGradient2"
       inkscape:collect="always">
      <stop
         style="stop-color:#9955ff;stop-opacity:1"
         offset="0"
         id="stop2" />
      <stop
         style="stop-color:#bb8dff;stop-opacity:1;"
         offset="1"
         id="stop3" />
    </linearGradient>
    <linearGradient
       inkscape:collect="always"
       xlink:href="#linearGradient2"
       id="linearGradient1"
       gradientUnits="userSpaceOnUse"
       x1="38"
       y1="26"
       x2="52"
       y2="11"
       gradientTransform="matrix(0.72727273,0,0,0.72727273,-23.272727,-7.2727273)" />
    <linearGradient
       inkscape:collect="always"
       xlink:href="#linearGradient2"
       id="linearGradient3"
       gradientUnits="userSpaceOnUse"
       x1="38"
       y1="26"
       x2="52"
       y2="11"
       gradientTransform="matrix(0.73692428,0,0,0.75,-23.684949,-7.8649714)" />
    <linearGradient
       inkscape:collect="always"
       xlink:href="#linearGradient2"
       id="linearGradient4"
       gradientUnits="userSpaceOnUse"
       x1="38"
       y1="26"
       x2="52"
       y2="11"
       gradientTransform="matrix(0.73692428,0,0,0.75,-23.684949,-7.8649714)" />
    <linearGradient
       inkscape:collect="always"
       xlink:href="#linearGradient2"
       id="linearGradient6"
       gradientUnits="userSpaceOnUse"
       x1="38"
       y1="26"
       x2="52"
       y2="11"
       gradientTransform="matrix(0.73692428,0,0,0.75,-23.684949,-7.8649714)" />
    <linearGradient
       inkscape:collect="always"
       xlink:href="#linearGradient2"
       id="linearGradient7"
       gradientUnits="userSpaceOnUse"
       x1="38"
       y1="26"
       x2="52"
       y2="11"
       gradientTransform="matrix(0.73692428,0,0,0.75,-23.684949,-7.8649714)" />
    <linearGradient
       inkscape:collect="always"
       xlink:href="#linearGradient2"
       id="linearGradient8"
       gradientUnits="userSpaceOnUse"
       x1="38"
       y1="26"
       x2="52"
       y2="11"
       gradientTransform="matrix(0.73692428,0,0,0.75,-23.684949,-7.8649714)" />
    <linearGradient
       inkscape:collect="always"
       xlink:href="#linearGradient2"
       id="linearGradient9"
       gradientUnits="userSpaceOnUse"
       x1="38"
       y1="26"
       x2="52"
       y2="11"
       gradientTransform="matrix(0.73692428,0,0,0.75,-23.684949,-7.8649714)" />
    <linearGradient
       inkscape:collect="always"
       xlink:href="#linearGradient2"
       id="linearGradient10"
       gradientUnits="userSpaceOnUse"
       x1="38"
       y1="26"
       x2="52"
       y2="11"
       gradientTransform="matrix(0.73692428,0,0,0.75,-23.684949,-7.8649714)" />
    <linearGradient
       inkscape:collect="always"
       xlink:href="#linearGradient2"
       id="linearGradient11"
       gradientUnits="userSpaceOnUse"
       x1="38"
       y1="26"
       x2="52"
       y2="11"
       gradientTransform="matrix(0.73692428,0,0,0.75,-23.684949,-7.8649714)" />
  </defs>
  <sodipodi:namedview
     id="namedview1"
     pagecolor="#ffffff"
     bordercolor="#999999"
     borderopacity="1"
     inkscape:showpageshadow="2"
     inkscape:pageopacity="0"
     inkscape:pagecheckerboard="0"
     inkscape:deskcolor="#d1d1d1"
     inkscape:zoom="23.8125"
     inkscape:cx="6.9291339"
     inkscape:cy="8.6089239"
     inkscape:window-width="1920"
     inkscape:window-height="994"
     inkscape:window-x="0"
     inkscape:window-y="0"
     inkscape:window-maximized="1"
     inkscape:current-layer="svg1"
     showgrid="true">
    <inkscape:grid
       id="grid2"
       units="px"
       originx="0"
       originy="0"
       spacingx="1"
       spacingy="1"
       empcolor="#0099e5"
       empopacity="0.30196078"
       color="#0099e5"
       opacity="0.14901961"
       empspacing="5"
       dotted="false"
       gridanglex="30"
       gridanglez="30"
       visible="true" />
  </sodipodi:namedview>
  <style
     type="text/css"
     id="current-color-scheme">.ColorScheme-Text { color: #fcfcfc; } </style>
  <g
     id="g2">
    <rect
       style="opacity:0.00100002;fill:url(#linearGradient1);stroke-width:0.727273"
       width="16"
       height="16"
       x="3.6e-07"
       y="8.8817842e-16"
       id="rect2" />
    <path
       style="fill:url(#linearGradient3);fill-opacity:1;stroke:none;stroke-width:0.0373849;stroke-linecap:butt;stroke-linejoin:miter;stroke-miterlimit:4;stroke-dasharray:none;stroke-opacity:1"
       d="M 6.1537935,5.3386258 C 5.7056762,3.8245496 3.1732964,4.1919482 2.75,4.1590781 3.2251004,3.9190534 3.6544567,3.7212037 4.6339041,2.9990949 6.5207408,1.6080042 8.5184032,1.9113817 9.5187794,2.4638179 6.7838984,2.5696275 7.3049137,4.0860269 7.7077368,4.8850294 7.1954648,5.0364687 6.3868045,5.2650767 6.1537935,5.3386258 Z"
       id="path905-7"
       inkscape:connector-curvature="0" />
    <path
       sodipodi:nodetypes="cssscccccsssc"
       inkscape:connector-curvature="0"
       id="path907-5"
       d="M 12.904601,3.2551876 C 11.919772,4.579112 10.282388,6.3678256 8.4903645,6.6034443 6.6983396,6.8390627 4.9899343,6.5780415 4.5941975,7.9363382 4.2297617,9.1872069 5.5115226,10.355076 6.8409253,10.073606 8.2611441,9.7729018 7.9544269,8.134628 7.1776235,7.0190021 7.7676785,6.9845624 7.6579193,6.9934798 8.6585244,6.9421501 10.149982,8.2360142 10.644338,8.6049087 13.25,10.492645 11.242027,10.278612 10.511214,10.082093 9.071031,9.20535 c 0.373083,0.953094 1.170503,3.116237 1.343234,4.794651 C 9.583631,12.785244 9.2687258,12.338823 7.9814277,11.462458 6.3324817,10.33989 4.9970255,10.301892 4.2240851,8.6480046 3.4528127,6.9976946 4.4736948,5.8089124 6.3004885,5.2940867 8.9111096,4.5583618 11.160502,3.8608279 12.904601,3.2551876 Z"
       style="fill:url(#linearGradient4);fill-opacity:1;stroke:none;stroke-width:0.0373849;stroke-linecap:butt;stroke-linejoin:miter;stroke-miterlimit:4;stroke-dasharray:none;stroke-opacity:1" />
    <path
       sodipodi:nodetypes="cccc"
       inkscape:connector-curvature="0"
       id="path909-3"
       d="M 7.1776235,7.0190021 C 7.7676785,6.9845621 7.6579193,6.9934801 8.6585244,6.9421501 10.149982,8.2360141 10.644338,8.6049087 13.25,10.492644 10.630964,10.301963 8.6493213,9.5158268 7.1776235,7.0190021 Z"
       style="fill:url(#linearGradient6);fill-opacity:1;stroke:none;stroke-width:0.0373849;stroke-linecap:butt;stroke-linejoin:miter;stroke-miterlimit:4;stroke-dasharray:none;stroke-opacity:1" />
    <path
       style="fill:url(#linearGradient7);fill-opacity:1;stroke:none;stroke-width:0.0373849;stroke-linecap:butt;stroke-linejoin:miter;stroke-miterlimit:4;stroke-dasharray:none;stroke-opacity:1"
       d="M 12.904601,3.2551876 C 11.919772,4.579112 10.282388,6.3678256 8.4903645,6.6034443 6.6983396,6.8390627 4.9899343,6.5780415 4.5941975,7.9363382 4.2297617,9.1872069 5.5115226,10.355076 6.8409253,10.073606 8.2611441,9.7729018 7.9544269,8.134628 7.1776235,7.0190021 7.7676785,6.9845624 7.6579193,6.9934798 8.6585244,6.9421501 10.149982,8.2360142 10.644338,8.6049087 13.25,10.492645 11.242027,10.278612 10.511214,10.082093 9.071031,9.20535 c 0.373083,0.953094 1.170503,3.116237 1.343234,4.794651 C 9.583631,12.785244 9.2687258,12.338823 7.9814277,11.462458 6.3324817,10.33989 4.9970255,10.301892 4.2240851,8.6480046 3.4528127,6.9976946 4.4736948,5.8089124 6.3004885,5.2940867 8.9111096,4.5583618 11.160502,3.8608279 12.904601,3.2551876 Z"
       id="path911-5"
       inkscape:connector-curvature="0"
       sodipodi:nodetypes="cssscccccsssc" />
    <path
       style="fill:url(#linearGradient8);fill-opacity:1;stroke:none;stroke-width:0.0373849;stroke-linecap:butt;stroke-linejoin:miter;stroke-miterlimit:4;stroke-dasharray:none;stroke-opacity:1"
       d="M 7.1776235,7.0190021 C 7.7676785,6.9845621 7.6579193,6.9934801 8.6585244,6.9421501 10.149982,8.2360141 10.644338,8.6049087 13.25,10.492644 10.630964,10.301963 8.6493213,9.5158268 7.1776235,7.0190021 Z"
       id="path913-6"
       inkscape:connector-curvature="0"
       sodipodi:nodetypes="cccc" />
    <path
       sodipodi:nodetypes="ccccc"
       inkscape:connector-curvature="0"
       id="path915-2"
       d="M 2.75,4.1590781 C 3.2251004,3.9190534 3.6544567,3.7212037 4.6339041,2.9990949 6.5207408,1.6080042 8.5184032,1.9113817 9.5187794,2.4638179 6.7838984,2.5696275 7.1362803,3.1242162 7.1261869,3.558982 5.3091262,3.1691723 4.7785833,3.6995444 2.75,4.1590781 Z"
       style="fill:url(#linearGradient9);fill-opacity:1;stroke:none;stroke-width:0.0373849;stroke-linecap:butt;stroke-linejoin:miter;stroke-miterlimit:4;stroke-dasharray:none;stroke-opacity:1" />
    <path
       inkscape:connector-curvature="0"
       id="path917-9"
       d="M 9.5187794,2.4638179 C 6.7838984,2.5696275 7.3049137,4.0860269 7.7077368,4.8850294 7.3885919,4.9793753 7.0426844,5.0868568 6.6160533,5.2017706 4.8946404,2.0800811 8.1138005,1.673968 9.5187794,2.4638179 Z"
       style="fill:url(#linearGradient10);fill-opacity:1;stroke:none;stroke-width:0.0373849;stroke-linecap:butt;stroke-linejoin:miter;stroke-miterlimit:4;stroke-dasharray:none;stroke-opacity:1"
       sodipodi:nodetypes="cccc" />
    <path
       sodipodi:nodetypes="cscc"
       style="fill:url(#linearGradient11);fill-opacity:1;stroke:none;stroke-width:0.0373849;stroke-linecap:butt;stroke-linejoin:miter;stroke-miterlimit:4;stroke-dasharray:none;stroke-opacity:1"
       d="M 4.7165508,9.4256851 C 3.3782495,7.6718854 3.6253504,6.0643719 6.2459362,5.2291618 8.83202,4.4049454 11.160502,3.8608279 12.904601,3.2551876 8.1979237,5.0803562 2.3042368,6.299926 4.7165508,9.4256851 Z"
       id="path919-1"
       inkscape:connector-curvature="0" />
  </g>
</svg>
