<?xml version="1.0" encoding="UTF-8" standalone="no"?>
<svg
   width="16"
   height="16"
   version="1.1"
   id="svg6"
   sodipodi:docname="kdeconnect-symbolic.svg"
   inkscape:version="1.3.2 (091e20ef0f, 2023-11-25)"
   xmlns:inkscape="http://www.inkscape.org/namespaces/inkscape"
   xmlns:sodipodi="http://sodipodi.sourceforge.net/DTD/sodipodi-0.dtd"
   xmlns:xlink="http://www.w3.org/1999/xlink"
   xmlns="http://www.w3.org/2000/svg"
   xmlns:svg="http://www.w3.org/2000/svg">
  <defs
     id="defs10">
    <linearGradient
       id="linearGradient1"
       inkscape:collect="always">
      <stop
         style="stop-color:#1597ac;stop-opacity:1;"
         offset="0"
         id="stop1" />
      <stop
         style="stop-color:#9676d2;stop-opacity:1;"
         offset="1"
         id="stop2" />
    </linearGradient>
    <linearGradient
       inkscape:collect="always"
       xlink:href="#linearGradient1"
       id="linearGradient2"
       gradientUnits="userSpaceOnUse"
       x1="38"
       y1="28"
       x2="48"
       y2="13"
       gradientTransform="matrix(0.72727273,0,0,0.72727273,-23.272727,-7.2727273)" />
    <linearGradient
       inkscape:collect="always"
       xlink:href="#linearGradient1"
       id="linearGradient3"
       gradientUnits="userSpaceOnUse"
       x1="38"
       y1="28"
       x2="48"
       y2="13"
       gradientTransform="matrix(0.78987939,0,0,0.74999999,-25.925154,-7.7499999)" />
    <linearGradient
       inkscape:collect="always"
       xlink:href="#linearGradient1"
       id="linearGradient5"
       gradientUnits="userSpaceOnUse"
       x1="38"
       y1="28"
       x2="48"
       y2="13"
       gradientTransform="matrix(0.72727273,0,0,0.72727273,-23.273627,-7.2727273)" />
  </defs>
  <sodipodi:namedview
     id="namedview8"
     pagecolor="#ffffff"
     bordercolor="#000000"
     borderopacity="0.25"
     inkscape:showpageshadow="2"
     inkscape:pageopacity="0.0"
     inkscape:pagecheckerboard="0"
     inkscape:deskcolor="#d1d1d1"
     showgrid="true"
     inkscape:zoom="45.254834"
     inkscape:cx="7.1373591"
     inkscape:cy="8.2422134"
     inkscape:window-width="1920"
     inkscape:window-height="994"
     inkscape:window-x="0"
     inkscape:window-y="0"
     inkscape:window-maximized="1"
     inkscape:current-layer="svg6">
    <inkscape:grid
       id="grid6"
       units="px"
       originx="0"
       originy="0"
       spacingx="1"
       spacingy="1"
       empcolor="#0099e5"
       empopacity="0.30196078"
       color="#0099e5"
       opacity="0.14901961"
       empspacing="5"
       dotted="false"
       gridanglex="30"
       gridanglez="30"
       visible="true" />
  </sodipodi:namedview>
  <style
     type="text/css"
     id="current-color-scheme">
      .ColorScheme-Text {
        color:#31363b;
      }
      .ColorScheme-Background {
        color:#eff0f1;
      }
      .ColorScheme-Highlight {
        color:#3daee9;
      }
      .ColorScheme-ViewText {
        color:#31363b;
      }
      .ColorScheme-ViewBackground {
        color:#fcfcfc;
      }
      .ColorScheme-ViewHover {
        color:#93cee9;
      }
      .ColorScheme-ViewFocus{
        color:#3daee9;
      }
      .ColorScheme-ButtonText {
        color:#31363b;
      }
      .ColorScheme-ButtonBackground {
        color:#eff0f1;
      }
      .ColorScheme-ButtonHover {
        color:#93cee9;
      }
      .ColorScheme-ButtonFocus{
        color:#3daee9;
      }
      </style>
  <g
     id="16-16-kdeconnect">
    <rect
       style="opacity:0.00100002;fill:url(#linearGradient2);stroke-width:0.727273"
       width="16"
       height="16"
       x="3.6e-07"
       y="8.8817842e-16"
       id="rect2" />
    <path
       sodipodi:nodetypes="ssssssssssssssccccc"
       style="color:#7b7c7e;fill:url(#linearGradient3);fill-opacity:1;stroke-width:0.774029"
       d="M 5.3,2 C 4.4136417,1.9998954 3.9999921,2.167565 4,3 l 8.99e-5,9.48555 c 7.9e-6,0.829693 0.041825,1.516844 0.9282791,1.514444 l 6.125618,-0.01587 c 0.886289,-0.0015 0.94578,-0.668006 0.945799,-1.497978 L 12,3 c 1.9e-5,-0.8299181 -0.413626,-0.9992581 -1.3,-0.9993627 z m 2.6992277,10.079409 c 0.4432219,0 1.3067302,-0.0092 1.3067302,0.406141 0,0.414921 -0.8635083,0.405851 -1.3067302,0.405851 -0.4432148,0 -1.4075278,0.0095 -1.4075278,-0.405851 0,-0.415037 0.964313,-0.406141 1.4075278,-0.406141 z M 4.9991,3 h 6 v 8 h -6 z"
       id="rect2990-3"
       class="ColorScheme-Text"
       inkscape:connector-curvature="0" />
    <path
       style="color:#d3dae3;fill:url(#linearGradient5);fill-opacity:1;stroke-width:0.317796"
       d="M 8.3925375,5.0909091 7.4338415,5.2578102 V 8.5574589 L 8.3875666,8.4346022 8.3826211,6.9473426 9.5077215,8.5934379 10.612948,8.4346022 9.3413164,6.7308022 10.617291,5.3012429 9.4984044,5.0952502 8.3826211,6.5248088 Z M 6.3764284,5.9334997 c -0.00924,6.494e-4 -0.017898,0.00473 -0.024851,0.011782 L 6.0224902,6.2778466 c -0.014313,0.014378 -0.016684,0.036815 -0.0056,0.053985 L 6.4142749,6.9417542 C 6.3393091,7.0746938 6.2826633,7.2204568 6.2460073,7.3729775 L 5.5599149,7.5411222 c -0.019018,0.00458 -0.033542,0.021855 -0.033542,0.041564 v 0.2165491 0.2165389 c 0,0.019709 0.014516,0.036924 0.033542,0.041593 L 6.246024,8.2255112 C 6.282671,8.3780319 6.33933,8.5237955 6.414296,8.656733 L 6.0169106,9.2666517 c -0.011091,0.017171 -0.00876,0.0396 0.0056,0.053978 l 0.3290843,0.3325767 c 0.013855,0.014007 0.035418,0.015134 0.052138,0.00495 l 0.622784,-0.3815876 c 0.1221775,0.071149 0.3133004,0.1283535 0.4526437,0.1662836 L 7.6250755,10.14708 c 0.00415,0.02031 0.020225,0.03474 0.040349,0.03474 h 0.245261 0.2452633 c 0.020095,0 0.036291,-0.01439 0.040356,-0.03474 L 8.3422306,9.442848 C 8.4815775,9.4050008 8.6726953,9.3476888 8.7948808,9.2765608 L 9.417656,9.6581491 c 0.016756,0.010146 0.038269,0.00903 0.052131,-0.00495 l 0.3290742,-0.332568 c 0.014313,-0.014386 0.016691,-0.036815 0.00567,-0.053978 L 9.4735826,8.7584939 9.4326298,8.7646757 9.2004051,8.4246568 C 8.9632255,8.9214946 8.4616364,9.2381135 7.9107658,9.2387099 7.1206764,9.2387099 6.4801782,8.5986757 6.4801782,7.8091571 6.4807564,7.26652 6.7885026,6.7709222 7.2749491,6.5297528 V 6.2176138 C 7.1842742,6.2478248 7.0951666,6.2819048 7.0265818,6.321856 L 6.4038022,5.9402546 c -0.00852,-0.00509 -0.018131,-0.00801 -0.027346,-0.00669 z"
       class="ColorScheme-Text"
       id="path10-5" />
  </g>
</svg>
