<?xml version="1.0" encoding="UTF-8" standalone="no"?>
<svg
   viewBox="0 0 16 16"
   version="1.1"
   id="svg1"
   sodipodi:docname="plasmavault-symbolic.svg"
   width="16"
   height="16"
   inkscape:version="1.3.2 (091e20ef0f, 2023-11-25)"
   xmlns:inkscape="http://www.inkscape.org/namespaces/inkscape"
   xmlns:sodipodi="http://sodipodi.sourceforge.net/DTD/sodipodi-0.dtd"
   xmlns:xlink="http://www.w3.org/1999/xlink"
   xmlns="http://www.w3.org/2000/svg"
   xmlns:svg="http://www.w3.org/2000/svg">
  <sodipodi:namedview
     id="namedview1"
     pagecolor="#ffffff"
     bordercolor="#999999"
     borderopacity="1"
     inkscape:showpageshadow="2"
     inkscape:pageopacity="0"
     inkscape:pagecheckerboard="0"
     inkscape:deskcolor="#d1d1d1"
     showgrid="true"
     inkscape:zoom="11.90625"
     inkscape:cx="10.414698"
     inkscape:cy="-0.75590551"
     inkscape:window-width="1920"
     inkscape:window-height="994"
     inkscape:window-x="0"
     inkscape:window-y="0"
     inkscape:window-maximized="1"
     inkscape:current-layer="svg1">
    <inkscape:grid
       id="grid1"
       units="px"
       originx="0"
       originy="0"
       spacingx="1"
       spacingy="1"
       empcolor="#0099e5"
       empopacity="0.30196078"
       color="#0099e5"
       opacity="0.14902"
       empspacing="5"
       dotted="false"
       gridanglex="30"
       gridanglez="30"
       visible="true" />
  </sodipodi:namedview>
  <defs
     id="defs1">
    <style
       type="text/css"
       id="current-color-scheme">.ColorScheme-Text { color: #fcfcfc; } </style>
    <linearGradient
       inkscape:collect="always"
       xlink:href="#linearGradient1"
       id="linearGradient8"
       x1="33.774521"
       y1="-43.324841"
       x2="38.353191"
       y2="-43.324841"
       gradientUnits="userSpaceOnUse"
       gradientTransform="matrix(0.76676101,0,0,0.76676101,-19.610987,41.940082)" />
    <linearGradient
       id="linearGradient1"
       inkscape:collect="always">
      <stop
         style="stop-color:#00ccff;stop-opacity:1"
         offset="0"
         id="stop1" />
      <stop
         style="stop-color:#5599ff;stop-opacity:1"
         offset="1"
         id="stop2" />
    </linearGradient>
    <linearGradient
       inkscape:collect="always"
       xlink:href="#linearGradient1"
       id="linearGradient6"
       x1="26.974522"
       y1="-44.324841"
       x2="44.974518"
       y2="-44.324841"
       gradientUnits="userSpaceOnUse"
       gradientTransform="matrix(0.77777987,0,0,0.85714294,-19.98024,45.992727)" />
  </defs>
  <g
     id="g1">
    <rect
       style="opacity:0.00100002;fill:#d3dae3;fill-opacity:1;stroke-width:0.727273"
       width="16"
       height="16"
       x="-4.6864193e-07"
       y="1.7954731e-07"
       id="rect2-5" />
    <path
       d="M 9.3694417,8.2919192 H 9.2431829 L 9.2424658,7.6626661 C 9.241861,6.9771825 8.6843091,6.4194906 7.9988247,6.4200003 7.3133396,6.4206307 6.7556491,6.9782049 6.7561603,7.6636893 l 0.00108,0.6292561 h -0.04492 C 6.4766683,8.2934217 6.2854895,8.4846319 6.286001,8.7202845 v 1.8734545 c 0,0.235654 0.1916893,0.426828 0.4273412,0.426828 l 2.6570854,-0.0015 c 0.2356467,0 0.4268283,-0.19118 0.4263153,-0.426833 V 8.7182586 c 0,-0.2356503 -0.1916867,-0.426317 -0.4273395,-0.426317 z m -2.154087,0.00115 -0.00108,-0.6292539 c 0,-0.4329636 0.3516878,-0.7851623 0.7846502,-0.7856754 0.4329684,0 0.7851626,0.3522001 0.7851626,0.7846527 l 0.00115,0.6292408 z"
       id="path2-7"
       style="fill:url(#linearGradient8);fill-opacity:1;stroke-width:0.051116" />
    <path
       style="color:#000000;font-style:normal;font-variant:normal;font-weight:normal;font-stretch:normal;font-size:medium;line-height:normal;font-family:Sans;-inkscape-font-specification:Sans;text-indent:0;text-align:start;text-decoration:none;text-decoration-line:none;letter-spacing:normal;word-spacing:normal;text-transform:none;writing-mode:lr-tb;direction:ltr;baseline-shift:baseline;text-anchor:start;display:inline;overflow:visible;visibility:visible;fill:url(#linearGradient6);fill-opacity:1;fill-rule:nonzero;stroke:none;stroke-width:0.660286;marker:none;enable-background:accumulate"
       d="M 2,2 C 1.3517882,2 1,2.3492071 1,3 V 11.428572 13 c 0,0.518502 0.341506,1 1,1 h 11 c 0.707709,0 0.700047,-1 0,-1 H 3 C 2,13 2,13 2,12 V 11 4 C 2,3 2,3 3,3 h 2.8 l 1.8,1.978254 c 0,0 1.3248469,0.020033 1.4,0.021746 h 3.6 c 0.780448,0 0.71812,-1 0,-1 H 8 L 6.2901194,2.0803569 C 6.2330616,2.0286626 6.1609787,2.0002155 6.0864664,2 Z M 9,2 C 8.352905,2 8.3687813,3 9,3 h 3 1 c 1,0 1,0 1,1 v 9.5 c 0,0.709974 1,0.730971 1,0 V 3 C 15,2.350005 14.698052,2 14,2 l -0.759925,1.34e-5 H 9.5555745 Z"
       id="path2-3-3-5"
       sodipodi:nodetypes="ssccscccccccccccccccscccccccscccc" />
  </g>
</svg>
