<?xml version="1.0" encoding="UTF-8" standalone="no"?>
<svg
   width="22"
   height="22"
   version="1.1"
   id="svg1"
   sodipodi:docname="notifications.svg"
   inkscape:version="1.3.1 (91b66b0783, 2023-11-16)"
   xmlns:inkscape="http://www.inkscape.org/namespaces/inkscape"
   xmlns:sodipodi="http://sodipodi.sourceforge.net/DTD/sodipodi-0.dtd"
   xmlns:xlink="http://www.w3.org/1999/xlink"
   xmlns="http://www.w3.org/2000/svg"
   xmlns:svg="http://www.w3.org/2000/svg">
  <defs
     id="defs1">
    <linearGradient
       inkscape:collect="always"
       xlink:href="#linearGradient1"
       id="linearGradient2"
       x1="208.82494"
       y1="710.15692"
       x2="232.84207"
       y2="686.15546"
       gradientUnits="userSpaceOnUse"
       gradientTransform="matrix(0.74947101,0,0,0.74996036,-154.50831,-512.58904)" />
    <linearGradient
       id="linearGradient1"
       inkscape:collect="always">
      <stop
         style="stop-color:#9955ff;stop-opacity:1;"
         offset="0"
         id="stop1" />
      <stop
         style="stop-color:#ccaaff;stop-opacity:1"
         offset="1"
         id="stop2" />
    </linearGradient>
  </defs>
  <sodipodi:namedview
     id="namedview1"
     pagecolor="#ffffff"
     bordercolor="#000000"
     borderopacity="0.25"
     inkscape:showpageshadow="2"
     inkscape:pageopacity="0.0"
     inkscape:pagecheckerboard="0"
     inkscape:deskcolor="#d1d1d1"
     inkscape:zoom="12.326157"
     inkscape:cx="24.176229"
     inkscape:cy="8.5590343"
     inkscape:window-width="1920"
     inkscape:window-height="994"
     inkscape:window-x="0"
     inkscape:window-y="0"
     inkscape:window-maximized="1"
     inkscape:current-layer="svg1" />
  <style
     type="text/css"
     id="style1">.ColorScheme-Text {
            color:#d8dee9;
        }</style>
  <path
     class="ColorScheme-Text"
     d="m -13.527549,-0.5501707 a 2,2 0 0 0 -0.26953,1 2,2 0 0 0 2,2 2,2 0 0 0 2.0000001,-2 2,2 0 0 0 -0.2714801,-1 z m 1.7305,-13.0000003 a 1,1 0 0 0 -1,1 1,1 0 0 0 0.0098,0.12891 4,4 0 0 0 -3.0098,3.8711003 c 0,3 -1,4 -3,6 v 1 h 14.0000001 v -1 c -2,-2 -3,-3 -3,-6 a 4,4 0 0 0 -3.0098001,-3.8711003 1,1 0 0 0 0.0098,-0.12891 1,1 0 0 0 -1,-1 z m 0,2 a 3,3 0 0 1 3.0000001,3.0000003 c 0,3 0.58594,4 2.5859,6 H -17.383149 c 2,-2 2.5859,-3 2.5859,-6 a 3,3 0 0 1 3,-3.0000003 z"
     fill="currentColor"
     fill-rule="evenodd"
     id="path1" />
  <path
     id="Path_164"
     data-name="Path 164"
     d="m 19.094725,14.037797 -1.720148,-1.14744 A 1.6864067,1.6875089 0 0 1 16.621324,11.484181 V 8.7502005 a 5.6213587,5.6250295 0 0 0 -3.495341,-5.2008991 2.2339282,2.235387 0 0 0 -4.2520031,0 5.6213587,5.6250295 0 0 0 -3.495349,5.2008991 v 2.7339805 a 1.6864067,1.6875089 0 0 1 -0.7509996,1.403925 l -1.7224049,1.149691 a 2.0236888,2.0250107 0 0 0 1.1242933,3.712679 h 4.7219359 a 2.2485457,2.2500144 0 0 0 4.4970914,0 h 4.72194 a 2.0236888,2.0250107 0 0 0 1.124287,-3.712679 z m -1.124283,2.587364 H 4.0294891 A 0.89941726,0.90000465 0 0 1 3.5303065,14.971496 L 5.25157,13.824059 A 2.8106786,2.8125143 0 0 0 6.5028946,11.484181 V 8.7502005 a 4.4970915,4.5000281 0 0 1 8.9941824,0 v 2.7339805 a 2.8106786,2.8125143 0 0 0 1.25131,2.339878 l 1.722398,1.148563 a 0.89941726,0.90000465 0 0 1 -0.500343,1.652539 z m -6.970477,2.249882 A 1.1242714,1.1250063 0 0 1 9.875679,17.7501 h 2.248529 a 1.1242714,1.1250063 0 0 1 -1.12428,1.124943 z M 11.562104,5.9374751 a 0.56213584,0.56250292 0 0 1 -0.562139,0.5624698 2.2485437,2.2500113 0 0 0 -2.2485229,2.2498809 0.56214606,0.56251305 0 0 1 -1.1242918,0 3.3728154,3.3750183 0 0 1 3.3728147,-3.3748218 0.56213584,0.56250292 0 0 1 0.562139,0.5624711 z"
     style="fill:url(#linearGradient2);fill-opacity:1;stroke-width:1.12459" />
</svg>
