<?xml version="1.0" encoding="UTF-8" standalone="no"?>
<svg
   width="16"
   height="16"
   version="1.1"
   id="svg1"
   sodipodi:docname="steam_tray_mono.svg"
   inkscape:version="1.3.2 (091e20ef0f, 2023-11-25)"
   xmlns:inkscape="http://www.inkscape.org/namespaces/inkscape"
   xmlns:sodipodi="http://sodipodi.sourceforge.net/DTD/sodipodi-0.dtd"
   xmlns:xlink="http://www.w3.org/1999/xlink"
   xmlns="http://www.w3.org/2000/svg"
   xmlns:svg="http://www.w3.org/2000/svg">
  <sodipodi:namedview
     id="namedview1"
     pagecolor="#ffffff"
     bordercolor="#000000"
     borderopacity="1"
     inkscape:showpageshadow="2"
     inkscape:pageopacity="0"
     inkscape:pagecheckerboard="0"
     inkscape:deskcolor="#d1d1d1"
     inkscape:zoom="16.882174"
     inkscape:cx="6.10111"
     inkscape:cy="8.411239"
     inkscape:window-width="1920"
     inkscape:window-height="996"
     inkscape:window-x="0"
     inkscape:window-y="0"
     inkscape:window-maximized="1"
     inkscape:current-layer="svg1" />
  <defs
     id="defs1">
    <linearGradient
       id="linearGradient1"
       inkscape:collect="always">
      <stop
         style="stop-color:#00aad4;stop-opacity:1"
         offset="0"
         id="stop1" />
      <stop
         style="stop-color:#80e5ff;stop-opacity:1"
         offset="1"
         id="stop2" />
    </linearGradient>
    <style
       id="current-color-scheme"
       type="text/css">
   .ColorScheme-Text { color:#dfdfdf; } .ColorScheme-Highlight { color:#4285f4; } .ColorScheme-NeutralText { color:#ff9800; } .ColorScheme-PositiveText { color:#4caf50; } .ColorScheme-NegativeText { color:#f44336; }
  </style>
    <linearGradient
       inkscape:collect="always"
       xlink:href="#linearGradient1"
       id="linearGradient2"
       x1="2.3554044"
       y1="13.627237"
       x2="13.703831"
       y2="2.0765922"
       gradientUnits="userSpaceOnUse" />
  </defs>
  <path
     style="fill:url(#linearGradient2);stroke-width:1"
     class="ColorScheme-Text"
     d="M 7.9965813,1 C 4.2347183,1 1.165425,3.9645923 1.0000057,7.6838398 c -2.2894e-4,0.00514 0.00655,0.018918 0.00853,0.027343 a 7.0034151,7.0000021 0 0 1 0.00333,-0.083743 L 4.4246875,9.372314 a 2.1885669,2.1875005 0 0 1 1.3832427,-0.4973137 2.1885669,2.1875005 0 0 1 0.051291,0.00173 l 1.2670533,-2.112332 a 3.0639937,3.0625007 0 0 1 -0.00518,-0.076899 3.0639937,3.0625007 0 0 1 3.0639985,-3.0625008 3.0639937,3.0625007 0 0 1 3.06399,3.0625011 3.0639937,3.0625007 0 0 1 -3.06399,3.0625014 3.0639937,3.0625007 0 0 1 -0.434295,-0.03077 l -1.7764979,1.033935 a 2.1885669,2.1875005 0 0 1 0.022231,0.309328 2.1885669,2.1875005 0 0 1 -2.1885666,2.187498 2.1885669,2.1875005 0 0 1 -2.1885668,-2.187498 2.1885669,2.1875005 0 0 1 0.010199,-0.131592 L 1.2068704,9.691893 A 7.0034151,7.0000021 0 0 1 1.1709634,9.507325 c 8.844e-4,0.04837 0.00899,0.103672 0.025644,0.170896 C 1.9489792,12.733476 4.7076168,15 7.9965619,15 11.864459,15.000003 14.999998,11.865998 14.999998,8.0000027 15,4.1340082 11.864461,1.0000004 7.9965779,1.0000004 Z m 2.1885667,3.9375012 a 1.7508534,1.7500003 0 0 0 -1.7508529,1.7500005 1.7508534,1.7500003 0 0 0 1.7508529,1.7500009 1.7508534,1.7500003 0 0 0 1.75086,-1.7500009 1.7508534,1.7500003 0 0 0 -1.75086,-1.7500005 z m 0,0.4375002 A 1.3131403,1.3125003 0 0 1 11.498293,6.6875017 1.3131403,1.3125003 0 0 1 10.185148,8.0000021 1.3131403,1.3125003 0 0 1 8.8720083,6.6875017 1.3131403,1.3125003 0 0 1 10.185148,5.3750014 Z M 5.8080139,9.750003 a 1.3131407,1.3125007 0 0 0 -0.4719097,0.08882 l 0.8702981,0.444344 A 0.87558186,0.87515517 0 1 1 5.409626,11.841805 L 4.5444592,11.399166 A 1.3131407,1.3125007 0 0 0 5.8080139,12.374997 1.3131407,1.3125007 0 0 0 7.1211543,11.062498 1.3131407,1.3125007 0 0 0 5.8080139,9.749997 Z"
     id="path1" />
</svg>
