<?xml version="1.0" encoding="UTF-8" standalone="no"?>
<svg
   width="16"
   height="16"
   version="1.1"
   id="svg15"
   sodipodi:docname="dialog-warning.svg"
   inkscape:version="1.3 (0e150ed6c4, 2023-07-21)"
   xmlns:inkscape="http://www.inkscape.org/namespaces/inkscape"
   xmlns:sodipodi="http://sodipodi.sourceforge.net/DTD/sodipodi-0.dtd"
   xmlns:xlink="http://www.w3.org/1999/xlink"
   xmlns="http://www.w3.org/2000/svg"
   xmlns:svg="http://www.w3.org/2000/svg">
  <sodipodi:namedview
     id="namedview17"
     pagecolor="#ffffff"
     bordercolor="#666666"
     borderopacity="1.0"
     inkscape:showpageshadow="2"
     inkscape:pageopacity="0.0"
     inkscape:pagecheckerboard="0"
     inkscape:deskcolor="#d1d1d1"
     showgrid="false"
     inkscape:zoom="29.5"
     inkscape:cx="9.8135593"
     inkscape:cy="10.932203"
     inkscape:window-width="1920"
     inkscape:window-height="994"
     inkscape:window-x="0"
     inkscape:window-y="0"
     inkscape:window-maximized="1"
     inkscape:current-layer="svg15"
     showguides="false">
    <sodipodi:guide
       position="87.728814,26.847458"
       orientation="0,-1"
       id="guide777"
       inkscape:locked="false" />
  </sodipodi:namedview>
  <defs
     id="defs7">
    <linearGradient
       id="b"
       x1="44.424"
       x2="44.424"
       y1="60.535"
       y2="-5.4970002"
       gradientTransform="matrix(0.50174,0,0,0.50174,-6.723,1.226)"
       gradientUnits="userSpaceOnUse">
      <stop
         stop-color="#634215"
         offset="0"
         id="stop2" />
      <stop
         stop-color="#93700d"
         offset="1"
         id="stop4" />
    </linearGradient>
    <linearGradient
       id="linearGradient4141">
      <stop
         style="stop-color:#f8bc94;stop-opacity:1;"
         offset="0"
         id="stop7" />
      <stop
         style="stop-color:#eab355;stop-opacity:1"
         offset="1"
         id="stop9" />
    </linearGradient>
    <linearGradient
       id="a-5"
       gradientTransform="matrix(0.86658,0,0,0.8707,7.6,1.527)"
       gradientUnits="userSpaceOnUse"
       x1="39.75"
       x2="13.888"
       y1="49.75"
       y2="11.25">
      <stop
         offset="0"
         stop-color="#d6602e"
         id="stop7-3-3" />
      <stop
         offset="1"
         stop-color="#fd8f49"
         id="stop9-6-5" />
    </linearGradient>
    <linearGradient
       id="b-6"
       gradientUnits="userSpaceOnUse"
       x1="41"
       x2="16"
       y1="46.75"
       y2="12.5">
      <stop
         offset="0"
         stop-color="#a3582d"
         id="stop17-2" />
      <stop
         offset="1"
         stop-color="#ba6d42"
         id="stop19-9" />
    </linearGradient>
    <linearGradient
       id="c"
       gradientUnits="userSpaceOnUse"
       x1="31"
       x2="41"
       y1="27"
       y2="37"
       gradientTransform="matrix(0.87223128,0,0,0.87223129,-72.55786,-25.580314)">
      <stop
         offset="0"
         stop-color="#292929"
         id="stop2-7" />
      <stop
         offset="1"
         stop-opacity="0"
         id="stop4-5" />
    </linearGradient>
    <linearGradient
       id="d-7"
       gradientUnits="userSpaceOnUse"
       x1="415.5"
       x2="407.39999"
       y1="537.26001"
       y2="519.75">
      <stop
         offset="0"
         stop-color="#eef1f2"
         id="stop12-0" />
      <stop
         offset="1"
         stop-color="#f9fafb"
         id="stop14-9" />
    </linearGradient>
    <linearGradient
       id="e-3"
       gradientTransform="matrix(-1.17844,0,0,-1.24685,516.197,684.37)"
       gradientUnits="userSpaceOnUse"
       x1="414.63"
       x2="409.79001"
       y1="531.77002"
       y2="523.38">
      <stop
         offset="0"
         stop-color="#197cf1"
         id="stop22-6" />
      <stop
         offset="1"
         stop-color="#21c9fb"
         id="stop24-0" />
    </linearGradient>
    <filter
       id="d-3-0-3-6"
       x="-0.036000001"
       y="-0.036000001"
       width="1.072"
       height="1.072"
       color-interpolation-filters="sRGB">
      <feGaussianBlur
         stdDeviation="0.45000001"
         id="feGaussianBlur17-6-9-6-7" />
    </filter>
    <linearGradient
       inkscape:collect="always"
       xlink:href="#linearGradient2"
       id="linearGradient895-7-3-7-5"
       x1="1"
       y1="31"
       x2="31"
       y2="1"
       gradientUnits="userSpaceOnUse"
       gradientTransform="matrix(0.46641789,0,0,0.46641789,0.5373705,0.53731346)" />
    <linearGradient
       id="linearGradient2"
       inkscape:collect="always">
      <stop
         style="stop-color:#ff00ff;stop-opacity:1"
         offset="0"
         id="stop1" />
      <stop
         style="stop-color:#ffdd55;stop-opacity:1"
         offset="1"
         id="stop2-9" />
    </linearGradient>
    <linearGradient
       inkscape:collect="always"
       xlink:href="#linearGradient2"
       id="linearGradient5"
       x1="7.25"
       y1="8.0500002"
       x2="8.75"
       y2="8.0500002"
       gradientUnits="userSpaceOnUse" />
  </defs>
  <path
     d="M 16,1 C 7.7157,1 1,7.7157 1,16 1,24.2843 7.7157,31 16,31 24.2843,31 31,24.2843 31,16 31,7.7157 24.2843,1 16,1 Z"
     filter="url(#d)"
     opacity="0.25"
     id="path22-2-6-2-9"
     style="filter:url(#d-3-0-3-6)"
     transform="matrix(0.4664179,0,0,0.4664179,0.5373705,0.53731346)" />
  <path
     d="m 8.0000575,1.0037315 c -3.863946,0 -6.99627,3.132323 -6.99627,6.996269 0,3.8639495 3.132324,6.9962705 6.99627,6.9962705 3.8639505,0 6.9962705,-3.132321 6.9962705,-6.9962705 0,-3.863946 -3.13232,-6.996269 -6.9962705,-6.996269 z"
     id="path24-9-1-9-1"
     style="fill:url(#linearGradient895-7-3-7-5);fill-opacity:1;stroke-width:0.466414" />
  <path
     d="m 8.0000575,13.261136 c -2.83349,0 -5.261145,-2.427646 -5.261145,-5.2611355 0,-2.833489 2.427655,-5.293646 5.261145,-5.293646 2.8334905,0 5.2610295,2.460157 5.2610295,5.293646 0,2.8334895 -2.427539,5.2611355 -5.2610295,5.2611355 z"
     id="path26-1-8-1-2"
     style="fill:#1c202f;fill-opacity:1;stroke-width:0.466414"
     sodipodi:nodetypes="sssss" />
  <path
     d="m 7.2995149,4.7444164 c 0.1658466,1.626006 0.3560174,3.240916 0.4975419,4.873142 h 0.4511059 c 0.1171962,-1.56746 0.3060459,-3.125602 0.4422546,-4.691736 0.069863,-0.370354 -0.1202896,-0.81078 -0.5103665,-0.900384 -0.3860914,-0.11354 -0.8168526,0.166768 -0.8681493,0.566838 -0.00886,0.05013 -0.012346,0.101134 -0.012346,0.15214 z m -0.049085,6.6109176 c -0.017682,0.484338 0.51347,0.863567 0.9667802,0.710105 0.4391707,-0.112217 0.670468,-0.665749 0.4453506,-1.05961 -0.2012193,-0.406724 -0.7920814,-0.540674 -1.1321788,-0.229314 -0.1715973,0.141931 -0.2857012,0.35306 -0.279952,0.578819 z"
     font-size="62.458px"
     font-weight="400"
     overflow="visible"
     id="path13-3-3"
     style="stroke-width:0.442942;fill:url(#linearGradient5)" />
</svg>
