<?xml version="1.0" encoding="UTF-8" standalone="no"?>
<svg
   width="16"
   height="16"
   version="1.0"
   id="svg33"
   sodipodi:docname="image-missing.svg"
   inkscape:version="1.3 (0e150ed6c4, 2023-07-21)"
   xmlns:inkscape="http://www.inkscape.org/namespaces/inkscape"
   xmlns:sodipodi="http://sodipodi.sourceforge.net/DTD/sodipodi-0.dtd"
   xmlns:xlink="http://www.w3.org/1999/xlink"
   xmlns="http://www.w3.org/2000/svg"
   xmlns:svg="http://www.w3.org/2000/svg">
  <sodipodi:namedview
     id="namedview35"
     pagecolor="#ffffff"
     bordercolor="#000000"
     borderopacity="0.25"
     inkscape:showpageshadow="2"
     inkscape:pageopacity="0.0"
     inkscape:pagecheckerboard="0"
     inkscape:deskcolor="#d1d1d1"
     showgrid="false"
     inkscape:zoom="29.5"
     inkscape:cx="7.1355932"
     inkscape:cy="10.661017"
     inkscape:window-width="1920"
     inkscape:window-height="994"
     inkscape:window-x="0"
     inkscape:window-y="0"
     inkscape:window-maximized="1"
     inkscape:current-layer="svg33" />
  <defs
     id="defs13">
    <linearGradient
       id="linearGradient2"
       inkscape:collect="always">
      <stop
         style="stop-color:#ffdd55;stop-opacity:1"
         offset="0"
         id="stop1" />
      <stop
         style="stop-color:#c83737;stop-opacity:1"
         offset="1"
         id="stop2" />
    </linearGradient>
    <filter
       id="d"
       x="-0.035999998"
       y="-0.035999998"
       width="1.072"
       height="1.072"
       color-interpolation-filters="sRGB">
      <feGaussianBlur
         stdDeviation="0.45"
         id="feGaussianBlur2" />
    </filter>
    <linearGradient
       id="a"
       x1="16"
       x2="16"
       y1="1"
       y2="31"
       gradientUnits="userSpaceOnUse"
       gradientTransform="translate(60.949154,25.288136)">
      <stop
         stop-color="#333"
         offset="0"
         id="stop5" />
      <stop
         stop-color="#808080"
         offset="1"
         id="stop7" />
    </linearGradient>
    <filter
       id="b"
       x="-0.035967"
       y="-0.03603306"
       width="1.071934"
       height="1.0720661"
       color-interpolation-filters="sRGB">
      <feGaussianBlur
         stdDeviation="0.179835"
         id="feGaussianBlur10" />
    </filter>
    <filter
       id="d-3"
       x="-0.035999998"
       y="-0.035999998"
       width="1.072"
       height="1.072"
       color-interpolation-filters="sRGB">
      <feGaussianBlur
         stdDeviation="0.45"
         id="feGaussianBlur2-6" />
    </filter>
    <linearGradient
       id="a-3"
       x1="16"
       x2="16"
       y1="1"
       y2="31"
       gradientUnits="userSpaceOnUse"
       gradientTransform="translate(60.677967,18.915255)">
      <stop
         stop-color="#eef0f0"
         offset="0"
         id="stop5-6" />
      <stop
         stop-color="#363636"
         offset="1"
         id="stop7-7" />
    </linearGradient>
    <radialGradient
       id="b-3"
       cx="16"
       cy="16"
       r="8"
       gradientUnits="userSpaceOnUse"
       gradientTransform="matrix(1.3681592,0,0,1.3681592,99.690471,3.2836898)">
      <stop
         stop-color="#b3b3b3"
         offset="0"
         id="stop10-5" />
      <stop
         stop-color="#313131"
         offset="1"
         id="stop12-6" />
    </radialGradient>
    <filter
       id="d-5"
       x="-0.035999998"
       y="-0.035999998"
       width="1.072"
       height="1.072"
       color-interpolation-filters="sRGB">
      <feGaussianBlur
         stdDeviation="0.45"
         id="feGaussianBlur2-3" />
    </filter>
    <filter
       id="b-2"
       x="-0.053588778"
       y="-0.053588778"
       width="1.1071776"
       height="1.1071776"
       color-interpolation-filters="sRGB">
      <feGaussianBlur
         stdDeviation="0.179835"
         id="feGaussianBlur10-9" />
    </filter>
    <filter
       id="d-3-0-3-6"
       x="-0.036000001"
       y="-0.036000001"
       width="1.072"
       height="1.072"
       color-interpolation-filters="sRGB">
      <feGaussianBlur
         stdDeviation="0.45000001"
         id="feGaussianBlur17-6-9-6-7" />
    </filter>
    <linearGradient
       inkscape:collect="always"
       xlink:href="#linearGradient2"
       id="linearGradient895-7-3-7-5"
       x1="1"
       y1="31"
       x2="31"
       y2="1"
       gradientUnits="userSpaceOnUse"
       gradientTransform="matrix(0.46641789,0,0,0.46641789,0.53731346,0.53731346)" />
    <linearGradient
       id="linearGradient4"
       inkscape:collect="always">
      <stop
         style="stop-color:#2ad4ff;stop-opacity:1"
         offset="0"
         id="stop5-4" />
      <stop
         style="stop-color:#0066ff;stop-opacity:1"
         offset="1"
         id="stop6" />
    </linearGradient>
    <linearGradient
       inkscape:collect="always"
       xlink:href="#linearGradient4"
       id="linearGradient3"
       gradientUnits="userSpaceOnUse"
       gradientTransform="translate(-0.01000004,0.06499898)"
       x1="7.1900158"
       y1="-4.9100003"
       x2="8.8100166"
       y2="-4.9100003" />
    <filter
       id="b-2-5"
       x="-0.053588778"
       y="-0.053588778"
       width="1.1071776"
       height="1.1071776"
       color-interpolation-filters="sRGB">
      <feGaussianBlur
         stdDeviation="0.179835"
         id="feGaussianBlur10-9-0" />
    </filter>
    <filter
       id="filter1"
       x="-0.053588778"
       y="-0.053588778"
       width="1.1071776"
       height="1.1071776"
       color-interpolation-filters="sRGB">
      <feGaussianBlur
         stdDeviation="0.179835"
         id="feGaussianBlur1" />
    </filter>
  </defs>
  <path
     d="M 16,1 C 7.7157,1 1,7.7157 1,16 1,24.2843 7.7157,31 16,31 24.2843,31 31,24.2843 31,16 31,7.7157 24.2843,1 16,1 Z"
     filter="url(#d)"
     opacity="0.25"
     id="path22-2-6-2-9"
     style="filter:url(#d-3-0-3-6)"
     transform="matrix(0.4664179,0,0,0.4664179,0.53731346,0.53731346)" />
  <path
     d="m 8.0000005,1.0037315 c -3.863946,0 -6.99627,3.132323 -6.99627,6.996269 0,3.8639495 3.132324,6.9962705 6.99627,6.9962705 3.8639495,0 6.9962705,-3.132321 6.9962705,-6.9962705 0,-3.863946 -3.132321,-6.996269 -6.9962705,-6.996269 z"
     id="path24-9-1-9-1"
     style="fill:url(#linearGradient895-7-3-7-5);fill-opacity:1;stroke-width:0.466414" />
  <path
     d="m 8.0000005,13.261136 c -2.83349,0 -5.261145,-2.427646 -5.261145,-5.2611355 0,-2.833489 2.427655,-5.293646 5.261145,-5.293646 2.8334905,0 5.2610295,2.460157 5.2610295,5.293646 0,2.8334895 -2.427539,5.2611355 -5.2610295,5.2611355 z"
     id="path26-1-8-1-2"
     style="fill:#1c202f;fill-opacity:1;stroke-width:0.466414"
     sodipodi:nodetypes="sssss" />
  <path
     d="m 16,10.011 c 3.305,0 6,2.71 6,6.003 0,3.291 -2.695,5.975 -6,5.975 -3.305,0 -6,-2.684 -6,-5.975 0,-3.292 2.695,-6.003 6,-6.003 z m 0,1.73 a 4.27,4.27 0 0 0 -4.29,4.273 c 0,2.368 1.912,4.245 4.29,4.245 2.378,0 4.29,-1.877 4.29,-4.245 A 4.27,4.27 0 0 0 16,11.74 Z"
     overflow="visible"
     style="text-indent:0;text-transform:none;opacity:0.5;filter:url(#b-2-5)"
     id="path19-93-3"
     transform="matrix(0.4515543,0,0,0.45247265,0.77513175,0.76044375)" />
  <path
     d="m 13.177,11.973 6.85,6.85 -1.204,1.204 -6.85,-6.85 z"
     overflow="visible"
     style="text-indent:0;text-transform:none;opacity:0.5;filter:url(#b-2-5)"
     id="path21-6-6"
     transform="matrix(0.4515543,0,0,0.45247265,0.77513175,0.76044375)" />
  <path
     d="m 8.0000067,5.2901448 c 1.492381,0 2.7093413,1.226203 2.7093413,2.716201 0,1.4890729 -1.2169603,2.7035212 -2.7093413,2.7035212 -1.492385,0 -2.709329,-1.2144482 -2.709329,-2.7035212 0,-1.4895471 1.216944,-2.716201 2.709329,-2.716201 z m 0,0.782776 a 1.9281367,1.9320581 0 0 0 -1.93717,1.933425 c 0,1.0714449 0.863375,1.920743 1.93717,1.920743 1.073791,0 1.937159,-0.849298 1.937159,-1.920743 A 1.9281367,1.9320581 0 0 0 8.0000067,6.0724717 Z"
     overflow="visible"
     style="text-indent:0;text-transform:none;fill:#e0574c;stroke-width:0.452024"
     id="path27-2-1" />
  <path
     d="m 6.7252617,6.1778968 3.093148,3.099445 -0.543664,0.544764 -3.093154,-3.099435 z"
     overflow="visible"
     style="text-indent:0;text-transform:none;fill:#e0574c;stroke-width:0.452024"
     id="path29-6-0" />
</svg>
