<?xml version="1.0" encoding="UTF-8" standalone="no"?>
<!-- Created with Inkscape (http://www.inkscape.org/) -->

<svg
   width="16"
   version="1.1"
   height="16"
   id="svg21"
   sodipodi:docname="security-medium.svg"
   inkscape:version="1.3 (0e150ed6c4, 2023-07-21)"
   xmlns:inkscape="http://www.inkscape.org/namespaces/inkscape"
   xmlns:sodipodi="http://sodipodi.sourceforge.net/DTD/sodipodi-0.dtd"
   xmlns:xlink="http://www.w3.org/1999/xlink"
   xmlns="http://www.w3.org/2000/svg"
   xmlns:svg="http://www.w3.org/2000/svg">
  <sodipodi:namedview
     id="namedview23"
     pagecolor="#ffffff"
     bordercolor="#000000"
     borderopacity="0.25"
     inkscape:showpageshadow="2"
     inkscape:pageopacity="0.0"
     inkscape:pagecheckerboard="0"
     inkscape:deskcolor="#d1d1d1"
     showgrid="false"
     inkscape:zoom="45.025984"
     inkscape:cx="7.2735779"
     inkscape:cy="10.294056"
     inkscape:window-width="1920"
     inkscape:window-height="994"
     inkscape:window-x="0"
     inkscape:window-y="0"
     inkscape:window-maximized="1"
     inkscape:current-layer="layer1" />
  <defs
     id="defs3811">
    <linearGradient
       inkscape:collect="always"
       id="linearGradient4143-6">
      <stop
         style="stop-color:#af7204;stop-opacity:1;"
         id="stop4145-8"
         offset="0" />
      <stop
         offset="1"
         style="stop-color:#ffab1a;stop-opacity:1;"
         id="stop4147-0" />
    </linearGradient>
    <linearGradient
       id="b-3"
       x1="1.0583"
       x2="11.642"
       y1="285.07999"
       y2="296.22"
       gradientTransform="matrix(3.9685346,0,0,3.7701079,-83.369685,-1103.3112)"
       gradientUnits="userSpaceOnUse">
      <stop
         stop-color="#535a61"
         offset="0"
         id="stop24"
         style="stop-color:#6a747c;stop-opacity:1;" />
      <stop
         stop-color="#333c45"
         offset="1"
         id="stop26"
         style="stop-color:#414f58;stop-opacity:1;" />
    </linearGradient>
    <linearGradient
       id="a-2-0"
       y1="543.79999"
       y2="503.79999"
       x2="0"
       gradientUnits="userSpaceOnUse">
      <stop
         stop-color="#faae2a"
         id="stop2-9-9" />
      <stop
         offset="1"
         stop-color="#ffc35a"
         id="stop4-1-3" />
    </linearGradient>
    <linearGradient
       id="b-2-6"
       y1="34"
       y2="13"
       x2="0"
       gradientUnits="userSpaceOnUse">
      <stop
         stop-color="#2a2c2f"
         id="stop7-7-0" />
      <stop
         offset="1"
         stop-color="#424649"
         id="stop9-0-6" />
    </linearGradient>
    <linearGradient
       id="c"
       y1="13"
       x1="13"
       y2="31"
       x2="31"
       gradientUnits="userSpaceOnUse">
      <stop
         stop-color="#383e51"
         id="stop12" />
      <stop
         offset="1"
         stop-color="#655c6f"
         stop-opacity="0"
         id="stop14" />
    </linearGradient>
    <filter
       id="d-3-0-3-6"
       x="-0.036000001"
       y="-0.036000001"
       width="1.072"
       height="1.072"
       color-interpolation-filters="sRGB">
      <feGaussianBlur
         stdDeviation="0.45000001"
         id="feGaussianBlur17-6-9-6-7" />
    </filter>
    <linearGradient
       inkscape:collect="always"
       xlink:href="#a-2-0"
       id="linearGradient895-7-3-7-5"
       x1="1"
       y1="31"
       x2="31"
       y2="1"
       gradientUnits="userSpaceOnUse"
       gradientTransform="matrix(0.46641789,0,0,0.46641789,637.80135,124.50482)" />
    <linearGradient
       id="linearGradient4"
       inkscape:collect="always">
      <stop
         style="stop-color:#2ad4ff;stop-opacity:1"
         offset="0"
         id="stop5" />
      <stop
         style="stop-color:#0066ff;stop-opacity:1"
         offset="1"
         id="stop6" />
    </linearGradient>
    <linearGradient
       inkscape:collect="always"
       xlink:href="#linearGradient4"
       id="linearGradient3"
       gradientUnits="userSpaceOnUse"
       gradientTransform="translate(-0.01000004,0.06499898)"
       x1="7.1900158"
       y1="-4.9100003"
       x2="8.8100166"
       y2="-4.9100003" />
    <linearGradient
       inkscape:collect="always"
       xlink:href="#linearGradient4143-6"
       id="linearGradient1"
       gradientUnits="userSpaceOnUse"
       gradientTransform="matrix(0.15640283,0,0,0.15575584,640.23074,127.03296)"
       x1="32"
       y1="6"
       x2="31"
       y2="57" />
  </defs>
  <metadata
     id="metadata3814" />
  <g
     inkscape:label="Layer 1"
     inkscape:groupmode="layer"
     id="layer1"
     transform="translate(-637.26398,-123.96751)">
    <path
       d="M 16,1 C 7.7157,1 1,7.7157 1,16 1,24.2843 7.7157,31 16,31 24.2843,31 31,24.2843 31,16 31,7.7157 24.2843,1 16,1 Z"
       filter="url(#d)"
       opacity="0.25"
       id="path22-2-6-2-9"
       style="filter:url(#d-3-0-3-6)"
       transform="matrix(0.4664179,0,0,0.4664179,637.80135,124.50482)" />
    <path
       d="m 645.26404,124.97124 c -3.86395,0 -6.99627,3.13232 -6.99627,6.99627 0,3.86395 3.13232,6.99627 6.99627,6.99627 3.86395,0 6.99627,-3.13232 6.99627,-6.99627 0,-3.86395 -3.13232,-6.99627 -6.99627,-6.99627 z"
       id="path24-9-1-9-1"
       style="fill:url(#linearGradient895-7-3-7-5);fill-opacity:1;stroke-width:0.466414" />
    <path
       d="m 645.26404,137.22864 c -2.83349,0 -5.26115,-2.42764 -5.26115,-5.26113 0,-2.83349 2.42766,-5.29365 5.26115,-5.29365 2.83349,0 5.26103,2.46016 5.26103,5.29365 0,2.83349 -2.42754,5.26113 -5.26103,5.26113 z"
       id="path26-1-8-1-2"
       style="fill:#1c202f;fill-opacity:1;stroke-width:0.466414"
       sodipodi:nodetypes="sssss" />
    <path
       style="fill:url(#linearGradient1);stroke-width:0.312153;stroke-linecap:square"
       id="rect4186-2-1-2-4"
       d="m 645.23559,127.96751 c -0.99053,0.52246 -1.98108,0.73593 -2.97161,0.93455 v 3.89388 c 0,1.09027 1.6052,2.57953 2.97161,3.27057 1.36651,-0.69104 2.97168,-2.1803 2.97168,-3.27057 v -3.89388 c -0.99056,-0.19862 -1.98112,-0.41209 -2.97168,-0.93455 z" />
    <path
       id="rect4179-1-4"
       d="m 645.13594,129.68084 v 3.1151 h 0.31282 v -3.1151 z m 0,3.42663 v 0.31153 h 0.31282 v -0.31153 z"
       style="fill:#ffffff;fill-opacity:1" />
    <path
       style="fill:#e59305;stroke-width:0.312153;stroke-linecap:square"
       id="rect4186-2-1-5-2-3"
       d="m 642.32065,132.48443 v 0.31151 c 0,1.09027 1.60523,2.57953 2.97167,3.27057 1.36646,-0.69104 2.97166,-2.1803 2.97166,-3.27057 v -0.31151 c 0,1.09031 -1.6052,2.57951 -2.97166,3.27058 -1.36644,-0.69107 -2.97167,-2.18027 -2.97167,-3.27058 z" />
  </g>
</svg>
