<?xml version="1.0" encoding="UTF-8" standalone="no"?>
<!-- Created with Inkscape (http://www.inkscape.org/) -->

<svg
   width="16"
   version="1.1"
   height="16"
   id="svg21"
   sodipodi:docname="security-high.svg"
   inkscape:version="1.3 (0e150ed6c4, 2023-07-21)"
   xmlns:inkscape="http://www.inkscape.org/namespaces/inkscape"
   xmlns:sodipodi="http://sodipodi.sourceforge.net/DTD/sodipodi-0.dtd"
   xmlns:xlink="http://www.w3.org/1999/xlink"
   xmlns="http://www.w3.org/2000/svg"
   xmlns:svg="http://www.w3.org/2000/svg">
  <sodipodi:namedview
     id="namedview23"
     pagecolor="#ffffff"
     bordercolor="#000000"
     borderopacity="0.25"
     inkscape:showpageshadow="2"
     inkscape:pageopacity="0.0"
     inkscape:pagecheckerboard="0"
     inkscape:deskcolor="#d1d1d1"
     showgrid="false"
     inkscape:zoom="14.75"
     inkscape:cx="18"
     inkscape:cy="10.338983"
     inkscape:window-width="1920"
     inkscape:window-height="994"
     inkscape:window-x="0"
     inkscape:window-y="0"
     inkscape:window-maximized="1"
     inkscape:current-layer="layer1" />
  <defs
     id="defs3811">
    <linearGradient
       id="linearGradient5"
       inkscape:collect="always">
      <stop
         style="stop-color:#00b5e3;stop-opacity:1;"
         offset="0"
         id="stop3" />
      <stop
         style="stop-color:#00c24e;stop-opacity:1;"
         offset="1"
         id="stop4" />
    </linearGradient>
    <linearGradient
       id="linearGradient2"
       inkscape:collect="always">
      <stop
         style="stop-color:#2ad4ff;stop-opacity:1"
         offset="0"
         id="stop1" />
      <stop
         style="stop-color:#00ff66;stop-opacity:1"
         offset="1"
         id="stop2" />
    </linearGradient>
    <filter
       id="d-3-0-3-6"
       x="-0.036000001"
       y="-0.036000001"
       width="1.072"
       height="1.072"
       color-interpolation-filters="sRGB">
      <feGaussianBlur
         stdDeviation="0.45000001"
         id="feGaussianBlur17-6-9-6-7" />
    </filter>
    <linearGradient
       inkscape:collect="always"
       xlink:href="#linearGradient2"
       id="linearGradient895-7-3-7-5"
       x1="1"
       y1="31"
       x2="31"
       y2="1"
       gradientUnits="userSpaceOnUse"
       gradientTransform="matrix(0.46641789,0,0,0.46641789,658.41152,133.18279)" />
    <linearGradient
       id="linearGradient4"
       inkscape:collect="always">
      <stop
         style="stop-color:#2ad4ff;stop-opacity:1"
         offset="0"
         id="stop5" />
      <stop
         style="stop-color:#0066ff;stop-opacity:1"
         offset="1"
         id="stop6" />
    </linearGradient>
    <linearGradient
       inkscape:collect="always"
       xlink:href="#linearGradient4"
       id="linearGradient3"
       gradientUnits="userSpaceOnUse"
       gradientTransform="translate(-0.01000004,0.06499898)"
       x1="7.1900158"
       y1="-4.9100003"
       x2="8.8100166"
       y2="-4.9100003" />
    <linearGradient
       inkscape:collect="always"
       xlink:href="#linearGradient5"
       id="linearGradient1"
       gradientUnits="userSpaceOnUse"
       gradientTransform="matrix(0.15575555,0,0,0.15575555,660.84924,135.71098)"
       x1="32"
       y1="6"
       x2="31"
       y2="57" />
  </defs>
  <metadata
     id="metadata3814" />
  <g
     inkscape:label="Layer 1"
     inkscape:groupmode="layer"
     id="layer1"
     transform="translate(-657.87415,-132.64548)">
    <path
       d="M 16,1 C 7.7157,1 1,7.7157 1,16 1,24.2843 7.7157,31 16,31 24.2843,31 31,24.2843 31,16 31,7.7157 24.2843,1 16,1 Z"
       filter="url(#d)"
       opacity="0.25"
       id="path22-2-6-2-9"
       style="filter:url(#d-3-0-3-6)"
       transform="matrix(0.4664179,0,0,0.4664179,658.41152,133.18279)" />
    <path
       d="m 665.87421,133.64921 c -3.86395,0 -6.99627,3.13232 -6.99627,6.99627 0,3.86395 3.13232,6.99627 6.99627,6.99627 3.86395,0 6.99627,-3.13232 6.99627,-6.99627 0,-3.86395 -3.13232,-6.99627 -6.99627,-6.99627 z"
       id="path24-9-1-9-1"
       style="fill:url(#linearGradient895-7-3-7-5);fill-opacity:1;stroke-width:0.466414" />
    <path
       d="m 665.87421,145.90661 c -2.83349,0 -5.26115,-2.42764 -5.26115,-5.26113 0,-2.83349 2.42766,-5.29365 5.26115,-5.29365 2.83349,0 5.26103,2.46016 5.26103,5.29365 0,2.83349 -2.42754,5.26113 -5.26103,5.26113 z"
       id="path26-1-8-1-2"
       style="fill:#1c202f;fill-opacity:1;stroke-width:0.466414"
       sodipodi:nodetypes="sssss" />
    <path
       id="rect4186-2-1-2-1"
       d="m 665.83349,136.64548 c -0.98639,0.52246 -1.9729,0.73594 -2.95934,0.93454 v 3.8939 c 0,1.09024 1.59856,2.57954 2.95934,3.27056 1.3608,-0.69102 2.95934,-2.18032 2.95934,-3.27056 v -3.8939 c -0.98643,-0.1986 -1.97291,-0.41208 -2.95934,-0.93454 z"
       style="fill:url(#linearGradient1);stroke-width:0.311506;stroke-linecap:square" />
    <path
       inkscape:connector-curvature="0"
       id="path4179-1-5"
       d="m 667.41634,138.42933 -2.24753,3.44642 -0.95824,-0.68447 -0.18096,0.25374 1.22259,0.87309 2.42516,-3.71841 z"
       style="fill:#ffffff;fill-opacity:1" />
    <path
       inkscape:connector-curvature="0"
       style="fill:#368902;stroke-width:0.311506;stroke-linecap:square"
       id="rect4186-2-1-5-2-5"
       d="m 662.87415,141.16243 v 0.31149 c 0,1.09024 1.59856,2.57954 2.95934,3.27056 1.3608,-0.69102 2.95934,-2.18032 2.95934,-3.27056 v -0.31149 c 0,1.0902 -1.59854,2.57948 -2.95934,3.27051 -1.36078,-0.69103 -2.95934,-2.18031 -2.95934,-3.27051 z" />
  </g>
</svg>
