<?xml version="1.0" encoding="UTF-8" standalone="no"?>
<svg
   viewBox="0 0 22 22"
   version="1.1"
   id="svg1"
   sodipodi:docname="media-optical-video.svg"
   inkscape:version="1.3.2 (091e20ef0f, 2023-11-25)"
   xmlns:inkscape="http://www.inkscape.org/namespaces/inkscape"
   xmlns:sodipodi="http://sodipodi.sourceforge.net/DTD/sodipodi-0.dtd"
   xmlns:xlink="http://www.w3.org/1999/xlink"
   xmlns="http://www.w3.org/2000/svg"
   xmlns:svg="http://www.w3.org/2000/svg">
  <sodipodi:namedview
     id="namedview1"
     pagecolor="#ffffff"
     bordercolor="#999999"
     borderopacity="1"
     inkscape:showpageshadow="2"
     inkscape:pageopacity="0"
     inkscape:pagecheckerboard="0"
     inkscape:deskcolor="#d1d1d1"
     inkscape:zoom="34.636364"
     inkscape:cx="11"
     inkscape:cy="11"
     inkscape:window-width="1920"
     inkscape:window-height="994"
     inkscape:window-x="0"
     inkscape:window-y="0"
     inkscape:window-maximized="1"
     inkscape:current-layer="svg1" />
  <defs
     id="defs3051">
    <linearGradient
       id="linearGradient1"
       inkscape:collect="always">
      <stop
         style="stop-color:#2affd5;stop-opacity:1"
         offset="0"
         id="stop1" />
      <stop
         style="stop-color:#00ccff;stop-opacity:1"
         offset="1"
         id="stop2" />
    </linearGradient>
    <style
       type="text/css"
       id="current-color-scheme">.ColorScheme-Text { color: #fcfcfc; } </style>
    <linearGradient
       inkscape:collect="always"
       xlink:href="#linearGradient1"
       id="linearGradient2"
       x1="3"
       y1="11"
       x2="19"
       y2="11"
       gradientUnits="userSpaceOnUse" />
  </defs>
  <path
     style="fill:url(#linearGradient2);fill-opacity:1;stroke:none"
     d="M 11 3 C 6.568 3 3 6.568 3 11 C 3 15.432 6.568 19 11 19 L 11 18 C 7.122 18 4 14.878 4 11 C 4 7.122 7.122 4 11 4 C 14.878 4 18 7.122 18 11 L 19 11 C 19 6.568 15.432 3 11 3 z M 11 5 C 7.676 5 5 7.676 5 11 L 8 11 C 8 9.338 9.338 8 11 8 L 11 5 z M 11 9 C 9.892 9 9 9.892 9 11 C 9 12.108 9.892 13 11 13 L 11 12 C 10.446 12 10 11.554 10 11 C 10 10.446 10.446 10 11 10 C 11.554 10 12 10.446 12 11 L 13 11 C 13 9.892 12.108 9 11 9 z M 13.5 13 C 12.669 13 12 13.669 12 14.5 C 12 15.15424 12.418077 15.702197 13 15.908203 L 13 19 L 17 19 L 17 17 L 17 16 C 17.554 16 18 15.554 18 15 C 18 14.446 17.554 14 17 14 C 16.446 14 16 14.446 16 15 L 14.908203 15 C 14.963861 14.842779 15 14.67676 15 14.5 C 15 13.669 14.331 13 13.5 13 z M 17 17 L 19 19 L 19 15 L 17 17 z M 14 16 L 16 16 L 16 18 L 14 18 L 14 16 z "
     id="path1" />
</svg>
