<?xml version="1.0" encoding="UTF-8" standalone="no"?>
<svg
   viewBox="0 0 22 22"
   version="1.1"
   id="svg1"
   sodipodi:docname="media-write-dvd.svg"
   inkscape:version="1.3.2 (091e20ef0f, 2023-11-25)"
   xmlns:inkscape="http://www.inkscape.org/namespaces/inkscape"
   xmlns:sodipodi="http://sodipodi.sourceforge.net/DTD/sodipodi-0.dtd"
   xmlns:xlink="http://www.w3.org/1999/xlink"
   xmlns="http://www.w3.org/2000/svg"
   xmlns:svg="http://www.w3.org/2000/svg">
  <sodipodi:namedview
     id="namedview1"
     pagecolor="#ffffff"
     bordercolor="#999999"
     borderopacity="1"
     inkscape:showpageshadow="2"
     inkscape:pageopacity="0"
     inkscape:pagecheckerboard="0"
     inkscape:deskcolor="#d1d1d1"
     inkscape:zoom="34.636364"
     inkscape:cx="11"
     inkscape:cy="11"
     inkscape:window-width="1920"
     inkscape:window-height="994"
     inkscape:window-x="0"
     inkscape:window-y="0"
     inkscape:window-maximized="1"
     inkscape:current-layer="svg1" />
  <defs
     id="defs3051">
    <linearGradient
       id="linearGradient1"
       inkscape:collect="always">
      <stop
         style="stop-color:#008080;stop-opacity:1"
         offset="0"
         id="stop1" />
      <stop
         style="stop-color:#00c54f;stop-opacity:1;"
         offset="1"
         id="stop2" />
    </linearGradient>
    <style
       type="text/css"
       id="current-color-scheme">.ColorScheme-Text { color: #fcfcfc; } </style>
    <linearGradient
       inkscape:collect="always"
       xlink:href="#linearGradient1"
       id="linearGradient2"
       x1="3"
       y1="11"
       x2="19"
       y2="11"
       gradientUnits="userSpaceOnUse" />
  </defs>
  <path
     style="fill:url(#linearGradient2);fill-opacity:1;stroke:none"
     d="M 11 3 C 6.568 3 3 6.568 3 11 C 3 15.432 6.568 19 11 19 C 11.692084 19 12.360349 18.903948 13 18.740234 L 13 17.707031 C 12.366247 17.894565 11.696167 18 11 18 C 7.122 18 4 14.878 4 11 C 4 7.122 7.122 4 11 4 C 14.878 4 18 7.122 18 11 C 18 11.696167 17.894565 12.366247 17.707031 13 L 18.740234 13 C 18.903948 12.360349 19 11.692084 19 11 C 19 6.568 15.432 3 11 3 z M 11 5 C 7.676004 5 5 7.676 5 11 L 8 11 C 8 9.338 9.3380018 8 11 8 L 11 5 z M 11 9 C 9.8920013 9 9 9.892 9 11 C 9 12.108 9.8920013 13 11 13 C 12.107999 13 13 12.108 13 11 C 13 9.892 12.107999 9 11 9 z M 11 10 C 11.553999 10 12 10.446 12 11 C 12 11.554 11.553999 12 11 12 C 10.446001 12 10 11.554 10 11 C 10 10.446 10.446001 10 11 10 z M 14 11 C 14 11.352948 13.931268 11.687647 13.818359 12 L 16.910156 12 C 16.966308 11.675132 17 11.341682 17 11 L 14 11 z M 15.404297 13.041016 C 16.317305 13.226916 17 14.0305 17 15 C 17 15.5815 16.751059 16.100144 16.357422 16.464844 C 16.137081 16.203944 16 15.8698 16 15.5 C 16 15.4182 16.012911 15.339719 16.025391 15.261719 C 15.415754 15.603619 15 16.2486 15 17 C 15 18.108 15.892005 19 17 19 C 18.107995 19 19 18.108 19 17 C 19 14.9225 17.426169 13.245216 15.404297 13.041016 z M 13 13.224609 C 12.469123 13.70179 11.773296 14 11 14 L 11 17 C 11.703343 17 12.373894 16.872755 13 16.652344 L 13 13.224609 z "
     id="path1" />
</svg>
