<?xml version="1.0" encoding="UTF-8" standalone="no"?>
<svg
   viewBox="0 0 16 16"
   version="1.1"
   id="svg1"
   sodipodi:docname="audio-ready.svg"
   width="16"
   height="16"
   inkscape:version="1.3.2 (091e20ef0f, 2023-11-25)"
   xmlns:inkscape="http://www.inkscape.org/namespaces/inkscape"
   xmlns:sodipodi="http://sodipodi.sourceforge.net/DTD/sodipodi-0.dtd"
   xmlns="http://www.w3.org/2000/svg"
   xmlns:svg="http://www.w3.org/2000/svg">
  <sodipodi:namedview
     id="namedview1"
     pagecolor="#ffffff"
     bordercolor="#000000"
     borderopacity="0.25"
     inkscape:showpageshadow="2"
     inkscape:pageopacity="0.0"
     inkscape:pagecheckerboard="0"
     inkscape:deskcolor="#d1d1d1"
     inkscape:zoom="23.96875"
     inkscape:cx="6.1329857"
     inkscape:cy="11.36897"
     inkscape:window-width="1920"
     inkscape:window-height="994"
     inkscape:window-x="0"
     inkscape:window-y="0"
     inkscape:window-maximized="1"
     inkscape:current-layer="svg1" />
  <defs
     id="defs3051">
    <style
       type="text/css"
       id="current-color-scheme">
      .ColorScheme-Text {
        color:#232629;
      }
      .ColorScheme-NeutralText {
        color:#f67400;
      }
      </style>
  </defs>
  <path
     style="opacity:1;fill:#ffd42a;fill-opacity:1;stroke:none"
     d="M 15.50001,8 A 2.0000048,2.0000048 0 0 1 13.500005,10 2.0000048,2.0000048 0 0 1 11.5,8 2.0000048,2.0000048 0 0 1 13.500005,6 2.0000048,2.0000048 0 0 1 15.50001,8 Z"
     class="ColorScheme-NeutralText"
     id="path1" />
  <path
     id="rect858"
     d="M 0,0 H 16 V 16 H 0 Z"
     fill="none" />
  <path
     d="m 9.8539185,2.77482 c 0,-0.716335 -0.815145,-1.021474 -1.3306455,-0.545503 L 5.6505298,4.881354 C 5.5627208,4.962404 5.4493181,5.006578 5.3318118,5.006578 H 2.9783884 c -0.794776,0 -1.4390672,0.669649 -1.4390672,1.494923 v 2.987182 c 0,0.825246 0.6442912,1.495167 1.4390672,1.495167 h 2.3533887 c 0.1175149,0 0.2309411,0.04381 0.3187501,0.124948 l 2.8726701,2.65233 c 0.5155752,0.476074 1.3307242,0.211445 1.3307242,-0.535718 z M 9.161037,7.230145 V 2.765109 13.22541 7.230145 v 0 L 5.0037419,7.977313 v 0 z"
     id="path2057-3-3"
     style="fill:#ffd42a;fill-opacity:1;stroke-width:0.651777"
     sodipodi:nodetypes="sccssssssccsscccccccccccc" />
  <path
     d="m 2.5786473,7.977305 c 0,0.619275 -0.4650451,1.120754 -1.0393242,1.120754 C 0.9655291,9.098059 0.5,8.59658 0.5,7.977305 0.5,7.358562 0.9655291,6.856573 1.5393231,6.856573 c 0.5742791,0 1.0393242,0.501989 1.0393242,1.120732 z"
     id="path72-3-7-3-5"
     style="color:#e5e9ef;fill:#ffd42a;fill-opacity:1;stroke-width:0.0128482" />
  <path
     d="m 10.5468,7.977305 c 0,0.619275 -0.465039,1.120754 -1.0393242,1.120754 -0.3464388,0 -0.3464388,-1.120754 -0.3464388,-1.120754 0,0 0,-1.120732 0.3464388,-1.120732 0.5742852,0 1.0393242,0.501989 1.0393242,1.120732 z"
     id="path72-3-7-3-6-35"
     style="color:#e5e9ef;fill:#ffd42a;fill-opacity:1;stroke-width:0.0128482"
     sodipodi:nodetypes="sscss" />
</svg>
