<?xml version="1.0" encoding="UTF-8" standalone="no"?>
<svg
   viewBox="0 0 31.999996 32"
   width="31.999996"
   height="32"
   version="1.1"
   id="svg8"
   sodipodi:docname="audio-volume-muted.svg"
   inkscape:version="1.3.2 (091e20ef0f, 2023-11-25)"
   xmlns:inkscape="http://www.inkscape.org/namespaces/inkscape"
   xmlns:sodipodi="http://sodipodi.sourceforge.net/DTD/sodipodi-0.dtd"
   xmlns:xlink="http://www.w3.org/1999/xlink"
   xmlns="http://www.w3.org/2000/svg"
   xmlns:svg="http://www.w3.org/2000/svg">
  <defs
     id="defs8">
    <linearGradient
       id="linearGradient5"
       inkscape:collect="always">
      <stop
         style="stop-color:#058bce;stop-opacity:1;"
         offset="0"
         id="stop3" />
      <stop
         style="stop-color:#ffcc00;stop-opacity:1"
         offset="1"
         id="stop4" />
    </linearGradient>
    <linearGradient
       inkscape:collect="always"
       xlink:href="#linearGradient8"
       id="linearGradient29"
       gradientUnits="userSpaceOnUse"
       x1="0"
       y1="16"
       x2="31.999996"
       y2="16"
       gradientTransform="matrix(1.0178652,0,0,1,0.73213473,0)" />
    <linearGradient
       id="linearGradient8"
       inkscape:collect="always">
      <stop
         style="stop-color:#058bce;stop-opacity:1;"
         offset="0"
         id="stop5" />
      <stop
         style="stop-color:#ff66ff;stop-opacity:1;"
         offset="1"
         id="stop6" />
    </linearGradient>
    <linearGradient
       inkscape:collect="always"
       xlink:href="#linearGradient16"
       id="linearGradient36"
       gradientUnits="userSpaceOnUse"
       x1="0"
       y1="16"
       x2="31.999996"
       y2="16"
       gradientTransform="matrix(1.0178652,0,0,1,0.73213473,0)" />
    <linearGradient
       id="linearGradient16"
       inkscape:collect="always">
      <stop
         style="stop-color:#058bce;stop-opacity:1;"
         offset="0"
         id="stop15" />
      <stop
         style="stop-color:#ff66ff;stop-opacity:0.50999999;"
         offset="1"
         id="stop16" />
    </linearGradient>
    <linearGradient
       inkscape:collect="always"
       xlink:href="#linearGradient44"
       id="linearGradient34"
       gradientUnits="userSpaceOnUse"
       x1="0"
       y1="16"
       x2="31.999996"
       y2="16"
       gradientTransform="matrix(1.0178652,0,0,1,0.73213473,0)" />
    <linearGradient
       id="linearGradient44"
       inkscape:collect="always">
      <stop
         style="stop-color:#058bce;stop-opacity:0.49598929;"
         offset="0"
         id="stop42" />
      <stop
         style="stop-color:#ff66ff;stop-opacity:0.50999999;"
         offset="1"
         id="stop43" />
    </linearGradient>
    <linearGradient
       inkscape:collect="always"
       xlink:href="#linearGradient5"
       id="linearGradient9"
       gradientUnits="userSpaceOnUse"
       x1="0"
       y1="16"
       x2="31.999996"
       y2="16" />
    <linearGradient
       inkscape:collect="always"
       xlink:href="#linearGradient8"
       id="linearGradient10"
       gradientUnits="userSpaceOnUse"
       x1="0"
       y1="16"
       x2="31.999996"
       y2="16"
       gradientTransform="matrix(1.0178652,0,0,1,0.73213473,0)" />
  </defs>
  <sodipodi:namedview
     id="namedview8"
     pagecolor="#ffffff"
     bordercolor="#000000"
     borderopacity="0.25"
     inkscape:showpageshadow="2"
     inkscape:pageopacity="0.0"
     inkscape:pagecheckerboard="0"
     inkscape:deskcolor="#d1d1d1"
     inkscape:zoom="15.979167"
     inkscape:cx="15.332464"
     inkscape:cy="15.269883"
     inkscape:window-width="1920"
     inkscape:window-height="994"
     inkscape:window-x="0"
     inkscape:window-y="0"
     inkscape:window-maximized="1"
     inkscape:current-layer="svg8"
     showgrid="true">
    <inkscape:grid
       id="grid1"
       units="px"
       originx="0"
       originy="0"
       spacingx="0.99999999"
       spacingy="1"
       empcolor="#0099e5"
       empopacity="0.30196078"
       color="#0099e5"
       opacity="0.14901961"
       empspacing="5"
       dotted="false"
       gridanglex="30"
       gridanglez="30"
       visible="true" />
  </sodipodi:namedview>
  <style
     id="current-color-scheme"
     type="text/css">.ColorScheme-Text{color:#232629;}.ColorScheme-NegativeText { color: #da4453; } </style>
  <path
     style="opacity:0.00100002;fill:url(#linearGradient9);fill-opacity:1"
     d="M 0,0 H 31.999997 V 32.000001 H 0 Z"
     id="path45" />
  <path
     d="M 5.4798951,3.2855783 C 5.0923417,2.9048212 4.4639697,2.9048012 4.0764167,3.2855543 c -0.3875655,0.380755 -0.38758,0.998087 -3.05e-5,1.378849 L 9.6579184,10 H 6.7629672 c -1.6442853,0 -2.9772368,1.457624 -2.9772368,3.073038 v 5.847276 C 3.7857304,20.535683 5.0163961,22 6.6606814,22 h 5.2756136 c 0.296849,0 0.173051,-0.06708 0.354717,0.09163 l 5.943417,5.19177 c 1.066642,0.93183 2.884842,0.187545 2.855012,-1.21432 v -4.790064 l 7.466053,7.435411 c 0.387564,0.380761 1.01596,0.380761 1.403531,0 0.387564,-0.380768 0.387564,-0.998134 0,-1.378895 z M 19.05371,19.329031 v 6.016214 L 13.610128,20.634349 C 13.065095,20.158292 12.361133,20 11.631805,20 l 0.01084,-8 v 0 0 0 h -0.01078 c -0.0031,0 0.007,10e-6 0.0106,0 z"
     id="path1707"
     style="fill:url(#linearGradient10);fill-opacity:1;stroke-width:1.31155"
     sodipodi:nodetypes="ccccsssssccsccccccccsccccscc" />
  <path
     d="m 19.05371,6.6487703 v 7.1647977 l 2.035731,1.949981 V 5.9249453 c 0,-1.40219 -1.66211,-2.146086 -2.728622,-1.214417 l -4.498224,3.9289897 1.40587,1.381231 z"
     id="path1709"
     style="fill:url(#linearGradient29);fill-opacity:1;stroke-width:1.31155"
     sodipodi:nodetypes="cccscccc" />
  <path
     d="m 23.820501,18.546822 1.505822,1.479525 c 0.611057,-1.214847 0.954029,-2.582564 0.954029,-4.026459 0,-1.564144 -0.402517,-3.03882 -1.112019,-4.326602 -0.26094,-0.473544 -0.863266,-0.649613 -1.345183,-0.393255 -0.482038,0.256348 -0.661345,0.848038 -0.400405,1.321571 0.556412,1.009811 0.872793,2.16628 0.872793,3.398286 0,0.898294 -0.168181,1.756548 -0.475037,2.546934 z"
     id="path1711"
     style="fill:url(#linearGradient36);fill-opacity:0.5;stroke-width:1.31155" />
  <path
     d="m 26.793896,21.468162 1.446806,1.421405 C 29.513893,20.891881 30.25,18.529277 30.25,15.999888 30.25,13.105953 29.286303,10.430321 27.657427,8.269635 27.331121,7.8369333 26.70961,7.7459593 26.269241,8.0664563 25.828743,8.386944 25.73625,8.997536 26.062423,9.430252 c 1.384348,1.836299 2.20276,4.107718 2.20276,6.569636 0,1.990412 -0.534846,3.85616 -1.471287,5.468274 z"
     id="path1713"
     style="fill:url(#linearGradient34);fill-opacity:0.501676;stroke-width:1.31155" />
  <path
     d="M 5.8214539,15.999991 C 5.8214539,17.105103 4.9105682,18 3.7857264,18 2.6618321,18.000001 1.75,17.105103 1.75,15.999991 1.75,14.895822 2.6618321,14 3.7857264,14 c 1.1248418,0 2.0357275,0.895822 2.0357275,1.999991 z"
     id="path72-3-7-0-3"
     style="color:#e5e9ef;fill:#058bce;fill-opacity:1;stroke-width:0.0240216" />
</svg>
