<?xml version="1.0" encoding="UTF-8" standalone="no"?>
<svg
   version="1.1"
   viewBox="0 0 22 22"
   id="svg1615"
   sodipodi:docname="albumfolder-user-trash.svg"
   inkscape:version="1.2.2 (b0a8486541, 2022-12-01)"
   xmlns:inkscape="http://www.inkscape.org/namespaces/inkscape"
   xmlns:sodipodi="http://sodipodi.sourceforge.net/DTD/sodipodi-0.dtd"
   xmlns="http://www.w3.org/2000/svg"
   xmlns:svg="http://www.w3.org/2000/svg">
  <sodipodi:namedview
     id="namedview1617"
     pagecolor="#ffffff"
     bordercolor="#000000"
     borderopacity="0.25"
     inkscape:showpageshadow="2"
     inkscape:pageopacity="0.0"
     inkscape:pagecheckerboard="0"
     inkscape:deskcolor="#d1d1d1"
     showgrid="false"
     inkscape:zoom="10.727273"
     inkscape:cx="5.0805085"
     inkscape:cy="11.04661"
     inkscape:window-width="1920"
     inkscape:window-height="998"
     inkscape:window-x="0"
     inkscape:window-y="0"
     inkscape:window-maximized="1"
     inkscape:current-layer="svg1615" />
  <defs
     id="defs1611">
    <style
       type="text/css"
       id="style1609">.ColorScheme-Text {
        color:#d8dee9;
      }
      .ColorScheme-NegativeText {
        color:#bf616a;
      }</style>
  </defs>
  <path
     style="color:#d8dee9;fill:#bf616a;fill-opacity:1;stroke:none;stroke-width:1.49994"
     d="M 7.999994,2 V 3.499994 H 2 v 1.50001 H 3.499994 V 11 15.70215 C 3.499994,18.083688 5.416327,20 7.797848,20 h 6.404304 c 2.381521,0 4.297854,-1.916312 4.297854,-4.29785 V 11 5.000004 H 20 V 3.499994 H 14.000006 V 2 Z m 1.500012,1.499994 h 2.999988 v 1.50001 h 1.500012 2.999988 V 11 15.5 c 0,1.661999 -1.337994,3 -2.999988,3 H 7.999994 C 6.338,18.5 5.000006,17.161999 5.000006,15.5 V 11 5.000004 h 4.5 z M 7.999994,7.9999974 V 11 15.5 H 9.500006 V 11 7.9999974 Z m 4.5,0 V 11 15.5 h 1.500012 V 11 7.9999974 Z"
     class="ColorScheme-Text "
     id="path1035" />
</svg>
