<?xml version="1.0" encoding="UTF-8" standalone="no"?>
<svg
   width="22"
   height="22"
   version="1.1"
   id="svg250"
   sodipodi:docname="albumfolder-properties.svg"
   inkscape:version="1.2.2 (b0a8486541, 2022-12-01)"
   xmlns:inkscape="http://www.inkscape.org/namespaces/inkscape"
   xmlns:sodipodi="http://sodipodi.sourceforge.net/DTD/sodipodi-0.dtd"
   xmlns="http://www.w3.org/2000/svg"
   xmlns:svg="http://www.w3.org/2000/svg">
  <sodipodi:namedview
     id="namedview252"
     pagecolor="#ffffff"
     bordercolor="#000000"
     borderopacity="0.25"
     inkscape:showpageshadow="2"
     inkscape:pageopacity="0.0"
     inkscape:pagecheckerboard="0"
     inkscape:deskcolor="#d1d1d1"
     showgrid="false"
     inkscape:zoom="14.75"
     inkscape:cx="-3.7288136"
     inkscape:cy="8.0338983"
     inkscape:window-width="1920"
     inkscape:window-height="998"
     inkscape:window-x="0"
     inkscape:window-y="0"
     inkscape:window-maximized="1"
     inkscape:current-layer="svg250" />
  <defs
     id="defs246">
    <style
       type="text/css"
       id="style244">.ColorScheme-Text { color:#d8dee9; }
</style>
  </defs>
  <path
     fill-rule="evenodd"
     clip-rule="evenodd"
     d="m 17.951478,8.7686468 c 0.0079,0 0.01543,-0.0047 0.02388,-0.00548 1.135694,0.1123242 2.024765,1.0706202 2.024765,2.2367942 0,1.16853 -0.890162,2.128755 -2.030286,2.239146 -0.0014,0.0055 -0.0052,0.01023 -0.0069,0.01543 -0.0079,-5.6e-4 -0.01479,-0.005 -0.02391,-0.005 -0.286665,0 -0.606097,0.05107 -0.724751,0.337782 -0.118652,0.287297 0.04942,0.537788 0.269159,0.756957 0.0075,0.0075 0.01787,0.01102 0.02608,0.01761 0.718457,0.883307 0.677781,2.17861 -0.145582,3.002044 -0.822592,0.822837 -2.118984,0.864603 -3.002572,0.146673 -0.01318,0.0069 -0.02743,0.01023 -0.04067,0.01596 -0.0057,-0.0069 -0.0079,-0.01542 -0.01479,-0.02256 -0.20352,-0.202712 -0.464171,-0.392769 -0.751189,-0.273024 -0.287507,0.118653 -0.344636,0.414179 -0.344636,0.725067 0,0.02804 0.0075,0.05332 0.01676,0.07856 C 13.085205,19.141969 12.146143,20 10.999971,20 9.8332365,20 8.8744139,19.111734 8.760964,17.974669 c -0.012378,-0.0039 -0.02306,-0.01152 -0.035716,-0.01596 5.62e-4,-0.0055 0.00294,-0.01078 0.00294,-0.01595 0,-0.286702 -0.05079,-0.605324 -0.337573,-0.723975 -0.2870176,-0.119216 -0.537788,0.04941 -0.7572,0.269154 -0.013181,0.01318 -0.019758,0.02968 -0.029104,0.04503 C 6.7218006,18.223982 5.4479423,18.176206 4.6360741,17.36381 3.8115454,16.53929 3.7711525,15.241245 4.4929837,14.357372 c -0.00776,-0.0154 -0.011814,-0.03185 -0.01838,-0.04836 0.202714,-0.202703 0.3919264,-0.463632 0.2730275,-0.750369 -0.1192161,-0.286701 -0.4152689,-0.344951 -0.7259104,-0.344951 -0.02032,0 -0.03818,0.0075 -0.05741,0.01262 C 2.8577468,13.085849 2,12.144853 2,10.999948 2,9.828817 2.8943093,8.8683427 4.0373871,8.7609404 c 0.0034,-0.010176 0.0093,-0.019236 0.013746,-0.029108 C 4.3337552,8.7293166 4.642745,8.6763588 4.759219,8.3945432 4.8778737,8.1083218 4.7108784,7.8589574 4.4917153,7.6397922 3.7718162,6.757048 3.8122098,5.4600913 4.6361728,4.6361305 5.4631228,3.8085836 6.7691499,3.7704026 7.6527355,4.5012696 c 0.0093,-0.0047 0.01892,-0.00658 0.028554,-0.010734 C 7.8823501,4.6885709 8.1383247,4.868186 8.4192954,4.7520284 8.706312,4.6330944 8.764003,4.336761 8.764003,4.0263645 c 0,-0.00107 -5.626e-4,-0.00164 -5.626e-4,-0.00298 C 8.8773829,2.8871374 9.8337425,2 10.999916,2 c 1.173067,0 2.13467,0.897052 2.239574,2.0423435 0.0022,8.249e-4 0.0034,0.00282 0.006,0.00336 0,0.067296 0.0032,0.1365124 0.01212,0.204329 h -0.0077 c 0,0.3103619 -0.25158,0.5627841 -0.562504,0.5627841 -0.310081,0 -0.561941,-0.2524222 -0.561941,-0.5627841 0,-0.6215656 -0.504002,-1.1250062 -1.125287,-1.1250062 -0.621566,0 -1.1250052,0.5034406 -1.1250052,1.1250062 V 4.812811 l -0.0036,0.00464 c 0.010146,0.3718849 -0.2263014,0.7190554 -0.5995583,0.8300085 -0.0091,0.00282 -0.018664,0.00282 -0.027464,0.00548 l -0.00654,0.00884 C 8.9746773,5.7501926 8.7192304,5.8556559 8.4742255,5.9797941 l -0.01621,-0.00242 c -0.00956,0.00516 -0.0173,0.012902 -0.026934,0.018388 C 8.0671222,6.1926789 7.6233068,6.0940638 7.3733799,5.782051 L 7.0226231,5.4315801 c -0.4397362,-0.4394554 -1.1521815,-0.4394554 -1.5911103,0 -0.4391391,0.4394563 -0.4391391,1.1519367 0,1.5908289 l 0.3976908,0.3979724 0.00246,0.016764 C 6.0947713,7.6942101 6.170603,8.100724 5.98684,8.4401941 c -0.00294,0.00516 -0.0071,0.00884 -0.010146,0.014274 l 0.00294,0.018954 C 5.8571756,8.7187094 5.750053,8.9741202 5.662161,9.2377938 l -0.01702,0.013181 c -0.00284,0.00984 -0.0034,0.01951 -0.00606,0.029676 C 5.5196021,9.6822086 5.1276786,9.925 4.7261208,9.875007 H 4.2502426 c -0.6215653,0 -1.1252507,0.504003 -1.1252507,1.125007 0,0.620861 0.5036854,1.125145 1.1252507,1.125145 h 0.5619418 l 0.01676,0.01262 c 0.3639398,-5.62e-4 0.7009124,0.232913 0.8102146,0.599313 0.00107,0.0031 0.00107,0.0068 0.0016,0.0098 l 0.02088,0.0154 c 0.088446,0.263122 0.1944482,0.518568 0.3180586,0.763539 l -0.005,0.03408 c 0.0038,0.0064 0.0086,0.01152 0.01209,0.01813 0.1969458,0.363655 0.098336,0.807505 -0.2136813,1.05743 l -0.3416228,0.34225 c -0.4391388,0.438893 -0.4391388,1.15137 0,1.590829 0.4388938,0.438893 1.151374,0.438893 1.5911114,0 l 0.39797,-0.397694 0.016494,-0.0025 c 0.2565021,-0.255972 0.6585859,-0.327939 0.9939438,-0.146674 0.00246,0.001 0.0036,0.003 0.00606,0.0039 l 0.036246,-0.0055 c 0.2452859,0.122488 0.5006979,0.229611 0.7643707,0.3175 l 0.02253,0.02967 c 0.0036,10e-4 0.00796,10e-4 0.01153,0.0025 0.3674911,0.108752 0.6006477,0.447152 0.5995586,0.812433 l 0.0036,0.0039 v 0.563147 c 0,0.621286 0.50344,1.125007 1.125005,1.125007 0.621286,0 1.125289,-0.50372 1.125289,-1.125007 v -0.563031 l 0.0036,-0.0039 c -0.0011,-0.365308 0.232104,-0.703125 0.599593,-0.812428 0.0039,-0.0014 0.0078,-0.0014 0.01181,-0.0025 l 0.02227,-0.02907 c 0.263107,-0.08842 0.518275,-0.193921 0.763489,-0.31806 l 0.03711,0.0055 c 0.0019,-10e-4 0.0032,-0.003 0.0057,-0.0039 0.335357,-0.181265 0.737476,-0.109316 0.993979,0.146676 l 0.01676,0.0025 0.397971,0.397694 c 0.438892,0.438891 1.151373,0.438891 1.59111,0 0.439176,-0.43946 0.439176,-1.151938 0,-1.59083 l -0.342008,-0.34222 c -0.311939,-0.24993 -0.410273,-0.693783 -0.213326,-1.057438 0.0032,-0.0064 0.0079,-0.01215 0.01183,-0.01813 l -0.0055,-0.03735 c 0.122481,-0.244968 0.230447,-0.497114 0.317496,-0.759663 l 0.02194,-0.01647 c 8.22e-4,-0.0031 0.0012,-0.0063 0.0018,-0.0093 0.109079,-0.366401 0.44578,-0.599313 0.809687,-0.599313 l 0.01646,-0.01262 h 0.562714 c 0.621563,0 1.125005,-0.504284 1.125005,-1.125147 0,-0.621003 -0.503442,-1.125005 -1.125006,-1.125005 h -0.476149 c -0.402117,0.04999 -0.79348,-0.1928105 -0.912693,-0.5943673 -0.0026,-0.010176 -0.0032,-0.020316 -0.006,-0.030482 l -0.01666,-0.012539 C 16.250124,8.9747056 16.14385,8.7192588 16.020525,8.4748153 l 0.0026,-0.019758 c -0.0026,-0.00548 -0.0069,-0.0096 -0.0105,-0.01483 -0.183693,-0.3394693 -0.107866,-0.7459832 0.154969,-1.003047 l 0.0022,-0.016764 0.397972,-0.3979722 c 0.439173,-0.4388922 0.439173,-1.1513733 0,-1.5908299 C 16.359221,5.223453 16.053818,5.1045196 15.780548,5.093797 c -0.310925,0 -0.562785,-0.2515798 -0.562785,-0.5625034 0,-0.3109237 0.25186,-0.5625035 0.562785,-0.5625035 0.04034,0 0.07936,0.00376 0.117563,0.01238 0.529,0.034584 1.062392,0.2518603 1.46504,0.6550687 0.826385,0.8261777 0.865657,2.1291457 0.138446,3.0127334 0.0026,0.00516 0.0032,0.01177 0.0064,0.017296 -0.0026,0.00242 -0.006,0.00298 -0.0084,0.0061 -0.202959,0.2032389 -0.392767,0.4641699 -0.273831,0.75175 0.118546,0.2869813 0.414882,0.3446733 0.725208,0.3446733 z M 14.093941,5.9374626 c -0.31093,0 -0.562503,-0.2521417 -0.562503,-0.5627844 0,-0.31008 0.251573,-0.5619408 0.562503,-0.5619408 0.310073,0 0.561936,0.2518608 0.561936,0.5619408 0,0.3106427 -0.251863,0.5627844 -0.561936,0.5627844 z M 9.0312339,12.406355 c 0.3109242,0 0.5627847,0.251576 0.5627847,0.562502 0,0.310921 -0.2518605,0.56247 -0.5627847,0.56247 -0.3106429,0 -0.5625028,-0.251549 -0.5625028,-0.56247 0,-0.310926 0.2518599,-0.562502 0.5625028,-0.562502 z M 7.6252931,10.999956 c 0,-1.8638193 1.5111297,-3.374984 3.3746669,-3.374984 1.863854,0 3.374944,1.5111647 3.374944,3.374984 0,1.863997 -1.51109,3.375121 -3.374944,3.375121 -0.310642,0 -0.562504,-0.252139 -0.562504,-0.562503 0,-0.310362 0.251862,-0.563031 0.562504,-0.563031 1.242851,0 2.249731,-1.006912 2.249731,-2.249587 0,-1.242534 -1.006916,-2.2497318 -2.249731,-2.2497318 -1.2425344,0 -2.2502584,1.0071626 -2.2502584,2.2497318 0,0.311065 -0.2518615,0.562645 -0.5619417,0.562645 -0.3109225,0 -0.5624668,-0.25158 -0.5624668,-0.562645 z"
     id="path2-3-6"
     style="fill:currentColor;fill-opacity:1;stroke-width:0.0351562"
     class="ColorScheme-Text" />
</svg>
