<?xml version="1.0" encoding="UTF-8" standalone="no"?>
<svg
   viewBox="0 0 16 16"
   version="1.1"
   id="svg1"
   sodipodi:docname="search.svg"
   inkscape:version="1.3.1 (91b66b0783, 2023-11-16)"
   xmlns:inkscape="http://www.inkscape.org/namespaces/inkscape"
   xmlns:sodipodi="http://sodipodi.sourceforge.net/DTD/sodipodi-0.dtd"
   xmlns:xlink="http://www.w3.org/1999/xlink"
   xmlns="http://www.w3.org/2000/svg"
   xmlns:svg="http://www.w3.org/2000/svg">
  <sodipodi:namedview
     id="namedview1"
     pagecolor="#ffffff"
     bordercolor="#000000"
     borderopacity="0.25"
     inkscape:showpageshadow="2"
     inkscape:pageopacity="0.0"
     inkscape:pagecheckerboard="0"
     inkscape:deskcolor="#d1d1d1"
     inkscape:zoom="47.9375"
     inkscape:cx="7.9895698"
     inkscape:cy="8"
     inkscape:window-width="1920"
     inkscape:window-height="994"
     inkscape:window-x="0"
     inkscape:window-y="0"
     inkscape:window-maximized="1"
     inkscape:current-layer="svg1" />
  <defs
     id="defs1">
    <linearGradient
       id="linearGradient1"
       inkscape:collect="always">
      <stop
         style="stop-color:#bc5fd3;stop-opacity:1"
         offset="0"
         id="stop1" />
      <stop
         style="stop-color:#ffcc00;stop-opacity:1"
         offset="1"
         id="stop2" />
    </linearGradient>
    <style
       type="text/css"
       id="style1">.ColorScheme-Text {
        color:#d8dee9;
      }</style>
    <linearGradient
       inkscape:collect="always"
       xlink:href="#linearGradient1"
       id="linearGradient2"
       x1="2"
       y1="13.029309"
       x2="13.99993"
       y2="2"
       gradientUnits="userSpaceOnUse" />
  </defs>
  <path
     d="m6.5 2c-2.493 0-4.5 2.01-4.5 4.5 0 2.493 2.01 4.5 4.5 4.5 1.0636 0 2.0263-0.3812 2.7949-0.99414l3.998 3.998 0.70703-0.70703-3.998-3.998c0.61565-0.76978 0.99805-1.7335 0.99805-2.7988 0-2.493-2.01-4.5-4.5-4.5zm0 1c1.939 0 3.5 1.561 3.5 3.5s-1.561 3.5-3.5 3.5-3.5-1.561-3.5-3.5 1.561-3.5 3.5-3.5z"
     id="path1"
     style="fill:url(#linearGradient2)" />
</svg>
