<?xml version="1.0" encoding="UTF-8" standalone="no"?>
<svg
   width="32"
   height="32"
   version="1.1"
   id="svg1"
   sodipodi:docname="akregator-symbolic.svg"
   inkscape:version="1.3.2 (091e20ef0f, 2023-11-25)"
   xmlns:inkscape="http://www.inkscape.org/namespaces/inkscape"
   xmlns:sodipodi="http://sodipodi.sourceforge.net/DTD/sodipodi-0.dtd"
   xmlns:xlink="http://www.w3.org/1999/xlink"
   xmlns="http://www.w3.org/2000/svg"
   xmlns:svg="http://www.w3.org/2000/svg">
  <defs
     id="defs1">
    <linearGradient
       inkscape:collect="always"
       xlink:href="#linearGradient1"
       id="linearGradient2"
       x1="0"
       y1="32"
       x2="31"
       y2="1"
       gradientUnits="userSpaceOnUse" />
    <linearGradient
       id="linearGradient1"
       inkscape:collect="always">
      <stop
         style="stop-color:#ff9955;stop-opacity:1;"
         offset="0"
         id="stop1" />
      <stop
         style="stop-color:#ffccaa;stop-opacity:1"
         offset="1"
         id="stop2" />
    </linearGradient>
    <linearGradient
       inkscape:collect="always"
       xlink:href="#linearGradient1"
       id="linearGradient5"
       gradientUnits="userSpaceOnUse"
       x1="0"
       y1="32"
       x2="22"
       y2="8" />
    <linearGradient
       inkscape:collect="always"
       xlink:href="#linearGradient1"
       id="linearGradient3"
       gradientUnits="userSpaceOnUse"
       x1="0"
       y1="32"
       x2="31"
       y2="1" />
    <linearGradient
       inkscape:collect="always"
       xlink:href="#linearGradient1"
       id="linearGradient4"
       gradientUnits="userSpaceOnUse"
       x1="0"
       y1="32"
       x2="31"
       y2="1" />
    <linearGradient
       inkscape:collect="always"
       xlink:href="#linearGradient1"
       id="linearGradient6"
       gradientUnits="userSpaceOnUse"
       x1="0"
       y1="32"
       x2="31"
       y2="1" />
    <linearGradient
       inkscape:collect="always"
       xlink:href="#linearGradient1"
       id="linearGradient7"
       gradientUnits="userSpaceOnUse"
       x1="0"
       y1="32"
       x2="31"
       y2="1" />
  </defs>
  <sodipodi:namedview
     id="namedview1"
     pagecolor="#ffffff"
     bordercolor="#000000"
     borderopacity="0.25"
     inkscape:showpageshadow="2"
     inkscape:pageopacity="0.0"
     inkscape:pagecheckerboard="0"
     inkscape:deskcolor="#d1d1d1"
     inkscape:zoom="5.9921875"
     inkscape:cx="16.187744"
     inkscape:cy="16.104302"
     inkscape:window-width="1920"
     inkscape:window-height="994"
     inkscape:window-x="0"
     inkscape:window-y="0"
     inkscape:window-maximized="1"
     inkscape:current-layer="svg1" />
  <style
     type="text/css"
     id="current-color-scheme">
      .ColorScheme-Text {
        color:#31363b;
      }
      </style>
  <g
     id="akregator"
     transform="translate(-9,-58)">
    <path
       id="path12"
       d="m 26,4 v 4 a 20,20 0 0 1 20,20 h 4 A 24,24 0 0 0 26,4 Z m 0,8 v 4 a 12,12 0 0 1 12,12 h 4 A 16,16 0 0 0 26,12 Z m 3.5,9 A 3.5,3.5 0 0 0 26,24.5 3.5,3.5 0 0 0 29.5,28 3.5,3.5 0 0 0 33,24.5 3.5,3.5 0 0 0 29.5,21 Z"
       style="fill:currentColor;fill-opacity:1;stroke:none"
       class="ColorScheme-Text" />
    <path
       id="path14"
       style="opacity:1;fill:none"
       d="M 22,0 V 32 H 54 V 0 Z" />
  </g>
  <g
     id="akregator-5"
     style="fill:url(#linearGradient2);fill-opacity:1">
    <rect
       style="opacity:0.00100002;fill:url(#linearGradient5);fill-opacity:1"
       width="32"
       height="32"
       x="0"
       y="0"
       id="rect7" />
    <g
       id="g922"
       transform="matrix(0.23157895,0,0,0.23157895,4.329458,4.4660529)"
       style="fill:url(#linearGradient7);fill-opacity:1">
      <path
         d="m 14,2.5 c -3.5,0 -6.3,2.8 -6.3,6.3 0,3.5 2.8,6.3 6.3,6.3 39.1,0 70.9,31.7 70.9,70.8 0,3.5 2.8,6.3 6.3,6.3 3.5,0 6.3,-2.8 6.3,-6.3 C 97.5,39.9 60.1,2.5 14,2.5 Z"
         id="path2"
         style="fill:url(#linearGradient3);fill-opacity:1" />
      <path
         d="m 14,38.4 c -3.5,0 -6.3,2.8 -6.3,6.3 0,3.5 2.8,6.3 6.3,6.3 19.3,0 35,15.6 35,34.9 0,3.5 2.8,6.3 6.3,6.3 3.5,0 6.3,-2.8 6.3,-6.3 C 61.6,59.7 40.3,38.4 14,38.4 Z"
         id="path4-3"
         style="fill:url(#linearGradient4);fill-opacity:1" />
      <path
         d="m 14,74.3 c -6.4,0 -11.5,5.2 -11.5,11.5 0,6.4 5.2,11.7 11.5,11.7 6.4,0 11.7,-5.2 11.7,-11.7 0,-6.3 -5.2,-11.5 -11.7,-11.5 z"
         id="path6"
         style="fill:url(#linearGradient6);fill-opacity:1" />
    </g>
  </g>
</svg>
