<?xml version="1.0" encoding="UTF-8" standalone="no"?>
<svg
   version="1.1"
   id="svg2"
   viewBox="0 0 32 32"
   inkscape:version="1.3.2 (091e20ef0f, 2023-11-25)"
   sodipodi:docname="cantata-symbolic.svg"
   width="32"
   height="32"
   xmlns:inkscape="http://www.inkscape.org/namespaces/inkscape"
   xmlns:sodipodi="http://sodipodi.sourceforge.net/DTD/sodipodi-0.dtd"
   xmlns:xlink="http://www.w3.org/1999/xlink"
   xmlns="http://www.w3.org/2000/svg"
   xmlns:svg="http://www.w3.org/2000/svg"
   xmlns:rdf="http://www.w3.org/1999/02/22-rdf-syntax-ns#"
   xmlns:cc="http://creativecommons.org/ns#"
   xmlns:dc="http://purl.org/dc/elements/1.1/">
  <sodipodi:namedview
     pagecolor="#02334b"
     bordercolor="#000000"
     borderopacity="1"
     objecttolerance="10"
     gridtolerance="10"
     guidetolerance="10"
     inkscape:pageopacity="0"
     inkscape:pageshadow="2"
     inkscape:window-width="1920"
     inkscape:window-height="994"
     id="namedview14"
     showgrid="true"
     inkscape:zoom="7.375"
     inkscape:cx="14.237288"
     inkscape:cy="13.898305"
     inkscape:window-x="0"
     inkscape:window-y="0"
     inkscape:window-maximized="1"
     inkscape:current-layer="svg2"
     inkscape:lockguides="true"
     inkscape:document-rotation="0"
     inkscape:showpageshadow="true"
     inkscape:pagecheckerboard="true"
     inkscape:deskcolor="#02334b">
    <inkscape:grid
       type="xygrid"
       id="grid838"
       originx="-22"
       originy="0"
       spacingy="1"
       spacingx="1"
       units="px"
       visible="true" />
  </sodipodi:namedview>
  <metadata
     id="metadata20">
    <rdf:RDF>
      <cc:Work
         rdf:about="">
        <dc:format>image/svg+xml</dc:format>
        <dc:type
           rdf:resource="http://purl.org/dc/dcmitype/StillImage" />
      </cc:Work>
    </rdf:RDF>
  </metadata>
  <defs
     id="defs3051">
    <linearGradient
       id="linearGradient2"
       inkscape:collect="always">
      <stop
         style="stop-color:#00aa7f;stop-opacity:1;"
         offset="0"
         id="stop2" />
      <stop
         style="stop-color:#00f3b6;stop-opacity:1;"
         offset="1"
         id="stop3" />
    </linearGradient>
    <style
       id="current-color-scheme"
       type="text/css">
      .ColorScheme-Text {
        color:#31363b;
      }
      </style>
    <linearGradient
       inkscape:collect="always"
       xlink:href="#linearGradient2"
       id="linearGradient3"
       x1="26"
       y1="26.033897"
       x2="48.372883"
       y2="4"
       gradientUnits="userSpaceOnUse" />
  </defs>
  <g
     id="cantata"
     inkscape:label="#cantata"
     transform="translate(-22)">
    <path
       id="path13"
       class="ColorScheme-Text"
       d="m 38,3.9999999 c -6.627417,0 -12,5.372583 -12,12.0000001 0,6.627417 5.372583,12 12,12 6.627417,0 12,-5.372583 12,-12 C 50,9.3725829 44.627417,3.9999999 38,3.9999999 Z m 0.135593,1.677966 c 6.075133,0 10.186441,4.246902 10.186441,10.3220341 0,6.075133 -4.246902,10.457627 -10.322034,10.457627 -6.075132,0 -10.186441,-4.246901 -10.186441,-10.322033 0,-6.075133 4.246902,-10.4576281 10.322034,-10.4576281 z"
       style="color:#31363b;fill:url(#linearGradient3);fill-opacity:1;stroke:none"
       inkscape:connector-curvature="0"
       sodipodi:nodetypes="ssssssssss" />
    <path
       id="path15"
       class="ColorScheme-Text"
       d="M 38.002213,3.9999999 V 20.993871 c -1.255763,-0.541606 -3.213967,-0.827849 -4.768528,-0.183681 -2.602125,1.077213 -3.764563,3.471449 -3.004382,5.307377 0.760165,1.836516 3.158478,2.4213 5.761203,1.343499 2.053128,-0.852293 3.045682,-3.113787 3.042522,-4.448302 L 39.002208,9.9978365 c 0,0 5.100556,0.5991185 5.100556,5.3973565 0,3.59867 -1.100655,4.599059 -4.100562,7.597957 C 43.002109,21.19381 45.301,18.993863 45.301,15.395193 45.301,10.596955 41.597247,8.4391233 40.648682,7.4908763 40.048701,6.891092 39.301035,4.6003359 39.301035,4.6003359 Z"
       style="fill:#00b688;fill-opacity:1;stroke:none" />
    <path
       id="path18"
       d="M 22,0 V 32 H 54 V 0 Z"
       style="opacity:1;fill:none" />
  </g>
</svg>
