<?xml version="1.0" encoding="UTF-8" standalone="no"?>
<svg
   width="32"
   height="32"
   version="1.1"
   id="svg6"
   sodipodi:docname="kdeconnect-symbolic.svg"
   inkscape:version="1.3.2 (091e20ef0f, 2023-11-25)"
   xmlns:inkscape="http://www.inkscape.org/namespaces/inkscape"
   xmlns:sodipodi="http://sodipodi.sourceforge.net/DTD/sodipodi-0.dtd"
   xmlns:xlink="http://www.w3.org/1999/xlink"
   xmlns="http://www.w3.org/2000/svg"
   xmlns:svg="http://www.w3.org/2000/svg">
  <defs
     id="defs10">
    <linearGradient
       inkscape:collect="always"
       xlink:href="#linearGradient1"
       id="linearGradient2"
       x1="7"
       y1="28"
       x2="24"
       y2="4"
       gradientUnits="userSpaceOnUse" />
    <linearGradient
       id="linearGradient1"
       inkscape:collect="always">
      <stop
         style="stop-color:#1597ac;stop-opacity:1;"
         offset="0"
         id="stop1" />
      <stop
         style="stop-color:#9676d2;stop-opacity:1;"
         offset="1"
         id="stop2" />
    </linearGradient>
    <linearGradient
       inkscape:collect="always"
       xlink:href="#linearGradient1"
       id="linearGradient3"
       gradientUnits="userSpaceOnUse"
       x1="7"
       y1="28"
       x2="24"
       y2="4" />
    <linearGradient
       inkscape:collect="always"
       xlink:href="#linearGradient1"
       id="linearGradient4"
       gradientUnits="userSpaceOnUse"
       x1="7"
       y1="28"
       x2="24"
       y2="4" />
    <linearGradient
       inkscape:collect="always"
       xlink:href="#linearGradient1"
       id="linearGradient5"
       gradientUnits="userSpaceOnUse"
       x1="7"
       y1="28"
       x2="24"
       y2="4" />
  </defs>
  <sodipodi:namedview
     id="namedview8"
     pagecolor="#ffffff"
     bordercolor="#000000"
     borderopacity="0.25"
     inkscape:showpageshadow="2"
     inkscape:pageopacity="0.0"
     inkscape:pagecheckerboard="0"
     inkscape:deskcolor="#d1d1d1"
     showgrid="false"
     inkscape:zoom="8.5405241"
     inkscape:cx="11.474706"
     inkscape:cy="11.416161"
     inkscape:window-width="1920"
     inkscape:window-height="994"
     inkscape:window-x="0"
     inkscape:window-y="0"
     inkscape:window-maximized="1"
     inkscape:current-layer="svg6" />
  <style
     type="text/css"
     id="current-color-scheme">
      .ColorScheme-Text {
        color:#31363b;
      }
      .ColorScheme-Background {
        color:#eff0f1;
      }
      .ColorScheme-Highlight {
        color:#3daee9;
      }
      .ColorScheme-ViewText {
        color:#31363b;
      }
      .ColorScheme-ViewBackground {
        color:#fcfcfc;
      }
      .ColorScheme-ViewHover {
        color:#93cee9;
      }
      .ColorScheme-ViewFocus{
        color:#3daee9;
      }
      .ColorScheme-ButtonText {
        color:#31363b;
      }
      .ColorScheme-ButtonBackground {
        color:#eff0f1;
      }
      .ColorScheme-ButtonHover {
        color:#93cee9;
      }
      .ColorScheme-ButtonFocus{
        color:#3daee9;
      }
      </style>
  <g
     id="kdeconnect"
     transform="translate(-320.33229,-564.92864)">
    <rect
       y="529.36218"
       x="321"
       height="32"
       width="32"
       id="rect4436"
       style="opacity:1;fill:none;fill-opacity:1;stroke:none;stroke-width:0.1;stroke-linecap:square;stroke-linejoin:miter;stroke-miterlimit:4;stroke-dasharray:none;stroke-dashoffset:0;stroke-opacity:1" />
    <path
       style="opacity:1;fill:currentColor;fill-opacity:1;stroke:none"
       d="m 8,2 v 24 1 3 H 24 V 2 Z m 5,1 h 6 V 4 H 13 Z M 9,5 H 23 V 28 H 9 Z m 6.5,7 -0.277344,1.107422 c -0.25213,0.0672 -0.494403,0.166995 -0.720703,0.296875 l -0.976562,-0.585938 -0.707032,0.707032 0.585938,0.976562 c -0.13139,0.22672 -0.232511,0.469666 -0.300781,0.722656 L 12,15.5 v 1 l 1.107422,0.277344 c 0.0672,0.25213 0.166995,0.494403 0.296875,0.720703 l -0.585938,0.976562 0.707032,0.707032 0.976562,-0.585938 c 0.22672,0.13139 0.469666,0.232511 0.722656,0.300781 L 15.5,20 h 1 l 0.277344,-1.107422 c 0.25213,-0.0672 0.494403,-0.166995 0.720703,-0.296875 l 0.976562,0.585938 0.707032,-0.707032 -0.585938,-0.976562 c 0.13139,-0.22672 0.232511,-0.469666 0.300781,-0.722656 L 20,16.5 v -1 l -1.107422,-0.277344 c -0.0672,-0.25213 -0.166995,-0.494403 -0.296875,-0.720703 l 0.585938,-0.976562 -0.707032,-0.707032 -0.976562,0.585938 c -0.22672,-0.13139 -0.469666,-0.232511 -0.722656,-0.300781 L 16.5,12 Z m 0.5,2 c 0.0665,2e-5 0.133019,0.0028 0.199219,0.0098 0.0662,0.006 0.132035,0.0163 0.197265,0.0293 0.0659,0.0136 0.131103,0.03058 0.195313,0.05078 0.0636,0.0197 0.12618,0.04246 0.1875,0.06836 0.0613,0.0256 0.121257,0.05434 0.179687,0.08594 0.0584,0.0323 0.115072,0.0675 0.169922,0.105468 0.0554,0.0377 0.108837,0.0781 0.160156,0.121094 0.0511,0.0431 0.09999,0.0887 0.146485,0.136719 0.046,0.0473 0.0897,0.0968 0.130859,0.148437 0.0418,0.0527 0.08091,0.107443 0.117188,0.164063 0.0361,0.0562 0.06931,0.114258 0.09961,0.173828 0.0297,0.0592 0.05638,0.119801 0.08008,0.181641 0.0247,0.062 0.04615,0.125263 0.06445,0.189453 0.0176,0.0643 0.03187,0.129532 0.04297,0.195312 0.0111,0.066 0.01894,0.132459 0.02344,0.199219 C 17.998141,15.906175 18,15.95311 18,16 c -2e-5,0.0665 -0.0028,0.133019 -0.0098,0.199219 -0.006,0.0662 -0.0163,0.132035 -0.0293,0.197265 -0.0136,0.0659 -0.03058,0.131103 -0.05078,0.195313 -0.0197,0.0636 -0.04246,0.12618 -0.06836,0.1875 -0.0256,0.0613 -0.05434,0.121257 -0.08594,0.179687 -0.0323,0.0584 -0.0675,0.115072 -0.105468,0.169922 -0.0377,0.0554 -0.07809,0.108836 -0.121094,0.160156 -0.0431,0.0511 -0.0887,0.09999 -0.136719,0.146485 -0.0473,0.046 -0.09681,0.0897 -0.148437,0.130859 -0.0527,0.0418 -0.107433,0.08091 -0.164063,0.117188 -0.0562,0.0361 -0.114258,0.06931 -0.173828,0.09961 -0.0592,0.0297 -0.119801,0.05638 -0.181641,0.08008 -0.062,0.0246 -0.125263,0.04615 -0.189453,0.06445 -0.0643,0.0176 -0.129532,0.03187 -0.195312,0.04297 -0.066,0.0111 -0.132459,0.01894 -0.199219,0.02344 -0.0279,0.004 -0.05588,0.0068 -0.08398,0.0098 h -0.136719 c -0.0398,-0.002 -0.0795,-0.0048 -0.119141,-0.0098 -0.0662,-0.006 -0.132035,-0.0163 -0.197265,-0.0293 -0.0659,-0.0136 -0.131103,-0.03058 -0.195313,-0.05078 -0.0636,-0.0197 -0.12618,-0.04246 -0.1875,-0.06836 -0.0613,-0.0256 -0.121257,-0.05434 -0.179687,-0.08594 -0.0584,-0.0323 -0.115072,-0.06751 -0.169922,-0.105469 -0.0554,-0.0377 -0.108826,-0.07809 -0.160156,-0.121094 -0.0301,-0.0264 -0.05939,-0.05383 -0.08789,-0.08203 l -0.08789,-0.08789 c -0.0353,-0.0371 -0.0692,-0.0755 -0.101562,-0.115234 -0.0418,-0.0527 -0.0809,-0.107433 -0.117188,-0.164063 -0.0361,-0.0562 -0.06931,-0.114258 -0.09961,-0.173828 -0.0297,-0.0592 -0.05638,-0.1198 -0.08008,-0.18164 -0.0247,-0.062 -0.04615,-0.125263 -0.06445,-0.189454 -0.0176,-0.0644 -0.03187,-0.129532 -0.04297,-0.195312 -0.0111,-0.066 -0.01894,-0.132459 -0.02344,-0.199219 -0.004,-0.0468 -0.0059,-0.0937 -0.0059,-0.140625 2e-5,-0.0665 0.0028,-0.133019 0.0098,-0.199218 0.006,-0.0662 0.0163,-0.132036 0.0293,-0.197266 0.0136,-0.0659 0.03058,-0.131103 0.05078,-0.195313 0.0197,-0.0636 0.04246,-0.12618 0.06836,-0.1875 0.0256,-0.0613 0.05434,-0.121257 0.08594,-0.179687 0.0323,-0.0584 0.0675,-0.115072 0.105468,-0.169922 0.0377,-0.0554 0.07809,-0.108826 0.121094,-0.160156 0.0431,-0.0511 0.0887,-0.100005 0.136719,-0.146485 0.0473,-0.046 0.09681,-0.0897 0.148437,-0.130859 0.0527,-0.0418 0.107433,-0.0809 0.164063,-0.117188 0.0562,-0.0361 0.114258,-0.06931 0.173828,-0.09961 0.0592,-0.0297 0.119801,-0.05638 0.181641,-0.08008 0.062,-0.0246 0.125263,-0.04615 0.189453,-0.06445 0.0643,-0.0176 0.129532,-0.03187 0.195312,-0.04297 0.066,-0.0111 0.132459,-0.01894 0.199219,-0.02344 C 15.906075,14.004766 15.95298,14.002 16,14 Z"
       transform="translate(321,529.36218)"
       id="path4241"
       class="ColorScheme-Text" />
  </g>
  <g
     id="kdeconnect-0"
     style="fill:url(#linearGradient2)">
    <rect
       style="opacity:0.00100002;fill:url(#linearGradient3)"
       width="32"
       height="32"
       x="0"
       y="0"
       id="rect7" />
    <path
       sodipodi:nodetypes="ssssssssssssssccccc"
       style="color:#7b7c7e;fill:url(#linearGradient4);fill-opacity:1;stroke-width:1.5531"
       d="M 11,4 C 9,4 8,5 8,7 v 18 c 0,2 0.9999789,2.996542 3,3 l 10,0.01729 C 23,28.02075 24,27 24,25 V 7 C 24,5 23,4 21,4 Z m 5,20 c 0.892237,0 3,0.169571 3,1 0,0.829845 -2.107763,0.975987 -3,0.975987 -0.89221,0 -3,-0.145523 -3,-0.975987 0,-0.830067 2.10779,-1 3,-1 z M 9,7 H 23 V 22 H 9 Z"
       id="rect2990"
       class="ColorScheme-Text"
       inkscape:connector-curvature="0" />
    <path
       style="color:#d3dae3;fill:url(#linearGradient5);fill-opacity:1;stroke-width:0.624238"
       d="m 16.629961,10 -1.883178,0.327844 v 6.481344 l 1.873421,-0.241313 -0.0098,-2.92136 2.210045,3.233358 2.171012,-0.311998 L 18.493578,13.22117 21,10.413159 18.802155,10.008522 16.610404,12.816546 Z m -3.960267,1.655065 c -0.0181,10e-4 -0.03512,0.0095 -0.04885,0.0231 l -0.646421,0.653259 c -0.02809,0.0282 -0.03282,0.07225 -0.01079,0.106043 l 0.78059,1.198035 c -0.147259,0.26113 -0.258521,0.54745 -0.330537,0.847036 L 11.06596,14.812821 C 11.02865,14.822121 11,14.855771 11,14.894561 v 0.425341 0.425349 c 0,0.03877 0.02845,0.0725 0.06595,0.08175 l 1.347724,0.330279 c 0.07201,0.299587 0.183273,0.585911 0.330533,0.847037 l -0.780585,1.19803 c -0.02185,0.03378 -0.01709,0.07783 0.01079,0.106031 l 0.646431,0.653259 c 0.02718,0.02761 0.0696,0.02978 0.102354,0.0098 l 1.223332,-0.74953 c 0.239997,0.139715 0.615422,0.252122 0.889138,0.326627 l 0.28663,1.383276 C 15.130997,19.97172 15.162087,20 15.201527,20 h 0.481767 0.481773 c 0.03969,0 0.07125,-0.02822 0.07922,-0.0682 l 0.286627,-1.383276 c 0.273719,-0.07454 0.649136,-0.186923 0.88914,-0.326634 l 1.223332,0.749535 c 0.03295,0.01995 0.07514,0.01779 0.102346,-0.0098 l 0.646431,-0.653261 c 0.02809,-0.02821 0.03283,-0.07225 0.0109,-0.106031 l -0.650087,-0.998154 -0.08044,0.01191 -0.45616,-0.667882 c -0.46589,0.975915 -1.451171,1.597832 -2.533251,1.599008 -1.551985,0 -2.81012,-1.257189 -2.81012,-2.80801 9.91e-4,-1.065878 0.605647,-2.039357 1.561175,-2.513077 V 12.21314 c -0.178123,0.05926 -0.353144,0.126299 -0.487865,0.204756 l -1.223247,-0.749505 c -0.01646,-0.01 -0.03552,-0.01492 -0.05376,-0.01325 z"
       class="ColorScheme-Text"
       id="path10" />
  </g>
</svg>
