<?xml version="1.0" encoding="UTF-8" standalone="no"?>
<svg
   width="22"
   height="22"
   version="1.1"
   id="svg2046"
   sodipodi:docname="lutris.svg"
   inkscape:version="1.3.2 (091e20ef0f, 2023-11-25)"
   xmlns:inkscape="http://www.inkscape.org/namespaces/inkscape"
   xmlns:sodipodi="http://sodipodi.sourceforge.net/DTD/sodipodi-0.dtd"
   xmlns:xlink="http://www.w3.org/1999/xlink"
   xmlns="http://www.w3.org/2000/svg"
   xmlns:svg="http://www.w3.org/2000/svg">
  <rect
     style="fill:none;fill-opacity:1;stroke:none;stroke-width:0.1;stroke-linecap:square;stroke-linejoin:miter;stroke-miterlimit:4;stroke-dasharray:none;stroke-dashoffset:0;stroke-opacity:1"
     id="rect4148"
     width="22"
     height="22"
     x="1.3415527e-07"
     y="0" />
  <path
     style="color:#d5c289;fill:url(#linearGradient8);fill-opacity:1;stroke-width:1"
     class="ColorScheme-Text"
     d="M 11,3 C 6.5759998,3 3,6.5759998 3,10.999999 3,15.424 6.5759998,19 11,19 15.424,19 18.999999,15.424 18.999999,10.999999 18.999999,6.5759998 15.424,3 11,3 Z m 0,0.9999999 c 3.869982,0 6.999999,3.1300101 6.999999,6.9999991 C 17.999999,14.869982 14.869982,18 11,18 7.1299867,18 3.9999999,14.869982 3.9999999,10.999999 3.9999999,7.13001 7.1299867,3.9999999 11,3.9999999 Z m 0.749985,5.7190057 v 0 0 0 0 0 c 0,0 -0.03391,0.00857 0,0 z m -0.780993,4.4999984 z"
     id="path58-3"
     sodipodi:nodetypes="ssssssssssccccccccccccccccc" />
  <path
     style="fill:#000000;fill-opacity:0.0954546;stroke:#000000;stroke-width:0;stroke-linecap:round;stroke-linejoin:round;stroke-miterlimit:4;stroke-dasharray:none;stroke-opacity:0.0941176"
     d="m 11.025915,11.2546 v 6e-5 c -0.403377,0.0022 -0.806732,0.0679 -1.1198363,0.189828 l -4.4503601,1.283828 0.00188,1.071636 c 8e-4,0.266846 0.1777415,0.39197 0.4184208,0.494055 l 4.0300893,1.709595 c 0.3104163,0.131676 0.7162403,0.196396 1.1217463,0.196396 0.405508,0 0.81133,-0.06475 1.121741,-0.196396 l 4.030099,-1.709595 c 0.240681,-0.102082 0.417595,-0.227209 0.418388,-0.494055 l 0.0024,-0.922779 -4.450427,-1.432685 C 11.830143,11.341584 11.433338,11.25668 11.029963,11.25466 v -6e-5 c -6.3e-4,0 -0.0013,2.9e-5 -0.0021,3.2e-5 -6.26e-4,-3e-6 -0.0013,-3.2e-5 -0.0021,-3.2e-5 z"
     id="path1025-7-2"
     inkscape:connector-curvature="0"
     sodipodi:nodetypes="ccsccccsccccsccccc" />
  <path
     sodipodi:nodetypes="ccsccccsccccsccccc"
     inkscape:connector-curvature="0"
     id="path940-4-9"
     d="m 10.97604,11.064435 v 5.8e-5 c -0.403376,0.0022 -0.806734,0.0679 -1.1198359,0.189827 l -4.4503606,1.283842 0.00189,1.071626 c 8e-4,0.266839 0.1777409,0.391959 0.4184214,0.494061 l 4.0300873,1.709579 c 0.3104168,0.131677 0.7162388,0.196414 1.1217488,0.196414 0.405504,0 0.811331,-0.06477 1.121746,-0.196414 l 4.030122,-1.709579 c 0.240677,-0.102102 0.417596,-0.227222 0.418392,-0.494061 l 0.0024,-0.922787 -4.45044,-1.432681 c -0.319924,-0.102899 -0.716735,-0.187804 -1.120112,-0.189827 v -5.8e-5 c -6.26e-4,2e-6 -0.0013,2.5e-5 -0.0021,2.9e-5 -6.26e-4,-4e-6 -0.0013,-2.7e-5 -0.0021,-2.9e-5 z"
     style="fill:url(#linearGradient12);fill-opacity:1;stroke:#000000;stroke-width:0;stroke-linecap:round;stroke-linejoin:round;stroke-miterlimit:4;stroke-dasharray:none;stroke-opacity:0.0941176" />
  <path
     style="fill:#fff0f3;fill-opacity:0.436364;stroke:#000000;stroke-width:0;stroke-linecap:round;stroke-linejoin:round;stroke-miterlimit:4;stroke-dasharray:none;stroke-opacity:0.0941176"
     d="m 10.97604,10.061038 v 6e-5 c -0.403376,0.002 -0.806734,0.06789 -1.1198359,0.189828 l -4.4503606,1.283834 0.00189,1.071627 c 8e-4,0.266848 0.1777409,0.391969 0.4184213,0.494062 l 4.030092,1.709587 c 0.3104162,0.131677 0.7162392,0.196403 1.1217492,0.196403 0.405505,0 0.811331,-0.06476 1.121747,-0.196403 l 4.030086,-1.709587 c 0.240678,-0.102092 0.417595,-0.227213 0.418387,-0.494062 l 0.0023,-0.922783 -4.450363,-1.432677 C 11.78008,10.148025 11.383274,10.063118 10.979896,10.061098 v -6e-5 c -6.27e-4,3e-6 -0.0013,2.9e-5 -0.0021,3.1e-5 -6.28e-4,-2e-6 -0.0013,-2.8e-5 -0.0021,-3.1e-5 z"
     id="path962-5-3"
     inkscape:connector-curvature="0"
     sodipodi:nodetypes="ccsccccsccccsccccc" />
  <path
     style="fill:#404040;fill-opacity:1;stroke:#000000;stroke-width:0;stroke-linecap:round;stroke-linejoin:round;stroke-miterlimit:4;stroke-dasharray:none;stroke-opacity:0.0941176"
     d="m 10.97604,9.988108 v 6.1e-5 c -0.403376,0.0021 -0.806734,0.06789 -1.1198359,0.189829 l -4.4503606,1.283831 0.00189,1.071636 c 8e-4,0.266835 0.1777409,0.391956 0.4184214,0.494056 l 4.0300923,1.70958 c 0.3104168,0.131677 0.7162388,0.196412 1.1217488,0.196412 0.405505,0 0.811331,-0.06477 1.121747,-0.196412 l 4.030094,-1.70958 c 0.240676,-0.102102 0.417593,-0.22722 0.418385,-0.494056 l 0.0024,-0.922785 -4.450362,-1.432682 C 11.780118,10.075096 11.383312,9.990188 10.979933,9.988169 v -6.1e-5 c -6.26e-4,4e-6 -0.0013,2.9e-5 -0.0021,3.2e-5 -6.28e-4,-3e-6 -0.0013,-2.8e-5 -0.0021,-3.2e-5 z"
     id="path890-2-1"
     inkscape:connector-curvature="0"
     sodipodi:nodetypes="ccsccccsccccsccccc" />
  <path
     sodipodi:nodetypes="ccccsccccc"
     inkscape:connector-curvature="0"
     id="path936-5-9"
     d="m 5.4058435,11.461829 0.00189,0.26557 c 7.98e-4,0.26684 0.1777389,0.39196 0.4184195,0.494063 l 4.0300967,1.709577 c 0.3104153,0.131677 0.7162403,0.196403 1.1217473,0.196403 0.405507,0 0.811335,-0.06475 1.12175,-0.196403 l 4.030086,-1.709577 c 0.240709,-0.102103 0.417627,-0.227223 0.418419,-0.494063 l 0.0024,-0.116719 z"
     style="fill:#000000;fill-opacity:0.113636;stroke:#000000;stroke-width:0;stroke-linecap:round;stroke-linejoin:round;stroke-miterlimit:4;stroke-dasharray:none;stroke-opacity:0.0941176" />
  <path
     sodipodi:nodetypes="sssssssss"
     inkscape:connector-curvature="0"
     id="rect858-4-4"
     d="M 5.7610786,11.03702 9.8587399,9.3274433 c 0.6223361,-0.2596449 1.6183881,-0.2527311 2.2434711,0 L 16.1323,10.956868 c 0.505152,0.204234 0.621445,0.958262 0,1.220123 l -4.030089,1.698131 c -0.621441,0.261847 -1.622029,0.261847 -2.2434707,0 L 5.8286482,12.176991 C 5.2072066,11.91513 5.3302841,11.216749 5.7610802,11.03702 Z"
     style="fill:#000000;fill-opacity:1;stroke:#000000;stroke-width:0;stroke-linecap:round;stroke-linejoin:round;stroke-miterlimit:4;stroke-dasharray:none;stroke-opacity:0.0941176" />
  <rect
     style="fill:#ffffff;fill-opacity:0.986364;stroke:#000000;stroke-width:0;stroke-linecap:round;stroke-linejoin:round;stroke-miterlimit:4;stroke-dasharray:none;stroke-opacity:0.0941176"
     id="rect854-7-7"
     width="6.7563305"
     height="6.7563305"
     x="-12.243551"
     y="17.399826"
     rx="1.2080562"
     ry="1.2080562"
     transform="matrix(0.92153341,-0.38829909,0.92153341,0.38829909,0,0)" />
  <rect
     transform="matrix(0.92153341,-0.38829909,0.92153341,0.38829909,0,0)"
     ry="1.2080562"
     rx="1.2080562"
     y="17.272614"
     x="-12.116347"
     height="6.7563305"
     width="6.7563305"
     id="rect844-4-8"
     style="fill:url(#linearGradient10);fill-opacity:1;stroke:#000000;stroke-width:0;stroke-linecap:round;stroke-linejoin:round;stroke-miterlimit:4;stroke-dasharray:none;stroke-opacity:0.0941176" />
  <path
     style="fill:url(#linearGradient1445);fill-opacity:1;stroke:#000000;stroke-width:0;stroke-linecap:round;stroke-linejoin:round;stroke-miterlimit:4;stroke-dasharray:none;stroke-opacity:0.0941176"
     d="m 10.358544,8.4672684 h 1.238777 v 3.2232506 c 0,0.0572 0.0028,0.09636 -0.03155,0.125822 -0.299564,0.251382 -0.873849,0.235785 -1.150886,0.02205 -0.05906,-0.03808 -0.05635,-0.06772 -0.05635,-0.136471 z"
     id="rect1012-4-4"
     inkscape:connector-curvature="0"
     sodipodi:nodetypes="ccccccc" />
  <path
     sodipodi:nodetypes="ccccccc"
     inkscape:connector-curvature="0"
     id="path1048-3-5"
     d="m 10.358544,8.4672684 h 1.238777 v 3.2232506 c 0,0.0572 0.0028,0.09636 -0.03155,0.125822 -0.299564,0.251382 -0.873849,0.235785 -1.150886,0.02205 -0.05906,-0.03808 -0.05635,-0.06772 -0.05635,-0.136471 z"
     style="fill:#333333;fill-opacity:1;stroke:#000000;stroke-width:0;stroke-linecap:round;stroke-linejoin:round;stroke-miterlimit:4;stroke-dasharray:none;stroke-opacity:0.0941176" />
  <ellipse
     style="fill:url(#radialGradient982-5-2);fill-opacity:1;stroke:#000000;stroke-width:0;stroke-linecap:round;stroke-linejoin:round;stroke-miterlimit:4;stroke-dasharray:none;stroke-opacity:0.0941176"
     id="path974-0-0"
     cx="10.977946"
     cy="7.3990717"
     rx="1.5727233"
     ry="1.5990719" />
  <ellipse
     cy="7.3990717"
     cx="10.977946"
     id="circle994-7-3"
     style="fill:#d3dae3;fill-opacity:1;stroke:#000000;stroke-width:0;stroke-linecap:round;stroke-linejoin:round;stroke-miterlimit:4;stroke-dasharray:none;stroke-opacity:0.0941176"
     rx="1.5727233"
     ry="1.5990719" />
  <ellipse
     ry="0.36029699"
     rx="0.8401131"
     cy="11.343178"
     cx="7.5087042"
     id="path1084-8-6"
     style="fill:#000000;fill-opacity:1;stroke:#000000;stroke-width:0;stroke-linecap:round;stroke-linejoin:round;stroke-miterlimit:4;stroke-dasharray:none;stroke-opacity:0.0941176" />
  <ellipse
     style="fill:#28323e;fill-opacity:1;stroke:#000000;stroke-width:0;stroke-linecap:round;stroke-linejoin:round;stroke-miterlimit:4;stroke-dasharray:none;stroke-opacity:0.0941176"
     id="ellipse1096-6-1"
     cx="7.5087042"
     cy="11.322944"
     rx="0.75278687"
     ry="0.31893158" />
  <sodipodi:namedview
     id="namedview2048"
     pagecolor="#02334b"
     bordercolor="#000000"
     borderopacity="1"
     inkscape:showpageshadow="true"
     inkscape:pageopacity="0"
     inkscape:pagecheckerboard="true"
     inkscape:deskcolor="#02334b"
     showgrid="true"
     inkscape:zoom="10.429825"
     inkscape:cx="-11.793103"
     inkscape:cy="7.574432"
     inkscape:window-width="1920"
     inkscape:window-height="994"
     inkscape:window-x="0"
     inkscape:window-y="0"
     inkscape:window-maximized="1"
     inkscape:current-layer="svg2046">
    <inkscape:grid
       type="xygrid"
       id="grid224"
       originx="-12.861996"
       originy="42.721615"
       spacingy="1"
       spacingx="1"
       units="px"
       visible="true" />
  </sodipodi:namedview>
  <defs
     id="l4k1">
    <linearGradient
       id="linearGradient1"
       inkscape:collect="always">
      <stop
         style="stop-color:#ff9955;stop-opacity:1;"
         offset="0"
         id="stop1" />
      <stop
         style="stop-color:#ffdd55;stop-opacity:1"
         offset="1"
         id="stop2" />
    </linearGradient>
    <style
       id="current-color-scheme"
       type="text/css">
   .ColorScheme-Background {color:#181818; } .ColorScheme-ButtonBackground { color:#343434; } .ColorScheme-Highlight { color:#4285f4; } .ColorScheme-Text { color:#dfdfdf; } .ColorScheme-ViewBackground { color:#242424; } .ColorScheme-NegativeText { color:#f44336; } .ColorScheme-PositiveText { color:#4caf50; } .ColorScheme-NeutralText { color:#ff9800; }
  </style>
    <linearGradient
       inkscape:collect="always"
       id="linearGradient1038">
      <stop
         style="stop-color:#ff5f73;stop-opacity:1"
         offset="0"
         id="stop1034" />
      <stop
         id="stop1042"
         offset="0.14546083"
         style="stop-color:#ff95a9;stop-opacity:1" />
      <stop
         style="stop-color:#ff8da4;stop-opacity:1"
         offset="0.25454578"
         id="stop1044" />
      <stop
         id="stop1046"
         offset="0.63634312"
         style="stop-color:#ff465c;stop-opacity:1" />
      <stop
         style="stop-color:#f2465b;stop-opacity:1"
         offset="1"
         id="stop1036" />
    </linearGradient>
    <linearGradient
       inkscape:collect="always"
       id="linearGradient980">
      <stop
         style="stop-color:#fffdfd;stop-opacity:1"
         offset="0"
         id="stop976" />
      <stop
         id="stop992"
         offset="0.33526921"
         style="stop-color:#ffe6e9;stop-opacity:1" />
      <stop
         id="stop990"
         offset="0.59462214"
         style="stop-color:#ffd6db;stop-opacity:1" />
      <stop
         id="stop988"
         offset="0.76555932"
         style="stop-color:#ffb7c1;stop-opacity:1" />
      <stop
         id="stop984"
         offset="0.92580974"
         style="stop-color:#ff9ca8;stop-opacity:1" />
      <stop
         style="stop-color:#ffbec7;stop-opacity:1"
         offset="1"
         id="stop978" />
    </linearGradient>
    <radialGradient
       inkscape:collect="always"
       xlink:href="#linearGradient980"
       id="radialGradient982-5-2"
       cx="336.2753"
       cy="-262.63675"
       fx="336.2753"
       fy="-262.63675"
       r="26.392866"
       gradientUnits="userSpaceOnUse"
       gradientTransform="matrix(0.07238954,0,0,0.06405772,-13.677009,24.204681)" />
    <linearGradient
       inkscape:collect="always"
       xlink:href="#linearGradient1038"
       id="linearGradient1445"
       gradientUnits="userSpaceOnUse"
       gradientTransform="matrix(0.059589,0,0,0.06058729,-8.808712,20.670963)"
       x1="321.65744"
       y1="-172.25456"
       x2="342.44727"
       y2="-172.25456" />
    <linearGradient
       inkscape:collect="always"
       xlink:href="#linearGradient1"
       id="linearGradient8"
       x1="32.999851"
       y1="21.000002"
       x2="52.999851"
       y2="21.000002"
       gradientUnits="userSpaceOnUse"
       gradientTransform="matrix(0.79999994,0,0,0.79999994,-23.399881,-5.7999993)" />
    <linearGradient
       inkscape:collect="always"
       xlink:href="#linearGradient1"
       id="linearGradient10"
       x1="-8.6108074"
       y1="51.019272"
       x2="-0.16539618"
       y2="51.019272"
       gradientUnits="userSpaceOnUse"
       gradientTransform="matrix(0.80000011,0,0,0.80000011,-5.2276964,-20.164635)" />
    <linearGradient
       inkscape:collect="always"
       xlink:href="#linearGradient1"
       id="linearGradient12"
       x1="36.007156"
       y1="24.171419"
       x2="49.937504"
       y2="24.171419"
       gradientUnits="userSpaceOnUse"
       gradientTransform="matrix(0.79999994,0,0,0.79999994,-23.399881,-5.7999993)" />
  </defs>
</svg>
