<?xml version="1.0" encoding="UTF-8" standalone="no"?>
<svg
   width="32"
   height="32"
   version="1.1"
   id="svg1"
   sodipodi:docname="plasmavault-symbolic.svg"
   inkscape:version="1.3.2 (091e20ef0f, 2023-11-25)"
   xmlns:inkscape="http://www.inkscape.org/namespaces/inkscape"
   xmlns:sodipodi="http://sodipodi.sourceforge.net/DTD/sodipodi-0.dtd"
   xmlns:xlink="http://www.w3.org/1999/xlink"
   xmlns="http://www.w3.org/2000/svg"
   xmlns:svg="http://www.w3.org/2000/svg">
  <defs
     id="defs1">
    <linearGradient
       inkscape:collect="always"
       xlink:href="#linearGradient1"
       id="linearGradient4"
       x1="5.5745225"
       y1="-47.824841"
       x2="12.442528"
       y2="-47.824841"
       gradientUnits="userSpaceOnUse" />
    <linearGradient
       id="linearGradient1"
       inkscape:collect="always">
      <stop
         style="stop-color:#00ccff;stop-opacity:1"
         offset="0"
         id="stop1" />
      <stop
         style="stop-color:#5599ff;stop-opacity:1"
         offset="1"
         id="stop2" />
    </linearGradient>
    <linearGradient
       inkscape:collect="always"
       xlink:href="#linearGradient1"
       id="linearGradient2"
       x1="-3.0254776"
       y1="-49.324844"
       x2="20.974522"
       y2="-49.324844"
       gradientUnits="userSpaceOnUse" />
  </defs>
  <sodipodi:namedview
     id="namedview1"
     pagecolor="#ffffff"
     bordercolor="#000000"
     borderopacity="0.25"
     inkscape:showpageshadow="2"
     inkscape:pageopacity="0.0"
     inkscape:pagecheckerboard="0"
     inkscape:deskcolor="#d1d1d1"
     inkscape:zoom="5.9921875"
     inkscape:cx="15.520209"
     inkscape:cy="16.104302"
     inkscape:window-width="1920"
     inkscape:window-height="994"
     inkscape:window-x="0"
     inkscape:window-y="0"
     inkscape:window-maximized="1"
     inkscape:current-layer="svg1" />
  <style
     type="text/css"
     id="current-color-scheme">
        .ColorScheme-Text {
            color:#232629;
        }
    </style>
  <g
     id="plasmavault"
     transform="translate(12,-43.999996)">
    <path
       id="rect4230"
       d="m 0,-1e-6 h 32.000004 v 32 H 0 Z"
       fill="none" />
    <path
       id="path875"
       d="M 4,4 V 28 H 28 V 7 H 17 L 14,4 Z m 1,1 h 8.585938 L 15.792969,7.2070312 10,13 H 5 Z m 16,8 a 4,4 0 0 1 4,4 v 3 h 2 v 7 H 15 v -7 h 2 v -3 a 4,4 0 0 1 4,-4 z m 0,1 a 3.0003099,3 0 0 0 -3,3 v 3 h 6 v -3 a 3.0003099,3 0 0 0 -3,-3 z"
       class="ColorScheme-Text"
       fill="currentColor" />
  </g>
  <g
     id="plasmavault-7"
     transform="translate(7.0254779,65.324844)"
     style="fill:#d3dae3;fill-opacity:1">
    <rect
       style="opacity:0.00100002;fill:#d3dae3;fill-opacity:1"
       width="32"
       height="32"
       x="-7.0254779"
       y="-65.324844"
       id="rect7-3" />
    <path
       d="m 11.606235,-48.662844 h -0.247003 l -0.0013,-1.230993 c -0.0013,-1.341 -1.092002,-2.432006 -2.4330017,-2.431003 -1.341,0.0013 -2.431999,1.092004 -2.431,2.433004 l 0.0025,1.230999 h -0.08791 c -0.460992,0.0013 -0.835,0.374991 -0.833996,0.835997 v 3.665004 c 0,0.461002 0.374996,0.834995 0.835996,0.834995 l 5.1980087,-0.0034 c 0.460994,0 0.834998,-0.373998 0.833997,-0.834999 v -3.665974 c 0,-0.460998 -0.374997,-0.833997 -0.835999,-0.833997 z m -4.2139977,0.0025 -0.0025,-1.230997 c 0,-0.847001 0.687998,-1.536002 1.534999,-1.537003 0.846999,0 1.5359977,0.689 1.5359977,1.535 l 0.0025,1.231003 z"
       id="path2-67"
       style="fill:url(#linearGradient4);stroke-width:0.100003"
       sodipodi:nodetypes="ccccccccscccscccccccc" />
    <path
       style="color:#000000;font-style:normal;font-variant:normal;font-weight:normal;font-stretch:normal;font-size:medium;line-height:normal;font-family:Sans;-inkscape-font-specification:Sans;text-indent:0;text-align:start;text-decoration:none;text-decoration-line:none;letter-spacing:normal;word-spacing:normal;text-transform:none;writing-mode:lr-tb;direction:ltr;baseline-shift:baseline;text-anchor:start;display:inline;overflow:visible;visibility:visible;fill:url(#linearGradient2);fill-opacity:1;fill-rule:nonzero;stroke:none;stroke-width:1.11609;marker:none;enable-background:accumulate"
       d="m -0.96477769,-59.324764 c -1.11121901,0 -2.06070001,0.817118 -2.06070001,1.901774 v 16.004615 c 0,1.093531 0.6854532,1.603661 0.6854532,1.603661 0,0 0.3137365,0.489874 1.52108755,0.48987 l 19.04751495,-6.1e-5 c 0.457294,0.0081 0.444288,-0.993112 1.08e-4,-0.999939 H -0.84528659 c -0.54730621,0 -0.89022311,-0.181581 -0.89022311,-0.181581 0,0 -0.2907783,-0.289575 -0.2907783,-0.912007 v -16.004615 c 0,-0.05728 0.017985,-0.901797 1.0117926,-0.901797 h 6.7047242 l 3.1971855,2.8089 c 0.096612,0.0894 0.2203013,0.188245 0.3491219,0.1911 h 9.2966448 c 0.474023,-0.0028 0.459043,-0.9922 -0.01499,-1 H 9.4323773 l -3.3890877,-2.866072 c -0.097811,-0.08616 -0.2213796,-0.133565 -0.349124,-0.133928 z m 10.92876599,0.99992 c -0.4325843,-0.0012 -0.4442598,0.993488 0,1 h 8.1880567 0.804651 c 0.999189,0 0.973732,1.046931 0.973732,1.046931 l 0.02546,16.381586 c 0.0025,0.531169 0.997373,0.548654 0.999192,0.01828 l 0.01944,-16.490894 c 0.0013,-1.083267 -0.643799,-1.955903 -2.01783,-1.955903 H 17.957503 9.9639853 c -0.017026,-8.57e-4 0,0 0,0 z"
       id="path2-3-3-53"
       sodipodi:nodetypes="ssscsccscscsccccccccscccccccscccc" />
  </g>
</svg>
