<?xml version="1.0" encoding="UTF-8" standalone="no"?>
<svg
   width="32"
   height="32"
   version="1.1"
   id="svg1"
   sodipodi:docname="quassel-symbolic.svg"
   inkscape:version="1.3.2 (091e20ef0f, 2023-11-25)"
   xmlns:inkscape="http://www.inkscape.org/namespaces/inkscape"
   xmlns:sodipodi="http://sodipodi.sourceforge.net/DTD/sodipodi-0.dtd"
   xmlns="http://www.w3.org/2000/svg"
   xmlns:svg="http://www.w3.org/2000/svg">
  <defs
     id="defs1" />
  <sodipodi:namedview
     id="namedview1"
     pagecolor="#ffffff"
     bordercolor="#000000"
     borderopacity="0.25"
     inkscape:showpageshadow="2"
     inkscape:pageopacity="0.0"
     inkscape:pagecheckerboard="0"
     inkscape:deskcolor="#d1d1d1"
     inkscape:zoom="8.7159091"
     inkscape:cx="15.603651"
     inkscape:cy="6.5971317"
     inkscape:window-width="1920"
     inkscape:window-height="994"
     inkscape:window-x="0"
     inkscape:window-y="0"
     inkscape:window-maximized="1"
     inkscape:current-layer="svg1" />
  <style
     type="text/css"
     id="current-color-scheme">
      .ColorScheme-Text {
        color:#7B7C7E;
      }
      .ColorScheme-Background{
        color:#EFF0F1;
      }
      .ColorScheme-Highlight{
        color:#3DAEE6;
      }
      .ColorScheme-ViewText {
        color:#7B7C7E;
      }
      .ColorScheme-ViewBackground{
        color:#FCFCFC;
      }
      .ColorScheme-ViewHover {
        color:#3DAEE6;
      }
      .ColorScheme-ViewFocus{
        color:#1E92FF;
      }
      .ColorScheme-ButtonText {
        color:#7B7C7E;
      }
      .ColorScheme-ButtonBackground{
        color:#EFF0F1;
      }
      .ColorScheme-ButtonHover {
        color:#3DAEE6;
      }
      .ColorScheme-ButtonFocus{
        color:#1E92FF;
      }
</style>
  <g
     id="quassel"
     transform="translate(14,-31)">
    <rect
       y="1"
       x="1"
       height="22"
       width="22"
       id="rect3881"
       style="fill:#ffffff;fill-opacity:0.01;stroke:none" />
    <path
       style="fill:currentColor;fill-opacity:1;stroke:none"
       d="m 11,3 c -4.418278,0 -8,3.581722 -8,8 0,4.418278 3.581722,8 8,8 4.418278,0 8,-3.581722 8,-8 0,-4.418278 -3.581722,-8 -8,-8 z m 0,1 c 3.865993,0 7,3.1340068 7,7 0,3.865993 -3.134007,7 -7,7 C 7.1340068,18 4,14.865993 4,11 4,7.1340068 7.1340068,4 11,4 Z m 2,7 c -1.656854,0 -3,1.343146 -3,3 0,1.656854 1.343146,3 3,3 1.656854,0 3,-1.343146 3,-3 0,-1.656854 -1.343146,-3 -3,-3 z"
       transform="translate(1,1)"
       id="path2999"
       class="ColorScheme-Text"
       inkscape:connector-curvature="0" />
  </g>
  <g
     id="quassel-6"
     transform="translate(64)">
    <rect
       style="opacity:0.00100002"
       width="32"
       height="32"
       x="-64"
       y="0"
       id="rect17" />
    <path
       d="M -43.75735,9.1542812 C -44.890591,8.0210052 -46.397454,7.3969082 -48,7.3969082 c -1.602545,0 -3.10941,0.624097 -4.242546,1.757373 C -53.375897,10.287558 -54,11.794294 -54,13.396908 c 0,1.602615 0.624103,3.109347 1.757454,4.242627 1.133136,1.133205 2.640001,1.757373 4.242546,1.757373 1.602653,0 3.109409,-0.624168 4.24265,-1.757373 1.133169,-1.13328 1.757346,-2.640012 1.757346,-4.242627 0,-1.602614 -0.624175,-3.109424 -1.757346,-4.2426268 z m -0.685152,8.1499558 c -1.104759,0.937098 -1.995754,1.380105 -3.557498,1.368673 -1.657983,-0.01215 -2.27298,-0.323668 -3.557497,-1.369004 -1.043712,-1.043624 -1.718501,-2.431018 -1.718501,-3.906998 0,-1.476048 0.696208,-3.045214 1.718501,-3.9074998 1.146888,-1.007798 2.102837,-1.3574816 3.557497,-1.3685004 1.475938,-0.01118 2.463793,0.4597348 3.557498,1.368602 1.043692,1.0437022 1.718501,2.4313502 1.718501,3.9073982 0,1.47598 -0.674809,2.863698 -1.718501,3.907329 z"
       id="path2-36-912-3-5-3"
       style="fill:#00aad4;fill-opacity:1;stroke-width:0.0187501"
       sodipodi:nodetypes="cscscscsccscscscsc" />
    <path
       style="fill:#00aad4;fill-opacity:1;stroke-width:0.0105061"
       inkscape:connector-curvature="0"
       d="m -43.763231,16.603886 c 0.150245,-0.288931 0.23535,-0.616751 0.23535,-0.965567 0,-0.65877 -0.303644,-1.246104 -0.778549,-1.631697 0.03678,0.03364 0.07143,0.06725 0.09981,0.09246 0.14604,0.134489 0.274229,0.291043 0.376148,0.461248 -0.0031,0 -0.0044,0.0014 -0.0061,0.0018 0.0704,0.10192 0.125021,0.21539 0.169145,0.333066 -0.02523,-0.03464 -0.110321,-0.08826 -0.0693,-0.0065 0.01994,0.04099 0.0693,0.06202 0.08406,0.101915 0.01048,-0.0013 0.0044,-0.01579 0.01262,-0.01579 0.01048,0.01996 -0.0031,0.04413 0.01996,0.05885 0.02945,0.09672 0.05142,0.196538 0.06727,0.298453 -0.08824,0.02418 -0.159709,0.11347 -0.215393,0.0053 -0.02942,-0.05777 -0.0441,-0.09771 -0.08407,-0.150244 -0.02943,-0.03991 -0.07146,-0.07044 -0.08303,-0.121878 -0.01995,-0.08405 -0.157596,-0.134489 -0.161799,-0.226946 -0.0015,-0.01367 -0.03462,-0.07987 -0.03259,-0.08191 0.0088,-0.0077 0.0056,-0.04205 0.0059,-0.05146 0.0022,-0.03464 0.0093,-0.06202 0.0015,-0.09666 -0.07464,0.01997 -0.137636,-0.0105 -0.214333,-0.01783 0.0031,-0.0014 0.0059,-0.0027 0.0059,-0.0066 -0.02208,-0.01997 -0.0378,-0.03364 -0.06411,-0.04831 0.02943,-0.02941 -0.0015,-0.01682 -0.0056,-0.03571 -0.0056,-0.02623 0.06409,-0.01471 0.07566,-0.01996 -0.0015,-0.0027 -0.0093,-0.0077 -0.0093,-0.01156 -0.0273,-0.0053 -0.02315,0.02419 -0.05359,0.0027 -0.02314,-0.01682 -0.02619,-0.0054 -0.04833,-0.0027 0.0031,0.0054 0.0044,0.01156 0.0044,0.01783 0,0 -0.03782,-0.02732 -0.03364,-0.0054 0.02209,0.02105 0.03462,0.04307 0.06092,0.06406 -0.0158,0.0088 -0.02934,-0.0013 -0.04303,-0.01157 0.0015,0.0066 0.0088,0.03885 0.01368,0.04205 -0.03049,-0.0027 -0.04833,-0.01783 -0.03572,-0.04415 -0.02314,-0.0028 -0.07354,-0.05256 -0.07882,-0.07669 -0.0073,-0.04413 -0.06726,-0.04937 -0.07142,-0.07669 -0.01047,-0.0013 -0.132385,-0.08511 -0.129231,-0.06095 0.0056,0.03886 0.06931,0.09245 0.109269,0.09666 0.0061,0.03259 0.06726,0.02419 0.06825,0.05988 -0.0578,-0.01577 -0.0357,-0.01996 -0.0294,0.02107 -0.0015,-0.0053 -0.03364,0.0452 -0.03782,0.01996 0.06092,0.0054 -0.132383,-0.146045 -0.125026,-0.129231 -0.04303,-0.04415 -0.05046,-0.06095 -0.107175,-0.03151 -0.02728,0.01365 -0.119777,-0.03464 -0.09559,0.02623 -0.0015,0.0042 -0.12818,0.05885 -0.07353,0.08299 -0.01682,0.02311 -0.04303,0.04304 -0.06622,0.05256 -0.02835,-0.0105 -0.07984,0.02837 -0.09664,0.0027 -0.01996,-0.03258 -0.03364,-0.01997 -0.06727,-0.02206 -0.03461,-0.0027 -0.0057,-0.117672 -0.0057,-0.132384 0,-0.02102 -0.0178,-0.05046 0.02622,-0.04725 0.03787,0.0027 0.07463,0.01155 0.113471,0.01578 0.04303,-0.0054 0.05983,0.0095 0.05676,-0.04938 -0.0015,0 -0.0015,0.0013 -0.0022,0.0013 0.02622,-0.04305 -0.09141,-0.05461 -0.09141,-0.07775 0,-0.0158 0.06825,-0.0013 0.07566,-0.0027 0,-0.0076 -0.0044,-0.01365 -0.0056,-0.02205 0.0546,0.0053 0.062,-0.01577 0.108216,-0.02523 0.03888,-0.0088 0.03364,-0.04937 0.07986,-0.04623 0.01369,0.0013 0.06302,0.0041 0.05144,-0.01682 -0.02727,-0.04725 -0.02727,-0.04725 0.02313,-0.06726 0.0022,0.01472 0.0093,0.01997 0.01257,0.02523 -0.0022,0 -0.0044,0.0088 -0.0059,0.01891 0.0093,0.0013 0.01581,0.0053 0.01368,0.01682 -0.0022,-0.0077 -0.01048,-0.0041 -0.01682,-0.0077 -0.0022,0.01156 -0.0044,0.01997 -0.0022,0.01472 0.02523,0.0027 0.05569,0.0013 0.08089,0.0041 -0.0044,0.03047 0.09246,-0.0041 0.115577,0.0053 -0.0015,0.0018 -0.0022,0.0041 -0.0022,0.0054 0.0093,0.0013 0.01994,0.0013 0.02837,0.0013 -0.0073,-0.05254 0.08723,-0.07246 0.08723,-0.05885 0,-0.01259 -0.04206,-0.02837 -0.02938,-0.03364 0.03571,-0.01891 0.07773,0.0095 0.116629,-0.0053 -0.01476,-0.01577 -0.197526,-0.01051 -0.170211,-0.04519 -0.01579,-0.0041 -0.01368,-0.01471 -0.02096,-0.02523 0.006,0.0013 0.08193,-0.02623 0.0809,-0.02938 -0.01473,-0.03574 -0.07463,-0.0052 -0.0809,0.0053 0.0056,0.01682 -0.07771,0.0095 -0.07464,0.03464 0.0056,0.02733 0.0378,0.01996 0.04411,0.04414 0.0015,0.0041 -0.08091,0.03778 -0.02942,0.04725 0.0015,0.01996 -0.062,0.03572 -0.07566,0.03463 -0.01155,-0.0018 -0.03678,-0.04939 -0.04303,-0.05986 -0.01579,-0.02312 -0.02314,-0.04098 -0.0494,-0.02419 -0.0093,0.0053 -0.08723,0.02523 -0.09034,-0.0027 -0.0015,-0.0076 0.01367,0.0013 0.01154,-0.01156 -0.01049,-0.0013 -0.01049,-0.0013 -0.01996,0 0.0031,-0.0041 0.006,-0.0076 0.01154,-0.0095 -0.05461,-0.03784 0.04944,-0.05885 0.07463,-0.05564 -0.0088,-0.0018 -0.01154,-0.0027 -0.01781,-0.0042 0.0158,-0.0013 0.137637,-0.05045 0.141839,-0.06304 -0.01682,0.0013 -0.02314,0.0028 -0.03886,0.0028 0.0031,-0.0013 0.01047,-0.0028 0.01261,-0.0028 -0.0031,0 -0.01048,-0.0018 -0.01048,-0.0018 0.0022,-0.0066 0.05673,-0.0018 0.05779,-0.0018 -0.0056,-0.0013 -0.0056,-0.0013 -0.01153,-0.0013 0.0088,-0.0028 0.0178,-0.0053 0.02728,-0.0028 -0.0044,-0.0019 -0.0031,-0.0019 -0.0059,-0.0027 0.02523,-0.0076 0.05673,0 0.08303,-0.0041 -0.01996,-0.0027 0.04729,-0.01578 0.04101,0.0041 0.0273,0.0027 0.05569,0.01157 0.08406,0.02624 -0.325711,-0.206982 -0.711306,-0.32781 -1.125271,-0.32781 -1.159941,0 -2.100292,0.941404 -2.100292,2.100296 0,0.765943 0.408711,1.434168 1.020203,1.800851 -0.01261,-0.01783 -0.0031,-0.03779 -0.01261,-0.05886 -0.01367,-0.02837 -0.0357,-0.03258 -0.0357,-0.07146 0,-0.07775 -0.0056,-0.126079 -0.03676,-0.203827 -0.03364,-0.04411 -0.02834,-0.14184 -0.03782,-0.196478 -0.01886,-0.05255 -0.02622,-0.106117 -0.04833,-0.1576 -0.02422,-0.05563 -0.09246,-0.09456 -0.152347,-0.101917 -0.07773,-0.01365 -0.0893,-0.07985 -0.136594,-0.131333 -0.03993,-0.04205 -0.07985,-0.09034 -0.111366,-0.13764 -0.0158,-0.02103 -0.04731,-0.02311 -0.05674,-0.05987 -0.0088,-0.03364 0.02422,-0.04727 0.02422,-0.07776 -0.04624,-0.02523 -0.03262,-0.03151 -0.03155,-0.08191 0.0015,-0.04305 0.05984,-0.08928 0.05886,-0.133434 -0.01154,-0.0042 -0.01579,-0.01049 -0.01048,-0.01997 -0.0093,-0.04205 -0.06303,-0.11137 -0.0093,-0.133435 -0.01047,-0.05777 0.05984,-0.09666 0.102967,-0.115573 0.0093,-0.0042 0.01995,-0.03364 0.03261,-0.01682 0.0061,0.0054 0.0056,0.01368 -0.0031,0.01997 0,0.01365 -0.0088,0.08086 0.02209,0.07984 0.01368,-0.0018 -0.0378,-0.07247 0.03261,-0.07669 -0.0059,-0.01257 -0.01996,-0.0054 -0.02314,-0.01997 0.02523,-0.0013 0.0557,0.02099 0.07042,0.03775 0.01155,0.01265 0.05675,0.0066 0.07147,0.01157 0.02098,0.0088 0.06302,-0.01996 0.09143,-0.01996 -0.0031,0.0027 -0.01047,0.0042 -0.01476,0.0027 0.0093,0.04725 0.114526,0.05885 0.143941,0.101914 0.02315,0.03364 0.121883,0.04305 0.158656,0.04205 0.04302,-0.0027 0.116623,0.101917 0.09665,0.129236 -0.03048,0.04097 0.01368,0.09141 0.05251,0.08724 0.03888,-0.0042 0.0031,-0.07351 0.07881,-0.04305 0.02834,0.0126 0.03888,0.0105 0.04729,0.04414 0.03462,-0.0042 0.0809,-0.01682 0.121873,-0.0066 0.04099,0.01157 0.06622,0.03778 0.109272,0.04726 0.0935,0.01997 0.0044,0.191223 -0.0178,0.233249 -0.01581,0.03151 0.03156,0.137639 0.02523,0.18387 -0.01995,0.08086 -0.03261,0.109266 -0.101921,0.154448 -0.01887,0.01157 -0.0546,0.04938 -0.05046,0.07566 0.0061,0.02204 0.01369,0.0452 0.02099,0.06726 -0.01259,0.01577 -0.01889,0.03364 -0.01889,0.05253 v 0 c -0.0061,0.05045 -0.02622,0.09561 -0.03569,0.148143 -0.0059,0.03464 -0.11347,0.05045 -0.117671,0.03991 0.01993,0.0536 0.09665,0.03049 0.0609,0.11137 -0.01263,0.02837 -0.05672,0.03463 -0.08192,0.04099 -0.03157,0.0077 0.0015,0.04306 0,0.05985 0.01473,0.03364 -0.0357,0.01682 -0.05569,0.02208 -0.03778,0.01051 0.05673,0.0536 0.05046,0.04099 0.0093,0.01997 -0.02211,0.0094 -0.02942,0.01157 0.0088,0.01997 0.0389,0.06828 0.0015,0.08511 -0.05674,0.03463 0.04303,0.05457 0.05253,0.08191 0.242708,0.09771 0.507476,0.152348 0.784854,0.152348 0.794304,0 1.485649,-0.441286 1.841827,-1.091652 0.01047,-0.021 0.01889,-0.03259 0.02943,-0.04205 z m -0.794308,-2.579404 c 0,0.0055 -0.0056,0.01577 -0.01474,0.01472 -0.0059,0 -0.0093,-0.0053 -0.0093,-0.0076 0.0059,0 0.01047,-0.0018 0.0158,-0.0018 -0.01781,-0.01365 0.0031,-0.0088 0.0088,-0.0053 z m -0.08509,0.01156 c -0.0044,0.0053 -0.0093,0.01048 -0.01368,0.01682 -0.01047,-0.0095 0.0093,-0.01783 0.01368,-0.01682 z m -0.130279,0.03782 c -0.0158,0.0013 -0.0093,0.03151 -0.03364,0.01471 0.0031,-0.0028 0.0056,-0.0028 0.0059,0 0.0056,0 0.01049,-0.0028 0.01049,-0.0054 -0.03675,-0.0077 -0.0022,-0.03991 0.01682,-0.0088 z m -0.171259,-0.261617 c -0.0031,0.0013 -0.0043,0.0013 -0.0056,0.0013 0.0056,0.0018 0.0093,0.0018 0.01264,0.0027 -0.0093,-0.0018 0.02097,0.0018 0.02523,0.0027 -0.01995,-0.01783 0.02099,-0.0066 0.02209,-0.0066 0,0.0019 -0.0015,0.0019 -0.0015,0.0041 0.0093,-0.0018 0.0221,0 0.03463,0.0019 -0.0022,-0.0013 -0.0044,-0.0019 -0.0056,-0.0042 0.0073,0.0013 0.0158,0 0.02312,0 -0.0022,0 -0.02421,-0.0013 -0.02523,-0.0013 -0.0044,0 -0.02315,0.0013 -0.0262,-0.0053 0.0059,0 0.01154,0 0.01682,0.0013 v -0.0013 c 0.0031,0 0.0056,0 0.0088,0 -0.0015,-0.0013 -0.0022,-0.0013 -0.0031,-0.0019 0.03462,0 0.0893,-0.0055 0.121874,0.0088 -0.01155,0.0018 -0.06622,0.01051 -0.09665,0.0054 0.0056,0.0018 0.0093,0.0027 0.0137,0.0053 -0.0022,0.0013 -0.0031,0 -0.0061,0 0.01581,0.0018 0.03675,0.0053 0.05358,0.01259 -0.01579,0.0013 -0.02099,0.0053 -0.03569,0.0066 -0.0022,-0.0013 -0.0022,-0.0027 0,-0.0041 -0.0059,0 -0.01889,-0.0013 -0.02523,-0.0018 0,-0.0027 0.0059,-0.0018 0.0073,-0.0052 -0.0044,0 -0.0073,-0.0027 -0.01047,-0.0054 -0.02314,0.0054 -0.09034,0.03047 -0.09246,0.0053 0.01153,0 0.02097,0.0013 0.0326,0.0013 -0.0045,-0.0019 -0.03889,0 -0.03889,-0.0066 0,0 0.01996,-0.0027 0.0305,-0.0041 -0.01369,0 -0.0378,0.0028 -0.04409,-0.0018 0.0015,-0.0013 0.0022,-0.0013 0.0031,-0.0013 -0.0073,-0.0013 -0.01369,-0.0027 -0.01154,-0.0053 -0.0056,-0.0013 -0.0093,-0.0027 -0.01474,-0.0042 0.01262,-0.0013 0.02422,-0.0019 0.03677,0.0013 z m -0.03462,0.0066 v 0 c 0,0.0013 0,0.0013 0,0 0,0.0013 0,0 0,0 z m -0.0015,0 c 0.0056,0.0018 0.01047,0.0027 0.01369,0.0076 -0.0073,0 -0.0189,-0.0053 -0.01369,-0.0076 z m 0.851015,0.822704 c 0.0015,0.01259 -0.04206,0.03782 -0.04731,0.01157 0.01154,-0.0042 0.03261,-0.0105 0.04731,-0.01157 z m -0.210095,-0.0076 c -0.01473,0.0064 -0.04622,-0.0042 -0.05887,-0.01157 0.01994,-0.0013 0.04302,0.0053 0.05887,0.01157 z m -0.300452,-0.113335 c -0.0022,0.0077 -0.0031,0.03783 -0.0031,0.03783 -0.01262,-0.0013 -0.06726,-0.03151 -0.06825,-0.04205 0.01048,-0.0027 0.05984,0.0013 0.07144,0.0042 z m -0.166944,-0.144963 c 0,0.0042 0.0022,0.0077 0.0056,0.0077 -0.0022,0.0094 -0.0031,0.0273 -0.0056,0.03152 -0.0093,-0.0027 -0.01368,-0.02523 -0.01995,-0.03259 0.0059,0 0.01368,-0.0018 0.01995,-0.0066 z m -0.0093,0.07149 c -0.0015,-0.0066 -0.0093,-0.01156 -0.01153,-0.01891 0.06933,-0.0105 0.01996,0.09246 0.01153,0.01891 z m -0.136584,0.0053 c 0.0015,0.0094 -0.01995,-0.0042 -0.01995,-0.0053 0.01047,-0.0088 0.01682,-0.0066 0.01995,0.0053 z m -0.183881,-0.462356 c -0.0061,0.0041 -0.01257,0.0076 -0.01993,0.01049 0.0088,0.01577 0.02421,0.01997 0.04941,0.0066 0.0031,0.01367 -0.02523,0.02523 -0.02729,0.03259 0.03261,0.0088 0.0809,0.04099 0.08303,0.0746 0.0056,-0.0013 0.006,-0.0027 0.0093,-0.0027 0.01887,-0.0088 0.01887,0.01155 -0.0015,0.03464 0.0056,0.0013 0.01155,0.0019 0.0178,0.0041 0,0.0055 -0.143937,0.0189 -0.1597,0.01784 0.0093,-0.01682 0.05674,-0.02418 0.05674,-0.03364 -0.0059,0.0054 -0.05144,-0.0027 -0.05144,-0.0066 0,-0.01051 0.01682,-0.01368 0.01682,-0.03364 0.01368,0.0013 0.03678,0.0013 0.03678,-0.01578 -0.01261,0 -0.02314,-0.0018 -0.01368,-0.01471 -0.0056,-0.0013 -0.03993,0.0028 -0.03889,-0.0053 0,-0.01891 0.0221,-0.0095 -0.0056,-0.02312 -0.0044,0.0028 -0.0022,0.0053 0,0.0054 -0.0031,0 -0.0044,0 -0.0061,0 0,-0.01996 -0.0031,-0.01578 -0.0031,-0.03047 -0.01154,-0.0018 -0.01781,-0.0053 -0.01781,-0.0095 0.0022,0 0.0221,0.0064 0.0221,0.0027 -0.01581,-0.0053 0.05462,-0.04205 0.05251,-0.01472 z m -0.03675,0.08825 c 0,-0.0027 0.0015,-0.0053 0.0061,-0.0064 0.0015,0 0.0031,0.0013 0.0044,0.0013 0,0.0013 -0.0015,0.0028 -0.0015,0.0055 -0.0022,-0.0013 -0.0044,-0.0013 -0.0093,-0.0013 z m -0.02942,-0.0914 c 0,0.0054 -0.0059,0.01051 -0.01581,0.0095 -0.01682,0 0.01369,-0.0095 0.01581,-0.0095 z m -0.08614,0.08616 c 0.0015,-0.0095 0.02728,-0.0056 0.03364,-0.0095 -0.01579,-0.01682 0.02621,-0.01682 0.03364,-0.01472 0.04834,0.0027 0.01258,0.02523 0.01258,0.03048 -0.0015,0.03885 -0.02728,0.05145 -0.07041,0.0483 -0.04518,-0.0027 0.0022,-0.03151 0.0056,-0.04305 -0.0044,-0.0041 -0.0088,-0.0088 -0.01473,-0.01155 z m -1.172506,-0.210133 c 0.0088,0 0.01781,0 0.02523,0 -0.0056,0 -0.01046,0 -0.0158,-0.0028 0.0059,-0.0027 0.01367,-0.0019 0.02101,-0.0019 -0.0015,-0.0013 -0.0031,-0.0013 -0.0031,-0.0018 0.0093,-0.0018 0.01995,-0.0018 0.0294,-0.0027 -0.0044,-0.0013 -0.01259,-0.0013 -0.0088,-0.0027 0.01682,0 0.05142,0.01471 0.062,0.0076 l -0.0015,-0.0013 c 0.01262,-0.0013 0.01047,0.0013 0.0022,0.0066 0.01682,-0.0095 0.02099,0.01156 0.04833,-0.0076 0.0022,-0.0013 -0.01264,-0.0054 -0.01781,-0.0054 0.01262,0 0.01581,-0.0013 0.0088,-0.0028 -0.01368,0 -0.0242,-0.0019 -0.02621,-0.0053 0.0056,-0.0013 0.01048,-0.0019 0.01579,-0.0027 -0.0059,0.0013 -0.01475,0.0013 -0.02208,0.0013 0.01152,-0.0041 0.02314,-0.0041 0.03676,-0.0052 -0.01259,-0.0018 -0.02523,0.0041 -0.03784,0.0018 0.0073,-0.0013 0.01153,-0.0018 0.01782,-0.0027 -0.01154,0.0018 -0.0221,0.0018 -0.03364,0.0018 0.06092,-0.02207 0.233248,-0.03779 0.294186,-0.01578 -0.03156,0.0088 0.05143,-0.0042 0.04833,0.0027 -0.0031,0.0064 -0.05253,0.0064 -0.05674,0.0064 0.0022,0.0013 0.01682,-0.0013 0.02523,-0.0013 -0.04408,0.01264 -0.09141,0.01156 -0.135533,0.02208 0.0044,0 0.0073,0 0.01154,0 -0.0031,0.0027 -0.0061,0.0027 -0.01581,0.0027 0.0044,0.0013 0.0088,0.0013 0.0088,0.0042 -0.01996,0.0041 -0.03048,0.0088 -0.05143,0.01051 -0.0045,0.0095 -0.02208,0.0053 -0.03048,0.01259 0.0056,-0.0013 0.01994,-0.0018 0.01781,0 -0.03364,0.03259 -0.111373,0.0041 -0.160754,0.0088 0.0093,-0.0027 0.01996,-0.0053 0.0305,-0.0053 -0.02728,-0.01256 0.03462,-0.0053 0.04302,-0.0054 -0.01368,-0.01049 -0.03675,-0.0088 -0.05046,-0.0053 0,0.0013 0.0022,0.0018 0.0015,0.0027 -0.01154,0 -0.04833,-0.0027 -0.05887,0.0013 0.0022,0 0.0044,0 0.006,0 -0.0022,0 -0.0056,0.0013 -0.0088,0.0013 0.0015,0 0.0022,-0.0013 0.0022,-0.0013 -0.0031,0 -0.0061,-0.0013 -0.0088,-0.0041 0.01473,-0.0027 0.02943,-0.0041 0.04411,-0.0041 -0.0059,-0.0013 -0.02832,-0.0018 -0.04205,-0.0018 0.0015,0 0.0031,0 0.0044,-0.0013 -0.01682,0.0053 -0.02622,0.0053 -0.01887,0 z m 0.182816,0.06935 c -0.01262,0.0055 -0.04101,0.0052 -0.05459,0.0055 -0.0015,0 -0.021,-0.0041 -0.0158,-0.0088 0.0158,-0.01258 0.05358,-0.0019 0.07042,0.0018 z m -0.234344,-0.06619 c 0.0061,0 0.01367,0 0.01682,-0.0013 -0.0022,0.0013 -0.0045,0.0028 -0.0059,0.0041 0.0088,0 -0.0178,0.0013 -0.01048,-0.0027 z m 0.02418,0.01996 c 0.0045,-0.0013 0.0056,0 0,0 v 0 c -0.01153,0 -0.05252,0.0028 -0.02727,-0.0013 -0.01263,-0.01051 0.03994,-0.01365 0.02727,0.0013 z m 0.01889,0.0018 c -0.0044,0.0027 -0.0093,0.0041 -0.01475,0.0041 -0.0031,0 -0.02835,-0.0013 -0.02835,-0.0013 0.01474,-0.0027 0.02936,-0.0027 0.04304,-0.0027 z m 0.02523,0.01577 c -0.0061,0.0013 -0.01369,0.0013 -0.01995,0.0013 -0.0056,0.0053 0.01261,0.0018 0.01682,0.0041 -0.01153,0.0027 0.144998,-0.01051 0.147104,-0.0013 -0.0031,0 -0.0059,0.0013 -0.0093,0.0027 0.0031,0 0.006,0 0.006,0 -0.03888,0.02419 -0.112422,-0.01155 -0.147093,0.0076 -0.0093,0 -0.07355,0 -0.0389,-0.0055 -0.0031,-0.01052 -0.0088,-0.01262 -0.01886,-0.0054 -0.0088,0 -0.01682,-0.0018 -0.02523,-0.0053 0.0061,-0.0053 0.08723,-0.0053 0.08931,0.0027 z m -0.07566,0.01051 c 0.01579,0.0076 -0.04411,0.0054 -0.04411,0.0054 0.0031,-0.0018 0.01048,-0.0027 0.01154,-0.0027 0.01046,-0.0054 0.02106,-0.0076 0.03261,-0.0027 z m -0.09454,-0.03254 c 0.0022,0 0.0044,-0.0013 0.0059,-0.0018 -0.0059,0 -0.0073,-0.0013 -0.0045,-0.0018 0.01368,-0.0018 0.05674,-0.0065 0.06726,0.0041 -0.0022,0 -0.0056,0.0013 -0.0059,0.0018 0.0044,0.0041 -0.01153,0.0064 -0.02942,0.0064 -0.0045,0.0013 -0.0093,0.0013 -0.01578,0.0018 0.0031,0 0.0073,-0.0013 0.01153,-0.0018 -0.01473,0 -0.0305,-0.0018 -0.03364,-0.0053 0.0073,0.0013 0.0158,-0.0013 0.02209,-0.0053 -0.01255,0.0018 -0.01682,0.0027 -0.01781,0.0018 z m -0.03261,0.01156 c 0.01258,-0.0013 0.0059,0.0041 0.01475,0.0041 -0.0031,0.0013 -0.0073,0.0028 -0.01048,0.0028 -0.0061,0.0013 -0.0088,-0.0041 -0.0044,-0.0076 z m -0.0022,0.01472 v 0 c 0,-0.0054 0.02314,0.0027 0.02942,0.0041 h 0.0015 c -0.0022,-0.0013 -0.0031,-0.0013 -0.0031,-0.0019 0.01048,-0.0065 0.01995,0.0027 0.03155,-0.0041 -0.0088,0.0013 -0.01581,0.0013 -0.01264,-0.0018 0.0044,-0.0013 0.04732,0 0.04732,0 0,0.0273 -0.05358,0.0105 -0.06516,0.01783 0.006,-0.0053 0.02101,-0.0054 0.02728,-0.0076 -0.0059,-0.0027 -0.0158,-0.0019 -0.02523,-0.0019 0,0.0014 0,0.0014 0,0.0014 0,0 0,0 -0.0015,-0.0014 -0.01047,0.0019 -0.02099,0.0027 -0.02835,0.0027 0.0015,-0.0013 0.0015,-0.0013 0.0022,-0.0027 -0.006,0.0019 -0.006,0 -0.0088,-0.0013 z m 0.04729,0.03052 c -0.0093,0.0041 -0.01887,0.0054 -0.02939,0.0088 0.0059,0 0.02523,-0.0054 0.01155,0.0027 0.0022,0 0.0088,0.0013 0.01046,0.0013 -0.01995,0.01156 -0.06826,0.02836 -0.08614,0.0027 0.01369,-0.0088 0.02728,0.0013 0.04101,-0.0088 -0.03784,-0.0013 0.04944,-0.0053 0.05253,-0.0076 z m -0.06086,0.062 c -0.0093,0.0028 -0.07667,0.0028 -0.04205,-0.0027 -0.01369,0.0027 0.05251,-0.01996 0.04205,0.0027 z m -0.01474,-0.07564 c -0.0045,0.0013 -0.0057,0 -0.0093,0.0013 0.0073,-0.0041 0.01475,-0.0053 0.02314,-0.0055 -0.0022,0.0053 -0.006,0.0076 -0.01369,0.0053 z m -0.06092,-0.03151 c 0.0073,-0.0053 0.03261,-0.0027 0.0473,-0.0027 0.0031,-0.0013 0.0061,-0.0013 0.0093,-0.0013 -0.0015,0.0013 -0.0056,0.0013 -0.0093,0.0013 -0.0022,0 -0.0056,0.0013 -0.0059,0.0013 0.0015,0.0013 0.0022,0.0019 0.0022,0.0027 -0.02835,0.0028 -0.03154,0.0041 -0.01047,0.0028 -0.0061,0.0041 -0.02523,0.0055 -0.03463,0.0055 -0.01152,0.0013 0.006,-0.0055 0.02314,-0.01156 -0.0088,-0.0018 -0.01474,-0.0013 -0.02104,0.0013 z m -0.01368,0.0041 c -0.0061,0.0041 -0.01046,0.0041 -0.01474,0.0013 0.0056,-0.0027 0.01048,-0.0027 0.01474,-0.0013 z m -0.03262,0.01263 c 0.0056,-0.0013 0.01046,-0.0013 0.0158,-0.0013 -0.0044,0.0027 -0.0093,0.0053 -0.01475,0.0041 -0.0022,-0.0013 -0.0045,-0.0018 -0.0015,-0.0027 z m -0.0059,-0.0076 c 0.0059,0.0018 0.0045,0.0041 -0.0073,0.0053 -0.0044,0.0066 -0.01153,0.0095 -0.02103,0.0076 0.0073,-0.0095 0.01682,-0.01367 0.02835,-0.01262 z m -0.03993,0.02099 c 0.0056,-0.0028 0.0088,-0.0028 0.01475,-0.0028 -0.0015,0 -0.0022,-0.0013 -0.0031,-0.0013 0.0056,-0.0018 0.0093,-0.0027 0.01474,-0.0027 -0.0022,0 -0.0031,-0.0013 0,-0.0018 0.02419,-0.0028 0.04833,0.01471 0.07463,0.0041 -0.0056,0.0013 -0.0059,0 -0.0088,-0.0013 0.0045,0 0.0088,-0.0013 0.01048,-0.0027 -0.01995,-0.0013 0.0242,-0.0088 0.02834,-0.0088 -0.02421,0.01157 0.02523,0.0076 0.02096,0.01049 -0.03462,0.01996 -0.08931,0.0041 -0.127132,0.01156 0,0.0076 -0.0061,0.0095 -0.01781,0.0056 0.0056,-0.0027 0.01154,-0.0056 0.01781,-0.0056 0,0 0,-0.0013 0,-0.0013 -0.003,0 -0.0073,0.0018 -0.0093,0.0027 -0.0093,0.0018 -0.01993,0.0027 -0.0294,0.0018 0.0044,-0.0055 0.01048,-0.0095 0.01781,-0.0088 -0.0022,0.0013 -0.0031,0 -0.0044,0 z m -0.09035,0.06827 c 0.0059,-0.0065 0.0326,-0.02837 0.04942,-0.03464 -0.0015,0 -0.0022,0 -0.0031,0 0.0045,-0.0027 0.0088,-0.0054 0.01264,-0.0088 0.0015,0.0027 0,0.0053 -0.0015,0.0064 0.0044,0 0.0061,0.0018 0.0044,0.0088 0.02621,-0.0055 0.06827,0.0088 0.0641,0.0088 0.02523,-0.0013 0.05046,-0.04099 0.08406,-0.0294 -0.0022,-0.0013 -0.0305,0.01783 -0.03262,0.02207 -0.01261,0.02623 0.0022,0.01049 0.01996,0.02523 -0.0088,0.0028 -0.02623,0.0013 -0.03364,0.0054 0.0015,-0.0013 0.0044,0.0053 0.0044,0.0053 -0.02421,0.01156 -0.167062,0.01682 -0.173363,0.0095 -0.0022,-0.0013 -0.01154,0 -0.01889,0 0.02099,-0.01682 0.0326,-0.01577 0.05779,-0.0189 -0.01048,-0.0041 -0.02619,-0.0018 -0.03364,0 z m -0.03049,0.02312 c 0.0059,-0.0013 0.0059,0.0018 0.0056,0.0088 -0.0044,0.0013 -0.01262,0.0013 -0.01887,0.0027 0.0044,-0.0041 0.0093,-0.0088 0.01369,-0.01157 z m -0.338224,1.168349 c 0.0031,-0.0077 0.0061,-0.01158 0.01368,-0.01366 0.0031,-0.0077 0.0031,-0.01471 0.0088,-0.0088 -0.01473,0.04306 -0.01682,0.01263 -0.0221,0.02205 z m 0.107169,0.204881 c -0.06092,0.0018 -0.03364,-0.0315 -0.02622,-0.03046 0.01048,0.0027 0.01996,0.01365 0.0242,0.0189 0,-0.0013 0,-0.0027 0,-0.0042 0.0044,0.0042 0.0044,0.0094 0.0022,0.01579 z m 0.0015,-0.114523 c 0.01781,-0.04306 0.0044,-0.111372 -0.05985,-0.118722 -0.01682,-0.05671 -0.02208,0.0147 -0.07353,0.0077 0.05144,-0.06619 0.09143,-0.07669 0.148143,-0.01995 0.01782,0.0189 0.05986,0.07776 0.05781,0.09351 0.02834,0.0088 0.0073,0.02419 0.02099,0.04413 -0.02936,0.03884 -0.06092,-0.0013 -0.0935,-0.0054 z m 0.0872,-0.238501 c 0.0031,-0.0053 0.0059,0.01578 0.0044,0.01997 -0.01047,0.02206 -0.0059,-0.01682 -0.0044,-0.01997 z m 0.08615,0.35828 c -0.0022,-0.01997 -0.03262,0.02837 -0.03995,0.02623 0,0 -0.04622,-0.08191 -0.06512,-0.02945 -0.0494,-0.02943 0.04832,-0.03786 0.05359,-0.03465 0.0015,-0.0094 0.0022,-0.102966 0.02623,-0.06725 0.01048,0.01782 0.02729,0.0042 0.04301,0.0054 0.03263,0.0053 0.02835,0.03679 0.03995,0.05886 -0.0022,-0.0077 -0.0031,-0.01051 0,0.0013 0,0 0,-0.0013 0,-0.0013 0.0031,0.01368 0.01154,0.04305 0.01154,0.04097 -0.0031,0 -0.06932,0 -0.06932,-0.0013 z m -0.07044,-0.418194 c 0.0044,-0.0042 0.01154,-0.0077 0.01682,-0.0077 0.006,0.0013 0.006,0.0054 0.006,0.01049 -0.01048,0 -0.01889,-0.0027 -0.02314,-0.0027 z m 0.06092,0.221688 c -0.0022,0.01366 -0.0093,0.01997 -0.0242,0.0189 -0.01475,-0.0042 0.02101,-0.01579 0.0242,-0.0189 z m -0.0253,-0.212213 c 0,0.0027 0,0.0066 0,0.0105 -0.0031,0 -0.0022,-0.0066 0,-0.0105 z m 0.13554,0.437079 c 0.0073,-0.02207 0.04303,0.0077 0.04411,0.01891 -0.01153,0.01579 -0.05047,0.0042 -0.04411,-0.01891 z m 0.449685,-0.958213 c -0.03364,0.01891 0.0015,-0.03884 0.04729,-0.04098 -0.01154,0.0018 -0.01476,-0.0018 -0.0073,-0.01051 -0.03364,0.0013 -0.09035,0.03991 -0.116627,0.03364 -0.02836,-0.0054 -0.115577,0.06511 -0.06727,0.06405 -0.02938,0.0105 -0.07251,0.0088 -0.10401,0.02211 0.0059,0 0.02422,-0.0042 0.02944,0.0013 -0.01781,0.0053 -0.09772,0.03364 -0.09246,0.0452 -0.01472,0.0088 -0.01995,0.05564 -0.0473,0.05462 0.0022,0 0.01153,-0.03991 0.01268,-0.04414 -0.0059,0.0054 -0.0305,0.04831 -0.02834,0.05565 0.0022,0 0.0044,0 0.0061,0 -0.0043,0.0094 -0.01154,0.01682 -0.02209,0.01997 0,0.0055 0.0031,0.0077 0.0073,0.0088 -0.0088,0.0105 -0.0305,0.0066 -0.0158,0.02311 -0.01889,0.01471 -0.04411,0.01783 -0.06413,0.03151 0,0 0.0015,0.0018 0.0015,0.0018 -0.0809,0.03364 -0.152348,0.06936 -0.162851,0.164958 -0.0031,0.02418 -0.03153,0.131334 -0.06727,0.127132 -0.0326,-0.0042 0.02942,-0.159701 0.02523,-0.172309 0,-0.0013 -0.09035,-0.01682 -0.08614,-0.02523 -0.01369,0.0027 -0.02728,0 -0.04302,0.0053 0.0056,0.0042 0.0044,0.0042 0.01049,0.0013 -0.0093,0.01471 -0.02101,0.0231 -0.01682,0.03259 -0.02622,0.01157 -0.05047,-0.04205 -0.08614,-0.0221 -0.05358,0.02837 -0.09246,0.0536 -0.12293,0.107167 -0.0015,0 -0.0015,0 -0.0022,0 -0.0073,0.01891 -0.164956,0.279479 -0.09246,0.295242 0.09877,0.02094 0.102963,-0.11768 0.210132,-0.09982 -0.01368,0.02838 -0.03779,0.04831 -0.05046,0.07669 -0.0088,0.01782 -0.01682,0.02731 -0.02523,0.03781 -0.01266,0.01997 -0.121884,0.110321 -0.02622,0.114527 0.114522,0.0077 0.02942,0.115572 0.006,0.174411 -0.01996,0.05255 -0.062,0.223791 0.03676,0.181767 0.04729,-0.01997 0.04833,0.05045 0.05569,0.07776 -0.0031,0.0053 -0.03888,0.03679 -0.03888,0.03679 -0.0022,-0.01579 0.0158,-0.07146 -0.0061,-0.07984 -0.04411,-0.01579 -0.04728,0.08929 -0.06932,0.07984 -0.04206,-0.01682 -0.02099,-0.178615 -0.05253,-0.18912 -0.0031,0.0042 -0.006,0.01154 -0.006,0.01579 -0.0031,-0.0013 -0.0056,-0.0018 -0.0073,-0.0027 -0.0088,-0.03259 0.01996,-0.06618 0.01782,-0.100861 -0.0022,-0.03046 -0.0061,-0.05671 0.0022,-0.08724 -0.02836,-0.0088 -0.0546,-0.02837 -0.06932,-0.06511 -0.0056,-0.01365 0.0015,-0.08085 -0.01368,-0.08405 -0.0093,-0.03886 -0.02728,0.01157 -0.04517,0.0056 -0.01996,-0.0053 -0.02622,-0.07245 -0.04302,-0.07245 0.05569,-0.303645 0.179668,-0.593626 0.360384,-0.845791 0.08825,-0.123982 0.191218,-0.236404 0.304696,-0.338318 0.03677,-0.03364 0.08193,-0.07351 0.138687,-0.0536 0.0093,0.0027 0.03889,0.0013 0.05569,-0.0126 -0.0015,0 -0.0022,0 -0.0022,0 -0.0093,0.0018 -0.03782,0.0066 -0.03364,0.0027 0.0044,-0.0027 0.0158,-0.0027 0.03364,-0.0027 0.0022,0 0.0031,0 0.0031,0 0,0 -0.0015,0 -0.0015,0 0.0441,0.0018 0.114523,0.0105 0.139743,0.0041 0.0044,-0.0027 0.0093,-0.0054 0.0093,-0.0054 0,0.0027 -0.0044,0.0053 -0.0093,0.0054 -0.0044,0.0027 -0.0061,0.0041 0.0057,0.0027 0.01781,-0.01366 0.04731,-0.01049 0.05459,-0.02094 -0.006,0.0013 -0.0093,0.0018 -0.01579,0.0027 0.0056,-0.0027 0.01046,-0.0053 0.01579,-0.0088 0.0056,-0.0041 -0.02523,-0.0064 -0.01996,-0.01051 0.01996,-0.01472 0.09035,-0.01682 0.07353,-0.0041 -0.0073,0.0027 -0.01473,0.0053 -0.02209,0.0055 0.0015,0.0041 0.01682,0.0013 0.02315,0.0027 -0.02315,0.0055 0.0056,0.0013 -0.01046,0.01367 -0.0031,0 0.0578,-0.0147 0.04621,-0.0053 -0.01473,-0.0013 -0.01994,0.0053 -0.01782,0.01577 0.01682,0.01682 0.06726,-0.02942 0.08088,-0.03259 -0.0015,0 -0.104018,-0.0018 -0.09143,-0.01156 0.01475,0.0054 0.02727,0.0053 0.03785,-0.0041 -0.0031,-0.0018 -0.03572,-0.0027 -0.03572,-0.0027 -0.0061,-0.01365 0.03888,-0.01997 0.04624,-0.02312 -0.01261,0.0041 -0.03462,0.0019 -0.04729,0.0088 0.0022,0 0.0044,0 0.0061,-0.0013 -0.01154,0.0054 -0.02208,0.0095 -0.03462,0.0088 0.03676,-0.02523 0.05568,-0.02523 0.106113,-0.02732 -0.0088,0.0041 -0.01579,0.0054 -0.02523,0.0088 0.02421,-0.0052 0.04622,-0.0052 0.06931,-0.0041 -0.0088,0.0019 -0.04942,0.01263 -0.03676,0.01263 -0.02727,0.01259 0.08723,-0.02624 0.0935,-0.0065 0.0015,0.0013 -0.0056,0.01051 -0.0073,0.01051 0.04834,0 0.08825,0.01577 0.134489,0.01682 0,0.0013 -0.0015,0.0019 -0.0015,0.0027 0.0056,-0.0013 0.01047,0 0.01474,0.0053 -0.0056,0.0013 -0.01047,0 -0.01368,0.0027 0.0056,-0.0013 0.01154,0 0.01579,0.0018 -0.0059,0.0018 -0.0093,0.0018 -0.01368,0.0053 0.0045,0.0018 0.05984,0.01996 0.05887,0.02208 -0.0045,0.02523 -0.04518,0.01366 -0.06513,0.01156 -0.0022,0.0053 -0.0059,0.0013 -0.0088,0.0076 0.01153,-0.0013 0.01581,0.01366 0.03049,0.01157 -0.01154,0.03781 -0.01047,0.01578 -0.05358,0.02418 -0.0015,-0.0018 0.04833,0.02206 0.0221,0.02836 -0.03262,0.0054 -0.07041,-0.01682 -0.09035,-0.02623 -0.0073,-0.0041 -0.0935,0.0054 -0.09036,0.0013 0.01889,-0.02523 0.06825,-0.01682 0.09455,-0.02942 -0.02099,-0.0065 0.05463,-0.01995 0.02942,-0.03778 0,0.01682 -0.04101,0.0053 -0.03994,0.0041 0.01047,-0.0054 0.02099,-0.0095 0.03364,-0.0088 -0.006,-0.0028 -0.03572,-0.0041 -0.03675,-0.0041 0.0056,-0.0013 0.0093,-0.0018 0.01474,-0.0041 -0.0031,-0.0027 -0.0073,-0.0066 -0.01152,-0.0066 -0.0059,0 -0.01372,0.0018 -0.01779,0.0066 0.0059,-0.0053 0.01264,-0.0066 0.01779,-0.0066 0,0 0.0015,0 0.0022,0 -0.01262,-0.0054 -0.05984,0.0053 -0.05046,-0.0018 -0.0073,0 -0.01996,0 -0.03364,0.0013 0.01048,0.0013 0.02101,0.0066 0.03156,0.0066 -0.01995,0.01682 -0.05779,0.03463 -0.09877,0.04724 0.0088,-0.0018 0.0056,0.0018 0.0061,0.0041 -0.0073,0 -0.0093,-0.0018 -0.0061,-0.0041 -0.0059,0.0018 -0.01368,0.0041 -0.02099,0.0066 0,0.0018 0.0015,0.0027 0,0.0053 0.0061,-0.0028 0.03462,0.0013 0.0378,0.0088 0,0.0018 -0.0031,0.0041 -0.0022,0.0066 0.0059,0.0041 0.01887,0.0013 0.01994,0.0053 -0.02834,0.0076 -0.07668,0.01257 -0.106118,0.01471 -0.0073,0 -0.0022,-0.0027 0.0031,-0.0066 -0.0088,-0.0013 -0.02104,0.0013 -0.02619,0.0013 0.0093,-0.0076 0.0357,-0.02206 0.0557,-0.03151 -0.02209,0.0027 -0.04305,0.0027 -0.05984,-0.0018 -0.0022,0.0095 0.01996,0.0054 0.03676,0.0088 -0.02419,0.01996 -0.08614,0.02837 -0.122935,0.02419 0.0031,0.0013 0.006,0.0027 0.0093,0.0053 -0.03262,0.02947 -0.109266,0.0536 -0.149191,0.07985 0.03154,-0.0053 0.02834,0.0065 0.0073,0.02837 0.07464,-0.0028 0.06726,0.04096 0.127134,0.03885 0.01995,0.01366 -0.0093,0.0326 -0.01153,0.04305 0.0073,-0.0013 0.02099,-0.0013 0.01474,0.0065 -0.0056,0.0013 -0.0093,-0.0013 -0.01474,-0.0027 0.0022,0.0042 0.01262,0.0054 0.03782,0.0054 0.0294,-0.03259 -0.0044,-0.04413 0.05251,-0.06725 0.07146,-0.02837 0.01888,-0.02837 0.01782,-0.06511 0.07667,-0.01682 0.0462,-0.08511 0.148142,-0.03575 0.02943,0.01368 0.11768,0.03991 0.139741,-0.0013 -0.01368,0.02311 -0.0056,0.02625 0.0073,0.03046 -0.0056,-0.0027 -0.0088,-0.0053 -0.01154,-0.0095 0.0262,-0.03572 0.08302,0.03992 0.0378,0.05565 0.0059,0.0041 0.01262,0.0105 0.03049,0.0105 l -0.0015,0.0013 c -0.01474,0.02523 0.05984,0.01784 0.05358,0.02523 -0.01046,0.01053 -0.05886,0.01473 -0.07984,0.01996 0.0022,0.0105 0.08825,-0.01155 0.09559,-0.01471 0.02622,0.08829 -0.237443,0.0799 -0.292083,0.123979 0.0061,0 0.139743,-0.03151 0.129236,-0.01155 -0.0093,0.01577 -0.03364,0.01155 -0.04728,0.01996 0.0073,0 0.01579,0.0018 0.01995,0.0018 -0.04729,0.05776 0.05887,0.05045 0.05358,0.06096 -0.01682,0.0189 -0.108219,0.03364 -0.128182,0.04414 z m -0.148244,-0.374896 c -0.01048,0.0053 -0.03364,0.01263 -0.04411,0.0137 0.0022,-0.0013 0.0031,-0.0027 0.0057,-0.0041 0.01258,-0.0054 0.02523,-0.01259 0.03889,-0.0095 z m 0.299449,0.215382 c 0.01682,0.0027 -0.01475,0.01263 0,0 z m -0.0022,0.02623 c -0.0158,0.01264 -0.03993,-0.0052 -0.05251,-0.01472 0.02835,-0.0042 0.03889,0.0076 0.05251,0.01472 z m -0.04302,0.06512 c -0.01046,0.02104 -0.04942,-0.0013 -0.04622,-0.0066 0.0015,-0.0027 0.0044,-0.0041 0.0059,-0.0054 0.0093,0.01364 0.02314,0.01783 0.03993,0.01266 z m 0.0158,0.01259 c 0.0093,-0.0095 0.01995,-0.01783 0.0326,-0.02311 0,0.0028 0.0044,0.0042 0.0031,0.0066 -0.0031,0.0054 -0.01887,0.01049 0.0022,0.01049 -0.006,0.01471 -0.04205,0.01577 -0.03785,0.0054 z m 0.113517,-0.02835 c 0,0 -0.04304,0.02206 -0.04101,0.01783 0.0045,-0.0053 0.0088,-0.0088 0.01474,-0.0105 -0.01046,0 -0.107166,-0.0077 -0.106116,-0.0077 0.0045,-0.0105 0.01996,-0.0054 0.0242,-0.01682 -0.0031,0 -0.0061,-0.0013 -0.0061,-0.0027 0.03779,-0.01157 0.06726,-0.06829 0.108218,-0.06829 0.01259,0 -0.03675,0.03991 -0.03785,0.04305 0.0093,-0.0054 0.01889,-0.0054 0.02939,-0.0027 -0.0056,0.0018 -0.0073,0.0053 -0.0088,0.0094 0.0056,0 0.01049,0 0.01581,0 0,0.0013 -0.0022,0.0028 -0.0022,0.0028 0.0044,0 0.0088,-0.0018 0.01264,-0.0028 0.0093,0.0028 0.02099,0.0028 0.02727,0 -0.0022,0.0066 -0.0059,0.01156 -0.0093,0.02102 0.0022,-0.0013 0.0073,-0.0018 0.01154,-0.0018 -0.0073,0.01471 -0.0057,0.0066 -0.01154,0.02099 0.0093,0.0013 0.0073,-0.0018 0.01368,-0.0041 -0.01781,0.04938 -0.01579,0.02206 -0.03461,0.0027 z m 0.535814,-0.437061 c -0.0088,0.02523 -0.03993,-0.01577 -0.04409,0 0.0073,0.0041 0.05046,0.01051 0.04518,0.02731 -0.0031,0.01156 -0.05464,-0.0076 -0.062,-0.0095 -0.0031,0.0076 0.0059,0.0076 -0.0093,0.0095 -0.0022,0.0076 0.04519,0.0054 0.05568,0.0088 -0.04516,0.01577 -0.09455,0.02312 -0.141837,0.02312 -0.03049,0.0088 -0.04833,0.02935 -0.08407,0.02837 0.0015,-0.0018 0.0015,-0.0027 0.0022,-0.0053 -0.0326,0.0055 -0.07142,0.07246 -0.08825,0.07043 -0.01153,-0.0013 -0.09035,-0.03678 -0.062,-0.05257 -0.006,-0.0066 -0.02942,-0.01051 -0.0158,-0.02944 -0.0022,-0.0013 -0.0056,-0.0013 -0.0061,0 0.0056,-0.01682 0.03364,-0.01997 0.04411,-0.03364 -0.01047,-0.0018 -0.03462,-0.0027 -0.03364,-0.0095 0.0093,-0.0018 0.02316,0.0095 0.02941,0 -0.0031,0 -0.02622,-0.01365 -0.03463,-0.01261 0.0093,-0.0053 0.01047,-0.0088 0.0015,-0.01051 0.01475,-0.03572 -0.062,-0.03572 -0.08303,-0.03049 0.0015,0 0.0015,0.0013 0.0022,0.0013 -0.0061,0.0013 -0.01368,0 -0.01994,-0.0027 0.0031,-0.0013 0.0056,-0.0013 0.0061,-0.0028 -0.0061,-0.0027 -0.01262,-0.0041 -0.01889,-0.0019 0.0073,-0.01156 0.03364,0 0.04303,-0.01048 -0.0044,0 -0.05047,0.0042 -0.04833,-0.0028 0.0093,-0.01891 0.05779,-0.0013 0.06826,-0.02102 -0.0059,0.0013 -0.01368,0 -0.01995,-0.0018 0.01154,-0.02204 0.116626,-0.02623 0.132384,-0.0273 0.0044,-0.0076 0.01581,-0.0066 0.02421,-0.0027 -0.0015,-0.0013 -0.0022,-0.0027 -0.0015,-0.0027 0.0056,-0.0076 0.0473,0 0.05568,0 -0.0061,0 -0.01263,-0.0013 -0.01783,-0.0054 0.0056,-0.0018 0.01049,-0.0027 0.01582,-0.0027 -0.0022,-0.0013 -0.0044,-0.0013 -0.0057,-0.0018 0.105076,-0.02419 0.221698,-0.0189 0.328868,-0.01577 -0.0073,0.0055 -0.01995,0.0105 -0.03462,0.01259 0.01154,-0.0013 0.01995,-0.0019 0.01995,0 -0.0015,0.0013 -0.04303,0.01366 -0.04517,0.01682 0.01154,-0.0018 0.21539,-0.02622 0.213284,-0.02311 -0.0059,0.0105 -0.04942,0.01263 -0.07144,0.01365 -0.0059,0.01157 -0.08825,0.02939 -0.102968,0.03781 0.01261,-0.0027 0.02523,-0.0013 0.03782,0.0019 -0.0031,0.0013 -0.0073,0.0018 -0.01154,0.0018 0.0073,0.0013 0.01474,0.0028 0.02207,0.0066 -0.0061,0.01365 -0.04832,-0.0066 -0.0546,0.0088 -0.0022,0.0027 0.02523,0.0013 0.02098,0.01256 -0.0044,0.01156 -0.01781,0 -0.02098,0.0088 0.0059,0.0041 0.01368,0.0066 0.02098,0.0041 -0.0057,0.0041 -0.01682,0.0055 -0.02836,0.0055 0,0.0018 0.0022,0.0028 0.0044,0.0041 -0.01368,0.01579 -0.03995,0.0041 -0.05675,0.0041 0.01153,0.0053 0.02102,0.0095 0.02943,0.0147 z m 0.02621,0.04622 c 0.0088,0 0.02422,0 0.03156,-0.0013 0.0015,0.0013 -0.02422,-0.01051 -0.02314,-0.01366 0.0088,-0.0013 0.02102,-0.0053 0.0294,-0.0041 -0.0088,0.0189 0.01047,0.01156 0.01682,0.0076 0.0061,0.0088 0.01682,0.0013 0.02523,0.0054 0.0015,-0.0054 0.06513,-0.0013 0.0725,0 -0.01682,0.0053 0.0088,0.01682 0.0031,0.02419 -0.06092,0.02624 -0.0935,0.0019 -0.150247,-0.0028 0.0022,-0.0018 0.0044,-0.0027 0.006,-0.0027 0.0031,-0.0053 0.0061,-0.0054 0.01046,-0.0105 -0.0073,-0.0013 -0.01886,0.0018 -0.02208,-0.0018 z m 1.695783,2.277856 c -0.0016,0.03782 0.04941,0.07566 0.03462,0.110322 -0.04304,0.0914 0.03887,0.183867 -0.06727,0.251112 -0.03677,0.02311 -0.08508,0.04411 -0.0935,0.09247 -0.06826,0.01367 -0.0056,0.09456 -0.0059,0.128176 -0.0031,0.07775 -0.01781,0.06095 -0.06623,0.101915 -0.05046,0.04305 -0.0022,0.07984 -0.04515,0.131333 -0.03992,0.04726 -0.06091,0.104021 -0.09773,0.154456 -0.01581,0.02096 -0.09142,0.0483 -0.09455,0.0651 -0.04102,0.0053 -0.07566,-0.0053 -0.115574,0.01578 -0.0378,0.01997 -0.08193,-0.0054 -0.0956,0.0013 0.0015,-0.134488 -0.106117,-0.236406 -0.121878,-0.377193 -0.0061,-0.06512 -0.0088,-0.09034 -0.03887,-0.149196 -0.03154,-0.06202 -0.05778,-0.131337 -0.04517,-0.201729 0.0093,-0.05145 0.05046,-0.08618 0.062,-0.134486 0.01153,-0.04831 -0.01154,-0.123979 -0.0242,-0.171259 -0.01368,-0.05045 -0.01682,-0.113474 -0.05046,-0.155499 -0.03364,-0.04205 -0.09143,-0.09772 -0.06933,-0.157602 0.03364,-0.0914 0.04943,-0.185968 -0.08302,-0.18387 -0.04099,0.0013 -0.03677,-0.07984 -0.08509,-0.07883 -0.06514,0.0018 -0.117677,0.07669 -0.172309,0.07775 -0.02209,0.0013 -0.041,-0.01997 -0.0641,-0.01893 -0.02836,0 -0.04833,0.01579 -0.07353,0.02523 -0.05567,0.01891 -0.09664,-0.03572 -0.131332,-0.07043 -0.04622,-0.04725 -0.05459,-0.110324 -0.09771,-0.158653 -0.02422,-0.02623 -0.04834,-0.0536 -0.06727,-0.08511 0.0015,0 0.0022,0 0.0031,0 0,-0.03679 -0.02314,-0.07351 -0.0056,-0.101912 0.01889,-0.02942 0.03154,-0.07043 0.03364,-0.106119 0.0022,-0.05045 -0.03364,-0.122931 -0.0073,-0.16916 0.01995,-0.03464 0.03364,-0.07043 0.04942,-0.107166 0.02099,-0.0452 0.041,-0.101916 0.09034,-0.119777 0.02727,-0.01051 0.06093,-0.03885 0.06933,-0.06726 0.0093,-0.0305 0.0031,-0.0662 0.02314,-0.09351 0.02835,-0.03991 0.062,-0.07459 0.09246,-0.11347 -0.0015,0 -0.0015,0 -0.0022,0 0.03364,-0.04519 0.08508,0.0053 0.143941,-0.02945 0.04729,-0.02623 0.10612,-0.05671 0.161808,-0.05885 0.03676,-0.0013 0.07041,0 0.108212,-0.0013 0.01782,0 0.04101,-0.03364 0.05673,-0.0088 0.0093,0.01258 0.01889,0.01258 0.02935,0.0027 -0.0022,0.03259 -0.01579,0.05985 -0.01579,0.09561 0,0.06407 0.06091,0.04305 0.09877,0.05567 0.03461,0.01156 0.16811,0.156548 0.166001,0.04519 -0.0022,-0.09666 0.139743,-0.01364 0.175464,-0.0013 0.05046,0.01783 0.08931,0.02419 0.138688,0.0054 0.03779,-0.01367 0.07143,0.0105 0.110322,0 0.02316,0.05776 0.01995,0.07144 0.0061,0.130282 -0.02103,-0.0027 -0.04304,-0.05777 -0.06092,-0.07884 0.0031,0.06094 0.06092,0.133438 0.0893,0.187021 0.01887,0.03572 0.02314,0.07351 0.04302,0.108217 0.02422,0.04096 0.01368,0.09771 0.04303,0.130285 0.03155,0.03463 0.04303,0.05253 0.05359,0.100862 0.01368,0.06307 0.115577,0.104019 0.129234,0.163906 0.01995,0.08618 0.04729,0.06511 0.117674,0.05253 0.03992,-0.0088 0.0777,-0.0294 0.115575,-0.04205 0.04102,0.09981 -0.06726,0.291035 -0.122925,0.372991 -0.06411,0.09351 -0.168111,0.128179 -0.195431,0.249008 -0.0061,0.03259 -0.03572,0.04938 -0.03572,0.08511 -0.0016,0.03151 0.0061,0.0651 0.0061,0.09981 z"
       id="path1025-6" />
    <path
       fill="none"
       stroke-width="1.00346"
       stroke-linecap="round"
       stroke-linejoin="round"
       stroke-miterlimit="10"
       d="M -34.5,6.1414472 V 19.861033 c 0,0.905402 -0.833945,1.639364 -1.860531,1.639364 H -49.261035 L -56.5,27.098333 v -5.597936 h -3.139469 c -1.026588,0 -1.860531,-0.733962 -1.860531,-1.639364 V 6.1411032 C -61.5,5.2357028 -60.666057,4.5 -59.639469,4.5 h 23.278938 C -35.333945,4.5 -34.5,5.2360467 -34.5,6.1414472 Z"
       id="path2-3"
       style="stroke:#00aad4;stroke-opacity:1"
       sodipodi:nodetypes="ssscccssssss" />
  </g>
</svg>
