<?xml version="1.0" encoding="UTF-8" standalone="no"?>
<svg
   viewBox="0 0 32 32"
   width="32"
   height="32"
   version="1.1"
   id="svg4"
   sodipodi:docname="audio-volume-low.svg"
   inkscape:version="1.3.2 (091e20ef0f, 2023-11-25)"
   xmlns:inkscape="http://www.inkscape.org/namespaces/inkscape"
   xmlns:sodipodi="http://sodipodi.sourceforge.net/DTD/sodipodi-0.dtd"
   xmlns:xlink="http://www.w3.org/1999/xlink"
   xmlns="http://www.w3.org/2000/svg"
   xmlns:svg="http://www.w3.org/2000/svg">
  <defs
     id="defs4">
    <linearGradient
       id="linearGradient20"
       inkscape:collect="always">
      <stop
         style="stop-color:#058bce;stop-opacity:1;"
         offset="0"
         id="stop18" />
      <stop
         style="stop-color:#ffcc00;stop-opacity:1"
         offset="1"
         id="stop19" />
    </linearGradient>
    <linearGradient
       inkscape:collect="always"
       xlink:href="#linearGradient8"
       id="linearGradient13"
       gradientUnits="userSpaceOnUse"
       x1="0"
       y1="16"
       x2="32"
       y2="16"
       gradientTransform="translate(0.75)" />
    <linearGradient
       id="linearGradient8"
       inkscape:collect="always">
      <stop
         style="stop-color:#058bce;stop-opacity:1;"
         offset="0"
         id="stop5" />
      <stop
         style="stop-color:#ff66ff;stop-opacity:1;"
         offset="1"
         id="stop6" />
    </linearGradient>
    <linearGradient
       inkscape:collect="always"
       xlink:href="#linearGradient20"
       id="linearGradient5"
       gradientUnits="userSpaceOnUse"
       x1="0"
       y1="16"
       x2="32"
       y2="16" />
    <linearGradient
       inkscape:collect="always"
       xlink:href="#linearGradient8"
       id="linearGradient6"
       gradientUnits="userSpaceOnUse"
       x1="0"
       y1="16"
       x2="32"
       y2="16"
       gradientTransform="translate(0.75)" />
  </defs>
  <sodipodi:namedview
     id="namedview4"
     pagecolor="#ffffff"
     bordercolor="#000000"
     borderopacity="0.25"
     inkscape:showpageshadow="2"
     inkscape:pageopacity="0.0"
     inkscape:pagecheckerboard="0"
     inkscape:deskcolor="#d1d1d1"
     inkscape:zoom="7.9895833"
     inkscape:cx="16.396349"
     inkscape:cy="15.645372"
     inkscape:window-width="1920"
     inkscape:window-height="994"
     inkscape:window-x="0"
     inkscape:window-y="0"
     inkscape:window-maximized="1"
     inkscape:current-layer="svg4" />
  <style
     id="current-color-scheme"
     type="text/css">.ColorScheme-Text { color: #fcfcfc; } </style>
  <g
     id="g1">
    <path
       style="opacity:0.00100002;fill:url(#linearGradient5);fill-opacity:1"
       d="M 0,0 H 32.000001 V 32.000001 H 0 Z"
       id="path31" />
    <path
       d="m 20.750002,5.669887 c 0,-1.438133 -1.666644,-2.201091 -2.720654,-1.245536 L 12.155771,9.748597 C 11.976232,9.911354 11.744358,10 11.504105,10 H 6.692313 c -1.624994,0 -2.942311,1.34438 -2.942311,3.001202 v 5.9971 C 3.750002,20.65507 5.067319,22 6.692313,22 h 4.811726 c 0.24027,0 0.472175,0.08806 0.651723,0.250861 l 5.873462,5.324832 c 1.054134,0.955766 2.720778,0.192841 2.720778,-1.245404 z M 13.459101,11.243262 18.750002,6.41226 V 25.587918 L 13.459167,20.756402 C 12.920527,20.26801 12.224811,20 11.504039,20 l -3.7e-5,-8 v 0 0 0 h 1.03e-4 c 0.72072,0 1.416374,-0.268494 1.954996,-0.756738 z"
       id="path2057-367"
       style="fill:url(#linearGradient6);fill-opacity:1;stroke-width:1.3205"
       sodipodi:nodetypes="sccssssssccssccccsccccsc" />
    <path
       d="m 26.154861,8.188621 c 0.44372,-0.315569 1.06997,-0.225995 1.398758,0.200049 1.641289,2.127447 2.69638,4.761928 2.69638,7.611315 0,2.849386 -1.055091,5.483869 -2.69638,7.611344 -0.328788,0.426102 -0.955038,0.51558 -1.398758,0.200051 -0.443854,-0.315512 -0.537056,-0.916726 -0.208387,-1.342831 1.394892,-1.807991 2.203525,-4.044388 2.203525,-6.468564 0,-2.42405 -0.808632,-4.660501 -2.203525,-6.468551 -0.328669,-0.426045 -0.235467,-1.027245 0.208387,-1.342813 z"
       id="path2059-5"
       style="fill:#ff66ff;fill-opacity:0.25;stroke-width:1.30642"
       sodipodi:nodetypes="ccscccscc" />
    <path
       d="m 23.774214,11.352758 c 0.485595,-0.252398 1.09251,-0.07907 1.355428,0.38721 0.714925,1.26797 1.120517,2.719932 1.120517,4.260017 0,1.540084 -0.405592,2.992106 -1.120517,4.260068 -0.262918,0.466173 -0.869833,0.639611 -1.355428,0.387197 -0.485712,-0.252414 -0.666371,-0.835067 -0.403453,-1.301242 0.56065,-0.994294 0.879448,-2.132978 0.879448,-3.346023 0,-1.213047 -0.318798,-2.351731 -0.879448,-3.345989 -0.262918,-0.466246 -0.08227,-1.048834 0.403453,-1.301238 z"
       id="path2061-3"
       style="fill:#ff66ff;fill-opacity:0.246575;stroke-width:1.30642" />
    <path
       d="M 22.750002,15.999991 C 22.750002,17.105103 21.855104,18 20.750005,18 c -1.104168,1e-6 -1.999996,-0.894897 -1.999996,-2.000009 0,-1.104169 0.895828,-1.999991 1.999996,-1.999991 1.105099,0 1.999997,0.895822 1.999997,1.999991 z"
       id="path72-3-5"
       style="color:#e5e9ef;fill:url(#linearGradient13);fill-opacity:1;stroke-width:0.0238098" />
    <path
       d="M 5.749993,15.999991 C 5.749993,17.105103 4.855095,18 3.749996,18 2.645828,18.000001 1.75,17.105103 1.75,15.999991 1.75,14.895822 2.645828,14 3.749996,14 c 1.105099,0 1.999997,0.895822 1.999997,1.999991 z"
       id="path72-3-7-0"
       style="color:#e5e9ef;fill:#058bce;fill-opacity:1;stroke-width:0.0238098" />
  </g>
</svg>
