<?xml version="1.0" encoding="UTF-8" standalone="no"?>
<svg
   viewBox="0 0 32 32"
   width="32"
   height="32"
   version="1.1"
   id="svg5"
   sodipodi:docname="audio-volume-medium.svg"
   inkscape:version="1.3.2 (091e20ef0f, 2023-11-25)"
   xmlns:inkscape="http://www.inkscape.org/namespaces/inkscape"
   xmlns:sodipodi="http://sodipodi.sourceforge.net/DTD/sodipodi-0.dtd"
   xmlns:xlink="http://www.w3.org/1999/xlink"
   xmlns="http://www.w3.org/2000/svg"
   xmlns:svg="http://www.w3.org/2000/svg">
  <defs
     id="defs5">
    <linearGradient
       id="linearGradient10"
       inkscape:collect="always">
      <stop
         style="stop-color:#058bce;stop-opacity:0.255"
         offset="0"
         id="stop9" />
      <stop
         style="stop-color:#ff66ff;stop-opacity:1;"
         offset="1"
         id="stop10" />
    </linearGradient>
    <linearGradient
       id="linearGradient24"
       inkscape:collect="always">
      <stop
         style="stop-color:#058bce;stop-opacity:1;"
         offset="0"
         id="stop22" />
      <stop
         style="stop-color:#ffcc00;stop-opacity:1"
         offset="1"
         id="stop23" />
    </linearGradient>
    <linearGradient
       inkscape:collect="always"
       xlink:href="#linearGradient8"
       id="linearGradient17"
       gradientUnits="userSpaceOnUse"
       x1="0"
       y1="16"
       x2="32"
       y2="16"
       gradientTransform="matrix(1.0029579,0,0,1,0.74704203,0)" />
    <linearGradient
       id="linearGradient8"
       inkscape:collect="always">
      <stop
         style="stop-color:#058bce;stop-opacity:1;"
         offset="0"
         id="stop5" />
      <stop
         style="stop-color:#ff66ff;stop-opacity:1;"
         offset="1"
         id="stop6" />
    </linearGradient>
    <linearGradient
       inkscape:collect="always"
       xlink:href="#linearGradient24"
       id="linearGradient5"
       gradientUnits="userSpaceOnUse"
       x1="0"
       y1="16"
       x2="29.415947"
       y2="15.999985" />
    <linearGradient
       inkscape:collect="always"
       xlink:href="#linearGradient8"
       id="linearGradient2"
       x1="32"
       y1="16"
       x2="10.754018"
       y2="16"
       gradientUnits="userSpaceOnUse"
       gradientTransform="matrix(1.0029579,0,0,1,0.74704203,0)" />
    <linearGradient
       inkscape:collect="always"
       xlink:href="#linearGradient8"
       id="linearGradient4"
       x1="3"
       y1="15.999752"
       x2="32"
       y2="16"
       gradientUnits="userSpaceOnUse"
       gradientTransform="matrix(1.0029579,0,0,1,0.74704203,0)" />
    <linearGradient
       inkscape:collect="always"
       xlink:href="#linearGradient10"
       id="linearGradient9"
       x1="52.32077"
       y1="15.624496"
       x2="10.754018"
       y2="16"
       gradientUnits="userSpaceOnUse"
       gradientTransform="matrix(1.0029579,0,0,1,0.74704203,0)" />
  </defs>
  <sodipodi:namedview
     id="namedview5"
     pagecolor="#ffffff"
     bordercolor="#000000"
     borderopacity="0.25"
     inkscape:showpageshadow="2"
     inkscape:pageopacity="0.0"
     inkscape:pagecheckerboard="0"
     inkscape:deskcolor="#d1d1d1"
     inkscape:zoom="7.9895833"
     inkscape:cx="15.770535"
     inkscape:cy="15.895698"
     inkscape:window-width="1920"
     inkscape:window-height="994"
     inkscape:window-x="0"
     inkscape:window-y="0"
     inkscape:window-maximized="1"
     inkscape:current-layer="svg5" />
  <style
     id="current-color-scheme"
     type="text/css">.ColorScheme-Text { color: #fcfcfc; } </style>
  <path
     style="opacity:0.00100002;fill:url(#linearGradient5);fill-opacity:1"
     d="M 0,0 H 32.000001 V 32.000001 H 0 Z"
     id="path38" />
  <path
     d="m 20.806201,5.669887 c 0,-1.438133 -1.671575,-2.201091 -2.728701,-1.245536 L 12.186549,9.748597 C 12.006479,9.911354 11.773918,10 11.532954,10 H 6.7069302 c -1.6298008,0 -2.9510143,1.34438 -2.9510143,3.001202 v 5.9971 C 3.7559159,20.65507 5.0771294,22 6.7069302,22 h 4.8259578 c 0.240982,0 0.473572,0.08806 0.653651,0.250861 l 5.890836,5.324832 c 1.057253,0.955766 2.728826,0.192841 2.728826,-1.245404 z m -7.312466,5.573375 5.30655,-4.831002 V 25.587918 L 13.4938,20.756402 C 12.953567,20.26801 12.255792,20 11.532888,20 l -3.6e-5,-8 v 0 0 0 h 1.02e-4 c 0.722852,0 1.420563,-0.268494 1.960781,-0.756738 z"
     id="path2057-6"
     style="fill:url(#linearGradient17);fill-opacity:1;stroke-width:1.32245"
     sodipodi:nodetypes="sccssssssccssccccsccccsc" />
  <path
     d="M 26.227048,8.188621 C 26.67208,7.873052 27.300183,7.962626 27.629944,8.38867 29.276089,10.516117 30.25,13.150598 30.25,15.999985 c 0,2.849386 -0.973912,5.483869 -2.620056,7.611344 -0.32976,0.426102 -0.957862,0.51558 -1.402896,0.200051 -0.445168,-0.315512 -0.538644,-0.916726 -0.209002,-1.342831 1.399017,-1.807991 2.210042,-4.044388 2.210042,-6.468564 0,-2.42405 -0.811024,-4.660501 -2.210042,-6.468551 -0.329642,-0.426045 -0.236164,-1.027245 0.209002,-1.342813 z"
     id="path2059-2"
     style="opacity:0.775938;fill:url(#linearGradient9);fill-opacity:1;stroke-width:1.30835"
     sodipodi:nodetypes="ccscccssc" />
  <path
     d="m 23.83936,11.352758 c 0.487031,-0.252398 1.095741,-0.07907 1.359437,0.38721 0.717039,1.26797 1.123831,2.719932 1.123831,4.260017 0,1.540084 -0.406792,2.992106 -1.123831,4.260068 -0.263696,0.466173 -0.872406,0.639611 -1.359437,0.387197 -0.48715,-0.252414 -0.668343,-0.835067 -0.404647,-1.301242 0.562308,-0.994294 0.88205,-2.132978 0.88205,-3.346023 0,-1.213047 -0.319742,-2.351731 -0.88205,-3.345989 -0.263695,-0.466246 -0.08251,-1.048834 0.404647,-1.301238 z"
     id="path2061-91"
     style="fill:url(#linearGradient4);fill-opacity:1;stroke-width:1.30835" />
  <path
     d="M 22.812117,15.999991 C 22.812117,17.105103 21.914571,18 20.806204,18 c -1.107435,1e-6 -2.005912,-0.894897 -2.005912,-2.000009 C 18.800292,14.895822 19.69877,14 20.806204,14 c 1.108367,0 2.005913,0.895822 2.005913,1.999991 z"
     id="path72-3-2"
     style="color:#e5e9ef;fill:url(#linearGradient2);fill-opacity:1;stroke-width:0.023845" />
  <path
     d="M 5.7618247,15.999991 C 5.7618247,17.105103 4.8642797,18 3.7559119,18 2.6484778,18.000001 1.75,17.105103 1.75,15.999991 1.75,14.895822 2.6484778,14 3.7559119,14 c 1.1083678,0 2.0059128,0.895822 2.0059128,1.999991 z"
     id="path72-3-7-0-9"
     style="color:#e5e9ef;fill:#058bce;fill-opacity:1;stroke-width:0.023845" />
</svg>
