<?xml version="1.0" encoding="UTF-8" standalone="no"?>
<svg
   width="22"
   height="22"
   version="1.1"
   id="svg2"
   sodipodi:docname="notifications-disabled.svg"
   inkscape:version="1.3.1 (91b66b0783, 2023-11-16)"
   xmlns:inkscape="http://www.inkscape.org/namespaces/inkscape"
   xmlns:sodipodi="http://sodipodi.sourceforge.net/DTD/sodipodi-0.dtd"
   xmlns:xlink="http://www.w3.org/1999/xlink"
   xmlns="http://www.w3.org/2000/svg"
   xmlns:svg="http://www.w3.org/2000/svg">
  <defs
     id="defs2">
    <linearGradient
       inkscape:collect="always"
       xlink:href="#linearGradient3"
       id="linearGradient4"
       x1="208.82494"
       y1="670.24695"
       x2="232.84207"
       y2="646.24548"
       gradientUnits="userSpaceOnUse"
       gradientTransform="matrix(0.74998065,0,0,0.74998065,-154.62085,-482.67075)" />
    <linearGradient
       id="linearGradient3"
       inkscape:collect="always">
      <stop
         style="stop-color:#c83771;stop-opacity:1"
         offset="0"
         id="stop3" />
      <stop
         style="stop-color:#de87aa;stop-opacity:1"
         offset="1"
         id="stop4" />
    </linearGradient>
  </defs>
  <sodipodi:namedview
     id="namedview2"
     pagecolor="#ffffff"
     bordercolor="#000000"
     borderopacity="0.25"
     inkscape:showpageshadow="2"
     inkscape:pageopacity="0.0"
     inkscape:pagecheckerboard="0"
     inkscape:deskcolor="#d1d1d1"
     inkscape:zoom="17.431818"
     inkscape:cx="10.211213"
     inkscape:cy="2.0365059"
     inkscape:window-width="1920"
     inkscape:window-height="994"
     inkscape:window-x="0"
     inkscape:window-y="0"
     inkscape:window-maximized="1"
     inkscape:current-layer="svg2" />
  <style
     type="text/css"
     id="style1">.ColorScheme-Text {
            color:#d8dee9;
        }
        .ColorScheme-NegativeText {
            color:#bf616a;
        }</style>
  <path
     d="m -20.151239,2.2402464 15.2930004,15.2929996 0.70703,-0.70703 L -19.444209,1.5332164 Z"
     fill="#bf616a"
     id="path1" />
  <path
     class="ColorScheme-Text"
     d="m -12.151239,1.5332464 a 1,1 0 0 0 -1,1 1,1 0 0 0 0.0098,0.12891 4,4 0 0 0 -2.2402,1.5195 l 0.7168,0.7168 a 3,3 0 0 1 2.5137,-1.3652 3,3 0 0 1 3.0000004,3 c 0,3 0.58594,3.9999996 2.5859,5.9999996 h -0.46484 l 1,1 h 0.87891 v -1 c -2,-2 -3,-2.9999996 -3,-5.9999996 a 4,4 0 0 0 -3.0098004,-3.8711 1,1 0 0 0 0.0098,-0.12891 1,1 0 0 0 -1,-1 z m -4.0527,6.0684 c -0.22536,2.2047 -1.2061,3.1904996 -2.9473,4.9315996 v 1 h 8.8789 l -1,-1 h -6.4648 c 1.4796,-1.4796 2.1822,-2.4159 2.4492,-4.0155996 z m 2.3223,6.9315996 a 2,2 0 0 0 -0.26953,1 2,2 0 0 0 2,2 2,2 0 0 0 2,-2 2,2 0 0 0 -0.27148,-1 z"
     fill="currentColor"
     fill-rule="evenodd"
     id="path2" />
  <path
     id="Path_164-5"
     data-name="Path 164"
     d="M 19.100239,14.038614 17.378912,12.891138 A 1.687554,1.687554 0 0 1 16.625145,11.484925 V 8.7508728 a 5.6251814,5.6251814 0 0 0 -3.497713,-5.2010438 2.2354469,2.2354469 0 0 0 -4.2548972,0 5.6251814,5.6251814 0 0 0 -3.4977221,5.2010438 v 2.7340522 a 1.687554,1.687554 0 0 1 -0.7515182,1.403964 l -1.7235681,1.149725 a 2.0250654,2.0250654 0 0 0 1.1250533,3.712776 h 4.7251482 a 2.250073,2.250073 0 0 0 4.5001441,0 h 4.725151 a 2.0250654,2.0250654 0 0 0 1.125051,-3.712776 z m -1.125055,2.587431 H 4.0247498 A 0.90002877,0.90002877 0 0 1 3.525225,14.972338 L 5.2476682,13.824867 A 2.8125906,2.8125906 0 0 0 6.499836,11.484925 V 8.7508728 a 4.5001473,4.5001473 0 0 1 9.000294,0 v 2.7340522 a 2.8125906,2.8125906 0 0 0 1.252165,2.339942 l 1.72357,1.148596 a 0.90002877,0.90002877 0 0 1 -0.500681,1.652582 z m -6.975227,2.24994 a 1.1250365,1.1250365 0 0 1 -1.1250433,-1.12497 h 2.2500533 a 1.1250365,1.1250365 0 0 1 -1.125044,1.12497 z M 11.562483,5.9380695 a 0.56251811,0.56251811 0 0 1 -0.562526,0.5624864 2.2500721,2.2500721 0 0 0 -2.2500443,2.2499425 0.56252673,0.56252673 0 0 1 -1.1250533,0 3.3751088,3.3751088 0 0 1 3.3750976,-3.3749146 0.56251811,0.56251811 0 0 1 0.562526,0.5624857 z"
     style="fill:url(#linearGradient4);fill-opacity:1;stroke-width:1.12506" />
</svg>
