<?xml version="1.0" encoding="UTF-8" standalone="no"?>
<svg
   viewBox="0 0 22 22"
   version="1.1"
   id="svg1"
   sodipodi:docname="system-search.svg"
   inkscape:version="1.3.2 (091e20ef0f, 2023-11-25)"
   width="22"
   height="22"
   xmlns:inkscape="http://www.inkscape.org/namespaces/inkscape"
   xmlns:sodipodi="http://sodipodi.sourceforge.net/DTD/sodipodi-0.dtd"
   xmlns="http://www.w3.org/2000/svg"
   xmlns:svg="http://www.w3.org/2000/svg">
  <sodipodi:namedview
     id="namedview1"
     pagecolor="#ffffff"
     bordercolor="#000000"
     borderopacity="0.25"
     inkscape:showpageshadow="2"
     inkscape:pageopacity="0.0"
     inkscape:pagecheckerboard="0"
     inkscape:deskcolor="#d1d1d1"
     inkscape:zoom="11.984375"
     inkscape:cx="9.095176"
     inkscape:cy="-0.37548892"
     inkscape:window-width="1920"
     inkscape:window-height="994"
     inkscape:window-x="0"
     inkscape:window-y="0"
     inkscape:window-maximized="1"
     inkscape:current-layer="svg1" />
  <defs
     id="defs1">
    <style
       type="text/css"
       id="style1">.ColorScheme-Text {
        color:#d8dee9;
      }</style>
  </defs>
  <path
     d="m 13.25835,3 c -3.17128,3.082e-4 -5.7414276,2.570329 -5.7417377,5.7413909 1.28e-4,1.3975661 0.5003708,2.6774971 1.3302935,3.6730321 L 7.669028,13.592242 c -0.0048,0.0046 -0.00604,0.01002 -0.0099,0.01478 -0.5813091,-0.274861 -1.2931285,-0.18686 -1.7726861,0.292605 l -2.4284402,2.427345 c -0.6106689,0.610655 -0.6106689,1.603565 0,2.214192 0.6118141,0.611782 1.6024957,0.611782 2.2143021,0 l 2.4284596,-2.427326 c 0.4808052,-0.48078 0.5685669,-1.192405 0.2921403,-1.773906 0.0047,-0.0043 0.0097,-0.005 0.01422,-0.0096 l 1.1778852,-1.177737 c 0.9955821,0.829846 2.2755951,1.330035 3.6732401,1.330161 3.171278,-3.19e-4 5.741393,-2.570327 5.741704,-5.7413407 C 18.99967,5.5703225 16.429547,3.000314 13.258286,3.0000051 Z m 0,9.394959 c -2.016282,-8e-4 -3.6528638,-1.63744 -3.6538379,-3.6535434 0.00143,-2.0161622 1.6375229,-3.6527173 3.6538379,-3.6536309 2.016265,0.0011 3.65285,1.637443 3.653817,3.6536309 -0.0015,2.0161034 -1.637552,3.6526044 -3.653817,3.6535434 z"
     id="path2-3-6"
     style="fill:#00ccff;fill-opacity:1;stroke-width:0.0312509" />
</svg>
