<?xml version="1.0" encoding="UTF-8" standalone="no"?>
<svg
   version="1.1"
   viewBox="0 0 22 22"
   id="svg1"
   sodipodi:docname="system-save-session.svg"
   inkscape:version="1.3.2 (091e20ef0f, 2023-11-25)"
   xmlns:inkscape="http://www.inkscape.org/namespaces/inkscape"
   xmlns:sodipodi="http://sodipodi.sourceforge.net/DTD/sodipodi-0.dtd"
   xmlns="http://www.w3.org/2000/svg"
   xmlns:svg="http://www.w3.org/2000/svg">
  <sodipodi:namedview
     id="namedview1"
     pagecolor="#ffffff"
     bordercolor="#000000"
     borderopacity="0.25"
     inkscape:showpageshadow="2"
     inkscape:pageopacity="0.0"
     inkscape:pagecheckerboard="0"
     inkscape:deskcolor="#d1d1d1"
     inkscape:zoom="34.863636"
     inkscape:cx="11.014342"
     inkscape:cy="6.4106911"
     inkscape:window-width="1920"
     inkscape:window-height="994"
     inkscape:window-x="0"
     inkscape:window-y="0"
     inkscape:window-maximized="1"
     inkscape:current-layer="svg1" />
  <defs
     id="defs1">
    <style
       type="text/css"
       id="style1">.ColorScheme-Text {
        color:#d8dee9;
      }</style>
  </defs>
  <path
     d="M 3.5,1 C 2.115,1 1,2.115 1,3.5 v 15 C 1,19.885 2.115,21 3.5,21 h 15 C 19.885,21 21,19.885 21,18.5 V 6 L 16,1 Z m 0,1.25 H 6 V 6 c 0,1.385 1.115,2.5 2.5,2.5 h 5 C 14.885,8.5 16,7.385 16,6 V 2.7676241 l 3.75,3.75 V 18.5 c 0,0.692487 -0.557513,1.25 -1.25,1.25 v -2.5 c 0,-1.385 -1.115,-2.5 -2.5,-2.5 H 6 c -1.385,0 -2.5,1.115 -2.5,2.5 v 2.5 C 2.8075,19.75 2.25,19.192487 2.25,18.5 V 3.5 C 2.25,2.8075 2.8075,2.25 3.5,2.25 Z m 3.75,0 H 11 v 5 H 8.5 C 7.8075,7.25 7.25,6.6925 7.25,6 Z M 6,16 h 10 c 0.692513,0 1.26638,0.557677 1.25,1.25 v 2.5 H 4.75 v -2.5 C 4.75,16.557513 5.3075,16 6,16 Z"
     id="path1"
     style="stroke-width:1.25;fill:#00ccff" />
</svg>
