<?xml version="1.0" encoding="UTF-8" standalone="no"?>
<svg
   viewBox="0 0 22 22"
   version="1.1"
   id="svg1"
   sodipodi:docname="system-search-symbolic.svg"
   inkscape:version="1.3.2 (091e20ef0f, 2023-11-25)"
   width="22"
   height="22"
   xmlns:inkscape="http://www.inkscape.org/namespaces/inkscape"
   xmlns:sodipodi="http://sodipodi.sourceforge.net/DTD/sodipodi-0.dtd"
   xmlns="http://www.w3.org/2000/svg"
   xmlns:svg="http://www.w3.org/2000/svg">
  <sodipodi:namedview
     id="namedview1"
     pagecolor="#ffffff"
     bordercolor="#000000"
     borderopacity="0.25"
     inkscape:showpageshadow="2"
     inkscape:pageopacity="0.0"
     inkscape:pagecheckerboard="0"
     inkscape:deskcolor="#d1d1d1"
     inkscape:zoom="11.984375"
     inkscape:cx="9.095176"
     inkscape:cy="-0.37548892"
     inkscape:window-width="1920"
     inkscape:window-height="994"
     inkscape:window-x="0"
     inkscape:window-y="0"
     inkscape:window-maximized="1"
     inkscape:current-layer="svg1" />
  <defs
     id="defs1">
    <style
       type="text/css"
       id="style1">.ColorScheme-Text {
        color:#d8dee9;
      }</style>
  </defs>
  <path
     d="m 13.258331,3 c -3.171275,3.079e-4 -5.7414177,2.570324 -5.7417276,5.7413797 1.28e-4,1.3975623 0.5003698,2.6774913 1.3302909,3.6730223 l -1.1778756,1.17782 c -0.0048,0.0044 -0.00606,0.01 -0.0099,0.01476 -0.5813075,-0.274847 -1.2931256,-0.186846 -1.7726825,0.292619 l -2.4284353,2.427341 c -0.6106678,0.610651 -0.6106678,1.603559 0,2.214185 0.6118125,0.611782 1.6024927,0.611782 2.2142975,0 l 2.4284549,-2.427315 c 0.4808042,-0.480778 0.5685661,-1.192404 0.29214,-1.773902 0.0047,-0.0041 0.0097,-0.0048 0.01422,-0.0097 l 1.1778824,-1.177739 c 0.9955813,0.829844 2.2755933,1.330034 3.6732353,1.330159 3.171269,-3.19e-4 5.741379,-2.570321 5.74169,-5.7413281 -2.83e-4,-3.1709857 -2.5704,-5.7409894 -5.741655,-5.7412982 z m 0,9.394942 c -2.016279,-8e-4 -3.6528578,-1.637439 -3.653832,-3.6535371 0.00142,-2.0161586 1.637521,-3.6527105 3.653832,-3.6536241 2.016261,0.00112 3.652844,1.6374395 3.653811,3.6536241 -0.0015,2.0160981 -1.63755,3.6525951 -3.653811,3.6535371 z"
     id="path2-3-6"
     style="fill:#00ccff;fill-opacity:1;stroke-width:0.0312508" />
</svg>
