<?xml version="1.0" encoding="UTF-8" standalone="no"?>
<svg
   viewBox="0 0 22 22"
   version="1.1"
   id="svg1"
   sodipodi:docname="system-lock-screen.svg"
   inkscape:version="1.3.2 (091e20ef0f, 2023-11-25)"
   xmlns:inkscape="http://www.inkscape.org/namespaces/inkscape"
   xmlns:sodipodi="http://sodipodi.sourceforge.net/DTD/sodipodi-0.dtd"
   xmlns="http://www.w3.org/2000/svg"
   xmlns:svg="http://www.w3.org/2000/svg">
  <sodipodi:namedview
     id="namedview1"
     pagecolor="#ffffff"
     bordercolor="#000000"
     borderopacity="0.25"
     inkscape:showpageshadow="2"
     inkscape:pageopacity="0.0"
     inkscape:pagecheckerboard="0"
     inkscape:deskcolor="#d1d1d1"
     inkscape:zoom="17.431818"
     inkscape:cx="12.391134"
     inkscape:cy="21.827901"
     inkscape:window-width="1920"
     inkscape:window-height="994"
     inkscape:window-x="0"
     inkscape:window-y="0"
     inkscape:window-maximized="1"
     inkscape:current-layer="svg1" />
  <defs
     id="defs1">
    <style
       type="text/css"
       id="style1">.ColorScheme-Text {
        color:#d8dee9;
      }</style>
  </defs>
  <path
     class="fil0"
     d="m 6.5023476,10.958279 c 0.95061,-0.91504 2.39843,-1.0680696 3.5292894,-0.38429 l 4.93705,-4.7523796 c 0.70529,-0.67885 1.73842,0.39433 1.03313,1.07334 l -0.30666,0.2951 0.67891,0.70533 c 0.53133,0.55196 -0.32729,1.37846 -0.85862,0.82649 l -0.6789,-0.70522 -0.27599,0.2656 0.67892,0.70526 c 0.56083,0.58265 -0.29778,1.4092096 -0.85862,0.82651 l -0.67892,-0.70523 -2.63717,2.5385096 c 0.67087,1.12651 0.46166,2.62774 -0.48896,3.54274 -1.1652598,1.12166 -3.0309194,1.08614 -4.1525994,-0.079 -1.12168,-1.1653 -1.08612,-3.031 0.0791,-4.15265 z m 1.03313,1.07326 c -0.58263,0.56089 -0.59984,1.46361 -0.039,2.0462 0.56083,0.58271 1.46358,0.59986 2.0462096,0.0388 0.5826298,-0.56093 0.5998298,-1.46356 0.039,-2.04623 -0.56084,-0.5827 -1.4635796,-0.59983 -2.0462196,-0.0388 z"
     id="path1-4-2"
     style="fill:#37c8ab;fill-opacity:1;fill-rule:nonzero;stroke:#37c8ab;stroke-width:0.0425638;stroke-opacity:1;image-rendering:optimizeQuality;shape-rendering:geometricPrecision;text-rendering:geometricPrecision" />
  <path
     d="m 3.9239876,3.9383394 c -3.93022007,3.93276 -3.89806005,10.3518896 0.0965,14.2438896 3.72071,3.62524 9.7165094,3.77337 13.5996894,0.32296 3.40247,-3.02326 4.30546,-7.83996 2.39126,-11.8173496 -0.22974,-0.47734 -0.83119,-0.64121 -1.28379,-0.36634 -0.4058,0.24652 -0.54296,0.75892 -0.33896,1.18783 1.5772,3.3162796 0.76793,7.3361496 -2.15329,9.7891196 -2.96302,2.48806 -7.3592294,2.52993 -10.3666094,0.0955 -3.83555,-3.1045 -4.05533,-8.7713496 -0.65931,-12.1695396 2.47494,-2.47656 6.1914294,-3.08768 9.2912894,-1.60865 0.42613,0.20331 0.93537,0.0639 1.18037,-0.34038 l 0.002,-0.003 c 0.27395,-0.45149 0.11273,-1.05207 -0.36275,-1.2815 -3.79707,-1.83184005 -8.3605694,-1.09037005 -11.3959994,1.94696 z"
     id="path1-0-9-9-7"
     style="fill:#37c8ab;fill-opacity:1;stroke-width:0.363692" />
</svg>
