<?xml version="1.0" encoding="UTF-8" standalone="no"?>
<svg
   viewBox="0 0 22 22"
   version="1.1"
   id="svg1"
   sodipodi:docname="system-users.svg"
   inkscape:version="1.3.2 (091e20ef0f, 2023-11-25)"
   xmlns:inkscape="http://www.inkscape.org/namespaces/inkscape"
   xmlns:sodipodi="http://sodipodi.sourceforge.net/DTD/sodipodi-0.dtd"
   xmlns="http://www.w3.org/2000/svg"
   xmlns:svg="http://www.w3.org/2000/svg">
  <sodipodi:namedview
     id="namedview1"
     pagecolor="#ffffff"
     bordercolor="#000000"
     borderopacity="0.25"
     inkscape:showpageshadow="2"
     inkscape:pageopacity="0.0"
     inkscape:pagecheckerboard="0"
     inkscape:deskcolor="#d1d1d1"
     inkscape:zoom="17.431818"
     inkscape:cx="15.488918"
     inkscape:cy="9.322034"
     inkscape:window-width="1920"
     inkscape:window-height="994"
     inkscape:window-x="0"
     inkscape:window-y="0"
     inkscape:window-maximized="1"
     inkscape:current-layer="svg1" />
  <defs
     id="defs1">
    <style
       type="text/css"
       id="style1">.ColorScheme-Text {
        color:#d8dee9;
      }</style>
  </defs>
  <path
     d="m 14.75001,1 c -2.077493,0 -3.75,1.6725 -3.75,3.75 0,2.0775 1.672507,3.75 3.75,3.75 2.077493,0 3.75,-1.6725 3.75,-3.75 0,-2.0775 -1.672507,-3.75 -3.75,-3.75 z m -7.5,3.75 c -2.0775,0 -3.75,1.6725 -3.75,3.75 0,2.077493 1.6725,3.75 3.75,3.75 2.077503,0 3.75,-1.672507 3.75,-3.75 0,-2.0775 -1.672497,-3.75 -3.75,-3.75 z m 7.5,5 c -0.807937,0 -1.57,0.167693 -2.273,0.451663 l 0.568842,1.142567 C 13.58063,11.1436 14.143073,11 14.74999,11 c 2.77,0 5,2.23 5,5 h -4.375 l 0.625,1.25 h 5 V 16 c 0,-3.462493 -2.787507,-6.25 -6.25,-6.25 z m -7.5,3.75 c -3.4625,0 -6.25,2.787507 -6.25,6.25 V 21 h 12.5 v -1.25 c 0,-3.462493 -2.787493,-6.25 -6.25,-6.25 z m 0,1.25 c 2.77,0 5,2.23 5,5 h -10 c 0,-2.77 2.23,-5 5,-5 z"
     id="path1"
     style="stroke-width:1.25;fill:#00cccc;fill-opacity:1" />
</svg>
