<?xml version="1.0" encoding="UTF-8" standalone="no"?>
<svg
   viewBox="0 0 22 22"
   version="1.1"
   id="svg1"
   sodipodi:docname="system-suspend.svg"
   inkscape:version="1.3.1 (91b66b0783, 2023-11-16)"
   xmlns:inkscape="http://www.inkscape.org/namespaces/inkscape"
   xmlns:sodipodi="http://sodipodi.sourceforge.net/DTD/sodipodi-0.dtd"
   xmlns="http://www.w3.org/2000/svg"
   xmlns:svg="http://www.w3.org/2000/svg">
  <sodipodi:namedview
     id="namedview1"
     pagecolor="#ffffff"
     bordercolor="#000000"
     borderopacity="0.25"
     inkscape:showpageshadow="2"
     inkscape:pageopacity="0.0"
     inkscape:pagecheckerboard="0"
     inkscape:deskcolor="#d1d1d1"
     inkscape:zoom="12.326157"
     inkscape:cx="16.469042"
     inkscape:cy="3.8535937"
     inkscape:window-width="1920"
     inkscape:window-height="994"
     inkscape:window-x="0"
     inkscape:window-y="0"
     inkscape:window-maximized="1"
     inkscape:current-layer="svg1" />
  <defs
     id="defs1">
    <style
       type="text/css"
       id="style1">.ColorScheme-Text {
        color:#d8dee9;
      }</style>
  </defs>
  <path
     class="ColorScheme-Text"
     d="m 38.848589,-20.284672 a 7.995,8 0 0 0 -4.0463,6.9512 7.995,8 0 0 0 7.995,8 7.995,8 0 0 0 6.937,-4.043 7.995,8 0 0 0 0.0098,-0.0059 l -0.73782,-0.73828 a 6.9956,7 0 0 1 -0.0039,0.0059 6.9956,7 0 0 1 -3.207,0.78125 6.9956,7 0 0 1 -6.9956,-7 6.9956,7 0 0 1 0.78662,-3.2129 z m -0.74367,1.7715 a 7.995,8 0 0 0 -0.3045,2.1797 7.995,8 0 0 0 7.995,8 7.995,8 0 0 0 2.1861,-0.3125 6.9956,7 0 0 1 -5.1842,2.3125 6.9956,7 0 0 1 -6.9956,-7 6.9956,7 0 0 1 2.3032,-5.1797 z m 5.4077,3.2797 h 1.7147 l -0.03217,0.9 h -3.3973 l 1.7147,-2.7 h -1.7147 v -0.9 h 3.4294 z m 4.5732,-2.4 h 1.7165 l -0.03222,0.9 h -3.4008 l 1.7165,-2.7 h -1.7165 v -0.9 h 3.433 z"
     fill="currentColor"
     id="path1" />
  <path
     d="m 12.210973,13.587063 c -0.805945,0 -1.560758,-0.219694 -2.210136,-0.602116 h -3.12592 c -0.07892,0 -0.141809,-0.06459 -0.141809,-0.14213 0,-0.07903 0.06453,-0.142122 0.141809,-0.142122 H 9.575159 C 8.520425,11.90085 7.838956,10.633755 7.838956,9.2098245 c 0,-1.046009 0.374411,-2.058177 1.053183,-2.850774 0.449015,-0.522905 1.012194,-0.93026 1.638327,-1.192432 -2.997189,0.240159 -5.363841,2.761422 -5.363841,5.8244495 0,3.22144 2.616754,5.842313 5.833234,5.842313 1.456967,0 2.790916,-0.537552 3.813264,-1.425351 H 9.86036 c -0.07898,0 -0.141922,-0.06453 -0.141922,-0.142132 0,-0.07907 0.06443,-0.142002 0.141922,-0.142002 h 5.25865 c 1.057539,-1.05761 1.714365,-2.519706 1.714365,-4.132598 0,-0.588873 -0.08493,-1.1602455 -0.253017,-1.7096345 -0.03669,2.3805535 -1.983442,4.3054655 -4.369121,4.3054655 z"
     id="path4-7-1"
     style="color:#d6dbf1;fill:#ffd42a;fill-opacity:1;fill-rule:nonzero;stroke:none;stroke-width:0.0302483;stroke-opacity:1"
     class="ColorScheme-Text" />
  <path
     d="m 3.923772,3.9378275 c -3.930358,3.932855 -3.8982,10.3522135 0.09648,14.2443545 3.720842,3.625363 9.71685,3.773543 13.60016,0.323017 3.402586,-3.023367 4.305613,-7.840258 2.391342,-11.8177875 -0.229753,-0.477375 -0.831217,-0.641271 -1.28384,-0.366324 -0.40581,0.246543 -0.542975,0.758903 -0.338963,1.187869 1.577243,3.3163795 0.767949,7.3363975 -2.153365,9.7893985 -2.96313,2.488133 -7.359488,2.529992 -10.36697,0.09572 C 2.032933,14.289466 1.813151,8.6223735 5.209282,5.2241045 c 2.475026,-2.476614 6.191645,-3.087802 9.291609,-1.608694 0.426153,0.203325 0.935401,0.06341 1.180409,-0.340383 l 0.002,-0.003 c 0.273622,-0.45104 0.112391,-1.051651 -0.363095,-1.281062 -3.797221,-1.831799 -8.360871,-1.090376 -11.396411,1.947079 z"
     id="path1-0-9-8-0"
     style="fill:#ffd42a;fill-opacity:1;stroke-width:0.363698" />
</svg>
