<?xml version="1.0" encoding="UTF-8" standalone="no"?>
<svg
   viewBox="0 0 22 22"
   version="1.1"
   id="svg1"
   sodipodi:docname="system-switch-user.svg"
   inkscape:version="1.3.2 (091e20ef0f, 2023-11-25)"
   xmlns:inkscape="http://www.inkscape.org/namespaces/inkscape"
   xmlns:sodipodi="http://sodipodi.sourceforge.net/DTD/sodipodi-0.dtd"
   xmlns="http://www.w3.org/2000/svg"
   xmlns:svg="http://www.w3.org/2000/svg">
  <sodipodi:namedview
     id="namedview1"
     pagecolor="#ffffff"
     bordercolor="#000000"
     borderopacity="0.25"
     inkscape:showpageshadow="2"
     inkscape:pageopacity="0.0"
     inkscape:pagecheckerboard="0"
     inkscape:deskcolor="#d1d1d1"
     inkscape:zoom="17.431818"
     inkscape:cx="13.308996"
     inkscape:cy="15.919166"
     inkscape:window-width="1920"
     inkscape:window-height="994"
     inkscape:window-x="0"
     inkscape:window-y="0"
     inkscape:window-maximized="1"
     inkscape:current-layer="svg1" />
  <defs
     id="defs1">
    <style
       type="text/css"
       id="style1">.ColorScheme-Text {
        color:#d8dee9;
      }</style>
  </defs>
  <path
     d="m 11.456743,1.0000365 c -2.3965669,0 -3.8795547,1.5211859 -4.0928901,3.3698462 V 5.5955008 L 4.772746,3.7652609 3.7500729,4.5635259 7.8407921,7.7565134 11.931509,4.5635259 10.908842,3.7652609 8.5685304,5.5955008 V 4.3698827 c 0,-1.2468064 1.2824191,-2.1654187 2.8880456,-2.1659003 1.605608,4.375e-4 3.157273,0.9193105 3.134977,2.1659003 v 0.9788096 h 1.204613 V 4.3694858 C 15.796166,2.5085454 13.853369,1 11.456812,1 Z m 3.134747,5.5526024 c -1.330616,0 -2.409217,1.0780493 -2.409217,2.4078951 0,1.329876 1.078646,2.407888 2.409217,2.407888 1.330597,0 2.4092,-1.078042 2.4092,-2.407888 0,-1.3298811 -1.078634,-2.4078951 -2.4092,-2.4078951 z M 7.3638529,8.960534 a 2.4092108,2.4078938 0 0 0 -2.4092117,2.407888 2.4092108,2.4078938 0 0 0 2.4092117,2.407901 2.4092108,2.4078938 0 0 0 2.409215,-2.407901 2.4092108,2.4078938 0 0 0 -2.409215,-2.407888 z m 7.2464241,3.611844 c -1.829552,0 -3.329769,1.4003 -3.587915,3.21682 0.702129,0.797185 1.159895,1.598965 1.159895,2.802915 h 5.33605 c 0.473671,-0.650889 0.730878,-1.443057 0.731693,-2.2574 1e-6,-2.077901 -1.628871,-3.762335 -3.639707,-3.762335 z m -0.05878,1.203945 c 1.328192,0 2.404512,1.010674 2.404512,2.257401 -5.52e-4,0.488634 -0.169449,0.963905 -0.482313,1.354439 h -3.397358 c -0.103165,-0.648344 -0.430266,-1.227908 -0.894043,-1.683599 0.170488,-1.089928 1.16076,-1.928241 2.369222,-1.928241 z M 7.3638307,14.980264 A 3.6138159,3.7623338 0 0 0 3.7500002,18.742599 3.6138159,3.7623338 0 0 0 4.4793527,21 h 5.7736713 a 3.6138159,3.7623338 0 0 0 0.72465,-2.257401 3.6138159,3.7623338 0 0 0 -3.6138211,-3.762335 z m 0,1.203946 a 2.4092108,2.7088802 0 0 1 2.4092112,2.708877 2.4092108,2.7088802 0 0 1 -0.1411671,0.902966 H 5.0957971 A 2.4092108,2.7088802 0 0 1 4.9546302,18.893087 2.4092108,2.7088802 0 0 1 7.3638398,16.18421 Z"
     id="path1"
     style="stroke-width:1.20429;fill:#ff80ff;fill-opacity:1" />
</svg>
