<?xml version="1.0" encoding="UTF-8" standalone="no"?>
<svg
   viewBox="0 0 22 22"
   version="1.1"
   id="svg1"
   sodipodi:docname="system-suspend-hibernate.svg"
   inkscape:version="1.3.2 (091e20ef0f, 2023-11-25)"
   xmlns:inkscape="http://www.inkscape.org/namespaces/inkscape"
   xmlns:sodipodi="http://sodipodi.sourceforge.net/DTD/sodipodi-0.dtd"
   xmlns="http://www.w3.org/2000/svg"
   xmlns:svg="http://www.w3.org/2000/svg">
  <sodipodi:namedview
     id="namedview1"
     pagecolor="#ffffff"
     bordercolor="#000000"
     borderopacity="0.25"
     inkscape:showpageshadow="2"
     inkscape:pageopacity="0.0"
     inkscape:pagecheckerboard="0"
     inkscape:deskcolor="#d1d1d1"
     inkscape:zoom="12.326157"
     inkscape:cx="11.763602"
     inkscape:cy="3.8535937"
     inkscape:window-width="1920"
     inkscape:window-height="994"
     inkscape:window-x="0"
     inkscape:window-y="0"
     inkscape:window-maximized="1"
     inkscape:current-layer="svg1" />
  <defs
     id="defs1">
    <style
       type="text/css"
       id="style1">.ColorScheme-Text {
        color:#d8dee9;
      }</style>
  </defs>
  <path
     d="m 7.603048,4.8769146 -0.697678,0.402995 1.325988,2.300981 -1.811316,-0.485326 -0.212351,0.779986 2.595632,0.693338 1.2653,2.1927074 H 7.538018 L 5.640053,8.8636376 5.068051,9.4356356 6.394046,10.761614 H 3.737743 v 0.806005 h 2.656303 l -1.325995,1.330314 0.572002,0.567662 1.897965,-1.897956 h 2.526275 l -1.265307,2.188385 -2.591295,0.697668 0.208001,0.779989 1.815654,-0.489661 -1.330309,2.300975 0.697661,0.402998 1.330313,-2.300981 0.485345,1.815647 0.780008,-0.208 -0.697675,-2.595618 1.499367,-2.591294 h 0.0035 l 1.499373,2.60006 -0.697665,2.591289 0.779998,0.208002 0.485324,-1.811315 1.330318,2.296647 0.697667,-0.402998 -1.32599,-2.300985 1.811324,0.485341 0.212336,-0.775665 -2.595617,-0.697681 -1.265308,-2.192703 h 2.530656 l 1.897957,1.897961 0.571997,-0.567676 -1.325988,-1.330313 h 2.656319 V 10.761712 H 15.60627 l 1.325991,-1.3259764 -0.03907,-0.04774 H 15.840336 L 14.462319,10.761677 H 11.931833 L 12.729162,9.3879956 H 11.80618 l -0.805996,1.3736814 -0.0035,-0.0035 -1.495041,-2.5912884 0.697671,-2.591297 -0.779997,-0.212331 -0.485333,1.815643 z m 8.645024,1.481952 h 1.213396 l -0.02603,0.606675 h -2.400706 l 1.213391,-1.815647 h -1.213388 v -0.602325 h 2.426669 z m -3.2327,1.616302 h 1.213389 l -0.02603,0.602341 h -2.396389 l 1.208952,-1.811314 h -1.208952 v -0.606686 h 2.422334 z"
     id="path1-0"
     style="fill:#5599ff;fill-opacity:1;stroke-width:1.10935" />
  <path
     d="m 3.924104,3.9379626 c -3.930416,3.932914 -3.898262,10.3523604 0.09637,14.2445634 3.720906,3.625405 9.716993,3.773605 13.600356,0.323011 3.402635,-3.023416 4.305665,-7.840355 2.391376,-11.8179384 -0.229757,-0.477387 -0.831232,-0.641302 -1.283869,-0.366343 -0.405823,0.246564 -0.542975,0.758909 -0.33896,1.187881 1.57727,3.3164434 0.767953,7.3365134 -2.153388,9.7895454 -2.96318,2.488167 -7.359593,2.530032 -10.367115,0.09567 C 2.03314,14.289707 1.813356,8.6225306 5.209527,5.2242116 c 2.475063,-2.476637 6.191732,-3.087837 9.291741,-1.608706 0.426162,0.203322 0.935415,0.06341 1.180425,-0.340395 l 0.0018,-0.0022 c 0.27364,-0.451489 0.112289,-1.052107 -0.363095,-1.281528 -3.79725,-1.831847 -8.360964,-1.090389 -11.396541,1.947092 z"
     id="path1-0-9-2-6"
     style="fill:#5599ff;fill-opacity:1;stroke-width:0.363696" />
</svg>
