<?xml version="1.0" encoding="UTF-8" standalone="no"?>
<svg
   width="165"
   height="165"
   viewBox="0 0 165 165"
   fill="none"
   version="1.1"
   id="svg46"
   sodipodi:docname="folder-sign.svg"
   inkscape:version="1.3.2 (091e20ef0f, 2023-11-25)"
   xmlns:inkscape="http://www.inkscape.org/namespaces/inkscape"
   xmlns:sodipodi="http://sodipodi.sourceforge.net/DTD/sodipodi-0.dtd"
   xmlns:xlink="http://www.w3.org/1999/xlink"
   xmlns="http://www.w3.org/2000/svg"
   xmlns:svg="http://www.w3.org/2000/svg">
  <sodipodi:namedview
     id="namedview46"
     pagecolor="#ffffff"
     bordercolor="#000000"
     borderopacity="0.25"
     inkscape:showpageshadow="2"
     inkscape:pageopacity="0.0"
     inkscape:pagecheckerboard="0"
     inkscape:deskcolor="#d1d1d1"
     inkscape:zoom="1.9870466"
     inkscape:cx="8.5554108"
     inkscape:cy="98.890484"
     inkscape:window-width="1920"
     inkscape:window-height="994"
     inkscape:window-x="0"
     inkscape:window-y="0"
     inkscape:window-maximized="1"
     inkscape:current-layer="svg46" />
  <g
     filter="url(#filter0_df_77:23)"
     id="g1"
     transform="matrix(0.71428571,0,0,0.71428571,19.857143,11.142857)">
    <rect
       x="30"
       y="43"
       width="144"
       height="144"
       rx="15"
       fill="url(#paint0_linear_77:23)"
       shape-rendering="crispEdges"
       id="rect1"
       style="fill:url(#paint0_linear_77:23)" />
  </g>
  <g
     filter="url(#filter1_bdi_77:23)"
     id="g5"
     transform="matrix(0.71428571,0,0,0.71428571,19.857143,11.142857)">
    <rect
       x="4"
       y="19"
       width="155"
       height="155"
       rx="15"
       shape-rendering="crispEdges"
       id="rect4"
       style="fill:url(#linearGradient2);fill-opacity:1" />
    <rect
       x="4.5"
       y="19.5"
       width="154"
       height="154"
       rx="14.5"
       stroke="url(#paint4_linear_77:23)"
       shape-rendering="crispEdges"
       id="rect5"
       style="stroke:url(#paint4_linear_77:23)" />
  </g>
  <g
     filter="url(#filter8_d_77:23)"
     id="g12"
     transform="matrix(0.71428571,0,0,0.71428571,19.857143,11.142857)">
    <path
       d="M -186.34577,-52.570798 H -35.345767"
       stroke="url(#paint5_linear_77:23)"
       stroke-opacity="0.7"
       stroke-width="4"
       stroke-linecap="round"
       shape-rendering="crispEdges"
       id="path11"
       style="stroke:url(#paint5_linear_77:23)" />
  </g>
  <defs
     id="defs46">
    <linearGradient
       id="linearGradient1"
       inkscape:collect="always">
      <stop
         style="stop-color:#d4b2ff;stop-opacity:0.10196079;"
         offset="0"
         id="stop1" />
      <stop
         style="stop-color:#70a9ff;stop-opacity:0.80000001;"
         offset="1"
         id="stop2" />
    </linearGradient>
    <filter
       id="filter0_df_77:23"
       x="26"
       y="41"
       width="152"
       height="152"
       filterUnits="userSpaceOnUse"
       color-interpolation-filters="sRGB">
      <feFlood
         flood-opacity="0"
         result="BackgroundImageFix"
         id="feFlood12" />
      <feColorMatrix
         in="SourceAlpha"
         type="matrix"
         values="0 0 0 0 0 0 0 0 0 0 0 0 0 0 0 0 0 0 127 0"
         result="hardAlpha"
         id="feColorMatrix12" />
      <feOffset
         dy="2"
         id="feOffset12" />
      <feGaussianBlur
         stdDeviation="2"
         id="feGaussianBlur12" />
      <feComposite
         in2="hardAlpha"
         operator="out"
         id="feComposite12" />
      <feColorMatrix
         type="matrix"
         values="0 0 0 0 0.298039 0 0 0 0 0.454902 0 0 0 0 1 0 0 0 0.25 0"
         id="feColorMatrix13" />
      <feBlend
         mode="normal"
         in2="BackgroundImageFix"
         result="effect1_dropShadow_77:23"
         id="feBlend13" />
      <feBlend
         mode="normal"
         in="SourceGraphic"
         in2="effect1_dropShadow_77:23"
         result="shape"
         id="feBlend14" />
      <feGaussianBlur
         stdDeviation="0.5"
         result="effect2_foregroundBlur_77:23"
         id="feGaussianBlur14" />
    </filter>
    <filter
       id="filter1_bdi_77:23"
       x="-4"
       y="11"
       width="171"
       height="171"
       filterUnits="userSpaceOnUse"
       color-interpolation-filters="sRGB">
      <feFlood
         flood-opacity="0"
         result="BackgroundImageFix"
         id="feFlood14" />
      <feGaussianBlur
         in="BackgroundImage"
         stdDeviation="4"
         id="feGaussianBlur15" />
      <feComposite
         in2="SourceAlpha"
         operator="in"
         result="effect1_backgroundBlur_77:23"
         id="feComposite15" />
      <feColorMatrix
         in="SourceAlpha"
         type="matrix"
         values="0 0 0 0 0 0 0 0 0 0 0 0 0 0 0 0 0 0 127 0"
         result="hardAlpha"
         id="feColorMatrix15" />
      <feOffset
         dy="2"
         id="feOffset15" />
      <feGaussianBlur
         stdDeviation="2"
         id="feGaussianBlur16" />
      <feComposite
         in2="hardAlpha"
         operator="out"
         id="feComposite16" />
      <feColorMatrix
         type="matrix"
         values="0 0 0 0 0.298039 0 0 0 0 0.454902 0 0 0 0 1 0 0 0 0.25 0"
         id="feColorMatrix16" />
      <feBlend
         mode="normal"
         in2="effect1_backgroundBlur_77:23"
         result="effect2_dropShadow_77:23"
         id="feBlend16" />
      <feBlend
         mode="normal"
         in="SourceGraphic"
         in2="effect2_dropShadow_77:23"
         result="shape"
         id="feBlend17" />
      <feColorMatrix
         in="SourceAlpha"
         type="matrix"
         values="0 0 0 0 0 0 0 0 0 0 0 0 0 0 0 0 0 0 127 0"
         result="hardAlpha"
         id="feColorMatrix17" />
      <feOffset
         dy="4"
         id="feOffset17" />
      <feGaussianBlur
         stdDeviation="5"
         id="feGaussianBlur17" />
      <feComposite
         in2="hardAlpha"
         operator="arithmetic"
         k2="-1"
         k3="1"
         id="feComposite17"
         k1="0"
         k4="0" />
      <feColorMatrix
         type="matrix"
         values="0 0 0 0 0.298039 0 0 0 0 0.454902 0 0 0 0 1 0 0 0 0.25 0"
         id="feColorMatrix18" />
      <feBlend
         mode="normal"
         in2="shape"
         result="effect3_innerShadow_77:23"
         id="feBlend18" />
    </filter>
    <filter
       id="filter2_d_77:23"
       x="27"
       y="80"
       width="30"
       height="30"
       filterUnits="userSpaceOnUse"
       color-interpolation-filters="sRGB">
      <feFlood
         flood-opacity="0"
         result="BackgroundImageFix"
         id="feFlood18" />
      <feColorMatrix
         in="SourceAlpha"
         type="matrix"
         values="0 0 0 0 0 0 0 0 0 0 0 0 0 0 0 0 0 0 127 0"
         result="hardAlpha"
         id="feColorMatrix19" />
      <feOffset
         dy="2"
         id="feOffset19" />
      <feGaussianBlur
         stdDeviation="2"
         id="feGaussianBlur19" />
      <feComposite
         in2="hardAlpha"
         operator="out"
         id="feComposite19" />
      <feColorMatrix
         type="matrix"
         values="0 0 0 0 0.298039 0 0 0 0 0.454902 0 0 0 0 1 0 0 0 0.25 0"
         id="feColorMatrix20" />
      <feBlend
         mode="normal"
         in2="BackgroundImageFix"
         result="effect1_dropShadow_77:23"
         id="feBlend20" />
      <feBlend
         mode="normal"
         in="SourceGraphic"
         in2="effect1_dropShadow_77:23"
         result="shape"
         id="feBlend21" />
    </filter>
    <filter
       id="filter3_d_77:23"
       x="27"
       y="119"
       width="30"
       height="31"
       filterUnits="userSpaceOnUse"
       color-interpolation-filters="sRGB">
      <feFlood
         flood-opacity="0"
         result="BackgroundImageFix"
         id="feFlood21" />
      <feColorMatrix
         in="SourceAlpha"
         type="matrix"
         values="0 0 0 0 0 0 0 0 0 0 0 0 0 0 0 0 0 0 127 0"
         result="hardAlpha"
         id="feColorMatrix21" />
      <feOffset
         dy="2"
         id="feOffset21" />
      <feGaussianBlur
         stdDeviation="2"
         id="feGaussianBlur21" />
      <feComposite
         in2="hardAlpha"
         operator="out"
         id="feComposite21" />
      <feColorMatrix
         type="matrix"
         values="0 0 0 0 0.298039 0 0 0 0 0.454902 0 0 0 0 1 0 0 0 0.25 0"
         id="feColorMatrix22" />
      <feBlend
         mode="normal"
         in2="BackgroundImageFix"
         result="effect1_dropShadow_77:23"
         id="feBlend22" />
      <feBlend
         mode="normal"
         in="SourceGraphic"
         in2="effect1_dropShadow_77:23"
         result="shape"
         id="feBlend23" />
    </filter>
    <filter
       id="filter4_d_77:23"
       x="67"
       y="80"
       width="30"
       height="30"
       filterUnits="userSpaceOnUse"
       color-interpolation-filters="sRGB">
      <feFlood
         flood-opacity="0"
         result="BackgroundImageFix"
         id="feFlood23" />
      <feColorMatrix
         in="SourceAlpha"
         type="matrix"
         values="0 0 0 0 0 0 0 0 0 0 0 0 0 0 0 0 0 0 127 0"
         result="hardAlpha"
         id="feColorMatrix23" />
      <feOffset
         dy="2"
         id="feOffset23" />
      <feGaussianBlur
         stdDeviation="2"
         id="feGaussianBlur23" />
      <feComposite
         in2="hardAlpha"
         operator="out"
         id="feComposite23" />
      <feColorMatrix
         type="matrix"
         values="0 0 0 0 0.298039 0 0 0 0 0.454902 0 0 0 0 1 0 0 0 0.25 0"
         id="feColorMatrix24" />
      <feBlend
         mode="normal"
         in2="BackgroundImageFix"
         result="effect1_dropShadow_77:23"
         id="feBlend24" />
      <feBlend
         mode="normal"
         in="SourceGraphic"
         in2="effect1_dropShadow_77:23"
         result="shape"
         id="feBlend25" />
    </filter>
    <filter
       id="filter5_d_77:23"
       x="67"
       y="119"
       width="30"
       height="31"
       filterUnits="userSpaceOnUse"
       color-interpolation-filters="sRGB">
      <feFlood
         flood-opacity="0"
         result="BackgroundImageFix"
         id="feFlood25" />
      <feColorMatrix
         in="SourceAlpha"
         type="matrix"
         values="0 0 0 0 0 0 0 0 0 0 0 0 0 0 0 0 0 0 127 0"
         result="hardAlpha"
         id="feColorMatrix25" />
      <feOffset
         dy="2"
         id="feOffset25" />
      <feGaussianBlur
         stdDeviation="2"
         id="feGaussianBlur25" />
      <feComposite
         in2="hardAlpha"
         operator="out"
         id="feComposite25" />
      <feColorMatrix
         type="matrix"
         values="0 0 0 0 0.298039 0 0 0 0 0.454902 0 0 0 0 1 0 0 0 0.25 0"
         id="feColorMatrix26" />
      <feBlend
         mode="normal"
         in2="BackgroundImageFix"
         result="effect1_dropShadow_77:23"
         id="feBlend26" />
      <feBlend
         mode="normal"
         in="SourceGraphic"
         in2="effect1_dropShadow_77:23"
         result="shape"
         id="feBlend27" />
    </filter>
    <filter
       id="filter6_d_77:23"
       x="107"
       y="80"
       width="30"
       height="30"
       filterUnits="userSpaceOnUse"
       color-interpolation-filters="sRGB">
      <feFlood
         flood-opacity="0"
         result="BackgroundImageFix"
         id="feFlood27" />
      <feColorMatrix
         in="SourceAlpha"
         type="matrix"
         values="0 0 0 0 0 0 0 0 0 0 0 0 0 0 0 0 0 0 127 0"
         result="hardAlpha"
         id="feColorMatrix27" />
      <feOffset
         dy="2"
         id="feOffset27" />
      <feGaussianBlur
         stdDeviation="2"
         id="feGaussianBlur27" />
      <feComposite
         in2="hardAlpha"
         operator="out"
         id="feComposite27" />
      <feColorMatrix
         type="matrix"
         values="0 0 0 0 0.298039 0 0 0 0 0.454902 0 0 0 0 1 0 0 0 0.25 0"
         id="feColorMatrix28" />
      <feBlend
         mode="normal"
         in2="BackgroundImageFix"
         result="effect1_dropShadow_77:23"
         id="feBlend28" />
      <feBlend
         mode="normal"
         in="SourceGraphic"
         in2="effect1_dropShadow_77:23"
         result="shape"
         id="feBlend29" />
    </filter>
    <filter
       id="filter7_d_77:23"
       x="107"
       y="119"
       width="30"
       height="31"
       filterUnits="userSpaceOnUse"
       color-interpolation-filters="sRGB">
      <feFlood
         flood-opacity="0"
         result="BackgroundImageFix"
         id="feFlood29" />
      <feColorMatrix
         in="SourceAlpha"
         type="matrix"
         values="0 0 0 0 0 0 0 0 0 0 0 0 0 0 0 0 0 0 127 0"
         result="hardAlpha"
         id="feColorMatrix29" />
      <feOffset
         dy="2"
         id="feOffset29" />
      <feGaussianBlur
         stdDeviation="2"
         id="feGaussianBlur29" />
      <feComposite
         in2="hardAlpha"
         operator="out"
         id="feComposite29" />
      <feColorMatrix
         type="matrix"
         values="0 0 0 0 0.298039 0 0 0 0 0.454902 0 0 0 0 1 0 0 0 0.25 0"
         id="feColorMatrix30" />
      <feBlend
         mode="normal"
         in2="BackgroundImageFix"
         result="effect1_dropShadow_77:23"
         id="feBlend30" />
      <feBlend
         mode="normal"
         in="SourceGraphic"
         in2="effect1_dropShadow_77:23"
         result="shape"
         id="feBlend31" />
    </filter>
    <filter
       id="filter8_d_77:23"
       x="0"
       y="47"
       width="163"
       height="12"
       filterUnits="userSpaceOnUse"
       color-interpolation-filters="sRGB">
      <feFlood
         flood-opacity="0"
         result="BackgroundImageFix"
         id="feFlood31" />
      <feColorMatrix
         in="SourceAlpha"
         type="matrix"
         values="0 0 0 0 0 0 0 0 0 0 0 0 0 0 0 0 0 0 127 0"
         result="hardAlpha"
         id="feColorMatrix31" />
      <feOffset
         dy="2"
         id="feOffset31" />
      <feGaussianBlur
         stdDeviation="2"
         id="feGaussianBlur31" />
      <feComposite
         in2="hardAlpha"
         operator="out"
         id="feComposite31" />
      <feColorMatrix
         type="matrix"
         values="0 0 0 0 0.298039 0 0 0 0 0.454902 0 0 0 0 1 0 0 0 0.25 0"
         id="feColorMatrix32" />
      <feBlend
         mode="normal"
         in2="BackgroundImageFix"
         result="effect1_dropShadow_77:23"
         id="feBlend32" />
      <feBlend
         mode="normal"
         in="SourceGraphic"
         in2="effect1_dropShadow_77:23"
         result="shape"
         id="feBlend33" />
    </filter>
    <linearGradient
       id="paint0_linear_77:23"
       x1="43.2994"
       y1="54.006401"
       x2="168.955"
       y2="183.78999"
       gradientUnits="userSpaceOnUse">
      <stop
         stop-color="#D4B2FF"
         stop-opacity="0.1"
         id="stop33" />
      <stop
         offset="1"
         stop-color="#70A9FF"
         stop-opacity="0.8"
         id="stop34" />
    </linearGradient>
    <linearGradient
       id="paint1_linear_77:23"
       x1="43.894501"
       y1="0"
       x2="43.894501"
       y2="32.8894"
       gradientUnits="userSpaceOnUse"
       gradientTransform="translate(59.384615,-78.005215)">
      <stop
         stop-color="#FFE092"
         id="stop35" />
      <stop
         offset="0.458333"
         stop-color="#FF9820"
         id="stop36" />
      <stop
         offset="1"
         stop-color="#FF3D00"
         id="stop37" />
    </linearGradient>
    <linearGradient
       id="paint2_linear_77:23"
       x1="119.07"
       y1="0"
       x2="119.07"
       y2="32.8894"
       gradientUnits="userSpaceOnUse"
       gradientTransform="translate(59.384615,-78.005215)">
      <stop
         stop-color="#FFE092"
         id="stop38" />
      <stop
         offset="0.458333"
         stop-color="#FF9820"
         id="stop39" />
      <stop
         offset="1"
         stop-color="#FF3D00"
         id="stop40" />
    </linearGradient>
    <linearGradient
       id="paint3_linear_77:23"
       x1="16.212099"
       y1="32.621201"
       x2="150.545"
       y2="168.83299"
       gradientUnits="userSpaceOnUse">
      <stop
         stop-color="#E4F9FF"
         stop-opacity="0.1"
         id="stop41" />
      <stop
         offset="1"
         stop-color="#E4F9FF"
         stop-opacity="0.8"
         id="stop42" />
    </linearGradient>
    <linearGradient
       id="paint4_linear_77:23"
       x1="15.2727"
       y1="23.227301"
       x2="159"
       y2="178.22701"
       gradientUnits="userSpaceOnUse">
      <stop
         stop-color="#E4F9FF"
         stop-opacity="0.1"
         id="stop43" />
      <stop
         offset="1"
         stop-color="#E4F9FF"
         stop-opacity="0.8"
         id="stop44" />
    </linearGradient>
    <linearGradient
       id="paint5_linear_77:23"
       x1="22.882"
       y1="51"
       x2="145.276"
       y2="51"
       gradientUnits="userSpaceOnUse"
       gradientTransform="translate(-192.34577,-103.5708)">
      <stop
         stop-color="#70A9FF"
         id="stop45" />
      <stop
         offset="1"
         stop-color="#4C74FF"
         id="stop46" />
    </linearGradient>
    <linearGradient
       inkscape:collect="always"
       xlink:href="#linearGradient1"
       id="linearGradient2"
       x1="18.044294"
       y1="25.667908"
       x2="151.06192"
       y2="164.27899"
       gradientUnits="userSpaceOnUse" />
    <filter
       inkscape:collect="always"
       style="color-interpolation-filters:sRGB"
       id="filter1"
       x="-0.14943946"
       y="-0.10031679"
       width="1.2988789"
       height="1.2006336">
      <feGaussianBlur
         inkscape:collect="always"
         stdDeviation="0.83597306"
         id="feGaussianBlur1" />
    </filter>
  </defs>
  <path
     style="color:#232629;fill:#ffffff;fill-opacity:0.55665;stroke:none;stroke-width:0.62679;filter:url(#filter1)"
     d="m -36.395525,103.09233 c -0.0881,-0.002 -0.17761,0.024 -0.26227,0.0761 -0.0459,0.0302 -0.24196,0.26636 -0.43516,0.5233 l -0.35183,0.47193 -0.12739,-0.0873 c -0.17844,-0.1174 -0.35055,-0.14332 -0.51116,-0.0706 -0.11097,0.0499 -0.37108,0.38482 -2.07759,2.64836 -1.07699,1.4269 -1.95271,2.6056 -1.95013,2.6238 0.003,0.0148 0.43938,0.35582 0.96832,0.752 l 0.96703,0.72501 1.27236,-1.69098 c 0.70023,-0.9302 1.28286,-1.6831 1.29682,-1.67266 0.0459,0.033 0.12772,0.76417 0.1115,0.99897 -0.01,0.1281 -0.0538,0.3583 -0.10421,0.5111 -0.0889,0.27304 -0.0981,0.28905 -1.67549,2.39154 -0.87243,1.16225 -1.59883,2.14955 -1.61181,2.18858 -0.0364,0.10754 0.007,0.30881 0.0862,0.42424 0.13648,0.19458 0.47399,0.25604 0.66554,0.11734 0.13236,-0.0962 3.25671,-4.29158 3.35608,-4.51035 0.29018,-0.62406 0.35029,-1.42311 0.16666,-2.20945 -0.0718,-0.31203 -0.16739,-0.612 -0.25987,-0.82522 -0.0281,-0.0572 0.017,-0.13276 0.31018,-0.52444 0.2761,-0.37397 0.33939,-0.47918 0.34439,-0.57586 0.0106,-0.20613 -0.0514,-0.32103 -0.25497,-0.47805 l -0.18873,-0.14689 0.3751,-0.50253 c 0.30737,-0.41554 0.37393,-0.52416 0.37871,-0.62107 0.0132,-0.30877 -0.22494,-0.53501 -0.48787,-0.53794 z m -6.3186,6.96915 c -0.0101,0.002 -1.15675,1.52231 -2.55191,3.37576 -2.24414,2.98468 -2.5632,3.42652 -2.7702,3.80613 -0.41106,0.7559 -0.85854,1.90847 -1.15575,2.96133 -0.19275,0.67537 -0.20234,0.61423 0.0668,0.47065 0.82826,-0.44617 1.91006,-1.17046 2.53957,-1.70314 0.61557,-0.52131 0.72036,-0.65392 3.3279,-4.11792 l 2.50783,-3.33534 -0.97446,-0.72997 c -0.53593,-0.40143 -0.97996,-0.7288 -0.98916,-0.72749 z m 0.28196,7.7248 c -0.12326,-0.01 -0.25006,-0.005 -0.33227,0.0125 v 0.002 c -0.38967,0.0824 -0.82361,0.41884 -1.03322,0.80692 -0.0556,0.10087 -0.14642,0.32918 -0.20225,0.50129 -0.0512,0.17527 -0.10167,0.32155 -0.10544,0.32522 -0.0301,0.0365 -0.77539,0.21592 -1.21347,0.29101 -1.02971,0.17968 -1.31099,0.24664 -1.41207,0.3399 -0.19831,0.18282 -0.0454,0.36694 0.23658,0.28492 0.074,-0.0236 0.39303,-0.0861 0.69993,-0.13817 0.30748,-0.0515 0.77518,-0.14964 1.04067,-0.20905 0.26614,-0.0641 0.49126,-0.10548 0.50254,-0.094 0.0104,0.0106 -0.0321,0.22396 -0.10416,0.47428 l -0.12758,0.44874 -0.2818,0.12346 c -0.15377,0.0681 -0.3742,0.18282 -0.49031,0.26166 -0.3521,0.23164 -0.42008,0.52261 -0.17279,0.70918 0.13487,0.10081 0.50933,0.097 0.7415,-0.006 0.20582,-0.0932 0.32164,-0.22375 0.483,-0.56366 0.0863,-0.17589 0.15375,-0.26865 0.20582,-0.27998 0.0422,-0.011 0.4133,-0.0865 0.82496,-0.17239 0.41229,-0.0824 0.78641,-0.16123 0.83474,-0.17233 0.078,-0.0181 0.0868,-0.0112 0.0646,0.0598 -0.0144,0.0454 -0.0835,0.17638 -0.15444,0.2922 -0.0707,0.11584 -0.12746,0.25355 -0.12746,0.30929 0,0.11579 0.098,0.23177 0.1765,0.20174 0.03,-0.0104 0.0703,-0.0229 0.0895,-0.0229 0.0181,0 0.10166,-0.06 0.18387,-0.13449 0.15374,-0.13833 0.52465,-0.8153 0.52465,-0.95737 0,-0.0704 0.0553,-0.0889 0.0893,-0.0319 0.0109,0.018 0.0964,0.0517 0.18999,0.0737 0.1312,0.033 0.16916,0.0587 0.16916,0.11862 0,0.11581 0.19152,0.28474 0.36037,0.31789 0.13116,0.0236 0.29974,-0.006 0.47925,-0.0778 0.0645,-0.0271 0.0683,-0.0181 0.046,0.0778 -0.0144,0.0601 -0.12413,0.25088 -0.24022,0.42676 -0.24724,0.36617 -0.54663,0.94884 -0.62513,1.20674 -0.0643,0.22037 -0.0367,0.38508 0.078,0.46344 0.1048,0.068 0.27677,0.0352 0.36651,-0.0618 0.0779,-0.0862 0.50617,-0.98566 0.6631,-1.39626 0.11233,-0.28796 0.16437,-0.36665 0.41919,-0.63586 0.20965,-0.2203 0.27806,-0.27279 0.23287,-0.18707 -0.0742,0.16097 -0.0708,0.28377 0.0104,0.35828 0.17579,0.16082 0.43053,0.006 0.65212,-0.39983 0.13117,-0.23908 0.22882,-0.30945 0.71583,-0.538 l 0.25369,-0.1161 -0.0264,0.1381 c -0.0142,0.0739 -0.10153,0.288 -0.19118,0.47077 -0.17632,0.36995 -0.20907,0.60534 -0.10417,0.80691 0.0704,0.13839 0.14564,0.14291 0.49025,0.0242 0.47943,-0.1608 1.10484,-0.53174 1.26739,-0.74453 0.22087,-0.29927 0.28872,-0.58646 0.15443,-0.68353 -0.13866,-0.10067 -0.21712,-0.0598 -0.39344,0.19807 -0.23602,0.35129 -0.52776,0.62461 -0.80898,0.76302 -0.13117,0.068 -0.24731,0.11144 -0.25864,0.10028 -0.0142,-0.0145 0.28424,-0.81834 0.44492,-1.19583 0.0331,-0.0777 0.062,-0.17567 0.062,-0.21638 0,-0.10461 -0.13154,-0.22372 -0.24385,-0.22372 -0.0517,0 -0.30065,0.10031 -0.54796,0.22738 -0.51333,0.25416 -0.47924,0.27657 -0.34808,-0.20174 0.078,-0.29491 0.0516,-0.37366 -0.12748,-0.39253 -0.17252,-0.0181 -0.2396,0.037 -0.39706,0.31789 -0.10112,0.19035 -0.23549,0.34776 -0.49403,0.58697 -0.34073,0.31359 -0.35605,0.32458 -0.43512,0.26891 -0.11988,-0.0862 -0.18747,-0.0737 -0.47927,0.071 -0.28493,0.1421 -0.3789,0.16091 -0.44983,0.074 -0.0602,-0.0708 0.0337,-0.10827 0.55522,-0.2091 0.50583,-0.097 0.56875,-0.12411 0.56875,-0.22863 0,-0.1684 -0.13884,-0.32818 -0.38616,-0.43649 -0.42731,-0.19026 -0.47482,-0.20222 -0.66182,-0.15406 -0.2021,0.0515 -0.50218,0.33997 -0.543,0.51967 -0.0422,0.1871 -0.16912,0.13072 -0.16912,-0.0741 0,-0.0862 -0.10527,-0.30237 -0.16553,-0.33988 -0.12737,-0.0862 -0.33279,0.10132 -0.49022,0.44507 l -0.12385,0.2653 -0.27696,0.0598 c -0.35962,0.0778 -1.40452,0.28726 -1.54326,0.31423 -0.0897,0.0144 -0.1046,0.01 -0.0862,-0.0459 0.0142,-0.0363 0.0593,-0.20085 0.10415,-0.36924 0.11604,-0.46324 0.15055,-0.52375 0.31866,-0.5832 0.20208,-0.0706 0.88458,-0.36288 1.06026,-0.45239 0.0826,-0.0421 0.25023,-0.16791 0.37388,-0.27998 0.37833,-0.35122 0.43773,-0.67669 0.16785,-0.91573 -0.0742,-0.0641 -0.17243,-0.13044 -0.21697,-0.14927 -0.0693,-0.0271 -0.18816,-0.0451 -0.31123,-0.0505 z m -0.37755,0.4365 c 0.0514,-0.005 0.11347,-0.002 0.19122,0.006 0.19831,0.0105 0.27752,0.0299 0.33329,0.089 0.0742,0.0738 0.074,0.0774 0.0101,0.22011 -0.0459,0.0897 -0.14954,0.19473 -0.28067,0.28487 -0.22842,0.15712 -0.94453,0.44441 -0.96706,0.39245 -0.0296,-0.0862 0.19938,-0.59828 0.34563,-0.76297 0.14592,-0.16523 0.21413,-0.21868 0.3702,-0.22736 z m -1.92322,3.12876 c 0.0293,0.003 0.0295,0.0278 0.008,0.0725 -0.0498,0.0932 -0.1767,0.16075 -0.24761,0.13443 -0.0826,-0.033 -0.06,-0.0773 0.0707,-0.14544 0.0867,-0.044 0.14303,-0.0652 0.17159,-0.0634 z"
     class="ColorScheme-Text"
     id="path14466-5-6"
     transform="matrix(3.277978,0,0,3.277978,220.62008,-283.11143)" />
</svg>
