<?xml version="1.0" encoding="UTF-8" standalone="no"?>
<svg
   width="32"
   height="32"
   version="1.1"
   id="svg1"
   sodipodi:docname="user-desktop-symbolic.svg"
   inkscape:version="1.3.2 (091e20ef0f, 2023-11-25)"
   xmlns:inkscape="http://www.inkscape.org/namespaces/inkscape"
   xmlns:sodipodi="http://sodipodi.sourceforge.net/DTD/sodipodi-0.dtd"
   xmlns:xlink="http://www.w3.org/1999/xlink"
   xmlns="http://www.w3.org/2000/svg"
   xmlns:svg="http://www.w3.org/2000/svg">
  <defs
     id="defs1">
    <linearGradient
       inkscape:collect="always"
       xlink:href="#linearGradient1"
       id="linearGradient2"
       x1="1.23077"
       y1="13.5"
       x2="14.76923"
       y2="2.5"
       gradientUnits="userSpaceOnUse"
       gradientTransform="matrix(2.142046,0,0,2.1818182,-1.1363658,-1.454545)" />
    <linearGradient
       id="linearGradient1"
       inkscape:collect="always">
      <stop
         style="stop-color:#d79fe5;stop-opacity:1;"
         offset="0"
         id="stop1" />
      <stop
         style="stop-color:#46daff;stop-opacity:1;"
         offset="1"
         id="stop2" />
    </linearGradient>
  </defs>
  <sodipodi:namedview
     id="namedview1"
     pagecolor="#ffffff"
     bordercolor="#000000"
     borderopacity="0.25"
     inkscape:showpageshadow="2"
     inkscape:pageopacity="0.0"
     inkscape:pagecheckerboard="0"
     inkscape:deskcolor="#d1d1d1"
     showgrid="true"
     inkscape:zoom="8.0322911"
     inkscape:cx="9.7108034"
     inkscape:cy="15.375439"
     inkscape:window-width="1920"
     inkscape:window-height="954"
     inkscape:window-x="0"
     inkscape:window-y="40"
     inkscape:window-maximized="1"
     inkscape:current-layer="svg1">
    <inkscape:grid
       id="grid1"
       units="px"
       originx="0"
       originy="0"
       spacingx="1"
       spacingy="1"
       empcolor="#0099e5"
       empopacity="0.30196078"
       color="#0099e5"
       opacity="0.14901961"
       empspacing="5"
       dotted="false"
       gridanglex="30"
       gridanglez="30"
       visible="true" />
  </sodipodi:namedview>
  <style
     type="text/css"
     id="current-color-scheme">
        .ColorScheme-Text {
            color:#232629;
        }
        .ColorScheme-Background {
            color:#eff0f1;
        }
    </style>
  <g
     id="32-32-user-desktop">
    <path
       id="rect844"
       d="M 0,0 H 32 V 32 H 0 Z"
       fill="none" />
    <path
       d="M 5.1250012,4 C 3.1167502,4 1.5,5.646771 1.5,7.692308 V 24.307701 C 1.5,26.353236 3.1167502,28 5.1250012,28 H 26.875008 C 28.883262,28 30.5,26.353236 30.5,24.307701 V 7.692308 C 30.5,5.646771 28.883262,4 26.875008,4 Z m 0,1.846154 H 26.875008 c 1.004117,0 1.812488,0.823383 1.812488,1.846154 H 3.3125001 c 0,-1.022771 0.8083745,-1.846154 1.8125011,-1.846154 z M 3.3125001,9.538463 H 28.687496 v 14.769238 c 0,1.022758 -0.808371,1.846141 -1.812488,1.846141 H 5.1250012 c -1.0041266,0 -1.8125011,-0.823383 -1.8125011,-1.846141 z m 5.4375023,11.076921 c -1.0041262,0 -1.8125003,0.823381 -1.8125003,1.846156 0,1.02276 0.8083741,1.846161 1.8125003,1.846161 H 23.249998 c 1.00414,0 1.812505,-0.823401 1.812505,-1.846161 0,-1.022775 -0.808365,-1.846156 -1.812505,-1.846156 z"
       id="path1"
       style="fill:url(#linearGradient2);stroke-width:1.82926" />
  </g>
</svg>
