<?xml version="1.0" encoding="UTF-8" standalone="no"?>
<svg
   version="1.1"
   viewBox="0 0 64 64"
   id="svg93"
   sodipodi:docname="user-trash-full.svg"
   inkscape:version="1.2.2 (b0a8486541, 2022-12-01)"
   xmlns:inkscape="http://www.inkscape.org/namespaces/inkscape"
   xmlns:sodipodi="http://sodipodi.sourceforge.net/DTD/sodipodi-0.dtd"
   xmlns:xlink="http://www.w3.org/1999/xlink"
   xmlns="http://www.w3.org/2000/svg"
   xmlns:svg="http://www.w3.org/2000/svg"
   xmlns:rdf="http://www.w3.org/1999/02/22-rdf-syntax-ns#"
   xmlns:cc="http://creativecommons.org/ns#"
   xmlns:dc="http://purl.org/dc/elements/1.1/">
  <metadata
     id="metadata97">
    <rdf:RDF>
      <cc:Work
         rdf:about="">
        <dc:format>image/svg+xml</dc:format>
        <dc:type
           rdf:resource="http://purl.org/dc/dcmitype/StillImage" />
      </cc:Work>
    </rdf:RDF>
  </metadata>
  <sodipodi:namedview
     pagecolor="#ffffff"
     bordercolor="#666666"
     borderopacity="1"
     objecttolerance="10"
     gridtolerance="10"
     guidetolerance="10"
     inkscape:pageopacity="0"
     inkscape:pageshadow="2"
     inkscape:window-width="1920"
     inkscape:window-height="994"
     id="namedview95"
     showgrid="true"
     inkscape:zoom="8"
     inkscape:cx="13.6875"
     inkscape:cy="36.75"
     inkscape:window-x="0"
     inkscape:window-y="0"
     inkscape:window-maximized="1"
     inkscape:current-layer="svg93"
     inkscape:document-rotation="0"
     inkscape:showpageshadow="2"
     inkscape:pagecheckerboard="0"
     inkscape:deskcolor="#d1d1d1">
    <inkscape:grid
       type="xygrid"
       id="grid904" />
  </sodipodi:namedview>
  <defs
     id="defs36">
    <linearGradient
       id="r"
       x1="394.57101"
       x2="399.57101"
       y1="517.79797"
       y2="522.79797"
       gradientTransform="matrix(2,0,0,2,-769.142,-1031.596)"
       gradientUnits="userSpaceOnUse">
      <stop
         stop-color="#d4ba94"
         offset="0"
         id="stop2" />
      <stop
         stop-color="#bb9d71"
         offset="1"
         id="stop4" />
    </linearGradient>
    <linearGradient
       id="s"
       x1="390.57101"
       x2="410.57101"
       y1="521.79797"
       y2="545.79797"
       gradientTransform="matrix(2,0,0,1.8333333,-769.142,-942.62968)"
       gradientUnits="userSpaceOnUse">
      <stop
         stop-color="#bdc3c7"
         offset="0"
         id="stop7" />
      <stop
         stop-color="#8a9696"
         offset="1"
         id="stop9" />
    </linearGradient>
    <linearGradient
       id="f"
       x1="395.57101"
       x2="395.57101"
       y1="520.79797"
       y2="516.79797"
       gradientTransform="matrix(.1681316 1.9929204 -1.9929204 .1681316 1025.8878 -851.8404)"
       gradientUnits="userSpaceOnUse">
      <stop
         stop-color="#afb0b3"
         offset="0"
         id="stop12" />
      <stop
         stop-color="#bdc3c7"
         offset="1"
         id="stop14" />
    </linearGradient>
    <radialGradient
       id="v"
       cx="16"
       cy="8.5"
       r="4"
       gradientTransform="matrix(.29423026 3.4876108 -2.9893806 .25219738 76.029512 -23.917134)"
       gradientUnits="userSpaceOnUse">
      <stop
         stop-color="#4f575f"
         stop-opacity=".25"
         offset="0"
         id="stop17" />
      <stop
         stop-color="#9da5ab"
         offset="1"
         id="stop19" />
    </radialGradient>
    <linearGradient
       id="d"
       x1="412.57101"
       x2="412.57101"
       y1="522.79797"
       y2="520.79797"
       gradientTransform="matrix(.1681316 1.9929204 -1.9929204 .1681316 1025.8878 -851.8404)"
       gradientUnits="userSpaceOnUse">
      <stop
         stop-color="#9da5ab"
         offset="0"
         id="stop22" />
      <stop
         stop-color="#bdc3c7"
         offset="1"
         id="stop24" />
    </linearGradient>
    <linearGradient
       id="h"
       x1="391.57101"
       x2="394.57101"
       y1="534.79797"
       y2="534.79797"
       gradientTransform="matrix(1.33334,0,0,1.8,-498.094,-926.63634)"
       gradientUnits="userSpaceOnUse"
       xlink:href="#a" />
    <linearGradient
       id="j"
       x1="391.57101"
       x2="394.57101"
       y1="534.79797"
       y2="534.79797"
       gradientTransform="matrix(1.33334,0,0,1.7999999,-508.096,-926.63626)"
       gradientUnits="userSpaceOnUse"
       xlink:href="#a" />
    <linearGradient
       id="k"
       x1="391.57101"
       x2="394.57101"
       y1="534.79797"
       y2="534.79797"
       gradientTransform="matrix(1.33334,0,0,1.8,-486.096,-926.63634)"
       gradientUnits="userSpaceOnUse"
       xlink:href="#a" />
    <linearGradient
       id="q"
       x1="391.57101"
       x2="394.57101"
       y1="534.79797"
       y2="534.79797"
       gradientTransform="matrix(1.33334,0,0,1.8,-476.094,-926.63634)"
       gradientUnits="userSpaceOnUse"
       xlink:href="#a" />
    <radialGradient
       id="t"
       cx="20.571428"
       cy="8.5"
       r="4"
       gradientTransform="matrix(.62911132 7.4570672 -2.9893806 .25219744 63.81406 -121.1292)"
       gradientUnits="userSpaceOnUse">
      <stop
         stop-color="#4f575f"
         stop-opacity=".25098041"
         offset="0"
         id="stop31" />
      <stop
         stop-color="#8a939a"
         offset="1"
         id="stop33" />
    </radialGradient>
    <radialGradient
       id="l"
       cx="20.571428"
       cy="8.5"
       r="4"
       gradientTransform="matrix(0.62914934,7.4570641,-1.4946897,0.12610637,51.108517,-120.05735)"
       gradientUnits="userSpaceOnUse">
      <stop
         stop-color="#4f575f"
         stop-opacity=".25098041"
         offset="0"
         id="stop2-3" />
      <stop
         stop-color="#8a939a"
         offset="1"
         id="stop4-6" />
    </radialGradient>
    <radialGradient
       id="b-7"
       cx="16"
       cy="8.5"
       r="4"
       gradientTransform="matrix(0.29424808,3.4876092,-2.9893793,0.25221264,76.029326,-23.917248)"
       gradientUnits="userSpaceOnUse">
      <stop
         stop-color="#4f575f"
         stop-opacity=".25"
         offset="0"
         id="stop21" />
      <stop
         stop-color="#9da5ab"
         offset="1"
         id="stop23" />
    </radialGradient>
    <linearGradient
       id="e-5"
       x1="395.57101"
       x2="395.57101"
       y1="520.79797"
       y2="516.79797"
       gradientTransform="matrix(0.16814176,1.9929196,-1.9929196,0.16814176,1025.8833,-851.84537)"
       gradientUnits="userSpaceOnUse">
      <stop
         stop-color="#afb0b3"
         offset="0"
         id="stop31-3" />
      <stop
         stop-color="#bdc3c7"
         offset="1"
         id="stop33-5" />
    </linearGradient>
    <linearGradient
       id="c-6"
       x1="412.57101"
       x2="412.57101"
       y1="522.79797"
       y2="520.79797"
       gradientTransform="matrix(0.16814176,1.9929196,-1.9929196,0.16814176,1025.8833,-851.84537)"
       gradientUnits="userSpaceOnUse">
      <stop
         stop-color="#9da5ab"
         offset="0"
         id="stop26" />
      <stop
         stop-color="#bdc3c7"
         offset="1"
         id="stop28" />
    </linearGradient>
    <linearGradient
       id="linearGradient967"
       x1="393.57101"
       x2="396.07101"
       y1="521.79797"
       y2="524.29797"
       gradientTransform="matrix(2,0,0,2,-774.142,-1109.596)"
       gradientUnits="userSpaceOnUse"
       xlink:href="#b" />
    <linearGradient
       id="linearGradient971">
      <stop
         stop-color="#fcfcfc"
         offset="0"
         id="stop39-3" />
      <stop
         stop-color="#eff0f1"
         offset="1"
         id="stop41-5" />
    </linearGradient>
    <linearGradient
       id="linearGradient1152">
      <stop
         stop-color="#4f575f"
         stop-opacity=".4"
         offset="0"
         id="stop52-7" />
      <stop
         stop-color="#4f575f"
         stop-opacity=".6"
         offset=".5"
         id="stop54-0" />
      <stop
         stop-color="#4f575f"
         stop-opacity=".4"
         offset="1"
         id="stop56-9" />
    </linearGradient>
    <linearGradient
       id="linearGradient1154"
       x1="399.57101"
       x2="400.57101"
       y1="521.79797"
       y2="523.79797"
       gradientTransform="matrix(2,0,0,2,-769.142,-1029.596)"
       gradientUnits="userSpaceOnUse"
       xlink:href="#c" />
    <linearGradient
       id="linearGradient1158">
      <stop
         stop-color="#292c2f"
         offset="0"
         id="stop45-3" />
      <stop
         stop-color="#292c2f"
         stop-opacity="0"
         offset="1"
         id="stop47-6" />
    </linearGradient>
    <linearGradient
       id="linearGradient1160"
       x1="409.57101"
       x2="405.57101"
       y1="521.79797"
       y2="525.79797"
       gradientTransform="matrix(-2,0,0,2,849.144,-1029.596)"
       gradientUnits="userSpaceOnUse"
       xlink:href="#linearGradient971" />
    <linearGradient
       id="linearGradient1162"
       x1="407.57101"
       x2="408.57101"
       y1="521.79797"
       y2="523.79797"
       gradientTransform="matrix(2,0,0,2,-769.142,-1029.596)"
       gradientUnits="userSpaceOnUse"
       xlink:href="#c" />
    <radialGradient
       id="b-7-7"
       cx="16"
       cy="8.5"
       r="4"
       gradientTransform="matrix(0.29424808,3.4876092,-2.9893793,0.25221264,71.029326,-103.91725)"
       gradientUnits="userSpaceOnUse">
      <stop
         stop-color="#4f575f"
         stop-opacity=".25"
         offset="0"
         id="stop21-9" />
      <stop
         stop-color="#9da5ab"
         offset="1"
         id="stop23-2" />
    </radialGradient>
    <radialGradient
       id="l-0"
       cx="20.571428"
       cy="8.5"
       r="4"
       gradientTransform="matrix(0.62914934,7.4570641,-1.4946897,0.12610637,46.108517,-200.05735)"
       gradientUnits="userSpaceOnUse">
      <stop
         stop-color="#4f575f"
         stop-opacity=".25098041"
         offset="0"
         id="stop2-3-2" />
      <stop
         stop-color="#8a939a"
         offset="1"
         id="stop4-6-3" />
    </radialGradient>
    <linearGradient
       inkscape:collect="always"
       xlink:href="#linearGradient9369"
       id="linearGradient4747-2"
       x1="170.46289"
       y1="704.73242"
       x2="289.66211"
       y2="704.73242"
       gradientUnits="userSpaceOnUse"
       gradientTransform="matrix(0.33556909,0,0,0.32084917,-45.20207,-193.88033)" />
    <linearGradient
       inkscape:collect="always"
       id="linearGradient9369">
      <stop
         style="stop-color:#274268;stop-opacity:1;"
         offset="0"
         id="stop9371" />
      <stop
         id="stop9373"
         offset="0.25423759"
         style="stop-color:#b5c7e3;stop-opacity:1;" />
      <stop
         style="stop-color:#b5c8e3;stop-opacity:1;"
         offset="0.74363941"
         id="stop9375" />
      <stop
         style="stop-color:#274268;stop-opacity:1;"
         offset="1"
         id="stop9377" />
    </linearGradient>
    <linearGradient
       inkscape:collect="always"
       xlink:href="#linearGradient6462"
       id="linearGradient6468"
       x1="-8.6402893"
       y1="207.1778"
       x2="-5.0417333"
       y2="207.1778"
       gradientUnits="userSpaceOnUse" />
    <linearGradient
       inkscape:collect="always"
       id="linearGradient6462">
      <stop
         style="stop-color:#99662e;stop-opacity:1"
         offset="0"
         id="stop6464" />
      <stop
         style="stop-color:#b67937;stop-opacity:1"
         offset="1"
         id="stop6466" />
    </linearGradient>
    <clipPath
       clipPathUnits="userSpaceOnUse"
       id="clipPath6416">
      <path
         style="fill:#b0afad;fill-opacity:1;fill-rule:evenodd;stroke:none;stroke-width:0.264583px;stroke-linecap:butt;stroke-linejoin:miter;stroke-opacity:1"
         d="m -16.961681,206.64007 c -1.169364,-0.69689 -2.657645,-1.98437 -2.657645,-3.93331 0,-1.16936 0.755952,-1.71271 0.755952,-1.71271 -0.05906,0.61421 -0.708705,1.79539 0.12993,2.48047 0.200799,0.3071 0.437034,0.33073 1.110305,0.3071 0.67327,-0.0236 0.531529,0.17718 0.531529,0.17718 0,0 0.165364,-0.74414 0.330729,-0.93313 0.165364,-0.18899 0.862258,-1.70089 0.862258,-1.70089 0,0 3.319103,-1.68908 3.555338,-1.79539 0.236235,-0.1063 1.192988,-0.24805 1.192988,-0.24805 0,0 3.3899731,1.19299 3.5553381,1.35836 0.165365,0.16536 0.377976,1.26385 0.377976,1.26385 l -0.425223,1.64184 -3.0828681,1.15755 1.5709631,3.37816 -3.3545381,0.22443 c 0,0 -3.661644,-0.29529 -4.453032,-1.66546 z"
         id="path6418"
         inkscape:connector-curvature="0"
         sodipodi:nodetypes="csc" />
    </clipPath>
    <clipPath
       clipPathUnits="userSpaceOnUse"
       id="clipPath6392">
      <path
         style="fill:#b0afad;fill-opacity:1;fill-rule:evenodd;stroke:none;stroke-width:0.264583px;stroke-linecap:butt;stroke-linejoin:miter;stroke-opacity:1"
         d="m -16.961681,206.64007 c -1.169364,-0.69689 -2.657645,-1.98437 -2.657645,-3.93331 0,-1.16936 0.755952,-1.71271 0.755952,-1.71271 -0.05906,0.61421 -0.708705,1.79539 0.12993,2.48047 0.200799,0.3071 0.437034,0.33073 1.110305,0.3071 0.67327,-0.0236 0.531529,0.17718 0.531529,0.17718 0,0 0.165364,-0.74414 0.330729,-0.93313 0.165364,-0.18899 0.862258,-1.70089 0.862258,-1.70089 0,0 3.319103,-1.68908 3.555338,-1.79539 0.236235,-0.1063 1.192988,-0.24805 1.192988,-0.24805 0,0 3.3899731,1.19299 3.5553381,1.35836 0.165365,0.16536 0.377976,1.26385 0.377976,1.26385 l -0.425223,1.64184 -3.0828681,1.15755 1.5709631,3.37816 -3.3545381,0.22443 c 0,0 -3.661644,-0.29529 -4.453032,-1.66546 z"
         id="path6394"
         inkscape:connector-curvature="0"
         sodipodi:nodetypes="csc" />
    </clipPath>
    <clipPath
       clipPathUnits="userSpaceOnUse"
       id="clipPath6404">
      <path
         style="fill:#b0afad;fill-opacity:1;fill-rule:evenodd;stroke:none;stroke-width:0.264583px;stroke-linecap:butt;stroke-linejoin:miter;stroke-opacity:1"
         d="m -16.961681,206.64007 c -1.169364,-0.69689 -2.657645,-1.98437 -2.657645,-3.93331 0,-1.16936 0.755952,-1.71271 0.755952,-1.71271 -0.05906,0.61421 -0.708705,1.79539 0.12993,2.48047 0.200799,0.3071 0.437034,0.33073 1.110305,0.3071 0.67327,-0.0236 0.531529,0.17718 0.531529,0.17718 0,0 0.165364,-0.74414 0.330729,-0.93313 0.165364,-0.18899 0.862258,-1.70089 0.862258,-1.70089 0,0 3.319103,-1.68908 3.555338,-1.79539 0.236235,-0.1063 1.192988,-0.24805 1.192988,-0.24805 0,0 3.3899731,1.19299 3.5553381,1.35836 0.165365,0.16536 0.377976,1.26385 0.377976,1.26385 l -0.425223,1.64184 -3.0828681,1.15755 1.5709631,3.37816 -3.3545381,0.22443 c 0,0 -3.661644,-0.29529 -4.453032,-1.66546 z"
         id="path6406"
         inkscape:connector-curvature="0"
         sodipodi:nodetypes="csc" />
    </clipPath>
    <linearGradient
       inkscape:collect="always"
       xlink:href="#linearGradient6199"
       id="linearGradient6205"
       x1="-7.6835475"
       y1="202.90831"
       x2="-4.1512551"
       y2="205.25885"
       gradientUnits="userSpaceOnUse" />
    <linearGradient
       inkscape:collect="always"
       id="linearGradient6199">
      <stop
         style="stop-color:#77d743;stop-opacity:1;"
         offset="0"
         id="stop6201" />
      <stop
         style="stop-color:#254a12;stop-opacity:1"
         offset="1"
         id="stop6203" />
    </linearGradient>
    <linearGradient
       inkscape:collect="always"
       xlink:href="#linearGradient6207"
       id="linearGradient6213"
       x1="-9.8639336"
       y1="203.74185"
       x2="-9.9159689"
       y2="204.85217"
       gradientUnits="userSpaceOnUse" />
    <linearGradient
       inkscape:collect="always"
       id="linearGradient6207">
      <stop
         style="stop-color:#3cd0f2;stop-opacity:1;"
         offset="0"
         id="stop6209" />
      <stop
         style="stop-color:#0eacd0;stop-opacity:1"
         offset="1"
         id="stop6211" />
    </linearGradient>
    <linearGradient
       inkscape:collect="always"
       xlink:href="#linearGradient6424"
       id="linearGradient6430"
       x1="-7.61866"
       y1="205.4622"
       x2="-5.0417333"
       y2="205.4622"
       gradientUnits="userSpaceOnUse" />
    <linearGradient
       inkscape:collect="always"
       id="linearGradient6424">
      <stop
         style="stop-color:#872c1f;stop-opacity:1"
         offset="0"
         id="stop6426" />
      <stop
         style="stop-color:#bf3f2d;stop-opacity:1"
         offset="1"
         id="stop6428" />
    </linearGradient>
    <linearGradient
       inkscape:collect="always"
       xlink:href="#linearGradient6486"
       id="linearGradient6492"
       x1="-3.5789621"
       y1="206.88138"
       x2="-2.2383943"
       y2="205.53484"
       gradientUnits="userSpaceOnUse" />
    <linearGradient
       inkscape:collect="always"
       id="linearGradient6486">
      <stop
         style="stop-color:#3c4533;stop-opacity:1;"
         offset="0"
         id="stop6488" />
      <stop
         id="stop6496"
         offset="0.32423252"
         style="stop-color:#3c4533;stop-opacity:1;" />
      <stop
         id="stop6494"
         offset="0.57560378"
         style="stop-color:#414a37;stop-opacity:1" />
      <stop
         style="stop-color:#3c4533;stop-opacity:1;"
         offset="0.80511671"
         id="stop6498" />
      <stop
         style="stop-color:#3c4533;stop-opacity:1"
         offset="1"
         id="stop6490" />
    </linearGradient>
    <clipPath
       clipPathUnits="userSpaceOnUse"
       id="clipPath5626">
      <path
         style="fill:#dedede;fill-opacity:1;fill-rule:evenodd;stroke:none;stroke-width:0.264583px;stroke-linecap:butt;stroke-linejoin:miter;stroke-opacity:1"
         d="m -14.611142,203.48633 c 4.299479,1.6064 4.37035,4.31129 5.3034784,4.31129 0.9331288,0 0.8386347,0.4961 1.3229166,-0.16536 0.4842823,-0.66146 1.6063989,-1.83082 1.7245166,-2.89388 0.1181174,-1.06306 1.0276226,-0.57878 1.0158108,-0.14174 -0.011811,0.43703 -0.3071056,3.35454 -0.2007997,3.57896 0.1063059,0.22442 0.2598589,0.34254 0.354353,-0.43704 0.094494,-0.77957 0.1181174,-1.98437 0.3189171,-2.13792 0.2007993,-0.15356 1.4292223,-0.8977 1.6654573,-1.74814 0,0 0.03543,-0.42523 -0.685082,-0.67328 -0.720517,-0.24804 1.712705,-2.29148 1.712705,-2.29148 0,0 3.484468,1.6064 4.37035,2.52772 0,0 -0.337072,1.22622 0.08054,1.22622 0.417608,0 0.601356,1.08578 -0.317383,0.86862 -0.918739,-0.21716 -1.620321,-0.61806 -2.188269,0.0167 -0.567948,0.63476 -0.818513,1.23612 -1.119191,1.35305 -0.300678,0.11693 -0.701583,0.31738 -0.684878,-0.53454 0.0167,-0.85192 -0.116931,0.70158 -0.367496,0.66817 -0.250565,-0.0334 -0.150339,0.40091 -1.687139,0.45102 0,0 0.902035,0.3508 0.968853,0.88534 0.06682,0.53454 0.11693,0.55124 0.11693,0.55124 0,0 1.921,0.16705 2.004521,-0.3842 0.08352,-0.55124 0.551244,-1.30294 0.751696,-1.5535 0.200452,-0.25057 1.102487,-1.28624 1.954409,-1.1693 0,0 -1.553505,0.98555 -2.171565,2.35531 -0.618061,1.36975 4.393242,1.00226 4.393242,1.00226 0,0 2.672696,-0.70158 2.973374,-1.65373 0.300678,-0.95215 0.367495,-4.62711 -0.217157,-5.22846 -0.89971,-0.75589 -2.080885,-1.4646 -3.521919,-0.54328 -1.441034,0.92131 -0.259859,1.37016 -2.22061,-0.35435 -1.960752,-1.72452 -3.756139,-2.5041 -3.756139,-2.5041 0,0 -2.2914804,3.09468 -2.3387273,2.76395 -0.047247,-0.33073 -0.5669642,-2.05524 -0.8268229,-0.77957 0,0 -0.7559524,-0.28348 -0.6850819,0.37797 0.070871,0.66146 -1.015811,-0.7087 -1.015811,-0.7087 0,0 0.094494,1.88988 -0.3779761,2.12611 0,0 1.9843749,-0.51971 1.2520461,0.54335 -0.732329,1.06305 -1.5591519,1.13392 -2.8348214,1.20479 -1.2756736,0.0709 -2.1024966,-0.66145 -2.7403316,-0.85044 -0.637835,-0.18899 -1.157552,-0.75595 -2.326916,-0.0591 z"
         id="path5628"
         inkscape:connector-curvature="0"
         sodipodi:nodetypes="csssssscccccsssssccscsccscsc" />
    </clipPath>
    <filter
       inkscape:collect="always"
       style="color-interpolation-filters:sRGB"
       id="filter5447"
       x="-0.17320866"
       width="1.3464173"
       y="-0.12147393"
       height="1.2429479">
      <feGaussianBlur
         inkscape:collect="always"
         stdDeviation="0.18354709"
         id="feGaussianBlur5449" />
    </filter>
    <clipPath
       clipPathUnits="userSpaceOnUse"
       id="clipPath5636">
      <path
         style="fill:#dedede;fill-opacity:1;fill-rule:evenodd;stroke:none;stroke-width:0.264583px;stroke-linecap:butt;stroke-linejoin:miter;stroke-opacity:1"
         d="m -14.611142,203.48633 c 4.299479,1.6064 4.37035,4.31129 5.3034784,4.31129 0.9331288,0 0.8386347,0.4961 1.3229166,-0.16536 0.4842823,-0.66146 1.6063989,-1.83082 1.7245166,-2.89388 0.1181174,-1.06306 1.0276226,-0.57878 1.0158108,-0.14174 -0.011811,0.43703 -0.3071056,3.35454 -0.2007997,3.57896 0.1063059,0.22442 0.2598589,0.34254 0.354353,-0.43704 0.094494,-0.77957 0.1181174,-1.98437 0.3189171,-2.13792 0.2007993,-0.15356 1.4292223,-0.8977 1.6654573,-1.74814 0,0 0.03543,-0.42523 -0.685082,-0.67328 -0.720517,-0.24804 1.712705,-2.29148 1.712705,-2.29148 0,0 3.484468,1.6064 4.37035,2.52772 0,0 -0.337072,1.22622 0.08054,1.22622 0.417608,0 0.601356,1.08578 -0.317383,0.86862 -0.918739,-0.21716 -1.620321,-0.61806 -2.188269,0.0167 -0.567948,0.63476 -0.818513,1.23612 -1.119191,1.35305 -0.300678,0.11693 -0.701583,0.31738 -0.684878,-0.53454 0.0167,-0.85192 -0.116931,0.70158 -0.367496,0.66817 -0.250565,-0.0334 -0.150339,0.40091 -1.687139,0.45102 0,0 0.902035,0.3508 0.968853,0.88534 0.06682,0.53454 0.11693,0.55124 0.11693,0.55124 0,0 1.921,0.16705 2.004521,-0.3842 0.08352,-0.55124 0.551244,-1.30294 0.751696,-1.5535 0.200452,-0.25057 1.102487,-1.28624 1.954409,-1.1693 0,0 -1.553505,0.98555 -2.171565,2.35531 -0.618061,1.36975 4.393242,1.00226 4.393242,1.00226 0,0 2.672696,-0.70158 2.973374,-1.65373 0.300678,-0.95215 0.367495,-4.62711 -0.217157,-5.22846 -0.89971,-0.75589 -2.080885,-1.4646 -3.521919,-0.54328 -1.441034,0.92131 -0.259859,1.37016 -2.22061,-0.35435 -1.960752,-1.72452 -3.756139,-2.5041 -3.756139,-2.5041 0,0 -2.2914804,3.09468 -2.3387273,2.76395 -0.047247,-0.33073 -0.5669642,-2.05524 -0.8268229,-0.77957 0,0 -0.7559524,-0.28348 -0.6850819,0.37797 0.070871,0.66146 -1.015811,-0.7087 -1.015811,-0.7087 0,0 0.094494,1.88988 -0.3779761,2.12611 0,0 1.9843749,-0.51971 1.2520461,0.54335 -0.732329,1.06305 -1.5591519,1.13392 -2.8348214,1.20479 -1.2756736,0.0709 -2.1024966,-0.66145 -2.7403316,-0.85044 -0.637835,-0.18899 -1.157552,-0.75595 -2.326916,-0.0591 z"
         id="path5638"
         inkscape:connector-curvature="0"
         sodipodi:nodetypes="csssssscccccsssssccscsccscsc" />
    </clipPath>
    <filter
       inkscape:collect="always"
       style="color-interpolation-filters:sRGB"
       id="filter5529"
       x="-0.053854043"
       width="1.1077081"
       y="-0.032839751"
       height="1.0656795">
      <feGaussianBlur
         inkscape:collect="always"
         stdDeviation="0.097488778"
         id="feGaussianBlur5531" />
    </filter>
    <clipPath
       clipPathUnits="userSpaceOnUse"
       id="clipPath5646">
      <path
         style="fill:#dedede;fill-opacity:1;fill-rule:evenodd;stroke:none;stroke-width:0.264583px;stroke-linecap:butt;stroke-linejoin:miter;stroke-opacity:1"
         d="m -14.611142,203.48633 c 4.299479,1.6064 4.37035,4.31129 5.3034784,4.31129 0.9331288,0 0.8386347,0.4961 1.3229166,-0.16536 0.4842823,-0.66146 1.6063989,-1.83082 1.7245166,-2.89388 0.1181174,-1.06306 1.0276226,-0.57878 1.0158108,-0.14174 -0.011811,0.43703 -0.3071056,3.35454 -0.2007997,3.57896 0.1063059,0.22442 0.2598589,0.34254 0.354353,-0.43704 0.094494,-0.77957 0.1181174,-1.98437 0.3189171,-2.13792 0.2007993,-0.15356 1.4292223,-0.8977 1.6654573,-1.74814 0,0 0.03543,-0.42523 -0.685082,-0.67328 -0.720517,-0.24804 1.712705,-2.29148 1.712705,-2.29148 0,0 3.484468,1.6064 4.37035,2.52772 0,0 -0.337072,1.22622 0.08054,1.22622 0.417608,0 0.601356,1.08578 -0.317383,0.86862 -0.918739,-0.21716 -1.620321,-0.61806 -2.188269,0.0167 -0.567948,0.63476 -0.818513,1.23612 -1.119191,1.35305 -0.300678,0.11693 -0.701583,0.31738 -0.684878,-0.53454 0.0167,-0.85192 -0.116931,0.70158 -0.367496,0.66817 -0.250565,-0.0334 -0.150339,0.40091 -1.687139,0.45102 0,0 0.902035,0.3508 0.968853,0.88534 0.06682,0.53454 0.11693,0.55124 0.11693,0.55124 0,0 1.921,0.16705 2.004521,-0.3842 0.08352,-0.55124 0.551244,-1.30294 0.751696,-1.5535 0.200452,-0.25057 1.102487,-1.28624 1.954409,-1.1693 0,0 -1.553505,0.98555 -2.171565,2.35531 -0.618061,1.36975 4.393242,1.00226 4.393242,1.00226 0,0 2.672696,-0.70158 2.973374,-1.65373 0.300678,-0.95215 0.367495,-4.62711 -0.217157,-5.22846 -0.89971,-0.75589 -2.080885,-1.4646 -3.521919,-0.54328 -1.441034,0.92131 -0.259859,1.37016 -2.22061,-0.35435 -1.960752,-1.72452 -3.756139,-2.5041 -3.756139,-2.5041 0,0 -2.2914804,3.09468 -2.3387273,2.76395 -0.047247,-0.33073 -0.5669642,-2.05524 -0.8268229,-0.77957 0,0 -0.7559524,-0.28348 -0.6850819,0.37797 0.070871,0.66146 -1.015811,-0.7087 -1.015811,-0.7087 0,0 0.094494,1.88988 -0.3779761,2.12611 0,0 1.9843749,-0.51971 1.2520461,0.54335 -0.732329,1.06305 -1.5591519,1.13392 -2.8348214,1.20479 -1.2756736,0.0709 -2.1024966,-0.66145 -2.7403316,-0.85044 -0.637835,-0.18899 -1.157552,-0.75595 -2.326916,-0.0591 z"
         id="path5648"
         inkscape:connector-curvature="0"
         sodipodi:nodetypes="csssssscccccsssssccscsccscsc" />
    </clipPath>
    <filter
       inkscape:collect="always"
       style="color-interpolation-filters:sRGB"
       id="filter5607"
       x="-0.21517509"
       width="1.4303502"
       y="-0.17529748"
       height="1.350595">
      <feGaussianBlur
         inkscape:collect="always"
         stdDeviation="0.13798654"
         id="feGaussianBlur5609" />
    </filter>
    <clipPath
       clipPathUnits="userSpaceOnUse"
       id="clipPath5722">
      <path
         style="fill:#dedede;fill-opacity:1;fill-rule:evenodd;stroke:none;stroke-width:0.264583px;stroke-linecap:butt;stroke-linejoin:miter;stroke-opacity:1"
         d="m -14.611142,203.48633 c 4.299479,1.6064 4.37035,4.31129 5.3034784,4.31129 0.9331288,0 0.8386347,0.4961 1.3229166,-0.16536 0.4842823,-0.66146 1.6063989,-1.83082 1.7245166,-2.89388 0.1181174,-1.06306 1.0276226,-0.57878 1.0158108,-0.14174 -0.011811,0.43703 -0.3071056,3.35454 -0.2007997,3.57896 0.1063059,0.22442 0.2598589,0.34254 0.354353,-0.43704 0.094494,-0.77957 0.1181174,-1.98437 0.3189171,-2.13792 0.2007993,-0.15356 1.4292223,-0.8977 1.6654573,-1.74814 0,0 0.03543,-0.42523 -0.685082,-0.67328 -0.720517,-0.24804 1.712705,-2.29148 1.712705,-2.29148 0,0 3.484468,1.6064 4.37035,2.52772 0,0 -0.337072,1.22622 0.08054,1.22622 0.417608,0 0.601356,1.08578 -0.317383,0.86862 -0.918739,-0.21716 -1.620321,-0.61806 -2.188269,0.0167 -0.567948,0.63476 -0.818513,1.23612 -1.119191,1.35305 -0.300678,0.11693 -0.701583,0.31738 -0.684878,-0.53454 0.0167,-0.85192 -0.116931,0.70158 -0.367496,0.66817 -0.250565,-0.0334 -0.150339,0.40091 -1.687139,0.45102 0,0 0.902035,0.3508 0.968853,0.88534 0.06682,0.53454 0.11693,0.55124 0.11693,0.55124 0,0 1.921,0.16705 2.004521,-0.3842 0.08352,-0.55124 0.551244,-1.30294 0.751696,-1.5535 0.200452,-0.25057 1.102487,-1.28624 1.954409,-1.1693 0,0 -1.553505,0.98555 -2.171565,2.35531 -0.618061,1.36975 4.393242,1.00226 4.393242,1.00226 0,0 2.672696,-0.70158 2.973374,-1.65373 0.300678,-0.95215 0.367495,-4.62711 -0.217157,-5.22846 -0.89971,-0.75589 -2.080885,-1.4646 -3.521919,-0.54328 -1.441034,0.92131 -0.259859,1.37016 -2.22061,-0.35435 -1.960752,-1.72452 -3.756139,-2.5041 -3.756139,-2.5041 0,0 -2.2914804,3.09468 -2.3387273,2.76395 -0.047247,-0.33073 -0.5669642,-2.05524 -0.8268229,-0.77957 0,0 -0.7559524,-0.28348 -0.6850819,0.37797 0.070871,0.66146 -1.015811,-0.7087 -1.015811,-0.7087 0,0 0.094494,1.88988 -0.3779761,2.12611 0,0 1.9843749,-0.51971 1.2520461,0.54335 -0.732329,1.06305 -1.5591519,1.13392 -2.8348214,1.20479 -1.2756736,0.0709 -2.1024966,-0.66145 -2.7403316,-0.85044 -0.637835,-0.18899 -1.157552,-0.75595 -2.326916,-0.0591 z"
         id="path5724"
         inkscape:connector-curvature="0"
         sodipodi:nodetypes="csssssscccccsssssccscsccscsc" />
    </clipPath>
    <filter
       inkscape:collect="always"
       style="color-interpolation-filters:sRGB"
       id="filter5712"
       x="-0.042907528"
       width="1.0858151"
       y="-0.082270268"
       height="1.1645405">
      <feGaussianBlur
         inkscape:collect="always"
         stdDeviation="0.17003381"
         id="feGaussianBlur5714" />
    </filter>
    <clipPath
       clipPathUnits="userSpaceOnUse"
       id="clipPath5958">
      <path
         style="fill:#dedede;fill-opacity:1;fill-rule:evenodd;stroke:none;stroke-width:0.264583px;stroke-linecap:butt;stroke-linejoin:miter;stroke-opacity:1"
         d="m -14.611142,203.48633 c 4.299479,1.6064 4.37035,4.31129 5.3034784,4.31129 0.9331288,0 0.8386347,0.4961 1.3229166,-0.16536 0.4842823,-0.66146 1.6063989,-1.83082 1.7245166,-2.89388 0.1181174,-1.06306 1.0276226,-0.57878 1.0158108,-0.14174 -0.011811,0.43703 -0.3071056,3.35454 -0.2007997,3.57896 0.1063059,0.22442 0.2598589,0.34254 0.354353,-0.43704 0.094494,-0.77957 0.1181174,-1.98437 0.3189171,-2.13792 0.2007993,-0.15356 1.4292223,-0.8977 1.6654573,-1.74814 0,0 0.03543,-0.42523 -0.685082,-0.67328 -0.720517,-0.24804 1.712705,-2.29148 1.712705,-2.29148 0,0 3.484468,1.6064 4.37035,2.52772 0,0 -0.337072,1.22622 0.08054,1.22622 0.417608,0 0.601356,1.08578 -0.317383,0.86862 -0.918739,-0.21716 -1.620321,-0.61806 -2.188269,0.0167 -0.567948,0.63476 -0.818513,1.23612 -1.119191,1.35305 -0.300678,0.11693 -0.701583,0.31738 -0.684878,-0.53454 0.0167,-0.85192 -0.116931,0.70158 -0.367496,0.66817 -0.250565,-0.0334 -0.150339,0.40091 -1.687139,0.45102 0,0 0.902035,0.3508 0.968853,0.88534 0.06682,0.53454 0.11693,0.55124 0.11693,0.55124 0,0 1.921,0.16705 2.004521,-0.3842 0.08352,-0.55124 0.551244,-1.30294 0.751696,-1.5535 0.200452,-0.25057 1.102487,-1.28624 1.954409,-1.1693 0,0 -1.553505,0.98555 -2.171565,2.35531 -0.618061,1.36975 4.393242,1.00226 4.393242,1.00226 0,0 2.672696,-0.70158 2.973374,-1.65373 0.300678,-0.95215 0.367495,-4.62711 -0.217157,-5.22846 -0.89971,-0.75589 -2.080885,-1.4646 -3.521919,-0.54328 -1.441034,0.92131 -0.259859,1.37016 -2.22061,-0.35435 -1.960752,-1.72452 -3.756139,-2.5041 -3.756139,-2.5041 0,0 -2.2914804,3.09468 -2.3387273,2.76395 -0.047247,-0.33073 -0.5669642,-2.05524 -0.8268229,-0.77957 0,0 -0.7559524,-0.28348 -0.6850819,0.37797 0.070871,0.66146 -1.015811,-0.7087 -1.015811,-0.7087 0,0 0.094494,1.88988 -0.3779761,2.12611 0,0 1.9843749,-0.51971 1.2520461,0.54335 -0.732329,1.06305 -1.5591519,1.13392 -2.8348214,1.20479 -1.2756736,0.0709 -2.1024966,-0.66145 -2.7403316,-0.85044 -0.637835,-0.18899 -1.157552,-0.75595 -2.326916,-0.0591 z"
         id="path5960"
         inkscape:connector-curvature="0"
         sodipodi:nodetypes="csssssscccccsssssccscsccscsc" />
    </clipPath>
    <filter
       inkscape:collect="always"
       style="color-interpolation-filters:sRGB"
       id="filter5948"
       x="-0.076365357"
       width="1.1527307"
       y="-0.076177245"
       height="1.1523545">
      <feGaussianBlur
         inkscape:collect="always"
         stdDeviation="0.22924756"
         id="feGaussianBlur5950" />
    </filter>
    <clipPath
       clipPathUnits="userSpaceOnUse"
       id="clipPath6171">
      <path
         style="fill:#dedede;fill-opacity:1;fill-rule:evenodd;stroke:none;stroke-width:0.264583px;stroke-linecap:butt;stroke-linejoin:miter;stroke-opacity:1"
         d="m -55.223215,402.46801 c 16.25,6.07144 16.517859,16.29464 20.044643,16.29464 3.526787,0 3.169643,1.87503 5,-0.62498 1.830359,-2.50001 6.071429,-6.91964 6.517858,-10.9375 0.446428,-4.01786 3.883928,-2.18751 3.839285,-0.53571 -0.04464,1.65177 -1.160714,12.67858 -0.758928,13.52678 0.401786,0.8482 0.982144,1.29464 1.339287,-1.65181 0.357143,-2.9464 0.446428,-7.49998 1.205356,-8.08032 0.758927,-0.58039 5.401785,-3.39289 6.294642,-6.60715 0,0 0.133909,-1.60717 -2.589286,-2.54468 -2.723214,-0.93747 6.4732156,-8.66071 6.4732156,-8.66071 0,0 13.169643,6.07143 16.5178585,9.55359 0,0 -1.273973,4.63453 0.3044031,4.63453 1.5783608,0 2.2728418,4.10374 -1.1995578,3.28297 -3.4723994,-0.82076 -6.1240479,-2.33597 -8.27062308,0.0631 -2.14657512,2.39909 -3.09359252,4.67195 -4.23001332,5.11389 -1.1364208,0.44194 -2.6516523,1.19955 -2.5885153,-2.02031 0.063118,-3.21985 -0.4419439,2.65164 -1.3889612,2.52537 -0.9470174,-0.12624 -0.5682104,1.51525 -6.3765885,1.70464 0,0 3.409266,1.32586 3.661807,3.34617 0.252548,2.02031 0.44194,2.08343 0.44194,2.08343 0,0 7.2604724,0.63137 7.5761423,-1.4521 0.3156662,-2.08343 2.0834419,-4.9245 2.8410558,-5.8715 0.75761386,-0.94703 4.16688,-4.86137 7.3867428,-4.4194 0,0 -5.87151507,3.72492 -8.2074899,8.90196 -2.3359786,5.17701 16.604379,3.78807 16.604379,3.78807 0,0 10.101529,-2.65164 11.23795,-6.25032 1.13642,-3.59867 1.388957,-17.48829 -0.820751,-19.76111 -3.400479,-2.8569 -7.864763,-5.53549 -13.31119,-2.05334 -5.4464282,3.48212 -0.982145,5.17856 -8.3928572,-1.33927 -7.4107163,-6.51787 -14.1964308,-9.46432 -14.1964308,-9.46432 0,0 -8.660714,11.69643 -8.839285,10.44643 -0.178571,-1.25001 -2.142857,-7.76784 -3.125,-2.94641 0,0 -2.857143,-1.07142 -2.589286,1.42855 0.267859,2.50001 -3.839285,-2.67855 -3.839285,-2.67855 0,0 0.357142,7.14285 -1.428571,8.03569 0,0 7.499999,-1.96426 4.732142,2.05361 -2.767857,4.01782 -5.892857,4.28568 -10.714285,4.55353 -4.821444,0.26797 -7.946444,-2.49997 -10.357159,-3.21426 -2.410715,-0.71429 -4.375,-2.85713 -8.794644,-0.22337 z"
         id="path6173"
         inkscape:connector-curvature="0"
         sodipodi:nodetypes="csssssscccccsssssccscsccscsc" />
    </clipPath>
    <clipPath
       clipPathUnits="userSpaceOnUse"
       id="clipPath6181">
      <path
         style="fill:#dedede;fill-opacity:1;fill-rule:evenodd;stroke:none;stroke-width:0.264583px;stroke-linecap:butt;stroke-linejoin:miter;stroke-opacity:1"
         d="m -14.611142,203.48633 c 4.299479,1.6064 4.37035,4.31129 5.3034784,4.31129 0.9331288,0 0.8386347,0.4961 1.3229166,-0.16536 0.4842823,-0.66146 1.6063989,-1.83082 1.7245166,-2.89388 0.1181174,-1.06306 1.0276226,-0.57878 1.0158108,-0.14174 -0.011811,0.43703 -0.3071056,3.35454 -0.2007997,3.57896 0.1063059,0.22442 0.2598589,0.34254 0.354353,-0.43704 0.094494,-0.77957 0.1181174,-1.98437 0.3189171,-2.13792 0.2007993,-0.15356 1.4292223,-0.8977 1.6654573,-1.74814 0,0 0.03543,-0.42523 -0.685082,-0.67328 -0.720517,-0.24804 1.712705,-2.29148 1.712705,-2.29148 0,0 3.484468,1.6064 4.37035,2.52772 0,0 -0.337072,1.22622 0.08054,1.22622 0.417608,0 0.601356,1.08578 -0.317383,0.86862 -0.918739,-0.21716 -1.620321,-0.61806 -2.188269,0.0167 -0.567948,0.63476 -0.818513,1.23612 -1.119191,1.35305 -0.300678,0.11693 -0.701583,0.31738 -0.684878,-0.53454 0.0167,-0.85192 -0.116931,0.70158 -0.367496,0.66817 -0.250565,-0.0334 -0.150339,0.40091 -1.687139,0.45102 0,0 0.902035,0.3508 0.968853,0.88534 0.06682,0.53454 0.11693,0.55124 0.11693,0.55124 0,0 1.921,0.16705 2.004521,-0.3842 0.08352,-0.55124 0.551244,-1.30294 0.751696,-1.5535 0.200452,-0.25057 1.102487,-1.28624 1.954409,-1.1693 0,0 -1.553505,0.98555 -2.171565,2.35531 -0.618061,1.36975 4.393242,1.00226 4.393242,1.00226 0,0 2.672696,-0.70158 2.973374,-1.65373 0.300678,-0.95215 0.367495,-4.62711 -0.217157,-5.22846 -0.89971,-0.75589 -2.080885,-1.4646 -3.521919,-0.54328 -1.441034,0.92131 -0.259859,1.37016 -2.22061,-0.35435 -1.960752,-1.72452 -3.756139,-2.5041 -3.756139,-2.5041 0,0 -2.2914804,3.09468 -2.3387273,2.76395 -0.047247,-0.33073 -0.5669642,-2.05524 -0.8268229,-0.77957 0,0 -0.7559524,-0.28348 -0.6850819,0.37797 0.070871,0.66146 -1.015811,-0.7087 -1.015811,-0.7087 0,0 0.094494,1.88988 -0.3779761,2.12611 0,0 1.9843749,-0.51971 1.2520461,0.54335 -0.732329,1.06305 -1.5591519,1.13392 -2.8348214,1.20479 -1.2756736,0.0709 -2.1024966,-0.66145 -2.7403316,-0.85044 -0.637835,-0.18899 -1.157552,-0.75595 -2.326916,-0.0591 z"
         id="path6183"
         inkscape:connector-curvature="0"
         sodipodi:nodetypes="csssssscccccsssssccscsccscsc" />
    </clipPath>
    <clipPath
       clipPathUnits="userSpaceOnUse"
       id="clipPath6240">
      <path
         style="fill:#b0afad;fill-opacity:1;fill-rule:evenodd;stroke:none;stroke-width:0.264583px;stroke-linecap:butt;stroke-linejoin:miter;stroke-opacity:1"
         d="m -16.961681,206.64007 c -1.169364,-0.69689 -2.657645,-1.98437 -2.657645,-3.93331 0,-1.16936 0.755952,-1.71271 0.755952,-1.71271 -0.05906,0.61421 -0.708705,1.79539 0.12993,2.48047 0.200799,0.3071 0.437034,0.33073 1.110305,0.3071 0.67327,-0.0236 0.531529,0.17718 0.531529,0.17718 0,0 0.165364,-0.74414 0.330729,-0.93313 0.165364,-0.18899 0.862258,-1.70089 0.862258,-1.70089 0,0 3.319103,-1.68908 3.555338,-1.79539 0.236235,-0.1063 1.192988,-0.24805 1.192988,-0.24805 0,0 3.3899731,1.19299 3.5553381,1.35836 0.165365,0.16536 0.377976,1.26385 0.377976,1.26385 l -0.425223,1.64184 -3.0828681,1.15755 1.5709631,3.37816 -3.3545381,0.22443 c 0,0 -3.661644,-0.29529 -4.453032,-1.66546 z"
         id="path6242"
         inkscape:connector-curvature="0"
         sodipodi:nodetypes="csc" />
    </clipPath>
    <linearGradient
       inkscape:collect="always"
       xlink:href="#linearGradient1595"
       id="linearGradient1597"
       x1="50.122028"
       y1="202.8092"
       x2="168.76428"
       y2="204.37669"
       gradientUnits="userSpaceOnUse"
       gradientTransform="matrix(0.31238157,0,0,0.29867876,-0.7192496,-25.954207)" />
    <linearGradient
       inkscape:collect="always"
       id="linearGradient1595">
      <stop
         style="stop-color:#6b90c7;stop-opacity:0.50196081;"
         offset="0"
         id="stop1591" />
      <stop
         style="stop-color:#6b91c7;stop-opacity:0.50196081;"
         offset="1"
         id="stop1593" />
    </linearGradient>
    <radialGradient
       inkscape:collect="always"
       xlink:href="#linearGradient1042"
       id="radialGradient1044"
       cx="-110.06665"
       cy="247.62062"
       fx="-110.06665"
       fy="247.62062"
       r="9.3463802"
       gradientTransform="matrix(0.59365851,0,0,0.77118098,56.85229,-135.44211)"
       gradientUnits="userSpaceOnUse" />
    <linearGradient
       inkscape:collect="always"
       id="linearGradient1042">
      <stop
         style="stop-color:#f0eccb;stop-opacity:1;"
         offset="0"
         id="stop1038" />
      <stop
         style="stop-color:#f0eccb;stop-opacity:0;"
         offset="1"
         id="stop1040" />
    </linearGradient>
    <radialGradient
       inkscape:collect="always"
       xlink:href="#linearGradient1064"
       id="radialGradient1066"
       cx="122.65781"
       cy="274.84125"
       fx="122.65781"
       fy="274.84125"
       r="13.775231"
       gradientTransform="matrix(0.43803135,0,0,0.21624939,-27.719864,-15.051416)"
       gradientUnits="userSpaceOnUse" />
    <linearGradient
       inkscape:collect="always"
       id="linearGradient1064">
      <stop
         style="stop-color:#ffdfb3;stop-opacity:1;"
         offset="0"
         id="stop1060" />
      <stop
         style="stop-color:#ffdfb3;stop-opacity:0;"
         offset="1"
         id="stop1062" />
    </linearGradient>
    <radialGradient
       inkscape:collect="always"
       xlink:href="#linearGradient1064"
       id="radialGradient1070"
       gradientUnits="userSpaceOnUse"
       gradientTransform="matrix(0.42955346,0,0,0.33853506,-39.233351,-52.771901)"
       cx="122.65781"
       cy="274.84125"
       fx="122.65781"
       fy="274.84125"
       r="13.775231" />
    <radialGradient
       inkscape:collect="always"
       xlink:href="#linearGradient1064"
       id="radialGradient1074"
       gradientUnits="userSpaceOnUse"
       gradientTransform="matrix(0.38834921,0,0,0.21373217,-3.3606284,-28.937584)"
       cx="122.65781"
       cy="274.84125"
       fx="122.65781"
       fy="274.84125"
       r="13.775231" />
    <radialGradient
       inkscape:collect="always"
       xlink:href="#linearGradient1082"
       id="radialGradient1088"
       gradientUnits="userSpaceOnUse"
       gradientTransform="matrix(1.7339103,0,0,1.9221319,-370.35678,-500.24499)"
       cx="230.23975"
       cy="244.85646"
       fx="230.23975"
       fy="244.85646"
       r="3.2001493" />
    <linearGradient
       inkscape:collect="always"
       id="linearGradient1082">
      <stop
         style="stop-color:#393939;stop-opacity:1;"
         offset="0"
         id="stop1078" />
      <stop
         style="stop-color:#393939;stop-opacity:0;"
         offset="1"
         id="stop1080" />
    </linearGradient>
    <radialGradient
       inkscape:collect="always"
       xlink:href="#linearGradient1082"
       id="radialGradient1092"
       gradientUnits="userSpaceOnUse"
       gradientTransform="matrix(0.90340939,0,-3.6584847e-8,1.8690804,-144.12969,-461.67163)"
       cx="230.23975"
       cy="244.85646"
       fx="230.23975"
       fy="244.85646"
       r="3.2001493" />
    <radialGradient
       inkscape:collect="always"
       xlink:href="#linearGradient1082"
       id="radialGradient1096"
       gradientUnits="userSpaceOnUse"
       gradientTransform="matrix(0.70226703,0,1.0407303e-8,1.4416949,-147.59313,-406.42736)"
       cx="230.23975"
       cy="244.85646"
       fx="230.23975"
       fy="244.85646"
       r="3.2001493" />
    <radialGradient
       inkscape:collect="always"
       xlink:href="#linearGradient1082"
       id="radialGradient1100"
       gradientUnits="userSpaceOnUse"
       gradientTransform="matrix(0.68886682,0,0,1.4755813,-110.60582,-387.24924)"
       cx="230.23975"
       cy="244.85646"
       fx="230.23975"
       fy="244.85646"
       r="3.2001493" />
    <radialGradient
       inkscape:collect="always"
       xlink:href="#linearGradient1108"
       id="radialGradient1110"
       cx="-24.646273"
       cy="219.47287"
       fx="-24.646273"
       fy="219.47287"
       r="4.433526"
       gradientTransform="matrix(0.71734124,0,0,0.77210497,46.43408,-133.0953)"
       gradientUnits="userSpaceOnUse" />
    <linearGradient
       inkscape:collect="always"
       id="linearGradient1108">
      <stop
         style="stop-color:#8ed99f;stop-opacity:1;"
         offset="0"
         id="stop1104" />
      <stop
         style="stop-color:#8ed99f;stop-opacity:0;"
         offset="1"
         id="stop1106" />
    </linearGradient>
    <radialGradient
       inkscape:collect="always"
       xlink:href="#linearGradient1108"
       id="radialGradient1114"
       gradientUnits="userSpaceOnUse"
       gradientTransform="matrix(0.54145202,0,0,0.87768679,62.093405,-172.84237)"
       cx="-24.646273"
       cy="219.47287"
       fx="-24.646273"
       fy="219.47287"
       r="4.433526" />
    <radialGradient
       inkscape:collect="always"
       xlink:href="#linearGradient1108"
       id="radialGradient1118"
       gradientUnits="userSpaceOnUse"
       gradientTransform="matrix(0.47563846,0,0,0.74804934,44.266898,-158.73049)"
       cx="-24.646273"
       cy="219.47287"
       fx="-24.646273"
       fy="219.47287"
       r="4.433526" />
    <radialGradient
       inkscape:collect="always"
       xlink:href="#linearGradient1108"
       id="radialGradient1122"
       gradientUnits="userSpaceOnUse"
       gradientTransform="matrix(0.4161894,0,0,0.66201068,49.488057,-155.10962)"
       cx="-24.646273"
       cy="219.47287"
       fx="-24.646273"
       fy="219.47287"
       r="4.433526" />
    <radialGradient
       inkscape:collect="always"
       xlink:href="#linearGradient1064"
       id="radialGradient1126"
       gradientUnits="userSpaceOnUse"
       gradientTransform="matrix(0.4161894,0,0,0.66201068,46.984567,-152.80322)"
       cx="-24.646273"
       cy="219.47287"
       fx="-24.646273"
       fy="219.47287"
       r="4.433526" />
    <radialGradient
       inkscape:collect="always"
       xlink:href="#linearGradient1136"
       id="radialGradient1130"
       gradientUnits="userSpaceOnUse"
       gradientTransform="matrix(0.47696099,0,0,0.74726954,56.537656,-176.05043)"
       cx="-24.646273"
       cy="219.47287"
       fx="-24.646273"
       fy="219.47287"
       r="4.433526" />
    <linearGradient
       id="linearGradient1136"
       inkscape:collect="always">
      <stop
         id="stop1132"
         offset="0"
         style="stop-color:#ff3b00;stop-opacity:1" />
      <stop
         id="stop1134"
         offset="1"
         style="stop-color:#ffdfb3;stop-opacity:0;" />
    </linearGradient>
    <radialGradient
       inkscape:collect="always"
       xlink:href="#linearGradient1064"
       id="radialGradient1140"
       gradientUnits="userSpaceOnUse"
       gradientTransform="matrix(0.4563995,0,0,0.2472273,-23.358323,-30.644809)"
       cx="122.65781"
       cy="274.84125"
       fx="122.65781"
       fy="274.84125"
       r="13.775231" />
    <linearGradient
       inkscape:collect="always"
       xlink:href="#linearGradient7223"
       id="linearGradient1626"
       x1="26.832605"
       y1="221.88289"
       x2="24.767729"
       y2="205.19695"
       gradientUnits="userSpaceOnUse"
       gradientTransform="matrix(0.31042701,0,0,0.3007097,9.7859441,-27.764647)" />
    <linearGradient
       id="linearGradient7223"
       inkscape:collect="always">
      <stop
         id="stop7225"
         offset="0"
         style="stop-color:#ffffff;stop-opacity:1;" />
      <stop
         id="stop7227"
         offset="1"
         style="stop-color:#ffffff;stop-opacity:0;" />
    </linearGradient>
    <radialGradient
       inkscape:collect="always"
       xlink:href="#linearGradient1082"
       id="radialGradient1618"
       gradientUnits="userSpaceOnUse"
       gradientTransform="matrix(0.93153845,0,0,1.8081903,-165.24521,-406.28927)"
       cx="230.23975"
       cy="244.85646"
       fx="230.23975"
       fy="244.85646"
       r="3.2001493" />
    <radialGradient
       inkscape:collect="always"
       xlink:href="#linearGradient1637"
       id="radialGradient1631"
       cx="139.22543"
       cy="271.40839"
       fx="139.22543"
       fy="271.40839"
       r="64.02359"
       gradientTransform="matrix(0.31238157,0,0,0.14967134,-0.71925,17.407314)"
       gradientUnits="userSpaceOnUse" />
    <linearGradient
       id="linearGradient1637"
       inkscape:collect="always">
      <stop
         id="stop1633"
         offset="0"
         style="stop-color:#274268;stop-opacity:1;" />
      <stop
         id="stop1635"
         offset="1"
         style="stop-color:#274268;stop-opacity:0.15686275;" />
    </linearGradient>
    <radialGradient
       inkscape:collect="always"
       xlink:href="#linearGradient7223"
       id="radialGradient1647"
       cx="84.633064"
       cy="271.15091"
       fx="84.633064"
       fy="271.15091"
       r="28.587233"
       gradientTransform="matrix(0.31237992,-4.8288602e-4,1.5621657e-4,0.09238607,-0.7614596,30.02313)"
       gradientUnits="userSpaceOnUse" />
  </defs>
  <linearGradient
     id="u"
     x1="393.57101"
     x2="396.07101"
     y1="521.79797"
     y2="524.29797"
     gradientTransform="matrix(2,0,0,2,-769.142,-1029.596)"
     gradientUnits="userSpaceOnUse"
     xlink:href="#b" />
  <linearGradient
     id="b">
    <stop
       stop-color="#fcfcfc"
       offset="0"
       id="stop39" />
    <stop
       stop-color="#eff0f1"
       offset="1"
       id="stop41" />
  </linearGradient>
  <linearGradient
     id="e"
     x1="399.57101"
     x2="400.57101"
     y1="521.79797"
     y2="523.79797"
     gradientTransform="matrix(2,0,0,2,-769.142,-1029.596)"
     gradientUnits="userSpaceOnUse"
     xlink:href="#c" />
  <linearGradient
     id="c">
    <stop
       stop-color="#292c2f"
       offset="0"
       id="stop45" />
    <stop
       stop-color="#292c2f"
       stop-opacity="0"
       offset="1"
       id="stop47" />
  </linearGradient>
  <linearGradient
     id="g"
     x1="409.57101"
     x2="405.57101"
     y1="521.79797"
     y2="525.79797"
     gradientTransform="matrix(-2,0,0,2,849.144,-1029.596)"
     gradientUnits="userSpaceOnUse"
     xlink:href="#b" />
  <linearGradient
     id="i"
     x1="407.57101"
     x2="408.57101"
     y1="521.79797"
     y2="523.79797"
     gradientTransform="matrix(2,0,0,2,-769.142,-1029.596)"
     gradientUnits="userSpaceOnUse"
     xlink:href="#c" />
  <linearGradient
     id="a">
    <stop
       stop-color="#4f575f"
       stop-opacity=".4"
       offset="0"
       id="stop52" />
    <stop
       stop-color="#4f575f"
       stop-opacity=".6"
       offset=".5"
       id="stop54" />
    <stop
       stop-color="#4f575f"
       stop-opacity=".4"
       offset="1"
       id="stop56" />
  </linearGradient>
  <path
     sodipodi:nodetypes="ccccscccc"
     inkscape:connector-curvature="0"
     id="path4147-0-7"
     d="m 31.9998,8.705191 c -11.04548,0 -19.99978,2.140549 -19.9998,4.780787 l 0.0357,0.273859 c 4e-5,1.9e-4 -5e-5,2.85e-4 0,5.74e-4 0.59584,2.512379 9.30493,4.505688 19.96437,4.505657 10.66141,3.1e-5 19.37196,-1.993912 19.96501,-4.506925 l 0.035,-0.273209 c -2e-5,-2.640253 -8.95432,-4.780787 -19.9998,-4.780787 z"
     style="color:#000000;display:inline;overflow:visible;visibility:visible;opacity:0.542;fill:url(#linearGradient4747-2);fill-opacity:1;fill-rule:nonzero;stroke:none;stroke-width:1.47076;stroke-linecap:round;stroke-linejoin:miter;stroke-miterlimit:4;stroke-dasharray:none;stroke-dashoffset:0;stroke-opacity:1;marker:none;enable-background:accumulate" />
  <g
     clip-path="none"
     transform="matrix(1.27173,0,0,1.2159448,39.23995,-234.28988)"
     id="g6522">
    <path
       style="fill:#96999f;fill-opacity:1;fill-rule:evenodd;stroke:none;stroke-width:0.264583px;stroke-linecap:butt;stroke-linejoin:miter;stroke-opacity:1"
       d="m 0.6968936,203.59264 0.4783761,-1.28748 1.4764694,1.15164 0.3071058,1.99028 -0.7382348,0.42522 -2.43912758,2.57497 -1.37016372,-0.0886 1.57096357,-2.75214 z"
       id="path6520"
       inkscape:connector-curvature="0" />
    <path
       style="fill:#5975b5;fill-opacity:1;fill-rule:evenodd;stroke:none;stroke-width:0.264583px;stroke-linecap:butt;stroke-linejoin:miter;stroke-opacity:1"
       d="m -1.1024868,206.30376 c 0.30067824,-0.7517 0.23386084,-0.86863 0.40090431,-0.95215 0.16704344,-0.0835 0.28397385,-0.41761 0.47607383,-0.48443 0.19209997,-0.0668 0.050113,-0.61805 0.15869128,-0.67652 0.10857824,-0.0585 0.50113036,-0.0752 0.59300425,-0.29233 0.0918739,-0.21715 -0.0417608,-0.39255 -0.0417608,-0.39255 l -1.67878677,0.0251 -1.2194172,2.38037 c 0,0 0.8352173,1.61197 1.3112911,0.39255 z"
       id="path6514"
       inkscape:connector-curvature="0" />
    <path
       style="fill:#39497e;fill-opacity:1;fill-rule:evenodd;stroke:none;stroke-width:0.264583px;stroke-linecap:butt;stroke-linejoin:miter;stroke-opacity:1"
       d="m 0.64374069,203.56901 c 0.76776411,-0.53153 0.88588171,-0.6083 1.08668151,-0.12993 0.2007999,0.47838 -0.4075056,1.54734 -0.4075056,1.54734 l -1.31701072,-0.1004 c 0,0 -0.242141,-1.02762 -0.00590588,-1.13392 0.23623512,-0.10631 0.64374069,-0.18309 0.64374069,-0.18309 z"
       id="path6518"
       inkscape:connector-curvature="0" />
    <path
       style="fill:#252921;fill-opacity:1;fill-rule:evenodd;stroke:none;stroke-width:0.264583px;stroke-linecap:butt;stroke-linejoin:miter;stroke-opacity:1"
       d="m -0.37207031,203.67532 c 0.6142113,0.16536 0.98628162,0.006 1.16936384,-0.13584 0.18308222,-0.14174 0.31301157,-0.96265 0.44294087,-0.98628 0.1299293,-0.0236 -0.60239958,-0.21851 -0.60239958,-0.21851 z"
       id="path6512"
       inkscape:connector-curvature="0" />
    <path
       style="fill:#eae9e8;fill-opacity:1;fill-rule:evenodd;stroke:none;stroke-width:0.264583px;stroke-linecap:butt;stroke-linejoin:miter;stroke-opacity:1"
       d="m -3.6833082,202.13603 1.3614042,-0.0501 c 0,0 2.07133882,0.35915 2.54741266,0.46772 0.47607383,0.10858 0.92709114,-0.10857 0.92709114,-0.10857 l -3.3742777,-2.14651 z"
       id="path6510"
       inkscape:connector-curvature="0" />
    <path
       style="fill:#759d70;fill-opacity:1;fill-rule:evenodd;stroke:none;stroke-width:0.264583px;stroke-linecap:butt;stroke-linejoin:miter;stroke-opacity:1"
       d="m -7.1745162,208.05772 c 0.3257346,1.01896 1.8207736,1.08578 1.8374778,0.75169 0.016703,-0.33409 0.050113,-0.9605 0.050113,-0.9605 0,0 0.292326,-1.73725 -0.075169,-1.68714 -0.3674957,0.0501 -1.8124215,1.89595 -1.8124218,1.89595 z"
       id="path6470"
       inkscape:connector-curvature="0" />
    <path
       style="fill:url(#linearGradient6468);fill-opacity:1;fill-rule:evenodd;stroke:none;stroke-width:0.264583px;stroke-linecap:butt;stroke-linejoin:miter;stroke-opacity:1"
       d="m -8.0264381,209.21031 c 0.7600479,0.11693 2.756217,-2.64764 2.9232608,-3.2824 0.1670433,-0.63477 0.00835,-0.80181 -0.6598216,-0.78511 -0.668174,0.0167 -4.3013691,2.79798 -2.2634392,4.06751 z"
       id="path6422-3"
       inkscape:connector-curvature="0"
       sodipodi:nodetypes="cssc" />
    <path
       style="fill:#b0afad;fill-opacity:1;fill-rule:evenodd;stroke:none;stroke-width:0.264583px;stroke-linecap:butt;stroke-linejoin:miter;stroke-opacity:1"
       d="m -16.961681,206.64007 c -1.169364,-0.69689 -2.657645,-1.98437 -2.657645,-3.93331 0,-1.16936 0.755952,-1.71271 0.755952,-1.71271 -0.05906,0.61421 -0.708705,1.79539 0.12993,2.48047 0.200799,0.3071 0.437034,0.33073 1.110305,0.3071 0.67327,-0.0236 0.531529,0.17718 0.531529,0.17718 0,0 0.165364,-0.74414 0.330729,-0.93313 0.165364,-0.18899 0.862258,-1.70089 0.862258,-1.70089 0,0 3.319103,-1.68908 3.555338,-1.79539 0.236235,-0.1063 1.192988,-0.24805 1.192988,-0.24805 0,0 3.3899735,1.19299 3.5553381,1.35836 0.1653646,0.16536 0.3779762,1.26385 0.3779762,1.26385 l -0.4252232,1.64184 -3.0828681,1.15755 1.5709634,3.37816 -3.3545384,0.22443 c 0,0 -3.661644,-0.29529 -4.453032,-1.66546 z"
       id="path6221"
       inkscape:connector-curvature="0"
       sodipodi:nodetypes="csc" />
    <path
       style="fill:#626262;fill-opacity:1;fill-rule:evenodd;stroke:none;stroke-width:0.264583px;stroke-linecap:butt;stroke-linejoin:miter;stroke-opacity:1"
       d="m -16.91315,206.41234 c 1.186009,-0.3675 1.027318,-0.29233 1.135896,-0.70994 0.618061,-1.71219 0.927091,-2.20497 1.244474,-2.25509 0.317382,-0.0501 3.056895,0.80181 3.908817,1.55351 0.8519211,0.75169 1.7456036,3.41604 1.7456036,3.41604 l -5.5040816,0.46772 c 0,0 -2.806331,-1.23611 -2.530709,-2.47224 z"
       id="path6408"
       inkscape:connector-curvature="0"
       clip-path="url(#clipPath6416)" />
    <path
       style="fill:#441111;fill-opacity:1;fill-rule:evenodd;stroke:none;stroke-width:0.264583px;stroke-linecap:butt;stroke-linejoin:miter;stroke-opacity:1"
       d="m -14.507724,205.25139 c 0.409257,0.36749 1.002261,0.93544 1.160952,0.81016 0.158691,-0.12529 1.202713,-0.67653 1.202713,-0.67653 0,0 1.578561,1.91265 1.854182,2.05463 0.275622,0.14199 0.5763001,0.0418 0.5763001,0.0418 l -1.4532781,-2.83139 -1.486687,-0.28397 c 0,0 -1.102486,-0.0668 -1.586912,0.45101 -0.484426,0.51784 -0.26727,0.43432 -0.26727,0.43432 z"
       id="path6420"
       inkscape:connector-curvature="0" />
    <path
       style="fill:#9f9f9f;fill-opacity:1;fill-rule:evenodd;stroke:none;stroke-width:0.264583px;stroke-linecap:butt;stroke-linejoin:miter;stroke-opacity:1"
       d="m -19.867373,203.53358 c 1.311105,0.38979 2.01981,0.77957 2.445033,1.15755 0.425223,0.37798 1.783575,1.25205 1.783575,1.25205 l -0.862258,1.08668 -3.082868,-1.03944 z"
       id="path6244"
       inkscape:connector-curvature="0"
       clip-path="url(#clipPath6392)" />
    <path
       style="fill:#606060;fill-opacity:1;fill-rule:evenodd;stroke:none;stroke-width:0.264583px;stroke-linecap:butt;stroke-linejoin:miter;stroke-opacity:1"
       d="m -19.635958,203.88163 c 1.545152,1.69549 3.491208,2.98172 3.491208,2.98172 l -0.292326,0.43432 c 0,0 -3.165473,-0.7684 -3.198882,-1.37811 -0.03341,-0.60971 0,-2.03793 0,-2.03793 z"
       id="path6396"
       inkscape:connector-curvature="0"
       clip-path="url(#clipPath6404)" />
    <path
       style="fill:#444342;fill-opacity:1;fill-rule:evenodd;stroke:none;stroke-width:0.264583px;stroke-linecap:butt;stroke-linejoin:miter;stroke-opacity:1"
       d="m -10.878627,199.84831 c 0.519717,0.23623 1.2166108,3.7207 1.2166108,3.7207 l 0.8740698,-0.21261 c 0,0 -0.5905878,-3.18917 -1.2638576,-3.43722 -0.67327,-0.24805 -0.826823,-0.0709 -0.826823,-0.0709 z"
       id="path6185"
       inkscape:connector-curvature="0" />
    <path
       style="fill:url(#linearGradient6205);fill-opacity:1;fill-rule:evenodd;stroke:none;stroke-width:0.264583px;stroke-linecap:butt;stroke-linejoin:miter;stroke-opacity:1"
       d="m -10.541992,203.07883 c 0.8091053,-0.34255 2.0847748,-0.67328 2.6163039,-0.44295 0,0 0.4839024,-0.34117 0.901511,-0.39963 0.4176086,-0.0585 0.8018086,0.53454 0.7683999,0.54289 -0.033409,0.008 -0.9270912,1.57856 -1.2611781,1.5368 -0.3340869,-0.0418 -3.0250367,-1.23711 -3.0250367,-1.23711 z"
       id="path6189"
       inkscape:connector-curvature="0" />
    <path
       style="fill:url(#linearGradient6213);fill-opacity:1;fill-rule:evenodd;stroke:none;stroke-width:0.264583px;stroke-linecap:butt;stroke-linejoin:miter;stroke-opacity:1"
       d="m -11.427874,204.48442 c -0.64374,-0.73233 0.248049,-1.40559 1.122117,-1.5119 0.8740698,-0.10631 2.7285156,1.22842 2.7285156,1.22842 0,0 -2.6517386,1.13393 -3.8506326,0.28348 z"
       id="path6187"
       inkscape:connector-curvature="0"
       sodipodi:nodetypes="cscc" />
    <path
       style="fill:url(#linearGradient6430);fill-opacity:1;fill-rule:evenodd;stroke:none;stroke-width:0.264583px;stroke-linecap:butt;stroke-linejoin:miter;stroke-opacity:1"
       d="m -7.6171816,207.06381 c 0.7600479,0.11693 2.4304822,-1.63703 2.5975259,-2.27179 0.1670433,-0.63477 -0.075172,-0.95215 -0.7433433,-0.93545 -0.668174,0.0167 -1.9042954,2.37202 -1.8541826,3.20724 z"
       id="path6422"
       inkscape:connector-curvature="0"
       sodipodi:nodetypes="cssc" />
    <path
       style="fill:#aa531f;fill-opacity:1;fill-rule:evenodd;stroke:none;stroke-width:0.264583px;stroke-linecap:butt;stroke-linejoin:miter;stroke-opacity:1"
       d="m -2.1214518,206.02814 c 0.6347651,-0.81016 1.27788236,-0.72664 1.32799539,-0.88533 0.050113,-0.15869 0.0167045,-0.37585 -0.12528259,-0.58465 -0.1419869,-0.20881 0.19209999,-0.7517 0.48442602,-0.73499 0.29232605,0.0167 0.53453905,-0.60136 0.53453905,-0.60136 l -1.14424767,-0.50113 -1.8792387,0.65982 -0.2839741,1.20271 0.025056,1.31129 z"
       id="path6506"
       inkscape:connector-curvature="0" />
    <path
       style="fill:#c1c2c9;fill-opacity:1;fill-rule:evenodd;stroke:none;stroke-width:0.264583px;stroke-linecap:butt;stroke-linejoin:miter;stroke-opacity:1"
       d="m -1.5284476,206.53762 c 0.78510423,-0.64312 1.52009543,-0.52619 1.52009543,-0.52619 l -1.27788243,1.03567 z"
       id="path6508"
       inkscape:connector-curvature="0" />
    <path
       style="fill:url(#linearGradient6492);fill-opacity:1;fill-rule:evenodd;stroke:none;stroke-width:0.264583px;stroke-linecap:butt;stroke-linejoin:miter;stroke-opacity:1"
       d="m -4.4884673,205.1636 c 0.8740701,0.0236 1.2520462,-0.11812 1.842634,0.11812 0.5905878,0.23623 0.5551525,0.42522 0.7441406,0.61421 0.1889881,0.18899 0.484282,-0.0354 0.6496466,1.14574 0.1653646,1.18117 -3.236421,0.51972 -3.236421,0.51972 z"
       id="path6476"
       inkscape:connector-curvature="0"
       sodipodi:nodetypes="ccsscc" />
    <path
       style="fill:#242f65;fill-opacity:1;fill-rule:evenodd;stroke:none;stroke-width:0.264583px;stroke-linecap:butt;stroke-linejoin:miter;stroke-opacity:1"
       d="m -4.3703496,205.21085 c -0.023625,1.3111 -0.059059,1.25204 0.3189174,1.29929 0.377976,0.0472 -0.059059,0.54334 0.035435,0.77958 0.094494,0.23623 0.3071056,0.22442 0.3071056,0.22442 l 0.1299292,0.42522 -1.1221167,-0.0945 c 0,0 -0.1299294,-0.14174 -0.1771763,-0.24805 -0.047247,-0.1063 0.023625,-2.43322 0.023625,-2.55134 0,-0.11811 0.4842819,0.16537 0.4842819,0.16537 z"
       id="path6474"
       inkscape:connector-curvature="0" />
    <path
       style="fill:#5975b5;fill-opacity:1;fill-rule:evenodd;stroke:none;stroke-width:0.264583px;stroke-linecap:butt;stroke-linejoin:miter;stroke-opacity:1"
       d="m -2.2300301,201.95228 c 0.016704,-0.32574 0.726639,-0.65983 1.0690781,-0.47608 0.34243907,0.18375 0.16704345,0.49278 0.57629991,0.66818 0.40925646,0.17539 1.60361719,0.46772 1.46998239,0.65982 -0.13363477,0.1921 -0.40090428,0.68488 -0.76839988,0.5763 -0.3674956,-0.10858 -0.35914343,-0.43431 -0.84356943,-0.43431 -0.48442599,0 -0.86027379,0.0418 -0.86027379,0.0418 z"
       id="path6504"
       inkscape:connector-curvature="0" />
    <path
       style="fill:#252921;fill-opacity:1;fill-rule:evenodd;stroke:none;stroke-width:0.264583px;stroke-linecap:butt;stroke-linejoin:miter;stroke-opacity:1"
       d="m -2.3386083,203.43896 c 0.2255086,0.28398 0.4259608,0.30068 0.8435694,0.0251 0.4176086,-0.27562 0.60135642,-0.64312 0,-0.62641 -0.6013564,0.0167 -1.8625344,-0.45102 -1.8625344,-0.45102 0,0 -0.4259609,0.13363 -0.4176088,0.37585 0.00835,0.24221 0.334087,0.50948 0.334087,0.50948 z"
       id="path6502"
       inkscape:connector-curvature="0" />
    <path
       style="fill:#3d4b6f;fill-opacity:1;fill-rule:evenodd;stroke:none;stroke-width:0.264583px;stroke-linecap:butt;stroke-linejoin:miter;stroke-opacity:1"
       d="m -3.3993343,205.38502 c 1.1191912,-0.33409 0.5595956,-1.01896 0.434313,-1.19436 -0.1252826,-0.1754 0.1336347,-0.68488 0.6848782,-0.70158 0.5512434,-0.0167 -0.3006782,-0.21716 -0.8018087,-0.23386 -0.5011304,-0.0167 -0.7099345,-0.3675 -0.492778,-0.50949 0.2171565,-0.14198 0.5094824,-0.15869 0.7516955,0.13364 0.242213,0.29232 1.2444737,0.30068 1.4282215,0.13363 0.1837478,-0.16704 0.50113032,-0.30903 0.50113032,-0.30903 0,0 -0.83521722,-0.33408 -1.00226072,-0.60135 -0.1670435,-0.26727 -0.4677217,-0.56795 -0.8352172,-0.35915 -0.3674956,0.20881 -1.0941346,0.30068 -1.0941346,0.30068 l -0.8936826,1.48669 0.4927783,1.9377 z"
       id="path6500"
       inkscape:connector-curvature="0" />
    <path
       style="fill:#652424;fill-opacity:1;fill-rule:evenodd;stroke:none;stroke-width:0.264583px;stroke-linecap:butt;stroke-linejoin:miter;stroke-opacity:1"
       d="m -4.5829614,205.30534 c -0.1535528,0.85045 0.035435,2.32692 0.1181177,2.31511 0.082682,-0.0118 0.3543528,0.14174 0.7441406,-0.10631 1.3465402,-0.0236 1.0039993,1.54734 1.0039993,1.54734 l -2.7521391,-0.30711 c 0,0 0.1653646,-3.40178 0.4134115,-3.53171 0.2480468,-0.12993 0.47247,0.0827 0.47247,0.0827 z"
       id="path6472"
       inkscape:connector-curvature="0" />
    <path
       style="fill:#dedede;fill-opacity:1;fill-rule:evenodd;stroke:none;stroke-width:0.264583px;stroke-linecap:butt;stroke-linejoin:miter;stroke-opacity:1"
       d="m -14.611142,203.48633 c 4.299479,1.6064 4.37035,4.31129 5.3034783,4.31129 0.9331288,0 0.8386347,0.4961 1.3229166,-0.16536 0.4842822,-0.66146 1.6063989,-1.83082 1.7245166,-2.89388 0.1181174,-1.06306 1.0276226,-0.57878 1.0158108,-0.14174 -0.011811,0.43703 -0.3071056,3.35454 -0.2007997,3.57896 0.1063059,0.22442 0.2598587,0.34254 0.3543528,-0.43704 0.094494,-0.77957 0.1181174,-1.98437 0.3189173,-2.13792 0.2007997,-0.15356 1.4292223,-0.8977 1.6654576,-1.74814 0,0 0.035435,-0.42523 -0.6850819,-0.67328 -0.7205171,-0.24804 1.7127046,-2.29148 1.7127046,-2.29148 0,0 3.4844679,1.6064 4.3703496,2.52772 0,0 -0.3370722,1.22622 0.080536,1.22622 0.4176086,0 0.6013564,1.08578 -0.3173826,0.86862 -0.9187389,-0.21716 -1.62032143,-0.61806 -2.18826916,0.0167 -0.56794773,0.63476 -0.81851291,1.23612 -1.11919114,1.35305 -0.3006782,0.11693 -0.7015825,0.31738 -0.6848781,-0.53454 0.016704,-0.85192 -0.1169304,0.70158 -0.3674956,0.66817 -0.2505652,-0.0334 -0.1503391,0.40091 -1.6871389,0.45102 0,0 0.9020351,0.3508 0.9688524,0.88534 0.066817,0.53454 0.1169305,0.55124 0.1169305,0.55124 0,0 1.92099964,0.16705 2.00452137,-0.3842 0.0835217,-0.55124 0.55124338,-1.30294 0.75169552,-1.5535 0.20045215,-0.25057 1.10248678,-1.28624 1.95440841,-1.1693 0,0 -1.55350412,0.98555 -2.17156489,2.35531 -0.61806077,1.36975 4.39324279,1.00226 4.39324279,1.00226 0,0 2.6726952,-0.70158 2.9733734,-1.65373 0.3006782,-0.95215 0.3674956,-4.62711 -0.2171565,-5.22846 -0.8997098,-0.75589 -2.0808853,-1.4646 -3.5219195,-0.54328 -1.4410342,0.92131 -0.2598587,1.37016 -2.2206101,-0.35435 -1.96075144,-1.72452 -3.7561383,-2.5041 -3.7561383,-2.5041 0,0 -2.2914806,3.09468 -2.3387276,2.76395 -0.047247,-0.33073 -0.5669643,-2.05524 -0.8268229,-0.77957 0,0 -0.7559524,-0.28348 -0.6850818,0.37797 0.070871,0.66146 -1.015811,-0.7087 -1.015811,-0.7087 0,0 0.094494,1.88988 -0.3779762,2.12611 0,0 1.9843749,-0.51971 1.2520461,0.54335 -0.7323289,1.06305 -1.5591518,1.13392 -2.8348214,1.20479 -1.2756694,0.0709 -2.1024924,-0.66145 -2.7403274,-0.85044 -0.637835,-0.18899 -1.157552,-0.75595 -2.326916,-0.0591 z"
       id="path5375"
       inkscape:connector-curvature="0"
       sodipodi:nodetypes="csssssscccccsssssccscsccscsc" />
    <path
       style="fill:#dedede;fill-opacity:1;fill-rule:evenodd;stroke:none;stroke-width:0.264583px;stroke-linecap:butt;stroke-linejoin:miter;stroke-opacity:1"
       d="m -16.961681,207.72675 c 0,0 -0.259859,-1.48828 0.106306,-1.94894 0,0 0.295293,0.6024 1.547339,0.90951 1.252047,0.3071 -0.921317,1.46466 -0.921317,1.46466 2.527715,-0.68507 3.236422,1.48827 1.157553,0.89769 -2.078869,-0.59059 -1.889881,-1.32292 -1.889881,-1.32292 z"
       id="path5363"
       inkscape:connector-curvature="0"
       sodipodi:nodetypes="ccsc" />
    <path
       style="fill:#dedede;fill-opacity:1;fill-rule:evenodd;stroke:none;stroke-width:0.264583px;stroke-linecap:butt;stroke-linejoin:miter;stroke-opacity:1"
       d="m -15.802311,206.07825 c -0.417608,-1.06908 -0.367495,-1.98782 1.002261,-2.45554 0,0 0.0167,0.3842 0.300678,0.46772 0.283974,0.0835 0.484427,0.83522 0.902035,0.83522 0,0 -0.785104,0.13363 -0.868626,1.13589 0,0 -0.684879,0.13364 -1.336348,0.0167 z"
       id="path5367"
       inkscape:connector-curvature="0" />
    <path
       style="fill:#dedede;fill-opacity:1;fill-rule:evenodd;stroke:none;stroke-width:0.264583px;stroke-linecap:butt;stroke-linejoin:miter;stroke-opacity:1"
       d="m -16.854684,203.28862 c 2.605877,-1.06907 2.288495,-1.26952 2.288495,-1.26952 0,0 -1.987817,0.25056 -0.935443,-0.43432 1.052374,-0.68488 2.906556,-0.96885 3.290756,-2.12145 0,0 -1.26953,-0.51784 -5.629365,1.88759 0,0 0.317383,1.48668 0.985557,1.9377 z"
       id="path5369"
       inkscape:connector-curvature="0" />
    <path
       style="fill:#dedede;fill-opacity:1;fill-rule:evenodd;stroke:none;stroke-width:0.264583px;stroke-linecap:butt;stroke-linejoin:miter;stroke-opacity:1"
       d="m -11.459181,200.1315 c -0.217156,0.30068 -0.400904,0.50113 -0.334087,-0.76839 0.06682,-1.26954 0.718287,-1.05238 1.386461,-0.41762 0.6681738,0.63477 1.0857823,0.23387 1.5367996,0.51784 0.4510174,0.28397 1.3530521,0.48442 1.3363477,1.31964 0,0 -0.8185128,0.3842 -1.8374779,-0.55124 -0.4176086,-0.28398 -1.8374784,-0.45102 -2.0880434,-0.10023 z"
       id="path5371"
       inkscape:connector-curvature="0" />
    <path
       style="opacity:0.424;fill:#a3a3a3;fill-opacity:1;fill-rule:evenodd;stroke:none;stroke-width:0.264583px;stroke-linecap:butt;stroke-linejoin:miter;stroke-opacity:1;filter:url(#filter5447)"
       d="m -11.008164,206.81324 c 1.620322,-2.50565 1.7706612,-2.40543 2.3386089,-2.18827 0.5679477,0.21716 -0.1503392,2.75622 -0.8853305,3.39098 -0.7349914,0.63477 -1.4532784,-1.20271 -1.4532784,-1.20271 z"
       id="path5377"
       inkscape:connector-curvature="0"
       clip-path="url(#clipPath5626)" />
    <path
       style="opacity:0.479;fill:#838383;fill-opacity:1;fill-rule:evenodd;stroke:none;stroke-width:0.264583px;stroke-linecap:butt;stroke-linejoin:miter;stroke-opacity:1;filter:url(#filter5529)"
       d="m -9.3043204,208.21641 c 2.4388344,-4.34313 3.0234865,-6.1472 3.2573475,-5.99686 0.2338607,0.15034 1.3363474,1.68714 1.0356694,2.15486 -0.3006783,0.46772 -0.8185129,1.08578 -0.8853305,1.10248 -0.066817,0.0167 -1.3697561,3.85871 -1.3697561,3.85871 z"
       id="path5451"
       inkscape:connector-curvature="0"
       clip-path="url(#clipPath5636)" />
    <path
       style="opacity:0.708;fill:#838383;fill-opacity:1;fill-rule:evenodd;stroke:none;stroke-width:0.264583px;stroke-linecap:butt;stroke-linejoin:miter;stroke-opacity:1;filter:url(#filter5607)"
       d="m -6.4645817,202.83761 c 0.6013566,0.96885 0.9354433,1.63702 1.3363477,1.38646 0.4009043,-0.25056 0.1670433,-1.28623 -0.3507912,-1.60362 -0.5178348,-0.31738 -0.8519216,-0.36749 -0.9855565,0.21716 z"
       id="path5533"
       inkscape:connector-curvature="0"
       clip-path="url(#clipPath5646)" />
    <path
       style="opacity:0.648305;fill:#838383;fill-opacity:1;fill-rule:evenodd;stroke:none;stroke-width:0.264583px;stroke-linecap:butt;stroke-linejoin:miter;stroke-opacity:1;filter:url(#filter5712)"
       d="m -4.1813614,209.25047 c -0.035435,-2.32692 0.3307291,-3.14193 2.3269157,-4.48847 1.99618677,-1.34654 1.28748143,0.67327 1.58277532,0.86226 0.29529389,0.18899 1.015811,1.21661 1.37016368,0.85045 0.3543527,-0.36617 1.1457403,-0.95676 1.4410342,-0.85045 0.295294,0.1063 2.7875745,2.77576 2.7875745,2.77576 l -6.7563244,0.66146 -2.6930803,0.2008 z"
       id="path5650"
       inkscape:connector-curvature="0"
       clip-path="url(#clipPath5722)" />
    <path
       style="opacity:0.758;fill:#373737;fill-opacity:1;fill-rule:evenodd;stroke:none;stroke-width:0.264583px;stroke-linecap:butt;stroke-linejoin:miter;stroke-opacity:1;filter:url(#filter5948)"
       d="m 2.3859747,205.86049 c 0.4960937,-0.53153 0.3307291,-0.61421 0.9213169,-0.34254 0.5905879,0.27167 0.9095052,1.33473 1.3229167,1.38198 0.4134114,0.0472 1.7599517,-0.33073 1.9843749,-0.79139 0.2244233,-0.46066 -0.236235,-2.30329 -0.1417409,-2.45684 0.094494,-0.15356 1.5119048,-1.4056 2.1733631,-0.48429 0.6614583,0.92132 1.8308216,6.46103 -0.1771764,6.86263 -2.0079985,0.4016 -4.9963728,-4.27585 -6.0830543,-4.16955 z"
       id="path5726"
       inkscape:connector-curvature="0"
       clip-path="url(#clipPath5958)" />
    <path
       style="fill:#dedede;fill-opacity:1;fill-rule:evenodd;stroke:none;stroke-width:0.264583px;stroke-linecap:butt;stroke-linejoin:miter;stroke-opacity:1"
       d="m -19.259764,204.73363 c -0.206705,-3.13012 0.738931,-3.79273 0.738931,-3.79273 l -0.437035,-0.18308 c 0,0 -2.823705,3.18442 -0.301896,3.97581 z"
       id="path6223"
       inkscape:connector-curvature="0"
       sodipodi:nodetypes="cccc"
       clip-path="url(#clipPath6240)" />
    <path
       style="fill:#773520;fill-opacity:1;fill-rule:evenodd;stroke:none;stroke-width:0.264583px;stroke-linecap:butt;stroke-linejoin:miter;stroke-opacity:1"
       d="m -1.2862346,206.42904 0.71828685,-0.0668 c 0,0 1.77066065,-0.93544 2.10474755,-1.04402 0.3340869,-0.10858 0.676526,-0.55124 0.6932303,-0.89368 0.016704,-0.34244 -0.5512434,-1.07743 -0.5512434,-1.07743 0,0 0.050113,0.93544 -0.2004521,1.14425 -0.2505652,0.2088 -0.48442605,0.52618 -1.34469984,-0.42596 -0.86027377,-0.95215 -1.41986936,2.36366 -1.41986936,2.36366 z"
       id="path6516"
       inkscape:connector-curvature="0" />
  </g>
  <path
     sodipodi:nodetypes="ccsccscccc"
     inkscape:connector-curvature="0"
     id="path4147-0-0-0"
     d="m 12,13.485978 4.78843,37.271764 c -1e-5,3.447331 6.81946,6.242141 15.2323,6.242141 8.41284,0 15.23308,-2.79481 15.23307,-6.242141 l 4.74579,-37.271764 c -9e-4,2.640094 -8.95489,4.780166 -19.99979,4.78015 C 20.95489,18.266144 12.00094,16.126072 12,13.485978 Z m 39.99959,0 c 0,-0.10363 -0.0179,-0.206357 -0.0456,-0.308323 0.0297,0.102679 0.0442,0.205454 0.0456,0.308323 z"
     style="color:#000000;display:inline;overflow:visible;visibility:visible;fill:url(#linearGradient1597);fill-opacity:1;fill-rule:nonzero;stroke:none;stroke-width:1.57993;stroke-linecap:round;stroke-linejoin:miter;stroke-miterlimit:4;stroke-dasharray:none;stroke-dashoffset:0;stroke-opacity:1;marker:none;enable-background:accumulate" />
  <path
     style="opacity:0.54;fill:url(#radialGradient1044);fill-opacity:1;stroke:none;stroke-width:0.0289648;stroke-linecap:round;stroke-linejoin:round;stroke-miterlimit:4;stroke-dasharray:none;stroke-dashoffset:0;stroke-opacity:0.137363;paint-order:fill markers stroke"
     id="path1036"
     sodipodi:type="arc"
     sodipodi:cx="-8.4897156"
     sodipodi:cy="55.5182"
     sodipodi:rx="5.5485578"
     sodipodi:ry="7.2077498"
     sodipodi:start="0"
     sodipodi:end="6.2799564"
     sodipodi:open="true"
     d="m -2.9411578,55.5182 a 5.5485578,7.2077498 0 0 1 -5.5440788,7.207747 5.5485578,7.2077498 0 0 1 -5.5530294,-7.196111 5.5485578,7.2077498 0 0 1 5.5351136,-7.219365 5.5485578,7.2077498 0 0 1 5.5619657,7.184456"
     transform="matrix(0.9122805,-0.40956598,0.57869735,0.81554238,0,0)"
     sodipodi:arc-type="arc" />
  <path
     style="opacity:0.308;fill:url(#radialGradient1066);fill-opacity:1;stroke:none;stroke-width:0.0275998;stroke-linecap:round;stroke-linejoin:round;stroke-miterlimit:4;stroke-dasharray:none;stroke-dashoffset:0;stroke-opacity:0.137363;paint-order:fill markers stroke"
     id="path1058"
     sodipodi:type="arc"
     sodipodi:cx="26.008101"
     sodipodi:cy="44.382805"
     sodipodi:rx="6.0339832"
     sodipodi:ry="2.9788854"
     sodipodi:start="0"
     sodipodi:end="6.2799564"
     sodipodi:open="true"
     d="m 32.042084,44.382805 a 6.0339832,2.9788854 0 0 1 -6.029113,2.978884 6.0339832,2.9788854 0 0 1 -6.038846,-2.974075 6.0339832,2.9788854 0 0 1 6.019363,-2.983686 6.0339832,2.9788854 0 0 1 6.048564,2.969258"
     transform="matrix(0.95047489,-0.31080135,0.4135787,0.91046837,0,0)"
     sodipodi:arc-type="arc" />
  <path
     transform="matrix(0.84787574,-0.53019499,0.23110697,0.97292835,0,0)"
     d="m 19.371924,40.271557 a 5.9171987,4.6633987 0 0 1 -5.912422,4.663397 5.9171987,4.6633987 0 0 1 -5.9219677,-4.655868 5.9171987,4.6633987 0 0 1 5.9028617,-4.670914 5.9171987,4.6633987 0 0 1 5.931497,4.648327"
     sodipodi:open="true"
     sodipodi:end="6.2799564"
     sodipodi:start="0"
     sodipodi:ry="4.6633987"
     sodipodi:rx="5.9171987"
     sodipodi:cy="40.271557"
     sodipodi:cx="13.454725"
     sodipodi:type="arc"
     id="path1068"
     style="opacity:0.268;fill:url(#radialGradient1070);fill-opacity:1;stroke:none;stroke-width:0.0341969;stroke-linecap:round;stroke-linejoin:round;stroke-miterlimit:4;stroke-dasharray:none;stroke-dashoffset:0;stroke-opacity:0.137363;paint-order:fill markers stroke"
     sodipodi:arc-type="arc" />
  <path
     style="opacity:0.482;fill:url(#radialGradient1074);fill-opacity:1;stroke:none;stroke-width:0.0258356;stroke-linecap:round;stroke-linejoin:round;stroke-miterlimit:4;stroke-dasharray:none;stroke-dashoffset:0;stroke-opacity:0.137363;paint-order:fill markers stroke"
     id="path1072"
     sodipodi:type="arc"
     sodipodi:cx="44.27346"
     sodipodi:cy="29.804846"
     sodipodi:rx="5.3496003"
     sodipodi:ry="2.9442096"
     sodipodi:start="0"
     sodipodi:end="6.2799564"
     sodipodi:open="true"
     d="m 49.623061,29.804846 a 5.3496003,2.9442096 0 0 1 -5.345282,2.944208 5.3496003,2.9442096 0 0 1 -5.353912,-2.939455 5.3496003,2.9442096 0 0 1 5.336638,-2.948954 5.3496003,2.9442096 0 0 1 5.362528,2.934694"
     transform="matrix(0.94060264,0.33950947,-0.43659641,0.89965748,0,0)"
     sodipodi:arc-type="arc" />
  <path
     transform="matrix(0.11857029,0.99294566,-0.98350213,-0.18089654,0,0)"
     d="m 34.407048,-29.598614 a 5.5487738,6.1511097 0 0 1 -5.544294,6.151108 5.5487738,6.1511097 0 0 1 -5.553246,-6.141177 5.5487738,6.1511097 0 0 1 5.535329,-6.161022 5.5487738,6.1511097 0 0 1 5.562182,6.13123"
     sodipodi:open="true"
     sodipodi:end="6.2799564"
     sodipodi:start="0"
     sodipodi:ry="6.1511097"
     sodipodi:rx="5.5487738"
     sodipodi:cy="-29.598614"
     sodipodi:cx="28.858274"
     sodipodi:type="arc"
     id="path1086"
     style="opacity:0.134;fill:url(#radialGradient1088);fill-opacity:1;stroke:none;stroke-width:0.0632973;stroke-linecap:round;stroke-linejoin:round;stroke-miterlimit:4;stroke-dasharray:none;stroke-dashoffset:0;stroke-opacity:0.137363;paint-order:fill markers stroke"
     sodipodi:arc-type="arc" />
  <path
     style="opacity:0.17;fill:url(#radialGradient1092);fill-opacity:1;stroke:none;stroke-width:0.0450547;stroke-linecap:round;stroke-linejoin:round;stroke-miterlimit:4;stroke-dasharray:none;stroke-dashoffset:0;stroke-opacity:0.137363;paint-order:fill markers stroke"
     id="path1090"
     sodipodi:type="arc"
     sodipodi:cx="63.871113"
     sodipodi:cy="-4.0149956"
     sodipodi:rx="2.8910451"
     sodipodi:ry="5.9813371"
     sodipodi:start="0"
     sodipodi:end="6.2799564"
     sodipodi:open="true"
     d="m 66.762158,-4.0149956 a 2.8910451,5.9813371 0 0 1 -2.888711,5.9813351 2.8910451,5.9813371 0 0 1 -2.893376,-5.9716785 2.8910451,5.9813371 0 0 1 2.884041,-5.9909761 2.8910451,5.9813371 0 0 1 2.898031,5.9620064"
     transform="matrix(0.55851879,0.82949187,-0.88527072,0.46507608,0,0)"
     sodipodi:arc-type="arc" />
  <path
     transform="matrix(-0.67961529,0.73356872,-0.70056387,-0.7135897,0,0)"
     d="m 16.34419,-53.419121 a 2.2473595,4.6136394 0 0 1 -2.245546,4.613638 2.2473595,4.6136394 0 0 1 -2.24917,-4.606189 2.2473595,4.6136394 0 0 1 2.241914,-4.621075 2.2473595,4.6136394 0 0 1 2.25279,4.598729"
     sodipodi:open="true"
     sodipodi:end="6.2799564"
     sodipodi:start="0"
     sodipodi:ry="4.6136394"
     sodipodi:rx="2.2473595"
     sodipodi:cy="-53.419121"
     sodipodi:cx="14.09683"
     sodipodi:type="arc"
     id="path1094"
     style="opacity:0.058;fill:url(#radialGradient1096);fill-opacity:1;stroke:none;stroke-width:0.034846;stroke-linecap:round;stroke-linejoin:round;stroke-miterlimit:4;stroke-dasharray:none;stroke-dashoffset:0;stroke-opacity:0.137363;paint-order:fill markers stroke"
     sodipodi:arc-type="arc" />
  <path
     style="opacity:0.091;fill:url(#radialGradient1100);fill-opacity:1;stroke:none;stroke-width:0.0349568;stroke-linecap:round;stroke-linejoin:round;stroke-miterlimit:4;stroke-dasharray:none;stroke-dashoffset:0;stroke-opacity:0.137363;paint-order:fill markers stroke"
     id="path1098"
     sodipodi:type="arc"
     sodipodi:cx="47.998684"
     sodipodi:cy="-25.94364"
     sodipodi:rx="2.2044768"
     sodipodi:ry="4.7220802"
     sodipodi:start="0"
     sodipodi:end="6.2799564"
     sodipodi:open="true"
     d="m 50.203161,-25.94364 a 2.2044768,4.7220802 0 0 1 -2.202698,4.722079 2.2044768,4.7220802 0 0 1 -2.206253,-4.714455 2.2044768,4.7220802 0 0 1 2.199135,-4.72969 2.2044768,4.7220802 0 0 1 2.209804,4.706819"
     transform="matrix(0.14903128,0.98883248,-0.99881014,0.0487679,0,0)"
     sodipodi:arc-type="arc" />
  <path
     style="opacity:0.246;fill:url(#radialGradient1110);fill-opacity:1;stroke:none;stroke-width:0.0305922;stroke-linecap:round;stroke-linejoin:round;stroke-miterlimit:4;stroke-dasharray:none;stroke-dashoffset:0;stroke-opacity:0.137363;paint-order:fill markers stroke"
     id="path1102"
     sodipodi:type="arc"
     sodipodi:cx="28.75416"
     sodipodi:cy="36.36076"
     sodipodi:rx="3.1803524"
     sodipodi:ry="3.4231477"
     sodipodi:start="0"
     sodipodi:end="6.2799564"
     sodipodi:open="true"
     d="m 31.934512,36.36076 a 3.1803524,3.4231477 0 0 1 -3.177785,3.423146 3.1803524,3.4231477 0 0 1 -3.182915,-3.41762 3.1803524,3.4231477 0 0 1 3.172646,-3.428664 3.1803524,3.4231477 0 0 1 3.188038,3.412085"
     sodipodi:arc-type="arc" />
  <path
     d="m 51.14921,19.786041 a 2.4005415,3.8912499 0 0 1 -2.398604,3.891249 2.4005415,3.8912499 0 0 1 -2.402476,-3.884967 2.4005415,3.8912499 0 0 1 2.394725,-3.89752 2.4005415,3.8912499 0 0 1 2.406343,3.878674"
     sodipodi:open="true"
     sodipodi:end="6.2799564"
     sodipodi:start="0"
     sodipodi:ry="3.8912499"
     sodipodi:rx="2.4005415"
     sodipodi:cy="19.786041"
     sodipodi:cx="48.748669"
     sodipodi:type="arc"
     id="path1112"
     style="opacity:0.207;fill:url(#radialGradient1114);fill-opacity:1;stroke:none;stroke-width:0.0283372;stroke-linecap:round;stroke-linejoin:round;stroke-miterlimit:4;stroke-dasharray:none;stroke-dashoffset:0;stroke-opacity:0.137363;paint-order:fill markers stroke"
     transform="matrix(0.76066428,0.64914548,-0.81700923,0.57662458,0,0)"
     sodipodi:arc-type="arc" />
  <path
     transform="matrix(0.64631096,0.76307414,-0.71548745,0.69862559,0,0)"
     style="opacity:0.232;fill:url(#radialGradient1118);fill-opacity:1;stroke:none;stroke-width:0.0245195;stroke-linecap:round;stroke-linejoin:round;stroke-miterlimit:4;stroke-dasharray:none;stroke-dashoffset:0;stroke-opacity:0.137363;paint-order:fill markers stroke"
     id="path1116"
     sodipodi:type="arc"
     sodipodi:cx="32.544147"
     sodipodi:cy="5.4461088"
     sodipodi:rx="2.1087558"
     sodipodi:ry="3.3164961"
     sodipodi:start="0"
     sodipodi:end="6.2799564"
     sodipodi:open="true"
     d="M 34.652903,5.4461088 A 2.1087558,3.3164961 0 0 1 32.54585,8.7626039 2.1087558,3.3164961 0 0 1 30.435394,5.4514631 2.1087558,3.3164961 0 0 1 32.539041,2.1296224 2.1087558,3.3164961 0 0 1 34.652892,5.4354002"
     sodipodi:arc-type="arc" />
  <path
     transform="matrix(0.69057543,0.72326038,-0.75587668,0.65471402,0,0)"
     style="opacity:0.225;fill:url(#radialGradient1122);fill-opacity:1;stroke:none;stroke-width:0.021577;stroke-linecap:round;stroke-linejoin:round;stroke-miterlimit:4;stroke-dasharray:none;stroke-dashoffset:0;stroke-opacity:0.137363;paint-order:fill markers stroke"
     id="path1120"
     sodipodi:type="arc"
     sodipodi:cx="39.230522"
     sodipodi:cy="-9.816288"
     sodipodi:rx="1.8451865"
     sodipodi:ry="2.9350421"
     sodipodi:start="0"
     sodipodi:end="6.2799564"
     sodipodi:open="true"
     d="m 41.075709,-9.816288 a 1.8451865,2.9350421 0 0 1 -1.843697,2.9350412 1.8451865,2.9350421 0 0 1 -1.846674,-2.9303027 1.8451865,2.9350421 0 0 1 1.840716,-2.9397725 1.8451865,2.9350421 0 0 1 1.849645,2.925557"
     sodipodi:arc-type="arc" />
  <path
     d="m 38.572214,-7.509891 a 1.8451865,2.9350421 0 0 1 -1.843697,2.9350412 1.8451865,2.9350421 0 0 1 -1.846673,-2.9303027 1.8451865,2.9350421 0 0 1 1.840715,-2.9397725 1.8451865,2.9350421 0 0 1 1.849646,2.925557"
     sodipodi:open="true"
     sodipodi:end="6.2799564"
     sodipodi:start="0"
     sodipodi:ry="2.9350421"
     sodipodi:rx="1.8451865"
     sodipodi:cy="-7.509891"
     sodipodi:cx="36.727028"
     sodipodi:type="arc"
     id="path1124"
     style="opacity:0.225;fill:url(#radialGradient1126);fill-opacity:1;stroke:none;stroke-width:0.021577;stroke-linecap:round;stroke-linejoin:round;stroke-miterlimit:4;stroke-dasharray:none;stroke-dashoffset:0;stroke-opacity:0.137363;paint-order:fill markers stroke"
     transform="matrix(0.69057543,0.72326038,-0.75587668,0.65471402,0,0)"
     sodipodi:arc-type="arc" />
  <path
     transform="matrix(0.63092729,0.77584197,-0.70113018,0.71303329,0,0)"
     style="opacity:0.094;fill:url(#radialGradient1130);fill-opacity:1;stroke:none;stroke-width:0.0245408;stroke-linecap:round;stroke-linejoin:round;stroke-miterlimit:4;stroke-dasharray:none;stroke-dashoffset:0;stroke-opacity:0.137363;paint-order:fill markers stroke"
     id="path1128"
     sodipodi:type="arc"
     sodipodi:cx="44.78236"
     sodipodi:cy="-12.044994"
     sodipodi:rx="2.1146185"
     sodipodi:ry="3.3130381"
     sodipodi:start="0"
     sodipodi:end="6.2799564"
     sodipodi:open="true"
     d="m 46.896979,-12.044994 a 2.1146185,3.3130381 0 0 1 -2.112912,3.3130367 2.1146185,3.3130381 0 0 1 -2.116323,-3.3076887 2.1146185,3.3130381 0 0 1 2.109495,-3.318377 2.1146185,3.3130381 0 0 1 2.119729,3.302331"
     sodipodi:arc-type="arc" />
  <path
     transform="matrix(0.93760434,-0.34770405,0.37182245,0.92830386,0,0)"
     d="m 38.909662,37.303501 a 6.2870083,3.4056129 0 0 1 -6.281933,3.405612 6.2870083,3.4056129 0 0 1 -6.292075,-3.400114 6.2870083,3.4056129 0 0 1 6.271775,-3.411101 6.2870083,3.4056129 0 0 1 6.3022,3.394607"
     sodipodi:open="true"
     sodipodi:end="6.2799564"
     sodipodi:start="0"
     sodipodi:ry="3.4056129"
     sodipodi:rx="6.2870083"
     sodipodi:cy="37.303501"
     sodipodi:cx="32.622654"
     sodipodi:type="arc"
     id="path1138"
     style="opacity:0.351;fill:url(#radialGradient1140);fill-opacity:1;stroke:none;stroke-width:0.0301229;stroke-linecap:round;stroke-linejoin:round;stroke-miterlimit:4;stroke-dasharray:none;stroke-dashoffset:0;stroke-opacity:0.137363;paint-order:fill markers stroke"
     sodipodi:arc-type="arc" />
  <path
     style="opacity:0.362;fill:url(#linearGradient1626);fill-opacity:1;stroke:none;stroke-width:0.0158035;stroke-linecap:round;stroke-linejoin:round;stroke-miterlimit:4;stroke-dasharray:none;stroke-dashoffset:0;stroke-opacity:0.137363;paint-order:fill markers stroke"
     id="path1142"
     sodipodi:type="arc"
     sodipodi:cx="17.90181"
     sodipodi:cy="34.961895"
     sodipodi:rx="8.0856819"
     sodipodi:ry="4.9798045"
     sodipodi:start="0"
     sodipodi:end="6.2799564"
     sodipodi:open="true"
     d="m 25.987492,34.961895 a 8.0856819,4.9798045 0 0 1 -8.079155,4.979803 8.0856819,4.9798045 0 0 1 -8.0921987,-4.971763 8.0856819,4.9798045 0 0 1 8.0660907,-4.98783 8.0856819,4.9798045 0 0 1 8.10522,4.963711"
     transform="matrix(0.93027527,-0.36686227,0.39609212,0.91821078,0,0)"
     sodipodi:arc-type="arc" />
  <path
     transform="matrix(0.99326802,0.11583888,-0.19816522,0.98016863,0,0)"
     d="m 52.212988,36.457695 a 2.9810624,5.786478 0 0 1 -2.978656,5.786476 2.9810624,5.786478 0 0 1 -2.983465,-5.777134 2.9810624,5.786478 0 0 1 2.97384,-5.795803 2.9810624,5.786478 0 0 1 2.988266,5.767777"
     sodipodi:open="true"
     sodipodi:end="6.2799564"
     sodipodi:start="0"
     sodipodi:ry="5.786478"
     sodipodi:rx="2.9810624"
     sodipodi:cy="36.457695"
     sodipodi:cx="49.231926"
     sodipodi:type="arc"
     id="path1616"
     style="opacity:0.101;fill:url(#radialGradient1618);fill-opacity:1;stroke:none;stroke-width:0.0449397;stroke-linecap:round;stroke-linejoin:round;stroke-miterlimit:4;stroke-dasharray:none;stroke-dashoffset:0;stroke-opacity:0.137363;paint-order:fill markers stroke"
     sodipodi:arc-type="arc" />
  <path
     style="color:#000000;display:inline;overflow:visible;visibility:visible;opacity:0.279;fill:url(#radialGradient1631);fill-opacity:1;fill-rule:nonzero;stroke:none;stroke-width:1.57993;stroke-linecap:round;stroke-linejoin:miter;stroke-miterlimit:4;stroke-dasharray:none;stroke-dashoffset:0;stroke-opacity:1;marker:none;enable-background:accumulate"
     d="m 12,13.485978 4.78843,37.271764 c -1e-5,3.447331 6.81946,6.242141 15.2323,6.242141 8.41284,0 15.23308,-2.79481 15.23307,-6.242141 l 4.74579,-37.271764 c -9e-4,2.640094 -8.95489,4.780166 -19.99979,4.78015 C 20.95489,18.266144 12.00094,16.126072 12,13.485978 Z m 39.99959,0 c 0,-0.10363 -0.0179,-0.206357 -0.0456,-0.308323 0.0297,0.102679 0.0442,0.205454 0.0456,0.308323 z"
     id="path1629"
     inkscape:connector-curvature="0"
     sodipodi:nodetypes="ccsccscccc" />
  <path
     style="opacity:0.279;fill:url(#radialGradient1647);fill-opacity:1;stroke:none;stroke-width:0.0157994;stroke-linecap:round;stroke-linejoin:round;stroke-miterlimit:4;stroke-dasharray:none;stroke-dashoffset:0;stroke-opacity:0.137363;paint-order:fill markers stroke"
     d="m 25.69702,50.757742 a 8.9301251,4.2750637 0 0 0 -7.86538,2.274363 c 2.21855,2.322675 7.73473,3.967858 14.18908,3.967858 0.55935,0 1.11141,-0.01268 1.65511,-0.03676 a 8.9301251,4.2750637 0 0 0 0.97276,-1.930371 v -0.01426 a 8.9301251,4.2750637 0 0 0 -8.95157,-4.2613 z"
     id="path1639"
     inkscape:connector-curvature="0" />
</svg>
