<?xml version="1.0" encoding="UTF-8" standalone="no"?>
<svg
   width="32"
   height="32"
   version="1.1"
   id="svg2"
   sodipodi:docname="input-keyboard-brightness.svg"
   inkscape:version="1.3.2 (091e20ef0f, 2023-11-25)"
   xmlns:inkscape="http://www.inkscape.org/namespaces/inkscape"
   xmlns:sodipodi="http://sodipodi.sourceforge.net/DTD/sodipodi-0.dtd"
   xmlns:xlink="http://www.w3.org/1999/xlink"
   xmlns="http://www.w3.org/2000/svg"
   xmlns:svg="http://www.w3.org/2000/svg">
  <defs
     id="defs2">
    <linearGradient
       inkscape:collect="always"
       xlink:href="#linearGradient54"
       id="linearGradient55"
       x1="6"
       y1="-15.999923"
       x2="26"
       y2="-15.999923"
       gradientUnits="userSpaceOnUse" />
    <linearGradient
       id="linearGradient54"
       inkscape:collect="always">
      <stop
         style="stop-color:#ff00ff;stop-opacity:1"
         offset="0"
         id="stop54" />
      <stop
         style="stop-color:#ffd42a;stop-opacity:1"
         offset="1"
         id="stop55" />
    </linearGradient>
  </defs>
  <sodipodi:namedview
     id="namedview2"
     pagecolor="#ffffff"
     bordercolor="#999999"
     borderopacity="1"
     inkscape:showpageshadow="2"
     inkscape:pageopacity="0"
     inkscape:pagecheckerboard="0"
     inkscape:deskcolor="#d1d1d1"
     inkscape:zoom="8.4189901"
     inkscape:cx="16.272736"
     inkscape:cy="16.391515"
     inkscape:window-width="1920"
     inkscape:window-height="994"
     inkscape:window-x="0"
     inkscape:window-y="0"
     inkscape:window-maximized="1"
     inkscape:current-layer="svg2" />
  <style
     type="text/css"
     id="current-color-scheme">.ColorScheme-Text{color:#31363b;}.ColorScheme-Background{color:#eff0f1;}.ColorScheme-Highlight{color:#3daee9;}.ColorScheme-ViewText{color:#31363b;}.ColorScheme-ViewBackground{color:#fcfcfc;}.ColorScheme-ViewHover{color:#93cee9;}.ColorScheme-ViewFocus{color:#3daee9;}.ColorScheme-ButtonText{color:#31363b;}.ColorScheme-ButtonBackground{color:#eff0f1;}.ColorScheme-ButtonHover{color:#93cee9;}.ColorScheme-ButtonFocus { color: #3daee9; } </style>
  <g
     id="input-keyboard-brightness"
     transform="translate(0,31.999996)">
    <rect
       ry="0"
       y="-31.999996"
       x="0"
       height="32"
       width="32"
       id="rect4266"
       style="fill:none" />
    <path
       inkscape:connector-curvature="0"
       id="path880-8-6-6"
       d="m 6,-25.999996 v 15.9999962 c 0,1 1,2 2,2.50015 l 8,3.5 8,-3.57415 c 1,-0.426 2,-1.426 2,-2.5452602 v -15.880736 0 c 0,-1 -1,-2 -2,-2 l -16.01358,1.5e-4 C 7,-27.999996 6,-26.999996 6,-25.999996 Z m 1,0.44561 c 0,-1.02834 0.40186,-1.44561 1.55566,-1.44561 l 14.92805,1.4e-4 c 0.99312,-1.4e-4 1.51629,0.46569 1.51629,1.47602 v 0 V -13 c 0,2 0,2 -2.08525,2.00013 L 9,-11 c -2,0 -2,0 -2,-2 z m 8.40625,1.55454 L 11,-13.99985 h 1.30078 l 1.32227,-3 h 4.72265 l 1.34961,3 H 21 l -4.5,-9.999996 z m 0.55273,1.695311 1.9375,4.304689 H 14.0625 Z M 7,-9.9998498 h 18 c 0,0.99985 -1,0.99985 -2,0.99985 H 9 c -1,0 -2,0 -2,-0.99985 z"
       style="color:#d1d5e9;fill:url(#linearGradient55);fill-opacity:1;stroke:none"
       sodipodi:nodetypes="ccccccccccccccccccccccccccccccccccccccc"
       class="ColorScheme-Text" />
    <path
       style="fill:#ffcc00;fill-opacity:1;stroke:none;stroke-width:0.6"
       d="m 20.87763,-26.031886 c -0.1662,0 -0.3,0.1338 -0.3,0.3 v 0.6 c 0,0.1662 0.1338,0.3 0.3,0.3 0.1662,0 0.3,-0.1338 0.3,-0.3 v -0.6 c 0,-0.1662 -0.1338,-0.3 -0.3,-0.3 z m -1.90898,0.79101 c -0.0767,0 -0.15335,0.0291 -0.21212,0.0879 -0.11752,0.11752 -0.11752,0.3067 0,0.42422 l 0.42422,0.42422 c 0.11752,0.11752 0.3067,0.11752 0.42423,0 0.11751,-0.11752 0.11751,-0.30671 0,-0.42422 l -0.42423,-0.42422 c -0.0587,-0.0587 -0.13542,-0.0879 -0.2121,-0.0879 z m 3.81796,0 c -0.0767,0 -0.15334,0.0291 -0.21211,0.0879 l -0.42422,0.42422 c -0.11751,0.11751 -0.11751,0.3067 0,0.42422 0.11753,0.11752 0.30671,0.11752 0.42422,0 l 0.42423,-0.42422 c 0.11751,-0.11752 0.11751,-0.3067 0,-0.42422 -0.0587,-0.0587 -0.13543,-0.0879 -0.21212,-0.0879 z m -1.90898,1.00899 c -0.66274,0 -1.2,0.53726 -1.2,1.200001 0,0.66274 0.53726,1.199999 1.2,1.199999 0.66274,0 1.2,-0.537259 1.2,-1.199999 0,-0.662741 -0.53726,-1.200001 -1.2,-1.200001 z m 0,0.6 v 1.200001 c -0.33137,0 -0.6,-0.26863 -0.6,-0.6 0,-0.33137 0.26863,-0.600001 0.6,-0.600001 z m -2.7,0.300001 c -0.1662,0 -0.3,0.1338 -0.3,0.3 0,0.1662 0.1338,0.3 0.3,0.3 h 0.6 c 0.1662,0 0.3,-0.1338 0.3,-0.3 0,-0.1662 -0.1338,-0.3 -0.3,-0.3 z m 4.8,0 c -0.1662,0 -0.3,0.1338 -0.3,0.3 0,0.1662 0.1338,0.3 0.3,0.3 h 0.6 c 0.1662,0 0.3,-0.1338 0.3,-0.3 0,-0.1662 -0.1338,-0.3 -0.3,-0.3 z m -3.58477,1.484759 c -0.0767,0 -0.15334,0.0291 -0.21211,0.0879 l -0.42422,0.42423 c -0.11752,0.11751 -0.11752,0.30669 0,0.42422 0.11753,0.11752 0.30671,0.11752 0.42422,0 l 0.42423,-0.42422 c 0.11751,-0.11752 0.11751,-0.3067 0,-0.42423 -0.0587,-0.0587 -0.13543,-0.0879 -0.21212,-0.0879 z m 2.96954,0 c -0.0767,0 -0.15335,0.0291 -0.21212,0.0879 -0.11751,0.11753 -0.11751,0.30671 0,0.42423 l 0.42422,0.42422 c 0.11752,0.11752 0.3067,0.11752 0.42423,0 0.11751,-0.11753 0.11751,-0.30671 0,-0.42422 l -0.42423,-0.42423 c -0.0587,-0.0587 -0.13542,-0.0879 -0.2121,-0.0879 z m -1.48477,0.61524 c -0.1662,0 -0.3,0.1338 -0.3,0.3 v 0.6 c 0,0.1662 0.1338,0.3 0.3,0.3 0.1662,0 0.3,-0.1338 0.3,-0.3 v -0.6 c 0,-0.1662 -0.1338,-0.3 -0.3,-0.3 z"
       id="path4274-9-2-3"
       inkscape:connector-curvature="0" />
  </g>
</svg>
