<?xml version="1.0" encoding="UTF-8" standalone="no"?>
<svg
   width="22"
   height="22"
   version="1.1"
   id="svg1"
   sodipodi:docname="software-updates-updates.svg"
   inkscape:version="1.3.2 (091e20ef0f, 2023-11-25)"
   xmlns:inkscape="http://www.inkscape.org/namespaces/inkscape"
   xmlns:sodipodi="http://sodipodi.sourceforge.net/DTD/sodipodi-0.dtd"
   xmlns="http://www.w3.org/2000/svg"
   xmlns:svg="http://www.w3.org/2000/svg">
  <defs
     id="defs1" />
  <sodipodi:namedview
     id="namedview1"
     pagecolor="#ffffff"
     bordercolor="#999999"
     borderopacity="1"
     inkscape:showpageshadow="2"
     inkscape:pageopacity="0"
     inkscape:pagecheckerboard="0"
     inkscape:deskcolor="#d1d1d1"
     inkscape:zoom="12.245804"
     inkscape:cx="11.269166"
     inkscape:cy="11.432488"
     inkscape:window-width="1920"
     inkscape:window-height="994"
     inkscape:window-x="0"
     inkscape:window-y="0"
     inkscape:window-maximized="1"
     inkscape:current-layer="svg1" />
  <style
     type="text/css"
     id="current-color-scheme">.ColorScheme-Text{color:#31363b;}.ColorScheme-Background{color:#eff0f1;}.ColorScheme-Highlight{color:#3daee9;}.ColorScheme-ViewText{color:#31363b;}.ColorScheme-ViewBackground{color:#fcfcfc;}.ColorScheme-ViewHover{color:#93cee9;}.ColorScheme-ViewFocus{color:#3daee9;}.ColorScheme-ButtonText{color:#31363b;}.ColorScheme-ButtonBackground{color:#eff0f1;}.ColorScheme-ButtonHover{color:#93cee9;}.ColorScheme-ButtonFocus { color: #3daee9; } </style>
  <g
     id="software-updates-updates"
     transform="translate(-30.002001,0.06300354)">
    <rect
       id="rect4210"
       width="22"
       height="22"
       x="30.002001"
       y="-0.06300354"
       style="opacity:0;fill:#7a0000;fill-opacity:1;stroke:none;stroke-opacity:1" />
    <g
       transform="translate(-711.99822,233.90926)"
       inkscape:label="emblem-synchronizing"
       id="g8719"
       style="display:inline;enable-background:new">
      <rect
         y="214.97226"
         x="-761.00024"
         height="16"
         width="16"
         id="rect8710"
         style="color:#bebebe;display:inline;overflow:visible;visibility:visible;fill:none;stroke:none;stroke-width:1;marker:none"
         transform="scale(-1)" />
    </g>
    <path
       d="m 46.795867,6.1013145 -0.780134,3.595034 0.961381,-0.405173 c 0.545573,2.0631925 0.01105,4.3645115 -1.61892,5.9940895 -1.668669,1.668677 -4.044626,2.198245 -6.146908,1.586928 l -1.423442,1.423431 c 2.919747,1.249285 6.452571,0.673526 8.853409,-1.727311 2.16982,-2.169821 2.843325,-5.265495 2.029419,-7.9968605 l 1.046704,-0.440712 z m -11.75361,6.4827785 c -0.545564,-2.063191 -0.01067,-4.3645035 1.618918,-5.9940835 1.668679,-1.668676 4.044643,-2.198246 6.146916,-1.586931 l 1.423452,-1.423441 C 41.313568,2.3285745 37.778959,2.9043465 35.378125,5.3051825 33.20831,7.4749955 32.534799,10.57066 33.3487,13.30203 l -1.046699,0.440725 2.921519,2.029429 0.780136,-3.595034 z"
       id="path4-9"
       style="fill:#80ffff;fill-opacity:1;stroke-width:0.0177712" />
    <path
       inkscape:connector-curvature="0"
       id="path4167"
       d="m 40.9835,7.1669965 3.833501,3.8334985 h -1.91675 v 3.833501 h -3.8335 v -3.833501 h -1.91675 l 1.91675,-1.9167485 z"
       style="color:#eff0f1;fill:#00e5e5;fill-opacity:1;stroke:none;stroke-width:1.91675"
       class="ColorScheme-Background" />
  </g>
</svg>
