<?xml version="1.0" encoding="UTF-8" standalone="no"?>
<svg
   width="36"
   version="1.1"
   height="36"
   id="svg17"
   sodipodi:docname="folder.svg"
   inkscape:version="1.3.1 (91b66b0783, 2023-11-16)"
   xmlns:inkscape="http://www.inkscape.org/namespaces/inkscape"
   xmlns:sodipodi="http://sodipodi.sourceforge.net/DTD/sodipodi-0.dtd"
   xmlns:xlink="http://www.w3.org/1999/xlink"
   xmlns="http://www.w3.org/2000/svg"
   xmlns:svg="http://www.w3.org/2000/svg"
   xmlns:rdf="http://www.w3.org/1999/02/22-rdf-syntax-ns#"
   xmlns:cc="http://creativecommons.org/ns#"
   xmlns:dc="http://purl.org/dc/elements/1.1/">
  <sodipodi:namedview
     pagecolor="#ffffff"
     bordercolor="#666666"
     borderopacity="1"
     objecttolerance="10"
     gridtolerance="10"
     guidetolerance="10"
     inkscape:pageopacity="0"
     inkscape:pageshadow="2"
     inkscape:window-width="1920"
     inkscape:window-height="994"
     id="namedview19"
     showgrid="true"
     inkscape:zoom="8.1226035"
     inkscape:cx="18.774768"
     inkscape:cy="14.835145"
     inkscape:window-x="0"
     inkscape:window-y="0"
     inkscape:window-maximized="1"
     inkscape:current-layer="layer1"
     inkscape:document-rotation="0"
     inkscape:showpageshadow="2"
     inkscape:pagecheckerboard="0"
     inkscape:deskcolor="#d1d1d1"
     showguides="true">
    <inkscape:grid
       id="grid1"
       units="px"
       originx="2.7755576e-17"
       originy="0"
       spacingx="1"
       spacingy="1"
       empcolor="#0099e5"
       empopacity="0.30196078"
       color="#0099e5"
       opacity="0.14901961"
       empspacing="5"
       dotted="false"
       gridanglex="30"
       gridanglez="30"
       visible="true" />
  </sodipodi:namedview>
  <defs
     id="defs5455">
    <linearGradient
       id="linearGradient1"
       inkscape:collect="always">
      <stop
         style="stop-color:#00ccff;stop-opacity:1"
         offset="0"
         id="stop7" />
      <stop
         style="stop-color:#5599ff;stop-opacity:1"
         offset="1"
         id="stop8" />
    </linearGradient>
    <clipPath
       clipPathUnits="userSpaceOnUse"
       id="clipPath79425-9-5-3">
      <rect
         style="opacity:0.5;fill:#000000;fill-opacity:1;stroke:none;stroke-width:0.855869;stroke-dasharray:none;stroke-opacity:1;paint-order:stroke fill markers"
         id="rect79427-1-9-6"
         width="26.417742"
         height="29.037542"
         x="-16.227774"
         y="-6.4845476" />
    </clipPath>
    <clipPath
       clipPathUnits="userSpaceOnUse"
       id="clipPath79425-9-5-5">
      <rect
         style="opacity:0.5;fill:#000000;fill-opacity:1;stroke:none;stroke-width:0.855869;stroke-dasharray:none;stroke-opacity:1;paint-order:stroke fill markers"
         id="rect79427-1-9-62"
         width="26.417742"
         height="29.037542"
         x="-16.227774"
         y="-6.4845476" />
    </clipPath>
    <linearGradient
       id="New_Gradient_Swatch_3"
       gradientUnits="userSpaceOnUse"
       x1="256"
       x2="256"
       y1="56.152"
       y2="455.849"
       gradientTransform="matrix(0.12406948,0,0,0.11508628,384.80964,486.3357)">
      <stop
         offset="0"
         stop-color="#5ee4ff"
         id="stop1"
         style="stop-color:#b380ff;stop-opacity:1" />
      <stop
         offset=".094"
         stop-color="#5ad9f9"
         id="stop2"
         style="stop-color:#9955ff;stop-opacity:1" />
      <stop
         offset=".26"
         stop-color="#4ebbea"
         id="stop3"
         style="stop-color:#6600ff;stop-opacity:1" />
      <stop
         offset=".479"
         stop-color="#3a8bd1"
         id="stop4"
         style="stop-opacity:1;stop-color:#8d5fd3" />
      <stop
         offset=".739"
         stop-color="#1f49ae"
         id="stop5"
         style="stop-color:#ffb380;stop-opacity:1" />
      <stop
         offset="1"
         stop-color="#020088"
         id="stop6"
         style="stop-color:#ff66ff;stop-opacity:1;" />
    </linearGradient>
    <linearGradient
       inkscape:collect="always"
       xlink:href="#linearGradient3"
       id="linearGradient17"
       x1="392.57144"
       y1="536.79797"
       x2="444.57144"
       y2="507.798"
       gradientUnits="userSpaceOnUse"
       gradientTransform="matrix(0.4937764,0,0,0.86206901,195.90313,51.541084)" />
    <linearGradient
       id="linearGradient3"
       inkscape:collect="always">
      <stop
         style="stop-color:#66e0ff;stop-opacity:1;"
         offset="0"
         id="stop1-1" />
      <stop
         style="stop-color:#2a7fff;stop-opacity:1"
         offset="0.31127694"
         id="stop3-2" />
      <stop
         style="stop-color:#297eff;stop-opacity:1;"
         offset="1"
         id="stop2-2" />
    </linearGradient>
    <linearGradient
       inkscape:collect="always"
       xlink:href="#linearGradient1"
       id="linearGradient2"
       gradientUnits="userSpaceOnUse"
       gradientTransform="matrix(1.0769231,0,0,1,230.26373,53.798)"
       x1="147"
       y1="462"
       x2="162.78572"
       y2="445" />
  </defs>
  <metadata
     id="metadata5458">
    <rdf:RDF>
      <cc:Work
         rdf:about="">
        <dc:format>image/svg+xml</dc:format>
        <dc:type
           rdf:resource="http://purl.org/dc/dcmitype/StillImage" />
      </cc:Work>
    </rdf:RDF>
  </metadata>
  <g
     inkscape:label="Capa 1"
     inkscape:groupmode="layer"
     id="layer1"
     transform="translate(-384.57143,-483.798)">
    <path
       inkscape:connector-curvature="0"
       id="fill-3"
       d="m 390.2394,490.5049 2e-5,22.71983 c -0.0461,0.49262 -0.11376,0.78206 -0.31799,1.07327 h 24.51303 c 0.62105,0 0.98756,-0.17715 0.98756,-1.71864 V 504.298 l -2,-4 v -7 -2 c 0,-0.5752 -1.2269,-2 -2,-2 h -20.19948 c -0.48935,0 -0.98312,0 -0.98314,1.2069 z"
       style="color:#1e92ff;opacity:0.6;fill:url(#linearGradient17);fill-opacity:0.4;fill-rule:nonzero;stroke:none;stroke-width:5.29537"
       sodipodi:nodetypes="cccccccccccc" />
    <path
       d="m 414.41759,499.505 v -7.707 c 0,-0.796 -0.34031,-1.559 -0.94662,-2.121 -0.60523,-0.563 -1.42692,-0.879 -2.28415,-0.879 h -9.15385 v 0.028 L 401.7702,488.6 c -0.59769,-0.516 -1.38277,-0.802 -2.198,-0.802 h -7.77 c -1.78446,0 -3.23077,1.343 -3.23077,3 v 22 c 0,0.796 0.34031,1.559 0.94662,2.121 0.60523,0.563 1.42692,0.879 2.28415,0.879 h 21.53846 c 0.85723,0 1.67893,-0.316 2.28416,-0.879 0.6063,-0.562 0.94661,-1.325 0.94661,-2.121 V 502.67 c 0,-0.834 -0.37369,-1.631 -1.03277,-2.198 z m 0.15384,3.165 v 10.128 c 0,0.265 -0.26692,0.52 -0.46938,0.707 -0.20139,0.188 -0.476,0.293 -0.76139,0.293 H 391.8022 c -0.28538,0 -0.56,-0.105 -0.76138,-0.293 -0.20247,-0.187 -0.46938,-0.442 -0.46938,-0.707 v -22 c 0,-0.552 0.6363,-1 1.23076,-1 h 7.77 c 0.27139,0 0.53308,0.095 0.73231,0.267 l 13.76846,11.872 c 0.21969,0.19 0.49846,0.455 0.49846,0.733 z m -19,-8.872 z m 8.74785,-3 7.94446,6.85 v -5.85 c 0,-0.265 -0.11308,-0.52 -0.31554,-0.707 -0.20138,-0.188 -0.476,-0.293 -0.76138,-0.293 z m -10.36323,3 h 5.38461 c 0.59446,0 1.07693,-0.448 1.07693,-1 0,-0.552 -0.48247,-1 -1.07693,-1 h -5.38461 c -0.59446,0 -1.07693,0.448 -1.07693,1 0,0.552 0.48247,1 1.07693,1 z"
       id="path1-0-0"
       style="fill:url(#linearGradient2);stroke-width:1.03775"
       sodipodi:nodetypes="cscscccsssscsscssccsscsscssssccscscscccccscscsssssss" />
  </g>
</svg>
