<?xml version="1.0" encoding="UTF-8" standalone="no"?>
<svg
   viewBox="0 0 22 22"
   version="1.1"
   id="svg4"
   sodipodi:docname="folder-black.svg"
   inkscape:version="1.1.1 (3bf5ae0d25, 2021-09-20)"
   xmlns:inkscape="http://www.inkscape.org/namespaces/inkscape"
   xmlns:sodipodi="http://sodipodi.sourceforge.net/DTD/sodipodi-0.dtd"
   xmlns="http://www.w3.org/2000/svg"
   xmlns:svg="http://www.w3.org/2000/svg">
  <defs
     id="defs8" />
  <sodipodi:namedview
     id="namedview6"
     pagecolor="#ffffff"
     bordercolor="#666666"
     borderopacity="1.0"
     inkscape:pageshadow="2"
     inkscape:pageopacity="0.0"
     inkscape:pagecheckerboard="0"
     showgrid="false"
     inkscape:zoom="28.545455"
     inkscape:cx="11"
     inkscape:cy="11"
     inkscape:window-width="1920"
     inkscape:window-height="1007"
     inkscape:window-x="0"
     inkscape:window-y="0"
     inkscape:window-maximized="1"
     inkscape:current-layer="svg4" />
  <path
     d="M5.873 3A2.867 2.867 0 0 0 3 5.873v10.254A2.867 2.867 0 0 0 5.873 19h10.254A2.867 2.867 0 0 0 19 16.127l-.025-8.652a2.857 2.857 0 0 0-2.848-2.618H11.26l-1.12-1.12h-.001l-.479-.48L9.402 3zm.13 1.127h2.669l.73.73.621.622-3.8 3.779H4.127V6.004c0-1.04.837-1.877 1.877-1.877zm11.87 4.11v7.76c0 1.039-.837 1.876-1.877 1.876H6.004a1.873 1.873 0 0 1-1.877-1.877v-5.738H6.652v-.008l.008.008 2-2z"
     id="path2"
     style="fill:#333333;fill-opacity:1" />
</svg>
