<?xml version="1.0" encoding="UTF-8" standalone="no"?>
<svg
   viewBox="0 0 22 22"
   version="1.1"
   id="svg6"
   sodipodi:docname="folder-docker.svg"
   inkscape:version="1.1.1 (3bf5ae0d25, 2021-09-20)"
   xmlns:inkscape="http://www.inkscape.org/namespaces/inkscape"
   xmlns:sodipodi="http://sodipodi.sourceforge.net/DTD/sodipodi-0.dtd"
   xmlns="http://www.w3.org/2000/svg"
   xmlns:svg="http://www.w3.org/2000/svg">
  <sodipodi:namedview
     id="namedview8"
     pagecolor="#ffffff"
     bordercolor="#666666"
     borderopacity="1.0"
     inkscape:pageshadow="2"
     inkscape:pageopacity="0.0"
     inkscape:pagecheckerboard="0"
     showgrid="false"
     inkscape:zoom="28.545455"
     inkscape:cx="11"
     inkscape:cy="11"
     inkscape:window-width="1920"
     inkscape:window-height="1013"
     inkscape:window-x="0"
     inkscape:window-y="0"
     inkscape:window-maximized="1"
     inkscape:current-layer="svg6" />
  <defs
     id="defs3051">
    <style
       type="text/css"
       id="current-color-scheme">
      .ColorScheme-Text {
        color:#232629
      }
      </style>
  </defs>
  <path
     style="fill:#eff0f1;fill-opacity:1"
     d="M 9 5 L 9 7 L 11 7 L 11 5 L 9 5 z M 12 5 L 12 7 L 14 7 L 14 5 L 12 5 z M 16.683594 7.6738281 C 16.047414 8.1098381 15.89541 8.8992212 16.09375 9.6445312 C 16.29429 10.389291 16.801362 10.926478 17.570312 10.986328 C 17.827283 11.713148 18.514236 12.200092 19.285156 12.201172 C 20.056066 12.200172 20.74303 11.713148 21 10.986328 C 20.74303 10.259498 20.056066 9.7745175 19.285156 9.7734375 C 18.917376 9.7744375 18.558509 9.8867431 18.255859 10.095703 C 18.378839 9.7486031 18.393958 9.371355 18.298828 9.015625 C 18.098578 8.271645 17.451644 7.7346281 16.683594 7.6738281 z M 17.570312 10.986328 L 3 10.986328 C 3 15.009928 6.2615462 17.058594 10.285156 17.058594 C 14.308756 17.058594 17.570312 15.009928 17.570312 10.986328 z M 5 8 L 5 10 L 7 10 L 7 8 L 5 8 z M 8 8 L 8 10 L 10 10 L 10 8 L 8 8 z M 11 8 L 11 10 L 13 10 L 13 8 L 11 8 z M 14 8 L 14 10 L 16 10 L 16 8 L 14 8 z M 6 12 A 1 1 0 0 1 7 13 A 1 1 0 0 1 6 14 A 1 1 0 0 1 5 13 A 1 1 0 0 1 6 12 z "
     class="ColorScheme-Text"
     id="path4" />
</svg>
