<?xml version="1.0" encoding="UTF-8" standalone="no"?>
<svg
   viewBox="0 0 22 22"
   version="1.1"
   id="svg6"
   sodipodi:docname="folder-windows.svg"
   inkscape:version="1.1.1 (3bf5ae0d25, 2021-09-20)"
   xmlns:inkscape="http://www.inkscape.org/namespaces/inkscape"
   xmlns:sodipodi="http://sodipodi.sourceforge.net/DTD/sodipodi-0.dtd"
   xmlns="http://www.w3.org/2000/svg"
   xmlns:svg="http://www.w3.org/2000/svg">
  <sodipodi:namedview
     id="namedview8"
     pagecolor="#ffffff"
     bordercolor="#666666"
     borderopacity="1.0"
     inkscape:pageshadow="2"
     inkscape:pageopacity="0.0"
     inkscape:pagecheckerboard="0"
     showgrid="false"
     inkscape:zoom="28.545455"
     inkscape:cx="11"
     inkscape:cy="11"
     inkscape:window-width="1920"
     inkscape:window-height="1013"
     inkscape:window-x="0"
     inkscape:window-y="0"
     inkscape:window-maximized="1"
     inkscape:current-layer="svg6" />
  <defs
     id="defs3051">
    <style
       type="text/css"
       id="current-color-scheme">
      .ColorScheme-Text {
        color:#232629
      }
      </style>
  </defs>
  <path
     style="fill:#eff0f1;fill-opacity:1"
     d="M 3 3 L 3 19 L 19 19 L 19 3 L 3 3 z M 4 6 L 18 6 L 18 18 L 4 18 L 4 6 z M 7 8 L 7 11.5 L 10.5 11.5 L 10.5 8 L 7 8 z M 11.5 8 L 11.5 11.5 L 15 11.5 L 15 8 L 11.5 8 z M 7 12.5 L 7 16 L 10.5 16 L 10.5 12.5 L 7 12.5 z M 11.5 12.5 L 11.5 16 L 15 16 L 15 12.5 L 11.5 12.5 z "
     class="ColorScheme-Text"
     id="path4" />
</svg>
