<?xml version="1.0" encoding="UTF-8" standalone="no"?>
<svg
   viewBox="0 0 22 22"
   version="1.1"
   id="svg6"
   sodipodi:docname="folder-calculate.svg"
   inkscape:version="1.1.1 (3bf5ae0d25, 2021-09-20)"
   xmlns:inkscape="http://www.inkscape.org/namespaces/inkscape"
   xmlns:sodipodi="http://sodipodi.sourceforge.net/DTD/sodipodi-0.dtd"
   xmlns="http://www.w3.org/2000/svg"
   xmlns:svg="http://www.w3.org/2000/svg">
  <sodipodi:namedview
     id="namedview8"
     pagecolor="#ffffff"
     bordercolor="#666666"
     borderopacity="1.0"
     inkscape:pageshadow="2"
     inkscape:pageopacity="0.0"
     inkscape:pagecheckerboard="0"
     showgrid="false"
     inkscape:zoom="28.545455"
     inkscape:cx="11"
     inkscape:cy="11"
     inkscape:window-width="1920"
     inkscape:window-height="1013"
     inkscape:window-x="0"
     inkscape:window-y="0"
     inkscape:window-maximized="1"
     inkscape:current-layer="svg6" />
  <defs
     id="defs3051">
    <style
       type="text/css"
       id="current-color-scheme">
      .ColorScheme-Text {
        color:#232629
      }
      </style>
  </defs>
  <path
     style="fill:#eff0f1;fill-opacity:1"
     d="M 19 5 L 9.6679688 5.0058594 L 6.5 14.5 L 4.3339844 11 L 3 11 L 3 12 L 4 12 L 6.5 17 L 10.441406 6 L 19 6 L 19 5 z M 14 8 C 11.790861 8 10 9.790861 10 12 C 10 14.209139 11.790861 16 14 16 C 15.149118 15.9982 16.241964 15.502302 17 14.638672 L 17 16 L 18 16 L 18 12 L 18 8 L 17 8 L 17 9.3613281 C 16.241964 8.4976979 15.149118 8.0017906 14 8 z M 14 9 C 15.656854 9 17 10.343146 17 12 C 17 13.656854 15.656854 15 14 15 C 12.343146 15 11 13.656854 11 12 C 11 10.343146 12.343146 9 14 9 z "
     class="ColorScheme-Text"
     id="path4" />
</svg>
