<?xml version="1.0" encoding="UTF-8" standalone="no"?>
<svg
   viewBox="0 0 22 22"
   version="1.1"
   id="svg6"
   sodipodi:docname="folder-git.svg"
   inkscape:version="1.1.1 (3bf5ae0d25, 2021-09-20)"
   xmlns:inkscape="http://www.inkscape.org/namespaces/inkscape"
   xmlns:sodipodi="http://sodipodi.sourceforge.net/DTD/sodipodi-0.dtd"
   xmlns="http://www.w3.org/2000/svg"
   xmlns:svg="http://www.w3.org/2000/svg">
  <sodipodi:namedview
     id="namedview8"
     pagecolor="#ffffff"
     bordercolor="#666666"
     borderopacity="1.0"
     inkscape:pageshadow="2"
     inkscape:pageopacity="0.0"
     inkscape:pagecheckerboard="0"
     showgrid="false"
     inkscape:zoom="28.545455"
     inkscape:cx="11"
     inkscape:cy="11"
     inkscape:window-width="1920"
     inkscape:window-height="1013"
     inkscape:window-x="0"
     inkscape:window-y="0"
     inkscape:window-maximized="1"
     inkscape:current-layer="svg6" />
  <defs
     id="defs3051">
    <style
       type="text/css"
       id="current-color-scheme">
      .ColorScheme-Text {
        color:#232629
      }
      </style>
  </defs>
  <path
     style="fill:#eff0f1;fill-opacity:1"
     d="M 12.5 2.7929688 L 12.146484 3.1464844 L 8.7929688 6.5 L 12.146484 9.8535156 L 12.5 10.207031 L 13.207031 9.5 L 12.853516 9.1464844 L 10.707031 7 L 14 7 A 1 1 0 0 1 15 8 L 15 14.050781 A 2.5 2.5 0 0 0 13 16.5 A 2.5 2.5 0 0 0 15.5 19 A 2.5 2.5 0 0 0 18 16.5 A 2.5 2.5 0 0 0 16 14.054688 L 16 8 A 2 2 0 0 0 14.048828 6 A 2 2 0 0 0 14 6 L 10.707031 6 L 12.853516 3.8535156 L 13.207031 3.5 L 12.5 2.7929688 z M 5.5 4 A 2.5 2.5 0 0 0 3 6.5 A 2.5 2.5 0 0 0 5 8.9453125 L 5 14.050781 A 2.5 2.5 0 0 0 3 16.5 A 2.5 2.5 0 0 0 5.5 19 A 2.5 2.5 0 0 0 8 16.5 A 2.5 2.5 0 0 0 6 14.054688 L 6 8.9492188 A 2.5 2.5 0 0 0 8 6.5 A 2.5 2.5 0 0 0 5.5 4 z M 5.5 5 A 1.5 1.5 0 0 1 7 6.5 A 1.5 1.5 0 0 1 5.5 8 A 1.5 1.5 0 0 1 4 6.5 A 1.5 1.5 0 0 1 5.5 5 z M 5.5 15 A 1.5 1.5 0 0 1 7 16.5 A 1.5 1.5 0 0 1 5.5 18 A 1.5 1.5 0 0 1 4 16.5 A 1.5 1.5 0 0 1 5.5 15 z M 15.5 15 A 1.5 1.5 0 0 1 17 16.5 A 1.5 1.5 0 0 1 15.5 18 A 1.5 1.5 0 0 1 14 16.5 A 1.5 1.5 0 0 1 15.5 15 z "
     class="ColorScheme-Text"
     id="path4" />
</svg>
