<?xml version="1.0" encoding="UTF-8" standalone="no"?>
<svg
   width="16"
   height="16"
   version="1.1"
   viewBox="0 0 16 16"
   id="svg2427"
   sodipodi:docname="edit-delete-symbolic.svg"
   inkscape:version="1.2.2 (b0a8486541, 2022-12-01)"
   xmlns:inkscape="http://www.inkscape.org/namespaces/inkscape"
   xmlns:sodipodi="http://sodipodi.sourceforge.net/DTD/sodipodi-0.dtd"
   xmlns="http://www.w3.org/2000/svg"
   xmlns:svg="http://www.w3.org/2000/svg">
  <sodipodi:namedview
     id="namedview2429"
     pagecolor="#ffffff"
     bordercolor="#000000"
     borderopacity="0.25"
     inkscape:showpageshadow="2"
     inkscape:pageopacity="0.0"
     inkscape:pagecheckerboard="0"
     inkscape:deskcolor="#d1d1d1"
     showgrid="false"
     inkscape:zoom="14.75"
     inkscape:cx="2.3050847"
     inkscape:cy="8.0338983"
     inkscape:window-width="1920"
     inkscape:window-height="998"
     inkscape:window-x="0"
     inkscape:window-y="0"
     inkscape:window-maximized="1"
     inkscape:current-layer="svg2427" />
  <defs
     id="defs2423">
    <style
       type="text/css"
       id="style2421">.ColorScheme-Text { color:#d8dee9; }
</style>
  </defs>
  <path
     style="fill:currentColor;fill-opacity:1;stroke:none;stroke-width:1.16665"
     d="M 5.666665,1 V 2.166665 H 1 v 1.16667 H 2.166665 V 8 11.657226 C 2.166665,13.509535 3.657136,15 5.509439,15 h 4.981122 c 1.852303,0 3.342774,-1.490465 3.342774,-3.342774 V 8 3.333335 H 15 V 2.166665 H 10.333335 V 1 Z m 1.16667,1.166665 h 2.33333 v 1.16667 h 1.16667 2.33333 V 8 11.5 c 0,1.292666 -1.040665,2.333333 -2.33333,2.333333 H 5.666665 C 4.374,13.833333 3.333335,12.792666 3.333335,11.5 V 8 3.333335 h 3.5 z M 5.666665,5.6666665 V 8 11.5 h 1.16667 V 8 5.6666665 Z m 3.5,0 V 8 11.5 h 1.16667 V 8 5.6666665 Z"
     class="ColorScheme-Text "
     id="path2279" />
</svg>
