<?xml version="1.0" encoding="UTF-8" standalone="no"?>
<svg
   viewBox="0 0 16 16"
   version="1.1"
   id="svg1"
   sodipodi:docname="document-print.svg"
   inkscape:version="1.3.2 (091e20ef0f, 2023-11-25)"
   xmlns:inkscape="http://www.inkscape.org/namespaces/inkscape"
   xmlns:sodipodi="http://sodipodi.sourceforge.net/DTD/sodipodi-0.dtd"
   xmlns:xlink="http://www.w3.org/1999/xlink"
   xmlns="http://www.w3.org/2000/svg"
   xmlns:svg="http://www.w3.org/2000/svg">
  <sodipodi:namedview
     id="namedview1"
     pagecolor="#ffffff"
     bordercolor="#999999"
     borderopacity="1"
     inkscape:showpageshadow="2"
     inkscape:pageopacity="0"
     inkscape:pagecheckerboard="0"
     inkscape:deskcolor="#d1d1d1"
     inkscape:zoom="47.625"
     inkscape:cx="8"
     inkscape:cy="8"
     inkscape:window-width="1920"
     inkscape:window-height="994"
     inkscape:window-x="0"
     inkscape:window-y="0"
     inkscape:window-maximized="1"
     inkscape:current-layer="svg1" />
  <defs
     id="defs3051">
    <linearGradient
       id="linearGradient1"
       inkscape:collect="always">
      <stop
         style="stop-color:#00aad4;stop-opacity:1"
         offset="0"
         id="stop1" />
      <stop
         style="stop-color:#cd87de;stop-opacity:1"
         offset="1"
         id="stop2" />
    </linearGradient>
    <style
       type="text/css"
       id="current-color-scheme">.ColorScheme-Text { color: #fcfcfc; } </style>
    <linearGradient
       inkscape:collect="always"
       xlink:href="#linearGradient1"
       id="linearGradient2"
       x1="2"
       y1="8"
       x2="14"
       y2="8"
       gradientUnits="userSpaceOnUse" />
  </defs>
  <path
     d="M 4 2 L 4 3 L 4 5 L 3 5 L 2 5 L 2 6 L 2 11 L 2 12 L 3 12 L 5 12 L 5 13 L 5 14 L 10 14 L 11 14 L 11 13 L 11 12 L 13 12 L 14 12 L 14 11 L 14 6 L 14 5 L 12 5 L 12 3 L 12 2 L 4 2 z M 5 3 L 11 3 L 11 5 L 5 5 L 5 3 z M 3 6 L 13 6 L 13 11 L 12 11 L 12 10 L 4 10 L 4 11 L 3 11 L 3 6 z M 10 7 L 10 8 L 12 8 L 12 7 L 10 7 z M 6 12 L 10 12 L 10 13 L 6 13 L 6 12 z "
     id="path1"
     style="fill:url(#linearGradient2)" />
</svg>
