<?xml version="1.0" encoding="UTF-8" standalone="no"?>
<svg
   viewBox="0 0 16 16"
   version="1.1"
   id="svg1"
   sodipodi:docname="media-optical-mixed-cd.svg"
   inkscape:version="1.3.2 (091e20ef0f, 2023-11-25)"
   xmlns:inkscape="http://www.inkscape.org/namespaces/inkscape"
   xmlns:sodipodi="http://sodipodi.sourceforge.net/DTD/sodipodi-0.dtd"
   xmlns:xlink="http://www.w3.org/1999/xlink"
   xmlns="http://www.w3.org/2000/svg"
   xmlns:svg="http://www.w3.org/2000/svg">
  <sodipodi:namedview
     id="namedview1"
     pagecolor="#ffffff"
     bordercolor="#999999"
     borderopacity="1"
     inkscape:showpageshadow="2"
     inkscape:pageopacity="0"
     inkscape:pagecheckerboard="0"
     inkscape:deskcolor="#d1d1d1"
     inkscape:zoom="47.625"
     inkscape:cx="8"
     inkscape:cy="8"
     inkscape:window-width="1920"
     inkscape:window-height="994"
     inkscape:window-x="0"
     inkscape:window-y="0"
     inkscape:window-maximized="1"
     inkscape:current-layer="svg1" />
  <defs
     id="defs3051">
    <linearGradient
       id="linearGradient1"
       inkscape:collect="always">
      <stop
         style="stop-color:#b380ff;stop-opacity:1"
         offset="0"
         id="stop1" />
      <stop
         style="stop-color:#cd87de;stop-opacity:1"
         offset="1"
         id="stop2" />
    </linearGradient>
    <style
       type="text/css"
       id="current-color-scheme">.ColorScheme-Text { color: #fcfcfc; } </style>
    <linearGradient
       inkscape:collect="always"
       xlink:href="#linearGradient1"
       id="linearGradient2"
       x1="2"
       y1="8"
       x2="14"
       y2="8"
       gradientUnits="userSpaceOnUse" />
  </defs>
  <path
     d="M 8 2 C 4.6862915 2 2 4.6863 2 8 L 3 8 C 3 5.2386 5.2385763 3 8 3 C 10.761424 3 13 5.2386 13 8 L 14 8 C 14 4.6863 11.313708 2 8 2 z M 8 6 C 6.8954305 6 6 6.8954 6 8 L 7 8 C 7 7.4477 7.4477153 7 8 7 C 8.5522847 7 9 7.4477 9 8 L 10 8 C 10 6.8954 9.1045695 6 8 6 z M 11 8 L 11 11.09375 C 10.845681 11.03975 10.672589 11 10.5 11 C 9.671573 11 9 11.6716 9 12.5 C 9 13.3284 9.671573 14 10.5 14 C 11.328427 14 12 13.3284 12 12.5 L 12 9 L 13 9 L 12 8 L 11 8 z M 3 9 L 3 14 L 5 14 L 6 13 L 7 12 L 7 9 L 3 9 z M 4 10 L 6 10 L 6 12 L 5 12 L 5 13 L 4 13 L 4 10 z "
     id="path1"
     style="fill:url(#linearGradient2)" />
</svg>
