<?xml version="1.0" encoding="UTF-8" standalone="no"?>
<!-- Svg Vector Icons : http://www.onlinewebfonts.com/icon -->

<svg
   version="1.1"
   x="0px"
   y="0px"
   viewBox="0 0 23.999999 24"
   enable-background="new 0 0 1000 1000"
   xml:space="preserve"
   id="svg30"
   sodipodi:docname="redshift-status-off.svg"
   width="24"
   height="24"
   inkscape:version="1.2.1 (9c6d41e410, 2022-07-14)"
   xmlns:inkscape="http://www.inkscape.org/namespaces/inkscape"
   xmlns:sodipodi="http://sodipodi.sourceforge.net/DTD/sodipodi-0.dtd"
   xmlns="http://www.w3.org/2000/svg"
   xmlns:svg="http://www.w3.org/2000/svg"
   xmlns:rdf="http://www.w3.org/1999/02/22-rdf-syntax-ns#"
   xmlns:cc="http://creativecommons.org/ns#"
   xmlns:dc="http://purl.org/dc/elements/1.1/"><defs
   id="defs2121" /><style
   id="style233">
   <style
   type="text/css"
   id="current-color-scheme">.ColorScheme-Text { color:#d1d5e9; }
</style><metadata
   id="metadata9"><rdf:RDF><cc:Work
       rdf:about=""><dc:format>image/svg+xml</dc:format><dc:type
         rdf:resource="http://purl.org/dc/dcmitype/StillImage" /></cc:Work></rdf:RDF></metadata><defs
   id="defs34" /><sodipodi:namedview
   pagecolor="#ffffff"
   bordercolor="#666666"
   borderopacity="1"
   objecttolerance="10"
   gridtolerance="10"
   guidetolerance="10"
   inkscape:pageopacity="0"
   inkscape:pageshadow="2"
   inkscape:window-width="1920"
   inkscape:window-height="1004"
   id="namedview32"
   showgrid="true"
   inkscape:zoom="15.104"
   inkscape:cx="-18.968485"
   inkscape:cy="3.9393538"
   inkscape:window-x="0"
   inkscape:window-y="0"
   inkscape:window-maximized="1"
   inkscape:current-layer="svg30"
   inkscape:showpageshadow="2"
   inkscape:pagecheckerboard="0"
   inkscape:deskcolor="#d1d1d1"><inkscape:grid
     type="xygrid"
     id="grid1679" /></sodipodi:namedview>

<path
   d="m 12.054275,4 c 3.511204,0 6.304394,2.832906 6.304394,6.304275 0,2.553567 -1.5162,4.82799 -3.870348,5.825417 v 1.436369 C 14.488321,18.882802 13.410954,20 12.054341,20 10.697714,20 9.620349,18.882802 9.620349,17.566061 V 16.129692 C 7.26617,15.132152 5.75,12.857699 5.75,10.304275 5.75,6.832856 8.582958,4 12.054396,4 Z m -1.635973,13 h 3.27206 v -1.149678 c 0,-0.159597 0.119751,-0.419379 0.27936,-0.459322 2.154598,-0.797999 3.491464,-2.772672 3.491464,-5.086955 C 17.461186,7.27176 14.987368,4.898 11.954815,4.898 8.922474,4.898 6.648,7.271542 6.648,10.304045 c 0,2.314169 1.336562,4.288956 3.491361,5.086955 0.159605,0.03995 0.27936,0.299733 0.27936,0.459322 V 17 Z M 14,18 h -4 2 z"
   id="path396-7-9"
   style="stroke-width:0.0285715;fill-opacity:1;fill:currentColor;"
   sodipodi:nodetypes="cscssscsccccscssscsccccccc"
   class="ColorScheme-Text" /></style>
<path
   d="m 12.054275,4 c 3.511204,0 6.304394,2.832906 6.304394,6.304275 0,2.553567 -1.5162,4.82799 -3.870349,5.825417 v 1.436369 C 14.48832,18.882802 13.410953,20 12.05434,20 10.697715,20 9.620349,18.882802 9.620349,17.566061 V 16.129692 C 7.26617,15.132152 5.75,12.857699 5.75,10.304275 5.75,6.832856 8.582958,4 12.054397,4 Z m -1.635973,13 h 3.272059 v -1.149678 c 0,-0.159597 0.119753,-0.419379 0.27936,-0.459322 2.154599,-0.797999 3.491465,-2.772672 3.491465,-5.086955 C 17.461186,7.27176 14.987367,4.898 11.954814,4.898 8.922474,4.898 6.648,7.271542 6.648,10.304045 c 0,2.314169 1.336562,4.288956 3.49136,5.086955 0.159605,0.03995 0.27936,0.299733 0.27936,0.459322 V 17 Z M 14,18 h -4 2 z"
   id="path396-7-9-2"
   style="fill:#e5e9ef;fill-opacity:1;stroke-width:0.0285715"
   sodipodi:nodetypes="cscssscsccccscssscsccccccc" /></svg>
