<?xml version="1.0" encoding="UTF-8" standalone="no"?>
<svg
   fill="none"
   viewBox="0 0 22 22"
   version="1.1"
   id="svg1"
   sodipodi:docname="applications-utilities-symbolic.svg"
   inkscape:version="1.4 (unknown)"
   xmlns:inkscape="http://www.inkscape.org/namespaces/inkscape"
   xmlns:sodipodi="http://sodipodi.sourceforge.net/DTD/sodipodi-0.dtd"
   xmlns="http://www.w3.org/2000/svg"
   xmlns:svg="http://www.w3.org/2000/svg">
  <sodipodi:namedview
     id="namedview1"
     pagecolor="#b1b1b1"
     bordercolor="#000000"
     borderopacity="0.25"
     inkscape:showpageshadow="2"
     inkscape:pageopacity="0.0"
     inkscape:pagecheckerboard="0"
     inkscape:deskcolor="#d1d1d1"
     showgrid="true"
     inkscape:zoom="35.227273"
     inkscape:cx="11"
     inkscape:cy="13.270968"
     inkscape:window-width="1920"
     inkscape:window-height="998"
     inkscape:window-x="0"
     inkscape:window-y="0"
     inkscape:window-maximized="1"
     inkscape:current-layer="svg1">
    <inkscape:grid
       id="grid1"
       units="px"
       originx="0"
       originy="0"
       spacingx="1"
       spacingy="1"
       empcolor="#0099e5"
       empopacity="0.30196078"
       color="#0099e5"
       opacity="0.14902"
       empspacing="5"
       enabled="true"
       visible="true" />
  </sodipodi:namedview>
  <defs
     id="defs1">
    <style
       type="text/css"
       id="current-color-scheme">.ColorScheme-Text { color: #fcfcfc; } </style>
  </defs>
  <path
     d="M 8.5,3 C 7.669,3 7,3.669 7,4.5 V 6 H 4.86 L 2,7.72 V 17 c 0.144086,0.59828 0.4774194,0.931613 1,1 h 16 c 0.59828,-0.106237 0.931613,-0.43957 1,-1 V 7.72 L 17.14,6 H 15 V 4.5 C 15,3.669 14.331,3 13.5,3 Z m 0,1 h 5 C 13.777,4 14,4.223 14,4.5 V 6 H 8 V 4.5 C 8,4.223 8.223,4 8.5,4 M 5.14,7 H 16.86 L 19,8.28 V 9 H 17 V 8 H 13 V 9 H 9 V 8 H 5 V 9 H 3 V 8.28 Z M 6,9 h 2 v 2 H 6 Z m 8,0 h 2 v 2 H 14 Z M 3,10 h 2 v 2 h 4 v -2 h 4 v 2 h 4 v -2 h 2 v 7 H 3 Z"
     style="fill:currentColor"
     class="ColorScheme-Text"
     id="path1"
     sodipodi:nodetypes="ssccccccccccssscssccsccccccccccccccccccccccccccccccccccccccc" />
</svg>
