<?xml version="1.0" encoding="UTF-8" standalone="no"?>
<svg
   fill="none"
   viewBox="0 0 22 22"
   version="1.1"
   id="svg2"
   sodipodi:docname="applications-other-symbolic.svg"
   inkscape:version="1.4 (unknown)"
   xmlns:inkscape="http://www.inkscape.org/namespaces/inkscape"
   xmlns:sodipodi="http://sodipodi.sourceforge.net/DTD/sodipodi-0.dtd"
   xmlns="http://www.w3.org/2000/svg"
   xmlns:svg="http://www.w3.org/2000/svg">
  <sodipodi:namedview
     id="namedview2"
     pagecolor="#ffffff"
     bordercolor="#000000"
     borderopacity="0.25"
     inkscape:showpageshadow="2"
     inkscape:pageopacity="0.0"
     inkscape:pagecheckerboard="0"
     inkscape:deskcolor="#d1d1d1"
     inkscape:zoom="14.545455"
     inkscape:cx="11.653125"
     inkscape:cy="15.778125"
     inkscape:window-width="1920"
     inkscape:window-height="998"
     inkscape:window-x="0"
     inkscape:window-y="0"
     inkscape:window-maximized="1"
     inkscape:current-layer="svg2" />
  <defs
     id="defs1">
    <style
       type="text/css"
       id="current-color-scheme">.ColorScheme-Text { color: #fcfcfc; } </style>
  </defs>
  <g
     id="g2"
     transform="matrix(1.125,0,0,1.125,-1.375,-1.375)">
    <path
       fill-rule="evenodd"
       d="M 4,11 A 7,7 0 1 0 18,11 7,7 0 0 0 4,11 M 11,3 A 8,8 0 1 0 11,19 8,8 0 0 0 11,3"
       clip-rule="evenodd"
       style="fill:currentColor"
       class="ColorScheme-Text"
       id="path1" />
    <path
       d="m 8,11 a 1,1 0 1 1 -2,0 1,1 0 0 1 2,0 m 4,0 a 1,1 0 1 1 -2,0 1,1 0 0 1 2,0 m 4,0 a 1,1 0 1 1 -2,0 1,1 0 0 1 2,0"
       style="fill:currentColor"
       class="ColorScheme-Text"
       id="path2" />
  </g>
</svg>
