<?xml version="1.0" encoding="UTF-8" standalone="no"?>
<svg
   inkscape:version="1.3.2 (091e20ef0f, 2023-11-25)"
   sodipodi:docname="help.svg"
   style="enable-background:new"
   version="1.1"
   height="22"
   width="22"
   id="svg4306"
   xmlns:inkscape="http://www.inkscape.org/namespaces/inkscape"
   xmlns:sodipodi="http://sodipodi.sourceforge.net/DTD/sodipodi-0.dtd"
   xmlns="http://www.w3.org/2000/svg"
   xmlns:svg="http://www.w3.org/2000/svg"
   xmlns:rdf="http://www.w3.org/1999/02/22-rdf-syntax-ns#"
   xmlns:cc="http://creativecommons.org/ns#"
   xmlns:dc="http://purl.org/dc/elements/1.1/">
  <metadata
     id="metadata28">
    <rdf:RDF>
      <cc:Work
         rdf:about="">
        <dc:format>image/svg+xml</dc:format>
        <dc:type
           rdf:resource="http://purl.org/dc/dcmitype/StillImage" />
      </cc:Work>
    </rdf:RDF>
  </metadata>
  <defs
     id="defs26" />
  <sodipodi:namedview
     inkscape:bbox-nodes="true"
     inkscape:snap-bbox="true"
     inkscape:current-layer="svg4306"
     inkscape:window-maximized="1"
     inkscape:window-y="0"
     inkscape:window-x="0"
     inkscape:cy="38.098825"
     inkscape:cx="7.0400002"
     inkscape:zoom="4.8295453"
     showgrid="false"
     id="namedview24"
     inkscape:window-height="996"
     inkscape:window-width="1920"
     inkscape:pageshadow="2"
     inkscape:pageopacity="0"
     guidetolerance="10"
     gridtolerance="10"
     objecttolerance="10"
     borderopacity="1"
     bordercolor="#000000"
     pagecolor="#ffffff"
     inkscape:document-rotation="0"
     inkscape:lockguides="false"
     inkscape:pagecheckerboard="0"
     inkscape:showpageshadow="2"
     inkscape:deskcolor="#cccccc">
    <inkscape:grid
       id="grid1"
       units="px"
       originx="0"
       originy="0"
       spacingx="1"
       spacingy="1"
       empcolor="#0099e5"
       empopacity="0.30196078"
       color="#0099e5"
       opacity="0.14901961"
       empspacing="5"
       dotted="false"
       gridanglex="30"
       gridanglez="30"
       visible="false" />
  </sodipodi:namedview>
  <style
     id="current-color-scheme"
     type="text/css" />
  <g
     id="active-center"
     transform="translate(-52.36)">
    <rect
       style="opacity:0.013;fill:#000000;fill-opacity:1;stroke-width:1.02253"
       id="rect861"
       width="22"
       height="22"
       x="0"
       y="0" />
    <path
       id="path839-3-36"
       style="opacity:0.01;fill:#2b4254;fill-opacity:0.01;stroke-width:1.125;enable-background:new"
       d="M 11,2 C 6.02953,2 2,6.029441 2,10.999998 2,15.970557 6.02953,20 11,20 15.97048,20 20,15.970557 20,10.999998 20,6.029441 15.97048,2 11,2 Z m 0,1.125 c 4.34919,0 7.875,3.525746 7.875,7.874998 C 18.875,15.349232 15.34919,18.875 11,18.875 6.6508,18.875 3.125,15.349232 3.125,10.999998 3.125,6.650746 6.6508,3.125 11,3.125 Z m 0,0 z"
       sodipodi:nodetypes="ssssssssssccccc" />
    <rect
       style="opacity:0.01;fill:#4e5a7e;fill-opacity:0.01;stroke:none;stroke-width:0.39374;enable-background:new"
       id="center-3-35-5-7"
       width="15.749992"
       height="15.749992"
       x="3.125"
       y="3.1249998"
       ry="7.8749838" />
    <path
       d="m 10.974068,15.058431 c -0.306351,0 -0.510583,-0.204232 -0.510583,-0.51058 v -1.940205 c 0,-0.919043 0.765873,-1.378566 1.48068,-1.838087 0.81693,-0.51058 1.633854,-1.021163 1.684919,-2.144438 0,-1.429625 -1.174333,-2.603957 -2.60396,-2.603957 -1.429621,0 -2.603959,1.174332 -2.603959,2.603957 0,0.306347 -0.204238,0.510579 -0.510584,0.510579 C 7.604234,9.1357 7.4,8.931468 7.4,8.625121 7.4,6.633857 9.033863,5 11.025124,5 c 1.991258,0 3.62512,1.633857 3.62512,3.625121 -0.102118,1.684912 -1.27645,2.450784 -2.144439,2.961366 -0.612692,0.357404 -0.970107,0.612694 -0.970107,0.970101 v 1.940205 c -0.05105,0.306348 -0.30634,0.561638 -0.56163,0.561638 z m 0,1.276452 m -0.663758,0 a 0.66375433,0.66375433 0 1 0 1.327506,0 0.66375433,0.66375433 0 1 0 -1.327506,0 z"
       id="path4-5-3-7-3-3"
       style="fill:#ffffff;fill-opacity:1;stroke-width:0.0119669;enable-background:new" />
  </g>
  <g
     id="hover-center"
     transform="translate(-26.36)">
    <rect
       y="0"
       x="0"
       height="22"
       width="22"
       id="rect861-6"
       style="opacity:0.00100002;fill:#000000;fill-opacity:1;stroke-width:1.02253" />
    <rect
       style="fill:#bf61d3;fill-opacity:1;stroke:none;stroke-width:0.44999;enable-background:new"
       id="center-3-35-5-7-7"
       width="18"
       height="18"
       x="2"
       y="2"
       ry="8.999979" />
    <path
       d="m 10.974068,15.058431 c -0.306351,0 -0.510583,-0.204232 -0.510583,-0.51058 v -1.940205 c 0,-0.919043 0.765873,-1.378566 1.48068,-1.838087 0.81693,-0.51058 1.633854,-1.021163 1.684919,-2.144438 0,-1.429625 -1.174333,-2.603957 -2.60396,-2.603957 -1.429621,0 -2.603959,1.174332 -2.603959,2.603957 0,0.306347 -0.204238,0.510579 -0.510584,0.510579 C 7.604234,9.1357 7.4,8.931468 7.4,8.625121 7.4,6.633857 9.033863,5 11.025124,5 c 1.991258,0 3.62512,1.633857 3.62512,3.625121 -0.102118,1.684912 -1.27645,2.450784 -2.144439,2.961366 -0.612692,0.357404 -0.970107,0.612694 -0.970107,0.970101 v 1.940205 c -0.05105,0.306348 -0.30634,0.561638 -0.56163,0.561638 z m 0,1.276452 m -0.663758,0 a 0.66375433,0.66375433 0 1 0 1.327506,0 0.66375433,0.66375433 0 1 0 -1.327506,0 z"
       id="path4-5-3-7-3-3-5"
       style="fill:#000000;fill-opacity:1;stroke-width:0.0119669;enable-background:new" />
    <path
       id="path839-3-36-6-7"
       style="mix-blend-mode:normal;fill:#9d32b4;fill-opacity:1;stroke-width:1.25;enable-background:new"
       d="M 11,1 C 5.4772564,1 1.0000004,5.477157 1.0000004,10.999998 1.0000004,16.522837 5.4772564,21 11,21 16.52276,21 21,16.522837 21,10.999998 21,5.477157 16.52276,1 11,1 Z m 0,1.25 c 4.83243,0 8.75,3.917496 8.75,8.749998 C 19.75,15.832475 15.83243,19.75 11,19.75 6.1675564,19.75 2.2500004,15.832475 2.2500004,10.999998 2.2500004,6.167496 6.1675564,2.25 11,2.25 Z m 0,0 z"
       sodipodi:nodetypes="ssssssssssccccc" />
  </g>
  <g
     id="pressed-center">
    <rect
       style="opacity:0.00100002;fill:#000000;fill-opacity:1;stroke-width:1.02253"
       id="rect861-6-6"
       width="22"
       height="22"
       x="0"
       y="0" />
    <rect
       style="fill:#d088dd;fill-opacity:1;stroke:none;stroke-width:0.44999;enable-background:new"
       id="center-3-35-5-7-5"
       width="18"
       height="18"
       x="2"
       y="2"
       ry="8.9999809" />
    <path
       d="m 10.974068,15.058431 c -0.306351,0 -0.510583,-0.204232 -0.510583,-0.51058 v -1.940205 c 0,-0.919043 0.765873,-1.378566 1.48068,-1.838087 0.81693,-0.51058 1.633854,-1.021163 1.684919,-2.144438 0,-1.429625 -1.174333,-2.603957 -2.60396,-2.603957 -1.429621,0 -2.603959,1.174332 -2.603959,2.603957 0,0.306347 -0.204238,0.510579 -0.510584,0.510579 C 7.604234,9.1357 7.4,8.931468 7.4,8.625121 7.4,6.633857 9.033863,5 11.025124,5 c 1.991258,0 3.62512,1.633857 3.62512,3.625121 -0.102118,1.684912 -1.27645,2.450784 -2.144439,2.961366 -0.612692,0.357404 -0.970107,0.612694 -0.970107,0.970101 v 1.940205 c -0.05105,0.306348 -0.30634,0.561638 -0.56163,0.561638 z m 0,1.276452 m -0.663758,0 a 0.66375433,0.66375433 0 1 0 1.327506,0 0.66375433,0.66375433 0 1 0 -1.327506,0 z"
       id="path4-5-3-7-3-3-6"
       style="fill:#000000;fill-opacity:1;stroke-width:0.0119669;enable-background:new" />
    <path
       id="path839-3-36-3-5"
       style="mix-blend-mode:normal;fill:#be5fd3;fill-opacity:1;stroke-width:1.25;enable-background:new"
       d="M 11,1 C 5.477256,1 1,5.477157 1,10.999998 1,16.522837 5.477256,21 11,21 16.52276,21 21,16.522837 21,10.999998 21,5.477157 16.52276,1 11,1 Z m 0,1.25 c 4.83243,0 8.75,3.917496 8.75,8.749998 C 19.75,15.832477 15.83243,19.75 11,19.75 6.167556,19.75 2.25,15.832477 2.25,10.999998 2.25,6.167496 6.167556,2.25 11,2.25 Z m 0,0 z"
       sodipodi:nodetypes="ssssssssssccccc" />
  </g>
  <g
     id="inactive-center"
     transform="translate(-1.3600001,-1.1600001)">
    <rect
       style="opacity:0.013;fill:#000000;fill-opacity:1;stroke-width:1.02253"
       id="rect861-2"
       width="22"
       height="22"
       x="-51"
       y="28.16" />
    <path
       id="path839-3-36-58"
       style="opacity:0.01;fill:#2b4254;fill-opacity:0.01;stroke-width:1.125;enable-background:new"
       d="m -40,30.16 c -4.97047,0 -9,4.029441 -9,8.999998 0,4.970559 4.02953,9.000002 9,9.000002 4.97048,0 9,-4.029443 9,-9.000002 C -31,34.189441 -35.02952,30.16 -40,30.16 Z m 0,1.125 c 4.34919,0 7.875,3.525746 7.875,7.874998 0,4.349234 -3.52581,7.875002 -7.875,7.875002 -4.3492,0 -7.875,-3.525768 -7.875,-7.875002 0,-4.349252 3.5258,-7.874998 7.875,-7.874998 z m 0,0 z"
       sodipodi:nodetypes="ssssssssssccccc" />
    <rect
       style="opacity:0.01;fill:#4e5a7e;fill-opacity:0.01;stroke:none;stroke-width:0.39374;enable-background:new"
       id="center-3-35-5-7-62"
       width="15.749992"
       height="15.749992"
       x="-47.875"
       y="31.285"
       ry="7.8749838" />
    <path
       d="m -40.025932,43.218431 c -0.306351,0 -0.510583,-0.204232 -0.510583,-0.51058 v -1.940205 c 0,-0.919043 0.765873,-1.378566 1.48068,-1.838087 0.81693,-0.51058 1.633854,-1.021163 1.684919,-2.144438 0,-1.429625 -1.174333,-2.603957 -2.60396,-2.603957 -1.429621,0 -2.603959,1.174332 -2.603959,2.603957 0,0.306347 -0.204238,0.510579 -0.510584,0.510579 -0.306347,0 -0.510581,-0.204232 -0.510581,-0.510579 0,-1.991264 1.633863,-3.625121 3.625124,-3.625121 1.991258,0 3.62512,1.633857 3.62512,3.625121 -0.102118,1.684912 -1.27645,2.450784 -2.144439,2.961366 -0.612692,0.357404 -0.970107,0.612694 -0.970107,0.970101 v 1.940205 c -0.05105,0.306348 -0.30634,0.561638 -0.56163,0.561638 z m 0,1.276452 m -0.663758,0 a 0.66375433,0.66375433 0 1 0 1.327506,0 0.66375433,0.66375433 0 1 0 -1.327506,0 z"
       id="path4-5-3-7-3-3-8"
       style="fill:#a6a6a6;fill-opacity:1;stroke-width:0.0119669;enable-background:new" />
  </g>
  <g
     id="hover-inactive-center"
     transform="translate(-1.3600001,-1.1600001)">
    <rect
       y="28.16"
       x="-25"
       height="22"
       width="22"
       id="rect861-6-7"
       style="opacity:0.00100002;fill:#000000;fill-opacity:1;stroke-width:1.02253" />
    <rect
       style="fill:#bf61d3;fill-opacity:1;stroke:none;stroke-width:0.44999;enable-background:new"
       id="center-3-35-5-7-7-2"
       width="18"
       height="18"
       x="-23"
       y="30.16"
       ry="8.999979" />
    <path
       d="m -14.025932,43.218431 c -0.306351,0 -0.510583,-0.204232 -0.510583,-0.51058 v -1.940205 c 0,-0.919043 0.765873,-1.378566 1.48068,-1.838087 0.81693,-0.51058 1.633854,-1.021163 1.684919,-2.144438 0,-1.429625 -1.174333,-2.603957 -2.60396,-2.603957 -1.429621,0 -2.603959,1.174332 -2.603959,2.603957 0,0.306347 -0.204238,0.510579 -0.510584,0.510579 -0.306347,0 -0.510581,-0.204232 -0.510581,-0.510579 0,-1.991264 1.633863,-3.625121 3.625124,-3.625121 1.991258,0 3.62512,1.633857 3.62512,3.625121 -0.102118,1.684912 -1.27645,2.450784 -2.144439,2.961366 -0.612692,0.357404 -0.970107,0.612694 -0.970107,0.970101 v 1.940205 c -0.05105,0.306348 -0.30634,0.561638 -0.56163,0.561638 z m 0,1.276452 m -0.663758,0 a 0.66375433,0.66375433 0 1 0 1.327506,0 0.66375433,0.66375433 0 1 0 -1.327506,0 z"
       id="path4-5-3-7-3-3-5-4"
       style="fill:#000000;fill-opacity:1;stroke-width:0.0119669;enable-background:new" />
    <path
       id="path839-3-36-6-7-0"
       style="mix-blend-mode:normal;fill:#9d32b4;fill-opacity:1;stroke-width:1.25;enable-background:new"
       d="m -14,29.16 c -5.522744,0 -10,4.477157 -10,9.999998 0,5.522839 4.477256,10.000002 10,10.000002 5.52276,0 10,-4.477163 10,-10.000002 C -4,33.637157 -8.47724,29.16 -14,29.16 Z m 0,1.25 c 4.83243,0 8.75,3.917496 8.75,8.749998 0,4.832477 -3.91757,8.750002 -8.75,8.750002 -4.832444,0 -8.75,-3.917525 -8.75,-8.750002 0,-4.832502 3.917556,-8.749998 8.75,-8.749998 z m 0,0 z"
       sodipodi:nodetypes="ssssssssssccccc" />
  </g>
  <g
     id="pressed-inactive-center"
     transform="translate(-1.3600001,-1.1600001)">
    <rect
       style="opacity:0.00100002;fill:#000000;fill-opacity:1;stroke-width:1.02253"
       id="rect861-6-6-2"
       width="22"
       height="22"
       x="1.3600003"
       y="28.16" />
    <rect
       style="fill:#d088dd;fill-opacity:1;stroke:none;stroke-width:0.44999;enable-background:new"
       id="center-3-35-5-7-5-9"
       width="18"
       height="18"
       x="3.3600001"
       y="30.16"
       ry="8.9999809" />
    <path
       d="m 12.334068,43.218431 c -0.306351,0 -0.510583,-0.204232 -0.510583,-0.51058 v -1.940205 c 0,-0.919043 0.765873,-1.378566 1.48068,-1.838087 0.81693,-0.51058 1.633854,-1.021163 1.684919,-2.144438 0,-1.429625 -1.174333,-2.603957 -2.60396,-2.603957 -1.429621,0 -2.6039588,1.174332 -2.6039588,2.603957 0,0.306347 -0.204238,0.510579 -0.510584,0.510579 -0.306347,0 -0.510581,-0.204232 -0.510581,-0.510579 0,-1.991264 1.6338628,-3.625121 3.6251238,-3.625121 1.991258,0 3.62512,1.633857 3.62512,3.625121 -0.102118,1.684912 -1.27645,2.450784 -2.144439,2.961366 -0.612692,0.357404 -0.970107,0.612694 -0.970107,0.970101 v 1.940205 c -0.05105,0.306348 -0.30634,0.561638 -0.56163,0.561638 z m 0,1.276452 m -0.663758,0 a 0.66375433,0.66375433 0 1 0 1.327506,0 0.66375433,0.66375433 0 1 0 -1.327506,0 z"
       id="path4-5-3-7-3-3-6-9"
       style="fill:#000000;fill-opacity:1;stroke-width:0.0119669;enable-background:new" />
    <path
       id="path839-3-36-3-5-0"
       style="mix-blend-mode:normal;fill:#be5fd3;fill-opacity:1;stroke-width:1.25;enable-background:new"
       d="m 12.36,29.16 c -5.5227438,0 -9.9999998,4.477157 -9.9999998,9.999998 0,5.522839 4.477256,10.000002 9.9999998,10.000002 5.52276,0 10,-4.477163 10,-10.000002 0,-5.522841 -4.47724,-9.999998 -10,-9.999998 z m 0,1.25 c 4.83243,0 8.75,3.917496 8.75,8.749998 C 21.11,43.992477 17.19243,47.91 12.36,47.91 7.5275562,47.91 3.6100002,43.992477 3.6100002,39.159998 3.6100002,34.327496 7.5275562,30.41 12.36,30.41 Z m 0,0 z"
       sodipodi:nodetypes="ssssssssssccccc" />
  </g>
  <g
     id="deactivated-center">
    <rect
       style="opacity:0.013;fill:#000000;fill-opacity:1;stroke-width:1.02253"
       id="rect861-1"
       width="22"
       height="22"
       x="35"
       y="0" />
    <path
       id="path839-3-36-4"
       style="opacity:0.01;fill:#2b4254;fill-opacity:0.01;stroke-width:1.125;enable-background:new"
       d="M 46,2 C 41.02953,2 37,6.029441 37,10.999998 37,15.970557 41.02953,20 46,20 50.97048,20 55,15.970557 55,10.999998 55,6.029441 50.97048,2 46,2 Z m 0,1.125 c 4.34919,0 7.875,3.525746 7.875,7.874998 0,4.349234 -3.52581,7.875002 -7.875,7.875002 -4.3492,0 -7.875,-3.525768 -7.875,-7.875002 C 38.125,6.650746 41.6508,3.125 46,3.125 Z m 0,0 z"
       sodipodi:nodetypes="ssssssssssccccc" />
    <rect
       style="opacity:0.01;fill:#4e5a7e;fill-opacity:0.01;stroke:none;stroke-width:0.39374;enable-background:new"
       id="center-3-35-5-7-9"
       width="15.749992"
       height="15.749992"
       x="38.125"
       y="3.1249998"
       ry="7.8749838" />
    <path
       d="m 45.974068,15.058431 c -0.306351,0 -0.510583,-0.204232 -0.510583,-0.51058 v -1.940205 c 0,-0.919043 0.765873,-1.378566 1.48068,-1.838087 0.81693,-0.51058 1.633854,-1.021163 1.684919,-2.144438 0,-1.429625 -1.174333,-2.603957 -2.60396,-2.603957 -1.429621,0 -2.603959,1.174332 -2.603959,2.603957 0,0.306347 -0.204238,0.510579 -0.510584,0.510579 C 42.604234,9.1357 42.4,8.931468 42.4,8.625121 42.4,6.633857 44.033863,5 46.025124,5 c 1.991258,0 3.62512,1.633857 3.62512,3.625121 -0.102118,1.684912 -1.27645,2.450784 -2.144439,2.961366 -0.612692,0.357404 -0.970107,0.612694 -0.970107,0.970101 v 1.940205 c -0.05105,0.306348 -0.30634,0.561638 -0.56163,0.561638 z m 0,1.276452 m -0.663758,0 a 0.66375433,0.66375433 0 1 0 1.327506,0 0.66375433,0.66375433 0 1 0 -1.327506,0 z"
       id="path4-5-3-7-3-3-2"
       style="fill:#ffffff;fill-opacity:0.45;stroke-width:0.0119669;enable-background:new" />
  </g>
  <g
     id="deactivated-inactive-center">
    <rect
       style="opacity:0.013;fill:#000000;fill-opacity:1;stroke-width:1.02253"
       id="rect861-2-6"
       width="22"
       height="22"
       x="35"
       y="27" />
    <path
       id="path839-3-36-58-8"
       style="opacity:0.01;fill:#2b4254;fill-opacity:0.01;stroke-width:1.125;enable-background:new"
       d="m 46,29 c -4.97047,0 -9,4.029441 -9,8.999998 C 37,42.970557 41.02953,47 46,47 50.97048,47 55,42.970557 55,37.999998 55,33.029441 50.97048,29 46,29 Z m 0,1.125 c 4.34919,0 7.875,3.525746 7.875,7.874998 0,4.349234 -3.52581,7.875002 -7.875,7.875002 -4.3492,0 -7.875,-3.525768 -7.875,-7.875002 C 38.125,33.650746 41.6508,30.125 46,30.125 Z m 0,0 z"
       sodipodi:nodetypes="ssssssssssccccc" />
    <rect
       style="opacity:0.01;fill:#4e5a7e;fill-opacity:0.01;stroke:none;stroke-width:0.39374;enable-background:new"
       id="center-3-35-5-7-62-9"
       width="15.749992"
       height="15.749992"
       x="38.125"
       y="30.125"
       ry="7.8749838" />
    <path
       d="m 45.974068,42.058431 c -0.306351,0 -0.510583,-0.204232 -0.510583,-0.51058 v -1.940205 c 0,-0.919043 0.765873,-1.378566 1.48068,-1.838087 0.81693,-0.51058 1.633854,-1.021163 1.684919,-2.144438 0,-1.429625 -1.174333,-2.603957 -2.60396,-2.603957 -1.429621,0 -2.603959,1.174332 -2.603959,2.603957 0,0.306347 -0.204238,0.510579 -0.510584,0.510579 C 42.604234,36.1357 42.4,35.931468 42.4,35.625121 42.4,33.633857 44.033863,32 46.025124,32 c 1.991258,0 3.62512,1.633857 3.62512,3.625121 -0.102118,1.684912 -1.27645,2.450784 -2.144439,2.961366 -0.612692,0.357404 -0.970107,0.612694 -0.970107,0.970101 v 1.940205 c -0.05105,0.306348 -0.30634,0.561638 -0.56163,0.561638 z m 0,1.276452 m -0.663758,0 a 0.66375433,0.66375433 0 1 0 1.327506,0 0.66375433,0.66375433 0 1 0 -1.327506,0 z"
       id="path4-5-3-7-3-3-8-2"
       style="fill:#a6a6a6;fill-opacity:0.45;stroke-width:0.0119669;enable-background:new" />
  </g>
</svg>
