<?xml version="1.0" encoding="UTF-8" standalone="no"?>
<svg
   id="svg4306"
   width="22"
   height="22"
   version="1.1"
   style="enable-background:new"
   sodipodi:docname="keepabove.svg"
   inkscape:version="1.3.2 (091e20ef0f, 2023-11-25)"
   xmlns:inkscape="http://www.inkscape.org/namespaces/inkscape"
   xmlns:sodipodi="http://sodipodi.sourceforge.net/DTD/sodipodi-0.dtd"
   xmlns="http://www.w3.org/2000/svg"
   xmlns:svg="http://www.w3.org/2000/svg"
   xmlns:rdf="http://www.w3.org/1999/02/22-rdf-syntax-ns#"
   xmlns:cc="http://creativecommons.org/ns#"
   xmlns:dc="http://purl.org/dc/elements/1.1/">
  <metadata
     id="metadata28">
    <rdf:RDF>
      <cc:Work
         rdf:about="">
        <dc:format>image/svg+xml</dc:format>
        <dc:type
           rdf:resource="http://purl.org/dc/dcmitype/StillImage" />
      </cc:Work>
    </rdf:RDF>
  </metadata>
  <defs
     id="defs26" />
  <sodipodi:namedview
     inkscape:document-rotation="0"
     pagecolor="#ffffff"
     bordercolor="#030303"
     borderopacity="1"
     objecttolerance="10"
     gridtolerance="10"
     guidetolerance="10"
     inkscape:pageopacity="0"
     inkscape:pageshadow="2"
     inkscape:window-width="1920"
     inkscape:window-height="996"
     id="namedview24"
     showgrid="false"
     inkscape:zoom="5.6568545"
     inkscape:cx="35.885668"
     inkscape:cy="38.360541"
     inkscape:window-x="0"
     inkscape:window-y="0"
     inkscape:window-maximized="1"
     inkscape:current-layer="svg4306"
     inkscape:snap-bbox="true"
     inkscape:bbox-nodes="true"
     inkscape:lockguides="false"
     showguides="false"
     inkscape:pagecheckerboard="0"
     inkscape:showpageshadow="2"
     inkscape:deskcolor="#cccccc">
    <inkscape:grid
       id="grid1"
       units="px"
       originx="0"
       originy="0"
       spacingx="1"
       spacingy="1"
       empcolor="#0099e5"
       empopacity="0.30196078"
       color="#0099e5"
       opacity="0.14901961"
       empspacing="5"
       dotted="false"
       gridanglex="30"
       gridanglez="30"
       visible="false" />
  </sodipodi:namedview>
  <style
     type="text/css"
     id="current-color-scheme" />
  <g
     id="active-center"
     transform="translate(23.249568,70.915722)">
    <rect
       id="rect4266-6"
       width="22"
       height="22"
       x="24.409567"
       y="48.915722"
       style="opacity:0.00100002;fill:#000000;fill-opacity:1;fill-rule:nonzero;stroke:none;stroke-width:2;stroke-linecap:round;stroke-linejoin:round;stroke-miterlimit:4;stroke-dasharray:none;stroke-opacity:1"
       transform="scale(-1)" />
    <rect
       style="opacity:0.01;fill:#4e5a7e;fill-opacity:0.01;stroke:none;stroke-width:0.499989;enable-background:new"
       id="center-3-35-5-7-8"
       width="20"
       height="20"
       x="25.409567"
       y="49.915722"
       ry="9.99998"
       transform="scale(-1)" />
    <path
       d="m -30.316995,-55.41572 a 0.40779812,0.39026135 0 0 1 -0.28818,-0.114478 l -4.809308,-4.602484 -4.809288,4.602484 a 0.40779812,0.39026135 0 0 1 -0.576359,-0.551563 l 5.097474,-4.878266 a 0.40779812,0.39026135 0 0 1 0.576352,0 l 5.097478,4.878266 a 0.40779812,0.39026135 0 0 1 -0.288169,0.666041 z"
       id="path4-562-6-6-36-5-92"
       style="fill:#ffffff;fill-opacity:1;stroke-width:0.132975;enable-background:new" />
    <path
       d="m -30.317004,-59.757278 a 0.40780204,0.39026116 0 0 1 -0.288184,-0.114487 l -4.809346,-4.602479 -4.80935,4.602479 a 0.40780204,0.39026116 0 0 1 -0.57635,-0.551562 l 5.097522,-4.878264 a 0.40780204,0.39026116 0 0 1 0.576352,0 l 5.097526,4.878264 a 0.40780204,0.39026116 0 0 1 -0.28817,0.666049 z"
       id="path4-562-7-7-7-3-6"
       style="fill:#ffffff;fill-opacity:1;stroke-width:0.132979;enable-background:new" />
  </g>
  <g
     id="hover-center">
    <rect
       id="rect4266-3-6-8"
       width="22"
       height="22"
       x="-22"
       y="-22"
       style="opacity:0.00100002;fill:#000000;fill-opacity:1;fill-rule:nonzero;stroke:none;stroke-width:2;stroke-linecap:round;stroke-linejoin:round;stroke-miterlimit:4;stroke-dasharray:none;stroke-opacity:1"
       transform="scale(-1)" />
    <rect
       style="fill:#b280ff;fill-opacity:1;stroke:none;stroke-width:0.44999;enable-background:new"
       id="center-3-35-5-7-6-4"
       width="18"
       height="18"
       x="-20"
       y="-20"
       ry="8.9999809"
       transform="scale(-1)" />
    <path
       d="M 16.092573,15.5 A 0.40779854,0.39026133 0 0 1 15.804391,15.385522 L 10.99508,10.783038 6.185786,15.385522 A 0.40779854,0.39026133 0 0 1 5.609428,14.833959 l 5.097478,-4.878265 a 0.40779854,0.39026133 0 0 1 0.576354,0 l 5.097481,4.878265 A 0.40779854,0.39026133 0 0 1 16.092573,15.5 Z"
       id="path4-562-6-6-36-5-3-9"
       style="fill:#000000;fill-opacity:1;stroke-width:0.132975;enable-background:new" />
    <path
       d="M 16.092563,11.158443 A 0.40780246,0.39026114 0 0 1 15.804379,11.043956 L 10.995026,6.441477 6.185673,11.043956 A 0.40780246,0.39026114 0 0 1 5.609324,10.492394 l 5.097524,-4.878263 a 0.40780246,0.39026114 0 0 1 0.576356,0 l 5.097529,4.878263 a 0.40780246,0.39026114 0 0 1 -0.28817,0.666049 z"
       id="path4-562-7-7-7-3-1-2"
       style="fill:#000000;fill-opacity:1;stroke-width:0.132979;enable-background:new" />
    <path
       id="path839-3-36-92"
       style="fill:#741aff;fill-opacity:1;stroke-width:1.25;enable-background:new"
       d="M 11.000001,1 C 5.4772567,1 1.0000007,5.477161 1.0000007,10.999998 1.0000007,16.522837 5.4772567,21 11.000001,21 c 5.52276,0 10,-4.477163 10,-10.000002 0,-5.522837 -4.47724,-9.999998 -10,-9.999998 z m 0,1.25 c 4.83243,0 8.75,3.91749 8.75,8.749998 0,4.832478 -3.91757,8.750002 -8.75,8.750002 -4.8324443,0 -8.7500003,-3.917524 -8.7500003,-8.750002 C 2.2500007,6.16749 6.1675567,2.25 11.000001,2.25 Z m 0,0 z"
       sodipodi:nodetypes="ssssssssssccccc" />
  </g>
  <g
     id="pressed-center"
     transform="translate(5.0000017)">
    <rect
       style="opacity:0.00100002;fill:#000000;fill-opacity:1;fill-rule:nonzero;stroke:none;stroke-width:2;stroke-linecap:round;stroke-linejoin:round;stroke-miterlimit:4;stroke-dasharray:none;stroke-opacity:1"
       y="-7.8613283e-08"
       x="22"
       height="22"
       width="22"
       id="rect4266-8-6" />
    <rect
       style="fill:#c299ff;fill-opacity:1;stroke:none;stroke-width:0.44999;enable-background:new"
       id="center-3-35-5-7-6-0"
       width="18"
       height="18"
       x="-42"
       y="-19.999996"
       ry="8.9999809"
       transform="scale(-1)" />
    <path
       d="M 38.092573,15.499998 A 0.40779854,0.39026133 0 0 1 37.804391,15.38552 L 32.99508,10.783036 28.185786,15.38552 a 0.40779854,0.39026133 0 0 1 -0.576358,-0.551563 l 5.097478,-4.878265 a 0.40779854,0.39026133 0 0 1 0.576354,0 l 5.097481,4.878265 a 0.40779854,0.39026133 0 0 1 -0.288168,0.666041 z"
       id="path4-562-6-6-36-5-3"
       style="fill:#000000;fill-opacity:1;stroke-width:0.132975;enable-background:new" />
    <path
       d="m 38.092563,11.158441 a 0.40780246,0.39026114 0 0 1 -0.288184,-0.114487 l -4.809353,-4.602479 -4.809353,4.602479 a 0.40780246,0.39026114 0 0 1 -0.576349,-0.551562 l 5.097524,-4.878263 a 0.40780246,0.39026114 0 0 1 0.576356,0 l 5.097529,4.878263 a 0.40780246,0.39026114 0 0 1 -0.28817,0.666049 z"
       id="path4-562-7-7-7-3-1"
       style="fill:#000000;fill-opacity:1;stroke-width:0.132979;enable-background:new" />
    <path
       id="path839-3-36-92-8"
       style="fill:#934cff;fill-opacity:1;stroke-width:1.25;enable-background:new"
       d="m 32.999999,1.0000002 c -5.522744,0 -10,4.477161 -10,9.9999978 0,5.522839 4.477256,10.000002 10,10.000002 5.52276,0 10,-4.477163 10,-10.000002 0,-5.5228368 -4.47724,-9.9999978 -10,-9.9999978 z m 0,1.25 c 4.83243,0 8.75,3.91749 8.75,8.7499978 0,4.832478 -3.91757,8.750002 -8.75,8.750002 -4.832444,0 -8.75,-3.917524 -8.75,-8.750002 0,-4.8325078 3.917556,-8.7499978 8.75,-8.7499978 z m 0,0 z"
       sodipodi:nodetypes="ssssssssssccccc" />
  </g>
  <g
     id="inactive-center"
     transform="translate(42.840001,-0.16000764)">
    <rect
       id="rect4266-6-9"
       width="22"
       height="22"
       x="44"
       y="-61.160007"
       style="opacity:0.00100002;fill:#000000;fill-opacity:1;fill-rule:nonzero;stroke:none;stroke-width:2;stroke-linecap:round;stroke-linejoin:round;stroke-miterlimit:4;stroke-dasharray:none;stroke-opacity:1"
       transform="scale(-1)" />
    <rect
       style="opacity:0.01;fill:#4e5a7e;fill-opacity:0.01;stroke:none;stroke-width:0.499989;enable-background:new"
       id="center-3-35-5-7-8-5"
       width="20"
       height="20"
       x="45"
       y="-60.160007"
       ry="9.99998"
       transform="scale(-1)" />
    <path
       d="m -49.907428,54.66001 a 0.40779812,0.39026135 0 0 1 -0.28818,-0.114478 l -4.809308,-4.602484 -4.809288,4.602484 a 0.40779812,0.39026135 0 0 1 -0.576359,-0.551563 l 5.097474,-4.878266 a 0.40779812,0.39026135 0 0 1 0.576352,0 l 5.097478,4.878266 a 0.40779812,0.39026135 0 0 1 -0.288169,0.666041 z"
       id="path4-562-6-6-36-5-92-0"
       style="fill:#a6a6a6;fill-opacity:1;stroke-width:0.132975;enable-background:new" />
    <path
       d="m -49.907437,50.318452 a 0.40780204,0.39026116 0 0 1 -0.288184,-0.114487 l -4.809346,-4.602479 -4.80935,4.602479 a 0.40780204,0.39026116 0 0 1 -0.57635,-0.551562 l 5.097522,-4.878264 a 0.40780204,0.39026116 0 0 1 0.576352,0 l 5.097526,4.878264 a 0.40780204,0.39026116 0 0 1 -0.28817,0.666049 z"
       id="path4-562-7-7-7-3-6-4"
       style="fill:#a6a6a6;fill-opacity:0.997537;stroke-width:0.132979;enable-background:new" />
  </g>
  <g
     id="hover-inactive-center"
     transform="translate(44.000001,-0.16)">
    <rect
       id="rect4266-3-6-8-7"
       width="22"
       height="22"
       x="22"
       y="-61.16"
       style="opacity:0.00100002;fill:#000000;fill-opacity:1;fill-rule:nonzero;stroke:none;stroke-width:2;stroke-linecap:round;stroke-linejoin:round;stroke-miterlimit:4;stroke-dasharray:none;stroke-opacity:1"
       transform="scale(-1)" />
    <rect
       style="fill:#b280ff;fill-opacity:1;stroke:none;stroke-width:0.44999;enable-background:new"
       id="center-3-35-5-7-6-4-1"
       width="18"
       height="18"
       x="24"
       y="-59.16"
       ry="8.9999809"
       transform="scale(-1)" />
    <path
       d="m -27.907426,54.66 a 0.40779854,0.39026133 0 0 1 -0.288182,-0.114478 l -4.809311,-4.602484 -4.809294,4.602484 a 0.40779854,0.39026133 0 0 1 -0.576358,-0.551563 l 5.097478,-4.878265 a 0.40779854,0.39026133 0 0 1 0.576354,0 l 5.097481,4.878265 A 0.40779854,0.39026133 0 0 1 -27.907426,54.66 Z"
       id="path4-562-6-6-36-5-3-9-7"
       style="fill:#000000;fill-opacity:1;stroke-width:0.132975;enable-background:new" />
    <path
       d="m -27.907436,50.318443 a 0.40780246,0.39026114 0 0 1 -0.288184,-0.114487 l -4.809353,-4.602479 -4.809353,4.602479 a 0.40780246,0.39026114 0 0 1 -0.576349,-0.551562 l 5.097524,-4.878263 a 0.40780246,0.39026114 0 0 1 0.576356,0 l 5.097529,4.878263 a 0.40780246,0.39026114 0 0 1 -0.28817,0.666049 z"
       id="path4-562-7-7-7-3-1-2-2"
       style="fill:#000000;fill-opacity:1;stroke-width:0.132979;enable-background:new" />
    <path
       id="path839-3-36-92-7"
       style="fill:#741aff;fill-opacity:1;stroke-width:1.25;enable-background:new"
       d="m -32.999998,40.16 c -5.522744,0 -10,4.477161 -10,9.999998 0,5.522839 4.477256,10.000002 10,10.000002 5.52276,0 10,-4.477163 10,-10.000002 0,-5.522837 -4.47724,-9.999998 -10,-9.999998 z m 0,1.25 c 4.83243,0 8.75,3.91749 8.75,8.749998 0,4.832478 -3.91757,8.750002 -8.75,8.750002 -4.832444,0 -8.75,-3.917524 -8.75,-8.750002 0,-4.832508 3.917556,-8.749998 8.75,-8.749998 z m 0,0 z"
       sodipodi:nodetypes="ssssssssssccccc" />
  </g>
  <g
     id="pressed-inactive-center"
     transform="translate(49.000001,-0.16)">
    <rect
       style="opacity:0.00100002;fill:#000000;fill-opacity:1;fill-rule:nonzero;stroke:none;stroke-width:2;stroke-linecap:round;stroke-linejoin:round;stroke-miterlimit:4;stroke-dasharray:none;stroke-opacity:1"
       y="39.16"
       x="-21.999998"
       height="22"
       width="22"
       id="rect4266-8-6-2" />
    <rect
       style="fill:#c299ff;fill-opacity:1;stroke:none;stroke-width:0.44999;enable-background:new"
       id="center-3-35-5-7-6-0-6"
       width="18"
       height="18"
       x="2"
       y="-59.159996"
       ry="8.9999809"
       transform="scale(-1)" />
    <path
       d="M -5.907426,54.659998 A 0.40779854,0.39026133 0 0 1 -6.195608,54.54552 l -4.809311,-4.602484 -4.809294,4.602484 a 0.40779854,0.39026133 0 0 1 -0.576358,-0.551563 l 5.097478,-4.878265 a 0.40779854,0.39026133 0 0 1 0.576354,0 l 5.097481,4.878265 a 0.40779854,0.39026133 0 0 1 -0.288168,0.666041 z"
       id="path4-562-6-6-36-5-3-1"
       style="fill:#000000;fill-opacity:1;stroke-width:0.132975;enable-background:new" />
    <path
       d="M -5.907436,50.318441 A 0.40780246,0.39026114 0 0 1 -6.19562,50.203954 l -4.809353,-4.602479 -4.809353,4.602479 a 0.40780246,0.39026114 0 0 1 -0.576349,-0.551562 l 5.097524,-4.878263 a 0.40780246,0.39026114 0 0 1 0.576356,0 l 5.097529,4.878263 a 0.40780246,0.39026114 0 0 1 -0.28817,0.666049 z"
       id="path4-562-7-7-7-3-1-0"
       style="fill:#000000;fill-opacity:1;stroke-width:0.132979;enable-background:new" />
    <path
       id="path839-3-36-92-8-6"
       style="fill:#934cff;fill-opacity:1;stroke-width:1.25;enable-background:new"
       d="m -11,40.16 c -5.522744,0 -10,4.477161 -10,9.999998 0,5.522839 4.477256,10.000002 10,10.000002 5.52276,0 10,-4.477163 10,-10.000002 C -1,44.637161 -5.47724,40.16 -11,40.16 Z m 0,1.25 c 4.83243,0 8.75,3.91749 8.75,8.749998 0,4.832478 -3.91757,8.750002 -8.75,8.750002 -4.832444,0 -8.75,-3.917524 -8.75,-8.750002 C -19.75,45.32749 -15.832444,41.41 -11,41.41 Z m 0,0 z"
       sodipodi:nodetypes="ssssssssssccccc" />
  </g>
  <g
     id="deactivated-center">
    <rect
       id="rect4266-6-2"
       width="22"
       height="22"
       x="-80"
       y="-22"
       style="opacity:0.00100002;fill:#000000;fill-opacity:1;fill-rule:nonzero;stroke:none;stroke-width:2;stroke-linecap:round;stroke-linejoin:round;stroke-miterlimit:4;stroke-dasharray:none;stroke-opacity:1"
       transform="scale(-1)" />
    <rect
       style="opacity:0.01;fill:#4e5a7e;fill-opacity:0.01;stroke:none;stroke-width:0.499989;enable-background:new"
       id="center-3-35-5-7-8-6"
       width="20"
       height="20"
       x="-79"
       y="-21"
       ry="9.99998"
       transform="scale(-1)" />
    <path
       d="m 74.092575,15.500002 a 0.40779812,0.39026135 0 0 1 -0.28818,-0.114478 L 68.995087,10.78304 64.185799,15.385524 A 0.40779812,0.39026135 0 0 1 63.60944,14.833961 l 5.097474,-4.878266 a 0.40779812,0.39026135 0 0 1 0.576352,0 l 5.097478,4.878266 a 0.40779812,0.39026135 0 0 1 -0.288169,0.666041 z"
       id="path4-562-6-6-36-5-92-6"
       style="fill:#ffffff;fill-opacity:0.45;stroke-width:0.132975;enable-background:new" />
    <path
       d="m 74.092566,11.158444 a 0.40780204,0.39026116 0 0 1 -0.288184,-0.114487 l -4.809346,-4.602479 -4.80935,4.602479 a 0.40780204,0.39026116 0 0 1 -0.57635,-0.551562 l 5.097522,-4.878264 a 0.40780204,0.39026116 0 0 1 0.576352,0 l 5.097526,4.878264 a 0.40780204,0.39026116 0 0 1 -0.28817,0.666049 z"
       id="path4-562-7-7-7-3-6-49"
       style="fill:#ffffff;fill-opacity:0.45;stroke-width:0.132979;enable-background:new" />
  </g>
  <g
     id="deactivated-inactive-center">
    <rect
       id="rect4266-6-9-0"
       width="22"
       height="22"
       x="-80"
       y="-61.000004"
       style="opacity:0.00100002;fill:#000000;fill-opacity:1;fill-rule:nonzero;stroke:none;stroke-width:2;stroke-linecap:round;stroke-linejoin:round;stroke-miterlimit:4;stroke-dasharray:none;stroke-opacity:1"
       transform="scale(-1)" />
    <rect
       style="opacity:0.01;fill:#4e5a7e;fill-opacity:0.01;stroke:none;stroke-width:0.499989;enable-background:new"
       id="center-3-35-5-7-8-5-4"
       width="20"
       height="20"
       x="-79"
       y="-60.000004"
       ry="9.99998"
       transform="scale(-1)" />
    <path
       d="m 74.092572,54.500007 a 0.40779812,0.39026135 0 0 1 -0.28818,-0.114478 l -4.809308,-4.602484 -4.809288,4.602484 A 0.40779812,0.39026135 0 0 1 63.609437,53.833966 L 68.706911,48.9557 a 0.40779812,0.39026135 0 0 1 0.576352,0 l 5.097478,4.878266 a 0.40779812,0.39026135 0 0 1 -0.288169,0.666041 z"
       id="path4-562-6-6-36-5-92-0-8"
       style="fill:#a6a6a6;fill-opacity:0.45197;stroke-width:0.132975;enable-background:new" />
    <path
       d="m 74.092563,50.158449 a 0.40780204,0.39026116 0 0 1 -0.288184,-0.114487 l -4.809346,-4.602479 -4.80935,4.602479 A 0.40780204,0.39026116 0 0 1 63.609333,49.4924 l 5.097522,-4.878264 a 0.40780204,0.39026116 0 0 1 0.576352,0 l 5.097526,4.878264 a 0.40780204,0.39026116 0 0 1 -0.28817,0.666049 z"
       id="path4-562-7-7-7-3-6-4-7"
       style="fill:#a6a6a6;fill-opacity:0.45197;stroke-width:0.132979;enable-background:new" />
  </g>
</svg>
