<?xml version="1.0" encoding="UTF-8" standalone="no"?>
<svg
   width="22"
   height="22"
   version="1.1"
   id="svg2"
   sodipodi:docname="folder-locked.svg"
   inkscape:version="1.3.2 (091e20ef0f, 2023-11-25)"
   xmlns:inkscape="http://www.inkscape.org/namespaces/inkscape"
   xmlns:sodipodi="http://sodipodi.sourceforge.net/DTD/sodipodi-0.dtd"
   xmlns="http://www.w3.org/2000/svg"
   xmlns:svg="http://www.w3.org/2000/svg">
  <sodipodi:namedview
     id="namedview2"
     pagecolor="#ffffff"
     bordercolor="#000000"
     borderopacity="0.25"
     inkscape:showpageshadow="2"
     inkscape:pageopacity="0.0"
     inkscape:pagecheckerboard="0"
     inkscape:deskcolor="#d1d1d1"
     inkscape:zoom="23.96875"
     inkscape:cx="9.303781"
     inkscape:cy="8.1147327"
     inkscape:window-width="1920"
     inkscape:window-height="994"
     inkscape:window-x="0"
     inkscape:window-y="0"
     inkscape:window-maximized="1"
     inkscape:current-layer="svg2" />
  <defs
     id="defs1">
    <style
       type="text/css"
       id="style1">.ColorScheme-Text { color:#d8dee9; }</style>
  </defs>
  <path
     d="M 10.999999,3 C 8.5993324,3 6.6666652,4.902933 6.6666652,7.266667 V 9.4 H 7.7499988 V 7.266667 c 0,-1.7728 1.4495,-3.2 3.2500002,-3.2 1.8005,0 3.25,1.4272 3.25,3.2 V 9.4 h 1.083336 V 7.266667 C 15.333335,4.902933 13.400663,3 10.999999,3 Z"
     id="path1"
     style="stroke-width:1.075;fill:#5599ff" />
  <path
     d="m 6.6666652,9.4 c -1.2003328,0 -2.1666664,0.951467 -2.1666664,2.133333 V 16.86667 C 4.4999988,18.04853 5.4663324,19 6.6666652,19 h 8.6666698 c 1.200328,0 2.166664,-0.95147 2.166664,-2.13333 V 11.533333 C 17.499999,10.351467 16.533663,9.4 15.333335,9.4 Z m 0,1.066667 h 8.6666698 c 0.600164,0 1.083328,0.475733 1.083328,1.066666 v 5.333337 c 0,0.59093 -0.483164,1.06666 -1.083328,1.06666 H 6.6666652 c -0.6001664,0 -1.0833328,-0.47573 -1.0833328,-1.06666 v -5.333337 c 0,-0.590933 0.4831664,-1.066666 1.0833328,-1.066666 z"
     id="path2"
     style="stroke-width:1.075;fill:#5599ff" />
</svg>
