<?xml version="1.0" encoding="UTF-8" standalone="no"?>
<svg
   width="16"
   height="16"
   version="1.1"
   viewBox="0 0 16 16"
   id="svg1"
   sodipodi:docname="desktop.svg"
   inkscape:version="1.3.1 (91b66b0783, 2023-11-16)"
   xmlns:inkscape="http://www.inkscape.org/namespaces/inkscape"
   xmlns:sodipodi="http://sodipodi.sourceforge.net/DTD/sodipodi-0.dtd"
   xmlns:xlink="http://www.w3.org/1999/xlink"
   xmlns="http://www.w3.org/2000/svg"
   xmlns:svg="http://www.w3.org/2000/svg">
  <sodipodi:namedview
     id="namedview1"
     pagecolor="#ffffff"
     bordercolor="#000000"
     borderopacity="0.25"
     inkscape:showpageshadow="2"
     inkscape:pageopacity="0.0"
     inkscape:pagecheckerboard="0"
     inkscape:deskcolor="#d1d1d1"
     inkscape:zoom="23.96875"
     inkscape:cx="6.8422425"
     inkscape:cy="10.659713"
     inkscape:window-width="1920"
     inkscape:window-height="994"
     inkscape:window-x="0"
     inkscape:window-y="0"
     inkscape:window-maximized="1"
     inkscape:current-layer="svg1" />
  <defs
     id="defs1">
    <linearGradient
       id="linearGradient1"
       inkscape:collect="always">
      <stop
         style="stop-color:#d79fe5;stop-opacity:1;"
         offset="0"
         id="stop1" />
      <stop
         style="stop-color:#46daff;stop-opacity:1;"
         offset="1"
         id="stop2" />
    </linearGradient>
    <style
       type="text/css"
       id="style1">.ColorScheme-Text { color:#d8dee9; }</style>
    <linearGradient
       inkscape:collect="always"
       xlink:href="#linearGradient1"
       id="linearGradient2"
       x1="1.23077"
       y1="13.5"
       x2="14.76923"
       y2="2.5"
       gradientUnits="userSpaceOnUse" />
  </defs>
  <path
     d="M 2.923078,2.5 C 1.9855392,2.5 1.23077,3.2547696 1.23077,4.192308 v 7.615388 C 1.23077,12.745233 1.9855392,13.5 2.923078,13.5 h 10.153848 c 0.93754,0 1.692304,-0.754767 1.692304,-1.692304 V 4.192308 C 14.76923,3.2547696 14.014466,2.5 13.076926,2.5 Z m 0,0.846154 h 10.153848 c 0.468764,0 0.846148,0.3773842 0.846148,0.846154 H 2.0769238 c 0,-0.4687699 0.3773843,-0.846154 0.8461542,-0.846154 z M 2.0769238,5.0384619 H 13.923074 v 6.7692341 c 0,0.468764 -0.377384,0.846148 -0.846148,0.846148 H 2.923078 c -0.4687699,0 -0.8461542,-0.377384 -0.8461542,-0.846148 z m 2.5384618,5.0769221 c -0.4687696,0 -0.8461537,0.377383 -0.8461537,0.846155 0,0.468765 0.3773841,0.846157 0.8461537,0.846157 h 6.7692284 c 0.468775,0 0.846156,-0.377392 0.846156,-0.846157 0,-0.468772 -0.377381,-0.846155 -0.846156,-0.846155 z"
     id="path1"
     style="stroke-width:0.846156;fill:url(#linearGradient2)" />
</svg>
