<?xml version="1.0" encoding="UTF-8" standalone="no"?>
<svg
   version="1.1"
   viewBox="0 0 16 16"
   id="svg2"
   sodipodi:docname="document-multiple.svg"
   inkscape:version="1.3.1 (91b66b0783, 2023-11-16)"
   xmlns:inkscape="http://www.inkscape.org/namespaces/inkscape"
   xmlns:sodipodi="http://sodipodi.sourceforge.net/DTD/sodipodi-0.dtd"
   xmlns:xlink="http://www.w3.org/1999/xlink"
   xmlns="http://www.w3.org/2000/svg"
   xmlns:svg="http://www.w3.org/2000/svg">
  <sodipodi:namedview
     id="namedview2"
     pagecolor="#ffffff"
     bordercolor="#000000"
     borderopacity="0.25"
     inkscape:showpageshadow="2"
     inkscape:pageopacity="0.0"
     inkscape:pagecheckerboard="0"
     inkscape:deskcolor="#d1d1d1"
     inkscape:zoom="47.9375"
     inkscape:cx="7.9895698"
     inkscape:cy="8"
     inkscape:window-width="1920"
     inkscape:window-height="994"
     inkscape:window-x="0"
     inkscape:window-y="0"
     inkscape:window-maximized="1"
     inkscape:current-layer="svg2" />
  <defs
     id="defs1">
    <linearGradient
       id="linearGradient5"
       inkscape:collect="always">
      <stop
         style="stop-color:#2ad4ff;stop-opacity:1"
         offset="0"
         id="stop4" />
      <stop
         style="stop-color:#55ffdd;stop-opacity:1"
         offset="1"
         id="stop5" />
    </linearGradient>
    <style
       type="text/css"
       id="style1">.ColorScheme-Text {
        color:#d8dee9;
      }</style>
    <linearGradient
       inkscape:collect="always"
       xlink:href="#linearGradient5"
       id="linearGradient3"
       x1="4.5714283"
       y1="8.8571434"
       x2="14"
       y2="8.8571434"
       gradientUnits="userSpaceOnUse" />
    <linearGradient
       inkscape:collect="always"
       xlink:href="#linearGradient5"
       id="linearGradient4"
       x1="2"
       y1="7.142859"
       x2="11.428578"
       y2="7.142859"
       gradientUnits="userSpaceOnUse" />
  </defs>
  <path
     d="M 6.2857139,14 C 5.3359999,14 4.5714281,13.235422 4.5714281,12.285718 V 5.4285718 c 0,-0.949714 0.7645718,-1.7142858 1.7142858,-1.7142858 H 12.285718 C 13.235422,3.714286 14,4.4788578 14,5.4285718 V 9.714286 L 9.7142858,14 H 8.857142 Z m 0,-0.85714 H 8.857142 V 8.8571422 H 13.14286 V 5.4285718 c 0,-0.4748578 -0.382282,-0.8571436 -0.857142,-0.8571436 H 6.2857139 c -0.4748562,0 -0.8571422,0.3822858 -0.8571422,0.8571436 v 6.8571462 c 0,0.47486 0.382286,0.857142 0.8571422,0.857142 z M 9.7142858,12.787942 12.787918,9.71432 H 9.7142858 Z"
     id="path1"
     style="stroke-width:0.85714;fill:url(#linearGradient3)" />
  <path
     d="M 3.714286,2 C 2.7645718,2 2,2.7645718 2,3.714286 v 6.857139 c 0,0.949715 0.7645718,1.714293 1.714286,1.714293 h 0.8571421 v -0.85714 H 3.714286 c -0.4748578,0 -0.8571438,-0.382296 -0.8571438,-0.857153 V 3.714286 c 0,-0.4748578 0.382286,-0.8571438 0.8571438,-0.8571438 h 5.9999998 c 0.4748562,0 0.8571402,0.382286 0.8571402,0.8571438 h 0.857152 C 11.428578,2.7645718 10.664,2 9.7142858,2 Z"
     id="path2"
     style="stroke-width:0.85714;fill:url(#linearGradient4)" />
</svg>
