<?xml version="1.0" encoding="UTF-8" standalone="no"?>
<svg
   viewBox="0 0 16 16"
   version="1.1"
   id="svg6"
   sodipodi:docname="folder-drawing.svg"
   inkscape:version="1.1.1 (3bf5ae0d25, 2021-09-20)"
   xmlns:inkscape="http://www.inkscape.org/namespaces/inkscape"
   xmlns:sodipodi="http://sodipodi.sourceforge.net/DTD/sodipodi-0.dtd"
   xmlns="http://www.w3.org/2000/svg"
   xmlns:svg="http://www.w3.org/2000/svg">
  <sodipodi:namedview
     id="namedview8"
     pagecolor="#ffffff"
     bordercolor="#666666"
     borderopacity="1.0"
     inkscape:pageshadow="2"
     inkscape:pageopacity="0.0"
     inkscape:pagecheckerboard="0"
     showgrid="false"
     inkscape:zoom="39.25"
     inkscape:cx="8"
     inkscape:cy="8"
     inkscape:window-width="1920"
     inkscape:window-height="1013"
     inkscape:window-x="0"
     inkscape:window-y="0"
     inkscape:window-maximized="1"
     inkscape:current-layer="svg6" />
  <defs
     id="defs3051">
    <style
       type="text/css"
       id="current-color-scheme">
      .ColorScheme-Text {
        color:#232629
      }
      </style>
  </defs>
  <path
     style="fill:#eff0f1;fill-opacity:1"
     d="M 7 2 L 4 2 L 4 5 L 5 5 L 5 6.6 A 1.5 1.5 0 0 0 4 8.1 A 1.5 1.5 0 0 0 5 9.5 L 5 11 L 4 11 L 4 14 L 7 14 L 7 12.2 A 7 6 0 0 0 12 14 L 12 13 A 6 5 0 0 1 6.2 9.4 A 1.5 1.5 0 0 0 7 8.1 A 1.5 1.5 0 0 0 6.2 6.7 A 6 5 0 0 1 12 3 L 12 2 A 7 6 0 0 0 7 3.8 L 7 2 z M 5 3 L 6 3 L 6 4 L 5 4 L 5 3 z M 5 12 L 6 12 L 6 13 L 5 13 L 5 12 z "
     class="ColorScheme-Text"
     id="path4" />
</svg>
