<?xml version="1.0" encoding="UTF-8" standalone="no"?>
<svg
   viewBox="0 0 16 16"
   version="1.1"
   id="svg6"
   sodipodi:docname="folder-notes.svg"
   inkscape:version="1.1.1 (3bf5ae0d25, 2021-09-20)"
   xmlns:inkscape="http://www.inkscape.org/namespaces/inkscape"
   xmlns:sodipodi="http://sodipodi.sourceforge.net/DTD/sodipodi-0.dtd"
   xmlns="http://www.w3.org/2000/svg"
   xmlns:svg="http://www.w3.org/2000/svg">
  <sodipodi:namedview
     id="namedview8"
     pagecolor="#ffffff"
     bordercolor="#666666"
     borderopacity="1.0"
     inkscape:pageshadow="2"
     inkscape:pageopacity="0.0"
     inkscape:pagecheckerboard="0"
     showgrid="false"
     inkscape:zoom="39.25"
     inkscape:cx="8"
     inkscape:cy="8"
     inkscape:window-width="1920"
     inkscape:window-height="1013"
     inkscape:window-x="0"
     inkscape:window-y="0"
     inkscape:window-maximized="1"
     inkscape:current-layer="svg6" />
  <defs
     id="defs3051">
    <style
       type="text/css"
       id="current-color-scheme">
      .ColorScheme-Text {
        color:#232629
      }
      </style>
  </defs>
  <path
     style="fill:#eff0f1;fill-opacity:1"
     d="M 3 2 C 2.446 2 2 2.446 2 3 L 2 13 C 2 13.554 2.446 14 3 14 L 11 14 C 11.554 14 12 13.554 12 13 L 13 13 C 13.554 13 14 12.554 14 12 L 14 10 C 14 9.814 13.935656 9.649 13.847656 9.5 C 13.935656 9.351 14 9.186 14 9 L 14 7 C 14 6.814 13.935656 6.649 13.847656 6.5 C 13.935656 6.351 14 6.186 14 6 L 14 4 C 14 3.446 13.554 3 13 3 L 12 3 C 12 2.446 11.554 2 11 2 L 3 2 z M 3 3 L 11 3 L 11 13 L 3 13 L 3 3 z M 4 4 L 4 6 L 10 6 L 10 4 L 4 4 z M 12 4 L 13 4 L 13 6 L 12 6 L 12 4 z M 4 7 L 4 8 L 10 8 L 10 7 L 4 7 z M 12 7 L 13 7 L 13 9 L 12 9 L 12 7 z M 4 9 L 4 10 L 10 10 L 10 9 L 4 9 z M 12 10 L 13 10 L 13 12 L 12 12 L 12 10 z M 4 11 L 4 12 L 10 12 L 10 11 L 4 11 z "
     class="ColorScheme-Text"
     id="path4" />
</svg>
