<?xml version="1.0" encoding="UTF-8" standalone="no"?>
<svg
   viewBox="0 0 16 16"
   version="1.1"
   id="svg1"
   sodipodi:docname="user-home.svg"
   inkscape:version="1.3.1 (91b66b0783, 2023-11-16)"
   xmlns:inkscape="http://www.inkscape.org/namespaces/inkscape"
   xmlns:sodipodi="http://sodipodi.sourceforge.net/DTD/sodipodi-0.dtd"
   xmlns:xlink="http://www.w3.org/1999/xlink"
   xmlns="http://www.w3.org/2000/svg"
   xmlns:svg="http://www.w3.org/2000/svg">
  <sodipodi:namedview
     id="namedview1"
     pagecolor="#ffffff"
     bordercolor="#000000"
     borderopacity="0.25"
     inkscape:showpageshadow="2"
     inkscape:pageopacity="0.0"
     inkscape:pagecheckerboard="0"
     inkscape:deskcolor="#d1d1d1"
     inkscape:zoom="47.9375"
     inkscape:cx="7.9895698"
     inkscape:cy="8"
     inkscape:window-width="1920"
     inkscape:window-height="994"
     inkscape:window-x="0"
     inkscape:window-y="0"
     inkscape:window-maximized="1"
     inkscape:current-layer="svg1" />
  <defs
     id="defs3051">
    <linearGradient
       id="linearGradient1"
       inkscape:collect="always">
      <stop
         style="stop-color:#3bd8ff;stop-opacity:1;"
         offset="0"
         id="stop1" />
      <stop
         style="stop-color:#26ffd4;stop-opacity:1;"
         offset="1"
         id="stop2" />
    </linearGradient>
    <style
       type="text/css"
       id="current-color-scheme">
      .ColorScheme-Text {
        color:#eff0f1;
      }
      </style>
    <linearGradient
       inkscape:collect="always"
       xlink:href="#linearGradient1"
       id="linearGradient2"
       x1="2"
       y1="14"
       x2="14"
       y2="2"
       gradientUnits="userSpaceOnUse" />
  </defs>
  <path
     style="fill:url(#linearGradient2);fill-opacity:1;stroke:none"
     d="M 8 2 L 7.2929688 2.6992188 L 7.296875 2.703125 L 2 7.9980469 L 2 8 L 2 9 L 3.0078125 9 L 3.0078125 13 L 3 13 L 3 14 L 13 14 L 13 13 L 13 9 L 14 9 L 14 8 L 14 7.9980469 L 12.857422 6.8554688 L 12.15625 7.5566406 L 12.599609 8 L 12 8 L 12 13 L 9 13 L 9 10 L 7 10 L 7 13 L 4 13 L 4 9 L 4 8 L 3.4003906 8 L 7.9980469 3.4042969 L 8 3.40625 L 8.0019531 3.4042969 L 9.4433594 4.84375 L 10.144531 4.1425781 L 8.703125 2.703125 L 8.7070312 2.6992188 L 8 2 z M 11 3 L 11 6 L 12.007812 6 L 12.007812 3 L 11 3 z "
     class="ColorScheme-Text"
     id="path1" />
</svg>
