<?xml version="1.0" encoding="UTF-8" standalone="no"?>
<svg
   viewBox="0 0 22 22"
   version="1.1"
   id="svg1"
   sodipodi:docname="folder-comic.svg"
   inkscape:version="1.3.1 (91b66b0783, 2023-11-16)"
   xmlns:inkscape="http://www.inkscape.org/namespaces/inkscape"
   xmlns:sodipodi="http://sodipodi.sourceforge.net/DTD/sodipodi-0.dtd"
   xmlns:xlink="http://www.w3.org/1999/xlink"
   xmlns="http://www.w3.org/2000/svg"
   xmlns:svg="http://www.w3.org/2000/svg">
  <sodipodi:namedview
     id="namedview1"
     pagecolor="#ffffff"
     bordercolor="#000000"
     borderopacity="0.25"
     inkscape:showpageshadow="2"
     inkscape:pageopacity="0.0"
     inkscape:pagecheckerboard="0"
     inkscape:deskcolor="#d1d1d1"
     inkscape:zoom="34.863636"
     inkscape:cx="11.014342"
     inkscape:cy="11"
     inkscape:window-width="1920"
     inkscape:window-height="994"
     inkscape:window-x="0"
     inkscape:window-y="0"
     inkscape:window-maximized="1"
     inkscape:current-layer="svg1" />
  <defs
     id="defs3051">
    <linearGradient
       id="linearGradient1"
       inkscape:collect="always">
      <stop
         style="stop-color:#00ffff;stop-opacity:1"
         offset="0"
         id="stop1" />
      <stop
         style="stop-color:#ffdd55;stop-opacity:1"
         offset="1"
         id="stop2" />
    </linearGradient>
    <style
       type="text/css"
       id="current-color-scheme">
      .ColorScheme-Text {
        color:#eff0f1;
      }
      </style>
    <linearGradient
       inkscape:collect="always"
       xlink:href="#linearGradient1"
       id="linearGradient2"
       x1="3"
       y1="11"
       x2="19"
       y2="11"
       gradientUnits="userSpaceOnUse" />
  </defs>
  <path
     style="fill:url(#linearGradient2);fill-opacity:1;stroke:none"
     d="M 7 4 L 7 7 L 3 7 L 3 15 L 6 18 L 6 15 L 15 15 L 15 12 L 16 12 L 16 15 L 19 12 L 19 4 L 7 4 z M 8 5 L 18 5 L 18 11 L 15 11 L 14 11 L 8 11 L 8 8 L 8 7 L 8 5 z M 4 8 L 7 8 L 7 12 L 14 12 L 14 14 L 4 14 L 4 8 z "
     class="ColorScheme-Text"
     id="path1" />
</svg>
