<?xml version="1.0" encoding="UTF-8" standalone="no"?>
<svg
   viewBox="0 0 16 16"
   version="1.1"
   id="svg6"
   sodipodi:docname="folder-git.svg"
   inkscape:version="1.3.2 (091e20ef0f, 2023-11-25)"
   xmlns:inkscape="http://www.inkscape.org/namespaces/inkscape"
   xmlns:sodipodi="http://sodipodi.sourceforge.net/DTD/sodipodi-0.dtd"
   xmlns:xlink="http://www.w3.org/1999/xlink"
   xmlns="http://www.w3.org/2000/svg"
   xmlns:svg="http://www.w3.org/2000/svg">
  <sodipodi:namedview
     id="namedview8"
     pagecolor="#ffffff"
     bordercolor="#666666"
     borderopacity="1.0"
     inkscape:pageshadow="2"
     inkscape:pageopacity="0.0"
     inkscape:pagecheckerboard="0"
     showgrid="false"
     inkscape:zoom="39.25"
     inkscape:cx="8"
     inkscape:cy="8.0127389"
     inkscape:window-width="1920"
     inkscape:window-height="994"
     inkscape:window-x="0"
     inkscape:window-y="0"
     inkscape:window-maximized="1"
     inkscape:current-layer="svg6"
     inkscape:showpageshadow="2"
     inkscape:deskcolor="#d1d1d1" />
  <defs
     id="defs3051">
    <linearGradient
       id="linearGradient1"
       inkscape:collect="always">
      <stop
         style="stop-color:#b380ff;stop-opacity:1"
         offset="0"
         id="stop1" />
      <stop
         style="stop-color:#ffe680;stop-opacity:1"
         offset="1"
         id="stop2" />
    </linearGradient>
    <style
       type="text/css"
       id="current-color-scheme">
      .ColorScheme-Text {
        color:#232629
      }
      </style>
    <linearGradient
       inkscape:collect="always"
       xlink:href="#linearGradient1"
       id="linearGradient2"
       x1="1.8471338"
       y1="14.931848"
       x2="12.617834"
       y2="2.167516"
       gradientUnits="userSpaceOnUse" />
  </defs>
  <path
     style="fill:url(#linearGradient2);fill-opacity:1"
     d="M 8.5 1.8 L 5.8 4.5 L 8.5 7.2 L 9.2 6.5 L 7.7 5 L 10 5 A 1 1 0 0 1 11 6 L 11 11.1 A 1.5 1.5 0 0 0 10 12.5 A 1.5 1.5 0 0 0 11.5 14 A 1.5 1.5 0 0 0 13 12.5 A 1.5 1.5 0 0 0 12 11.1 L 12 6 A 2 2 0 0 0 10 4 A 2 2 0 0 0 10 4 L 7.7 4 L 9.2 2.5 L 8.5 1.8 z M 3.5 3 A 1.5 1.5 0 0 0 2 4.5 A 1.5 1.5 0 0 0 3 5.9 L 3 11.1 A 1.5 1.5 0 0 0 2 12.5 A 1.5 1.5 0 0 0 3.5 14 A 1.5 1.5 0 0 0 5 12.5 A 1.5 1.5 0 0 0 4 11.1 L 4 5.9 A 1.5 1.5 0 0 0 5 4.5 A 1.5 1.5 0 0 0 3.5 3 z M 3.5 4 A 0.5 0.5 0 0 1 3.5 4 A 0.5 0.5 0 0 1 4 4.5 A 0.5 0.5 0 0 1 3.5 5 A 0.5 0.5 0 0 1 3 4.5 A 0.5 0.5 0 0 1 3.5 4 z M 3.5 12 L 3.5 12 A 0.5 0.5 0 0 1 4 12.5 A 0.5 0.5 0 0 1 3.5 13 A 0.5 0.5 0 0 1 3 12.5 A 0.5 0.5 0 0 1 3.5 12 z M 11.5 12 L 11.5 12 A 0.5 0.5 0 0 1 12 12.5 A 0.5 0.5 0 0 1 11.5 13 A 0.5 0.5 0 0 1 11 12.5 A 0.5 0.5 0 0 1 11.5 12 z "
     class="ColorScheme-Text"
     id="path4" />
</svg>
