<?xml version="1.0" encoding="UTF-8" standalone="no"?>
<svg
   viewBox="0 0 16 16"
   version="1.1"
   id="svg1"
   sodipodi:docname="folder-network.svg"
   inkscape:version="1.3.1 (91b66b0783, 2023-11-16)"
   xmlns:inkscape="http://www.inkscape.org/namespaces/inkscape"
   xmlns:sodipodi="http://sodipodi.sourceforge.net/DTD/sodipodi-0.dtd"
   xmlns:xlink="http://www.w3.org/1999/xlink"
   xmlns="http://www.w3.org/2000/svg"
   xmlns:svg="http://www.w3.org/2000/svg">
  <sodipodi:namedview
     id="namedview1"
     pagecolor="#ffffff"
     bordercolor="#000000"
     borderopacity="0.25"
     inkscape:showpageshadow="2"
     inkscape:pageopacity="0.0"
     inkscape:pagecheckerboard="0"
     inkscape:deskcolor="#d1d1d1"
     inkscape:zoom="47.9375"
     inkscape:cx="7.9895698"
     inkscape:cy="8"
     inkscape:window-width="1920"
     inkscape:window-height="994"
     inkscape:window-x="0"
     inkscape:window-y="0"
     inkscape:window-maximized="1"
     inkscape:current-layer="svg1" />
  <defs
     id="defs3051">
    <linearGradient
       id="linearGradient1"
       inkscape:collect="always">
      <stop
         style="stop-color:#ff9999;stop-opacity:1;"
         offset="0"
         id="stop1" />
      <stop
         style="stop-color:#ffdd55;stop-opacity:1"
         offset="1"
         id="stop2" />
    </linearGradient>
    <style
       type="text/css"
       id="current-color-scheme">
      .ColorScheme-Text {
        color:#eff0f1;
      }
      </style>
    <linearGradient
       inkscape:collect="always"
       xlink:href="#linearGradient1"
       id="linearGradient2"
       x1="2.083442"
       y1="14.258148"
       x2="12.706649"
       y2="2.9726205"
       gradientUnits="userSpaceOnUse" />
  </defs>
  <path
     style="fill:url(#linearGradient2);fill-opacity:1;stroke:none"
     d="M 8 2 C 4.676 2 2 4.676 2 8 C 2 11.324 4.676 14 8 14 C 11.324 14 14 11.324 14 8 C 14 4.676 11.324 2 8 2 z M 8 3 C 10.9916 3 13 5.0084 13 8 C 13 10.9916 10.9916 13 8 13 C 5.0084 13 3 10.9916 3 8 C 3 5.0084 5.0084 3 8 3 z M 9.5 5 A 1 1 0 0 0 8.5 6 A 1 1 0 0 0 9.5 7 A 1 1 0 0 0 10.5 6 A 1 1 0 0 0 9.5 5 z M 7.5 6.5 A 0.5 0.5 0 0 0 7 7 A 0.5 0.5 0 0 0 7.5 7.5 A 0.5 0.5 0 0 0 8 7 A 0.5 0.5 0 0 0 7.5 6.5 z M 5.5 7 A 1 1 0 0 0 4.5 8 A 1 1 0 0 0 5.5 9 A 1 1 0 0 0 6.5 8 A 1 1 0 0 0 5.5 7 z M 7.5 8.5 A 0.5 0.5 0 0 0 7 9 A 0.5 0.5 0 0 0 7.5 9.5 A 0.5 0.5 0 0 0 8 9 A 0.5 0.5 0 0 0 7.5 8.5 z M 9.5 9 A 1 1 0 0 0 8.5 10 A 1 1 0 0 0 9.5 11 A 1 1 0 0 0 10.5 10 A 1 1 0 0 0 9.5 9 z "
     id="rect4175" />
</svg>
