<?xml version="1.0" encoding="UTF-8" standalone="no"?>
<svg
   viewBox="0 0 16 16"
   version="1.1"
   id="svg6"
   sodipodi:docname="folder-table.svg"
   inkscape:version="1.1.1 (3bf5ae0d25, 2021-09-20)"
   xmlns:inkscape="http://www.inkscape.org/namespaces/inkscape"
   xmlns:sodipodi="http://sodipodi.sourceforge.net/DTD/sodipodi-0.dtd"
   xmlns="http://www.w3.org/2000/svg"
   xmlns:svg="http://www.w3.org/2000/svg">
  <sodipodi:namedview
     id="namedview8"
     pagecolor="#ffffff"
     bordercolor="#666666"
     borderopacity="1.0"
     inkscape:pageshadow="2"
     inkscape:pageopacity="0.0"
     inkscape:pagecheckerboard="0"
     showgrid="false"
     inkscape:zoom="39.25"
     inkscape:cx="8"
     inkscape:cy="8"
     inkscape:window-width="1920"
     inkscape:window-height="1013"
     inkscape:window-x="0"
     inkscape:window-y="0"
     inkscape:window-maximized="1"
     inkscape:current-layer="svg6" />
  <defs
     id="defs3051">
    <style
       type="text/css"
       id="current-color-scheme">
      .ColorScheme-Text {
        color:#232629
      }
      </style>
  </defs>
  <path
     style="fill:#eff0f1;fill-opacity:1"
     d="M 2 2 L 2 14 L 14 14 L 14 2 L 3 2 L 2 2 z M 3 3 L 13 3 L 13 5 L 3 5 L 3 3 z M 3 6 L 5 6 L 5 9 L 3 9 L 3 6 z M 6 6 L 10 6 L 10 9 L 6 9 L 6 6 z M 11 6 L 13 6 L 13 9 L 11 9 L 11 6 z M 3 10 L 5 10 L 5 13 L 3 13 L 3 10 z M 6 10 L 10 10 L 10 13 L 6 13 L 6 10 z M 11 10 L 13 10 L 13 13 L 11 13 L 11 10 z "
     class="ColorScheme-Text"
     id="path4" />
</svg>
