<?xml version="1.0" encoding="UTF-8" standalone="no"?>
<svg
   viewBox="0 0 16 16"
   version="1.1"
   id="svg6"
   sodipodi:docname="folder-Relax.svg"
   inkscape:version="1.2.1 (9c6d41e410, 2022-07-14)"
   xmlns:inkscape="http://www.inkscape.org/namespaces/inkscape"
   xmlns:sodipodi="http://sodipodi.sourceforge.net/DTD/sodipodi-0.dtd"
   xmlns="http://www.w3.org/2000/svg"
   xmlns:svg="http://www.w3.org/2000/svg"
   xmlns:rdf="http://www.w3.org/1999/02/22-rdf-syntax-ns#"
   xmlns:cc="http://creativecommons.org/ns#"
   xmlns:dc="http://purl.org/dc/elements/1.1/">
  <metadata
     id="metadata10">
    <rdf:RDF>
      <cc:Work
         rdf:about="">
        <dc:format>image/svg+xml</dc:format>
        <dc:type
           rdf:resource="http://purl.org/dc/dcmitype/StillImage" />
      </cc:Work>
    </rdf:RDF>
  </metadata>
  <sodipodi:namedview
     pagecolor="#ffffff"
     bordercolor="#666666"
     borderopacity="1"
     objecttolerance="10"
     gridtolerance="10"
     guidetolerance="10"
     inkscape:pageopacity="0"
     inkscape:pageshadow="2"
     inkscape:window-width="1920"
     inkscape:window-height="1002"
     id="namedview8"
     showgrid="true"
     inkscape:zoom="19.625"
     inkscape:cx="-3.8216561"
     inkscape:cy="6.2929936"
     inkscape:window-x="0"
     inkscape:window-y="0"
     inkscape:window-maximized="1"
     inkscape:current-layer="svg6"
     inkscape:pagecheckerboard="0"
     inkscape:showpageshadow="2"
     inkscape:deskcolor="#d1d1d1">
    <inkscape:grid
       type="xygrid"
       id="grid863" />
  </sodipodi:namedview>
  <defs
     id="defs3051">
    <style
       type="text/css"
       id="current-color-scheme">.ColorScheme-Text { color:#eff0f1; }
</style>
  </defs>
  <path
     d="m 12.991937,10.674472 1.008071,-0.292598 -1.060602,-0.167379 0.07304,-0.153532 -0.377848,0.0448 0.0684,-0.109279 -0.628837,0.09699 V 9.9452213 L 11.593108,10.0962 V 9.9277353 L 11.188491,10.098574 V 9.9306423 L 10.77208,10.193367 v -0.154076 l -0.375413,0.256157 v -0.198065 l -0.148586,0.156539 -0.07426,-0.06227 0.356384,-0.212725 -0.0593,-0.04747 0.328407,-0.1444252 -0.103617,-0.082873 0.533038,-0.3115179 -0.163228,-0.033262 0.403064,-0.2742977 -0.119638,-0.05013 0.323274,-0.2696311 -0.125164,-0.014663 0.217384,-0.1935121 -0.1076,-0.075859 0.340208,-0.3677035 -0.0967,-0.054203 0.359869,-0.4029573 -0.178433,-0.016733 0.217385,-0.3129039 -0.122485,-0.04101 0.266438,-0.4067771 -0.117358,-0.029133 0.18974,-0.3309242 -0.06384,-0.0356 0.358586,-0.4014236 -0.174771,-0.039066 0.564415,-1.0951515 -0.917798,0.767214 -2.44e-4,-0.1923252 -0.343053,0.4432167 V 5.8349553 L 11.586955,6.2288856 V 6.072894 l -0.34281,0.4137035 V 6.2712258 l -0.33785,0.5868289 -0.0431,-0.1865986 -0.25197,0.5188961 -0.05852,-0.1419723 -0.174134,0.3981307 -0.03781,-0.1779391 -0.178837,0.3592442 V 7.3891438 L 9.782843,8.2832239 9.701843,8.1244121 9.483876,8.7483 9.441186,8.6289082 9.188096,9.2339366 9.146886,9.113824 8.869868,9.7443592 8.790578,9.5882743 8.692418,10.012444 8.606618,9.995774 8.757484,9.5359846 h -0.068 L 8.865482,9.0633798 H 8.787162 L 8.94559,8.5313834 H 8.832543 l 0.088,-0.5814356 H 8.848483 L 9.015777,7.3886257 H 8.872638 L 9.004719,6.8271232 8.870525,6.8270365 8.923635,6.3525068 8.824975,6.3983728 8.898255,5.8749368 8.786666,5.9374698 8.808516,5.506913 H 8.741496 L 8.776746,5.0242701 H 8.684436 L 8.672886,4.3953016 8.582196,4.4824546 8.530876,4.1023441 8.469476,4.1472101 8.387586,3.3680561 8.326346,3.5222282 8.269246,3.209144 8.208896,3.276897 7.983464,2 7.758358,3.2768969 7.698088,3.2091439 7.640988,3.5222281 7.579748,3.3680545 7.497848,4.1472085 7.436438,4.1023425 7.385118,4.482453 7.294438,4.3953 7.282888,5.0242684 h -0.0923 l 0.03525,0.482643 h -0.06725 l 0.02197,0.4303702 -0.111422,-0.062399 0.07312,0.523156 -0.09816,-0.045866 0.05281,0.4746163 H 6.962297 L 7.094379,7.3882978 H 6.951241 L 7.11829,7.9496132 H 7.04672 l 0.088,0.5814356 H 7.021828 l 0.158189,0.5319889 h -0.0784 L 7.277615,9.5356543 H 7.209705 L 7.360321,9.995444 7.305601,10.006174 7.209231,9.5886542 7.129851,9.7443798 6.853089,9.1138446 6.811769,9.234237 6.558597,8.6283888 6.515907,8.7480476 6.297939,8.124159 6.216939,8.2829708 5.837865,7.3888915 V 7.6275626 L 5.659264,7.2691389 5.621334,7.4470772 5.446806,7.0483137 5.388396,7.1900125 5.13651,6.6711231 5.0934,6.8579884 4.75555,6.2711662 V 6.4865379 L 4.4125,6.0729277 V 6.2289199 L 4.060677,5.8349829 V 5.9658418 L 3.717624,5.5226253 V 5.7154101 L 2.799737,4.9482893 3.364074,6.0431609 3.189707,6.0822279 3.547954,6.4834648 3.484034,6.5191308 3.674018,6.8498816 3.556583,6.8790146 3.823182,7.2858851 3.700947,7.3268881 3.918331,7.639792 3.740136,7.656525 l 0.359403,0.4029573 -0.0967,0.054263 0.340458,0.3676367 -0.1076,0.07586 0.217378,0.1935121 -0.125562,0.014865 0.323608,0.2696312 -0.119394,0.050197 0.402914,0.274291 -0.162983,0.033263 0.53287,0.3115247 -0.103366,0.082866 0.328086,0.1443383 -0.0593,0.04726 0.356384,0.2129117 -0.07426,0.06254 -0.148831,-0.156819 v 0.197883 L 5.228046,10.039357 v 0.154172 L 4.811641,9.9307983 V 10.098723 L 4.406785,9.9278973 V 10.09627 L 3.925971,9.9452913 v 0.1484317 l -0.628837,-0.09699 0.06839,0.10928 -0.378592,-0.0448 0.07336,0.153626 L 2,10.382123 l 1.007601,0.292411 -0.170955,0.104179 0.509447,0.05947 -0.08873,0.0764 0.361921,0.07513 -0.105158,0.107459 0.405016,0.08505 -0.09459,0.0866 0.44789,0.09826 -0.148509,0.135045 0.501482,0.09362 -0.186085,0.146879 0.657064,0.0532 -0.200796,0.189238 0.572303,-0.06848 -0.08197,0.100986 0.595559,-0.05853 -0.0649,0.145799 0.502119,-0.140606 0.02263,0.01807 -0.0099,0.02373 -0.462834,0.0948 0.155993,0.116379 -0.543451,0.220559 0.150378,0.06729 -0.336289,0.214279 0.111345,0.05193 -1.084533,0.981752 1.305102,-0.530262 -0.0077,0.142239 0.317761,-0.191139 -0.0079,0.155812 0.332955,-0.260545 v 0.15226 l 0.280906,-0.240492 -0.01709,0.160005 0.465127,-0.390577 0.02292,0.163279 0.677217,-0.746094 c 0.0048,0.682981 0.03227,1.475048 0.129397,1.708007 0.031568,0.07559 0.100171,0.124486 0.17475,0.124486 0.02846,0 0.05608,-0.0069 0.08125,-0.02006 0.09613,-0.04966 0.138422,-0.178219 0.09402,-0.287585 -0.05007,-0.119933 -0.08751,-0.752928 -0.09337,-1.560121 l 0.708535,0.780967 0.0231,-0.163092 0.465371,0.390944 -0.01714,-0.160359 0.281156,0.240491 v -0.152172 l 0.332955,0.260545 -0.0079,-0.155813 0.318238,0.191419 -0.008,-0.142332 1.304594,0.529889 -1.084525,-0.981759 0.110927,-0.0518 -0.335808,-0.214006 0.150463,-0.06729 -0.543452,-0.220557 0.155988,-0.116566 -0.463418,-0.09479 -0.0096,-0.02313 0.02317,-0.0186 0.501566,0.140418 -0.0649,-0.145792 0.594754,0.05853 -0.08174,-0.100993 0.571916,0.06848 -0.200152,-0.189045 0.657212,-0.0534 -0.186079,-0.14688 0.501952,-0.09371 -0.148752,-0.135045 0.447639,-0.09825 -0.09459,-0.08661 0.404623,-0.08496 -0.104914,-0.107459 0.362314,-0.07513 -0.08889,-0.07658 0.508637,-0.0594 z m -4.305844,-0.04313 0.09117,0.112646 0.09954,-0.430657 0.0089,0.01773 0.233585,-0.5317288 0.04662,0.1358591 0.257651,-0.6160484 0.06286,0.1760251 0.25709,-0.7354408 0.05936,0.1168389 0.113779,-0.2680907 v 0.076579 l 0.331247,-0.6652212 0.04996,0.2358512 0.24813,-0.5671422 0.04698,0.1143728 0.188114,-0.3872837 0.02751,0.1191053 0.224463,-0.3898503 0.308557,-0.3719972 V 6.8925415 L 11.693432,6.4986112 V 6.702683 l 0.343047,-0.44321 v 0.00467 l 0.354675,-0.2966044 -0.139399,0.2707246 0.0601,0.013466 -0.275137,0.3079844 0.124187,0.069299 -0.232191,0.4045902 0.09361,0.0232 -0.249838,0.3813638 0.112393,0.037598 -0.275388,0.3962237 0.102962,0.00967 -0.226506,0.2536112 0.09068,0.050798 -0.316051,0.3413177 0.07979,0.056198 -0.416406,0.3703638 0.09783,0.011535 -0.18063,0.1506188 0.06791,0.028403 -0.523678,0.3561505 0.09516,0.019402 -0.25318,0.1479788 0.06084,0.0486 -0.328401,0.1444253 0.105081,0.083966 -0.347845,0.2076176 0.0671,0.0562 -0.453575,0.185405 0.08897,0.06393 -0.50797,0.224652 0.127604,0.07149 -0.326376,0.195966 0.08482,0.04313 -0.416329,0.298238 z m 1.471888,-0.282478 -0.136142,0.143333 -0.02721,-0.07667 z M 5.71119,9.7165997 5.77178,9.6679997 5.518856,9.5200209 5.613686,9.5006189 5.090323,9.1444751 5.158473,9.1158771 4.977837,8.965445 4.977676,8.9652515 5.075026,8.9538515 4.659102,8.583676 4.738892,8.527476 4.422608,8.1859918 4.513288,8.1352588 4.2867,7.8812741 4.389417,7.8716041 4.114697,7.4753871 4.226851,7.4377871 3.97709,7.0565902 4.0711,7.0333902 3.838659,6.6287066 3.962769,6.5594073 3.687715,6.2513297 3.747735,6.2378634 3.608175,5.9670455 3.963262,6.2637432 v -0.004 L 4.306321,6.7029561 V 6.4988841 L 4.658139,6.8928144 V 6.7731553 l 0.308556,0.3720039 0.224462,0.3898507 0.02751,-0.1188391 0.187794,0.3871098 0.04709,-0.1144718 0.24788,0.5666089 0.05037,-0.235852 0.331508,0.665942 V 8.6089217 L 6.197083,8.8770199 6.256443,8.7601803 6.513529,9.4956218 6.576399,9.3196829 6.8334,9.9350843 6.88026,9.799306 l 0.233335,0.531736 0.0092,-0.01807 0.09938,0.43109 0.09158,-0.112639 0.30483,0.661115 -0.416822,-0.298612 0.08483,-0.04313 -0.326379,-0.195971 0.127605,-0.07149 -0.507823,-0.224651 0.08913,-0.06393 -0.453814,-0.185492 0.06685,-0.0562 -0.347364,-0.2073517 0.105081,-0.08414 z m 0.294171,0.6990013 -0.02751,0.07686 -0.13647,-0.14388 z m 0.368668,1.277897 0.02286,-0.05107 -0.407369,0.04013 0.09401,-0.115839 -0.41584,0.04967 0.04865,-0.0458 -0.574512,-0.04646 0.113124,-0.08943 -0.554251,-0.103359 0.132891,-0.121026 -0.449599,-0.09862 0.09906,-0.0907 -0.439745,-0.09225 0.106135,-0.108453 -0.306371,-0.06367 0.140054,-0.120479 -0.335171,-0.03907 0.02286,-0.01387 -0.417632,-0.121212 0.18909,-0.0298 -0.02066,-0.043 0.45407,0.05373 -0.05489,-0.08779 0.350531,0.0542 v -0.101167 l 0.480828,0.150979 v -0.133679 l 0.404849,0.170839 v -0.0948 l 0.416405,0.262731 3.22e-4,-0.135506 0.375181,0.256159 v -0.05153 l 0.223337,0.235405 0.04865,-0.13614 0.379492,0.380838 0.02186,-0.165466 0.388106,0.420257 v -0.234572 l 0.716598,0.421724 -0.81345,0.08469 0.08003,-0.191965 z m 0.907949,0.649208 -0.01209,-0.08615 -0.332645,0.279211 0.01793,-0.168378 -0.34809,0.297957 v -0.123572 l -0.304579,0.238419 0.0042,-0.08069 -0.315559,0.189958 0.0036,-0.06785 -0.278465,0.113106 0.264479,-0.239492 -0.0296,-0.01387 0.344512,-0.219285 -0.02566,-0.0114 0.394859,-0.160358 -0.05537,-0.04126 0.467222,-0.09562 -0.03584,-0.02867 0.220069,-0.01487 -0.04096,-0.0999 0.424045,-0.06593 z M 8.197818,10.775945 7.983935,11.42788 7.769878,10.775945 H 7.875525 L 7.625931,10.223369 7.692211,10.210634 7.561349,9.8108702 h 0.08459 L 7.469941,9.3382604 h 0.05061 L 7.36236,8.8062648 H 7.42547 L 7.33747,8.2248291 H 7.459056 L 7.292006,7.663513 H 7.413025 L 7.280944,7.1020109 h 0.09409 l -0.03495,-0.3134377 0.112803,0.052666 -0.06734,-0.481543 0.06441,0.036133 -0.03132,-0.6135819 h 0.07377 L 7.457167,5.2996045 h 0.06637 l 0.006,-0.3164374 0.03256,0.031266 0.06035,-0.4473899 0.07336,0.053666 0.02358,-0.225385 0.0092,0.023133 0.118907,-0.6524684 0.06295,0.070393 0.07361,-0.41753 0.07376,0.4173434 0.06287,-0.070393 0.118906,0.6524683 0.0092,-0.023133 0.02357,0.2253849 0.07336,-0.053666 0.06034,0.4473832 0.03251,-0.031266 0.006,0.3164442 H 8.51093 L 8.47568,5.7820541 H 8.5492 L 8.5183,6.395636 8.58263,6.359636 8.51537,6.8409256 8.628179,6.7884596 8.593059,7.1021705 h 0.0941 L 8.555062,7.6636794 H 8.676059 L 8.508771,8.2249955 h 0.12215 l -0.088,0.5814349 h 0.06295 L 8.447443,9.3384268 h 0.05067 L 8.32212,9.8110366 h 0.08443 l -0.131105,0.3997624 0.06661,0.01293 -0.249595,0.55257 0.105808,-8.7e-5 z m 1.531915,1.674767 -0.02555,0.0114 0.344512,0.219465 -0.02941,0.01387 0.264479,0.239492 -0.27937,-0.113466 0.0042,0.06776 -0.31507,-0.189505 0.0042,0.08068 -0.304579,-0.238412 v 0.123659 l -0.348322,-0.297765 0.01792,0.167919 -0.33183,-0.278838 -0.01238,0.08633 -0.362087,-0.399037 0.423568,0.06587 -0.04121,0.0999 0.219896,0.01486 -0.03584,0.0286 0.467979,0.09589 -0.05537,0.04126 z m 2.599824,-1.867819 0.02292,0.01407 -0.335724,0.03913 0.139887,0.120479 -0.305955,0.06346 0.105891,0.108459 -0.440078,0.09234 0.09906,0.0907 -0.449825,0.09881 0.133135,0.121026 -0.554256,0.103353 0.11313,0.08943 -0.573786,0.04633 0.04865,0.04586 -0.415678,-0.04967 0.09377,0.115832 -0.407701,-0.04013 0.02286,0.05107 -0.518635,-0.145153 0.07978,0.191872 -0.813616,-0.08469 0.716264,-0.421731 v 0.234313 l 0.387939,-0.419991 0.02173,0.165459 0.379552,-0.380831 0.04865,0.13614 0.22357,-0.235665 v 0.05153 L 10.5265,10.528543 v 0.134958 l 0.416406,-0.262737 v 0.0948 l 0.404617,-0.170839 v 0.133599 l 0.481053,-0.150993 v 0.101173 l 0.350531,-0.0542 -0.05489,0.08779 0.454386,-0.05373 -0.02048,0.04313 0.188763,0.0298 z"
     id="path70"
     style="stroke-width:0.0220312;fill-opacity:1;fill:currentColor;"
     class="ColorScheme-Text" />
</svg>
