<?xml version="1.0" encoding="UTF-8" standalone="no"?>
<svg
   height="22"
   width="22"
   version="1.1"
   id="svg2"
   sodipodi:docname="folder-games.svg"
   inkscape:version="1.3.2 (091e20ef0f, 2023-11-25)"
   xmlns:inkscape="http://www.inkscape.org/namespaces/inkscape"
   xmlns:sodipodi="http://sodipodi.sourceforge.net/DTD/sodipodi-0.dtd"
   xmlns:xlink="http://www.w3.org/1999/xlink"
   xmlns="http://www.w3.org/2000/svg"
   xmlns:svg="http://www.w3.org/2000/svg">
  <defs
     id="defs2">
    <linearGradient
       id="linearGradient2"
       inkscape:collect="always">
      <stop
         style="stop-color:#ff51ff;stop-opacity:1;"
         offset="0"
         id="stop2" />
      <stop
         style="stop-color:#ffdd55;stop-opacity:1"
         offset="1"
         id="stop3" />
    </linearGradient>
    <linearGradient
       inkscape:collect="always"
       xlink:href="#linearGradient2"
       id="linearGradient3"
       x1="3"
       y1="11.00034"
       x2="19"
       y2="11.00034"
       gradientUnits="userSpaceOnUse" />
  </defs>
  <sodipodi:namedview
     id="namedview2"
     pagecolor="#ffffff"
     bordercolor="#000000"
     borderopacity="0.25"
     inkscape:showpageshadow="2"
     inkscape:pageopacity="0.0"
     inkscape:pagecheckerboard="0"
     inkscape:deskcolor="#d1d1d1"
     inkscape:zoom="17.431818"
     inkscape:cx="9.809648"
     inkscape:cy="14.42764"
     inkscape:window-width="1920"
     inkscape:window-height="994"
     inkscape:window-x="0"
     inkscape:window-y="0"
     inkscape:window-maximized="1"
     inkscape:current-layer="svg2" />
  <style
     type="text/css"
     id="current-color-scheme">
    .ColorScheme-Text {
        color:#eff0f1;
    }
    </style>
  <g
     fill="currentColor"
     class="ColorScheme-Text"
     id="g2"
     transform="matrix(1.375,0,0,1.4001847,-4.125,-4.401108)"
     style="fill:url(#linearGradient3)">
    <path
       d="M 7,8 V 9 H 6 v 1 h 1 v 1 H 8 V 10 H 9 V 9 H 8 V 8 Z m 7.5,1.9 a 0.6,0.6 0 0 0 -0.6,0.6 0.6,0.6 0 0 0 0.6,0.6 0.6,0.6 0 0 0 0.6,-0.6 0.6,0.6 0 0 0 -0.6,-0.6 z m 1,-1 a 0.6,0.6 0 0 0 -0.6,0.6 0.6,0.6 0 0 0 0.6,0.6 0.6,0.6 0 0 0 0.6,-0.6 0.6,0.6 0 0 0 -0.6,-0.6 z m -2,0 a 0.6,0.6 0 0 0 -0.6,0.6 0.6,0.6 0 0 0 0.6,0.6 0.6,0.6 0 0 0 0.6,-0.6 0.6,0.6 0 0 0 -0.6,-0.6 z m 1,-1 a 0.6,0.6 0 0 0 -0.6,0.6 0.6,0.6 0 0 0 0.6,0.6 0.6,0.6 0 0 0 0.6,-0.6 0.6,0.6 0 0 0 -0.6,-0.6 z"
       id="path1"
       style="fill:url(#linearGradient3)" />
    <path
       d="M 6,6 C 4.343,6 3,8.239 3,11 v 3.5 a 1.5,1.5 0 0 0 2.56,1.06 L 8.096,13.025 A 1.5,1.5 0 0 0 11,12.5 a 1.5,1.5 0 0 0 2.904,0.525 l 2.535,2.536 A 1.5,1.5 0 0 0 19,14.5 V 11 C 19,8.239 17.657,6 16,6 Z m 0,1 h 10 c 1.105,0 2,1.79 2,4 v 3.5 a 0.5,0.5 0 0 1 -0.854,0.354 L 14.293,12 H 13 v 0.5 a 0.5,0.5 0 0 1 -1,0 V 12 h -2 v 0.5 a 0.5,0.5 0 0 1 -1,0 V 12 H 7.707 L 4.854,14.854 A 0.5,0.5 0 0 1 4,14.5 V 11 C 4,8.79 4.895,7 6,7 Z"
       id="path2"
       style="fill:url(#linearGradient3)" />
  </g>
</svg>
