<?xml version="1.0" encoding="UTF-8" standalone="no"?>
<svg
   viewBox="0 0 16 16"
   version="1.1"
   id="svg6"
   sodipodi:docname="folder-crash.svg"
   inkscape:version="1.1.2 (0a00cf5339, 2022-02-04)"
   xmlns:inkscape="http://www.inkscape.org/namespaces/inkscape"
   xmlns:sodipodi="http://sodipodi.sourceforge.net/DTD/sodipodi-0.dtd"
   xmlns="http://www.w3.org/2000/svg"
   xmlns:svg="http://www.w3.org/2000/svg">
  <sodipodi:namedview
     id="namedview8"
     pagecolor="#ffffff"
     bordercolor="#666666"
     borderopacity="1.0"
     inkscape:pageshadow="2"
     inkscape:pageopacity="0.0"
     inkscape:pagecheckerboard="0"
     showgrid="true"
     inkscape:zoom="19.4375"
     inkscape:cx="9.4919614"
     inkscape:cy="11.446945"
     inkscape:window-width="1920"
     inkscape:window-height="1009"
     inkscape:window-x="0"
     inkscape:window-y="0"
     inkscape:window-maximized="1"
     inkscape:current-layer="svg6">
    <inkscape:grid
       type="xygrid"
       id="grid825" />
  </sodipodi:namedview>
  <defs
     id="defs3051">
    <style
       type="text/css"
       id="current-color-scheme">
      .ColorScheme-Text {
        color:#232629
      }
      </style>
  </defs>
  <path
     style="fill:#eb0a42"
     d="m 2,4 v 8 c 0,1 0.8995922,2 1.915,2 H 12.08 C 13.099532,14 14,13 14,12 V 4 C 14,3 13.199939,2 12.186,2 H 3.8 C 2.7774573,2 2,3 2,4 Z M 3,4.7 C 3,2.7 4,3 4.982625,3 h 6.026091 C 12,3 13,2.7 13,4.7 v 6.6 c 0,2 -1,1.7 -2,1.7 H 4.9422204 C 4,13 3,13.2 3,11.2 Z M 4,5 V 7 H 6 V 5 Z m 6,0 v 2 h 2 V 5 Z M 6,9 v 1 h 4 V 9 Z m 4,1 v 1 h 1 v -1 z m 1,1 v 1 h 1 V 11 Z M 6,10 H 5 v 1 H 6 Z M 5,11 H 4 v 1 h 1 z"
     id="path4"
     sodipodi:nodetypes="ccccccccccccccccccccccccccccccccccccccccccccccccccccc" />
</svg>
