<?xml version="1.0" encoding="UTF-8" standalone="no"?>
<svg
   width="22"
   height="22"
   version="1.1"
   id="svg1"
   sodipodi:docname="video-display-brightness.svg"
   inkscape:version="1.3.2 (091e20ef0f, 2023-11-25)"
   xmlns:inkscape="http://www.inkscape.org/namespaces/inkscape"
   xmlns:sodipodi="http://sodipodi.sourceforge.net/DTD/sodipodi-0.dtd"
   xmlns:xlink="http://www.w3.org/1999/xlink"
   xmlns="http://www.w3.org/2000/svg"
   xmlns:svg="http://www.w3.org/2000/svg">
  <defs
     id="defs1">
    <linearGradient
       inkscape:collect="always"
       xlink:href="#linearGradient2"
       id="linearGradient7"
       x1="5"
       y1="14"
       x2="15"
       y2="5"
       gradientUnits="userSpaceOnUse" />
    <linearGradient
       id="linearGradient2"
       inkscape:collect="always">
      <stop
         style="stop-color:#ff00ff;stop-opacity:1;"
         offset="0"
         id="stop2" />
      <stop
         style="stop-color:#058bce;stop-opacity:1;"
         offset="1"
         id="stop3" />
    </linearGradient>
    <linearGradient
       inkscape:collect="always"
       xlink:href="#linearGradient2"
       id="linearGradient5"
       x1="3"
       y1="19"
       x2="19"
       y2="2.9999998"
       gradientUnits="userSpaceOnUse" />
  </defs>
  <sodipodi:namedview
     id="namedview1"
     pagecolor="#ffffff"
     bordercolor="#000000"
     borderopacity="0.25"
     inkscape:showpageshadow="2"
     inkscape:pageopacity="0.0"
     inkscape:pagecheckerboard="0"
     inkscape:deskcolor="#d1d1d1"
     inkscape:zoom="8.7159091"
     inkscape:cx="10.670143"
     inkscape:cy="11.301173"
     inkscape:window-width="1920"
     inkscape:window-height="994"
     inkscape:window-x="0"
     inkscape:window-y="0"
     inkscape:window-maximized="1"
     inkscape:current-layer="svg1" />
  <style
     type="text/css"
     id="current-color-scheme">.ColorScheme-Text{color:#7B7C7E;}.ColorScheme-Background{color:#EFF0F1;}.ColorScheme-Highlight{color:#3DAEE6;}.ColorScheme-ViewText{color:#7B7C7E;}.ColorScheme-ViewBackground{color:#FCFCFC;}.ColorScheme-ViewHover{color:#3DAEE6;}.ColorScheme-ViewFocus{color:#1E92FF;}.ColorScheme-ButtonText{color:#7B7C7E;}.ColorScheme-ButtonBackground{color:#EFF0F1;}.ColorScheme-ButtonHover{color:#3DAEE6;}.ColorScheme-ButtonFocus { color: #1E92FF; } </style>
  <g
     id="22-22-video-display-brightness-7">
    <g
       id="g893">
      <rect
         style="opacity:0.00100002"
         width="22"
         height="22"
         x="0"
         y="-1.3897704e-07"
         id="rect2" />
      <path
         d="m 12.876301,8.9584745 a 0.46016319,0.46016319 0 0 1 0,-0.5431773 l 0.409932,-0.5575317 a 0.46016319,0.46016319 0 0 0 -0.421211,-0.729702 l -0.686661,0.074833 a 0.46016319,0.46016319 0 0 1 -0.472454,-0.273631 l -0.278761,-0.63234 a 0.46016319,0.46016319 0 0 0 -0.84244,0 l -0.278761,0.63234 A 0.46016319,0.46016319 0 0 1 9.835522,7.2008632 L 9.1488693,7.1260192 A 0.46016319,0.46016319 0 0 0 8.727651,7.8557212 l 0.4099485,0.5575274 a 0.46016319,0.46016319 0 0 1 0,0.5431752 L 8.727651,9.513949 A 0.46016319,0.46016319 0 0 0 9.1488693,10.24365 L 9.835522,10.16888 a 0.46016319,0.46016319 0 0 1 0.470423,0.271591 l 0.278761,0.632341 a 0.46016319,0.46016319 0 0 0 0.84244,0 l 0.278761,-0.632341 a 0.46016319,0.46016319 0 0 1 0.470404,-0.271591 l 0.68666,0.07477 a 0.46016319,0.46016319 0 0 0 0.42121,-0.729699 z M 11.007967,9.873676 A 1.1867907,1.1867907 0 1 1 12.191691,8.6868794 1.1867907,1.1867907 0 0 1 11.007967,9.873676 Z M 12.288028,6.8267543 11.966211,6.6412548 12.347475,5.9791986 12.669273,6.164696 Z M 8.7645438,8.4767904 V 8.8477876 L 8,8.8409026 V 8.4698231 Z m 4.4827482,0.4304414 0.0058,-0.371008 0.764546,0.012833 -0.0058,0.3710032 z M 10.070216,6.6371528 9.746363,6.8195864 9.368193,6.1534198 9.692043,5.970997 Z m -0.360742,3.8862782 0.320772,0.188585 -0.387397,0.658981 -0.319748,-0.188572 z m 2.303894,0.173209 0.317701,-0.192673 0.396626,0.652823 -0.31772,0.192678 z"
         id="path4-5"
         style="fill:url(#linearGradient7);fill-opacity:1;stroke-width:0.102486" />
      <path
         d="M 18.938051,2.999997 H 3.0619676 C 2.4764676,2.999997 2,3.481711 2,4.073658 v 11.828339 c 0,0.591942 0.4764676,1.098 1.0619676,1.098 h 5.8433446 c -0.1823353,0.597101 -0.6112455,1.34286 -1.4757979,1.34286 v 0.65714 h 7.1409797 v -0.65714 c -0.864552,0 -1.293466,-0.745759 -1.475789,-1.34286 h 5.843346 C 19.52354,16.999997 20,16.493939 20,15.901997 V 4.07341 C 20,3.481479 19.52354,2.999997 18.938051,2.999997 Z M 19,15.701872 c 0,0.104129 0,0.298125 -0.262,0.298125 H 3.3 C 3,15.999997 3,15.80583 3,15.701708 v -1.701711 h 16 z m 0,-2.701875 H 3 v -8.627 c 0,-0.104115 0,-0.373 0.262,-0.373 h 15.476 c 0.262,0 0.262,0.268859 0.262,0.373 z"
         id="path2-3"
         style="fill:url(#linearGradient5);fill-opacity:1;stroke-width:0.233238"
         sodipodi:nodetypes="sssssccccccssssssssccsccssssc" />
    </g>
  </g>
</svg>
