<?xml version="1.0" encoding="UTF-8" standalone="no"?>
<!-- Generator: Gravit.io -->

<svg
   style="isolation:isolate"
   viewBox="0 0 16 16"
   width="16pt"
   height="16pt"
   version="1.1"
   id="svg3"
   sodipodi:docname="4kyoutubetomp3.svg"
   inkscape:version="1.4.1 (unknown)"
   xmlns:inkscape="http://www.inkscape.org/namespaces/inkscape"
   xmlns:sodipodi="http://sodipodi.sourceforge.net/DTD/sodipodi-0.dtd"
   xmlns="http://www.w3.org/2000/svg"
   xmlns:svg="http://www.w3.org/2000/svg">
  <defs
     id="defs3" />
  <sodipodi:namedview
     id="namedview3"
     pagecolor="#ffffff"
     bordercolor="#000000"
     borderopacity="0.25"
     inkscape:showpageshadow="2"
     inkscape:pageopacity="0.0"
     inkscape:pagecheckerboard="0"
     inkscape:deskcolor="#d1d1d1"
     inkscape:document-units="pt"
     inkscape:zoom="23.875"
     inkscape:cx="7.8115183"
     inkscape:cy="10.848168"
     inkscape:window-width="1920"
     inkscape:window-height="992"
     inkscape:window-x="0"
     inkscape:window-y="0"
     inkscape:window-maximized="1"
     inkscape:current-layer="svg3" />
  <linearGradient
     id="_lgradient_14"
     x1="0.057574466"
     y1="0.91938949"
     x2="0.78657478"
     y2="0.22015299"
     gradientTransform="matrix(15.999857,0,0,11.500055,7.2300747e-5,2.2499881)"
     gradientUnits="userSpaceOnUse">
    <stop
       offset="0%"
       stop-opacity="1"
       style="stop-color:#00ccff;stop-opacity:1"
       id="stop1" />
    <stop
       offset="51.73913043478261%"
       stop-opacity="1"
       style="stop-color:rgb(32,189,255)"
       id="stop2" />
    <stop
       offset="98.26086956521739%"
       stop-opacity="1"
       style="stop-color:#ffdd55;stop-opacity:1"
       id="stop3" />
  </linearGradient>
  <path
     d="m 12.152475,8.02892 v 0 c 0.0126,0.0031 0.0041,3.45e-4 10e-4,-3.43e-4 z m 0,-3.43e-4 c 0,0 0,0 0,3.43e-4 0.0041,0.0034 -0.001,0.0034 0.33804,0.02135 0.184849,0.02512 0.369698,0.06124 0.554548,0.111492 0.167147,0.043 0.33055,0.100476 0.487144,0.176182 0.117106,0.05369 0.231147,0.118373 0.333955,0.194076 0.106893,0.07881 0.202892,0.168957 0.287997,0.269436 0.08204,0.100476 0.15285,0.208529 0.206296,0.32346 0.06774,0.132826 0.113701,0.276663 0.145701,0.420499 0.04289,0.204744 0.06774,0.413273 0.07115,0.621801 0.0037,0.215411 -0.01055,0.434608 -0.04255,0.646921 -0.02145,0.147278 -0.05685,0.294556 -0.110297,0.434608 -0.03915,0.108049 -0.08885,0.211969 -0.15285,0.312793 -0.05345,0.08259 -0.117446,0.16173 -0.184849,0.229863 -0.07455,0.0757 -0.159999,0.140395 -0.248849,0.194076 -0.110297,0.06848 -0.231147,0.122158 -0.355742,0.165517 -0.138552,0.05024 -0.280848,0.08603 -0.426549,0.107705 -0.206296,0.03234 -0.412252,0.05024 -0.618548,0.05403 H 9.9553917 6.7557608 6.0446182 3.5629382 C 3.346089,12.308974 3.1326441,12.291032 2.9195396,12.255249 2.7700942,12.229786 2.6243933,12.190556 2.4820967,12.139972 2.364651,12.096962 2.2546945,12.042933 2.1478018,11.978243 2.0626958,11.924557 1.984399,11.86331 1.9132507,11.791392 1.8386987,11.719472 1.7746988,11.636888 1.7212524,11.547076 1.6538484,11.439371 1.6004024,11.32444 1.5612539,11.205722 1.5115519,11.069112 1.4795529,10.929061 1.4618509,10.785224 1.4332549,10.58048 1.4189579,10.375392 1.4227019,10.167208 1.4261019,9.958679 1.4509569,9.75015 1.4938499,9.548848 1.5258499,9.40157 1.5718069,9.261519 1.6358061,9.124907 1.6929971,9.009976 1.7638049,8.901926 1.8458468,8.804888 1.9275478,8.704412 2.0235473,8.610813 2.1300996,8.535452 2.2369922,8.456302 2.3506933,8.388175 2.4715433,8.334149 2.6315419,8.262229 2.7986893,8.201324 2.969241,8.158311 3.1506862,8.107731 3.6694901,7.942555 3.8580842,7.920878 v 0 c -0.00919,0 -0.017702,-0.0017 -0.026213,-0.0044 l 0.026213,0.0044 v 0 l 0.12085,-0.707829 C 4.1423333,6.235434 4.6332225,5.344197 5.369216,4.6938355 6.0980605,4.0469145 7.0366054,3.6911078 8.0034053,3.6873228 c 0.00374,0 0.00374,0 0.00374,0 v 0 0 c 0,0 0,0 0,0 h -0.00374 c 0.9885869,0.00377 1.9414294,0.3740441 2.6736787,1.0388588 0.743142,0.6754824 1.230287,1.5918384 1.372583,2.5911254 z m 1.243904,-1.261153 c 0.0048,9.93e-4 0.0099,0.002 0.01498,0.0034 0.2417,0.06469 0.479656,0.151063 0.710803,0.255327 0.202891,0.09704 0.398294,0.208185 0.579739,0.341355 0.199147,0.147277 0.380252,0.316234 0.540251,0.506524 0.156594,0.190636 0.291742,0.39538 0.398294,0.618361 0.113701,0.240875 0.202551,0.492417 0.255998,0.751186 0.064,0.294556 0.0994,0.596336 0.103148,0.901904 0.0034,0.294555 -0.0143,0.589455 -0.05685,0.880569 -0.03574,0.244315 -0.096,0.488632 -0.184849,0.722281 -0.07489,0.204744 -0.170892,0.398821 -0.287998,0.58567 -0.110297,0.176183 -0.24204,0.341355 -0.391145,0.488976 -0.15285,0.150719 -0.323742,0.283888 -0.508591,0.395035 -0.199148,0.118716 -0.408848,0.219539 -0.625697,0.2949 -0.216849,0.07536 -0.444251,0.129384 -0.671994,0.16517 -0.269955,0.04336 -0.543995,0.06848 -0.817695,0.07193 -0.0034,0 -0.0071,0 -0.01055,0 H 9.9553877 9.2442453 6.0446142 3.5557853 c -0.0034,0 -0.00715,0 -0.010553,0 -0.2845932,-0.0034 -0.5725907,-0.02854 -0.8534392,-0.07534 C 2.4538377,13.635111 2.2226908,13.57386 1.9949481,13.491274 1.7923967,13.415914 1.5932496,13.318877 1.4084001,13.203943 1.2306996,13.095895 1.0669564,12.96651 0.92125554,12.823018 0.76500164,12.664728 0.62610924,12.492331 0.50900394,12.305481 0.38815395,12.107619 0.29215481,11.89565 0.21726186,11.676453 0.1393051,11.450032 0.08245455,11.220168 0.05045483,10.982733 0.01471047,10.706072 -0.0029915,10.425969 4.1272075e-4,10.145522 0.00415737,9.84374 0.03956131,9.541614 0.10356074,9.243618 0.15700707,8.984849 0.24585735,8.733307 0.35955846,8.495873 0.4661107,8.273236 0.60125844,8.064707 0.75785274,7.877857 0.91410674,7.687221 1.0955519,7.518609 1.294699,7.370988 1.4795485,7.238163 1.674951,7.119446 1.8849917,7.026192 2.1157981,6.918143 2.3578385,6.832116 2.6066874,6.767424 c 0.0017,-6.88e-4 0.0034,-9.93e-4 0.00545,-0.0014 C 2.8620042,5.546188 3.5013177,4.4354112 4.4340753,3.6119633 5.4223219,2.7351787 6.6917574,2.253429 8.0034053,2.249988 c 0,0 0,0 0.00374,0 v 0 0 c 1.3368392,0.00344 2.6236357,0.5030844 3.6193717,1.4049887 0.905524,0.8203509 1.526795,1.9132353 1.769857,3.1124473 z m -7.8545688,4.029148 c -0.3642521,0 -0.6604197,-0.299374 -0.6604197,-0.667567 0,-0.367851 0.2961676,-0.667224 0.6604197,-0.667224 0.3639116,0 0.6600792,0.299373 0.6600792,0.667224 0,0.368193 -0.2961676,0.667567 -0.6600792,0.667567 z M 6.6492046,6.692753 c 0,-0.106673 0.075233,-0.199582 0.1790622,-0.221605 L 9.4457754,5.915414 c 0.015319,-0.0031 0.030638,-0.0048 0.045617,-0.0048 0.051064,0 0.1007643,0.0179 0.1412753,0.05092 0.05243,0.04301 0.08238,0.107017 0.08238,0.175495 V 6.465993 L 6.649203,7.124883 Z M 9.9152177,5.610881 C 9.7579427,5.481152 9.5536897,5.430913 9.3545422,5.472549 L 6.7370336,6.028282 C 6.4269087,6.093322 6.2018894,6.372733 6.2018894,6.692753 V 9.230541 C 6.0173804,9.091867 5.7889569,9.009625 5.5418102,9.009625 c -0.6110584,0 -1.1077349,0.502052 -1.1077349,1.11938 0,0.61767 0.4966765,1.119724 1.1077349,1.119724 0.6090158,0 1.104671,-0.4993 1.1073944,-1.114563 0,-3.44e-4 0,-6.87e-4 0,-0.0014 V 7.587403 L 9.7150497,6.928438 V 8.506856 C 9.5305407,8.367838 9.3021171,8.285596 9.0549704,8.285596 c -0.610718,0 -1.1077348,0.502397 -1.1077348,1.119724 0,0.617328 0.4970168,1.119724 1.1077348,1.119724 0.1198287,0 0.2376149,-0.01927 0.3502947,-0.05747 0.1174456,-0.03923 0.1807646,-0.16758 0.1416156,-0.285953 -0.03915,-0.118716 -0.1657856,-0.182721 -0.2828909,-0.143148 -0.067404,0.02272 -0.1375307,0.03407 -0.2090194,0.03407 -0.3642521,0 -0.6600793,-0.299375 -0.6600793,-0.667225 0,-0.367849 0.2958272,-0.667223 0.6600793,-0.667223 0.3639116,0 0.6600793,0.299374 0.6600793,0.667223 v 0.0014 c 0,0.124912 0.100084,0.226424 0.223657,0.226424 0.1235743,0 0.2236583,-0.101512 0.2236583,-0.226424 v -3.269702 0 0 c 0,-0.205089 -0.08987,-0.396757 -0.2471473,-0.52614 z"
     fill-rule="evenodd"
     fill="url(#_lgradient_14)"
     id="path3"
     style="fill:url(#_lgradient_14);stroke-width:0.34226" />
</svg>
