<?xml version="1.0" encoding="UTF-8" standalone="no"?>
<svg
   xmlns:dc="http://purl.org/dc/elements/1.1/"
   xmlns:cc="http://creativecommons.org/ns#"
   xmlns:rdf="http://www.w3.org/1999/02/22-rdf-syntax-ns#"
   xmlns:svg="http://www.w3.org/2000/svg"
   xmlns="http://www.w3.org/2000/svg"
   xmlns:xlink="http://www.w3.org/1999/xlink"
   xmlns:sodipodi="http://sodipodi.sourceforge.net/DTD/sodipodi-0.dtd"
   xmlns:inkscape="http://www.inkscape.org/namespaces/inkscape"
   width="16"
   height="16"
   version="1.1"
   id="svg31"
   sodipodi:docname="extensions.svg"
   inkscape:version="1.0.1 (3bc2e813f5, 2020-09-07)">
  <style
     id="style916"></style>
  <metadata
     id="metadata91">
    <rdf:RDF>
      <cc:Work
         rdf:about="">
        <dc:format>image/svg+xml</dc:format>
        <dc:type
           rdf:resource="http://purl.org/dc/dcmitype/StillImage" />
      </cc:Work>
    </rdf:RDF>
  </metadata>
  <sodipodi:namedview
     id="namedview33"
     pagecolor="#ffffff"
     bordercolor="#666666"
     borderopacity="1.0"
     inkscape:showpageshadow="2"
     inkscape:pageopacity="0.0"
     inkscape:pagecheckerboard="0"
     inkscape:deskcolor="#d1d1d1"
     showgrid="false"
     inkscape:zoom="14.898755"
     inkscape:cx="-5.7603253"
     inkscape:cy="19.329386"
     inkscape:window-width="1920"
     inkscape:window-height="994"
     inkscape:window-x="0"
     inkscape:window-y="0"
     inkscape:window-maximized="1"
     inkscape:current-layer="svg31"
     inkscape:document-rotation="0" />
  <defs
     id="defs17">
    <linearGradient
       id="a"
       y1="543.79999"
       y2="503.79999"
       gradientUnits="userSpaceOnUse"
       x2="0"
       gradientTransform="matrix(1.01818,0,0,1,-3.065,0)">
      <stop
         stop-color="#197cf1"
         id="stop2" />
      <stop
         offset="1"
         stop-color="#21c9fb"
         id="stop4" />
    </linearGradient>
    <linearGradient
       id="b"
       y1="524.79999"
       y2="531.79999"
       x1="401.57001"
       gradientUnits="userSpaceOnUse"
       x2="408.57001"
       gradientTransform="matrix(1.42857,0,0,1.42265,-159.1,-232.81)">
      <stop
         stop-color="#292c2f"
         id="stop7" />
      <stop
         offset="1"
         stop-opacity="0"
         id="stop9" />
    </linearGradient>
    <linearGradient
       id="c"
       y1="532.78998"
       y2="514.79999"
       x2="0"
       gradientUnits="userSpaceOnUse">
      <stop
         stop-color="#7cbaf8"
         id="stop12" />
      <stop
         offset="1"
         stop-color="#f4fcff"
         id="stop14" />
    </linearGradient>
    <linearGradient
       id="linearGradient2163-3"
       x1="-177.09"
       x2="-177.09"
       y1="-1.3372"
       y2="-15.638"
       gradientTransform="matrix(2.886197,0,0,2.886197,536.24374,47.865403)"
       gradientUnits="userSpaceOnUse">
      <stop
         stop-color="#78b4dc"
         offset="0"
         id="stop288" />
      <stop
         stop-color="#0096f0"
         offset="1"
         id="stop290"
         style="stop-color:#ffb380;stop-opacity:1" />
    </linearGradient>
    <linearGradient
       id="linearGradient2230-5"
       x1="-235.64"
       x2="-175.89"
       y1="49.390999"
       y2="49.390999"
       gradientTransform="matrix(0.7782334,0,0,0.7782334,228.81616,-47.450637)"
       gradientUnits="userSpaceOnUse">
      <stop
         stop-color="#2d69e6"
         offset="0"
         id="stop293" />
      <stop
         stop-color="#3791d7"
         offset=".3497"
         id="stop295" />
      <stop
         stop-color="#2887cd"
         offset="1"
         id="stop297" />
    </linearGradient>
    <linearGradient
       id="linearGradient2208-3"
       x1="-230.89"
       x2="-207.22"
       y1="41.877998"
       y2="41.877998"
       gradientTransform="matrix(0.76362913,0,0,0.76362913,225.83446,-47.393569)"
       gradientUnits="userSpaceOnUse">
      <stop
         stop-color="#b4dcff"
         offset="0"
         id="stop300" />
      <stop
         stop-color="#c8faff"
         offset="1"
         id="stop302" />
    </linearGradient>
    <linearGradient
       id="linearGradient2216-5"
       x1="-192.39"
       x2="-175.89"
       y1="41.966999"
       y2="34.297001"
       gradientTransform="matrix(0.76362913,0,0,0.76362913,225.83446,-47.393569)"
       gradientUnits="userSpaceOnUse">
      <stop
         stop-color="#96d9ff"
         offset="0"
         id="stop305" />
      <stop
         stop-color="#f0fafa"
         offset="1"
         id="stop307" />
    </linearGradient>
    <linearGradient
       id="linearGradient80038"
       x1="33.014"
       x2="34.219002"
       y1="10.136"
       y2="9.4466"
       gradientTransform="matrix(1.9841578,-0.3556122,0.3556122,1.9841578,26.405631,12.935024)"
       gradientUnits="userSpaceOnUse">
      <stop
         stop-color="#3c292c"
         offset="0"
         id="stop236" />
      <stop
         stop-color="#c2bbc2"
         offset=".1557"
         id="stop238" />
      <stop
         stop-color="#50393c"
         offset=".42952"
         id="stop240" />
      <stop
         stop-color="#dddee3"
         offset=".60187"
         id="stop242" />
      <stop
         stop-color="#6a5a5b"
         offset=".88993"
         id="stop244" />
      <stop
         stop-color="#806e74"
         offset="1"
         id="stop246" />
    </linearGradient>
    <linearGradient
       id="linearGradient126082"
       x1="33.173"
       x2="34.636002"
       y1="10.722"
       y2="9.8470001"
       gradientTransform="matrix(1.9841578,-0.3556122,0.3556122,1.9841578,26.405631,12.935024)"
       gradientUnits="userSpaceOnUse">
      <stop
         stop-color="#533c3c"
         offset="0"
         id="stop249" />
      <stop
         stop-color="#c2bac0"
         offset=".079999"
         id="stop251" />
      <stop
         stop-color="#432c2d"
         offset=".46848"
         id="stop253" />
      <stop
         stop-color="#cecbd2"
         offset=".60206"
         id="stop255" />
      <stop
         stop-color="#675556"
         offset=".91407"
         id="stop257" />
      <stop
         stop-color="#8a7b84"
         offset="1"
         id="stop259" />
    </linearGradient>
    <linearGradient
       id="linearGradient1902"
       x1="32"
       x2="32"
       y1="2.0005"
       y2="61.905998"
       gradientUnits="userSpaceOnUse"
       gradientTransform="matrix(0.53333328,0,0,0.53333328,72.264955,-5.2169944)">
      <stop
         stop-color="#f5f5f5"
         offset="0"
         id="stop311" />
      <stop
         stop-color="#dcdcdc"
         offset="1"
         id="stop313" />
    </linearGradient>
    <linearGradient
       id="linearGradient181487"
       x1="33.624001"
       x2="35.493"
       y1="12.027"
       y2="10.924"
       gradientTransform="matrix(1.9841602,-0.35563198,0.35563198,1.9841602,26.40309,12.936079)"
       gradientUnits="userSpaceOnUse">
      <stop
         stop-color="#542a2e"
         offset="0"
         id="stop262" />
      <stop
         stop-color="#482a2d"
         offset=".063817"
         id="stop264" />
      <stop
         stop-color="#341e21"
         offset=".19594"
         id="stop266" />
      <stop
         stop-color="#664748"
         offset=".53477"
         id="stop268" />
      <stop
         stop-color="#d2cad1"
         offset=".66939"
         id="stop270" />
      <stop
         stop-color="#55363a"
         offset=".95152"
         id="stop272" />
      <stop
         stop-color="#70494f"
         offset="1"
         id="stop274" />
    </linearGradient>
    <linearGradient
       id="linearGradient2181"
       x1="32.855"
       x2="32.855"
       y1="1.7684"
       y2="10.314"
       gradientTransform="matrix(1.9841578,-0.3556122,0.3556122,1.9841578,23.35037,13.482639)"
       gradientUnits="userSpaceOnUse">
      <stop
         stop-color="#f6ffff"
         offset="0"
         id="stop219" />
      <stop
         stop-color="#583e3f"
         offset="1"
         id="stop221" />
    </linearGradient>
    <linearGradient
       id="linearGradient27086"
       x1="32.855"
       x2="32.855"
       y1="1.7684"
       y2="10.314"
       gradientTransform="matrix(1.9543527,-0.35028093,0.35028093,1.9543527,24.362117,13.487568)"
       gradientUnits="userSpaceOnUse">
      <stop
         stop-color="#f4fbfb"
         offset="0"
         id="stop224" />
      <stop
         stop-color="#565050"
         offset=".49983"
         id="stop226" />
      <stop
         stop-color="#c2b4b2"
         offset="1"
         id="stop228" />
    </linearGradient>
    <radialGradient
       id="radialGradient1539"
       cx="33.299"
       cy="5.9839001"
       r="3.2704"
       gradientTransform="matrix(2.0157736,0,0,2.0157736,19.740565,17.488911)"
       gradientUnits="userSpaceOnUse">
      <stop
         stop-color="#fff"
         stop-opacity=".204"
         offset="0"
         id="stop212" />
      <stop
         stop-color="#fff"
         stop-opacity=".204"
         offset=".7"
         id="stop214" />
      <stop
         stop-color="#191919"
         offset="1"
         id="stop216" />
    </radialGradient>
    <linearGradient
       id="linearGradient59103"
       x1="31.417999"
       x2="31.417999"
       y1="9.3065004"
       y2="2.6166"
       gradientTransform="matrix(2.0157736,0,0,2.0157736,23.659227,17.390739)"
       gradientUnits="userSpaceOnUse">
      <stop
         stop-color="#f3f7f6"
         offset="0"
         id="stop231" />
      <stop
         stop-color="#605e5d"
         offset="1"
         id="stop233" />
    </linearGradient>
    <linearGradient
       id="linearGradient1541"
       x1="-228.53999"
       x2="-228.53999"
       y1="49.422001"
       y2="52.341999"
       gradientTransform="translate(237.02,-44.947)"
       gradientUnits="userSpaceOnUse"
       xlink:href="#linearGradient997" />
    <linearGradient
       id="linearGradient997"
       x1="-228.53999"
       x2="-228.53999"
       y1="49.422001"
       y2="52.341999"
       gradientTransform="translate(237.02,-44.947)"
       gradientUnits="userSpaceOnUse">
      <stop
         stop-color="#fff"
         offset="0"
         id="stop283" />
      <stop
         stop-color="#fff"
         stop-opacity="0"
         offset="1"
         id="stop285" />
    </linearGradient>
    <filter
       id="filter1229"
       x="-0.069095559"
       y="-0.10709949"
       width="1.1381911"
       height="1.2141989"
       color-interpolation-filters="sRGB">
      <feGaussianBlur
         stdDeviation="0.1347133"
         id="feGaussianBlur277" />
    </filter>
    <filter
       id="filter563"
       x="-0.069095559"
       y="-0.10709949"
       width="1.1381911"
       height="1.2141989"
       color-interpolation-filters="sRGB">
      <feGaussianBlur
         stdDeviation="0.1347133"
         id="feGaussianBlur561" />
    </filter>
    <filter
       id="filter1251"
       x="-0.20800194"
       y="-0.28363517"
       width="1.4160039"
       height="1.5672703"
       color-interpolation-filters="sRGB">
      <feGaussianBlur
         stdDeviation="0.069956252"
         id="feGaussianBlur280" />
    </filter>
    <radialGradient
       id="radialGradient1539-3"
       cx="33.299"
       cy="5.9839001"
       r="3.2704"
       gradientTransform="matrix(2.6457028,0,0,2.6457028,-64.134214,19.461678)"
       gradientUnits="userSpaceOnUse">
      <stop
         stop-color="#fff"
         stop-opacity=".204"
         offset="0"
         id="stop212-8" />
      <stop
         stop-color="#fff"
         stop-opacity=".204"
         offset=".7"
         id="stop214-3" />
      <stop
         stop-color="#191919"
         offset="1"
         id="stop216-3" />
    </radialGradient>
    <filter
       id="filter1229-6"
       x="-0.069095559"
       y="-0.10709949"
       width="1.1381911"
       height="1.2141989"
       color-interpolation-filters="sRGB">
      <feGaussianBlur
         stdDeviation="0.1347133"
         id="feGaussianBlur277-8" />
    </filter>
    <filter
       id="filter58338"
       x="-0.069095559"
       y="-0.10709949"
       width="1.1381911"
       height="1.2141989"
       color-interpolation-filters="sRGB">
      <feGaussianBlur
         stdDeviation="0.1347133"
         id="feGaussianBlur58336" />
    </filter>
  </defs>
  <path
     d="m 6.7254527,1.5 c -0.9150767,0 -1.6568508,0.513543 -1.6568508,1.147054 0.026519,0.23633 0.176023,0.534788 0.2549228,0.637247 0.382344,0.509801 0.382344,0.828425 0.286768,1.019609 H 2.519612 C 1.954755,4.30391 1.5,4.758666 1.5,5.32352 v 2.580875 c 0.1911953,0.09558 0.5097997,0.09558 1.019612,-0.286766 0.102432,-0.07886 0.400886,-0.228281 0.6372558,-0.254922 0.6334992,0 1.1470399,0.741819 1.1470399,1.656858 0,0.915082 -0.5135407,1.656857 -1.1470401,1.656857 C 2.9624384,10.673222 2.666835,10.499249 2.519612,10.421549 2.0097997,10.039207 1.6911885,10.039207 1.5,10.134784 V 13.48039 C 1.5,14.045243 1.954755,14.5 2.519612,14.5 H 6.6300629 C 6.7256899,14.308803 6.7256899,13.990195 6.3433,13.48039 6.26436,13.377923 6.1150116,13.07946 6.088383,12.843142 c 0,-0.633507 0.7418153,-1.14705 1.6568556,-1.14705 0.9150346,0 1.6568539,0.513543 1.6568539,1.14705 -0.00418,0.194423 -0.1771797,0.490021 -0.2549299,0.637248 C 8.7648294,13.990195 8.7648294,14.308814 8.8604054,14.5 h 1.8161806 c 0.564843,0 1.019616,-0.454757 1.019616,-1.01961 v -2.835802 c 0.19119,-0.09558 0.509804,-0.09558 1.019606,0.286766 0.147229,0.0777 0.442848,0.251599 0.63724,0.254876 0.633513,0 1.147062,-0.741819 1.147062,-1.6568577 0,-0.9150823 -0.513549,-1.6568563 -1.147062,-1.6568563 -0.236323,0.02651 -0.534787,0.176022 -0.63724,0.254923 -0.509802,0.382338 -0.828436,0.382338 -1.019606,0.286762 V 5.32352 c 0,-0.564854 -0.454773,-1.01961 -1.019616,-1.01961 H 7.8407918 C 7.7451358,4.112715 7.7451358,3.794102 8.127556,3.284301 8.205249,3.137049 8.3791561,2.841444 8.3824841,2.647054 8.3824841,2.013543 7.6406647,1.5 6.7256263,1.5 Z"
     stroke-width="2.57837"
     id="path3"
     style="fill:#00b2b2;fill-opacity:1" />
  <path
     fill-rule="evenodd"
     clip-rule="evenodd"
     d="m 12.988429,6.218277 c 0.103949,0.05529 0.184198,0.142486 0.240627,0.229729 0.110048,0.180285 0.100986,0.401287 -0.0058,0.596116 l -0.207992,0.348943 c -0.109979,0.186104 -0.315048,0.302426 -0.526053,0.302426 -0.103984,0 -0.219908,-0.02912 -0.314966,-0.08723 -0.07722,-0.04944 -0.166395,-0.06689 -0.261534,-0.06689 -0.29415,0 -0.540836,0.241352 -0.54975,0.529241 0,0.334405 -0.273404,0.596118 -0.615158,0.596118 h -0.404202 c -0.3447283,0 -0.618126,-0.261713 -0.618126,-0.596118 -0.00576,-0.287887 -0.2525999,-0.52924 -0.5468061,-0.52924 -0.09801,0 -0.187212,0.01741 -0.2615121,0.06689 -0.09515,0.0582 -0.2139716,0.08723 -0.31501,0.08723 -0.2139716,0 -0.4190099,-0.116306 -0.528969,-0.302427 L 7.8679316,7.044122 C 7.7580059,6.855105 7.7520988,6.628291 7.8621816,6.448006 7.9097306,6.360776 7.9989225,6.273528 8.0999176,6.218277 8.1830456,6.177557 8.2366409,6.110681 8.2871334,6.032172 8.4357401,5.78209 8.3466174,5.4535 8.0939776,5.305198 7.8001776,5.139447 7.7050756,4.770144 7.874467,4.482263 L 8.0735662,4.139125 C 8.2459378,3.851247 8.6144288,3.749472 8.9116106,3.918132 9.1701448,4.057717 9.5059501,3.964662 9.6575102,3.717485 9.7050762,3.636065 9.7318402,3.548826 9.7257932,3.46159 9.7200332,3.34818 9.7525732,3.240589 9.8088872,3.153353 9.9188324,2.973064 10.11795,2.856747 10.334897,2.850932 h 0.419008 c 0.219903,0 0.419011,0.122126 0.52897,0.302421 0.05347,0.08723 0.08916,0.194829 0.08025,0.308237 -0.0058,0.08723 0.02082,0.174474 0.06828,0.255895 0.15157,0.247172 0.487411,0.340223 0.748847,0.200647 0.294239,-0.168659 0.665726,-0.06689 0.835115,0.220993 l 0.199034,0.343138 c 0.17239,0.287881 0.07722,0.657184 -0.219916,0.822935 -0.252612,0.148303 -0.341769,0.476892 -0.190189,0.726974 0.04753,0.07851 0.101004,0.145393 0.184287,0.186105 z M 9.7046114,5.761739 c 0,0.456538 0.3774176,0.820035 0.8439816,0.820035 0.466562,0 0.835057,-0.363497 0.835057,-0.820035 0,-0.45654 -0.368495,-0.822937 -0.835057,-0.822937 -0.466564,0 -0.8439816,0.366397 -0.8439816,0.822937 z"
     id="path2-3"
     style="fill:#5effff;fill-opacity:1;stroke-width:0.999997" />
</svg>
