<?xml version="1.0" encoding="UTF-8" standalone="no"?>
<svg
   version="1.1"
   viewBox="0 0 16 16"
   id="svg28"
   sodipodi:docname="7kaa.svg"
   inkscape:version="1.4 (e7c3feb100, 2024-10-09)"
   width="16"
   height="16"
   xmlns:inkscape="http://www.inkscape.org/namespaces/inkscape"
   xmlns:sodipodi="http://sodipodi.sourceforge.net/DTD/sodipodi-0.dtd"
   xmlns:xlink="http://www.w3.org/1999/xlink"
   xmlns="http://www.w3.org/2000/svg"
   xmlns:svg="http://www.w3.org/2000/svg">
  <sodipodi:namedview
     id="namedview30"
     pagecolor="#ffffff"
     bordercolor="#666666"
     borderopacity="1.0"
     inkscape:showpageshadow="2"
     inkscape:pageopacity="0.0"
     inkscape:pagecheckerboard="0"
     inkscape:deskcolor="#d1d1d1"
     showgrid="false"
     inkscape:zoom="27.812867"
     inkscape:cx="3.5055717"
     inkscape:cy="8.3055083"
     inkscape:window-width="1920"
     inkscape:window-height="994"
     inkscape:window-x="0"
     inkscape:window-y="0"
     inkscape:window-maximized="1"
     inkscape:current-layer="svg28" />
  <defs
     id="defs12">
    <linearGradient
       id="b"
       x1="15.425"
       x2="31.702721"
       y1="13.05"
       y2="30.814844"
       gradientTransform="matrix(1.0041687,0,0,0.94967539,386.73655,504.5339)"
       gradientUnits="userSpaceOnUse">
      <stop
         offset="0"
         id="stop2" />
      <stop
         stop-opacity="0"
         offset="1"
         id="stop4" />
    </linearGradient>
    <linearGradient
       id="a"
       x1="30.207001"
       x2="14"
       y1="43"
       y2="10"
       gradientTransform="matrix(-1,0,0,1,432.30321,499.798)"
       gradientUnits="userSpaceOnUse">
      <stop
         stop-color="#cebee5"
         offset="0"
         id="stop7" />
      <stop
         stop-color="#f1f1f1"
         offset="1"
         id="stop9" />
    </linearGradient>
    <linearGradient
       id="linearGradient4416">
      <stop
         style="stop-color:#ffffff;stop-opacity:0"
         offset="0"
         id="stop2-5" />
      <stop
         style="stop-color:#ffffff;stop-opacity:1"
         offset="1"
         id="stop4-3" />
    </linearGradient>
    <linearGradient
       inkscape:collect="always"
       xlink:href="#linearGradient4"
       id="linearGradient2"
       x1="10.707617"
       y1="31.534513"
       x2="37.173615"
       y2="31.534513"
       gradientUnits="userSpaceOnUse"
       gradientTransform="matrix(0.49119628,0,0,0.49119635,-3.7595399,-7.4896383)" />
    <linearGradient
       id="linearGradient4"
       inkscape:collect="always">
      <stop
         style="stop-color:#ffb380;stop-opacity:1"
         offset="0"
         id="stop3" />
      <stop
         style="stop-color:#cd87de;stop-opacity:1"
         offset="1"
         id="stop4-2" />
    </linearGradient>
    <linearGradient
       id="a-9">
      <stop
         offset="0"
         id="stop1433" />
      <stop
         offset="1"
         stop-opacity="0"
         id="stop1435" />
    </linearGradient>
    <linearGradient
       id="paint0_linear_1005_314"
       x1="64.002602"
       y1="122"
       x2="64.002602"
       y2="63.264801"
       gradientUnits="userSpaceOnUse"
       gradientTransform="translate(4.0052653e-6)">
      <stop
         stop-color="#A93AFF"
         id="stop1" />
      <stop
         offset="1"
         stop-color="#FF81FF"
         id="stop2-3" />
    </linearGradient>
  </defs>
  <path
     id="circle2"
     style="opacity:0.99;fill:url(#linearGradient2);fill-opacity:1;stroke-width:0.491199"
     d="M 14.499999,8.0000008 A 6.4999993,6.5000004 0 0 1 8.0000001,14.5 6.4999993,6.5000004 0 0 1 1.5000011,8.0000008 6.4999993,6.5000004 0 0 1 8.0000001,1.4999997 6.4999993,6.5000004 0 0 1 14.499999,8.0000008 Z" />
  <path
     id="circle858"
     style="fill:#1c202f;fill-opacity:1;stroke-width:0.417883"
     d="M 13.529826,8.0000008 A 5.5298259,5.5298271 0 0 1 8.0000001,13.529826 5.5298259,5.5298271 0 0 1 2.4701741,8.0000008 5.5298259,5.5298271 0 0 1 8.0000001,2.4701737 5.5298259,5.5298271 0 0 1 13.529826,8.0000008 Z" />
  <g
     fill="#ffffff"
     id="g4"
     transform="matrix(0.2608695,0,0,0.26666667,1.7391321,1.7999999)">
    <path
       d="m 34.5,21 4.5,10.5 -6,3 C 36,30 31.5,24 28.5,22.5 l -4.5,6 -4.5,-6 C 16.5,24 12,30 15,34.5 L 9,31.5 13.5,21 v -9 l 5.25,3 5.25,-3 5.25,3 5.25,-3 z"
       id="path2" />
    <path
       d="m 33,19.5 c 4.5,0 6.042421,-0.65354 7.5,-3 0,4.5 -3,9 -7.5,9"
       fill-opacity="0.497696"
       id="path3-3" />
    <path
       d="m 15,19.5 c -4.5,0 -6.042421,-0.65354 -7.5,-3 0,4.5 3,9 7.5,9"
       fill-opacity="0.497696"
       id="path4-3" />
  </g>
</svg>
