<?xml version="1.0" encoding="UTF-8" standalone="no"?>
<!-- Generator: Gravit.io -->

<svg
   style="isolation:isolate"
   viewBox="0 0 16 16"
   width="16pt"
   height="16pt"
   version="1.1"
   id="svg2"
   sodipodi:docname="ardour.svg"
   inkscape:version="1.3.2 (091e20ef0f, 2023-11-25)"
   xmlns:inkscape="http://www.inkscape.org/namespaces/inkscape"
   xmlns:sodipodi="http://sodipodi.sourceforge.net/DTD/sodipodi-0.dtd"
   xmlns:xlink="http://www.w3.org/1999/xlink"
   xmlns="http://www.w3.org/2000/svg"
   xmlns:svg="http://www.w3.org/2000/svg">
  <defs
     id="defs2">
    <linearGradient
       id="linearGradient2"
       inkscape:collect="always">
      <stop
         style="stop-color:#ff2a2a;stop-opacity:1"
         offset="0"
         id="stop3" />
      <stop
         style="stop-color:#ffd42a;stop-opacity:1"
         offset="1"
         id="stop4" />
    </linearGradient>
    <linearGradient
       inkscape:collect="always"
       xlink:href="#linearGradient2"
       id="linearGradient4"
       x1="0.99999976"
       y1="9.6897001"
       x2="15"
       y2="1.5"
       gradientUnits="userSpaceOnUse" />
  </defs>
  <sodipodi:namedview
     id="namedview2"
     pagecolor="#ffffff"
     bordercolor="#000000"
     borderopacity="1"
     inkscape:showpageshadow="2"
     inkscape:pageopacity="0.0"
     inkscape:pagecheckerboard="0"
     inkscape:deskcolor="#d1d1d1"
     inkscape:document-units="pt"
     inkscape:zoom="11.984375"
     inkscape:cx="14.018253"
     inkscape:cy="17.27249"
     inkscape:window-width="1920"
     inkscape:window-height="996"
     inkscape:window-x="0"
     inkscape:window-y="0"
     inkscape:window-maximized="1"
     inkscape:current-layer="svg2" />
  <linearGradient
     id="_lgradient_5"
     x1="0.51808703"
     y1="0.033331186"
     x2="0.50732738"
     y2="0.96818912"
     gradientTransform="matrix(13.999956,0,0,13.000147,1.0000433,1.4998529)"
     gradientUnits="userSpaceOnUse">
    <stop
       offset="0%"
       stop-opacity="1"
       style="stop-color:rgb(244,97,51)"
       id="stop1" />
    <stop
       offset="98.75%"
       stop-opacity="1"
       style="stop-color:rgb(240,80,129)"
       id="stop2" />
  </linearGradient>
  <path
     d="m 5.833649,11.314783 v 2.302315 H 4.937652 v -1.513883 c -0.1520209,0.209248 -0.2828365,0.432033 -0.3939402,0.666297 -0.1791995,0.367876 -0.3315189,0.74458 -0.4599453,1.133057 l -0.1403725,0.417908 -0.010155,-0.0032 v 0 C 3.8884392,14.424365 3.7815169,14.5 3.6566749,14.5 H 3.4446219 1.5719881 C 1.0773977,14.5 0.86235846,14.149488 1.0920324,13.718043 L 7.4219532,1.8235837 c 0.2296738,-0.4314449 0.6024087,-0.4314449 0.8320825,0 L 15,14.5 h -2.084689 -0.0059 l -0.313599,-0.279586 c -0.06273,-0.0618 -0.1344,-0.11772 -0.209067,-0.161865 -0.152319,-0.09418 -0.307626,-0.18541 -0.462931,-0.2737 -0.03884,-0.02178 -0.07796,-0.04385 -0.116779,-0.06622 V 14.5 h -0.895997 v -1.3323 c -0.0018,-0.0012 -0.0038,-0.0026 -0.0056,-0.0038 -0.204288,-0.135673 -0.401407,-0.279292 -0.591657,-0.431445 v 1.178968 H 9.4176373 V 11.928989 C 9.3131044,11.838344 9.2055848,11.750937 9.0953771,11.665884 9.0066733,11.599372 8.9149831,11.537863 8.8203059,11.481651 v 2.135447 H 7.9243086 v -2.46212 c -0.1977164,-0.02884 -0.3972252,-0.04562 -0.5973312,-0.05033 v 2.218145 H 6.4309806 v -2.186066 c -0.2063784,0.02972 -0.4076789,0.08947 -0.5973316,0.178052 z m 7.415868,2.302315 h 0.269098 L 7.8379944,2.9428094 2.1573729,13.617098 h 1.0751967 c 0.1397755,-0.417907 0.3088201,-0.826985 0.4987715,-1.224291 0.182186,-0.379648 0.409172,-0.732809 0.6749845,-1.05654 0.2628258,-0.317845 0.5883712,-0.582716 0.9527437,-0.776954 0.3912518,-0.197182 0.824317,-0.309016 1.2663422,-0.326674 0.176213,-0.0088 0.349439,-0.01177 0.5256519,-0.01177 0.3106122,-0.0059 0.6212246,0.01766 0.9258637,0.06475 0.2837322,0.04415 0.5585049,0.12655 0.8183441,0.238384 0.2658123,0.120663 0.5166916,0.267814 0.7466639,0.444394 0.2628261,0.200124 0.5107189,0.414964 0.7436779,0.647462 0.3136,0.300186 0.654078,0.573886 1.018449,0.815213 0.313599,0.20601 0.636157,0.403192 0.96469,0.588601 0.164266,0.09123 0.325545,0.188353 0.483838,0.285472 0.140376,0.0824 0.268799,0.182466 0.382294,0.297244 l 0.01462,0.01471 z"
     fill-rule="evenodd"
     id="path2"
     style="fill:url(#linearGradient4);stroke-width:0.296476;fill-opacity:1" />
</svg>
