<?xml version="1.0" encoding="UTF-8" standalone="no"?>
<svg
   width="16"
   height="16"
   viewBox="0 0 16 16"
   fill="none"
   version="1.1"
   id="svg5"
   sodipodi:docname="python.svg"
   inkscape:version="1.3 (0e150ed6c4, 2023-07-21)"
   xmlns:inkscape="http://www.inkscape.org/namespaces/inkscape"
   xmlns:sodipodi="http://sodipodi.sourceforge.net/DTD/sodipodi-0.dtd"
   xmlns="http://www.w3.org/2000/svg"
   xmlns:svg="http://www.w3.org/2000/svg">
  <sodipodi:namedview
     id="namedview5"
     pagecolor="#ffffff"
     bordercolor="#000000"
     borderopacity="0.25"
     inkscape:showpageshadow="2"
     inkscape:pageopacity="0.0"
     inkscape:pagecheckerboard="0"
     inkscape:deskcolor="#d1d1d1"
     inkscape:zoom="16.948466"
     inkscape:cx="1.4160574"
     inkscape:cy="8.7028527"
     inkscape:window-width="1920"
     inkscape:window-height="994"
     inkscape:window-x="0"
     inkscape:window-y="0"
     inkscape:window-maximized="1"
     inkscape:current-layer="svg5" />
  <path
     d="M 8,6.05 H 3.45 C 3.105218,6.05 2.774559,6.186955 2.530761,6.43077 2.286964,6.674563 2.15,7.005218 2.15,7.35 v 2.6 c 0,0.344782 0.136964,0.675437 0.380761,0.91923 C 2.774559,11.113045 3.105218,11.25 3.45,11.25 H 5.183333 M 8,9.95 h 4.549999 c 0.344782,0 0.675437,-0.136955 0.91923,-0.38077 0.243815,-0.243793 0.38077,-0.574448 0.38077,-0.91923 v -2.6 c 0,-0.344782 -0.136955,-0.675437 -0.38077,-0.91923 C 13.225436,4.886955 12.894781,4.75 12.549999,4.75 H 10.6"
     stroke="url(#paint0_linear_695_33)"
     stroke-width="1.3"
     stroke-linecap="round"
     stroke-linejoin="round"
     id="path1"
     style="stroke:url(#paint0_linear_695_33)" />
  <path
     d="M 5.4,5.4 V 3.45 C 5.4,3.105218 5.536955,2.774559 5.78077,2.530761 6.024563,2.286964 6.355218,2.15 6.7,2.15 h 2.6 c 0.344782,0 0.675437,0.136964 0.91923,0.380761 C 10.463045,2.774559 10.6,3.105218 10.6,3.45 V 6.7 c 0,0.344782 -0.136955,0.675437 -0.38077,0.91923 C 9.975437,7.863045 9.644782,8 9.3,8 H 6.7 C 6.355218,8 6.024563,8.136955 5.78077,8.38077 5.536955,8.624563 5.4,8.955218 5.4,9.3 v 3.25 c 0,0.344782 0.136955,0.675437 0.38077,0.91923 C 6.024563,13.713045 6.355218,13.85 6.7,13.85 h 2.6 c 0.344782,0 0.675437,-0.136955 0.91923,-0.38077 C 10.463045,13.225437 10.6,12.894782 10.6,12.55 V 10.6"
     stroke-width="1.3"
     stroke-linejoin="round"
     id="path2"
     style="stroke:url(#paint1_linear_695_33)" />
  <defs
     id="defs5">
    <linearGradient
       id="paint0_linear_695_33"
       x1="45.5"
       y1="41"
       x2="45.5"
       y2="17"
       gradientUnits="userSpaceOnUse"
       gradientTransform="matrix(0.21666667,0,0,0.21666667,1.066667,1.066666)">
      <stop
         stop-color="#FD5900"
         id="stop2" />
      <stop
         offset="1"
         stop-color="#FFDE00"
         id="stop3" />
    </linearGradient>
    <linearGradient
       id="paint1_linear_695_33"
       x1="32"
       y1="59"
       x2="32"
       y2="5"
       gradientUnits="userSpaceOnUse"
       gradientTransform="matrix(0.21666667,0,0,0.21666667,1.066667,1.066666)">
      <stop
         stop-color="#5570FF"
         id="stop4" />
      <stop
         offset="1"
         stop-color="#4DD3FF"
         id="stop5" />
    </linearGradient>
  </defs>
</svg>
