<?xml version="1.0" encoding="UTF-8" standalone="no"?>
<svg
   height="16"
   width="16"
   version="1"
   id="svg20"
   sodipodi:docname="accerciser.svg"
   inkscape:version="1.4.2 (unknown)"
   xmlns:inkscape="http://www.inkscape.org/namespaces/inkscape"
   xmlns:sodipodi="http://sodipodi.sourceforge.net/DTD/sodipodi-0.dtd"
   xmlns:xlink="http://www.w3.org/1999/xlink"
   xmlns="http://www.w3.org/2000/svg"
   xmlns:svg="http://www.w3.org/2000/svg"
   xmlns:rdf="http://www.w3.org/1999/02/22-rdf-syntax-ns#"
   xmlns:cc="http://creativecommons.org/ns#"
   xmlns:dc="http://purl.org/dc/elements/1.1/">
  <metadata
     id="metadata26">
    <rdf:RDF>
      <cc:Work
         rdf:about="">
        <dc:format>image/svg+xml</dc:format>
        <dc:type
           rdf:resource="http://purl.org/dc/dcmitype/StillImage" />
      </cc:Work>
    </rdf:RDF>
  </metadata>
  <defs
     id="defs24">
    <linearGradient
       inkscape:collect="always"
       id="linearGradient4525">
      <stop
         style="stop-color:#952921;stop-opacity:1"
         offset="0"
         id="stop4521" />
      <stop
         style="stop-color:#e73c2f;stop-opacity:0.98039216"
         offset="1"
         id="stop4523" />
    </linearGradient>
    <linearGradient
       inkscape:collect="always"
       id="linearGradient4517">
      <stop
         style="stop-color:#ba3428;stop-opacity:1"
         offset="0"
         id="stop4513" />
      <stop
         style="stop-color:#d8564b;stop-opacity:1"
         offset="1"
         id="stop4515" />
    </linearGradient>
    <linearGradient
       inkscape:collect="always"
       id="linearGradient4509">
      <stop
         style="stop-color:#2e62a2;stop-opacity:1"
         offset="0"
         id="stop4505" />
      <stop
         style="stop-color:#679cdd;stop-opacity:1"
         offset="1"
         id="stop4507" />
    </linearGradient>
    <linearGradient
       inkscape:collect="always"
       xlink:href="#linearGradient4509"
       id="linearGradient4511"
       x1="24.086956"
       y1="27.804348"
       x2="24.086956"
       y2="19.97826"
       gradientUnits="userSpaceOnUse" />
    <linearGradient
       inkscape:collect="always"
       xlink:href="#linearGradient4517"
       id="linearGradient4519"
       x1="-39"
       y1="-6"
       x2="-9"
       y2="-6"
       gradientUnits="userSpaceOnUse" />
    <linearGradient
       inkscape:collect="always"
       xlink:href="#linearGradient4525"
       id="linearGradient4527"
       x1="-44"
       y1="-13"
       x2="-4"
       y2="-13"
       gradientUnits="userSpaceOnUse" />
    <linearGradient
       inkscape:collect="always"
       xlink:href="#linearGradient4525"
       id="linearGradient4535"
       x1="-44"
       y1="-35"
       x2="-4"
       y2="-35"
       gradientUnits="userSpaceOnUse" />
    <linearGradient
       inkscape:collect="always"
       xlink:href="#linearGradient4517"
       id="linearGradient4543"
       x1="-39"
       y1="-42"
       x2="-9"
       y2="-42"
       gradientUnits="userSpaceOnUse" />
  </defs>
  <sodipodi:namedview
     pagecolor="#ffffff"
     bordercolor="#666666"
     borderopacity="1"
     objecttolerance="10"
     gridtolerance="10"
     guidetolerance="10"
     inkscape:pageopacity="0"
     inkscape:pageshadow="2"
     inkscape:window-width="1920"
     inkscape:window-height="996"
     id="namedview22"
     showgrid="false"
     inkscape:zoom="30.151033"
     inkscape:cx="9.0378329"
     inkscape:cy="8.8388348"
     inkscape:window-x="0"
     inkscape:window-y="0"
     inkscape:window-maximized="1"
     inkscape:current-layer="svg20"
     inkscape:showpageshadow="2"
     inkscape:pagecheckerboard="0"
     inkscape:deskcolor="#d1d1d1">
    <inkscape:grid
       type="xygrid"
       id="grid4503"
       originx="0"
       originy="0"
       spacingy="1"
       spacingx="1"
       units="px"
       visible="false" />
  </sodipodi:namedview>
  <g
     id="g1"
     transform="matrix(0.325,0,0,0.325,0.2,0.2)">
    <rect
       rx="3"
       ry="3"
       height="8"
       width="42"
       y="20"
       x="3"
       fill="#2a85c2"
       id="rect2"
       style="fill:url(#linearGradient4511);fill-opacity:1" />
    <rect
       transform="matrix(0,-1,-1,0,0,0)"
       rx="4"
       ry="4"
       height="10"
       width="40"
       y="-18"
       x="-44"
       fill="#c2352a"
       id="rect8"
       style="fill:url(#linearGradient4527);fill-opacity:1" />
    <rect
       transform="matrix(0,-1,-1,0,0,0)"
       rx="4"
       ry="4"
       height="10"
       width="40"
       y="-40"
       x="-44"
       fill="#c2352a"
       id="rect10"
       style="fill:url(#linearGradient4535);fill-opacity:1" />
    <rect
       transform="matrix(0,-1,-1,0,0,0)"
       rx="2"
       ry="2"
       height="4"
       width="30"
       y="-8"
       x="-39"
       fill="#d8564b"
       id="rect12"
       style="fill:url(#linearGradient4519);fill-opacity:1" />
    <rect
       transform="matrix(0,-1,-1,0,0,0)"
       rx="2"
       ry="2"
       height="4"
       width="30"
       y="-44"
       x="-39"
       fill="#d8564b"
       id="rect14"
       style="fill:url(#linearGradient4543);fill-opacity:1" />
    <path
       style="opacity:0.2;fill:#0f0403;fill-opacity:1"
       d="m 8,39 v 1 c 0,2.216 1.784,4 4,4 h 2 c 2.216,0 4,-1.784 4,-4 v -1 c 0,2.216 -1.784,4 -4,4 H 12 C 9.784,43 8,41.216 8,39 Z"
       id="rect4545" />
    <path
       style="opacity:0.2;fill:#0f0403;fill-opacity:1"
       d="m 30,39 v 1 c 0,2.216 1.784,4 4,4 h 2 c 2.216,0 4,-1.784 4,-4 v -1 c 0,2.216 -1.784,4 -4,4 h -2 c -2.216,0 -4,-1.784 -4,-4 z"
       id="rect4547" />
    <path
       style="opacity:0.2;fill:#0f0403;fill-opacity:1"
       d="m 4,36 v 1 c 0,1.108 0.892,2 2,2 1.108,0 2,-0.892 2,-2 V 36 C 8,37.108 7.108,38 6,38 4.892,38 4,37.108 4,36 Z"
       id="rect4549" />
    <path
       style="opacity:0.2;fill:#0f0403;fill-opacity:1"
       d="m 40,36 v 1 c 0,1.108 0.892,2 2,2 1.108,0 2,-0.892 2,-2 v -1 c 0,1.108 -0.892,2 -2,2 -1.108,0 -2,-0.892 -2,-2 z"
       id="rect4551" />
  </g>
</svg>
