<?xml version="1.0" encoding="UTF-8" standalone="no"?>
<svg
   width="16"
   height="16"
   version="1.1"
   viewBox="0 0 16 16"
   id="svg22"
   sodipodi:docname="emacs.svg"
   inkscape:version="1.3 (0e150ed6c4, 2023-07-21)"
   xmlns:inkscape="http://www.inkscape.org/namespaces/inkscape"
   xmlns:sodipodi="http://sodipodi.sourceforge.net/DTD/sodipodi-0.dtd"
   xmlns:xlink="http://www.w3.org/1999/xlink"
   xmlns="http://www.w3.org/2000/svg"
   xmlns:svg="http://www.w3.org/2000/svg">
  <sodipodi:namedview
     id="namedview22"
     pagecolor="#ffffff"
     bordercolor="#000000"
     borderopacity="0.25"
     inkscape:showpageshadow="2"
     inkscape:pageopacity="0.0"
     inkscape:pagecheckerboard="0"
     inkscape:deskcolor="#d1d1d1"
     inkscape:zoom="23.96875"
     inkscape:cx="7.1134289"
     inkscape:cy="2.440678"
     inkscape:window-width="1920"
     inkscape:window-height="994"
     inkscape:window-x="0"
     inkscape:window-y="0"
     inkscape:window-maximized="1"
     inkscape:current-layer="svg22" />
  <defs
     id="defs22">
    <linearGradient
       id="linearGradient22"
       inkscape:collect="always">
      <stop
         style="stop-color:#5a2ca0;stop-opacity:1"
         offset="0"
         id="stop23" />
      <stop
         style="stop-color:#a264ff;stop-opacity:1;"
         offset="1"
         id="stop24" />
    </linearGradient>
    <style
       id="current-color-scheme"
       type="text/css">&#10;   .ColorScheme-Text { color:#d5c289; } .ColorScheme-Highlight { color:#5294e2; }&#10;  </style>
    <linearGradient
       id="arrongin"
       x1="0%"
       x2="0%"
       y1="0%"
       y2="100%">
      <stop
         offset="0%"
         style="stop-color:#dd9b44; stop-opacity:1"
         id="stop1" />
      <stop
         offset="100%"
         style="stop-color:#ad6c16; stop-opacity:1"
         id="stop2" />
    </linearGradient>
    <linearGradient
       id="aurora"
       x1="0%"
       x2="0%"
       y1="0%"
       y2="100%">
      <stop
         offset="0%"
         style="stop-color:#09D4DF; stop-opacity:1"
         id="stop3" />
      <stop
         offset="100%"
         style="stop-color:#9269F4; stop-opacity:1"
         id="stop4" />
    </linearGradient>
    <linearGradient
       id="fitdance"
       x1="0%"
       x2="0%"
       y1="0%"
       y2="100%">
      <stop
         offset="0%"
         style="stop-color:#1AD6AB; stop-opacity:1"
         id="stop5" />
      <stop
         offset="100%"
         style="stop-color:#329DB6; stop-opacity:1"
         id="stop6" />
    </linearGradient>
    <linearGradient
       id="oomox"
       x1="-1.2157025e-08"
       x2="-1.2157025e-08"
       y1="0.087108471"
       y2="15.535549"
       gradientTransform="matrix(0.77677748,0,0,0.84150901,2.0000002,1.4266972)"
       gradientUnits="userSpaceOnUse">
      <stop
         offset="0%"
         style="stop-color:#303b3d; stop-opacity:1"
         id="stop7" />
      <stop
         offset="100%"
         style="stop-color:#bc985d; stop-opacity:1"
         id="stop8" />
    </linearGradient>
    <linearGradient
       id="rainblue"
       x1="0%"
       x2="0%"
       y1="0%"
       y2="100%">
      <stop
         offset="0%"
         style="stop-color:#00F260; stop-opacity:1"
         id="stop9" />
      <stop
         offset="100%"
         style="stop-color:#0575E6; stop-opacity:1"
         id="stop10" />
    </linearGradient>
    <linearGradient
       id="sunrise"
       x1="0%"
       x2="0%"
       y1="0%"
       y2="100%">
      <stop
         offset="0%"
         style="stop-color: #FF8501; stop-opacity:1"
         id="stop11" />
      <stop
         offset="100%"
         style="stop-color: #FFCB01; stop-opacity:1"
         id="stop12" />
    </linearGradient>
    <linearGradient
       id="telinkrin"
       x1="0%"
       x2="0%"
       y1="0%"
       y2="100%">
      <stop
         offset="0%"
         style="stop-color: #b2ced6; stop-opacity:1"
         id="stop13" />
      <stop
         offset="100%"
         style="stop-color: #6da5b7; stop-opacity:1"
         id="stop14" />
    </linearGradient>
    <linearGradient
       id="60spsycho"
       x1="0%"
       x2="0%"
       y1="0%"
       y2="100%">
      <stop
         offset="0%"
         style="stop-color: #df5940; stop-opacity:1"
         id="stop15" />
      <stop
         offset="25%"
         style="stop-color: #d8d15f; stop-opacity:1"
         id="stop16" />
      <stop
         offset="50%"
         style="stop-color: #e9882a; stop-opacity:1"
         id="stop17" />
      <stop
         offset="100%"
         style="stop-color: #279362; stop-opacity:1"
         id="stop18" />
    </linearGradient>
    <linearGradient
       id="90ssummer"
       x1="0%"
       x2="0%"
       y1="0%"
       y2="100%">
      <stop
         offset="0%"
         style="stop-color: #f618c7; stop-opacity:1"
         id="stop19" />
      <stop
         offset="20%"
         style="stop-color: #94ffab; stop-opacity:1"
         id="stop20" />
      <stop
         offset="50%"
         style="stop-color: #fbfd54; stop-opacity:1"
         id="stop21" />
      <stop
         offset="100%"
         style="stop-color: #0f83ae; stop-opacity:1"
         id="stop22" />
    </linearGradient>
    <style
       id="style22"
       type="text/css">&#10;   .ColorScheme-Text { color:#d5c289; } .ColorScheme-Highlight { color:#d5c289; } .ColorScheme-ButtonBackground { color:#d5c289; }&#10;  </style>
    <linearGradient
       inkscape:collect="always"
       xlink:href="#linearGradient22"
       id="linearGradient24"
       x1="2.0000002"
       y1="12.380706"
       x2="9.1372004"
       y2="6.4194036"
       gradientUnits="userSpaceOnUse" />
  </defs>
  <path
     class="ColorScheme-Text"
     d="m 4.1250863,13.777324 c 0,0 0.7587365,0.364553 1.7687125,0.493177 0.4090111,0.05217 1.9652215,0.234169 3.1584128,0.229407 0,0 1.4531994,0.0015 2.2553524,-0.114649 0.839351,-0.121746 1.314814,-0.277189 1.579489,-0.587325 0.0069,-0.07396 0.127736,-0.314992 -0.198531,-0.547444 C 11.854405,12.656189 10.776124,12.493521 8.6816399,11.985463 6.3655472,11.390726 5.6378876,10.821166 5.2920363,10.40908 4.964201,9.9959859 5.3891064,9.1381225 7.2553833,8.7172884 8.2003047,8.4824339 11.524046,8.3606047 11.524046,8.3606047 10.514352,7.5418956 8.8143655,6.1547665 8.4269353,5.8430464 8.0871226,5.5696532 7.5395024,5.1501076 7.4806712,4.775185 7.4012705,4.4102167 7.9637306,4.2344948 8.2615417,4.2142116 c 0.9594864,-0.067556 2.2697733,0.1916427 3.4343983,0.428184 0.585426,0.1188794 0.6882,0.1014114 0.6882,0.1014114 0.833769,0.04051 1.647978,-0.5498363 1.614884,-1.4893075 -0.0068,-0.9529547 -1.105191,-1.7171408 -2.137651,-1.7504957 -1.044466,-0.004 -3.5194497,-0.004 -3.5194497,-0.004 C 11.134473,2.0880094 11.74222,2.3845816 11.88789,2.7279089 11.97416,2.9307822 11.744343,3.1323552 10.974998,3.0929915 10.137065,3.0501436 8.4201828,2.8428977 8.4201828,2.8428977 6.7860342,2.5860739 5.7890046,2.3427629 5.2926086,3.0050965 4.9683667,3.4378082 5.3389364,3.9648507 5.4845137,4.2756961 6.1330112,5.4314578 7.1129972,6.2243844 7.8245701,6.7831558 8.0923215,6.9934119 8.9097839,7.4590161 8.9097839,7.4590161 6.3687561,6.7493634 4.2024931,7.1481168 2.9187203,7.8375073 1.4430363,8.7296616 1.6954779,10.235124 4.0370257,11.642646 c 1.3830531,0.831347 2.2130047,1.230645 4.477409,1.514636 1.3235831,0.215552 1.5915843,0.303747 1.5815443,0.416271 -0.0142,0.158417 -1.6374056,0.218453 -2.0640824,0.248512 -1.0855667,0.07644 -3.8931058,-0.04408 -3.9071078,-0.04408 z"
     id="path22"
     style="fill:url(#linearGradient24)" />
</svg>
