<?xml version="1.0" encoding="UTF-8" standalone="no"?>
<svg
   width="16"
   height="16"
   viewBox="0 0 16 16"
   fill="none"
   version="1.1"
   id="svg19"
   sodipodi:docname="akregator.svg"
   inkscape:version="1.3 (0e150ed6c4, 2023-07-21)"
   xmlns:inkscape="http://www.inkscape.org/namespaces/inkscape"
   xmlns:sodipodi="http://sodipodi.sourceforge.net/DTD/sodipodi-0.dtd"
   xmlns:xlink="http://www.w3.org/1999/xlink"
   xmlns="http://www.w3.org/2000/svg"
   xmlns:svg="http://www.w3.org/2000/svg">
  <sodipodi:namedview
     id="namedview19"
     pagecolor="#ffffff"
     bordercolor="#000000"
     borderopacity="0.25"
     inkscape:showpageshadow="2"
     inkscape:pageopacity="0.0"
     inkscape:pagecheckerboard="0"
     inkscape:deskcolor="#d1d1d1"
     inkscape:zoom="11.984375"
     inkscape:cx="1.1681877"
     inkscape:cy="3.9634941"
     inkscape:window-width="1920"
     inkscape:window-height="994"
     inkscape:window-x="0"
     inkscape:window-y="0"
     inkscape:window-maximized="1"
     inkscape:current-layer="svg19" />
  <path
     d="m 3.6981921,1.5078003 -6.267e-4,3.5e-6 C 3.5348217,1.5086291 3.3695243,1.5193328 3.2049699,1.5524938 2.2645826,1.7295778 1.5084482,2.6039217 1.5041745,3.5700132 l -1.2e-6,1.4e-4 c -0.00403,1.316744 -0.00726,2.63399 8.008e-4,3.950511 -0.00308,0.233826 0.1495163,0.413454 0.331247,0.499539 0.1803285,0.08542 0.4133418,0.09042 0.5919873,-0.05037 0.2180053,-0.144534 0.2573884,-0.408831 0.2550205,-0.60473 0.00138,-0.54305 9.866e-4,-1.085468 5.92e-4,-1.62777 -5.224e-4,-0.722888 -0.00106,-1.445532 0.00263,-2.169099 0.0059,-0.47779 0.4574258,-0.8929998 0.9387627,-0.8843374 l 0.00109,2.34e-5 h 9.916e-4 c 1.4689656,-0.0017 2.9372223,-0.00117 4.4054552,-6.322e-4 1.3214502,4.917e-4 2.6428996,9.716e-4 3.9648596,-1.755e-4 0.03827,0 0.07598,-3.512e-4 0.113158,-7.024e-4 0.245166,-0.00226 0.464772,-0.00431 0.660468,0.095918 l 0.0022,0.00114 0.0023,0.00103 c 0.353321,0.1611557 0.57258,0.5555407 0.546464,0.9444821 l -2.33e-4,0.0037 v 0.0037 c -6.96e-4,1.117683 -4.63e-4,2.235238 -2.32e-4,3.352769 4.65e-4,1.755939 8.14e-4,3.5117598 -0.0022,5.2676988 v 0.0014 0.0014 c 0.01149,0.493406 -0.424704,0.947479 -0.921026,0.945958 l -0.0013,1.17e-4 c -0.704356,0.0061 -1.405357,0.005 -2.106986,0.0042 -0.607599,-8.2e-4 -1.2156738,-0.0015 -1.8268007,0.0022 -0.2133974,-0.01217 -0.3952464,0.106758 -0.499154,0.266193 -0.1035584,0.158967 -0.1395174,0.373303 -0.043361,0.564227 0.059057,0.148314 0.1741882,0.241376 0.3008451,0.293819 0.1254045,0.05209 0.266083,0.06637 0.3913357,0.05748 0.5467777,-0.0034 1.0954581,-0.0023 1.6446609,-0.0013 0.746874,0.0015 1.494733,0.003 2.240211,-0.0068 h 0.0016 l 0.0018,-1.17e-4 c 1.061357,-0.04671 1.987258,-0.987865 1.992365,-2.057203 v -3.51e-4 c 0.0023,-1.592804 0.0018,-3.1862408 0.0013,-4.7795488 -3.48e-4,-1.302146 -6.96e-4,-2.604198 3.48e-4,-3.905735 0.08183,-1.1653617 -0.932633,-2.2425825 -2.099267,-2.2294227 -1.594774,-0.00221 -3.1896297,-0.00175 -4.7842646,-0.00128 -1.3047465,3.804e-4 -2.6093542,7.609e-4 -3.9136257,-3.29e-4 z"
     stroke-width="0.233129"
     id="path1"
     style="fill:url(#linearGradient21);fill-opacity:1" />
  <path
     d="m 2.3227344,8.7996902 c -0.113367,-0.01279 -0.2634473,-0.02972 -0.402849,0.02637 -0.3075127,0.104276 -0.4225417,0.410012 -0.3917015,0.675304 0.030993,0.266615 0.2145649,0.5368228 0.5439523,0.5606088 1.8263836,0.166892 3.4347853,1.619237 3.792772,3.414741 l 6.386e-4,0.0033 8.24e-4,0.0032 c 0.017471,0.06672 0.027664,0.141408 0.038285,0.225339 7.317e-4,0.0057 0.00149,0.01147 0.00218,0.01732 0.00962,0.07667 0.020198,0.160254 0.038096,0.240323 0.038839,0.174184 0.1173024,0.35469 0.3203927,0.457937 0.200304,0.119166 0.4392489,0.09763 0.6229313,-0.0033 0.185158,-0.101608 0.332348,-0.294171 0.329295,-0.534494 l -4.66e-5,-0.0036 -2.905e-4,-0.0037 C 7.1176088,12.627686 6.5640062,11.420768 5.6983461,10.515349 4.8237717,9.5800442 3.6171509,8.9667932 2.3479219,8.8025232 l -0.00104,-1.4e-4 -0.00106,-1.17e-4 c -0.00751,-8.2e-4 -0.015206,-0.0017 -0.023086,-0.0026 z"
     stroke-width="0.233129"
     id="path2"
     style="fill:url(#linearGradient23);fill-opacity:1" />
  <path
     d="m 2.1657826,10.677207 c -0.1237901,-0.0068 -0.2411151,0.02257 -0.3475178,0.08757 -0.1790157,0.103574 -0.2769719,0.289769 -0.2970116,0.477801 -0.019955,0.187249 0.035835,0.389317 0.1804632,0.530397 0.076225,0.08137 0.1696279,0.12379 0.2568904,0.151311 0.043968,0.01385 0.088377,0.02451 0.129466,0.03398 0.00764,0.0018 0.015136,0.0035 0.022495,0.0052 0.03344,0.0077 0.06421,0.01474 0.094284,0.02287 l 0.00222,6.55e-4 0.00224,4.34e-4 c 0.9127972,0.206914 1.6592054,0.99147 1.8302713,1.909099 0.036549,0.262447 0.2124694,0.530162 0.5060364,0.592906 0.211343,0.05467 0.4235447,-0.01791 0.5711988,-0.150773 0.1479804,-0.133214 0.2425087,-0.337599 0.202174,-0.557554 -0.22649,-1.570715 -1.5683575,-2.901295 -3.1454304,-3.103152 l -0.00387,-4.92e-4 z"
     stroke-width="0.233129"
     id="path3"
     style="fill:url(#linearGradient25);fill-opacity:1" />
  <path
     d="M 3.2003618,13.728162 C 3.241335,13.4265 3.092636,13.152464 2.8749325,12.983898 2.6571476,12.815098 2.3551531,12.740063 2.0739586,12.853611 c -0.3098063,0.09763 -0.4954833,0.372834 -0.5419467,0.660098 -0.046419,0.286913 0.042852,0.606485 0.3060548,0.797175 0.2481141,0.217262 0.5829221,0.225574 0.8514533,0.109568 0.2683454,-0.116006 0.4933847,-0.365811 0.5108418,-0.69229 z"
     stroke-width="0.233129"
     id="path4"
     style="fill:url(#linearGradient27);fill-opacity:1" />
  <defs
     id="defs19">
    <linearGradient
       id="linearGradient19"
       inkscape:collect="always">
      <stop
         style="stop-color:#ff00ff;stop-opacity:1"
         offset="0"
         id="stop20" />
      <stop
         style="stop-color:#ff9955;stop-opacity:1"
         offset="1"
         id="stop21" />
    </linearGradient>
    <linearGradient
       id="paint0_linear_618_217"
       x1="28.299999"
       y1="105.828"
       x2="128.452"
       y2="17.5942"
       gradientUnits="userSpaceOnUse">
      <stop
         stop-color="#FE0844"
         id="stop4" />
      <stop
         offset="1"
         stop-color="#FEE502"
         id="stop5" />
    </linearGradient>
    <linearGradient
       id="paint1_linear_618_217"
       x1="28.299999"
       y1="105.828"
       x2="128.452"
       y2="17.5942"
       gradientUnits="userSpaceOnUse">
      <stop
         stop-color="#FE0844"
         id="stop6" />
      <stop
         offset="1"
         stop-color="#FEE502"
         id="stop7" />
    </linearGradient>
    <linearGradient
       id="paint2_linear_618_217"
       x1="17.093"
       y1="113.266"
       x2="61.168701"
       y2="74.644897"
       gradientUnits="userSpaceOnUse">
      <stop
         stop-color="#FE0844"
         id="stop8" />
      <stop
         offset="1"
         stop-color="#FEE502"
         id="stop9" />
    </linearGradient>
    <linearGradient
       id="paint3_linear_618_217"
       x1="17.093"
       y1="113.266"
       x2="61.168701"
       y2="74.644897"
       gradientUnits="userSpaceOnUse">
      <stop
         stop-color="#FE0844"
         id="stop10" />
      <stop
         offset="1"
         stop-color="#FEE502"
         id="stop11" />
    </linearGradient>
    <linearGradient
       id="paint4_linear_618_217"
       x1="14.1004"
       y1="115.19"
       x2="43.6283"
       y2="89.346298"
       gradientUnits="userSpaceOnUse">
      <stop
         stop-color="#FE0844"
         id="stop12" />
      <stop
         offset="1"
         stop-color="#FEB302"
         id="stop13" />
    </linearGradient>
    <linearGradient
       id="paint5_linear_618_217"
       x1="14.1004"
       y1="115.19"
       x2="43.6283"
       y2="89.346298"
       gradientUnits="userSpaceOnUse">
      <stop
         stop-color="#FE0844"
         id="stop14" />
      <stop
         offset="1"
         stop-color="#FEB302"
         id="stop15" />
    </linearGradient>
    <linearGradient
       id="paint6_linear_618_217"
       x1="10.8089"
       y1="117.233"
       x2="23.8741"
       y2="105.793"
       gradientUnits="userSpaceOnUse">
      <stop
         stop-color="#FE0844"
         id="stop16" />
      <stop
         offset="1"
         stop-color="#FEB302"
         id="stop17" />
    </linearGradient>
    <linearGradient
       id="paint7_linear_618_217"
       x1="10.8089"
       y1="117.233"
       x2="23.8741"
       y2="105.793"
       gradientUnits="userSpaceOnUse">
      <stop
         stop-color="#FE0844"
         id="stop18" />
      <stop
         offset="1"
         stop-color="#FEB302"
         id="stop19" />
    </linearGradient>
    <linearGradient
       inkscape:collect="always"
       xlink:href="#linearGradient19"
       id="linearGradient21"
       x1="1.4999951"
       y1="1.5076946"
       x2="14.500005"
       y2="14.492305"
       gradientUnits="userSpaceOnUse" />
    <linearGradient
       inkscape:collect="always"
       xlink:href="#linearGradient19"
       id="linearGradient23"
       x1="1.5233474"
       y1="11.6461"
       x2="7.2175975"
       y2="11.6461"
       gradientUnits="userSpaceOnUse" />
    <linearGradient
       inkscape:collect="always"
       xlink:href="#linearGradient19"
       id="linearGradient25"
       x1="1.5173398"
       y1="12.59201"
       x2="5.3283324"
       y2="12.59201"
       gradientUnits="userSpaceOnUse" />
    <linearGradient
       inkscape:collect="always"
       xlink:href="#linearGradient19"
       id="linearGradient27"
       x1="1.5202869"
       y1="13.647006"
       x2="3.2071607"
       y2="13.647006"
       gradientUnits="userSpaceOnUse" />
  </defs>
</svg>
