<?xml version="1.0" encoding="UTF-8" standalone="no"?>
<svg
   width="16"
   height="16"
   version="1.1"
   id="svg47"
   sodipodi:docname="alienarena.svg"
   inkscape:version="1.3 (0e150ed6c4, 2023-07-21)"
   xmlns:inkscape="http://www.inkscape.org/namespaces/inkscape"
   xmlns:sodipodi="http://sodipodi.sourceforge.net/DTD/sodipodi-0.dtd"
   xmlns="http://www.w3.org/2000/svg"
   xmlns:svg="http://www.w3.org/2000/svg"
   xmlns:rdf="http://www.w3.org/1999/02/22-rdf-syntax-ns#"
   xmlns:cc="http://creativecommons.org/ns#"
   xmlns:dc="http://purl.org/dc/elements/1.1/">
  <sodipodi:namedview
     id="namedview49"
     pagecolor="#ffffff"
     bordercolor="#666666"
     borderopacity="1.0"
     inkscape:showpageshadow="2"
     inkscape:pageopacity="0.0"
     inkscape:pagecheckerboard="0"
     inkscape:deskcolor="#d1d1d1"
     showgrid="false"
     inkscape:zoom="14.75"
     inkscape:cx="-2.7457627"
     inkscape:cy="13.050847"
     inkscape:window-width="1920"
     inkscape:window-height="994"
     inkscape:window-x="0"
     inkscape:window-y="0"
     inkscape:window-maximized="1"
     inkscape:current-layer="svg47" />
  <metadata
     id="metadata2">
    <rdf:RDF>
      <cc:Work
         rdf:about="">
        <dc:format>image/svg+xml</dc:format>
        <dc:type
           rdf:resource="http://purl.org/dc/dcmitype/StillImage" />
      </cc:Work>
    </rdf:RDF>
  </metadata>
  <defs
     id="defs27">
    <linearGradient
       id="b"
       x1="32"
       x2="32"
       y1="2"
       y2="62"
       gradientUnits="userSpaceOnUse"
       gradientTransform="matrix(0.7,0,0,0.69999991,129.75874,38.210168)">
      <stop
         stop-color="#323c41"
         offset="0"
         id="stop4" />
      <stop
         stop-color="#0f4d3e"
         offset="1"
         id="stop6"
         style="stop-color:#1c8f73;stop-opacity:1;" />
    </linearGradient>
    <linearGradient
       id="e"
       x1="24.705"
       x2="25.061001"
       y1="43.938999"
       y2="4.4050002"
       gradientTransform="translate(8.5029,9.2229)"
       gradientUnits="userSpaceOnUse">
      <stop
         stop-color="#14cd46"
         offset="0"
         id="stop9" />
      <stop
         stop-color="#5adc19"
         offset="1"
         id="stop11" />
    </linearGradient>
    <linearGradient
       id="d"
       x1="31"
       x2="31"
       y1="34"
       y2="24"
       gradientTransform="translate(8.5029,9.2229)"
       gradientUnits="userSpaceOnUse">
      <stop
         stop-color="#323232"
         offset="0"
         id="stop14" />
      <stop
         stop-color="#3c503c"
         offset="1"
         id="stop16" />
    </linearGradient>
    <linearGradient
       id="c"
       x1="18"
       x2="18"
       y1="34"
       y2="24"
       gradientTransform="translate(8.5029,9.2229)"
       gradientUnits="userSpaceOnUse">
      <stop
         stop-color="#323232"
         offset="0"
         id="stop19" />
      <stop
         stop-color="#3c503c"
         offset="1"
         id="stop21" />
    </linearGradient>
    <filter
       id="f"
       x="-0.067499995"
       y="-0.053999998"
       width="1.135"
       height="1.108"
       color-interpolation-filters="sRGB">
      <feGaussianBlur
         stdDeviation="0.89999995"
         id="feGaussianBlur24" />
    </filter>
    <filter
       id="filter959"
       x="-0.037148848"
       y="-0.14184019"
       width="1.0742977"
       height="1.2836804"
       color-interpolation-filters="sRGB">
      <feGaussianBlur
         stdDeviation="0.051039421"
         id="feGaussianBlur16" />
    </filter>
    <filter
       id="filter1255"
       x="-0.059940837"
       y="-0.059957325"
       width="1.1198817"
       height="1.1199147"
       color-interpolation-filters="sRGB">
      <feGaussianBlur
         stdDeviation="0.064633745"
         id="feGaussianBlur7" />
    </filter>
    <filter
       id="filter1269"
       x="-0.060000092"
       y="-0.060000092"
       width="1.1200002"
       height="1.1200002"
       color-interpolation-filters="sRGB">
      <feGaussianBlur
         stdDeviation="0.082435125"
         id="feGaussianBlur10" />
    </filter>
    <filter
       id="filter1287"
       x="-0.051957909"
       y="-0.071659364"
       width="1.1039158"
       height="1.1433187"
       color-interpolation-filters="sRGB">
      <feGaussianBlur
         stdDeviation="0.07138584"
         id="feGaussianBlur13" />
    </filter>
    <linearGradient
       id="e-3"
       x1="24.705"
       x2="25.061001"
       y1="43.938999"
       y2="4.4050002"
       gradientTransform="translate(8.5029,9.2229)"
       gradientUnits="userSpaceOnUse">
      <stop
         stop-color="#14cd46"
         offset="0"
         id="stop9-6" />
      <stop
         stop-color="#5adc19"
         offset="1"
         id="stop11-5" />
    </linearGradient>
    <linearGradient
       id="d-6"
       x1="31"
       x2="31"
       y1="34"
       y2="24"
       gradientTransform="translate(8.5029,9.2229)"
       gradientUnits="userSpaceOnUse">
      <stop
         stop-color="#323232"
         offset="0"
         id="stop14-3" />
      <stop
         stop-color="#3c503c"
         offset="1"
         id="stop16-9" />
    </linearGradient>
    <linearGradient
       id="c-4"
       x1="18"
       x2="18"
       y1="34"
       y2="24"
       gradientTransform="translate(8.5029,9.2229)"
       gradientUnits="userSpaceOnUse">
      <stop
         stop-color="#323232"
         offset="0"
         id="stop19-8" />
      <stop
         stop-color="#3c503c"
         offset="1"
         id="stop21-1" />
    </linearGradient>
    <linearGradient
       id="b-6"
       x1="32"
       x2="32"
       y1="2"
       y2="62"
       gradientUnits="userSpaceOnUse"
       gradientTransform="matrix(0.69999999,0,0,0.69999991,5.5999879,5.5999904)">
      <stop
         stop-color="#323c41"
         offset="0"
         id="stop4-2" />
      <stop
         stop-color="#0f4d3e"
         offset="1"
         id="stop6-9"
         style="stop-color:#1c8f73;stop-opacity:1;" />
    </linearGradient>
  </defs>
  <g
     transform="matrix(0.328125,0,0,0.325,-2.6650469,-2.79715)"
     opacity="0.5"
     id="g37">
    <path
       d="m 16.503,28.701 c 0,10.29 8.4961,24.521 16,24.521 7.0642,0 16,-14.232 16,-24.521 0,-10.29 -7.1634,-15.479 -16,-15.479 -8.8366,0 -16,5.1888 -16,15.479 z"
       id="path31" />
    <path
       d="m 36.885,35.605 c 2.0206,-2.0206 4.8396,-2.7554 7.4415,-2.2055 0.54985,2.6018 -0.18496,5.4209 -2.2055,7.4414 -2.0206,2.0206 -4.8396,2.7554 -7.4414,2.2055 -0.54992,-2.6019 0.18495,-5.4209 2.2055,-7.4414 z"
       id="path33" />
    <path
       d="m 20.679,33.536 c 2.6018,-0.54222 5.4209,0.18239 7.4414,2.1749 2.0206,1.9925 2.7554,4.7724 2.2055,7.3381 -2.6018,0.54222 -5.4209,-0.18238 -7.4415,-2.1749 -2.0206,-1.9926 -2.7554,-4.7724 -2.2055,-7.3381 z"
       id="path35" />
  </g>
  <g
     transform="matrix(0.328125,0,0,0.325,-2.6650469,-2.79715)"
     id="g45">
    <path
       d="m 16.503,28.701 c 0,10.29 8.4961,24.521 16,24.521 7.0642,0 16,-14.232 16,-24.521 0,-10.29 -7.1634,-15.479 -16,-15.479 -8.8366,0 -16,5.1888 -16,15.479 z"
       id="path39"
       style="fill:url(#e)" />
    <path
       d="m 36.885,35.605 c 2.0206,-2.0206 4.8396,-2.7554 7.4415,-2.2055 0.54985,2.6018 -0.18496,5.4209 -2.2055,7.4414 -2.0206,2.0206 -4.8396,2.7554 -7.4414,2.2055 -0.54992,-2.6019 0.18495,-5.4209 2.2055,-7.4414 z"
       id="path41"
       style="fill:url(#d)" />
    <path
       d="m 20.679,33.536 c 2.6018,-0.54222 5.4209,0.18239 7.4414,2.1749 2.0206,1.9925 2.7554,4.7724 2.2055,7.3381 -2.6018,0.54222 -5.4209,-0.18238 -7.4415,-2.1749 -2.0206,-1.9926 -2.7554,-4.7724 -2.2055,-7.3381 z"
       id="path43"
       style="fill:url(#c)" />
  </g>
</svg>
