<?xml version="1.0" encoding="UTF-8" standalone="no"?>
<svg
   width="16"
   height="16"
   version="1.1"
   viewBox="0 0 16 16"
   id="svg73"
   sodipodi:docname="alligator.svg"
   inkscape:version="1.3 (0e150ed6c4, 2023-07-21)"
   xmlns:inkscape="http://www.inkscape.org/namespaces/inkscape"
   xmlns:sodipodi="http://sodipodi.sourceforge.net/DTD/sodipodi-0.dtd"
   xmlns:xlink="http://www.w3.org/1999/xlink"
   xmlns="http://www.w3.org/2000/svg"
   xmlns:svg="http://www.w3.org/2000/svg"
   xmlns:rdf="http://www.w3.org/1999/02/22-rdf-syntax-ns#"
   xmlns:cc="http://creativecommons.org/ns#"
   xmlns:dc="http://purl.org/dc/elements/1.1/">
  <sodipodi:namedview
     id="namedview75"
     pagecolor="#ffffff"
     bordercolor="#666666"
     borderopacity="1.0"
     inkscape:showpageshadow="2"
     inkscape:pageopacity="0.0"
     inkscape:pagecheckerboard="0"
     inkscape:deskcolor="#d1d1d1"
     showgrid="false"
     inkscape:zoom="22.627418"
     inkscape:cx="8.2864072"
     inkscape:cy="7.1815529"
     inkscape:window-width="1920"
     inkscape:window-height="994"
     inkscape:window-x="0"
     inkscape:window-y="0"
     inkscape:window-maximized="1"
     inkscape:current-layer="svg73" />
  <defs
     id="defs27">
    <linearGradient
       id="linearGradient3038"
       x1="24.999916"
       x2="24.999916"
       y1="2.9999993"
       y2="42.605309"
       gradientTransform="matrix(0.27781127,0,0,0.27781248,-0.31749493,-0.31749963)"
       gradientUnits="userSpaceOnUse">
      <stop
         stop-color="#f39c1f"
         offset="0"
         id="stop2" />
      <stop
         stop-color="#f67400"
         offset="1"
         id="stop4" />
    </linearGradient>
    <linearGradient
       id="linearGradient1006"
       x1="4.8405175"
       x2="9.4169273"
       y1="5.9970527"
       y2="10.573462"
       gradientUnits="userSpaceOnUse">
      <stop
         offset="0"
         id="stop7" />
      <stop
         stop-color="#05221c"
         stop-opacity="0"
         offset="1"
         id="stop9" />
    </linearGradient>
    <linearGradient
       id="linearGradient1078"
       x1="19.17029"
       x2="19.17029"
       y1="43"
       y2="1.8314241"
       gradientTransform="matrix(0.23237445,0,0,0.23237438,24.639977,-3.1329665)"
       gradientUnits="userSpaceOnUse">
      <stop
         stop-color="#16a085"
         offset="0"
         id="stop12" />
      <stop
         stop-color="#1cdc9a"
         offset="1"
         id="stop14" />
    </linearGradient>
    <linearGradient
       id="linearGradient1087"
       x1="19.17029"
       x2="40.893143"
       y1="43"
       y2="-13.594682"
       gradientUnits="userSpaceOnUse"
       gradientTransform="matrix(0.23237445,0,0,0.23237438,24.63935,-3.1329665)">
      <stop
         stop-color="#1abc9c"
         offset="0"
         id="stop17" />
      <stop
         stop-color="#eff0f1"
         offset="1"
         id="stop19" />
    </linearGradient>
    <radialGradient
       id="radialGradient886"
       cx="19.472553"
       cy="10.657272"
       r="0.98144501"
       gradientTransform="matrix(0.63924675,0,0,0.63988276,16.492243,-7.5417388)"
       gradientUnits="userSpaceOnUse">
      <stop
         stop-color="#16a085"
         offset="0"
         id="stop22" />
      <stop
         stop-color="#16a085"
         stop-opacity="0"
         offset="1"
         id="stop24" />
    </radialGradient>
    <radialGradient
       id="radialGradient886-8"
       cx="19.472553"
       cy="10.657272"
       r="0.98144501"
       gradientTransform="matrix(0.63924675,0,0,0.63988276,18.626401,-5.8689966)"
       gradientUnits="userSpaceOnUse">
      <stop
         stop-color="#16a085"
         offset="0"
         id="stop22-5" />
      <stop
         stop-color="#16a085"
         stop-opacity="0"
         offset="1"
         id="stop24-6" />
    </radialGradient>
    <linearGradient
       id="linearGradient4141">
      <stop
         style="stop-color:#d8610f;stop-opacity:1"
         offset="0"
         id="stop7-3" />
      <stop
         style="stop-color:#eab355;stop-opacity:1"
         offset="1"
         id="stop9-6" />
    </linearGradient>
    <linearGradient
       id="linearGradient4177">
      <stop
         style="stop-color:#000000;stop-opacity:1;"
         offset="0"
         id="stop2-7" />
      <stop
         style="stop-color:#000000;stop-opacity:0;"
         offset="1"
         id="stop4-5" />
    </linearGradient>
    <radialGradient
       id="radialGradient886-8-1"
       cx="19.472553"
       cy="10.657272"
       r="0.98144501"
       gradientTransform="matrix(1.1064067,0,0,1.087117,-15.159766,-9.8608946)"
       gradientUnits="userSpaceOnUse">
      <stop
         stop-color="#16a085"
         offset="0"
         id="stop22-5-2" />
      <stop
         stop-color="#16a085"
         stop-opacity="0"
         offset="1"
         id="stop24-6-7" />
    </radialGradient>
    <linearGradient
       inkscape:collect="always"
       xlink:href="#linearGradient1078"
       id="linearGradient816"
       gradientUnits="userSpaceOnUse"
       gradientTransform="matrix(0.40219316,0,0,0.39478814,-1.057682,-2.3706906)"
       x1="19.17029"
       y1="43"
       x2="19.17029"
       y2="1.8314241" />
    <linearGradient
       inkscape:collect="always"
       xlink:href="#linearGradient1087"
       id="linearGradient818"
       gradientUnits="userSpaceOnUse"
       gradientTransform="matrix(0.40219316,0,0,0.39478814,-1.058768,-2.3706906)"
       x1="19.17029"
       y1="43"
       x2="40.893143"
       y2="-13.594682" />
  </defs>
  <metadata
     id="metadata29">
    <rdf:RDF>
      <cc:Work
         rdf:about="">
        <dc:format>image/svg+xml</dc:format>
        <dc:type
           rdf:resource="http://purl.org/dc/dcmitype/StillImage" />
      </cc:Work>
    </rdf:RDF>
  </metadata>
  <path
     d="m 0.55,12.236474 v 0.394788 C 0.55,13.943536 1.626271,15 2.963152,15 H 4.842155 L 5.244348,14.605211 H 2.963152 C 1.626271,14.605211 0.55,13.548748 0.55,12.236474 Z"
     fill="#11806b"
     style="stroke-width:0.105428;paint-order:fill markers stroke"
     id="path35-1-0" />
  <path
     d="m 7.503543,6.394843 c 1.369501,0.9233466 2.440614,2.1962749 3.116214,3.666441 L 11.963796,9.708133 C 10.885679,8.1894295 9.335024,7.0164667 7.503543,6.394843 Z"
     fill="#ffffff"
     style="stroke-width:0.105428;paint-order:fill markers stroke"
     id="path39-1-9" />
  <path
     d="M 7.434415,2.9520134 7.02987,4.4332357 c 2.034364,0.072869 3.988716,0.8097326 5.541151,2.1119658 C 11.340227,4.7590793 9.506088,3.4994454 7.434415,2.9520134 Z"
     fill="#ffffff"
     style="stroke-width:0.105428;paint-order:fill markers stroke"
     id="path41-5-3" />
  <path
     d="m 11.330234,10.92387 -0.314282,0.178155 C 10.417707,9.1920165 9.186799,7.5297347 7.503543,6.394843 c 2.160986,0.812408 3.497063,3.653014 3.826691,4.529027 z"
     fill="#eff0f1"
     style="stroke-width:0.398485;paint-order:fill markers stroke"
     id="path43-9-6" />
  <path
     d="m 6.310319,1.0012054 c -0.30832,-0.01845 -0.596296,0.176405 -0.679497,0.481147 l -0.125646,0.460326 c -0.05617,0.205744 -0.0043,0.413033 0.119385,0.568282 l -0.0014,9.4e-4 c 0.119361,0.153969 0.169096,0.356841 0.114658,0.559025 -2.05e-4,7.44e-4 2.04e-4,9.36e-4 0,0.0014 l -0.02516,0.09099 -0.0067,0.0254 -0.451666,1.6547077 -0.01364,0.048616 -0.104462,0.3824494 C 4.773796,6.0757591 4.337938,6.3953947 3.568387,6.3131151 c -0.99956,0 -1.809864,0.7953872 -1.809864,1.7765475 4.2e-5,0.1624 0.02279,0.3240354 0.06755,0.4803781 C 1.935264,9.0654149 1.811223,9.597094 1.443517,9.998064 l -0.89152,0.875169 v 1.361711 c 0,0.159766 0.01671,0.315763 0.0471,0.466501 0.01989,0.09829 0.0468,0.193372 0.07849,0.286838 0.008,0.02294 0.01652,0.04521 0.02517,0.06782 0.02872,0.07677 0.0618,0.151644 0.09828,0.224383 0.0068,0.01394 0.01351,0.02855 0.02043,0.04241 0.047,0.08932 0.09852,0.175339 0.156386,0.257541 9.55e-4,0.0022 0.0031,0.0043 0.0047,0.0067 0.05372,0.07598 0.112866,0.147539 0.175174,0.216667 0.01453,0.01594 0.02901,0.03212 0.04408,0.04783 0.0621,0.0653 0.127081,0.127826 0.196381,0.185831 0.005,0.005 0.01086,0.0088 0.01552,0.01307 0.07764,0.06399 0.159536,0.122556 0.245086,0.176573 0.01096,0.0075 0.02144,0.01307 0.03218,0.01925 0.07415,0.04516 0.150905,0.08609 0.230155,0.123377 0.01721,0.0086 0.03424,0.01681 0.05185,0.02465 0.09247,0.04084 0.187685,0.07706 0.285933,0.106451 0.223377,0.06656 0.460063,0.103299 0.706199,0.103299 h 2.281291 l 0.344119,-0.338172 c 1.725096,-1.69321 6.025368,-2.517892 9.142061,-3.758089 0.589968,-0.155178 0.937333,-0.746365 0.779243,-1.3254713 -0.0346,-0.1266927 -0.07899,-0.2000854 -0.13425,-0.239033 l 0.03055,-0.1418957 -1.062819,0.2798993 h -0.0014 L 5.099842,11.512572 5.234982,11.018315 5.644247,9.519354 7.007149,4.528216 7.654428,2.1564024 7.862592,1.3938154 7.085701,1.1894814 c -0.0016,-6.9e-4 -0.005,-8.73e-4 -0.0081,-9.39e-4 l -0.63232,-0.166543 -0.02903,-0.0078 -7.98e-4,0.0031 c -0.03432,-0.0076 -0.06873,-0.01479 -0.102818,-0.01681 z"
     fill="url(#linearGradient1078)"
     style="fill:url(#linearGradient816);stroke-width:0.105428;paint-order:fill markers stroke"
     id="path45-8-0" />
  <ellipse
     cx="3.5664539"
     cy="8.091197"
     fill="#ffffff"
     style="stroke-width:0.398485;paint-order:fill markers stroke"
     id="circle49-4-6"
     rx="1.407676"
     ry="1.3817586" />
  <ellipse
     cx="3.9686525"
     cy="7.6964116"
     rx="0.60328913"
     ry="0.59218138"
     fill="#2c3e50"
     style="stroke-width:0.398485;paint-order:fill markers stroke"
     id="ellipse51-8-2" />
  <path
     d="M 7.470545,1.2926704 3.904229,12.201776 h 8.04e-4 c -0.03507,0.128475 -9.57e-4,0.265653 0.08875,0.364716 0.101158,0.110512 0.256893,0.155826 0.402984,0.117189 v 0.0015 L 15.509674,9.1837735 15.405957,8.802865 5.096604,11.51395 7.859327,1.3951954 Z"
     fill="url(#linearGradient1087)"
     style="fill:url(#linearGradient818);stroke-width:0.105428;paint-order:fill markers stroke"
     id="path55-1-6" />
  <path
     d="M 5.096661,11.513978 12.071315,4.667744"
     fill="#ffffff"
     opacity="0.878"
     style="stroke-width:0.398485;paint-order:fill markers stroke"
     id="path57-0-1" />
  <path
     d="M 7.859394,1.3952204 6.098835,10.530271 15.406024,8.8028951 5.096661,11.51398 Z"
     fill="#d35400"
     style="stroke-width:0.398485;paint-order:fill markers stroke"
     id="path59-3-8" />
  <path
     d="M 11.790977,9.4737271 10.453221,9.722012 c 0.05754,0.112248 0.114583,0.22452 0.1673,0.339272 L 11.963785,9.708133 C 11.907585,9.628943 11.849707,9.551002 11.79097,9.4737271 Z"
     fill="#bdc3c7"
     style="stroke-width:0.105428;paint-order:fill markers stroke"
     id="path61-0-7" />
  <path
     d="m 7.123831,4.0891545 -0.09406,0.3440812 c 2.034373,0.072869 3.988721,0.8097326 5.541157,2.1119658 C 11.212183,4.7065294 8.071106,4.1749602 7.123755,4.0891545 Z"
     fill="#eff0f1"
     style="stroke-width:0.105428;paint-order:fill markers stroke"
     id="path63-4-9" />
  <path
     d="M 7.434415,2.9520134 7.02987,4.4332357 c 0.08069,0.0021 0.161491,0.00483 0.241943,0.00982 L 7.553034,2.9835774 c -0.03939,-0.01127 -0.0791,-0.0211 -0.118549,-0.03162 z"
     fill="#bdc3c7"
     style="stroke-width:0.105428;paint-order:fill markers stroke"
     id="path65-4-2" />
  <path
     d="m 6.210154,1.1893494 a 0.42418277,0.3947885 0 0 0 -0.424186,0.394783 0.42418277,0.3947885 0 0 0 0.315783,0.380907 0.42418277,0.3947885 0 0 1 -0.05892,-0.198938 0.42418277,0.3947885 0 0 1 0.424189,-0.39479 0.42418277,0.3947885 0 0 1 0.108402,0.01396 0.42418277,0.3947885 0 0 0 -0.365279,-0.195849 z"
     fill="url(#radialGradient886)"
     style="fill:url(#radialGradient886-8-1);stroke-width:0.398485;paint-order:fill markers stroke"
     id="path67-4-0" />
</svg>
