<?xml version="1.0" encoding="UTF-8" standalone="no"?>
<svg
   width="16"
   height="16"
   version="1.1"
   viewBox="0 0 4.23325 4.23325"
   id="svg13"
   sodipodi:docname="applications-games.svg"
   inkscape:version="1.3 (0e150ed6c4, 2023-07-21)"
   xmlns:inkscape="http://www.inkscape.org/namespaces/inkscape"
   xmlns:sodipodi="http://sodipodi.sourceforge.net/DTD/sodipodi-0.dtd"
   xmlns:xlink="http://www.w3.org/1999/xlink"
   xmlns="http://www.w3.org/2000/svg"
   xmlns:svg="http://www.w3.org/2000/svg"
   xmlns:rdf="http://www.w3.org/1999/02/22-rdf-syntax-ns#"
   xmlns:cc="http://creativecommons.org/ns#"
   xmlns:dc="http://purl.org/dc/elements/1.1/">
  <sodipodi:namedview
     id="namedview13"
     pagecolor="#ffffff"
     bordercolor="#000000"
     borderopacity="0.25"
     inkscape:showpageshadow="2"
     inkscape:pageopacity="0.0"
     inkscape:pagecheckerboard="0"
     inkscape:deskcolor="#d1d1d1"
     inkscape:zoom="16.948466"
     inkscape:cx="13.069029"
     inkscape:cy="10.531927"
     inkscape:window-width="1920"
     inkscape:window-height="994"
     inkscape:window-x="0"
     inkscape:window-y="0"
     inkscape:window-maximized="1"
     inkscape:current-layer="svg13" />
  <defs
     id="defs3">
    <linearGradient
       id="linearGradient2"
       inkscape:collect="always">
      <stop
         style="stop-color:#ff00ff;stop-opacity:1"
         offset="0"
         id="stop5" />
      <stop
         style="stop-color:#ffdd55;stop-opacity:1"
         offset="1"
         id="stop6" />
    </linearGradient>
    <linearGradient
       id="linearGradient1"
       inkscape:collect="always">
      <stop
         style="stop-color:#00ccff;stop-opacity:1"
         offset="0"
         id="stop1" />
      <stop
         style="stop-color:#ff00ff;stop-opacity:1"
         offset="1"
         id="stop4" />
    </linearGradient>
    <style
       type="text/css"
       id="style1" />
    <style
       type="text/css"
       id="style2" />
    <linearGradient
       id="linearGradient10376"
       x1="30.393"
       x2="30.393"
       y1="10.498"
       y2="18.433001"
       gradientTransform="matrix(0.29889217,0,0,0.31586447,-7.10741,-2.2018082)"
       gradientUnits="userSpaceOnUse">
      <stop
         stop-color="#0183fb"
         offset="0"
         id="stop2" />
      <stop
         stop-color="#08e083"
         offset="1"
         id="stop3"
         style="stop-color:#000000;stop-opacity:1" />
    </linearGradient>
    <linearGradient
       inkscape:collect="always"
       xlink:href="#linearGradient1"
       id="linearGradient4"
       x1="2.099565e-10"
       y1="2.1166251"
       x2="4.2332499"
       y2="2.1166251"
       gradientUnits="userSpaceOnUse"
       gradientTransform="matrix(0.87500012,0,0,0.87500015,5.3146717,-9.815728)" />
    <linearGradient
       inkscape:collect="always"
       xlink:href="#linearGradient2"
       id="linearGradient6"
       x1="0.06614455"
       y1="2.3635647"
       x2="4.1671054"
       y2="2.3635647"
       gradientUnits="userSpaceOnUse"
       gradientTransform="matrix(0.93548391,0,0,0.9285714,0.1365564,0.15118754)" />
    <linearGradient
       inkscape:collect="always"
       xlink:href="#linearGradient1"
       id="linearGradient8"
       x1="1.309238"
       y1="2.3039536"
       x2="2.1689303"
       y2="1.7263563"
       gradientUnits="userSpaceOnUse"
       gradientTransform="matrix(0.93548391,0,0,0.9285714,0.1365564,0.15118754)" />
  </defs>
  <metadata
     id="metadata3">
    <rdf:RDF>
      <cc:Work
         rdf:about="">
        <dc:format>image/svg+xml</dc:format>
        <dc:type
           rdf:resource="http://purl.org/dc/dcmitype/StillImage" />
      </cc:Work>
    </rdf:RDF>
  </metadata>
  <g
     transform="translate(-21.834,0.89695)"
     fill="#5e4aa6"
     stroke-width="0.26458"
     id="g6">
    <circle
       cx="-330.35001"
       cy="-328.38"
       r="0"
       id="circle3" />
    <circle
       cx="-312.10999"
       cy="-326.25"
       r="0"
       id="circle4" />
    <circle
       cx="-306.01999"
       cy="-333.07001"
       r="0"
       id="circle5" />
    <circle
       cx="-308.84"
       cy="-326.01001"
       r="0"
       id="circle6" />
  </g>
  <g
     transform="translate(21.668,-4.305)"
     fill="#5e4aa6"
     stroke-width="0.26458"
     id="g9">
    <circle
       cx="-322.63"
       cy="-345.67001"
       r="0"
       id="circle7" />
    <circle
       cx="-31.726"
       cy="-10.849"
       r="0"
       fill-rule="evenodd"
       id="circle8" />
    <circle
       cx="-306.92001"
       cy="-328.72"
       r="0"
       id="circle9" />
  </g>
  <path
     d="m 6.0173811,-9.3526482 c -0.2454314,-0.00306 -0.5021108,0.1204876 -0.6203364,0.5822923 -0.087679,0.342481 -0.082641,1.5039819 -0.082172,1.8035184 4.701e-4,0.2930588 0.3983187,0.5135163 0.6653524,0.3179735 0.2670343,-0.1955327 0.4867586,-0.5371561 0.6726423,-0.5371561 h 1.016752 c 0.019334,0.021458 0.048228,0.057239 0.084597,0.1078035 0.081646,0.1136585 0.1766413,0.2712048 0.3384123,0.3936611 0.1912562,0.1447676 0.423103,0.1332284 0.5968211,0.042265 0.1737164,-0.090962 0.3287073,-0.2768139 0.3290933,-0.5311624 2.105e-4,-0.1174966 0.00152,-0.4106454 -0.00579,-0.7100789 -0.00704,-0.299436 -0.012401,-0.5776025 -0.066088,-0.7941835 C 8.8903512,-8.905242 8.7888265,-9.0861412 8.6504192,-9.2013042 8.5119932,-9.3164631 8.349835,-9.3544331 8.2126589,-9.3526569 7.9589025,-9.3493494 7.7919868,-9.2539513 7.709751,-9.2008761 H 6.5934304 c 0,0 -0.2796812,-0.1480728 -0.5758737,-0.1517808 z m 2.1978236,0.2894374 c 0.1879953,-0.00249 0.3844917,0.095412 0.4750433,0.461061 0.067147,0.2711793 0.063353,1.1908267 0.063004,1.428013 -3.599e-4,0.2320456 -0.3050994,0.4066929 -0.5096628,0.2518749 C 8.0390389,-7.0770845 7.8707855,-7.4755605 7.7283985,-7.4755605 H 7.2328081 v -1.4357142 h 0.541117 c 0,0 0.2143771,-0.1489886 0.441264,-0.151923 z"
     id="path9"
     style="fill:url(#linearGradient4);fill-opacity:1;stroke-width:0.248093" />
  <g
     transform="matrix(0.24137587,0,0,0.25501158,5.1676754,-10.122733)"
     id="g13">
    <path
       d="M 5.8749,7.5461 H 5.21592 v 0.67729 c 0,0.14646 -0.10984,0.25628 -0.25628,0.25628 H 4.37388 C 4.22742,8.47967 4.1176,8.36985 4.1176,8.22339 V 7.5461 H 3.45862 C 3.31216,7.5461 3.20234,7.43628 3.20234,7.28982 V 6.70405 c 0,-0.14646 0.10982,-0.25628 0.25628,-0.25628 H 4.1176 V 5.78879 c 0,-0.14646 0.10982,-0.25628 0.25628,-0.25628 h 0.58576 c 0.14646,0 0.25628,0.10982 0.25628,0.25628 V 6.44777 H 5.8749 c 0.14646,0 0.25628,0.10982 0.25628,0.25628 v 0.58577 c 0,0.14646 -0.10982,0.25628 -0.25628,0.25628 z"
       fill="#fefefe"
       stroke-width="0.046478"
       id="path10" />
    <g
       transform="translate(-0.26458)"
       stroke-width="0.047982"
       id="g12">
      <path
         d="m 12.964,5.5325 c -0.35906,0 -0.66144,0.30239 -0.66144,0.66144 0,0.35906 0.30239,0.66145 0.66144,0.66145 0.35906,0 0.66145,-0.30239 0.66145,-0.66145 C 13.625403,5.83485 13.32306,5.5325 12.964,5.5325 Z"
         id="path11"
         style="fill:#ff00ff" />
      <path
         d="m 11.377,7.1568 c -0.35906,0 -0.66145,0.30239 -0.66145,0.66145 0,0.35906 0.30239,0.66144 0.66145,0.66144 0.35906,0 0.66144,-0.30239 0.66144,-0.66144 0,-0.35906 -0.30239,-0.66145 -0.66144,-0.66145 z"
         id="path12"
         style="fill:#00ffff" />
    </g>
  </g>
  <path
     id="Game-3"
     class="st0"
     d="M 0.7978682,1.5433728 V 1.7726736 H 0.5580939 V 2.0019732 H 0.7978682 V 2.2312766 H 1.0376415 V 2.0019732 H 1.2774157 V 1.7726736 H 1.0376415 V 1.5433728 Z m 2.2778531,0.4012767 c 0,0.097453 -0.077922,0.1719755 -0.1798325,0.1719755 -0.1019032,0 -0.1798298,-0.074527 -0.1798298,-0.1719755 0,-0.097454 0.077922,-0.1719759 0.1798298,-0.1719759 0.1019053,0 0.1798325,0.074528 0.1798325,0.1719759 z m 0.539492,0.1719755 c 0.1019017,0 0.1798286,-0.074527 0.1798286,-0.1719755 0,-0.097454 -0.077921,-0.1719759 -0.1798286,-0.1719759 -0.1019042,0 -0.1798304,0.074528 -0.1798304,0.1719759 0,0.097453 0.077921,0.1719755 0.1798304,0.1719755 z M 3.4353829,2.2886008 c 0,0.097454 -0.077925,0.1719752 -0.1798326,0.1719752 -0.1019015,0 -0.179829,-0.074528 -0.179829,-0.1719752 0,-0.097454 0.077922,-0.1719758 0.179829,-0.1719758 0.1019036,0 0.1798326,0.074527 0.1798326,0.1719758 z m 0,-0.6879028 c 0,0.097453 -0.077925,0.1719756 -0.1798326,0.1719756 -0.1019015,0 -0.179829,-0.074526 -0.179829,-0.1719756 0,-0.097454 0.077922,-0.1719758 0.179829,-0.1719758 0.1019036,0 0.1798326,0.074526 0.1798326,0.1719758 z M 0.1984336,1.7726736 v 1.4904568 c 0,0.1891736 0.1618475,0.3439517 0.3596603,0.3439517 h 0.1078989 c 0.227785,0 0.4375864,-0.1203823 0.5334954,-0.3152905 L 1.5171907,2.6898769 H 2.716059 l 0.3716518,0.7051 c 0.065941,0.1261181 0.203805,0.2121052 0.3536641,0.2121052 0.3296888,0 0.5934415,-0.2522313 0.5934415,-0.5675194 v -1.381541 c 0,-0.3152879 -0.2697447,-0.5732515 -0.5994335,-0.5732515 H 2.9558351 L 2.716059,1.3140707 H 1.5171907 L 1.2774157,1.0847702 H 0.9177549 c -0.3956266,0 -0.7193213,0.309556 -0.7193213,0.6879034 z"
     style="clip-rule:evenodd;fill:url(#linearGradient6);fill-opacity:1;fill-rule:evenodd;stroke-width:0.0586201" />
  <path
     id="Game-s-6"
     class="st1"
     d="m 2.9558351,0.39686722 v 0.11465155 c 0,0.18917339 -0.1618495,0.3439516 -0.3596631,0.3439516 H 2.3563971 c -0.065941,0 -0.1198871,0.051591 -0.1198871,0.1146488 V 1.0847702 H 1.9967394 V 0.97011917 c 0,-0.18917364 0.1618449,-0.34395165 0.3596577,-0.34395165 H 2.596172 c 0.065943,0 0.119887,-0.0515905 0.119887,-0.11464875 V 0.39686722 Z M 3.4353829,3.6070821 v 0.2293007 c 0.3296888,0 0.5994335,-0.2579641 0.5994335,-0.5732524 V 2.460576 H 3.7950419 v 0.8025544 c 0,0.1891736 -0.1618454,0.3439517 -0.359659,0.3439517 z M 2.656117,2.5752284 H 1.325373 L 0.8877839,3.4179088 C 0.8278396,3.5325578 0.701959,3.6070821 0.5640886,3.6070821 h -0.00596 v 0.2293007 h 0.00596 c 0.2277851,0 0.4375867,-0.1203837 0.533498,-0.3152878 L 1.4692363,2.8045276 h 1.3067684 z"
     style="fill:url(#linearGradient8);fill-opacity:1;stroke-width:0.93202" />
</svg>
