<?xml version="1.0" encoding="UTF-8" standalone="no"?>
<!-- Generator: Gravit.io -->

<svg
   style="isolation:isolate"
   viewBox="0 0 16 16"
   width="16pt"
   height="16pt"
   version="1.1"
   id="svg4"
   sodipodi:docname="appium.svg"
   inkscape:version="1.4 (e7c3feb100, 2024-10-09)"
   xmlns:inkscape="http://www.inkscape.org/namespaces/inkscape"
   xmlns:sodipodi="http://sodipodi.sourceforge.net/DTD/sodipodi-0.dtd"
   xmlns:xlink="http://www.w3.org/1999/xlink"
   xmlns="http://www.w3.org/2000/svg"
   xmlns:svg="http://www.w3.org/2000/svg">
  <defs
     id="defs4">
    <linearGradient
       id="linearGradient4"
       inkscape:collect="always">
      <stop
         style="stop-color:#8660cb;stop-opacity:1"
         offset="0"
         id="stop5" />
      <stop
         style="stop-color:#febc85;stop-opacity:1"
         offset="1"
         id="stop6" />
    </linearGradient>
    <linearGradient
       inkscape:collect="always"
       xlink:href="#linearGradient4"
       id="linearGradient6"
       x1="0"
       y1="13"
       x2="13"
       y2="0"
       gradientUnits="userSpaceOnUse" />
    <linearGradient
       inkscape:collect="always"
       xlink:href="#linearGradient4"
       id="linearGradient8"
       x1="14.5"
       y1="-1.5"
       x2="0"
       y2="13"
       gradientUnits="userSpaceOnUse" />
  </defs>
  <sodipodi:namedview
     id="namedview4"
     pagecolor="#ffffff"
     bordercolor="#000000"
     borderopacity="0.25"
     inkscape:showpageshadow="2"
     inkscape:pageopacity="0.0"
     inkscape:pagecheckerboard="0"
     inkscape:deskcolor="#d1d1d1"
     inkscape:document-units="pt"
     inkscape:zoom="17.213631"
     inkscape:cx="4.386059"
     inkscape:cy="4.966994"
     inkscape:window-width="1920"
     inkscape:window-height="1004"
     inkscape:window-x="0"
     inkscape:window-y="0"
     inkscape:window-maximized="1"
     inkscape:current-layer="svg4" />
  <linearGradient
     id="_lgradient_9"
     x1="0"
     y1="0.5"
     x2="1"
     y2="0.5"
     gradientTransform="matrix(8.9374999,0,0,8.9374999,2.03125,2.03125)"
     gradientUnits="userSpaceOnUse">
    <stop
       offset="0%"
       stop-opacity="1"
       style="stop-color:rgb(71,118,230)"
       id="stop1" />
    <stop
       offset="98.26086956521739%"
       stop-opacity="1"
       style="stop-color:rgb(142,84,233)"
       id="stop2" />
  </linearGradient>
  <linearGradient
     id="_lgradient_10"
     x1="0"
     y1="0.5"
     x2="1"
     y2="0.5"
     gradientTransform="matrix(0,-13,13,0,0,13)"
     gradientUnits="userSpaceOnUse">
    <stop
       offset="0%"
       stop-opacity="1"
       style="stop-color:rgb(71,118,230)"
       id="stop3" />
    <stop
       offset="98.26086956521739%"
       stop-opacity="1"
       style="stop-color:rgb(142,84,233)"
       id="stop4" />
  </linearGradient>
  <g
     id="g4"
     transform="translate(1.5,1.5)">
    <path
       d="m 6.0168333,2.0569792 c -1.8489791,0.2088125 -3.3824375,1.54375 -3.84475,3.3420833 -0.1010208,0.3897292 -0.088833,0.494 0.079625,0.8376875 0.2448334,0.4969792 0.6334792,0.905125 1.0714167,1.126125 0.3304167,0.1687292 0.5630625,0.221 1.025375,0.2364375 0.4376667,0.015167 0.7499375,-0.021667 1.1388542,-0.1318958 L 5.6463333,7.421375 V 6.8166042 c 0,-0.6657084 0.049021,-1.1106875 0.1746875,-1.59575 0.31525,-1.2152292 1.0836042,-2.0683542 2.106,-2.335125 0.2968334,-0.079896 0.7131042,-0.1105 0.94575,-0.070688 C 9.0962083,2.851875 9.0748125,2.82425 8.695375,2.6094792 7.8993958,2.1552917 6.9260208,1.9556875 6.0168333,2.0569792 Z m 2.3326875,0.9481875 c -0.5663125,0.079896 -1.1144791,0.3715833 -1.4541041,0.7735 -0.2968334,0.355875 -0.4593334,0.6567708 -0.63375,1.184625 l -0.1194375,0.3528958 0.3889166,0.21775 c 0.68575,0.3835 1.1263959,0.715 1.555125,1.157 0.5692917,0.5952917 0.8783125,1.1997917 0.9641667,1.899625 0.073396,0.6045 -0.1164583,1.3195 -0.4745,1.7888545 -0.061208,0.0799 -0.098042,0.144354 -0.085583,0.144354 0.04875,0 0.5416666,-0.309833 0.7651041,-0.481813 C 9.5525625,9.815 9.9902292,9.345375 10.192271,9.0385208 10.807604,8.1117292 11.070854,7.0099792 10.933,5.9634792 10.795146,4.9202292 10.363708,4.0486875 9.6197292,3.3090417 9.4084792,3.09725 9.3288542,3.0390208 9.2370417,3.0235833 9.0228125,2.99 8.5423542,2.9778125 8.3495208,3.0051667 Z M 2.0496667,6.6876875 c 0.039813,1.1662083 0.4652916,2.1420208 1.3008125,2.9799792 0.5265,0.5246043 1.0684375,0.8653123 1.7265625,1.0863123 0.5478958,0.180917 0.765375,0.214771 1.4294583,0.214771 0.6491875,0 0.8601667,-0.0306 1.399125,-0.202583 0.3214792,-0.104271 0.36725,-0.147334 0.5906875,-0.537063 C 8.71975,9.839375 8.8085833,9.5295417 8.8240208,9.0815833 8.8391875,8.7560417 8.8299792,8.6550208 8.775,8.4399792 8.6525833,7.9459792 8.3403125,7.4273333 7.9207917,7.0132292 L 7.7371667,6.8350208 7.4495417,7.0099792 C 6.8003542,7.4151458 5.9862292,7.749625 5.3587083,7.8723125 4.9516458,7.9522083 4.3086875,7.9459792 3.9566042,7.860125 3.1178333,7.6513125 2.4873333,7.1510833 2.1260417,6.4025 L 2.03125,6.2121042 Z"
       fill-rule="evenodd"
       id="path2"
       style="fill:url(#linearGradient8)" />
    <path
       d="m 4.8154167,1.351458 v 0 c -0.2841042,0.09262 -0.589875,-0.06256 -0.6825,-0.346666 v 0 c -0.092625,-0.284105 0.062563,-0.589875 0.3466666,-0.6825 v 0 C 5.1295833,0.108333 5.809375,0 6.491875,0 8.7533333,0 10.860417,1.175417 12.04125,3.10375 12.666875,4.1220833 13,5.2975 13,6.491875 13,8.7533333 11.824583,10.860417 9.89625,12.04125 8.8779167,12.666875 7.7052083,13 6.508125,13 4.2466667,13 2.139583,11.824583 0.95875,9.89625 0.333125,8.8779167 0,7.7052083 0,6.508125 0,4.980625 0.53625,3.4991667 1.513958,2.326458 v 0 C 1.706792,2.097875 2.049667,2.067542 2.279063,2.258748 v 0 C 2.508458,2.449958 2.53825,2.792292 2.345417,3.0225 v 0 c -0.815209,0.9777083 -1.262084,2.21 -1.262084,3.485625 0,0.9939583 0.27625,1.9716667 0.798959,2.8220833 0.985833,1.6060417 2.740833,2.5864587 4.625833,2.5864587 0.9966667,0 1.9716667,-0.27625 2.8220833,-0.798959 1.6060417,-0.985833 2.5864587,-2.740833 2.5864587,-4.625833 0,-0.9939583 -0.27625,-1.9716667 -0.798959,-2.8220833 C 10.131875,2.06375 8.376875,1.083333 6.491875,1.083333 c -0.56875,0 -1.1347917,0.08938 -1.6764583,0.268125 z"
       id="path4"
       style="fill:url(#linearGradient6)" />
  </g>
</svg>
