<?xml version="1.0" encoding="UTF-8" standalone="no"?>
<svg
   height="16"
   width="16"
   version="1.1"
   id="svg6"
   sodipodi:docname="antimicrox_trayicon.svg"
   inkscape:version="1.3.2 (091e20ef0f, 2023-11-25)"
   xmlns:inkscape="http://www.inkscape.org/namespaces/inkscape"
   xmlns:sodipodi="http://sodipodi.sourceforge.net/DTD/sodipodi-0.dtd"
   xmlns:xlink="http://www.w3.org/1999/xlink"
   xmlns="http://www.w3.org/2000/svg"
   xmlns:svg="http://www.w3.org/2000/svg"
   xmlns:rdf="http://www.w3.org/1999/02/22-rdf-syntax-ns#"
   xmlns:cc="http://creativecommons.org/ns#"
   xmlns:dc="http://purl.org/dc/elements/1.1/">
  <metadata
     id="metadata12">
    <rdf:RDF>
      <cc:Work
         rdf:about="">
        <dc:format>image/svg+xml</dc:format>
        <dc:type
           rdf:resource="http://purl.org/dc/dcmitype/StillImage" />
      </cc:Work>
    </rdf:RDF>
  </metadata>
  <defs
     id="defs10">
    <linearGradient
       id="linearGradient1"
       inkscape:collect="always">
      <stop
         style="stop-color:#cd87de;stop-opacity:1"
         offset="0"
         id="stop1" />
      <stop
         style="stop-color:#00ccff;stop-opacity:1"
         offset="1"
         id="stop2" />
    </linearGradient>
    <marker
       style="overflow:visible"
       id="DotL"
       refX="0"
       refY="0"
       orient="auto"
       inkscape:stockid="DotL"
       inkscape:isstock="true">
      <path
         transform="matrix(0.8,0,0,0.8,5.92,0.8)"
         style="fill:#000000;fill-opacity:1;fill-rule:evenodd;stroke:#000000;stroke-width:1pt;stroke-opacity:1"
         d="m -2.5,-1 c 0,2.76 -2.24,5 -5,5 -2.76,0 -5,-2.24 -5,-5 0,-2.76 2.24,-5 5,-5 2.76,0 5,2.24 5,5 z"
         id="path898" />
    </marker>
    <linearGradient
       id="linearGradient10376"
       x1="30.393"
       x2="30.393"
       y1="10.498"
       y2="18.433001"
       gradientTransform="matrix(2.2594179,0,0,2.2384543,-53.727089,-14.203688)"
       gradientUnits="userSpaceOnUse">
      <stop
         stop-color="#0183fb"
         offset="0"
         id="stop2-4" />
      <stop
         stop-color="#08e083"
         offset="1"
         id="stop3" />
    </linearGradient>
    <linearGradient
       inkscape:collect="always"
       xlink:href="#linearGradient1"
       id="linearGradient2"
       x1="0.79549509"
       y1="27.53693"
       x2="31.469616"
       y2="5.6166215"
       gradientUnits="userSpaceOnUse"
       gradientTransform="matrix(0.49998915,0,0,0.53333315,-1.1385953e-7,-0.74666637)" />
  </defs>
  <sodipodi:namedview
     pagecolor="#ffffff"
     bordercolor="#666666"
     borderopacity="1"
     objecttolerance="10"
     gridtolerance="10"
     guidetolerance="10"
     inkscape:pageopacity="0"
     inkscape:pageshadow="2"
     inkscape:window-width="1920"
     inkscape:window-height="994"
     id="namedview8"
     showgrid="true"
     inkscape:zoom="11.313709"
     inkscape:cx="22.715804"
     inkscape:cy="9.4133586"
     inkscape:window-x="0"
     inkscape:window-y="0"
     inkscape:window-maximized="1"
     inkscape:current-layer="svg6"
     inkscape:document-rotation="0"
     inkscape:pagecheckerboard="0"
     inkscape:showpageshadow="2"
     inkscape:deskcolor="#d1d1d1">
    <inkscape:grid
       id="grid1"
       units="px"
       originx="0"
       originy="0"
       spacingx="1"
       spacingy="1"
       empcolor="#0099e5"
       empopacity="0.30196078"
       color="#0099e5"
       opacity="0.14901961"
       empspacing="5"
       dotted="false"
       gridanglex="30"
       gridanglez="30"
       visible="true" />
  </sodipodi:namedview>
  <path
     d="M 3.0353564,2.0002881 C 1.9752179,1.9870018 0.86648789,2.5207377 0.35581109,4.5155294 -0.02292171,5.9948874 -0.00116511,11.012052 8.7068614e-4,12.305897 0.00295069,13.571777 1.7214099,14.524071 2.874865,13.679416 4.0283234,12.834795 4.9774248,11.359133 5.7803516,11.359133 h 4.3918494 c 0.08349,0.0927 0.208556,0.247248 0.36545,0.465677 0.352656,0.490934 0.763006,1.171465 1.46176,1.700419 0.826152,0.625337 1.827621,0.575502 2.577996,0.182583 0.750329,-0.392926 1.419842,-1.195725 1.421514,-2.294386 0.0017,-0.50754 0.0056,-1.7738096 -0.02748,-3.0672226 -0.0325,-1.293426 -0.05371,-2.494985 -0.285466,-3.4305045 C 15.442587,3.9328841 15.004265,3.1514775 14.406385,2.6540267 13.808454,2.1565939 13.108018,1.992578 12.515483,2.0002557 11.419382,2.0144397 10.698393,2.4266151 10.343175,2.655876 H 5.5234368 c 0,0 -1.2080946,-0.6396066 -2.4875013,-0.6556203 z m 9.4935176,1.2502393 c 0.812044,-0.010502 1.660799,0.412138 2.051987,1.991572 0.290113,1.171365 0.273596,5.1438276 0.272047,6.1683576 -0.0022,1.002351 -1.317873,1.756735 -2.201501,1.088003 -0.883543,-0.668762 -1.61033,-2.390003 -2.225386,-2.390003 H 8.285409 V 3.9068231 h 2.33736 c 0,0 0.926023,-0.6435612 1.906024,-0.6562405 z"
     id="path9"
     style="fill:url(#linearGradient2);fill-opacity:1;stroke-width:0.516393" />
  <g
     transform="matrix(1.0426252,0,0,1.1015336,-0.63495461,-1.3261228)"
     id="g13">
    <path
       d="M 5.8749,7.5461 H 5.21592 v 0.67729 c 0,0.14646 -0.10984,0.25628 -0.25628,0.25628 H 4.37388 C 4.22742,8.47967 4.1176,8.36985 4.1176,8.22339 V 7.5461 H 3.45862 C 3.31216,7.5461 3.20234,7.43628 3.20234,7.28982 V 6.70405 c 0,-0.14646 0.10982,-0.25628 0.25628,-0.25628 H 4.1176 V 5.78879 c 0,-0.14646 0.10982,-0.25628 0.25628,-0.25628 h 0.58576 c 0.14646,0 0.25628,0.10982 0.25628,0.25628 V 6.44777 H 5.8749 c 0.14646,0 0.25628,0.10982 0.25628,0.25628 v 0.58577 c 0,0.14646 -0.10982,0.25628 -0.25628,0.25628 z"
       stroke-width="0.046478"
       id="path10" />
    <g
       transform="translate(-0.26458)"
       stroke-width="0.047982"
       id="g12">
      <path
         d="m 12.964,5.5325 c -0.35906,0 -0.66144,0.30239 -0.66144,0.66144 0,0.35906 0.30239,0.66145 0.66144,0.66145 0.35906,0 0.66145,-0.30239 0.66145,-0.66145 C 13.625403,5.83485 13.32306,5.5325 12.964,5.5325 Z"
         id="path11"
         style="fill:#00ccff" />
      <path
         d="m 11.377,7.1568 c -0.35906,0 -0.66145,0.30239 -0.66145,0.66145 0,0.35906 0.30239,0.66144 0.66145,0.66144 0.35906,0 0.66144,-0.30239 0.66144,-0.66144 0,-0.35906 -0.30239,-0.66145 -0.66144,-0.66145 z"
         id="path12"
         style="fill:#bc5fd3" />
    </g>
  </g>
</svg>
