<?xml version="1.0" encoding="UTF-8" standalone="no"?>
<svg
   width="16"
   height="16"
   version="1.1"
   viewBox="0 0 4.23325 4.23325"
   id="svg30"
   sodipodi:docname="audacious.svg"
   xml:space="preserve"
   inkscape:version="1.3 (0e150ed6c4, 2023-07-21)"
   xmlns:inkscape="http://www.inkscape.org/namespaces/inkscape"
   xmlns:sodipodi="http://sodipodi.sourceforge.net/DTD/sodipodi-0.dtd"
   xmlns:xlink="http://www.w3.org/1999/xlink"
   xmlns="http://www.w3.org/2000/svg"
   xmlns:svg="http://www.w3.org/2000/svg"
   xmlns:rdf="http://www.w3.org/1999/02/22-rdf-syntax-ns#"
   xmlns:cc="http://creativecommons.org/ns#"
   xmlns:dc="http://purl.org/dc/elements/1.1/"><sodipodi:namedview
     id="namedview32"
     pagecolor="#ffffff"
     bordercolor="#999999"
     borderopacity="1"
     inkscape:showpageshadow="0"
     inkscape:pageopacity="0"
     inkscape:pagecheckerboard="0"
     inkscape:deskcolor="#d1d1d1"
     showgrid="false"
     inkscape:zoom="22.512993"
     inkscape:cx="7.9509641"
     inkscape:cy="7.9731735"
     inkscape:window-width="1920"
     inkscape:window-height="994"
     inkscape:window-x="0"
     inkscape:window-y="0"
     inkscape:window-maximized="1"
     inkscape:current-layer="svg30"><inkscape:grid
       type="xygrid"
       id="grid435"
       originx="0"
       originy="0"
       spacingy="1"
       spacingx="1"
       units="px"
       visible="false" /></sodipodi:namedview><metadata
     id="metadata2"><rdf:RDF><cc:Work
         rdf:about=""><dc:format>image/svg+xml</dc:format><dc:type
           rdf:resource="http://purl.org/dc/dcmitype/StillImage" /></cc:Work></rdf:RDF></metadata><defs
     id="defs14"><linearGradient
       id="linearGradient1"
       inkscape:collect="always"><stop
         style="stop-color:#00ccff;stop-opacity:1"
         offset="0"
         id="stop1" /><stop
         style="stop-color:#ff7aff;stop-opacity:1;"
         offset="1"
         id="stop2" /></linearGradient><linearGradient
       id="linearGradient877"
       x1="-39.987999"
       x2="-39.987999"
       y1="-6.3007002"
       y2="9.5748997"
       gradientTransform="matrix(0.91661,0,0,0.91661,45.781,6.9663)"
       gradientUnits="userSpaceOnUse"><stop
         stop-color="#4d4d4d"
         offset="0"
         id="stop4" /><stop
         stop-color="#1a1a1a"
         offset="1"
         id="stop6" /></linearGradient><linearGradient
       id="linearGradient905"
       x1="4.7704"
       x2="12.162"
       y1="8.4570999"
       y2="8.4570999"
       gradientUnits="userSpaceOnUse"><stop
         stop-color="#e5e5e5"
         offset="0"
         id="stop9" /><stop
         stop-color="#cdcdcd"
         offset="1"
         id="stop11" /></linearGradient><linearGradient
       inkscape:collect="always"
       xlink:href="#linearGradient1"
       id="linearGradient2"
       x1="1.0694313"
       y1="3.5929117"
       x2="2.9203088"
       y2="1.4397044"
       gradientUnits="userSpaceOnUse" /><linearGradient
       inkscape:collect="always"
       xlink:href="#linearGradient1"
       id="linearGradient5"
       x1="3.0884678"
       y1="4.5327001"
       x2="3.3808978"
       y2="1.6074843"
       gradientUnits="userSpaceOnUse" /></defs><path
     id="path431"
     d="M 1.9550377,1.06567 A 1.4258608,1.4168303 0 0 0 0.52917644,2.4825002 1.4258608,1.4168303 0 0 0 1.9550377,3.8993307 1.4258608,1.4168303 0 0 0 3.3808978,2.4825002 1.4258608,1.4168303 0 0 0 1.9550377,1.06567 Z m 0,0.566732 A 0.8555166,0.85009831 0 0 1 2.8105537,2.4825002 0.8555166,0.85009831 0 0 1 1.9550377,3.3325984 0.8555166,0.85009831 0 0 1 1.0995205,2.4825002 0.8555166,0.85009831 0 0 1 1.9550377,1.632402 Z"
     style="fill:url(#linearGradient2)" /><g
     id="g26844"
     style="opacity:0.8"
     transform="matrix(0.25149537,0,0,0.24990256,-0.06736602,0.25335394)"><path
       id="path26828"
       style="fill:#ffffff;fill-opacity:1;stroke-width:1.00001"
       d="m 13.521389,7.4800163 a 5.6695313,5.6695313 0 0 0 -0.031,-0.1157529 c -0.04101,0.00384 -0.08186,0.00809 -0.122988,0.012919 -0.686861,0.080583 -1.387567,0.3000609 -2.033944,0.7007186 a 3.4017192,3.4017192 0 0 1 0.02997,0.1204037 c 0.639097,-0.4042655 1.333914,-0.6241538 2.017408,-0.7043359 0.04688,-0.0055 0.0938,-0.00978 0.140557,-0.013952 z" /><path
       id="path26822"
       style="fill:#ffffff;fill-opacity:1;stroke-width:1.00001"
       d="m 13.164312,11.348438 a 5.6695313,5.6695313 0 0 0 0.01188,-0.0248 5.6695313,5.6695313 0 0 0 0.05529,-0.122471 c -0.213379,0.07814 -0.433832,0.129477 -0.662996,0.154509 -0.658779,0.07245 -1.25908,0.07441 -1.810189,0.02687 0.812912,-0.402997 1.517346,-1.021934 1.987953,-1.9099237 0.259436,-0.4574481 0.560963,-0.9131604 0.911554,-1.3063545 a 5.6695313,5.6695313 0 0 0 -0.01033,-0.090949 5.6695313,5.6695313 0 0 0 -0.01188,-0.063044 c -0.388044,0.4187026 -0.715241,0.9117663 -0.993202,1.401954 v 0.00155 c -0.491063,0.9279952 -1.243299,1.5550812 -2.110424,1.9445452 -0.03666,-0.0042 -0.07231,-0.0094 -0.108518,-0.01395 a 3.4017192,3.4017192 0 0 1 -0.114719,0.103867 c 0.0023,3.13e-4 0.0045,7.23e-4 0.0067,10e-4 -0.0045,0.0018 -0.009,0.0034 -0.01343,0.0052 a 3.4017192,3.4017192 0 0 1 -0.102318,0.09301 3.4017192,3.4017192 0 0 1 -0.177246,0.131773 c 0.179179,-0.05827 0.355176,-0.125084 0.527089,-0.201018 0.612797,0.06708 1.286316,0.0743 2.032394,-0.0078 0.200191,-0.02187 0.394045,-0.0632 0.582382,-0.124021 z" /><path
       id="path26816"
       d="M 2.5109084,7.6753494 A 5.6695313,5.6695313 0 0 0 2.488688,7.7936861 C 2.9230238,7.9587193 3.3350738,8.2785474 3.6834236,8.8302949 3.803699,9.0207079 3.9286061,9.2267445 4.0611709,9.4379978 3.6068233,9.4474453 3.1533722,9.5045524 2.7222609,9.5904403 2.6084852,9.335816 2.4916961,9.1087347 2.3724183,8.905741 a 5.6695313,5.6695313 0 0 0 -5.167e-4,0.014469 5.6695313,5.6695313 0 0 0 0.0093,0.2392572 c 0.075372,0.1406166 0.1496106,0.291261 0.2232378,0.4547437 -0.061051,0.013022 -0.1213856,0.026738 -0.1813807,0.040824 a 5.6695313,5.6695313 0 0 0 0.012402,0.1100687 5.6695313,5.6695313 0 0 0 0.00207,0.010852 c 0.071931,-0.016935 0.1446205,-0.03317 0.2180703,-0.048575 0.7827317,1.7771164 1.8975574,2.5826794 3.239015,2.6457814 0.4159881,0.01968 0.8119903,-0.05224 1.1859508,-0.191199 a 3.4017192,3.4017192 0 0 1 -0.026355,-0.0067 3.4017192,3.4017192 0 0 1 -0.1565765,-0.05581 C 6.5795076,12.220764 6.2466146,12.270687 5.9002989,12.254308 4.6084504,12.193595 3.5437737,11.438066 2.7734195,9.7036094 3.2134329,9.6175375 3.6760786,9.5618425 4.136617,9.5568513 4.4444861,10.039294 4.8013714,10.543653 5.2714091,10.968624 5.3296054,11.02124 5.3899825,11.072193 5.4517563,11.1221 A 3.4017192,3.4017192 0 0 1 5.4119662,11.078175 3.4017192,3.4017192 0 0 1 5.2130159,10.80998 3.4017192,3.4017192 0 0 1 5.1220671,10.658054 C 4.7920248,10.314957 4.5201042,9.932105 4.2776909,9.5568513 c 0.1428215,0.00173 0.2850994,0.00927 0.4263221,0.021704 A 3.4017192,3.4017192 0 0 1 4.6864434,9.4576345 C 4.5256599,9.4441163 4.3639015,9.4371551 4.201728,9.4369643 4.054559,9.2046706 3.9164703,8.9767522 3.7831571,8.7657007 3.4181077,8.1875092 2.9761077,7.8480147 2.5109084,7.6753494 Z"
       style="fill:#ffffff;fill-opacity:1" /></g><path
     id="rect29147"
     d="m 3.3904048,0.2645781 c 0.173784,0 0.313689,0.13876343 0.313689,0.34396574 V 3.5981917 c 0,0.2052021 -0.139905,0.370401 -0.313689,0.370401 -0.1737839,0 -0.313689,-0.1651989 -0.313689,-0.370401 V 0.60854384 c 0,-0.20520231 0.1399051,-0.34396574 0.313689,-0.34396574 z"
     sodipodi:nodetypes="sssssss"
     style="fill:url(#linearGradient5)" /></svg>
