<?xml version="1.0" encoding="UTF-8" standalone="no"?>
<!-- Created with Inkscape (http://www.inkscape.org/) -->

<svg
   width="16"
   height="16"
   version="1.1"
   id="svg2"
   sodipodi:docname="audio-card.svg"
   inkscape:version="1.3 (0e150ed6c4, 2023-07-21)"
   xmlns:inkscape="http://www.inkscape.org/namespaces/inkscape"
   xmlns:sodipodi="http://sodipodi.sourceforge.net/DTD/sodipodi-0.dtd"
   xmlns:xlink="http://www.w3.org/1999/xlink"
   xmlns="http://www.w3.org/2000/svg"
   xmlns:svg="http://www.w3.org/2000/svg">
  <sodipodi:namedview
     id="namedview2"
     pagecolor="#ffffff"
     bordercolor="#000000"
     borderopacity="0.25"
     inkscape:showpageshadow="2"
     inkscape:pageopacity="0.0"
     inkscape:pagecheckerboard="0"
     inkscape:deskcolor="#d1d1d1"
     inkscape:zoom="23.96875"
     inkscape:cx="9.1994785"
     inkscape:cy="11.243807"
     inkscape:window-width="1920"
     inkscape:window-height="994"
     inkscape:window-x="0"
     inkscape:window-y="0"
     inkscape:window-maximized="1"
     inkscape:current-layer="svg2" />
  <defs
     id="defs2">
    <linearGradient
       id="linearGradient2"
       inkscape:collect="always">
      <stop
         style="stop-color:#00d4aa;stop-opacity:1"
         offset="0"
         id="stop3" />
      <stop
         style="stop-color:#0066ff;stop-opacity:1"
         offset="1"
         id="stop4" />
    </linearGradient>
    <linearGradient
       id="linearGradient1885"
       x1="-151.41718"
       x2="-98.522247"
       y1="-1.8180039"
       y2="52.625416"
       gradientTransform="matrix(0,0.24577022,-0.23878001,0,14.065897,38.713833)"
       gradientUnits="userSpaceOnUse">
      <stop
         stop-color="#05adea"
         offset="0"
         id="stop1"
         style="stop-color:#00ffcc;stop-opacity:1" />
      <stop
         stop-color="#59ff4d"
         offset="1"
         id="stop2" />
    </linearGradient>
    <linearGradient
       inkscape:collect="always"
       xlink:href="#linearGradient2"
       id="linearGradient4"
       x1="3.4608865"
       y1="13.256845"
       x2="13.415255"
       y2="3.3689699"
       gradientUnits="userSpaceOnUse" />
  </defs>
  <path
     d="m 14.5,6.916145 a 1.07451,1.1059661 0 0 0 -1.07451,-1.1059661 1.07451,1.1059661 0 0 0 -0.05317,0.00382 L 11.258286,3.6380777 10.24534,4.6806776 8.052956,6.93772 9.0659023,7.980321 11.258751,5.7237556 12.355175,6.852276 a 1.07451,1.1059661 0 0 0 -0.0042,0.06384 1.07451,1.1059661 0 0 0 1.07451,1.105965 1.07451,1.1059661 0 0 0 1.07451,-1.105965 z m 0,4.328815 a 1.07451,1.1059661 0 0 0 -1.07451,-1.105965 1.07451,1.1059661 0 0 0 -0.05317,0.0037 l -1.100626,-1.133324 -1.01341,-1.042599 -3.205401,3.299715 -0.997091,1.02628 a 1.07451,1.1059661 0 0 0 -0.06156,-0.0047 1.07451,1.1059661 0 0 0 -1.07451,1.105965 1.07451,1.1059661 0 0 0 1.07451,1.105967 1.07451,1.1059661 0 0 0 1.074511,-1.105967 1.07451,1.1059661 0 0 0 -0.0037,-0.05472 l 2.114018,-2.175424 1.07964,-1.111248 1.096424,1.128523 a 1.07451,1.1059661 0 0 0 -0.0042,0.06384 1.07451,1.1059661 0 0 0 1.07451,1.105966 1.07451,1.1059661 0 0 0 1.07451,-1.105966 z M 13.90305,6.916145 a 0.47756002,0.49154043 0 0 1 -0.47756,0.49154 0.47756002,0.49154043 0 0 1 -0.47756,-0.49154 0.47756002,0.49154043 0 0 1 0.47756,-0.4915406 0.47756002,0.49154043 0 0 1 0.47756,0.4915406 z m 0,4.328815 a 0.47756002,0.49154043 0 0 1 -0.47756,0.491539 0.47756002,0.49154043 0 0 1 -0.47756,-0.491539 0.47756002,0.49154043 0 0 1 0.47756,-0.49154 0.47756002,0.49154043 0 0 1 0.47756,0.49154 z M 10.080156,2.6059671 A 1.07451,1.1059661 0 0 0 9.0056455,1.500001 1.07451,1.1059661 0 0 0 7.931135,2.6059671 a 1.07451,1.1059661 0 0 0 0.0037,0.054722 L 6.934006,3.6908164 5.821263,4.8366131 4.741622,5.9478597 3.646591,4.8207717 A 1.07451,1.1059661 0 0 0 3.64902,4.7550084 1.07451,1.1059661 0 0 0 2.57451,3.6490425 1.07451,1.1059661 0 0 0 1.5,4.7550084 1.07451,1.1059661 0 0 0 2.57451,5.8609744 1.07451,1.1059661 0 0 0 2.63001,5.8600188 L 3.728753,6.990451 4.7417,8.033051 7.9471,4.7338148 8.9437266,3.7075341 a 1.07451,1.1059661 0 0 0 0.062026,0.00431 1.07451,1.1059661 0 0 0 1.0745104,-1.1059659 z m -0.5969505,0 a 0.47756002,0.49154043 0 0 1 -0.47756,0.4915404 0.47756002,0.49154043 0 0 1 -0.47756,-0.4915404 0.47756002,0.49154043 0 0 1 0.47756,-0.4915406 0.47756002,0.49154043 0 0 1 0.47756,0.4915406 z M 7.946991,9.108388 6.934044,8.06531 4.74166,10.322353 3.646629,9.195267 a 1.07451,1.1059661 0 0 0 0.0024,-0.06577 1.07451,1.1059661 0 0 0 -1.07451,-1.105966 1.07451,1.1059661 0 0 0 -1.07451,1.105966 1.07451,1.1059661 0 0 0 1.07451,1.105967 1.07451,1.1059661 0 0 0 0.0555,-9.58e-4 l 1.098745,1.130434 1.012947,1.042601 1.012946,-1.042601 z m -0.475239,4.285568 a 0.47756002,0.49154043 0 0 1 -0.47756,0.491541 0.47756002,0.49154043 0 0 1 -0.47756,-0.491541 0.47756002,0.49154043 0 0 1 0.47756,-0.491541 0.47756002,0.49154043 0 0 1 0.47756,0.491541 z M 3.052024,4.754963 A 0.47756002,0.49154043 0 0 1 2.574464,5.2465035 0.47756002,0.49154043 0 0 1 2.096904,4.754963 0.47756002,0.49154043 0 0 1 2.574464,4.2634226 0.47756002,0.49154043 0 0 1 3.052024,4.754963 Z m 0,4.374452 a 0.47756002,0.49154043 0 0 1 -0.47756,0.49154 0.47756002,0.49154043 0 0 1 -0.47756,-0.49154 0.47756002,0.49154043 0 0 1 0.47756,-0.49154 0.47756002,0.49154043 0 0 1 0.47756,0.49154 z"
     fill-rule="evenodd"
     id="path2"
     style="fill:url(#linearGradient4)" />
</svg>
