<?xml version="1.0" encoding="UTF-8" standalone="no"?>
<svg
   height="16"
   viewBox="0 0 16 16"
   width="16"
   version="1.1"
   id="svg25"
   sodipodi:docname="babe.svg"
   inkscape:version="1.3 (0e150ed6c4, 2023-07-21)"
   xmlns:inkscape="http://www.inkscape.org/namespaces/inkscape"
   xmlns:sodipodi="http://sodipodi.sourceforge.net/DTD/sodipodi-0.dtd"
   xmlns:xlink="http://www.w3.org/1999/xlink"
   xmlns="http://www.w3.org/2000/svg"
   xmlns:svg="http://www.w3.org/2000/svg">
  <defs
     id="defs29">
    <linearGradient
       id="linearGradient1"
       inkscape:collect="always">
      <stop
         style="stop-color:#ff66ff;stop-opacity:1;"
         offset="0"
         id="stop1" />
      <stop
         style="stop-color:#ff2a2a;stop-opacity:1"
         offset="1"
         id="stop3" />
    </linearGradient>
    <linearGradient
       id="linearGradient4054"
       gradientUnits="userSpaceOnUse"
       x1="4"
       x2="4"
       y1="44"
       y2="4"
       gradientTransform="matrix(1.0499999,0,0,1.0499999,-41.235474,-52.345686)">
      <stop
         offset="0"
         stop-color="#be1111"
         id="stop2-0" />
      <stop
         offset="1"
         stop-color="#e74c3c"
         id="stop4-6" />
    </linearGradient>
    <linearGradient
       id="linearGradient4058"
       gradientUnits="userSpaceOnUse"
       x1="20"
       x2="40"
       y1="24"
       y2="44"
       gradientTransform="matrix(1.0499999,0,0,1.0499999,-41.235474,-52.345686)">
      <stop
         offset="0"
         id="stop12-8" />
      <stop
         offset="1"
         stop-opacity="0"
         id="stop14-9" />
    </linearGradient>
    <linearGradient
       id="linearGradient4062"
       gradientUnits="userSpaceOnUse"
       x1="9"
       x2="64"
       y1="13"
       y2="68"
       gradientTransform="matrix(1.0499999,0,0,1.0499999,-41.235474,-52.345686)">
      <stop
         offset="0"
         stop-color="#fcfcfc"
         id="stop7-2" />
      <stop
         offset="1"
         stop-color="#e74c3c"
         id="stop9-6" />
    </linearGradient>
    <filter
       inkscape:collect="always"
       style="color-interpolation-filters:sRGB"
       id="filter1719"
       x="-0.070336814"
       y="-0.087921019"
       width="1.1406736"
       height="1.175842">
      <feGaussianBlur
         inkscape:collect="always"
         stdDeviation="0.56044576"
         id="feGaussianBlur1721" />
    </filter>
    <linearGradient
       inkscape:collect="always"
       xlink:href="#linearGradient1"
       id="linearGradient3"
       x1="1.5968418"
       y1="7.9994863"
       x2="14.403159"
       y2="7.9994863"
       gradientUnits="userSpaceOnUse" />
  </defs>
  <sodipodi:namedview
     id="namedview27"
     pagecolor="#ffffff"
     bordercolor="#666666"
     borderopacity="1.0"
     inkscape:showpageshadow="2"
     inkscape:pageopacity="0.0"
     inkscape:pagecheckerboard="0"
     inkscape:deskcolor="#d1d1d1"
     showgrid="false"
     inkscape:zoom="19.666667"
     inkscape:cx="2.2627118"
     inkscape:cy="6.5338982"
     inkscape:window-width="1920"
     inkscape:window-height="994"
     inkscape:window-x="0"
     inkscape:window-y="0"
     inkscape:window-maximized="1"
     inkscape:current-layer="svg25" />
  <linearGradient
     id="a"
     gradientUnits="userSpaceOnUse"
     x1="4"
     x2="4"
     y1="44"
     y2="4"
     gradientTransform="matrix(1.0499999,0,0,1.0499999,-41.235474,-52.345686)">
    <stop
       offset="0"
       stop-color="#be1111"
       id="stop2" />
    <stop
       offset="1"
       stop-color="#e74c3c"
       id="stop4" />
  </linearGradient>
  <linearGradient
     id="b"
     gradientUnits="userSpaceOnUse"
     x1="9"
     x2="64"
     y1="13"
     y2="68"
     gradientTransform="matrix(1.0499999,0,0,1.0499999,-41.235474,-52.345686)">
    <stop
       offset="0"
       stop-color="#fcfcfc"
       id="stop7" />
    <stop
       offset="1"
       stop-color="#e74c3c"
       id="stop9" />
  </linearGradient>
  <linearGradient
     id="c"
     gradientUnits="userSpaceOnUse"
     x1="20"
     x2="40"
     y1="24"
     y2="44"
     gradientTransform="matrix(1.0499999,0,0,1.0499999,-41.235474,-52.345686)">
    <stop
       offset="0"
       id="stop12" />
    <stop
       offset="1"
       stop-opacity="0"
       id="stop14" />
  </linearGradient>
  <path
     d="m 13.108679,9.2840253 v 1.9123257 h 1.912327 V 9.2840253 Z m 5.736981,0 v 1.9123257 h 1.912327 V 9.2840253 Z m -8.605471,0.9561627 v 1.912328 h 1.912326 v -1.912328 z m 11.473962,0 v 1.912328 h 1.912326 V 10.240188 Z M 7.371698,11.196351 v 1.912328 h 1.912326 v -1.912328 z m 8.605471,0 v 1.912328 h 1.912327 v -1.912328 z m 8.605473,0 v 1.912328 h 1.912326 v -1.912328 z m -11.473963,0.956165 v 1.912326 h 1.912327 v -1.912326 z m 5.736981,0 v 1.912326 h 1.912327 v -1.912326 z m -8.605471,0.956163 v 1.912328 h 1.912326 v -1.912328 z m 11.473962,0 v 1.912328 h 1.912326 V 13.108679 Z M 7.371698,14.064842 v 1.912326 h 1.912326 v -1.912326 z m 8.605471,0 v 1.912326 h 1.912327 v -1.912326 z m 8.605473,0 v 1.912326 h 1.912326 v -1.912326 z m -11.473963,0.956165 v 1.912326 h 1.912327 v -1.912326 z m 5.736981,0 v 1.912326 h 1.912327 v -1.912326 z m -8.605471,0.956161 v 1.912329 h 1.912326 v -1.912329 z m 11.473962,0 v 1.912329 h 1.912326 V 15.977168 Z M 7.371698,16.933333 v 1.912326 h 1.912326 v -1.912326 z m 8.605471,0 v 1.912326 h 1.912327 v -1.912326 z m 8.605473,0 v 1.912326 h 1.912326 v -1.912326 z m -11.473963,0.956164 v 1.912327 h 1.912327 v -1.912327 z m 5.736981,0 v 1.912327 h 1.912327 v -1.912327 z m -8.605471,0.956162 v 1.912329 h 1.912326 v -1.912329 z m 11.473962,0 v 1.912329 h 1.912326 v -1.912329 z m -5.736982,0.956165 v 1.912326 h 1.912327 v -1.912326 z m -2.86849,0.956164 v 1.912327 h 1.912327 v -1.912327 z m 5.736981,0 v 1.912327 h 1.912327 v -1.912327 z m -2.868491,1.912327 v 1.912326 h 1.912327 v -1.912326 z"
     id="path4-3"
     style="opacity:0.20938628;fill:#000000;stroke-width:0.478081;filter:url(#filter1719)"
     transform="matrix(0.74423031,0,0,0.73558463,-4.6023025,-4.4564132)" />
  <path
     d="M 5.4387406,2.9364727 V 4.2022171 H 6.719364 V 2.9364727 Z m 3.8418891,0 V 4.2022171 H 10.561263 V 2.9364727 Z M 3.5177848,3.5693444 V 4.8351018 H 4.7984181 V 3.5693444 Z m 7.6837942,0 V 4.8351018 H 12.48221 V 3.5693444 Z M 1.5968418,4.2022171 V 5.4679736 H 2.8774732 V 4.2022171 Z m 5.7628448,0 V 5.4679736 H 8.640318 V 4.2022171 Z m 5.7628394,0 v 1.2657565 h 1.280633 V 4.2022171 Z M 5.4387406,4.8351018 V 6.1008573 H 6.719364 V 4.8351018 Z m 3.8418891,0 V 6.1008573 H 10.561263 V 4.8351018 Z M 3.5177848,5.4679736 V 6.7337301 H 4.7984181 V 5.4679736 Z m 7.6837942,0 V 6.7337301 H 12.48221 V 5.4679736 Z M 1.5968418,6.1008573 V 7.3666117 H 2.8774732 V 6.1008573 Z m 5.7628448,0 V 7.3666117 H 8.640318 V 6.1008573 Z m 5.7628394,0 v 1.2657544 h 1.280633 V 6.1008573 Z M 5.4387406,6.7337301 V 7.9994865 H 6.719364 V 6.7337301 Z m 3.8418891,0 V 7.9994865 H 10.561263 V 6.7337301 Z M 3.5177848,7.3666117 V 8.6323592 H 4.7984181 V 7.3666117 Z m 7.6837942,0 V 8.6323592 H 12.48221 V 7.3666117 Z M 1.5968418,7.9994865 V 9.265241 H 2.8774732 V 7.9994865 Z m 5.7628448,0 V 9.265241 H 8.640318 V 7.9994865 Z m 5.7628394,0 V 9.265241 h 1.280633 V 7.9994865 Z M 5.4387406,8.6323592 V 9.8981167 H 6.719364 V 8.6323592 Z m 3.8418891,0 V 9.8981167 H 10.561263 V 8.6323592 Z M 3.5177848,9.265241 v 1.265757 H 4.7984181 V 9.265241 Z m 7.6837942,0 v 1.265757 H 12.48221 V 9.265241 Z M 7.3596866,9.8981167 V 11.16387 H 8.640318 V 9.8981167 Z m -1.920946,0.6328813 v 1.265757 H 6.719364 v -1.265757 z m 3.8418891,0 v 1.265757 H 10.561263 V 10.530998 Z M 7.3596866,11.796755 V 13.0625 H 8.640318 v -1.265745 z"
     id="path4"
     style="fill:url(#linearGradient3)" />
</svg>
