<?xml version="1.0" encoding="UTF-8" standalone="no"?>
<svg
   width="16"
   height="16"
   version="1.1"
   id="svg1"
   sodipodi:docname="blender.svg"
   inkscape:version="1.3 (0e150ed6c4, 2023-07-21)"
   xmlns:inkscape="http://www.inkscape.org/namespaces/inkscape"
   xmlns:sodipodi="http://sodipodi.sourceforge.net/DTD/sodipodi-0.dtd"
   xmlns:xlink="http://www.w3.org/1999/xlink"
   xmlns="http://www.w3.org/2000/svg"
   xmlns:svg="http://www.w3.org/2000/svg">
  <defs
     id="defs1">
    <linearGradient
       id="linearGradient6"
       inkscape:collect="always">
      <stop
         style="stop-color:#cb4242;stop-opacity:1;"
         offset="0"
         id="stop5" />
      <stop
         style="stop-color:#ffd42a;stop-opacity:1"
         offset="1"
         id="stop6" />
    </linearGradient>
    <linearGradient
       id="linearGradient2"
       inkscape:collect="always">
      <stop
         style="stop-color:#de8787;stop-opacity:1;"
         offset="0"
         id="stop2" />
      <stop
         style="stop-color:#ffd42a;stop-opacity:1"
         offset="1"
         id="stop3" />
    </linearGradient>
    <linearGradient
       inkscape:collect="always"
       xlink:href="#linearGradient2"
       id="linearGradient3"
       x1="8.2185757"
       y1="10.013006"
       x2="11.807961"
       y2="10.013006"
       gradientUnits="userSpaceOnUse" />
    <linearGradient
       inkscape:collect="always"
       xlink:href="#linearGradient6"
       id="linearGradient5"
       x1="2.1675355"
       y1="14.5"
       x2="14.5"
       y2="1.4999999"
       gradientUnits="userSpaceOnUse" />
  </defs>
  <sodipodi:namedview
     id="namedview1"
     pagecolor="#ffffff"
     bordercolor="#000000"
     borderopacity="0.25"
     inkscape:showpageshadow="2"
     inkscape:pageopacity="0.0"
     inkscape:pagecheckerboard="0"
     inkscape:deskcolor="#d1d1d1"
     inkscape:zoom="23.96875"
     inkscape:cx="8.1981747"
     inkscape:cy="11.410691"
     inkscape:window-width="1920"
     inkscape:window-height="994"
     inkscape:window-x="0"
     inkscape:window-y="0"
     inkscape:window-maximized="1"
     inkscape:current-layer="svg1" />
  <path
     d="m 7.4754634,1.4999999 c -0.2293791,0 -0.4586883,0.088844 -0.6344516,0.2646622 -0.3515265,0.3515378 -0.3515264,0.9173763 0,1.2689771 l 2.4922387,2.492382 H 2.834501 c -0.4971297,0 -0.8973461,0.4002389 -0.8973461,0.8973973 0,0.4971583 0.4002164,0.8973974 0.8973461,0.8973974 1.1448347,-0.0027 2.039567,-7.44e-4 3.5262902,0 L 1.7636446,11.916472 c -0.3515264,0.351549 -0.3515264,0.917372 0,1.268981 0.3515259,0.351549 0.9191654,0.351549 1.2706563,0 0.8229377,-0.827435 1.4768802,-1.478049 2.5413125,-2.54146 A 4.4867314,4.4869893 0 0 0 10.013271,14.5 4.4867314,4.4869893 0 0 0 14.5,10.013009 4.4867314,4.4869893 0 0 0 13.183779,6.8423214 l 0.0019,-0.0018 c 0,0 -3.4320341,-3.4233481 -5.0756129,-5.0759062 C 7.9343946,1.5888439 7.7048254,1.4999999 7.4754634,1.4999999 Z m 2.5378076,5.820816 a 2.6920386,2.6921934 0 0 1 2.692035,2.6921931 2.6920386,2.6921934 0 0 1 -2.692035,2.692193 2.6920386,2.6921934 0 0 1 -2.6920385,-2.692193 2.6920386,2.6921934 0 0 1 2.6920385,-2.6921931 z"
     id="path1"
     style="fill:url(#linearGradient5)" />
  <ellipse
     cx="10.013268"
     cy="10.013006"
     id="circle1"
     rx="1.7946928"
     ry="1.794796"
     style="fill:url(#linearGradient3)" />
</svg>
