<?xml version="1.0" encoding="UTF-8" standalone="no"?>
<svg
   style="isolation:isolate"
   width="16"
   height="16"
   viewBox="0 0 16 16"
   version="1.1"
   id="svg22"
   sodipodi:docname="bluegriffon.svg"
   inkscape:version="1.3 (0e150ed6c4, 2023-07-21)"
   xmlns:inkscape="http://www.inkscape.org/namespaces/inkscape"
   xmlns:sodipodi="http://sodipodi.sourceforge.net/DTD/sodipodi-0.dtd"
   xmlns:xlink="http://www.w3.org/1999/xlink"
   xmlns="http://www.w3.org/2000/svg"
   xmlns:svg="http://www.w3.org/2000/svg">
  <sodipodi:namedview
     id="namedview22"
     pagecolor="#ffffff"
     bordercolor="#000000"
     borderopacity="0.25"
     inkscape:showpageshadow="2"
     inkscape:pageopacity="0.0"
     inkscape:pagecheckerboard="0"
     inkscape:deskcolor="#d1d1d1"
     inkscape:zoom="23.96875"
     inkscape:cx="7.4263364"
     inkscape:cy="7.6558018"
     inkscape:window-width="1920"
     inkscape:window-height="994"
     inkscape:window-x="0"
     inkscape:window-y="0"
     inkscape:window-maximized="1"
     inkscape:current-layer="svg22" />
  <defs
     id="defs22">
    <linearGradient
       id="linearGradient22"
       inkscape:collect="always">
      <stop
         style="stop-color:#00ffcc;stop-opacity:1"
         offset="0"
         id="stop23" />
      <stop
         style="stop-color:#2a7fff;stop-opacity:1"
         offset="1"
         id="stop24" />
    </linearGradient>
    <style
       id="current-color-scheme"
       type="text/css">&#10;   .ColorScheme-Text { color:#d5c289; } .ColorScheme-Highlight { color:#5294e2; }&#10;  </style>
    <linearGradient
       id="arrongin"
       x1="0%"
       x2="0%"
       y1="0%"
       y2="100%">
      <stop
         offset="0%"
         style="stop-color:#dd9b44; stop-opacity:1"
         id="stop1" />
      <stop
         offset="100%"
         style="stop-color:#ad6c16; stop-opacity:1"
         id="stop2" />
    </linearGradient>
    <linearGradient
       id="aurora"
       x1="0%"
       x2="0%"
       y1="0%"
       y2="100%">
      <stop
         offset="0%"
         style="stop-color:#09D4DF; stop-opacity:1"
         id="stop3" />
      <stop
         offset="100%"
         style="stop-color:#9269F4; stop-opacity:1"
         id="stop4" />
    </linearGradient>
    <linearGradient
       id="fitdance"
       x1="0%"
       x2="0%"
       y1="0%"
       y2="100%">
      <stop
         offset="0%"
         style="stop-color:#1AD6AB; stop-opacity:1"
         id="stop5" />
      <stop
         offset="100%"
         style="stop-color:#329DB6; stop-opacity:1"
         id="stop6" />
    </linearGradient>
    <linearGradient
       id="oomox"
       x1="-0.00034326796"
       x2="-0.00034326796"
       y1="1.1739424"
       y2="16.043166"
       gradientTransform="matrix(1.008788,0,0,0.87425371,0.5003438,0.4736587)"
       gradientUnits="userSpaceOnUse">
      <stop
         offset="0%"
         style="stop-color:#303b3d; stop-opacity:1"
         id="stop7" />
      <stop
         offset="100%"
         style="stop-color:#bc985d; stop-opacity:1"
         id="stop8" />
    </linearGradient>
    <linearGradient
       id="rainblue"
       x1="0%"
       x2="0%"
       y1="0%"
       y2="100%">
      <stop
         offset="0%"
         style="stop-color:#00F260; stop-opacity:1"
         id="stop9" />
      <stop
         offset="100%"
         style="stop-color:#0575E6; stop-opacity:1"
         id="stop10" />
    </linearGradient>
    <linearGradient
       id="sunrise"
       x1="0%"
       x2="0%"
       y1="0%"
       y2="100%">
      <stop
         offset="0%"
         style="stop-color: #FF8501; stop-opacity:1"
         id="stop11" />
      <stop
         offset="100%"
         style="stop-color: #FFCB01; stop-opacity:1"
         id="stop12" />
    </linearGradient>
    <linearGradient
       id="telinkrin"
       x1="0%"
       x2="0%"
       y1="0%"
       y2="100%">
      <stop
         offset="0%"
         style="stop-color: #b2ced6; stop-opacity:1"
         id="stop13" />
      <stop
         offset="100%"
         style="stop-color: #6da5b7; stop-opacity:1"
         id="stop14" />
    </linearGradient>
    <linearGradient
       id="60spsycho"
       x1="0%"
       x2="0%"
       y1="0%"
       y2="100%">
      <stop
         offset="0%"
         style="stop-color: #df5940; stop-opacity:1"
         id="stop15" />
      <stop
         offset="25%"
         style="stop-color: #d8d15f; stop-opacity:1"
         id="stop16" />
      <stop
         offset="50%"
         style="stop-color: #e9882a; stop-opacity:1"
         id="stop17" />
      <stop
         offset="100%"
         style="stop-color: #279362; stop-opacity:1"
         id="stop18" />
    </linearGradient>
    <linearGradient
       id="90ssummer"
       x1="0%"
       x2="0%"
       y1="0%"
       y2="100%">
      <stop
         offset="0%"
         style="stop-color: #f618c7; stop-opacity:1"
         id="stop19" />
      <stop
         offset="20%"
         style="stop-color: #94ffab; stop-opacity:1"
         id="stop20" />
      <stop
         offset="50%"
         style="stop-color: #fbfd54; stop-opacity:1"
         id="stop21" />
      <stop
         offset="100%"
         style="stop-color: #0f83ae; stop-opacity:1"
         id="stop22" />
    </linearGradient>
    <linearGradient
       inkscape:collect="always"
       xlink:href="#linearGradient22"
       id="linearGradient24"
       x1="0.4999975"
       y1="14.500017"
       x2="10.861385"
       y2="4.7512617"
       gradientUnits="userSpaceOnUse" />
  </defs>
  <path
     class="ColorScheme-Text"
     fill-rule="evenodd"
     d="m 8.3442359,4.4633914 c -0.089061,9.408e-4 -0.1846835,0.00941 -0.2399948,0.018815 -0.3468675,0.059268 -0.6243614,0.1872099 -0.7677957,0.36219 -0.1134351,0.1364091 -0.1453095,0.3076261 -0.088123,0.4731987 0.00748,0.021637 0.013127,0.043276 0.0094,0.046096 -0.00374,0.00375 -0.3440551,0.040455 -0.7546712,0.083727 -0.3346803,0.035749 -0.5174888,0.061147 -0.6149866,0.07432 -0.013127,0.00192 -0.07781,0.00845 -0.083437,0.00943 -0.00374,9.408e-4 -0.055313,0.00467 -0.055313,0.00467 -9.375e-4,9.405e-4 0.00465,0.015051 0.00465,0.018814 0,0.00567 -9.375e-4,0.00845 0,0.00943 0.00374,0.030102 0.017809,0.095955 0.055313,0.2267214 0.065624,0.2323659 0.079686,0.2794036 0.069373,0.2794036 -0.00191,0 -0.036562,-0.024462 -0.074061,-0.051743 C 5.650857,5.907447 5.5111725,5.8538243 5.3602383,5.847239 5.1952419,5.8387858 5.0902441,5.884868 4.9721217,6.0005816 c -0.00283,0.00192 -0.00657,0.00192 -0.0094,0.00375 -0.059063,0.060207 -0.08156,0.087491 -0.1199973,0.1674539 -0.057184,0.1166534 -0.08531,0.2201362 -0.09281,0.3574862 -0.0094,0.1608687 0.026247,0.3640713 0.083436,0.4967175 l 0.018749,0.047039 h 0.07781 c 0.2053083,0 0.3665548,-0.2634106 0.537176,-0.3443153 0.1190599,-0.029164 0.3374926,-0.029164 0.4856144,0 0.5324937,0.1063059 0.93186,0.4694366 0.9112356,0.8316265 -0.00467,0.095956 -0.039373,0.1599284 -0.1246825,0.2455368 C 6.6680056,7.8783132 6.5751967,7.9413456 6.4158252,8.0288356 6.3595776,8.0598806 6.2658284,8.1125636 6.2067673,8.145489 6.1486432,8.177476 6.065208,8.228277 6.0220838,8.2564979 5.9377124,8.3129439 5.832713,8.4060774 5.832713,8.4286554 c 0,0.018814 0.052498,0.017873 0.2774939,-0.00467 0.096565,-0.010352 0.1753137,-0.025406 0.2587494,-0.037634 0.40406,-0.057397 0.6731167,-0.1364194 0.8840495,-0.2737695 0.1996831,-0.1307646 0.3506174,-0.338671 0.4068663,-0.5569255 0.0094,-0.03575 0.01781,-0.060209 0.023437,-0.060209 0.00565,0 0.042186,0.018814 0.07875,0.04139 C 7.9992407,7.685474 8.195174,7.739097 8.3582955,7.704289 8.5045423,7.673244 8.6461018,7.5848136 8.904846,7.3609143 8.973281,7.3007063 9.0323435,7.2489648 9.0389058,7.2489648 c 0.00565,0 0.060001,0.1185347 0.1199974,0.2596478 0.060934,0.1420537 0.1171851,0.2652922 0.1246848,0.2746998 0.014059,0.015994 0.025313,0.017871 0.2456198,-0.018814 0.1246841,-0.020697 0.2306193,-0.046097 0.2362441,-0.0508 C 9.7776421,7.7014625 9.7298306,7.5387124 9.686707,7.4352297 9.6163958,7.2677757 9.4945234,7.1163143 9.3482766,7.0212983 9.261091,6.9648532 9.1298438,6.9027637 8.9179734,6.8218589 8.6882908,6.7334281 8.5692311,6.676983 8.4604834,6.6036041 8.3526733,6.5311662 8.2486131,6.4352095 8.2617376,6.4229796 c 0.00468,-0.00469 0.042186,-0.018814 0.082499,-0.032927 C 8.6695418,6.2771632 8.8926621,6.0626714 9.038909,5.717415 9.0989078,5.5753615 9.1476565,5.3937961 9.2282799,5.0344286 9.2648423,4.8716784 9.3126521,4.6882314 9.330465,4.6261417 9.348275,4.5640517 9.360462,4.507607 9.357652,4.5010218 c 0,-9.409e-4 -0.01031,0.00375 -0.014059,0.00375 C 9.311717,4.5122918 9.1270348,4.5979078 8.6732946,4.8255695 8.3001747,5.0127902 7.9889314,5.1661329 7.9842442,5.1642514 7.9786218,5.1633105 8.0976793,5.0541832 8.2476759,4.9234186 8.3967353,4.7917132 8.5317323,4.6741191 8.5439195,4.66283 c 0.00748,-0.00659 0.00565,-0.014108 0.0094,-0.022577 0.00465,-0.014108 0.00841,-0.032928 0.00841,-0.07432 0,-0.078082 -0.00191,-0.082788 -0.027187,-0.093133 C 8.5139165,4.46436 8.4342322,4.462454 8.3451716,4.46337 h -9.35e-4 v 0 0 z M 11.680727,1.500961 c -0.104061,0.00751 -0.195933,0.059269 -0.277495,0.1580464 -0.09279,0.1110089 -0.138747,0.2615291 -0.125623,0.395116 0.02062,0.1966173 0.07782,0.3593675 0.314995,0.8306848 0.130307,0.2596476 0.172495,0.3631306 0.217495,0.571037 0.0628,0.2935148 0.08813,0.5512811 0.08813,0.8918337 -9.37e-4,0.3132706 -0.0197,0.5418735 -0.06934,0.8400923 -0.04407,0.2615293 -0.11906,0.5766815 -0.13406,0.571037 -0.02436,-0.00751 -0.05248,-0.2521219 -0.07408,-0.6077264 -0.02627,-0.4195757 -0.04689,-0.5879706 -0.08344,-0.7526022 -0.0975,-0.4402724 -0.313117,-0.6256007 -0.671235,-0.571037 -0.10031,0.015051 -0.262495,0.063973 -0.277494,0.083727 -0.0065,0.00751 0.03002,0.1354683 0.129371,0.4223979 0.07874,0.2248399 0.143434,0.4129905 0.143434,0.4176942 0,0.014108 -0.0572,0.033865 -0.06934,0.023519 -0.0065,-0.00567 -0.06279,-0.086551 -0.124685,-0.1768615 C 10.536063,4.4078871 10.469501,4.3147525 10.380441,4.2084475 10.139509,3.9205771 9.8788901,3.7841679 9.6079585,3.8001607 c -0.098436,0.00567 -0.2474947,0.037628 -0.2728066,0.060208 -0.017811,0.015051 -0.014059,0.040455 0.3234304,1.2718979 l 0.3468677,1.2577868 -0.07875,0.7704765 c -0.042186,0.4252197 -0.083437,0.7827058 -0.087188,0.7939948 -0.00748,0.020698 -0.0094,0.023519 -0.1481221,0.023519 -0.07875,0 -0.2371821,-0.00567 -0.3515547,-0.014108 C 9.0867194,7.9460587 8.770789,7.9432357 8.6639162,7.9592257 8.5542314,7.9752217 8.3957974,8.0147337 8.2476755,8.0655341 7.7845606,8.225462 7.3786319,8.5076879 7.0402016,8.9112709 6.7280211,9.2828682 6.4627143,9.7570076 6.202095,10.41083 c -0.07781,0.195677 -0.2465572,0.666052 -0.2859312,0.793996 -0.098436,0.315152 -0.1537469,0.65006 -0.162184,1.01225 -0.00841,0.322679 0.015938,0.58797 0.083436,0.857966 0.07781,0.317975 0.1949957,0.563512 0.3562421,0.771417 0.038436,0.04989 0.080622,0.09311 0.1246849,0.139232 0.00191,0.002 0.00283,0.003 0.00465,0.005 9.377e-4,9.42e-4 0.00283,0.003 0.00465,0.005 9.376e-4,9.41e-4 -9.373e-4,0.003 0,0.004 0.2071831,0.209788 0.4331156,0.331144 0.7209219,0.390412 0.2062457,0.0423 0.5653004,0.04889 0.5653004,0.0092 0,-0.0065 -0.062812,-0.192853 -0.1387471,-0.41299 -0.076873,-0.220135 -0.138747,-0.403582 -0.138747,-0.408286 0,-0.01035 0.038436,-0.03295 0.055313,-0.03295 0.00465,0 0.052499,0.06681 0.1059352,0.148639 0.2156205,0.328322 0.3815541,0.516473 0.5699879,0.645356 0.1115598,0.07617 0.2578065,0.13547 0.3740543,0.153343 0.072183,0.01126 0.2437447,0.01035 0.314993,-0.005 0.087186,-0.01883 0.1743714,-0.04797 0.1846836,-0.06024 L 8.3864158,13.511583 c 0.3637419,0.285048 0.8418567,0.559748 1.1793492,0.655706 0.423741,0.118533 0.822168,0.06024 1.124974,-0.168395 0.09562,-0.0715 0.19406,-0.169336 0.189372,-0.185329 -0.002,-0.0066 -0.354365,-0.156165 -0.781858,-0.333968 -0.4284278,-0.177801 -0.7799824,-0.328322 -0.7818575,-0.333967 -0.00565,-0.01694 0.3318678,0.002 0.6984225,0.04138 0.117184,0.01224 0.30843,0.03387 0.425616,0.04608 0.377803,0.04046 0.462178,0.04706 0.721861,0.04611 0.275618,0 0.396552,-0.01035 0.606547,-0.05548 0.326243,-0.06866 0.674985,-0.233307 0.961855,-0.449679 0.116248,-0.08844 0.173433,-0.142054 0.16687,-0.153343 -0.004,-0.006 -0.463114,-0.005 -1.350905,0 -0.914982,0.005 -1.331224,0.002 -1.346223,-0.005 -0.0029,0 -0.0083,9.42e-4 -0.0093,0 -0.0058,-0.0092 0.09094,-0.27752 0.105934,-0.292573 0.0048,-0.005 0.03842,0.0065 0.07407,0.0282 0.615924,0.366893 1.942458,0.272818 2.905249,-0.208848 0.276557,-0.13829 0.458429,-0.269055 0.638424,-0.45062 0.21656,-0.217314 0.343116,-0.455324 0.360929,-0.682045 0.006,-0.06775 0.003,-0.0696 -0.01405,-0.0696 -0.02062,0 -0.35624,0.09219 -0.536237,0.1477 -0.06659,0.02069 -0.236245,0.07526 -0.37968,0.120415 -0.932792,0.296338 -1.319971,0.376302 -1.827146,0.385709 -0.289681,0.006 -0.549363,-0.01126 -0.540928,-0.03671 0.0092,-0.0282 0.403118,-0.164633 0.6703,-0.232367 0.228745,-0.0574 0.348743,-0.08277 0.879354,-0.190032 0.784672,-0.158988 1.068728,-0.233307 1.415594,-0.371595 0.731237,-0.292576 1.1456,-0.7685962 1.276847,-1.462872 0.03375,-0.1796839 0.05438,-0.4967175 0.03285,-0.4967175 -0.005,0 -0.380617,0.2126102 -0.838107,0.4694357 -0.456555,0.2558848 -0.836232,0.4628503 -0.841857,0.4600281 -0.0122,-0.00844 -0.06659,-0.1288832 -0.06003,-0.1354685 0.003,-0.00192 0.06094,-0.034808 0.134061,-0.07432 0.350616,-0.1890913 0.616862,-0.388531 0.906542,-0.6773422 0.540926,-0.5409327 0.857795,-1.1655927 0.934667,-1.8344679 0.02062,-0.1796837 0.01405,-0.5080065 -0.01405,-0.6726381 -0.03284,-0.1956767 -0.109686,-0.4844879 -0.133123,-0.4920138 -0.006,-0.00192 -0.332803,0.471317 -0.722798,1.0489393 -0.819358,1.2164292 -0.86248,1.2785189 -0.869044,1.2719335 -0.01498,-0.014109 0.179999,-0.361249 0.509052,-0.9097079 0.141531,-0.2370359 0.294336,-0.4938613 0.337462,-0.571003 0.104968,-0.1890455 0.253089,-0.5023163 0.309339,-0.6500144 0.198746,-0.5183548 0.226869,-0.9586271 0.08813,-1.3791437 -0.04032,-0.121318 -0.136875,-0.3207577 -0.212811,-0.4364702 -0.075,-0.1138312 -0.187495,-0.2587071 -0.198744,-0.2549442 -0.006,0.00192 -0.230621,0.5343477 -0.499678,1.184408 l -0.490341,1.1788442 -0.679672,1.164652 c -0.680613,1.1674744 -0.71061,1.2239195 -0.717174,1.2163934 -0.006,-0.00567 0.05625,-0.1796837 0.119999,-0.3386709 0.159369,-0.396057 0.323429,-0.7112092 0.772482,-1.4854488 0.28687,-0.4938954 0.41624,-0.7253206 0.531552,-0.955805 0.361864,-0.7187351 0.536236,-1.2991794 0.579359,-1.9323063 0.0082,-0.1279423 0.0082,-0.1890913 0,-0.2728183 -0.04593,-0.4374501 -0.199683,-0.9821459 -0.361868,-1.2869497 -0.09374,-0.1768617 -0.215622,-0.3179747 -0.323429,-0.3706566 -0.04872,-0.024462 -0.06469,-0.028225 -0.143435,-0.028225 -0.08065,0 -0.09562,0.00284 -0.157498,0.031986 -0.150935,0.0715 -0.194058,0.182506 -0.194058,0.4694356 0,0.1533429 0.0122,0.2737591 0.06003,0.617134 l 0.03284,0.2417735 -0.005,0.273759 c -0.006,0.2718776 -0.0092,0.3593677 -0.0375,0.6133709 -0.06095,0.5578662 -0.211871,1.198519 -0.434992,1.8796241 -0.08439,0.2568256 -0.20812,0.6143117 -0.221245,0.635949 -0.03283,0.050801 0.0469,-0.3179745 0.208122,-0.9793236 0.263462,-1.0856288 0.326273,-1.4722783 0.337522,-2.0197965 0.0073,-0.3781826 -0.01777,-0.6397119 -0.0881,-0.9463971 C 12.827225,2.6731388 12.811275,2.6251606 12.74941,2.4990995 12.576019,2.1472579 12.27415,1.77472 12.027595,1.6129102 11.900097,1.5291832 11.784785,1.4934347 11.680727,1.500961 Z M 6.7345834,7.3279839 C 6.3520918,7.3759623 5.9733499,7.4672153 5.6096077,7.5951577 5.2318036,7.7334484 4.8549368,7.9168951 4.5755679,8.214173 4.5549432,8.2499216 4.4499457,8.3280042 4.4902572,8.34776 4.9008733,8.236751 5.4774233,8.0749417 5.8664774,7.9648736 5.9714749,7.9347695 6.0520983,7.9112506 6.1439713,7.8858504 6.3127176,7.8397534 6.4805264,7.7908343 6.6473979,7.7409744 L 6.7673952,7.7042854 C 6.804893,7.6600689 6.7833334,7.5274238 6.7889558,7.4502822 6.7767674,7.4098284 6.811454,7.3025838 6.7345816,7.3279843 Z m -4.098661,0.1580464 c -0.1106226,0.00659 -0.2531196,0.040453 -0.3431176,0.083727 -0.2549946,0.1213573 -0.404991,0.3424343 -0.4762397,0.6914534 -0.041248,0.2041435 -0.048747,0.3160932 -0.050625,0.8589074 -0.00191,0.2831668 -0.00565,0.5164733 -0.0094,0.5202365 -0.00374,0.00284 -0.016876,-0.00567 -0.032814,-0.023519 C 1.6665685,9.5500421 1.5925077,9.4296256 1.4884474,9.2217193 1.4500107,9.1455183 1.4190738,9.0947178 1.3862621,9.036391 1.3693874,9.0053462 1.345013,8.9479602 1.3356382,8.9347897 1.2793894,8.8482405 1.1753291,8.7400539 1.1040807,8.6930162 1.044082,8.6525642 0.95220898,8.6186962 0.89127281,8.6186962 c -0.17624618,0 -0.33280526,0.1627505 -0.37967923,0.3941756 -0.0449991,0.2238993 0.043124,0.4082868 0.22687005,0.4788431 0.0299996,0.011288 0.0768734,0.016936 0.16687138,0.017872 0.0684364,0.00192 0.13030969,0.00567 0.13405959,0.00943 0.00375,0.00467 0.01875,0.043276 0.032812,0.083726 0.040311,0.1204164 0.1396844,0.3170337 0.2906187,0.5710371 0.1603093,0.269056 0.2624945,0.464734 0.3056184,0.585151 0.046875,0.128884 0.2662443,0.979322 0.2962437,1.146777 0.026247,0.145815 0.032811,0.278463 0.018749,0.348078 -0.00657,0.03104 -0.034687,0.118535 -0.064684,0.190031 -0.083437,0.19944 -0.08906,0.274701 -0.032811,0.431806 0.1124975,0.313272 0.3112433,0.526822 0.5971746,0.645356 0.072183,0.03012 0.084371,0.03196 0.1012478,-0.0092 0.039376,-0.09219 0.08906,-0.292575 0.1068726,-0.430865 0.028127,-0.227662 0.00748,-0.389473 -0.1115601,-0.915353 -0.054374,-0.242714 -0.097499,-0.538109 -0.07781,-0.538109 0.00374,0 0.040314,0.02445 0.07781,0.05548 0.038436,0.03104 0.1649964,0.132645 0.2821813,0.222959 0.306556,0.234248 0.3449926,0.266235 0.6946726,0.612431 0.1321843,0.131705 0.2278075,0.220136 0.3093682,0.292574 0.164059,0.145815 0.2615569,0.208848 0.3984289,0.255885 0.073123,0.02538 0.1031226,0.03196 0.1659337,0.03196 0.1537467,0 0.2240575,-0.06399 0.2315575,-0.213551 C 4.6674475,12.779758 4.6355688,12.658402 4.551194,12.486244 4.4677572,12.317762 4.4021338,12.22933 4.2736991,12.105151 4.1237026,11.96119 3.9849557,11.859589 3.5377778,11.571718 3.157161,11.326182 2.9865399,11.200123 2.8393554,11.051484 2.6443597,10.854865 2.5618616,10.692116 2.5524867,10.480446 2.5449868,10.305467 2.588111,10.194457 2.7006086,10.080627 2.8159186,9.9649144 2.9424784,9.9000021 3.3155952,9.7701782 3.7093366,9.6328284 3.856521,9.546279 3.9221445,9.4126921 c 0.022498,-0.047039 0.022498,-0.061147 0.022498,-0.1392314 0,-0.075262 0,-0.095019 -0.017809,-0.1298238 C 3.8405839,8.9790052 3.5818396,8.8802261 3.1627861,8.8557665 l -0.1059353,-0.0047 -0.3562422,0.357486 C 2.5046753,9.4042255 2.3424912,9.5594495 2.3396788,9.5566273 2.3368588,9.5537973 2.4221778,9.0956585 2.5290498,8.5349697 2.63686,7.9742811 2.7277955,7.5095492 2.7277955,7.5001417 c 0,-0.015994 -0.00843,-0.019757 -0.091873,-0.014111 z m 2.484321,3.6670547 c -0.015938,0 -0.099372,0.0856 -0.1387468,0.143936 -0.1096853,0.161807 -0.1940583,0.401701 -0.2456197,0.697098 -0.017809,0.104422 -0.017809,0.153341 -0.018749,0.380062 0,0.28787 0.00657,0.352783 0.060934,0.515534 0.059063,0.179685 0.1584342,0.300101 0.277494,0.343374 0.018749,0.0072 0.052499,0.0141 0.07875,0.0141 0.1490594,0.002 0.2868688,-0.164634 0.3515549,-0.417696 0.054374,-0.21543 0.013127,-0.396055 -0.1856211,-0.817514 -0.127497,-0.269056 -0.160309,-0.375358 -0.1799961,-0.53811 -0.01031,-0.07901 -0.01031,-0.157104 0.00465,-0.273758 0.00374,-0.03295 0.00191,-0.04706 -0.00465,-0.04706 z"
     id="path22"
     style="fill:url(#linearGradient24)" />
</svg>
