<?xml version="1.0" encoding="UTF-8" standalone="no"?>
<svg
   width="16"
   height="16"
   version="1.1"
   viewBox="0 0 4.23 4.23"
   id="svg44"
   sodipodi:docname="bluefish.svg"
   inkscape:version="1.3 (0e150ed6c4, 2023-07-21)"
   xmlns:inkscape="http://www.inkscape.org/namespaces/inkscape"
   xmlns:sodipodi="http://sodipodi.sourceforge.net/DTD/sodipodi-0.dtd"
   xmlns:xlink="http://www.w3.org/1999/xlink"
   xmlns="http://www.w3.org/2000/svg"
   xmlns:svg="http://www.w3.org/2000/svg"><sodipodi:namedview
   id="namedview44"
   pagecolor="#ffffff"
   bordercolor="#000000"
   borderopacity="0.25"
   inkscape:showpageshadow="2"
   inkscape:pageopacity="0.0"
   inkscape:pagecheckerboard="0"
   inkscape:deskcolor="#d1d1d1"
   inkscape:zoom="23.96875"
   inkscape:cx="6.4250326"
   inkscape:cy="11.076923"
   inkscape:window-width="1920"
   inkscape:window-height="994"
   inkscape:window-x="0"
   inkscape:window-y="0"
   inkscape:window-maximized="1"
   inkscape:current-layer="svg44" />
<defs
   id="defs22">
  <linearGradient
     id="linearGradient45"
     inkscape:collect="always">
    <stop
       style="stop-color:#2ad4ff;stop-opacity:1"
       offset="0"
       id="stop45" />
    <stop
       style="stop-color:#0066ff;stop-opacity:1"
       offset="1"
       id="stop46" />
  </linearGradient>
  <style
     id="current-color-scheme"
     type="text/css">&#10;   .ColorScheme-Text { color:#d5c289; } .ColorScheme-Highlight { color:#5294e2; }&#10;  </style>
  <linearGradient
     id="arrongin"
     x1="0%"
     x2="0%"
     y1="0%"
     y2="100%">
    <stop
       offset="0%"
       style="stop-color:#dd9b44; stop-opacity:1"
       id="stop1" />
    <stop
       offset="100%"
       style="stop-color:#ad6c16; stop-opacity:1"
       id="stop2" />
  </linearGradient>
  <linearGradient
     id="aurora"
     x1="0%"
     x2="0%"
     y1="0%"
     y2="100%">
    <stop
       offset="0%"
       style="stop-color:#09D4DF; stop-opacity:1"
       id="stop3" />
    <stop
       offset="100%"
       style="stop-color:#9269F4; stop-opacity:1"
       id="stop4" />
  </linearGradient>
  <linearGradient
     id="fitdance"
     x1="0%"
     x2="0%"
     y1="0%"
     y2="100%">
    <stop
       offset="0%"
       style="stop-color:#1AD6AB; stop-opacity:1"
       id="stop5" />
    <stop
       offset="100%"
       style="stop-color:#329DB6; stop-opacity:1"
       id="stop6" />
  </linearGradient>
  <linearGradient
     id="oomox"
     x1="0"
     x2="0"
     y1="363.38475"
     y2="366.80633"
     gradientTransform="matrix(1.2362717,0,0,0.81128748,0,-1.3159388)"
     gradientUnits="userSpaceOnUse">
    <stop
       offset="0%"
       style="stop-color:#303b3d; stop-opacity:1"
       id="stop7" />
    <stop
       offset="100%"
       style="stop-color:#bc985d; stop-opacity:1"
       id="stop8" />
  </linearGradient>
  <linearGradient
     id="rainblue"
     x1="0%"
     x2="0%"
     y1="0%"
     y2="100%">
    <stop
       offset="0%"
       style="stop-color:#00F260; stop-opacity:1"
       id="stop9" />
    <stop
       offset="100%"
       style="stop-color:#0575E6; stop-opacity:1"
       id="stop10" />
  </linearGradient>
  <linearGradient
     id="sunrise"
     x1="0%"
     x2="0%"
     y1="0%"
     y2="100%">
    <stop
       offset="0%"
       style="stop-color: #FF8501; stop-opacity:1"
       id="stop11" />
    <stop
       offset="100%"
       style="stop-color: #FFCB01; stop-opacity:1"
       id="stop12" />
  </linearGradient>
  <linearGradient
     id="telinkrin"
     x1="0%"
     x2="0%"
     y1="0%"
     y2="100%">
    <stop
       offset="0%"
       style="stop-color: #b2ced6; stop-opacity:1"
       id="stop13" />
    <stop
       offset="100%"
       style="stop-color: #6da5b7; stop-opacity:1"
       id="stop14" />
  </linearGradient>
  <linearGradient
     id="60spsycho"
     x1="0%"
     x2="0%"
     y1="0%"
     y2="100%">
    <stop
       offset="0%"
       style="stop-color: #df5940; stop-opacity:1"
       id="stop15" />
    <stop
       offset="25%"
       style="stop-color: #d8d15f; stop-opacity:1"
       id="stop16" />
    <stop
       offset="50%"
       style="stop-color: #e9882a; stop-opacity:1"
       id="stop17" />
    <stop
       offset="100%"
       style="stop-color: #279362; stop-opacity:1"
       id="stop18" />
  </linearGradient>
  <linearGradient
     id="90ssummer"
     x1="0%"
     x2="0%"
     y1="0%"
     y2="100%">
    <stop
       offset="0%"
       style="stop-color: #f618c7; stop-opacity:1"
       id="stop19" />
    <stop
       offset="20%"
       style="stop-color: #94ffab; stop-opacity:1"
       id="stop20" />
    <stop
       offset="50%"
       style="stop-color: #fbfd54; stop-opacity:1"
       id="stop21" />
    <stop
       offset="100%"
       style="stop-color: #0f83ae; stop-opacity:1"
       id="stop22" />
  </linearGradient>
  <linearGradient
     inkscape:collect="always"
     xlink:href="#linearGradient45"
     id="linearGradient46"
     x1="0"
     y1="294.88165"
     x2="4.23"
     y2="294.88165"
     gradientUnits="userSpaceOnUse" />
</defs>
<defs
   id="defs44">
  <style
     id="style22"
     type="text/css">&#10;   .ColorScheme-Text { color:#d5c289; } .ColorScheme-Highlight { color:#5294e2; }&#10;  </style>
  <linearGradient
     id="linearGradient24"
     x1="0%"
     x2="0%"
     y1="0%"
     y2="100%">
    <stop
       offset="0%"
       style="stop-color:#dd9b44; stop-opacity:1"
       id="stop23" />
    <stop
       offset="100%"
       style="stop-color:#ad6c16; stop-opacity:1"
       id="stop24" />
  </linearGradient>
  <linearGradient
     id="linearGradient26"
     x1="0%"
     x2="0%"
     y1="0%"
     y2="100%">
    <stop
       offset="0%"
       style="stop-color:#09D4DF; stop-opacity:1"
       id="stop25" />
    <stop
       offset="100%"
       style="stop-color:#9269F4; stop-opacity:1"
       id="stop26" />
  </linearGradient>
  <linearGradient
     id="linearGradient28"
     x1="0%"
     x2="0%"
     y1="0%"
     y2="100%">
    <stop
       offset="0%"
       style="stop-color:#1AD6AB; stop-opacity:1"
       id="stop27" />
    <stop
       offset="100%"
       style="stop-color:#329DB6; stop-opacity:1"
       id="stop28" />
  </linearGradient>
  <linearGradient
     id="linearGradient30"
     x1="0%"
     x2="0%"
     y1="0%"
     y2="100%">
    <stop
       offset="0%"
       style="stop-color:#303b3d; stop-opacity:1"
       id="stop29" />
    <stop
       offset="100%"
       style="stop-color:#bc985d; stop-opacity:1"
       id="stop30" />
  </linearGradient>
  <linearGradient
     id="linearGradient32"
     x1="0%"
     x2="0%"
     y1="0%"
     y2="100%">
    <stop
       offset="0%"
       style="stop-color:#00F260; stop-opacity:1"
       id="stop31" />
    <stop
       offset="100%"
       style="stop-color:#0575E6; stop-opacity:1"
       id="stop32" />
  </linearGradient>
  <linearGradient
     id="linearGradient34"
     x1="0%"
     x2="0%"
     y1="0%"
     y2="100%">
    <stop
       offset="0%"
       style="stop-color: #FF8501; stop-opacity:1"
       id="stop33" />
    <stop
       offset="100%"
       style="stop-color: #FFCB01; stop-opacity:1"
       id="stop34" />
  </linearGradient>
  <linearGradient
     id="linearGradient36"
     x1="0%"
     x2="0%"
     y1="0%"
     y2="100%">
    <stop
       offset="0%"
       style="stop-color: #b2ced6; stop-opacity:1"
       id="stop35" />
    <stop
       offset="100%"
       style="stop-color: #6da5b7; stop-opacity:1"
       id="stop36" />
  </linearGradient>
  <linearGradient
     id="linearGradient40"
     x1="0%"
     x2="0%"
     y1="0%"
     y2="100%">
    <stop
       offset="0%"
       style="stop-color: #df5940; stop-opacity:1"
       id="stop37" />
    <stop
       offset="25%"
       style="stop-color: #d8d15f; stop-opacity:1"
       id="stop38" />
    <stop
       offset="50%"
       style="stop-color: #e9882a; stop-opacity:1"
       id="stop39" />
    <stop
       offset="100%"
       style="stop-color: #279362; stop-opacity:1"
       id="stop40" />
  </linearGradient>
  <linearGradient
     id="linearGradient44"
     x1="0%"
     x2="0%"
     y1="0%"
     y2="100%">
    <stop
       offset="0%"
       style="stop-color: #f618c7; stop-opacity:1"
       id="stop41" />
    <stop
       offset="20%"
       style="stop-color: #94ffab; stop-opacity:1"
       id="stop42" />
    <stop
       offset="50%"
       style="stop-color: #fbfd54; stop-opacity:1"
       id="stop43" />
    <stop
       offset="100%"
       style="stop-color: #0f83ae; stop-opacity:1"
       id="stop44" />
  </linearGradient>
</defs>
&gt;&#10; <g
   transform="translate(0,-292.76665)"
   id="g44">
  <path
     d="m 2.387454,296.26563 c 3.298e-4,-0.003 0.024801,-0.0855 0.054387,-0.18422 0.029587,-0.0986 0.049971,-0.18585 0.045314,-0.19365 -0.0047,-0.008 -0.043945,-0.0143 -0.087301,-0.0144 -0.043356,-2e-4 -0.1379577,-0.0129 -0.2102339,-0.0283 -0.3958132,-0.0842 -0.7977325,-0.29028 -1.1716908,-0.60068 -0.0761202,-0.0632 -0.14344137,-0.10607 -0.15145508,-0.0965 -0.007894,0.009 -0.0517494,0.0671 -0.0973735,0.12816 -0.16127434,0.21557 -0.40558547,0.37235 -0.63913106,0.41014 -0.06465922,0.0104 -0.11991283,0.0166 -0.12278557,0.0135 -0.00289773,-0.003 0.04042825,-0.099 0.09622443,-0.21334 0.23227558,-0.47584 0.22956671,-0.75507 -0.01205054,-1.24223 L 0,294.05993 h 0.05161946 c 0.08361434,0 0.26595114,0.0541 0.36507229,0.10827 0.12179835,0.0665 0.31776245,0.24873 0.39284748,0.36514 0.033134,0.0514 0.0644194,0.0934 0.0695154,0.0934 0.005096,0 0.0735023,-0.0499 0.15199467,-0.1108 0.2478064,-0.19238 0.5749235,-0.38972 0.8062168,-0.48635 0.0029,-10e-4 -0.0032,-0.0246 -0.013589,-0.0519 -0.028508,-0.0753 -0.1677503,-0.2178 -0.2704256,-0.2767 l -0.091478,-0.0525 0.091088,-0.0303 c 0.3373011,-0.11224 0.8623887,-0.15874 1.0972982,-0.0971 0.1996252,0.0523 0.3690502,0.15244 0.5317114,0.31422 0.088391,0.0879 0.1775926,0.15784 0.2256918,0.17694 0.2480382,0.0984 0.5260589,0.29067 0.6676287,0.46155 0.07666,0.0926 0.1548084,0.20072 0.1548084,0.21431 0,0.005 -0.080397,0.0664 -0.1786717,0.13758 -0.098273,0.0712 -0.1786727,0.13562 -0.1786727,0.1433 0,0.008 0.07617,0.0624 0.1692681,0.12174 0.093097,0.0594 0.1692691,0.11421 0.1692691,0.12204 0,0.056 -0.3354106,0.28683 -0.5898128,0.40592 -0.1671897,0.0784 -0.5010265,0.1984 -0.5512991,0.1984 -0.013729,0 -0.02496,0.007 -0.02496,0.0163 0,0.0377 -0.1597095,0.19406 -0.2682663,0.26268 -0.1261019,0.0797 -0.3927226,0.19597 -0.3894002,0.1698 z m 1.0757852,-1.47206 c 0.1313208,-0.094 0.1424811,-0.24336 0.027638,-0.37002 -0.047683,-0.0526 -0.069176,-0.0544 -0.056256,-0.005 0.016637,0.0639 -0.042746,0.13228 -0.1149217,0.13228 -0.072303,0 -0.1046308,-0.031 -0.1230863,-0.1182 l -0.01298,-0.0613 -0.057365,0.0607 c -0.095665,0.10127 -0.095655,0.21959 4.3e-5,0.32426 0.092208,0.10087 0.2269527,0.11567 0.3369334,0.0371 z"
     class="ColorScheme-Text"
     id="path44"
     style="fill:url(#linearGradient46)" />
</g>
</svg>
