<?xml version="1.0" encoding="UTF-8" standalone="no"?>
<svg
   height="16"
   width="16"
   version="1.1"
   id="svg6"
   sodipodi:docname="8-ball-pool.svg"
   inkscape:version="1.4 (e7c3feb100, 2024-10-09)"
   xmlns:inkscape="http://www.inkscape.org/namespaces/inkscape"
   xmlns:sodipodi="http://sodipodi.sourceforge.net/DTD/sodipodi-0.dtd"
   xmlns:xlink="http://www.w3.org/1999/xlink"
   xmlns="http://www.w3.org/2000/svg"
   xmlns:svg="http://www.w3.org/2000/svg"
   xmlns:rdf="http://www.w3.org/1999/02/22-rdf-syntax-ns#"
   xmlns:cc="http://creativecommons.org/ns#"
   xmlns:dc="http://purl.org/dc/elements/1.1/">
  <metadata
     id="metadata12">
    <rdf:RDF>
      <cc:Work
         rdf:about="">
        <dc:format>image/svg+xml</dc:format>
        <dc:type
           rdf:resource="http://purl.org/dc/dcmitype/StillImage" />
      </cc:Work>
    </rdf:RDF>
  </metadata>
  <defs
     id="defs10">
    <linearGradient
       id="linearGradient1"
       inkscape:collect="always">
      <stop
         style="stop-color:#a02c5a;stop-opacity:1"
         offset="0"
         id="stop1" />
      <stop
         style="stop-color:#ff4c4c;stop-opacity:1;"
         offset="1"
         id="stop2" />
    </linearGradient>
    <marker
       style="overflow:visible"
       id="DotL"
       refX="0"
       refY="0"
       orient="auto"
       inkscape:stockid="DotL"
       inkscape:isstock="true">
      <path
         transform="matrix(0.8,0,0,0.8,5.92,0.8)"
         style="fill:#000000;fill-opacity:1;fill-rule:evenodd;stroke:#000000;stroke-width:1pt;stroke-opacity:1"
         d="m -2.5,-1 c 0,2.76 -2.24,5 -5,5 -2.76,0 -5,-2.24 -5,-5 0,-2.76 2.24,-5 5,-5 2.76,0 5,2.24 5,5 z"
         id="path898" />
    </marker>
    <linearGradient
       inkscape:collect="always"
       xlink:href="#linearGradient1"
       id="linearGradient2"
       x1="4.1206579"
       y1="13.218794"
       x2="5.699604"
       y2="3.5335598"
       gradientUnits="userSpaceOnUse" />
  </defs>
  <sodipodi:namedview
     pagecolor="#ffffff"
     bordercolor="#666666"
     borderopacity="1"
     objecttolerance="10"
     gridtolerance="10"
     guidetolerance="10"
     inkscape:pageopacity="0"
     inkscape:pageshadow="2"
     inkscape:window-width="1920"
     inkscape:window-height="996"
     id="namedview8"
     showgrid="false"
     inkscape:zoom="63.999997"
     inkscape:cx="8.6093754"
     inkscape:cy="7.3125003"
     inkscape:window-x="0"
     inkscape:window-y="0"
     inkscape:window-maximized="1"
     inkscape:current-layer="svg6"
     inkscape:document-rotation="0"
     inkscape:pagecheckerboard="0"
     inkscape:showpageshadow="2"
     inkscape:deskcolor="#d1d1d1" />
  <path
     style="color:#d6dbf1;fill:url(#linearGradient2);fill-opacity:1;stroke-width:0.8125"
     class="ColorScheme-Text "
     d="M 7.9999995,1.500015 C 4.4054998,1.500015 1.5,4.4055149 1.5,8.0000139 c 0,3.5945001 2.9054998,6.5000011 6.4999995,6.5000011 3.5944975,0 6.4999965,-2.905501 6.4999965,-6.5000012 0,-3.5944989 -2.905499,-6.4999988 -6.4999965,-6.4999988 z m 0,0.8124999 c 3.1443765,0 5.6874965,2.543124 5.6874965,5.687499 0,3.1443761 -2.54312,5.6875011 -5.6874965,5.6875011 -3.1443734,0 -5.6874996,-2.543125 -5.6874996,-5.6875012 0,-3.1443749 2.5431262,-5.6874989 5.6874996,-5.6874989 z M 8.609375,6.9592017 v 0 0 0 0 0 c 0,0 -0.027613,0.0065 0,0 z M 7.9748065,10.615454 Z"
     id="path58-9"
     sodipodi:nodetypes="ssssssssssccccccccccccccccc" />
  <g
     id="g1"
     transform="matrix(0.90000004,0,0,0.90000004,1.023852,0.67500204)">
    <rect
       style="fill:#e62525;stroke-width:0.27778"
       width="4.7222228"
       height="1.9444442"
       x="5.1957197"
       y="3.1389031"
       id="rect3" />
    <rect
       style="fill:#cd2121;stroke-width:0.27778"
       width="1.6666667"
       height="1.9444442"
       x="5.1957197"
       y="5.0833478"
       id="rect4" />
    <rect
       style="fill:#cd2121;stroke-width:0.27778"
       width="1.6666667"
       height="1.9444442"
       x="9.08461"
       y="5.0833478"
       id="rect5" />
    <rect
       style="fill:#b31d1d;stroke-width:0.27778"
       width="4.7222228"
       height="1.9444442"
       x="5.1957197"
       y="7.0277929"
       id="rect6" />
    <rect
       style="fill:#9a1919;stroke-width:0.27778"
       width="1.6666667"
       height="1.9444442"
       x="5.1957197"
       y="8.9722376"
       id="rect7" />
    <rect
       style="fill:#9a1919;stroke-width:0.27778"
       width="1.6666667"
       height="1.9444442"
       x="9.08461"
       y="8.9722376"
       id="rect8" />
    <rect
       style="fill:#801414;stroke-width:0.27778"
       width="4.7222228"
       height="1.9444442"
       x="5.1957197"
       y="10.916681"
       id="rect9" />
    <rect
       style="opacity:0.2;stroke-width:0.27778"
       width="4.7222228"
       height="0.27777773"
       x="5.1957197"
       y="5.0833478"
       id="rect10" />
    <rect
       style="opacity:0.2;stroke-width:0.27778"
       width="1.6666667"
       height="0.27777773"
       x="5.1957197"
       y="7.0277929"
       id="rect11" />
    <rect
       style="opacity:0.2;stroke-width:0.27778"
       width="1.6666667"
       height="0.27777773"
       x="9.08461"
       y="7.0277929"
       id="rect12" />
    <rect
       style="opacity:0.2;stroke-width:0.27778"
       width="4.7222228"
       height="0.27777773"
       x="5.1957197"
       y="8.9722376"
       id="rect13" />
    <rect
       style="opacity:0.2;stroke-width:0.27778"
       width="1.6666667"
       height="0.27777773"
       x="5.1957197"
       y="10.916681"
       id="rect14" />
    <rect
       style="opacity:0.2;stroke-width:0.27778"
       width="1.6666667"
       height="0.27777773"
       x="9.08461"
       y="10.916681"
       id="rect15" />
    <rect
       style="opacity:0.2;stroke-width:0.27778"
       width="4.7222228"
       height="0.27777773"
       x="5.1957197"
       y="12.861125"
       id="rect16" />
  </g>
</svg>
