<?xml version="1.0" encoding="UTF-8" standalone="no"?>
<svg
   width="16"
   height="16"
   version="1"
   id="svg5"
   sodipodi:docname="btrfs-assistant.svg"
   inkscape:version="1.4 (e7c3feb100, 2024-10-09)"
   xmlns:inkscape="http://www.inkscape.org/namespaces/inkscape"
   xmlns:sodipodi="http://sodipodi.sourceforge.net/DTD/sodipodi-0.dtd"
   xmlns:xlink="http://www.w3.org/1999/xlink"
   xmlns="http://www.w3.org/2000/svg"
   xmlns:svg="http://www.w3.org/2000/svg">
  <defs
     id="defs5">
    <linearGradient
       id="linearGradient5"
       inkscape:collect="always">
      <stop
         style="stop-color:#ff9955;stop-opacity:1"
         offset="0"
         id="stop5" />
      <stop
         style="stop-color:#ffb380;stop-opacity:1"
         offset="1"
         id="stop6" />
    </linearGradient>
    <linearGradient
       inkscape:collect="always"
       xlink:href="#linearGradient5"
       id="linearGradient6"
       x1="2.8646383"
       y1="14.647758"
       x2="12.324442"
       y2="2.606741"
       gradientUnits="userSpaceOnUse" />
    <linearGradient
       inkscape:collect="always"
       xlink:href="#linearGradient5"
       id="linearGradient8"
       x1="6.979351"
       y1="10.484427"
       x2="10.28081"
       y2="6.7120762"
       gradientUnits="userSpaceOnUse" />
  </defs>
  <sodipodi:namedview
     id="namedview5"
     pagecolor="#ffffff"
     bordercolor="#000000"
     borderopacity="0.25"
     inkscape:showpageshadow="2"
     inkscape:pageopacity="0.0"
     inkscape:pagecheckerboard="0"
     inkscape:deskcolor="#d1d1d1"
     inkscape:zoom="33.14563"
     inkscape:cx="8.6587582"
     inkscape:cy="6.6675455"
     inkscape:window-width="1920"
     inkscape:window-height="996"
     inkscape:window-x="0"
     inkscape:window-y="0"
     inkscape:window-maximized="1"
     inkscape:current-layer="svg5" />
  <g
     id="g5"
     transform="matrix(1.0056426,0,0,1,-0.04468626,-0.87866685)">
    <circle
       style="fill:#4f4f4f;stroke-width:0.228074"
       cx="8.0000677"
       cy="8.7647438"
       r="4.5614834"
       id="circle1" />
    <path
       style="opacity:0.2;stroke-width:0.228074"
       d="m 2.9511894,8.2346993 c -0.037176,0.2488284 -0.059755,0.4990264 -0.059755,0.7583464 0,0.259321 0.022579,0.509518 0.059755,0.758347 l -1.05758,0.9280343 c -0.110844,0.09534 -0.1418621,0.271636 -0.069791,0.399129 l 1.2772154,2.215057 c 0.074124,0.125669 0.2413025,0.187249 0.3790593,0.139581 l 1.3269356,-0.449078 c 0.3989017,0.319304 0.8534535,0.579081 1.3369708,0.768382 l 0.2693559,1.366849 c 0.027369,0.143002 0.1637573,0.257495 0.3092686,0.25932 h 2.5542026 c 0.145739,-0.0018 0.2819,-0.116318 0.309269,-0.25932 l 0.269355,-1.366849 C 10.338969,13.563425 10.793748,13.30342 11.192422,12.984116 l 1.326936,0.449078 c 0.137756,0.04744 0.305163,-0.01414 0.379059,-0.139581 l 1.277215,-2.215057 c 0.07184,-0.127493 0.04105,-0.303794 -0.06979,-0.399129 l -1.05758,-0.9280343 c 0.03718,-0.248829 0.05976,-0.499026 0.05976,-0.758347 0,-0.259092 -0.02258,-0.509518 -0.05976,-0.7583464 l 1.05758,-0.9280339 c 0.110844,-0.095335 0.141862,-0.2716363 0.06979,-0.3991298 L 12.898417,4.6924792 c -0.0739,-0.1258969 -0.241303,-0.187477 -0.379059,-0.1398094 l -1.326936,0.449078 C 10.794205,4.6819878 10.339881,4.4222113 9.8563636,4.2331378 L 9.5867796,2.8660612 C 9.5594106,2.7230587 9.4230226,2.6085655 9.2775106,2.6067409 H 6.7233082 c -0.1279496,0 -0.2800751,0.096932 -0.3101809,0.2600045 L 6.1437717,4.233594 C 5.6602545,4.4226675 5.2054746,4.682672 4.8068009,5.0019759 L 3.4798653,4.5528978 C 3.3418805,4.5054584 3.1747021,4.5670384 3.100578,4.6927073 L 1.8233626,6.9077637 c -0.071843,0.1274935 -0.041053,0.3037948 0.069791,0.3991298 z M 8.0000676,5.343631 c 1.997245,0 3.6491874,1.6517132 3.6491874,3.6491867 0,1.9974743 -1.6517144,3.6491873 -3.6491874,3.6491873 -1.9974738,0 -3.649187,-1.651713 -3.649187,-3.6491873 0,-1.9974735 1.6519413,-3.6491867 3.649187,-3.6491867 z"
       id="path1" />
    <path
       style="fill:url(#linearGradient6);stroke-width:0.228074"
       d="m 2.9511894,8.0066251 c -0.037176,0.2488289 -0.059755,0.4990266 -0.059755,0.7583466 0,0.25932 0.022579,0.509518 0.059755,0.758347 l -1.05758,0.9280333 c -0.110844,0.09534 -0.1418621,0.271637 -0.069791,0.39913 l 1.2772154,2.215057 c 0.074124,0.125669 0.2413025,0.187249 0.3790593,0.139581 l 1.3269356,-0.449078 c 0.3989017,0.319304 0.8534535,0.57908 1.3369708,0.768382 l 0.2693556,1.366848 c 0.027369,0.143003 0.1637573,0.257496 0.3092686,0.259321 h 2.5542029 c 0.145739,-0.0018 0.2819,-0.116318 0.309269,-0.259321 l 0.269355,-1.366848 C 10.338969,13.33535 10.793748,13.075346 11.192422,12.756042 l 1.326936,0.449078 c 0.137756,0.04744 0.305163,-0.01414 0.379059,-0.139581 l 1.277215,-2.215057 c 0.07184,-0.127493 0.04105,-0.303795 -0.06979,-0.39913 l -1.05758,-0.9280333 c 0.03718,-0.248829 0.05976,-0.499027 0.05976,-0.758347 0,-0.259092 -0.02258,-0.5095177 -0.05976,-0.7583466 l 1.05758,-0.9280338 c 0.110844,-0.095335 0.141862,-0.2716364 0.06979,-0.3991298 L 12.898417,4.464405 C 12.824521,4.3385081 12.657114,4.2769281 12.519358,4.3245956 l -1.326936,0.449078 C 10.794205,4.4539136 10.339881,4.1941371 9.8563636,4.0050637 L 9.5867796,2.637987 C 9.5594106,2.4949845 9.4230226,2.3804913 9.2775106,2.3786667 H 6.7233082 c -0.1279496,0 -0.2800751,0.096931 -0.3101809,0.2600046 L 6.1437717,4.0055198 C 5.6602545,4.1945933 5.2054746,4.4545979 4.8068009,4.7739017 L 3.4798653,4.3248237 C 3.3418805,4.2773842 3.1747021,4.3389642 3.100578,4.4646331 L 1.8233626,6.6796895 C 1.7515196,6.807183 1.7823096,6.9834843 1.8931536,7.0788193 Z M 8.0000676,5.1155568 c 1.997245,0 3.6491874,1.6517132 3.6491874,3.6491869 0,1.9974743 -1.6517144,3.6491873 -3.6491874,3.6491873 -1.9974738,0 -3.649187,-1.651713 -3.649187,-3.6491873 0,-1.9974737 1.6519413,-3.6491869 3.649187,-3.6491869 z"
       id="path2" />
    <path
       style="opacity:0.2;stroke-width:0.228074"
       d="M 6.8596966,6.7120761 H 6.175474 c -0.4561483,0 -0.4561483,0.4561483 -0.4561483,0.4561483 v 0.9122967 c 0,0.1192828 0.1140371,0.2280742 0.1140371,0.2280742 0,0 -0.1140371,0.1370724 -0.1140371,0.2280744 v 0.912296 c 0,0 0,0.456149 0.4561483,0.456149 h 2.2807416 c 0,0 0.228074,0 0.228074,0.2280743 v 0.684223 c 0,0 0,0.456148 0.456149,0.456148 h 0.684222 c 0.4561494,0 0.4561494,-0.456148 0.4561494,-0.456148 V 9.9051147 c 0,-0.123388 -0.114037,-0.228074 -0.114037,-0.228074 0,0 0.114037,-0.110844 0.114037,-0.228075 v -0.912296 c 0,0 0,-0.4561486 -0.4561494,-0.4561486 h -0.684222 c -0.456149,0 -0.456149,0.4561486 -0.456149,0.4561486 v 0.684222 c 0,0 0,0.228074 -0.228074,0.228074 h -0.912297 c -0.228074,0 -0.228074,-0.228074 -0.228074,-0.228074 v -0.684222 c 0,-0.119511 -0.114037,-0.2280744 -0.114037,-0.2280744 0,0 0.114037,-0.1069668 0.114037,-0.2280742 V 7.1682244 c 0,0 0,-0.4561483 -0.456148,-0.4561483 z M 6.4035482,7.1682244 h 0.2280742 c 0.2280742,0 0.2280742,0.2280742 0.2280742,0.2280742 v 0.4561483 c 0,0 0,0.2280742 -0.2280742,0.2280742 H 6.4035482 C 6.175474,8.0805211 6.175474,7.8524469 6.175474,7.8524469 V 7.3962986 c 0,0 0,-0.2280742 0.2280742,-0.2280742 z m 2.9649644,1.3684453 h 0.228074 c 0.228074,0 0.228074,0.228074 0.228074,0.228074 v 0.456148 c 0,0 0,0.228074 -0.228074,0.228074 h -0.228074 c -0.228074,0 -0.228074,-0.228074 -0.228074,-0.228074 v -0.456148 c 0,0 0,-0.228074 0.228074,-0.228074 z m -2.7368902,0 c 0,0 0.2280742,0 0.2280742,0.228074 v 0.456148 c 0,0 0,0.228074 -0.2280742,0.228074 H 6.4035482 c -0.2280742,0 -0.2280742,-0.228074 -0.2280742,-0.228074 v -0.456148 c 0,-0.228074 0.2280742,-0.228074 0.2280742,-0.228074 z m 3.1930382,1.5965193 v 0.456148 c 0,0 0,0.228075 -0.228074,0.228075 h -0.228074 c -0.228074,0 -0.228074,-0.228075 -0.228074,-0.228075 v -0.456148 c 0,0 0,-0.2280743 0.228074,-0.2280743 h 0.228074 c 0.228074,0 0.228074,0.2280743 0.228074,0.2280743 z"
       id="path3" />
    <path
       style="fill:url(#linearGradient8);stroke-width:0.228074"
       d="M 6.8596966,6.4840019 H 6.175474 c -0.4561483,0 -0.4561483,0.4561483 -0.4561483,0.4561483 v 0.9122967 c 0,0.1192828 0.1140371,0.2280742 0.1140371,0.2280742 0,0 -0.1140371,0.1370726 -0.1140371,0.2280742 v 0.9122964 c 0,0 0,0.456149 0.4561483,0.456149 h 2.2807416 c 0,0 0.228074,0 0.228074,0.228074 v 0.6842223 c 0,0 0,0.456149 0.456149,0.456149 h 0.684222 c 0.4561494,0 0.4561494,-0.456149 0.4561494,-0.456149 V 9.6770407 c 0,-0.123388 -0.114037,-0.228075 -0.114037,-0.228075 0,0 0.114037,-0.110844 0.114037,-0.228074 V 8.3085953 c 0,0 0,-0.4561484 -0.4561494,-0.4561484 h -0.684222 c -0.456149,0 -0.456149,0.4561484 -0.456149,0.4561484 v 0.6842224 c 0,0 0,0.228074 -0.228074,0.228074 h -0.912297 c -0.228074,0 -0.228074,-0.228074 -0.228074,-0.228074 V 8.3085953 c 0,-0.1195109 -0.114037,-0.2280742 -0.114037,-0.2280742 0,0 0.114037,-0.1069668 0.114037,-0.2280742 V 6.9401502 c 0,0 0,-0.4561483 -0.456148,-0.4561483 z M 6.4035482,6.9401502 h 0.2280742 c 0.2280742,0 0.2280742,0.2280742 0.2280742,0.2280742 v 0.4561484 c 0,0 0,0.2280741 -0.2280742,0.2280741 H 6.4035482 C 6.175474,7.8524469 6.175474,7.6243728 6.175474,7.6243728 V 7.1682244 c 0,0 0,-0.2280742 0.2280742,-0.2280742 z m 2.9649644,1.3684451 h 0.228074 c 0.228074,0 0.228074,0.2280744 0.228074,0.2280744 v 0.456148 c 0,0 0,0.228074 -0.228074,0.228074 h -0.228074 c -0.228074,0 -0.228074,-0.228074 -0.228074,-0.228074 v -0.456148 c 0,0 0,-0.2280744 0.228074,-0.2280744 z m -2.7368902,0 c 0,0 0.2280742,0 0.2280742,0.2280744 v 0.456148 c 0,0 0,0.228074 -0.2280742,0.228074 H 6.4035482 c -0.2280742,0 -0.2280742,-0.228074 -0.2280742,-0.228074 v -0.456148 c 0,-0.2280744 0.2280742,-0.2280744 0.2280742,-0.2280744 z m 3.1930382,1.5965194 v 0.4561483 c 0,0 0,0.228074 -0.228074,0.228074 h -0.228074 c -0.228074,0 -0.228074,-0.228074 -0.228074,-0.228074 V 9.9051147 c 0,0 0,-0.228074 0.228074,-0.228074 h 0.228074 c 0.228074,0 0.228074,0.228074 0.228074,0.228074 z"
       id="path4" />
    <path
       style="opacity:0.2;fill:#ffffff;stroke-width:0.228074"
       d="M 6.4133554,2.6388993 6.1437717,4.0055198 C 5.6602545,4.1945933 5.2059307,4.4545979 4.807029,4.7739017 L 3.4800934,4.3248237 C 3.3421085,4.2773842 3.1749302,4.3391923 3.1010341,4.4646331 L 1.8238187,6.6794615 c -0.046071,0.081651 -0.046071,0.181547 -0.013684,0.2691275 0.00502,-0.013456 0.00661,-0.027825 0.013684,-0.040597 L 3.1010341,4.6927073 C 3.1749302,4.5672665 3.3421085,4.5054584 3.4800934,4.5528978 L 4.807029,5.0019759 C 5.2059307,4.682672 5.6602545,4.4231236 6.1437717,4.2340501 L 6.4133554,2.8669735 C 6.4379874,2.733094 6.5572702,2.622478 6.6927463,2.6076532 l 4.561e-4,-4.562e-4 c 0.00981,-2.28e-4 0.019843,-2.28e-4 0.02965,0 h 2.5544302 c 0.145512,0.00205 0.281672,0.1160898 0.309041,0.2593204 l 0.269583,1.3670766 c 0.4835184,0.1890735 0.9380704,0.44885 1.3371994,0.7683819 l 1.326936,-0.4490781 c 0.137757,-0.047439 0.305163,0.014141 0.379059,0.1398095 l 1.277216,2.2152845 c 0.0071,0.012544 0.0087,0.026913 0.01391,0.040141 0.03193,-0.087352 0.03193,-0.1872489 -0.01391,-0.2686713 L 12.899101,4.4646331 C 12.825205,4.3389642 12.657799,4.2773842 12.520042,4.3248237 l -1.326936,0.449078 C 10.793977,4.4543698 10.339425,4.1941371 9.8559066,4.0050637 L 9.5863236,2.6384432 C 9.5589546,2.4954407 9.4227946,2.3807194 9.2772826,2.3786667 H 6.7228521 C 6.5527087,2.3934915 6.4411804,2.4981776 6.4133554,2.6388993 Z M 2.9267855,8.2137164 c -0.020755,0.1810913 -0.03558,0.3637783 -0.03558,0.5514833 0,0.03854 0.00388,0.07572 0.00479,0.114037 0.0057,-0.218495 0.023492,-0.432428 0.055194,-0.6440813 z m 10.1461085,4.562e-4 -0.02395,0.020983 c 0.0317,0.2116531 0.04904,0.4255861 0.05474,0.6440811 9.12e-4,-0.03832 0.0048,-0.07549 0.0048,-0.114037 0,-0.187477 -0.01483,-0.369936 -0.03558,-0.5510269 z M 8.0000676,12.642005 c 1.95642,0 3.6491874,-1.596519 3.6491874,-3.6491873 v -0.228074 c 0,1.9454733 -1.59652,3.6491873 -3.6491874,3.6491873 -2.0526677,0 -3.649187,-1.688661 -3.649187,-3.6491873 v 0.228074 c 0,2.0526683 1.6927666,3.6491873 3.649187,3.6491873 z m 6.1062304,-1.96235 c 0.04014,0.03467 0.06568,0.08119 0.08393,0.130686 0.04676,-0.122476 0.01619,-0.273005 -0.08393,-0.358989 L 13.072894,9.5443007 c -0.0078,0.06911 -0.01368,0.138442 -0.02395,0.207092 z M 2.9267855,9.5447577 1.8938375,10.451352 c -0.099896,0.08598 -0.1304584,0.236057 -0.083703,0.358533 0.018018,-0.04926 0.04379,-0.09579 0.083703,-0.13023 l 1.05758,-0.9282623 c -0.010263,-0.06842 -0.016649,-0.137757 -0.024404,-0.206635 z"
       id="path5" />
  </g>
</svg>
