<?xml version="1.0" encoding="UTF-8" standalone="no"?>
<svg
   width="16"
   height="16"
   version="1.1"
   viewBox="0 0 16 16"
   id="svg2728"
   sodipodi:docname="buho.svg"
   inkscape:version="1.3 (0e150ed6c4, 2023-07-21)"
   xmlns:inkscape="http://www.inkscape.org/namespaces/inkscape"
   xmlns:sodipodi="http://sodipodi.sourceforge.net/DTD/sodipodi-0.dtd"
   xmlns:xlink="http://www.w3.org/1999/xlink"
   xmlns="http://www.w3.org/2000/svg"
   xmlns:svg="http://www.w3.org/2000/svg"
   xmlns:rdf="http://www.w3.org/1999/02/22-rdf-syntax-ns#"
   xmlns:cc="http://creativecommons.org/ns#"
   xmlns:dc="http://purl.org/dc/elements/1.1/">
  <sodipodi:namedview
     id="namedview2730"
     pagecolor="#ffffff"
     bordercolor="#666666"
     borderopacity="1.0"
     inkscape:showpageshadow="2"
     inkscape:pageopacity="0.0"
     inkscape:pagecheckerboard="0"
     inkscape:deskcolor="#d1d1d1"
     showgrid="false"
     inkscape:zoom="4.9166667"
     inkscape:cx="1.6271186"
     inkscape:cy="24.508474"
     inkscape:window-width="1920"
     inkscape:window-height="994"
     inkscape:window-x="0"
     inkscape:window-y="0"
     inkscape:window-maximized="1"
     inkscape:current-layer="svg2728" />
  <defs
     id="defs2696">
    <linearGradient
       id="linearGradient12600"
       x1="23.999912"
       x2="23.999912"
       y1="43"
       y2="4"
       gradientTransform="matrix(1.0499951,0,0,1.0499997,-76.454034,-30.45036)"
       gradientUnits="userSpaceOnUse">
      <stop
         stop-color="#bdc3c7"
         offset="0"
         id="stop2656" />
      <stop
         stop-color="#eef0f1"
         offset="1"
         id="stop2658" />
    </linearGradient>
    <linearGradient
       id="linearGradient5997"
       x1="2.0200317"
       x2="10.285627"
       y1="2.0179646"
       y2="9.5188484"
       gradientUnits="userSpaceOnUse">
      <stop
         stop-color="#4d4d4d"
         offset="0"
         id="stop2661" />
      <stop
         stop-color="#44484e"
         stop-opacity="0"
         offset="1"
         id="stop2663" />
    </linearGradient>
    <linearGradient
       id="linearGradient6014"
       x1="24"
       x2="24"
       y1="40"
       y2="-3"
       gradientUnits="userSpaceOnUse"
       gradientTransform="matrix(0.82727224,0,0,0.82727216,-70.695144,-24.376273)">
      <stop
         stop-color="#f39c1f"
         offset="0"
         id="stop2666" />
      <stop
         stop-color="#ebedee"
         offset="1"
         id="stop2668" />
    </linearGradient>
    <linearGradient
       id="linearGradient6022"
       x1="24"
       x2="24"
       y1="29"
       y2="-19.999998"
       gradientUnits="userSpaceOnUse"
       gradientTransform="matrix(0.82727224,0,0,0.82727216,-70.695144,-24.376273)">
      <stop
         stop-color="#da4453"
         offset="0"
         id="stop2671" />
      <stop
         stop-color="#edeff0"
         offset="1"
         id="stop2673" />
    </linearGradient>
    <linearGradient
       id="linearGradient6051"
       x1="24"
       x2="24"
       y1="20.000002"
       y2="-19.999998"
       gradientUnits="userSpaceOnUse"
       gradientTransform="matrix(0.82727224,0,0,0.82727216,-70.695144,-24.376273)">
      <stop
         stop-color="#1d99f3"
         offset="0"
         id="stop2676" />
      <stop
         stop-color="#edeff0"
         offset="1"
         id="stop2678" />
    </linearGradient>
    <linearGradient
       id="linearGradient6087"
       x1="6.3499999"
       x2="6.3499999"
       y1="8.7312498"
       y2="9.260417"
       gradientUnits="userSpaceOnUse"
       gradientTransform="matrix(3.1266987,0,0,3.1266985,-70.695144,-24.376273)">
      <stop
         stop-color="#f67400"
         offset="0"
         id="stop2681" />
      <stop
         stop-color="#f67400"
         stop-opacity="0"
         offset="1"
         id="stop2683" />
    </linearGradient>
    <linearGradient
       id="linearGradient6095"
       x1="6.3499999"
       x2="6.3499999"
       y1="6.8791666"
       y2="7.6729169"
       gradientUnits="userSpaceOnUse"
       gradientTransform="matrix(3.1266987,0,0,3.1266985,-70.695144,-24.376273)">
      <stop
         stop-color="#c0392b"
         offset="0"
         id="stop2686" />
      <stop
         stop-color="#c0392b"
         offset="1"
         id="stop2688" />
    </linearGradient>
    <linearGradient
       id="linearGradient6103"
       x1="24"
       x2="24"
       y1="40"
       y2="-3"
       gradientTransform="matrix(-0.82727224,0,0,0.82727216,-30.986063,-24.376273)"
       gradientUnits="userSpaceOnUse">
      <stop
         stop-color="#1d1d1d"
         offset="0"
         id="stop2691" />
      <stop
         stop-color="#44484e"
         stop-opacity="0"
         offset="1"
         id="stop2693" />
    </linearGradient>
    <linearGradient
       inkscape:collect="always"
       xlink:href="#linearGradient6103"
       id="linearGradient782"
       gradientUnits="userSpaceOnUse"
       gradientTransform="matrix(-0.38235285,0,0,0.3939391,17.176473,-1.2575732)"
       x1="24"
       y1="40"
       x2="24"
       y2="-3" />
    <linearGradient
       inkscape:collect="always"
       xlink:href="#linearGradient6014"
       id="linearGradient784"
       gradientUnits="userSpaceOnUse"
       gradientTransform="matrix(0.38235285,0,0,0.3939391,-1.1764653,-1.2575732)"
       x1="24"
       y1="40"
       x2="24"
       y2="-3" />
    <linearGradient
       inkscape:collect="always"
       xlink:href="#linearGradient6087"
       id="linearGradient786"
       gradientUnits="userSpaceOnUse"
       gradientTransform="matrix(1.4451135,0,0,1.4889042,-1.1764653,-1.2575732)"
       x1="6.3499999"
       y1="8.7312498"
       x2="6.3499999"
       y2="9.260417" />
    <linearGradient
       inkscape:collect="always"
       xlink:href="#linearGradient6022"
       id="linearGradient788"
       gradientUnits="userSpaceOnUse"
       gradientTransform="matrix(0.38235285,0,0,0.3939391,-1.1764653,-1.2575732)"
       x1="24"
       y1="29"
       x2="24"
       y2="-19.999998" />
    <linearGradient
       inkscape:collect="always"
       xlink:href="#linearGradient6095"
       id="linearGradient790"
       gradientUnits="userSpaceOnUse"
       gradientTransform="matrix(1.4451135,0,0,1.4889042,-1.1764653,-1.2575732)"
       x1="6.3499999"
       y1="6.8791666"
       x2="6.3499999"
       y2="7.6729169" />
    <linearGradient
       inkscape:collect="always"
       xlink:href="#linearGradient6051"
       id="linearGradient792"
       gradientUnits="userSpaceOnUse"
       gradientTransform="matrix(0.38235285,0,0,0.3939391,-1.1764653,-1.2575732)"
       x1="24"
       y1="20.000002"
       x2="24"
       y2="-19.999998" />
  </defs>
  <metadata
     id="metadata2698">
    <rdf:RDF>
      <cc:Work
         rdf:about="">
        <dc:format>image/svg+xml</dc:format>
        <dc:type
           rdf:resource="http://purl.org/dc/dcmitype/StillImage" />
      </cc:Work>
    </rdf:RDF>
  </metadata>
  <path
     d="m 13.352937,1.4999999 c 0.635488,0 1.147063,0.5270959 1.147063,1.1818229 V 13.318177 C 14.5,13.97289 13.988425,14.5 13.352937,14.5 H 4.55882 L 1.5,11.348486 l 10e-7,-8.6666632 c 0,-0.654727 0.5115925,-1.1818229 1.147062,-1.1818229 z"
     fill="url(#linearGradient6103)"
     opacity="0.1"
     style="fill:url(#linearGradient782);stroke-width:1.46681;paint-order:normal"
     id="path2708-0" />
  <path
     d="M 2.647063,1.4999999 C 2.0115935,1.4999999 1.5,2.0270958 1.5,2.6818228 V 13.318177 C 1.5,13.97289 2.0115935,14.5 2.647063,14.5 h 9.176462 L 14.5,11.74242 l -9e-6,-9.0605972 c 0,-0.654727 -0.511566,-1.1818229 -1.147054,-1.1818229 z"
     fill="url(#linearGradient6014)"
     style="fill:url(#linearGradient784);stroke-width:0.388084;paint-order:normal"
     id="path2710-6" />
  <path
     d="M 2.647063,1.8939328 C 2.0115935,1.8939328 1.5,2.4210348 1.5,3.0757518 v 7.8787822 c 0,0.654739 0.5115935,1.181819 1.147063,1.181819 h 9.176462 L 14.5,9.3787848 v -6.303033 c 0,-0.654717 -0.511575,-1.181819 -1.147069,-1.181819 z"
     fill="url(#linearGradient6087)"
     opacity="0.4"
     style="fill:url(#linearGradient786);stroke-width:1.46681;paint-order:normal"
     id="path2712-2" />
  <path
     d="M 11.823525,14.5 14.5,11.742421 13.005025,11.715631 c -0.635383,-0.01153 -1.132981,0.527258 -1.14706,1.181822 z"
     fill="#f67400"
     style="stroke-width:1.46681;paint-order:normal"
     id="path2714-6" />
  <path
     d="M 2.647063,1.4999999 C 2.0115935,1.4999999 1.5,2.0270958 1.5,2.6818228 v 7.8787802 c 0,0.654714 0.5115935,1.181816 1.147063,1.181816 l 9.176462,10e-7 2.676466,-2.7575732 v -6.303024 c 0,-0.654727 -0.511573,-1.1818229 -1.14706,-1.1818229 z"
     fill="url(#linearGradient6022)"
     style="fill:url(#linearGradient788);stroke-width:0.388084;paint-order:normal"
     id="path2716-1" />
  <path
     d="M 2.647063,1.8939328 C 2.0115935,1.8939328 1.5,4.7846698 1.5,5.4393928 l 10e-7,2.757568 c 0,0.654723 0.5115925,1.181824 1.147062,1.181824 h 9.176462 L 14.5,6.6212128 v -1.18182 c 0,-0.654723 -0.511575,-3.54546 -1.147063,-3.54546 z"
     fill="url(#linearGradient6095)"
     opacity="0.6"
     style="fill:url(#linearGradient790);stroke-width:1.46681;paint-order:normal"
     id="path2718-8" />
  <path
     d="M 2.647063,1.4999999 C 2.0115935,1.4999999 1.5,2.0270958 1.5,2.6818228 l 10e-7,5.121205 c 0,0.654724 0.5115925,1.181819 1.147062,1.181819 h 9.176462 C 11.684096,9.1284988 13.48038,7.2777648 14.5,6.2272798 l -9e-6,-3.545457 c 0,-0.654727 -0.511566,-1.1818229 -1.147054,-1.1818229 z"
     fill="url(#linearGradient6051)"
     style="fill:url(#linearGradient792);stroke-width:0.388084;paint-order:normal"
     id="path2720-7" />
  <path
     d="m 11.806313,8.9982158 2.693678,-2.770936 -1.520167,-0.01333 c -0.635445,-0.0046 -1.162585,0.527283 -1.147059,1.181818 -0.0052,0.661014 -0.02648,1.602513 -0.02648,1.602513 z"
     fill="#2980b9"
     style="stroke-width:1.46681;paint-order:normal"
     id="path2722-9" />
  <path
     d="m 11.823525,11.742419 2.676466,-2.7575722 -1.494966,-0.0268 c -0.635383,-0.01153 -1.132981,0.527243 -1.147061,1.1818162 z"
     fill="#c0392b"
     style="stroke-width:1.46681;paint-order:normal"
     id="path2724-2" />
  <path
     d="M 2.647063,1.4999999 C 2.0115935,1.4999999 1.5,2.0270958 1.5,2.6818228 h 12.999991 c 0,-0.654727 -0.511566,-1.1818229 -1.147054,-1.1818229 z"
     fill="#3498db"
     opacity="0.6"
     style="stroke-width:0.388084;paint-order:normal"
     id="path2726-0" />
</svg>
