<?xml version="1.0" encoding="UTF-8" standalone="no"?>
<svg
   style="isolation:isolate"
   width="16"
   height="16"
   viewBox="0 0 16 16"
   version="1.1"
   id="svg22"
   sodipodi:docname="cadence.svg"
   inkscape:version="1.3 (0e150ed6c4, 2023-07-21)"
   xmlns:inkscape="http://www.inkscape.org/namespaces/inkscape"
   xmlns:sodipodi="http://sodipodi.sourceforge.net/DTD/sodipodi-0.dtd"
   xmlns:xlink="http://www.w3.org/1999/xlink"
   xmlns="http://www.w3.org/2000/svg"
   xmlns:svg="http://www.w3.org/2000/svg">
  <sodipodi:namedview
     id="namedview22"
     pagecolor="#ffffff"
     bordercolor="#000000"
     borderopacity="0.25"
     inkscape:showpageshadow="2"
     inkscape:pageopacity="0.0"
     inkscape:pagecheckerboard="0"
     inkscape:deskcolor="#d1d1d1"
     inkscape:zoom="23.96875"
     inkscape:cx="5.5906128"
     inkscape:cy="11.827901"
     inkscape:window-width="1920"
     inkscape:window-height="994"
     inkscape:window-x="0"
     inkscape:window-y="0"
     inkscape:window-maximized="1"
     inkscape:current-layer="svg22" />
  <defs
     id="defs22">
    <linearGradient
       id="linearGradient22"
       inkscape:collect="always">
      <stop
         style="stop-color:#ffd42a;stop-opacity:1"
         offset="0"
         id="stop23" />
      <stop
         style="stop-color:#ff0066;stop-opacity:1"
         offset="1"
         id="stop24" />
    </linearGradient>
    <style
       id="current-color-scheme"
       type="text/css">&#10;   .ColorScheme-Text { color:#d5c289; } .ColorScheme-Highlight { color:#5294e2; }&#10;  </style>
    <linearGradient
       id="arrongin"
       x1="0%"
       x2="0%"
       y1="0%"
       y2="100%">
      <stop
         offset="0%"
         style="stop-color:#dd9b44; stop-opacity:1"
         id="stop1" />
      <stop
         offset="100%"
         style="stop-color:#ad6c16; stop-opacity:1"
         id="stop2" />
    </linearGradient>
    <linearGradient
       id="aurora"
       x1="0%"
       x2="0%"
       y1="0%"
       y2="100%">
      <stop
         offset="0%"
         style="stop-color:#09D4DF; stop-opacity:1"
         id="stop3" />
      <stop
         offset="100%"
         style="stop-color:#9269F4; stop-opacity:1"
         id="stop4" />
    </linearGradient>
    <linearGradient
       id="fitdance"
       x1="0%"
       x2="0%"
       y1="0%"
       y2="100%">
      <stop
         offset="0%"
         style="stop-color:#1AD6AB; stop-opacity:1"
         id="stop5" />
      <stop
         offset="100%"
         style="stop-color:#329DB6; stop-opacity:1"
         id="stop6" />
    </linearGradient>
    <linearGradient
       id="oomox"
       x1="-0.00015174405"
       x2="-0.00015174405"
       y1="0.84328517"
       y2="16.022321"
       gradientTransform="matrix(0.95526488,0,0,0.85644358,0.75014749,0.77777367)"
       gradientUnits="userSpaceOnUse">
      <stop
         offset="0%"
         style="stop-color:#303b3d; stop-opacity:1"
         id="stop7" />
      <stop
         offset="100%"
         style="stop-color:#bc985d; stop-opacity:1"
         id="stop8" />
    </linearGradient>
    <linearGradient
       id="rainblue"
       x1="0%"
       x2="0%"
       y1="0%"
       y2="100%">
      <stop
         offset="0%"
         style="stop-color:#00F260; stop-opacity:1"
         id="stop9" />
      <stop
         offset="100%"
         style="stop-color:#0575E6; stop-opacity:1"
         id="stop10" />
    </linearGradient>
    <linearGradient
       id="sunrise"
       x1="0%"
       x2="0%"
       y1="0%"
       y2="100%">
      <stop
         offset="0%"
         style="stop-color: #FF8501; stop-opacity:1"
         id="stop11" />
      <stop
         offset="100%"
         style="stop-color: #FFCB01; stop-opacity:1"
         id="stop12" />
    </linearGradient>
    <linearGradient
       id="telinkrin"
       x1="0%"
       x2="0%"
       y1="0%"
       y2="100%">
      <stop
         offset="0%"
         style="stop-color: #b2ced6; stop-opacity:1"
         id="stop13" />
      <stop
         offset="100%"
         style="stop-color: #6da5b7; stop-opacity:1"
         id="stop14" />
    </linearGradient>
    <linearGradient
       id="60spsycho"
       x1="0%"
       x2="0%"
       y1="0%"
       y2="100%">
      <stop
         offset="0%"
         style="stop-color: #df5940; stop-opacity:1"
         id="stop15" />
      <stop
         offset="25%"
         style="stop-color: #d8d15f; stop-opacity:1"
         id="stop16" />
      <stop
         offset="50%"
         style="stop-color: #e9882a; stop-opacity:1"
         id="stop17" />
      <stop
         offset="100%"
         style="stop-color: #279362; stop-opacity:1"
         id="stop18" />
    </linearGradient>
    <linearGradient
       id="90ssummer"
       x1="0%"
       x2="0%"
       y1="0%"
       y2="100%">
      <stop
         offset="0%"
         style="stop-color: #f618c7; stop-opacity:1"
         id="stop19" />
      <stop
         offset="20%"
         style="stop-color: #94ffab; stop-opacity:1"
         id="stop20" />
      <stop
         offset="50%"
         style="stop-color: #fbfd54; stop-opacity:1"
         id="stop21" />
      <stop
         offset="100%"
         style="stop-color: #0f83ae; stop-opacity:1"
         id="stop22" />
    </linearGradient>
    <linearGradient
       inkscape:collect="always"
       xlink:href="#linearGradient22"
       id="linearGradient24"
       x1="0.75000018"
       y1="1.4999998"
       x2="15.25"
       y2="14.499997"
       gradientUnits="userSpaceOnUse" />
  </defs>
  <path
     class="ColorScheme-Text"
     d="M 8.0000019,1.4999998 C 7.2713913,1.511736 6.4739074,1.6841675 6.1857259,2.0010442 5.8785131,2.3386849 5.8123582,2.8126459 5.8984502,3.3380654 c 0.1640279,1.0011861 1.2197883,2.2298732 2.031772,3.3339764 -0.00546,0.00717 -0.010878,0.01625 -0.016312,0.022566 C 7.5042932,7.2091978 6.827338,7.7996176 6.4285959,8.1986475 6.4929386,7.9070487 6.5400625,7.5901718 6.5509371,7.3879486 6.5600026,7.2146142 6.5545652,7.0800997 6.5010944,6.9699602 6.4739074,6.9148904 6.4267834,6.8616262 6.3606285,6.8399595 6.2953802,6.819195 6.2265063,6.8336368 6.1685074,6.8616261 6.0506972,6.9166953 5.9392307,7.0286407 5.7969522,7.2073918 5.6555801,7.3861431 5.4897397,7.6849642 5.2930874,8.0135769 5.0973414,8.3421898 4.9577817,8.6058023 4.8680646,8.815248 4.8218474,8.9226792 4.7874099,9.0165685 4.7665666,9.0987216 4.7457232,9.1754585 4.7357538,9.2449727 4.7393806,9.3072646 4.8517533,9.4598347 5.033906,9.4372652 5.1816219,9.447196 5.2450578,9.4462933 5.3112128,9.4354591 5.3855238,9.390321 5.5586132,9.284695 5.7706717,9.1176803 5.9972295,8.9226792 5.835014,9.4616403 5.8730757,9.621433 5.6157058,10.225394 c -0.00359,0.0088 -0.00905,0.01716 -0.012691,0.02528 -1.3611581,-0.186874 -2.7812237,-0.06771 -3.7418293,0.265422 -0.5038651,0.175138 -0.89082606,0.564239 -1.04216678,0.994864 -0.15134071,0.429725 -0.0579988,1.19348 0.32171228,1.871469 0.3797112,0.677991 0.7983903,0.98945 1.2442566,1.086048 0.4467721,0.09661 0.8926382,-0.02978 1.3058801,-0.36653 0.7875154,-0.641879 1.4998135,-2.348137 2.0517087,-3.603005 0.00905,0.002 0.018123,0.002 0.027192,0.0039 0.6506744,0.0966 1.2750683,0.63556 1.8206197,0.780908 -0.2854631,0.0903 -0.5392078,0.183264 -0.7204542,0.27535 -0.1549657,0.07858 -0.2682448,0.151665 -0.3371184,0.251874 -0.034435,0.05054 -0.057089,0.118267 -0.042598,0.185074 0.014501,0.06772 0.059815,0.118263 0.1132792,0.155274 0.1069351,0.07402 0.2600884,0.116461 0.4857401,0.149865 0.226558,0.0325 0.5247084,0.0524 0.9080444,0.05781 9.062e-4,0 0.00186,0 0.00273,0 9.06e-4,0 0.00186,0 0.00273,0 0.3833363,-0.006 0.6814865,-0.0253 0.9080443,-0.05781 0.225652,-0.03336 0.3788052,-0.07588 0.4857404,-0.149865 0.053464,-0.03705 0.098778,-0.08762 0.1132791,-0.155274 C 9.524306,11.929201 9.501615,11.861545 9.467209,11.810987 9.3983265,11.71066 9.2850458,11.637535 9.1300803,11.558995 8.948834,11.466929 8.695089,11.373923 8.4096259,11.283645 c 0.5455517,-0.145348 1.1699455,-0.684309 1.8206201,-0.780907 0.0089,-0.002 0.01812,-0.002 0.02718,-0.0039 0.551894,1.254871 1.264193,2.96113 2.051708,3.603005 0.413243,0.33674 0.859107,0.463132 1.30588,0.366533 0.445867,-0.09661 0.864543,-0.40806 1.244258,-1.08605 0.37971,-0.677988 0.473049,-1.441742 0.321709,-1.871467 -0.151339,-0.4306 -0.538304,-0.819698 -1.042167,-0.994839 -0.960606,-0.333125 -2.380673,-0.452295 -3.741833,-0.265418 -0.0038,-0.0079 -0.0088,-0.01627 -0.01267,-0.02529 -0.25738,-0.6039326 -0.220224,-0.7637253 -0.381534,-1.3026864 0.226559,0.195001 0.438616,0.3620157 0.611707,0.4676415 0.07343,0.045142 0.139558,0.055969 0.203901,0.056877 0.14681,-0.00994 0.329869,0.012642 0.441336,-0.1399316 0.004,-0.062294 -0.0066,-0.1318064 -0.0263,-0.2085429 C 11.211679,9.0165626 11.177245,8.9226722 11.131028,8.8152411 11.041317,8.6058023 10.902663,8.3421898 10.706009,8.0135769 10.510265,7.6849642 10.344423,7.3861431 10.202146,7.207392 10.060772,7.028641 9.9484005,6.916696 9.8314967,6.8616262 9.7725913,6.8336399 9.7046243,6.8191951 9.6384691,6.8399596 9.5732207,6.8616238 9.5251901,6.9148931 9.4989095,6.9699603 9.4454447,7.0800998 9.4400017,7.2146143 9.4490677,7.3879487 9.4599448,7.5901719 9.5061615,7.9070488 9.5705029,8.1986476 9.1717598,7.7996176 8.4957109,7.2091978 8.086094,6.6946115 8.0806566,6.6882888 8.0752191,6.6792646 8.0697819,6.6720417 8.8817656,5.5679386 9.9375261,4.3392515 10.101554,3.3380654 10.187646,2.8126459 10.12149,2.3386849 9.8142782,2.0010442 9.5260967,1.6841675 8.7286126,1.511736 8.0000019,1.4999998 Z"
     id="path22"
     style="fill:url(#linearGradient24)" />
</svg>
