<?xml version="1.0" encoding="UTF-8" standalone="no"?>
<svg
   width="16"
   height="16"
   version="1.1"
   id="svg3539"
   sodipodi:docname="calibre-tray.svg"
   inkscape:version="1.3.2 (091e20ef0f, 2023-11-25)"
   xmlns:inkscape="http://www.inkscape.org/namespaces/inkscape"
   xmlns:sodipodi="http://sodipodi.sourceforge.net/DTD/sodipodi-0.dtd"
   xmlns:xlink="http://www.w3.org/1999/xlink"
   xmlns="http://www.w3.org/2000/svg"
   xmlns:svg="http://www.w3.org/2000/svg">
  <sodipodi:namedview
     id="namedview3541"
     pagecolor="#ffffff"
     bordercolor="#666666"
     borderopacity="1.0"
     inkscape:showpageshadow="2"
     inkscape:pageopacity="0.0"
     inkscape:pagecheckerboard="0"
     inkscape:deskcolor="#d1d1d1"
     showgrid="false"
     inkscape:zoom="13.906433"
     inkscape:cx="15.676198"
     inkscape:cy="6.0763245"
     inkscape:window-width="1920"
     inkscape:window-height="994"
     inkscape:window-x="0"
     inkscape:window-y="0"
     inkscape:window-maximized="1"
     inkscape:current-layer="svg3539" />
  <defs
     id="defs3519">
    <linearGradient
       id="linearGradient1"
       inkscape:collect="always">
      <stop
         style="stop-color:#ff7f2a;stop-opacity:1"
         offset="0"
         id="stop1" />
      <stop
         style="stop-color:#ffcc00;stop-opacity:1"
         offset="1"
         id="stop2" />
    </linearGradient>
    <linearGradient
       id="linearGradient4191">
      <stop
         style="stop-color:#ffa92d;stop-opacity:1"
         offset="0"
         id="stop3490" />
      <stop
         style="stop-color:#ffdaa5;stop-opacity:1"
         offset="1"
         id="stop3492" />
    </linearGradient>
    <linearGradient
       id="0">
      <stop
         offset="0"
         stop-color="#ffffff"
         id="stop3495" />
      <stop
         offset="1"
         stop-color="#ffffff"
         stop-opacity="0"
         id="stop3497" />
    </linearGradient>
    <linearGradient
       xlink:href="#2"
       id="1"
       y1="543.79797"
       x2="0"
       y2="503.798"
       gradientUnits="userSpaceOnUse"
       gradientTransform="matrix(1.3125029,0,0,1.0500004,-403.64087,-546.63213)" />
    <linearGradient
       id="2">
      <stop
         stop-color="#426467"
         id="stop3501" />
      <stop
         offset="1"
         stop-color="#525b58"
         id="stop3503" />
    </linearGradient>
    <linearGradient
       xlink:href="#0"
       id="5"
       y1="527.79797"
       x2="0"
       y2="504.798"
       gradientUnits="userSpaceOnUse"
       gradientTransform="matrix(1,0,0,1.0047847,-278.96126,-523.8526)" />
    <linearGradient
       id="6"
       y1="-0.88300002"
       x1="-41.259998"
       y2="37.956001"
       x2="-2.994"
       gradientUnits="userSpaceOnUse"
       gradientTransform="translate(-1.01,-1.022)">
      <stop
         stop-color="#21c9fb"
         id="stop3507" />
      <stop
         offset="1"
         stop-color="#1a86f2"
         id="stop3509" />
    </linearGradient>
    <linearGradient
       xlink:href="#6"
       id="7"
       x1="45"
       y1="36"
       x2="14"
       y2="12"
       gradientUnits="userSpaceOnUse"
       gradientTransform="matrix(1,0,0,1.0047847,105.61017,-21.663207)" />
    <linearGradient
       xlink:href="#linearGradient4191"
       id="linearGradient4197"
       x1="13.813"
       y1="20.941999"
       x2="13.813"
       y2="4.1020002"
       gradientUnits="userSpaceOnUse"
       gradientTransform="matrix(1,0,0,1.0047847,103.61017,-21.663207)" />
    <linearGradient
       id="b"
       y1="4"
       x1="8"
       y2="18"
       gradientUnits="userSpaceOnUse"
       x2="22"
       gradientTransform="matrix(1,0,0,1.0047847,105.61017,-21.663207)">
      <stop
         stop-color="#292c2f"
         id="stop3514" />
      <stop
         offset="1"
         stop-opacity="0"
         id="stop3516" />
    </linearGradient>
    <linearGradient
       id="linearGradient4717">
      <stop
         style="stop-color:#12375a;stop-opacity:1"
         offset="0"
         id="stop7-3" />
      <stop
         style="stop-color:#537596;stop-opacity:1"
         offset="1"
         id="stop9-6" />
    </linearGradient>
    <linearGradient
       id="linearGradient927"
       x1="22.676001"
       x2="23.372999"
       y1="47.124001"
       y2="5.5176001"
       gradientTransform="matrix(0.31633,0,0,0.31633,-30.168695,-10.86469)"
       gradientUnits="userSpaceOnUse">
      <stop
         stop-color="#ff9913"
         offset="0"
         id="stop360" />
      <stop
         stop-color="#faee18"
         offset="1"
         id="stop362" />
    </linearGradient>
    <linearGradient
       id="linearGradient935"
       x1="24.677"
       x2="24.989"
       y1="45.613998"
       y2="25.618999"
       gradientTransform="matrix(0.31633,0,0,0.31633,-30.168795,-10.86469)"
       gradientUnits="userSpaceOnUse">
      <stop
         stop-color="#fade17"
         offset="0"
         id="stop365" />
      <stop
         stop-color="#fade17"
         stop-opacity="0"
         offset="1"
         id="stop367" />
    </linearGradient>
    <linearGradient
       xlink:href="#2"
       id="1-3"
       y1="543.79797"
       x2="0"
       y2="503.798"
       gradientUnits="userSpaceOnUse"
       gradientTransform="matrix(1.3125029,0,0,1.0500004,-508.25104,-521.98806)" />
    <linearGradient
       xlink:href="#0"
       id="5-5"
       y1="527.79797"
       x2="0"
       y2="504.798"
       gradientUnits="userSpaceOnUse"
       gradientTransform="matrix(1,0,0,1.0047847,-383.57143,-499.20853)" />
    <linearGradient
       inkscape:collect="always"
       xlink:href="#linearGradient1"
       id="linearGradient2"
       x1="0.49999976"
       y1="1.499993"
       x2="13.917998"
       y2="14.500007"
       gradientUnits="userSpaceOnUse"
       gradientTransform="matrix(0.89999999,0,0,1,0.80000014,0)" />
  </defs>
  <path
     d="m 14.013866,12.127412 -4.7851472,2.118955 c -0.3814268,0.162862 -0.7949781,0.25364 -1.2286045,0.25364 -0.4372626,0 -0.854521,-0.09172 -1.2379192,-0.257461 L 1.9887278,12.129097 C 1.5512517,11.885489 1.2499999,11.39257 1.2499999,10.820612 V 5.180087 4.198783 c 0,-0.27114 0.2019378,-0.490524 0.4500049,-0.490524 0.2487315,0 0.4501893,0.219384 0.4501893,0.490524 v 0.398803 0.582501 5.57179 c 0,0.176993 0.088753,0.32838 0.2179745,0.414589 l 4.5946447,2.119242 c 0.01009,0.0046 0.018642,0.0064 0.028842,0.01101 0.3098031,0.142989 0.6508132,0.221997 1.0085348,0.221997 0.3554096,0 0.6942336,-0.07808 1.0027033,-0.21936 0.01012,-0.0052 0.018841,-0.0065 0.029006,-0.01144 l 4.5996846,-2.121384 c 0.129208,-0.0862 0.218419,-0.237598 0.218419,-0.414584 V 7.141986 6.559485 6.160689 c 0,-0.270647 0.20171,-0.490034 0.449993,-0.490034 0.248745,0 0.450004,0.219387 0.450004,0.490034 v 0.981271 3.678688 c 2.8e-5,0.571038 -0.300122,1.062059 -0.736055,1.306834 z m 0.286081,-7.437856 c -0.248282,0 -0.450003,-0.220123 -0.450003,-0.490773 0,-0.27114 0.201721,-0.490524 0.450003,-0.490524 0.248733,0 0.449993,0.219384 0.449993,0.490524 0,0.27065 -0.20126,0.490773 -0.449993,0.490773 z m -2.177008,6.016792 -2.122553,0.964051 v -0.0014 c -0.057583,0.02825 -0.121276,0.044 -0.1881015,0.044 -0.2548672,0 -0.4622937,-0.225394 -0.4622937,-0.503709 0,-0.21556 0.1243721,-0.397608 0.2988346,-0.470174 L 11.810893,9.707778 c 0.14018,-0.08243 0.23906,-0.241434 0.23906,-0.428504 V 2.856748 c 0,-0.135322 -0.100616,-0.245264 -0.224998,-0.245264 -0.03254,0 -0.06377,0.0073 -0.09227,0.02135 V 2.63234 L 8.6895129,4.084278 C 8.5480107,4.166698 8.4504451,4.325704 8.4504451,4.512049 v 5.817301 0.981055 c 0,0.541786 -0.4033091,0.981302 -0.900329,0.981302 -0.1245912,0 -0.2425793,-0.02758 -0.3506892,-0.0776 L 3.8745853,10.703987 C 3.3896572,10.480032 3.0501904,9.957647 3.0501904,9.348835 V 2.481266 c 0,-0.54179 0.4031957,-0.981273 0.899995,-0.981273 0.1225969,0 0.2386108,0.02702 0.345628,0.07592 l 2.0651775,0.937715 c 0.1696251,0.07761 0.2891593,0.26059 0.2891593,0.473507 0,0.283843 -0.2109429,0.513737 -0.4708689,0.513737 -0.078655,0 -0.1518177,-0.02316 -0.2168703,-0.06013 L 4.2676869,2.632377 c -0.00128,0 0,4.88e-4 -0.00128,4.88e-4 -0.028071,-0.01362 -0.058915,-0.02132 -0.091627,-0.02132 -0.1248217,0 -0.2252275,0.109941 -0.2252275,0.245266 v 6.422585 c 0,0.187072 0.09844,0.34609 0.2392896,0.428498 l 3.043392,1.451449 c 4.505e-4,0 0,-4.91e-4 4.505e-4,-4.91e-4 0.027714,0.01365 0.059104,0.02136 0.091855,0.02136 0.1241438,0 0.2250011,-0.109447 0.2250011,-0.245273 V 4.688921 4.443411 c 0,-0.609819 0.3401436,-1.133372 0.8256043,-1.35613 L 11.70352,1.575932 c 0.107212,-0.04877 0.223257,-0.07592 0.345856,-0.07592 0.497017,0 0.90044,0.439477 0.90044,0.981266 v 6.86758 c -1.9e-5,0.609791 -0.341934,1.133374 -0.827519,1.356838 z"
     id="path2"
     style="fill:url(#linearGradient2);stroke-width:0.948685" />
</svg>
