<?xml version="1.0" encoding="UTF-8" standalone="no"?>
<svg
   width="16"
   height="16"
   version="1.1"
   id="svg65"
   sodipodi:docname="author.svg"
   inkscape:version="1.3 (0e150ed6c4, 2023-07-21)"
   xmlns:inkscape="http://www.inkscape.org/namespaces/inkscape"
   xmlns:sodipodi="http://sodipodi.sourceforge.net/DTD/sodipodi-0.dtd"
   xmlns:xlink="http://www.w3.org/1999/xlink"
   xmlns="http://www.w3.org/2000/svg"
   xmlns:svg="http://www.w3.org/2000/svg">
  <sodipodi:namedview
     id="namedview67"
     pagecolor="#ffffff"
     bordercolor="#666666"
     borderopacity="1.0"
     inkscape:showpageshadow="2"
     inkscape:pageopacity="0.0"
     inkscape:pagecheckerboard="0"
     inkscape:deskcolor="#d1d1d1"
     showgrid="true"
     inkscape:zoom="19.666667"
     inkscape:cx="6.0762712"
     inkscape:cy="9.7372881"
     inkscape:window-width="1920"
     inkscape:window-height="994"
     inkscape:window-x="0"
     inkscape:window-y="0"
     inkscape:window-maximized="1"
     inkscape:current-layer="svg65">
    <inkscape:grid
       id="grid1"
       units="px"
       originx="0"
       originy="0"
       spacingx="1"
       spacingy="1"
       empcolor="#0099e5"
       empopacity="0.30196078"
       color="#0099e5"
       opacity="0.14901961"
       empspacing="5"
       dotted="false"
       gridanglex="30"
       gridanglez="30"
       visible="true" />
  </sodipodi:namedview>
  <defs
     id="defs29">
    <linearGradient
       id="a"
       y1="30"
       x1="34"
       y2="28"
       x2="24"
       gradientUnits="userSpaceOnUse">
      <stop
         stop-color="#f39c12"
         id="stop2" />
      <stop
         offset="1"
         stop-color="#ffc35a"
         id="stop4" />
    </linearGradient>
    <linearGradient
       id="b"
       y1="30"
       x1="24"
       y2="44"
       x2="38"
       gradientUnits="userSpaceOnUse">
      <stop
         id="stop7" />
      <stop
         offset="1"
         stop-opacity="0"
         id="stop9" />
    </linearGradient>
    <linearGradient
       id="c"
       y1="37"
       y2="4"
       x2="0"
       gradientUnits="userSpaceOnUse">
      <stop
         stop-color="#da4453"
         id="stop12" />
      <stop
         offset="1"
         stop-color="#ff7336"
         id="stop14" />
    </linearGradient>
    <linearGradient
       xlink:href="#b"
       id="d"
       y1="22.313"
       x1="20.438"
       y2="25.406"
       x2="23.531"
       gradientUnits="userSpaceOnUse" />
    <linearGradient
       id="e"
       y1="45"
       y2="24"
       x2="0"
       gradientUnits="userSpaceOnUse">
      <stop
         stop-color="#60c0f4"
         id="stop18" />
      <stop
         offset="1"
         stop-color="#b9e9ff"
         id="stop20" />
    </linearGradient>
    <linearGradient
       id="f"
       y1="23"
       x1="32"
       y2="22"
       x2="25"
       gradientUnits="userSpaceOnUse"
       gradientTransform="translate(-1)">
      <stop
         stop-color="#cea476"
         id="stop23" />
      <stop
         offset="1"
         stop-color="#dab58b"
         id="stop25" />
    </linearGradient>
    <linearGradient
       xlink:href="#b"
       id="g"
       y1="24"
       x1="25"
       y2="38"
       x2="39"
       gradientUnits="userSpaceOnUse" />
    <linearGradient
       id="e-3"
       y1="45"
       y2="24"
       x2="0"
       gradientUnits="userSpaceOnUse">
      <stop
         stop-color="#60c0f4"
         id="stop18-6" />
      <stop
         offset="1"
         stop-color="#b9e9ff"
         id="stop20-7" />
    </linearGradient>
    <linearGradient
       id="a-6"
       y1="30"
       x1="34"
       y2="28"
       x2="24"
       gradientUnits="userSpaceOnUse">
      <stop
         stop-color="#f39c12"
         id="stop2-2" />
      <stop
         offset="1"
         stop-color="#ffc35a"
         id="stop4-9" />
    </linearGradient>
    <linearGradient
       xlink:href="#b"
       id="g-7"
       y1="24"
       x1="25"
       y2="38"
       x2="39"
       gradientUnits="userSpaceOnUse" />
    <linearGradient
       id="c-0"
       y1="37"
       y2="4"
       x2="0"
       gradientUnits="userSpaceOnUse">
      <stop
         stop-color="#da4453"
         id="stop12-9" />
      <stop
         offset="1"
         stop-color="#ff7336"
         id="stop14-3" />
    </linearGradient>
    <linearGradient
       xlink:href="#b"
       id="d-6"
       y1="22.313"
       x1="20.438"
       y2="25.406"
       x2="23.531"
       gradientUnits="userSpaceOnUse" />
    <linearGradient
       id="c-3"
       gradientUnits="userSpaceOnUse"
       x1="11.072659"
       x2="10.958864"
       y1="19.88957"
       y2="1.993852"
       gradientTransform="matrix(1.888889,0,0,1.888889,-119.04897,29.730695)">
      <stop
         offset="0"
         stop-color="#197cf1"
         id="stop12-6" />
      <stop
         offset="1"
         stop-color="#21c9fb"
         id="stop14-7" />
    </linearGradient>
    <linearGradient
       id="b-9"
       gradientUnits="userSpaceOnUse"
       x1="6"
       x2="20"
       y1="5"
       y2="19">
      <stop
         offset="0"
         stop-color="#292c2f"
         id="stop7-1" />
      <stop
         offset="1"
         stop-opacity="0"
         id="stop9-2" />
    </linearGradient>
    <linearGradient
       id="a-70"
       gradientUnits="userSpaceOnUse"
       x1="0"
       x2="0"
       y1="26"
       y2="0">
      <stop
         offset="0"
         stop-color="#7cbaf8"
         id="stop2-9" />
      <stop
         offset="1"
         stop-color="#f4fcff"
         id="stop4-36" />
    </linearGradient>
    <linearGradient
       id="e-3-5"
       y1="45"
       y2="24"
       x2="0"
       gradientUnits="userSpaceOnUse">
      <stop
         stop-color="#60c0f4"
         id="stop18-6-3" />
      <stop
         offset="1"
         stop-color="#b9e9ff"
         id="stop20-7-5" />
    </linearGradient>
    <linearGradient
       id="c-0-6"
       y1="37"
       y2="4"
       x2="0"
       gradientUnits="userSpaceOnUse">
      <stop
         stop-color="#da4453"
         id="stop12-9-0" />
      <stop
         offset="1"
         stop-color="#ff7336"
         id="stop14-3-6" />
    </linearGradient>
    <linearGradient
       id="b-3"
       y1="543.79999"
       y2="503.79999"
       x2="0"
       gradientUnits="userSpaceOnUse"
       gradientTransform="matrix(1.0413094,0,0,1.0631247,-480.19942,-564.48485)">
      <stop
         stop-color="#1d1e1e"
         id="stop7-6" />
      <stop
         offset="1"
         stop-color="#44484c"
         id="stop9-7" />
    </linearGradient>
    <linearGradient
       id="m"
       y1="7"
       x1="10"
       y2="32"
       x2="35"
       gradientUnits="userSpaceOnUse"
       gradientTransform="matrix(1.0284537,0,0,1.0499997,-46.789476,-50.467946)">
      <stop
         stop-color="#383e51"
         id="stop22" />
      <stop
         offset="1"
         stop-color="#655c6f"
         stop-opacity="0"
         id="stop24" />
    </linearGradient>
    <linearGradient
       xlink:href="#a-6-3"
       id="c-5"
       y1="506.79999"
       y2="504.79999"
       x2="0"
       gradientUnits="userSpaceOnUse"
       gradientTransform="matrix(1.0284537,0,0,1.0499997,-474.99676,-557.66143)" />
    <linearGradient
       id="a-6-3"
       y1="543.79999"
       y2="503.79999"
       x2="0"
       gradientUnits="userSpaceOnUse"
       gradientTransform="matrix(1.125,0,0,1,-51.07,0)">
      <stop
         stop-color="#c6cdd1"
         id="stop2-2-6" />
      <stop
         offset="1"
         stop-color="#e0e5e7"
         id="stop4-9-7" />
    </linearGradient>
    <linearGradient
       xlink:href="#a-6-3"
       id="d-1"
       y1="508.79999"
       y2="506.79999"
       gradientUnits="userSpaceOnUse"
       x2="0"
       gradientTransform="matrix(1.0284537,0,0,1.0499997,-474.99676,-557.66143)" />
    <linearGradient
       id="linearGradient519"
       y1="543.79999"
       y2="503.79999"
       x2="0"
       gradientUnits="userSpaceOnUse"
       gradientTransform="matrix(1.125,0,0,1,-51.07,0)">
      <stop
         stop-color="#c6cdd1"
         id="stop515" />
      <stop
         offset="1"
         stop-color="#e0e5e7"
         id="stop517" />
    </linearGradient>
    <linearGradient
       xlink:href="#a-6-3"
       id="e-2"
       y1="510.79999"
       y2="508.79999"
       gradientUnits="userSpaceOnUse"
       x2="0"
       gradientTransform="matrix(1.0284537,0,0,1.0499997,-474.99676,-557.66143)" />
    <linearGradient
       id="linearGradient526"
       y1="543.79999"
       y2="503.79999"
       x2="0"
       gradientUnits="userSpaceOnUse"
       gradientTransform="matrix(1.125,0,0,1,-51.07,0)">
      <stop
         stop-color="#c6cdd1"
         id="stop522" />
      <stop
         offset="1"
         stop-color="#e0e5e7"
         id="stop524" />
    </linearGradient>
    <linearGradient
       xlink:href="#a-6-3"
       id="f-7"
       y1="512.79999"
       y2="510.79999"
       gradientUnits="userSpaceOnUse"
       x2="0"
       gradientTransform="matrix(1.0284537,0,0,1.0499997,-474.99676,-557.66143)" />
    <linearGradient
       id="linearGradient533"
       y1="543.79999"
       y2="503.79999"
       x2="0"
       gradientUnits="userSpaceOnUse"
       gradientTransform="matrix(1.125,0,0,1,-51.07,0)">
      <stop
         stop-color="#c6cdd1"
         id="stop529" />
      <stop
         offset="1"
         stop-color="#e0e5e7"
         id="stop531" />
    </linearGradient>
    <linearGradient
       xlink:href="#a-6-3"
       id="g-0"
       y1="514.79999"
       y2="512.79999"
       gradientUnits="userSpaceOnUse"
       x2="0"
       gradientTransform="matrix(1.0284537,0,0,1.0499997,-474.99676,-557.66143)" />
    <linearGradient
       id="linearGradient540"
       y1="543.79999"
       y2="503.79999"
       x2="0"
       gradientUnits="userSpaceOnUse"
       gradientTransform="matrix(1.125,0,0,1,-51.07,0)">
      <stop
         stop-color="#c6cdd1"
         id="stop536" />
      <stop
         offset="1"
         stop-color="#e0e5e7"
         id="stop538" />
    </linearGradient>
    <linearGradient
       xlink:href="#a-6-3"
       id="h-9"
       y1="516.79999"
       y2="514.79999"
       gradientUnits="userSpaceOnUse"
       x2="0"
       gradientTransform="matrix(1.0284537,0,0,1.0499997,-474.99676,-557.66143)" />
    <linearGradient
       id="linearGradient547"
       y1="543.79999"
       y2="503.79999"
       x2="0"
       gradientUnits="userSpaceOnUse"
       gradientTransform="matrix(1.125,0,0,1,-51.07,0)">
      <stop
         stop-color="#c6cdd1"
         id="stop543" />
      <stop
         offset="1"
         stop-color="#e0e5e7"
         id="stop545" />
    </linearGradient>
    <linearGradient
       xlink:href="#a-6-3"
       id="i-3"
       y1="518.79999"
       y2="516.79999"
       gradientUnits="userSpaceOnUse"
       x2="0"
       gradientTransform="matrix(1.0284537,0,0,1.0499997,-474.99676,-557.66143)" />
    <linearGradient
       id="linearGradient554"
       y1="543.79999"
       y2="503.79999"
       x2="0"
       gradientUnits="userSpaceOnUse"
       gradientTransform="matrix(1.125,0,0,1,-51.07,0)">
      <stop
         stop-color="#c6cdd1"
         id="stop550" />
      <stop
         offset="1"
         stop-color="#e0e5e7"
         id="stop552" />
    </linearGradient>
    <linearGradient
       xlink:href="#a-6-3"
       id="j-6"
       y1="520.79999"
       y2="518.79999"
       gradientUnits="userSpaceOnUse"
       x2="0"
       gradientTransform="matrix(1.0284537,0,0,1.0499997,-474.99676,-557.66143)" />
    <linearGradient
       id="linearGradient561"
       y1="543.79999"
       y2="503.79999"
       x2="0"
       gradientUnits="userSpaceOnUse"
       gradientTransform="matrix(1.125,0,0,1,-51.07,0)">
      <stop
         stop-color="#c6cdd1"
         id="stop557" />
      <stop
         offset="1"
         stop-color="#e0e5e7"
         id="stop559" />
    </linearGradient>
    <linearGradient
       xlink:href="#a-6-3"
       id="k-0"
       y1="523.79999"
       y2="520.79999"
       gradientUnits="userSpaceOnUse"
       x2="0"
       gradientTransform="matrix(1.0284537,0,0,1.0499997,-474.99676,-557.66143)" />
    <linearGradient
       id="linearGradient568"
       y1="543.79999"
       y2="503.79999"
       x2="0"
       gradientUnits="userSpaceOnUse"
       gradientTransform="matrix(1.125,0,0,1,-51.07,0)">
      <stop
         stop-color="#c6cdd1"
         id="stop564" />
      <stop
         offset="1"
         stop-color="#e0e5e7"
         id="stop566" />
    </linearGradient>
    <linearGradient
       xlink:href="#a-6-3"
       id="l-6"
       y1="33"
       y2="25"
       x2="0"
       gradientUnits="userSpaceOnUse"
       gradientTransform="matrix(1.0284537,0,0,1.0499997,-79.484327,-32.871579)" />
    <linearGradient
       id="linearGradient575"
       y1="543.79999"
       y2="503.79999"
       x2="0"
       gradientUnits="userSpaceOnUse"
       gradientTransform="matrix(1.125,0,0,1,-51.07,0)">
      <stop
         stop-color="#c6cdd1"
         id="stop571" />
      <stop
         offset="1"
         stop-color="#e0e5e7"
         id="stop573" />
    </linearGradient>
    <linearGradient
       id="e-3-5-3"
       y1="45"
       y2="24"
       x2="0"
       gradientUnits="userSpaceOnUse">
      <stop
         stop-color="#60c0f4"
         id="stop18-6-3-6" />
      <stop
         offset="1"
         stop-color="#b9e9ff"
         id="stop20-7-5-7" />
    </linearGradient>
    <linearGradient
       inkscape:collect="always"
       xlink:href="#b"
       id="linearGradient667-5-6-5"
       gradientUnits="userSpaceOnUse"
       x1="24"
       y1="30"
       x2="38"
       y2="44" />
    <linearGradient
       id="c-0-6-3"
       y1="37"
       y2="4"
       x2="0"
       gradientUnits="userSpaceOnUse">
      <stop
         stop-color="#da4453"
         id="stop12-9-0-6" />
      <stop
         offset="1"
         stop-color="#ff7336"
         id="stop14-3-6-0" />
    </linearGradient>
    <linearGradient
       inkscape:collect="always"
       xlink:href="#f"
       id="linearGradient830"
       gradientUnits="userSpaceOnUse"
       gradientTransform="translate(-1)"
       x1="32"
       y1="23"
       x2="25"
       y2="22" />
  </defs>
  <g
     transform="matrix(0.35293732,0,0,0.32493491,-0.11749259,0.20123516)"
     id="g55-0-7-7">
    <g
       fill-rule="evenodd"
       id="g37-6-9-9">
      <path
         fill="url(#e)"
         d="m 24,24 c 0,0 -1,0.467 -1,2 0,1.533 1,2 1,2 v 2 c 0,0 -6,1.867 -6,8 0,6 2.933,6 6,6 h 10 c 3.067,0 6,0 6,-6 0,-6.133 -6,-8 -6,-8 v -2 c 0,0 1,-0.467 1,-2 0,-1.533 -1,-2 -1,-2 z"
         id="path31-2-2-2"
         style="fill:url(#e-3-5-3)" />
      <path
         fill="#65c2f5"
         d="m 26,24 v 7.473 l -1.406,0.438 c 0,0 -1.138,0.359 -2.324,1.334 -1.186,0.975 -2.27,2.341 -2.27,4.756 0,2.674 0.536,3.302 0.965,3.59 0.428,0.288 1.502,0.41 3.035,0.41 h 10 c 1.533,0 2.607,-0.122 3.035,-0.41 C 37.463,41.303 38,40.675 38,38.001 38,35.587 36.916,34.22 35.73,33.245 34.544,32.27 33.406,31.911 33.406,31.911 L 32,31.473 V 24 Z"
         id="path33-6-0-0" />
      <path
         opacity="0.2"
         fill="url(#b)"
         d="M 24,30 37.559,43.559 C 38.999,42.951 40,41.5 40,38 40,31.867 34,30 34,30 Z"
         id="path35-1-2-2"
         style="fill:url(#linearGradient667-5-6-5)" />
    </g>
    <g
       stroke-linejoin="bevel"
       id="g51-8-3-3">
      <g
         stroke-width="2"
         id="g43-7-7-7">
        <rect
           width="10"
           x="24"
           y="28"
           fill="url(#a)"
           height="2"
           stroke-linecap="round"
           id="rect39-9-5-5"
           style="fill:url(#a-6)" />
        <path
           fill="#34495e"
           d="M 20.742,35 C 20.295,35.78 20,36.747 20,38 c 0,2.674 0.536,3.302 0.965,3.59 C 21.393,41.878 22.467,42 24,42 h 10 c 1.533,0 2.607,-0.122 3.035,-0.41 C 37.463,41.302 38,40.674 38,38 38,36.747 37.704,35.78 37.258,35 Z"
           id="path41-2-9-9" />
      </g>
      <g
         stroke-linecap="round"
         stroke-width="4"
         id="g49-0-2-2">
        <rect
           width="10"
           x="24"
           y="22"
           fill="url(#f)"
           rx="0.98900002"
           height="2"
           id="rect45-2-2-2"
           style="fill:url(#linearGradient830)" />
        <rect
           width="6"
           x="26"
           y="24"
           fill="#cea476"
           height="3"
           id="rect47-3-8-8" />
      </g>
    </g>
    <path
       opacity="0.2"
       fill="url(#g)"
       fill-rule="evenodd"
       d="M 25,24 39.969,38.969 C 39.988,38.663 40,38.344 40,38 40,31.867 34,30 34,30 v -2 c 0,0 1,-0.467 1,-2 0,-1.533 -1,-2 -1,-2 z"
       id="path53-7-9-9"
       style="fill:url(#g-7)" />
  </g>
  <g
     fill-rule="evenodd"
     transform="matrix(0.35293732,0,0,0.32493491,-0.82336559,0.20123516)"
     id="g63-5-7-7">
    <path
       fill="url(#c)"
       d="m 33.998,4 -2.33,1.143 c -2.332,1.144 -4.794,3.75 -4.794,3.75 l 0.366,2.944 c -0.138,0.201 -0.283,0.415 -0.429,0.629 l -1.036,-1.857 -1.686,2.098 1.191,2.042 c -0.007,0.011 -0.016,0.023 -0.023,0.034 l -1.491,-1.694 c 0,0 -0.971,1.143 -3.95,5.402 -2.979,4.259 -5.441,9.217 -5.441,9.217 l 0.115,3.368 c -0.16,0.237 -0.33,0.494 -0.487,0.725 l -0.469,-2.759 -1.036,1.716 -0.26,1.655 -0.581,0.699 c 0,0 -0.962,3.599 -0.778,4.249 0.184,0.651 2.624,-0.628 2.624,-0.628 l 0.129,-0.857 1.975,-0.635 -2.198,-0.438 c 0.053,-0.089 0.118,-0.197 0.172,-0.287 0.263,0.081 0.573,0.172 1.154,0.278 1.393,0.254 2.33,-0.253 2.33,-0.253 l 1,-1.273 c 0,0 -0.777,0.541 -1.652,0.699 -0.861,0.157 -2.326,-0.205 -2.37,-0.216 0.077,-0.127 0.159,-0.264 0.238,-0.393 0.37,-0.094 3.703,-0.964 5.662,-2.346 2.073,-1.462 6.186,-5.975 6.186,-5.975 0,0 -0.992,-0.009 -3.129,-0.041 -2.01,-0.03 -3.794,-0.016 -4,0 0.093,-0.149 0,-1 0,-1 l 8.586,-1.344 c 0,0 0.552,-1.049 1.394,-2.733 0.842,-1.684 3.02,-5.922 3.02,-5.922 0,0 -1.462,-0.042 -2.768,-0.221 -1.246,-0.172 -2.425,-0.472 -2.536,-0.5 0.015,-0.023 0.031,-0.047 0.046,-0.07 0.181,-0.084 1.346,-0.62 2.215,-0.891 0.939,-0.292 3.801,-0.697 3.801,-0.697 0,0 0.023,-0.405 0.229,-1.236 C 33.193,9.55 33.605,7.64 33.605,7.64 l -4.981,2.806 c 0.21,-0.288 0.408,-0.545 0.613,-0.817 l 4.551,-2.663 c 0,0 0.046,-0.584 0.137,-1.348 0.092,-0.764 0.072,-1.621 0.072,-1.621"
       id="path57-9-3-3"
       style="fill:url(#c-0-6-3)" />
    <path
       d="m 34,4 c 0,0 -4.621,4.941 -9.222,11.275 -4.601,6.334 -9.268,13.499 -13.934,21.68 -4.052,7.104 -2.586,7.05 -2.586,7.05 0,0 0.46,-1.184 3.677,-6.761 3.076,-5.331 6.967,-12.216 13.474,-21.705 3.101,-4.522 8.59,-11.534 8.59,-11.534"
       id="path59-2-6-6"
       style="fill:#ffffff;fill-opacity:1" />
    <path
       opacity="0.2"
       fill="url(#d)"
       d="m 33.998,4 -0.707,0.883 -2.577,3.298 -3.972,5.03 c 0.181,-0.084 1.345,-0.62 2.215,-0.891 0.939,-0.292 3.801,-0.697 3.801,-0.697 0,0 0.024,-0.405 0.23,-1.236 0.206,-0.832 0.617,-2.742 0.617,-2.742 l -4.3,2.409 c 0.21,-0.288 0.408,-0.544 0.613,-0.816 l 3.871,-2.266 c 0,0 0.045,-0.584 0.137,-1.348 0.092,-0.764 0.072,-1.621 0.072,-1.621 M 26.742,13.212 19,24.003 27.586,22.659 c 0,0 0.553,-1.05 1.395,-2.734 0.842,-1.684 3.02,-5.922 3.02,-5.922 0,0 -1.462,-0.041 -2.768,-0.221 -1.246,-0.172 -2.426,-0.472 -2.537,-0.5 0.015,-0.023 0.032,-0.047 0.047,-0.07 m -7.742,10.791 -7.965,13.52 c 0.58,0.204 2.465,-0.785 2.465,-0.785 l 0.129,-0.855 1.977,-0.635 -2.199,-0.439 c 0.053,-0.089 0.118,-0.195 0.172,-0.285 0.263,0.081 0.573,0.171 1.154,0.277 1.393,0.254 2.328,-0.252 2.328,-0.252 l 1.01,-1.273 c 0,0 -0.778,0.54 -1.652,0.699 -0.861,0.157 -2.325,-0.206 -2.369,-0.217 0.077,-0.127 0.158,-0.263 0.236,-0.393 0.37,-0.094 3.703,-0.964 5.662,-2.346 2.073,-1.462 6.186,-5.975 6.186,-5.975 0,0 -0.992,-0.009 -3.129,-0.041 -2.01,-0.03 -3.794,-0.016 -4,0 0.093,-0.149 0,-1 0,-1"
       id="path61-2-1-1"
       style="fill:url(#d-6)" />
  </g>
</svg>
