<?xml version="1.0" encoding="UTF-8" standalone="no"?>
<svg
   style="isolation:isolate"
   width="16"
   height="16"
   viewBox="0 0 16 16"
   version="1.1"
   id="svg22"
   sodipodi:docname="cervisia.svg"
   inkscape:version="1.3 (0e150ed6c4, 2023-07-21)"
   xmlns:inkscape="http://www.inkscape.org/namespaces/inkscape"
   xmlns:sodipodi="http://sodipodi.sourceforge.net/DTD/sodipodi-0.dtd"
   xmlns:xlink="http://www.w3.org/1999/xlink"
   xmlns="http://www.w3.org/2000/svg"
   xmlns:svg="http://www.w3.org/2000/svg">
  <sodipodi:namedview
     id="namedview22"
     pagecolor="#ffffff"
     bordercolor="#000000"
     borderopacity="0.25"
     inkscape:showpageshadow="2"
     inkscape:pageopacity="0.0"
     inkscape:pagecheckerboard="0"
     inkscape:deskcolor="#d1d1d1"
     inkscape:zoom="16.948466"
     inkscape:cx="5.5462248"
     inkscape:cy="8.5848479"
     inkscape:window-width="1920"
     inkscape:window-height="994"
     inkscape:window-x="0"
     inkscape:window-y="0"
     inkscape:window-maximized="1"
     inkscape:current-layer="svg22" />
  <defs
     id="defs22">
    <linearGradient
       id="linearGradient22"
       inkscape:collect="always">
      <stop
         style="stop-color:#5f5fd3;stop-opacity:1"
         offset="0"
         id="stop23" />
      <stop
         style="stop-color:#dd55ff;stop-opacity:1"
         offset="1"
         id="stop24" />
    </linearGradient>
    <style
       id="current-color-scheme"
       type="text/css">&#10;   .ColorScheme-Text { color:#d5c289; } .ColorScheme-Highlight { color:#5294e2; }&#10;  </style>
    <linearGradient
       id="arrongin"
       x1="0%"
       x2="0%"
       y1="0%"
       y2="100%">
      <stop
         offset="0%"
         style="stop-color:#dd9b44; stop-opacity:1"
         id="stop1" />
      <stop
         offset="100%"
         style="stop-color:#ad6c16; stop-opacity:1"
         id="stop2" />
    </linearGradient>
    <linearGradient
       id="aurora"
       x1="0%"
       x2="0%"
       y1="0%"
       y2="100%">
      <stop
         offset="0%"
         style="stop-color:#09D4DF; stop-opacity:1"
         id="stop3" />
      <stop
         offset="100%"
         style="stop-color:#9269F4; stop-opacity:1"
         id="stop4" />
    </linearGradient>
    <linearGradient
       id="fitdance"
       x1="0%"
       x2="0%"
       y1="0%"
       y2="100%">
      <stop
         offset="0%"
         style="stop-color:#1AD6AB; stop-opacity:1"
         id="stop5" />
      <stop
         offset="100%"
         style="stop-color:#329DB6; stop-opacity:1"
         id="stop6" />
    </linearGradient>
    <linearGradient
       id="oomox"
       x1="0"
       x2="0"
       y1="0"
       y2="16"
       gradientUnits="userSpaceOnUse"
       gradientTransform="matrix(0.8125,0,0,0.8125,1.5,1.4999999)">
      <stop
         offset="0%"
         style="stop-color:#303b3d; stop-opacity:1"
         id="stop7" />
      <stop
         offset="100%"
         style="stop-color:#bc985d; stop-opacity:1"
         id="stop8" />
    </linearGradient>
    <linearGradient
       id="rainblue"
       x1="0%"
       x2="0%"
       y1="0%"
       y2="100%">
      <stop
         offset="0%"
         style="stop-color:#00F260; stop-opacity:1"
         id="stop9" />
      <stop
         offset="100%"
         style="stop-color:#0575E6; stop-opacity:1"
         id="stop10" />
    </linearGradient>
    <linearGradient
       id="sunrise"
       x1="0%"
       x2="0%"
       y1="0%"
       y2="100%">
      <stop
         offset="0%"
         style="stop-color: #FF8501; stop-opacity:1"
         id="stop11" />
      <stop
         offset="100%"
         style="stop-color: #FFCB01; stop-opacity:1"
         id="stop12" />
    </linearGradient>
    <linearGradient
       id="telinkrin"
       x1="0%"
       x2="0%"
       y1="0%"
       y2="100%">
      <stop
         offset="0%"
         style="stop-color: #b2ced6; stop-opacity:1"
         id="stop13" />
      <stop
         offset="100%"
         style="stop-color: #6da5b7; stop-opacity:1"
         id="stop14" />
    </linearGradient>
    <linearGradient
       id="60spsycho"
       x1="0%"
       x2="0%"
       y1="0%"
       y2="100%">
      <stop
         offset="0%"
         style="stop-color: #df5940; stop-opacity:1"
         id="stop15" />
      <stop
         offset="25%"
         style="stop-color: #d8d15f; stop-opacity:1"
         id="stop16" />
      <stop
         offset="50%"
         style="stop-color: #e9882a; stop-opacity:1"
         id="stop17" />
      <stop
         offset="100%"
         style="stop-color: #279362; stop-opacity:1"
         id="stop18" />
    </linearGradient>
    <linearGradient
       id="90ssummer"
       x1="0%"
       x2="0%"
       y1="0%"
       y2="100%">
      <stop
         offset="0%"
         style="stop-color: #f618c7; stop-opacity:1"
         id="stop19" />
      <stop
         offset="20%"
         style="stop-color: #94ffab; stop-opacity:1"
         id="stop20" />
      <stop
         offset="50%"
         style="stop-color: #fbfd54; stop-opacity:1"
         id="stop21" />
      <stop
         offset="100%"
         style="stop-color: #0f83ae; stop-opacity:1"
         id="stop22" />
    </linearGradient>
    <linearGradient
       inkscape:collect="always"
       xlink:href="#linearGradient22"
       id="linearGradient24"
       x1="17.253639"
       y1="-0.14232998"
       x2="0"
       y2="16"
       gradientUnits="userSpaceOnUse" />
  </defs>
  <path
     class="ColorScheme-Text"
     fill-rule="evenodd"
     d="M 2.2385625,1.4999999 H 6.67075 c 0.4070625,0 0.7385625,0.3306875 0.7385625,0.7385625 v 2.068625 c 0,0.4070625 -0.3315,0.7385625 -0.7385625,0.7385625 H 2.2385625 C 1.8306875,5.0457499 1.5,4.7142499 1.5,4.3071874 v -2.068625 c 0,-0.407875 0.3306875,-0.7385625 0.7385625,-0.7385625 z m 7.0906875,0 h 4.432187 c 0.407876,0 0.738563,0.3306875 0.738563,0.7385625 v 2.068625 c 0,0.4070625 -0.330687,0.7385625 -0.738563,0.7385625 H 9.32925 c -0.4070625,0 -0.7385625,-0.3315 -0.7385625,-0.7385625 v -2.068625 c 0,-0.407875 0.3315,-0.7385625 0.7385625,-0.7385625 z m -3.5449375,4.727125 h 4.4313735 c 0.407877,0 0.738564,0.3315 0.738564,0.7385625 v 2.068625 c 0,0.4070625 -0.330687,0.7385625 -0.738564,0.7385625 H 5.7843125 c -0.407875,0 -0.7385625,-0.3315 -0.7385625,-0.7385625 v -2.068625 c 0,-0.4070625 0.3306875,-0.7385625 0.7385625,-0.7385625 z m 6.6478745,0 h 1.772063 c 0.163313,0 0.29575,0.1324375 0.29575,0.29575 v 2.95425 c 0,0.1633125 -0.132437,0.29575 -0.29575,0.29575 h -1.772063 c -0.163312,0 -0.29575,-0.1324375 -0.29575,-0.29575 v -2.95425 c 0,-0.1633125 0.132438,-0.29575 0.29575,-0.29575 z M 2.2385625,10.95425 H 6.67075 c 0.4070625,0 0.7385625,0.3315 0.7385625,0.738563 v 2.068624 C 7.4093125,14.169313 7.0778125,14.5 6.67075,14.5 H 2.2385625 C 1.8306875,14.5 1.5,14.169313 1.5,13.761437 V 11.692813 C 1.5,11.28575 1.8306875,10.95425 2.2385625,10.95425 Z m 7.0906875,0 h 4.432187 c 0.407876,0 0.738563,0.3315 0.738563,0.738563 v 2.068624 C 14.5,14.169313 14.169313,14.5 13.761437,14.5 H 9.32925 c -0.4070625,0 -0.7385625,-0.330687 -0.7385625,-0.738563 v -2.068624 c 0,-0.407063 0.3315,-0.738563 0.7385625,-0.738563 z"
     id="path22"
     style="fill:url(#linearGradient24)" />
</svg>
