<?xml version="1.0" encoding="UTF-8" standalone="no"?>
<svg
   width="16"
   height="16"
   version="1.1"
   id="svg34"
   sodipodi:docname="cmake.svg"
   inkscape:version="1.3 (0e150ed6c4, 2023-07-21)"
   xmlns:inkscape="http://www.inkscape.org/namespaces/inkscape"
   xmlns:sodipodi="http://sodipodi.sourceforge.net/DTD/sodipodi-0.dtd"
   xmlns="http://www.w3.org/2000/svg"
   xmlns:svg="http://www.w3.org/2000/svg">
  <sodipodi:namedview
     id="namedview36"
     pagecolor="#ffffff"
     bordercolor="#666666"
     borderopacity="1.0"
     inkscape:showpageshadow="2"
     inkscape:pageopacity="0.0"
     inkscape:pagecheckerboard="0"
     inkscape:deskcolor="#d1d1d1"
     showgrid="false"
     inkscape:zoom="9.8333334"
     inkscape:cx="3.2033898"
     inkscape:cy="-10.220339"
     inkscape:window-width="1920"
     inkscape:window-height="994"
     inkscape:window-x="0"
     inkscape:window-y="0"
     inkscape:window-maximized="1"
     inkscape:current-layer="svg34" />
  <defs
     id="defs22">
    <linearGradient
       id="a"
       y1="4"
       x1="24"
       y2="44"
       x2="4"
       gradientUnits="userSpaceOnUse">
      <stop
         stop-color="#197cf1"
         id="stop2" />
      <stop
         offset="1"
         stop-color="#20bcfa"
         id="stop4" />
    </linearGradient>
    <linearGradient
       id="b"
       y1="44"
       x1="44"
       y2="4"
       x2="24"
       gradientUnits="userSpaceOnUse">
      <stop
         stop-color="#c61423"
         id="stop7" />
      <stop
         offset="1"
         stop-color="#dc2b41"
         id="stop9" />
    </linearGradient>
    <linearGradient
       id="c"
       x1="44"
       x2="4"
       gradientUnits="userSpaceOnUse">
      <stop
         stop-color="#42a603"
         id="stop12" />
      <stop
         offset="1"
         stop-color="#78da06"
         id="stop14" />
    </linearGradient>
    <linearGradient
       id="d"
       y1="522.79999"
       y2="538.79999"
       x1="400.57001"
       gradientUnits="userSpaceOnUse"
       x2="416.57001">
      <stop
         stop-color="#292c2f"
         id="stop17" />
      <stop
         offset="1"
         stop-opacity="0"
         id="stop19" />
    </linearGradient>
    <linearGradient
       gradientTransform="matrix(1.0499601,0,0,1.0499041,-389.93263,-539.69949)"
       gradientUnits="userSpaceOnUse"
       x2="426.69501"
       y2="499.92099"
       y1="547.67499"
       id="a-6"
       x1="389.32001">
      <stop
         stop-color="#18222a"
         style="stop-color:#1e2b35;stop-opacity:1"
         id="stop216" />
      <stop
         stop-color="#566069"
         offset="1"
         style="stop-color:#6d7983;stop-opacity:1"
         id="stop218" />
    </linearGradient>
    <linearGradient
       id="b-3"
       y1="23.775"
       x1="22.540001"
       y2="37.804001"
       x2="36.896"
       gradientUnits="userSpaceOnUse"
       gradientTransform="matrix(1.0500041,0,0,1.0500041,-61.606102,-27.638876)">
      <stop
         stop-color="#292c2f"
         id="stop211" />
      <stop
         offset="1"
         stop-color="#292c2f"
         stop-opacity="0"
         id="stop213" />
    </linearGradient>
    <linearGradient
       id="b-6"
       y1="44"
       x1="44"
       y2="4"
       x2="24"
       gradientUnits="userSpaceOnUse">
      <stop
         stop-color="#c61423"
         id="stop7-7" />
      <stop
         offset="1"
         stop-color="#dc2b41"
         id="stop9-5" />
    </linearGradient>
    <linearGradient
       id="a-3"
       y1="4"
       x1="24"
       y2="44"
       x2="4"
       gradientUnits="userSpaceOnUse">
      <stop
         stop-color="#197cf1"
         id="stop2-5" />
      <stop
         offset="1"
         stop-color="#20bcfa"
         id="stop4-6" />
    </linearGradient>
    <linearGradient
       id="c-2"
       x1="44"
       x2="4"
       gradientUnits="userSpaceOnUse">
      <stop
         stop-color="#42a603"
         id="stop12-9" />
      <stop
         offset="1"
         stop-color="#78da06"
         id="stop14-1" />
    </linearGradient>
    <linearGradient
       id="d-2"
       y1="522.79999"
       y2="538.79999"
       x1="400.57001"
       gradientUnits="userSpaceOnUse"
       x2="416.57001">
      <stop
         stop-color="#292c2f"
         id="stop17-7" />
      <stop
         offset="1"
         stop-opacity="0"
         id="stop19-0" />
    </linearGradient>
    <linearGradient
       id="a-36"
       y1="543.79999"
       y2="503.79999"
       x1="434.57001"
       gradientUnits="userSpaceOnUse"
       x2="384.57001"
       gradientTransform="matrix(0.87499994,0,0,1.0499997,-404.8861,-561.58298)">
      <stop
         stop-color="#343b40"
         id="stop7369" />
      <stop
         offset="1"
         stop-color="#555e63"
         id="stop7371" />
    </linearGradient>
    <linearGradient
       id="c-7"
       y1="17.139999"
       y2="33.139999"
       x1="37.581001"
       gradientUnits="userSpaceOnUse"
       x2="53.580002"
       gradientTransform="matrix(1.18421,0,0,1.18421,-103.6928,-40.922473)">
      <stop
         stop-color="#383e51"
         id="stop7379" />
      <stop
         offset="1"
         stop-color="#655c6f"
         stop-opacity="0"
         id="stop7381" />
    </linearGradient>
    <linearGradient
       id="c-2-7"
       x1="44"
       x2="4"
       gradientUnits="userSpaceOnUse">
      <stop
         stop-color="#42a603"
         id="stop12-9-0" />
      <stop
         offset="1"
         stop-color="#78da06"
         id="stop14-1-9" />
    </linearGradient>
    <linearGradient
       id="linear0"
       gradientUnits="userSpaceOnUse"
       x1="35.726398"
       y1="54.751305"
       x2="35.726398"
       y2="7.1161041"
       gradientTransform="matrix(0.27574372,0,0,0.27126926,-0.7600669,-0.42325404)">
      <stop
         offset="0"
         style="stop-color:rgb(95.686275%,26.274511%,21.176471%);stop-opacity:1;"
         id="stop1" />
      <stop
         offset="1"
         style="stop-color:rgb(93.725491%,32.549021%,31.37255%);stop-opacity:1;"
         id="stop2-9" />
    </linearGradient>
  </defs>
  <path
     style="fill:#ffffff;fill-opacity:0.392;fill-rule:nonzero;stroke:none;stroke-width:1.0427"
     d="m 8.016721,1.5 h -0.0041 V 1.5121 C 7.7498109,1.5082 7.5034262,1.649453 7.372021,1.87568 L 0.6251811,13.372883 c -0.08622,0.145433 -0.119085,0.311063 -0.09032,0.476694 0.0123,-0.08482 0.04105,-0.173709 0.09032,-0.254506 L 7.3720147,2.093828 C 7.5034197,1.867602 7.7498043,1.730247 8.0126146,1.730247 v -0.0121 h 0.0041 c 0.2504908,0 0.4968752,0.133316 0.6323876,0.363582 l 6.7509368,11.501242 c 0.04928,0.0808 0.07802,0.169669 0.09034,0.254506 0.02464,-0.157551 0,-0.323182 -0.09034,-0.476694 L 8.6532146,1.863581 C 8.5218096,1.637354 8.2795313,1.5 8.0208274,1.5 Z m -2.1805037,8.826909 -5.1453292,3.942824 0.0039,0.0039 4.9605426,-3.79739 L 9.461973,11.9952 9.42912,11.764932 Z m 0,0"
     id="path3" />
  <path
     style="fill:url(#linear0);fill-rule:nonzero;stroke:none;stroke-width:1.0427"
     d="m 8.016721,1.5 h -0.0041 V 1.5121 H 7.99619 l 0.9116224,6.273773 -0.00818,0.0083 0.5625779,3.983219 -1.9053743,-0.763517 7.802179,3.146984 c 0,-0.0083 0.0041,-0.0121 0.0082,-0.01613 0,0 0,-0.0039 0,-0.0039 l 0.0041,-0.0039 h -0.0041 c 0.16015,-0.218147 0.180683,-0.521131 0.03285,-0.775637 L 8.6491155,1.863682 C 8.5218165,1.637453 8.279538,1.5001 8.0167277,1.5001 Z m -0.02053,0.0121 c -0.00818,0 -0.016431,0 -0.02053,0 0.0041,0 0.012319,0 0.02053,0 z m -0.024639,0 c -0.0041,0 -0.01232,0 -0.02053,0 0.00818,0 0.016431,0 0.02053,0 z M 7.881207,1.5204 c -0.00818,0 -0.012319,0.0039 -0.02053,0.0039 0.00818,0 0.012319,0 0.02053,-0.0039 z M 7.836039,1.5325 c -0.00818,0 -0.012319,0 -0.02053,0.0039 z M 7.790866,1.54461 c -0.00818,0 -0.012319,0 -0.02053,0.0039 0.00818,0 0.012319,-0.0039 0.02053,-0.0039 z m -0.024639,0.0083 -0.01643,0.0039 z M 7.721054,1.56907 c -0.0041,0 -0.00818,0.0039 -0.012319,0.0039 z m -0.02053,0.0083 -0.012319,0.0083 z M 7.659461,1.59758 c -0.0041,0.0039 -0.00818,0.0083 -0.012319,0.0083 0.0041,0 0.00818,-0.0039 0.012319,-0.0083 z m -0.02053,0.01211 c -0.0041,0.0039 -0.00818,0.0083 -0.012319,0.0083 0.0041,0 0.00818,-0.0039 0.012319,-0.0083 z M 7.597868,1.63395 c -0.0041,0.0039 -0.00818,0.0083 -0.012319,0.0083 0.0041,0 0.00818,-0.0039 0.012319,-0.0083 z m -0.02053,0.01614 -0.012319,0.0083 z m -0.01643,0.0121 c -0.0041,0.0039 -0.00818,0.0083 -0.012319,0.0121 0.0041,-0.0039 0.00818,-0.0083 0.012319,-0.0121 z m -0.02053,0.01614 c -0.0041,0.0039 -0.00818,0.0083 -0.012319,0.0083 0.0041,0 0.00818,-0.0039 0.012319,-0.0083 z M 7.523947,1.69447 c -0.0041,0.0039 -0.00818,0.0039 -0.012319,0.0083 0.0041,-0.0039 0.00818,-0.0083 0.012319,-0.0083 z M 7.470568,1.74293 c -0.0041,0.0039 -0.00818,0.0083 -0.01232,0.0121 0.0041,-0.0039 0.00818,-0.0083 0.01232,-0.0121 z m -0.02053,0.02021 -0.0041,0.0083 z M 7.421296,1.80353 c 0,0.0039 -0.0041,0.0039 -0.00818,0.0083 0.0041,-0.0039 0.00818,-0.0039 0.00818,-0.0083 z M 7.392554,1.84392 c -0.0041,0.0039 -0.0041,0.0083 -0.00818,0.0083 0.0041,0 0.0041,-0.0039 0.00818,-0.0083 z M 5.6514363,10.254734 0.5759121,14.10464 v 0.0039 l 5.0878437,-3.849906 z m -5.1494412,3.571162 c 0,0.0039 0.0039,0.0083 0.0039,0.0121 0,-0.0039 -0.0039,-0.0083 -0.0039,-0.0121 z m 0.0039,0.02018 c 0,0.0039 0,0.0083 0,0.01211 0,-0.0039 0,-0.0083 0,-0.01211 z m 0,0.02022 c 0,0.0039 0,0.0083 0,0.01211 0,-0.0039 0,-0.0083 0,-0.01211 z m 0.0039,0.01615 c 0,0.0039 0,0.0083 0,0.01211 0,-0.0039 0,-0.0083 0,-0.01211 z m 0,0.0202 c 0,0.0039 0.0039,0.01211 0.0039,0.01615 0,-0.0039 -0.0039,-0.01211 -0.0039,-0.01615 z m 0.0039,0.01615 c 0,0.0121 0.0039,0.01614 0.0039,0.02426 0,-0.0083 -0.0039,-0.0121 -0.0039,-0.02426 z m 0.0085,0.0525 c 0.0039,0 0.0039,0.0039 0.0039,0.0039 0,0 0,-0.0039 -0.0039,-0.0039 z m 0.0123,0.03233 0.0039,0.0083 z m 0.02465,0.06869 0.0039,0.0039 z m 0.02875,0.05656 c 0.0039,0.0039 0.0039,0.0083 0.0085,0.01211 -0.0039,-0.0039 -0.0039,-0.0083 -0.0085,-0.01211 z m 0.01639,0.02425 c 0,0.0083 0.0039,0.01211 0.0085,0.01614 -0.0039,-0.0039 -0.0085,-0.0121 -0.0085,-0.01614 z m 14.7502269,0.0083 c 0,0.0039 -0.0082,0.01211 -0.01232,0.01616 0.0082,-0.0039 0.01232,-0.01211 0.01232,-0.01616 z m -14.7337999,0.02021 c 0.0039,0.0039 0.0085,0.01211 0.0123,0.0202 -0.0039,-0.0083 -0.0085,-0.01614 -0.0123,-0.0202 z m 14.7091609,0.01614 c -0.0041,0.0039 -0.0082,0.0121 -0.01232,0.01614 0.0041,-0.0039 0.0082,-0.01211 0.01232,-0.01614 z m -0.01232,0.01614 c -0.0041,0.0083 -0.0082,0.0121 -0.01232,0.01617 0.0041,-0.0039 0.0082,-0.0083 0.01232,-0.01617 z m -0.01643,0.02021 -0.0082,0.0121 z m -14.6393539,0.0039 c 0.0039,0.0039 0.0039,0.0083 0.0085,0.0121 -0.0039,-0.0039 -0.0039,-0.0083 -0.0085,-0.0121 z m 14.6270349,0.0121 c -0.0041,0.0039 -0.0082,0.0083 -0.01232,0.01615 0.0041,-0.0083 0.0082,-0.0121 0.01232,-0.01615 z m -14.5982889,0.01615 0.0085,0.01211 z m 14.5818639,0 -0.01232,0.01614 z m -0.01643,0.01614 -0.01232,0.01616 z m -14.5449029,0.0083 c 0.0039,0.0039 0.0039,0.0039 0.0085,0.0083 -0.0039,-0.0039 -0.0039,-0.0039 -0.0085,-0.0083 z m 14.5284769,0.0083 c -0.0041,0.0039 -0.0082,0.0083 -0.01232,0.0121 0.0041,-0.0039 0.0082,-0.0083 0.01232,-0.0121 z m -14.5038009,0.0121 c 0.0039,0.0083 0.0085,0.0083 0.0123,0.01211 -0.0039,-0.0039 -0.0085,-0.0083 -0.01229,-0.01208 z m 14.4874149,0.0039 -0.01232,0.0121 c 0.0041,-0.0039 0.0082,-0.0083 0.01232,-0.0121 z m -0.01643,0.01614 c -0.0041,0.0039 -0.0082,0.0083 -0.01232,0.0121 0.0041,-0.0039 0.0082,-0.0083 0.01232,-0.0121 z m -14.4422459,0.0039 c 0,0.0039 0.0039,0.0083 0.0085,0.0083 -0.0039,0 -0.0085,-0.0039 -0.0085,-0.0083 z m 14.4217139,0.0121 -0.01232,0.0083 z m -14.3970749,0.0083 0.0085,0.0083 z m 14.3601159,0.01614 c -0.0041,0.0039 -0.0082,0.0083 -0.01232,0.0083 0.0041,0 0.0082,-0.0039 0.01232,-0.0083 z m -14.3272639,0.0083 0.0085,0.0039 z m 14.3108389,0.0083 c -0.0082,0 -0.01232,0 -0.01232,0.0039 0,0 0.0082,-0.0039 0.01232,-0.0039 z m -14.2861999,0.0083 c 0.0039,0 0.0085,0.0039 0.0085,0.0039 0,0 -0.0039,-0.0039 -0.0085,-0.0039 z m 14.2656679,0 c -0.0041,0.0039 -0.0082,0.0083 -0.01232,0.0083 0.0041,0 0.0082,-0.0039 0.01232,-0.0083 z m -0.02053,0.01211 -0.01232,0.0083 z m -14.2122689,0.004 c 0.0039,0.0039 0.0085,0.0039 0.0085,0.0039 0,0 -0.0039,0 -0.0085,-0.0039 z m 14.1917519,0.0083 c -0.0041,0 -0.0082,0.0039 -0.01232,0.0039 0.0041,0 0.0082,-0.0039 0.01232,-0.0039 z m -0.02464,0.0083 c 0,0.0039 -0.0082,0.0039 -0.01232,0.0083 0.0082,-0.0039 0.0082,-0.0039 0.01232,-0.0083 z m -0.02053,0.01211 c -0.0041,0 -0.0082,0.0039 -0.01232,0.0039 0.0041,0 0.0082,-0.0039 0.01232,-0.0039 z m -14.0849859,0.0039 h 0.0085 z m 14.0644529,0.0039 c -0.0041,0 -0.0082,0.0039 -0.01232,0.0039 0.0041,0 0.0082,-0.0039 0.01232,-0.0039 z m -0.02053,0.0083 c -0.0082,0 -0.01232,0.0039 -0.01643,0.0039 0.0041,0 0.01232,-0.0039 0.01643,-0.0039 z m -0.06981,0.0202 c -0.0041,0 -0.0082,0.0039 -0.01643,0.0039 0.0082,0 0.01232,-0.0039 0.01643,-0.0039 z m -0.02464,0.0039 -0.01232,0.0039 z m -13.8098569,0.0039 c 0.0039,0 0.0039,0 0.0085,0 -0.0039,0 -0.0039,0 -0.0085,0 z m 13.7852179,0.0039 c -0.0041,0 -0.0082,0 -0.01232,0 0.0041,0 0.0082,0 0.01232,0 z m -13.7523649,0 c 0.0039,0.0039 0.0039,0.0039 0.0085,0.0039 0,0 -0.0039,0 -0.0085,-0.0039 z m 13.7277259,0.0039 c -0.0041,0 -0.0082,0 -0.01232,0 0.0041,0 0.0082,0 0.01232,0 z m -0.02874,0 c 0,0.0039 -0.0041,0.0039 -0.0082,0.0039 0.0041,0 0.0082,0 0.0082,-0.0039 z m -13.6579209,0.0039 c 0.0085,0 0.01641,0 0.02465,0 -0.0085,0 -0.01642,0 -0.02465,0 z m 13.6332819,0 h -0.0082 z m -13.6086429,0 c 0.0085,0 0.01641,0 0.02055,0 -0.0039,0 -0.0123,0 -0.02055,0 z m 13.5840049,0 h -0.0082 z m -13.5552599,0 c 0.0085,0 0.01641,0.0039 0.02465,0 -0.0085,0 -0.01642,0 -0.02465,0 z m 0,0"
     id="path4" />
  <path
     style="fill:#7d57c2;fill-opacity:1;fill-rule:nonzero;stroke:none;stroke-width:1.0427"
     d="m 7.9961892,1.512119 c -0.5461532,0 -0.7145159,0.56153 -0.9609004,0.93723 -2.1476535,3.664075 -4.3035167,7.328152 -6.4470617,10.996267 -0.180684,0.294905 -0.07802,0.880674 0.254593,0.456496 C 2.6948121,12.496272 4.5673381,11.09043 6.394689,9.680545 7.2282906,9.042261 8.0618918,8.403979 8.8954924,7.765695 8.9119214,7.729335 8.8503194,7.418271 8.8339004,7.280921 8.5546646,5.357987 8.2754287,3.435052 7.9961925,1.512119 Z m 0,0"
     id="path5" />
  <path
     style="fill:#66ba68;fill-opacity:1;fill-rule:nonzero;stroke:none;stroke-width:1.0427"
     d="M 5.6637483,10.258234 0.5759051,14.108142 C 0.6949931,14.338409 0.9454821,14.5 1.2329301,14.5 H 14.730701 c 0.266917,0 0.500982,-0.137354 0.628281,-0.339341 L 7.5568033,11.013673 Z m 0,0"
     id="path6" />
  <path
     style="fill:#ee514f;fill-opacity:1;fill-rule:nonzero;stroke:none;stroke-width:1.0427"
     d="m 7.9961892,1.508079 1.4659884,10.26911 C 8.8256835,11.522686 8.1932968,11.26818 7.5568033,11.013673 l 7.8021787,3.146986 C 15.720346,13.692045 15.289173,13.199192 15.059214,12.783094 12.903348,9.114978 10.759802,5.442819 8.5916184,1.778743 8.4602133,1.605034 8.217935,1.504039 7.9961892,1.508079 Z M 5.651429,10.254195 c -1.6877369,1.284649 -3.3836829,2.569298 -5.0755239,3.853947 1.695946,-1.284649 3.391896,-2.565259 5.0878432,-3.849908 z m -5.1494389,3.542884 v 0.02021 z m 0,0.02829 0.0039,0.0121 z m 0.0039,0.02021 v 0.0121 z m 0,0.0202 v 0.0121 z m 0.0039,0.01616 v 0.0121 z m 0,0.02021 0.0039,0.01614 z m 0.0039,0.01614 0.0039,0.02426 z m 0.0123,0.0525 v 0.0039 z m 0.0085,0.03233 0.0039,0.0083 z m 0.0123,0.03233 v 0.0121 z m 0.0123,0.03636 0.0039,0.0039 z m 0.0123,0.02426 0.0039,0.0083 z m 0.01641,0.03233 0.0085,0.01211 z m 0.01642,0.02426 0.0085,0.01614 z m 14.7502239,0.0083 -0.01232,0.01615 z m -0.01232,0.01615 -0.01232,0.02022 z m -14.7214789,0.0039 0.0123,0.02021 z m 14.7091599,0.01615 -0.01232,0.01615 z m -14.6886289,0.01615 0.0123,0.0121 z m 14.6763099,0 -0.01232,0.02017 z m -0.01232,0.02017 -0.01232,0.01614 z m -14.6434579,0.0039 0.0085,0.0121 z m 14.6270319,0.0121 -0.01232,0.01614 z m -14.5982869,0.02019 0.0085,0.0083 z m 14.5818619,0 -0.01232,0.0121 z m -0.01643,0.01616 -0.01232,0.0121 z m -14.5449049,0.0039 0.0085,0.0083 z m 14.5284789,0.0083 -0.01232,0.01211 z m -14.5038389,0.01615 0.0123,0.0083 z m 14.4874139,0 -0.01232,0.01211 z m -0.01643,0.01614 -0.01232,0.0121 z m -14.4422449,0.0083 0.0085,0.0039 z m 14.4217129,0.0083 -0.01232,0.0083 z m -14.3970739,0.0083 0.0085,0.0083 z m 14.3806469,0.0039 -0.01232,0.0083 z m -0.02053,0.01211 -0.01232,0.0083 z m -14.3272639,0.0083 0.0085,0.0039 z m 14.3108379,0.0083 -0.01232,0.0039 z m -14.2861999,0.0083 0.0085,0.0039 z m 14.2656679,0 -0.01232,0.0083 z m -0.02053,0.0121 -0.01232,0.0083 z m -14.2122829,0.004 0.0085,0.0039 z m 14.1917519,0.0083 -0.01232,0.0039 z m -14.1589009,0.0083 0.0085,0.0039 z m 14.1342629,0 -0.01232,0.0083 z m -0.02053,0.0121 -0.01232,0.0039 z m -14.0849869,0 0.0085,0.0039 z m 14.0644539,0.0083 -0.01232,0.0039 z m -14.0274969,0.0083 h 0.0085 z m 14.0069649,0 -0.01643,0.0039 z m -0.02464,0.0083 -0.01232,0.0039 z m -13.9494759,0.0039 h 0.0085 z m 13.9248369,0 -0.01232,0.0039 z m -0.02053,0.0083 -0.01643,0.0039 z m -0.02464,0.0039 -0.01232,0.0039 z m -13.8098559,0.0039 h 0.0085 z m 13.7852169,0 -0.01232,0.0039 z m -13.7523669,0.0039 h 0.0085 z m 13.7277279,0 -0.01232,0.0039 z m -0.02874,0.0039 h -0.0082 z m -13.6579199,0 0.02465,0.0039 z m 13.6332809,0.0039 h -0.0082 z m -13.6086419,0 h 0.02053 z m 13.5840039,0 h -0.0082 z m -13.5552589,0 h 0.02465 z m 0,0"
     id="path7" />
</svg>
