<?xml version="1.0" encoding="UTF-8" standalone="no"?>
<svg
   width="16"
   height="16"
   viewBox="0 0 16 16"
   fill="none"
   version="1.1"
   id="svg9"
   sodipodi:docname="proton.svg"
   inkscape:version="1.3.2 (091e20ef0f, 2023-11-25)"
   xmlns:inkscape="http://www.inkscape.org/namespaces/inkscape"
   xmlns:sodipodi="http://sodipodi.sourceforge.net/DTD/sodipodi-0.dtd"
   xmlns:xlink="http://www.w3.org/1999/xlink"
   xmlns="http://www.w3.org/2000/svg"
   xmlns:svg="http://www.w3.org/2000/svg">
  <sodipodi:namedview
     id="namedview9"
     pagecolor="#ffffff"
     bordercolor="#000000"
     borderopacity="0.25"
     inkscape:showpageshadow="2"
     inkscape:pageopacity="0.0"
     inkscape:pagecheckerboard="0"
     inkscape:deskcolor="#d1d1d1"
     inkscape:zoom="33.896931"
     inkscape:cx="9.8533993"
     inkscape:cy="10.251665"
     inkscape:window-width="1920"
     inkscape:window-height="994"
     inkscape:window-x="0"
     inkscape:window-y="0"
     inkscape:window-maximized="1"
     inkscape:current-layer="svg9" />
  <path
     fill-rule="evenodd"
     clip-rule="evenodd"
     d="m 12.281816,5.597171 c 1.826393,0.556566 3.015397,1.456626 3.015397,2.404391 0,0.947763 -1.182594,1.844633 -2.999449,2.401214 0.423932,1.847825 0.239056,3.320343 -0.583321,3.794229 -0.191251,0.108168 -0.414385,0.162184 -0.659816,0.162184 -0.803256,0 -1.8551376,-0.566052 -2.9197686,-1.551971 -1.064636,0.992191 -2.116524,1.564775 -2.919781,1.564775 -0.245433,0 -0.465367,-0.05096 -0.656631,-0.162314 C 3.736068,13.735796 3.5480104,12.260139 3.9687594,10.405954 2.1423153,9.849387 0.95336305,8.949325 0.95336305,8.001562 0.95336305,7.056976 2.1359372,6.160098 3.9560044,5.600349 3.5320682,3.752524 3.7169487,2.279991 4.5393254,1.806105 4.7305764,1.697975 4.9537104,1.643906 5.1991444,1.643906 v 0.651986 c -0.133868,0 -0.245434,0.02231 -0.334684,0.07632 -0.395261,0.228993 -0.564206,1.097247 -0.427126,2.210396 0.03504,0.270326 0.08608,0.553394 0.152987,0.845991 0.570565,-0.143125 1.198504,-0.251252 1.858324,-0.321222 0.388884,-0.540668 0.800085,-1.027283 1.208074,-1.45663 -0.953058,-0.87781 -1.848757,-1.35804 -2.454388,-1.35804 V 1.640723 c 0.803258,0 1.855132,0.56612 2.919771,1.552039 1.064631,-0.992283 2.1165126,-1.564764 2.9197656,-1.564764 v 0.0032 c 0.241002,4.35e-4 0.459846,0.05137 0.650261,0.162198 0.822374,0.473874 1.01044,1.949591 0.589687,3.803777 z m -1.243141,-3.31718 c -0.605573,0.0021 -1.4997976,0.484974 -2.4511946,1.367577 0.414374,0.429361 0.822379,0.919154 1.217631,1.459822 0.6566376,0.06995 1.2813916,0.178097 1.8551376,0.318028 0.06376,-0.29577 0.117947,-0.585182 0.149825,-0.858696 0.133869,-1.113147 -0.03829,-1.978229 -0.436701,-2.207227 -0.09244,-0.05092 -0.200813,-0.07632 -0.334698,-0.07632 z m 0.0574,4.929648 c 0.153008,-0.388007 0.286879,-0.776028 0.395263,-1.151303 -0.382512,-0.09542 -0.784137,-0.171752 -1.198522,-0.232181 0.143442,0.222627 0.286884,0.451627 0.420764,0.683793 0.137063,0.232165 0.261382,0.467525 0.382495,0.699691 z m -1.6479376,3.0691 C 9.6903784,9.932082 9.9230704,9.559968 10.152574,9.165594 10.369332,8.780758 10.57333,8.389566 10.758203,8.001562 10.57333,7.610367 10.372517,7.222365 10.149384,6.840708 9.9198834,6.449516 9.6840154,6.077404 9.4417594,5.730751 c -0.433504,-0.03496 -0.873373,-0.05405 -1.316448,-0.05405 -0.446248,0 -0.886129,0.01908 -1.322821,0.05726 -0.242248,0.346677 -0.474935,0.718781 -0.704438,1.113152 -0.21995,0.381657 -0.423948,0.772836 -0.605629,1.164029 0.184866,0.391188 0.385679,0.779212 0.608821,1.160853 0.229501,0.391196 0.465368,0.763296 0.707625,1.109963 0.433506,0.03496 0.873374,0.05404 1.316442,0.05404 0.446247,0 0.886126,-0.01908 1.322826,-0.05726 z M 11.500896,9.944788 C 11.389332,9.566319 11.255461,9.175136 11.096075,8.78395 10.974961,9.019291 10.850643,9.254651 10.716773,9.486816 10.582887,9.722175 10.439451,9.951148 10.296011,10.176969 10.71358,10.116549 11.1184,10.037035 11.500896,9.944788 Z m -4.1820256,1.017745 c 0.267754,0.343481 0.541873,0.655161 0.812816,0.935036 0.267749,-0.279875 0.541884,-0.591555 0.80326,-0.935036 -0.264566,0.01268 -0.538689,0.01908 -0.812821,0.01908 -0.270932,0 -0.538688,-0.0065 -0.803255,-0.01908 z M 4.7560964,9.951148 c 0.382506,0.09224 0.784133,0.168568 1.198516,0.229001 C 5.8111734,9.957511 5.6709234,9.728521 5.5338524,9.499537 5.3967904,9.267371 5.2724734,9.032011 5.1513594,8.799845 4.9983464,9.187853 4.8644784,9.575873 4.7560964,9.951148 Z M 8.9285644,5.043777 C 8.6608134,4.700293 8.3866934,4.388609 8.1157494,4.108732 c -0.267749,0.279877 -0.538691,0.591561 -0.803259,0.935045 0.264568,-0.01269 0.538703,-0.01908 0.812823,-0.01908 0.270943,0 0.53869,0.0066 0.803255,0.01908 z m -3.397907,1.472531 c 0.133883,-0.23536 0.277322,-0.464335 0.420759,-0.690153 -0.417567,0.06041 -0.819197,0.139931 -1.204881,0.228987 0.111565,0.378469 0.245432,0.769668 0.40482,1.16086 0.117937,-0.232169 0.245431,-0.467528 0.379302,-0.699694 z M 1.6004479,8.00474 c 0,0.457987 0.669384,1.033635 1.7053303,1.475716 C 3.5607765,9.588593 3.8349104,9.687188 4.1217904,9.779414 4.2875374,9.210108 4.5042844,8.618563 4.7720364,8.0111 4.5010924,7.400463 4.2811584,6.805722 4.1154124,6.233255 3.8317254,6.325485 3.5575908,6.420891 3.3057782,6.529028 2.2698319,6.964745 1.6004479,7.546757 1.6004479,8.00474 Z m 2.8432725,3.434857 c -0.13387,1.113146 0.03827,1.978219 0.436693,2.207233 0.08606,0.05085 0.197626,0.07629 0.331506,0.07952 0.605623,0 1.501313,-0.483485 2.454388,-1.36759 -0.414385,-0.429347 -0.822374,-0.919131 -1.217637,-1.4598 -0.656628,-0.06995 -1.28138,-0.17811 -1.855132,-0.318049 -0.06376,0.295775 -0.117946,0.585201 -0.149818,0.858718 z m 6.9456136,2.194427 c 0.395249,-0.228876 0.564199,-1.097196 0.427126,-2.210325 -0.03504,-0.270348 -0.08608,-0.553406 -0.149807,-0.849186 -0.570575,0.143125 -1.198517,0.251255 -1.8583336,0.321222 -0.388876,0.540668 -0.800066,1.027283 -1.208072,1.456634 0.953074,0.87779 1.8487686,1.358077 2.4544006,1.358077 0.133871,0 0.245434,-0.02231 0.334686,-0.07641 z m 0.74269,-3.857795 c 0.283683,-0.09223 0.557818,-0.187636 0.809621,-0.295773 1.032756,-0.438907 1.702175,-1.020922 1.711654,-1.475716 0,-0.457983 -0.669297,-1.033627 -1.705252,-1.475712 -0.258205,-0.108137 -0.532324,-0.209901 -0.82239,-0.298956 -0.165761,0.569288 -0.382511,1.160849 -0.650262,1.768312 0.270945,0.610638 0.49088,1.20538 0.656629,1.777845 z M 8.9221404,7.999926 c 0,0.439886 -0.356779,0.796489 -0.79688,0.796489 -0.440112,0 -0.796889,-0.356603 -0.796889,-0.796489 0,-0.439891 0.356777,-0.7965 0.796889,-0.7965 0.440101,0 0.79688,0.356609 0.79688,0.7965 z"
     id="path1"
     style="stroke-width:4;fill-opacity:1;fill:url(#linearGradient11)" />
  <path
     d="m 12.181523,5.597171 -0.124894,-0.0283 -0.02634,0.116052 0.113894,0.0347 z m 0.01595,4.805605 -0.0375,-0.122381 -0.113931,0.03486 0.02663,0.116104 z m -0.583324,3.794229 0.06307,0.111366 0.0011,-5.1e-4 z m -3.5795859,-1.389787 0.08703,-0.09396 -0.08734,-0.08087 -0.08706,0.08115 z m -3.5764111,1.402461 0.064461,-0.1106 -4.92e-4,-2.55e-4 z m -0.589684,-3.803725 0.1248991,0.02832 0.02634,-0.116053 -0.1138869,-0.0347 z m -0.01273,-4.805605 0.03765,0.122346 0.1137739,-0.03497 -0.02665,-0.115963 z m 0.5833179,-3.794244 -0.06306,-0.11142 -0.0011,5.26e-4 z M 5.098875,1.643906 H 5.226946 V 1.515899 H 5.098875 Z m 0,0.651986 V 2.423897 H 5.226946 V 2.295892 Z m -0.334687,0.07633 0.06424,0.110754 0.0013,-6.31e-4 0.0013,-6.52e-4 z m -0.427126,2.210396 -0.127121,0.01564 1.17e-4,8.11e-4 z m 0.152995,0.845991 -0.124842,0.02852 0.02918,0.127443 0.12686,-0.03183 z m 1.858319,-0.321222 0.01353,0.127292 0.057001,-0.0065 0.03345,-0.04651 z M 7.55645,3.650757 7.64933,3.738917 7.73886,3.644667 7.64325,3.556607 Z M 5.102053,2.292716 H 4.973977 v 0.128007 h 0.128076 z m 0,-0.651987 V 1.512718 H 4.973977 v 0.128011 z m 2.9197641,1.552041 -0.08703,0.0939 0.08734,0.08087 0.08706,-0.08114 z M 10.941586,1.628006 h 0.128066 V 1.5 h -0.12806 z m 0,0.0032 H 10.81352 v 0.127747 l 0.12784,2.41e-4 z m 0.650259,0.162197 -0.06441,0.110612 4.74e-4,2.83e-4 z m -3.1046439,1.854173 -0.08713,-0.09382 -0.09569,0.08878 0.09065,0.09392 z M 10.938395,2.280002 h 0.128072 V 2.151595 l -0.128433,3.58e-4 z m -1.2335709,2.827393 -0.103405,0.07554 0.03346,0.04579 0.05639,0.0064 z m 1.8551449,0.318037 -0.03038,0.124361 0.127852,0.03118 0.0277,-0.128584 z m 0.149818,-0.858705 -0.127163,-0.01526 -4.7e-5,4.75e-4 z m -0.436692,-2.207219 0.06385,-0.110971 -0.0012,-5.88e-4 -0.0013,-5.64e-4 z m -0.3347,-0.07632 h -0.128061 v 0.128009 h 0.128069 z m 0.452636,3.775153 0.123037,0.0355 0.03685,-0.127563 -0.128877,-0.03215 z m -0.395262,1.151308 -0.113547,0.05918 0.129776,0.24876 0.102928,-0.261008 z M 10.192513,5.82616 10.211033,5.699497 9.9324307,5.658837 10.084871,5.895446 Z m 0.420764,0.683795 -0.110977,0.06395 6.69e-4,0.0014 z m -0.561011,2.655645 0.110714,0.06436 0.0011,-0.0019 z m -0.704435,1.113147 0.01112,0.127522 0.05957,-0.0055 0.03425,-0.04902 z m 1.310067,-2.277177 0.115636,0.05506 0.02613,-0.05484 -0.02594,-0.05491 z m -0.608819,-1.160853 0.110573,-0.06457 -8.9e-5,-1.66e-4 z m -0.707626,-1.109959 0.10499,-0.07332 -0.0345,-0.04946 -0.06016,-0.0051 z m -2.639267,0.0032 -0.01113,-0.127522 -0.05957,0.0055 -0.03425,0.04902 z M 5.997747,6.847106 5.887041,6.782746 5.886758,6.783218 Z m -0.605632,1.164029 -0.116157,-0.05391 -0.02529,0.05434 0.025619,0.0542 z m 0.60882,1.160855 -0.110574,0.06457 9.1e-5,1.67e-4 z m 0.707626,1.10996 -0.104993,0.07334 0.03452,0.04945 0.06016,0.0051 z M 10.995769,8.783985 11.114387,8.735685 11.009321,8.4778 10.881889,8.725406 Z m 0.404818,1.160841 0.03008,0.124449 0.130851,-0.03155 -0.03805,-0.129073 z m -0.784119,-0.457975 -0.110975,-0.06395 -3.68e-4,6.53e-4 z m -0.42076,0.690157 -0.108117,-0.06861 -0.1494223,0.235216 0.2758893,-0.03992 z m -2.1643269,1.720598 -0.09204,0.08902 0.09256,0.09563 0.09202,-0.09619 z m -0.812816,-0.935037 0.0064,-0.127867 -0.27863,-0.01339 0.171445,0.219929 z m 1.61607,0 0.101937,0.07747 0.166299,-0.218549 -0.274377,0.01321 z m -2.980328,-0.782385 -0.0185,0.126663 0.278607,0.04063 -0.152444,-0.236597 z m -1.198518,-0.228997 -0.123037,-0.0355 -0.03713,0.128559 0.130136,0.03142 z m 0.777761,-0.451612 -0.110294,0.06507 3.94e-4,6.62e-4 z m -0.382498,-0.699693 0.113563,-0.05916 -0.129789,-0.24876 -0.102927,0.261009 z m 2.964386,-4.691115 0.09205,-0.08901 -0.09258,-0.09564 -0.09202,0.09619 z m 0.812821,0.935046 -0.0065,0.127857 0.278618,0.01341 -0.171449,-0.219934 z m -1.616073,0 -0.101482,-0.07812 -0.168867,0.219251 0.276504,-0.01331 z m -1.361068,0.782375 0.108116,0.0686 0.149417,-0.235214 -0.275885,0.03992 z m -0.420762,0.690158 0.110971,0.06395 3.73e-4,-6.53e-4 z m -0.784124,-0.461165 -0.02887,-0.124718 -0.13244,0.03055 0.03838,0.130326 z m 0.40482,1.160855 -0.118619,0.04831 0.105795,0.259689 0.127009,-0.250014 z m -1.8455796,2.264453 -0.050295,0.11773 2.69e-4,1.14e-4 z m 0.8160146,0.298963 -0.03926,0.121851 0.125389,0.04031 0.0368,-0.126395 z m 0.650245,-1.768317 0.117197,0.05161 0.02281,-0.05176 -0.02293,-0.05171 z m -0.656625,-1.777843 0.123022,-0.03561 -0.03679,-0.127058 -0.125844,0.04092 z M 3.2054725,6.529067 3.2551518,6.647055 3.25609,6.646682 Z m 1.5746376,7.117796 0.06523,-0.110214 -0.0017,-7.68e-4 z m -0.436701,-2.207274 0.127159,0.01526 5.2e-5,-4.63e-4 z m 0.768201,2.286727 -0.0032,0.128008 h 0.0019 0.0019 z m 2.454389,-1.367588 0.08712,0.09383 0.09569,-0.08876 -0.09065,-0.09393 z m -1.217643,-1.459807 0.103418,-0.07555 -0.03345,-0.04578 -0.05639,-0.0064 z m -1.855126,-0.318051 0.03038,-0.124357 -0.127852,-0.03118 -0.02771,0.128583 z m 7.2229209,0.84282 0.127118,-0.01565 -1.13e-4,-8.13e-4 z m -0.427126,2.210332 -0.06425,-0.110729 -0.0013,6.41e-4 -0.0013,6.41e-4 z m 0.277317,-3.059513 0.12519,-0.02697 -0.02792,-0.129429 -0.128484,0.03221 z m -1.8583369,0.321223 -0.01353,-0.127289 -0.05698,0.0065 -0.03348,0.04651 z m -1.208066,1.456633 -0.09286,-0.08816 -0.08953,0.09424 0.09561,0.08807 z m 4.3413929,-2.871917 -0.05007,-0.117807 -5.13e-4,1.94e-4 z m -0.809623,0.295778 -0.123023,0.03561 0.03679,0.127062 0.12586,-0.04093 z m 2.521279,-1.771494 0.128075,0.003 v -0.0017 -0.0017 z m -1.705253,-1.475706 0.05032,-0.117727 -0.0011,-3.32e-4 z m -0.82239,-0.298963 0.03758,-0.122363 -0.124254,-0.03816 -0.0363,0.124742 z m -0.65026,1.76832 -0.117194,-0.05161 -0.0228,0.05176 0.02293,0.05172 z m 3.949914,0.0032 c 0,-0.530362 -0.331956,-1.02532 -0.871651,-1.449513 -0.54199,-0.425999 -1.311819,-0.796172 -2.234477,-1.077329 l -0.07469,0.244832 c 0.903851,0.275424 1.641664,0.633564 2.150743,1.033677 0.511385,0.40191 0.773932,0.830866 0.773932,1.248274 z m -3.090003,2.523608 C 13.1528,10.244033 13.918658,9.874625 14.457835,9.449382 14.994959,9.025854 15.325,8.531716 15.325,8.001583 h -0.256133 c 0,0.417642 -0.261137,0.845816 -0.769704,1.246816 -0.506267,0.399282 -1.240104,0.756602 -2.139223,1.032012 z m -0.556884,3.782691 c 0.459972,-0.264976 0.723148,-0.798002 0.821798,-1.474271 0.09906,-0.679067 0.03659,-1.525984 -0.177607,-2.459418 l -0.249657,0.05722 c 0.209779,0.914378 0.266803,1.727638 0.173797,2.365211 -0.09341,0.640424 -0.33385,1.080643 -0.69626,1.289553 z m -0.723778,0.17934 c 0.264428,0 0.509847,-0.05834 0.722884,-0.178828 l -0.126124,-0.22275 c -0.169474,0.09575 -0.370303,0.145544 -0.596759,0.145544 z M 7.9475131,12.901079 c 0.538345,0.498592 1.076316,0.893751 1.584659,1.164745 0.5070959,0.270481 0.9920609,0.421405 1.4221589,0.421405 v -0.255944 c -0.373171,0 -0.815767,-0.132101 -1.3015809,-0.39119 -0.484573,-0.258314 -1.004847,-0.639139 -1.531149,-1.126594 z M 5.114784,14.500001 c 0.430407,0 0.915536,-0.152714 1.422585,-0.42563 0.508328,-0.273552 1.04626,-0.671911 1.5845351,-1.173574 L 7.947217,12.713516 C 7.420848,13.204176 6.90053,13.588202 6.41595,13.848948 5.930086,14.110341 5.4876461,14.243982 5.114784,14.243982 Z M 4.393711,14.320405 c 0.214478,0.124803 0.4576321,0.179596 0.721073,0.179596 v -0.256018 c -0.227431,0 -0.424143,-0.04711 -0.592173,-0.144904 z M 3.7435701,10.377635 C 3.5310304,11.31426 3.470172,12.163519 3.5704375,12.84409 c 0.099843,0.677803 0.3638186,1.211468 0.8237565,1.476576 l 0.1279261,-0.221843 c -0.362436,-0.208781 -0.603694,-0.649901 -0.698285,-1.291989 -0.09418,-0.639313 -0.0387,-1.455003 0.16953,-2.372562 z M 0.725,8.001562 c 0,0.530364 0.3319617,1.025322 0.8716837,1.449517 0.5420055,0.425996 1.3117959,0.796166 2.2344383,1.077326 l 0.07472,-0.24489 C 3.0019965,10.008088 2.2640953,9.649946 1.7550166,9.249837 1.2436452,8.847925 0.98113985,8.418968 0.98113985,8.001562 Z M 3.8180481,5.477994 C 2.8986953,5.760738 2.1321315,6.130925 1.5925728,6.556122 1.0552585,6.979546 0.725,7.472888 0.725,8.001562 h 0.25613985 c 0,-0.415912 0.26103275,-0.84329 0.77002195,-1.244394 C 2.257897,6.357833 2.9926607,5.999709 3.8933791,5.722695 Z M 4.37506,1.695211 C 3.9151,1.960265 3.6519252,2.493203 3.5532774,3.16953 3.4542245,3.848607 3.5167026,4.695505 3.7308821,5.628958 L 3.980539,5.571738 C 3.77076,4.657364 3.7137363,3.844095 3.806742,3.206464 3.9001521,2.566101 4.140578,2.125849 4.503001,1.91701 Z M 5.0988511,1.515899 c -0.264428,0 -0.509847,0.05831 -0.7228821,0.178801 l 0.1261211,0.222825 c 0.169476,-0.09581 0.370305,-0.145611 0.596761,-0.145611 z m 0.128072,0.779993 V 1.643906 h -0.256142 v 0.651986 z m -0.396382,0.185803 c 0.06174,-0.03737 0.147157,-0.0578 0.26831,-0.0578 V 2.167867 c -0.1466071,0 -0.284306,0.02411 -0.401062,0.09487 z M 4.4641451,4.566977 C 4.3967551,4.019481 4.4054151,3.538221 4.4767051,3.170184 4.5495551,2.793933 4.681061,2.568316 4.8283731,2.482976 L 4.69992,2.261478 C 4.451983,2.405125 4.301397,2.728126 4.225228,3.121547 4.147508,3.523158 4.140268,4.0326 4.209938,4.598245 Z m 0.150742,0.833097 C 4.548807,5.111152 4.498536,4.832128 4.464044,4.566152 L 4.21003,4.599062 c 0.03563,0.274709 0.087391,0.561792 0.155155,0.858076 z m 1.719952,-0.41998 c -0.664937,0.07053 -1.298841,0.179585 -1.875978,0.324346 l 0.06232,0.248328 c 0.564005,-0.14148 1.185977,-0.248672 1.840664,-0.318091 z M 7.463578,3.5626 C 7.051921,3.995791 6.636943,4.48685 6.244375,5.03267 L 6.45235,5.182101 C 6.837531,4.646572 7.244937,4.164423 7.64929,3.738918 Z M 5.102038,2.420725 c 0.2722041,0 0.625416,0.109156 1.035268,0.334053 0.407639,0.223679 0.8615041,0.556458 1.332337,0.990118 L 7.64322,3.556622 C 7.160982,3.112481 6.690468,2.766245 6.260573,2.530348 5.832907,2.295669 5.435465,2.164712 5.102038,2.164712 Z M 4.973965,1.640728 V 2.292714 H 5.230106 V 1.640728 Z M 8.1088601,3.098874 C 7.570515,2.600336 7.032529,2.205194 6.524191,1.934092 6.017086,1.663643 5.532123,1.51272 5.102038,1.51272 v 0.256022 c 0.373159,0 0.815771,0.132126 1.3015731,0.391214 0.4845819,0.258435 1.0048579,0.639329 1.531158,1.126717 z M 10.941575,1.5 C 10.51118,1.5 10.026052,1.652714 9.5190011,1.925575 9.0106771,2.199114 8.472732,2.597467 7.93446,3.099158 l 0.1746901,0.187237 c 0.52637,-0.490609 1.046681,-0.874635 1.53127,-1.135397 0.4858559,-0.261453 0.9283049,-0.39498 1.3011549,-0.39498 z m 0.12807,0.131199 v -0.0032 h -0.256138 v 0.0032 z m 0.58664,0.05157 C 11.442866,1.558564 11.200946,1.503664 10.941815,1.503187 l -4.72e-4,0.256014 c 0.222856,4.14e-4 0.418636,0.0474 0.586051,0.144807 z m 0.650131,3.942719 C 12.518961,4.688865 12.579818,3.839606 12.479554,3.159026 12.379714,2.48122 12.115733,1.947522 11.655798,1.68249 l -0.127935,0.2218 c 0.362449,0.208851 0.603703,0.649951 0.698291,1.292026 0.09417,0.639288 0.03866,1.454981 -0.169525,2.37254 z M 8.5743161,3.741402 C 9.0443441,3.305357 9.4974271,2.970651 9.9044887,2.745449 10.313777,2.519013 10.666621,2.408772 10.938743,2.408002 L 10.938024,2.15199 c -0.333439,0.0012 -0.730497,0.133179 -1.1575729,0.369458 -0.429305,0.237506 -0.899013,0.585735 -1.380386,1.032309 z m 1.233916,1.290465 C 9.4099991,4.48713 8.9982881,3.992781 8.5793591,3.558717 l -0.184347,0.177735 c 0.4098251,0.424638 0.8141199,0.909857 1.2064,1.446454 z M 11.59031,5.301065 C 11.010629,5.159675 10.380246,5.050624 9.7183991,4.98009 l -0.02714,0.254573 c 0.6514209,0.06945 1.2705369,0.176622 1.8383629,0.315118 z m -0.0074,-0.749151 c -0.03119,0.26769 -0.08443,0.552611 -0.147806,0.846556 l 0.250389,0.05391 c 0.06411,-0.297606 0.119236,-0.591524 0.151778,-0.87085 z m -0.3735,-2.081418 c 0.149059,0.08562 0.281842,0.310855 0.356176,0.68594 0.07274,0.367158 0.08302,0.847534 0.01721,1.395009 l 0.254308,0.03055 C 11.905147,4.016342 11.896307,3.507599 11.816883,3.10669 11.73904,2.713706 11.586509,2.391866 11.337119,2.248533 Z m -0.270856,-0.05927 c 0.117057,0 0.203186,0.02205 0.272907,0.06043 L 11.33506,2.247397 c -0.115132,-0.0634 -0.245766,-0.09221 -0.396463,-0.09221 z m -0.1281,-0.13121 v 0.0032 h 0.25614 v -0.0032 z m 0.457664,3.742831 c -0.107134,0.370988 -0.239659,0.755172 -0.391356,1.139874 l 0.238294,0.09388 C 11.269355,6.86528 11.404585,6.473447 11.514202,6.09385 Z m -1.093952,-0.06998 c 0.4109,0.05995 0.808273,0.13548 1.185978,0.2297 l 0.06203,-0.248406 C 11.034862,5.837541 10.628982,5.760454 10.211127,5.699516 Z m 0.550203,0.493205 C 10.588888,6.211296 10.44418,5.980332 10.300216,5.756883 l -0.215344,0.138621 c 0.142911,0.22181 0.285081,0.448817 0.417466,0.6784 z m 0.385093,0.704416 C 10.988245,6.918211 10.8626,6.680241 10.72367,6.444923 l -0.220601,0.130113 c 0.135202,0.229017 0.258176,0.46175 0.379252,0.693824 z M 9.9416927,9.101274 C 9.7134621,9.493477 9.4826751,9.862448 9.2429651,10.205486 l 0.209988,0.146592 C 9.6977461,10.001786 9.9323427,9.62654 10.163103,9.229997 Z M 10.542406,7.946558 C 10.35887,8.331759 10.156223,8.720372 9.9407957,9.102836 l 0.2232033,0.1256 C 10.382088,8.841248 10.587447,8.447467 10.773662,8.056651 Z M 9.9386327,6.905341 C 10.159582,7.283247 10.358677,7.667886 10.542227,8.056273 L 10.773826,7.946928 C 10.587602,7.552915 10.385071,7.161535 10.159758,6.776149 Z M 9.2365891,5.804083 c 0.240005,0.343446 0.47405,0.712632 0.7021466,1.101418 L 10.159693,6.775998 C 9.9286767,6.382364 9.6909911,6.007338 9.4464801,5.657459 Z m -1.211452,6.4e-4 c 0.439395,0 0.875834,0.0189 1.306135,0.05364 l 0.02061,-0.255185 c -0.436695,-0.03527 -0.880021,-0.05445 -1.326755,-0.05445 z m -1.31167,0.05675 c 0.432929,-0.03786 0.869082,-0.05675 1.31167,-0.05675 V 5.5487 c -0.449924,0 -0.8935181,0.01921 -1.3339801,0.05776 z m -0.60489,1.04999 c 0.228236,-0.392192 0.459018,-0.761175 0.698728,-1.10421 L 6.59726,5.66063 C 6.352465,6.010932 6.117865,6.386169 5.887112,6.782718 Z M 5.5084061,8.065036 C 5.688412,7.677429 5.8906591,7.289575 6.1088251,6.910987 L 5.8868951,6.783182 C 5.6651901,7.167913 5.459432,7.562437 5.2760851,7.95721 Z m 0.603238,1.042371 C 5.890681,8.729461 5.691586,8.344823 5.508034,7.956427 L 5.2764321,8.065772 c 0.186204,0.393998 0.388733,0.785385 0.6140439,1.170762 z m 0.70204,1.101242 C 6.573612,9.8652 6.339559,9.496 6.11147,9.107228 L 5.89051,9.236721 c 0.230919,0.393597 0.468607,0.768622 0.713121,1.118525 z m 1.211453,-6.37e-4 c -0.4393961,0 -0.875832,-0.01891 -1.3061361,-0.05365 l -0.02059,0.255183 c 0.436695,0.03527 0.880022,0.05445 1.3267561,0.05445 z m 1.311669,-0.05675 c -0.432928,0.03786 -0.869082,0.05675 -1.311669,0.05675 v 0.25601 c 0.449924,0 0.893522,-0.01921 1.333975,-0.05776 z m 1.5404649,-1.319 c 0.157588,0.38682 0.290093,0.77394 0.400579,1.148764 l 0.245703,-0.07235 C 11.410894,9.52654 11.275636,9.131277 11.114475,8.735707 Z m -0.14974,0.71851 c 0.135367,-0.234764 0.26076,-0.472191 0.382237,-0.708228 L 10.881929,8.725405 c -0.120773,0.234681 -0.244012,0.467938 -0.376381,0.697508 z m -0.423606,0.694849 c 0.143593,-0.226034 0.288453,-0.457254 0.423977,-0.695493 L 10.505085,9.42355 C 10.372864,9.656012 10.230844,9.882775 10.08755,10.10837 Z M 11.370661,9.82039 c -0.378833,0.09135 -0.779742,0.170101 -1.193202,0.229934 l 0.03671,0.253366 c 0.421685,-0.061 0.830394,-0.141297 1.216577,-0.234408 z m -3.2471439,1.988201 c -0.267939,-0.276778 -0.539036,-0.58502 -0.803844,-0.924716 l -0.202053,0.15735 c 0.270709,0.347274 0.547862,0.662391 0.821806,0.945383 z m 0.609287,-0.923527 c -0.257886,0.338904 -0.528742,0.646918 -0.793885,0.924066 l 0.185125,0.176933 c 0.27037,-0.2826 0.54777,-0.597949 0.81263,-0.946004 z m -0.71088,0.224594 c 0.276082,0 0.552252,-0.0066 0.818968,-0.01921 l -0.01231,-0.255725 c -0.262415,0.01261 -0.534499,0.01891 -0.806677,0.01891 z m -0.809406,-0.01921 c 0.266658,0.0128 0.536462,0.01921 0.809406,0.01921 V 10.85363 c -0.268937,0 -0.53463,-0.0064 -0.797097,-0.01891 z m -1.33961,-1.036916 C 5.462048,9.993582 5.064285,9.917996 4.685954,9.826763 l -0.06011,0.24889 c 0.386667,0.09323 0.792181,0.170277 1.21006,0.231207 z M 5.323687,9.565298 c 0.137471,0.229683 0.278514,0.459967 0.422977,0.684192 L 5.962015,10.11088 C 5.819611,9.889835 5.68014,9.662134 5.543494,9.433843 Z M 4.93753,8.859066 C 5.058707,9.091333 5.184358,9.329304 5.323292,9.564622 L 5.543889,9.434513 C 5.408624,9.205487 5.285653,8.972756 5.164587,8.74068 Z M 4.778852,9.986688 C 4.885982,9.615695 5.018507,9.231516 5.170208,8.846808 L 4.931918,8.752928 C 4.777616,9.144245 4.642394,9.536081 4.532779,9.915676 Z M 7.923415,4.197773 c 0.2679261,0.276766 0.5390401,0.58501 0.8038361,0.924706 L 8.9293051,4.965122 C 8.6586071,4.617852 8.3814621,4.302719 8.1075071,4.019741 Z M 7.313678,5.121883 C 7.575312,4.782199 7.843246,4.473968 8.1080181,4.197215 L 7.922894,4.020281 C 7.652154,4.303282 7.378209,4.618412 7.110715,4.965702 Z M 8.0250151,4.896705 c -0.2760681,0 -0.5522521,0.0065 -0.8189651,0.01921 l 0.01229,0.255722 c 0.262409,-0.01261 0.534492,-0.01893 0.8066621,-0.01893 z m 0.809421,0.01921 c -0.266674,-0.01279 -0.536474,-0.01921 -0.809421,-0.01921 v 0.256011 c 0.268935,0 0.534632,0.0065 0.797109,0.01892 z M 5.743012,5.757545 C 5.599432,5.983583 5.45456,6.214802 5.319035,6.453039 L 5.541709,6.579587 C 5.673931,6.347126 5.815948,6.12036 5.959245,5.894766 Z M 4.675075,6.179884 C 5.058067,6.091434 5.456133,6.012662 5.8694781,5.952845 l -0.0367,-0.253366 c -0.421786,0.06102 -0.826974,0.141272 -1.215357,0.230953 z M 5.1696691,7.167719 C 5.012092,6.780895 4.879587,6.393785 4.769107,6.018964 L 4.523402,6.091304 C 4.636055,6.473423 4.771308,6.868696 4.93246,7.264256 Z M 5.319405,6.452382 C 5.1844191,6.686499 5.0558411,6.923833 4.936862,7.158054 L 5.1652481,7.273951 C 5.282155,7.043816 5.408572,6.810459 5.541326,6.580222 Z M 3.2557893,9.362722 C 2.7458823,9.145147 2.3320241,8.897006 2.0480668,8.651718 1.7577833,8.40096 1.628202,8.175282 1.628202,8.00474 H 1.3720611 c 0,0.287449 0.2051173,0.578583 0.5085149,0.840681 0.3097124,0.267536 0.7485191,0.528257 1.2745926,0.752762 z M 4.060721,9.657548 C 3.77639,9.566138 3.5060509,9.468848 3.2555198,9.362602 L 3.1554716,9.598292 C 3.4149531,9.708316 3.6928531,9.808218 3.9822751,9.901269 Z M 4.554557,7.959495 C 4.284729,8.571638 4.06599,9.168493 3.8985331,9.743643 L 4.144462,9.815183 C 4.308515,9.251741 4.523274,8.665481 4.788955,8.062717 Z M 3.8921031,6.268822 C 4.059656,6.847532 4.281692,7.447724 4.554685,8.062985 L 4.788828,7.959201 C 4.519943,7.353185 4.302093,6.763913 4.138154,6.197668 Z M 3.2560454,6.646639 C 3.5024603,6.540815 3.772215,6.446825 4.05474,6.354975 L 3.97554,6.111521 C 3.690676,6.204121 3.4121763,6.300961 3.1549707,6.411419 Z M 1.6282359,8.004736 c 0,-0.170755 0.1298629,-0.398053 0.4200054,-0.649474 C 2.3320833,7.109305 2.745724,6.861286 3.2551748,6.647018 L 3.1557828,6.411045 C 2.6292867,6.632486 2.1902627,6.893332 1.8804226,7.161817 1.5768962,7.42483 1.3720608,7.71751 1.3720608,8.004738 Z M 4.843975,13.535842 C 4.694913,13.450222 4.562132,13.224905 4.487797,12.849846 4.415057,12.482726 4.404777,12.002354 4.470567,11.454859 l -0.254314,-0.03056 c -0.06804,0.565668 -0.0592,1.074398 0.02023,1.475332 0.07784,0.392987 0.230374,0.714795 0.4797529,0.858168 z m 0.2707111,0.06248 c -0.12087,-0.0032 -0.2085471,-0.02571 -0.269342,-0.06169 l -0.130417,0.220297 c 0.111319,0.06593 0.246781,0.09383 0.393665,0.09741 z M 7.478899,12.264928 c -0.470852,0.436825 -0.924714,0.771953 -1.332312,0.997121 -0.409861,0.226446 -0.762963,0.336273 -1.034945,0.336273 v 0.256018 c 0.333632,0 0.731185,-0.131974 1.158852,-0.368277 0.429919,-0.237461 0.900451,-0.586153 1.382661,-1.033488 z M 6.2449791,10.974454 c 0.39824,0.544736 0.809946,1.039095 1.2288759,1.473172 L 7.658196,12.269874 C 7.248371,11.845238 6.844084,11.360012 6.451804,10.823414 Z m -1.782089,-0.269205 c 0.5796979,0.141389 1.210078,0.250452 1.871918,0.320969 l 0.02714,-0.254569 c -0.651421,-0.06945 -1.270536,-0.176628 -1.83836,-0.315118 z m 0.0075,0.749173 c 0.03119,-0.267691 0.08443,-0.552614 0.147805,-0.846572 l -0.250451,-0.05393 c -0.06414,0.297604 -0.119272,0.591521 -0.151827,0.870866 z m 7.1184179,-0.01506 c 0.06739,0.547504 0.05873,1.028748 -0.01256,1.396824 -0.07285,0.376216 -0.20436,0.601895 -0.351681,0.68715 l 0.128456,0.22158 c 0.24793,-0.143752 0.398528,-0.466715 0.474692,-0.860085 0.07773,-0.401642 0.08496,-0.911099 0.01531,-1.476745 z m -0.147802,-0.837859 c 0.06316,0.293177 0.113494,0.572647 0.147997,0.838668 l 0.254015,-0.03292 c -0.03564,-0.274648 -0.08732,-0.561296 -0.151623,-0.859683 z M 9.7213841,11.02306 c 0.6649519,-0.07052 1.2988609,-0.179595 1.8759939,-0.324359 l -0.06234,-0.248309 c -0.563995,0.141473 -1.185967,0.24865 -1.84066,0.318082 z m -1.128722,1.4175 c 0.411655,-0.433206 0.826629,-0.924272 1.219202,-1.470077 l -0.208085,-0.149432 c -0.385183,0.535531 -0.7925851,1.017678 -1.196942,1.443186 z m 2.3615369,1.141908 c -0.272202,0 -0.625418,-0.109189 -1.0352833,-0.334102 -0.4075826,-0.223633 -0.8614496,-0.556455 -1.3322866,-0.99011 l -0.173588,0.188278 c 0.482224,0.444173 0.952753,0.790438 1.382645,1.02623 0.4276649,0.234765 0.8251039,0.365718 1.1585329,0.365718 z m 0.268308,-0.05786 c -0.06177,0.03737 -0.147154,0.05786 -0.268308,0.05786 v 0.256018 c 0.146588,0 0.284304,-0.02417 0.401063,-0.09485 z m 1.568102,-4.161736 c -0.246371,0.105823 -0.516125,0.19981 -0.798646,0.291669 l 0.07921,0.243454 c 0.284853,-0.0926 0.563355,-0.189438 0.820584,-0.299897 z M 14.424912,8.002077 C 14.421388,8.172636 14.28813,8.400145 13.997028,8.651763 13.712071,8.897959 13.299046,9.146831 12.79112,9.36268 l 0.100186,0.235605 c 0.524959,-0.223058 0.962832,-0.484626 1.273273,-0.752867 0.30404,-0.262828 0.510486,-0.553715 0.516379,-0.837957 z m -1.627624,-1.35528 c 0.509848,0.217574 0.923768,0.465705 1.2077,0.711005 0.290336,0.250755 0.419815,0.476433 0.419815,0.646968 h 0.25614 c 0,-0.287439 -0.205042,-0.57857 -0.50844,-0.84067 C 13.86283,6.896563 13.423937,6.635839 12.897951,6.41134 Z M 11.987683,6.352463 c 0.285544,0.08766 0.555682,0.187943 0.81044,0.294663 l 0.099,-0.236134 C 12.635588,6.301439 12.357472,6.198158 12.062886,6.107721 Z m -0.49544,1.697551 C 11.762061,7.437866 11.980805,6.841015 12.148255,6.265866 L 11.90235,6.194316 c -0.164046,0.56343 -0.378806,1.149703 -0.644486,1.752466 z m 0.662444,1.690672 C 11.987168,9.161966 11.765131,8.561775 11.492152,7.946502 L 11.258,8.050299 c 0.268884,0.606018 0.486732,1.195294 0.650675,1.761538 z M 8.0249251,8.924431 c 0.510831,0 0.924946,-0.413914 0.924946,-0.924497 h -0.25615 c 0,0.369201 -0.299442,0.668478 -0.668808,0.668478 z M 7.099935,7.99993 c 0,0.510583 0.414114,0.924497 0.9249601,0.924497 V 8.668408 C 7.655516,8.668408 7.356079,8.369132 7.356079,7.99993 Z M 8.0249341,7.075422 C 7.51409,7.075422 7.099974,7.489338 7.099974,7.99993 h 0.256138 c 0,-0.369201 0.299443,-0.668489 0.6688221,-0.668489 z m 0.924946,0.924508 c 0,-0.510592 -0.414113,-0.924508 -0.924946,-0.924508 v 0.256019 c 0.369366,0 0.668806,0.299288 0.668806,0.668489 z"
     id="path2" />
  <defs
     id="defs9">
    <linearGradient
       id="linearGradient9"
       inkscape:collect="always">
      <stop
         style="stop-color:#ffdd55;stop-opacity:1"
         offset="0"
         id="stop10" />
      <stop
         style="stop-color:#bc5fd3;stop-opacity:1"
         offset="1"
         id="stop11" />
    </linearGradient>
    <linearGradient
       id="paint0_linear_730_39"
       x1="114.926"
       y1="15.7111"
       x2="25.079399"
       y2="121.972"
       gradientUnits="userSpaceOnUse"
       gradientTransform="matrix(0.12807007,0,0,0.12800817,-0.07119755,-0.16410398)">
      <stop
         stop-color="#D800BD"
         id="stop2" />
      <stop
         offset="0.408098"
         stop-color="#F92D7A"
         id="stop3" />
      <stop
         offset="0.590073"
         stop-color="#FF4A52"
         id="stop4" />
      <stop
         offset="1"
         stop-color="#FFB243"
         id="stop5" />
    </linearGradient>
    <linearGradient
       id="paint1_linear_730_39"
       x1="114.926"
       y1="15.7111"
       x2="6.6512413"
       y2="112.98392"
       gradientUnits="userSpaceOnUse"
       gradientTransform="matrix(0.12807008,0,0,0.12800817,-0.17149091,-0.16410398)">
      <stop
         stop-color="#D800BD"
         id="stop6" />
      <stop
         offset="0.408098"
         stop-color="#F92D7A"
         id="stop7" />
      <stop
         offset="0.590073"
         stop-color="#FF4A52"
         id="stop8" />
      <stop
         offset="1"
         stop-color="#FFB243"
         id="stop9" />
    </linearGradient>
    <linearGradient
       inkscape:collect="always"
       xlink:href="#linearGradient9"
       id="linearGradient11"
       x1="0.98286426"
       y1="14.25425"
       x2="14.943198"
       y2="1.863747"
       gradientUnits="userSpaceOnUse" />
  </defs>
  <path
     style="opacity:0.2;stroke-width:0.288889"
     d="m 11.739254,-17.889729 c -0.808889,0 -1.8681365,0.570942 -2.9402355,1.560677 -1.072099,-0.98339 -2.1313447,-1.548264 -2.9402338,-1.548264 v 0.650564 c 0.6098764,0 1.5121657,0.479197 2.4719188,1.354731 -0.410865,0.428251 -0.8248882,0.913629 -1.2164936,1.452908 -0.6644444,0.06979 -1.297003,0.177172 -1.8715711,0.319922 -0.067407,-0.291845 -0.1187278,-0.573894 -0.1540364,-0.843533 -0.1380247,-1.110279 0.031923,-1.97607 0.4299478,-2.204471 0.089877,-0.05393 0.2025983,-0.07617 0.3374132,-0.07617 v -0.650564 c -0.2471605,0 -0.4720773,0.05408 -0.66467,0.161935 -0.8281482,0.472662 -1.0142833,1.941269 -0.5873697,3.784332 -1.8328396,0.558312 -3.0237412,1.453031 -3.0237412,2.395182 0,0.945323 1.1974597,1.842863 3.0367187,2.398004 -0.4237035,1.849408 -0.234572,3.321263 0.5935762,3.793922 0.1925924,0.111029 0.4141237,0.161937 0.6612847,0.161937 0.8088889,0 1.8681354,-0.570943 2.9402344,-1.560679 1.072098,0.983392 2.1313455,1.548265 2.9402345,1.548265 0.247161,0 0.472078,-0.05408 0.66467,-0.161936 0.828148,-0.472663 1.014283,-1.941267 0.58737,-3.784332 1.829629,-0.555137 3.020356,-1.449858 3.020356,-2.395181 0,-0.945323 -1.197459,-1.843428 -3.036719,-2.398568 0.423704,-1.849409 0.234571,-3.321263 -0.593576,-3.793924 -0.191833,-0.11059 -0.412266,-0.160973 -0.655078,-0.161372 z m -0.0028,0.650564 v 0.0028 c 0.134815,0 0.243763,0.02542 0.336849,0.07617 0.401234,0.228401 0.574354,1.09137 0.43954,2.201649 -0.0321,0.272812 -0.08645,0.561493 -0.150651,0.856511 -0.577779,-0.139545 -1.206952,-0.247279 -1.868187,-0.317068 -0.398025,-0.539279 -0.8088015,-1.028043 -1.2260855,-1.456294 0.9583635,-0.880602 1.8586955,-1.362364 2.4685335,-1.363758 z m -2.9436205,1.823611 c 0.272839,0.279156 0.549077,0.590082 0.818707,0.932682 -0.26642,-0.01269 -0.536276,-0.01919 -0.809115,-0.01919 -0.276049,0 -0.552286,0.0065 -0.818706,0.01919 0.26642,-0.3426 0.539484,-0.653526 0.809114,-0.932682 z m 0.0096,1.564063 c 0.446173,0 0.889412,0.01927 1.3259555,0.05417 0.243951,0.345773 0.480954,0.716848 0.712066,1.107031 0.224692,0.380668 0.427152,0.767629 0.613324,1.157813 -0.186172,0.387012 -0.391668,0.777359 -0.609939,1.161198 -0.231111,0.393357 -0.465294,0.764079 -0.709245,1.109853 -0.4397525,0.03806 -0.8827785,0.05699 -1.3321615,0.05699 -0.446173,0 -0.889412,-0.01872 -1.3259548,-0.0536 -0.2439795,-0.345782 -0.480983,-0.716857 -0.7120944,-1.107042 -0.2246914,-0.380666 -0.4271517,-0.767628 -0.6133244,-1.157811 0.1829629,-0.390185 0.3884579,-0.780531 0.6099392,-1.161198 0.2311111,-0.393356 0.4652942,-0.764644 0.7092447,-1.110417 0.4397527,-0.03806 0.8827787,-0.05699 1.3321617,-0.05699 z m -2.1892644,0.148958 c -0.1444444,0.225228 -0.2889264,0.453623 -0.4237413,0.688368 -0.1348146,0.231572 -0.2632217,0.466387 -0.3819879,0.69796 -0.1604937,-0.390184 -0.2950332,-0.780317 -0.4073783,-1.157813 0.3883948,-0.08882 0.7926136,-0.168243 1.2131075,-0.228515 z m 4.3717019,0 c 0.417284,0.06027 0.821716,0.136735 1.206901,0.231901 -0.109136,0.374323 -0.243712,0.761209 -0.397786,1.14822 -0.121975,-0.231573 -0.247349,-0.466387 -0.385374,-0.69796 -0.134815,-0.231572 -0.279297,-0.460105 -0.423741,-0.682161 z m 1.84618,0.402864 c 0.292099,0.08882 0.567735,0.190625 0.827735,0.298481 1.04321,0.44094 1.717534,1.014728 1.717534,1.471528 -0.0096,0.453629 -0.683741,1.034325 -1.723741,1.472093 -0.25358,0.107854 -0.529642,0.203101 -0.815321,0.295094 -0.166913,-0.571 -0.388445,-1.164326 -0.661285,-1.773393 0.26963,-0.605896 0.488165,-1.195975 0.655078,-1.763803 z m -8.0668844,0.0034 c 0.1669137,0.571001 0.3884458,1.164326 0.6612849,1.773394 -0.2696296,0.605895 -0.4876006,1.195974 -0.6545139,1.763802 -0.2888889,-0.09199 -0.5653018,-0.190626 -0.8220919,-0.29848 -1.0432098,-0.440941 -1.7169705,-1.015291 -1.7169705,-1.472093 0,-0.4568 0.6737607,-1.036933 1.7169705,-1.471527 0.2535803,-0.107856 0.5296419,-0.203101 0.8153209,-0.295096 z m 4.0382379,0.60654 a 1.1555555,1.1555555 0 0 0 -1.155556,1.155555 1.1555555,1.1555555 0 0 0 1.155556,1.155556 1.1555555,1.1555555 0 0 0 1.155555,-1.155556 1.1555555,1.1555555 0 0 0 -1.155555,-1.155555 z m 2.9915805,1.937586 c 0.160493,0.390185 0.295596,0.780318 0.407942,1.157812 -0.385185,0.09199 -0.793178,0.171066 -1.213672,0.231337 0.144445,-0.225227 0.288927,-0.453622 0.423742,-0.688368 0.134815,-0.231573 0.260013,-0.466035 0.381988,-0.700781 z m -5.986546,0.0158 c 0.1219755,0.231572 0.247349,0.466388 0.3853734,0.697958 0.1380251,0.228402 0.2792969,0.456722 0.4237414,0.678777 C 6.1992703,-9.419878 5.794838,-9.496129 5.4096527,-9.588122 5.5187883,-9.962444 5.6533645,-10.34933 5.807439,-10.736343 Z m 6.560938,1.770008 c 0.0642,0.295019 0.115906,0.57728 0.151215,0.846918 0.138025,1.110281 -0.03249,1.976635 -0.430512,2.205037 -0.08988,0.05392 -0.202034,0.07617 -0.336849,0.07617 -0.609876,0 -1.511601,-0.479197 -2.4713545,-1.354733 0.410864,-0.428249 0.8248875,-0.913628 1.2164935,-1.452906 0.664444,-0.06979 1.296439,-0.177736 1.871007,-0.320486 z m -7.1223527,0.0062 c 0.5777777,0.139579 1.2069511,0.247875 1.8681856,0.317665 0.3980245,0.539277 0.8088016,1.027479 1.2260856,1.455728 -0.9597532,0.88188 -1.8620427,1.364324 -2.4719189,1.364324 -0.1348149,-0.0032 -0.2467967,-0.0288 -0.3334634,-0.07956 -0.401234,-0.228401 -0.5749189,-1.09137 -0.440104,-2.201648 0.032098,-0.272812 0.087017,-0.561493 0.1512151,-0.856512 z m 2.7444442,0.380859 c 0.266419,0.01268 0.53571,0.01918 0.80855,0.01918 0.276049,0 0.552287,-0.0065 0.818707,-0.01918 -0.26321,0.342602 -0.539485,0.653528 -0.809115,0.932684 -0.27284,-0.279156 -0.548512,-0.590082 -0.818142,-0.932684 z"
     id="path2-6" />
  <path
     style="stroke-width:5.0;fill:#e1145e;"
     class="st1"
     d="m 16.024627,-11.821477 c 0,-0.945323 -1.197284,-1.843063 -3.036544,-2.398203 0.423704,-1.849408 0.234321,-3.32132 -0.593827,-3.793982 -0.192592,-0.111028 -0.414074,-0.161784 -0.658025,-0.161784 v 0.650307 c 0.134815,0 0.243951,0.02538 0.337037,0.07613 0.401235,0.2284 0.574568,1.091246 0.439754,2.201525 -0.0321,0.272812 -0.08667,0.561484 -0.150865,0.856501 -0.577777,-0.139575 -1.206913,-0.24743 -1.868148,-0.317219 -0.398024,-0.539279 -0.8088885,-1.027802 -1.2261725,-1.456052 0.9597535,-0.881879 1.8617285,-1.364058 2.4716055,-1.364058 v -0.650306 0 c -0.808889,0 -1.8681485,0.571001 -2.9402475,1.560735 -1.072099,-0.98339 -2.1313575,-1.548046 -2.9402466,-1.548046 v 0.650306 c 0.6098765,0 1.511852,0.479007 2.4716046,1.354541 -0.410864,0.42825 -0.8249377,0.913601 -1.2165431,1.45288 -0.6644444,0.06979 -1.2967901,0.177644 -1.8713581,0.320395 -0.067407,-0.291846 -0.1187652,-0.574174 -0.1540737,-0.843813 -0.1380248,-1.110279 0.032098,-1.976297 0.4301231,-2.204697 0.089877,-0.05393 0.2022221,-0.07613 0.3370371,-0.07613 v -0.650307 0 c -0.2471605,0 -0.4718517,0.05393 -0.6644444,0.161784 -0.8281482,0.472661 -1.0143209,1.941402 -0.5874072,3.784465 -1.8328396,0.558312 -3.0237037,1.45288 -3.0237037,2.395031 0,0.945324 1.1972841,1.843063 3.036543,2.398203 -0.4237034,1.849409 -0.2343209,3.321321 0.5938273,3.793984 0.1925924,0.111028 0.4140734,0.161783 0.6612345,0.161783 0.8088888,0 1.8681482,-0.571 2.9402462,-1.560736 1.072099,0.983392 2.1313585,1.548045 2.9402475,1.548045 0.247161,0 0.471852,-0.05392 0.664444,-0.16178 0.828149,-0.472663 1.014321,-1.941403 0.587408,-3.784468 1.829629,-0.55514 3.020494,-1.449707 3.020494,-2.395031 z m -3.832593,-1.93823 c -0.109136,0.374323 -0.243951,0.761335 -0.398025,1.148346 -0.121975,-0.231572 -0.24716,-0.466317 -0.385185,-0.697889 -0.134815,-0.231573 -0.279259,-0.459973 -0.423704,-0.682029 0.417285,0.06027 0.821729,0.136405 1.206914,0.231572 z m -1.348148,3.099265 c -0.231111,0.393356 -0.465432,0.764508 -0.709383,1.11028 -0.4397525,0.03806 -0.8827155,0.0571 -1.3320985,0.0571 -0.446173,0 -0.889136,-0.01904 -1.3256786,-0.05392 -0.2439511,-0.345774 -0.4814816,-0.716927 -0.7125927,-1.107109 -0.2246917,-0.380667 -0.4269139,-0.76768 -0.6130866,-1.157863 0.1829629,-0.390184 0.3883949,-0.780368 0.6098762,-1.161035 0.2311111,-0.393356 0.4654326,-0.764507 0.7093831,-1.110279 0.4397526,-0.03806 0.8827156,-0.0571 1.3320986,-0.0571 0.446173,0 0.889135,0.01903 1.3256785,0.05392 0.243951,0.345773 0.481482,0.716924 0.712593,1.107107 0.224692,0.380667 0.426914,0.767679 0.613087,1.157863 -0.186173,0.387012 -0.391606,0.777195 -0.609877,1.161034 z m 0.950123,-0.380667 c 0.160494,0.390184 0.295309,0.780367 0.407655,1.157863 -0.385185,0.09199 -0.79284,0.1713 -1.213333,0.231571 0.144444,-0.225227 0.288889,-0.453628 0.423703,-0.688373 0.134815,-0.231572 0.26,-0.466316 0.381975,-0.701061 z m -2.9851845,3.10561 c -0.27284,-0.279156 -0.548889,-0.590035 -0.818519,-0.932634 0.26642,0.01268 0.536049,0.01904 0.808889,0.01904 0.276049,0 0.552099,-0.0064 0.818519,-0.01904 -0.263211,0.342599 -0.53926,0.653478 -0.808889,0.932634 z M 6.6164784,-9.648503 c -0.4172835,-0.06027 -0.821728,-0.136405 -1.2069132,-0.228399 0.1091355,-0.374322 0.2439498,-0.761334 0.3980243,-1.148346 0.1219755,0.231573 0.2471609,0.466318 0.3851854,0.697891 0.138025,0.228398 0.279259,0.456799 0.4237035,0.678854 z m 2.1762961,-6.055778 c 0.272839,0.279156 0.548889,0.590034 0.818519,0.932634 -0.26642,-0.01269 -0.53605,-0.01903 -0.808889,-0.01903 -0.27605,0 -0.552099,0.0063 -0.818519,0.01903 0.26642,-0.342601 0.539259,-0.653479 0.808889,-0.932635 z m -2.1795057,1.713002 c -0.1444444,0.225228 -0.2888889,0.453628 -0.4237038,0.688373 -0.1348146,0.231572 -0.2632095,0.466317 -0.3819755,0.697889 -0.1604939,-0.390183 -0.2953087,-0.780367 -0.4076539,-1.157862 0.3883948,-0.08882 0.7928393,-0.168128 1.2133332,-0.2284 z m -2.6641975,3.644887 c -1.0432098,-0.440939 -1.7172841,-1.015111 -1.7172841,-1.471913 0,-0.4568 0.6740743,-1.037318 1.7172841,-1.471912 0.2535803,-0.107856 0.5296295,-0.203023 0.8153085,-0.295017 0.1669137,0.571 0.3883952,1.164207 0.6612343,1.773274 -0.2696295,0.605895 -0.487901,1.195929 -0.6548143,1.763759 -0.2888889,-0.092 -0.5649384,-0.190335 -0.8217285,-0.298191 z m 1.5856784,4.155617 c -0.401234,-0.228401 -0.5745674,-1.091246 -0.4397525,-2.201524 0.032099,-0.272812 0.086667,-0.561484 0.1508645,-0.856503 0.5777776,0.139579 1.2069132,0.247436 1.8681477,0.317223 0.3980245,0.53928 0.8088891,1.027803 1.2261731,1.456052 -0.9597531,0.881879 -1.8617286,1.364058 -2.4716048,1.364058 -0.1348149,-0.0032 -0.2471614,-0.02854 -0.333828,-0.07931 z m 6.9846923,-2.217387 c 0.138024,1.110281 -0.0321,1.976298 -0.430124,2.204699 -0.08988,0.05392 -0.202222,0.07613 -0.337037,0.07613 -0.609876,0 -1.511852,-0.479007 -2.4716045,-1.354542 0.410863,-0.428249 0.8249375,-0.913603 1.2165435,-1.45288 0.664444,-0.06979 1.296789,-0.177644 1.871357,-0.320395 0.0642,0.295019 0.115556,0.577347 0.150865,0.846984 z m 1.133086,-1.93823 c -0.25358,0.107856 -0.52963,0.203022 -0.815309,0.295019 -0.166913,-0.571002 -0.388395,-1.164208 -0.661234,-1.773276 0.269629,-0.605895 0.487901,-1.195929 0.654815,-1.763757 0.292098,0.08882 0.568148,0.190333 0.828147,0.298189 1.043211,0.44094 1.717285,1.015112 1.717285,1.471912 -0.0096,0.453629 -0.683704,1.034147 -1.723704,1.471913 z"
     id="path3" />
  <circle
     style="fill:#ffffff;stroke-width:0.288889"
     class="st2"
     cx="8.8024044"
     cy="-11.823066"
     r="1.1555555"
     id="circle3" />
  <path
     style="stroke-width:5.0;fill:#ffffff;opacity:0.2;"
     d="m 11.739254,-18.178618 c -0.808889,0 -1.8681365,0.570942 -2.9402355,1.560677 -1.072099,-0.98339 -2.1313447,-1.548264 -2.9402338,-1.548264 v 0.288889 c 0.8088891,0 1.8681348,0.564874 2.9402338,1.548264 1.072099,-0.989735 2.1313465,-1.560677 2.9402355,-1.560677 v 0.0034 c 0.242812,4.04e-4 0.463245,0.05078 0.655078,0.161371 0.500481,0.285648 0.765601,0.93796 0.805165,1.816276 0.0091,-1.021907 -0.252063,-1.789484 -0.805165,-2.105165 -0.191833,-0.11059 -0.412266,-0.160972 -0.655078,-0.161371 z m -5.8832906,0.0158 c -0.2471605,0 -0.4720773,0.05408 -0.6646699,0.161936 -0.5518977,0.314993 -0.812125,1.078151 -0.8023438,2.09388 0.039131,-0.872166 0.3033064,-1.520168 0.8023438,-1.804991 0.1925926,-0.107856 0.4175094,-0.161936 0.6646699,-0.161936 z m 3.5608941,2.157075 c -0.04976,0.04386 -0.09884,0.08429 -0.148958,0.130338 0.417284,0.428251 0.8280605,0.917015 1.2260855,1.456294 0.661235,0.06979 1.290408,0.177522 1.868185,0.3171 0.0642,-0.295017 0.118555,-0.583699 0.150651,-0.85651 0.03765,-0.310108 0.04874,-0.597955 0.04006,-0.861024 -0.0047,0.182316 -0.01568,0.371345 -0.04006,0.572135 -0.0321,0.272811 -0.08645,0.561492 -0.150651,0.856509 -0.577777,-0.139577 -1.20695,-0.247311 -1.868185,-0.3171 -0.350498,-0.474885 -0.7111015,-0.908074 -1.0771275,-1.297743 z m -1.235113,0.0045 c -0.361716,0.388716 -0.7231094,0.818922 -1.0675346,1.293229 -0.6644444,0.06979 -1.297003,0.177172 -1.8715711,0.319922 -0.067407,-0.291845 -0.1187278,-0.573894 -0.1540364,-0.843533 -0.025699,-0.206721 -0.036901,-0.401251 -0.041753,-0.588498 -0.00887,0.267676 0.00241,0.560908 0.041753,0.877387 0.035309,0.269639 0.086629,0.551688 0.1540364,0.843533 0.5745681,-0.14275 1.2071267,-0.250133 1.8715711,-0.319922 0.3916054,-0.539279 0.8056286,-1.024657 1.2164936,-1.452908 -0.05004,-0.04565 -0.09927,-0.08573 -0.148959,-0.12921 z m 0.62066,1.210286 c -0.194244,0 -0.385197,0.0073 -0.576085,0.01354 -0.08101,0.09728 -0.162511,0.191513 -0.242622,0.294532 0.26642,-0.01269 0.542657,-0.01919 0.818707,-0.01919 0.272839,0 0.542694,0.0065 0.809114,0.01919 -0.08112,-0.103076 -0.163985,-0.197199 -0.246006,-0.294532 -0.186777,-0.0061 -0.373223,-0.01354 -0.563108,-0.01354 z m 4.2379775,0.589063 c -0.01818,0.09088 -0.0312,0.177968 -0.05247,0.270833 1.747078,0.527317 2.912761,1.364235 3.025435,2.256945 0.0064,-0.04895 0.01128,-0.098 0.01128,-0.147266 0,-0.935895 -1.176061,-1.824172 -2.984245,-2.380512 z m -8.4894965,0.0034 c -1.8014429,0.559367 -2.970703,1.444489 -2.970703,2.377126 0,0.04738 0.00534,0.09452 0.011285,0.141624 0.1165903,-0.88743 1.2754422,-1.718795 3.0124565,-2.247917 -0.02149,-0.09278 -0.034659,-0.180032 -0.053039,-0.270833 z m 2.0622828,0.495963 c -0.067335,0.0097 -0.1315349,0.0227 -0.1980469,0.03329 -0.075744,0.121804 -0.153953,0.241271 -0.2256945,0.366189 -0.1348146,0.231572 -0.2632216,0.466388 -0.3819879,0.69796 -0.1226593,-0.298202 -0.2258275,-0.59444 -0.3199215,-0.886979 -0.028713,0.0064 -0.058917,0.01153 -0.087457,0.01806 0.1123451,0.377495 0.2468846,0.767629 0.4073783,1.157812 0.1187662,-0.231572 0.2471733,-0.466388 0.3819879,-0.69796 0.1348149,-0.234745 0.2792969,-0.46314 0.4237414,-0.688368 z m 4.3717017,0 c 0.144445,0.222056 0.288926,0.450589 0.423741,0.682162 0.138025,0.231572 0.263399,0.466387 0.385374,0.69796 0.154074,-0.387012 0.28865,-0.773898 0.397786,-1.148221 -0.0281,-0.0069 -0.05802,-0.01188 -0.08633,-0.01862 -0.09225,0.289515 -0.193959,0.582811 -0.311458,0.877953 -0.121975,-0.231573 -0.247349,-0.466388 -0.385374,-0.69796 -0.07113,-0.122177 -0.148363,-0.240039 -0.223437,-0.359983 -0.06718,-0.01066 -0.132421,-0.02348 -0.200304,-0.03329 z m 1.253168,2.021658 c -0.021,0.04848 -0.0404,0.09632 -0.06207,0.145009 0.27284,0.609068 0.494372,1.202393 0.661285,1.773394 0.285679,-0.09199 0.561741,-0.187241 0.815321,-0.295095 1.040001,-0.437768 1.714113,-1.018464 1.723741,-1.472093 0,-0.04862 -0.0094,-0.09855 -0.02426,-0.149522 -0.124875,0.428887 -0.762749,0.938428 -1.699479,1.332727 -0.25358,0.107853 -0.529642,0.2031 -0.815321,0.295094 -0.153674,-0.525709 -0.355541,-1.071111 -0.599219,-1.629514 z m -0.857074,0.0039 c -0.167157,0.339516 -0.345986,0.680579 -0.537153,1.016754 -0.231111,0.393357 -0.465294,0.76408 -0.709245,1.109854 -0.4397525,0.03806 -0.8827785,0.05699 -1.3321615,0.05699 -0.446173,0 -0.889412,-0.01872 -1.3259551,-0.0536 -0.243951,-0.345771 -0.4809546,-0.716846 -0.712066,-1.10703 -0.1969315,-0.333636 -0.3743691,-0.672684 -0.5411022,-1.013932 -0.0234,0.04843 -0.049502,0.09656 -0.072222,0.145009 0.1861727,0.390183 0.388633,0.777145 0.6133244,1.157811 0.2311114,0.390185 0.468115,0.76126 0.712066,1.107031 0.4365431,0.03489 0.8797821,0.0536 1.3259551,0.0536 0.449383,0 0.892409,-0.01892 1.3321613,-0.05699 0.243951,-0.345774 0.478134,-0.716496 0.709245,-1.109853 0.218271,-0.383839 0.423766,-0.774186 0.609939,-1.161198 -0.02309,-0.0484 -0.04919,-0.09615 -0.07279,-0.144445 z m -9.1265194,0.0028 c -0.013853,0.04916 -0.022569,0.09759 -0.022569,0.144445 0,0.456801 0.6737607,1.031152 1.7169705,1.472093 0.2567901,0.107854 0.533203,0.206486 0.8220919,0.29848 0.1669134,-0.567828 0.3848843,-1.157908 0.6545139,-1.763802 -0.021621,-0.04827 -0.040528,-0.09582 -0.061502,-0.14388 -0.2404097,0.554892 -0.4394934,1.096533 -0.5930119,1.618793 -0.2888889,-0.09199 -0.5653018,-0.190626 -0.8220919,-0.29848 -0.9363513,-0.395774 -1.573324,-0.898416 -1.6944015,-1.327649 z m 9.8600264,1.809507 c -0.2978,0.06907 -0.609129,0.12868 -0.928169,0.179426 -0.06659,0.107088 -0.130468,0.216805 -0.198047,0.322178 0.420494,-0.06027 0.828487,-0.139343 1.213672,-0.231337 -0.02643,-0.0888 -0.0585,-0.180232 -0.08746,-0.270267 z m -6.6184899,0.0062 c -0.028706,0.09009 -0.060429,0.181437 -0.086328,0.27027 0.3851853,0.09199 0.7896176,0.168243 1.2069011,0.228514 -0.06859,-0.10535 -0.1342913,-0.214464 -0.2014328,-0.322086 -0.3152081,-0.04997 -0.6229765,-0.108149 -0.9191403,-0.176607 z m 7.5613279,0.703037 c -0.01838,0.0057 -0.03453,0.01245 -0.05304,0.01806 0.142391,0.614729 0.210062,1.181515 0.214974,1.689887 0.02251,-0.50221 -0.03527,-1.082088 -0.161936,-1.707943 z m -8.4928819,0.0034 c -0.1250129,0.625034 -0.1817044,1.204323 -0.1591145,1.70625 0.00454,-0.508124 0.070885,-1.074609 0.2115886,-1.688758 -0.018288,-0.0055 -0.034313,-0.0119 -0.052474,-0.01748 z m 3.4260414,0.572699 c 0.26963,0.342602 0.545302,0.653528 0.818142,0.932684 0.26963,-0.279156 0.545905,-0.590082 0.809115,-0.932684 -0.07858,0.0038 -0.161479,0.003 -0.241493,0.0056 -0.188358,0.226504 -0.378952,0.442919 -0.567622,0.638254 -0.190839,-0.195257 -0.382014,-0.411854 -0.572699,-0.638149 -0.08146,-0.0026 -0.164571,-0.0017 -0.245443,-0.0056 z m 4.5708775,1.048352 c -0.02223,0.671476 -0.187672,1.164338 -0.472266,1.327647 -0.08988,0.05392 -0.202034,0.07617 -0.336849,0.07617 -0.57812,0 -1.419488,-0.434934 -2.3229605,-1.225522 -0.0495,0.0532 -0.09894,0.108131 -0.148394,0.159678 0.9597535,0.875535 1.8614785,1.354733 2.4713545,1.354733 0.134815,0 0.246973,-0.02225 0.336849,-0.07617 0.323957,-0.185895 0.493521,-0.797952 0.472266,-1.616536 z m -7.5065976,0.0034 c -0.020621,0.823804 0.1520194,1.438768 0.4801648,1.625563 0.086667,0.05076 0.1986485,0.07638 0.3334634,0.07956 0.6098762,0 1.5121657,-0.482441 2.4719189,-1.364321 -0.049785,-0.05109 -0.099367,-0.105759 -0.148959,-0.158551 C 7.2880216,-6.54927 6.446408,-6.111343 5.8683766,-6.111343 5.7335617,-6.114543 5.6215799,-6.140143 5.5349132,-6.190903 5.2463201,-6.355182 5.0776766,-6.850858 5.0547484,-7.527578 Z"
     id="path5" />
</svg>
