<?xml version="1.0" encoding="UTF-8" standalone="no"?>
<svg
   width="16"
   height="16"
   viewBox="0 0 16 16"
   fill="none"
   version="1.1"
   id="svg21"
   sodipodi:docname="goa-account-nextcloud.svg"
   inkscape:version="1.3.1 (91b66b0783, 2023-11-16)"
   xmlns:inkscape="http://www.inkscape.org/namespaces/inkscape"
   xmlns:sodipodi="http://sodipodi.sourceforge.net/DTD/sodipodi-0.dtd"
   xmlns:xlink="http://www.w3.org/1999/xlink"
   xmlns="http://www.w3.org/2000/svg"
   xmlns:svg="http://www.w3.org/2000/svg">
  <sodipodi:namedview
     id="namedview21"
     pagecolor="#ffffff"
     bordercolor="#000000"
     borderopacity="0.25"
     inkscape:showpageshadow="2"
     inkscape:pageopacity="0.0"
     inkscape:pagecheckerboard="0"
     inkscape:deskcolor="#d1d1d1"
     inkscape:zoom="24.090573"
     inkscape:cx="6.392542"
     inkscape:cy="3.3415561"
     inkscape:window-width="1920"
     inkscape:window-height="994"
     inkscape:window-x="0"
     inkscape:window-y="0"
     inkscape:window-maximized="1"
     inkscape:current-layer="svg21"
     showgrid="false">
    <inkscape:grid
       id="grid1"
       units="px"
       originx="0"
       originy="0"
       spacingx="1"
       spacingy="1"
       empcolor="#0099e5"
       empopacity="0.30196078"
       color="#0099e5"
       opacity="0.14901961"
       empspacing="5"
       dotted="false"
       gridanglex="30"
       gridanglez="30"
       visible="false" />
  </sodipodi:namedview>
  <defs
     id="defs21">
    <clipPath
       id="clip0">
      <rect
         width="64"
         height="64"
         fill="#ffffff"
         id="rect21"
         x="0"
         y="0" />
    </clipPath>
    <linearGradient
       inkscape:collect="always"
       xlink:href="#linearGradient22"
       id="linearGradient24"
       x1="0"
       y1="8"
       x2="16"
       y2="8"
       gradientUnits="userSpaceOnUse"
       gradientTransform="matrix(0.84380612,0,0,0.83499995,1.2495508,1.3698493)" />
    <linearGradient
       id="linearGradient22"
       inkscape:collect="always">
      <stop
         style="stop-color:#5252ff;stop-opacity:1;"
         offset="0"
         id="stop23" />
      <stop
         style="stop-color:#ff55ff;stop-opacity:1;"
         offset="1"
         id="stop24" />
    </linearGradient>
    <linearGradient
       inkscape:collect="always"
       xlink:href="#linearGradient22"
       id="linearGradient2"
       x1="2.6969972"
       y1="3.1379106"
       x2="13.303002"
       y2="3.1379106"
       gradientUnits="userSpaceOnUse"
       gradientTransform="matrix(1.1657814,0.01896465,-0.01916466,1.153615,-1.2459882,-0.30442736)" />
    <linearGradient
       inkscape:collect="always"
       xlink:href="#linearGradient22"
       id="linearGradient1"
       gradientUnits="userSpaceOnUse"
       gradientTransform="matrix(-1.1657814,-0.01896465,0.01916466,-1.153615,17.245988,16.404124)"
       x1="2.6969972"
       y1="3.1379106"
       x2="13.303002"
       y2="3.1379106" />
  </defs>
  <path
     class="ColorScheme-Text"
     fill-rule="evenodd"
     d="m 7.9999996,6.7138492 c 0.7456343,0 1.35009,0.5981468 1.35009,1.3359996 0,0.7378527 -0.6044557,1.3359998 -1.35009,1.3359998 -0.7456341,0 -1.3500896,-0.5981471 -1.3500896,-1.3359998 0,-0.7378528 0.6044555,-1.3359996 1.3500896,-1.3359996 z m -4.725314,0.6679997 c 0.3728171,0 0.6750447,0.2990738 0.6750447,0.6679999 0,0.3689253 -0.3022276,0.668 -0.6750447,0.668 -0.3728173,0 -0.6750448,-0.2990747 -0.6750448,-0.668 0,-0.3689261 0.3022275,-0.6679999 0.6750448,-0.6679999 z m 4.725314,-2.004 c -1.491268,0 -2.7001796,1.1962953 -2.7001796,2.6719999 v 0 c 0,1.4757046 1.2089116,2.6720032 2.7001796,2.6720032 1.4912679,0 2.7001814,-1.1962986 2.7001814,-2.6720032 v 0 c 0,-1.4757046 -1.2089135,-2.6719999 -2.7001814,-2.6719999 z m -4.725314,0.6679999 c -1.1184508,0 -2.0251348,0.8972211 -2.0251348,2.004 0,1.1067791 0.906684,2.0040002 2.0251348,2.0040002 1.1184514,0 2.0251344,-0.8972211 2.0251344,-2.0040002 v 0 c 0,-1.1067789 -0.906683,-2.004 -2.0251344,-2.004 z m 9.4506264,1.3360001 c 0.372814,0 0.675053,0.2990738 0.675053,0.6679999 0,0.3689253 -0.302239,0.668 -0.675053,0.668 -0.372818,0 -0.675039,-0.2990747 -0.675039,-0.668 0,-0.3689261 0.302221,-0.6679999 0.675039,-0.6679999 z m 0,-1.3360001 c -1.118452,0 -2.025131,0.8972211 -2.025131,2.004 v 0 c 0,1.1067791 0.906679,2.0040002 2.025131,2.0040002 1.118452,0 2.025139,-0.8972211 2.025139,-2.0040002 0,-1.1067789 -0.906687,-2.004 -2.025139,-2.004 z"
     id="path22"
     style="color:#d5c289;isolation:isolate;fill:url(#linearGradient24);fill-opacity:1;stroke-width:0.839395" />
  <path
     d="M 4.6335952,3.6835654 C 7.4596123,2.075108 10.989571,2.6958364 13.0795,5.093323 c 0.213343,0.2447032 0.578086,0.2905558 0.842538,0.1009041 l 5.83e-4,-3.97e-4 C 14.216836,4.9828094 14.27305,4.564834 14.036018,4.2920719 11.557473,1.4396602 7.3645569,0.69892564 4.0089222,2.6088199 3.2323118,3.0508363 2.5479878,3.6076105 1.9674626,4.2690552 1.7278943,4.5420068 1.7802487,4.9620528 2.0752256,5.1753709 2.3372447,5.364846 2.7011818,5.3239652 2.9140488,5.0815759 3.4030483,4.5247782 3.9795726,4.0558095 4.6335952,3.6835654 Z"
     id="path3"
     style="fill:url(#linearGradient2);fill-opacity:1;stroke-width:0.3116"
     inkscape:transform-center-x="-4.3371822"
     inkscape:transform-center-y="-0.8158186" />
  <path
     d="M 11.366406,12.416134 C 8.5403867,14.024589 5.0104262,13.403862 2.9204971,11.006372 2.7071541,10.761671 2.3424148,10.715816 2.0779643,10.905467 l -5.893e-4,3.98e-4 c -0.2942117,0.211023 -0.3504239,0.629004 -0.1133939,0.901761 2.4785453,2.852411 6.6714613,3.593142 10.0270939,1.683251 0.776618,-0.44202 1.460936,-0.998794 2.041462,-1.660236 0.239574,-0.272952 0.18721,-0.693 -0.107758,-0.906317 -0.262029,-0.189469 -0.625957,-0.148594 -0.83883,0.09381 -0.488999,0.556793 -1.065522,1.025761 -1.719543,1.398006 z"
     id="path3-6"
     style="fill:url(#linearGradient1);fill-opacity:1;stroke-width:0.3116"
     inkscape:transform-center-x="4.337181"
     inkscape:transform-center-y="0.81581699" />
</svg>
