<?xml version="1.0" encoding="UTF-8" standalone="no"?>
<svg
   width="16"
   height="16"
   version="1.1"
   id="svg23"
   sodipodi:docname="conky-manager2.svg"
   inkscape:version="1.3.2 (091e20ef0f, 2023-11-25)"
   xmlns:inkscape="http://www.inkscape.org/namespaces/inkscape"
   xmlns:sodipodi="http://sodipodi.sourceforge.net/DTD/sodipodi-0.dtd"
   xmlns:xlink="http://www.w3.org/1999/xlink"
   xmlns="http://www.w3.org/2000/svg"
   xmlns:svg="http://www.w3.org/2000/svg">
  <sodipodi:namedview
     id="namedview23"
     pagecolor="#ffffff"
     bordercolor="#000000"
     borderopacity="0.25"
     inkscape:showpageshadow="2"
     inkscape:pageopacity="0.0"
     inkscape:pagecheckerboard="0"
     inkscape:deskcolor="#d1d1d1"
     inkscape:zoom="23.96875"
     inkscape:cx="12.265971"
     inkscape:cy="3.9843546"
     inkscape:window-width="1920"
     inkscape:window-height="994"
     inkscape:window-x="0"
     inkscape:window-y="0"
     inkscape:window-maximized="1"
     inkscape:current-layer="svg23" />
  <defs
     id="defs22">
    <style
       id="current-color-scheme"
       type="text/css">
   .ColorScheme-Text { color:#d5c289; } .ColorScheme-Highlight { color:#5294e2; }
  </style>
    <linearGradient
       id="arrongin"
       x1="0%"
       x2="0%"
       y1="0%"
       y2="100%">
      <stop
         offset="0%"
         style="stop-color:#dd9b44; stop-opacity:1"
         id="stop1" />
      <stop
         offset="100%"
         style="stop-color:#ad6c16; stop-opacity:1"
         id="stop2" />
    </linearGradient>
    <linearGradient
       id="aurora"
       x1="0%"
       x2="0%"
       y1="0%"
       y2="100%">
      <stop
         offset="0%"
         style="stop-color:#09D4DF; stop-opacity:1"
         id="stop3" />
      <stop
         offset="100%"
         style="stop-color:#9269F4; stop-opacity:1"
         id="stop4" />
    </linearGradient>
    <linearGradient
       id="fitdance"
       x1="0%"
       x2="0%"
       y1="0%"
       y2="100%">
      <stop
         offset="0%"
         style="stop-color:#1AD6AB; stop-opacity:1"
         id="stop5" />
      <stop
         offset="100%"
         style="stop-color:#329DB6; stop-opacity:1"
         id="stop6" />
    </linearGradient>
    <linearGradient
       id="oomox"
       x1="0%"
       x2="0%"
       y1="0%"
       y2="100%">
      <stop
         offset="0%"
         style="stop-color:#303b3d; stop-opacity:1"
         id="stop7" />
      <stop
         offset="100%"
         style="stop-color:#bc985d; stop-opacity:1"
         id="stop8" />
    </linearGradient>
    <linearGradient
       id="rainblue"
       x1="0%"
       x2="0%"
       y1="0%"
       y2="100%">
      <stop
         offset="0%"
         style="stop-color:#00F260; stop-opacity:1"
         id="stop9" />
      <stop
         offset="100%"
         style="stop-color:#0575E6; stop-opacity:1"
         id="stop10" />
    </linearGradient>
    <linearGradient
       id="sunrise"
       x1="0%"
       x2="0%"
       y1="0%"
       y2="100%">
      <stop
         offset="0%"
         style="stop-color: #FF8501; stop-opacity:1"
         id="stop11" />
      <stop
         offset="100%"
         style="stop-color: #FFCB01; stop-opacity:1"
         id="stop12" />
    </linearGradient>
    <linearGradient
       id="telinkrin"
       x1="0%"
       x2="0%"
       y1="0%"
       y2="100%">
      <stop
         offset="0%"
         style="stop-color: #b2ced6; stop-opacity:1"
         id="stop13" />
      <stop
         offset="100%"
         style="stop-color: #6da5b7; stop-opacity:1"
         id="stop14" />
    </linearGradient>
    <linearGradient
       id="60spsycho"
       x1="0%"
       x2="0%"
       y1="0%"
       y2="100%">
      <stop
         offset="0%"
         style="stop-color: #df5940; stop-opacity:1"
         id="stop15" />
      <stop
         offset="25%"
         style="stop-color: #d8d15f; stop-opacity:1"
         id="stop16" />
      <stop
         offset="50%"
         style="stop-color: #e9882a; stop-opacity:1"
         id="stop17" />
      <stop
         offset="100%"
         style="stop-color: #279362; stop-opacity:1"
         id="stop18" />
    </linearGradient>
    <linearGradient
       id="90ssummer"
       x1="0%"
       x2="0%"
       y1="0%"
       y2="100%">
      <stop
         offset="0%"
         style="stop-color: #f618c7; stop-opacity:1"
         id="stop19" />
      <stop
         offset="20%"
         style="stop-color: #94ffab; stop-opacity:1"
         id="stop20" />
      <stop
         offset="50%"
         style="stop-color: #fbfd54; stop-opacity:1"
         id="stop21" />
      <stop
         offset="100%"
         style="stop-color: #0f83ae; stop-opacity:1"
         id="stop22" />
    </linearGradient>
    <linearGradient
       id="h"
       gradientUnits="userSpaceOnUse"
       x1="19.707001"
       x2="28.261999"
       y1="11.818"
       y2="11.818">
      <stop
         offset="0"
         stop-color="#f88e18"
         id="stop15-9" />
      <stop
         offset="1"
         stop-color="#ff2400"
         id="stop16-2" />
    </linearGradient>
    <linearGradient
       id="a"
       gradientUnits="userSpaceOnUse"
       x1="29.052"
       x2="36.724998"
       y1="15.094"
       y2="15.094">
      <stop
         offset="0"
         stop-color="#dc2c2e"
         id="stop1-0" />
      <stop
         offset="1"
         stop-color="#f60073"
         id="stop2-6" />
    </linearGradient>
    <linearGradient
       id="g"
       gradientUnits="userSpaceOnUse"
       x1="29.077"
       x2="36.754002"
       y1="32.889"
       y2="32.889">
      <stop
         offset="0"
         stop-color="#c66dfb"
         id="stop13-8" />
      <stop
         offset="1"
         stop-color="#a000ff"
         stop-opacity=".995"
         id="stop14-9" />
    </linearGradient>
    <linearGradient
       id="f"
       gradientUnits="userSpaceOnUse"
       x1="33.811001"
       x2="38.550999"
       y1="23.986"
       y2="23.986">
      <stop
         offset="0"
         stop-color="#de28b1"
         id="stop11-2" />
      <stop
         offset="1"
         stop-color="#fc00ff"
         stop-opacity=".823"
         id="stop12-6" />
    </linearGradient>
    <linearGradient
       id="e"
       gradientUnits="userSpaceOnUse"
       x1="11.256"
       x2="18.926001"
       y1="15.111"
       y2="15.111">
      <stop
         offset="0"
         stop-color="#e5d717"
         id="stop9-6" />
      <stop
         offset="1"
         stop-color="#ff7b00"
         stop-opacity=".932"
         id="stop10-4" />
    </linearGradient>
    <linearGradient
       id="d"
       gradientUnits="userSpaceOnUse"
       x1="19.736"
       x2="28.292"
       y1="36.181"
       y2="36.181">
      <stop
         offset="0"
         stop-color="#20b9ce"
         id="stop7-9" />
      <stop
         offset="1"
         stop-color="#00ffcd"
         id="stop8-5" />
    </linearGradient>
    <linearGradient
       id="c"
       gradientUnits="userSpaceOnUse"
       x1="11.275"
       x2="18.948999"
       y1="32.908001"
       y2="32.908001">
      <stop
         offset="0"
         stop-color="#20c145"
         id="stop5-0" />
      <stop
         offset="1"
         stop-color="#17ff00"
         stop-opacity=".923"
         id="stop6-4" />
    </linearGradient>
    <linearGradient
       id="b"
       gradientUnits="userSpaceOnUse"
       x1="9.4460001"
       x2="14.189"
       y1="24.014"
       y2="24.014">
      <stop
         offset="0"
         stop-color="#a2d620"
         id="stop3-8" />
      <stop
         offset="1"
         stop-color="#f4ff00"
         stop-opacity=".923"
         id="stop4-7" />
    </linearGradient>
    <linearGradient
       inkscape:collect="always"
       xlink:href="#linearGradient1"
       id="linearGradient20"
       x1="-85.992996"
       y1="17.074741"
       x2="-62.64703"
       y2="17.074741"
       gradientUnits="userSpaceOnUse" />
    <linearGradient
       id="linearGradient1"
       inkscape:collect="always">
      <stop
         style="stop-color:#008080;stop-opacity:1"
         offset="0"
         id="stop19-1" />
      <stop
         style="stop-color:#00ccff;stop-opacity:1"
         offset="1"
         id="stop20-7" />
    </linearGradient>
  </defs>
  <g
     fill="none"
     stroke-linecap="round"
     stroke-linejoin="round"
     id="g26"
     transform="matrix(0.31170728,0,0,0.31170728,0.58689498,0.58692598)">
    <g
       stroke="#000000"
       stroke-width="1.047"
       id="g25">
      <path
         d="m 23.938,9.971 a 13.954,13.954 0 0 0 -3.708,0.52 l 1.319,3.174 a 10.534,10.534 0 0 1 4.88,-0.003 l 1.31,-3.178 a 13.948,13.948 0 0 0 -3.8,-0.512 z"
         stroke="url(#h)"
         transform="matrix(1.433,0,0,1.433,-10.608,-10.609)"
         id="path18"
         style="stroke:url(#h)" />
      <path
         stroke="url(#a)"
         transform="matrix(1.433,0,0,1.433,-10.608,-10.609)"
         id="path19"
         d=""
         style="stroke:url(#a)" />
      <path
         d="M 36.224,30.89 33.046,29.575 A 10.553,10.553 0 0 1 29.6,33.031 l 1.319,3.171 a 13.953,13.953 0 0 0 5.305,-5.312 m 0,0"
         stroke="url(#g)"
         transform="matrix(1.433,0,0,1.433,-10.608,-10.609)"
         id="path20"
         style="stroke:url(#g)" />
      <path
         d="m 37.508,20.232 -3.174,1.317 c 0.373,1.57 0.395,3.24 0.008,4.88 l 3.176,1.312 c 0.701,-2.52 0.661,-5.114 -0.011,-7.51 z"
         stroke="url(#f)"
         transform="matrix(1.433,0,0,1.433,-10.608,-10.609)"
         id="path21"
         style="stroke:url(#f)" />
      <path
         d="m 17.084,11.798 a 13.968,13.968 0 0 0 -5.305,5.318 l 3.178,1.309 a 10.5,10.5 0 0 1 3.445,-3.45 l -1.318,-3.176 z"
         stroke="url(#e)"
         transform="matrix(1.433,0,0,1.433,-10.608,-10.609)"
         id="path22-2"
         style="stroke:url(#e)" />
      <path
         d="m 26.451,34.334 c -1.571,0.373 -3.24,0.395 -4.877,0.008 l -1.315,3.176 c 2.524,0.702 5.114,0.661 7.51,-0.011 l -1.317,-3.173 z"
         stroke="url(#d)"
         transform="matrix(1.433,0,0,1.433,-10.608,-10.609)"
         id="path23-7"
         style="stroke:url(#d)" />
      <path
         d="m 14.975,29.596 -3.176,1.32 a 13.968,13.968 0 0 0 5.317,5.304 l 1.31,-3.178 a 10.5,10.5 0 0 1 -3.45,-3.446 z"
         stroke="url(#c)"
         transform="matrix(1.433,0,0,1.433,-10.608,-10.609)"
         id="path24"
         style="stroke:url(#c)" />
      <path
         d="m 10.483,20.259 c -0.705,2.52 -0.665,5.11 0.007,7.51 l 3.175,-1.32 A 10.531,10.531 0 0 1 13.662,21.571 L 10.484,20.26 Z"
         stroke="url(#b)"
         transform="matrix(1.433,0,0,1.433,-10.608,-10.609)"
         id="path25"
         style="stroke:url(#b)" />
    </g>
    <path
       stroke-width="2"
       id="path26"
       d="m -73.706,2.962 -1.35,5.732 c -0.432,0.049 -0.863,0.121 -1.285,0.223 a 11.286,11.286 0 0 0 -8.652,10.977 c 0.008,11.859 15.955,15.688 21.346,5.125 l -4.475,-2.28 c -2.985,5.884 -11.72,2.674 -11.998,-1.91 -0.547,-3.685 0.323,-6.847 4.266,-7.794 3.943,-0.947 6.08,0.46 8.669,3.868 l 3.538,-2.134 a 11.288,11.288 0 0 0 -8.708,-6.073 z"
       transform="translate(98.132,3.45)"
       style="stroke:url(#linearGradient20);stroke-opacity:1" />
  </g>
  <path
     style="fill:#00aad4;fill-opacity:1;fill-rule:nonzero;stroke:none;stroke-width:0.219941"
     d="M 13.070873,1 C 12.357148,1 11.64258,1.3945748 11.64258,2.184602 h 0.571137 c 0,-0.7900271 1.7143,-0.7900271 1.7143,0 0,0.139983 -0.0675,0.23972 -0.259851,0.3823278 C 13.475813,2.7095369 13.181389,2.8521429 12.871773,3.0122491 12.562155,3.173229 12.234813,3.3525814 11.96823,3.6159225 11.700783,3.8792655 11.5,4.2493432 11.5,4.7034121 V 5 h 3 V 4.4068241 h -2.377392 c 0.04728,-0.1338581 0.1257,-0.2493433 0.238751,-0.3613301 0.188976,-0.1854759 0.46822,-0.3490807 0.76603,-0.5030616 C 13.425198,3.388451 13.737351,3.244094 14.000569,3.0481186 14.263782,2.853018 14.5,2.564305 14.5,2.184602 14.5,1.3945749 13.785432,1 13.070873,1 Z m 0,0"
     id="path5" />
</svg>
