<?xml version="1.0" encoding="UTF-8" standalone="no"?>
<svg
   viewBox="0 0 16 16"
   version="1.1"
   id="svg50"
   sodipodi:docname="crow-translate.svg"
   inkscape:version="1.3 (0e150ed6c4, 2023-07-21)"
   width="16"
   height="16"
   xmlns:inkscape="http://www.inkscape.org/namespaces/inkscape"
   xmlns:sodipodi="http://sodipodi.sourceforge.net/DTD/sodipodi-0.dtd"
   xmlns:xlink="http://www.w3.org/1999/xlink"
   xmlns="http://www.w3.org/2000/svg"
   xmlns:svg="http://www.w3.org/2000/svg">
  <sodipodi:namedview
     id="namedview52"
     pagecolor="#ffffff"
     bordercolor="#666666"
     borderopacity="1.0"
     inkscape:showpageshadow="2"
     inkscape:pageopacity="0.0"
     inkscape:pagecheckerboard="0"
     inkscape:deskcolor="#d1d1d1"
     showgrid="false"
     inkscape:zoom="19.666667"
     inkscape:cx="5.8728813"
     inkscape:cy="13.09322"
     inkscape:window-width="1920"
     inkscape:window-height="994"
     inkscape:window-x="0"
     inkscape:window-y="0"
     inkscape:window-maximized="1"
     inkscape:current-layer="svg50" />
  <defs
     id="defs30">
    <linearGradient
       id="a"
       y1="30"
       x1="24"
       y2="44"
       x2="38"
       gradientUnits="userSpaceOnUse">
      <stop
         id="stop2" />
      <stop
         offset="1"
         stop-opacity="0"
         id="stop4" />
    </linearGradient>
    <linearGradient
       id="g"
       y1="37"
       y2="4"
       x2="0"
       gradientUnits="userSpaceOnUse"
       gradientTransform="matrix(-0.8043526,0.44101864,-0.46439404,-0.76386836,-12.232359,11.62821)">
      <stop
         stop-color="#da4453"
         id="stop7" />
      <stop
         offset="1"
         stop-color="#ff7336"
         id="stop9" />
    </linearGradient>
    <linearGradient
       xlink:href="#a"
       id="h"
       y1="22.313"
       x1="20.438"
       y2="25.406"
       x2="23.531"
       gradientUnits="userSpaceOnUse"
       gradientTransform="matrix(-0.8043526,0.44101864,-0.46439404,-0.76386836,-12.232359,11.62821)" />
    <linearGradient
       id="f"
       x1="15.233"
       x2="39.609001"
       y1="11.995"
       y2="36.369999"
       gradientUnits="userSpaceOnUse"
       gradientTransform="matrix(1.0500002,0,0,1.0482475,-63.844067,-22.537318)">
      <stop
         offset="0"
         id="stop13" />
      <stop
         stop-opacity="0"
         offset="1"
         id="stop15" />
    </linearGradient>
    <linearGradient
       id="c">
      <stop
         style="stop-color:#7cbaf8"
         id="stop18" />
      <stop
         offset="1"
         style="stop-color:#f4fcff"
         id="stop20" />
    </linearGradient>
    <linearGradient
       id="b">
      <stop
         style="stop-color:#197cf1"
         id="stop23" />
      <stop
         offset="1"
         style="stop-color:#20bcfa"
         id="stop25" />
    </linearGradient>
    <linearGradient
       xlink:href="#b"
       id="d"
       x1="45"
       y1="43"
       x2="5"
       y2="3"
       gradientUnits="userSpaceOnUse"
       gradientTransform="matrix(1.0500002,0,0,1.0482475,-63.844067,-22.537318)" />
    <linearGradient
       xlink:href="#c"
       id="e"
       x1="45"
       y1="43"
       x2="5"
       y2="3"
       gradientUnits="userSpaceOnUse"
       gradientTransform="matrix(1.0500002,0,0,1.0482475,-63.844067,-22.537318)" />
    <linearGradient
       xlink:href="#b"
       id="0-3"
       y1="543.79797"
       x2="0"
       y2="503.798"
       gradientUnits="userSpaceOnUse"
       gradientTransform="translate(-5.9283447e-6,1.1108398e-5)" />
    <linearGradient
       id="g-6"
       y1="37"
       y2="4"
       x2="0"
       gradientUnits="userSpaceOnUse"
       gradientTransform="matrix(-0.27034753,0.14725299,-0.15608561,-0.25505026,16.87659,11.013672)">
      <stop
         stop-color="#da4453"
         id="stop7-2" />
      <stop
         offset="1"
         stop-color="#ff7336"
         id="stop9-9" />
    </linearGradient>
    <linearGradient
       inkscape:collect="always"
       xlink:href="#a"
       id="linearGradient755"
       gradientUnits="userSpaceOnUse"
       gradientTransform="matrix(-0.27034753,0.14725299,-0.15608561,-0.25505026,16.87659,11.013672)"
       x1="20.438"
       y1="22.313"
       x2="23.531"
       y2="25.406" />
  </defs>
  <path
     d="m 12.541447,11.180625 -0.896388,-0.87851 0.0116,-0.01035 c 0.614069,-0.6790056 1.051667,-1.4595096 1.309304,-2.2855141 h 1.034032 V 7.3061057 H 11.529492 V 6.6060993 h -0.70587 v 0.700004 H 8.353241 V 8.0026079 H 12.29532 C 12.058764,8.6781136 11.684686,9.3186179 11.176492,9.8786226 10.848206,9.5181198 10.57646,9.1226169 10.361184,8.7061138 H 9.6553623 a 6.0488933,5.9990419 0 0 0 1.0587367,1.5960122 l -1.8033777,1.757013 0.501134,0.497005 1.7645547,-1.750014 1.097553,1.088509 z"
     style="opacity:0.8;fill:#ffffff;fill-opacity:1;stroke-width:0.625494"
     id="path40-6" />
  <path
     d="M 5.33676,4.156077 H 4.309809 L 2,10.106113 h 1.026954 l 0.57455,-1.4875064 h 2.438622 l 0.579488,1.4875064 h 1.026954 z m -1.34493,3.4709716 0.831467,-2.146914 0.831442,2.146914 z"
     style="opacity:0.8;fill:#156bc0;fill-opacity:1;stroke-width:0.897927"
     id="path42-0" />
  <path
     style="fill:url(#g-6);fill-rule:evenodd;stroke-width:0.303211"
     d="m 7.060735,14.999503 0.451721,-0.634557 c 0.451749,-0.635256 0.710783,-1.66251 0.710783,-1.66251 L 7.664586,12.00593 c 0.0052,-0.07178 0.01284,-0.147702 0.01681,-0.224001 l 0.570316,0.321301 0.128159,-0.783308 -0.640538,-0.345452 8.13e-4,-0.01234 0.667006,0.212448 c 0,0 0.08463,-0.434351 0.2251583,-1.9593117 0.14048,-1.5249597 0.03229,-3.1521214 0.03229,-3.1521214 L 8.108327,5.2210906 c 0.0052,-0.084001 0.01284,-0.1743016 0.01827,-0.2565503 L 8.6841883,5.5990928 8.6970283,5.0089886 8.508932,4.5487378 8.556872,4.2848355 c 0,0 -0.301743,-1.0594588 -0.452792,-1.1984082 C 7.952731,2.9474777 7.492845,3.6331337 7.492845,3.6331337 l 0.09873,0.2376498 -0.43478,0.4525537 0.662409,-0.211751 c 0,0.030462 -7.61e-4,0.06755 -9.84e-4,0.098345 A 2.9203381,2.8962695 0 0 0 7.462823,4.3089742 C 7.046625,4.4493164 6.872276,4.7167226 6.872276,4.7167226 l -0.07178,0.4718002 c 0,0 0.12555,-0.2523498 0.337743,-0.4214 0.208224,-0.1669499 0.660648,-0.2905033 0.67406,-0.2940012 -7.77e-4,0.04374 -9.63e-4,0.090999 -9.83e-4,0.1354505 -0.08502,0.0784 -0.850525,0.7910019 -1.164609,1.431857 C 6.314966,6.718735 5.907009,8.475397 5.907009,8.475397 c 0,0 0.269619,-0.1435019 0.852625,-0.4504548 0.54807,-0.2880509 1.02803,-0.554403 1.081329,-0.5890523 -9.84e-4,0.051799 0.155996,0.2555013 0.155996,0.2555013 L 5.885385,9.2978948 c 0,0 0.01442,0.3493032 0.04977,0.9026552 0.03526,0.553352 0.108048,1.955114 0.108048,1.955114 0,0 0.401618,-0.204755 0.782759,-0.351402 0.363503,-0.139302 0.729116,-0.236603 0.763695,-0.245702 l -9.83e-4,0.0245 c -0.03557,0.0483 -0.266809,0.356306 -0.4595,0.553351 -0.208229,0.212801 -0.918986,0.737459 -0.918986,0.737459 0,0 0.05725,0.106736 0.130989,0.348948 0.07419,0.242554 0.261155,0.790654 0.261155,0.790654 l 0.908203,-1.448991 c -0.01276,0.103944 -0.02516,0.198802 -0.03808,0.298204 l -0.814526,1.349601 c 0,0 0.07882,0.155747 0.172961,0.364003 0.09451,0.208248 0.233979,0.423854 0.233979,0.423854"
     id="path44-6" />
  <path
     d="m 7.060392,14.999855 c 0,0 0.478209,-1.940416 0.733341,-4.233633 C 8.048904,8.4733554 8.192523,5.9585869 8.176641,3.185169 8.163001,0.77610343 7.999445,1.006054 7.999445,1.006054 c 0,0 -0.163421,0.3696041 -0.162635,2.2659154 3.29e-4,1.8126632 0.02313,4.1415775 -0.254801,7.5197986 -0.132606,1.61001 -0.522305,4.207035 -0.522305,4.207035"
     id="path46-2"
     style="fill:#ffffff;fill-opacity:1" />
  <path
     style="opacity:0.2;fill:url(#linearGradient755);fill-rule:evenodd;stroke-width:0.303211"
     d="m 7.060735,14.999503 0.05358,-0.329005 0.181748,-1.22081 0.288677,-1.867615 c -0.03559,0.04795 -0.266799,0.355957 -0.459823,0.553003 -0.208239,0.213154 -0.918649,0.737802 -0.918649,0.737802 0,0 0.05641,0.10677 0.130623,0.348961 0.0742,0.242547 0.261147,0.790305 0.261147,0.790305 l 0.786983,-1.247767 c -0.01284,0.104673 -0.02565,0.1988 -0.03893,0.298562 l -0.692767,1.148005 c 0,0 0.07897,0.155403 0.1733,0.364004 0.09451,0.208249 0.233627,0.423855 0.233627,0.423855 M 7.584674,11.581725 7.993348,7.689351 5.881885,9.2965597 c 0,0 0.01416,0.349303 0.04936,0.9026543 0.03526,0.553354 0.108034,1.955113 0.108034,1.955113 0,0 0.401604,-0.204752 0.782751,-0.351398 0.363855,-0.139303 0.72983,-0.236606 0.764059,-0.246055 l -9.83e-4,0.02483 M 7.993727,7.6896741 8.036867,3.0682437 C 7.84838,3.1018497 7.493029,3.6317492 7.493029,3.6317492 L 7.591769,3.8687006 7.156275,4.3216017 7.819041,4.1098504 c 0,0.030464 -9.55e-4,0.067202 -9.84e-4,0.098001 A 2.9341023,2.9099196 0 0 0 7.462678,4.3072534 C 7.046161,4.447256 6.872535,4.7143077 6.872535,4.7143077 l -0.07422,0.4732064 c 0,0 0.125929,-0.2520033 0.337386,-0.4214057 C 7.343936,4.599157 7.796352,4.476307 7.809757,4.4724574 L 7.808774,4.6075557 C 7.723294,4.6859577 6.958259,5.398565 6.644174,6.0397664 6.311732,6.7177222 5.904469,8.474383 5.904469,8.474383 c 0,0 0.269625,-0.1434984 0.852272,-0.4501041 C 7.304816,7.7358806 7.784783,7.4695274 7.838068,7.4352268 7.837085,7.4870258 7.994045,7.690377 7.994045,7.690377"
     id="path48-6" />
</svg>
