<?xml version="1.0" encoding="UTF-8" standalone="no"?>
<svg
   width="16"
   height="16"
   version="1.1"
   id="svg6"
   sodipodi:docname="crunchyroll.svg"
   inkscape:version="1.4.2 (unknown)"
   xmlns:inkscape="http://www.inkscape.org/namespaces/inkscape"
   xmlns:sodipodi="http://sodipodi.sourceforge.net/DTD/sodipodi-0.dtd"
   xmlns="http://www.w3.org/2000/svg"
   xmlns:svg="http://www.w3.org/2000/svg">
  <defs
     id="defs6" />
  <sodipodi:namedview
     id="namedview6"
     pagecolor="#ffffff"
     bordercolor="#000000"
     borderopacity="0.25"
     inkscape:showpageshadow="2"
     inkscape:pageopacity="0.0"
     inkscape:pagecheckerboard="0"
     inkscape:deskcolor="#d1d1d1"
     inkscape:zoom="23.84375"
     inkscape:cx="6.7732634"
     inkscape:cy="13.357798"
     inkscape:current-layer="svg6" />
  <g
     id="g2"
     transform="translate(0,-0.1605207)">
    <g
       id="g1">
      <path
         style="opacity:0.2;stroke-width:0.999964"
         d="m 8.1488474,1.9836866 c -0.368367,-0.0073 -0.739903,0.003 -0.9788082,0.03387 -1.4615021,0.189095 -2.7518821,0.80556 -3.7705072,1.801257 -0.544557,0.532295 -0.9284283,1.058679 -1.2619141,1.729758 -0.445255,0.895987 -0.636572,1.729747 -0.6373054,2.774638 -7.633e-4,1.043623 0.1872632,1.8597644 0.6398441,2.7733834 0.8255548,1.666538 2.386695,2.913272 4.2288071,3.377984 0.21308,0.05375 0.7871394,0.15175 1.0054697,0.171846 0.05997,0.0055 0.329338,0.01175 0.599219,0.01379 0.494621,0.0037 0.596398,-0.02592 0.195508,-0.0577 C 7.8343524,14.575973 7.3267108,14.464138 6.9313668,14.330319 5.2550072,13.762889 3.9327879,12.456172 3.3804879,10.820625 3.0673124,9.8932096 3.0085814,8.9541946 3.2040233,7.9958136 c 0.395259,-1.938209 1.8353027,-3.539822 3.7514646,-4.170739 2.4825655,-0.817414 5.1644181,0.09683 6.6015621,2.249063 0.472829,0.708092 0.815353,1.654423 0.882325,2.437216 0.01352,0.157899 0.02379,0.195731 0.04443,0.159303 0.03783,-0.06678 0.0053,-0.866461 -0.05078,-1.250595 -0.262313,-1.794184 -1.26832,-3.356281 -2.819625,-4.377699 -0.746688,-0.491638 -1.580534,-0.819137 -2.5085936,-0.985925 -0.223128,-0.0401 -0.587589,-0.06543 -0.955958,-0.07275 z m 1.080371,2.59401 c -0.20931,6.97e-4 -0.407296,0.011 -0.561133,0.03261 -2.0239635,0.284343 -3.576609,1.814377 -3.8860342,3.830806 -0.052111,0.339553 -0.039572,1.029517 0.025383,1.398609 0.3568885,2.0277294 2.0670417,3.5663654 4.1310542,3.7166594 1.1241446,0.08186 2.2546016,-0.241509 3.1090816,-0.889338 0.902795,-0.684461 1.49163,-1.610783 1.725292,-2.7144294 0.07338,-0.34653 0.100397,-1.040068 0.05459,-1.40488 -0.01856,-0.14787 -0.0397,-0.279117 -0.04697,-0.291011 -0.0074,-0.01189 -0.08901,0.05571 -0.181544,0.150524 -0.27409,0.280846 -0.574475,0.459107 -0.958495,0.568223 -0.297001,0.08439 -0.751755,0.08436 -1.048632,0 -0.824627,-0.234316 -1.39828,-0.885527 -1.512012,-1.715961 -0.1135726,-0.829265 0.370112,-1.694578 1.154003,-2.06467 l 0.217089,-0.102859 -0.231054,-0.107876 c -0.29762,-0.138582 -0.676403,-0.261714 -1.018161,-0.331151 -0.2455576,-0.04989 -0.6236106,-0.0764 -0.9724616,-0.07526 z"
         id="path2" />
      <path
         style="fill:#ff9955;stroke-width:0.999964"
         d="M 7.3742994,14.325363 C 7.1559706,14.305269 6.5815446,14.206937 6.3684657,14.153183 4.5263532,13.688471 2.9663225,12.442134 2.1407677,10.775596 1.6881879,9.8619766 1.4995703,9.0449366 1.5003149,8.0013126 c 7.589e-4,-1.044892 0.1922572,-1.878297 0.6375108,-2.774282 0.3334863,-0.671081 0.71707,-1.196788 1.2616237,-1.729083 1.0186256,-0.995697 2.3088937,-1.612075 3.7703957,-1.801171 0.4778113,-0.06182 1.4892503,-0.04171 1.9355043,0.03849 0.9280596,0.166787 1.7612906,0.49437 2.5079786,0.986008 1.551306,1.021416 2.55751,2.583527 2.819827,4.377718 0.05615,0.384133 0.08867,1.183529 0.05084,1.250312 -0.02063,0.03643 -0.03135,-0.0017 -0.04487,-0.159634 -0.06697,-0.782793 -0.409679,-1.729324 -0.882505,-2.437417 -1.437144,-2.152229 -4.1184806,-3.065331 -6.6010454,-2.247916 -1.9161645,0.630918 -3.3562938,2.23161 -3.7515532,4.169819 -0.1954415,0.958381 -0.1367937,1.897787 0.1763826,2.8252024 0.5522992,1.635546 1.8741642,2.942175 3.550525,3.509601 0.3953432,0.133819 0.9030584,0.245327 1.2378664,0.271871 0.400889,0.0318 0.299855,0.06201 -0.194767,0.05827 -0.269881,-0.0021 -0.539761,-0.0082 -0.599734,-0.01375 z"
         id="path3" />
      <path
         style="fill:#ff9955;stroke-width:0.999964"
         d="M 8.9390784,13.235135 C 6.8750655,13.084842 5.164932,11.546278 4.8080408,9.5185476 c -0.06496,-0.36909 -0.077479,-1.05904 -0.025374,-1.398592 0.309428,-2.01643 1.8609143,-3.546222 3.8848786,-3.830564 0.410231,-0.05763 1.141251,-0.03743 1.5341436,0.0424 0.341758,0.06944 0.720615,0.192695 1.018236,0.331276 l 0.2308,0.107468 -0.217223,0.102556 c -0.783891,0.370093 -1.2677106,1.235765 -1.154139,2.06503 0.113734,0.830434 0.688161,1.482235 1.512789,1.71655 0.296876,0.08436 0.750849,0.08433 1.047851,-5.3e-5 0.384021,-0.109116 0.685189,-0.287569 0.95928,-0.568416 0.09254,-0.09481 0.174199,-0.162648 0.181483,-0.15075 0.0074,0.01189 0.02844,0.142618 0.04699,0.290488 0.0458,0.364812 0.01891,1.058889 -0.05446,1.405419 -0.233663,1.1036454 -0.822422,2.0300084 -1.725219,2.7144694 -0.854482,0.647829 -1.984869,0.97117 -3.1090126,0.889313 z"
         id="path4" />
      <path
         style="opacity:0.2;fill:#ffffff;stroke-width:0.999964"
         d="m 8.1494834,1.6630156 c -0.36837,-0.0073 -0.740539,0.003 -0.9794442,0.03387 -1.4615021,0.189095 -2.7518821,0.805561 -3.7705072,1.801257 -0.5445565,0.532296 -0.9284283,1.058052 -1.2619141,1.729131 -0.445255,0.895985 -0.6365574,1.72912 -0.6373054,2.77401 -4.1e-5,0.05664 0.00278,0.110217 0.00382,0.165574 0.019262,-0.972033 0.2108704,-1.768016 0.6334977,-2.618469 0.3334858,-0.671079 0.7173576,-1.196833 1.2619139,-1.729131 1.0186256,-0.995695 2.3090053,-1.61216 3.7705073,-1.801256 0.238907,-0.03091 0.611076,-0.04119 0.979445,-0.03387 0.368368,0.0073 0.732829,0.03203 0.955958,0.07212 0.9280596,0.166788 1.7612696,0.494288 2.5079566,0.985926 1.551306,1.021418 2.557314,2.583514 2.81963,4.377704 0.0324,0.22163 0.05517,0.57023 0.06284,0.847947 0.01483,-0.223233 -0.01525,-0.84341 -0.06284,-1.169061 -0.262317,-1.794191 -1.268325,-3.356288 -2.819631,-4.377706 -0.746687,-0.491638 -1.579898,-0.819139 -2.5079566,-0.985925 -0.223129,-0.0401 -0.58759,-0.0648 -0.955959,-0.07212 z m 1.080369,2.593384 c -0.209309,6.97e-4 -0.408565,0.01164 -0.562402,0.03324 -2.0239643,0.284343 -3.5753378,1.81375 -3.8847656,3.830179 -0.027994,0.182398 -0.035985,0.464517 -0.028573,0.745089 0.00371,-0.161602 0.011612,-0.313464 0.028573,-0.423973 0.3094278,-2.01643 1.8608013,-3.545838 3.8847656,-3.830179 0.153837,-0.02161 0.353093,-0.03256 0.562402,-0.03324 0.348854,-0.0011 0.72627,0.02536 0.9718276,0.07526 0.302342,0.06143 0.630517,0.165745 0.908983,0.28474 0.04028,-0.02264 0.08109,-0.04474 0.123145,-0.0646 l 0.21709,-0.10223 -0.231054,-0.107876 c -0.297621,-0.138579 -0.676407,-0.261713 -1.018164,-0.331149 -0.2455576,-0.04989 -0.6229736,-0.0764 -0.9718276,-0.07526 z m 0.8417006,2.599654 c -0.01167,0.133839 -0.01075,0.269102 0.0077,0.403276 0.113733,0.830433 0.688654,1.482271 1.51328,1.716588 0.296878,0.08436 0.750363,0.08439 1.047364,0 0.384022,-0.109116 0.685674,-0.288006 0.959768,-0.568852 0.09253,-0.09481 0.173623,-0.162423 0.180906,-0.150523 0.0074,0.01189 0.02841,0.142515 0.04697,0.290384 0.01017,0.08099 0.01509,0.182458 0.0184,0.288503 0.0053,-0.227699 0.0015,-0.450868 -0.0184,-0.609619 -0.01856,-0.147868 -0.03968,-0.278488 -0.04697,-0.290383 -0.0074,-0.01191 -0.08837,0.05571 -0.180906,0.150523 -0.274094,0.280847 -0.575746,0.459736 -0.959768,0.568851 -0.297001,0.08439 -0.750486,0.08436 -1.047364,0 -0.824626,-0.234316 -1.399547,-0.886154 -1.51328,-1.716587 -0.0037,-0.02737 -0.0051,-0.05473 -0.0077,-0.08216 z m -6.9748055,2.070317 c -0.019982,0.638122 0.07268,1.2690564 0.2837404,1.8940784 0.512122,1.516565 1.6864559,2.749094 3.1909666,3.372966 0.2632529,0.05315 0.6289322,0.115688 0.8029799,0.131707 0.05997,0.0055 0.329972,0.01176 0.599853,0.0138 0.494621,0.0037 0.595127,-0.02655 0.194238,-0.05833 C 7.8337164,14.254056 7.3260768,14.142847 6.9307329,14.009027 5.2543719,13.441598 3.9327879,12.134882 3.3804879,10.499334 3.204881,9.9793066 3.1123999,9.4552346 3.0967475,8.9263706 Z"
         id="path6" />
    </g>
  </g>
</svg>
