<?xml version="1.0" encoding="UTF-8" standalone="no"?>
<svg
   width="16"
   height="16"
   viewBox="0 0 16 16"
   fill="none"
   version="1.1"
   id="svg16"
   sodipodi:docname="darktable.svg"
   inkscape:version="1.3 (0e150ed6c4, 2023-07-21)"
   xmlns:inkscape="http://www.inkscape.org/namespaces/inkscape"
   xmlns:sodipodi="http://sodipodi.sourceforge.net/DTD/sodipodi-0.dtd"
   xmlns:xlink="http://www.w3.org/1999/xlink"
   xmlns="http://www.w3.org/2000/svg"
   xmlns:svg="http://www.w3.org/2000/svg">
  <sodipodi:namedview
     id="namedview16"
     pagecolor="#ffffff"
     bordercolor="#000000"
     borderopacity="0.25"
     inkscape:showpageshadow="2"
     inkscape:pageopacity="0.0"
     inkscape:pagecheckerboard="0"
     inkscape:deskcolor="#d1d1d1"
     inkscape:zoom="23.96875"
     inkscape:cx="8.2398957"
     inkscape:cy="9.4915254"
     inkscape:window-width="1920"
     inkscape:window-height="994"
     inkscape:window-x="0"
     inkscape:window-y="0"
     inkscape:window-maximized="1"
     inkscape:current-layer="svg16" />
  <path
     stroke-width="0.64097"
     id="path1"
     d="m 7.0525561,1.8932978 c 1.3511725,-0.2107827 2.7700206,0.04059 3.9616659,0.7128179 1.148096,0.6394732 2.081882,1.6563593 2.620357,2.8555473 0.614022,1.3494351 0.711565,2.9224789 0.277794,4.3395607 -0.425228,1.4099683 -1.378249,2.6497243 -2.625357,3.4302273 -0.99362,0.629464 -2.1710127,0.959205 -3.3462644,0.947775 C 6.4677708,14.167156 5.0047624,13.610326 3.9064384,12.627621 2.9484268,11.783723 2.2617979,10.635818 1.9783124,9.3903461 1.6599288,8.013128 1.8265974,6.5276847 2.4583834,5.2615551 3.325224,3.4834256 5.0930928,2.1802761 7.0525561,1.8932978 Z m 0.003,0.858087 C 5.3916919,3.0355152 3.9122897,4.1741705 3.1886223,5.6945216 2.5055543,7.1073304 2.4962922,8.8263482 3.1615161,10.247713 c 0.4601164,0.989829 1.2350756,1.82938 2.1802542,2.374888 0.9266844,0.536963 2.0192972,0.775481 3.0862939,0.688641 1.094053,-0.08268 2.1567688,-0.519125 2.9936828,-1.226993 0.866751,-0.724221 1.497857,-1.727583 1.759297,-2.8270702 C 13.456698,8.1163864 13.349103,6.8830177 12.863301,5.8127239 12.373967,4.7196463 11.502236,3.8053036 10.438099,3.2576919 9.4074407,2.722897 8.198001,2.544878 7.0555067,2.7513848 Z"
     style="fill:url(#linearGradient3);fill-opacity:1" />
  <path
     d="m 7.9721488,4.1542496 c 1.064136,-0.06125 2.1218602,0.4585913 2.7686002,1.2953115 0.06272,0.1075313 -0.06052,0.2114947 -0.09682,0.3076292 -0.309133,0.4934891 -0.55557,1.0275679 -0.8960495,1.4996932 -0.5925971,-1.033261 -1.205869,-2.05584 -1.7756907,-3.1026339 z"
     fill="url(#paint0_linear_644_78)"
     id="path2"
     style="fill:url(#paint0_linear_644_78);stroke-width:0.106828" />
  <path
     d="M 4.5357139,5.982935 C 4.9979809,5.0244456 5.9780675,4.3792783 7.0186982,4.2268951 7.1262531,4.2162151 7.1618613,4.3401195 7.2160039,4.4077662 7.5165734,4.9354361 7.8264151,5.458117 8.119873,5.9900588 c -1.1944863,0.01068 -2.3903929,0.02422 -3.5841591,-0.0071 z"
     fill="url(#paint1_linear_644_78)"
     id="path3"
     style="fill:url(#paint1_linear_644_78);stroke-width:0.106828" />
  <path
     d="m 9.5768599,9.1389655 c 0.5897571,-1.039669 1.1973271,-2.068668 1.7949261,-3.1026439 0.639668,0.8837288 0.688068,2.0964397 0.278504,3.0884061 -0.254278,0.1075203 -0.527082,0.022779 -0.792043,0.03632 -0.426659,0.02207 -0.857589,0.04984 -1.2813871,-0.02208 z"
     fill="url(#paint2_linear_644_78)"
     id="path4"
     style="fill:url(#paint2_linear_644_78);stroke-width:0.106828" />
  <path
     d="m 4.3454999,6.7790643 c 0.04491,-0.08616 0.1616874,-0.05625 0.2393253,-0.06693 0.6011591,0.005 1.201608,-0.0021 1.8027571,0.005 C 6.0592263,7.4043126 5.6347181,8.0423548 5.2678933,8.7103059 5.0406807,9.077047 4.8611892,9.4758226 4.5976482,9.8190535 4.0221251,8.9246527 3.9231222,7.7553735 4.3454999,6.7790773 Z"
     fill="#ff3662"
     id="path5"
     style="stroke-width:0.106828" />
  <path
     d="M 5.3356289,10.126648 C 5.6290768,9.6644995 5.854879,9.1560564 6.1867858,8.7209529 6.7815434,9.758497 7.4005065,10.783928 7.9745994,11.832143 c -1.0399206,0.08194 -2.0784208,-0.435808 -2.736563,-1.226245 -0.1602571,-0.153099 0.027806,-0.331844 0.097623,-0.47925 z"
     fill="url(#paint3_linear_644_78)"
     id="path6"
     style="fill:url(#paint3_linear_644_78);stroke-width:0.106828" />
  <path
     d="m 7.8782471,9.9529339 c 1.1923457,-0.0021 2.3853919,-0.0043 3.5784579,0.0021 C 11.015803,10.952693 9.9830139,11.602838 8.924569,11.747391 8.7785453,11.625622 8.7130201,11.439057 8.6140171,11.281686 8.3718513,10.836616 8.0904962,10.41291 7.8782471,9.9528979 Z"
     fill="url(#paint4_linear_644_78)"
     id="path7"
     style="fill:url(#paint4_linear_644_78);stroke-width:0.106828" />
  <defs
     id="defs16">
    <linearGradient
       id="linearGradient2"
       inkscape:collect="always">
      <stop
         style="stop-color:#ff00ff;stop-opacity:1"
         offset="0"
         id="stop2" />
      <stop
         style="stop-color:#00aad4;stop-opacity:1"
         offset="1"
         id="stop3" />
    </linearGradient>
    <linearGradient
       id="linearGradient23"
       x1="48.2616"
       y1="44.981701"
       x2="48.2616"
       y2="28.354"
       gradientUnits="userSpaceOnUse"
       gradientTransform="matrix(0.10684107,0,0,0.10681573,1.1714658,1.1975898)">
      <stop
         stop-color="#FD2E00"
         id="stop22"
         style="stop-color:#00ccff;stop-opacity:1" />
      <stop
         offset="1"
         stop-color="#FF9900"
         id="stop23"
         style="stop-color:#ff55dd;stop-opacity:1" />
    </linearGradient>
    <linearGradient
       id="linearGradient21"
       x1="48.2616"
       y1="44.981701"
       x2="48.2616"
       y2="28.354"
       gradientUnits="userSpaceOnUse"
       gradientTransform="matrix(0.10684107,0,0,0.10681573,1.1714658,1.1975898)">
      <stop
         stop-color="#FD2E00"
         id="stop20"
         style="stop-color:#00ccff;stop-opacity:1" />
      <stop
         offset="1"
         stop-color="#FF9900"
         id="stop21"
         style="stop-color:#ff55dd;stop-opacity:1" />
    </linearGradient>
    <linearGradient
       id="paint0_linear_644_78"
       x1="76.690804"
       y1="56.726601"
       x2="76.690804"
       y2="27.6343"
       gradientUnits="userSpaceOnUse"
       gradientTransform="matrix(0.10684107,0,0,0.10681573,1.1714658,1.1975898)">
      <stop
         stop-color="#5570FF"
         id="stop7" />
      <stop
         offset="1"
         stop-color="#4DD3FF"
         id="stop8" />
    </linearGradient>
    <linearGradient
       id="paint1_linear_644_78"
       x1="48.2616"
       y1="44.981701"
       x2="48.2616"
       y2="28.354"
       gradientUnits="userSpaceOnUse"
       gradientTransform="matrix(0.10684107,0,0,0.10681573,1.1714658,1.1975898)">
      <stop
         stop-color="#FD2E00"
         id="stop9" />
      <stop
         offset="1"
         stop-color="#FF9900"
         id="stop10" />
    </linearGradient>
    <linearGradient
       id="paint2_linear_644_78"
       x1="89.609802"
       y1="74.780098"
       x2="89.609802"
       y2="45.299801"
       gradientUnits="userSpaceOnUse"
       gradientTransform="matrix(0.10684107,0,0,0.10681573,1.1714658,1.1975898)">
      <stop
         stop-color="#00B59C"
         id="stop11" />
      <stop
         offset="1"
         stop-color="#9CFFAC"
         id="stop12" />
    </linearGradient>
    <linearGradient
       id="paint3_linear_644_78"
       x1="50.574001"
       y1="70.433098"
       x2="50.574001"
       y2="99.639297"
       gradientUnits="userSpaceOnUse"
       gradientTransform="matrix(0.10684107,0,0,0.10681573,1.1714658,1.1975898)">
      <stop
         stop-color="#00FFE0"
         id="stop13" />
      <stop
         offset="1"
         stop-color="#078AA7"
         id="stop14" />
    </linearGradient>
    <linearGradient
       id="paint4_linear_644_78"
       x1="62.778301"
       y1="90.107498"
       x2="96.272301"
       y2="90.107498"
       gradientUnits="userSpaceOnUse"
       gradientTransform="matrix(0.10684107,0,0,0.10681573,1.1714658,1.1975898)">
      <stop
         stop-color="#A93AFF"
         id="stop15" />
      <stop
         offset="1"
         stop-color="#FF81FF"
         id="stop16" />
    </linearGradient>
    <linearGradient
       inkscape:collect="always"
       xlink:href="#linearGradient2"
       id="linearGradient3"
       x1="1.8208625"
       y1="8.0001062"
       x2="14.178993"
       y2="8.0001062"
       gradientUnits="userSpaceOnUse" />
  </defs>
</svg>
