<?xml version="1.0" encoding="UTF-8" standalone="no"?>
<svg
   width="16"
   height="16"
   viewBox="0 0 16 16"
   fill="none"
   version="1.1"
   id="svg7"
   sodipodi:docname="digikam.svg"
   inkscape:version="1.3 (0e150ed6c4, 2023-07-21)"
   xmlns:inkscape="http://www.inkscape.org/namespaces/inkscape"
   xmlns:sodipodi="http://sodipodi.sourceforge.net/DTD/sodipodi-0.dtd"
   xmlns:xlink="http://www.w3.org/1999/xlink"
   xmlns="http://www.w3.org/2000/svg"
   xmlns:svg="http://www.w3.org/2000/svg">
  <sodipodi:namedview
     id="namedview7"
     pagecolor="#ffffff"
     bordercolor="#000000"
     borderopacity="0.25"
     inkscape:showpageshadow="2"
     inkscape:pageopacity="0.0"
     inkscape:pagecheckerboard="0"
     inkscape:deskcolor="#d1d1d1"
     inkscape:zoom="31.958333"
     inkscape:cx="4.5215124"
     inkscape:cy="4.7405476"
     inkscape:window-width="1920"
     inkscape:window-height="994"
     inkscape:window-x="0"
     inkscape:window-y="0"
     inkscape:window-maximized="1"
     inkscape:current-layer="svg7" />
  <path
     d="m 7.035399,1.7810022 c 1.3760288,-0.2146571 2.8209796,0.041336 4.034583,0.7259185 1.169289,0.6512258 2.120254,1.6868024 2.668614,2.9080234 0.62527,1.3742447 0.724647,2.9762196 0.282898,4.4193303 C 13.588429,11.270136 12.617892,12.532711 11.34778,13.32755 10.335893,13.968572 9.1368324,14.304375 7.9399494,14.292777 6.4398658,14.280418 4.9499402,13.713337 3.8314073,12.712556 2.8557775,11.853234 2.1565126,10.684206 1.8678139,9.4158322 1.5435699,8.0133163 1.7133081,6.5005598 2.3567191,5.2111634 3.239499,3.4003609 5.0398888,2.0732557 7.035399,1.7810022 Z m 0.0029,0.873861 C 5.3438199,2.9442102 3.83721,4.1037936 3.1002277,5.6520843 2.4045946,7.0908661 2.3951601,8.8415014 3.0726684,10.288961 c 0.4685908,1.008031 1.2578042,1.863003 2.2203746,2.418555 0.9437149,0.546784 2.0564453,0.78973 3.1430566,0.701224 1.114157,-0.08409 2.1964754,-0.528628 3.0487524,-1.249528 0.882809,-0.737468 1.525514,-1.759306 1.791666,-2.8789712 0.280761,-1.161772 0.171186,-2.4178092 -0.32349,-3.5077742 C 12.454701,4.6592908 11.566862,3.7281485 10.483097,3.1704698 9.4335136,2.6258531 8.2018076,2.4445513 7.0383004,2.6548632 Z"
     stroke-width="0.413862"
     id="path1"
     style="fill:url(#linearGradient11);stroke:url(#linearGradient8);fill-opacity:1;stroke-opacity:1" />
  <path
     fill-rule="evenodd"
     clip-rule="evenodd"
     d="M 10.791356,5.4026138 C 10.132661,4.5505138 9.0555121,4.021127 7.9717745,4.0834894 8.3671841,4.8098429 8.7830891,5.5247498 9.1989252,6.2394495 l 6.9e-5,4.15e-5 v 6.21e-5 2.07e-5 2.76e-5 l 6.89e-5,2.07e-5 v 2.08e-5 c 0.1944106,0.3341666 0.3888215,0.668292 0.5810955,1.003515 0.2084,-0.2890156 0.3822054,-0.6008346 0.5560794,-0.9127641 0.115433,-0.2069841 0.230867,-0.4140235 0.356431,-0.6144904 0.01123,-0.029694 0.0306,-0.060119 0.05031,-0.091159 0.04542,-0.071303 0.09283,-0.1458367 0.04838,-0.222131 z M 7.0005622,4.1574572 c -1.0597756,0.1551915 -2.0578925,0.8122166 -2.528668,1.7883304 1.1434734,0.030011 2.2888696,0.019607 3.4331701,0.00921 h 6.9e-6 6.9e-6 v 0 l 0.2169184,-0.00196 C 7.9302529,5.6054832 7.7316523,5.2618168 7.5330792,4.9181918 l -4.13e-5,-6.91e-5 C 7.4221114,4.7261752 7.3111988,4.5342414 7.2014922,4.3416587 7.1874266,4.3240815 7.1745945,4.3027763 7.1614523,4.2809738 7.1230939,4.2173066 7.0821513,4.149359 7.0005622,4.1574572 Z M 9.6060786,9.1598378 C 9.9973116,8.4701437 10.396264,7.7850752 10.795077,7.100207 l 2.76e-4,-4.833e-4 2.75e-4,-4.901e-4 2.77e-4,-4.834e-4 c 0.213155,-0.366021 0.426242,-0.7319869 0.638088,-1.0985741 0.651389,0.8999644 0.700733,2.1349724 0.283656,3.1451636 -0.171255,0.072421 -0.350779,0.059166 -0.530787,0.04591 h -6.9e-5 v 0 0 c -0.09214,-0.00677 -0.184418,-0.0136 -0.2758,-0.00891 l -0.04025,0.00207 -0.02846,0.00152 h -6.8e-5 c -0.411977,0.02154 -0.827262,0.043287 -1.2361374,-0.026097 z M 4.4543483,6.6912923 C 4.3860871,6.6914166 4.3120308,6.6915547 4.2781795,6.7565541 3.8480297,7.7507908 3.94886,8.9415382 4.5349656,9.8524314 4.7058553,9.6298514 4.8420393,9.3843507 4.9781681,9.1389881 v 0 h 6.9e-6 C 5.0558358,8.9989782 5.1334829,8.8589682 5.217546,8.7233077 5.3579475,8.4676583 5.5066534,8.2162825 5.6553318,7.9649549 5.9022491,7.5475623 6.1491181,7.1302594 6.3578356,6.6934601 6.0269103,6.6895456 5.6961917,6.6898632 5.3654594,6.6901807 H 5.365294 c -0.2810719,2.694e-4 -0.5621507,5.386e-4 -0.8433878,-0.00179 -0.020495,0.00282 -0.043671,0.00286 -0.067558,0.00291 z m 1.1598822,2.9113571 h 6.9e-6 v 0 C 5.7805236,9.3037829 5.9467684,9.0049845 6.1534047,8.7341467 6.3652992,9.1037785 6.5802053,9.4719605 6.7951251,9.8400734 h 6.9e-6 l 2.07e-5,6.9e-5 c 0.3994067,0.6841706 0.798834,1.3683416 1.1789511,2.0623856 -1.0590519,0.0834 -2.1166499,-0.443849 -2.7869013,-1.248768 -0.1258466,-0.120265 -0.040805,-0.255994 0.037317,-0.380678 0.023197,-0.037 0.045781,-0.07304 0.062058,-0.107424 0.116164,-0.1829516 0.2219149,-0.3730136 0.327653,-0.5630086 z m 2.2900758,0.385994 -0.028097,6.9e-5 c 0.1374589,0.2979016 0.3033867,0.5808896 0.4694041,0.8639476 0.095034,0.162103 0.1901379,0.324273 0.2798659,0.489276 0.030185,0.04791 0.057269,0.09845 0.084353,0.149053 0.063678,0.118884 0.1277004,0.238321 0.2319007,0.32524 1.077909,-0.14719 2.129765,-0.809338 2.57875,-1.8253066 -1.205608,-0.0065 -2.4112854,-0.0044 -3.6161763,-0.0023 z"
     id="path2"
     style="fill:url(#linearGradient13);stroke-width:0.068977;fill-opacity:1" />
  <defs
     id="defs7">
    <linearGradient
       id="linearGradient1"
       inkscape:collect="always">
      <stop
         style="stop-color:#ff9955;stop-opacity:1"
         offset="0"
         id="stop1" />
      <stop
         style="stop-color:#ff60ff;stop-opacity:1;"
         offset="1"
         id="stop8" />
    </linearGradient>
    <linearGradient
       id="paint0_linear_644_29"
       x1="96.311501"
       y1="187.304"
       x2="96.311501"
       y2="5"
       gradientUnits="userSpaceOnUse"
       gradientTransform="matrix(0.06891549,0,0,0.06903844,1.3628887,1.3618767)">
      <stop
         stop-color="#5570FF"
         id="stop2"
         style="stop-color:#d3bc5f;stop-opacity:1" />
      <stop
         offset="1"
         stop-color="#4DD3FF"
         id="stop3"
         style="stop-color:#ff5555;stop-opacity:1" />
    </linearGradient>
    <linearGradient
       id="paint1_linear_644_29"
       x1="96.311501"
       y1="187.304"
       x2="96.311501"
       y2="5"
       gradientUnits="userSpaceOnUse"
       gradientTransform="matrix(0.06891549,0,0,0.06903844,1.3628887,1.3618767)">
      <stop
         stop-color="#5570FF"
         id="stop4"
         style="stop-color:#d3bc5f;stop-opacity:1" />
      <stop
         offset="1"
         stop-color="#4DD3FF"
         id="stop5"
         style="stop-color:#ff5555;stop-opacity:1" />
    </linearGradient>
    <linearGradient
       id="paint2_linear_644_29"
       x1="120.952"
       y1="151.42799"
       x2="127.30863"
       y2="2.0006719"
       gradientUnits="userSpaceOnUse"
       gradientTransform="matrix(0.06891549,0,0,0.06903844,1.3628887,1.3618767)"
       spreadMethod="pad">
      <stop
         stop-color="#5570FF"
         id="stop6" />
      <stop
         offset="1"
         stop-color="#4DD3FF"
         id="stop7" />
    </linearGradient>
    <linearGradient
       inkscape:collect="always"
       xlink:href="#linearGradient1"
       id="linearGradient8"
       x1="1.5002919"
       y1="7.9999996"
       x2="14.500298"
       y2="7.9999996"
       gradientUnits="userSpaceOnUse" />
    <linearGradient
       inkscape:collect="always"
       xlink:href="#linearGradient1"
       id="linearGradient11"
       x1="1.5002919"
       y1="7.9999995"
       x2="14.500298"
       y2="7.9999995"
       gradientUnits="userSpaceOnUse" />
    <linearGradient
       inkscape:collect="always"
       xlink:href="#linearGradient1"
       id="linearGradient13"
       x1="4.01371"
       y1="7.9948502"
       x2="11.986291"
       y2="7.9948502"
       gradientUnits="userSpaceOnUse" />
  </defs>
</svg>
