<?xml version="1.0" encoding="UTF-8" standalone="no"?>
<!-- Generator: Gravit.io -->

<svg
   style="isolation:isolate"
   viewBox="0 0 16 16"
   width="16pt"
   height="16pt"
   version="1.1"
   id="svg2"
   sodipodi:docname="distributor-logo-kali-linux.svg"
   inkscape:version="1.3 (0e150ed6c4, 2023-07-21)"
   xmlns:inkscape="http://www.inkscape.org/namespaces/inkscape"
   xmlns:sodipodi="http://sodipodi.sourceforge.net/DTD/sodipodi-0.dtd"
   xmlns:xlink="http://www.w3.org/1999/xlink"
   xmlns="http://www.w3.org/2000/svg"
   xmlns:svg="http://www.w3.org/2000/svg">
  <defs
     id="defs2">
    <linearGradient
       id="linearGradient2"
       inkscape:collect="always">
      <stop
         style="stop-color:#59d189;stop-opacity:1;"
         offset="0"
         id="stop3" />
      <stop
         style="stop-color:#7f2aff;stop-opacity:1"
         offset="1"
         id="stop4" />
    </linearGradient>
    <linearGradient
       inkscape:collect="always"
       xlink:href="#linearGradient2"
       id="linearGradient4"
       x1="4.1396542"
       y1="11.954419"
       x2="14.499998"
       y2="8"
       gradientUnits="userSpaceOnUse" />
  </defs>
  <sodipodi:namedview
     id="namedview2"
     pagecolor="#ffffff"
     bordercolor="#000000"
     borderopacity="0.25"
     inkscape:showpageshadow="2"
     inkscape:pageopacity="0.0"
     inkscape:pagecheckerboard="0"
     inkscape:deskcolor="#d1d1d1"
     inkscape:document-units="pt"
     inkscape:zoom="16.267523"
     inkscape:cx="12.140754"
     inkscape:cy="10.419533"
     inkscape:window-width="1920"
     inkscape:window-height="994"
     inkscape:window-x="0"
     inkscape:window-y="0"
     inkscape:window-maximized="1"
     inkscape:current-layer="svg2" />
  <linearGradient
     id="_lgradient_28"
     x1="0"
     y1="0.5"
     x2="1"
     y2="0.5"
     gradientTransform="matrix(12.999996,0,0,13,1.5000015,1.5)"
     gradientUnits="userSpaceOnUse">
    <stop
       offset="0%"
       stop-opacity="1"
       style="stop-color:rgb(88,0,226)"
       id="stop1" />
    <stop
       offset="100%"
       stop-opacity="1"
       style="stop-color:rgb(255,0,230)"
       id="stop2" />
  </linearGradient>
  <path
     d="m 13.481718,7.8071163 c 0.0021,0.064395 0.0033,0.1284884 0.0033,0.1928837 0,0.365814 -0.03552,0.7286047 -0.03552,0.7286047 -0.03759,0.1968139 0.127543,0.3960463 0.368426,0.4444183 v 0 c 0.240883,0.04837 0.472297,-0.09916 0.516389,-0.3295346 0,0 0.03846,-0.4202326 0.03846,-0.8434884 0,-1.7232558 -0.671751,-3.3769767 -1.864329,-4.5953488 C 11.315842,2.1862791 9.6971315,1.5 8.0103568,1.5 7.2794215,1.5 6.5544046,1.6269767 6.5544046,1.6269767 6.1738448,1.7654419 5.9317779,2.0695814 6.014341,2.3056977 v 0 0 c 0.082564,0.2361163 0.4145913,0.3301395 0.7412928,0.2101163 0,0 0.6244023,-0.1088373 1.254723,-0.1088373 1.4500334,0 2.8438412,0.5895349 3.8707012,1.6386047 0.973002,0.9940465 1.542067,2.3245814 1.600068,3.7216279 -0.240588,-0.065605 -0.472296,-0.1632558 -0.630912,-0.3655116 -0.02692,-0.03386 0.08641,-0.00302 0.06302,-0.05593 -0.01628,-0.045046 -0.03167,-0.071349 -0.05415,-0.1103488 -0.09438,-0.142698 -0.191159,-0.2844887 -0.275792,-0.4335352 -0.09855,-0.00181 -0.197087,-0.00302 -0.295334,-0.00484 -0.123698,-0.1487442 -0.260414,-0.2844884 -0.386774,-0.4308139 0.01065,0.080419 0.02487,0.1605348 0.02487,0.2418604 -0.08434,-0.049276 -0.16779,-0.1009739 -0.243251,-0.1638576 -0.08227,-0.076186 -0.158319,-0.1593256 -0.239108,-0.2370233 0.01036,0.058954 0.0216,0.1176047 0.03107,0.1765581 -0.166311,-0.068023 -0.322262,-0.1705116 -0.439153,-0.3104883 -0.0018,0.034767 -0.0033,0.069233 -0.0048,0.104 C 10.926997,6.1364651 10.825493,6.090814 10.721623,6.0496977 10.46032,5.9493256 10.201386,5.8338372 9.9252895,5.7827442 9.6210775,5.7670233 9.2997031,5.8090465 9.0120638,5.6823721 8.8134979,5.6034651 8.651035,5.4441395 8.556043,5.2500465 8.3826308,4.9193023 8.4063048,4.5262791 8.4566121,4.1671163 8.2355559,4.0174651 7.9961525,3.8986512 7.7502386,3.7982791 7.6354196,3.7562558 7.5279987,3.6948837 7.4081489,3.6682791 6.9752103,3.5222558 6.5319143,3.4097907 6.0838836,3.3251395 5.8891646,3.2813023 5.690007,3.2607442 5.495584,3.2166047 5.3094471,3.1800233 5.1209428,3.1603721 4.9327343,3.1373953 4.0384482,3.032186 3.1373558,2.9922791 2.2374471,3.0004419 2.1146381,3.0013488 1.9912375,2.9989302 1.8681325,2.9998372 v 0 c -0.1231049,9.07e-4 -0.2459138,0.00544 -0.368131,0.021163 1.3544499,0.025093 2.7124507,0.1384651 4.0387876,0.429907 0.2562714,0.034163 0.5039608,0.1121628 0.7537217,0.1771628 0.1210334,0.029023 0.2340769,0.084047 0.3545185,0.1157907 0.2006372,0.052 0.3965398,0.1206279 0.5951056,0.1807907 0.1216253,0.053814 0.2530162,0.078302 0.3734577,0.1345348 0.1802184,0.078302 0.3559979,0.1659768 0.5311858,0.2557675 0.022491,0.015419 0.058298,0.022977 0.064808,0.054721 C 8.2568624,4.5643721 8.2811284,4.763907 8.3364667,4.956186 8.4403365,5.3159535 8.572615,5.6702791 8.7599357,5.9940698 8.5604818,6.0911163 8.3882534,6.2377442 8.2376274,6.401 8.0227856,6.6425581 7.8558838,6.934 7.7842699,7.2535581 7.6972669,7.5806744 7.7153189,7.8975116 7.7907799,8.2249302 7.8727509,8.5178837 8.0189382,8.7316279 8.2178,8.9589767 8.6167073,9.423047 9.2375584,9.691512 9.8424285,9.620163 c 0.7291615,-0.05986 1.4888005,0.05986 2.1294785,0.434139 0.336171,0.198628 0.653995,0.442907 0.893991,0.758233 0.326405,0.378814 0.571727,0.85407 0.759047,1.319651 0.02722,0.07014 0.05209,0.142093 0.08997,0.207395 0,-0.08737 -0.03137,-0.169 -0.06008,-0.249418 -0.08731,-0.237628 -0.185841,-0.501861 -0.309241,-0.722558 -0.1453,-0.26514 -0.305099,-0.524233 -0.506328,-0.749465 -0.293558,-0.36128 -0.651923,-0.669954 -1.061782,-0.88521 0.312499,0.04112 0.61671,0.13393 0.913227,0.239744 0.317528,0.116093 0.622626,0.269675 0.896653,0.471326 0.270476,0.224023 0.508695,0.491884 0.684178,0.800558 0.09115,0.149349 0.148851,0.346768 0.228456,0.502163 -0.07013,-0.36007 -0.246506,-0.721349 -0.467562,-1.007349 -0.1308,-0.173535 -0.29711,-0.312302 -0.460165,-0.451977 C 13.195856,9.984163 12.758182,9.769512 12.305416,9.614419 11.474163,9.335674 10.594672,9.228953 9.7222855,9.229256 9.5115855,9.230456 9.2988157,9.202346 9.1005456,9.126767 8.6424531,8.9586744 8.2817202,8.6058605 8.1692686,8.1221395 8.0242653,7.597 8.1852486,7.0307442 8.563441,6.6476977 8.8706115,6.3272326 9.3183464,6.1446279 9.7580915,6.1884651 c 0.4545415,0.033256 0.8865915,0.1956047 1.3109485,0.3543256 0.34712,0.1384651 0.696312,0.2754186 1.031595,0.442907 0.0088,0.09886 0.01657,0.2001395 0.05208,0.2938604 0.04764,0.095837 0.150035,0.1417907 0.241181,0.1850233 0.173115,0.079209 0.337354,0.1499535 0.484724,0.2726977 0.109197,0.090093 0.199751,0.1998372 0.303621,0.2956744 0.03461,-0.056535 0.04025,-0.070442 0.05001,-0.090093 0.0057,-0.00605 0.0018,3.023e-4 0.0094,-0.00847 0.06422,-0.06893 0.154474,-0.092512 0.239996,-0.127279 z m -1.242591,4.4224187 v 0 c 0.174893,0.175349 0.131096,0.511232 -0.09735,0.749767 C 11.360229,13.795581 9.7208045,14.5 8.0103568,14.5 6.323583,14.5 4.7048719,13.813721 3.5122932,12.595349 2.3197145,11.376977 1.6479641,9.723256 1.6479641,8 c 0,-0.5381395 0.065103,-1.0732558 0.065103,-1.0732558 0.070134,-0.286907 0.3201915,-0.4704186 0.5578194,-0.4096512 v 0 c 0.237628,0.060767 0.3814477,0.3123023 0.3210789,0.560814 0,0 -0.056226,0.4595349 -0.056226,0.922093 0,1.481395 0.5770542,2.905349 1.6039148,3.954419 1.0268606,1.049069 2.4206684,1.638604 3.8707021,1.638604 1.4707474,0 2.8823107,-0.607674 3.4978347,-1.249209 0.228751,-0.238233 0.556045,-0.289628 0.730936,-0.114279 z M 8.1438191,4.4395116 C 6.5035054,4.4253023 4.8575693,4.5023953 3.236195,4.7699535 2.8115422,4.842814 2.3842261,4.9093256 1.9687471,5.0269302 3.3578202,4.8273953 4.7572506,4.6925581 6.1602323,4.660814 6.8435235,4.6562791 7.5282946,4.6786512 8.2086267,4.748186 8.1858406,4.6456977 8.1624623,4.542907 8.1438191,4.4395116 Z M 8.250944,4.8936047 C 7.3279532,4.982186 6.4221261,5.2062093 5.5435239,5.5033953 4.9362854,5.7162326 4.339996,5.9650465 3.7656052,6.2586047 3.5617127,6.3635116 3.3557487,6.4647907 3.1622136,6.5893488 3.3806064,6.493814 3.5933767,6.3852791 3.8141369,6.2957907 5.2508539,5.6923488 6.7730934,5.2693953 8.3293642,5.1880698 c -0.029889,-0.097047 -0.058002,-0.195 -0.07842,-0.2944651 z m 1.829706,0.3098837 c 0.163055,0.074977 0.334691,0.1275814 0.496563,0.2055814 0.494196,0.2206976 0.968859,0.4958139 1.38641,0.8465116 0.151217,0.128186 0.292374,0.2690698 0.41459,0.4259767 0.03196,0.035674 0.08523,0.00877 0.126657,0.015116 C 12.45841,6.6093023 12.373478,6.5530698 12.307487,6.4823256 11.973979,6.1479535 11.591052,5.866186 11.177053,5.645186 10.828156,5.4601628 10.463576,5.2984186 10.08065,5.2034884 Z"
     fill-rule="evenodd"
     id="path2"
     style="fill:url(#linearGradient4)" />
</svg>
