<?xml version="1.0" encoding="UTF-8" standalone="no"?>
<!-- Generator: Gravit.io -->

<svg
   style="isolation:isolate"
   viewBox="0 0 16 16"
   width="16pt"
   height="16pt"
   version="1.1"
   id="svg4"
   sodipodi:docname="distributor-logo-ubuntu-studio.svg"
   inkscape:version="1.4.2 (unknown)"
   xmlns:inkscape="http://www.inkscape.org/namespaces/inkscape"
   xmlns:sodipodi="http://sodipodi.sourceforge.net/DTD/sodipodi-0.dtd"
   xmlns:xlink="http://www.w3.org/1999/xlink"
   xmlns="http://www.w3.org/2000/svg"
   xmlns:svg="http://www.w3.org/2000/svg">
  <defs
     id="defs4">
    <linearGradient
       id="linearGradient4"
       inkscape:collect="always">
      <stop
         style="stop-color:#c061cb;stop-opacity:1"
         offset="0"
         id="stop5" />
      <stop
         style="stop-color:#cdab8f;stop-opacity:1"
         offset="1"
         id="stop6" />
    </linearGradient>
    <linearGradient
       inkscape:collect="always"
       xlink:href="#linearGradient4"
       id="linearGradient6"
       x1="1.225185"
       y1="12.170163"
       x2="12.658175"
       y2="1.3130202"
       gradientUnits="userSpaceOnUse" />
  </defs>
  <sodipodi:namedview
     id="namedview4"
     pagecolor="#ffffff"
     bordercolor="#000000"
     borderopacity="0.25"
     inkscape:showpageshadow="2"
     inkscape:pageopacity="0.0"
     inkscape:pagecheckerboard="0"
     inkscape:deskcolor="#d1d1d1"
     inkscape:document-units="pt"
     inkscape:zoom="23.625"
     inkscape:cx="11.936508"
     inkscape:cy="9.6931217"
     inkscape:current-layer="svg4" />
  <linearGradient
     id="_lgradient_36"
     x1="16.515034"
     y1="22.420639"
     x2="37.999886"
     y2="22.420639"
     gradientTransform="matrix(0.93419325,0,0,1.0704424,-0.99482816,-0.94094807)"
     gradientUnits="userSpaceOnUse"
     xlink:href="#linearGradient4">
    <stop
       offset="0%"
       stop-opacity="1"
       style="stop-color:rgb(0,198,255)"
       id="stop1" />
    <stop
       offset="98.69565217391305%"
       stop-opacity="1"
       style="stop-color:rgb(0,114,255)"
       id="stop2" />
  </linearGradient>
  <linearGradient
     id="_lgradient_37"
     x1="-3.8208334e-05"
     y1="0.50000006"
     x2="0.99996185"
     y2="0.50000006"
     gradientTransform="matrix(47.058,0,0,46.985002,-0.49982816,-0.38194805)"
     gradientUnits="userSpaceOnUse">
    <stop
       offset="0%"
       stop-opacity="1"
       style="stop-color:rgb(0,198,255)"
       id="stop3" />
    <stop
       offset="98.69565217391305%"
       stop-opacity="1"
       style="stop-color:rgb(0,114,255)"
       id="stop4" />
  </linearGradient>
  <g
     id="g4"
     transform="translate(0.99482816,0.94094807)">
    <path
       d="m 5.0420848,5.0883952 c 0.7913234,-0.7913234 1.981352,-1.028167 3.0153294,-0.5998563 1.0339774,0.4283106 1.7079857,1.4371096 1.7079857,2.5563064 0,1.1191969 -0.6740083,2.1279958 -1.7079857,2.5563065 C 7.0234368,10.029463 5.8334082,9.7926189 5.0420848,9.0012955"
       fill="none"
       vector-effect="non-scaling-stroke"
       stroke-width="3"
       stroke-linejoin="miter"
       stroke-linecap="round"
       stroke-miterlimit="4"
       id="path2"
       style="stroke:#c061cb;stroke-opacity:1" />
    <path
       d="m 6.5605403,12.377147 v 0 c 0.3248299,0.02739 0.5669306,0.31404 0.5403687,0.6397 v 0 C 7.07407,13.34223 6.7874232,13.584331 6.4612098,13.556939 v 0 C 4.8259927,13.420809 3.29979,12.670158 2.192214,11.455781 1.0874048,10.241404 0.48035468,8.6526705 0.49529575,7.0102595 0.51079019,5.2851193 1.2124671,3.6344077 2.4426153,2.4233509 3.6755303,1.215061 5.3389694,0.54381957 7.0641097,0.55931401 8.78925,0.57480846 10.439962,1.2764854 11.651018,2.5066335 c 1.208014,1.232915 1.879532,2.8963542 1.864037,4.6214945 v 0 c -0.003,0.32649 -0.270599,0.5893422 -0.597089,0.5862986 v 0 C 12.591199,7.7116598 12.328347,7.4441039 12.33139,7.1173372 v 0 C 12.344118,5.7059594 11.794342,4.3454919 10.806018,3.3364163 9.8149268,2.3301076 8.4646967,1.7557064 7.0533189,1.7429788 5.6419411,1.7302512 4.2814737,2.2800273 3.272398,3.2683514 2.2660893,4.2594424 1.6916881,5.6096725 1.6789606,7.0210503 c -0.012174,1.3433129 0.4819878,2.6440161 1.3875827,3.6375977 0.9053182,0.993581 2.1545577,1.605611 3.493997,1.718499 z M 11.699438,9.5887009 v 0 C 11.85383,9.300947 12.212969,9.1927626 12.500723,9.3471536 v 0 c 0.287477,0.1546678 0.395661,0.5135301 0.24127,0.8012844 v 0 c -0.659067,1.225167 -1.694981,2.210171 -2.9522447,2.805324 v 0 c -0.2952245,0.14111 -0.6488298,0.01577 -0.7888332,-0.279453 v 0 c -0.14028,-0.295225 -0.014388,-0.649384 0.2808368,-0.790494 v 0 C 10.312962,11.396017 11.157686,10.592796 11.699438,9.5887009 Z M 6.1684755,7.0448453 c 0,-0.2213492 0.08854,-0.4316309 0.2434842,-0.5865753 0.1549444,-0.1549445 0.3652261,-0.2434841 0.5865753,-0.2434841 0.2213492,0 0.4316309,0.08854 0.5865754,0.2434841 0.1549444,0.1549444 0.2434841,0.3652261 0.2434841,0.5865753 0,0.2213492 -0.08854,0.431631 -0.2434841,0.5865754 -0.1549445,0.1549444 -0.3652262,0.2434841 -0.5865754,0.2434841 -0.2213492,0 -0.4316309,-0.08854 -0.5865753,-0.2434841 C 6.2570152,7.4764763 6.1684755,7.2661945 6.1684755,7.0448453 Z M 4.7186383,7.625887 C 4.746307,7.7337947 4.7297058,7.8472362 4.6743685,7.9413096 4.6190312,8.035383 4.5277247,8.1045546 4.4198169,8.1322232 4.3146761,8.1598919 4.2012346,8.1432907 4.1071612,8.0879534 4.0103209,8.0298492 3.9439162,7.9385427 3.9162475,7.8334018 3.8498428,7.5760834 3.8166404,7.3104644 3.8166404,7.0448453 c 0,-0.265619 0.033202,-0.531238 0.099607,-0.7885565 0.027669,-0.1051408 0.094073,-0.1964474 0.1909137,-0.2545515 0.094073,-0.055337 0.2075149,-0.071938 0.3126557,-0.04427 0.1079078,0.027669 0.1992143,0.09684 0.2545516,0.1909137 0.055337,0.094073 0.071938,0.2075149 0.04427,0.3154226 -0.047037,0.1881468 -0.071938,0.3845942 -0.071938,0.5810416 0,0.1964474 0.024902,0.3928949 0.071938,0.5810418 z M 3.290936,8.1654256 C 3.3213716,8.2705665 3.3103041,8.384008 3.2577337,8.4808482 3.2079301,8.5776885 3.1193904,8.649627 3.0114827,8.6828294 2.9063418,8.7132649 2.7929004,8.7021974 2.6960601,8.649627 2.5992198,8.5970565 2.5272813,8.5085169 2.4968458,8.403376 2.3612694,7.9634445 2.2948647,7.5041449 2.2948647,7.0448453 c 0,-0.4592995 0.066405,-0.9185991 0.2019811,-1.3585306 0.030435,-0.1051409 0.102374,-0.1936806 0.1992143,-0.246251 0.09684,-0.05257 0.2102817,-0.063638 0.3181895,-0.033202 0.1051408,0.033202 0.1936805,0.1051409 0.2434841,0.2019812 0.05257,0.09684 0.063638,0.2102817 0.033202,0.3154226 -0.1106746,0.3652261 -0.1660118,0.7415197 -0.1660118,1.1205802 0,0.3790605 0.055337,0.7553542 0.1660121,1.1205799 z M 7.878398,3.2736085 C 7.7704903,3.2487067 7.6791838,3.1795351 7.6210796,3.0882285 7.5629754,2.9941551 7.5436074,2.8807137 7.5685092,2.7728059 7.593411,2.6676651 7.6598157,2.5735917 7.7538891,2.5154875 c 0.094073,-0.058104 0.204748,-0.077472 0.3126558,-0.05257 0.9324334,0.2185823 1.7735604,0.7138511 2.4154731,1.4221685 0.0747,0.083006 0.113441,0.1909137 0.107908,0.2988214 -0.0055,0.1106746 -0.05257,0.2130486 -0.135577,0.287754 -0.08024,0.074705 -0.188147,0.1134414 -0.298821,0.1079077 C 10.044853,4.574035 9.9424793,4.5242314 9.8677739,4.4439923 9.3393027,3.8601838 8.6448196,3.4506878 7.878398,3.2736085 Z M 5.3384161,7.0448453 c 0,-0.4399315 0.1743125,-0.8632618 0.4869682,-1.1731507 0.3098889,-0.3126557 0.7332192,-0.4869682 1.1731507,-0.4869682 0.4399315,0 0.8632619,0.1743125 1.1731507,0.4869682 0.3126558,0.3098889 0.4869683,0.7332192 0.4869683,1.1731507 0,0.4399316 -0.1743125,0.8632619 -0.4869683,1.1731508 C 7.8617969,8.5306518 7.4384665,8.7049643 6.998535,8.7049643 6.5586035,8.7049643 6.1352732,8.5306518 5.8253843,8.2179961 5.5127286,7.9081072 5.3384161,7.4847769 5.3384161,7.0448453 Z m 4.5321247,2.5980862 c 0.074705,-0.080239 0.1770792,-0.1300427 0.2877542,-0.1355764 0.110674,-0.00553 0.218582,0.033202 0.298821,0.1079077 0.08301,0.071938 0.130043,0.1770794 0.135577,0.2849871 0.0055,0.1106751 -0.0332,0.2185821 -0.105141,0.3015881 -0.641913,0.708318 -1.4858068,1.206353 -2.4182403,1.422169 -0.1079077,0.02767 -0.2213492,0.0083 -0.3154226,-0.0498 C 7.6625831,11.516107 7.5961778,11.42203 7.571276,11.316889 7.543607,11.208981 7.562976,11.09554 7.62108,11.001466 7.679184,10.907396 7.7732576,10.840988 7.8783984,10.816086 8.6475869,10.639007 9.34207,10.229511 9.8705412,9.6429355 Z"
       fill-rule="evenodd"
       fill="url(#_lgradient_37)"
       id="path4"
       style="fill:url(#linearGradient6);stroke-width:1;fill-opacity:1" />
  </g>
</svg>
