<?xml version="1.0" encoding="UTF-8" standalone="no"?>
<!-- Generator: Gravit.io -->

<svg
   style="isolation:isolate"
   viewBox="0 0 16 16"
   width="16pt"
   height="16pt"
   version="1.1"
   id="svg2"
   sodipodi:docname="distributor-logo-ubuntu-mate.svg"
   inkscape:version="1.4.2 (unknown)"
   xmlns:inkscape="http://www.inkscape.org/namespaces/inkscape"
   xmlns:sodipodi="http://sodipodi.sourceforge.net/DTD/sodipodi-0.dtd"
   xmlns:xlink="http://www.w3.org/1999/xlink"
   xmlns="http://www.w3.org/2000/svg"
   xmlns:svg="http://www.w3.org/2000/svg">
  <defs
     id="defs2">
    <linearGradient
       id="linearGradient2"
       inkscape:collect="always">
      <stop
         style="stop-color:#c061cb;stop-opacity:1"
         offset="0"
         id="stop3" />
      <stop
         style="stop-color:#b5835a;stop-opacity:1"
         offset="1"
         id="stop4" />
    </linearGradient>
    <linearGradient
       inkscape:collect="always"
       xlink:href="#linearGradient2"
       id="linearGradient4"
       x1="3.0933821"
       y1="12.288439"
       x2="11.699042"
       y2="2.6525254"
       gradientUnits="userSpaceOnUse" />
  </defs>
  <sodipodi:namedview
     id="namedview2"
     pagecolor="#ffffff"
     bordercolor="#000000"
     borderopacity="0.25"
     inkscape:showpageshadow="2"
     inkscape:pageopacity="0.0"
     inkscape:pagecheckerboard="0"
     inkscape:deskcolor="#d1d1d1"
     inkscape:document-units="pt"
     inkscape:zoom="16.705398"
     inkscape:cx="10.176352"
     inkscape:cy="12.690509"
     inkscape:current-layer="svg2" />
  <linearGradient
     id="_lgradient_35"
     x1="0.99411762"
     y1="0.48015597"
     x2="0.00018059855"
     y2="0.45213065"
     gradientTransform="matrix(47.058,0,0,46.985002,0.495,0.55900002)"
     gradientUnits="userSpaceOnUse">
    <stop
       offset="0%"
       stop-opacity="1"
       style="stop-color:rgb(17,153,142)"
       id="stop1" />
    <stop
       offset="99.1304347826087%"
       stop-opacity="1"
       style="stop-color:rgb(56,239,125)"
       id="stop2" />
  </linearGradient>
  <path
     d="m 8.4446365,13.318095 v 0 c -0.32483,0.02739 -0.5669306,0.31404 -0.5403687,0.6397 v 0 c 0.026562,0.325383 0.3132091,0.567484 0.6396991,0.540092 v 0 C 10.179184,14.361757 11.705387,13.611106 12.812963,12.396729 13.917772,11.182352 14.524822,9.5936186 14.509881,7.9512076 14.494387,6.2260674 13.79271,4.5753558 12.562562,3.364299 11.32937,2.1560091 9.6662073,1.4847676 7.9410671,1.5002621 6.2159268,1.5157565 4.5652152,2.2174335 3.3541584,3.4475816 2.1458685,4.6804966 1.4743504,6.3439358 1.4901216,8.0690761 v 0 c 0.00277,0.32649 0.2705993,0.5893422 0.5970894,0.5862986 v 0 C 2.4139777,8.6526079 2.6765532,8.385052 2.6737864,8.0582853 v 0 C 2.6607821,6.6469075 3.2108348,5.28644 4.199159,4.2773644 5.19025,3.2710557 6.5402034,2.6966545 7.9518578,2.6839269 c 1.4113778,-0.012728 2.7718452,0.5370485 3.7809212,1.5253726 1.006309,0.991091 1.58071,2.3413211 1.593438,3.7526989 0.01217,1.3433129 -0.481988,2.6440156 -1.387583,3.6375976 -0.905318,0.993581 -2.1545582,1.605611 -3.4939975,1.718499 z M 3.3057383,10.529649 v 0 C 3.1510705,10.241895 2.7922082,10.133711 2.5044542,10.288102 v 0 c -0.2877539,0.154667 -0.3959383,0.51353 -0.2412706,0.801284 v 0 c 0.6590672,1.225167 1.6949814,2.210171 2.9519682,2.805324 v 0 c 0.2952244,0.14111 0.6488298,0.01577 0.7891098,-0.279453 v 0 c 0.1402801,-0.295225 0.014388,-0.649384 -0.2808368,-0.790494 v 0 C 4.6922143,12.336965 3.8474904,11.533744 3.3057383,10.529649 Z M 8.9180471,3.9483842 11.067625,5.2189285 8.9155569,6.4894729 Z M 7.9933608,4.601641 c 0.1577113,0 0.3118257,0.012451 0.4634499,0.033756 v 0.4706438 c -0.1507942,-0.024348 -0.3054619,-0.03846 -0.4634499,-0.03846 -1.2290414,0 -2.2801734,0.7534173 -2.7115276,1.8253008 L 4.883128,6.6574216 C 5.4008084,5.4507918 6.5999676,4.601641 7.9933608,4.601641 Z m 0,1.1504624 c 0.157988,0 0.3121024,0.018815 0.4612364,0.050357 V 6.2805746 C 8.3074,6.2415618 8.1530089,6.2208103 7.9933608,6.2208103 c -0.8073712,0 -1.4813795,0.5362184 -1.6933213,1.2727579 L 5.8869466,7.2484239 C 6.1926851,6.379075 7.0227446,5.7521034 7.9933608,5.7521034 Z m 2.7140182,0.2138787 c 0.42084,0.5641637 0.670135,1.2639038 0.670135,2.0198113 0,0.7675284 -0.258702,1.4775059 -0.691717,2.0463736 L 10.284602,9.7942163 c 0.392618,-0.4966522 0.626971,-1.1239005 0.626971,-1.8084229 0,-0.6717948 -0.226053,-1.2899124 -0.60539,-1.7821376 z M 9.7057735,6.5591979 c 0.3242765,0.3879145 0.5212775,0.8848434 0.5212775,1.4265955 0,0.5539264 -0.205301,1.0638596 -0.542859,1.455371 L 9.2735892,9.1985103 C 9.573794,8.8830877 9.7586206,8.458374 9.7586206,7.9855168 c 0,-0.4592996 -0.1737591,-0.8754361 -0.4587462,-1.1889219 z m -5.62974,0.1560512 2.1495773,1.2705443 -2.1520675,1.2705444 z m 2.224006,1.7627696 c 0.2122185,0.7359861 0.8862268,1.2705444 1.6933213,1.2705444 0.1596481,0 0.3140392,-0.021305 0.4612364,-0.060041 V 10.16885 c -0.1488573,0.03154 -0.3029717,0.05036 -0.4609597,0.05036 -0.9714463,0 -1.8015057,-0.6280785 -2.1064143,-1.4985342 z M 5.2818332,9.0784284 c 0.4310776,1.0721596 1.4824862,1.8253006 2.7115276,1.8253006 0.1566046,0 0.3093355,-0.01217 0.4587462,-0.03597 v 0.46843 c -0.1496874,0.02075 -0.302695,0.03348 -0.4584695,0.03348 -1.3933932,0 -2.5925524,-0.84915 -3.1102328,-2.0560568 z m 3.6340004,0.4443585 2.1495774,1.2680541 -2.1520676,1.270544 z"
     fill-rule="evenodd"
     id="path2"
     style="fill:url(#linearGradient4)" />
</svg>
