<?xml version="1.0" encoding="UTF-8" standalone="no"?>
<!-- Generator: Gravit.io -->

<svg
   style="isolation:isolate"
   viewBox="0 0 16 16"
   width="16pt"
   height="16pt"
   version="1.1"
   id="svg5"
   sodipodi:docname="distributor-logo-endeavouros.svg"
   inkscape:version="1.4.2 (unknown)"
   xmlns:inkscape="http://www.inkscape.org/namespaces/inkscape"
   xmlns:sodipodi="http://sodipodi.sourceforge.net/DTD/sodipodi-0.dtd"
   xmlns="http://www.w3.org/2000/svg"
   xmlns:svg="http://www.w3.org/2000/svg">
  <defs
     id="defs5" />
  <sodipodi:namedview
     id="namedview5"
     pagecolor="#ffffff"
     bordercolor="#000000"
     borderopacity="0.25"
     inkscape:showpageshadow="2"
     inkscape:pageopacity="0.0"
     inkscape:pagecheckerboard="0"
     inkscape:deskcolor="#d1d1d1"
     inkscape:document-units="pt"
     inkscape:zoom="23.625"
     inkscape:cx="12.888889"
     inkscape:cy="15.703704"
     inkscape:current-layer="svg5" />
  <linearGradient
     id="_lgradient_7"
     x1="0.065538079"
     y1="0.88138878"
     x2="0.99888921"
     y2="0.49353579"
     gradientTransform="matrix(42.661701,1.7452496,-1.5010359,37.204912,1.9076142,6.0225497)"
     gradientUnits="userSpaceOnUse">
    <stop
       offset="0%"
       stop-opacity="1"
       style="stop-color:rgb(248,171,149)"
       id="stop1" />
    <stop
       offset="48.75%"
       stop-opacity="1"
       style="stop-color:rgb(241,125,173)"
       id="stop2" />
    <stop
       offset="98.33333333333333%"
       stop-opacity="1"
       style="stop-color:rgb(238,115,200)"
       id="stop3" />
  </linearGradient>
  <linearGradient
     id="_lgradient_8"
     x1="0.3760716"
     y1="0.23518644"
     x2="0.9495362"
     y2="0.97195059"
     gradientTransform="matrix(45.603513,0,0,41.16666,5.308886,7.2087995)"
     gradientUnits="userSpaceOnUse">
    <stop
       offset="0%"
       stop-opacity="1"
       style="stop-color:rgb(199,81,251)"
       id="stop4" />
    <stop
       offset="97.5%"
       stop-opacity="1"
       style="stop-color:rgb(109,68,222)"
       id="stop5" />
  </linearGradient>
  <g
     id="g5"
     transform="matrix(0.9293582,0,0,0.92307703,-0.43485667,-2.1542769)"
     style="stroke-width:1.07965">
    <path
       d="m 10.325051,4.8985195 c 0.582266,0.9274526 1.355086,1.8696158 1.867221,2.8353845 0.64453,1.241507 1.222691,2.518251 1.731062,3.819285 0.155659,0.38316 0.280186,0.774873 0.373581,1.175822 0.07903,0.325344 0.11358,0.658899 0.10708,0.990743 -0.0058,0.393423 -0.124185,0.775557 -0.33937,1.10569 -0.214502,0.299344 -0.50803,0.537451 -0.846374,0.684557 -0.351686,0.150185 -0.718767,0.248027 -1.097137,0.291133 -0.426608,0.0544 -0.859032,0.078 -1.290429,0.07424 l -0.9520842,0.0092 c -0.884005,0.01543 -1.7673258,0.0103 -2.6492781,-0.01878 C 6.3850021,15.831581 5.54205,15.759739 4.7042294,15.646843 3.6826973,15.509659 2.67006,15.321157 1.6697386,15.082025 1.4935534,15.04063 1.3515789,14.907892 1.2971838,14.734786 c -0.051316,-0.170028 -0.013,-0.356818 0.1053691,-0.492293 L 9.5060461,4.8307823 C 9.6138099,4.7120711 9.773916,4.6467286 9.9343643,4.6600708 10.094813,4.6734129 10.241577,4.7616766 10.325051,4.8985195 Z M 9.697284,6.023368 c 0.436529,0.7197935 1.194296,1.4488239 1.585325,2.1870913 0.628793,1.2100332 1.191217,2.4518827 1.687273,3.7252057 0.136842,0.334238 0.246317,0.681135 0.327738,1.030084 0.05884,0.242212 0.08621,0.489898 0.07971,0.736215 -0.001,0.19158 -0.05645,0.381107 -0.15908,0.544635 -0.105027,0.139579 -0.246317,0.25008 -0.406765,0.322607 -0.257949,0.109132 -0.531293,0.18029 -0.813189,0.213475 -0.385555,0.04926 -0.773504,0.07116 -1.160085,0.06568 -0.0034,0 -0.0068,-3.42e-4 -0.01026,-3.42e-4 l -0.9623472,0.0089 c 0,0 -0.00342,-3.42e-4 -0.00342,-3.42e-4 -0.8668996,0.01608 -1.729694,0.01197 -2.5948831,-0.01642 C 6.4537657,14.807312 5.6453663,14.736838 4.8383355,14.628732 4.1366736,14.534995 3.4398012,14.414231 2.7470342,14.26952 Z"
       fill-rule="evenodd"
       id="path3"
       style="fill:#ed969e" />
    <path
       d="m 10.404078,4.6200442 c 0.506318,0.4207919 0.981847,0.8723734 1.430008,1.3547445 0.496055,0.5302662 0.961321,1.0879009 1.402639,1.6694832 0.489213,0.6431615 0.951058,1.3068495 1.385534,1.9910639 0.482371,0.7560572 0.940795,1.5257982 1.375271,2.3126442 0.263423,0.461845 0.482371,0.947637 0.656846,1.450535 0.136843,0.393423 0.212107,0.803952 0.22237,1.221323 0.0068,0.396844 -0.08895,0.790267 -0.283949,1.135796 -0.19158,0.318159 -0.458424,0.588424 -0.780005,0.776583 -0.325002,0.195001 -0.677372,0.335265 -1.046848,0.424213 -0.403686,0.09921 -0.814215,0.167632 -1.224743,0.198422 -1.423166,0.123159 -2.849753,0.198422 -4.2797615,0.232633 -2.1210647,0.05474 -4.2421293,0.09237 -6.363194,0.112895 C 2.7100866,17.50378 2.539033,17.40459 2.446664,17.2438 2.354295,17.08301 2.354295,16.881166 2.450084,16.723797 L 9.6343363,4.750045 C 9.713021,4.6200442 9.8430217,4.5310963 9.9901278,4.5071488 10.137234,4.4832013 10.287761,4.5242542 10.404078,4.6200442 Z m -0.201844,1.1836909 c 0.304476,0.2771069 0.598688,0.567898 0.879216,0.8689523 0.472108,0.5063187 0.916847,1.0400059 1.337639,1.5907985 0.472108,0.6226351 0.916847,1.2657966 1.337639,1.9226421 0.472108,0.738952 0.920268,1.495009 1.344481,2.261329 0.236054,0.410529 0.431055,0.841584 0.581583,1.286323 0.106053,0.290791 0.16079,0.598688 0.167632,0.906584 0.0034,0.212107 -0.0479,0.417371 -0.147106,0.602109 -0.102632,0.167632 -0.242896,0.307896 -0.410529,0.407107 -0.239475,0.140264 -0.499476,0.246318 -0.769741,0.307897 -0.348949,0.08895 -0.708162,0.147106 -1.070795,0.177896 -1.399219,0.119737 -2.805279,0.195001 -4.214761,0.22579 -1.8097471,0.04447 -3.6229153,0.07869 -5.4326624,0.102632 z"
       fill-rule="evenodd"
       id="path5"
       style="fill:#8660cb" />
  </g>
</svg>
