<?xml version="1.0" encoding="UTF-8" standalone="no"?>
<svg
   width="16"
   height="16"
   viewBox="0 0 16 16"
   fill="none"
   version="1.1"
   id="svg23"
   sodipodi:docname="dragonplayer.svg"
   inkscape:version="1.3 (0e150ed6c4, 2023-07-21)"
   xmlns:inkscape="http://www.inkscape.org/namespaces/inkscape"
   xmlns:sodipodi="http://sodipodi.sourceforge.net/DTD/sodipodi-0.dtd"
   xmlns:xlink="http://www.w3.org/1999/xlink"
   xmlns="http://www.w3.org/2000/svg"
   xmlns:svg="http://www.w3.org/2000/svg">
  <sodipodi:namedview
     id="namedview23"
     pagecolor="#ffffff"
     bordercolor="#000000"
     borderopacity="0.25"
     inkscape:showpageshadow="2"
     inkscape:pageopacity="0.0"
     inkscape:pagecheckerboard="0"
     inkscape:deskcolor="#d1d1d1"
     inkscape:zoom="31.958333"
     inkscape:cx="7.2750979"
     inkscape:cy="4.3024772"
     inkscape:window-width="1920"
     inkscape:window-height="994"
     inkscape:window-x="0"
     inkscape:window-y="0"
     inkscape:window-maximized="1"
     inkscape:current-layer="svg23" />
  <path
     style="color:#d6dbf1;fill:url(#linearGradient2);fill-opacity:1;stroke-width:0.8125"
     class="ColorScheme-Text "
     d="M 8,1.5 C 4.4055,1.5 1.5,4.4055 1.5,8 c 0,3.594501 2.9055,6.500001 6.5,6.500001 3.594498,0 6.499996,-2.9055 6.499996,-6.500001 C 14.499996,4.4055 11.594498,1.5 8,1.5 Z m 0,0.8125 c 3.144377,0 5.687496,2.54312 5.687496,5.6875 0,3.144371 -2.543121,5.687501 -5.687496,5.687501 C 4.855626,13.687501 2.3125,11.144371 2.3125,8 2.3125,4.85562 4.855626,2.3125 8,2.3125 Z m 0.609375,4.64669 v 0 0 0 0 0 c 0,0 -0.02761,0.006 0,0 z m -0.634569,3.656251 z"
     id="path58-9"
     sodipodi:nodetypes="ssssssssssccccccccccccccccc" />
  <defs
     id="defs23">
    <linearGradient
       id="linearGradient26"
       inkscape:collect="always">
      <stop
         style="stop-color:#ff2a2a;stop-opacity:1"
         offset="0"
         id="stop26" />
      <stop
         style="stop-color:#ff9955;stop-opacity:1"
         offset="1"
         id="stop27" />
    </linearGradient>
    <linearGradient
       id="linearGradient24"
       inkscape:collect="always">
      <stop
         style="stop-color:#ff5555;stop-opacity:1"
         offset="0"
         id="stop24" />
      <stop
         style="stop-color:#ff2a2a;stop-opacity:1"
         offset="1"
         id="stop25" />
    </linearGradient>
    <linearGradient
       id="linearGradient7"
       x1="169.86"
       y1="7.7666602"
       x2="-5.1536398"
       y2="162.661"
       gradientUnits="userSpaceOnUse"
       gradientTransform="matrix(0.08102633,0,0,0.08102633,-30.116839,-21.769306)">
      <stop
         stop-color="#FE7970"
         id="stop3"
         style="stop-color:#ff8080;stop-opacity:1" />
      <stop
         offset="1"
         stop-color="#DC3282"
         id="stop4"
         style="stop-color:#ff2a2a;stop-opacity:1" />
    </linearGradient>
    <linearGradient
       id="paint0_linear"
       x1="169.86"
       y1="7.7666602"
       x2="-5.1536398"
       y2="162.661"
       gradientUnits="userSpaceOnUse"
       gradientTransform="matrix(0.08102633,0,0,0.08102633,-30.116839,-21.769306)">
      <stop
         stop-color="#FE7970"
         id="stop8" />
      <stop
         offset="1"
         stop-color="#DC3282"
         id="stop9" />
    </linearGradient>
    <linearGradient
       id="paint1_linear"
       x1="169.86"
       y1="7.7666602"
       x2="-5.1536398"
       y2="162.661"
       gradientUnits="userSpaceOnUse"
       gradientTransform="matrix(0.07643993,0,0,0.07643993,-29.649441,-21.21261)">
      <stop
         stop-color="#FE7970"
         id="stop10" />
      <stop
         offset="1"
         stop-color="#DC3282"
         id="stop11" />
    </linearGradient>
    <linearGradient
       id="paint2_linear"
       x1="169.86"
       y1="7.7666602"
       x2="-5.1536398"
       y2="162.661"
       gradientUnits="userSpaceOnUse"
       gradientTransform="matrix(0.08102633,0,0,0.08102633,-30.116839,-21.769306)">
      <stop
         stop-color="#FE7970"
         id="stop12" />
      <stop
         offset="1"
         stop-color="#DC3282"
         id="stop13" />
    </linearGradient>
    <linearGradient
       id="paint3_linear"
       x1="169.86"
       y1="7.7666602"
       x2="-5.1536398"
       y2="162.661"
       gradientUnits="userSpaceOnUse"
       gradientTransform="matrix(0.08102633,0,0,0.08102633,-30.116839,-21.769306)">
      <stop
         stop-color="#FE7970"
         id="stop14" />
      <stop
         offset="1"
         stop-color="#DC3282"
         id="stop15" />
    </linearGradient>
    <linearGradient
       id="paint4_linear"
       x1="99.9562"
       y1="172.27"
       x2="99.9562"
       y2="18.075899"
       gradientUnits="userSpaceOnUse"
       gradientTransform="translate(-104.43423,-20.178818)">
      <stop
         stop-color="#FD5900"
         id="stop16" />
      <stop
         offset="1"
         stop-color="#FFDE00"
         id="stop17" />
    </linearGradient>
    <linearGradient
       id="paint5_linear"
       x1="99.9562"
       y1="172.27"
       x2="99.9562"
       y2="18.075899"
       gradientUnits="userSpaceOnUse"
       gradientTransform="translate(-216.92401,-62.362344)">
      <stop
         stop-color="#FD5900"
         id="stop18" />
      <stop
         offset="1"
         stop-color="#FFDE00"
         id="stop19" />
    </linearGradient>
    <linearGradient
       id="paint6_linear"
       x1="99.9562"
       y1="172.27"
       x2="99.9562"
       y2="18.075899"
       gradientUnits="userSpaceOnUse"
       gradientTransform="translate(-78.129252,-17.700717)">
      <stop
         stop-color="#FD5900"
         id="stop20" />
      <stop
         offset="1"
         stop-color="#FFDE00"
         id="stop21" />
    </linearGradient>
    <linearGradient
       id="paint7_linear"
       x1="99.9562"
       y1="172.27"
       x2="99.9562"
       y2="18.075899"
       gradientUnits="userSpaceOnUse"
       gradientTransform="translate(-100.57873,-39.31)">
      <stop
         stop-color="#FD5900"
         id="stop22" />
      <stop
         offset="1"
         stop-color="#FFDE00"
         id="stop23" />
    </linearGradient>
    <linearGradient
       inkscape:collect="always"
       xlink:href="#linearGradient1"
       id="linearGradient2"
       x1="1.5"
       y1="13.568481"
       x2="10.699604"
       y2="5.7835612"
       gradientUnits="userSpaceOnUse"
       gradientTransform="translate(0,-1.5e-5)" />
    <linearGradient
       id="linearGradient1"
       inkscape:collect="always">
      <stop
         style="stop-color:#ff5555;stop-opacity:1"
         offset="0"
         id="stop1" />
      <stop
         style="stop-color:#ffd42a;stop-opacity:1"
         offset="1"
         id="stop2" />
    </linearGradient>
    <linearGradient
       inkscape:collect="always"
       xlink:href="#linearGradient26"
       id="linearGradient4"
       gradientUnits="userSpaceOnUse"
       gradientTransform="matrix(0.07643993,0,0,0.07643993,1.067771,0.818686)"
       x1="169.86"
       y1="7.7666602"
       x2="-5.1536398"
       y2="162.661" />
    <linearGradient
       inkscape:collect="always"
       xlink:href="#linearGradient26"
       id="linearGradient5"
       gradientUnits="userSpaceOnUse"
       gradientTransform="matrix(0.08102633,0,0,0.08102633,0.600373,0.26199)"
       x1="109.91007"
       y1="70.359978"
       x2="11.102897"
       y2="158.41301" />
    <linearGradient
       inkscape:collect="always"
       xlink:href="#linearGradient24"
       id="linearGradient25"
       x1="4.1553369"
       y1="10.748487"
       x2="12.558781"
       y2="3.3632376"
       gradientUnits="userSpaceOnUse" />
    <linearGradient
       inkscape:collect="always"
       xlink:href="#linearGradient26"
       id="linearGradient27"
       x1="9.4716043"
       y1="7.0697713"
       x2="11.774717"
       y2="4.2650935"
       gradientUnits="userSpaceOnUse" />
  </defs>
  <path
     d="M 7.395244,0.800005 C 7.6602,0.829985 7.831166,1.054427 8.068573,1.146798 8.287344,1.215668 8.376472,0.97016 8.473705,0.829175 c 0.181499,0.119107 0.350033,0.263336 0.55584,0.33869 0.225255,-0.0024 0.495073,-0.170154 0.68305,0.02754 0.324109,0.358946 0.461852,0.871033 0.868604,1.159486 0.294119,0.226064 0.705741,0.159622 1.007968,0.367859 0.119883,0.0786 0.178259,0.217962 0.18555,0.357328 -0.01369,0.22201 -0.05269,0.441593 -0.09232,0.660362 C 11.115219,3.72666 10.541546,3.64159 10.018926,3.412288 9.77342,3.298843 9.49874,3.366098 9.277538,3.501418 c 0.120724,0.05672 0.242266,0.113445 0.366239,0.164485 0.438352,0.159621 0.925321,0.329776 1.191894,0.737339 0.01539,0.270628 -0.275484,0.450505 -0.298988,0.70979 0.105312,0.119106 0.293315,0.199325 0.267387,0.388117 C 10.302469,5.532749 10.111246,4.944501 9.659123,4.843218 9.387682,4.776778 9.095986,4.785688 8.839944,4.661719 8.615501,4.551526 8.468843,4.340043 8.301929,4.160975 8.057229,4.289807 7.93812,4.598517 8.097741,4.842406 8.416176,5.368268 8.967155,5.698045 9.505983,5.963001 8.998755,6.093455 8.814016,6.629038 8.478566,6.97259 8.519896,7.0366 8.561206,7.100611 8.601726,7.164622 8.515026,7.352603 8.438053,7.544635 8.345683,7.730187 7.868437,6.865635 7.182143,6.146121 6.631166,5.332616 6.27708,4.806756 5.976471,4.164216 6.131232,3.516005 6.209822,3.115735 6.473975,2.796491 6.711381,2.478868 6.86209,2.320056 6.624681,2.192034 6.535554,2.082649 6.719485,1.984609 6.927721,1.986229 7.129478,1.972454 7.130288,1.647539 6.759997,1.662933 6.533933,1.598922 6.461013,1.464418 6.619013,1.40851 6.713002,1.357464 6.990922,1.248889 7.293961,1.315334 7.583225,1.299934 7.524885,1.132208 7.464926,0.964485 7.395244,0.8 Z M 8.97688,1.754495 C 8.73623,1.981368 9.04817,2.390552 9.327723,2.204192 9.662358,2.001626 9.265323,1.485488 8.97688,1.754495 Z"
     id="path1-9"
     style="fill:url(#linearGradient27);stroke-width:0.0810269;fill-opacity:1" />
  <path
     d="m 10.669387,4.393782 c 0.369209,-0.01148 0.731527,0.08562 1.099205,0.115428 0.233138,0.01682 0.417366,0.16664 0.591646,0.30576 0.224739,0.197979 0.592411,0.111603 0.783509,0.362324 0.188811,0.191101 0.132262,0.494568 0.280542,0.704012 0.197218,0.168933 0.530493,0.113898 0.663501,0.366148 -0.193398,0.07414 -0.396726,0.166639 -0.609242,0.13224 C 13.189616,6.333824 12.977116,6.112917 12.788306,5.908059 12.679764,5.792635 12.588033,5.642048 12.428278,5.592361 12.264698,5.541151 12.097285,5.603831 11.934471,5.627521 11.812932,5.422661 11.706672,5.198692 11.515575,5.04734 11.248815,4.808084 10.881905,4.692661 10.669387,4.39378 Z"
     fill="url(#paint1_linear)"
     id="path2-3"
     style="fill:url(#linearGradient4);stroke-width:0.0764397" />
  <path
     d="m 8.478566,6.972593 c 0.33545,-0.343552 0.520189,-0.879138 1.027417,-1.009589 0.243077,0.12559 0.50074,0.224443 0.731667,0.37272 0.1061,0.281162 0.320062,0.49021 0.546925,0.677382 -0.06564,0.473193 0.372724,0.785145 0.522623,1.193517 -0.0085,0.0324 -0.0251,0.09804 -0.0332,0.130451 -0.08184,0.215529 -0.01231,0.440783 0.04137,0.653073 0.179868,0.680624 0.256851,1.39285 0.190403,2.096154 -0.09158,-0.307902 -0.07295,-0.632821 -0.135318,-0.945582 -0.04941,-0.12558 -0.05591,-0.324101 -0.230915,-0.32734 -0.14667,0.191219 -0.166115,0.439968 -0.230935,0.665233 -0.229292,0.904241 -0.716269,1.78176 -1.492502,2.324639 -0.296555,0.209046 -0.610127,0.431865 -0.766508,0.77218 -0.112627,0.222821 -0.104526,0.482107 -0.05268,0.721128 0.09073,0.313576 0.291668,0.583393 0.362973,0.903446 C 8.335964,14.814322 7.963243,13.959494 8.245215,13.253754 8.464796,12.660646 8.959867,12.243355 9.351227,11.767733 10.021313,10.847271 10.232793,9.618911 9.921656,8.525058 9.868166,8.310337 9.796871,8.093997 9.638056,7.933564 c 0.05103,0.694395 0.12883,1.407426 -0.08671,2.083997 -0.187981,0.641735 -0.58339,1.268872 -1.208913,1.555708 -0.33626,0.162051 -0.724376,0.160429 -1.081701,0.07537 -0.37758,-0.177451 -0.794865,-0.433491 -0.913974,-0.860503 0.474005,0.07209 0.883997,0.428633 1.38555,0.354901 C 8.105832,11.116317 8.34324,10.742762 8.338377,10.391921 8.344877,9.64646 7.958364,8.93343 7.413868,8.43917 7.191869,8.230933 6.928535,8.069691 6.644131,7.961926 6.559871,7.487111 7.015232,7.168678 7.306117,6.86807 7.603483,7.186504 7.881403,7.523573 8.126102,7.883331 8.246022,8.042952 8.340013,8.245519 8.54258,8.313581 8.50125,8.111824 8.428332,7.918172 8.345685,7.730191 8.438055,7.54464 8.515031,7.352608 8.601728,7.164626 8.561218,7.100616 8.519888,7.036605 8.478567,6.972595 Z"
     id="path3-1"
     style="fill:url(#linearGradient5);stroke-width:0.0810269" />
  <path
     d="M 2.198213,5.915199 C 3.023871,5.472795 3.992948,5.232146 4.924749,5.424989 5.858174,5.61054 6.660335,6.189877 7.306115,6.868069 7.01523,7.168677 6.559862,7.487109 6.64413,7.961923 6.06398,7.757738 5.413339,7.822558 4.86236,8.085083 4.562562,8.217157 4.30652,8.435927 3.991327,8.535589 l -0.06888,0.02675 C 3.903817,8.227692 4.082069,7.935996 4.188213,7.631337 4.215763,7.543017 4.242503,7.4547 4.267623,7.366381 3.693146,7.384201 3.135685,7.547069 2.579034,7.677522 2.216036,7.756932 1.907327,7.967596 1.61725,8.188799 L 1.55,8.234979 C 1.59376,8.087512 1.677213,7.955438 1.79227,7.853347 2.263845,7.408511 2.874781,7.16138 3.401452,6.795142 3.475192,6.654965 3.29693,6.619314 3.206179,6.567457 2.689232,6.315466 2.105032,6.507497 1.562154,6.408646 1.682884,6.149362 1.967286,6.049699 2.198211,5.915196 Z"
     id="path4-9"
     style="fill:url(#linearGradient25);stroke-width:0.0810269;fill-opacity:1" />
</svg>
