<?xml version="1.0" encoding="UTF-8" standalone="no"?>
<!-- Generator: Gravit.io -->

<svg
   style="isolation:isolate"
   viewBox="0 0 16 16"
   width="16pt"
   height="16pt"
   version="1.1"
   id="svg6"
   sodipodi:docname="electrum.svg"
   inkscape:version="1.4 (unknown)"
   xmlns:inkscape="http://www.inkscape.org/namespaces/inkscape"
   xmlns:sodipodi="http://sodipodi.sourceforge.net/DTD/sodipodi-0.dtd"
   xmlns:xlink="http://www.w3.org/1999/xlink"
   xmlns="http://www.w3.org/2000/svg"
   xmlns:svg="http://www.w3.org/2000/svg">
  <defs
     id="defs6">
    <linearGradient
       id="linearGradient6"
       inkscape:collect="always">
      <stop
         style="stop-color:#20c997;stop-opacity:1"
         offset="0"
         id="stop7" />
      <stop
         style="stop-color:#975cf6;stop-opacity:1"
         offset="1"
         id="stop8" />
    </linearGradient>
    <linearGradient
       inkscape:collect="always"
       xlink:href="#linearGradient6"
       id="linearGradient8"
       x1="0.95873946"
       y1="47.030327"
       x2="46.958538"
       y2="1.0297469"
       gradientUnits="userSpaceOnUse" />
  </defs>
  <sodipodi:namedview
     id="namedview6"
     pagecolor="#ffffff"
     bordercolor="#000000"
     borderopacity="0.25"
     inkscape:showpageshadow="2"
     inkscape:pageopacity="0.0"
     inkscape:pagecheckerboard="0"
     inkscape:deskcolor="#d1d1d1"
     inkscape:document-units="pt"
     inkscape:zoom="24.34375"
     inkscape:cx="7.8664955"
     inkscape:cy="11.39923"
     inkscape:window-width="1920"
     inkscape:window-height="998"
     inkscape:window-x="0"
     inkscape:window-y="0"
     inkscape:window-maximized="1"
     inkscape:current-layer="svg6" />
  <linearGradient
     id="_lgradient_3"
     x1="0"
     y1="0.5"
     x2="1.0176991"
     y2="0.5"
     gradientTransform="matrix(27,0,0,22.68,10.5,12.66)"
     gradientUnits="userSpaceOnUse">
    <stop
       offset="0%"
       stop-opacity="1"
       style="stop-color:rgb(84,51,255)"
       id="stop1" />
    <stop
       offset="51.73913043478261%"
       stop-opacity="1"
       style="stop-color:rgb(32,189,255)"
       id="stop2" />
    <stop
       offset="98.26086956521739%"
       stop-opacity="1"
       style="stop-color:rgb(165,254,203)"
       id="stop3" />
  </linearGradient>
  <linearGradient
     id="_lgradient_4"
     x1="0.071553186"
     y1="0.74391294"
     x2="0.99873358"
     y2="0.49568295"
     gradientTransform="matrix(46,0,0,46,0.959,1.03)"
     gradientUnits="userSpaceOnUse">
    <stop
       offset="0%"
       stop-opacity="1"
       style="stop-color:rgb(84,51,255)"
       id="stop4" />
    <stop
       offset="51.73913043478261%"
       stop-opacity="1"
       style="stop-color:rgb(32,189,255)"
       id="stop5" />
    <stop
       offset="98.26086956521739%"
       stop-opacity="1"
       style="stop-color:rgb(165,254,203)"
       id="stop6" />
  </linearGradient>
  <g
     id="g6"
     transform="matrix(0.28260514,0,0,0.28260514,1.2291655,1.2089882)">
    <path
       d="m 33.433,40.492 v 0 c 0.958,-0.547 2.184,-0.216 2.736,0.739 v 0 c 0.553,0.955 0.225,2.179 -0.733,2.732 v 0 c -3.725,2.144 -7.974,3.2 -12.261,3.054 -3.888,-0.133 -7.682,-1.253 -11.026,-3.248 v 0 c -0.947,-0.568 -1.255,-1.798 -0.687,-2.745 v 0 c 0.568,-0.947 1.798,-1.255 2.745,-0.687 v 0 c 2.755,1.655 5.886,2.572 9.104,2.682 3.548,0.121 7.05,-0.75 10.122,-2.527 v 0 z m 7.534,-24.937 v 0 c -0.496,-0.989 -0.096,-2.193 0.892,-2.686 v 0 c 0.989,-0.494 2.19,-0.092 2.681,0.896 v 0 c 1.715,3.421 2.536,7.221 2.405,11.049 -0.099,2.918 -0.747,5.788 -1.919,8.449 v 0 c -0.443,1.012 -1.624,1.474 -2.637,1.031 v 0 c -1.012,-0.443 -1.473,-1.625 -1.03,-2.637 v 0 c 0.975,-2.198 1.506,-4.571 1.589,-6.98 0.107,-3.158 -0.576,-6.293 -1.981,-9.122 v 0 z M 15.727,6.91 v 0 c -0.993,0.474 -2.19,0.052 -2.669,-0.942 v 0 c -0.48,-0.994 -0.063,-2.19 0.931,-2.67 v 0 C 17.336,1.691 21.024,0.917 24.742,1.043 28.32,1.165 31.83,2.116 34.973,3.834 v 0 c 0.971,0.53 1.328,1.748 0.798,2.718 v 0 C 35.241,7.523 34.023,7.88 33.052,7.35 v 0 C 30.459,5.931 27.564,5.142 24.606,5.041 21.538,4.936 18.494,5.573 15.727,6.91 Z M 5.933,30.059 v 0 c 0.351,1.045 -0.215,2.178 -1.262,2.529 v 0 C 3.623,32.939 2.488,32.371 2.137,31.321 v 0 C 1.276,28.72 0.879,25.985 0.972,23.246 1.095,19.628 2.067,16.079 3.826,12.907 v 0 c 0.53,-0.964 1.745,-1.313 2.713,-0.778 v 0 c 0.967,0.536 1.318,1.754 0.783,2.719 v 0 c -1.45,2.622 -2.251,5.546 -2.352,8.535 -0.078,2.268 0.246,4.521 0.963,6.676 z M 41.174,9.498 c -0.038,1.103 -0.964,1.969 -2.067,1.931 -1.103,-0.038 -1.969,-0.964 -1.931,-2.067 0.038,-1.103 0.964,-1.968 2.067,-1.931 1.103,0.038 1.968,0.964 1.931,2.067 z M 9.931,37.22 C 9.893,38.323 8.967,39.188 7.864,39.15 6.761,39.113 5.896,38.187 5.933,37.083 5.971,35.98 6.897,35.115 8,35.153 9.103,35.19 9.969,36.116 9.931,37.22 Z m 32.016,1.091 c 0.038,-1.103 -0.827,-2.029 -1.93,-2.067 -1.103,-0.037 -2.03,0.828 -2.067,1.931 -0.038,1.103 0.827,2.029 1.93,2.067 1.104,0.038 2.03,-0.827 2.067,-1.931 z M 11.371,8.482 C 11.409,7.379 10.544,6.453 9.44,6.415 8.337,6.377 7.411,7.243 7.373,8.346 c -0.037,1.103 0.828,2.029 1.931,2.067 1.103,0.037 2.029,-0.828 2.067,-1.931 z"
       fill-rule="evenodd"
       id="path6"
       style="fill:url(#linearGradient8)" />
  </g>
  <g
     id="g2"
     transform="matrix(0.29506772,0,0,0.28552112,-16.408387,1.4489938)">
    <ellipse
       style="fill:none;stroke:#1488c4;stroke-width:1.20669"
       cx="82.721306"
       cy="22.943937"
       rx="14.646655"
       ry="8.768527"
       id="ellipse2" />
    <ellipse
       style="fill:none;stroke:#1488c4;stroke-width:1.20669"
       cx="61.173138"
       cy="-60.10815"
       rx="14.622332"
       ry="8.7831297"
       transform="matrix(0.50083176,0.86554466,-0.86650482,0.4991687,0,0)"
       id="ellipse3" />
    <ellipse
       style="fill:none;stroke:#1488c4;stroke-width:1.20669"
       cx="-21.410782"
       cy="83.090309"
       rx="14.62233"
       ry="8.7831287"
       transform="matrix(-0.50083176,0.86554466,0.86650482,0.4991687,0,0)"
       id="ellipse4" />
    <path
       style="fill:#1488c4;stroke-width:0.585217"
       d="m 80.377852,15.929112 v 2.338271 c -0.288072,0.0117 -0.817973,0 -1.093924,0 h -1.249543 v 1.169138 c 0,0 0.42114,-0.0176 0.405074,0 0.539144,-0.0088 0.710834,0.381219 0.766655,0.641657 v 5.788599 c -0.02075,0.164583 -0.0033,0.572877 -0.379894,0.584566 0.01746,0.01525 -0.791835,0 -0.791835,0 v 1.169142 h 1.320484 c 0.32235,-0.01172 0.711579,0 1.022983,0 v 2.33827 l 1.171731,-0.02062 v -2.317711 h 1.153424 l 0.03662,2.33827 h 1.171731 l -0.03663,-2.33827 c 2.235441,-0.161897 3.533505,-0.42834 3.533505,-2.922843 0,-1.753711 -1.172801,-2.33716 -2.558827,-2.338277 0.87917,-0.06638 1.386462,-0.584567 1.386856,-2.045986 -0.316393,-1.780692 -0.753369,-2.045994 -2.343224,-2.045994 V 15.92908 h -1.171736 v 2.338267 c -0.349907,-6e-6 -0.816496,-0.01281 -1.17173,0 V 15.92908 Z m 1.171731,3.507409 c 1.652361,0 2.343625,1.7e-5 2.343465,1.169141 1.6e-4,1.169215 -0.856101,1.169136 -2.343465,1.169136 z m 0,3.50741 c 2.343465,9.1e-5 3.515439,2.9e-5 3.515195,1.753711 2.44e-4,1.75382 -1.17173,1.753701 -3.515195,1.753701 z"
       id="path5" />
  </g>
</svg>
