<?xml version="1.0" encoding="UTF-8" standalone="no"?>
<svg
   width="16"
   height="16"
   viewBox="0 0 16 16"
   fill="none"
   version="1.1"
   id="svg2"
   sodipodi:docname="element-desktop.svg"
   inkscape:version="1.3.2 (091e20ef0f, 2023-11-25)"
   xmlns:inkscape="http://www.inkscape.org/namespaces/inkscape"
   xmlns:sodipodi="http://sodipodi.sourceforge.net/DTD/sodipodi-0.dtd"
   xmlns:xlink="http://www.w3.org/1999/xlink"
   xmlns="http://www.w3.org/2000/svg"
   xmlns:svg="http://www.w3.org/2000/svg">
  <sodipodi:namedview
     id="namedview2"
     pagecolor="#ffffff"
     bordercolor="#999999"
     borderopacity="1"
     inkscape:showpageshadow="2"
     inkscape:pageopacity="0"
     inkscape:pagecheckerboard="0"
     inkscape:deskcolor="#d1d1d1"
     inkscape:zoom="23.8125"
     inkscape:cx="7.0131234"
     inkscape:cy="11.422572"
     inkscape:window-width="1920"
     inkscape:window-height="994"
     inkscape:window-x="0"
     inkscape:window-y="0"
     inkscape:window-maximized="1"
     inkscape:current-layer="svg2" />
  <path
     d="m 6.960046,1.5 c -0.430782,0 -0.779712,0.34892 -0.779712,0.779703 0,0.430783 0.34893,0.780761 0.779712,0.780761 2.010339,0 3.640414,1.629012 3.640414,3.639322 0,0.430793 0.34887,0.779703 0.77963,0.779703 0.43086,0 0.77972,-0.34891 0.77972,-0.779703 C 12.15981,3.82791 9.831904,1.5 6.960046,1.5 Z M 6.699786,3.840167 C 3.82791,3.840176 1.5,6.168068 1.5,9.039954 c 0,0.430792 0.34892,0.779712 0.779703,0.779712 0.430783,0 0.780761,-0.34892 0.780761,-0.779712 0,-2.010339 1.629012,-3.640381 3.639322,-3.640381 0.430793,0 0.779703,-0.34892 0.779703,-0.779703 0,-0.430783 -0.34891,-0.779703 -0.779703,-0.779703 z m 7.020494,2.340167 c -0.43077,0 -0.78074,0.34893 -0.78074,0.779712 0,2.010339 -1.629,3.640414 -3.639326,3.640414 -0.430793,0 -0.779703,0.34887 -0.779703,0.77963 0,0.43086 0.34891,0.77972 0.779703,0.77972 C 12.17207,12.15981 14.5,9.831904 14.5,6.960046 14.5,6.529264 14.15104,6.180334 13.72028,6.180334 Z M 4.61987,8.520511 c -0.430783,0 -0.779703,0.34891 -0.779703,0.779703 0,2.871856 2.327901,5.199786 5.199787,5.199786 0.430792,0 0.779712,-0.34896 0.779712,-0.77972 0,-0.43077 -0.34892,-0.78074 -0.779712,-0.78074 -2.010339,0 -3.640381,-1.629 -3.640381,-3.639326 0,-0.430793 -0.34892,-0.779703 -0.779703,-0.779703 z"
     id="path1"
     style="fill:url(#linearGradient4)" />
  <defs
     id="defs2">
    <linearGradient
       id="linearGradient1"
       inkscape:collect="always">
      <stop
         style="stop-color:#00abab;stop-opacity:1;"
         offset="0"
         id="stop3" />
      <stop
         style="stop-color:#00ffcc;stop-opacity:1"
         offset="1"
         id="stop4" />
    </linearGradient>
    <linearGradient
       id="paint0_linear"
       x1="8"
       y1="15"
       x2="8"
       y2="1"
       gradientUnits="userSpaceOnUse"
       gradientTransform="matrix(0.92857141,0,0,0.92857141,0.57142859,0.57142859)">
      <stop
         stop-color="#00B59C"
         id="stop1"
         style="stop-color:#2affd5;stop-opacity:1" />
      <stop
         offset="1"
         stop-color="#9CFFAC"
         id="stop2"
         style="stop-color:#00a9a9;stop-opacity:1;" />
    </linearGradient>
    <linearGradient
       inkscape:collect="always"
       xlink:href="#linearGradient1"
       id="linearGradient4"
       x1="8.3451443"
       y1="1.5"
       x2="14.5"
       y2="14.5"
       gradientUnits="userSpaceOnUse" />
  </defs>
</svg>
