<?xml version="1.0" encoding="UTF-8" standalone="no"?>
<!-- Generator: Gravit.io -->

<svg
   style="isolation:isolate"
   viewBox="0 0 16 16"
   width="16pt"
   height="16pt"
   version="1.1"
   id="svg2"
   sodipodi:docname="epic-games.svg"
   inkscape:version="1.4.2 (unknown)"
   xmlns:inkscape="http://www.inkscape.org/namespaces/inkscape"
   xmlns:sodipodi="http://sodipodi.sourceforge.net/DTD/sodipodi-0.dtd"
   xmlns:xlink="http://www.w3.org/1999/xlink"
   xmlns="http://www.w3.org/2000/svg"
   xmlns:svg="http://www.w3.org/2000/svg">
  <defs
     id="defs2">
    <linearGradient
       id="linearGradient2"
       inkscape:collect="always">
      <stop
         style="stop-color:#8d5fd3;stop-opacity:1"
         offset="0"
         id="stop3" />
      <stop
         style="stop-color:#ffdd55;stop-opacity:1"
         offset="1"
         id="stop4" />
    </linearGradient>
    <linearGradient
       inkscape:collect="always"
       xlink:href="#linearGradient2"
       id="linearGradient4"
       x1="11.352273"
       y1="14.5"
       x2="11.453746"
       y2="1.5000004"
       gradientUnits="userSpaceOnUse" />
  </defs>
  <sodipodi:namedview
     id="namedview2"
     pagecolor="#ffffff"
     bordercolor="#000000"
     borderopacity="0.25"
     inkscape:showpageshadow="2"
     inkscape:pageopacity="0.0"
     inkscape:pagecheckerboard="0"
     inkscape:deskcolor="#d1d1d1"
     inkscape:document-units="pt"
     inkscape:zoom="16.860077"
     inkscape:cx="12.099589"
     inkscape:cy="18.831468"
     inkscape:current-layer="svg2" />
  <linearGradient
     id="_lgradient_7"
     x1="0.51461041"
     y1="0.98858488"
     x2="0.5"
     y2="0"
     gradientTransform="matrix(38.499999,0,0,46.242999,4.7500001,0.878)"
     gradientUnits="userSpaceOnUse">
    <stop
       offset="0%"
       stop-opacity="1"
       style="stop-color:rgb(136,42,233)"
       id="stop1" />
    <stop
       offset="100%"
       stop-opacity="1"
       style="stop-color:rgb(52,236,235)"
       id="stop2" />
  </linearGradient>
  <path
     d="M 4.5714283,3.783237 V 8.2811177 H 5.9999997 V 7.7188826 H 5.1428568 V 6.3132949 H 5.9999997 V 5.7510598 H 5.1428568 V 4.345472 H 5.9999997 V 3.783237 Z m 3.9999998,0 V 8.2811177 H 9.1428566 V 3.783237 Z m 1.4285719,0 c -0.3165725,0 -0.5714288,0.2507568 -0.5714288,0.562235 v 3.3734106 c 0,0.3114783 0.2548563,0.5622352 0.5714288,0.5622352 h 0.857142 c 0.316572,0 0.571428,-0.2507568 0.571428,-0.5622351 V 6.5944124 h -0.571428 v 0.8152409 c 0,0.1557393 -0.158286,0.3092293 -0.285714,0.3092293 H 10.285713 C 10.127429,7.7188826 10,7.5935043 10,7.4377652 V 4.6265896 C 10,4.4708505 10.168572,4.345472 10.285713,4.345472 h 0.285715 c 0.158286,0 0.285714,0.1253785 0.285714,0.2811176 V 5.4699422 H 11.42857 V 4.345472 c 0,-0.3114782 -0.254856,-0.562235 -0.571428,-0.562235 z M 6.8571425,4.345472 H 7.428571 c 0.1582858,0 0.2857142,0.1253785 0.2857142,0.2811176 v 1.1244702 c 0,0.1557391 -0.1274284,0.2811175 -0.2857142,0.2811175 H 6.8571425 V 4.6265896 Z m 4.0568565,4.7604446 c -0.237714,0.00141 -0.486,0.1478679 -0.492571,0.5071362 -0.0072,0.3651716 0.736857,0.3142894 0.739428,0.5003892 5.71e-4,0.06438 -0.09799,0.10064 -0.163143,0.107949 -0.15,0.01743 -0.424571,-0.156863 -0.424571,-0.156863 l -0.208856,0.24654 c 0,0 0.255428,0.210557 0.617999,0.212525 0.240001,0.0011 0.552,-0.114696 0.54943,-0.459065 -0.0025,-0.4143678 -0.732001,-0.395814 -0.742573,-0.536935 -0.0053,-0.071123 0.07029,-0.114696 0.147714,-0.1121659 0.140002,0.0045 0.364,0.1346553 0.364,0.1346553 L 11.475428,9.288643 c 0,0 -0.226,-0.1849753 -0.561429,-0.1827264 z m -5.686285,0.011526 c -0.3528571,-0.00675 -0.7331428,0.2490701 -0.7445713,0.7115085 -0.00799,0.3280639 0.2942857,0.6954849 0.7019999,0.7011069 0.358,0.0048 0.616857,-0.219552 0.616857,-0.219552 V 9.7136928 H 5.2065711 v 0.2721219 l 0.2442857,-0.020803 0.010571,0.1779474 c 0,0 -0.079714,0.08068 -0.2231428,0.08349 C 4.9859995,10.231249 4.8637139,10.027139 4.855428,9.8497538 4.8465665,9.659156 4.9837139,9.4311696 5.2428566,9.4325752 5.415428,9.4334186 5.5257138,9.5877521 5.5257138,9.5877521 L 5.7594281,9.3057912 c 0,0 -0.222857,-0.1827264 -0.5317141,-0.1883486 z m 2.200857,0.00703 V 10.530058 H 7.7779996 V 9.749957 l 0.3637141,0.532437 0.3537147,-0.5540831 0.023427,0.8017471 H 8.8571408 V 9.1244704 H 8.4954284 L 8.1417137,9.6850188 7.788571,9.1244704 Z m 1.7142856,0 V 10.53006 H 10.199715 V 10.248941 H 9.4285712 V 9.967823 l 0.7142858,0.0059 V 9.6867055 H 9.4285712 V 9.4055879 H 10.199715 V 9.1244704 Z M 6.6188568,9.5542991 6.7717139,9.9619196 H 6.4619996 Z m -0.6188571,2.3813469 2,0.843352 L 10,11.935646 Z M 6.2857139,3.783237 V 8.2811177 H 6.8571425 V 6.5944124 H 7.428571 c 0.4748569,0 0.8571424,-0.3761352 0.8571424,-0.8433526 V 4.6265896 C 8.2857134,4.1593722 7.9034279,3.783237 7.428571,3.783237 H 6.8571425 Z m 0.1611429,5.3412334 -0.6305713,1.4067126 0.4277141,-0.0011 0.097429,-0.253568 h 0.5491429 l 0.094857,0.253568 h 0.398571 L 6.7979997,9.1244704 Z M 12.459428,2.4071666 c 0.03857,0 0.07742,0.014899 0.103999,0.04526 0.02972,0.027268 0.04459,0.066625 0.04459,0.1057002 v 9.0696952 0 c 0,0.06044 -0.03543,0.118069 -0.09201,0.139153 0,0 0,0 0,0 l -4.4594281,1.813771 c -0.018,0.0093 -0.038855,0.01209 -0.05657,0.01209 -0.017715,0 -0.038571,-0.0028 -0.05657,-0.01209 L 3.4839998,11.766975 c 0,0 0,0 0,0 -0.056571,-0.02108 -0.092,-0.07871 -0.092,-0.139153 v 0 0 -9.0696952 c 0,-0.039075 0.014857,-0.078432 0.044571,-0.1057002 0.026572,-0.030361 0.065429,-0.04526 0.104,-0.04526 z m 0,-0.9071663 c 0.276572,0 0.541142,0.1118848 0.734286,0.3114782 C 13.389999,2.0079797 13.5,2.2770092 13.5,2.5581268 c 0,0 0,0 0,0 v 9.0696952 0 c 0,0.432359 -0.258572,0.822269 -0.653999,0.982506 l -4.45943,1.814051 c 0,0 0,0 0,0 C 8.2645713,14.475819 8.1308571,14.5 7.9999997,14.5 c -0.1308573,0 -0.2645716,-0.02418 -0.3865715,-0.07562 0,0 0,0 0,0 L 3.1539998,12.610328 C 2.7585713,12.450091 2.5,12.060181 2.5,11.627822 v 0 0 -9.0696952 c 0,0 0,0 0,0 0,-0.2811176 0.11,-0.5501471 0.3062857,-0.7466483 0.1931428,-0.1995934 0.4577142,-0.3114782 0.7342856,-0.3114782 0,0 0,0 0,0 z"
     fill-rule="evenodd"
     id="path2"
     style="fill:url(#linearGradient4)" />
</svg>
