<?xml version="1.0" encoding="UTF-8" standalone="no"?>
<svg
   width="16"
   height="16"
   version="1.1"
   id="svg32"
   sodipodi:docname="web-browser.svg"
   inkscape:version="1.3.2 (091e20ef0f, 2023-11-25)"
   xmlns:inkscape="http://www.inkscape.org/namespaces/inkscape"
   xmlns:sodipodi="http://sodipodi.sourceforge.net/DTD/sodipodi-0.dtd"
   xmlns:xlink="http://www.w3.org/1999/xlink"
   xmlns="http://www.w3.org/2000/svg"
   xmlns:svg="http://www.w3.org/2000/svg">
  <sodipodi:namedview
     id="namedview34"
     pagecolor="#ffffff"
     bordercolor="#666666"
     borderopacity="1.0"
     inkscape:showpageshadow="2"
     inkscape:pageopacity="0.0"
     inkscape:pagecheckerboard="0"
     inkscape:deskcolor="#d1d1d1"
     showgrid="true"
     inkscape:zoom="13.906433"
     inkscape:cx="20.422203"
     inkscape:cy="17.689655"
     inkscape:window-width="1920"
     inkscape:window-height="996"
     inkscape:window-x="0"
     inkscape:window-y="0"
     inkscape:window-maximized="1"
     inkscape:current-layer="svg32">
    <inkscape:grid
       id="grid1"
       units="px"
       originx="0"
       originy="0"
       spacingx="1"
       spacingy="1"
       empcolor="#0099e5"
       empopacity="0.30196078"
       color="#0099e5"
       opacity="0.14901961"
       empspacing="5"
       dotted="false"
       gridanglex="30"
       gridanglez="30"
       visible="true" />
  </sodipodi:namedview>
  <defs
     id="defs20">
    <linearGradient
       id="linearGradient4197">
      <stop
         style="stop-color:#c6cdd1;stop-opacity:1"
         offset="0"
         id="stop2" />
      <stop
         style="stop-color:#e0e5e7;stop-opacity:1"
         offset="1"
         id="stop4" />
    </linearGradient>
    <linearGradient
       id="linearGradient4184">
      <stop
         style="stop-color:#000000;stop-opacity:1;"
         offset="0"
         id="stop7" />
      <stop
         style="stop-color:#000000;stop-opacity:0;"
         offset="1"
         id="stop9" />
    </linearGradient>
    <linearGradient
       id="linearGradient4167">
      <stop
         style="stop-color:#d01c2d;stop-opacity:1"
         offset="0"
         id="stop12" />
      <stop
         style="stop-color:#e05e4c;stop-opacity:1"
         offset="1"
         id="stop14" />
    </linearGradient>
    <linearGradient
       gradientUnits="userSpaceOnUse"
       y2="525.91101"
       x2="395.707"
       y1="546.927"
       x1="400.556"
       id="linearGradient4288-9"
       xlink:href="#linearGradient4197"
       gradientTransform="matrix(1.9405564,0,0,1.9418216,-359.25227,-518.38224)" />
    <linearGradient
       xlink:href="#linearGradient4167"
       id="linearGradient4173"
       x1="414.72699"
       y1="539.763"
       x2="399.48901"
       y2="508.23901"
       gradientUnits="userSpaceOnUse" />
    <linearGradient
       xlink:href="#linearGradient4184"
       id="linearGradient4190"
       x1="23.547001"
       y1="16.764"
       x2="37.307999"
       y2="30.525"
       gradientUnits="userSpaceOnUse" />
    <linearGradient
       id="a"
       y1="543.77002"
       x1="407.63"
       y2="504.13"
       x2="407.69"
       gradientUnits="userSpaceOnUse"
       gradientTransform="translate(-384.57,-499.8)"
       spreadMethod="pad">
      <stop
         stop-color="#c6cdd1"
         id="stop2-3" />
      <stop
         offset="1"
         stop-color="#e0e5e7"
         id="stop4-6" />
    </linearGradient>
    <linearGradient
       gradientUnits="userSpaceOnUse"
       x2="0"
       y2="503.79999"
       y1="542.79999"
       id="a-5">
      <stop
         stop-color="#2a2c2f"
         id="stop21" />
      <stop
         stop-color="#424649"
         offset="1"
         id="stop23" />
    </linearGradient>
    <linearGradient
       xlink:href="#d"
       id="linearGradient4584-5"
       gradientUnits="userSpaceOnUse"
       x1="29.438999"
       y1="26.030001"
       x2="38.259998"
       y2="35.796001" />
    <linearGradient
       id="d"
       y1="26.030001"
       x1="29.438999"
       y2="35.796001"
       x2="38.259998"
       gradientUnits="userSpaceOnUse">
      <stop
         stop-color="#292c2f"
         id="stop7-7" />
      <stop
         offset="1"
         stop-color="#292c2f"
         stop-opacity="0"
         id="stop9-5" />
    </linearGradient>
    <linearGradient
       id="LO"
       gradientUnits="userSpaceOnUse"
       x1="319.20801"
       y1="235.149"
       x2="657.65302"
       y2="269.49399">
      <stop
         style="stop-color:#e54c18"
         offset="0"
         id="stop12-3" />
      <stop
         style="stop-color:#fec350"
         offset="1"
         id="stop14-5" />
    </linearGradient>
    <linearGradient
       xlink:href="#linearGradient4184"
       id="linearGradient4190-9"
       x1="23.547001"
       y1="16.764"
       x2="37.307999"
       y2="30.525"
       gradientUnits="userSpaceOnUse"
       gradientTransform="matrix(1.0499993,0,0,1.0499993,2.8002323,2.8000301)" />
    <linearGradient
       xlink:href="#linearGradient4167"
       id="linearGradient4173-7"
       x1="414.72699"
       y1="539.763"
       x2="399.48901"
       y2="508.23901"
       gradientUnits="userSpaceOnUse"
       gradientTransform="matrix(0.23875272,0,0,0.2389677,-72.339407,-120.20766)" />
    <linearGradient
       id="paint0_linear_54_1424"
       x1="11.9996"
       y1="14.043793"
       x2="11.783873"
       y2="2.0584526"
       gradientUnits="userSpaceOnUse">
      <stop
         stop-color="#5558FF"
         id="stop3"
         style="stop-opacity:1" />
      <stop
         offset="1"
         stop-color="#00C0FF"
         id="stop4-3"
         style="stop-color:#55ff99;stop-opacity:1" />
    </linearGradient>
    <linearGradient
       id="paint1_linear_54_1424"
       x1="18.519899"
       y1="6.9633498"
       x2="18.519899"
       y2="5.3167701"
       gradientUnits="userSpaceOnUse">
      <stop
         stop-color="#5558FF"
         id="stop5" />
      <stop
         offset="1"
         stop-color="#00C0FF"
         id="stop6" />
    </linearGradient>
    <linearGradient
       id="paint2_linear_54_1424"
       x1="12"
       y1="19.0688"
       x2="12"
       y2="5.3863502"
       gradientUnits="userSpaceOnUse"
       gradientTransform="translate(-0.800789,-4.0000006)">
      <stop
         stop-color="#5558FF"
         id="stop7-6" />
      <stop
         offset="1"
         stop-color="#00C0FF"
         id="stop8" />
    </linearGradient>
  </defs>
  <path
     opacity="0.4"
     d="m 13.804945,8.0000004 c 0,1.5913459 -0.611585,3.1174556 -1.700299,4.2426386 C 11.016012,13.367892 9.5393806,14 7.99978,14 6.4601644,14 4.9836021,13.367892 3.8949248,12.242639 2.8062476,11.117456 2.1946267,9.5913463 2.1946267,8.0000004 2.1946267,6.4087272 2.8062476,4.8825781 3.8949248,3.757363 4.9836021,2.6321407 6.4601644,2 7.99978,2 c 1.5396006,0 3.016232,0.6321407 4.104866,1.757363 1.088714,1.1252151 1.700299,2.6513642 1.700299,4.2426374 z"
     fill="url(#paint0_linear_54_1424)"
     id="path1"
     style="fill:url(#paint0_linear_54_1424);stroke-width:0.999999;opacity:1" />
  <path
     d="m 13.085926,4.0880339 c 0.143813,-0.013715 0.27636,-0.08591 0.368622,-0.2006786 0.09225,-0.1147753 0.136661,-0.2627324 0.123328,-0.4113192 -0.01326,-0.1485876 -0.08302,-0.2856379 -0.194098,-0.3809972 -0.111131,-0.095367 -0.25424,-0.1412279 -0.397986,-0.1274992 -0.307642,0.03 -0.634211,0.079495 -0.976032,0.1499945 -0.138996,0.02809 -0.26196,0.111264 -0.342524,0.2317495 l 0.810576,0.822756 c 0.214805,-0.037498 0.418055,-0.066 0.608114,-0.08401 z"
     fill="url(#paint1_linear_54_1424)"
     id="path2"
     style="fill:#ffffff;stroke-width:0.999999;fill-opacity:1" />
  <path
     fill-rule="evenodd"
     clip-rule="evenodd"
     d="m 14.484964,3.0349871 c -0.07028,-0.019275 -0.143529,-0.023817 -0.215514,-0.013347 -0.07208,0.010482 -0.141197,0.03575 -0.203599,0.074315 -0.0624,0.038593 -0.116586,0.089675 -0.159559,0.150288 -0.04298,0.06062 -0.07376,0.129508 -0.09048,0.2026059 -0.01686,0.073115 -0.01928,0.148947 -0.0073,0.223035 0.01206,0.074092 0.03837,0.1449442 0.07735,0.208368 0.03895,0.063416 0.08984,0.1181251 0.149562,0.160887 0.05978,0.042765 0.127224,0.07272 0.198424,0.088109 0.285865,0.069746 0.396213,0.1739991 0.436847,0.2414982 0.04568,0.076496 0.09648,0.2745036 -0.113962,0.7110007 -0.06452,0.1335687 -0.07497,0.2881366 -0.02922,0.4297026 0.04584,0.141565 0.1441,0.2585389 0.273381,0.3251729 0.129211,0.066635 0.278775,0.077485 0.415785,0.030149 0.13686,-0.047328 0.250048,-0.1489558 0.31451,-0.2825253 0.274324,-0.5692516 0.408571,-1.2374984 0.06244,-1.8097484 -0.249533,-0.412497 -0.669711,-0.6315008 -1.108688,-0.739504 z M 14.32172,7.2207094 c 0.05037,-0.052405 0.09022,-0.114636 0.117367,-0.1830223 0.02708,-0.068308 0.04082,-0.1415367 0.04064,-0.2154198 -2.76e-4,-0.073955 -0.01466,-0.1470331 -0.04227,-0.2151987 -0.02761,-0.06817 -0.06793,-0.1300292 -0.118649,-0.1820695 -0.05074,-0.05206 -0.11091,-0.093275 -0.177079,-0.1212913 -0.06617,-0.028028 -0.137005,-0.042308 -0.20849,-0.04202 -0.07149,2.786e-4 -0.142258,0.01511 -0.208215,0.043645 -0.06586,0.02853 -0.125803,0.07022 -0.176154,0.1226772 -0.497764,0.519014 -1.137081,1.0724779 -1.892485,1.6282138 -0.11758,0.086565 -0.197077,0.2178387 -0.221042,0.3648718 -0.02397,0.1471801 0.0096,0.2980973 0.09339,0.4196232 0.0836,0.121527 0.210622,0.2036921 0.353021,0.2285401 0.142329,0.0247 0.288344,-0.00993 0.405998,-0.096529 C 13.082304,8.3877493 13.770911,7.793752 14.32172,7.220718 Z M 1.895004,10.210191 C 2.0408582,10.021232 2.2121143,9.8231844 2.4073062,9.6177334 L 2.2346019,8.6202378 C 2.14061,8.5913543 2.0408151,8.5893784 1.9457936,8.6143342 1.8507592,8.6393306 1.7640131,8.6903402 1.6947281,8.7620274 1.4523629,9.0140208 1.2339399,9.2637433 1.0445496,9.5082613 c -0.04465,0.057755 -0.077851,0.1239452 -0.0977303,0.1948964 -0.0198847,0.07102 -0.0260399,0.1453469 -0.018117,0.2187907 0.007897,0.07344 0.029746,0.1446146 0.0642569,0.2092626 0.034511,0.06471 0.081019,0.121745 0.1368552,0.167923 0.05584,0.04618 0.1199272,0.08049 0.1886025,0.101006 0.068671,0.02052 0.1405995,0.02697 0.2116509,0.01875 0.07105,-0.0081 0.1398547,-0.03077 0.2024671,-0.06642 0.062616,-0.03568 0.117828,-0.08377 0.1624706,-0.141463 z m 8.826063,-0.182216 c 0.06268,-0.037164 0.11758,-0.086926 0.161476,-0.1462999 0.0439,-0.059372 0.0759,-0.1271707 0.09412,-0.1995137 0.0183,-0.072269 0.0224,-0.1476206 0.0122,-0.2215766 -0.01018,-0.073956 -0.03462,-0.1451279 -0.07168,-0.2091886 -0.03717,-0.06421 -0.08622,-0.1199869 -0.144462,-0.1643319 -0.05831,-0.04427 -0.124463,-0.07608 -0.194742,-0.0936 -0.07025,-0.017669 -0.143182,-0.02052 -0.214593,-0.00869 -0.07135,0.011946 -0.139706,0.03841 -0.201124,0.077917 -0.7275325,0.4496039 -1.4763412,0.8613847 -2.2436598,1.2337327 -0.126799,0.06589 -0.2237423,0.180236 -0.2700502,0.318841 -0.046455,0.138604 -0.038575,0.290474 0.021768,0.423216 0.060356,0.132739 0.168569,0.235872 0.3013242,0.287324 0.1328981,0.05152 0.2799791,0.04736 0.4098989,-0.0116 0.7999088,-0.388581 1.580702,-0.817883 2.3395119,-1.286248 z M 1.3348046,11.18746 c 0.04378,-0.142197 0.03111,-0.296564 -0.035229,-0.429082 -0.066339,-0.132596 -0.1809159,-0.232497 -0.31852201,-0.277797 -0.13759989,-0.04521 -0.28696454,-0.03209 -0.41522425,0.03644 -0.12825975,0.06862 -0.22491239,0.186982 -0.26869605,0.329246 -0.13859953,0.450779 -0.1531118,0.946484 0.10884989,1.37996 0.32871305,0.543055 0.94841782,0.754521 1.56303852,0.815279 0.071712,0.0084 0.1442948,0.0017 0.2135234,-0.01944 0.069219,-0.02101 0.1337064,-0.05609 0.189695,-0.103129 0.055993,-0.04707 0.1023763,-0.105105 0.1364584,-0.170857 0.034078,-0.06573 0.055174,-0.137798 0.062051,-0.212045 0.00692,-0.07424 -5.903e-4,-0.149088 -0.021976,-0.220405 -0.021395,-0.07122 -0.056262,-0.137353 -0.102605,-0.19445 -0.046347,-0.05719 -0.1032121,-0.104233 -0.1673138,-0.138456 -0.064096,-0.03426 -0.1341459,-0.05496 -0.2060626,-0.06096 -0.5036078,-0.04948 -0.6879204,-0.20025 -0.7437955,-0.29253 -0.036278,-0.05995 -0.074019,-0.183018 0.00583,-0.441757 z m 5.2740156,0.902284 c 0.1320476,-0.05471 0.2382094,-0.1606 0.2956511,-0.295167 0.057446,-0.134577 0.061553,-0.287034 0.011629,-0.424762 -0.049999,-0.137647 -0.1502012,-0.249643 -0.2791281,-0.311876 -0.1289335,-0.06229 -0.2763193,-0.06986 -0.4105858,-0.02125 -0.8889193,0.345007 -1.7161626,0.593341 -2.439626,0.74177 -0.1384721,0.03216 -0.2593211,0.118956 -0.3367766,0.241871 -0.077456,0.122927 -0.1053888,0.2723 -0.077842,0.416113 0.027549,0.14395 0.1083822,0.271052 0.2252811,0.354245 0.116899,0.08316 0.2606184,0.115806 0.400502,0.09102 0.7931319,-0.161983 1.6784209,-0.43047 2.6108954,-0.791967 z"
     fill="url(#paint2_linear_54_1424)"
     stroke="url(#paint3_linear_54_1424)"
     stroke-width="0.4"
     id="path3"
     style="fill:#ffffff;stroke:#ffffff;fill-opacity:1;stroke-opacity:1" />
</svg>
