<?xml version="1.0" encoding="UTF-8" standalone="no"?>
<!-- Generator: Gravit.io -->

<svg
   style="isolation:isolate"
   viewBox="0 0 16 16"
   width="16pt"
   height="16pt"
   version="1.1"
   id="svg10"
   sodipodi:docname="falkon.svg"
   inkscape:version="1.3 (0e150ed6c4, 2023-07-21)"
   xmlns:inkscape="http://www.inkscape.org/namespaces/inkscape"
   xmlns:sodipodi="http://sodipodi.sourceforge.net/DTD/sodipodi-0.dtd"
   xmlns:xlink="http://www.w3.org/1999/xlink"
   xmlns="http://www.w3.org/2000/svg"
   xmlns:svg="http://www.w3.org/2000/svg">
  <defs
     id="defs10">
    <linearGradient
       id="linearGradient10"
       inkscape:collect="always">
      <stop
         style="stop-color:#d38d5f;stop-opacity:1"
         offset="0"
         id="stop11" />
      <stop
         style="stop-color:#ffd42a;stop-opacity:1"
         offset="1"
         id="stop12" />
    </linearGradient>
    <linearGradient
       inkscape:collect="always"
       xlink:href="#linearGradient10"
       id="linearGradient12"
       x1="3.3960916"
       y1="2.8219662"
       x2="6.2765111"
       y2="2.8219662"
       gradientUnits="userSpaceOnUse" />
    <linearGradient
       inkscape:collect="always"
       xlink:href="#linearGradient10"
       id="linearGradient14"
       x1="1.9542179"
       y1="6.9631023"
       x2="8.6183081"
       y2="6.9631023"
       gradientUnits="userSpaceOnUse" />
    <linearGradient
       inkscape:collect="always"
       xlink:href="#linearGradient10"
       id="linearGradient16"
       x1="2.0412874"
       y1="10.28771"
       x2="12.052098"
       y2="10.28771"
       gradientUnits="userSpaceOnUse" />
  </defs>
  <sodipodi:namedview
     id="namedview10"
     pagecolor="#ffffff"
     bordercolor="#000000"
     borderopacity="0.25"
     inkscape:showpageshadow="2"
     inkscape:pageopacity="0.0"
     inkscape:pagecheckerboard="0"
     inkscape:deskcolor="#d1d1d1"
     inkscape:document-units="pt"
     inkscape:zoom="23.96875"
     inkscape:cx="8.1981747"
     inkscape:cy="15.499348"
     inkscape:window-width="1920"
     inkscape:window-height="994"
     inkscape:window-x="0"
     inkscape:window-y="0"
     inkscape:window-maximized="1"
     inkscape:current-layer="svg10" />
  <linearGradient
     id="_lgradient_80"
     x1="0.22078557"
     y1="0.047239967"
     x2="0.9022491"
     y2="0.90614605"
     gradientTransform="matrix(13.000087,0,0,13,1.4999998,1.5)"
     gradientUnits="userSpaceOnUse">
    <stop
       offset="0.02608696"
       stop-opacity="1"
       style="stop-color:#ff6fff;stop-opacity:1;"
       id="stop1" />
    <stop
       offset="98.69565217391305%"
       stop-opacity="1"
       style="stop-color:rgb(162,110,245)"
       id="stop2" />
  </linearGradient>
  <path
     d="m 1.4999998,11.273636 v -0.01182 c 0,-0.003 0,-0.003 0,-0.0059 C 1.5029495,10.73 1.5678437,10.207045 1.688783,9.692955 1.7625265,9.3768182 1.8539684,9.0606818 1.9572092,8.7504545 1.8451192,8.7415909 1.7418783,8.6913636 1.6681349,8.6086364 1.5914417,8.5259091 1.5501454,8.4165909 1.5501454,8.3072727 1.5353966,8.2511364 1.5294972,8.195 1.5294972,8.1359091 c -0.00295,-0.00886 0,-0.017727 0,-0.026591 v -0.041364 c 0.00295,-0.00886 0.00295,-0.014773 0.00295,-0.020682 C 1.5825932,7.5065903 1.6769844,6.9747721 1.8097227,6.448863 1.9542595,5.8520455 2.1666407,5.2729545 2.4380166,4.7234091 2.5766543,4.4486364 2.7388899,4.1856818 2.9217737,3.9375 3.1017077,3.6922727 3.3111391,3.4706818 3.5471181,3.2786364 3.6297108,3.2106818 3.718203,3.1456818 3.8096449,3.0865909 3.1046574,3.0156818 2.39967,2.9890909 1.6917328,3.0097727 2.6857946,2.3568182 3.7919465,1.8988636 4.9541433,1.6565909 5.4614983,1.5531818 5.9747529,1.5 6.490957,1.5 c 0.00295,0 0.00295,0 0.00295,0 h 0.023593 c 0.6312439,0 1.2595382,0.094546 1.8671844,0.2777273 0.5073549,0.1565909 0.9911121,0.3781818 1.4453716,0.6529545 0.3687182,0.2275 0.7138362,0.4845455 1.0353582,0.7711364 0.22418,0.1979545 0.436562,0.4077273 0.643043,0.6263636 0.04425,0.047273 0.08554,0.091591 0.129789,0.1359091 0.356918,0.082727 0.704987,0.2097727 1.029458,0.3752273 0.327422,0.1684091 0.628294,0.3811363 0.893771,0.6322727 0.244829,0.2304546 0.45131,0.4963636 0.616495,0.7918182 0.23893,0.4343182 0.351019,0.9277273 0.315623,1.4240909 -0.35397,-0.029546 -0.707938,-0.041364 -1.061907,-0.041364 -0.492606,0 -0.982262,0.026591 -1.471919,0.082727 -0.262526,0.070909 -0.519154,0.1743182 -0.761033,0.3013637 -0.171084,0.091591 -0.324471,0.2068182 -0.45426,0.3486363 -0.09734,0.1034091 -0.171084,0.2245455 -0.221229,0.3575 -0.04719,0.1329546 -0.07374,0.2718182 -0.07669,0.4136364 v 0.047273 c 0.003,0.1506818 0.0236,0.3013637 0.06195,0.4461364 0.04425,0.1713636 0.100291,0.3368182 0.174034,0.4963642 0.162236,0.354545 0.362818,0.691363 0.592898,1.004545 0.44836,0.6175 0.961614,1.184773 1.536814,1.684091 C 11.366875,13.72 9.4406954,14.497045 7.4407727,14.5 5.7977685,14.497 4.1960606,13.974091 2.8686784,13.002045 c -0.00885,-0.0059 -0.017698,-0.01182 -0.026548,-0.02068 -0.00295,-0.003 -0.00885,-0.0059 -0.011799,-0.0089 -0.047196,-0.03546 -0.097341,-0.06204 -0.1533864,-0.08273 -0.056045,-0.02068 -0.1150398,-0.03546 -0.1769843,-0.05023 -0.1238891,-0.0236 -0.2477781,-0.06201 -0.3657676,-0.112232 -0.2123812,-0.0975 -0.395265,-0.254091 -0.5250535,-0.452046 -0.0059,-0.141818 -0.023598,-0.283636 -0.044246,-0.4225 -0.014748,-0.106363 -0.029497,-0.209772 -0.041296,-0.316136 -0.011799,-0.07977 -0.020648,-0.1625 -0.023598,-0.245227 0,-0.0059 0,-0.01182 0,-0.01773 z m 2.2152534,1.235 c 0.038347,-0.09454 0.041297,-0.200909 0.0059,-0.301363 -0.032447,-0.0975 -0.097341,-0.180228 -0.1858334,-0.236364 -0.088492,-0.05318 -0.1946828,-0.07386 -0.2949739,-0.05909 -0.1032409,0.01477 -0.1976324,0.065 -0.2654765,0.141818 -0.00295,0 -0.0059,0 -0.00885,-0.003 0.1710848,-0.271818 0.3539686,-0.531818 0.5516011,-0.785909 0.1563361,0.1625 0.259577,0.369318 0.2979236,0.590909 0.035397,0.224545 0,0.452045 -0.097341,0.655909 0,0 -0.00295,0 -0.00295,-0.003 z M 2.9660198,12.050682 c -0.094392,-0.0325 -0.1946828,-0.05909 -0.2920241,-0.07977 -0.061944,-0.01182 -0.1209393,-0.02955 -0.1769843,-0.05023 -0.011799,-0.0059 -0.020648,-0.01182 -0.032447,-0.02068 -0.0059,-0.05909 -0.014749,-0.118182 -0.023598,-0.177273 -0.014749,-0.103409 -0.029497,-0.203863 -0.041297,-0.307272 -0.00885,-0.05023 -0.011799,-0.100455 -0.014749,-0.150682 v -0.003 c 0.00295,-0.457954 0.058995,-0.915909 0.1651854,-1.365 C 2.6857946,9.3236364 2.8716281,8.7622727 3.1076072,8.2215909 3.1577527,8.13 3.2019988,8.0354545 3.2462449,7.9379545 c 0.00885,-0.020682 0.017698,-0.044318 0.029497,-0.065 0.082593,-0.070909 0.1592862,-0.1447727 0.2359794,-0.2186363 0.1179895,-0.1181818 0.2330294,-0.2363637 0.3480692,-0.3575 L 3.9600815,7.1934091 C 4.0987192,7.0515909 4.1223172,6.8329545 4.0220261,6.6615909 3.9246847,6.4902273 3.7211527,6.4045455 3.5294198,6.4577273 3.402581,6.4902273 3.2757423,6.5286364 3.1518533,6.5729545 3.0515621,6.6113636 2.9601203,6.6645455 2.8775276,6.7295455 2.8008344,6.7886364 2.7270909,6.8536364 2.6562972,6.9215909 2.6356491,6.9422727 2.6150009,6.96 2.5943528,6.9806818 2.6150009,6.8743182 2.6415485,6.7679545 2.6680962,6.6615909 2.7978847,6.1297727 2.9866679,5.6097727 3.2285464,5.1193182 3.3435862,4.8888636 3.4792742,4.6702273 3.6326606,4.4663636 3.7683486,4.2802273 3.9305842,4.1118182 4.1075685,3.9640909 4.2727538,3.8281818 4.4556376,3.7218182 4.6532701,3.6479545 4.856802,3.5711364 5.0721329,3.5327273 5.2904135,3.5327273 c 0.2241802,0 0.4483602,0.035454 0.6636911,0.1034091 C 6.1015916,3.5327273 6.1900838,3.3643182 6.1930334,3.1840909 6.1989329,3.0038636 6.11929,2.8325 5.9777026,2.7202273 5.915758,2.6670455 5.8479141,2.6256818 5.7741707,2.5902273 5.66798,2.5429545 5.5617895,2.5015909 5.4526491,2.4690909 5.7948188,2.4159091 6.1428879,2.3863636 6.4939068,2.3863636 h 0.023598 c 0,0 0,0 0,0 0.5427518,0 1.0855036,0.082727 1.6076074,0.2393182 0.4365612,0.1359091 0.8524743,0.325 1.2447896,0.5613637 0.321522,0.1979545 0.625344,0.4225 0.9055702,0.6736363 0.203531,0.1831818 0.401164,0.3752273 0.589947,0.5761364 0.05015,0.056136 0.10619,0.1093182 0.159286,0.1654545 0.07669,0.082727 0.171085,0.1477273 0.274326,0.195 0.33627,0.065 0.660741,0.1772728 0.967514,0.3309091 0.250727,0.13 0.483757,0.2954546 0.687289,0.4875 0.179934,0.1684091 0.33037,0.3634091 0.44836,0.5761364 0.0118,0.023636 0.0236,0.044318 0.03539,0.067954 -0.003,0 -0.003,0 -0.0059,0 -0.545702,0 -1.091402,0.0325 -1.634155,0.0975 -0.353968,0.088636 -0.693188,0.2186364 -1.014709,0.39 -0.256628,0.1359091 -0.489657,0.3161364 -0.68729,0.5288637 -0.1769842,0.1890909 -0.3126712,0.4136363 -0.4041132,0.6559091 -0.07964,0.2245454 -0.12389,0.460909 -0.129789,0.7002272 0,0 0,0.00295 0,0.00295 v 0.053182 c 0,0.00295 0,0.00591 0,0.011818 0.003,0.2245454 0.03245,0.4490909 0.0885,0.6677272 0.05899,0.2186366 0.132739,0.4343186 0.22713,0.6411366 0.1887832,0.407727 0.4188632,0.797727 0.6843392,1.161136 0.283175,0.39 0.595847,0.765228 0.929167,1.116818 -1.176945,0.859773 -2.5957691,1.323637 -4.0499902,1.326591 -1.3214827,-0.003 -2.6134681,-0.384091 -3.7225697,-1.102045"
     fill-rule="evenodd"
     fill="url(#_lgradient_80)"
     id="path2"
     style="fill:url(#_lgradient_80);stroke-width:0.295215" />
  <linearGradient
     id="_lgradient_81"
     x1="0.22078557"
     y1="0.047239967"
     x2="0.9022491"
     y2="0.90614605"
     gradientTransform="matrix(1.46602,0,0,1.1011591,8.6183084,4.0181591)"
     gradientUnits="userSpaceOnUse">
    <stop
       offset="2.608695652173913%"
       stop-opacity="1"
       style="stop-color:rgb(237,184,212)"
       id="stop3" />
    <stop
       offset="98.69565217391305%"
       stop-opacity="1"
       style="stop-color:rgb(162,110,245)"
       id="stop4" />
  </linearGradient>
  <path
     d="m 8.6183083,4.1005909 c 0,0 1.2970005,-0.5105454 1.4660197,1.0080909 C 8.8053217,5.2413409 8.6183083,4.1005909 8.6183083,4.1005909 Z"
     fill-rule="evenodd"
     fill="url(#_lgradient_81)"
     id="path4"
     style="fill:url(#_lgradient_81);stroke-width:0.295215" />
  <linearGradient
     id="_lgradient_82"
     x1="0"
     y1="0.5"
     x2="0.90748805"
     y2="0.92007786"
     gradientTransform="matrix(10.010823,0,0,7.2008183,2.0412768,6.6872955)"
     gradientUnits="userSpaceOnUse">
    <stop
       offset="0%"
       stop-opacity="1"
       style="stop-color:rgb(247,241,7)"
       id="stop5" />
    <stop
       offset="83.88839793817618%"
       stop-opacity="1"
       style="stop-color:rgb(255,187,36)"
       id="stop6" />
  </linearGradient>
  <path
     d="m 2.6385987,13.888114 c 0,0 2.4326493,-6.8832049 9.4134993,-7.1470458 0,0 -6.0092062,-0.9744091 -10.0102313,5.3734318 -0.022123,0.898182 0.596732,1.773614 0.596732,1.773614 z"
     fill-rule="evenodd"
     id="path6"
     style="fill:url(#linearGradient16);stroke-width:0.295215;fill-opacity:1" />
  <linearGradient
     id="_lgradient_83"
     x1="0"
     y1="0.5"
     x2="0.90748805"
     y2="0.92007786"
     gradientTransform="matrix(2.8801245,0,0,0.62606819,3.3960916,2.5089773)"
     gradientUnits="userSpaceOnUse">
    <stop
       offset="0%"
       stop-opacity="1"
       style="stop-color:rgb(247,241,7)"
       id="stop7" />
    <stop
       offset="83.88839793817618%"
       stop-opacity="1"
       style="stop-color:rgb(255,187,36)"
       id="stop8" />
  </linearGradient>
  <path
     d="m 3.3960916,2.6052955 c 0,0 1.7412305,0.1013409 2.3630354,0.52975 C 6.0184089,3.0815682 6.2390494,2.9034091 6.2765111,2.6611364 6.0538058,2.5686591 4.0149467,2.4023182 3.3960916,2.6052955 Z"
     fill-rule="evenodd"
     id="path8"
     style="fill:url(#linearGradient12);stroke-width:0.295215;fill-opacity:1" />
  <linearGradient
     id="_lgradient_84"
     x1="0"
     y1="0.5"
     x2="0.90748805"
     y2="0.92007786"
     gradientTransform="matrix(6.6640489,0,0,2.9359319,1.9542595,5.4951364)"
     gradientUnits="userSpaceOnUse">
    <stop
       offset="0%"
       stop-opacity="1"
       style="stop-color:rgb(247,241,7)"
       id="stop9" />
    <stop
       offset="83.88839793817618%"
       stop-opacity="1"
       style="stop-color:rgb(255,187,36)"
       id="stop10" />
  </linearGradient>
  <path
     d="m 1.9639936,8.4310682 c 0,0 2.2536001,-2.6224546 6.6543147,-2.9359318 0,0 -6.064367,0.2712272 -6.5672974,1.9656591 -0.1398176,0.4074318 -0.087017,0.9702727 -0.087017,0.9702727 z"
     fill-rule="evenodd"
     id="path10"
     style="fill:url(#linearGradient14);stroke-width:0.295215;fill-opacity:1" />
</svg>
