<?xml version="1.0" encoding="UTF-8" standalone="no"?>
<svg
   width="16"
   height="16"
   version="1.1"
   id="svg1"
   sodipodi:docname="flashplayer.svg"
   inkscape:version="1.3 (0e150ed6c4, 2023-07-21)"
   xmlns:inkscape="http://www.inkscape.org/namespaces/inkscape"
   xmlns:sodipodi="http://sodipodi.sourceforge.net/DTD/sodipodi-0.dtd"
   xmlns:xlink="http://www.w3.org/1999/xlink"
   xmlns="http://www.w3.org/2000/svg"
   xmlns:svg="http://www.w3.org/2000/svg">
  <defs
     id="defs1">
    <linearGradient
       inkscape:collect="always"
       xlink:href="#linearGradient24"
       id="linearGradient23"
       x1="269.39932"
       y1="343.16342"
       x2="254.43269"
       y2="358.13007"
       gradientTransform="scale(1.069045,0.93541435)"
       gradientUnits="userSpaceOnUse" />
    <linearGradient
       id="linearGradient24"
       x1="0"
       x2="0"
       y1="0"
       y2="1">
      <stop
         offset="0%"
         style="stop-color:#ff2a2a;stop-opacity:1"
         id="stop23" />
      <stop
         offset="1"
         style="stop-color:#d35f5f;stop-opacity:1"
         id="stop24" />
    </linearGradient>
    <linearGradient
       inkscape:collect="always"
       xlink:href="#linearGradient24"
       id="linearGradient2"
       x1="12"
       y1="3"
       x2="4"
       y2="13"
       gradientUnits="userSpaceOnUse"
       gradientTransform="matrix(0.81249991,0,0,0.85714284,1.5000626,1.142853)" />
  </defs>
  <sodipodi:namedview
     id="namedview1"
     pagecolor="#ffffff"
     bordercolor="#000000"
     borderopacity="0.25"
     inkscape:showpageshadow="2"
     inkscape:pageopacity="0.0"
     inkscape:pagecheckerboard="0"
     inkscape:deskcolor="#d1d1d1"
     showgrid="true"
     inkscape:zoom="23.96875"
     inkscape:cx="6.2581486"
     inkscape:cy="4.4432855"
     inkscape:window-width="1920"
     inkscape:window-height="994"
     inkscape:window-x="0"
     inkscape:window-y="0"
     inkscape:window-maximized="1"
     inkscape:current-layer="svg1">
    <inkscape:grid
       id="grid1"
       units="px"
       originx="0"
       originy="0"
       spacingx="1"
       spacingy="1"
       empcolor="#0099e5"
       empopacity="0.30196078"
       color="#0099e5"
       opacity="0.14901961"
       empspacing="5"
       dotted="false"
       gridanglex="30"
       gridanglez="30"
       visible="true" />
  </sodipodi:namedview>
  <path
     style="fill:url(#linearGradient2);stroke-width:0.653552"
     d="m 4.5063126,10.669698 v 2.013812 c 0,0 2.9276122,0.586013 4.24318,-3.3563579 0.084019,0 2.1199104,0 2.1199104,0 V 7.313338 H 9.3427077 c 0,0 0.6084739,-2.0138137 2.1630103,-2.0138137 l -1.5e-5,-1.9858499 c 0,0 -2.4191224,-0.5966528 -3.9733966,3.7220623 C 6.1880687,11.26542 4.5063127,10.669698 4.5063126,10.669698 Z"
     id="path1" />
  <g
     transform="matrix(0.8125,0,0,0.85714286,-219.49993,-273.14286)"
     id="g23">
    <path
       style="color:#d5c289;fill:url(#linearGradient23)"
       class="ColorScheme-Text"
       d="m 275.99414,321 c -1.2582,0.0145 -2.17889,-0.0306 -2.93164,0.38477 -0.37637,0.20766 -0.67323,0.55938 -0.83789,0.99804 C 272.05994,322.82148 272,323.34239 272,324 v 8 c 0,0.65761 0.0599,1.17853 0.22461,1.61719 0.16467,0.43866 0.46152,0.79039 0.83789,0.99804 0.75275,0.41532 1.67345,0.3702 2.93164,0.38477 h 0.004 8.0039 0.004 c 1.25819,-0.0145 2.17889,0.0306 2.93164,-0.38477 0.37637,-0.20766 0.67322,-0.55938 0.83789,-0.99804 C 287.94006,333.17852 288,332.65761 288,332 v -8 c 0,-0.65761 -0.0599,-1.17852 -0.22461,-1.61719 -0.16466,-0.43866 -0.46152,-0.79038 -0.83789,-0.99804 -0.75275,-0.41534 -1.67344,-0.37025 -2.93164,-0.38477 h -0.004 -8.0039 z m 0.006,1 h 8 c 1.25852,0.0147 2.08717,0.0598 2.45312,0.26172 0.18341,0.1012 0.28916,0.21274 0.38672,0.47266 C 286.93741,322.99429 287,323.40761 287,324 v 8 c 0,0.59239 -0.0626,1.00572 -0.16016,1.26562 -0.0976,0.25991 -0.20331,0.37147 -0.38672,0.47266 C 286.08717,333.94019 285.25852,333.98529 284,334 H 276.00586 276 c -1.25853,-0.0147 -2.08912,-0.0598 -2.45508,-0.26172 -0.18341,-0.10119 -0.2872,-0.21275 -0.38476,-0.47266 C 273.06259,333.00572 273,332.59239 273,332 v -8 c 0,-0.59239 0.0626,-1.00572 0.16016,-1.26562 0.0976,-0.25991 0.20135,-0.37147 0.38476,-0.47266 C 273.91088,322.05981 274.74147,322.01471 276,322 Z"
       id="path22" />
  </g>
</svg>
