<?xml version="1.0" encoding="UTF-8" standalone="no"?>
<svg
   width="16"
   height="15.996"
   version="1.1"
   id="svg23"
   sodipodi:docname="fluid.svg"
   inkscape:version="1.3 (0e150ed6c4, 2023-07-21)"
   xmlns:inkscape="http://www.inkscape.org/namespaces/inkscape"
   xmlns:sodipodi="http://sodipodi.sourceforge.net/DTD/sodipodi-0.dtd"
   xmlns:xlink="http://www.w3.org/1999/xlink"
   xmlns="http://www.w3.org/2000/svg"
   xmlns:svg="http://www.w3.org/2000/svg">
  <sodipodi:namedview
     id="namedview23"
     pagecolor="#ffffff"
     bordercolor="#000000"
     borderopacity="0.25"
     inkscape:showpageshadow="2"
     inkscape:pageopacity="0.0"
     inkscape:pagecheckerboard="0"
     inkscape:deskcolor="#d1d1d1"
     inkscape:zoom="23.974743"
     inkscape:cx="9.0094814"
     inkscape:cy="4.900991"
     inkscape:window-width="1920"
     inkscape:window-height="994"
     inkscape:window-x="0"
     inkscape:window-y="0"
     inkscape:window-maximized="1"
     inkscape:current-layer="svg23" />
  <defs
     id="defs22">
    <linearGradient
       id="linearGradient25"
       inkscape:collect="always">
      <stop
         style="stop-color:#00aad4;stop-opacity:1"
         offset="0"
         id="stop25" />
      <stop
         style="stop-color:#00ffcc;stop-opacity:1"
         offset="1"
         id="stop26" />
    </linearGradient>
    <style
       id="current-color-scheme"
       type="text/css">&#10;   .ColorScheme-Text { color:#d5c289; } .ColorScheme-Highlight { color:#5294e2; }&#10;  </style>
    <linearGradient
       id="arrongin"
       x1="0%"
       x2="0%"
       y1="0%"
       y2="100%">
      <stop
         offset="0%"
         style="stop-color:#dd9b44; stop-opacity:1"
         id="stop1" />
      <stop
         offset="100%"
         style="stop-color:#ad6c16; stop-opacity:1"
         id="stop2" />
    </linearGradient>
    <linearGradient
       id="aurora"
       x1="0%"
       x2="0%"
       y1="0%"
       y2="100%">
      <stop
         offset="0%"
         style="stop-color:#09D4DF; stop-opacity:1"
         id="stop3" />
      <stop
         offset="100%"
         style="stop-color:#9269F4; stop-opacity:1"
         id="stop4" />
    </linearGradient>
    <linearGradient
       id="fitdance"
       x1="0%"
       x2="0%"
       y1="0%"
       y2="100%">
      <stop
         offset="0%"
         style="stop-color:#1AD6AB; stop-opacity:1"
         id="stop5" />
      <stop
         offset="100%"
         style="stop-color:#329DB6; stop-opacity:1"
         id="stop6" />
    </linearGradient>
    <linearGradient
       id="oomox"
       x1="0%"
       x2="0%"
       y1="0%"
       y2="100%">
      <stop
         offset="0%"
         style="stop-color:#303b3d; stop-opacity:1"
         id="stop7" />
      <stop
         offset="100%"
         style="stop-color:#bc985d; stop-opacity:1"
         id="stop8" />
    </linearGradient>
    <linearGradient
       id="rainblue"
       x1="0%"
       x2="0%"
       y1="0%"
       y2="100%">
      <stop
         offset="0%"
         style="stop-color:#00F260; stop-opacity:1"
         id="stop9" />
      <stop
         offset="100%"
         style="stop-color:#0575E6; stop-opacity:1"
         id="stop10" />
    </linearGradient>
    <linearGradient
       id="sunrise"
       x1="0%"
       x2="0%"
       y1="0%"
       y2="100%">
      <stop
         offset="0%"
         style="stop-color: #FF8501; stop-opacity:1"
         id="stop11" />
      <stop
         offset="100%"
         style="stop-color: #FFCB01; stop-opacity:1"
         id="stop12" />
    </linearGradient>
    <linearGradient
       id="telinkrin"
       x1="0%"
       x2="0%"
       y1="0%"
       y2="100%">
      <stop
         offset="0%"
         style="stop-color: #b2ced6; stop-opacity:1"
         id="stop13" />
      <stop
         offset="100%"
         style="stop-color: #6da5b7; stop-opacity:1"
         id="stop14" />
    </linearGradient>
    <linearGradient
       id="60spsycho"
       x1="0%"
       x2="0%"
       y1="0%"
       y2="100%">
      <stop
         offset="0%"
         style="stop-color: #df5940; stop-opacity:1"
         id="stop15" />
      <stop
         offset="25%"
         style="stop-color: #d8d15f; stop-opacity:1"
         id="stop16" />
      <stop
         offset="50%"
         style="stop-color: #e9882a; stop-opacity:1"
         id="stop17" />
      <stop
         offset="100%"
         style="stop-color: #279362; stop-opacity:1"
         id="stop18" />
    </linearGradient>
    <linearGradient
       id="90ssummer"
       x1="0%"
       x2="0%"
       y1="0%"
       y2="100%">
      <stop
         offset="0%"
         style="stop-color: #f618c7; stop-opacity:1"
         id="stop19" />
      <stop
         offset="20%"
         style="stop-color: #94ffab; stop-opacity:1"
         id="stop20" />
      <stop
         offset="50%"
         style="stop-color: #fbfd54; stop-opacity:1"
         id="stop21" />
      <stop
         offset="100%"
         style="stop-color: #0f83ae; stop-opacity:1"
         id="stop22" />
    </linearGradient>
    <linearGradient
       inkscape:collect="always"
       xlink:href="#linearGradient25"
       id="linearGradient26"
       x1="2.5000012"
       y1="1.5"
       x2="13.499999"
       y2="14.5"
       gradientUnits="userSpaceOnUse" />
  </defs>
  <path
     class="ColorScheme-Text"
     d="m 5.7000373,1.5 c -0.459495,0 -0.459495,0.46605 -0.459495,0.46605 0,0 0,0.4660499 0.459495,0.4660499 h 0.4594951 l 0.016542,2.6816513 A 0.91899018,0.93209989 0 0 1 6.0299551,5.6161532 C 5.908648,5.8100297 5.8139921,5.9582339 5.647655,6.2481166 5.4022847,6.6768826 5.0980984,7.2249578 4.7663433,7.8261619 A 472.848,479.59336 0 0 0 2.7454836,11.541515 c -0.3547295,0.659922 -0.3519734,1.563128 0.1865551,2.243559 l 0.020216,0.0252 C 3.3400699,14.335017 3.9815254,14.5 4.6229803,14.5 h 6.7527377 c 0.643293,0 1.286587,-0.164049 1.674405,-0.689752 l 0.0202,-0.0252 c 0.536692,-0.679503 0.538525,-1.58364 0.182878,-2.243562 l -0.0202,-0.03635 C 12.200977,9.3734477 11.001688,7.657452 9.9632332,5.5490418 A 0.91899018,0.93209989 0 0 1 9.8658199,5.1314613 L 9.8354931,2.4320999 h 0.4594929 c 0.459496,0 0.459496,-0.4660499 0.459496,-0.4660499 0,0 0,-0.46605 -0.459496,-0.46605 z m 1.395027,0.9759085 h 1.8517655 v 2.8960342 a 0.91899018,0.93209989 0 0 0 0.093738,0.410124 C 10.144275,8.072236 11.405129,9.8301766 12.427045,11.949771 a 0.74162506,0.75220461 0 0 0 0.01841,0.03726 c 0.220559,0.41013 0.233425,0.823978 -0.09187,1.225715 l -0.03218,0.04197 c -0.132343,0.185488 -0.449399,0.313187 -0.946573,0.313187 H 4.6229806 c -0.4962547,0 -0.8133059,-0.127699 -0.9465599,-0.313187 a 0.83811904,0.85007509 0 0 0 -0.029407,-0.04195 C 3.3216904,12.811031 3.3327186,12.397183 3.5532762,11.987987 A 471.48334,478.20921 0 0 1 5.5686217,8.2810264 C 5.8985395,7.6835505 6.2008867,7.1373397 6.4435002,6.7141666 6.6851944,6.2909934 6.8938055,5.9563693 6.9186184,5.9218817 a 0.91899018,0.93209989 0 0 0 0.1764459,-0.549939 z"
     font-family="sans-serif"
     font-weight="400"
     overflow="visible"
     id="path22"
     style="fill:url(#linearGradient26)" />
  <g
     fill="#f9f9f9"
     stroke-width="1.5324"
     id="g10"
     transform="matrix(0.24293268,0,0,0.24293268,-0.31757264,-0.17105175)"
     style="fill:#00ccff">
    <path
       d="m 38,54.971 c 0,0.55367 -0.44574,0.99942 -0.99942,0.99942 -0.55368,0 -0.99942,-0.45374 -0.99942,-0.99942 0,-0.55367 0.44574,-0.99942 0.99942,-0.99942 0.55368,0 0.99942,0.44574 0.99942,0.99942"
       id="path6"
       style="fill:#00ccff;fill-opacity:1" />
    <path
       d="m 35.003,50.473 c 0,0.82752 -0.67161,1.4991 -1.4991,1.4991 -0.82752,0 -1.4991,-0.67161 -1.4991,-1.4991 0,-0.82749 0.67161,-1.4991 1.4991,-1.4991 0.82752,0 1.4991,0.67161 1.4991,1.4991"
       id="path7"
       style="fill:#00ccff;fill-opacity:1" />
    <path
       d="m 38,43.977 c 0,1.1014 -0.89748,1.9988 -1.9988,1.9988 -1.10132,0 -1.9988,-0.89748 -1.9988,-1.9988 0,-1.1094 0.89748,-1.9988 1.9988,-1.9988 1.10132,0 1.9988,0.89748 1.9988,1.9988"
       id="path8"
       style="fill:#00ccff;fill-opacity:1" />
    <path
       d="m 38,28.985 c 0,1.655 -1.3432,2.9982 -2.9982,2.9982 -1.655,0 -2.9982,-1.3512 -2.9982,-2.9982 0,-1.655 1.3432,-2.9982 2.9982,-2.9982 1.655,0 2.9982,1.3432 2.9982,2.9982"
       id="path9"
       style="fill:#00ccff;fill-opacity:1" />
    <path
       d="m 33.003,37.481 c 0,1.3812 -1.1174,2.4985 -2.4985,2.4985 -1.3812,0 -2.4985,-1.1254 -2.4985,-2.4985 0,-1.3812 1.1174,-2.4985 2.4985,-2.4985 1.3812,0 2.4985,1.1254 2.4985,2.4985"
       id="path10"
       style="fill:#00ccff;fill-opacity:1" />
  </g>
</svg>
