<?xml version="1.0" encoding="UTF-8" standalone="no"?>
<svg
   width="16"
   height="16"
   version="1.1"
   id="svg22"
   sodipodi:docname="handbrake.svg"
   inkscape:version="1.3 (0e150ed6c4, 2023-07-21)"
   xmlns:inkscape="http://www.inkscape.org/namespaces/inkscape"
   xmlns:sodipodi="http://sodipodi.sourceforge.net/DTD/sodipodi-0.dtd"
   xmlns:xlink="http://www.w3.org/1999/xlink"
   xmlns="http://www.w3.org/2000/svg"
   xmlns:svg="http://www.w3.org/2000/svg">
  <sodipodi:namedview
     id="namedview22"
     pagecolor="#ffffff"
     bordercolor="#000000"
     borderopacity="0.25"
     inkscape:showpageshadow="2"
     inkscape:pageopacity="0.0"
     inkscape:pagecheckerboard="0"
     inkscape:deskcolor="#d1d1d1"
     inkscape:zoom="23.96875"
     inkscape:cx="8.970013"
     inkscape:cy="10.451108"
     inkscape:window-width="1920"
     inkscape:window-height="994"
     inkscape:window-x="0"
     inkscape:window-y="0"
     inkscape:window-maximized="1"
     inkscape:current-layer="svg22" />
  <defs
     id="defs22">
    <linearGradient
       id="linearGradient22"
       inkscape:collect="always">
      <stop
         style="stop-color:#ff00ff;stop-opacity:1"
         offset="0"
         id="stop23" />
      <stop
         style="stop-color:#2ad4ff;stop-opacity:1"
         offset="0.34630758"
         id="stop25" />
      <stop
         style="stop-color:#b394e2;stop-opacity:1;"
         offset="0.67686391"
         id="stop26" />
      <stop
         style="stop-color:#ffdd55;stop-opacity:1"
         offset="1"
         id="stop24" />
    </linearGradient>
    <style
       id="current-color-scheme"
       type="text/css">&#10;   .ColorScheme-Text { color:#d5c289; } .ColorScheme-Highlight { color:#5294e2; }&#10;  </style>
    <linearGradient
       id="arrongin"
       x1="0%"
       x2="0%"
       y1="0%"
       y2="100%">
      <stop
         offset="0%"
         style="stop-color:#dd9b44; stop-opacity:1"
         id="stop1" />
      <stop
         offset="100%"
         style="stop-color:#ad6c16; stop-opacity:1"
         id="stop2" />
    </linearGradient>
    <linearGradient
       id="aurora"
       x1="0%"
       x2="0%"
       y1="0%"
       y2="100%">
      <stop
         offset="0%"
         style="stop-color:#09D4DF; stop-opacity:1"
         id="stop3" />
      <stop
         offset="100%"
         style="stop-color:#9269F4; stop-opacity:1"
         id="stop4" />
    </linearGradient>
    <linearGradient
       id="fitdance"
       x1="0%"
       x2="0%"
       y1="0%"
       y2="100%">
      <stop
         offset="0%"
         style="stop-color:#1AD6AB; stop-opacity:1"
         id="stop5" />
      <stop
         offset="100%"
         style="stop-color:#329DB6; stop-opacity:1"
         id="stop6" />
    </linearGradient>
    <linearGradient
       id="oomox"
       x1="0%"
       x2="0%"
       y1="0%"
       y2="100%">
      <stop
         offset="0%"
         style="stop-color:#303b3d; stop-opacity:1"
         id="stop7" />
      <stop
         offset="100%"
         style="stop-color:#bc985d; stop-opacity:1"
         id="stop8" />
    </linearGradient>
    <linearGradient
       id="rainblue"
       x1="0%"
       x2="0%"
       y1="0%"
       y2="100%">
      <stop
         offset="0%"
         style="stop-color:#00F260; stop-opacity:1"
         id="stop9" />
      <stop
         offset="100%"
         style="stop-color:#0575E6; stop-opacity:1"
         id="stop10" />
    </linearGradient>
    <linearGradient
       id="sunrise"
       x1="0%"
       x2="0%"
       y1="0%"
       y2="100%">
      <stop
         offset="0%"
         style="stop-color: #FF8501; stop-opacity:1"
         id="stop11" />
      <stop
         offset="100%"
         style="stop-color: #FFCB01; stop-opacity:1"
         id="stop12" />
    </linearGradient>
    <linearGradient
       id="telinkrin"
       x1="0%"
       x2="0%"
       y1="0%"
       y2="100%">
      <stop
         offset="0%"
         style="stop-color: #b2ced6; stop-opacity:1"
         id="stop13" />
      <stop
         offset="100%"
         style="stop-color: #6da5b7; stop-opacity:1"
         id="stop14" />
    </linearGradient>
    <linearGradient
       id="60spsycho"
       x1="0%"
       x2="0%"
       y1="0%"
       y2="100%">
      <stop
         offset="0%"
         style="stop-color: #df5940; stop-opacity:1"
         id="stop15" />
      <stop
         offset="25%"
         style="stop-color: #d8d15f; stop-opacity:1"
         id="stop16" />
      <stop
         offset="50%"
         style="stop-color: #e9882a; stop-opacity:1"
         id="stop17" />
      <stop
         offset="100%"
         style="stop-color: #279362; stop-opacity:1"
         id="stop18" />
    </linearGradient>
    <linearGradient
       id="90ssummer"
       x1="0%"
       x2="0%"
       y1="0%"
       y2="100%">
      <stop
         offset="0%"
         style="stop-color: #f618c7; stop-opacity:1"
         id="stop19" />
      <stop
         offset="20%"
         style="stop-color: #94ffab; stop-opacity:1"
         id="stop20" />
      <stop
         offset="50%"
         style="stop-color: #fbfd54; stop-opacity:1"
         id="stop21" />
      <stop
         offset="100%"
         style="stop-color: #0f83ae; stop-opacity:1"
         id="stop22" />
    </linearGradient>
    <linearGradient
       inkscape:collect="always"
       xlink:href="#linearGradient22"
       id="linearGradient24"
       x1="3"
       y1="14.5"
       x2="12.672379"
       y2="2.0070195"
       gradientUnits="userSpaceOnUse" />
  </defs>
  <path
     class="ColorScheme-Text"
     d="m 6.8767177,14.478358 c -0.5929581,-0.05357 -1.7485751,-0.251151 -1.8089375,-0.309301 -0.039795,-0.03833 0.057444,-0.139128 0.1797166,-0.186265 0.0721,-0.02785 0.2738757,-0.07159 0.4483857,-0.09729 1.1597929,-0.170894 1.6168189,-0.4323 1.8101359,-1.035317 C 7.6451732,12.41612 7.7373017,10.911726 7.73267,9.1491245 7.7290684,7.7682792 7.6996121,7.2203733 7.6115826,6.894752 7.5865208,6.802055 7.5699169,6.7224639 7.5746759,6.717874 c 0.00473,-0.00436 0.086357,0.011794 0.181324,0.03641 0.1815228,0.047023 0.4574778,0.03614 0.571176,-0.02246 0.034204,-0.017588 0.069412,-0.025155 0.078221,-0.01662 0.00879,0.00845 -0.00712,0.1135874 -0.03545,0.2335346 -0.076939,0.32591 -0.1098296,1.0022683 -0.1107407,2.2771664 -0.00104,1.459597 0.08947,3.111228 0.1934302,3.529566 0.04123,0.165918 0.1526293,0.389774 0.2639141,0.530349 0.2157156,0.272481 0.7294036,0.475885 1.4858185,0.588344 0.449594,0.06688 0.667334,0.138667 0.722733,0.238399 0.03086,0.05556 0.02236,0.06506 -0.08368,0.09349 -0.245971,0.06592 -0.8865572,0.182973 -1.2641849,0.230965 -0.4567472,0.05801 -2.2174829,0.08506 -2.700528,0.04143 z M 7.8295557,6.6431327 C 7.5659436,6.5922418 7.4631671,6.5136787 7.1889971,6.153541 6.4435248,5.1743257 5.6134928,4.269039 3.9987611,2.6740591 3.4718588,2.1536023 3.0275669,1.7045275 3.0114445,1.6761077 2.9891629,1.6368564 2.9982123,1.6161344 3.0492423,1.589831 3.2808135,1.4704251 12.701039,1.4698678 12.932566,1.589292 12.969626,1.6083844 13,1.640018 13,1.6594576 13,1.6789232 12.649549,2.0358206 12.221222,2.4525616 10.653588,3.9778198 9.7236433,4.9841144 8.9068912,6.0390387 8.6174709,6.4128547 8.5432545,6.4897117 8.4049662,6.5588039 8.221018,6.6507179 8.0206925,6.6800978 7.8295558,6.6431839 Z"
     id="path22"
     style="stroke-width:0.882947;fill:url(#linearGradient24)" />
</svg>
