<?xml version="1.0" encoding="UTF-8" standalone="no"?>
<svg
   width="16"
   height="16"
   version="1.1"
   style="enable-background:new"
   id="svg26"
   sodipodi:docname="freemind.svg"
   inkscape:version="1.3 (0e150ed6c4, 2023-07-21)"
   xmlns:inkscape="http://www.inkscape.org/namespaces/inkscape"
   xmlns:sodipodi="http://sodipodi.sourceforge.net/DTD/sodipodi-0.dtd"
   xmlns:xlink="http://www.w3.org/1999/xlink"
   xmlns="http://www.w3.org/2000/svg"
   xmlns:svg="http://www.w3.org/2000/svg">
  <sodipodi:namedview
     id="namedview26"
     pagecolor="#ffffff"
     bordercolor="#000000"
     borderopacity="0.25"
     inkscape:showpageshadow="2"
     inkscape:pageopacity="0.0"
     inkscape:pagecheckerboard="0"
     inkscape:deskcolor="#d1d1d1"
     inkscape:zoom="23.96875"
     inkscape:cx="7.8852673"
     inkscape:cy="13.872229"
     inkscape:window-width="1920"
     inkscape:window-height="994"
     inkscape:window-x="0"
     inkscape:window-y="0"
     inkscape:window-maximized="1"
     inkscape:current-layer="svg26" />
  <defs
     id="defs22">
    <linearGradient
       id="linearGradient31"
       inkscape:collect="always">
      <stop
         style="stop-color:#ffdd55;stop-opacity:1"
         offset="0"
         id="stop31" />
      <stop
         style="stop-color:#ff80e5;stop-opacity:1"
         offset="0.52959603"
         id="stop33" />
      <stop
         style="stop-color:#00ccff;stop-opacity:1"
         offset="1"
         id="stop32" />
    </linearGradient>
    <style
       id="current-color-scheme"
       type="text/css">&#10;   .ColorScheme-Text { color:#d5c289; } .ColorScheme-Highlight { color:#5294e2; }&#10;  </style>
    <linearGradient
       id="arrongin"
       x1="0%"
       x2="0%"
       y1="0%"
       y2="100%">
      <stop
         offset="0%"
         style="stop-color:#dd9b44; stop-opacity:1"
         id="stop1" />
      <stop
         offset="100%"
         style="stop-color:#ad6c16; stop-opacity:1"
         id="stop2" />
    </linearGradient>
    <linearGradient
       id="aurora"
       x1="0%"
       x2="0%"
       y1="0%"
       y2="100%">
      <stop
         offset="0%"
         style="stop-color:#09D4DF; stop-opacity:1"
         id="stop3" />
      <stop
         offset="100%"
         style="stop-color:#9269F4; stop-opacity:1"
         id="stop4" />
    </linearGradient>
    <linearGradient
       id="fitdance"
       x1="0%"
       x2="0%"
       y1="0%"
       y2="100%">
      <stop
         offset="0%"
         style="stop-color:#1AD6AB; stop-opacity:1"
         id="stop5" />
      <stop
         offset="100%"
         style="stop-color:#329DB6; stop-opacity:1"
         id="stop6" />
    </linearGradient>
    <linearGradient
       id="oomox"
       x1="0%"
       x2="0%"
       y1="0%"
       y2="100%">
      <stop
         offset="0%"
         style="stop-color:#303b3d; stop-opacity:1"
         id="stop7" />
      <stop
         offset="100%"
         style="stop-color:#bc985d; stop-opacity:1"
         id="stop8" />
    </linearGradient>
    <linearGradient
       id="rainblue"
       x1="0%"
       x2="0%"
       y1="0%"
       y2="100%">
      <stop
         offset="0%"
         style="stop-color:#00F260; stop-opacity:1"
         id="stop9" />
      <stop
         offset="100%"
         style="stop-color:#0575E6; stop-opacity:1"
         id="stop10" />
    </linearGradient>
    <linearGradient
       id="sunrise"
       x1="0%"
       x2="0%"
       y1="0%"
       y2="100%">
      <stop
         offset="0%"
         style="stop-color: #FF8501; stop-opacity:1"
         id="stop11" />
      <stop
         offset="100%"
         style="stop-color: #FFCB01; stop-opacity:1"
         id="stop12" />
    </linearGradient>
    <linearGradient
       id="telinkrin"
       x1="0%"
       x2="0%"
       y1="0%"
       y2="100%">
      <stop
         offset="0%"
         style="stop-color: #b2ced6; stop-opacity:1"
         id="stop13" />
      <stop
         offset="100%"
         style="stop-color: #6da5b7; stop-opacity:1"
         id="stop14" />
    </linearGradient>
    <linearGradient
       id="60spsycho"
       x1="0%"
       x2="0%"
       y1="0%"
       y2="100%">
      <stop
         offset="0%"
         style="stop-color: #df5940; stop-opacity:1"
         id="stop15" />
      <stop
         offset="25%"
         style="stop-color: #d8d15f; stop-opacity:1"
         id="stop16" />
      <stop
         offset="50%"
         style="stop-color: #e9882a; stop-opacity:1"
         id="stop17" />
      <stop
         offset="100%"
         style="stop-color: #279362; stop-opacity:1"
         id="stop18" />
    </linearGradient>
    <linearGradient
       id="90ssummer"
       x1="0%"
       x2="0%"
       y1="0%"
       y2="100%">
      <stop
         offset="0%"
         style="stop-color: #f618c7; stop-opacity:1"
         id="stop19" />
      <stop
         offset="20%"
         style="stop-color: #94ffab; stop-opacity:1"
         id="stop20" />
      <stop
         offset="50%"
         style="stop-color: #fbfd54; stop-opacity:1"
         id="stop21" />
      <stop
         offset="100%"
         style="stop-color: #0f83ae; stop-opacity:1"
         id="stop22" />
    </linearGradient>
    <filter
       id="filter1085"
       width="1.6077482"
       height="1.2144993"
       x="-0.30387412"
       y="-0.10724964"
       style="color-interpolation-filters:sRGB">
      <feGaussianBlur
         stdDeviation=".804"
         id="feGaussianBlur22" />
    </filter>
    <linearGradient
       inkscape:collect="always"
       xlink:href="#oomox"
       id="linearGradient26"
       x1="50.565343"
       y1="254.6533"
       x2="50.565343"
       y2="295.55503"
       gradientTransform="scale(1.0540997,0.94867683)"
       gradientUnits="userSpaceOnUse" />
    <linearGradient
       inkscape:collect="always"
       xlink:href="#oomox"
       id="linearGradient27"
       x1="0"
       y1="0"
       x2="0"
       y2="1"
       gradientUnits="userSpaceOnUse" />
    <linearGradient
       inkscape:collect="always"
       xlink:href="#oomox"
       id="linearGradient28"
       x1="120.56214"
       y1="149.92538"
       x2="120.56214"
       y2="160.81125"
       gradientTransform="scale(0.59408847,1.683251)"
       gradientUnits="userSpaceOnUse" />
    <linearGradient
       inkscape:collect="always"
       xlink:href="#oomox"
       id="linearGradient30"
       x1="50.565345"
       y1="254.6533"
       x2="50.565345"
       y2="295.55502"
       gradientTransform="scale(1.0540997,0.94867686)"
       gradientUnits="userSpaceOnUse" />
    <linearGradient
       inkscape:collect="always"
       xlink:href="#linearGradient31"
       id="linearGradient32"
       x1="0.99999994"
       y1="14.499999"
       x2="13.710965"
       y2="1.4876997"
       gradientUnits="userSpaceOnUse" />
  </defs>
  <g
     transform="matrix(1.0357143,0,0,1.03176,-641.39286,-295.54388)"
     id="g26">
    <g
       style="fill:url(#linearGradient30)"
       class="ColorScheme-Text"
       transform="matrix(0.32471675,0,0,0.32471675,602.69229,209.4539)"
       id="g25">
      <path
         d="m 53.300915,241.58369 c 0.353281,3.8895 3.186889,4.78926 3.340953,8.94447 0.08176,1.75488 -2.227692,5.78877 -2.204145,8.12238 0.01181,1.10592 0.550546,2.14425 1.461009,2.78519 1.725084,1.21379 5.344793,1.7052 10.172327,1.7052 h 0.288413 c -4.077057,0 -7.134417,1.08171 -8.591322,2.05205 -0.768928,0.51241 -1.223805,1.3432 -1.233648,2.22731 0.178392,5.9185 1.000731,12.78195 7.782925,12.96592 7.805208,-0.0876 9.402294,-12.22606 9.462875,-17.24528 -0.09728,-3.38035 -8.622904,-21.55724 -20.479387,-21.55724 z m 43.114499,0 c -11.856482,0 -20.382091,18.17689 -20.479387,21.55724 0.06058,5.01922 1.657666,17.15753 9.462875,17.24528 6.782199,-0.18414 7.604543,-7.04742 7.782924,-12.96592 -0.0098,-0.88411 -0.464749,-1.7149 -1.233645,-2.22731 -1.456909,-0.97034 -4.514272,-2.05205 -8.591324,-2.05205 h 0.288414 c 4.827509,0 8.447244,-0.49141 10.172328,-1.7052 0.910434,-0.64094 1.449356,-1.67927 1.461007,-2.78519 0.02363,-2.33361 -2.285914,-6.3675 -2.204146,-8.12238 0.154073,-4.15521 2.987687,-5.05497 3.340954,-8.94447 z m -37.725186,3.23306 a 1.0778619,1.0778619 0 0 1 1.077862,1.07786 1.0778619,1.0778619 0 0 1 -1.077862,1.07787 1.0778619,1.0778619 0 0 1 -1.077863,-1.07787 1.0778619,1.0778619 0 0 1 1.077863,-1.07786 z m 32.335873,0 a 1.0778621,1.0778621 0 0 1 1.077863,1.07786 1.0778621,1.0778621 0 0 1 -1.077863,1.07787 1.0778621,1.0778621 0 0 1 -1.077862,-1.07787 1.0778621,1.0778621 0 0 1 1.077862,-1.07786 z m -28.563355,4.98511 a 1.616793,1.616793 0 0 1 1.616793,1.61679 1.616793,1.616793 0 0 1 -1.616793,1.6168 1.616793,1.616793 0 0 1 -1.616794,-1.6168 1.616793,1.616793 0 0 1 1.616794,-1.61679 z m 24.790837,0 a 1.6167933,1.6167933 0 0 1 1.616794,1.61679 1.6167933,1.6167933 0 0 1 -1.616794,1.6168 1.6167933,1.6167933 0 0 1 -1.616794,-1.6168 1.6167933,1.6167933 0 0 1 1.616794,-1.61679 z m -27.485493,5.79351 a 2.1557242,2.1557242 0 0 1 2.155725,2.15573 2.1557242,2.1557242 0 0 1 -2.155725,2.15573 2.1557242,2.1557242 0 0 1 -2.155725,-2.15573 2.1557242,2.1557242 0 0 1 2.155725,-2.15573 z m 30.180149,0 a 2.1557243,2.1557243 0 0 1 2.155725,2.15573 2.1557243,2.1557243 0 0 1 -2.155725,2.15573 2.1557243,2.1557243 0 0 1 -2.155725,-2.15573 2.1557243,2.1557243 0 0 1 2.155725,-2.15573 z m -28.563356,11.85702 a 1.6167931,1.6167931 0 0 1 1.616794,1.61679 1.6167931,1.6167931 0 0 1 -1.616794,1.6168 1.6167931,1.6167931 0 0 1 -1.616793,-1.6168 1.6167931,1.6167931 0 0 1 1.616793,-1.61679 z m 26.946562,0 a 1.6167932,1.6167932 0 0 1 1.616794,1.61679 1.6167932,1.6167932 0 0 1 -1.616794,1.6168 1.6167932,1.6167932 0 0 1 -1.616794,-1.6168 1.6167932,1.6167932 0 0 1 1.616794,-1.61679 z m -24.251906,6.46717 a 2.1557242,2.1557242 0 0 1 2.155726,2.15572 2.1557242,2.1557242 0 0 1 -2.155726,2.15573 2.1557242,2.1557242 0 0 1 -2.155724,-2.15573 2.1557242,2.1557242 0 0 1 2.155724,-2.15572 z m 21.55725,0 a 2.1557243,2.1557243 0 0 1 2.155725,2.15572 2.1557243,2.1557243 0 0 1 -2.155725,2.15573 2.1557243,2.1557243 0 0 1 -2.155725,-2.15573 2.1557243,2.1557243 0 0 1 2.155725,-2.15572 z"
         style="fill:url(#linearGradient26)"
         class="ColorScheme-Text"
         id="path22" />
      <circle
         cx="22.482"
         cy="275.95401"
         r="0"
         style="fill:url(#linearGradient27)"
         class="ColorScheme-Text"
         id="circle22" />
      <path
         style="fill:url(#linearGradient28)"
         class="ColorScheme-Text"
         d="m 74.858162,252.36204 c -1.785861,0 -3.233587,1.44775 -3.233587,3.23358 0,2.15574 2.155726,2.15574 1.07786,4.31148 v 3.23358 5.38928 c 0,1.19428 0.961456,2.15574 2.155727,2.15574 1.194269,0 2.155725,-0.96146 2.155725,-2.15574 v -5.38928 -3.23358 c -1.077865,-2.15574 1.077861,-2.15574 1.077861,-4.31148 0,-1.78583 -1.447726,-3.23358 -3.233586,-3.23358 z"
         id="path23" />
      <path
         d="M 1,1.9003906 C 1.1147163,3.1633764 2.0339572,3.4554212 2.0839844,4.8046875 2.1105332,5.3745264 1.3614945,6.683644 1.3691406,7.4414062 1.3729755,7.800517 1.5481074,8.1375792 1.84375,8.3457031 2.4039137,8.7398411 3.5789032,8.9003906 5.1464844,8.9003906 h 0.09375 c -1.3238887,0 -2.3159811,0.35093 -2.7890625,0.6660156 C 2.2014881,9.7327944 2.0539774,10.001977 2.0507812,10.289062 2.1087081,12.210899 2.375833,14.440262 4.578125,14.5 6.2909947,14.480776 7.0705095,12.678173 7.4101562,11.005859 7.5322616,11.20842 7.7449373,11.349609 8,11.349609 c 0.2550622,0 0.4677383,-0.141189 0.5898438,-0.34375 0.3396466,1.672303 1.1191613,3.474884 2.8320312,3.494141 2.202294,-0.05979 2.46942,-2.289101 2.527344,-4.210938 C 13.946037,10.001977 13.798502,9.7327944 13.548828,9.5664062 13.075745,9.2513206 12.083653,8.9003906 10.759766,8.9003906 h 0.09375 c 1.567573,0 2.74257,-0.1605495 3.302734,-0.5546875 C 14.451883,8.1375792 14.627076,7.800517 14.630859,7.4414062 14.638532,6.683644 13.889464,5.3745264 13.916016,4.8046875 13.966046,3.4554212 14.885288,3.1633764 15,1.9003906 c -3.1202,0 -5.5020189,3.8444033 -6.3203125,5.8984375 C 8.3941398,7.1543543 9.0507812,7.1300133 9.0507812,6.4492188 9.0507812,6.1602506 8.9330263,5.8988438 8.7441406,5.7089844 8.780559,5.2915994 8.8417991,4.8483475 8.9726562,4.4394531 9.0801867,4.103446 9.2269582,3.808165 9.4121094,3.6074219 9.5972606,3.4066787 9.8092799,3.2947432 10.097656,3.2988281 l 0.0059,-0.3476562 C 9.7160281,2.9456842 9.3911823,3.1142588 9.1542969,3.3710938 8.9174115,3.6279285 8.7559261,3.9675967 8.6386719,4.3339844 8.5193179,4.7069364 8.4469546,5.1066656 8.4042969,5.4824219 8.2796049,5.4302105 8.1436412,5.4003906 8,5.4003906 c -0.1435073,0 -0.2796984,0.027959 -0.4042969,0.080078 C 7.5530096,5.1053768 7.4823902,4.7061701 7.3632812,4.3339844 7.2460273,3.9675967 7.0845419,3.6279285 6.8476562,3.3710938 6.6107705,3.1142588 6.2878771,2.9456809 5.9003906,2.9511719 l 0.00391,0.3476562 C 6.1926736,3.2947692 6.4046923,3.4066787 6.5898438,3.6074219 6.774995,3.808165 6.9217669,4.103446 7.0292969,4.4394531 7.1599297,4.8476466 7.2207685,5.290197 7.2578125,5.7070312 7.0677999,5.8970446 6.9492187,6.1592742 6.9492188,6.4492188 c 0,0.6807945 0.6566416,0.7051355 0.3710937,1.3496093 C 6.5020205,5.7447939 4.1202004,1.9003906 1,1.9003906 Z M 2.75,2.9492188 A 0.34999981,0.34999981 0 0 1 3.0996094,3.3007812 0.34999981,0.34999981 0 0 1 2.75,3.6503906 0.34999981,0.34999981 0 0 1 2.4003906,3.3007812 0.34999981,0.34999981 0 0 1 2.75,2.9492188 Z m 10.5,0 A 0.34999988,0.34999988 0 0 1 13.599609,3.3007812 0.34999988,0.34999988 0 0 1 13.25,3.6503906 0.34999988,0.34999988 0 0 1 12.900391,3.3007812 0.34999988,0.34999988 0 0 1 13.25,2.9492188 Z M 3.9746094,4.5683594 A 0.52499977,0.52499977 0 0 1 4.5,5.09375 0.52499977,0.52499977 0 0 1 3.9746094,5.6191406 0.52499977,0.52499977 0 0 1 3.4492188,5.09375 0.52499977,0.52499977 0 0 1 3.9746094,4.5683594 Z m 8.0507816,0 A 0.52499987,0.52499987 0 0 1 12.550781,5.09375 0.52499987,0.52499987 0 0 1 12.025391,5.6191406 0.52499987,0.52499987 0 0 1 11.5,5.09375 0.52499987,0.52499987 0 0 1 12.025391,4.5683594 Z M 3.0996094,6.4492188 A 0.69999976,0.69999976 0 0 1 3.8007812,7.1503906 0.69999976,0.69999976 0 0 1 3.0996094,7.8496094 0.69999976,0.69999976 0 0 1 2.4003906,7.1503906 0.69999976,0.69999976 0 0 1 3.0996094,6.4492188 Z m 9.8007816,0 A 0.69999979,0.69999979 0 0 1 13.599609,7.1503906 0.69999979,0.69999979 0 0 1 12.900391,7.8496094 0.69999979,0.69999979 0 0 1 12.199219,7.1503906 0.69999979,0.69999979 0 0 1 12.900391,6.4492188 Z M 3.5878906,10.300781 a 0.5249998,0.5249998 0 0 1 0.037109,0 0.5249998,0.5249998 0 0 1 0.5253906,0.523438 A 0.5249998,0.5249998 0 0 1 3.625,11.349609 0.5249998,0.5249998 0 0 1 3.0996094,10.824219 0.5249998,0.5249998 0 0 1 3.5878906,10.300781 Z m 8.7500004,0 a 0.52499983,0.52499983 0 0 1 0.03711,0 0.52499983,0.52499983 0 0 1 0.525391,0.523438 0.52499983,0.52499983 0 0 1 -0.525391,0.52539 0.52499983,0.52499983 0 0 1 -0.525391,-0.52539 0.52499983,0.52499983 0 0 1 0.488281,-0.523438 z M 4.5,12.400391 A 0.69999976,0.69999976 0 0 1 5.1992188,13.099609 0.69999976,0.69999976 0 0 1 4.5,13.800781 0.69999976,0.69999976 0 0 1 3.8007812,13.099609 0.69999976,0.69999976 0 0 1 4.5,12.400391 Z m 7,0 A 0.69999979,0.69999979 0 0 1 12.199219,13.099609 0.69999979,0.69999979 0 0 1 11.5,13.800781 0.69999979,0.69999979 0 0 1 10.800781,13.099609 0.69999979,0.69999979 0 0 1 11.5,12.400391 Z"
         transform="matrix(3.0796071,0,0,3.0796071,50.221308,235.73191)"
         class="ColorScheme-Text"
         id="path24"
         style="fill:url(#linearGradient32);fill-opacity:1" />
      <path
         d="m 74.323864,252.13954 c -1.753504,0 -3.174999,1.42152 -3.174999,3.175 0,2.11668 2.116667,2.11668 1.058331,4.23336 v 3.17499 5.29164 c 0,1.17264 0.944036,2.11668 2.116668,2.11668 1.172631,0 2.116667,-0.94404 2.116667,-2.11668 v -5.29164 -3.17499 c -1.058336,-2.11668 1.058332,-2.11668 1.058332,-4.23336 0,-1.75348 -1.421496,-3.175 -3.174999,-3.175 z"
         transform="matrix(1.0184527,0,0,1.0184527,-0.83718089,-4.4301654)"
         id="path25"
         style="fill:#d42aff;fill-opacity:1" />
    </g>
  </g>
</svg>
