<?xml version="1.0" encoding="UTF-8" standalone="no"?>
<svg
   width="16"
   height="16"
   viewBox="0 0 16 16"
   fill="none"
   version="1.1"
   id="svg17"
   sodipodi:docname="color-picker.svg"
   inkscape:version="1.3 (0e150ed6c4, 2023-07-21)"
   xmlns:inkscape="http://www.inkscape.org/namespaces/inkscape"
   xmlns:sodipodi="http://sodipodi.sourceforge.net/DTD/sodipodi-0.dtd"
   xmlns="http://www.w3.org/2000/svg"
   xmlns:svg="http://www.w3.org/2000/svg">
  <sodipodi:namedview
     id="namedview17"
     pagecolor="#ffffff"
     bordercolor="#000000"
     borderopacity="0.25"
     inkscape:showpageshadow="2"
     inkscape:pageopacity="0.0"
     inkscape:pagecheckerboard="0"
     inkscape:deskcolor="#d1d1d1"
     inkscape:zoom="15.91909"
     inkscape:cx="6.3445838"
     inkscape:cy="9.642511"
     inkscape:window-width="1920"
     inkscape:window-height="994"
     inkscape:window-x="0"
     inkscape:window-y="0"
     inkscape:window-maximized="1"
     inkscape:current-layer="svg17" />
  <path
     d="m 12.259715,2.2396771 c -0.457451,-0.060367 -0.938412,0.1003073 -1.264621,0.4246185 -0.324691,0.3484507 -0.712344,0.6501371 -0.992272,1.0317709 -0.167656,0.3582543 0.284484,0.7504479 0.61676,0.5324792 0.343648,-0.2986711 0.653174,-0.6365585 0.977859,-0.9563474 0.188894,-0.1787478 0.475658,-0.23532 0.721449,-0.1485791 0.438487,0.1259546 0.725997,0.6614463 0.527998,1.0830538 -0.03646,0.088245 -0.10241,0.1591401 -0.163862,0.2300362 -0.295102,0.2918819 -0.590966,0.5845188 -0.88303,0.8801717 -0.15476,0.158386 -0.147929,0.436692 0.0084,0.5920611 0.163105,0.1840286 0.480208,0.1802579 0.643311,-0.0022 0.283755,-0.3107597 0.57279,-0.6162173 0.858791,-0.9246931 C 13.76262,4.565707 13.891582,3.8755973 13.655652,3.3152193 13.439407,2.7352098 12.878025,2.305312 12.259747,2.2396953 Z"
     fill="url(#paint0_linear)"
     id="path1"
     style="fill:url(#paint0_linear);stroke-width:0.0756416" />
  <path
     d="M 8.3528166,5.7369802 C 8.1829141,5.637423 7.9530539,5.6781507 7.8203002,5.8206987 7.3021603,6.3418624 6.7787108,6.8577472 6.2598094,7.3774031 5.720437,7.9113893 5.1818107,8.44613 4.6454702,8.9823783 4.3640173,9.2599301 4.0818099,9.5382368 3.8056743,9.8203139 3.6896055,9.9387269 3.5431915,10.046577 3.5166407,10.220803 c -0.00763,0.44876 -0.003,0.898272 -0.00222,1.347787 -0.025043,0.128219 0.055367,0.299428 -0.069021,0.39219 -0.3648991,0.36429 -0.7320691,0.72556 -1.0954524,1.091361 -0.1729646,0.169693 -0.1509622,0.485711 0.044729,0.629007 0.1646222,0.125205 0.4119287,0.122192 0.5621369,-0.02564 0.4400033,-0.424624 0.8625523,-0.86735 1.3063498,-1.287454 0.5135839,0 1.0279293,0.0061 1.5415131,-0.0029 0.294337,-0.05814 0.4422667,-0.35606 0.6615065,-0.532545 0.4733606,-0.46992 0.9467412,-0.940556 1.41936,-1.411187 C 8.2731933,10.036799 8.6600572,9.6521472 9.0469518,9.2667419 9.4217178,8.9009438 9.785095,8.5230802 10.161368,8.1580394 10.316885,8.0275598 10.354819,7.7824387 10.241781,7.6134947 10.117371,7.3917541 9.782063,7.3389595 9.5946833,7.5124289 9.2176471,7.8744535 8.8550255,8.2515628 8.4832998,8.6188669 8.0600188,9.0359483 7.6389857,9.454539 7.2194683,9.8746381 6.7756787,10.312838 6.3333973,10.752544 5.8926395,11.193765 5.7447096,11.307652 5.6422932,11.53241 5.4253312,11.512799 c -0.3489691,-0.01056 -0.7002084,0.02037 -1.0468997,-0.01735 0.014407,-0.34694 -0.035677,-0.701422 0.026551,-1.04308 C 4.673537,10.161243 4.9678813,9.8942509 5.2417461,9.6076472 5.7811262,9.067627 6.3258091,8.5321325 6.8644352,7.991359 7.4038154,7.4566189 7.9462276,6.924895 8.4772353,6.382613 8.6441281,6.1872707 8.5811604,5.8561689 8.3528166,5.7370026 Z"
     fill="url(#paint1_linear)"
     id="path2"
     style="fill:url(#paint1_linear);stroke-width:0.0756416" />
  <path
     d="m 8.0114805,3.4351076 c 0.1638683,-0.1282189 0.4172768,-0.1086088 0.5629293,0.03847 1.3108992,1.3100793 2.6316562,2.6103495 3.9395222,3.9241967 0.170687,0.160648 0.161582,0.4547929 -0.0085,0.6124242 -0.165381,0.148581 -0.439241,0.1546151 -0.598553,-0.006 C 10.593826,6.6933699 9.2738333,5.3893274 7.9621431,4.07699 7.7785582,3.9050277 7.8066252,3.5792092 8.0114732,3.4351522 Z"
     fill="url(#paint2_linear)"
     id="path3"
     style="fill:url(#paint2_linear);stroke-width:0.0756416" />
  <path
     d="m 12.259715,2.2396771 c -0.457451,-0.060367 -0.938412,0.1003073 -1.264621,0.4246185 -0.324691,0.3484507 -0.712344,0.6501371 -0.992272,1.0317709 -0.167656,0.3582543 0.284484,0.7504479 0.61676,0.5324792 0.343648,-0.2986711 0.653174,-0.6365585 0.977859,-0.9563474 0.188894,-0.1787478 0.475658,-0.23532 0.721449,-0.1485791 0.438487,0.1259546 0.725997,0.6614463 0.527998,1.0830538 -0.03646,0.088245 -0.10241,0.1591401 -0.163862,0.2300362 -0.295102,0.2918819 -0.590966,0.5845188 -0.88303,0.8801717 -0.15476,0.158386 -0.147929,0.436692 0.0084,0.5920611 0.163105,0.1840286 0.480208,0.1802579 0.643311,-0.0022 0.283755,-0.3107597 0.57279,-0.6162173 0.858791,-0.9246931 C 13.76262,4.565707 13.891582,3.8755973 13.655652,3.3152193 13.439407,2.7352098 12.878025,2.305312 12.259747,2.2396953 Z"
     stroke="url(#paint3_linear)"
     stroke-width="0.453852"
     id="path4"
     style="stroke:url(#paint3_linear)" />
  <path
     d="M 8.3528166,5.7369802 C 8.1829141,5.637423 7.9530539,5.6781507 7.8203002,5.8206987 7.3021603,6.3418624 6.7787108,6.8577472 6.2598094,7.3774031 5.720437,7.9113893 5.1818107,8.44613 4.6454702,8.9823783 4.3640173,9.2599301 4.0818099,9.5382368 3.8056743,9.8203139 3.6896055,9.9387269 3.5431915,10.046577 3.5166407,10.220803 c -0.00763,0.44876 -0.003,0.898272 -0.00222,1.347787 -0.025043,0.128219 0.055367,0.299428 -0.069021,0.39219 -0.3648991,0.36429 -0.7320691,0.72556 -1.0954524,1.091361 -0.1729646,0.169693 -0.1509622,0.485711 0.044729,0.629007 0.1646222,0.125205 0.4119287,0.122192 0.5621369,-0.02564 0.4400033,-0.424624 0.8625523,-0.86735 1.3063498,-1.287454 0.5135839,0 1.0279293,0.0061 1.5415131,-0.0029 0.294337,-0.05814 0.4422667,-0.35606 0.6615065,-0.532545 0.4733606,-0.46992 0.9467412,-0.940556 1.41936,-1.411187 C 8.2731933,10.036799 8.6600572,9.6521472 9.0469518,9.2667419 9.4217178,8.9009438 9.785095,8.5230802 10.161368,8.1580394 10.316885,8.0275598 10.354819,7.7824387 10.241781,7.6134947 10.117371,7.3917541 9.782063,7.3389595 9.5946833,7.5124289 9.2176471,7.8744535 8.8550255,8.2515628 8.4832998,8.6188669 8.0600188,9.0359483 7.6389857,9.454539 7.2194683,9.8746381 6.7756787,10.312838 6.3333973,10.752544 5.8926395,11.193765 5.7447096,11.307652 5.6422932,11.53241 5.4253312,11.512799 c -0.3489691,-0.01056 -0.7002084,0.02037 -1.0468997,-0.01735 0.014407,-0.34694 -0.035677,-0.701422 0.026551,-1.04308 C 4.673537,10.161243 4.9678813,9.8942509 5.2417461,9.6076472 5.7811262,9.067627 6.3258091,8.5321325 6.8644352,7.991359 7.4038154,7.4566189 7.9462276,6.924895 8.4772353,6.382613 8.6441281,6.1872707 8.5811604,5.8561689 8.3528166,5.7370026 Z"
     stroke="url(#paint4_linear)"
     stroke-width="0.453852"
     id="path5"
     style="stroke:url(#paint4_linear)" />
  <path
     d="m 8.0114805,3.4351076 c 0.1638683,-0.1282189 0.4172768,-0.1086088 0.5629293,0.03847 1.3108992,1.3100793 2.6316562,2.6103495 3.9395222,3.9241967 0.170687,0.160648 0.161582,0.4547929 -0.0085,0.6124242 -0.165381,0.148581 -0.439241,0.1546151 -0.598553,-0.006 C 10.593826,6.6933699 9.2738333,5.3893274 7.9621431,4.07699 7.7785582,3.9050277 7.8066252,3.5792092 8.0114732,3.4351522 Z"
     stroke="url(#paint5_linear)"
     stroke-width="0.453852"
     id="path6"
     style="stroke:url(#paint5_linear)" />
  <defs
     id="defs17">
    <linearGradient
       id="paint0_linear"
       x1="22.5"
       y1="169"
       x2="155"
       y2="48"
       gradientUnits="userSpaceOnUse"
       gradientTransform="matrix(0.07586215,0,0,0.07542179,0.71881108,0.79836081)">
      <stop
         stop-color="#A93AFF"
         id="stop6" />
      <stop
         offset="1"
         stop-color="#557AFF"
         id="stop7" />
    </linearGradient>
    <linearGradient
       id="paint1_linear"
       x1="22.5"
       y1="169"
       x2="155"
       y2="48"
       gradientUnits="userSpaceOnUse"
       gradientTransform="matrix(0.07586215,0,0,0.07542179,0.71881108,0.79836081)">
      <stop
         stop-color="#A93AFF"
         id="stop8" />
      <stop
         offset="1"
         stop-color="#557AFF"
         id="stop9" />
    </linearGradient>
    <linearGradient
       id="paint2_linear"
       x1="22.5"
       y1="169"
       x2="155"
       y2="48"
       gradientUnits="userSpaceOnUse"
       gradientTransform="matrix(0.07586215,0,0,0.07542179,0.71881108,0.79836081)">
      <stop
         stop-color="#A93AFF"
         id="stop10" />
      <stop
         offset="1"
         stop-color="#557AFF"
         id="stop11" />
    </linearGradient>
    <linearGradient
       id="paint3_linear"
       x1="22.5"
       y1="169"
       x2="155"
       y2="48"
       gradientUnits="userSpaceOnUse"
       gradientTransform="matrix(0.07586215,0,0,0.07542179,0.71881108,0.79836081)">
      <stop
         stop-color="#A93AFF"
         id="stop12" />
      <stop
         offset="1"
         stop-color="#557AFF"
         id="stop13" />
    </linearGradient>
    <linearGradient
       id="paint4_linear"
       x1="22.5"
       y1="169"
       x2="155"
       y2="48"
       gradientUnits="userSpaceOnUse"
       gradientTransform="matrix(0.07586215,0,0,0.07542179,0.71881108,0.79836081)">
      <stop
         stop-color="#A93AFF"
         id="stop14" />
      <stop
         offset="1"
         stop-color="#557AFF"
         id="stop15" />
    </linearGradient>
    <linearGradient
       id="paint5_linear"
       x1="22.5"
       y1="169"
       x2="155"
       y2="48"
       gradientUnits="userSpaceOnUse"
       gradientTransform="matrix(0.07586215,0,0,0.07542179,0.71881108,0.79836081)">
      <stop
         stop-color="#A93AFF"
         id="stop16" />
      <stop
         offset="1"
         stop-color="#557AFF"
         id="stop17" />
    </linearGradient>
  </defs>
</svg>
