<?xml version="1.0" encoding="UTF-8" standalone="no"?>
<svg
   width="16"
   height="16"
   x="0"
   y="0"
   version="1.1"
   viewBox="0 0 16 16"
   xml:space="preserve"
   id="svg23"
   sodipodi:docname="git-cola.svg"
   inkscape:version="1.3 (0e150ed6c4, 2023-07-21)"
   xmlns:inkscape="http://www.inkscape.org/namespaces/inkscape"
   xmlns:sodipodi="http://sodipodi.sourceforge.net/DTD/sodipodi-0.dtd"
   xmlns:xlink="http://www.w3.org/1999/xlink"
   xmlns="http://www.w3.org/2000/svg"
   xmlns:svg="http://www.w3.org/2000/svg"><sodipodi:namedview
   id="namedview23"
   pagecolor="#ffffff"
   bordercolor="#000000"
   borderopacity="0.25"
   inkscape:showpageshadow="2"
   inkscape:pageopacity="0.0"
   inkscape:pagecheckerboard="0"
   inkscape:deskcolor="#d1d1d1"
   inkscape:zoom="47.9375"
   inkscape:cx="7.9895698"
   inkscape:cy="8"
   inkscape:window-width="1920"
   inkscape:window-height="994"
   inkscape:window-x="0"
   inkscape:window-y="0"
   inkscape:window-maximized="1"
   inkscape:current-layer="svg23" />&#10; <defs
   id="defs22"><linearGradient
   id="linearGradient23"
   inkscape:collect="always"><stop
     style="stop-color:#ff5555;stop-opacity:1"
     offset="0"
     id="stop23" /><stop
     style="stop-color:#ffdd55;stop-opacity:1"
     offset="1"
     id="stop24" /></linearGradient>&#10;  <style
   id="current-color-scheme"
   type="text/css">&#10;   .ColorScheme-Text { color:#d5c289; } .ColorScheme-Highlight { color:#5294e2; }&#10;  </style>&#10;  <linearGradient
   id="arrongin"
   x1="0%"
   x2="0%"
   y1="0%"
   y2="100%">&#10;   <stop
   offset="0%"
   style="stop-color:#dd9b44; stop-opacity:1"
   id="stop1" />&#10;   <stop
   offset="100%"
   style="stop-color:#ad6c16; stop-opacity:1"
   id="stop2" />&#10;  </linearGradient>&#10;  <linearGradient
   id="aurora"
   x1="0%"
   x2="0%"
   y1="0%"
   y2="100%">&#10;   <stop
   offset="0%"
   style="stop-color:#09D4DF; stop-opacity:1"
   id="stop3" />&#10;   <stop
   offset="100%"
   style="stop-color:#9269F4; stop-opacity:1"
   id="stop4" />&#10;  </linearGradient>&#10;  <linearGradient
   id="fitdance"
   x1="0%"
   x2="0%"
   y1="0%"
   y2="100%">&#10;   <stop
   offset="0%"
   style="stop-color:#1AD6AB; stop-opacity:1"
   id="stop5" />&#10;   <stop
   offset="100%"
   style="stop-color:#329DB6; stop-opacity:1"
   id="stop6" />&#10;  </linearGradient>&#10;  <linearGradient
   id="oomox"
   x1="2.9835"
   x2="2.9835"
   y1="2.9965"
   y2="29.0005"
   gradientUnits="userSpaceOnUse">&#10;   <stop
   offset="0%"
   style="stop-color:#303b3d; stop-opacity:1"
   id="stop7" />&#10;   <stop
   offset="100%"
   style="stop-color:#bc985d; stop-opacity:1"
   id="stop8" />&#10;  </linearGradient>&#10;  <linearGradient
   id="rainblue"
   x1="0%"
   x2="0%"
   y1="0%"
   y2="100%">&#10;   <stop
   offset="0%"
   style="stop-color:#00F260; stop-opacity:1"
   id="stop9" />&#10;   <stop
   offset="100%"
   style="stop-color:#0575E6; stop-opacity:1"
   id="stop10" />&#10;  </linearGradient>&#10;  <linearGradient
   id="sunrise"
   x1="0%"
   x2="0%"
   y1="0%"
   y2="100%">&#10;   <stop
   offset="0%"
   style="stop-color: #FF8501; stop-opacity:1"
   id="stop11" />&#10;   <stop
   offset="100%"
   style="stop-color: #FFCB01; stop-opacity:1"
   id="stop12" />&#10;  </linearGradient>&#10;  <linearGradient
   id="telinkrin"
   x1="0%"
   x2="0%"
   y1="0%"
   y2="100%">&#10;   <stop
   offset="0%"
   style="stop-color: #b2ced6; stop-opacity:1"
   id="stop13" />&#10;   <stop
   offset="100%"
   style="stop-color: #6da5b7; stop-opacity:1"
   id="stop14" />&#10;  </linearGradient>&#10;  <linearGradient
   id="60spsycho"
   x1="0%"
   x2="0%"
   y1="0%"
   y2="100%">&#10;   <stop
   offset="0%"
   style="stop-color: #df5940; stop-opacity:1"
   id="stop15" />&#10;   <stop
   offset="25%"
   style="stop-color: #d8d15f; stop-opacity:1"
   id="stop16" />&#10;   <stop
   offset="50%"
   style="stop-color: #e9882a; stop-opacity:1"
   id="stop17" />&#10;   <stop
   offset="100%"
   style="stop-color: #279362; stop-opacity:1"
   id="stop18" />&#10;  </linearGradient>&#10;  <linearGradient
   id="90ssummer"
   x1="0%"
   x2="0%"
   y1="0%"
   y2="100%">&#10;   <stop
   offset="0%"
   style="stop-color: #f618c7; stop-opacity:1"
   id="stop19" />&#10;   <stop
   offset="20%"
   style="stop-color: #94ffab; stop-opacity:1"
   id="stop20" />&#10;   <stop
   offset="50%"
   style="stop-color: #fbfd54; stop-opacity:1"
   id="stop21" />&#10;   <stop
   offset="100%"
   style="stop-color: #0f83ae; stop-opacity:1"
   id="stop22" />&#10;  </linearGradient>&#10;  <clipPath
   id="a">&#10;   <path
   d="M 0,0 H 92 V 92 H 0 Z"
   id="path22" />&#10;  </clipPath>&#10; <linearGradient
   inkscape:collect="always"
   xlink:href="#linearGradient23"
   id="linearGradient24"
   x1="9.151"
   y1="22.8335"
   x2="28.987499"
   y2="2.9965"
   gradientUnits="userSpaceOnUse" /></defs>&#10; <path
   d="M 28.497,14.84 17.143,3.487 c -0.653,-0.654 -1.714,-0.654 -2.368,0 l -2.357,2.358 2.99,2.991 c 0.695,-0.235 1.492,-0.077 2.046,0.477 0.557,0.558 0.713,1.361 0.473,2.059 l 2.882,2.882 c 0.698,-0.241 1.502,-0.085 2.059,0.473 0.778,0.778 0.778,2.039 0,2.818 -0.779,0.779 -2.04,0.779 -2.819,0 -0.586,-0.586 -0.73,-1.446 -0.434,-2.167 L 16.927,12.69 v 7.074 c 0.19,0.094 0.369,0.219 0.527,0.377 0.778,0.778 0.778,2.039 0,2.819 -0.778,0.778 -2.04,0.778 -2.818,0 -0.778,-0.779 -0.778,-2.04 0,-2.819 0.192,-0.192 0.415,-0.338 0.653,-0.435 v -7.14 C 15.052,12.469 14.829,12.325 14.636,12.131 14.047,11.542 13.905,10.676 14.207,9.952 L 11.259,7.003 3.474,14.788 c -0.654,0.655 -0.654,1.715 0,2.369 L 14.828,28.51 c 0.654,0.654 1.714,0.654 2.369,0 l 11.3,-11.301 c 0.654,-0.654 0.654,-1.715 0,-2.369"
   transform="matrix(0.49992309,0,0,0.49992309,0.00847944,0.00198044)"
   class="ColorScheme-Text"
   id="path23"
   style="fill:url(#linearGradient24)" />&#10;</svg>
