<?xml version="1.0" encoding="UTF-8" standalone="no"?>
<svg
   width="16"
   height="16"
   version="1.1"
   id="svg1"
   sodipodi:docname="rhythmbox.svg"
   inkscape:version="1.3.2 (091e20ef0f, 2023-11-25)"
   xmlns:inkscape="http://www.inkscape.org/namespaces/inkscape"
   xmlns:sodipodi="http://sodipodi.sourceforge.net/DTD/sodipodi-0.dtd"
   xmlns:xlink="http://www.w3.org/1999/xlink"
   xmlns="http://www.w3.org/2000/svg"
   xmlns:svg="http://www.w3.org/2000/svg">
  <defs
     id="defs1">
    <linearGradient
       id="linearGradient25"
       inkscape:collect="always">
      <stop
         style="stop-color:#ffb380;stop-opacity:1"
         offset="0"
         id="stop22" />
      <stop
         style="stop-color:#d35f5f;stop-opacity:1"
         offset="1"
         id="stop25" />
    </linearGradient>
    <linearGradient
       id="linearGradient24"
       x1="0"
       x2="0"
       y1="0"
       y2="1">
      <stop
         offset="0%"
         style="stop-color:#ff2a2a;stop-opacity:1"
         id="stop23" />
      <stop
         offset="1"
         style="stop-color:#d35f5f;stop-opacity:1"
         id="stop24" />
    </linearGradient>
    <linearGradient
       inkscape:collect="always"
       id="linearGradient6386">
      <stop
         style="stop-color:#f2b187;stop-opacity:1"
         offset="0"
         id="stop6382" />
      <stop
         style="stop-color:#ec908c;stop-opacity:1;"
         offset="0.54933107"
         id="stop23871" />
      <stop
         style="stop-color:#ec8f8b;stop-opacity:1;"
         offset="0.8804239"
         id="stop23677" />
      <stop
         style="stop-color:#de6865;stop-opacity:1"
         offset="1"
         id="stop6384" />
    </linearGradient>
    <linearGradient
       inkscape:collect="always"
       id="linearGradient26704">
      <stop
         style="stop-color:#f2bd9a;stop-opacity:0"
         offset="0"
         id="stop26700" />
      <stop
         style="stop-color:#1631cf;stop-opacity:0.61176471;"
         offset="0.10469195"
         id="stop26980" />
      <stop
         style="stop-color:#003cf2;stop-opacity:0.00045954"
         offset="1"
         id="stop26702" />
    </linearGradient>
    <linearGradient
       inkscape:collect="always"
       id="linearGradient25252">
      <stop
         style="stop-color:#f2b187;stop-opacity:1;"
         offset="0"
         id="stop25248" />
      <stop
         style="stop-color:#f2a472;stop-opacity:1"
         offset="1"
         id="stop25250" />
    </linearGradient>
    <linearGradient
       inkscape:collect="always"
       id="linearGradient25530">
      <stop
         style="stop-color:#f2bd9a;stop-opacity:1;"
         offset="0"
         id="stop25526" />
      <stop
         style="stop-color:#f26000;stop-opacity:0.25890476"
         offset="1"
         id="stop25528" />
    </linearGradient>
    <linearGradient
       inkscape:collect="always"
       id="linearGradient26428">
      <stop
         style="stop-color:#f2bd9a;stop-opacity:0.69014871"
         offset="0"
         id="stop26424" />
      <stop
         style="stop-color:#f2bd9a;stop-opacity:0;"
         offset="1"
         id="stop26426" />
    </linearGradient>
    <linearGradient
       inkscape:collect="always"
       id="linearGradient30948">
      <stop
         style="stop-color:#ffd14b;stop-opacity:1;"
         offset="0"
         id="stop30944" />
      <stop
         style="stop-color:#ffd14b;stop-opacity:0;"
         offset="1"
         id="stop30946" />
    </linearGradient>
    <linearGradient
       inkscape:collect="always"
       xlink:href="#linearGradient2"
       id="linearGradient21"
       x1="1.4999951"
       y1="1.5076946"
       x2="14.500005"
       y2="14.492305"
       gradientUnits="userSpaceOnUse"
       gradientTransform="matrix(1,0,0,1.0005972,4.7121516e-6,-8.9811516e-4)" />
    <linearGradient
       inkscape:collect="always"
       xlink:href="#linearGradient25"
       id="linearGradient1"
       gradientUnits="userSpaceOnUse"
       x1="1.4999951"
       y1="1.5076946"
       x2="14.500005"
       y2="14.492305"
       gradientTransform="matrix(-1,0,0,-1.0005972,16.000009,16.000957)" />
    <linearGradient
       id="linearGradient2"
       inkscape:collect="always">
      <stop
         style="stop-color:#ffb380;stop-opacity:1"
         offset="0"
         id="stop1" />
      <stop
         style="stop-color:#ffdd55;stop-opacity:1"
         offset="1"
         id="stop2" />
    </linearGradient>
    <linearGradient
       id="linearGradient28"
       x1="0"
       x2="0"
       y1="0"
       y2="1">
      <stop
         offset="0"
         style="stop-color:#00d3d3;stop-opacity:1;"
         id="stop27" />
      <stop
         offset="1"
         style="stop-color:#ac8adf;stop-opacity:1;"
         id="stop28" />
    </linearGradient>
    <linearGradient
       id="paint5_linear-7"
       x1="36"
       y1="29.0697"
       x2="44.000702"
       y2="29.0697"
       gradientUnits="userSpaceOnUse">
      <stop
         stop-color="#F237EF"
         id="stop17-5" />
      <stop
         offset="0.986957"
         stop-color="#FC5252"
         id="stop18-35" />
    </linearGradient>
    <clipPath
       clipPathUnits="userSpaceOnUse"
       id="clipPath21">
      <g
         id="g22">
        <rect
           width="64"
           height="64"
           fill="#ffffff"
           id="rect22"
           x="0"
           y="0" />
      </g>
    </clipPath>
    <linearGradient
       id="paint6_linear-6"
       x1="20"
       y1="29.035"
       x2="28"
       y2="29.035"
       gradientUnits="userSpaceOnUse">
      <stop
         stop-color="#F237EF"
         id="stop19-2" />
      <stop
         offset="0.986957"
         stop-color="#FC5252"
         id="stop20-9" />
    </linearGradient>
    <clipPath
       clipPathUnits="userSpaceOnUse"
       id="clipPath20">
      <g
         id="g21">
        <rect
           width="64"
           height="64"
           fill="#ffffff"
           id="rect21"
           x="0"
           y="0" />
      </g>
    </clipPath>
    <linearGradient
       inkscape:collect="always"
       xlink:href="#linearGradient6386"
       id="linearGradient14"
       gradientUnits="userSpaceOnUse"
       gradientTransform="matrix(0.03894272,0,0,0.03894272,-19.95272,-13.00412)"
       x1="735.66742"
       y1="660.83142"
       x2="735.66742"
       y2="388.10217" />
    <linearGradient
       inkscape:collect="always"
       xlink:href="#linearGradient26704"
       id="linearGradient15"
       gradientUnits="userSpaceOnUse"
       gradientTransform="matrix(0.03894272,0,0,0.03894272,-19.95272,-13.00412)"
       x1="722.4295"
       y1="521.9483"
       x2="731.73212"
       y2="556.66614" />
    <linearGradient
       inkscape:collect="always"
       xlink:href="#linearGradient25252"
       id="linearGradient16"
       gradientUnits="userSpaceOnUse"
       gradientTransform="matrix(0.03894272,0,0,0.03894272,-19.95272,-13.00412)"
       x1="748.22168"
       y1="404.50122"
       x2="734.85419"
       y2="538.79596" />
    <linearGradient
       inkscape:collect="always"
       xlink:href="#linearGradient25530"
       id="linearGradient17"
       gradientUnits="userSpaceOnUse"
       gradientTransform="matrix(0.03894272,0,0,0.03894272,-19.95272,-13.00412)"
       x1="740.75671"
       y1="450.95929"
       x2="687.04364"
       y2="584.65771" />
    <linearGradient
       inkscape:collect="always"
       xlink:href="#linearGradient26428"
       id="linearGradient18"
       gradientUnits="userSpaceOnUse"
       gradientTransform="matrix(0.03894272,0,0,0.03894272,-19.95272,-13.00412)"
       x1="746.40808"
       y1="555.41046"
       x2="681.24591"
       y2="574.94653" />
    <linearGradient
       inkscape:collect="always"
       xlink:href="#linearGradient30948"
       id="linearGradient19"
       gradientUnits="userSpaceOnUse"
       gradientTransform="matrix(0.03894272,0,0,0.03894272,-19.95272,-13.00412)"
       x1="674.57922"
       y1="450.78961"
       x2="786.78943"
       y2="568.28052" />
    <linearGradient
       inkscape:collect="always"
       xlink:href="#linearGradient6386"
       id="linearGradient20"
       gradientUnits="userSpaceOnUse"
       gradientTransform="matrix(0.03894272,0,0,0.03894272,-19.95272,-13.00412)"
       x1="735.66742"
       y1="660.83142"
       x2="735.66742"
       y2="388.10217" />
    <linearGradient
       inkscape:collect="always"
       xlink:href="#linearGradient30948"
       id="linearGradient22"
       gradientUnits="userSpaceOnUse"
       gradientTransform="matrix(0.03894272,0,0,0.03894272,-19.95272,-13.00412)"
       x1="674.57922"
       y1="450.78961"
       x2="786.78943"
       y2="568.28052" />
  </defs>
  <sodipodi:namedview
     id="namedview1"
     pagecolor="#ffffff"
     bordercolor="#000000"
     borderopacity="0.25"
     inkscape:showpageshadow="2"
     inkscape:pageopacity="0.0"
     inkscape:pagecheckerboard="0"
     inkscape:deskcolor="#d1d1d1"
     showgrid="false"
     inkscape:zoom="22.627417"
     inkscape:cx="13.876971"
     inkscape:cy="7.7339804"
     inkscape:window-width="1920"
     inkscape:window-height="994"
     inkscape:window-x="0"
     inkscape:window-y="0"
     inkscape:window-maximized="1"
     inkscape:current-layer="svg1">
    <inkscape:grid
       id="grid1"
       units="px"
       originx="0"
       originy="0"
       spacingx="1"
       spacingy="1"
       empcolor="#0099e5"
       empopacity="0.30196078"
       color="#0099e5"
       opacity="0.14901961"
       empspacing="5"
       dotted="false"
       gridanglex="30"
       gridanglez="30"
       visible="false" />
  </sodipodi:namedview>
  <path
     d="m 3.698197,1.5078027 -6.267e-4,3e-6 c -0.1627437,8.26e-4 -0.3280411,0.01154 -0.4925955,0.04472 -0.9403873,0.17719 -1.6965217,1.052056 -1.7007954,2.018724 l -1.2e-6,1.4e-4 c -0.00403,1.317531 -0.00726,2.635563 8.008e-4,3.95287 -0.00308,0.233966 0.1495163,0.413701 0.331247,0.499838 0.1803285,0.08547 0.4133418,0.09047 0.5919873,-0.0504 0.2180053,-0.144621 0.2573884,-0.409076 0.2550205,-0.605091 0.00138,-0.543375 9.866e-4,-1.086117 5.92e-4,-1.628743 -5.224e-4,-0.723319 -0.00106,-1.446395 0.00263,-2.170394 0.0059,-0.478075 0.4574258,-0.893533 0.9387627,-0.884865 l 0.00109,2.3e-5 h 9.916e-4 c 1.4689656,-0.0017 2.9372219,-0.0012 4.4054549,-6.32e-4 1.32145,4.91e-4 2.642899,9.72e-4 3.964859,-1.76e-4 0.03827,0 0.07598,-3.52e-4 0.113158,-7.03e-4 0.245166,-0.0023 0.464772,-0.0043 0.660468,0.09598 l 0.0022,0.0011 0.0023,0.001 c 0.353321,0.161252 0.57258,0.555873 0.546464,0.945046 l -2.33e-4,0.0037 v 0.0037 c -6.96e-4,1.118351 -4.63e-4,2.236573 -2.32e-4,3.354771 4.65e-4,1.756988 8.14e-4,3.5138573 -0.0022,5.2708453 v 0.0014 0.0014 c 0.01149,0.493701 -0.424704,0.948046 -0.921026,0.946523 l -0.0013,1.18e-4 c -0.704356,0.0061 -1.405357,0.005 -2.106986,0.0042 -0.607598,-8.2e-4 -1.215673,-0.0015 -1.8268,0.0022 -0.213397,-0.01217 -0.395246,0.106821 -0.499154,0.266352 -0.103558,0.159061 -0.139517,0.373525 -0.04336,0.564563 0.05906,0.148403 0.174188,0.24152 0.300845,0.293995 0.125405,0.05212 0.266083,0.06641 0.391336,0.05751 0.546778,-0.0034 1.095458,-0.0023 1.64466,-0.0013 0.746874,0.0015 1.494733,0.003 2.240211,-0.0069 h 0.0016 l 0.0018,-1.17e-4 c 1.061357,-0.04674 1.987258,-0.988455 1.992365,-2.058432 v -3.51e-4 c 0.0023,-1.593755 0.0018,-3.1881433 0.0013,-4.7824033 -3.48e-4,-1.302923 -6.96e-4,-2.605753 3.48e-4,-3.908067 0.08183,-1.166058 -0.932633,-2.243922 -2.099267,-2.230754 -1.594774,-0.0022 -3.189629,-0.0017 -4.784264,-0.0013 -1.304746,3.8e-4 -2.6093539,7.61e-4 -3.9136254,-3.29e-4 z"
     stroke-width="0.233199"
     id="path1"
     style="fill:url(#linearGradient21);fill-opacity:1" />
  <path
     d="m 12.301816,14.492257 6.27e-4,-4e-6 c 0.162743,-8.25e-4 0.328041,-0.01154 0.492595,-0.04471 0.940387,-0.17719 1.696522,-1.052055 1.700795,-2.018724 l 2e-6,-1.4e-4 c 0.004,-1.31753 0.0073,-2.635563 -8.01e-4,-3.9528703 0.0031,-0.233966 -0.149516,-0.413701 -0.331247,-0.499837 -0.180329,-0.08547 -0.413342,-0.09047 -0.591987,0.0504 -0.218006,0.14462 -0.257389,0.409075 -0.255021,0.605091 -0.0014,0.543374 -9.87e-4,1.086116 -5.92e-4,1.6287423 5.22e-4,0.723319 0.0011,1.446395 -0.0026,2.170394 -0.0059,0.478076 -0.457426,0.893534 -0.938763,0.884865 l -0.0011,-2.3e-5 h -9.91e-4 c -1.468966,0.0017 -2.937221,0.0012 -4.405454,6.32e-4 -1.32145,-4.92e-4 -2.6428997,-9.71e-4 -3.9648597,1.77e-4 -0.03827,0 -0.07598,3.51e-4 -0.113158,7.03e-4 -0.2451661,0.0023 -0.4647721,0.0043 -0.6604681,-0.09598 l -0.0022,-0.0011 -0.0023,-9.93e-4 c -0.353341,-0.161321 -0.5726,-0.555941 -0.546484,-0.945114 l 2.33e-4,-0.0037 v -0.0037 c 6.96e-4,-1.118351 4.63e-4,-2.236573 2.32e-4,-3.3547713 -4.65e-4,-1.756988 -8.14e-4,-3.513857 0.0022,-5.270845 v -0.0014 -0.0014 c -0.01149,-0.493647 0.424704,-0.947991 0.921026,-0.946469 l 0.0013,-1.17e-4 c 0.7043561,-0.0061 1.4053571,-0.005 2.1069858,-0.0042 0.607599,8.2e-4 1.215674,0.0015 1.826801,-0.0022 0.213397,0.0121 0.395246,-0.106898 0.499154,-0.266429 0.103558,-0.159061 0.139517,-0.373525 0.04336,-0.564563 -0.05906,-0.148403 -0.174188,-0.241521 -0.300845,-0.293995 -0.125405,-0.05212 -0.266083,-0.06641 -0.391336,-0.05751 -0.546777,0.0034 -1.095458,0.0023 -1.644661,0.0013 -0.7468737,-0.0015 -1.4947327,-0.003 -2.2402108,0.0068 h -0.0016 l -0.0018,1.17e-4 c -1.061357,0.04674 -1.987258,0.988455 -1.992365,2.058431 v 3.51e-4 c -0.0023,1.593756 -0.0018,3.188144 -0.0013,4.782403 3.48e-4,1.302924 6.96e-4,2.6057543 -3.48e-4,3.9080683 -0.08183,1.166057 0.932633,2.243922 2.099267,2.230754 1.5947741,0.0022 3.1896298,0.0017 4.7842648,0.0013 1.304747,-3.82e-4 2.609353,-7.62e-4 3.913624,3.28e-4 z"
     stroke-width="0.233199"
     id="path1-7"
     style="fill:url(#linearGradient1);fill-opacity:1" />
  <path
     id="path1211-2"
     style="fill:#45007e;fill-opacity:0.0695295;stroke:none;stroke-width:0.0389403px;stroke-linecap:butt;stroke-linejoin:miter;stroke-opacity:1"
     d="M 9.121717,1.8554279 C 8.744919,1.8539679 8.413789,2.3643256 8.413789,2.3643256 8.464139,2.2983746 8.529943,2.2379532 8.604303,2.2019513 8.363499,2.3317607 8.128217,2.7776821 7.92834,3.3595438 7.677025,4.0911642 7.701963,4.9509091 7.785135,5.6576299 6.209961,6.6760567 5.994857,7.0635556 5.620003,7.7128091 4.823658,9.0921275 5.411792,10.582047 6.420847,11.321946 c 0,0 3.94e-4,3.02e-4 3.94e-4,3.02e-4 0.0013,7.06e-4 0.0028,0.0012 0.0043,0.0036 0.0012,7.09e-4 0.0024,0.0012 0.0038,0.0034 0.04057,0.02932 0.08175,0.05785 0.123603,0.08477 0.0081,0.0055 0.01647,0.01074 0.02468,0.01553 0.01327,0.008 0.02665,0.01643 0.04007,0.02487 0.01285,0.0072 0.02581,0.01529 0.03878,0.02315 0,0 3.95e-4,3.05e-4 3.95e-4,3.05e-4 6.97e-4,3.03e-4 0.0013,7.09e-4 0.002,0.0012 0.03161,0.01828 0.0637,0.03595 0.09589,0.05292 0.009,0.0055 0.01814,0.01034 0.02724,0.01441 0.0073,0.0048 0.01479,0.0072 0.02213,0.01122 0.02021,0.01041 0.04054,0.01955 0.06095,0.02872 0.0023,7.1e-4 0.0048,0.0034 0.0073,0.0037 0.01919,0.0092 0.03859,0.01702 0.05796,0.02558 0.0069,0.0036 0.0139,0.0061 0.02086,0.0094 0.02437,0.01042 0.04869,0.02034 0.0733,0.02925 0.517404,0.196085 1.251103,0.286749 1.982713,0.118478 0.01169,0.06188 0.02224,0.121488 0.03073,0.176469 0.0056,0.03454 0.01,0.06752 0.01407,0.09927 0.02847,0.223123 0.02711,0.383602 7.09e-4,0.497387 -0.0038,0.01609 -0.0079,0.03112 -0.01278,0.04564 -0.0053,0.01426 -0.01,0.02813 -0.01575,0.04086 -0.006,0.01271 -0.01208,0.02446 -0.01881,0.03539 -0.0063,0.0113 -0.01376,0.02145 -0.02131,0.03047 -0.0075,0.01004 -0.0154,0.01774 -0.02386,0.02604 -0.0084,0.0077 -0.0176,0.01502 -0.02684,0.02196 -0.0092,0.0061 -0.01889,0.0126 -0.02899,0.01764 -0.03038,0.01583 -0.06418,0.02645 -0.101436,0.03284 -0.01245,0.0028 -0.02523,0.0036 -0.03837,0.0055 -0.01309,7.09e-4 -0.0267,0.0034 -0.04049,0.0034 -0.02761,7.1e-4 -0.05641,8e-5 -0.08651,-0.0012 -0.03014,-0.0012 -0.06177,-0.0048 -0.09418,-0.0077 -0.03243,-0.0037 -0.06567,-0.0077 -0.100163,-0.01276 -0.03448,-0.0055 -0.06982,-0.01015 -0.106125,-0.0144 -0.01522,-0.0028 -0.03004,-0.0048 -0.04433,-0.0055 -0.01429,-7.1e-4 -0.02836,-0.0012 -0.04176,-0.0012 -0.01338,6.3e-5 -0.02629,6.08e-4 -0.03878,0.0012 -0.01252,7.05e-4 -0.02455,0.0034 -0.03622,0.0048 -0.02329,0.0048 -0.0448,0.01027 -0.06477,0.01682 -0.01,0.0036 -0.0198,0.0077 -0.02901,0.01236 -0.0091,0.0048 -0.018,0.0094 -0.02645,0.01403 -0.0084,0.0055 -0.01624,0.01076 -0.02388,0.01598 -0.0078,0.0061 -0.01486,0.01163 -0.02174,0.01764 -0.0069,0.0061 -0.01341,0.01312 -0.01957,0.02015 -0.0062,0.0061 -0.01243,0.01355 -0.01789,0.02118 -0.04393,0.05819 -0.06568,0.130398 -0.07074,0.201175 -0.0012,0.01757 -0.0017,0.03507 -7.7e-4,0.05246 7.21e-4,0.01709 0.0023,0.03423 0.0052,0.05067 0.0025,0.01639 0.0064,0.03252 0.01063,0.04774 0.0043,0.01514 0.0091,0.02953 0.01494,0.04312 0.01173,0.02668 0.02665,0.04927 0.04347,0.06606 0,0 0.0067,0.0103 0.02005,0.02558 0.01348,0.01569 0.03361,0.03793 0.06053,0.06268 0.01346,0.01236 0.02879,0.02502 0.0456,0.03837 0.01681,0.0133 0.03523,0.02666 0.0554,0.04013 0.03028,0.02013 0.06446,0.03954 0.102289,0.0572 0.01261,0.0061 0.02535,0.01166 0.03878,0.01679 0.01346,0.0061 0.02751,0.01073 0.04177,0.01521 0.02855,0.01026 0.05886,0.01789 0.09078,0.02486 0.01596,0.0036 0.0322,0.0061 0.04902,0.008 0.01678,0.0034 0.03393,0.0048 0.05157,0.0061 0.01765,0.0012 0.03608,0.0034 0.05456,0.0034 0.01846,2.46e-4 0.03737,-2.54e-4 0.05669,-0.0012 0.0193,-7.1e-4 0.03864,-0.0034 0.05882,-0.0055 0.02016,-0.0028 0.04082,-0.006 0.06179,-0.01003 0.021,-0.0048 0.04251,-0.0077 0.06435,-0.01355 0.02182,-0.0061 0.04425,-0.01167 0.0669,-0.01865 0.02267,-0.0072 0.04553,-0.01454 0.06903,-0.02359 0.0235,-0.0092 0.04768,-0.01868 0.07203,-0.02925 0.02434,-0.01098 0.049,-0.02247 0.07413,-0.03488 0.02516,-0.01274 0.05068,-0.02644 0.07672,-0.04136 0.02602,-0.01471 0.05241,-0.03046 0.07928,-0.04774 0.02356,-0.0148 0.0465,-0.02997 0.06818,-0.04595 0.02167,-0.01554 0.04228,-0.03217 0.06224,-0.0486 0.01999,-0.01637 0.03889,-0.03305 0.05707,-0.05041 0.0182,-0.01697 0.0359,-0.03489 0.05243,-0.05291 0.01652,-0.0176 0.03232,-0.0358 0.04726,-0.05419 0.01506,-0.01838 0.02915,-0.03719 0.04263,-0.05623 0.01351,-0.01886 0.02626,-0.03818 0.03835,-0.05768 0.01187,-0.01955 0.02301,-0.03938 0.03358,-0.05919 0.01058,-0.02008 0.02097,-0.03977 0.03019,-0.06022 0.01872,-0.04066 0.03476,-0.08189 0.04851,-0.123608 0.0061,-0.0212 0.0129,-0.04201 0.01884,-0.06306 0.0061,-0.02132 0.01109,-0.04217 0.01575,-0.0635 0.006,-0.02145 0.0088,-0.04258 0.01279,-0.06395 0.0225,-0.128226 0.02764,-0.257993 0.02294,-0.383588 -0.0014,-0.04188 -0.0048,-0.08338 -0.0073,-0.124027 -0.0041,-0.04077 -0.0074,-0.08064 -0.01279,-0.119766 -0.0061,-0.04518 -0.01234,-0.08917 -0.01912,-0.131682 -0.0027,-0.01297 -0.0048,-0.0251 -0.0061,-0.03793 -0.0042,-0.02205 -0.0062,-0.04265 -0.01109,-0.0635 -0.0025,-0.01049 -0.0037,-0.01836 -0.0061,-0.02847 -0.0035,-0.01598 -0.0061,-0.03022 -0.0081,-0.04595 -7.08e-4,-0.0055 -0.0027,-0.01037 -0.0034,-0.0148 -0.0061,-0.03184 -0.01165,-0.06221 -0.01703,-0.09076 0,0 -0.01137,-0.05808 -0.0115,-0.05916 0.222626,-0.111285 0.438044,-0.253862 0.639312,-0.431319 2.94e-4,-2.53e-4 5.16e-4,-6.09e-4 7.08e-4,-7.11e-4 0.04667,-0.041 0.09269,-0.08334 0.137667,-0.128285 0,0 0,-3.06e-4 0,-3.06e-4 0.0061,-0.006 0.01297,-0.01354 0.01958,-0.02071 0.0015,-0.0012 0.0048,-0.0037 0.0061,-0.0061 0.0015,-0.0012 0.0042,-0.0048 0.0061,-0.0061 0.01456,-0.01537 0.02898,-0.03171 0.04316,-0.04815 0.007,-0.0098 0.0158,-0.0179 0.02351,-0.02753 0,0 0,-3.05e-4 0,-3.05e-4 0.0061,-0.0072 0.01164,-0.01503 0.0176,-0.02266 0.0011,-0.0012 0.0036,-0.0036 0.0049,-0.0055 5.16e-4,-6.06e-4 7.08e-4,-0.0012 0.0014,-0.0034 7.1e-4,-0.0012 0.0016,-0.0034 0.0036,-0.0048 0.0061,-0.008 0.01284,-0.01641 0.01908,-0.02511 0.0054,-0.0061 0.0075,-0.01228 0.01244,-0.01801 0.01034,-0.01435 0.02033,-0.02872 0.0302,-0.04388 0,0 0,-3e-4 0,-3e-4 0.0042,-0.0055 0.0061,-0.0104 0.0094,-0.01479 6.4e-4,-7.06e-4 0.0012,-0.0012 0.0027,-0.0036 0.0036,-0.0055 0.0061,-0.01008 0.008,-0.01403 0.0061,-0.01098 0.01355,-0.02161 0.02005,-0.03234 0,0 0,-3.04e-4 0,-3.04e-4 0.0048,-0.0061 0.0061,-0.0128 0.01108,-0.01926 7.09e-4,-0.0012 0.0014,-0.0036 0.0035,-0.0055 0.0019,-0.0036 0.0051,-0.0061 0.0061,-0.01033 0.0061,-0.01139 0.01275,-0.02212 0.01885,-0.03332 0,0 0,-3.03e-4 0,-3.03e-4 0.01231,-0.02282 0.02429,-0.04589 0.03588,-0.0695 0,0 0,-3.02e-4 0,-3.02e-4 0.03472,-0.07094 0.06587,-0.145379 0.09334,-0.222044 0.0093,-0.0255 0.01809,-0.05116 0.02635,-0.07722 0,0 0,-3.09e-4 0,-3.09e-4 0,0 0,-2.96e-4 0,-2.96e-4 0.0075,-0.02604 0.01641,-0.0519 0.02383,-0.07851 0,0 0,-3.05e-4 0,-3.05e-4 0.0063,-0.02628 0.01463,-0.05292 0.02132,-0.07971 0,0 0,-3.05e-4 0,-3.05e-4 0.006,-0.02677 0.01284,-0.05383 0.01884,-0.080989 0,0 0,-2.99e-4 0,-2.99e-4 7.07e-4,-0.0061 0.0026,-0.01139 0.0043,-0.01642 2.7e-4,-0.0012 5.42e-4,-0.0034 7.05e-4,-0.0048 1.81e-4,-7.11e-4 2.56e-4,-0.0012 4.02e-4,-0.0034 0.005,-0.01994 0.0076,-0.03941 0.01192,-0.05918 0.0061,-0.02721 0.0098,-0.05437 0.01373,-0.08181 4.3e-5,-2.58e-4 -4.2e-5,-6.08e-4 0,-7.08e-4 0.0051,-0.02738 0.0072,-0.05468 0.01128,-0.08221 0,0 0,-3.07e-4 0,-3.07e-4 0.0041,-0.02747 0.0061,-0.05548 0.0077,-0.0831 0,0 0,-3.04e-4 0,-3.04e-4 0.0034,-0.02743 0.005,-0.05513 0.0061,-0.08269 0,0 0,-3.06e-4 0,-3.06e-4 0.0011,-0.02745 0.0036,-0.05524 0.0043,-0.08267 0,0 0,-3.04e-4 0,-3.04e-4 5.74e-4,-0.02736 6.96e-4,-0.055005 3.92e-4,-0.082204 -6e-6,-2.613e-4 2e-6,-6.083e-4 0,-7.101e-4 -3.01e-4,-0.027356 -7.06e-4,-0.05423 -0.0035,-0.081389 0,0 0,-3.037e-4 0,-3.037e-4 -7.08e-4,-0.027104 -0.0036,-0.054176 -0.0061,-0.080976 0,0 0,-3.079e-4 0,-3.079e-4 -0.0026,-0.026605 -0.0055,-0.053311 -0.0071,-0.079683 0,0 0,-3.059e-4 0,-3.059e-4 0,0 0,-2.956e-4 0,-2.956e-4 -0.0036,-0.026249 -0.0061,-0.052532 -0.01071,-0.078492 -4.2e-5,-2.609e-4 4.1e-5,-6.081e-4 0,-7.077e-4 -0.005,-0.026098 -0.0079,-0.051697 -0.01376,-0.077194 0,0 0,-3.078e-4 0,-3.078e-4 -0.006,-0.025318 -0.01042,-0.050525 -0.01633,-0.075469 0,0 0,-2.996e-4 0,-2.996e-4 0,0 0,-3.022e-4 0,-3.022e-4 -0.0061,-0.02501 -0.01276,-0.04937 -0.01957,-0.073666 0,0 0,-3.04e-4 0,-3.04e-4 -0.0061,-0.02439 -0.01422,-0.048359 -0.02213,-0.072017 0,0 0,-2.995e-4 0,-2.995e-4 -0.0072,-0.02379 -0.0164,-0.046987 -0.02508,-0.069952 0,0 0,-2.986e-4 0,-2.986e-4 -0.0081,-0.022886 -0.01827,-0.045271 -0.02813,-0.067473 0,0 0,-3.05e-4 0,-3.05e-4 -0.01026,-0.02239 -0.02016,-0.043967 -0.03108,-0.065195 -0.01495,-0.028698 -0.03055,-0.057162 -0.04646,-0.085265 -7.08e-4,-0.00336 -0.0036,-0.00448 -0.005,-0.0061 -0.07917,-0.1396507 -0.171078,-0.2683172 -0.272684,-0.3847303 -0.0013,-0.00142 -0.0036,-0.00366 -0.006,-0.006 C 10.361487,7.910875 10.172624,7.7553511 9.970953,7.637684 9.970247,7.6370758 9.968353,7.6369717 9.967453,7.635964 9.815826,7.548431 9.656862,7.4816769 9.495899,7.4389621 c -7.1e-4,-2.673e-4 -0.0023,-1.732e-4 -0.0032,-3.023e-4 -0.107104,-0.02815 -0.214982,-0.045931 -0.322214,-0.05191 -0.0011,-7.01e-5 -0.0027,6.37e-5 -0.0035,0 -0.03105,-0.00168 -0.06198,-0.00305 -0.09294,-0.00305 v 3.023e-4 c -0.02184,1.628e-4 -0.04344,3.057e-4 -0.06519,0.00168 -0.02009,9.106e-4 -0.04015,0.00305 -0.0601,0.00542 -0.0137,0.00168 -0.02728,0.00314 -0.04092,0.00542 -0.08366,-0.4318343 -0.15552,-0.7975728 -0.239786,-1.2301164 -5.3e-5,-2.516e-4 5.6e-5,-6.077e-4 0,-8.905e-4 -0.0099,-0.049399 -0.01793,-0.096979 -0.02636,-0.1450616 0.234257,-0.2488834 0.448517,-0.486015 0.577109,-0.6559321 0.01133,-0.014815 0.02281,-0.030853 0.03453,-0.047758 0.01168,-0.016549 0.02381,-0.033982 0.03582,-0.052456 0.01193,-0.018245 0.02397,-0.037928 0.03621,-0.057988 0.01227,-0.020224 0.02468,-0.040731 0.03712,-0.062191 0.09926,-0.1722041 0.202429,-0.3919973 0.289819,-0.639736 0.01087,-0.030679 0.02157,-0.062096 0.03202,-0.093775 0,0 0,-3.035e-4 0,-3.035e-4 0.01034,-0.031841 0.02041,-0.063752 0.0302,-0.096336 0.127326,-0.4233109 0.200347,-0.9077903 0.135966,-1.3689713 -0.0099,-0.070854 -0.02289,-0.1411264 -0.03962,-0.2105589 0,0 0,-2.996e-4 0,-2.996e-4 -0.008,-0.034794 -0.0176,-0.069266 -0.02767,-0.1035628 -0.02031,-0.06862 -0.04443,-0.1361321 -0.07248,-0.2024466 -0.0079,-0.019888 -0.01664,-0.03818 -0.0251,-0.056662 -0.0036,-0.00644 -0.0062,-0.013577 -0.0093,-0.020743 -0.0024,-0.00394 -0.0041,-0.00776 -0.0062,-0.011095 -0.0098,-0.020741 -0.01948,-0.040339 -0.02942,-0.059218 -2.45e-4,-6.071e-4 -5.79e-4,-8.904e-4 -7.09e-4,-0.0015 -0.02339,-0.044542 -0.04681,-0.084984 -0.07075,-0.121472 -0.0014,-0.00244 -0.0032,-0.00394 -0.0048,-0.00654 -0.02276,-0.034242 -0.04577,-0.064985 -0.06899,-0.092498 -0.0011,-0.0015 -0.0028,-0.00244 -0.0037,-0.00394 -0.01127,-0.013081 -0.02251,-0.025464 -0.03361,-0.037107 -2.21e-4,-2.464e-4 -6.07e-4,-1.665e-4 -7.08e-4,-3.035e-4 -0.03712,-0.038267 -0.07412,-0.069205 -0.111669,-0.092922 -6.96e-4,-3.04e-4 -0.0013,-8.904e-4 -0.0027,-0.0015 -0.02197,-0.013636 -0.04413,-0.024861 -0.06611,-0.034063 -0.0047,-0.0015 -0.0091,-0.00394 -0.01371,-0.0055 -0.03562,-0.013471 -0.071,-0.021952 -0.106127,-0.025158 -6.63e-4,-6.69e-5 -0.0013,6.72e-5 -0.0025,0 -0.01167,-8.904e-4 -0.0233,-0.00244 -0.03493,-0.00244 z M 8.953793,2.2565168 c 0.0086,0.00776 0.01735,0.015519 0.02598,0.024393 0.06745,0.067155 0.134583,0.167583 0.198182,0.3120034 0.08647,0.1889401 0.348454,1.4949686 -0.643143,2.5001018 -1.3e-5,-2.604e-4 1.3e-5,-6.075e-4 0,-8.903e-4 -0.002,-0.046457 -0.0036,-0.092275 -0.0048,-0.1372565 -9.69e-4,-0.040976 -0.0018,-0.081239 -0.002,-0.1210563 -9.4e-5,-0.019644 3.01e-4,-0.038658 3.94e-4,-0.057944 3.02e-4,-0.06023 0.0017,-0.119056 0.0038,-0.1764844 4.85e-4,-0.013421 6.36e-4,-0.027057 0.0012,-0.040463 0.0012,-0.029878 0.0028,-0.059718 0.0048,-0.089072 0.0012,-0.020987 0.0025,-0.041091 0.0043,-0.061349 0.0018,-0.025228 0.0038,-0.050733 0.006,-0.075498 0.0033,-0.037912 0.0073,-0.07504 0.01143,-0.11165 0.0036,-0.030854 0.007,-0.061281 0.01109,-0.09123 0.0013,-0.010528 0.0028,-0.021037 0.0043,-0.030921 0.0091,-0.065146 0.01942,-0.1278333 0.03069,-0.1883983 0.0047,-0.025013 0.01,-0.049485 0.01494,-0.073728 0.002,-0.010769 0.0043,-0.021676 0.0064,-0.031937 0.006,-0.027342 0.01208,-0.054484 0.01831,-0.080979 2e-4,-8.904e-4 2.27e-4,-0.00156 3.95e-4,-0.00244 0.01399,-0.059222 0.0288,-0.1159196 0.04433,-0.1700636 0.0067,-0.024071 0.01377,-0.047349 0.02087,-0.070366 0.0018,-0.00549 0.0043,-0.012236 0.0061,-0.018088 0.0073,-0.023137 0.01468,-0.045776 0.02215,-0.067793 h -5.4e-4 C 8.928784,2.836026 9.177885,2.5932602 9.177885,2.5932602 9.113035,2.4540809 9.046803,2.3512229 8.979704,2.2812628 c -0.0086,-0.00913 -0.0174,-0.016248 -0.02598,-0.024386 z M 7.955617,6.7342613 c 0.0062,0.034854 0.01437,0.078248 0.01918,0.1078009 0.0137,0.084548 0.03381,0.1975151 0.05924,0.3328701 0.02543,0.1353626 0.05596,0.2931736 0.09078,0.468428 0.0043,0.021292 0.0098,0.047058 0.01406,0.068647 -0.06246,0.039817 -0.120446,0.080501 -0.173894,0.121887 -3.02e-4,2.483e-4 -8.9e-4,7.107e-4 -0.0012,0.00148 -4.54e-4,3.05e-4 -7.39e-4,7.093e-4 -0.0012,0.00148 -0.02078,0.016048 -0.04103,0.032191 -0.06053,0.048513 -8.96e-4,7.119e-4 -0.0018,0.00149 -0.0029,0.00327 -8.97e-4,7.099e-4 -0.0018,0.00149 -0.0029,0.00327 -0.01537,0.012988 -0.03103,0.026354 -0.0456,0.039643 -0.0112,0.01029 -0.02201,0.020738 -0.03281,0.030451 -0.0061,0.00605 -0.01242,0.011373 -0.0183,0.01678 -0.0012,0.00151 -0.0029,0.00363 -0.0043,0.00444 -0.0091,0.00907 -0.01799,0.017947 -0.02684,0.027259 -0.01109,0.01157 -0.02221,0.022672 -0.03281,0.034057 -0.0018,0.00336 -0.0039,0.006 -0.006,0.0061 -0.0097,0.010672 -0.01895,0.021472 -0.02813,0.03202 -0.01174,0.013572 -0.02308,0.027186 -0.03411,0.040878 -0.0023,0.00366 -0.0048,0.0061 -0.0073,0.00948 -0.0067,0.00864 -0.01355,0.017152 -0.02005,0.026013 -0.01251,0.016412 -0.02519,0.032696 -0.03666,0.049379 -0.06326,0.091712 -0.110895,0.1846114 -0.146188,0.2778958 -0.007,0.018636 -0.01358,0.03719 -0.01957,0.055761 0,0 0,3.041e-4 0,3.041e-4 -0.01208,0.03721 -0.02238,0.074502 -0.03069,0.1116778 -0.0043,0.018392 -0.0079,0.036965 -0.01109,0.055377 0,0 0,3.04e-4 0,3.04e-4 -0.0032,0.018582 -0.0061,0.037013 -0.0085,0.055415 -0.0023,0.018339 -0.0043,0.036627 -0.006,0.05501 0,0 0,3.041e-4 0,3.041e-4 -0.03072,0.349372 0.08084,0.680586 0.203728,0.928712 0.01293,0.02616 0.02618,0.05123 0.0392,0.0755 0,0 0,3.04e-4 0,3.04e-4 0.01296,0.02408 0.02601,0.04698 0.03877,0.06896 0,0 0,3.05e-4 0,3.05e-4 0.01274,0.02222 0.0257,0.04292 0.03793,0.0627 0,0 0,2.98e-4 0,2.98e-4 0.03676,0.05954 0.07062,0.1089209 0.09718,0.1457619 0.03545,0.04923 0.05796,0.07597 0.05796,0.07597 0,0 -0.0065,-0.01709 -0.01662,-0.05116 -0.005,-0.01652 -0.01109,-0.03793 -0.0175,-0.06268 0,0 0,-3.04e-4 0,-3.04e-4 -4.26e-4,-0.0012 -7.7e-4,-0.0048 -0.0012,-0.0061 -0.0061,-0.02381 -0.01256,-0.05053 -0.01918,-0.08101 -3.94e-4,-0.0012 -7.7e-4,-0.0048 -0.0012,-0.0061 -0.0057,-0.02644 -0.01174,-0.0564 -0.0175,-0.08782 -5.77e-4,-0.0041 -9.61e-4,-0.0061 -0.0017,-0.01005 0,0 0,-3.01e-4 0,-3.01e-4 -3.34e-4,-0.0012 -8.44e-4,-0.0049 -0.0012,-0.0061 -3.33e-4,-0.0012 -4.86e-4,-0.0049 -7.7e-4,-0.0061 -0.0067,-0.03848 -0.01324,-0.08022 -0.01917,-0.125321 -0.0062,-0.04726 -0.01196,-0.09829 -0.01662,-0.152563 0,0 0,-3.01e-4 0,-3.01e-4 -0.0046,-0.05429 -0.0083,-0.111989 -0.01063,-0.1730117 0,0 0,-3.012e-4 0,-3.012e-4 -0.0067,-0.1436441 0.0093,-0.2754137 0.04347,-0.3950907 0,0 0,-3.021e-4 0,-3.021e-4 0.02281,-0.079712 0.05374,-0.1539959 0.09163,-0.222881 0,0 0,-3.068e-4 0,-3.068e-4 0.0094,-0.016958 0.01953,-0.033738 0.0298,-0.050365 0,0 0,-3.011e-4 0,-3.011e-4 0.01022,-0.016348 0.02132,-0.032377 0.03238,-0.048125 0,0 0,-3.059e-4 0,-3.059e-4 0.02224,-0.03171 0.04633,-0.061832 0.07161,-0.090785 0,0 0,-3.02e-4 0,-3.02e-4 0.01269,-0.014274 0.02541,-0.028303 0.03878,-0.042172 0.06685,-0.068881 0.142353,-0.1289826 0.223759,-0.1802637 0.0031,-0.00132 0.0065,-0.00448 0.0098,-0.0062 0.119167,0.5771524 0.256612,1.2274772 0.391685,1.8467801 0.02833,0.129935 0.05581,0.252761 0.08354,0.378434 h -3.66e-4 c 0.01293,0.0587 0.02517,0.113418 0.03793,0.17091 0.0025,0.0109 0.0052,0.02123 0.0072,0.03157 -0.49785,0.05917 -1.054795,-0.08788 -1.536038,-0.485808 -0.01687,-0.01394 -0.03305,-0.02824 -0.04902,-0.04264 -0.0055,-0.0055 -0.01053,-0.01026 -0.01575,-0.01436 -0.0028,-0.0034 -0.0057,-0.0055 -0.0085,-0.0072 -0.0076,-0.007 -0.01519,-0.01405 -0.0226,-0.02146 -0.02162,-0.02124 -0.04247,-0.04239 -0.06224,-0.06396 -0.0187,-0.02064 -0.03621,-0.04096 -0.05327,-0.06174 -0.01366,-0.01647 -0.02699,-0.0334 -0.03964,-0.05036 -0.0072,-0.01026 -0.01404,-0.01943 -0.02086,-0.02874 -0.003,-0.0048 -0.0064,-0.0094 -0.0094,-0.01313 -0.01063,-0.01526 -0.02085,-0.03099 -0.03069,-0.046449 -1.69e-4,-2.48e-4 -2.54e-4,-6.08e-4 -3.96e-4,-7.09e-4 -0.0012,-0.0028 -0.0028,-0.0055 -0.0043,-0.0061 -0.0029,-0.0055 -0.0055,-0.01026 -0.0085,-0.01441 -0.02904,-0.04814 -0.05498,-0.09714 -0.07713,-0.147028 -6.98e-4,-0.0012 -0.0013,-0.0036 -0.002,-0.0061 -0.02453,-0.05576 -0.04518,-0.112939 -0.0618,-0.170484 -2.53e-4,-7.1e-4 -5.76e-4,-0.0013 -7.7e-4,-0.0034 -0.0023,-0.0081 -0.0044,-0.01673 -0.0067,-0.02558 -0.0017,-0.0061 -0.0031,-0.01256 -0.0048,-0.0187 -1.09e-4,-3.06e-4 -3.02e-4,-7.09e-4 -3.95e-4,-0.0013 -0.0061,-0.02391 -0.01144,-0.04801 -0.01623,-0.07201 -0.0039,-0.02008 -0.0076,-0.03967 -0.01063,-0.059674 -0.0025,-0.016698 -0.0048,-0.034074 -0.0067,-0.051154 -1.19e-4,-7.092e-4 -3.02e-4,-0.00124 -3.95e-4,-0.00402 -0.0074,-0.061804 -0.01132,-0.1242308 -0.01196,-0.1866827 -1.7e-4,-0.018636 2.6e-5,-0.03716 3.93e-4,-0.055781 8.44e-4,-0.042005 0.0031,-0.084157 0.0067,-0.1261549 0.005,-0.058641 0.01245,-0.1172608 0.02213,-0.175594 0,0 0,-3.041e-4 0,-3.041e-4 0.0015,-0.00949 0.0036,-0.018768 0.0052,-0.028011 2.28e-4,-0.00132 5.78e-4,-0.00336 7.7e-4,-0.00458 0.0039,-0.021584 0.0079,-0.04267 0.01237,-0.063926 8.91e-4,-0.0059 0.0018,-0.00972 0.0029,-0.014356 0.0027,-0.01297 0.006,-0.025902 0.0089,-0.038673 0.0053,-0.023058 0.01077,-0.045787 0.01662,-0.068693 0.0036,-0.013786 0.0069,-0.02744 0.01063,-0.041293 0.0043,-0.015596 0.0091,-0.031588 0.01366,-0.047271 0.0032,-0.011082 0.0065,-0.02212 0.0099,-0.032837 0.002,-0.00732 0.0043,-0.014322 0.0064,-0.021902 0,0 0,-3.006e-4 0,-3.006e-4 0.0032,-0.010574 0.0067,-0.0213 0.01021,-0.031427 C 6.87191,8.4091832 6.88422,8.3729572 6.89715,8.33705 6.90768,8.308044 6.91838,8.278239 6.92954,8.249701 6.93124,8.245221 6.93334,8.241461 6.93504,8.236891 6.94847,8.202816 6.96219,8.169042 6.97638,8.1358794 7.02183,8.0298603 7.07027,7.9290409 7.119586,7.8349816 c 0,0 0,-3.005e-4 0,-3.005e-4 0.0013,-0.00324 0.003,-0.0058 0.0048,-0.00806 0.03813,-0.072359 0.07683,-0.1405506 0.114229,-0.2037279 -0.0011,0.00144 -0.002,0.00332 -0.0034,0.0056 0.09304,-0.1577719 0.180043,-0.285264 0.241267,-0.3679249 0.02157,-0.028904 0.04024,-0.052714 0.05456,-0.07034 0.01431,-0.017367 0.03178,-0.038125 0.05242,-0.061399 0.08197,-0.091887 0.221258,-0.2372984 0.372906,-0.3944026 z m 1.102597,1.4269238 c 0.128017,0.00142 0.254833,0.019184 0.374209,0.054129 0.03598,0.010574 0.07122,0.022672 0.105702,0.036176 0.08626,0.034037 0.167398,0.07775 0.241235,0.1312724 0.04435,0.032133 0.08599,0.067727 0.124452,0.1069801 0.02562,0.026173 0.04977,0.053771 0.07246,0.083099 0.06787,0.087978 0.121424,0.1902513 0.156845,0.3072898 0,0 0,3.01e-4 0,3.01e-4 0.006,0.019305 0.01141,0.039114 0.0163,0.059177 0,0 0,3.016e-4 0,3.016e-4 0.0062,0.020307 0.009,0.040814 0.01307,0.061675 0,0 0,3.059e-4 0,3.059e-4 0.0063,0.042079 0.01276,0.085857 0.01575,0.1312696 0,0 0,3.022e-4 0,3.022e-4 0.0013,0.022784 0.0036,0.045973 0.0036,0.069455 2.96e-4,0.023715 7.8e-5,0.046837 -4e-4,0.069987 0,0 0,3.059e-4 0,3.059e-4 -7.08e-4,0.046217 -0.0042,0.091556 -0.0071,0.1359817 0,0 0,2.955e-4 0,2.955e-4 -0.0034,0.022322 -0.0061,0.043948 -0.0071,0.065583 0,0 0,3.04e-4 0,3.04e-4 -0.0037,0.02189 -0.0061,0.04318 -0.0103,0.06425 0,0 0,3.05e-4 0,3.05e-4 -0.0062,0.04261 -0.01623,0.0842 -0.02636,0.124882 0,0 0,3.01e-4 0,3.01e-4 -0.006,0.02062 -0.01065,0.0403 -0.01652,0.0602 0,0 0,3.07e-4 0,3.07e-4 -0.0013,0.0056 -0.0038,0.0098 -0.0061,0.01398 -0.01066,0.03481 -0.02252,0.06889 -0.03538,0.102289 -0.0062,0.01893 -0.01459,0.03732 -0.02257,0.05579 0,0 0,2.98e-4 0,2.98e-4 -0.01592,0.03682 -0.03347,0.07261 -0.05192,0.1074232 0,0 0,3.03e-4 0,3.03e-4 -0.0091,0.01709 -0.01881,0.03429 -0.02856,0.05116 0,0 0,3.03e-4 0,3.03e-4 -0.0059,0.0079 -0.01029,0.01639 -0.01527,0.02485 -0.0062,0.0077 -0.01018,0.01643 -0.01527,0.02486 0,0 0,3.01e-4 0,3.01e-4 -0.01033,0.01625 -0.02135,0.03233 -0.03233,0.04815 0,0 0,2.99e-4 0,2.99e-4 -0.01109,0.01552 -0.0225,0.03113 -0.0341,0.04645 0,0 0,3.04e-4 0,3.04e-4 -0.01159,0.01518 -0.02372,0.02983 -0.03584,0.04473 0,0 0,3.07e-4 0,3.07e-4 -0.02434,0.02932 -0.04987,0.05785 -0.07623,0.08527 0,0 0,3.09e-4 0,3.09e-4 -0.05147,0.05323 -0.10724,0.10228 -0.1658,0.147059 -0.0062,0.0037 -0.0111,0.0079 -0.01654,0.01242 -0.01823,0.01354 -0.03655,0.02682 -0.0554,0.03965 C 9.398874,9.9034808 9.280971,9.3007108 9.057886,8.1589333 Z" />
  <path
     id="path860-0-3"
     style="fill:#45007e;fill-opacity:0.0695295;stroke:none;stroke-width:0.0389403px;stroke-linecap:butt;stroke-linejoin:miter;stroke-opacity:1"
     d="M 8.977634,1.6348691 C 8.600833,1.6334091 8.269703,2.1437702 8.269703,2.1437702 8.320043,2.0778202 8.385857,2.0174011 8.460217,1.9813931 8.219412,2.111205 7.984131,2.5571272 7.784254,3.138982 7.53294,3.8706092 7.557877,4.7303502 7.641049,5.437077 6.065875,6.4554925 5.850772,6.8429956 5.475918,7.4922495 4.679573,8.8715702 5.267707,10.361515 6.276761,11.101389 c 0,0 3.94e-4,3.05e-4 3.94e-4,3.05e-4 0.0013,7.08e-4 0.0028,0.0012 0.0043,0.0037 0.0012,7.09e-4 0.0024,0.0012 0.0038,0.0034 0.04056,0.02932 0.08175,0.05784 0.123601,0.08479 0.0081,0.0055 0.01647,0.01074 0.0247,0.01553 0.0133,0.008 0.02665,0.01644 0.04007,0.02487 0.01285,0.0072 0.02581,0.01531 0.03878,0.02315 0,0 3.96e-4,3.07e-4 3.96e-4,3.07e-4 6.97e-4,2.99e-4 0.0013,7.03e-4 0.002,0.0012 0.03161,0.01818 0.0637,0.03598 0.09589,0.05293 0.0091,0.0055 0.01812,0.01035 0.02725,0.01438 0.0073,0.0048 0.0148,0.0072 0.02213,0.01127 0.02021,0.01042 0.04056,0.01968 0.06095,0.02871 0.0023,7.12e-4 0.0048,0.0034 0.0073,0.0037 0.01919,0.0092 0.03859,0.01702 0.05796,0.02558 0.0069,0.0037 0.0139,0.0061 0.02086,0.0094 0.02437,0.01043 0.04869,0.02037 0.0733,0.02925 0.517404,0.196089 1.251104,0.286744 1.982713,0.118481 0.0117,0.06192 0.02223,0.121484 0.03071,0.176465 0.0055,0.03452 0.01,0.06753 0.01406,0.09928 0.02846,0.223134 0.0271,0.38361 7.08e-4,0.49739 -0.0037,0.01607 -0.008,0.03104 -0.01277,0.04562 -0.0051,0.01426 -0.01,0.02813 -0.01575,0.04091 -0.0059,0.01271 -0.01206,0.02446 -0.0188,0.03538 -0.0065,0.01124 -0.01379,0.02145 -0.02132,0.03047 -0.0076,0.01006 -0.0154,0.01774 -0.02387,0.02604 -0.0084,0.0077 -0.01759,0.01502 -0.02684,0.02195 -0.0092,0.0061 -0.01889,0.01259 -0.029,0.01769 -0.03037,0.01585 -0.06418,0.02643 -0.101436,0.03284 -0.01244,0.0028 -0.02524,0.0036 -0.03837,0.0055 -0.01309,7.09e-4 -0.02671,0.0034 -0.04048,0.0034 -0.02763,7.13e-4 -0.0564,7.7e-5 -0.08652,-0.0012 -0.03015,-0.0012 -0.06177,-0.0048 -0.09418,-0.0077 -0.03243,-0.0036 -0.06567,-0.0077 -0.100162,-0.01278 -0.03448,-0.0055 -0.06981,-0.01014 -0.106126,-0.0144 -0.01522,-0.0028 -0.03004,-0.0048 -0.04433,-0.0055 -0.01428,-7.13e-4 -0.02836,-0.0012 -0.04177,-0.0012 -0.01339,6.8e-5 -0.0263,6.09e-4 -0.03878,0.0012 -0.01252,7.06e-4 -0.02456,0.0034 -0.03622,0.0048 -0.02329,0.0048 -0.0448,0.01032 -0.06478,0.01681 -0.01,0.0037 -0.01979,0.0077 -0.02901,0.01236 -0.0091,0.0048 -0.018,0.0094 -0.02645,0.01405 -0.0084,0.0055 -0.01624,0.01074 -0.02388,0.01598 -0.0078,0.0061 -0.01486,0.01159 -0.02174,0.01764 -0.0069,0.0061 -0.01342,0.01312 -0.01957,0.02023 -0.0062,0.0061 -0.01242,0.01354 -0.01789,0.02119 -0.04394,0.05819 -0.06568,0.130384 -0.07074,0.20116 -0.0012,0.01758 -0.0017,0.03509 -7.7e-4,0.05247 6.99e-4,0.01709 0.0023,0.03422 0.0052,0.05068 0.0025,0.01638 0.0064,0.03257 0.01063,0.04778 0.0043,0.01514 0.009,0.02952 0.01493,0.04313 0.01173,0.02669 0.02665,0.04931 0.04347,0.06606 0,0 0.0067,0.01028 0.02005,0.02558 0.01347,0.01573 0.03361,0.03794 0.06052,0.06269 0.01347,0.0124 0.02881,0.02505 0.0456,0.03835 0.01681,0.01327 0.03523,0.02669 0.05541,0.04013 0.03028,0.02016 0.06447,0.03952 0.102288,0.0572 0.01261,0.0061 0.02535,0.01163 0.03878,0.01681 0.01346,0.0061 0.02751,0.01074 0.04176,0.0152 0.02855,0.01026 0.05886,0.01784 0.09078,0.02487 0.01597,0.0036 0.0322,0.0061 0.04902,0.008 0.01678,0.0034 0.03393,0.0048 0.05157,0.0061 0.01765,0.0012 0.03608,0.0034 0.05456,0.0034 0.01846,2.58e-4 0.03736,-2.63e-4 0.05668,-0.0012 0.0193,-7.11e-4 0.03865,-0.0034 0.05882,-0.0055 0.02017,-0.0028 0.04081,-0.0061 0.0618,-0.01005 0.02101,-0.0048 0.04253,-0.0077 0.06435,-0.01355 0.02183,-0.0061 0.04424,-0.01176 0.06691,-0.01863 0.02267,-0.0072 0.04556,-0.01454 0.06902,-0.02359 0.02351,-0.0093 0.04768,-0.01883 0.07203,-0.02925 0.02435,-0.01098 0.049,-0.02248 0.07415,-0.03488 0.02518,-0.01276 0.0507,-0.02644 0.07672,-0.04136 0.02601,-0.01471 0.05242,-0.03047 0.07927,-0.04777 0.02355,-0.01482 0.0465,-0.02997 0.06818,-0.04596 0.02167,-0.01554 0.04229,-0.03214 0.06224,-0.0486 0.01999,-0.01637 0.03887,-0.03306 0.05707,-0.05041 0.0182,-0.01697 0.03588,-0.03489 0.05243,-0.05293 0.01651,-0.0176 0.03231,-0.0358 0.04728,-0.05415 0.01504,-0.01836 0.02916,-0.03723 0.04264,-0.05624 0.0135,-0.01893 0.02629,-0.03818 0.0384,-0.05764 0.01189,-0.01962 0.02295,-0.03943 0.0336,-0.05917 0.01059,-0.0201 0.02098,-0.03977 0.03021,-0.06021 0.01873,-0.04064 0.03476,-0.08189 0.04852,-0.123602 0.0062,-0.02122 0.01291,-0.04203 0.01883,-0.06304 0.0062,-0.02135 0.0111,-0.04217 0.01575,-0.0635 0.0059,-0.02145 0.0091,-0.04259 0.01282,-0.06391 0.02251,-0.128234 0.02765,-0.258002 0.02294,-0.383591 -0.0015,-0.04191 -0.0047,-0.08336 -0.0074,-0.124034 -0.004,-0.04078 -0.0075,-0.08063 -0.01281,-0.119756 -0.0062,-0.04519 -0.01239,-0.08918 -0.01914,-0.131697 -0.0028,-0.01294 -0.0047,-0.02509 -0.0061,-0.03793 -0.0039,-0.02203 -0.0064,-0.04265 -0.0111,-0.0635 -0.0027,-0.01049 -0.0034,-0.01836 -0.0061,-0.02846 -0.0033,-0.01598 -0.0062,-0.03021 -0.0083,-0.04595 -7.09e-4,-0.0055 -0.0028,-0.01038 -0.0032,-0.0148 -0.0062,-0.03183 -0.01165,-0.0622 -0.01703,-0.09078 0,0 -0.01135,-0.05808 -0.01151,-0.05917 0.222621,-0.111279 0.438041,-0.253864 0.639309,-0.431321 2.97e-4,-2.49e-4 5.12e-4,-6.05e-4 7.11e-4,-7.13e-4 0.04667,-0.041 0.09269,-0.08335 0.13766,-0.128283 0,0 0,-3.07e-4 0,-3.07e-4 0.0061,-0.0061 0.01299,-0.01354 0.01958,-0.02071 0.0016,-0.0012 0.0047,-0.0037 0.006,-0.0061 0.0016,-0.0012 0.0041,-0.0048 0.0061,-0.0061 0.01456,-0.01537 0.029,-0.03167 0.04314,-0.04813 0.0071,-0.0098 0.0158,-0.0179 0.02354,-0.02754 0,0 0,-3.01e-4 0,-3.01e-4 0.0061,-0.0072 0.01164,-0.01505 0.01758,-0.02266 0.0011,-0.0012 0.0036,-0.0037 0.0048,-0.0055 5.19e-4,-6.07e-4 7.15e-4,-0.0012 0.0015,-0.0034 7.08e-4,-0.0012 0.0019,-0.0034 0.0036,-0.0048 0.0061,-0.008 0.01286,-0.01642 0.0191,-0.02509 0.0052,-0.0061 0.0075,-0.0123 0.01243,-0.01811 0.01033,-0.01436 0.02033,-0.02875 0.03019,-0.04388 0,0 0,-3.05e-4 0,-3.05e-4 0.0041,-0.0055 0.0061,-0.01037 0.0093,-0.01479 6.4e-4,-7.11e-4 0.0012,-0.0012 0.0027,-0.0036 0.0036,-0.0055 0.0061,-0.01006 0.0081,-0.01403 0.0061,-0.01098 0.01355,-0.0216 0.0201,-0.03234 0,0 0,-3e-4 0,-3e-4 0.0048,-0.0061 0.0061,-0.01284 0.01108,-0.01943 7.09e-4,-0.0012 0.0014,-0.0036 0.0035,-0.0055 0.0019,-0.0036 0.0051,-0.0061 0.0061,-0.01033 0.0061,-0.01139 0.01274,-0.02208 0.01886,-0.03333 0,0 0,-3.05e-4 0,-3.05e-4 0.01231,-0.02283 0.0243,-0.04587 0.03589,-0.06949 0,0 0,-3.03e-4 0,-3.03e-4 0.03472,-0.07105 0.06587,-0.145382 0.09335,-0.222051 0.0091,-0.0255 0.01803,-0.05117 0.02634,-0.07721 0,0 0,-3.04e-4 0,-3.04e-4 0,0 0,-3.05e-4 0,-3.05e-4 0.0075,-0.02601 0.01642,-0.05192 0.02382,-0.07851 0,0 0,-2.98e-4 0,-2.98e-4 0.0061,-0.0263 0.01463,-0.05293 0.02132,-0.0797 0,0 0,-3.04e-4 0,-3.04e-4 0.0061,-0.02677 0.01285,-0.05385 0.01884,-0.081 0,0 0,-2.98e-4 0,-2.98e-4 7.11e-4,-0.0061 0.0026,-0.01138 0.0044,-0.01641 2.71e-4,-0.0012 5.48e-4,-0.0035 7.08e-4,-0.0049 1.79e-4,-7.06e-4 2.54e-4,-0.0012 3.93e-4,-0.0035 0.0051,-0.02001 0.0075,-0.03942 0.01187,-0.05914 0.0061,-0.02721 0.0098,-0.05438 0.01375,-0.0818 4.4e-5,-2.59e-4 -4.3e-5,-6.06e-4 0,-7.07e-4 0.0052,-0.02737 0.0071,-0.05467 0.01108,-0.08222 0,0 0,-3.01e-4 0,-3.01e-4 0.0042,-0.02745 0.0061,-0.05545 0.0076,-0.083094 0,0 0,-3.007e-4 0,-3.007e-4 0.0034,-0.02746 0.0051,-0.055166 0.0061,-0.082676 0,0 0,-3.085e-4 0,-3.085e-4 0.0012,-0.027465 0.0036,-0.055245 0.0043,-0.082676 0,0 0,-2.993e-4 0,-2.993e-4 5.77e-4,-0.027376 6.98e-4,-0.05501 3.96e-4,-0.082235 -5e-6,-2.46e-4 2e-6,-6.08e-4 0,-7.086e-4 -3.04e-4,-0.027357 -7.1e-4,-0.054205 -0.0035,-0.081381 0,0 0,-3.043e-4 0,-3.043e-4 -7.1e-4,-0.027122 -0.0037,-0.054195 -0.0061,-0.080976 0,0 0,-2.966e-4 0,-2.966e-4 -0.0026,-0.026643 -0.0061,-0.053321 -0.007,-0.079703 0,0 0,-3.06e-4 0,-3.06e-4 0,0 0,-3.031e-4 0,-3.031e-4 -0.0036,-0.026239 -0.0061,-0.052542 -0.0106,-0.078473 -4.1e-5,-2.431e-4 4.7e-5,-6.071e-4 0,-7.094e-4 -0.0051,-0.026088 -0.0077,-0.051663 -0.01376,-0.077194 0,0 0,-3.032e-4 0,-3.032e-4 -0.0061,-0.02532 -0.01042,-0.050555 -0.01634,-0.075505 0,0 0,-2.993e-4 0,-2.993e-4 0,0 0,-3.022e-4 0,-3.022e-4 -0.0061,-0.02499 -0.01278,-0.049371 -0.01957,-0.073685 0,0 0,-3.087e-4 0,-3.087e-4 -0.0061,-0.02439 -0.01419,-0.048359 -0.02218,-0.072017 0,0 0,-3.079e-4 0,-3.079e-4 -0.007,-0.02378 -0.0164,-0.046959 -0.02508,-0.069923 0,0 0,-2.984e-4 0,-2.984e-4 -0.008,-0.022946 -0.01827,-0.045289 -0.02813,-0.067454 0,0 0,-2.99e-4 0,-2.99e-4 -0.01016,-0.022408 -0.02016,-0.043967 -0.0311,-0.065205 -0.01496,-0.028707 -0.03055,-0.057169 -0.04646,-0.085265 -0.0011,-0.00336 -0.0036,-0.00448 -0.005,-0.0061 -0.07932,-0.1395653 -0.171225,-0.2682341 -0.272829,-0.3846374 -0.0014,-0.00169 -0.0036,-0.00347 -0.0061,-0.00585 C 10.217259,7.6910213 10.028394,7.5355026 9.826722,7.4178264 9.826013,7.4172203 9.824222,7.4169092 9.823222,7.4161664 9.671112,7.3285214 9.512147,7.2617752 9.351183,7.2190521 c -7.09e-4,-2.554e-4 -0.0022,-1.689e-4 -0.003,-3.05e-4 -0.107103,-0.028137 -0.21498,-0.045913 -0.322239,-0.05192 -0.0011,-6.36e-5 -0.0026,5.84e-5 -0.0035,0 -0.03105,-0.00169 -0.06198,-0.00291 -0.09292,-0.00291 v 3.023e-4 c -0.02182,1.708e-4 -0.04343,3.068e-4 -0.0652,0.00159 -0.02009,8.903e-4 -0.04015,0.00291 -0.0601,0.00545 -0.01371,0.00159 -0.0273,0.00329 -0.0409,0.00545 -0.08404,-0.4319911 -0.155896,-0.7977227 -0.240163,-1.230276 -5.5e-5,-2.673e-4 5.4e-5,-6.063e-4 0,-8.903e-4 -0.0093,-0.049524 -0.01715,-0.097103 -0.0256,-0.1451903 0.234256,-0.248876 0.448516,-0.4860068 0.577083,-0.6559309 0.01133,-0.014817 0.02281,-0.03093 0.03453,-0.047767 0.01169,-0.016537 0.02381,-0.033971 0.03583,-0.052442 0.01191,-0.018188 0.02396,-0.037935 0.03621,-0.057976 0.01227,-0.020157 0.02467,-0.040732 0.03712,-0.062194 0.09926,-0.1722093 0.202426,-0.3920156 0.28982,-0.6397414 0.01087,-0.030678 0.02159,-0.062111 0.03203,-0.093775 0,0 0,-3.04e-4 0,-3.04e-4 0.01034,-0.03184 0.02044,-0.063751 0.0302,-0.096313 0.127309,-0.4233286 0.200334,-0.9078089 0.135951,-1.3689998 -0.0099,-0.070841 -0.02289,-0.1411348 -0.03963,-0.2105425 0,0 0,-3.035e-4 0,-3.035e-4 -0.008,-0.03481 -0.01762,-0.069296 -0.02767,-0.1035647 -0.02032,-0.068617 -0.04439,-0.1361366 -0.07243,-0.2024473 -0.008,-0.019859 -0.01666,-0.038179 -0.02511,-0.056669 -0.0034,-0.00654 -0.0062,-0.01357 -0.0093,-0.020697 -0.0024,-0.00394 -0.0039,-0.00776 -0.0062,-0.011094 -0.0098,-0.020742 -0.01948,-0.040317 -0.02941,-0.059209 -2.47e-4,-6.072e-4 -5.76e-4,-8.903e-4 -7.09e-4,-0.0015 -0.02334,-0.044546 -0.04681,-0.084985 -0.07075,-0.1214718 -0.0013,-0.00244 -0.0031,-0.00394 -0.0045,-0.0067 -0.02276,-0.034217 -0.0458,-0.064987 -0.06902,-0.092476 -0.0011,-0.0015 -0.0027,-0.00244 -0.0036,-0.00394 -0.01127,-0.013087 -0.02249,-0.025475 -0.03363,-0.037113 -2.22e-4,-2.636e-4 -6.09e-4,-1.635e-4 -7.1e-4,-3.041e-4 -0.03708,-0.038278 -0.07412,-0.06919 -0.111668,-0.092899 -6.98e-4,-3.039e-4 -0.0013,-8.904e-4 -0.0025,-0.00156 -0.02197,-0.013623 -0.04408,-0.024862 -0.0661,-0.034052 -0.0048,-0.0015 -0.0091,-0.004 -0.01369,-0.00549 -0.03562,-0.013477 -0.07101,-0.02198 -0.10614,-0.02516 -6.65e-4,-7.59e-5 -0.0013,6.97e-5 -0.0024,0 -0.01174,-8.777e-4 -0.02334,-0.00243 -0.03499,-0.00243 z M 8.809707,2.0359616 c 0.0086,0.00776 0.01736,0.015522 0.02599,0.024392 0.06745,0.067154 0.134584,0.1675794 0.198186,0.3120026 0.08646,0.188941 0.348454,1.4949724 -0.643147,2.5001139 -1.2e-5,-2.631e-4 1.3e-5,-6.061e-4 0,-8.904e-4 -0.002,-0.046458 -0.0036,-0.09226 -0.0048,-0.1372501 -8.9e-4,-0.040977 -0.0018,-0.081231 -0.002,-0.1210451 -9.4e-5,-0.01967 3.03e-4,-0.038658 3.96e-4,-0.057963 3.02e-4,-0.060228 0.0017,-0.1190443 0.0038,-0.1764761 4.85e-4,-0.013421 6.38e-4,-0.027058 0.0012,-0.040462 0.0012,-0.02988 0.0028,-0.059728 0.0048,-0.089087 0.0012,-0.020986 0.0025,-0.041091 0.0043,-0.061349 0.0018,-0.025259 0.0038,-0.050734 0.006,-0.0755 0.0033,-0.037912 0.0073,-0.075011 0.01143,-0.1116491 0.0036,-0.03074 0.007,-0.061282 0.0111,-0.09123 0.0013,-0.010525 0.0028,-0.021039 0.0043,-0.030923 0.0091,-0.065163 0.01942,-0.1278298 0.03069,-0.1883968 0.0046,-0.025016 0.01,-0.049477 0.01493,-0.073733 0.002,-0.01077 0.0043,-0.021649 0.0064,-0.03194 0.0058,-0.027354 0.01208,-0.054483 0.0183,-0.080968 2e-4,-8.904e-4 2.25e-4,-0.0015 3.93e-4,-0.00244 0.01399,-0.059221 0.02881,-0.1159199 0.04433,-0.1700552 0.0069,-0.024074 0.01376,-0.04735 0.02086,-0.070365 0.0018,-0.00549 0.0041,-0.012235 0.006,-0.018121 0.0073,-0.02314 0.01468,-0.04579 0.02214,-0.067795 H 8.59479 C 8.784669,2.6154501 9.033776,2.3726913 9.033776,2.3726913 8.968926,2.2335081 8.902693,2.1306565 8.835591,2.0606897 8.826991,2.0515497 8.818201,2.0444427 8.809621,2.0363067 Z M 7.811531,6.5137038 c 0.0062,0.034869 0.01439,0.078246 0.01918,0.1078112 0.01371,0.084537 0.03381,0.197509 0.05924,0.3328614 0.02543,0.1353966 0.05596,0.2931843 0.09078,0.4684283 0.0043,0.021271 0.0098,0.047047 0.01406,0.068637 -0.06246,0.039802 -0.120447,0.080486 -0.173894,0.1218742 -3.02e-4,2.562e-4 -8.91e-4,9.455e-4 -0.0012,0.00143 -4.55e-4,2.982e-4 -7.4e-4,9.455e-4 -0.0012,0.00173 -0.02078,0.01604 -0.04102,0.032207 -0.06053,0.048519 -8.9e-4,7.08e-4 -0.0018,0.00144 -0.0029,0.00312 -8.91e-4,7.095e-4 -0.0018,0.00145 -0.0029,0.00315 -0.01537,0.01299 -0.03103,0.026364 -0.0456,0.039648 -0.01121,0.010279 -0.02202,0.020739 -0.03281,0.030451 -0.0061,0.0061 -0.01242,0.011348 -0.0183,0.016774 -0.0012,0.00147 -0.0029,0.00341 -0.0043,0.00427 -0.0091,0.00915 -0.01799,0.018193 -0.02684,0.027237 -0.0111,0.011575 -0.02221,0.022691 -0.03281,0.034058 -0.0018,0.00324 -0.0039,0.0058 -0.006,0.0061 -0.0097,0.010678 -0.01895,0.021478 -0.02813,0.032019 -0.01173,0.013658 -0.02309,0.027177 -0.03409,0.040863 -0.0023,0.0036 -0.0048,0.0062 -0.0073,0.00948 -0.0067,0.0087 -0.01355,0.01715 -0.02004,0.025999 -0.01251,0.016395 -0.02517,0.032679 -0.03666,0.049355 -0.06326,0.0917 -0.110894,0.1846116 -0.146187,0.2778962 -0.007,0.018441 -0.01357,0.037154 -0.01957,0.055752 0,0 0,2.955e-4 0,2.955e-4 -0.01208,0.037218 -0.02238,0.07451 -0.03069,0.1116809 -0.0043,0.018392 -0.0079,0.036956 -0.0111,0.055395 0,0 0,3.023e-4 0,3.023e-4 -0.0032,0.018392 -0.0061,0.037013 -0.0085,0.055425 -0.0023,0.018339 -0.0043,0.036637 -0.006,0.05501 0,0 0,3.021e-4 0,3.021e-4 -0.03072,0.3493786 0.08083,0.6805824 0.203727,0.9287202 0.01292,0.02617 0.02619,0.05123 0.0392,0.0755 0,0 0,3.08e-4 0,3.08e-4 0.01296,0.02406 0.02601,0.04697 0.03877,0.06896 0,0 0,3.02e-4 0,3.02e-4 0.01274,0.02224 0.0257,0.04294 0.03793,0.06267 0,0 0,3e-4 0,3e-4 0.03676,0.05954 0.07061,0.108919 0.09718,0.145756 0.03545,0.04924 0.05797,0.076 0.05797,0.076 0,0 -0.0065,-0.01709 -0.01662,-0.05116 -0.005,-0.01653 -0.0111,-0.03793 -0.0175,-0.06269 0,0 0,-3.11e-4 0,-3.11e-4 -4.25e-4,-0.0012 -7.7e-4,-0.0049 -0.0012,-0.0061 -0.0061,-0.0238 -0.01256,-0.05049 -0.01918,-0.08099 -3.96e-4,-0.0012 -7.7e-4,-0.0049 -0.0012,-0.0061 -0.0057,-0.02644 -0.01173,-0.05644 -0.0175,-0.08782 -5.77e-4,-0.004 -9.68e-4,-0.0061 -0.0017,-0.0098 0,0 0,-3.02e-4 0,-3.02e-4 -3.35e-4,-0.0012 -8.44e-4,-0.0048 -0.0012,-0.0061 -3.34e-4,-0.0012 -4.86e-4,-0.0048 -7.7e-4,-0.006 -0.0067,-0.03845 -0.01324,-0.08023 -0.01918,-0.125338 -0.0062,-0.04732 -0.01196,-0.098256 -0.01662,-0.1525531 0,0 0,-3.045e-4 0,-3.045e-4 -0.0046,-0.054265 -0.0083,-0.11198 -0.01063,-0.1730169 0,0 0,-3.012e-4 0,-3.012e-4 -0.0067,-0.1436541 0.0093,-0.2754185 0.04347,-0.3950852 0,0 0,-3.002e-4 0,-3.002e-4 0.02279,-0.079732 0.05374,-0.1539957 0.09163,-0.2228715 0,0 0,-3.04e-4 0,-3.04e-4 0.0094,-0.016958 0.01953,-0.033745 0.02981,-0.050384 0,0 0,-3.002e-4 0,-3.002e-4 0.01022,-0.016358 0.02132,-0.032387 0.03239,-0.048149 0,0 0,-3.05e-4 0,-3.05e-4 0.02226,-0.03171 0.04633,-0.061823 0.07161,-0.090794 0,0 0,-3.078e-4 0,-3.078e-4 0.01269,-0.014304 0.02542,-0.028314 0.03878,-0.042172 0.06685,-0.068927 0.142352,-0.1289854 0.223759,-0.1802616 0.0031,-0.00142 0.0065,-0.00448 0.0098,-0.006 0.119167,0.5771542 0.256613,1.2274784 0.391684,1.8467852 0.02833,0.1299339 0.05581,0.2527489 0.08354,0.3784339 h -3.69e-4 c 0.01296,0.05876 0.02519,0.113421 0.03793,0.170925 0.0024,0.0109 0.0051,0.02125 0.0073,0.03143 -0.497862,0.05912 -1.054807,-0.08795 -1.536052,-0.485875 -0.01687,-0.01394 -0.03306,-0.02822 -0.04902,-0.04264 -0.0055,-0.0055 -0.01053,-0.01026 -0.01575,-0.01435 -0.0028,-0.0034 -0.0057,-0.0055 -0.0085,-0.0072 -0.0076,-0.007 -0.01521,-0.01406 -0.0226,-0.02145 -0.02162,-0.02124 -0.04247,-0.04235 -0.06224,-0.06392 -0.0187,-0.02067 -0.03621,-0.04096 -0.05327,-0.06173 -0.01367,-0.01642 -0.02699,-0.03341 -0.03964,-0.05038 -0.0072,-0.01026 -0.01404,-0.01952 -0.02086,-0.0287 -0.003,-0.0049 -0.0064,-0.0093 -0.0094,-0.01313 -0.01063,-0.01525 -0.02086,-0.03091 -0.03069,-0.04646 -1.69e-4,-2.53e-4 -2.55e-4,-6.08e-4 -3.95e-4,-7.09e-4 -0.0012,-0.0035 -0.0028,-0.0061 -0.0043,-0.0061 -0.0029,-0.0055 -0.0055,-0.01016 -0.0085,-0.01435 -0.02904,-0.04813 -0.05498,-0.09712 -0.07713,-0.147028 -6.98e-4,-0.0013 -0.0013,-0.004 -0.002,-0.0061 -0.02453,-0.05577 -0.04518,-0.112926 -0.0618,-0.1704806 -2.53e-4,-7.072e-4 -5.76e-4,-0.00124 -7.7e-4,-0.00342 -0.0023,-0.00808 -0.0044,-0.016728 -0.0067,-0.02558 -0.0017,-0.00605 -0.0031,-0.012569 -0.0048,-0.018762 -1.09e-4,-3.092e-4 -3.03e-4,-7.092e-4 -3.94e-4,-0.00123 -0.0061,-0.023908 -0.01144,-0.048011 -0.01623,-0.072007 -0.004,-0.020046 -0.0076,-0.039667 -0.01063,-0.059665 -0.0025,-0.016714 -0.0048,-0.034075 -0.0067,-0.051165 -1.18e-4,-7.083e-4 -3.02e-4,-0.00122 -3.94e-4,-0.00386 -0.0074,-0.061789 -0.01132,-0.1242236 -0.01196,-0.186673 -1.69e-4,-0.018713 2.5e-5,-0.03718 3.95e-4,-0.055781 8.44e-4,-0.042005 0.003,-0.084157 0.0067,-0.1261504 0.005,-0.058651 0.01245,-0.1172588 0.02214,-0.1755987 0,0 0,-3.02e-4 0,-3.02e-4 0.0016,-0.00938 0.0036,-0.018788 0.0052,-0.028004 2.29e-4,-0.00132 5.77e-4,-0.00346 7.7e-4,-0.00448 0.0039,-0.021584 0.0079,-0.042669 0.01238,-0.063926 8.91e-4,-0.0059 0.0018,-0.00972 0.0029,-0.014323 0.0027,-0.01297 0.006,-0.025892 0.009,-0.038683 0.0053,-0.023058 0.01077,-0.045807 0.01662,-0.068674 0.0036,-0.013786 0.0069,-0.027488 0.01063,-0.041318 0.0043,-0.015557 0.009,-0.031626 0.01366,-0.047251 0.003,-0.011092 0.0065,-0.022111 0.0099,-0.032827 0.002,-0.00732 0.0043,-0.014338 0.0064,-0.02193 0,0 0,-2.957e-4 0,-2.957e-4 0.0032,-0.010564 0.0067,-0.0213 0.01022,-0.031373 0.01184,-0.036551 0.02416,-0.072802 0.03708,-0.1086869 0.01053,-0.028996 0.02123,-0.058821 0.03239,-0.087368 0.0017,-0.00448 0.0038,-0.00824 0.0055,-0.012753 0.01345,-0.034076 0.02715,-0.067856 0.04134,-0.1010188 0.04545,-0.1060158 0.0939,-0.2068401 0.143206,-0.3008945 0,0 0,-2.992e-4 0,-2.992e-4 0.0013,-0.00305 0.003,-0.00555 0.0048,-0.00821 0.03813,-0.072353 0.07683,-0.1405401 0.114227,-0.203728 -0.0011,0.00168 -0.002,0.00314 -0.0034,0.00542 0.09297,-0.1575353 0.17998,-0.2850288 0.241203,-0.3676868 0.02157,-0.028922 0.04024,-0.052717 0.05456,-0.070341 0.01433,-0.017287 0.03182,-0.038057 0.05244,-0.061296 0.0818,-0.092221 0.221085,-0.2376296 0.372734,-0.3947406 z m 1.102596,1.4269276 c 0.128019,0.0015 0.254832,0.01914 0.374213,0.05412 0.03597,0.010587 0.07119,0.022686 0.105697,0.036171 0.08627,0.034038 0.167396,0.077751 0.241237,0.1312725 0.04434,0.032143 0.08599,0.067727 0.124448,0.1069782 0.02562,0.02618 0.04975,0.053781 0.07245,0.083128 0.06786,0.087978 0.121429,0.1902587 0.156847,0.3072895 0,0 0,3.05e-4 0,3.05e-4 0.006,0.0195 0.01138,0.039122 0.01628,0.059159 0,0 0,3.001e-4 0,3.001e-4 0.006,0.020404 0.0092,0.040805 0.01309,0.061684 0,0 0,3.003e-4 0,3.003e-4 0.0065,0.042079 0.01274,0.085856 0.01575,0.1312685 0,0 0,3.06e-4 0,3.06e-4 0.0013,0.02273 0.0036,0.045964 0.0036,0.069445 3.05e-4,0.023715 8.1e-5,0.046827 -3.92e-4,0.069972 0,0 0,3.05e-4 0,3.05e-4 -7.1e-4,0.046198 -0.0041,0.091556 -0.0072,0.1359833 0,0 0,3.031e-4 0,3.031e-4 -0.0033,0.022326 -0.0061,0.043947 -0.0072,0.065588 0,0 0,3.003e-4 0,3.003e-4 -0.0035,0.02193 -0.0061,0.043167 -0.01028,0.064254 0,0 0,3.035e-4 0,3.035e-4 -0.0063,0.042605 -0.0162,0.084188 -0.02638,0.1248804 0,0 0,2.99e-4 0,2.99e-4 -0.0062,0.02061 -0.01065,0.0403 -0.01654,0.0602 0,0 0,3.04e-4 0,3.04e-4 -0.0013,0.0061 -0.0038,0.0098 -0.006,0.01398 -0.01067,0.03482 -0.0225,0.06894 -0.03538,0.10229 -0.0063,0.01888 -0.01461,0.03731 -0.02258,0.05578 0,0 0,3.01e-4 0,3.01e-4 -0.01592,0.03681 -0.03349,0.07261 -0.05191,0.107413 0,0 0,2.99e-4 0,2.99e-4 -0.009,0.01709 -0.0188,0.03429 -0.02855,0.05116 0,0 0,3.1e-4 0,3.1e-4 -0.0061,0.0077 -0.0103,0.01638 -0.01529,0.02488 -0.0061,0.0076 -0.01017,0.01642 -0.01528,0.02488 0,0 0,3.03e-4 0,3.03e-4 -0.01035,0.01624 -0.02136,0.03229 -0.03235,0.04812 0,0 0,3.06e-4 0,3.06e-4 -0.01109,0.01551 -0.02254,0.0311 -0.0341,0.04645 0,0 0,3.02e-4 0,3.02e-4 -0.01158,0.01517 -0.02374,0.02984 -0.03584,0.04474 0,0 0,2.95e-4 0,2.95e-4 -0.02434,0.02932 -0.04982,0.05791 -0.07624,0.08529 0,0 0,3.01e-4 0,3.01e-4 -0.05147,0.05322 -0.107236,0.102277 -0.165793,0.147067 -0.006,0.0036 -0.01109,0.0079 -0.01656,0.01237 -0.01823,0.01355 -0.03655,0.02682 -0.05544,0.03963 C 9.254872,9.6846741 9.136967,9.0818941 8.913887,7.9401697 Z" />
  <path
     style="fill:url(#linearGradient14);fill-opacity:1;stroke:none;stroke-width:0.0389403px;stroke-linecap:butt;stroke-linejoin:miter;stroke-opacity:1"
     d="m 8.830371,2.1807127 c 0,0 -1.013737,0.9859289 -0.510029,3.5715743 0.503711,2.5856049 1.057912,5.41398 1.057912,5.41398 0.0862,0.457261 0.293667,1.361722 -0.459972,1.839635 C 8.058834,13.550969 7.62785,12.933352 7.62785,12.933352 7.493193,12.798668 7.502637,12.286823 7.989672,12.353461 8.570629,12.432881 8.932778,12.523857 8.595913,11.054666 8.25905,9.5854441 7.73663,7.1063702 7.627073,6.4302894 7.533333,5.8519111 7.14766,4.207844 7.580553,2.9476513 7.940512,1.8997488 8.415311,1.2900076 8.830366,2.1807054 Z"
     id="path860-7"
     sodipodi:nodetypes="cscscssssc" />
  <path
     style="opacity:0.500664;fill:url(#linearGradient15);fill-opacity:1;stroke:none;stroke-width:0.0389403px;stroke-linecap:butt;stroke-linejoin:miter;stroke-opacity:1"
     d="m 8.320342,5.752287 c 0.503711,2.5856049 1.057912,5.41398 1.057912,5.41398 0.0862,0.457261 0.293667,1.361722 -0.459972,1.839635 C 8.058834,13.550969 7.62785,12.933342 7.62785,12.933342 7.493193,12.798658 7.502637,12.286814 7.989672,12.353453 8.570629,12.432853 8.932778,12.523849 8.595913,11.054657 8.25905,9.5854481 7.73663,7.1063756 7.627073,6.4302938 Z"
     id="path26641-5"
     sodipodi:nodetypes="ccscsscc" />
  <path
     style="fill:url(#linearGradient16);fill-opacity:1;stroke:none;stroke-width:0.0389403px;stroke-linecap:butt;stroke-linejoin:miter;stroke-opacity:1"
     d="m 8.066311,1.9523733 c 0,0 0.768138,-1.18551463 1.296646,0.062556 C 9.812236,3.0759737 9.233763,4.4724521 8.871295,4.9515185 8.498875,5.4437319 7.411456,6.4972832 7.182439,6.7787223 6.953422,7.0601174 5.686196,8.8905532 6.909909,9.9023231 8.136593,10.91658 9.854937,10.302561 9.833639,8.7915703 9.812339,7.2805883 7.311779,7.4646518 7.38485,8.9985194 c 0.01863,0.4894387 0.123424,0.7682477 0.123424,0.7682477 0,0 -1.448909,-1.728449 0.687279,-2.6815538 0.791287,-0.3530664 1.830934,0.1503655 2.309171,1.082295 0.349196,0.6804395 0.178986,1.8397997 -0.359792,2.3785697 -1.057891,1.057885 -2.580711,1.030751 -3.467705,0.69461 C 5.332673,10.731142 4.326998,8.9380885 5.272271,7.3008258 5.664109,6.6221632 5.877608,6.2313272 7.656597,5.104941 9.260835,4.0891609 8.929701,2.3978686 8.830371,2.1807705 8.561562,1.5705679 8.231877,1.7355103 8.066311,1.9524161 Z"
     id="path2652-9"
     sodipodi:nodetypes="csssssccsssscscc" />
  <path
     id="path25289-2"
     style="fill:url(#linearGradient17);fill-opacity:1;stroke:none;stroke-width:0.0389403px;stroke-linecap:butt;stroke-linejoin:miter;stroke-opacity:1"
     d="m 8.773921,1.4435196 c -0.0083,-3.48e-5 -0.01651,6.072e-4 -0.02481,0.0015 0.523541,0.5285414 1.845496,2.4196998 -2.215702,5.356068 -1.799412,1.3010618 -1.531752,2.7765215 -0.45986,4.1089374 0.188644,0.138267 0.391935,0.250445 0.603689,0.33069 0.886989,0.336155 2.409763,0.36324 3.467651,-0.694649 0.53878,-0.538753 0.709032,-1.6980503 0.359835,-2.3785264 C 10.026486,7.2355937 8.98683,6.7321041 8.195544,7.0851709 6.059354,8.0383079 7.508266,9.7668091 7.508266,9.7668091 c 0,0 -0.10485,-0.278873 -0.123446,-0.7683376 C 7.31175,7.4645925 9.812361,7.2805428 9.833662,8.7915337 9.854992,10.302519 8.136598,10.916556 6.909912,9.9023101 5.686203,8.8905288 6.953422,7.0600985 7.18244,6.778695 7.411465,6.4972585 8.498863,5.4436466 8.871282,4.9514362 9.233751,4.4723596 9.812213,3.0758972 9.362935,2.0148663 9.181261,1.5858648 8.971298,1.4444171 8.773925,1.4435031 Z" />
  <path
     id="path25643-2"
     style="fill:url(#linearGradient18);fill-opacity:1;stroke:none;stroke-width:0.0389403px;stroke-linecap:butt;stroke-linejoin:miter;stroke-opacity:1"
     d="M 6.890068,7.2120633 C 5.248491,9.4381061 7.143313,11.760564 9.483709,10.468824 10.333577,9.9997591 10.554958,8.5434877 9.816324,7.8668759 8.800135,6.9360452 6.582587,7.7704429 7.508282,9.7667791 c 0,0 -0.104848,-0.278886 -0.123446,-0.7683733 C 7.311756,7.4645469 9.812366,7.2805388 9.833665,8.7915234 9.855015,10.302522 8.136602,10.916563 6.909917,9.9022991 5.977109,9.1310567 6.491253,7.885994 6.890057,7.2120633 Z" />
  <path
     id="path30388-8"
     style="fill:url(#linearGradient19);fill-opacity:1;stroke:none;stroke-width:0.0389403px;stroke-linecap:butt;stroke-linejoin:miter;stroke-opacity:1"
     d="m 8.726838,6.972017 c -0.02182,1.489e-4 -0.0436,6.076e-4 -0.06534,0.00173 C 8.501007,6.982747 8.343922,7.01862 8.195557,7.0848036 7.61254,7.3449403 7.297878,7.6628814 7.146615,7.9876462 6.985094,8.929807 7.508278,9.7664591 7.508278,9.7664591 6.582584,7.7701157 8.800131,6.9357256 9.816316,7.866555 10.554953,8.5431085 10.33357,9.9993921 9.483705,10.468461 9.21163,10.618638 8.945732,10.719413 8.690556,10.777738 L 8.936304,11.28019 C 9.364163,11.141288 9.782012,10.908515 10.144898,10.545652 10.683675,10.006857 10.853927,8.8475425 10.504731,8.1670832 10.128313,7.4335481 9.404015,6.965531 8.726837,6.9716479 Z m 1.104084,1.9451781 c -3.62e-4,0.00782 -6.36e-4,0.014528 -0.0011,0.021979 4.27e-4,-0.00782 7.03e-4,-0.014322 0.0011,-0.021979 z m -0.0122,0.1373517 c -7.11e-4,0.00762 -0.0031,0.014894 -0.0038,0.022589 0.0011,-0.00762 0.0033,-0.014931 0.0038,-0.022589 z m -0.02282,0.1363596 c -3.98e-4,0.00122 -7.12e-4,0.00396 -0.0012,0.0061 3.96e-4,-0.00122 7.08e-4,-0.00406 0.0012,-0.0061 z m -0.02855,0.1123827 c -0.0024,0.0061 -0.0038,0.011769 -0.0061,0.017396 0.0024,-0.00615 0.0038,-0.011772 0.0061,-0.017396 z m -0.03933,0.1182542 c -0.0034,0.00754 -0.0061,0.014298 -0.008,0.021826 0.0033,-0.0075 0.0062,-0.014275 0.008,-0.021826 z m -0.04991,0.1174248 c -0.0024,0.0042 -0.0041,0.0075 -0.0062,0.01098 0.0024,-0.0042 0.0041,-0.0075 0.0062,-0.01098 z m -0.05257,0.09941 c -0.003,0.0041 -0.0057,0.0074 -0.006,0.01234 0.0031,-0.005 0.0057,-0.0076 0.006,-0.01234 z m -0.06179,0.09818 c -0.0045,0.0061 -0.0079,0.01174 -0.01249,0.01751 0.0045,-0.0061 0.008,-0.01176 0.01249,-0.01751 z m -0.07345,0.09805 c -0.0031,0.0034 -0.0059,0.0061 -0.0076,0.0093 0.0031,-0.0034 0.0059,-0.0061 0.0076,-0.0093 z m -0.07055,0.07975 c -0.0043,0.005 -0.007,0.0075 -0.01158,0.01233 0.0043,-0.005 0.0077,-0.0075 0.01158,-0.01233 z m -0.08192,0.07977 c -0.0061,0.0061 -0.0115,0.01044 -0.0172,0.01515 0.006,-0.0061 0.01147,-0.01041 0.0172,-0.01515 z m -0.0915,0.07616 c -0.0059,0.0041 -0.01111,0.0075 -0.01663,0.01226 0.0061,-0.0041 0.01126,-0.0075 0.01663,-0.01226 z m -0.089,0.06299 c -0.0047,0.0034 -0.0088,0.0061 -0.01317,0.0092 0.0048,-0.0034 0.0088,-0.0061 0.01317,-0.0092 z m -0.09636,0.05819 c -0.007,0.005 -0.01488,0.0075 -0.02229,0.01225 0.007,-0.0041 0.01493,-0.0075 0.02229,-0.01225 z m -0.108456,0.05532 c -0.006,0.0034 -0.01193,0.0061 -0.01799,0.0075 0.0061,-0.0034 0.01206,-0.0061 0.01799,-0.0075 z m -0.07651,0.03219 c -0.02674,0.0109 -0.05391,0.0209 -0.08131,0.02982 0.02746,-0.01006 0.05454,-0.0194 0.08131,-0.02982 z m -0.123067,0.04385 c -0.02995,0.01003 -0.06038,0.01717 -0.09104,0.02507 0.03065,-0.0075 0.06107,-0.01552 0.09104,-0.02507 z m -0.126032,0.03414 c -0.04291,0.01035 -0.08634,0.01786 -0.130364,0.0248 0.04401,-0.0061 0.08745,-0.01486 0.130364,-0.0248 z" />
  <path
     style="fill:url(#linearGradient20);fill-opacity:1;stroke:none;stroke-width:0.0389403px;stroke-linecap:butt;stroke-linejoin:miter;stroke-opacity:1"
     d="m 9.149133,9.9959801 c 0.13968,0.7138159 0.229121,1.1702869 0.229121,1.1702869 0.0862,0.457261 0.293667,1.361722 -0.459972,1.839636 C 8.058834,13.55097 7.62785,12.933353 7.62785,12.933353 7.493193,12.798661 7.502637,12.286816 7.989672,12.353454 c 0.580957,0.07941 0.943106,0.170398 0.606241,-1.298791 -0.06024,-0.262734 -0.126408,-0.557729 -0.195094,-0.86895 z"
     id="path27384-9"
     sodipodi:nodetypes="ccscsscc" />
  <path
     id="path27666-7"
     style="fill:#f6ebff;fill-opacity:0.197812;stroke:none;stroke-width:0.0389403px;stroke-linecap:butt;stroke-linejoin:miter;stroke-opacity:1"
     d="M 8.358025,2.9822215 C 8.06311,3.5133079 7.949404,4.1718075 7.947606,4.8966807 8.034746,4.8264737 8.114372,4.754072 8.187344,4.6800591 8.152214,3.936917 8.256794,3.3799363 8.391641,2.9829352 Z m -0.0642,2.6225666 C 8.198415,5.7061808 8.104854,5.8064767 8.006854,5.908334 c 0.04286,0.3860559 0.105905,0.7818423 0.181401,1.1802432 0.0023,-0.00167 0.0048,-0.00287 0.0073,-0.00287 C 8.312769,7.0335782 8.43554,7.0008352 8.561022,6.984719 8.44832,6.4077795 8.434961,6.3415142 8.320365,5.753235 8.310565,5.703117 8.302475,5.654706 8.293815,5.6057861 Z m 0.416507,2.141217 c -0.128377,0.00976 -0.229421,0.00319 -0.351476,0.040571 0.474672,2.2604099 1.155483,4.2800559 0.666437,5.1418959 0.624057,-0.492774 0.434768,-1.328329 0.352997,-1.762141 0,0 -0.346487,-1.7749644 -0.667958,-3.4203016 z" />
  <path
     id="path31535-3"
     style="fill:url(#linearGradient22);fill-opacity:1;stroke:none;stroke-width:0.0389403px;stroke-linecap:butt;stroke-linejoin:miter;stroke-opacity:1"
     d="m 8.726838,6.972017 c -0.02182,1.489e-4 -0.0436,6.076e-4 -0.06534,0.00173 C 8.501007,6.982747 8.343922,7.01862 8.195557,7.0848036 7.61254,7.3449403 7.297878,7.6628814 7.146615,7.9876462 6.985094,8.929807 7.508278,9.7664591 7.508278,9.7664591 6.582584,7.7701157 8.800131,6.9357256 9.816316,7.866555 10.554953,8.5431085 10.33357,9.9993921 9.483705,10.468461 9.21163,10.618638 8.945732,10.719413 8.690556,10.777738 L 8.936304,11.28019 C 9.364163,11.141288 9.782012,10.908515 10.144898,10.545652 10.683675,10.006857 10.853927,8.8475425 10.504731,8.1670832 10.128313,7.4335481 9.404015,6.965531 8.726837,6.9716479 Z m 1.104084,1.9451781 c -3.62e-4,0.00782 -6.36e-4,0.014528 -0.0011,0.021979 4.27e-4,-0.00782 7.03e-4,-0.014322 0.0011,-0.021979 z m -0.0122,0.1373517 c -7.11e-4,0.00762 -0.0031,0.014894 -0.0038,0.022589 0.0011,-0.00762 0.0033,-0.014931 0.0038,-0.022589 z m -0.02282,0.1363596 c -3.98e-4,0.00122 -7.12e-4,0.00396 -0.0012,0.0061 3.96e-4,-0.00122 7.08e-4,-0.00406 0.0012,-0.0061 z m -0.02855,0.1123827 c -0.0024,0.0061 -0.0038,0.011769 -0.0061,0.017396 0.0024,-0.00615 0.0038,-0.011772 0.0061,-0.017396 z m -0.03933,0.1182542 c -0.0034,0.00754 -0.0061,0.014298 -0.008,0.021826 0.0033,-0.0075 0.0062,-0.014275 0.008,-0.021826 z m -0.04991,0.1174248 c -0.0024,0.0042 -0.0041,0.0075 -0.0062,0.01098 0.0024,-0.0042 0.0041,-0.0075 0.0062,-0.01098 z m -0.05257,0.09941 c -0.003,0.0041 -0.0057,0.0074 -0.006,0.01234 0.0031,-0.005 0.0057,-0.0076 0.006,-0.01234 z m -0.06179,0.09818 c -0.0045,0.0061 -0.0079,0.01174 -0.01249,0.01751 0.0045,-0.0061 0.008,-0.01176 0.01249,-0.01751 z m -0.07345,0.09805 c -0.0031,0.0034 -0.0059,0.0061 -0.0076,0.0093 0.0031,-0.0034 0.0059,-0.0061 0.0076,-0.0093 z m -0.07055,0.07975 c -0.0043,0.005 -0.007,0.0075 -0.01158,0.01233 0.0043,-0.005 0.0077,-0.0075 0.01158,-0.01233 z m -0.08192,0.07977 c -0.0061,0.0061 -0.0115,0.01044 -0.0172,0.01515 0.006,-0.0061 0.01147,-0.01041 0.0172,-0.01515 z m -0.0915,0.07616 c -0.0059,0.0041 -0.01111,0.0075 -0.01663,0.01226 0.0061,-0.0041 0.01126,-0.0075 0.01663,-0.01226 z m -0.089,0.06299 c -0.0047,0.0034 -0.0088,0.0061 -0.01317,0.0092 0.0048,-0.0034 0.0088,-0.0061 0.01317,-0.0092 z m -0.09636,0.05819 c -0.007,0.005 -0.01488,0.0075 -0.02229,0.01225 0.007,-0.0041 0.01493,-0.0075 0.02229,-0.01225 z m -0.108456,0.05532 c -0.006,0.0034 -0.01193,0.0061 -0.01799,0.0075 0.0061,-0.0034 0.01206,-0.0061 0.01799,-0.0075 z m -0.07651,0.03219 c -0.02674,0.0109 -0.05391,0.0209 -0.08131,0.02982 0.02746,-0.01006 0.05454,-0.0194 0.08131,-0.02982 z m -0.123067,0.04385 c -0.02995,0.01003 -0.06038,0.01717 -0.09104,0.02507 0.03065,-0.0075 0.06107,-0.01552 0.09104,-0.02507 z m -0.126032,0.03414 c -0.04291,0.01035 -0.08634,0.01786 -0.130364,0.0248 0.04401,-0.0061 0.08745,-0.01486 0.130364,-0.0248 z" />
</svg>
