<?xml version="1.0" encoding="UTF-8" standalone="no"?>
<!-- Generator: Gravit.io -->

<svg
   style="isolation:isolate"
   viewBox="0 0 16 16"
   width="16pt"
   height="16pt"
   version="1.1"
   id="svg2"
   sodipodi:docname="gpodder.svg"
   inkscape:version="1.3 (0e150ed6c4, 2023-07-21)"
   xmlns:inkscape="http://www.inkscape.org/namespaces/inkscape"
   xmlns:sodipodi="http://sodipodi.sourceforge.net/DTD/sodipodi-0.dtd"
   xmlns:xlink="http://www.w3.org/1999/xlink"
   xmlns="http://www.w3.org/2000/svg"
   xmlns:svg="http://www.w3.org/2000/svg">
  <defs
     id="defs2">
    <linearGradient
       id="linearGradient2"
       inkscape:collect="always">
      <stop
         style="stop-color:#00ffcc;stop-opacity:1"
         offset="0"
         id="stop3" />
      <stop
         style="stop-color:#2a7fff;stop-opacity:1"
         offset="1"
         id="stop4" />
    </linearGradient>
    <linearGradient
       inkscape:collect="always"
       xlink:href="#linearGradient2"
       id="linearGradient4"
       x1="4.856411"
       y1="12.105237"
       x2="11.627818"
       y2="6.2021275"
       gradientUnits="userSpaceOnUse" />
  </defs>
  <sodipodi:namedview
     id="namedview2"
     pagecolor="#ffffff"
     bordercolor="#000000"
     borderopacity="0.25"
     inkscape:showpageshadow="2"
     inkscape:pageopacity="0.0"
     inkscape:pagecheckerboard="0"
     inkscape:deskcolor="#d1d1d1"
     inkscape:document-units="pt"
     inkscape:zoom="16.948466"
     inkscape:cx="7.2572941"
     inkscape:cy="7.1097881"
     inkscape:window-width="1920"
     inkscape:window-height="994"
     inkscape:window-x="0"
     inkscape:window-y="0"
     inkscape:window-maximized="1"
     inkscape:current-layer="svg2" />
  <linearGradient
     id="_lgradient_3"
     x1="0.55232507"
     y1="-0.079787232"
     x2="0.55232507"
     y2="0.92021275"
     gradientTransform="matrix(11.999879,0,0,13,2.0000083,1.5)"
     gradientUnits="userSpaceOnUse">
    <stop
       offset="0%"
       stop-opacity="1"
       style="stop-color:rgb(26,108,255)"
       id="stop1" />
    <stop
       offset="100%"
       stop-opacity="1"
       style="stop-color:rgb(197,34,255)"
       id="stop2" />
  </linearGradient>
  <path
     d="m 5.5569955,8.223766 v 0 h 1.3838929 c 0.1225105,0 0.2218582,-0.098468 0.2218582,-0.2196171 V 7.6138723 c 0,-0.1214255 -0.099348,-0.2198936 -0.2218582,-0.2198936 H 5.488345 v -0.5531915 0 h 1.4525434 c 0.1225105,0 0.2218582,-0.098468 0.2218582,-0.219617 V 6.2308936 C 7.1627466,6.1094681 7.0633989,6.011 6.9408884,6.011 H 5.488345 v -0.5531915 0 h 1.4525434 c 0.1225105,0 0.2218582,-0.098468 0.2218582,-0.219617 V 4.8479149 c 0,-0.1214255 -0.099348,-0.2198936 -0.2218582,-0.2198936 H 5.4900194 C 5.5109495,4.0997234 5.7314123,3.5990851 6.1106644,3.2231915 6.50973,2.8276596 7.0483292,2.606383 7.6120445,2.606383 v 0 h 0.775806 c 0.5637152,0 1.1023145,0.2212766 1.5013795,0.6168085 0.379253,0.3758936 0.599715,0.8765319 0.620646,1.4048298 H 9.1843076 v 0 0 c -0.1222313,0 -0.2215791,0.098468 -0.2215791,0.2198936 v 0.3902766 c 0,0.1211489 0.099348,0.219617 0.2215791,0.219617 H 10.511549 V 6.011 H 9.1843076 v 0 0 0 c -0.1222313,0 -0.2215791,0.098468 -0.2215791,0.2198936 v 0.3902766 c 0,0.1211489 0.099348,0.219617 0.2215791,0.219617 H 10.511549 V 7.3939787 H 9.1843076 v 0 0 0 0 c -0.1222313,0 -0.2215791,0.098468 -0.2215791,0.2198936 v 0.3902766 c 0,0.121149 0.099348,0.2196171 0.2215791,0.2196171 H 10.442899 C 10.348575,8.5827872 10.159088,8.9135957 9.88923,9.1810638 9.490165,9.5765957 8.9515657,9.7978723 8.3878505,9.7978723 H 7.6120445 C 7.0483292,9.7978723 6.50973,9.5765957 6.1106644,9.1810638 5.8408067,8.9135957 5.6513202,8.5827872 5.5569955,8.223766 Z m 1.8848182,5.446447 V 12.819404 C 6.847401,12.773766 6.2605233,12.654 5.6948546,12.461489 5.0055592,12.226383 4.3637053,11.87234 3.7971993,11.418723 3.2586002,10.984468 2.812093,10.447872 2.491166,9.8393617 2.1702392,9.2280851 2.002799,8.5504255 2.0000083,7.8644681 v 0 C 1.998334,7.5591064 2.2472616,7.3101702 2.5553515,7.3085106 v 0 c 0.30809,-0.00166 0.5592501,0.2450639 0.5609245,0.5504256 v 0 c 0.00279,0.5117021 0.1255802,1.0151064 0.3627871,1.4659574 0.2539509,0.4757447 0.5999938,0.8961704 1.0213849,1.2336174 0.4660419,0.373404 0.9906876,0.663829 1.5571936,0.85468 0.6223193,0.212979 1.2753359,0.320852 1.9311433,0.320852 v 0 0 0 0 0 0 0 0 h 0.1417659 c 0.2358116,0 0.4275306,0.190021 0.4275306,0.423744 v 1.512426 H 9.734348 c 0.154045,0 0.279067,0.123915 0.279067,0.276596 v 0.276595 C 10.013415,14.376085 9.888393,14.5 9.734348,14.5 H 8.1305508 v 0 H 7.8693441 v 0 H 6.2655465 c -0.154045,0 -0.2790671,-0.123915 -0.2790671,-0.276596 v -0.276595 c 0,-0.152681 0.1250221,-0.276596 0.2790671,-0.276596 z M 12.883619,7.933617 v 0 c 0.0076,-0.3053617 0.263439,-0.5471064 0.570691,-0.5393617 v 0 c 0.307254,0.00774 0.551716,0.2616596 0.545577,0.5670213 v 0 C 13.985933,8.4646809 13.885469,8.9597872 13.695704,9.43 c -0.184185,0.4619149 -0.446507,0.893404 -0.767434,1.275106 -0.33209,0.392766 -0.717202,0.735745 -1.144175,1.020639 -0.443716,0.298723 -0.923711,0.539361 -1.431613,0.716383 v 0 c -0.289672,0.10234 -0.608366,-0.04841 -0.71162,-0.336064 v 0 c -0.103256,-0.28766 0.04939,-0.604362 0.340462,-0.706702 v 0 c 0.415808,-0.14383 0.812083,-0.342979 1.177662,-0.589149 0.340461,-0.229575 0.647435,-0.503405 0.912548,-0.8159577 0.24558,-0.2904255 0.446508,-0.6195744 0.588832,-0.973617 0.136743,-0.3457447 0.21209,-0.713617 0.223253,-1.0870213 z M 7.6120445,1.5 h 0.775806 c 0.8595262,0 1.6827735,0.3374468 2.2911405,0.9404255 0.608366,0.6029788 0.948827,1.4189362 0.948827,2.2708511 v 2.9817021 c 0,0.8519149 -0.340461,1.6678724 -0.948827,2.2708511 -0.608367,0.6029782 -1.4316143,0.9404252 -2.2911405,0.9404252 h -0.775806 c -0.8595261,0 -1.6827736,-0.337447 -2.2911396,-0.9404252 C 4.7125391,9.3608511 4.3720773,8.5448936 4.3720773,7.6929787 V 4.7112766 c 0,-0.8519149 0.3404618,-1.6678723 0.9488276,-2.2708511 C 5.9292709,1.8374468 6.7525184,1.5 7.6120445,1.5 Z"
     fill-rule="evenodd"
     id="path2"
     style="fill:url(#linearGradient4);stroke-width:0.277828;fill-opacity:1" />
</svg>
