<?xml version="1.0" encoding="UTF-8" standalone="no"?>
<svg
   width="16"
   height="16"
   version="1.1"
   id="svg24"
   sodipodi:docname="grub-customizer.svg"
   inkscape:version="1.3 (0e150ed6c4, 2023-07-21)"
   xmlns:inkscape="http://www.inkscape.org/namespaces/inkscape"
   xmlns:sodipodi="http://sodipodi.sourceforge.net/DTD/sodipodi-0.dtd"
   xmlns:xlink="http://www.w3.org/1999/xlink"
   xmlns="http://www.w3.org/2000/svg"
   xmlns:svg="http://www.w3.org/2000/svg">
  <sodipodi:namedview
     id="namedview24"
     pagecolor="#ffffff"
     bordercolor="#000000"
     borderopacity="0.25"
     inkscape:showpageshadow="2"
     inkscape:pageopacity="0.0"
     inkscape:pagecheckerboard="0"
     inkscape:deskcolor="#d1d1d1"
     inkscape:zoom="23.850985"
     inkscape:cx="7.0437343"
     inkscape:cy="6.184231"
     inkscape:window-width="1920"
     inkscape:window-height="994"
     inkscape:window-x="0"
     inkscape:window-y="0"
     inkscape:window-maximized="1"
     inkscape:current-layer="svg24" />
  <defs
     id="defs22">
    <linearGradient
       id="linearGradient26"
       inkscape:collect="always">
      <stop
         style="stop-color:#ff00ff;stop-opacity:1"
         offset="0"
         id="stop26" />
      <stop
         style="stop-color:#ffdd55;stop-opacity:1"
         offset="1"
         id="stop27" />
    </linearGradient>
    <style
       id="current-color-scheme"
       type="text/css">&#10;   .ColorScheme-Text { color:#d5c289; } .ColorScheme-Highlight { color:#5294e2; }&#10;  </style>
    <linearGradient
       id="arrongin"
       x1="0"
       x2="0"
       y1="0"
       y2="1">
      <stop
         offset="0%"
         style="stop-color:#dd9b44; stop-opacity:1"
         id="stop1" />
      <stop
         offset="100%"
         style="stop-color:#ad6c16; stop-opacity:1"
         id="stop2" />
    </linearGradient>
    <linearGradient
       id="aurora"
       x1="0"
       x2="0"
       y1="0"
       y2="1">
      <stop
         offset="0%"
         style="stop-color:#09D4DF; stop-opacity:1"
         id="stop3" />
      <stop
         offset="100%"
         style="stop-color:#9269F4; stop-opacity:1"
         id="stop4" />
    </linearGradient>
    <linearGradient
       id="fitdance"
       x1="0"
       x2="0"
       y1="0"
       y2="1">
      <stop
         offset="0%"
         style="stop-color:#1AD6AB; stop-opacity:1"
         id="stop5" />
      <stop
         offset="100%"
         style="stop-color:#329DB6; stop-opacity:1"
         id="stop6" />
    </linearGradient>
    <linearGradient
       id="oomox"
       x1="0"
       x2="0"
       y1="0"
       y2="1"
       xlink:href="#aurora">
      <stop
         offset="0%"
         style="stop-color:#303b3d; stop-opacity:1"
         id="stop7" />
      <stop
         offset="100%"
         style="stop-color:#bc985d; stop-opacity:1"
         id="stop8" />
    </linearGradient>
    <linearGradient
       id="rainblue"
       x1="0"
       x2="0"
       y1="0"
       y2="1">
      <stop
         offset="0%"
         style="stop-color:#00F260; stop-opacity:1"
         id="stop9" />
      <stop
         offset="100%"
         style="stop-color:#0575E6; stop-opacity:1"
         id="stop10" />
    </linearGradient>
    <linearGradient
       id="sunrise"
       x1="0"
       x2="0"
       y1="0"
       y2="1">
      <stop
         offset="0%"
         style="stop-color: #FF8501; stop-opacity:1"
         id="stop11" />
      <stop
         offset="100%"
         style="stop-color: #FFCB01; stop-opacity:1"
         id="stop12" />
    </linearGradient>
    <linearGradient
       id="telinkrin"
       x1="0"
       x2="0"
       y1="0"
       y2="1">
      <stop
         offset="0%"
         style="stop-color: #b2ced6; stop-opacity:1"
         id="stop13" />
      <stop
         offset="100%"
         style="stop-color: #6da5b7; stop-opacity:1"
         id="stop14" />
    </linearGradient>
    <linearGradient
       id="60spsycho"
       x1="0"
       x2="0"
       y1="0"
       y2="1">
      <stop
         offset="0%"
         style="stop-color: #df5940; stop-opacity:1"
         id="stop15" />
      <stop
         offset="25%"
         style="stop-color: #d8d15f; stop-opacity:1"
         id="stop16" />
      <stop
         offset="50%"
         style="stop-color: #e9882a; stop-opacity:1"
         id="stop17" />
      <stop
         offset="100%"
         style="stop-color: #279362; stop-opacity:1"
         id="stop18" />
    </linearGradient>
    <linearGradient
       id="90ssummer"
       x1="0"
       x2="0"
       y1="0"
       y2="1">
      <stop
         offset="0%"
         style="stop-color: #f618c7; stop-opacity:1"
         id="stop19" />
      <stop
         offset="20%"
         style="stop-color: #94ffab; stop-opacity:1"
         id="stop20" />
      <stop
         offset="50%"
         style="stop-color: #fbfd54; stop-opacity:1"
         id="stop21" />
      <stop
         offset="100%"
         style="stop-color: #0f83ae; stop-opacity:1"
         id="stop22" />
    </linearGradient>
    <linearGradient
       inkscape:collect="always"
       xlink:href="#linearGradient26"
       id="linearGradient28"
       x1="1.4999977"
       y1="7.9999996"
       x2="14.499997"
       y2="7.9999996"
       gradientUnits="userSpaceOnUse" />
  </defs>
  <g
     id="g26"
     style="fill:url(#linearGradient28)">
    <path
       style="fill:url(#linearGradient28);stroke-width:0.813467"
       class="ColorScheme-Text"
       d="M 8.135685,2.3828448 A 5.6793749,5.6928956 0 0 0 3.0591851,5.2268493 c -1.5673124,2.7226538 -0.6305,6.2141337 2.088125,7.7884347 2.7186249,1.574302 6.2026249,0.645032 7.7691249,-2.077622 1.567312,-2.7226533 0.6305,-6.2165764 -2.088125,-7.7916923 A 5.6712499,5.6847513 0 0 0 8.135685,2.3828448 Z M 7.98781,3.1940214 a 4.8749999,4.8866057 0 0 1 4.875,4.8866056 4.8749999,4.8866057 0 0 1 -4.875,4.886606 A 4.8749999,4.8866057 0 0 1 3.1128101,8.080627 4.8749999,4.8866057 0 0 1 7.98781,3.1940214 Z"
       font-family="sans-serif"
       font-weight="400"
       overflow="visible"
       id="path22" />
    <path
       style="fill:url(#linearGradient28);stroke-width:0.813467"
       class="ColorScheme-Text"
       d="m 9.061935,1.4999981 h -2.1385 v 1.4228166 c 0.7053231,-0.1451892 1.4331444,-0.1437965 2.1385,0.00407 V 1.5008125 Z m -4.3753124,0.9699912 -1.629875,1.3886104 0.80275,0.9594036 C 4.3057388,4.2511733 4.8635282,3.7824257 5.4983101,3.4407949 Z m 6.6039994,0.010588 -0.806812,0.9634758 c 0.04639,0.023782 0.09245,0.048215 0.138125,0.073299 0.577557,0.3365079 1.086272,0.7798208 1.499062,1.3063526 l 0.817375,-0.9756923 z m -9.4331243,3.4344694 -0.3575,2.1134569 1.2309374,0.217454 C 2.7087539,7.5240589 2.8345939,6.8055813 3.1006226,6.1349435 Z m 12.2573743,0.00244 -1.237437,0.2182684 c 0.268214,0.6704667 0.396524,1.3886511 0.377,2.1101992 L 14.499997,8.0260599 Z M 2.9974351,9.7404441 1.8997476,10.375703 2.9803726,12.226098 4.0683101,11.59654 C 3.5887076,11.057425 3.2242445,10.425725 2.9974351,9.7404441 Z m 9.9945619,0.00244 c -0.110418,0.3439279 -0.255799,0.6755169 -0.433875,0.9895379 -0.179408,0.311252 -0.39013,0.603252 -0.628875,0.871445 l 1.087125,0.628743 1.057875,-1.863426 z M 5.2269351,12.570603 4.7930601,13.767007 6.80806,14.486967 7.2346225,13.31011 c -0.65897,-0.0968 -1.2939062,-0.31789 -1.8711874,-0.651548 -0.045906,-0.02859 -0.091455,-0.05791 -0.1365,-0.08796 z m 5.5363749,0.01222 c -0.613031,0.379249 -1.2974732,0.628173 -2.0109375,0.731362 l 0.430625,1.185816 2.0052495,-0.746022 z"
       overflow="visible"
       id="path23"
       sodipodi:nodetypes="ccccccccccccccccccccccccccccccccccccccccccccccccc" />
    <path
       style="fill:url(#linearGradient28);fill-opacity:1;stroke-width:0.813467"
       class="ColorScheme-Text"
       d="M 7.70181,4.0198577 A 4.0535624,4.0632126 0 0 0 4.4664351,6.0412836 4.0730624,4.082759 0 0 0 5.958185,11.607127 4.0641249,4.0738003 0 0 0 11.50756,10.11997 4.0706249,4.0803157 0 0 0 10.01581,4.5557555 4.0429999,4.052625 0 0 0 7.70181,4.0198577 Z m 0.286,0.8030322 a 3.2499999,3.2577371 0 0 1 3.25,3.2577371 3.2499999,3.2577371 0 0 1 -3.25,3.257737 A 3.2499999,3.2577371 0 0 1 4.7378101,8.080627 3.2499999,3.2577371 0 0 1 7.98781,4.8228899 Z"
       font-family="sans-serif"
       font-weight="400"
       overflow="visible"
       id="path24" />
  </g>
</svg>
