<?xml version="1.0" encoding="UTF-8" standalone="no"?>
<svg
   width="16"
   height="16"
   version="1.1"
   id="svg22"
   sodipodi:docname="system-help.svg"
   inkscape:version="1.3 (0e150ed6c4, 2023-07-21)"
   xmlns:inkscape="http://www.inkscape.org/namespaces/inkscape"
   xmlns:sodipodi="http://sodipodi.sourceforge.net/DTD/sodipodi-0.dtd"
   xmlns:xlink="http://www.w3.org/1999/xlink"
   xmlns="http://www.w3.org/2000/svg"
   xmlns:svg="http://www.w3.org/2000/svg">
  <sodipodi:namedview
     id="namedview22"
     pagecolor="#ffffff"
     bordercolor="#000000"
     borderopacity="0.25"
     inkscape:showpageshadow="2"
     inkscape:pageopacity="0.0"
     inkscape:pagecheckerboard="0"
     inkscape:deskcolor="#d1d1d1"
     inkscape:zoom="23.96875"
     inkscape:cx="7.1342894"
     inkscape:cy="7.9895698"
     inkscape:window-width="1920"
     inkscape:window-height="994"
     inkscape:window-x="0"
     inkscape:window-y="0"
     inkscape:window-maximized="1"
     inkscape:current-layer="svg22" />
  <defs
     id="defs22">
    <linearGradient
       id="linearGradient22"
       inkscape:collect="always">
      <stop
         style="stop-color:#ff5555;stop-opacity:1"
         offset="0"
         id="stop23" />
      <stop
         style="stop-color:#d35fbc;stop-opacity:1"
         offset="0.51714146"
         id="stop25" />
      <stop
         style="stop-color:#c83737;stop-opacity:1"
         offset="1"
         id="stop24" />
    </linearGradient>
    <style
       id="current-color-scheme"
       type="text/css">&#10;   .ColorScheme-Text { color:#d5c289; } .ColorScheme-Highlight { color:#5294e2; }&#10;  </style>
    <linearGradient
       id="arrongin"
       x1="0%"
       x2="0%"
       y1="0%"
       y2="100%">
      <stop
         offset="0%"
         style="stop-color:#dd9b44; stop-opacity:1"
         id="stop1" />
      <stop
         offset="100%"
         style="stop-color:#ad6c16; stop-opacity:1"
         id="stop2" />
    </linearGradient>
    <linearGradient
       id="aurora"
       x1="0%"
       x2="0%"
       y1="0%"
       y2="100%">
      <stop
         offset="0%"
         style="stop-color:#09D4DF; stop-opacity:1"
         id="stop3" />
      <stop
         offset="100%"
         style="stop-color:#9269F4; stop-opacity:1"
         id="stop4" />
    </linearGradient>
    <linearGradient
       id="fitdance"
       x1="0%"
       x2="0%"
       y1="0%"
       y2="100%">
      <stop
         offset="0%"
         style="stop-color:#1AD6AB; stop-opacity:1"
         id="stop5" />
      <stop
         offset="100%"
         style="stop-color:#329DB6; stop-opacity:1"
         id="stop6" />
    </linearGradient>
    <linearGradient
       id="oomox"
       x1="0"
       x2="0"
       y1="0"
       y2="16"
       gradientUnits="userSpaceOnUse"
       gradientTransform="matrix(0.9375,0,0,0.9375,0.5,0.5)">
      <stop
         offset="0%"
         style="stop-color:#303b3d; stop-opacity:1"
         id="stop7" />
      <stop
         offset="100%"
         style="stop-color:#bc985d; stop-opacity:1"
         id="stop8" />
    </linearGradient>
    <linearGradient
       id="rainblue"
       x1="0%"
       x2="0%"
       y1="0%"
       y2="100%">
      <stop
         offset="0%"
         style="stop-color:#00F260; stop-opacity:1"
         id="stop9" />
      <stop
         offset="100%"
         style="stop-color:#0575E6; stop-opacity:1"
         id="stop10" />
    </linearGradient>
    <linearGradient
       id="sunrise"
       x1="0%"
       x2="0%"
       y1="0%"
       y2="100%">
      <stop
         offset="0%"
         style="stop-color: #FF8501; stop-opacity:1"
         id="stop11" />
      <stop
         offset="100%"
         style="stop-color: #FFCB01; stop-opacity:1"
         id="stop12" />
    </linearGradient>
    <linearGradient
       id="telinkrin"
       x1="0%"
       x2="0%"
       y1="0%"
       y2="100%">
      <stop
         offset="0%"
         style="stop-color: #b2ced6; stop-opacity:1"
         id="stop13" />
      <stop
         offset="100%"
         style="stop-color: #6da5b7; stop-opacity:1"
         id="stop14" />
    </linearGradient>
    <linearGradient
       id="60spsycho"
       x1="0%"
       x2="0%"
       y1="0%"
       y2="100%">
      <stop
         offset="0%"
         style="stop-color: #df5940; stop-opacity:1"
         id="stop15" />
      <stop
         offset="25%"
         style="stop-color: #d8d15f; stop-opacity:1"
         id="stop16" />
      <stop
         offset="50%"
         style="stop-color: #e9882a; stop-opacity:1"
         id="stop17" />
      <stop
         offset="100%"
         style="stop-color: #279362; stop-opacity:1"
         id="stop18" />
    </linearGradient>
    <linearGradient
       id="90ssummer"
       x1="0%"
       x2="0%"
       y1="0%"
       y2="100%">
      <stop
         offset="0%"
         style="stop-color: #f618c7; stop-opacity:1"
         id="stop19" />
      <stop
         offset="20%"
         style="stop-color: #94ffab; stop-opacity:1"
         id="stop20" />
      <stop
         offset="50%"
         style="stop-color: #fbfd54; stop-opacity:1"
         id="stop21" />
      <stop
         offset="100%"
         style="stop-color: #0f83ae; stop-opacity:1"
         id="stop22" />
    </linearGradient>
    <linearGradient
       inkscape:collect="always"
       xlink:href="#linearGradient22"
       id="linearGradient24"
       x1="2.5396764"
       y1="13.145651"
       x2="13.570237"
       y2="2.9735036"
       gradientUnits="userSpaceOnUse"
       gradientTransform="matrix(0.8,0,0,0.8,1.6,1.6)" />
  </defs>
  <path
     style="fill:url(#linearGradient24);fill-opacity:1;stroke-width:0.75"
     class="ColorScheme-Text"
     d="M 8,2 C 4.682,2 2,4.682 2,8 c 0,3.318 2.682,6 6,6 3.318,0 6,-2.682 6,-6 C 14,4.682 11.318,2 8,2 Z m 0,0.75 c 2.9025,0 5.25,2.3475 5.25,5.25 0,2.9025 -2.3475,5.25 -5.25,5.25 C 5.0975,13.25 2.75,10.9025 2.75,8 2.75,5.0975 5.0975,2.75 8,2.75 Z m 0.047248,1.5 C 7.1082501,4.232 6.1242501,4.6025 5.8197501,5.3285 c -0.1755,0.4035 -0.0045,1.125 0.5865,1.125 0.345,0 0.4897504,-0.23625 0.516,-0.4455 C 6.94175,5.849 6.88925,5.717 6.85175,5.58575 6.809,5.4365 6.9815,5.141 7.1795,5.02325 7.34525,4.925 7.529,4.889 7.5545,4.883 8.15075,4.736 8.7365,5.07425 8.98475,5.46875 9.23225,5.86325 8.95475,6.4565 8.5625,7.03925 8.17025,7.62125 7.76375,8.282 7.766,8.984 7.766,9.25175 7.725499,9.34475 7.742,9.4535 7.755497,9.539752 8.04425,9.5405 8.258,9.500001 8.23925,8.81975 8.381,8.1395 9.008,7.6715 9.6702498,7.14275 10.3175,6.4835 10.25,5.70275 10.235,4.9505 9.3665,4.358 8.4455,4.27325 A 3.2925,3.2925 0 0 0 8.047248,4.25 Z m -0.258,6.16425 c -0.4522503,0.111 -0.7214999,0.685499 -0.4222503,1.0545 0.306,0.46575 1.1655,0.33975 1.3125,-0.187499 0.153,-0.410251 -0.2302495,-0.873751 -0.7027495,-0.867001 -0.071246,-0.0039 -0.1230001,-0.01578 -0.1875002,0 z"
     id="path22" />
</svg>
