<?xml version="1.0" encoding="UTF-8" standalone="no"?>
<svg
   viewBox="0 0 16 16"
   version="1.1"
   id="svg1"
   sodipodi:docname="help-about.svg"
   inkscape:version="1.4.1 (unknown)"
   width="16"
   height="16"
   xmlns:inkscape="http://www.inkscape.org/namespaces/inkscape"
   xmlns:sodipodi="http://sodipodi.sourceforge.net/DTD/sodipodi-0.dtd"
   xmlns:xlink="http://www.w3.org/1999/xlink"
   xmlns="http://www.w3.org/2000/svg"
   xmlns:svg="http://www.w3.org/2000/svg">
  <sodipodi:namedview
     id="namedview1"
     pagecolor="#ffffff"
     bordercolor="#000000"
     borderopacity="0.25"
     inkscape:showpageshadow="2"
     inkscape:pageopacity="0.0"
     inkscape:pagecheckerboard="0"
     inkscape:deskcolor="#d1d1d1"
     inkscape:zoom="20.570379"
     inkscape:cx="8.7504465"
     inkscape:cy="12.007557"
     inkscape:window-width="1920"
     inkscape:window-height="992"
     inkscape:window-x="0"
     inkscape:window-y="0"
     inkscape:window-maximized="1"
     inkscape:current-layer="svg1" />
  <defs
     id="defs3051">
    <linearGradient
       id="linearGradient1"
       inkscape:collect="always">
      <stop
         style="stop-color:#00ccff;stop-opacity:1"
         offset="0"
         id="stop1" />
      <stop
         style="stop-color:#aa87de;stop-opacity:1"
         offset="1"
         id="stop2" />
    </linearGradient>
    <style
       type="text/css"
       id="current-color-scheme">
      .ColorScheme-Text {
        color:#d8d8d8;
      }
      </style>
    <linearGradient
       inkscape:collect="always"
       xlink:href="#linearGradient1"
       id="linearGradient2"
       x1="12.571274"
       y1="18.847048"
       x2="13.104897"
       y2="9.6575069"
       gradientUnits="userSpaceOnUse"
       gradientTransform="matrix(0.8125,0,0,0.8125,-0.93749999,-0.93749999)" />
  </defs>
  <path
     style="fill:url(#linearGradient2);fill-opacity:1;stroke:none;stroke-width:0.8125"
     d="M 8,1.5 C 4.399,1.5 1.5,4.399 1.5,8 c 0,3.601 2.899,6.5 6.5,6.5 3.601,0 6.5,-2.899 6.5,-6.5 C 14.5,4.399 11.601,1.5 8,1.5 Z m 0,0.8125 c 3.150875,0 5.6875,2.536625 5.6875,5.6875 0,3.150875 -2.536625,5.6875 -5.6875,5.6875 C 4.849125,13.6875 2.3125,11.150875 2.3125,8 2.3125,4.849125 4.849125,2.3125 8,2.3125 Z m -0.8125,1.625 v 1.625 h 1.625 v -1.625 z m 0,2.4375 v 5.6875 h 1.625 V 6.375 Z"
     class="ColorScheme-Text"
     id="path1" />
</svg>
