<?xml version="1.0" encoding="UTF-8" standalone="no"?>
<svg
   width="16"
   height="16"
   viewBox="0 0 16 16"
   fill="none"
   version="1.1"
   id="svg19"
   sodipodi:docname="org.kde.Ikona.svg"
   inkscape:version="1.3 (0e150ed6c4, 2023-07-21)"
   xmlns:inkscape="http://www.inkscape.org/namespaces/inkscape"
   xmlns:sodipodi="http://sodipodi.sourceforge.net/DTD/sodipodi-0.dtd"
   xmlns:xlink="http://www.w3.org/1999/xlink"
   xmlns="http://www.w3.org/2000/svg"
   xmlns:svg="http://www.w3.org/2000/svg">
  <sodipodi:namedview
     id="namedview19"
     pagecolor="#ffffff"
     bordercolor="#000000"
     borderopacity="0.25"
     inkscape:showpageshadow="2"
     inkscape:pageopacity="0.0"
     inkscape:pagecheckerboard="0"
     inkscape:deskcolor="#d1d1d1"
     inkscape:zoom="16.948466"
     inkscape:cx="9.5583874"
     inkscape:cy="10.177912"
     inkscape:window-width="1920"
     inkscape:window-height="994"
     inkscape:window-x="0"
     inkscape:window-y="0"
     inkscape:window-maximized="1"
     inkscape:current-layer="svg19" />
  <path
     d="M 5.0696997,2.4410465 C 4.7611829,2.1751804 5.0142271,1.5755024 5.4397595,1.6755733 6.2269986,1.8809442 6.9891556,2.1714561 7.7680378,2.4059442 7.9564904,2.4768911 8.195085,2.503781 8.30907,2.6889901 8.4222991,2.8450715 8.3569436,3.0429721 8.3516335,3.2184723 7.977006,3.4186117 7.5423464,3.3738001 7.1365698,3.4477398 5.8683295,3.6471365 4.7224313,4.4245623 4.0430991,5.4895009 3.6069284,6.163859 3.3523648,6.9539866 3.3295721,7.7538127 3.3174145,7.8859976 3.3318523,8.0301309 3.2672618,8.1526061 3.1114813,8.3870944 2.723185,8.4296671 2.5271308,8.2220606 2.4275922,8.116008 2.4351825,7.9621659 2.4291037,7.8284842 2.3987098,6.4207693 3.0347354,5.0429141 4.0347422,4.050408 4.5871769,3.4925513 5.2908245,3.1191398 6.0013062,2.7920468 5.6897558,2.6785271 5.3531345,2.6150503 5.0696997,2.4410465 Z"
     fill="url(#paint0_linear_660_17)"
     stroke="url(#paint1_linear_660_17)"
     stroke-width="0.330506"
     id="path1"
     style="fill:url(#paint0_linear_660_17);stroke:url(#paint1_linear_660_17)" />
  <path
     d="m 12.881291,8.1548454 c -0.01823,-0.2277708 0.123909,-0.4689977 0.366281,-0.5063396 0.236371,-0.04854 0.49697,0.1232299 0.522084,0.3629493 0.06834,1.2053478 -0.312383,2.4226319 -1.022054,3.4039329 -0.616322,0.831914 -1.474962,1.460783 -2.428618,1.872967 0.103341,0.0284 0.205923,0.05831 0.309273,0.08814 0.186931,0.05973 0.394376,0.103755 0.541032,0.241915 0.143624,0.175511 0.0494,0.402572 0.02127,0.599708 -0.180096,0.06793 -0.373106,0.159894 -0.568391,0.09109 C 9.9056002,14.12933 9.1951184,13.928371 8.4815796,13.737242 8.2505761,13.678262 8.0286843,13.589363 7.8204841,13.475122 c -0.019003,-0.242024 0.01596,-0.483938 0.167171,-0.683368 1.1763028,-0.0029 2.3746419,-0.351023 3.2674979,-1.12468 1.036479,-0.859579 1.613239,-2.1881439 1.626131,-3.5122206 z"
     fill="url(#paint2_linear_660_17)"
     stroke="url(#paint3_linear_660_17)"
     stroke-width="0.330506"
     id="path2"
     style="fill:url(#paint2_linear_660_17);stroke:url(#paint3_linear_660_17)" />
  <path
     fill-rule="evenodd"
     clip-rule="evenodd"
     d="M 9.5705525,2.8435752 C 10.386662,1.9944618 11.786368,1.8331521 12.802277,2.4276128 c 0.48408,0.3017 0.89748,0.7303643 1.098845,1.2650781 0.318386,0.7975871 0.218036,1.7490168 -0.277378,2.4569809 C 13.205787,6.7336749 12.538679,7.133965 11.818284,7.2318006 11.108546,7.3370964 10.369183,7.1257519 9.8045906,6.6955912 9.6336181,6.5551931 9.4793607,6.3953764 9.338026,6.2258503 8.5614337,5.2408147 8.6693282,3.7188264 9.5705525,2.8435752 Z m 2.7606485,0.362206 C 11.591836,2.7367833 10.529519,2.9735211 10.050031,3.6919482 9.5401588,4.3655635 9.670091,5.3827088 10.308394,5.9323525 10.565992,6.1451938 10.87831,6.29979 11.214175,6.3430943 12.051599,6.4752793 12.926186,5.8875519 13.12533,5.0817517 13.22179,4.6418816 13.17621,4.1512259 12.912517,3.7726046 12.762827,3.5448225 12.559904,3.3558886 12.331201,3.2057812 Z"
     stroke-width="0.330506"
     id="path3"
     style="fill:url(#linearGradient2);fill-opacity:1" />
  <path
     fill-rule="evenodd"
     clip-rule="evenodd"
     d="M 1.922318,9.7246162 C 1.9101594,9.493863 2.0522536,9.2175446 2.3250534,9.2474161 c 0.6075433,-0.004 1.2150752,8.187e-4 1.8226184,0.0056 0.6439818,0.0051 1.2879758,0.010228 1.9319584,0.0048 0.050213,0.0019 0.1017715,0.0016 0.1538252,0.0013 0.1968869,-0.0012 0.4006312,-0.0025 0.5635019,0.1144917 0.1170198,0.076923 0.1299433,0.2255323 0.131455,0.3509898 0.00845,0.7320234 0.00723,1.4642654 0.00601,2.1966504 -8.554e-4,0.514652 -0.00172,1.029389 7.995e-4,1.544127 0.00224,0.17551 -0.013682,0.350258 -0.041037,0.524241 -0.1884535,0.0948 -0.3936201,0.161313 -0.6086656,0.147878 -0.579039,-0.0035 -1.1582439,-0.0029 -1.7375384,-0.0024 -0.6720089,6.56e-4 -1.3441404,0.0012 -2.0162718,-0.0044 -0.1419452,-0.0021 -0.283246,-0.01879 -0.4238911,-0.0355 -0.011447,-0.0014 -0.022882,-0.0027 -0.034316,-0.004 -0.010425,-0.02349 -0.021271,-0.04697 -0.03215,-0.07055 -0.059768,-0.129202 -0.1205278,-0.26059 -0.1160292,-0.405956 -0.00988,-1.296402 -0.015198,-2.593624 -0.00303,-3.8900776 z m 2.4415337,0.3923058 c -0.5117279,4.48e-4 -1.0234889,9.62e-4 -1.5349943,-0.0025 0.00828,0.809088 0.0069,1.618699 0.0055,2.428281 -3.89e-4,0.231428 -7.89e-4,0.462749 -9.557e-4,0.69407 0.08348,6.55e-4 0.1669048,0.0012 0.2503074,0.0016 0.2088449,0.0014 0.4175234,0.0026 0.6266018,0.0059 0.770514,0.0037 1.5410393,0.0059 2.3115531,-7.65e-4 -0.00224,-1.043346 -0.00376,-2.086583 7.56e-4,-3.129863 -0.1694497,0.0022 -0.3381435,0.003 -0.5075931,0.0037 -0.3836404,-0.0013 -0.7674031,-8.96e-4 -1.151187,-5.14e-4 z"
     stroke-width="0.330506"
     id="path4"
     style="fill:url(#linearGradient20);fill-opacity:1" />
  <defs
     id="defs19">
    <linearGradient
       id="linearGradient3"
       inkscape:collect="always">
      <stop
         style="stop-color:#2a7fff;stop-opacity:1"
         offset="0"
         id="stop3" />
      <stop
         style="stop-color:#00ccff;stop-opacity:1"
         offset="1"
         id="stop20" />
    </linearGradient>
    <linearGradient
       id="linearGradient1"
       inkscape:collect="always">
      <stop
         style="stop-color:#ff9955;stop-opacity:1"
         offset="0"
         id="stop1" />
      <stop
         style="stop-color:#ff00ff;stop-opacity:1"
         offset="1"
         id="stop2" />
    </linearGradient>
    <linearGradient
       id="paint0_linear_660_17"
       x1="40.372002"
       y1="67.266602"
       x2="40.372002"
       y2="5.9999499"
       gradientUnits="userSpaceOnUse"
       gradientTransform="matrix(0.11112917,0,0,0.10921663,0.91512394,1.0091288)">
      <stop
         stop-color="#02AA93"
         id="stop4" />
      <stop
         offset="1"
         stop-color="#67FF80"
         id="stop5" />
    </linearGradient>
    <linearGradient
       id="paint1_linear_660_17"
       x1="40.372002"
       y1="67.266602"
       x2="40.372002"
       y2="5.9999499"
       gradientUnits="userSpaceOnUse"
       gradientTransform="matrix(0.11112917,0,0,0.10921663,0.91512394,1.0091288)">
      <stop
         stop-color="#02AA93"
         id="stop6" />
      <stop
         offset="1"
         stop-color="#67FF80"
         id="stop7" />
    </linearGradient>
    <linearGradient
       id="paint2_linear_660_17"
       x1="88.918999"
       y1="122"
       x2="88.918999"
       y2="60.7155"
       gradientUnits="userSpaceOnUse"
       gradientTransform="matrix(0.11112917,0,0,0.10921663,0.91512394,1.0091288)">
      <stop
         stop-color="#02AA93"
         id="stop8" />
      <stop
         offset="1"
         stop-color="#67FF80"
         id="stop9" />
    </linearGradient>
    <linearGradient
       id="paint3_linear_660_17"
       x1="88.918999"
       y1="122"
       x2="88.918999"
       y2="60.7155"
       gradientUnits="userSpaceOnUse"
       gradientTransform="matrix(0.11112917,0,0,0.10921663,0.91512394,1.0091288)">
      <stop
         stop-color="#02AA93"
         id="stop10" />
      <stop
         offset="1"
         stop-color="#67FF80"
         id="stop11" />
    </linearGradient>
    <linearGradient
       id="paint4_linear_660_17"
       x1="94.810501"
       y1="57.2202"
       x2="94.810501"
       y2="9.7379398"
       gradientUnits="userSpaceOnUse"
       gradientTransform="matrix(0.11112917,0,0,0.10921663,0.91512394,1.0091288)">
      <stop
         stop-color="#02AA93"
         id="stop12" />
      <stop
         offset="1"
         stop-color="#67FF80"
         id="stop13" />
    </linearGradient>
    <linearGradient
       id="paint5_linear_660_17"
       x1="94.810501"
       y1="57.2202"
       x2="94.810501"
       y2="9.7379398"
       gradientUnits="userSpaceOnUse"
       gradientTransform="matrix(0.11112917,0,0,0.10921663,0.91512394,1.0091288)">
      <stop
         stop-color="#02AA93"
         id="stop14" />
      <stop
         offset="1"
         stop-color="#67FF80"
         id="stop15" />
    </linearGradient>
    <linearGradient
       id="paint6_linear_660_17"
       x1="17.187799"
       y1="114.93"
       x2="57.639099"
       y2="79.349297"
       gradientUnits="userSpaceOnUse"
       gradientTransform="matrix(0.11112917,0,0,0.10921663,0.91512394,1.0091288)">
      <stop
         stop-color="#FE0844"
         id="stop16" />
      <stop
         offset="1"
         stop-color="#FEB302"
         id="stop17" />
    </linearGradient>
    <linearGradient
       id="paint7_linear_660_17"
       x1="17.187799"
       y1="114.93"
       x2="57.639099"
       y2="79.349297"
       gradientUnits="userSpaceOnUse"
       gradientTransform="matrix(0.11112917,0,0,0.10921663,0.91512394,1.0091288)">
      <stop
         stop-color="#FE0844"
         id="stop18" />
      <stop
         offset="1"
         stop-color="#FEB302"
         id="stop19" />
    </linearGradient>
    <linearGradient
       inkscape:collect="always"
       xlink:href="#linearGradient1"
       id="linearGradient2"
       x1="8.8186446"
       y1="4.6656046"
       x2="14.084008"
       y2="4.6656046"
       gradientUnits="userSpaceOnUse" />
    <linearGradient
       inkscape:collect="always"
       xlink:href="#linearGradient3"
       id="linearGradient20"
       x1="1.9152535"
       y1="11.692204"
       x2="6.9354306"
       y2="11.692204"
       gradientUnits="userSpaceOnUse" />
  </defs>
</svg>
