<?xml version="1.0" encoding="UTF-8" standalone="no"?>
<svg
   style="isolation:isolate"
   width="16"
   height="16"
   viewBox="0 0 16 16"
   version="1.1"
   id="svg23"
   sodipodi:docname="jdownloader.svg"
   inkscape:version="1.3 (0e150ed6c4, 2023-07-21)"
   xmlns:inkscape="http://www.inkscape.org/namespaces/inkscape"
   xmlns:sodipodi="http://sodipodi.sourceforge.net/DTD/sodipodi-0.dtd"
   xmlns:xlink="http://www.w3.org/1999/xlink"
   xmlns="http://www.w3.org/2000/svg"
   xmlns:svg="http://www.w3.org/2000/svg">
  <sodipodi:namedview
     id="namedview23"
     pagecolor="#ffffff"
     bordercolor="#000000"
     borderopacity="0.25"
     inkscape:showpageshadow="2"
     inkscape:pageopacity="0.0"
     inkscape:pagecheckerboard="0"
     inkscape:deskcolor="#d1d1d1"
     inkscape:zoom="23.96875"
     inkscape:cx="9.26206"
     inkscape:cy="5.4445893"
     inkscape:window-width="1920"
     inkscape:window-height="994"
     inkscape:window-x="0"
     inkscape:window-y="0"
     inkscape:window-maximized="1"
     inkscape:current-layer="svg23" />
  <defs
     id="defs22">
    <linearGradient
       id="linearGradient26"
       inkscape:collect="always">
      <stop
         style="stop-color:#2a7fff;stop-opacity:1"
         offset="0"
         id="stop26" />
      <stop
         style="stop-color:#00ffcc;stop-opacity:1"
         offset="1"
         id="stop27" />
    </linearGradient>
    <linearGradient
       id="linearGradient24"
       inkscape:collect="always">
      <stop
         style="stop-color:#2ad4ff;stop-opacity:1"
         offset="0"
         id="stop24" />
      <stop
         style="stop-color:#ff5fff;stop-opacity:1;"
         offset="1"
         id="stop25" />
    </linearGradient>
    <style
       id="current-color-scheme"
       type="text/css">&#10;   .ColorScheme-Text { color:#d5c289; } .ColorScheme-Highlight { color:#5294e2; }&#10;  </style>
    <linearGradient
       id="arrongin"
       x1="0%"
       x2="0%"
       y1="0%"
       y2="100%">
      <stop
         offset="0%"
         style="stop-color:#dd9b44; stop-opacity:1"
         id="stop1" />
      <stop
         offset="100%"
         style="stop-color:#ad6c16; stop-opacity:1"
         id="stop2" />
    </linearGradient>
    <linearGradient
       id="aurora"
       x1="0%"
       x2="0%"
       y1="0%"
       y2="100%">
      <stop
         offset="0%"
         style="stop-color:#09D4DF; stop-opacity:1"
         id="stop3" />
      <stop
         offset="100%"
         style="stop-color:#9269F4; stop-opacity:1"
         id="stop4" />
    </linearGradient>
    <linearGradient
       id="fitdance"
       x1="0%"
       x2="0%"
       y1="0%"
       y2="100%">
      <stop
         offset="0%"
         style="stop-color:#1AD6AB; stop-opacity:1"
         id="stop5" />
      <stop
         offset="100%"
         style="stop-color:#329DB6; stop-opacity:1"
         id="stop6" />
    </linearGradient>
    <linearGradient
       id="oomox"
       x1="0%"
       x2="0%"
       y1="0%"
       y2="100%">
      <stop
         offset="0%"
         style="stop-color:#303b3d; stop-opacity:1"
         id="stop7" />
      <stop
         offset="100%"
         style="stop-color:#bc985d; stop-opacity:1"
         id="stop8" />
    </linearGradient>
    <linearGradient
       id="rainblue"
       x1="0%"
       x2="0%"
       y1="0%"
       y2="100%">
      <stop
         offset="0%"
         style="stop-color:#00F260; stop-opacity:1"
         id="stop9" />
      <stop
         offset="100%"
         style="stop-color:#0575E6; stop-opacity:1"
         id="stop10" />
    </linearGradient>
    <linearGradient
       id="sunrise"
       x1="0%"
       x2="0%"
       y1="0%"
       y2="100%">
      <stop
         offset="0%"
         style="stop-color: #FF8501; stop-opacity:1"
         id="stop11" />
      <stop
         offset="100%"
         style="stop-color: #FFCB01; stop-opacity:1"
         id="stop12" />
    </linearGradient>
    <linearGradient
       id="telinkrin"
       x1="0%"
       x2="0%"
       y1="0%"
       y2="100%">
      <stop
         offset="0%"
         style="stop-color: #b2ced6; stop-opacity:1"
         id="stop13" />
      <stop
         offset="100%"
         style="stop-color: #6da5b7; stop-opacity:1"
         id="stop14" />
    </linearGradient>
    <linearGradient
       id="60spsycho"
       x1="0%"
       x2="0%"
       y1="0%"
       y2="100%">
      <stop
         offset="0%"
         style="stop-color: #df5940; stop-opacity:1"
         id="stop15" />
      <stop
         offset="25%"
         style="stop-color: #d8d15f; stop-opacity:1"
         id="stop16" />
      <stop
         offset="50%"
         style="stop-color: #e9882a; stop-opacity:1"
         id="stop17" />
      <stop
         offset="100%"
         style="stop-color: #279362; stop-opacity:1"
         id="stop18" />
    </linearGradient>
    <linearGradient
       id="90ssummer"
       x1="0%"
       x2="0%"
       y1="0%"
       y2="100%">
      <stop
         offset="0%"
         style="stop-color: #f618c7; stop-opacity:1"
         id="stop19" />
      <stop
         offset="20%"
         style="stop-color: #94ffab; stop-opacity:1"
         id="stop20" />
      <stop
         offset="50%"
         style="stop-color: #fbfd54; stop-opacity:1"
         id="stop21" />
      <stop
         offset="100%"
         style="stop-color: #0f83ae; stop-opacity:1"
         id="stop22" />
    </linearGradient>
    <linearGradient
       inkscape:collect="always"
       xlink:href="#linearGradient24"
       id="linearGradient25"
       x1="8"
       y1="13.699445"
       x2="8.0004377"
       y2="2.3005531"
       gradientUnits="userSpaceOnUse" />
    <linearGradient
       inkscape:collect="always"
       xlink:href="#linearGradient26"
       id="linearGradient27"
       x1="0"
       y1="15.413"
       x2="16"
       y2="0.58700001"
       gradientUnits="userSpaceOnUse" />
  </defs>
  <g
     opacity="0.4"
     id="g22"
     transform="matrix(0.875,0,0,0.87683799,1,0.98529608)">
    <path
       class="ColorScheme-Text"
       fill-rule="evenodd"
       d="m 3.804,15.402 c 0.036,0.003 0.067,0.007 0.103,0.009 0.028,0.002 0.067,0.001 0.096,0.002 L 4,14.919 5.733,13.327 v -0.531 l 0.8,-0.797 v -0.398 l 0.4,-0.398 V 10.142 L 6.4,9.611 H 5.333 L 4.8,9.08 H 3.467 L 2.933,9.611 v 1.327 L 4.004,11.871 4,13.061 3.6,13.459 v 1.725 z M 6.133,5.099 5.733,5.497 h 0.4 L 6.267,5.63 H 6.4 L 6.533,5.497 Z M 11.2,6.957 H 9.6 L 8.667,7.886 v 1.327 l 0.666,0.663 h 0.934 l 0.4,0.398 v 0.398 l 0.266,0.266 v 1.592 l 1.013,1.066 1.672,-1.665 L 13.6,10.407 14.933,9.08 H 14.4 L 13.067,7.753 V 7.222 h -1.6 z M 16,7.487 V 6.09 C 16,5.488 15.989,4.95 15.961,4.471 15.947,4.231 15.928,4.006 15.904,3.794 15.88,3.582 15.851,3.384 15.816,3.198 15.781,3.013 15.74,2.84 15.692,2.68 15.643,2.519 15.588,2.37 15.526,2.232 15.486,2.145 15.437,2.069 15.39,1.99 L 15.2,2.179 H 14.4 L 13.6,2.976 13.067,2.445 h -1.6 l -0.8,0.796 v 0.663 h 0.8 V 3.506 H 12 v 0.531 l -0.267,0.265 -1.066,0.018 -0.4,0.381 H 9.733 v 0.53 l -0.4,0.399 v 0.796 h 0.8 L 10.667,5.895 H 11.2 V 6.16 l 0.533,0.531 H 12 V 6.426 L 11.467,5.895 H 12 l 0.533,0.531 H 13.2 L 12.8,6.028 13.2,5.63 h 0.4 L 14,6.028 h -0.4 l -0.4,0.398 0.393,0.391 0.007,0.405 h -0.533 l 1.6,1.593 h 0.266 L 15.2,8.549 15.733,8.018 15.2,7.487 Z M 9.867,4.435 V 4.037 l 0.4,-0.398 V 4.435 Z M 14,12.265 v -0.832 l 0.533,-0.495 v 1.327 z M 8.533,0.587 H 5.535 C 5.484,0.587 5.448,0.59 5.397,0.59 l -0.464,0.528 0.8,0.796 V 2.746 L 6.667,3.772 H 7.2 V 3.241 L 8,2.445 V 1.914 L 8.533,1.383 Z M 7.867,3.506 h 0.4 l 0.4,0.398 h -0.8 z m -3.6,4.38 h -0.4 l -0.4,0.398 h 0.8 z M 0.71,1.824 C 0.703,1.834 0.694,1.842 0.687,1.852 0.608,1.968 0.537,2.095 0.474,2.232 0.412,2.37 0.357,2.519 0.308,2.68 0.26,2.84 0.219,3.013 0.184,3.198 0.149,3.384 0.12,3.582 0.096,3.794 0.072,4.006 0.053,4.231 0.039,4.471 0.011,4.95 0,5.488 0,6.09 v 1.397 l 0.533,0.531 h 0.8 L 2.667,9.345 V 7.753 l 0.8,-0.796 H 4 L 4.8,6.16 H 5.6 L 5.2,5.762 6,4.833 5.2,4.037 H 4 V 5.099 H 3.467 L 2.933,4.568 V 4.037 l 0.8,-0.796 H 4.4 V 2.71 L 3.6,1.914 H 2.267 V 2.71 H 1.6 Z M 4,0.624 C 3.972,0.625 3.935,0.624 3.907,0.626 3.666,0.64 3.439,0.658 3.226,0.682 3.013,0.706 2.814,0.734 2.627,0.769 2.461,0.801 2.308,0.839 2.161,0.88 L 2.667,1.383 H 4 Z"
       id="path22"
       style="fill:url(#linearGradient27)" />
  </g>
  <path
     class="ColorScheme-Text"
     d="M 11.924377,7.5808717 H 9.7570005 V 2.3005531 H 6.2438752 V 7.5808717 H 4.0756249 L 8,13.699445 Z"
     id="path23"
     style="fill:url(#linearGradient25)" />
</svg>
