<?xml version="1.0" encoding="UTF-8" standalone="no"?>
<!-- Generator: Gravit.io -->

<svg
   style="isolation:isolate"
   viewBox="0 0 16 16"
   width="16pt"
   height="16pt"
   version="1.1"
   id="svg7"
   sodipodi:docname="julia.svg"
   inkscape:version="1.3 (0e150ed6c4, 2023-07-21)"
   xmlns:inkscape="http://www.inkscape.org/namespaces/inkscape"
   xmlns:sodipodi="http://sodipodi.sourceforge.net/DTD/sodipodi-0.dtd"
   xmlns:xlink="http://www.w3.org/1999/xlink"
   xmlns="http://www.w3.org/2000/svg"
   xmlns:svg="http://www.w3.org/2000/svg">
  <defs
     id="defs7">
    <linearGradient
       id="linearGradient12"
       inkscape:collect="always">
      <stop
         style="stop-color:#00ffff;stop-opacity:1"
         offset="0"
         id="stop12" />
      <stop
         style="stop-color:#ffcc00;stop-opacity:1"
         offset="1"
         id="stop13" />
    </linearGradient>
    <linearGradient
       id="linearGradient10"
       inkscape:collect="always">
      <stop
         style="stop-color:#00ff66;stop-opacity:1;"
         offset="0"
         id="stop10" />
      <stop
         style="stop-color:#9955ff;stop-opacity:1"
         offset="1"
         id="stop11" />
    </linearGradient>
    <linearGradient
       id="linearGradient7"
       inkscape:collect="always">
      <stop
         style="stop-color:#ff00ff;stop-opacity:1"
         offset="0"
         id="stop8" />
      <stop
         style="stop-color:#ffb380;stop-opacity:1"
         offset="1"
         id="stop9" />
    </linearGradient>
    <linearGradient
       inkscape:collect="always"
       xlink:href="#linearGradient7"
       id="linearGradient9"
       x1="4.8666667"
       y1="4.6777778"
       x2="11.222222"
       y2="4.6777778"
       gradientUnits="userSpaceOnUse" />
    <linearGradient
       inkscape:collect="always"
       xlink:href="#linearGradient10"
       id="linearGradient11"
       x1="1.4"
       y1="11.322222"
       x2="7.7555556"
       y2="11.322222"
       gradientUnits="userSpaceOnUse" />
    <linearGradient
       inkscape:collect="always"
       xlink:href="#linearGradient12"
       id="linearGradient13"
       x1="8.3333333"
       y1="11.322222"
       x2="14.688889"
       y2="11.322222"
       gradientUnits="userSpaceOnUse" />
  </defs>
  <sodipodi:namedview
     id="namedview7"
     pagecolor="#ffffff"
     bordercolor="#000000"
     borderopacity="0.25"
     inkscape:showpageshadow="2"
     inkscape:pageopacity="0.0"
     inkscape:pagecheckerboard="0"
     inkscape:deskcolor="#d1d1d1"
     inkscape:document-units="pt"
     inkscape:zoom="11.984375"
     inkscape:cx="12.182529"
     inkscape:cy="14.226858"
     inkscape:window-width="1920"
     inkscape:window-height="994"
     inkscape:window-x="0"
     inkscape:window-y="0"
     inkscape:window-maximized="1"
     inkscape:current-layer="svg7" />
  <linearGradient
     id="_lgradient_3"
     x1="0.031182563"
     y1="0.10866628"
     x2="0.95837951"
     y2="0.97519469"
     gradientTransform="matrix(6.3555556,0,0,6.3555556,4.8666667,1.5)"
     gradientUnits="userSpaceOnUse">
    <stop
       offset="0%"
       stop-opacity="1"
       style="stop-color:rgb(165,248,106)"
       id="stop1" />
    <stop
       offset="97.91666666666666%"
       stop-opacity="1"
       style="stop-color:rgb(47,206,146)"
       id="stop2" />
  </linearGradient>
  <path
     d="m 4.8666667,4.6777778 c 0,-0.8435556 0.3351111,-1.6524445 0.9302222,-2.2475556 C 6.392,1.8351111 7.2008889,1.5 8.0444444,1.5 8.888,1.5 9.6968889,1.8351111 10.292,2.4302222 c 0.595111,0.5951111 0.930222,1.404 0.930222,2.2475556 0,0.8435555 -0.335111,1.6524444 -0.930222,2.2475555 C 9.6968889,7.5204444 8.888,7.8555556 8.0444444,7.8555556 7.2008889,7.8555556 6.392,7.5204444 5.7968889,6.9253333 5.2017778,6.3302222 4.8666667,5.5213333 4.8666667,4.6777778 Z m 1.1555555,0 c 0,-0.5373334 0.2137778,-1.0515556 0.5922222,-1.43 0.3784445,-0.3784445 0.8926667,-0.5922222 1.43,-0.5922222 0.5373334,0 1.0515556,0.2137777 1.43,0.5922222 0.3784445,0.3784444 0.5922226,0.8926666 0.5922226,1.43 0,0.5373333 -0.2137781,1.0515555 -0.5922226,1.43 C 9.096,6.4862222 8.5817778,6.7 8.0444444,6.7 7.5071111,6.7 6.9928889,6.4862222 6.6144444,6.1077778 6.236,5.7293333 6.0222222,5.2151111 6.0222222,4.6777778 Z"
     fill-rule="evenodd"
     id="path2"
     style="fill:url(#linearGradient9)" />
  <linearGradient
     id="_lgradient_4"
     x1="0.031182563"
     y1="0.10866628"
     x2="0.95837951"
     y2="0.97519469"
     gradientTransform="matrix(6.3555556,0,0,6.3555556,8.3333334,8.1444445)"
     gradientUnits="userSpaceOnUse">
    <stop
       offset="0%"
       stop-opacity="1"
       style="stop-color:rgb(199,81,251)"
       id="stop3" />
    <stop
       offset="97.5%"
       stop-opacity="1"
       style="stop-color:rgb(109,68,222)"
       id="stop4" />
  </linearGradient>
  <path
     d="m 8.3333333,11.322222 c 0,-0.843556 0.3351111,-1.6524442 0.9302223,-2.2475553 0.5951111,-0.5951111 1.4040004,-0.9302223 2.2475554,-0.9302223 0.843556,0 1.652445,0.3351112 2.247556,0.9302223 0.595111,0.5951111 0.930222,1.4039993 0.930222,2.2475553 0,0.843556 -0.335111,1.652445 -0.930222,2.247556 C 13.163556,14.164889 12.354667,14.5 11.511111,14.5 10.667556,14.5 9.8586667,14.164889 9.2635556,13.569778 8.6684444,12.974667 8.3333333,12.165778 8.3333333,11.322222 Z m 1.1555556,0 c 0,-0.537333 0.2137778,-1.051556 0.5922221,-1.4299998 C 10.459556,9.5137778 10.973778,9.3 11.511111,9.3 c 0.537333,0 1.051556,0.2137778 1.43,0.5922222 0.378445,0.3784438 0.592222,0.8926668 0.592222,1.4299998 0,0.537334 -0.213777,1.051556 -0.592222,1.43 -0.378444,0.378445 -0.892667,0.592222 -1.43,0.592222 -0.537333,0 -1.051555,-0.213777 -1.43,-0.592222 -0.3784443,-0.378444 -0.5922221,-0.892666 -0.5922221,-1.43 z"
     fill-rule="evenodd"
     id="path4"
     style="fill:url(#linearGradient13)" />
  <linearGradient
     id="_lgradient_5"
     x1="-0.014458464"
     y1="0.009839246"
     x2="1.0164566"
     y2="1.072293"
     gradientTransform="matrix(6.3555556,0,0,6.3555556,1.4,8.1444445)"
     gradientUnits="userSpaceOnUse">
    <stop
       offset="0%"
       stop-opacity="1"
       style="stop-color:rgb(249,212,35)"
       id="stop5" />
    <stop
       offset="51.56237565086822%"
       stop-opacity="1"
       style="stop-color:rgb(255,78,80)"
       id="stop6" />
    <stop
       offset="99.1304347826087%"
       stop-opacity="1"
       style="stop-color:rgb(138,35,135)"
       id="stop7" />
  </linearGradient>
  <path
     d="m 1.4,11.322222 c 0,-0.843556 0.3351111,-1.6524442 0.9302222,-2.2475553 0.5951111,-0.5951111 1.404,-0.9302223 2.2475556,-0.9302223 0.8435555,0 1.6524444,0.3351112 2.2475555,0.9302223 0.5951111,0.5951111 0.9302223,1.4039993 0.9302223,2.2475553 0,0.843556 -0.3351112,1.652445 -0.9302223,2.247556 C 6.2302222,14.164889 5.4213333,14.5 4.5777778,14.5 3.7342222,14.5 2.9253333,14.164889 2.3302222,13.569778 1.7351111,12.974667 1.4,12.165778 1.4,11.322222 Z m 1.1555556,0 c 0,-0.537333 0.2137777,-1.051556 0.5922222,-1.4299998 C 3.5262222,9.5137778 4.0404444,9.3 4.5777778,9.3 c 0.5373333,0 1.0515555,0.2137778 1.43,0.5922222 C 6.3862222,10.270666 6.6,10.784889 6.6,11.322222 c 0,0.537334 -0.2137778,1.051556 -0.5922222,1.43 -0.3784445,0.378445 -0.8926667,0.592222 -1.43,0.592222 -0.5373334,0 -1.0515556,-0.213777 -1.43,-0.592222 -0.3784445,-0.378444 -0.5922222,-0.892666 -0.5922222,-1.43 z"
     fill-rule="evenodd"
     id="path7"
     style="fill:url(#linearGradient11)" />
</svg>
