<?xml version="1.0" encoding="UTF-8" standalone="no"?>
<!-- Created with Inkscape (http://www.inkscape.org/) -->

<svg
   sodipodi:docname="kajongg.svg"
   version="1.0"
   inkscape:version="1.3 (0e150ed6c4, 2023-07-21)"
   sodipodi:version="0.32"
   id="svg2020"
   height="16"
   width="16"
   xmlns:inkscape="http://www.inkscape.org/namespaces/inkscape"
   xmlns:sodipodi="http://sodipodi.sourceforge.net/DTD/sodipodi-0.dtd"
   xmlns:xlink="http://www.w3.org/1999/xlink"
   xmlns="http://www.w3.org/2000/svg"
   xmlns:svg="http://www.w3.org/2000/svg"
   xmlns:rdf="http://www.w3.org/1999/02/22-rdf-syntax-ns#"
   xmlns:cc="http://creativecommons.org/ns#"
   xmlns:dc="http://purl.org/dc/elements/1.1/">
  <sodipodi:namedview
     id="base"
     pagecolor="#ffffff"
     bordercolor="#666666"
     borderopacity="1.0"
     inkscape:pageopacity="0.0"
     inkscape:pageshadow="2"
     inkscape:zoom="22.627418"
     inkscape:cx="5.8336308"
     inkscape:cy="11.954524"
     inkscape:document-units="px"
     inkscape:current-layer="layer1"
     inkscape:window-width="1920"
     inkscape:window-height="994"
     inkscape:window-x="0"
     inkscape:window-y="0"
     showguides="false"
     inkscape:guide-bbox="true"
     width="768px"
     height="561px"
     showgrid="false"
     inkscape:window-maximized="1"
     inkscape:showpageshadow="2"
     inkscape:pagecheckerboard="0"
     inkscape:deskcolor="#d1d1d1">
    <sodipodi:guide
       position="0,-200"
       orientation="0,768"
       id="guide3879"
       inkscape:locked="false" />
    <sodipodi:guide
       position="768,-200"
       orientation="-561,0"
       id="guide3881"
       inkscape:locked="false" />
    <sodipodi:guide
       position="768,361"
       orientation="0,-768"
       id="guide3883"
       inkscape:locked="false" />
    <sodipodi:guide
       position="0,361"
       orientation="561,0"
       id="guide3885"
       inkscape:locked="false" />
    <sodipodi:guide
       position="0,-200"
       orientation="0,768"
       id="guide3887"
       inkscape:locked="false" />
    <sodipodi:guide
       position="768,-200"
       orientation="-561,0"
       id="guide3889"
       inkscape:locked="false" />
    <sodipodi:guide
       position="768,361"
       orientation="0,-768"
       id="guide3891"
       inkscape:locked="false" />
    <sodipodi:guide
       position="0,361"
       orientation="561,0"
       id="guide3893"
       inkscape:locked="false" />
    <sodipodi:guide
       position="0,-200"
       orientation="0,256"
       id="guide3895"
       inkscape:locked="false" />
    <sodipodi:guide
       position="256,-200"
       orientation="-256,0"
       id="guide3897"
       inkscape:locked="false" />
    <sodipodi:guide
       position="256,56"
       orientation="0,-256"
       id="guide3899"
       inkscape:locked="false" />
    <sodipodi:guide
       position="0,56"
       orientation="256,0"
       id="guide3901"
       inkscape:locked="false" />
    <sodipodi:guide
       position="0,-200"
       orientation="0,256"
       id="guide3098"
       inkscape:locked="false" />
    <sodipodi:guide
       position="256,-200"
       orientation="-256,0"
       id="guide3100"
       inkscape:locked="false" />
    <sodipodi:guide
       position="256,56"
       orientation="0,-256"
       id="guide3102"
       inkscape:locked="false" />
    <sodipodi:guide
       position="0,56"
       orientation="256,0"
       id="guide3104"
       inkscape:locked="false" />
  </sodipodi:namedview>
  <defs
     id="defs2022">
    <linearGradient
       id="linearGradient23"
       inkscape:collect="always">
      <stop
         style="stop-color:#00d455;stop-opacity:1"
         offset="0"
         id="stop23" />
      <stop
         style="stop-color:#bc5fd3;stop-opacity:1"
         offset="1"
         id="stop24" />
    </linearGradient>
    <linearGradient
       gradientTransform="matrix(0.07497067,0,0,0.10497392,-364.63999,153.97718)"
       gradientUnits="userSpaceOnUse"
       x2="426.69501"
       y2="499.92099"
       y1="547.67499"
       id="a-6"
       x1="389.32001">
      <stop
         stop-color="#18222a"
         style="stop-color:#1e2b35;stop-opacity:1"
         id="stop216" />
      <stop
         stop-color="#566069"
         offset="1"
         style="stop-color:#6d7983;stop-opacity:1"
         id="stop218" />
    </linearGradient>
    <linearGradient
       id="b"
       y1="23.775"
       x1="22.540001"
       y2="37.804001"
       x2="36.896"
       gradientUnits="userSpaceOnUse"
       gradientTransform="matrix(0.07497067,0,0,0.10497392,335.71891,210.3038)">
      <stop
         stop-color="#292c2f"
         id="stop211" />
      <stop
         offset="1"
         stop-color="#292c2f"
         stop-opacity="0"
         id="stop213" />
    </linearGradient>
    <linearGradient
       id="linearGradient9734">
      <stop
         style="stop-color:#866767;stop-opacity:0.93170732;"
         offset="0"
         id="stop9736" />
      <stop
         style="stop-color:#110d0d;stop-opacity:0;"
         offset="1"
         id="stop9738" />
    </linearGradient>
    <linearGradient
       id="linearGradient8984">
      <stop
         style="stop-color:#d97914;stop-opacity:0.98823529"
         offset="0"
         id="stop8986" />
      <stop
         id="stop8988"
         offset="0.05147499"
         style="stop-color:#d27513;stop-opacity:0.98823529;" />
      <stop
         id="stop8990"
         offset="0.27578896"
         style="stop-color:#ccc912;stop-opacity:1" />
      <stop
         id="stop8992"
         offset="0.45709234"
         style="stop-color:#8ca021;stop-opacity:1" />
      <stop
         id="stop8994"
         offset="0.50264567"
         style="stop-color:#756347;stop-opacity:1" />
      <stop
         id="stop8996"
         offset="0.67643762"
         style="stop-color:#a78d49;stop-opacity:1" />
      <stop
         style="stop-color:#568226;stop-opacity:1"
         offset="0.78097403"
         id="stop8998" />
      <stop
         id="stop9000"
         offset="0.87736088"
         style="stop-color:#aace3f;stop-opacity:1" />
      <stop
         id="stop9002"
         offset="0.94668293"
         style="stop-color:#bbc93a;stop-opacity:1" />
      <stop
         style="stop-color:#e6ee8e;stop-opacity:1"
         offset="1"
         id="stop9004" />
    </linearGradient>
    <linearGradient
       id="linearGradient4349">
      <stop
         style="stop-color:#000000;stop-opacity:1;"
         offset="0"
         id="stop2228" />
      <stop
         style="stop-color:#000000;stop-opacity:0;"
         offset="1"
         id="stop2230" />
    </linearGradient>
    <linearGradient
       id="linearGradient3790">
      <stop
         id="stop3802"
         offset="0"
         style="stop-color:#ddca97;stop-opacity:1;" />
      <stop
         style="stop-color:#a4966f;stop-opacity:1;"
         offset="0.57251769"
         id="stop3808" />
      <stop
         style="stop-color:#363024;stop-opacity:1;"
         offset="1"
         id="stop3794" />
    </linearGradient>
    <linearGradient
       id="linearGradient6064">
      <stop
         id="stop6066"
         offset="0"
         style="stop-color:#837a66;stop-opacity:1" />
      <stop
         id="stop6068"
         offset="1"
         style="stop-color:#5a5446;stop-opacity:0.43137255;" />
    </linearGradient>
    <linearGradient
       id="linearGradient4231-4">
      <stop
         style="stop-color:#363024;stop-opacity:1;"
         offset="0"
         id="stop4233-2" />
      <stop
         style="stop-color:#bdb294;stop-opacity:0;"
         offset="1"
         id="stop4235-7" />
    </linearGradient>
    <linearGradient
       id="linearGradient4231">
      <stop
         id="stop4355"
         offset="0"
         style="stop-color:#2a251b;stop-opacity:1;" />
      <stop
         style="stop-color:#bdb294;stop-opacity:0;"
         offset="1"
         id="stop4235" />
    </linearGradient>
    <linearGradient
       id="linearGradient3937">
      <stop
         style="stop-color:#676150;stop-opacity:1;"
         offset="0"
         id="stop3939" />
      <stop
         style="stop-color:#5a5446;stop-opacity:0.08695652;"
         offset="1"
         id="stop3941" />
    </linearGradient>
    <linearGradient
       id="linearGradient5140-7">
      <stop
         id="stop5142-8"
         offset="0"
         style="stop-color:#fdfdfd;stop-opacity:1;" />
      <stop
         style="stop-color:#ffffff;stop-opacity:1;"
         offset="0.38183475"
         id="stop5144-6" />
      <stop
         style="stop-color:#d9d9d9;stop-opacity:1;"
         offset="0.73938215"
         id="stop5146-5" />
      <stop
         id="stop5148-6"
         offset="0.89802635"
         style="stop-color:#c5c5c5;stop-opacity:1;" />
      <stop
         id="stop5150-2"
         offset="1"
         style="stop-color:#eaeaea;stop-opacity:1;" />
    </linearGradient>
    <linearGradient
       id="linearGradient5240-6-7">
      <stop
         id="stop5248-9-0"
         offset="0"
         style="stop-color:#434e54;stop-opacity:1;" />
      <stop
         style="stop-color:#23292d;stop-opacity:1"
         offset="1"
         id="stop5244-3-19" />
    </linearGradient>
    <linearGradient
       id="linearGradient5258-5-2">
      <stop
         id="stop5260-8-1"
         offset="0"
         style="stop-color:#000000;stop-opacity:1;" />
      <stop
         style="stop-color:#434e54;stop-opacity:1;"
         offset="0.90763313"
         id="stop5262-0-6" />
      <stop
         id="stop5264-4-0"
         offset="1"
         style="stop-color:#23292d;stop-opacity:1" />
    </linearGradient>
    <linearGradient
       id="linearGradient5049-0">
      <stop
         style="stop-color:#ffffff;stop-opacity:1;"
         offset="0"
         id="stop5051-9" />
      <stop
         style="stop-color:#ffffff;stop-opacity:0.33816424;"
         offset="1"
         id="stop5053-1" />
    </linearGradient>
    <linearGradient
       id="linearGradient5757">
      <stop
         style="stop-color:#7b8386;stop-opacity:1;"
         offset="0"
         id="stop5759" />
      <stop
         id="stop5767"
         offset="0.43472689"
         style="stop-color:#24282a;stop-opacity:1" />
      <stop
         id="stop5765"
         offset="0.74703032"
         style="stop-color:#000000;stop-opacity:1;" />
      <stop
         style="stop-color:#000000;stop-opacity:1;"
         offset="0.89803654"
         id="stop5769" />
      <stop
         id="stop5771"
         offset="0.96032226"
         style="stop-color:#3d4143;stop-opacity:1;" />
      <stop
         style="stop-color:#7b8386;stop-opacity:1;"
         offset="1"
         id="stop5761" />
    </linearGradient>
    <linearGradient
       id="linearGradient5942">
      <stop
         style="stop-color:#b9c1c3;stop-opacity:1;"
         offset="0"
         id="stop5944" />
      <stop
         style="stop-color:#2b3132;stop-opacity:1;"
         offset="1"
         id="stop5946" />
    </linearGradient>
    <linearGradient
       id="linearGradient6280">
      <stop
         style="stop-color:#000000;stop-opacity:0;"
         offset="0"
         id="stop6282" />
      <stop
         style="stop-color:#000000;stop-opacity:1;"
         offset="1"
         id="stop6284" />
    </linearGradient>
    <linearGradient
       id="linearGradient6392">
      <stop
         id="stop6394"
         offset="0"
         style="stop-color:#c5d914;stop-opacity:0.98823529;" />
      <stop
         style="stop-color:#d27513;stop-opacity:0.98823529;"
         offset="0.00829687"
         id="stop8982" />
      <stop
         style="stop-color:#cc7112;stop-opacity:0.98823529;"
         offset="0.01659374"
         id="stop8980" />
      <stop
         style="stop-color:#bf6a11;stop-opacity:0.98823529;"
         offset="0.03318748"
         id="stop8978" />
      <stop
         style="stop-color:#a65c0e;stop-opacity:0.99215686;"
         offset="0.06637495"
         id="stop8976" />
      <stop
         style="stop-color:#734009;stop-opacity:1"
         offset="0.1327499"
         id="stop6396" />
      <stop
         id="stop6404"
         offset="0.48951015"
         style="stop-color:#ce8e4c;stop-opacity:1" />
      <stop
         style="stop-color:#eec69d;stop-opacity:1"
         offset="0.63056582"
         id="stop6398" />
      <stop
         style="stop-color:#f9d6b3;stop-opacity:1"
         offset="0.7128883"
         id="stop6400" />
      <stop
         id="stop6402"
         offset="1"
         style="stop-color:#d97914;stop-opacity:0.99607843" />
    </linearGradient>
    <linearGradient
       id="linearGradient6412">
      <stop
         style="stop-color:#575757;stop-opacity:1"
         offset="0"
         id="stop6414" />
      <stop
         id="stop6424"
         offset="0.07647054"
         style="stop-color:#b8b8b8;stop-opacity:1" />
      <stop
         id="stop6422"
         offset="0.24232632"
         style="stop-color:#a9a9a9;stop-opacity:1" />
      <stop
         id="stop6420"
         offset="0.69411778"
         style="stop-color:#fdfdfd;stop-opacity:1" />
      <stop
         style="stop-color:#f4f4f4;stop-opacity:0.99215686;"
         offset="0.79705876"
         id="stop6426" />
      <stop
         style="stop-color:#c1c1c1;stop-opacity:0.98823529"
         offset="1"
         id="stop6416" />
    </linearGradient>
    <linearGradient
       id="linearGradient6492">
      <stop
         style="stop-color:#050505;stop-opacity:1"
         offset="0"
         id="stop6494" />
      <stop
         id="stop6500"
         offset="0.46724156"
         style="stop-color:#3f3f3f;stop-opacity:1;" />
      <stop
         style="stop-color:#7b7b7b;stop-opacity:1;"
         offset="0.73362076"
         id="stop6502" />
      <stop
         id="stop6618"
         offset="0.86681038"
         style="stop-color:#3d3d3d;stop-opacity:1;" />
      <stop
         style="stop-color:#000000;stop-opacity:1;"
         offset="1"
         id="stop6496" />
    </linearGradient>
    <linearGradient
       id="linearGradient9955">
      <stop
         style="stop-color:#ffffff;stop-opacity:0.44390243;"
         offset="0"
         id="stop9957" />
      <stop
         id="stop9963"
         offset="0.5"
         style="stop-color:#ffffff;stop-opacity:0.15000001;" />
      <stop
         style="stop-color:#ffffff;stop-opacity:0.44;"
         offset="1"
         id="stop9959" />
    </linearGradient>
    <linearGradient
       id="linearGradient4167">
      <stop
         style="stop-color:#009467;stop-opacity:1"
         offset="0"
         id="stop2" />
      <stop
         style="stop-color:#87d770;stop-opacity:1"
         offset="1"
         id="stop4" />
    </linearGradient>
    <linearGradient
       inkscape:collect="always"
       xlink:href="#linearGradient23"
       id="linearGradient24"
       x1="335.88"
       y1="211.86963"
       x2="336.58618"
       y2="211.0562"
       gradientUnits="userSpaceOnUse" />
  </defs>
  <metadata
     id="metadata2025">
    <rdf:RDF>
      <cc:Work
         rdf:about="">
        <dc:format>image/svg+xml</dc:format>
        <dc:type
           rdf:resource="http://purl.org/dc/dcmitype/StillImage" />
      </cc:Work>
    </rdf:RDF>
  </metadata>
  <g
     inkscape:groupmode="layer"
     id="layer1"
     inkscape:label="front"
     style="display:inline"
     transform="matrix(14.004991,0,0,10.001571,-4702.9384,-2104.564)">
    <g
       id="g22"
       style="fill:url(#linearGradient24)">
      <path
         inkscape:connector-curvature="0"
         style="display:inline;fill:url(#linearGradient24);stroke-width:0.0214728;fill-opacity:1"
         d="m 336.49846,210.65723 c -0.003,-0.008 -0.0154,-0.0166 -0.004,-0.0225 0.0171,-0.0219 0.0464,-0.0147 0.0627,0.006 0.0223,0.0233 0.042,0.0627 0.0261,0.0973 -0.0132,0.0265 -0.0358,0.0435 -0.054,0.065 -0.008,0.009 -0.016,0.0178 -0.0253,0.0255 0.0263,0.0225 0.0528,0.0446 0.079,0.0673 0.0271,-0.0286 0.0538,-0.0577 0.079,-0.0888 0.004,-0.024 -0.041,-0.0439 -0.006,-0.0573 0.0274,-0.0167 0.0547,0.0126 0.0682,0.0388 0.0145,0.0247 0.0198,0.0609 9.9e-4,0.0851 -0.0204,0.0248 -0.045,0.0443 -0.0678,0.0668 -0.007,0.006 0.0108,0.009 0.0145,0.0137 0.0381,0.0224 0.0756,0.0444 0.11516,0.0632 0.021,0.0111 0.0428,0.0203 0.0638,0.0325 0.0108,0.01 0.0259,0.0175 0.0244,0.0364 -0.003,0.0198 -0.0211,0.0225 -0.0348,0.02 -0.04,-0.002 -0.0803,-0.003 -0.11977,-0.007 -0.0234,-0.0113 -0.0468,-0.0203 -0.0695,-0.0329 -0.0594,-0.0457 -0.12305,-0.0865 -0.1727,-0.14776 -0.0142,-0.0162 -0.0286,-0.0325 -0.0428,-0.0488 -0.0306,0.021 -0.0604,0.0462 -0.0953,0.0576 -0.0188,-0.007 0.0127,-0.038 0.0182,-0.0497 0.0112,-0.0189 0.0337,-0.0366 0.0402,-0.0547 -0.009,-0.0151 -0.0231,-0.028 -0.0303,-0.0447 -0.006,-0.0194 0.002,-0.045 0.0219,-0.0371 0.009,10e-4 0.0215,-0.003 0.0282,0.008 0.008,0.008 0.0166,0.0159 0.0254,0.0239 0.0142,-0.0174 0.0298,-0.0327 0.0455,-0.0481 0.008,-0.0108 0.0176,-0.0218 0.0226,-0.0365 0.005,-0.011 -0.006,-0.0235 -0.0119,-0.0311 z"
         id="path4111-0-5-6" />
      <path
         inkscape:connector-curvature="0"
         style="display:inline;fill:url(#linearGradient24);stroke-width:0.0214728;fill-opacity:1"
         d="m 336.0335,210.71509 c 0.0184,0.002 0.0349,0.023 0.0518,0.0345 0.0288,0.0245 0.0582,0.0478 0.0865,0.0731 0.0227,-0.0265 0.0457,-0.0516 0.0676,-0.0791 0.0132,-0.0212 0.0283,-0.0507 0.0167,-0.077 -0.0112,-0.0103 -0.02,-0.0243 -0.0324,-0.0319 -0.0128,-0.006 -0.0256,-0.0128 -0.0383,-0.0192 0.008,-0.028 0.0385,-0.0357 0.0599,-0.0415 0.0309,-0.005 0.0568,0.0189 0.0795,0.0412 0.0129,0.0133 0.0281,0.0237 0.0392,0.039 0.0158,0.0231 0.0109,0.0563 -0.005,0.0777 -0.0375,0.0629 -0.0874,0.11274 -0.14216,0.15326 -0.0707,0.0519 -0.14375,0.10327 -0.22459,0.12943 -0.034,0.0101 -0.0711,0.0124 -0.1061,0.004 -0.0259,-0.011 0.003,-0.0432 0.0218,-0.0408 0.0385,-0.0111 0.0771,-0.0186 0.11463,-0.0331 0.0344,-0.0148 0.0663,-0.0378 0.095,-0.0645 -0.025,-0.0291 -0.0496,-0.0585 -0.0741,-0.0873 -0.0151,-0.0216 -0.0211,-0.0528 -0.008,-0.0782 z"
         id="path4109-6-6-2" />
      <path
         inkscape:connector-curvature="0"
         style="display:inline;fill:url(#linearGradient24);stroke-width:0.0214728;fill-opacity:1"
         d="m 336.23455,211.02321 c 0.0109,0.0515 0.006,0.10486 0.006,0.15726 -0.004,0.0407 -0.004,0.0822 -0.0115,0.12233 -0.006,0.0371 -0.0318,0.0653 -0.064,0.0696 -0.053,0.0136 -0.10683,0.004 -0.15999,1e-4 -0.0133,-0.0102 -0.0128,0.008 -0.0154,0.0191 -0.006,0.0322 -0.0109,0.0651 -0.0175,0.0971 0.0543,0.006 0.10889,0.0151 0.16323,0.009 0.0172,-0.007 0.0331,-0.0178 0.0477,-0.0315 0.0179,-0.003 0.0412,-0.0181 0.055,0.004 0.0197,0.0412 0.006,0.0894 0.004,0.1337 -0.006,0.0661 -0.008,0.1357 -0.0375,0.1949 -0.0169,0.0468 -0.0607,0.0728 -0.10273,0.0701 -0.0217,4.3e-4 -0.0433,0.003 -0.0648,-0.005 -0.0292,-0.004 -0.0568,-0.018 -0.0797,-0.0406 -0.0229,-0.0159 -0.0381,-0.0447 -0.0425,-0.0749 -0.003,-0.0167 0.0138,-0.007 0.0205,-0.003 0.0279,0.0143 0.0548,0.0319 0.0836,0.0432 0.0235,0.008 0.048,0.0111 0.0707,-0.002 0.0179,-0.007 0.0392,-0.0137 0.0462,-0.0377 0.0124,-0.0332 0.017,-0.0696 0.0227,-0.10516 0.003,-0.0245 0.003,-0.0491 10e-4,-0.0737 -0.004,-0.007 -0.019,-8.6e-4 -0.028,-0.003 -0.0612,0 -0.12298,0 -0.18446,0 -0.0166,0.0245 -0.0318,0.0508 -0.0503,0.0742 -0.027,0.0155 -0.0135,-0.0459 -0.0128,-0.0627 0.0135,-0.0887 0.026,-0.17786 0.0421,-0.26576 0.006,-0.0248 0.0297,-0.0248 0.0473,-0.0225 0.0485,3.6e-4 0.0976,0.008 0.14593,-8.7e-4 0.0197,-4.3e-4 0.0321,-0.0189 0.0338,-0.041 0.0109,-0.0395 0.0166,-0.0803 0.017,-0.1217 0.004,-0.0347 -0.0287,-0.0427 -0.0512,-0.0438 -0.0292,0.003 -0.0588,0.003 -0.0877,0.009 -0.0358,-0.007 -5e-4,-0.0702 0.0254,-0.0693 0.0464,-0.0143 0.0953,-0.0166 0.14285,-0.0227 0.0128,-4.3e-4 0.0275,0.006 0.0312,0.0216 z"
         id="path4107-2-2-9" />
      <path
         inkscape:connector-curvature="0"
         style="display:inline;fill:url(#linearGradient24);stroke-width:0.0214728;fill-opacity:1"
         d="m 336.35585,211.0259 c 0.0171,-0.0108 0.0379,-0.0135 0.0567,-0.0176 0.041,-0.008 0.0823,-5e-5 0.12183,0.012 0.0191,0.005 0.0433,0.0116 0.0518,0.0359 0.003,0.0203 -0.007,0.0388 -0.0116,0.058 -0.0108,0.0404 -0.0254,0.0814 -0.023,0.12448 0.003,0.0389 0.0331,0.0694 0.0653,0.0754 0.0211,0.002 0.0365,-0.0178 0.0537,-0.0287 0.006,-0.005 0.0124,-0.0116 0.0198,-0.009 0.008,8.6e-4 0.0176,0.001 0.0269,0.002 0.0185,0.0167 0.0126,0.0488 0.006,0.0718 -0.009,0.0387 -0.0446,0.0588 -0.077,0.0566 -0.0439,-0.003 -0.0904,-0.0244 -0.11651,-0.0688 -0.0141,-0.0269 -0.0218,-0.0581 -0.0285,-0.0885 -9.1e-4,-0.0228 0.004,-0.0455 0.007,-0.068 0.002,-0.0186 0.007,-0.038 0.002,-0.0565 -0.0261,-0.006 -0.0523,-0.021 -0.0792,-0.0122 -0.0173,0.006 -0.037,0.0127 -0.0504,0.0276 -0.014,0.0244 -0.0119,0.0551 -0.0169,0.0829 -0.004,0.0295 -0.006,0.0597 -0.0135,0.0886 -0.007,0.0312 -0.0295,0.058 -0.0576,0.0614 -0.009,0.004 -0.0387,0.006 -0.0268,-0.0134 0.007,-0.0215 0.0265,-0.033 0.035,-0.0537 0.0177,-0.0397 0.0165,-0.0865 0.0179,-0.13033 0.002,-0.0398 -0.008,-0.0821 0.005,-0.11986 0.005,-0.0151 0.0178,-0.022 0.0288,-0.0306 z"
         id="path4105-6-9-1" />
      <path
         inkscape:connector-curvature="0"
         style="display:inline;fill:url(#linearGradient24);stroke-width:0.0214728;fill-opacity:1"
         d="m 336.41088,211.49011 c -0.0255,-0.004 -0.0522,-0.002 -0.0753,-0.0142 -0.0275,-0.0141 -9.3e-4,-0.0366 0.017,-0.0349 0.0328,-0.006 0.0671,-0.008 0.10023,-0.0113 0.0709,0.003 0.14192,0.006 0.21284,0.01 0.0253,-2.1e-4 0.0376,0.0323 0.0281,0.0575 -0.0119,0.0418 -0.0312,0.0797 -0.0469,0.11947 -0.006,0.0139 -0.0119,0.028 -0.0174,0.0419 0.0469,0.0213 0.0966,0.0393 0.13887,0.0727 0.0195,0.0191 0.009,0.0537 0.003,0.0781 -0.007,0.0214 -0.0145,0.0539 -0.038,0.0546 -0.0163,-0.006 -0.0297,-0.0206 -0.0447,-0.0306 -0.0395,-0.0296 -0.079,-0.0592 -0.11808,-0.0888 -0.0132,0.0215 -0.0317,0.0367 -0.0474,0.0553 -0.0308,0.0321 -0.0706,0.0493 -0.10835,0.0672 -0.0337,0.002 -0.0684,0.005 -0.10221,0.006 -0.0181,-0.005 -0.0384,-0.006 -0.0552,-0.0169 0.004,-0.009 0.0148,-0.0116 0.0235,-0.0148 0.0427,-0.018 0.0872,-0.0291 0.12954,-0.0488 0.0306,-0.0162 0.059,-0.0393 0.0819,-0.0693 0.0155,-0.0108 0.009,-0.0338 -0.005,-0.0416 -0.034,-0.023 -0.0681,-0.0468 -0.0995,-0.0745 -0.0288,-0.0258 -0.0597,-0.0489 -0.0859,-0.0788 -0.007,-0.0221 0.0294,-0.003 0.0391,-0.001 0.0711,0.0266 0.14005,0.0612 0.2091,0.0947 0.0128,-0.0255 0.0288,-0.0501 0.0347,-0.0794 0.002,-0.018 -0.0112,-0.027 -0.0242,-0.0276 -0.027,-0.007 -0.0539,-0.0136 -0.0815,-0.016 -0.0226,-0.003 -0.0443,-0.006 -0.0669,-0.009 z"
         id="path4103-1-1-2" />
    </g>
  </g>
</svg>
