<?xml version="1.0" encoding="UTF-8" standalone="no"?>
<svg
   style="isolation:isolate"
   width="16"
   height="16"
   viewBox="0 0 16 16"
   version="1.1"
   id="svg23"
   sodipodi:docname="kalzium.svg"
   inkscape:version="1.3 (0e150ed6c4, 2023-07-21)"
   xmlns:inkscape="http://www.inkscape.org/namespaces/inkscape"
   xmlns:sodipodi="http://sodipodi.sourceforge.net/DTD/sodipodi-0.dtd"
   xmlns:xlink="http://www.w3.org/1999/xlink"
   xmlns="http://www.w3.org/2000/svg"
   xmlns:svg="http://www.w3.org/2000/svg">
  <sodipodi:namedview
     id="namedview23"
     pagecolor="#ffffff"
     bordercolor="#000000"
     borderopacity="0.25"
     inkscape:showpageshadow="2"
     inkscape:pageopacity="0.0"
     inkscape:pagecheckerboard="0"
     inkscape:deskcolor="#d1d1d1"
     showgrid="true"
     inkscape:zoom="23.96875"
     inkscape:cx="7.8018253"
     inkscape:cy="14.372881"
     inkscape:window-width="1920"
     inkscape:window-height="994"
     inkscape:window-x="0"
     inkscape:window-y="0"
     inkscape:window-maximized="1"
     inkscape:current-layer="svg23">
    <inkscape:grid
       id="grid25"
       units="px"
       originx="0"
       originy="0"
       spacingx="1"
       spacingy="1"
       empcolor="#0099e5"
       empopacity="0.30196078"
       color="#0099e5"
       opacity="0.14901961"
       empspacing="5"
       dotted="false"
       gridanglex="30"
       gridanglez="30"
       visible="true" />
  </sodipodi:namedview>
  <defs
     id="defs22">
    <linearGradient
       id="linearGradient24"
       inkscape:collect="always">
      <stop
         style="stop-color:#feac5e;stop-opacity:1;"
         offset="0"
         id="stop24" />
      <stop
         style="stop-color:#c779d0;stop-opacity:1;"
         offset="0.5714286"
         id="stop26" />
      <stop
         style="stop-color:#4bc0c8;stop-opacity:1;"
         offset="1"
         id="stop25" />
    </linearGradient>
    <style
       id="current-color-scheme"
       type="text/css">&#10;   .ColorScheme-Text { color:#d5c289; } .ColorScheme-Highlight { color:#5294e2; }&#10;  </style>
    <linearGradient
       id="arrongin"
       x1="0%"
       x2="0%"
       y1="0%"
       y2="100%">
      <stop
         offset="0%"
         style="stop-color:#dd9b44; stop-opacity:1"
         id="stop1" />
      <stop
         offset="100%"
         style="stop-color:#ad6c16; stop-opacity:1"
         id="stop2" />
    </linearGradient>
    <linearGradient
       id="aurora"
       x1="0%"
       x2="0%"
       y1="0%"
       y2="100%">
      <stop
         offset="0%"
         style="stop-color:#09D4DF; stop-opacity:1"
         id="stop3" />
      <stop
         offset="100%"
         style="stop-color:#9269F4; stop-opacity:1"
         id="stop4" />
    </linearGradient>
    <linearGradient
       id="fitdance"
       x1="0%"
       x2="0%"
       y1="0%"
       y2="100%">
      <stop
         offset="0%"
         style="stop-color:#1AD6AB; stop-opacity:1"
         id="stop5" />
      <stop
         offset="100%"
         style="stop-color:#329DB6; stop-opacity:1"
         id="stop6" />
    </linearGradient>
    <linearGradient
       id="oomox"
       x1="0%"
       x2="0%"
       y1="0%"
       y2="100%">
      <stop
         offset="0%"
         style="stop-color:#303b3d; stop-opacity:1"
         id="stop7" />
      <stop
         offset="100%"
         style="stop-color:#bc985d; stop-opacity:1"
         id="stop8" />
    </linearGradient>
    <linearGradient
       id="rainblue"
       x1="0%"
       x2="0%"
       y1="0%"
       y2="100%">
      <stop
         offset="0%"
         style="stop-color:#00F260; stop-opacity:1"
         id="stop9" />
      <stop
         offset="100%"
         style="stop-color:#0575E6; stop-opacity:1"
         id="stop10" />
    </linearGradient>
    <linearGradient
       id="sunrise"
       x1="0%"
       x2="0%"
       y1="0%"
       y2="100%">
      <stop
         offset="0%"
         style="stop-color: #FF8501; stop-opacity:1"
         id="stop11" />
      <stop
         offset="100%"
         style="stop-color: #FFCB01; stop-opacity:1"
         id="stop12" />
    </linearGradient>
    <linearGradient
       id="telinkrin"
       x1="0%"
       x2="0%"
       y1="0%"
       y2="100%">
      <stop
         offset="0%"
         style="stop-color: #b2ced6; stop-opacity:1"
         id="stop13" />
      <stop
         offset="100%"
         style="stop-color: #6da5b7; stop-opacity:1"
         id="stop14" />
    </linearGradient>
    <linearGradient
       id="60spsycho"
       x1="0%"
       x2="0%"
       y1="0%"
       y2="100%">
      <stop
         offset="0%"
         style="stop-color: #df5940; stop-opacity:1"
         id="stop15" />
      <stop
         offset="25%"
         style="stop-color: #d8d15f; stop-opacity:1"
         id="stop16" />
      <stop
         offset="50%"
         style="stop-color: #e9882a; stop-opacity:1"
         id="stop17" />
      <stop
         offset="100%"
         style="stop-color: #279362; stop-opacity:1"
         id="stop18" />
    </linearGradient>
    <linearGradient
       id="90ssummer"
       x1="0%"
       x2="0%"
       y1="0%"
       y2="100%">
      <stop
         offset="0%"
         style="stop-color: #f618c7; stop-opacity:1"
         id="stop19" />
      <stop
         offset="20%"
         style="stop-color: #94ffab; stop-opacity:1"
         id="stop20" />
      <stop
         offset="50%"
         style="stop-color: #fbfd54; stop-opacity:1"
         id="stop21" />
      <stop
         offset="100%"
         style="stop-color: #0f83ae; stop-opacity:1"
         id="stop22" />
    </linearGradient>
    <linearGradient
       inkscape:collect="always"
       xlink:href="#linearGradient24"
       id="linearGradient25"
       x1="3"
       y1="4"
       x2="11"
       y2="11"
       gradientUnits="userSpaceOnUse" />
    <linearGradient
       inkscape:collect="always"
       xlink:href="#linearGradient24"
       id="linearGradient28"
       x1="1.6849999"
       y1="8"
       x2="14.315"
       y2="8"
       gradientUnits="userSpaceOnUse" />
  </defs>
  <g
     opacity="0.7"
     id="g22"
     transform="matrix(0.69906819,-0.40471139,0.40598446,0.69687608,-0.84026428,5.6625808)">
    <path
       fill-rule="evenodd"
       d="M 13.774,3.986 14.315,4.903 2.226,12.014 1.685,11.097 Z M 1.685,4.903 2.226,3.986 l 12.089,7.111 -0.541,0.917 z"
       id="path22"
       style="fill:url(#linearGradient28)" />
  </g>
  <path
     class="ColorScheme-Text"
     d="M 1.5376085,6.6054898 C 0.7826148,7.0425781 0.52546752,8.0068719 0.96393068,8.759498 1.4023939,9.5121242 2.37042,9.7680608 3.1254136,9.3309721 3.8804074,8.8938839 4.1364496,7.929298 3.6979863,7.1766718 3.2595231,6.4240456 2.2926021,6.1684015 1.5376085,6.6054898 Z M 9.987945,1.7133386 C 9.6258279,1.9229791 9.3613244,2.2680818 9.2544618,2.6719597 9.146494,3.0755455 9.2046669,3.5059603 9.4149662,3.8669421 9.6256725,4.2286208 9.97186,4.4922945 10.377009,4.5988221 10.781864,4.7064513 11.213633,4.6484611 11.575749,4.438821 11.938566,4.2287757 12.20307,3.883673 12.309933,3.4797951 12.417899,3.0762093 12.359728,2.6457945 12.149022,2.2841158 11.938721,1.923134 11.592534,1.6594603 11.187385,1.5529327 10.78253,1.4453036 10.350762,1.5032934 9.987945,1.7133386 Z M 6.7732721,5.8939388 C 5.6065271,6.569402 5.2099849,8.0598499 5.887573,9.2229361 6.5651609,10.386023 8.0602972,10.781321 9.2270422,10.105858 10.393787,9.4303945 10.79033,7.9399467 10.112741,6.7768605 9.4351532,5.6137743 7.9400168,5.2184755 6.7732721,5.8939388 Z M 4.4245639,11.560976 c -0.7549934,0.437088 -1.0117351,1.402079 -0.5732718,2.154705 0.4384633,0.752626 1.4060833,1.007866 2.161077,0.570777 C 6.7673628,13.84937 7.0238113,12.885481 6.5853481,12.132855 6.1468847,11.380228 5.1795576,11.123887 4.4245639,11.560976 Z M 12.874902,6.6688244 c -0.362118,0.2096405 -0.626624,0.5547432 -0.733486,0.9586211 -0.107965,0.4035857 -0.04979,0.8340005 0.160913,1.1956793 0.2103,0.3609818 0.556487,0.6246555 0.961638,0.731183 0.404853,0.1076295 0.836621,0.049639 1.198737,-0.1600011 0.362818,-0.2100452 0.62732,-0.5551479 0.734182,-0.9590258 0.107971,-0.4035858 0.04979,-0.8340006 -0.160503,-1.1949824 -0.210707,-0.3616787 -0.556893,-0.6253524 -0.962041,-0.73188 -0.404856,-0.1076291 -0.836623,-0.049639 -1.19944,0.1604059 z"
     id="path23"
     style="fill:url(#linearGradient25);fill-opacity:1" />
</svg>
