<?xml version="1.0" encoding="UTF-8" standalone="no"?>
<svg
   style="isolation:isolate"
   width="16"
   height="16"
   viewBox="0 0 16 16"
   version="1.1"
   id="svg22"
   sodipodi:docname="atom.svg"
   inkscape:version="1.3 (0e150ed6c4, 2023-07-21)"
   xmlns:inkscape="http://www.inkscape.org/namespaces/inkscape"
   xmlns:sodipodi="http://sodipodi.sourceforge.net/DTD/sodipodi-0.dtd"
   xmlns:xlink="http://www.w3.org/1999/xlink"
   xmlns="http://www.w3.org/2000/svg"
   xmlns:svg="http://www.w3.org/2000/svg">
  <sodipodi:namedview
     id="namedview22"
     pagecolor="#ffffff"
     bordercolor="#000000"
     borderopacity="0.25"
     inkscape:showpageshadow="2"
     inkscape:pageopacity="0.0"
     inkscape:pagecheckerboard="0"
     inkscape:deskcolor="#d1d1d1"
     inkscape:zoom="16.948466"
     inkscape:cx="2.3305944"
     inkscape:cy="4.8676973"
     inkscape:window-width="1920"
     inkscape:window-height="994"
     inkscape:window-x="0"
     inkscape:window-y="0"
     inkscape:window-maximized="1"
     inkscape:current-layer="svg22" />
  <defs
     id="defs22">
    <linearGradient
       id="linearGradient22"
       inkscape:collect="always">
      <stop
         style="stop-color:#ff80e5;stop-opacity:1"
         offset="0"
         id="stop23" />
      <stop
         style="stop-color:#8d5fd3;stop-opacity:1"
         offset="1"
         id="stop24" />
    </linearGradient>
    <style
       id="current-color-scheme"
       type="text/css">&#10;   .ColorScheme-Text { color:#d5c289; } .ColorScheme-Highlight { color:#5294e2; }&#10;  </style>
    <linearGradient
       id="arrongin"
       x1="0%"
       x2="0%"
       y1="0%"
       y2="100%">
      <stop
         offset="0%"
         style="stop-color:#dd9b44; stop-opacity:1"
         id="stop1" />
      <stop
         offset="100%"
         style="stop-color:#ad6c16; stop-opacity:1"
         id="stop2" />
    </linearGradient>
    <linearGradient
       id="aurora"
       x1="0%"
       x2="0%"
       y1="0%"
       y2="100%">
      <stop
         offset="0%"
         style="stop-color:#09D4DF; stop-opacity:1"
         id="stop3" />
      <stop
         offset="100%"
         style="stop-color:#9269F4; stop-opacity:1"
         id="stop4" />
    </linearGradient>
    <linearGradient
       id="fitdance"
       x1="0%"
       x2="0%"
       y1="0%"
       y2="100%">
      <stop
         offset="0%"
         style="stop-color:#1AD6AB; stop-opacity:1"
         id="stop5" />
      <stop
         offset="100%"
         style="stop-color:#329DB6; stop-opacity:1"
         id="stop6" />
    </linearGradient>
    <linearGradient
       id="oomox"
       x1="0.00020213818"
       x2="0.00020213818"
       y1="0.00011977539"
       y2="15.999798"
       gradientTransform="matrix(0.81250791,0,0,0.8125162,1.4999035,1.4999023)"
       gradientUnits="userSpaceOnUse">
      <stop
         offset="0%"
         style="stop-color:#303b3d; stop-opacity:1"
         id="stop7" />
      <stop
         offset="100%"
         style="stop-color:#bc985d; stop-opacity:1"
         id="stop8" />
    </linearGradient>
    <linearGradient
       id="rainblue"
       x1="0%"
       x2="0%"
       y1="0%"
       y2="100%">
      <stop
         offset="0%"
         style="stop-color:#00F260; stop-opacity:1"
         id="stop9" />
      <stop
         offset="100%"
         style="stop-color:#0575E6; stop-opacity:1"
         id="stop10" />
    </linearGradient>
    <linearGradient
       id="sunrise"
       x1="0%"
       x2="0%"
       y1="0%"
       y2="100%">
      <stop
         offset="0%"
         style="stop-color: #FF8501; stop-opacity:1"
         id="stop11" />
      <stop
         offset="100%"
         style="stop-color: #FFCB01; stop-opacity:1"
         id="stop12" />
    </linearGradient>
    <linearGradient
       id="telinkrin"
       x1="0%"
       x2="0%"
       y1="0%"
       y2="100%">
      <stop
         offset="0%"
         style="stop-color: #b2ced6; stop-opacity:1"
         id="stop13" />
      <stop
         offset="100%"
         style="stop-color: #6da5b7; stop-opacity:1"
         id="stop14" />
    </linearGradient>
    <linearGradient
       id="60spsycho"
       x1="0%"
       x2="0%"
       y1="0%"
       y2="100%">
      <stop
         offset="0%"
         style="stop-color: #df5940; stop-opacity:1"
         id="stop15" />
      <stop
         offset="25%"
         style="stop-color: #d8d15f; stop-opacity:1"
         id="stop16" />
      <stop
         offset="50%"
         style="stop-color: #e9882a; stop-opacity:1"
         id="stop17" />
      <stop
         offset="100%"
         style="stop-color: #279362; stop-opacity:1"
         id="stop18" />
    </linearGradient>
    <linearGradient
       id="90ssummer"
       x1="0%"
       x2="0%"
       y1="0%"
       y2="100%">
      <stop
         offset="0%"
         style="stop-color: #f618c7; stop-opacity:1"
         id="stop19" />
      <stop
         offset="20%"
         style="stop-color: #94ffab; stop-opacity:1"
         id="stop20" />
      <stop
         offset="50%"
         style="stop-color: #fbfd54; stop-opacity:1"
         id="stop21" />
      <stop
         offset="100%"
         style="stop-color: #0f83ae; stop-opacity:1"
         id="stop22" />
    </linearGradient>
    <linearGradient
       inkscape:collect="always"
       xlink:href="#linearGradient22"
       id="linearGradient24"
       x1="5.1334572"
       y1="10.814541"
       x2="8.8565159"
       y2="7.0218091"
       gradientUnits="userSpaceOnUse" />
  </defs>
  <path
     class="ColorScheme-Text"
     d="M 11.54337,1.5015273 C 9.2423309,1.5592156 7.0493608,3.4767442 5.4657753,4.772701 4.8978291,5.2374573 4.0617535,6.1734713 4.1015674,6.212472 4.1405681,6.2514728 4.9823305,5.5632749 5.3958992,5.2285203 7.2849894,3.7034351 9.454397,2.8429843 10.926669,2.8454224 c 0.548449,0.00163 1.356082,0.324192 1.697335,0.7109483 0.389191,0.442819 0.515943,0.7832613 0.524887,1.7891517 0.0063,0.56307 -0.250254,1.3942702 -0.183635,1.3528326 C 13.127759,6.599228 13.75909,4.7377627 13.834654,4.0186901 13.949212,2.931549 13.396702,1.8119069 12.536254,1.5974037 12.20475,1.5226526 11.871625,1.4925897 11.54337,1.5015273 Z M 3.564497,2.1499119 c -0.445257,-0.00487 -0.8003252,0.067439 -1.0830788,0.2250659 -2.78610439,1.8119021 1.0855159,6.87629 2.6520391,8.4395632 0.397319,0.390008 1.2171431,1.085521 1.265894,1.085521 0.048751,0 -0.7946366,-0.94333 -1.3170822,-1.636405 C 3.6034973,8.3014403 2.7828603,6.4570382 2.8177977,5.0790182 2.8372981,4.2933187 3.1135529,3.6587473 3.6595601,3.2403033 3.9845659,2.9916749 4.3680709,2.6967329 5.1675826,2.7934214 L 6.699981,3.1273636 C 5.765592,2.5447927 4.7458888,2.1775373 3.564497,2.1499119 Z m 6.0361515,1.9500294 c -0.048751,0 0.7946365,0.9433263 1.3170795,1.6363992 1.478775,1.9622167 2.299415,3.8066193 2.26447,5.1846415 -0.0195,0.785695 -0.295754,1.420271 -0.841754,1.838713 -0.325004,0.248623 -0.708511,0.543573 -1.508026,0.446877 L 9.3000196,12.872629 c 0.9343904,0.582579 1.9540944,0.949836 3.1354834,0.977455 0.445252,0.0053 0.800327,-0.0674 1.083082,-0.22506 C 16.304684,11.813116 12.433066,6.7487302 10.866539,5.1854568 10.469222,4.7954513 9.6493994,4.0999413 9.6006485,4.0999413 Z M 7.9999996,6.69998 c -0.7182603,0 -1.3000186,0.5817585 -1.3000186,1.3000188 0,0.7182604 0.5817583,1.3000198 1.3000186,1.3000198 0.7182608,0 1.30002,-0.5817594 1.30002,-1.3000198 0,-0.7182603 -0.5817592,-1.3000188 -1.30002,-1.3000188 z M 3.0347384,9.3016436 c -0.1625015,0.099126 -0.7938239,1.9605944 -0.8693875,2.6796704 -0.1145642,1.087137 0.4379437,2.206776 1.2983946,2.42128 0.3315048,0.07475 0.6646342,0.104814 0.9928896,0.09588 2.3010337,-0.05772 4.4940038,-1.975224 6.0775869,-3.271179 0.567952,-0.464755 1.404023,-1.4007687 1.364216,-1.4397687 -0.039,-0.039 -0.880767,0.6491967 -1.294336,0.9839527 C 8.7150104,12.296566 6.5456038,13.157015 5.0733322,13.154571 4.5248862,13.153765 3.7172494,12.830378 3.375994,12.443626 2.9868008,12.000814 2.8600485,11.660364 2.8511116,10.654477 2.8454232,10.091404 3.1013646,9.2602048 3.0347384,9.3016436 Z"
     id="path22"
     style="fill:url(#linearGradient24)" />
</svg>
