<?xml version="1.0" encoding="UTF-8" standalone="no"?>
<svg
   version="1.1"
   viewBox="0 0 16 16"
   height="16"
   width="16"
   id="svg52"
   sodipodi:docname="kblackbox.svg"
   inkscape:version="1.3 (0e150ed6c4, 2023-07-21)"
   xmlns:inkscape="http://www.inkscape.org/namespaces/inkscape"
   xmlns:sodipodi="http://sodipodi.sourceforge.net/DTD/sodipodi-0.dtd"
   xmlns:xlink="http://www.w3.org/1999/xlink"
   xmlns="http://www.w3.org/2000/svg"
   xmlns:svg="http://www.w3.org/2000/svg">
  <sodipodi:namedview
     id="namedview54"
     pagecolor="#ffffff"
     bordercolor="#666666"
     borderopacity="1.0"
     inkscape:showpageshadow="2"
     inkscape:pageopacity="0.0"
     inkscape:pagecheckerboard="0"
     inkscape:deskcolor="#d1d1d1"
     showgrid="false"
     inkscape:zoom="9.8333334"
     inkscape:cx="3.0508474"
     inkscape:cy="-15"
     inkscape:window-width="1920"
     inkscape:window-height="994"
     inkscape:window-x="0"
     inkscape:window-y="0"
     inkscape:window-maximized="1"
     inkscape:current-layer="svg52" />
  <defs
     id="defs34">
    <linearGradient
       id="linearGradient4180">
      <stop
         style="stop-color:#172525;stop-opacity:1"
         offset="0"
         id="stop2" />
      <stop
         style="stop-color:#354848;stop-opacity:1"
         offset="1"
         id="stop4" />
    </linearGradient>
    <linearGradient
       id="linearGradient4174">
      <stop
         style="stop-color:#172525;stop-opacity:1"
         offset="0"
         id="stop7" />
      <stop
         style="stop-color:#394d4d;stop-opacity:1"
         offset="1"
         id="stop9" />
    </linearGradient>
    <linearGradient
       id="linearGradient4456">
      <stop
         style="stop-color:#000000;stop-opacity:1;"
         offset="0"
         id="stop12" />
      <stop
         style="stop-color:#000000;stop-opacity:0;"
         offset="1"
         id="stop14" />
    </linearGradient>
    <linearGradient
       id="linearGradient4432">
      <stop
         style="stop-color:#eff1f1;stop-opacity:1"
         offset="0"
         id="stop17" />
      <stop
         style="stop-color:#6f8181;stop-opacity:1"
         offset="1"
         id="stop19" />
    </linearGradient>
    <linearGradient
       id="linearGradient4211">
      <stop
         offset="0"
         style="stop-color:#172525;stop-opacity:1"
         id="stop22" />
      <stop
         offset="1"
         style="stop-color:#334545;stop-opacity:1"
         id="stop24" />
    </linearGradient>
    <linearGradient
       gradientUnits="userSpaceOnUse"
       y2="9.1359997"
       x2="0.204"
       y1="42.16"
       x1="42.960999"
       id="linearGradient4217"
       xlink:href="#linearGradient4180" />
    <linearGradient
       gradientUnits="userSpaceOnUse"
       y2="25.25"
       x2="13.173"
       y1="59.820999"
       x1="39.597"
       id="linearGradient4225"
       xlink:href="#linearGradient4174"
       gradientTransform="translate(81.35929,-18.621466)" />
    <linearGradient
       gradientUnits="userSpaceOnUse"
       y2="9.6730003"
       x2="11.236"
       y1="31.120001"
       x1="36.446999"
       id="linearGradient4233"
       xlink:href="#linearGradient4211" />
    <linearGradient
       gradientTransform="matrix(0.97222222,0,0,0.975,0.66666667,0.6)"
       y2="21.905001"
       x2="5.928"
       y1="34.487999"
       x1="21.796"
       gradientUnits="userSpaceOnUse"
       id="linearGradient4241"
       xlink:href="#linearGradient4211" />
    <linearGradient
       xlink:href="#linearGradient4432"
       id="linearGradient4438"
       x1="8.8079996"
       y1="15.038"
       x2="17.167999"
       y2="35.845001"
       gradientUnits="userSpaceOnUse"
       gradientTransform="translate(81.35929,-18.621466)" />
    <linearGradient
       xlink:href="#linearGradient4456"
       id="linearGradient4470"
       x1="8.6619997"
       y1="20"
       x2="14.783"
       y2="26.122"
       gradientUnits="userSpaceOnUse"
       gradientTransform="translate(81.35929,-18.621466)" />
    <linearGradient
       xlink:href="#linearGradient4456"
       id="linearGradient4481"
       x1="13.076"
       y1="32.973999"
       x2="19.142"
       y2="43.480999"
       gradientUnits="userSpaceOnUse"
       gradientTransform="translate(81.35929,-18.621466)" />
    <linearGradient
       gradientTransform="matrix(1.0499636,0,0,1.0499041,-382.81648,-542.86042)"
       gradientUnits="userSpaceOnUse"
       x2="426.69501"
       y2="499.92099"
       y1="547.67499"
       id="a-6"
       x1="389.32001">
      <stop
         stop-color="#18222a"
         style="stop-color:#1e2b35;stop-opacity:1"
         id="stop216" />
      <stop
         stop-color="#566069"
         offset="1"
         style="stop-color:#6d7983;stop-opacity:1"
         id="stop218" />
    </linearGradient>
    <linearGradient
       id="i"
       y1="530.79999"
       x1="421.57001"
       y2="507.79999"
       x2="398.57001"
       gradientUnits="userSpaceOnUse">
      <stop
         stop-color="#c6cdd1"
         id="stop22-2" />
      <stop
         offset="1"
         stop-color="#e0e5e7"
         id="stop24-6" />
    </linearGradient>
    <linearGradient
       id="d"
       y1="508.79999"
       x1="398.57001"
       y2="528.79999"
       x2="418.57001"
       gradientUnits="userSpaceOnUse"
       gradientTransform="translate(-817.14,-1039.6)">
      <stop
         stop-color="#2f3943"
         id="stop9-1" />
      <stop
         offset="1"
         stop-color="#4d5662"
         id="stop11" />
    </linearGradient>
    <linearGradient
       id="g"
       y1="534.79999"
       x1="405.57001"
       y2="538.79999"
       x2="411.57001"
       gradientUnits="userSpaceOnUse"
       gradientTransform="matrix(1,0,0,0.60001,0,213.91)">
      <stop
         stop-color="#18222a"
         id="stop16" />
      <stop
         offset="1"
         stop-color="#566069"
         id="stop18" />
    </linearGradient>
    <linearGradient
       id="a"
       y1="514.63"
       x1="402.41"
       y2="527.79999"
       x2="415.57001"
       gradientUnits="userSpaceOnUse">
      <stop
         stop-color="#2e5d89"
         id="stop2-8" />
      <stop
         offset="1"
         stop-color="#1b92f4"
         id="stop4-7" />
    </linearGradient>
    <linearGradient
       gradientTransform="matrix(1.0499636,0,0,1.0499041,-356.78258,-539.88696)"
       gradientUnits="userSpaceOnUse"
       x2="426.69501"
       y2="499.92099"
       y1="547.67499"
       id="a-6-3"
       x1="389.32001">
      <stop
         stop-color="#18222a"
         style="stop-color:#1e2b35;stop-opacity:1"
         id="stop216-6" />
      <stop
         stop-color="#566069"
         offset="1"
         style="stop-color:#6d7983;stop-opacity:1"
         id="stop218-7" />
    </linearGradient>
    <linearGradient
       inkscape:collect="always"
       xlink:href="#oomox"
       id="linearGradient2"
       x1="10.707617"
       y1="31.534513"
       x2="37.173615"
       y2="31.534513"
       gradientUnits="userSpaceOnUse"
       gradientTransform="matrix(0.49119626,0,0,0.49119635,-3.7595401,-7.489638)" />
    <linearGradient
       id="oomox"
       x1="0"
       x2="0"
       y1="0"
       y2="1">
      <stop
         offset="0%"
         style="stop-color:#2a7fff;stop-opacity:1"
         id="stop7-9" />
      <stop
         offset="1"
         style="stop-color:#be64d4;stop-opacity:1;"
         id="stop8" />
    </linearGradient>
    <linearGradient
       id="linearGradient3886">
      <stop
         style="stop-color:#f9f9f9;stop-opacity:1;"
         offset="0"
         id="stop12-9" />
      <stop
         style="stop-color:#afafaf;stop-opacity:1;"
         offset="1"
         id="stop14-2" />
    </linearGradient>
    <linearGradient
       id="linearGradient7"
       gradientTransform="scale(0.93541427,1.0690451)"
       x1="11.244223"
       y1="6.2268481"
       x2="13.115051"
       y2="6.2268481"
       gradientUnits="userSpaceOnUse">
      <stop
         style="stop-color:#f9f9f9;stop-opacity:1;"
         offset="0"
         id="stop4-8" />
      <stop
         style="stop-color:#afafaf;stop-opacity:1;"
         offset="1"
         id="stop5" />
    </linearGradient>
    <linearGradient
       inkscape:collect="always"
       xlink:href="#linearGradient4432"
       id="linearGradient5"
       gradientUnits="userSpaceOnUse"
       gradientTransform="matrix(0.34957553,-0.0993514,0.0993514,0.34957553,0.21261399,-0.60830232)"
       x1="8.8079996"
       y1="15.038"
       x2="17.167999"
       y2="35.845001" />
  </defs>
  <path
     id="circle2"
     style="opacity:0.99;fill:url(#linearGradient2);fill-opacity:1;stroke-width:0.491197"
     d="M 14.499999,8 A 6.4999991,6.5000002 0 0 1 7.9999999,14.5 6.4999991,6.5000002 0 0 1 1.5000009,8 6.4999991,6.5000002 0 0 1 7.9999999,1.5 6.4999991,6.5000002 0 0 1 14.499999,8 Z" />
  <path
     id="circle858"
     style="fill:#1c202f;fill-opacity:1;stroke-width:0.417883"
     d="M 13.529826,8 A 5.5298258,5.5298269 0 0 1 7.9999999,13.529827 5.5298258,5.5298269 0 0 1 2.4701739,8 5.5298258,5.5298269 0 0 1 7.9999999,2.470173 5.5298258,5.5298269 0 0 1 13.529826,8 Z" />
  <path
     d="m 7.4978039,5.1525037 c -0.7830163,-0.197184 -1.4651651,-0.206333 -1.8888677,-0.0088 -0.4234227,0.198337 -0.5676025,0.595093 -0.4282594,1.093815 0,0 1.6116204,0.405844 1.6116204,0.405844 -0.075683,-0.270815 0.00329,-0.414038 0.1590376,-0.487279 0.1558247,-0.07302 0.4085681,-0.08518 0.8336682,0.02184 0.4250996,0.107051 0.7234261,0.258011 0.9467127,0.42647 0.2232869,0.16846 0.4003452,0.376387 0.4760124,0.647206 0.065707,0.23518 0.020902,0.316997 -0.051514,0.381126 -0.072425,0.06415 -0.2081642,0.10788 -0.4153851,0.153927 -0.2072199,0.04606 -0.487935,0.08853 -0.7182871,0.231414 -0.2303519,0.142894 -0.3560553,0.415502 -0.2545113,0.778941 0,0 0.071656,0.256519 0.071656,0.256519 0,0 1.6116202,0.405844 1.6116202,0.405844 0,0 -0.071656,-0.25652 -0.071656,-0.25652 -0.041797,-0.14959 -0.015294,-0.166484 0.05347,-0.209133 0.068756,-0.04265 0.2340489,-0.08174 0.46721,-0.133426 0.2331672,-0.05165 0.5336572,-0.121814 0.7424622,-0.307227 0.208802,-0.185424 0.290086,-0.489283 0.17648,-0.895891 C 10.67981,7.1584327 10.275037,6.6233737 9.668705,6.1657197 9.0619685,5.7079607 8.2823429,5.3499327 7.4993264,5.1527527 m 0.4863893,4.415334 c 0,0 0.2866805,1.0260643 0.2866805,1.0260643 0,0 1.61162,0.405841 1.61162,0.405841 0,0 -0.2866797,-1.0260573 -0.2866797,-1.0260573 0,0 -1.6116208,-0.405848 -1.6116208,-0.405848"
     style="fill:url(#linearGradient5);fill-opacity:1;stroke-width:0.726854;stroke-linejoin:round"
     id="path50-2-3-1" />
</svg>
