<?xml version="1.0" encoding="UTF-8" standalone="no"?>
<!-- Generator: Gravit.io -->

<svg
   style="isolation:isolate"
   viewBox="0 0 16 16"
   width="16pt"
   height="16pt"
   version="1.1"
   id="svg13"
   sodipodi:docname="kbreakout.svg"
   inkscape:version="1.3 (0e150ed6c4, 2023-07-21)"
   xmlns:inkscape="http://www.inkscape.org/namespaces/inkscape"
   xmlns:sodipodi="http://sodipodi.sourceforge.net/DTD/sodipodi-0.dtd"
   xmlns="http://www.w3.org/2000/svg"
   xmlns:svg="http://www.w3.org/2000/svg">
  <sodipodi:namedview
     id="namedview13"
     pagecolor="#ffffff"
     bordercolor="#000000"
     borderopacity="0.25"
     inkscape:showpageshadow="2"
     inkscape:pageopacity="0.0"
     inkscape:pagecheckerboard="0"
     inkscape:deskcolor="#d1d1d1"
     inkscape:document-units="pt"
     inkscape:zoom="11.984375"
     inkscape:cx="16.02086"
     inkscape:cy="8.2190352"
     inkscape:window-width="1920"
     inkscape:window-height="994"
     inkscape:window-x="0"
     inkscape:window-y="0"
     inkscape:window-maximized="1"
     inkscape:current-layer="svg13" />
  <defs
     id="defs2">
    <linearGradient
       id="_lgradient_7"
       x1="1.7320508"
       y1="6.9282031"
       x2="8.6602535"
       y2="6.9282031"
       gradientTransform="matrix(0.53611096,0,0,0.17870366,0.57142855,0.8809524)"
       gradientUnits="userSpaceOnUse">
      <stop
         offset="0%"
         style="stop-color:#FFE53B"
         id="stop1" />
      <stop
         offset="98.69565217391305%"
         style="stop-color:#FF005B"
         id="stop2" />
    </linearGradient>
  </defs>
  <path
     d="m 1.8095238,1.5 h 3.095238 c 0.1708571,0 0.3095238,0.1386667 0.3095238,0.3095238 v 0.6190476 c 0,0.1708572 -0.1386667,0.3095238 -0.3095238,0.3095238 H 1.8095238 C 1.6386667,2.7380952 1.5,2.5994286 1.5,2.4285714 V 1.8095238 C 1.5,1.6386667 1.6386667,1.5 1.8095238,1.5 Z"
     style="fill:url(#_lgradient_7);stroke:none;stroke-width:0.309524;stroke-miterlimit:10"
     id="path2" />
  <defs
     id="defs5">
    <linearGradient
       id="_lgradient_8"
       x1="10.392305"
       y1="6.9282031"
       x2="17.320507"
       y2="6.9282031"
       gradientTransform="matrix(0.53611096,0,0,0.17870366,0.57142855,0.8809524)"
       gradientUnits="userSpaceOnUse">
      <stop
         offset="0%"
         style="stop-color:#5433FF"
         id="stop3" />
      <stop
         offset="51.73913043478261%"
         style="stop-color:#20BDFF"
         id="stop4" />
      <stop
         offset="98.26086956521739%"
         style="stop-color:#A5FECB"
         id="stop5" />
    </linearGradient>
  </defs>
  <path
     d="m 6.4523809,1.5 h 3.095238 c 0.170857,0 0.309524,0.1386667 0.309524,0.3095238 v 0.6190476 c 0,0.1708572 -0.138667,0.3095238 -0.309524,0.3095238 h -3.095238 c -0.1708572,0 -0.3095239,-0.1386666 -0.3095239,-0.3095238 V 1.8095238 C 6.142857,1.6386667 6.2815237,1.5 6.4523809,1.5 Z"
     style="fill:url(#_lgradient_8);stroke:none;stroke-width:0.309524;stroke-miterlimit:10"
     id="path5" />
  <defs
     id="defs7">
    <linearGradient
       id="_lgradient_9"
       x1="10.392305"
       y1="19.052559"
       x2="17.320507"
       y2="19.052559"
       gradientTransform="matrix(0.53611096,0,0,0.17870366,0.57142855,0.8809524)"
       gradientUnits="userSpaceOnUse">
      <stop
         offset="0%"
         style="stop-color:#F7F206"
         id="stop6" />
      <stop
         offset="97.82608695652173%"
         style="stop-color:#FFBB24"
         id="stop7" />
    </linearGradient>
  </defs>
  <path
     d="m 6.4523809,3.6666667 h 3.095238 c 0.170857,0 0.309524,0.1386666 0.309524,0.3095238 v 0.6190476 c 0,0.1708571 -0.138667,0.3095238 -0.309524,0.3095238 h -3.095238 c -0.1708572,0 -0.3095239,-0.1386667 -0.3095239,-0.3095238 V 3.9761905 c 0,-0.1708572 0.1386667,-0.3095238 0.3095239,-0.3095238 z"
     style="fill:url(#_lgradient_9);stroke:none;stroke-width:0.309524;stroke-miterlimit:10"
     id="path7" />
  <defs
     id="defs9">
    <linearGradient
       id="_lgradient_10"
       x1="23.041601"
       y1="18.267618"
       x2="19.939013"
       y2="21.074083"
       gradientTransform="matrix(0.53611096,0,0,0.17870366,0.57142855,0.8809524)"
       gradientUnits="userSpaceOnUse">
      <stop
         offset="0%"
         style="stop-color:#D300DC"
         id="stop8" />
      <stop
         offset="100%"
         style="stop-color:#8700FF"
         id="stop9" />
    </linearGradient>
  </defs>
  <path
     d="m 11.095238,3.6666667 h 3.095238 c 0.170857,0 0.309524,0.1386666 0.309524,0.3095238 v 0.6190476 c 0,0.1708571 -0.138667,0.3095238 -0.309524,0.3095238 h -3.095238 c -0.170857,0 -0.309524,-0.1386667 -0.309524,-0.3095238 V 3.9761905 c 0,-0.1708572 0.138667,-0.3095238 0.309524,-0.3095238 z"
     style="fill:url(#_lgradient_10);stroke:none;stroke-width:0.309524;stroke-miterlimit:10"
     id="path9" />
  <defs
     id="defs11">
    <linearGradient
       id="_lgradient_11"
       x1="20.322922"
       y1="5.190454"
       x2="25.306952"
       y2="9.7235756"
       gradientTransform="matrix(0.53611096,0,0,0.17870366,0.57142855,0.8809524)"
       gradientUnits="userSpaceOnUse">
      <stop
         offset="2.608695652173913%"
         style="stop-color:#B3FFAB"
         id="stop10" />
      <stop
         offset="98.69565217391305%"
         style="stop-color:#12FFF7"
         id="stop11" />
    </linearGradient>
  </defs>
  <path
     d="m 11.095238,1.5 h 3.095238 C 14.361333,1.5 14.5,1.6386667 14.5,1.8095238 v 0.6190476 c 0,0.1708572 -0.138667,0.3095238 -0.309524,0.3095238 h -3.095238 c -0.170857,0 -0.309524,-0.1386666 -0.309524,-0.3095238 V 1.8095238 C 10.785714,1.6386667 10.924381,1.5 11.095238,1.5 Z"
     style="fill:url(#_lgradient_11);stroke:none;stroke-width:0.309524;stroke-miterlimit:10"
     id="path11" />
  <linearGradient
     id="_lgradient_12"
     x1="0.21875"
     y1="0.17506042"
     x2="1.0989902"
     y2="1.1181589"
     gradientTransform="matrix(10.214286,0,0,6.8095238,2.8928571,7.6904762)"
     gradientUnits="userSpaceOnUse">
    <stop
       offset="0%"
       stop-opacity="1"
       style="stop-color:rgb(252,203,144)"
       id="stop12" />
    <stop
       offset="83.91304347826087%"
       stop-opacity="1"
       style="stop-color:rgb(213,126,235)"
       id="stop13" />
  </linearGradient>
  <path
     d="m 3.5119047,13.261905 h 8.9761903 c 0.341715,0 0.619048,0.277333 0.619048,0.619047 v 0 C 13.107143,14.222667 12.82981,14.5 12.488095,14.5 H 3.5119047 C 3.1701904,14.5 2.892857,14.222667 2.892857,13.880952 v 0 c 0,-0.341714 0.2773334,-0.619047 0.6190477,-0.619047 z M 7.9999999,8.9285714 c 0,-0.6834285 0.554667,-1.2380952 1.238095,-1.2380952 0.683429,0 1.2380951,0.5546667 1.2380951,1.2380952 0,0.6834286 -0.5546661,1.2380956 -1.2380951,1.2380956 -0.683428,0 -1.238095,-0.554667 -1.238095,-1.2380956 z"
     fill-rule="evenodd"
     fill="url(#_lgradient_12)"
     id="path13"
     style="fill:url(#_lgradient_12);stroke-width:0.309524" />
</svg>
