<?xml version="1.0" encoding="UTF-8" standalone="no"?>
<svg
   version="1.1"
   viewBox="0 0 16 16"
   id="svg2256"
   sodipodi:docname="kbruch.svg"
   width="16"
   height="16"
   inkscape:version="1.3 (0e150ed6c4, 2023-07-21)"
   xmlns:inkscape="http://www.inkscape.org/namespaces/inkscape"
   xmlns:sodipodi="http://sodipodi.sourceforge.net/DTD/sodipodi-0.dtd"
   xmlns:xlink="http://www.w3.org/1999/xlink"
   xmlns="http://www.w3.org/2000/svg"
   xmlns:svg="http://www.w3.org/2000/svg">
  <sodipodi:namedview
     id="namedview2258"
     pagecolor="#ffffff"
     bordercolor="#666666"
     borderopacity="1.0"
     inkscape:showpageshadow="2"
     inkscape:pageopacity="0.0"
     inkscape:pagecheckerboard="0"
     inkscape:deskcolor="#d1d1d1"
     showgrid="false"
     inkscape:zoom="29.5"
     inkscape:cx="6.9152542"
     inkscape:cy="8.6271186"
     inkscape:window-width="1920"
     inkscape:window-height="994"
     inkscape:window-x="0"
     inkscape:window-y="0"
     inkscape:window-maximized="1"
     inkscape:current-layer="svg2256" />
  <defs
     id="defs2218">
    <linearGradient
       id="b"
       x1="434.57144"
       x2="384.57144"
       y1="543.79797"
       y2="503.798"
       gradientTransform="matrix(0.8749997,0,0,1.0499999,-276.822,-542.69814)"
       gradientUnits="userSpaceOnUse">
      <stop
         stop-color="#343b40"
         offset="0"
         id="stop2203" />
      <stop
         stop-color="#555e63"
         offset="1"
         id="stop2205" />
    </linearGradient>
    <linearGradient
       id="a"
       x2="0"
       y1="43.999973"
       y2="4"
       gradientTransform="matrix(0.66666621,0,0,0.69999959,384.57143,514.998)"
       gradientUnits="userSpaceOnUse">
      <stop
         stop-color="#bd8d48"
         offset="0"
         id="stop2208" />
      <stop
         stop-color="#e8b971"
         offset="1"
         id="stop2210" />
    </linearGradient>
    <linearGradient
       id="c"
       x1="37.581001"
       x2="53.580002"
       y1="17.139999"
       y2="33.139999"
       gradientTransform="matrix(1.4902446,0,0,1.4902444,7.7649691,-36.619686)"
       gradientUnits="userSpaceOnUse">
      <stop
         stop-color="#383e51"
         offset="0"
         id="stop2213" />
      <stop
         stop-color="#655c6f"
         stop-opacity="0"
         offset="1"
         id="stop2215" />
    </linearGradient>
    <linearGradient
       gradientTransform="matrix(1.0499636,0,0,1.0499041,-393.59543,-549.88348)"
       gradientUnits="userSpaceOnUse"
       x2="426.69501"
       y2="499.92099"
       y1="547.67499"
       id="a-6"
       x1="389.32001">
      <stop
         stop-color="#18222a"
         style="stop-color:#1e2b35;stop-opacity:1"
         id="stop216" />
      <stop
         stop-color="#566069"
         offset="1"
         style="stop-color:#6d7983;stop-opacity:1"
         id="stop218" />
    </linearGradient>
    <filter
       id="filter1032-7-5"
       x="-0.18000001"
       y="-0.18000001"
       width="1.36"
       height="1.36"
       color-interpolation-filters="sRGB">
      <feGaussianBlur
         stdDeviation="0.6"
         id="feGaussianBlur566-5-6" />
    </filter>
    <filter
       id="filter499"
       x="-0.18000001"
       y="-0.18000001"
       width="1.36"
       height="1.36"
       color-interpolation-filters="sRGB">
      <feGaussianBlur
         stdDeviation="0.6"
         id="feGaussianBlur497" />
    </filter>
    <filter
       id="filter503"
       x="-0.18000001"
       y="-0.18000001"
       width="1.36"
       height="1.36"
       color-interpolation-filters="sRGB">
      <feGaussianBlur
         stdDeviation="0.6"
         id="feGaussianBlur501" />
    </filter>
    <filter
       id="filter507"
       x="-0.18000001"
       y="-0.18000001"
       width="1.36"
       height="1.36"
       color-interpolation-filters="sRGB">
      <feGaussianBlur
         stdDeviation="0.6"
         id="feGaussianBlur505" />
    </filter>
    <filter
       id="filter511"
       x="-0.18000001"
       y="-0.18000001"
       width="1.36"
       height="1.36"
       color-interpolation-filters="sRGB">
      <feGaussianBlur
         stdDeviation="0.6"
         id="feGaussianBlur509" />
    </filter>
    <filter
       id="filter515"
       x="-0.18000001"
       y="-0.18000001"
       width="1.36"
       height="1.36"
       color-interpolation-filters="sRGB">
      <feGaussianBlur
         stdDeviation="0.6"
         id="feGaussianBlur513" />
    </filter>
    <linearGradient
       id="linearGradient1058">
      <stop
         stop-color="#136de2"
         offset="0"
         id="stop570" />
      <stop
         stop-color="#26bbcf"
         offset="1"
         id="stop572" />
    </linearGradient>
    <linearGradient
       id="linearGradient1042">
      <stop
         stop-color="#ffb636"
         offset="0"
         id="stop577" />
      <stop
         stop-color="#eeed51"
         offset="1"
         id="stop579" />
    </linearGradient>
    <linearGradient
       inkscape:collect="always"
       xlink:href="#linearGradient4"
       id="linearGradient2"
       x1="10.707617"
       y1="31.534513"
       x2="37.173615"
       y2="31.534513"
       gradientUnits="userSpaceOnUse"
       gradientTransform="matrix(0.49119626,0,0,0.49119635,-3.7595401,-7.4896378)" />
    <linearGradient
       id="linearGradient4"
       inkscape:collect="always">
      <stop
         style="stop-color:#ffd42a;stop-opacity:1"
         offset="0"
         id="stop3" />
      <stop
         style="stop-color:#ff00ff;stop-opacity:1"
         offset="1"
         id="stop4" />
    </linearGradient>
    <linearGradient
       inkscape:collect="always"
       xlink:href="#linearGradient4"
       id="linearGradient11"
       x1="4.4476051"
       y1="10.578368"
       x2="5.8443937"
       y2="10.578368"
       gradientUnits="userSpaceOnUse" />
  </defs>
  <path
     id="circle2"
     style="opacity:0.99;fill:url(#linearGradient2);fill-opacity:1;stroke-width:0.491197"
     d="M 14.499999,8 A 6.4999991,6.5000002 0 0 1 8,14.5 6.4999991,6.5000002 0 0 1 1.5000009,8 6.4999991,6.5000002 0 0 1 8,1.5 6.4999991,6.5000002 0 0 1 14.499999,8 Z" />
  <path
     id="circle858"
     style="fill:#1c202f;fill-opacity:1;stroke-width:0.417883"
     d="M 13.529826,8 A 5.5298258,5.5298269 0 0 1 8,13.529827 5.5298258,5.5298269 0 0 1 2.4701741,8 5.5298258,5.5298269 0 0 1 8,2.470173 5.5298258,5.5298269 0 0 1 13.529826,8 Z" />
  <rect
     x="7.0651259"
     y="11.773019"
     width="1.5645334"
     height="0.39113328"
     id="rect2226-5-2"
     style="stroke-width:0.260756;fill:#ff2a2a" />
  <rect
     x="9.020793"
     y="11.773019"
     width="1.5645437"
     height="0.39114124"
     color="#000000"
     stroke-width="0.260756"
     id="rect2230-3-8"
     style="fill:#d6d6d6" />
  <path
     d="m 4.0909953,7.5487515 c -0.00219,0 -0.00289,0.087231 -0.00289,0.1955621 0,0.1083662 0.0017,0.1955718 0.00289,0.1955718 H 7.99739 C 7.99948,7.9398854 8,7.8526544 8,7.7443136 8,7.6359598 7.9994378,7.5487515 7.99739,7.5487515 Z"
     stroke-width="0.309206"
     id="path2232-5-9"
     style="fill:#d6d6d6" />
  <text
     x="4.8465281"
     y="7.0772724"
     font-family="monospace"
     font-size="8.34459px"
     letter-spacing="0px"
     word-spacing="0px"
     style="line-height:1.25;fill:#d6d6d6;stroke-width:0.391112"
     xml:space="preserve"
     id="text2236-6-7"><tspan
       x="4.8465281"
       y="7.0772724"
       fill="#d6d6d6"
       font-family="'Nimbus Sans'"
       font-size="4.17206px"
       id="tspan2234-2-3"
       style="stroke-width:0.392398">6</tspan></text>
  <text
     x="5.0151258"
     y="11.297364"
     font-family="'Noto Sans'"
     font-size="4.17206px"
     letter-spacing="0px"
     word-spacing="0px"
     style="line-height:1.25;fill:#d6d6d6;stroke-width:0.391112"
     xml:space="preserve"
     id="text2240-9-6"><tspan
       x="5.0151258"
       y="11.297364"
       id="tspan2238-1-1"
       style="stroke-width:0.391112">3</tspan></text>
  <path
     d="m 8.3947523,7.1576121 c -5.635e-4,0 -5.635e-4,0.087231 -5.635e-4,0.1955655 0,0.1083528 2.607e-4,0.1955739 5.635e-4,0.1955739 h 1.5626678 c 5.66e-4,0 5.66e-4,-0.087231 5.66e-4,-0.1955739 0,-0.1083528 -2.66e-4,-0.1955655 -5.66e-4,-0.1955655 z"
     stroke-width="0.195571"
     id="path2242-2-2"
     style="fill:#d6d6d6" />
  <path
     d="m 8.3947523,7.9398854 c -5.635e-4,0 -5.635e-4,0.087231 -5.635e-4,0.1955699 0,0.1083529 2.607e-4,0.195566 5.635e-4,0.195566 h 1.5626678 c 5.66e-4,0 5.66e-4,-0.087221 5.66e-4,-0.195566 0,-0.1083671 -2.66e-4,-0.1955699 -5.66e-4,-0.1955699 z"
     stroke-width="0.195571"
     id="path2244-7-9"
     style="fill:#d6d6d6" />
  <text
     x="10.37513"
     y="9.0888462"
     font-family="'Noto Sans'"
     font-size="4.17206px"
     letter-spacing="0px"
     word-spacing="0px"
     style="line-height:1.25;fill:#d6d6d6;stroke-width:0.391112"
     xml:space="preserve"
     id="text2248-0-3"><tspan
       x="10.37513"
       y="9.0888462"
       id="tspan2246-9-1"
       style="stroke-width:0.391112">2</tspan></text>
</svg>
