<?xml version="1.0" encoding="UTF-8" standalone="no"?>
<!-- Created with Inkscape (http://www.inkscape.org/) -->

<svg
   version="1.1"
   id="svg2"
   width="16"
   height="16"
   viewBox="0 0 16 16"
   sodipodi:docname="kfourinline.svg"
   inkscape:version="1.3 (0e150ed6c4, 2023-07-21)"
   xmlns:inkscape="http://www.inkscape.org/namespaces/inkscape"
   xmlns:sodipodi="http://sodipodi.sourceforge.net/DTD/sodipodi-0.dtd"
   xmlns:xlink="http://www.w3.org/1999/xlink"
   xmlns="http://www.w3.org/2000/svg"
   xmlns:svg="http://www.w3.org/2000/svg"
   xmlns:rdf="http://www.w3.org/1999/02/22-rdf-syntax-ns#"
   xmlns:cc="http://creativecommons.org/ns#"
   xmlns:dc="http://purl.org/dc/elements/1.1/">
  <metadata
     id="metadata8">
    <rdf:RDF>
      <cc:Work
         rdf:about="">
        <dc:format>image/svg+xml</dc:format>
        <dc:type
           rdf:resource="http://purl.org/dc/dcmitype/StillImage" />
      </cc:Work>
    </rdf:RDF>
  </metadata>
  <defs
     id="defs6">
    <linearGradient
       id="linearGradient4197">
      <stop
         id="stop824"
         offset="0"
         style="stop-color:#c6cdd1;stop-opacity:1" />
      <stop
         id="stop826"
         offset="1"
         style="stop-color:#e0e5e7;stop-opacity:1" />
    </linearGradient>
    <linearGradient
       id="linearGradient4184">
      <stop
         id="stop829"
         offset="0"
         style="stop-color:#000000;stop-opacity:1;" />
      <stop
         id="stop831"
         offset="1"
         style="stop-color:#000000;stop-opacity:0;" />
    </linearGradient>
    <linearGradient
       id="linearGradient4167">
      <stop
         id="stop834"
         offset="0"
         style="stop-color:#d01c2d;stop-opacity:1" />
      <stop
         id="stop836"
         offset="1"
         style="stop-color:#e05e4c;stop-opacity:1" />
    </linearGradient>
    <linearGradient
       gradientUnits="userSpaceOnUse"
       y2="43.208984"
       x2="45.792969"
       y1="12.696203"
       x1="11.79297"
       id="linearGradient4190"
       xlink:href="#linearGradient4184"
       gradientTransform="translate(-46.134538,-30.208548)" />
    <linearGradient
       gradientTransform="translate(65.007066,2.1680782)"
       id="c-1"
       gradientUnits="userSpaceOnUse"
       x1="4"
       x2="4"
       y1="3"
       y2="45">
      <stop
         offset="0"
         stop-color="#21c9fb"
         id="stop12-8" />
      <stop
         offset="1"
         stop-color="#197cf1"
         id="stop14-7" />
    </linearGradient>
    <linearGradient
       id="m"
       x1="68.210472"
       x2="148.52051"
       y1="177.75131"
       y2="258.06134"
       gradientUnits="userSpaceOnUse"
       gradientTransform="matrix(0.37626177,0,0,0.37626188,-81.025031,-29.726174)">
      <stop
         stop-color="#59f"
         offset="0"
         id="stop3371" />
      <stop
         stop-color="#06f"
         offset="1"
         id="stop3373" />
    </linearGradient>
    <linearGradient
       id="l"
       x1="220.30621"
       x2="54.439178"
       y1="207.9187"
       y2="42.051666"
       gradientTransform="matrix(0.16799417,0,0,0.1635966,-58.575391,26.60823)"
       gradientUnits="userSpaceOnUse"
       xlink:href="#a-3" />
    <linearGradient
       id="a-3">
      <stop
         stop-color="#2a7fff"
         offset="0"
         id="stop3327"
         style="stop-color:#2a7fff;stop-opacity:1;" />
      <stop
         stop-color="#0cf"
         offset="1"
         id="stop3329" />
    </linearGradient>
    <linearGradient
       id="KugelLinie1">
      <stop
         style="stop-color:#000000;stop-opacity:0.94117647;"
         offset="0.0000000"
         id="stop3531" />
      <stop
         style="stop-color:#000000;stop-opacity:0;"
         offset="1"
         id="stop3533" />
    </linearGradient>
    <linearGradient
       xlink:href="#linearGradient4167-3"
       id="linearGradient4161-3"
       x1="-44.000004"
       y1="-4.0000148"
       x2="-4.0000005"
       y2="-44.000004"
       gradientUnits="userSpaceOnUse"
       gradientTransform="matrix(0.99524562,0,0,0.99524562,-4.092147,-4.2707012)" />
    <linearGradient
       id="linearGradient4167-3">
      <stop
         style="stop-color:#29a883;stop-opacity:1;"
         offset="0"
         id="stop2" />
      <stop
         style="stop-color:#3485fd;stop-opacity:1"
         offset="1"
         id="stop4" />
    </linearGradient>
    <filter
       x="-0.16041666"
       y="-0.36666667"
       width="1.3208333"
       height="1.8285714"
       filterUnits="objectBoundingBox"
       id="filter-1-2">
      <feOffset
         dx="0"
         dy="2"
         in="SourceAlpha"
         result="shadowOffsetOuter1"
         id="feOffset6-9" />
      <feGaussianBlur
         stdDeviation="3"
         in="shadowOffsetOuter1"
         result="shadowBlurOuter1"
         id="feGaussianBlur8-1" />
      <feComposite
         in="shadowBlurOuter1"
         in2="SourceAlpha"
         operator="out"
         result="shadowBlurOuter1"
         id="feComposite10-2" />
      <feColorMatrix
         values="0 0 0 0 0   0 0 0 0 0   0 0 0 0 0  0 0 0 0.2 0"
         type="matrix"
         in="shadowBlurOuter1"
         result="shadowMatrixOuter1"
         id="feColorMatrix12-7" />
      <feMerge
         id="feMerge18-0">
        <feMergeNode
           in="shadowMatrixOuter1"
           id="feMergeNode14-9" />
        <feMergeNode
           in="SourceGraphic"
           id="feMergeNode16-3" />
      </feMerge>
    </filter>
    <linearGradient
       x1="36.536842"
       y1="83.69062"
       x2="36.536842"
       y2="119.07159"
       id="linearGradient-13"
       gradientTransform="matrix(1.5463843,0,0,0.64666979,-76,-54.999999)"
       gradientUnits="userSpaceOnUse">
      <stop
         stop-color="#000000"
         stop-opacity="0.8"
         offset="0%"
         id="stop114" />
      <stop
         stop-color="#000000"
         stop-opacity="0.531304633"
         offset="99.4721284%"
         id="stop116" />
    </linearGradient>
    <filter
       x="-0.16041666"
       y="-0.36666667"
       width="1.3208333"
       height="1.8285714"
       filterUnits="objectBoundingBox"
       id="filter518">
      <feOffset
         dx="0"
         dy="2"
         in="SourceAlpha"
         result="shadowOffsetOuter1"
         id="feOffset504" />
      <feGaussianBlur
         stdDeviation="3"
         in="shadowOffsetOuter1"
         result="shadowBlurOuter1"
         id="feGaussianBlur506" />
      <feComposite
         in="shadowBlurOuter1"
         in2="SourceAlpha"
         operator="out"
         result="shadowBlurOuter1"
         id="feComposite508" />
      <feColorMatrix
         values="0 0 0 0 0   0 0 0 0 0   0 0 0 0 0  0 0 0 0.2 0"
         type="matrix"
         in="shadowBlurOuter1"
         result="shadowMatrixOuter1"
         id="feColorMatrix510" />
      <feMerge
         id="feMerge516">
        <feMergeNode
           in="shadowMatrixOuter1"
           id="feMergeNode512" />
        <feMergeNode
           in="SourceGraphic"
           id="feMergeNode514" />
      </feMerge>
    </filter>
    <filter
       color-interpolation-filters="sRGB"
       height="1.12"
       width="1.12"
       y="-0.059999996"
       x="-0.059999996"
       id="filter999">
      <feGaussianBlur
         id="feGaussianBlur975"
         stdDeviation="0.21166249" />
    </filter>
    <linearGradient
       xlink:href="#linearGradient935"
       gradientUnits="userSpaceOnUse"
       y2="10.655"
       y1="10.655"
       x2="7.0493999"
       x1="4.9327998"
       id="linearGradient923" />
    <linearGradient
       id="linearGradient935">
      <stop
         id="stop955"
         offset="0"
         stop-color="#548fed" />
      <stop
         id="stop957"
         offset="1"
         stop-color="#5ebae3" />
    </linearGradient>
    <linearGradient
       xlink:href="#linearGradient935"
       gradientUnits="userSpaceOnUse"
       y2="10.655"
       y1="10.655"
       x2="11.283"
       x1="9.1660995"
       id="linearGradient927" />
    <linearGradient
       xlink:href="#linearGradient913"
       gradientUnits="userSpaceOnUse"
       y2="10.655"
       y1="10.655"
       x2="13.399"
       x1="11.283"
       id="linearGradient907-6" />
    <linearGradient
       id="linearGradient913">
      <stop
         id="stop960"
         offset="0"
         stop-color="#8ae234" />
      <stop
         id="stop962"
         offset="1"
         stop-color="#47e767" />
    </linearGradient>
    <linearGradient
       xlink:href="#linearGradient935"
       gradientUnits="userSpaceOnUse"
       y2="8.5382004"
       y1="8.5382004"
       x2="9.1660995"
       x1="7.0493999"
       id="linearGradient925" />
    <linearGradient
       xlink:href="#linearGradient951"
       gradientUnits="userSpaceOnUse"
       y2="8.5382004"
       y1="8.5382004"
       x2="13.399"
       x1="11.283"
       id="linearGradient943" />
    <linearGradient
       id="linearGradient951">
      <stop
         id="stop950"
         offset="0"
         stop-color="#ec4520" />
      <stop
         id="stop952"
         offset="1"
         stop-color="#f58517" />
    </linearGradient>
    <linearGradient
       xlink:href="#linearGradient913"
       gradientUnits="userSpaceOnUse"
       y2="6.4215999"
       y1="6.4215999"
       x2="9.1660995"
       x1="7.0493999"
       id="linearGradient905-3" />
    <linearGradient
       xlink:href="#linearGradient935"
       gradientUnits="userSpaceOnUse"
       y2="6.4215999"
       y1="6.4215999"
       x2="11.283"
       x1="9.1660995"
       id="linearGradient929" />
    <linearGradient
       xlink:href="#linearGradient913"
       gradientUnits="userSpaceOnUse"
       y2="4.3049998"
       y1="4.3049998"
       x2="7.0493999"
       x1="4.9327998"
       id="linearGradient903" />
    <linearGradient
       xlink:href="#linearGradient951"
       gradientUnits="userSpaceOnUse"
       y2="4.3049998"
       y1="4.3049998"
       x2="9.1660995"
       x1="7.0493999"
       id="linearGradient945" />
    <linearGradient
       xlink:href="#linearGradient935"
       gradientUnits="userSpaceOnUse"
       y2="4.3049998"
       y1="4.3049998"
       x2="13.399"
       x1="11.283"
       id="linearGradient921" />
  </defs>
  <sodipodi:namedview
     pagecolor="#ffffff"
     bordercolor="#666666"
     borderopacity="1"
     objecttolerance="10"
     gridtolerance="10"
     guidetolerance="10"
     inkscape:pageopacity="0"
     inkscape:pageshadow="2"
     inkscape:window-width="1920"
     inkscape:window-height="994"
     id="namedview4"
     showgrid="false"
     inkscape:zoom="5.6568543"
     inkscape:cx="8.131728"
     inkscape:cy="39.509591"
     inkscape:window-x="0"
     inkscape:window-y="0"
     inkscape:window-maximized="1"
     inkscape:current-layer="svg2"
     inkscape:showpageshadow="2"
     inkscape:pagecheckerboard="0"
     inkscape:deskcolor="#d1d1d1">
    <inkscape:grid
       type="xygrid"
       id="grid877"
       originx="0"
       originy="0"
       spacingy="1"
       spacingx="1"
       units="px"
       visible="false" />
  </sodipodi:namedview>
  <g
     id="g1155"
     transform="matrix(0.77833422,0,0,0.77833422,-4.8708838,-5.2827432)">
    <g
       id="g1019"
       transform="matrix(1.8968805,0,0,1.8968805,-0.85045311,2.8770321)"
       style="opacity:0.35;filter:url(#filter999)">
      <path
         id="path999"
         d="m 5.9911,9.5966 c -0.58419,0 -1.0583,0.47412 -1.0583,1.0583 0,0.58418 0.47412,1.0583 1.0583,1.0583 0.58419,0 1.0583,-0.47412 1.0583,-1.0583 0,-0.58418 -0.47412,-1.0583 -1.0583,-1.0583 z"
         inkscape:connector-curvature="0" />
      <path
         id="path1001"
         d="m 10.224,9.5966 c -0.58419,0 -1.0583,0.47412 -1.0583,1.0583 0,0.58418 0.47412,1.0583 1.0583,1.0583 0.58419,0 1.0583,-0.47412 1.0583,-1.0583 0,-0.58418 -0.47412,-1.0583 -1.0583,-1.0583 z"
         inkscape:connector-curvature="0" />
      <path
         id="path1003"
         d="m 12.341,9.5966 c -0.58419,0 -1.0583,0.47412 -1.0583,1.0583 0,0.58418 0.47412,1.0583 1.0583,1.0583 0.58418,0 1.0583,-0.47412 1.0583,-1.0583 0,-0.58418 -0.47412,-1.0583 -1.0583,-1.0583 z"
         inkscape:connector-curvature="0" />
      <path
         id="path1005"
         d="m 8.1078,7.4799 c -0.58419,0 -1.0583,0.47412 -1.0583,1.0583 0,0.58419 0.47412,1.0583 1.0583,1.0583 0.58418,0 1.0583,-0.47412 1.0583,-1.0583 0,-0.58419 -0.47412,-1.0583 -1.0583,-1.0583 z"
         inkscape:connector-curvature="0" />
      <path
         id="path1007"
         d="m 12.341,7.4799 c -0.58419,0 -1.0583,0.47412 -1.0583,1.0583 0,0.58419 0.47412,1.0583 1.0583,1.0583 0.58418,0 1.0583,-0.47412 1.0583,-1.0583 0,-0.58419 -0.47412,-1.0583 -1.0583,-1.0583 z"
         inkscape:connector-curvature="0" />
      <path
         id="path1009"
         d="m 8.1078,5.3633 c -0.58419,0 -1.0583,0.47412 -1.0583,1.0583 0,0.58418 0.47412,1.0583 1.0583,1.0583 0.58418,0 1.0583,-0.47412 1.0583,-1.0583 0,-0.58418 -0.47412,-1.0583 -1.0583,-1.0583 z"
         inkscape:connector-curvature="0" />
      <path
         id="path1011"
         d="m 10.224,5.3633 c -0.58419,0 -1.0583,0.47412 -1.0583,1.0583 0,0.58418 0.47412,1.0583 1.0583,1.0583 0.58419,0 1.0583,-0.47412 1.0583,-1.0583 0,-0.58418 -0.47412,-1.0583 -1.0583,-1.0583 z"
         inkscape:connector-curvature="0" />
      <path
         id="path1013"
         d="m 5.9911,3.2467 c -0.58419,0 -1.0583,0.47412 -1.0583,1.0583 0,0.58419 0.47412,1.0583 1.0583,1.0583 0.58419,0 1.0583,-0.47412 1.0583,-1.0583 0,-0.58419 -0.47412,-1.0583 -1.0583,-1.0583 z"
         inkscape:connector-curvature="0" />
      <path
         id="path1015"
         d="m 8.1078,3.2467 c -0.58419,0 -1.0583,0.47412 -1.0583,1.0583 0,0.58419 0.47412,1.0583 1.0583,1.0583 0.58418,0 1.0583,-0.47412 1.0583,-1.0583 0,-0.58419 -0.47412,-1.0583 -1.0583,-1.0583 z"
         inkscape:connector-curvature="0" />
      <path
         id="path1017"
         d="m 12.341,3.2467 c -0.58419,0 -1.0583,0.47412 -1.0583,1.0583 0,0.58419 0.47412,1.0583 1.0583,1.0583 0.58418,0 1.0583,-0.47412 1.0583,-1.0583 0,-0.58419 -0.47412,-1.0583 -1.0583,-1.0583 z"
         inkscape:connector-curvature="0" />
    </g>
    <g
       id="g1041"
       transform="matrix(1.8968805,0,0,1.8968805,-0.85045311,2.8770321)">
      <path
         id="path1021"
         d="m 5.9911,9.5966 c -0.58419,0 -1.0583,0.47412 -1.0583,1.0583 0,0.58418 0.47412,1.0583 1.0583,1.0583 0.58419,0 1.0583,-0.47412 1.0583,-1.0583 0,-0.58418 -0.47412,-1.0583 -1.0583,-1.0583 z"
         inkscape:connector-curvature="0"
         style="fill:url(#linearGradient923)" />
      <path
         id="path1023"
         d="m 10.224,9.5966 c -0.58419,0 -1.0583,0.47412 -1.0583,1.0583 0,0.58418 0.47412,1.0583 1.0583,1.0583 0.58419,0 1.0583,-0.47412 1.0583,-1.0583 0,-0.58418 -0.47412,-1.0583 -1.0583,-1.0583 z"
         inkscape:connector-curvature="0"
         style="fill:url(#linearGradient927)" />
      <path
         style="fill:url(#linearGradient907-6)"
         id="path1025"
         d="m 12.341,9.5966 c -0.58419,0 -1.0583,0.47412 -1.0583,1.0583 0,0.58418 0.47412,1.0583 1.0583,1.0583 0.58418,0 1.0583,-0.47412 1.0583,-1.0583 0,-0.58418 -0.47412,-1.0583 -1.0583,-1.0583 z"
         inkscape:connector-curvature="0" />
      <path
         id="path1027"
         d="m 8.1078,7.4799 c -0.58419,0 -1.0583,0.47412 -1.0583,1.0583 0,0.58419 0.47412,1.0583 1.0583,1.0583 0.58418,0 1.0583,-0.47412 1.0583,-1.0583 0,-0.58419 -0.47412,-1.0583 -1.0583,-1.0583 z"
         inkscape:connector-curvature="0"
         style="fill:url(#linearGradient925)" />
      <path
         id="path1029"
         d="m 12.341,7.4799 c -0.58419,0 -1.0583,0.47412 -1.0583,1.0583 0,0.58419 0.47412,1.0583 1.0583,1.0583 0.58418,0 1.0583,-0.47412 1.0583,-1.0583 0,-0.58419 -0.47412,-1.0583 -1.0583,-1.0583 z"
         inkscape:connector-curvature="0"
         style="fill:url(#linearGradient943)" />
      <path
         style="fill:url(#linearGradient905-3)"
         id="path1031"
         d="m 8.1078,5.3633 c -0.58419,0 -1.0583,0.47412 -1.0583,1.0583 0,0.58418 0.47412,1.0583 1.0583,1.0583 0.58418,0 1.0583,-0.47412 1.0583,-1.0583 0,-0.58418 -0.47412,-1.0583 -1.0583,-1.0583 z"
         inkscape:connector-curvature="0" />
      <path
         id="path1033"
         d="m 10.224,5.3633 c -0.58419,0 -1.0583,0.47412 -1.0583,1.0583 0,0.58418 0.47412,1.0583 1.0583,1.0583 0.58419,0 1.0583,-0.47412 1.0583,-1.0583 0,-0.58418 -0.47412,-1.0583 -1.0583,-1.0583 z"
         inkscape:connector-curvature="0"
         style="fill:url(#linearGradient929)" />
      <path
         id="path1035"
         d="m 5.9911,3.2467 c -0.58419,0 -1.0583,0.47412 -1.0583,1.0583 0,0.58419 0.47412,1.0583 1.0583,1.0583 0.58419,0 1.0583,-0.47412 1.0583,-1.0583 0,-0.58419 -0.47412,-1.0583 -1.0583,-1.0583 z"
         inkscape:connector-curvature="0"
         style="fill:url(#linearGradient903)" />
      <path
         id="path1037"
         d="m 8.1078,3.2467 c -0.58419,0 -1.0583,0.47412 -1.0583,1.0583 0,0.58419 0.47412,1.0583 1.0583,1.0583 0.58418,0 1.0583,-0.47412 1.0583,-1.0583 0,-0.58419 -0.47412,-1.0583 -1.0583,-1.0583 z"
         inkscape:connector-curvature="0"
         style="fill:url(#linearGradient945)" />
      <path
         id="path1039"
         d="m 12.341,3.2467 c -0.58419,0 -1.0583,0.47412 -1.0583,1.0583 0,0.58419 0.47412,1.0583 1.0583,1.0583 0.58418,0 1.0583,-0.47412 1.0583,-1.0583 0,-0.58419 -0.47412,-1.0583 -1.0583,-1.0583 z"
         inkscape:connector-curvature="0"
         style="fill:url(#linearGradient921)" />
    </g>
  </g>
</svg>
