<?xml version="1.0" encoding="UTF-8" standalone="no"?>
<svg
   style="isolation:isolate"
   width="16"
   height="16"
   viewBox="0 0 16 16"
   version="1.1"
   id="svg22"
   sodipodi:docname="khangman.svg"
   inkscape:version="1.3 (0e150ed6c4, 2023-07-21)"
   xmlns:inkscape="http://www.inkscape.org/namespaces/inkscape"
   xmlns:sodipodi="http://sodipodi.sourceforge.net/DTD/sodipodi-0.dtd"
   xmlns:xlink="http://www.w3.org/1999/xlink"
   xmlns="http://www.w3.org/2000/svg"
   xmlns:svg="http://www.w3.org/2000/svg">
  <sodipodi:namedview
     id="namedview22"
     pagecolor="#ffffff"
     bordercolor="#000000"
     borderopacity="0.25"
     inkscape:showpageshadow="2"
     inkscape:pageopacity="0.0"
     inkscape:pagecheckerboard="0"
     inkscape:deskcolor="#d1d1d1"
     inkscape:zoom="33.896931"
     inkscape:cx="7.4638025"
     inkscape:cy="8.7176033"
     inkscape:window-width="1920"
     inkscape:window-height="994"
     inkscape:window-x="0"
     inkscape:window-y="0"
     inkscape:window-maximized="1"
     inkscape:current-layer="svg22" />
  <defs
     id="defs22">
    <style
       id="current-color-scheme"
       type="text/css">&#10;   .ColorScheme-Text { color:#d5c289; } .ColorScheme-Highlight { color:#5294e2; }&#10;  </style>
    <linearGradient
       id="arrongin"
       x1="0%"
       x2="0%"
       y1="0%"
       y2="100%">
      <stop
         offset="0%"
         style="stop-color:#dd9b44; stop-opacity:1"
         id="stop1" />
      <stop
         offset="100%"
         style="stop-color:#ad6c16; stop-opacity:1"
         id="stop2" />
    </linearGradient>
    <linearGradient
       id="aurora"
       x1="0%"
       x2="0%"
       y1="0%"
       y2="100%">
      <stop
         offset="0%"
         style="stop-color:#09D4DF; stop-opacity:1"
         id="stop3" />
      <stop
         offset="100%"
         style="stop-color:#9269F4; stop-opacity:1"
         id="stop4" />
    </linearGradient>
    <linearGradient
       id="fitdance"
       x1="0%"
       x2="0%"
       y1="0%"
       y2="100%">
      <stop
         offset="0%"
         style="stop-color:#1AD6AB; stop-opacity:1"
         id="stop5" />
      <stop
         offset="100%"
         style="stop-color:#329DB6; stop-opacity:1"
         id="stop6" />
    </linearGradient>
    <linearGradient
       id="oomox"
       x1="5.0730285"
       x2="5.0730285"
       y1="0"
       y2="11.712017"
       gradientTransform="matrix(0.59767701,0,0,1.1099712,1.4679674,1.4999999)"
       gradientUnits="userSpaceOnUse">
      <stop
         offset="0%"
         style="stop-color:#303b3d; stop-opacity:1"
         id="stop7" />
      <stop
         offset="100%"
         style="stop-color:#bc985d; stop-opacity:1"
         id="stop8" />
    </linearGradient>
    <linearGradient
       id="rainblue"
       x1="0%"
       x2="0%"
       y1="0%"
       y2="100%">
      <stop
         offset="0%"
         style="stop-color:#00F260; stop-opacity:1"
         id="stop9" />
      <stop
         offset="100%"
         style="stop-color:#0575E6; stop-opacity:1"
         id="stop10" />
    </linearGradient>
    <linearGradient
       id="sunrise"
       x1="0%"
       x2="0%"
       y1="0%"
       y2="100%">
      <stop
         offset="0%"
         style="stop-color: #FF8501; stop-opacity:1"
         id="stop11" />
      <stop
         offset="100%"
         style="stop-color: #FFCB01; stop-opacity:1"
         id="stop12" />
    </linearGradient>
    <linearGradient
       id="telinkrin"
       x1="0%"
       x2="0%"
       y1="0%"
       y2="100%">
      <stop
         offset="0%"
         style="stop-color: #b2ced6; stop-opacity:1"
         id="stop13" />
      <stop
         offset="100%"
         style="stop-color: #6da5b7; stop-opacity:1"
         id="stop14" />
    </linearGradient>
    <linearGradient
       id="60spsycho"
       x1="0%"
       x2="0%"
       y1="0%"
       y2="100%">
      <stop
         offset="0%"
         style="stop-color: #df5940; stop-opacity:1"
         id="stop15" />
      <stop
         offset="25%"
         style="stop-color: #d8d15f; stop-opacity:1"
         id="stop16" />
      <stop
         offset="50%"
         style="stop-color: #e9882a; stop-opacity:1"
         id="stop17" />
      <stop
         offset="100%"
         style="stop-color: #279362; stop-opacity:1"
         id="stop18" />
    </linearGradient>
    <linearGradient
       id="90ssummer"
       x1="0%"
       x2="0%"
       y1="0%"
       y2="100%">
      <stop
         offset="0%"
         style="stop-color: #f618c7; stop-opacity:1"
         id="stop19" />
      <stop
         offset="20%"
         style="stop-color: #94ffab; stop-opacity:1"
         id="stop20" />
      <stop
         offset="50%"
         style="stop-color: #fbfd54; stop-opacity:1"
         id="stop21" />
      <stop
         offset="100%"
         style="stop-color: #0f83ae; stop-opacity:1"
         id="stop22" />
    </linearGradient>
    <linearGradient
       inkscape:collect="always"
       xlink:href="#fitdance"
       id="linearGradient24"
       x1="4.5"
       y1="2.6307824"
       x2="9.6087828"
       y2="9.5356159"
       gradientUnits="userSpaceOnUse" />
  </defs>
  <path
     class="ColorScheme-Text"
     fill-rule="evenodd"
     d="m 8.6964197,6.2417499 h 0.1061446 c 0.4498896,0 0.8156811,-0.3631876 0.8156811,-0.810875 v 0 c 0,-0.37375 -0.2539308,-0.6881874 -0.6009427,-0.78 0.3470119,-0.091811 0.6009427,-0.40625 0.6009427,-0.78 v 0 c 0,-0.3705 -0.2506648,-0.684125 -0.5952267,-0.77675 0.3502769,-0.090189 0.6074737,-0.4070624 0.6074737,-0.7824375 v 0 c 0,-0.4476875 -0.3649745,-0.8116875 -0.8148641,-0.8116875 H 7.1842664 c -0.4498906,0 -0.8156814,0.364 -0.8156814,0.8116875 v 0 c 0,0.3704999 0.2506652,0.6841249 0.5952271,0.7767499 C 6.6135342,3.1786263 6.356338,3.4954999 6.356338,3.8708749 v 0 c 0,0.37375 0.2539302,0.6881876 0.6009421,0.78 -0.3470119,0.091811 -0.6009421,0.40625 -0.6009421,0.78 v 0 c 0,0.437125 0.3478278,0.7938126 0.7838375,0.80925 v 0 C 6.364503,6.7341249 5.711305,7.3995623 5.2352864,8.186875 4.762535,8.957938 4.5094207,9.8419371 4.5012558,10.743 c -0.024496,0.949 0.310269,1.882561 0.92999,2.604876 0.3257831,0.364813 0.7258668,0.657313 1.1741234,0.851498 C 7.0862867,14.4025 7.6080281,14.5 8.1305865,14.5 h 0.00815 c 0.4972516,0 0.9944986,-0.105626 1.4509209,-0.316874 0.4245816,-0.194187 0.7993566,-0.486687 1.0932956,-0.851502 0.554405,-0.714185 0.839358,-1.607124 0.815682,-2.499249 C 11.490471,9.7200631 11.123052,8.6329374 10.454339,7.7399999 9.9848494,7.1135624 9.3830936,6.6033123 8.6964197,6.2417499 Z M 7.9101322,7.6676873 c 1.1904532,0.6166877 1.9489802,1.8419377 1.9571422,3.1809377 0.01632,0.535437 -0.146968,1.054625 -0.4645849,1.476314 -0.1388046,0.1625 -0.310269,0.300622 -0.5054114,0.39 -0.2367843,0.105622 -0.4898985,0.161687 -0.7503617,0.161687 0,0 -0.00815,0 -0.00815,0 h -0.01633 c 0,0 0,0 -0.00815,0 -0.2939391,0 -0.5870615,-0.05609 -0.8646707,-0.169815 -0.2204564,-0.0975 -0.4237646,-0.24375 -0.587064,-0.4225 C 6.3032694,11.862626 6.1162916,11.327188 6.1326216,10.7755 6.1407866,10.158814 6.3114344,9.5583751 6.6298685,9.03025 6.955651,8.4948124 7.3965597,8.024375 7.9101364,7.6676873 Z"
     id="path22"
     style="fill:url(#linearGradient24)" />
</svg>
