<?xml version="1.0" encoding="UTF-8" standalone="no"?>
<svg
   width="16"
   height="16"
   viewBox="0 0 16 16"
   fill="none"
   version="1.1"
   id="svg5"
   sodipodi:docname="kile.svg"
   inkscape:version="1.3 (0e150ed6c4, 2023-07-21)"
   xmlns:inkscape="http://www.inkscape.org/namespaces/inkscape"
   xmlns:sodipodi="http://sodipodi.sourceforge.net/DTD/sodipodi-0.dtd"
   xmlns:xlink="http://www.w3.org/1999/xlink"
   xmlns="http://www.w3.org/2000/svg"
   xmlns:svg="http://www.w3.org/2000/svg">
  <sodipodi:namedview
     id="namedview5"
     pagecolor="#ffffff"
     bordercolor="#000000"
     borderopacity="0.25"
     inkscape:showpageshadow="2"
     inkscape:pageopacity="0.0"
     inkscape:pagecheckerboard="0"
     inkscape:deskcolor="#d1d1d1"
     inkscape:zoom="23.96875"
     inkscape:cx="8.2190352"
     inkscape:cy="11.702738"
     inkscape:window-width="1920"
     inkscape:window-height="994"
     inkscape:window-x="0"
     inkscape:window-y="0"
     inkscape:window-maximized="1"
     inkscape:current-layer="svg5" />
  <defs
     id="defs5">
    <linearGradient
       id="paint0_linear_678_407"
       x1="44.25"
       y1="46"
       x2="44.25"
       y2="18"
       gradientUnits="userSpaceOnUse"
       gradientTransform="matrix(0.22806993,0,0,0.22806993,0.70172877,0.70176215)">
      <stop
         stop-color="#5558FF"
         id="stop2" />
      <stop
         offset="1"
         stop-color="#00C0FF"
         id="stop3" />
    </linearGradient>
    <linearGradient
       id="paint1_linear_678_407"
       x1="44.25"
       y1="46"
       x2="44.25"
       y2="18"
       gradientUnits="userSpaceOnUse"
       gradientTransform="matrix(0.22806993,0,0,0.22806993,0.70172877,0.70176215)">
      <stop
         stop-color="#5558FF"
         id="stop4" />
      <stop
         offset="1"
         stop-color="#00C0FF"
         id="stop5" />
    </linearGradient>
    <linearGradient
       id="linearGradient6"
       x1="0"
       x2="0"
       y1="0"
       y2="1">
      <stop
         offset="0%"
         style="stop-color:#ffb380;stop-opacity:1"
         id="stop5-8" />
      <stop
         offset="100%"
         style="stop-color:#ff00ff;stop-opacity:1"
         id="stop6" />
    </linearGradient>
    <linearGradient
       inkscape:collect="always"
       xlink:href="#aurora"
       id="linearGradient26"
       x1="0.5"
       y1="15"
       x2="15.5"
       y2="1"
       gradientUnits="userSpaceOnUse"
       gradientTransform="matrix(0.86666667,0,0,0.85714286,1.0666668,1.142857)" />
    <linearGradient
       id="aurora"
       x1="0"
       x2="0"
       y1="0"
       y2="1">
      <stop
         offset="0%"
         style="stop-color:#09D4DF; stop-opacity:1"
         id="stop3-6" />
      <stop
         offset="100%"
         style="stop-color:#9269F4; stop-opacity:1"
         id="stop4-9" />
    </linearGradient>
    <linearGradient
       inkscape:collect="always"
       xlink:href="#aurora"
       id="linearGradient7"
       x1="3.6666665"
       y1="7.4025421"
       x2="12.333334"
       y2="7.4025421"
       gradientUnits="userSpaceOnUse" />
  </defs>
  <path
     d="M 3.6666665,4.1525424 V 10.652542 H 4.8924707 V 7.7742329 l 2.7203208,2.8783081 h 1.513563 v -0.07405 L 5.9976686,7.3002714 8.885144,4.1899192 V 4.1525424 H 7.3624115 L 4.8924666,6.9010768 V 4.1525424 Z m 7.0726995,0.00422 c -0.8624794,0.051255 -1.2956295,0.5887437 -1.2956295,1.3894283 0,0.8873371 0.5991665,1.4529068 1.4310455,1.4529068 0.876245,0 1.458552,-0.5601877 1.458552,-1.5029826 0,-0.4159408 -0.144157,-0.8873439 -0.443633,-1.1757281 l -0.427408,0.4323391 c 0.160829,0.155284 0.255316,0.4825314 0.255316,0.7320956 0,0.4769446 -0.243571,0.7709551 -0.581867,0.8153209 V 4.1652266 C 10.995016,4.15207 10.862579,4.1494414 10.739366,4.1567569 Z m -0.164335,0.657342 V 6.2888798 C 10.220096,6.1890555 10.043237,5.889662 10.043237,5.5236342 c 0,-0.3882119 0.176859,-0.6651606 0.531794,-0.7095254 z M 8.3843842,7.4730656 V 8.1445071 H 12.261392 V 7.4730673 Z M 8.7560764,8.695342 c -0.5268592,0 -0.5268592,0.7990986 0,0.7990986 0.5268556,0 0.5268556,-0.7990986 0,-0.7990986 z m 0.760308,0.06136 V 9.4330799 H 12.261392 V 8.7567033 Z"
     id="path3906-6-6"
     style="stroke-width:0.361122;fill:url(#linearGradient7)" />
  <path
     class="ColorScheme-Text"
     d="m 2.8928558,2 c -0.763285,0 -1.392856,0.678 -1.392856,1.5 v 9 c 0,0.822994 0.629571,1.5 1.392856,1.5 H 13.107141 C 13.870429,14 14.5,13.322994 14.5,12.5 v -9 C 14.5,2.678 13.870429,2 13.107141,2 Z m 0,0.999999 h 3.249999 0.928571 v 0 h 3.5285732 v 0 0 0 h 2.507141 c 0.265565,0 0.464277,0.215001 0.464277,0.500001 v 9 c 0,0.285994 0.05258,-0.5 0.05258,-0.5 H 1.9999998 c 0,0 0.422118,0.778974 0.42857,0.5 v -9 c 0,-0.285 0.198716,-0.500001 0.464286,-0.500001 z m 4.17857,0 h 1.857144 v 0 0 z"
     font-family="sans-serif"
     font-weight="400"
     overflow="visible"
     id="path22"
     sodipodi:nodetypes="sssssssssscccccccssscccssccccc"
     style="color:#d5c289;fill:url(#linearGradient26);stroke-width:0.861892" />
</svg>
