<?xml version="1.0" encoding="UTF-8" standalone="no"?>
<svg
   width="16"
   height="16"
   version="1.1"
   id="svg42"
   sodipodi:docname="kipi-dngconverter.svg"
   inkscape:version="1.3 (0e150ed6c4, 2023-07-21)"
   xmlns:inkscape="http://www.inkscape.org/namespaces/inkscape"
   xmlns:sodipodi="http://sodipodi.sourceforge.net/DTD/sodipodi-0.dtd"
   xmlns:xlink="http://www.w3.org/1999/xlink"
   xmlns="http://www.w3.org/2000/svg"
   xmlns:svg="http://www.w3.org/2000/svg">
  <sodipodi:namedview
     id="namedview44"
     pagecolor="#ffffff"
     bordercolor="#666666"
     borderopacity="1.0"
     inkscape:showpageshadow="2"
     inkscape:pageopacity="0.0"
     inkscape:pagecheckerboard="0"
     inkscape:deskcolor="#d1d1d1"
     showgrid="false"
     inkscape:zoom="19.666667"
     inkscape:cx="4.5254237"
     inkscape:cy="3.6864407"
     inkscape:window-width="1920"
     inkscape:window-height="994"
     inkscape:window-x="0"
     inkscape:window-y="0"
     inkscape:window-maximized="1"
     inkscape:current-layer="svg42" />
  <defs
     id="defs22">
    <linearGradient
       id="b"
       y1="531.79999"
       y2="507.82001"
       x2="0"
       gradientUnits="userSpaceOnUse"
       gradientTransform="matrix(1,0,0,1.33561,-315.54917,-708.84887)">
      <stop
         stop-color="#2a2c2f"
         id="stop2" />
      <stop
         offset="1"
         stop-color="#424649"
         id="stop4" />
    </linearGradient>
    <linearGradient
       id="c"
       y1="577.79999"
       y2="541.79999"
       gradientUnits="userSpaceOnUse"
       x2="0"
       gradientTransform="matrix(1.50001,0,0,1,-519.83617,-574.40887)">
      <stop
         stop-color="#c6cdd1"
         id="stop7" />
      <stop
         offset="1"
         stop-color="#e0e5e7"
         id="stop9" />
    </linearGradient>
    <linearGradient
       id="d"
       y1="532.79999"
       x1="409.57001"
       y2="543.79999"
       x2="420.57001"
       gradientUnits="userSpaceOnUse"
       gradientTransform="translate(-316.54617,-546.39887)">
      <stop
         stop-opacity=".314"
         id="stop12" />
      <stop
         offset="1"
         stop-opacity="0"
         id="stop14" />
    </linearGradient>
    <linearGradient
       id="e"
       y1="540.79999"
       y2="522.79999"
       gradientUnits="userSpaceOnUse"
       x2="0"
       gradientTransform="translate(-420.57,-558.57503)">
      <stop
         stop-color="#f62020"
         id="stop17" />
      <stop
         offset="1"
         stop-color="#f8507b"
         id="stop19" />
    </linearGradient>
    <linearGradient
       xlink:href="#d-3"
       id="e-3"
       x1="389.95999"
       x2="410.34"
       gradientUnits="userSpaceOnUse"
       gradientTransform="matrix(0.91926,-0.16589,0.15464,0.98614,-48.43,74.963)" />
    <linearGradient
       id="d-3"
       y1="525.26001"
       x1="395.91"
       y2="513.95001"
       x2="425.20999"
       gradientUnits="userSpaceOnUse"
       gradientTransform="translate(-384.57,-499.8)">
      <stop
         stop-color="#da4453"
         id="stop13" />
      <stop
         offset="1"
         stop-color="#ff7336"
         id="stop15" />
    </linearGradient>
    <linearGradient
       id="a"
       y1="509.79999"
       x1="394.57001"
       y2="537.95001"
       x2="422.73001"
       gradientUnits="userSpaceOnUse"
       gradientTransform="translate(-384.57,-499.8)">
      <stop
         stop-color="#e5e7e8"
         id="stop2-6" />
      <stop
         offset="1"
         stop-color="#dcdee0"
         id="stop4-7" />
    </linearGradient>
    <linearGradient
       id="b-7"
       x1="389.57001"
       x2="427.57001"
       gradientUnits="userSpaceOnUse"
       gradientTransform="matrix(0.70711,0.70711,-0.70711,0.70711,105.48,-635.28)">
      <stop
         stop-color="#fcfcfc"
         id="stop7-0" />
      <stop
         offset="1"
         stop-color="#eff0f1"
         id="stop9-9" />
    </linearGradient>
    <linearGradient
       xlink:href="#a"
       id="c-3"
       y1="-366.47"
       x1="387.13"
       y2="-339.14001"
       gradientUnits="userSpaceOnUse"
       x2="414.47" />
    <linearGradient
       id="g"
       y1="27.554001"
       x1="9.4200001"
       y2="40.130001"
       x2="22"
       gradientUnits="userSpaceOnUse">
      <stop
         id="stop24" />
      <stop
         offset="1"
         stop-opacity="0"
         id="stop26" />
    </linearGradient>
    <linearGradient
       id="f-6"
       y1="44.09"
       x1="26.362"
       y2="33.75"
       x2="44"
       gradientUnits="userSpaceOnUse">
      <stop
         stop-color="#c0392b"
         id="stop19-1" />
      <stop
         offset="1"
         stop-color="#c0392b"
         stop-opacity="0"
         id="stop21-8" />
    </linearGradient>
    <linearGradient
       id="i-7"
       y1="519.84998"
       x1="388.57001"
       y2="528.52002"
       x2="398.82001"
       gradientUnits="userSpaceOnUse">
      <stop
         stop-color="#4d4d4d"
         id="stop30-9" />
      <stop
         offset="1"
         stop-color="#31363b"
         id="stop32-2" />
    </linearGradient>
    <linearGradient
       xlink:href="#g"
       id="h-0"
       y1="27.554001"
       x1="9.4200001"
       y2="37"
       x2="18.865999"
       gradientUnits="userSpaceOnUse" />
    <linearGradient
       inkscape:collect="always"
       xlink:href="#e"
       id="linearGradient2"
       x1="10.707617"
       y1="31.534513"
       x2="37.173615"
       y2="31.534513"
       gradientUnits="userSpaceOnUse"
       gradientTransform="matrix(0.49119626,0,0,0.49119636,-3.75954,-7.4896368)" />
    <linearGradient
       id="m"
       x1="68.210472"
       x2="148.52051"
       y1="177.75131"
       y2="258.06134"
       gradientUnits="userSpaceOnUse"
       gradientTransform="matrix(0.37626177,0,0,0.37626188,-88.51834,-65.826173)">
      <stop
         stop-color="#59f"
         offset="0"
         id="stop3371" />
      <stop
         stop-color="#06f"
         offset="1"
         id="stop3373" />
    </linearGradient>
    <linearGradient
       id="b-9"
       gradientUnits="userSpaceOnUse"
       x1="4"
       x2="4"
       y1="3"
       y2="45"
       gradientTransform="translate(65.328009,-28.976284)">
      <stop
         offset="0"
         stop-color="#21c9fb"
         id="stop7-2" />
      <stop
         offset="1"
         stop-color="#197cf1"
         id="stop9-2" />
    </linearGradient>
    <linearGradient
       inkscape:collect="always"
       xlink:href="#d-3"
       id="linearGradient3"
       x1="4.249239"
       y1="8"
       x2="11.750761"
       y2="8"
       gradientUnits="userSpaceOnUse" />
  </defs>
  <path
     id="circle2"
     style="opacity:0.99;fill:url(#linearGradient2);fill-opacity:1;stroke-width:0.491197"
     d="M 14.499999,8.0000005 A 6.4999991,6.5000003 0 0 1 8,14.5 6.4999991,6.5000003 0 0 1 1.500001,8.0000005 6.4999991,6.5000003 0 0 1 8,1.5000005 a 6.4999991,6.5000003 0 0 1 6.499999,6.5 z" />
  <path
     id="circle858"
     style="fill:#1c202f;fill-opacity:1;stroke-width:0.417883"
     d="M 13.529826,8.0000005 A 5.5298258,5.529827 0 0 1 8,13.529829 5.5298258,5.529827 0 0 1 2.470174,8.0000005 5.5298258,5.529827 0 0 1 8,2.4701745 a 5.5298258,5.529827 0 0 1 5.529826,5.529826 z" />
  <path
     d="m 4.250709,5 v 0.375 h 7.499998 V 5 Z m -0.00147,1.125 v 3.75 h 0.3750045 c 1.124999,0 1.5,-0.7492496 1.5,-1.8690001 0,-1.1287499 -0.375,-1.8824999 -1.5,-1.8824999 z m 2.6250001,0 v 5.41e-4 H 6.873706 l 5.409e-4,0.0025 v 3.7470007 h 0.375 V 7.066238 l 1.1227505,2.8095008 h 0.3749992 v -5.41e-4 h 6.075e-4 V 6.125005 h -0.375 V 8.9390045 L 7.2644776,6.165883 7.2490946,6.125023 Z m 4.8742499,0 c -1.124999,0 -2.2484993,0.375 -2.2484993,1.8633746 0,1.5112507 0.7485003,1.8862507 1.8735003,1.8862507 h 0.375042 V 7.9996252 h -0.748573 v 0.3750001 h 0.373512 v 1.125 c -1.124999,0 -1.4984991,-0.375 -1.4984991,-1.4883759 C 9.8749719,6.875 10.623471,6.5 11.748471,6.5 Z M 4.624239,6.5 c 1.125,0 1.125,1.125 1.125,1.4999999 0,0.375 0,1.5000001 -1.125,1.5000001 z m -0.3735,4.125 V 11 h 7.500022 v -0.375 z"
     id="path34-3-5-8"
     style="stroke-width:0.375;stroke-linejoin:bevel;fill:url(#linearGradient3)" />
</svg>
