<?xml version="1.0" encoding="UTF-8" standalone="no"?>
<!-- Created with Inkscape (http://www.inkscape.org/) -->

<svg
   version="1.1"
   width="16"
   height="16"
   id="svg3039"
   style="display:inline"
   sodipodi:docname="kipi-piwigo.svg"
   inkscape:version="1.3 (0e150ed6c4, 2023-07-21)"
   xmlns:inkscape="http://www.inkscape.org/namespaces/inkscape"
   xmlns:sodipodi="http://sodipodi.sourceforge.net/DTD/sodipodi-0.dtd"
   xmlns:xlink="http://www.w3.org/1999/xlink"
   xmlns="http://www.w3.org/2000/svg"
   xmlns:svg="http://www.w3.org/2000/svg"
   xmlns:rdf="http://www.w3.org/1999/02/22-rdf-syntax-ns#"
   xmlns:cc="http://creativecommons.org/ns#"
   xmlns:dc="http://purl.org/dc/elements/1.1/">
  <sodipodi:namedview
     id="namedview319"
     pagecolor="#ffffff"
     bordercolor="#000000"
     borderopacity="0.25"
     inkscape:showpageshadow="2"
     inkscape:pageopacity="0.0"
     inkscape:pagecheckerboard="0"
     inkscape:deskcolor="#d1d1d1"
     showgrid="false"
     inkscape:zoom="20.85965"
     inkscape:cx="8.1497053"
     inkscape:cy="2.3730024"
     inkscape:window-width="1920"
     inkscape:window-height="994"
     inkscape:window-x="0"
     inkscape:window-y="0"
     inkscape:window-maximized="1"
     inkscape:current-layer="svg3039" />
  <metadata
     id="metadata3045">
    <rdf:RDF>
      <cc:Work
         rdf:about="">
        <dc:format>image/svg+xml</dc:format>
        <dc:type
           rdf:resource="http://purl.org/dc/dcmitype/StillImage" />
      </cc:Work>
    </rdf:RDF>
  </metadata>
  <defs
     id="defs3043">
    <linearGradient
       id="linearGradient1"
       inkscape:collect="always">
      <stop
         style="stop-color:#00ffff;stop-opacity:1"
         offset="0"
         id="stop1" />
      <stop
         style="stop-color:#ffdd55;stop-opacity:1"
         offset="1"
         id="stop2" />
    </linearGradient>
    <linearGradient
       id="b-3"
       x1="1.0583"
       x2="11.642"
       y1="285.07999"
       y2="296.22"
       gradientTransform="matrix(3.9685346,0,0,3.7701079,-83.369685,-1103.3112)"
       gradientUnits="userSpaceOnUse">
      <stop
         stop-color="#535a61"
         offset="0"
         id="stop24"
         style="stop-color:#6a747c;stop-opacity:1;" />
      <stop
         stop-color="#333c45"
         offset="1"
         id="stop26"
         style="stop-color:#414f58;stop-opacity:1;" />
    </linearGradient>
    <linearGradient
       id="a-2-0"
       y1="543.79999"
       y2="503.79999"
       x2="0"
       gradientUnits="userSpaceOnUse">
      <stop
         stop-color="#faae2a"
         id="stop2-9-9" />
      <stop
         offset="1"
         stop-color="#ffc35a"
         id="stop4-1-3" />
    </linearGradient>
    <linearGradient
       id="b-2-6"
       y1="34"
       y2="13"
       x2="0"
       gradientUnits="userSpaceOnUse">
      <stop
         stop-color="#2a2c2f"
         id="stop7-7-0" />
      <stop
         offset="1"
         stop-color="#424649"
         id="stop9-0-6" />
    </linearGradient>
    <linearGradient
       id="c"
       y1="13"
       x1="13"
       y2="31"
       x2="31"
       gradientUnits="userSpaceOnUse">
      <stop
         stop-color="#383e51"
         id="stop12" />
      <stop
         offset="1"
         stop-color="#655c6f"
         stop-opacity="0"
         id="stop14" />
    </linearGradient>
    <linearGradient
       inkscape:collect="always"
       xlink:href="#linearGradient1"
       id="linearGradient2"
       x1="10.707617"
       y1="31.534513"
       x2="37.173615"
       y2="31.534513"
       gradientUnits="userSpaceOnUse"
       gradientTransform="matrix(0.49119626,0,0,0.49119636,-3.7595401,-7.4896379)" />
    <linearGradient
       inkscape:collect="always"
       xlink:href="#linearGradient1"
       id="linearGradient3"
       x1="4.6589804"
       y1="8.2655866"
       x2="8.855705"
       y2="8.2655866"
       gradientUnits="userSpaceOnUse" />
    <linearGradient
       inkscape:collect="always"
       xlink:href="#linearGradient1"
       id="linearGradient5"
       x1="8.5744095"
       y1="5.3138151"
       x2="11.565865"
       y2="5.3138151"
       gradientUnits="userSpaceOnUse" />
  </defs>
  <path
     id="circle2"
     style="opacity:0.99;fill:url(#linearGradient2);fill-opacity:1;stroke-width:0.491197"
     d="M 14.499999,8.0000001 A 6.4999991,6.5000003 0 0 1 7.9999999,14.5 6.4999991,6.5000003 0 0 1 1.5000009,8.0000001 6.4999991,6.5000003 0 0 1 7.9999999,1.5 6.4999991,6.5000003 0 0 1 14.499999,8.0000001 Z" />
  <path
     id="circle858"
     style="fill:#1c202f;fill-opacity:1;stroke-width:0.417883"
     d="M 13.529826,8.0000001 A 5.5298258,5.529827 0 0 1 7.9999999,13.529826 5.5298258,5.529827 0 0 1 2.4701739,8.0000001 5.5298258,5.529827 0 0 1 7.9999999,2.470173 5.5298258,5.529827 0 0 1 13.529826,8.0000001 Z" />
  <path
     d="m 9.3431647,8.2770137 a 2.5820134,2.5820134 0 1 1 -5.1640256,0 2.5820134,2.5820134 0 1 1 5.1640256,0 z"
     id="path3890-3-9"
     style="display:inline;fill:#ffffff;fill-opacity:1;stroke:none;stroke-width:0.0182763" />
  <path
     d="m 8.8557049,8.2655866 a 2.0983623,2.0983625 0 1 1 -4.1967244,0 2.0983623,2.0983625 0 1 1 4.1967244,0 z"
     id="path3892-6-7"
     style="display:inline;fill:url(#linearGradient3);fill-opacity:1;stroke:none;stroke-width:0.0213929" />
  <path
     d="m 6.7621272,6.538207 c -0.377742,0 -0.7266961,0.122445 -1.0100487,0.3293863 0.2497607,-0.1355733 0.5363443,-0.2130067 0.841352,-0.2130067 0.9674982,0 1.7521068,0.7759044 1.7521068,1.7328856 0,0.428829 -0.1576535,0.8212013 -0.418543,1.1237612 0.3381692,-0.313219 0.5498675,-0.7610022 0.5498675,-1.2582921 0,-0.9470589 -0.7676733,-1.7147343 -1.7147346,-1.7147343 z"
     id="path3926-7-3"
     style="display:inline;fill:#070707;fill-opacity:1;stroke:none;stroke-width:0.0170833" />
  <rect
     width="3.2494788"
     height="1.108693"
     ry="0.12094826"
     x="8.4454079"
     y="4.7594609"
     id="rect3116-5-6"
     style="display:inline;fill:#4e4e4e;fill-opacity:1;stroke:none;stroke-width:0.0180855" />
  <rect
     width="2.9914551"
     height="0.89501709"
     ry="0.10482188"
     x="8.5744095"
     y="4.8663068"
     id="rect3118-3-1"
     style="display:inline;fill:url(#linearGradient5);fill-opacity:1;stroke:none;stroke-width:0.0180855" />
</svg>
