<?xml version="1.0" encoding="UTF-8" standalone="no"?>
<svg
   width="16"
   height="16"
   viewBox="0 0 16 16"
   version="1.1"
   id="svg7"
   sodipodi:docname="kjumpingcube.svg"
   inkscape:version="1.3 (0e150ed6c4, 2023-07-21)"
   xmlns:inkscape="http://www.inkscape.org/namespaces/inkscape"
   xmlns:sodipodi="http://sodipodi.sourceforge.net/DTD/sodipodi-0.dtd"
   xmlns="http://www.w3.org/2000/svg"
   xmlns:svg="http://www.w3.org/2000/svg">
  <defs
     id="defs7" />
  <sodipodi:namedview
     id="namedview7"
     pagecolor="#ffffff"
     bordercolor="#000000"
     borderopacity="0.25"
     inkscape:showpageshadow="2"
     inkscape:pageopacity="0.0"
     inkscape:pagecheckerboard="0"
     inkscape:deskcolor="#d1d1d1"
     inkscape:zoom="11.984375"
     inkscape:cx="21.110821"
     inkscape:cy="21.90352"
     inkscape:window-width="1920"
     inkscape:window-height="994"
     inkscape:window-x="0"
     inkscape:window-y="0"
     inkscape:window-maximized="1"
     inkscape:current-layer="svg7" />
  <g
     id="surface1"
     transform="matrix(0.47620492,0,0,0.46357424,0.44117277,0.64030734)">
    <path
       style="fill:#dedede;fill-opacity:1;fill-rule:nonzero;stroke:none"
       d="M 14.15625,2.3125 4.988281,7.609375 c -1.0625,0.613281 -1.714843,1.746094 -1.714843,2.972656 v 10.585938 c 0,1.226562 0.652343,2.359375 1.714843,2.972656 L 14.15625,29.4375 c 1.0625,0.613281 2.375,0.613281 3.4375,0 l 9.167969,-5.296875 c 1.0625,-0.613281 1.714843,-1.746094 1.710937,-2.972656 L 28.449219,10.582031 C 28.445312,9.355469 27.789062,8.21875 26.726562,7.605469 L 17.589844,2.316406 C 16.53125,1.703125 15.21875,1.699219 14.15625,2.3125 Z m 0,0"
       id="path1" />
    <path
       style="fill:#eeeeee;fill-opacity:1;fill-rule:nonzero;stroke:none"
       d="m 17.34375,2.582031 c -0.824219,-0.476562 -2.148438,-0.476562 -2.96875,0 l -8.90625,5.15625 c -0.824219,0.476563 -0.824219,1.242188 0,1.71875 l 8.90625,5.15625 c 0.820312,0.476563 2.144531,0.476563 2.96875,0 L 26.25,9.457031 c 0.820312,-0.476562 0.820312,-1.242187 0,-1.71875 z m 0,0"
       id="path2" />
    <path
       style="fill:#737373;fill-opacity:1;fill-rule:nonzero;stroke:none"
       d="m 15.859375,3.820312 c -0.402344,0 -0.808594,0.089844 -1.113281,0.265626 -0.617188,0.359374 -0.617188,0.933593 0,1.289062 0.613281,0.359375 1.609375,0.359375 2.226562,0 0.613282,-0.355469 0.613282,-0.929688 0,-1.289062 C 16.664062,3.910156 16.261719,3.820312 15.859375,3.820312 Z M 9.179688,7.6875 c -0.402344,0 -0.808594,0.089844 -1.113282,0.265625 -0.617187,0.359375 -0.617187,0.933594 0,1.289063 0.613282,0.359374 1.609375,0.359374 2.226563,0 0.613281,-0.355469 0.613281,-0.929688 0,-1.289063 C 9.984375,7.777344 9.582031,7.6875 9.179688,7.6875 Z m 6.679687,0 c -0.402344,0 -0.808594,0.089844 -1.113281,0.265625 -0.617188,0.359375 -0.617188,0.933594 0,1.289063 0.613281,0.359374 1.609375,0.359374 2.226562,0 0.613282,-0.355469 0.613282,-0.929688 0,-1.289063 C 16.664062,7.777344 16.261719,7.6875 15.859375,7.6875 Z m 6.679687,0 c -0.402343,0 -0.808593,0.089844 -1.113281,0.265625 -0.617187,0.359375 -0.617187,0.933594 0,1.289063 0.613281,0.359374 1.609375,0.359374 2.226563,0 0.613281,-0.355469 0.613281,-0.929688 0,-1.289063 C 23.34375,7.777344 22.941406,7.6875 22.539062,7.6875 Z m -6.679687,3.867188 c -0.402344,0 -0.808594,0.08984 -1.113281,0.265624 -0.617188,0.359376 -0.617188,0.933594 0,1.289063 0.613281,0.359375 1.609375,0.359375 2.226562,0 0.613282,-0.355469 0.613282,-0.929687 0,-1.289063 -0.308594,-0.175781 -0.710937,-0.265624 -1.113281,-0.265624 z m 0,0"
       id="path3" />
    <path
       style="fill:#bdbdbd;fill-opacity:1;fill-rule:nonzero;stroke:none"
       d="M 5.121094,10.058594 C 4.296875,9.582031 3.636719,9.96875 3.636719,10.917969 v 10.3125 c 0,0.953125 0.660156,2.101562 1.484375,2.578125 l 8.90625,5.15625 c 0.820312,0.476562 1.484375,0.09375 1.484375,-0.859375 v -10.3125 c 0,-0.949219 -0.664063,-2.101563 -1.484375,-2.578125 z m 0,0"
       id="path4" />
    <path
       style="fill:#616161;fill-opacity:1;fill-rule:nonzero;stroke:none"
       d="m 12.40625,16.136719 c -0.359375,0.0039 -0.605469,0.296875 -0.605469,0.796875 0,0.714844 0.496094,1.578125 1.113281,1.933594 0.617188,0.359374 1.113282,0.07031 1.113282,-0.644532 0,-0.710937 -0.496094,-1.574218 -1.113282,-1.933594 -0.183593,-0.105468 -0.355468,-0.152343 -0.507812,-0.152343 z m -3.339844,1.933593 c -0.359375,0.0039 -0.605468,0.296876 -0.605468,0.796876 0,0.714843 0.496093,1.578124 1.113281,1.933593 0.617187,0.359375 1.113281,0.07031 1.113281,-0.644531 0,-0.710938 -0.496094,-1.574219 -1.113281,-1.933594 C 9.390625,18.117188 9.21875,18.070312 9.066406,18.070312 Z m -3.339844,1.933594 c -0.359374,0.0039 -0.605468,0.296875 -0.605468,0.796875 0,0.714844 0.496094,1.578125 1.113281,1.933594 0.617187,0.359375 1.113281,0.07031 1.113281,-0.644531 0,-0.710938 -0.496094,-1.574219 -1.113281,-1.933594 C 6.050781,20.050781 5.878906,20.003906 5.726562,20.003906 Z m 0,0"
       id="path5" />
    <path
       style="fill:#9c9c9c;fill-opacity:1;fill-rule:nonzero;stroke:none"
       d="m 17.707031,15.214844 c -0.824219,0.476562 -1.484375,1.628906 -1.484375,2.578125 v 10.3125 c 0,0.953125 0.660156,1.335937 1.484375,0.859375 l 8.90625,-5.15625 c 0.820313,-0.476563 1.484375,-1.625 1.484375,-2.578125 v -10.3125 c 0,-0.949219 -0.664062,-1.335938 -1.484375,-0.859375 z m 0,0"
       id="path6" />
    <path
       style="fill:#3f3f3f;fill-opacity:1;fill-rule:nonzero;stroke:none"
       d="m 22.160156,18.222656 c 0.617188,-0.355468 1.113282,-0.06641 1.113282,0.644532 0,0.714843 -0.496094,1.578124 -1.113282,1.933593 -0.617187,0.359375 -1.113281,0.07031 -1.113281,-0.644531 0,-0.710938 0.496094,-1.574219 1.113281,-1.933594 z m 0,0"
       id="path7" />
  </g>
</svg>
