<?xml version="1.0" encoding="UTF-8" standalone="no"?>
<!-- Generator: Gravit.io -->

<svg
   style="isolation:isolate"
   viewBox="0 0 16 16"
   width="16pt"
   height="16pt"
   version="1.1"
   id="svg2"
   sodipodi:docname="klipper.svg"
   inkscape:version="1.3 (0e150ed6c4, 2023-07-21)"
   xmlns:inkscape="http://www.inkscape.org/namespaces/inkscape"
   xmlns:sodipodi="http://sodipodi.sourceforge.net/DTD/sodipodi-0.dtd"
   xmlns:xlink="http://www.w3.org/1999/xlink"
   xmlns="http://www.w3.org/2000/svg"
   xmlns:svg="http://www.w3.org/2000/svg">
  <defs
     id="defs2">
    <linearGradient
       id="linearGradient2"
       inkscape:collect="always">
      <stop
         style="stop-color:#bc5fd3;stop-opacity:1"
         offset="0"
         id="stop3" />
      <stop
         style="stop-color:#ffdd55;stop-opacity:1"
         offset="1"
         id="stop4" />
    </linearGradient>
    <linearGradient
       inkscape:collect="always"
       xlink:href="#linearGradient2"
       id="linearGradient4"
       x1="6.8816819"
       y1="16"
       x2="7.3660364"
       y2="0"
       gradientUnits="userSpaceOnUse"
       gradientTransform="matrix(0.88,0,0,1,0.95999999,0)" />
  </defs>
  <sodipodi:namedview
     id="namedview2"
     pagecolor="#ffffff"
     bordercolor="#000000"
     borderopacity="0.25"
     inkscape:showpageshadow="2"
     inkscape:pageopacity="0.0"
     inkscape:pagecheckerboard="0"
     inkscape:deskcolor="#d1d1d1"
     inkscape:document-units="pt"
     inkscape:zoom="12.045287"
     inkscape:cx="10.294483"
     inkscape:cy="16.977595"
     inkscape:window-width="1920"
     inkscape:window-height="994"
     inkscape:window-x="0"
     inkscape:window-y="0"
     inkscape:window-maximized="1"
     inkscape:current-layer="svg2" />
  <linearGradient
     id="_lgradient_14"
     x1="0.061897106"
     y1="0.14716151"
     x2="0.99042481"
     y2="0.98658085"
     gradientTransform="matrix(12.5,0,0,13,1.75,1.5)"
     gradientUnits="userSpaceOnUse">
    <stop
       offset="0%"
       stop-opacity="1"
       style="stop-color:rgb(22,181,228)"
       id="stop1" />
    <stop
       offset="98.26086956521739%"
       stop-opacity="1"
       style="stop-color:rgb(245,32,250)"
       id="stop2" />
  </linearGradient>
  <path
     d="M 7.6097619,4.2209302 H 5.4909521 V 3.5739535 h 1.1078576 c 0.09167,0 0.1807137,-0.039302 0.2514288,-0.105814 C 6.9209527,3.4016275 6.9680955,3.307907 6.9864289,3.202093 7.0073819,3.0690698 7.0492861,2.9390698 7.1069045,2.8211628 7.1435714,2.7395349 7.1959522,2.67 7.2588097,2.6155814 7.3269046,2.5520934 7.4054769,2.5067442 7.4892865,2.4795349 c 0.1492849,-0.048372 0.303809,-0.072558 0.4583329,-0.072558 0.1545233,0 0.309048,0.024186 0.4583329,0.075581 0.083808,0.027209 0.1623811,0.072558 0.2304763,0.1360466 0.062858,0.054419 0.1126193,0.1239534 0.1519043,0.2025581 0.057615,0.117907 0.096906,0.247907 0.1204769,0.3809302 0.015713,0.105814 0.06286,0.1995349 0.1335712,0.2660465 0.070714,0.066512 0.1597621,0.105814 0.2514292,0.105814 h 0.9533308 v 0.6469771 z m 4.1878551,0 v 0 c -0.216848,0 -0.392848,-0.2031628 -0.392848,-0.4534883 v 0 c 0,-0.2503256 0.176,-0.4534884 0.392848,-0.4534884 v 0 h 0.654767 c 0.578288,0 1.047616,0.5417674 1.047616,1.2093023 V 13.290698 C 13.5,13.958233 13.030672,14.5 12.452384,14.5 H 3.5476192 C 2.9693328,14.5 2.5,13.958233 2.5,13.290698 V 4.5232558 C 2.5,3.8557209 2.9693328,3.3139535 3.5476192,3.3139535 h 0.3928577 v 0 c 0.2168561,0 0.3928561,0.2031628 0.3928561,0.4534884 v 0 c 0,0.2503255 -0.176,0.4534883 -0.3928561,0.4534883 v 0 H 3.8095232 c -0.2891424,0 -0.5238096,0.2708838 -0.5238096,0.6046512 v 8.1627906 c 0,0.333768 0.2346672,0.604651 0.5238096,0.604651 h 8.3809578 c 0.289136,0 0.523808,-0.270883 0.523808,-0.604651 V 4.8255814 c 0,-0.3337674 -0.234672,-0.6046512 -0.523808,-0.6046512 z M 6.5595233,8 v 0 c 0.289144,0 0.5238098,0.2708837 0.5238098,0.6046512 v 0 c 0,0.3337674 -0.2346658,0.6046508 -0.5238098,0.6046508 v 0 c -0.2891424,0 -0.5238096,-0.2708834 -0.5238096,-0.6046508 v 0 C 6.0357137,8.2708837 6.2703809,8 6.5595233,8 Z M 8.1309522,8 H 9.7023806 C 9.846952,8 9.9642865,8.1354419 9.9642865,8.3023256 v 0.6046511 c 0,0.1668833 -0.1173345,0.3023253 -0.2619059,0.3023253 H 8.1309522 c -0.1445712,0 -0.261904,-0.135442 -0.261904,-0.3023253 V 8.3023256 C 7.8690482,8.1354419 7.986381,8 8.1309522,8 Z m 0,2.116279 h 1.5714284 c 0.1445714,0 0.2619059,0.135442 0.2619059,0.302326 v 0.604651 c 0,0.166884 -0.1173345,0.302325 -0.2619059,0.302325 H 8.1309522 c -0.1445712,0 -0.261904,-0.135441 -0.261904,-0.302325 v -0.604651 c 0,-0.166884 0.1173328,-0.302326 0.261904,-0.302326 z M 7.6097619,5.127907 H 5.2290482 c -0.2891437,0 -0.5238098,-0.2708837 -0.5238098,-0.6046512 V 3.2716279 c 0,-0.3337674 0.2346661,-0.6046512 0.5238098,-0.6046512 H 6.3028577 C 6.3369045,2.5672097 6.3761909,2.4704651 6.4207138,2.3767442 6.5097619,2.1923256 6.6302385,2.0290698 6.7769045,1.8990698 6.9261906,1.7660465 7.0938097,1.6662791 7.2771426,1.6088372 7.4945234,1.5362791 7.7197618,1.5 7.9476194,1.5 c 0.2278576,0 0.4557137,0.036279 0.6730946,0.1088372 0.1833345,0.060465 0.3535722,0.1602326 0.5028575,0.2962791 0.144048,0.13 0.261906,0.2902325 0.3509517,0.4746511 0.044525,0.093721 0.083804,0.1874419 0.1152382,0.2872093 h 0.9192836 c 0.289148,0 0.523818,0.2708838 0.523818,0.6046512 v 1.2516279 c 0,0.3337675 -0.23467,0.6046512 -0.523818,0.6046512 z M 5.5119045,6.9418605 H 10.488096 V 12.081395 H 5.5119045 Z M 4.7261905,6.0348837 H 11.273808 V 12.988372 H 4.7261905 Z m 1.8333328,4.0813953 v 0 c 0.289144,0 0.5238098,0.270884 0.5238098,0.604651 v 0 c 0,0.333768 -0.2346658,0.604651 -0.5238098,0.604651 v 0 c -0.2891424,0 -0.5238096,-0.270883 -0.5238096,-0.604651 v 0 c 0,-0.333767 0.2346672,-0.604651 0.5238096,-0.604651 z"
     fill-rule="evenodd"
     id="path2"
     style="fill:url(#linearGradient4);fill-opacity:1;stroke-width:0.938085" />
</svg>
