<?xml version="1.0" encoding="UTF-8" standalone="no"?>
<!-- Generator: Gravit.io -->

<svg
   style="isolation:isolate"
   viewBox="0 0 16 16"
   width="16pt"
   height="16pt"
   version="1.1"
   id="svg2"
   sodipodi:docname="kmix.svg"
   inkscape:version="1.3 (0e150ed6c4, 2023-07-21)"
   xmlns:inkscape="http://www.inkscape.org/namespaces/inkscape"
   xmlns:sodipodi="http://sodipodi.sourceforge.net/DTD/sodipodi-0.dtd"
   xmlns:xlink="http://www.w3.org/1999/xlink"
   xmlns="http://www.w3.org/2000/svg"
   xmlns:svg="http://www.w3.org/2000/svg">
  <defs
     id="defs2">
    <linearGradient
       inkscape:collect="always"
       xlink:href="#_lgradient_8"
       id="linearGradient4"
       x1="3"
       y1="14"
       x2="13"
       y2="2"
       gradientUnits="userSpaceOnUse" />
  </defs>
  <sodipodi:namedview
     id="namedview2"
     pagecolor="#ffffff"
     bordercolor="#000000"
     borderopacity="0.25"
     inkscape:showpageshadow="2"
     inkscape:pageopacity="0.0"
     inkscape:pagecheckerboard="0"
     inkscape:deskcolor="#d1d1d1"
     inkscape:document-units="pt"
     inkscape:zoom="4.2371164"
     inkscape:cx="-16.638674"
     inkscape:cy="14.986607"
     inkscape:window-width="1920"
     inkscape:window-height="994"
     inkscape:window-x="0"
     inkscape:window-y="0"
     inkscape:window-maximized="1"
     inkscape:current-layer="svg2" />
  <linearGradient
     id="_lgradient_8"
     x1="0"
     y1="0.5"
     x2="1"
     y2="0.5"
     gradientTransform="matrix(38,0,0,38,-75.361257,-46.155073)"
     gradientUnits="userSpaceOnUse">
    <stop
       offset="0"
       stop-opacity="1"
       style="stop-color:#873bff;stop-opacity:1;"
       id="stop1" />
    <stop
       offset="1"
       stop-opacity="1"
       style="stop-color:#ff3fec;stop-opacity:1;"
       id="stop2" />
  </linearGradient>
  <path
     d="m 5.5,2 h 5 A 2.5,2.4 0 0 1 13,4.4 v 7.2 A 2.5,2.4 0 0 1 10.5,14 h -5 A 2.5,2.4 0 0 1 3,11.6 V 4.4 A 2.5,2.4 0 0 1 5.5,2 Z M 8,12.2 a 3.125,3 0 1 0 0,-6 3.125,3 0 0 0 0,6 z M 5.5,3.8 A 0.625,0.6 0 0 0 4.875,4.4 V 5 A 0.625,0.6 0 0 0 5.5,5.6 H 8 A 0.625,0.6 0 0 0 8.625,5 V 4.4 A 0.625,0.6 0 0 0 8,3.8 Z m 4.375,0 A 0.625,0.6 0 0 0 9.25,4.4 V 5 A 0.625,0.6 0 0 0 9.875,5.6 H 10.5 A 0.625,0.6 0 0 0 11.125,5 V 4.4 A 0.625,0.6 0 0 0 10.5,3.8 Z M 8,11 A 1.875,1.8 0 1 1 8,7.4 1.875,1.8 0 0 1 8,11 Z M 8,9.8 A 0.625,0.6 0 1 0 8,8.6 0.625,0.6 0 0 0 8,9.8 Z"
     id="path1"
     style="stroke-width:0.612373;fill:url(#linearGradient4)" />
</svg>
