<?xml version="1.0" encoding="UTF-8" standalone="no"?>
<!-- Generator: Adobe Illustrator 12.0.0, SVG Export Plug-In . SVG Version: 6.00 Build 51448)  -->

<svg
   version="1.0"
   id="Livello_1"
   width="16"
   height="16"
   viewBox="0 0 16 16"
   overflow="visible"
   enable-background="new 0 0 126 111.715"
   xml:space="preserve"
   sodipodi:version="0.32"
   inkscape:version="1.3 (0e150ed6c4, 2023-07-21)"
   sodipodi:docname="kmplot.svg"
   xmlns:inkscape="http://www.inkscape.org/namespaces/inkscape"
   xmlns:sodipodi="http://sodipodi.sourceforge.net/DTD/sodipodi-0.dtd"
   xmlns:xlink="http://www.w3.org/1999/xlink"
   xmlns="http://www.w3.org/2000/svg"
   xmlns:svg="http://www.w3.org/2000/svg"
   xmlns:rdf="http://www.w3.org/1999/02/22-rdf-syntax-ns#"
   xmlns:cc="http://creativecommons.org/ns#"
   xmlns:dc="http://purl.org/dc/elements/1.1/"><metadata
   id="metadata244"><rdf:RDF><cc:Work
       rdf:about=""><dc:format>image/svg+xml</dc:format><dc:type
         rdf:resource="http://purl.org/dc/dcmitype/StillImage" /></cc:Work></rdf:RDF></metadata><defs
   id="defs242"><linearGradient
     inkscape:collect="always"
     id="linearGradient3270"><stop
       style="stop-color:#6193cf;stop-opacity:1;"
       offset="0"
       id="stop3272" /><stop
       style="stop-color:#6193cf;stop-opacity:0;"
       offset="1"
       id="stop3274" /></linearGradient><linearGradient
     inkscape:collect="always"
     id="linearGradient3198"><stop
       style="stop-color:black;stop-opacity:1;"
       offset="0"
       id="stop3200" /><stop
       style="stop-color:black;stop-opacity:0;"
       offset="1"
       id="stop3202" /></linearGradient><linearGradient
     id="linearGradient2866"><stop
       id="stop2868"
       offset="0"
       style="stop-color:#efefef;stop-opacity:1;" /><stop
       style="stop-color:#f8f8f8;stop-opacity:1;"
       offset="0.5"
       id="stop2874" /><stop
       id="stop2870"
       offset="1"
       style="stop-color:#e0e0e0;stop-opacity:1;" /></linearGradient><linearGradient
     id="linearGradient3670"><stop
       style="stop-color:#e8e8e8;stop-opacity:1;"
       offset="0"
       id="stop3672" /><stop
       style="stop-color:#969696;stop-opacity:0;"
       offset="1"
       id="stop3674" /></linearGradient><linearGradient
     id="linearGradient3650"><stop
       style="stop-color:#545454;stop-opacity:1;"
       offset="0"
       id="stop3652" /><stop
       style="stop-color:#b1b1b1;stop-opacity:1;"
       offset="1"
       id="stop3654" /></linearGradient><linearGradient
     id="linearGradient3396"><stop
       id="stop3398"
       offset="0"
       style="stop-color:#040404;stop-opacity:0;" /><stop
       style="stop-color:#040404;stop-opacity:0;"
       offset="0.64971751"
       id="stop3402" /><stop
       id="stop3400"
       offset="1"
       style="stop-color:#040404;stop-opacity:1;" /></linearGradient><linearGradient
     id="linearGradient3251"><stop
       style="stop-color:white;stop-opacity:1;"
       offset="0"
       id="stop3253" /><stop
       style="stop-color:#efefef;stop-opacity:1;"
       offset="1"
       id="stop3255" /></linearGradient><linearGradient
     id="linearGradient3243"><stop
       style="stop-color:yellow;stop-opacity:1;"
       offset="0"
       id="stop3245" /><stop
       style="stop-color:#ffbf00;stop-opacity:1;"
       offset="1"
       id="stop3247" /></linearGradient><linearGradient
     id="linearGradient2995"><stop
       style="stop-color:#4b4b4b;stop-opacity:1;"
       offset="0"
       id="stop2997" /><stop
       style="stop-color:#676767;stop-opacity:1;"
       offset="1"
       id="stop2999" /></linearGradient><linearGradient
     inkscape:collect="always"
     id="linearGradient2979"><stop
       style="stop-color:white;stop-opacity:1;"
       offset="0"
       id="stop2981" /><stop
       style="stop-color:white;stop-opacity:0;"
       offset="1"
       id="stop2983" /></linearGradient><linearGradient
     id="a-3"
     x1="428.81601"
     x2="388.86499"
     y1="547.63397"
     y2="499.67899"
     gradientTransform="matrix(1.0511003,0,0,1.0500003,-464.10202,-472.99017)"
     gradientUnits="userSpaceOnUse"><stop
       stop-color="#bdc3c7"
       offset="0"
       id="stop2193" /><stop
       stop-color="#eff0f1"
       offset="1"
       id="stop2195" /></linearGradient><linearGradient
     id="f"
     y1="42"
     x1="41"
     y2="10"
     x2="5"
     gradientUnits="userSpaceOnUse"
     gradientTransform="translate(38,-40.04)"><stop
       stop-color="#2e5d89"
       id="stop23" /><stop
       offset="1"
       stop-color="#1b92f4"
       id="stop25" /></linearGradient><linearGradient
     id="g"
     y1="42"
     x1="41"
     y2="10"
     x2="5"
     gradientUnits="userSpaceOnUse"
     gradientTransform="translate(-106.4344,-56.0605)"><stop
       stop-color="#06a370"
       id="stop28" /><stop
       offset="1"
       stop-color="#22d1b0"
       id="stop30" /></linearGradient><linearGradient
     gradientTransform="matrix(1.0499636,0,0,1.0499041,-378.11686,-539.3667)"
     gradientUnits="userSpaceOnUse"
     x2="426.69501"
     y2="499.92099"
     y1="547.67499"
     id="a-6"
     x1="389.32001"><stop
       stop-color="#18222a"
       style="stop-color:#1e2b35;stop-opacity:1"
       id="stop216" /><stop
       stop-color="#566069"
       offset="1"
       style="stop-color:#6d7983;stop-opacity:1"
       id="stop218" /></linearGradient><linearGradient
     id="linearGradient2086"><stop
       style="stop-color:#3f627d;stop-opacity:1;"
       offset="0"
       id="stop2088" /><stop
       style="stop-color:#000000;stop-opacity:1;"
       offset="1"
       id="stop2087" /></linearGradient><radialGradient
     cx="261.67892"
     cy="652.95093"
     r="470.01199"
     fx="261.67892"
     fy="652.95093"
     id="radialGradient715-6-2"
     xlink:href="#linearGradient649"
     gradientTransform="scale(1.0251779,0.97544048)"
     gradientUnits="userSpaceOnUse" /><linearGradient
     id="linearGradient649"><stop
       style="stop-color:#ff97ff;stop-opacity:1;"
       offset="0"
       id="stop650" /><stop
       style="stop-color:#ff0000;stop-opacity:1;"
       offset="1"
       id="stop651" /></linearGradient><linearGradient
     id="linearGradient637"><stop
       style="stop-color:#ffffff;stop-opacity:0.6353;"
       offset="0"
       id="stop638" /><stop
       style="stop-color:#ffffff;stop-opacity:0.2392;"
       offset="1"
       id="stop639" /></linearGradient><linearGradient
     id="linearGradient2099"><stop
       style="stop-color:#ffff00;stop-opacity:0.6353;"
       offset="0"
       id="stop2133-7-6" /><stop
       style="stop-color:#ffc200;stop-opacity:0;"
       offset="1"
       id="stop2134-5-1" /></linearGradient><linearGradient
     id="linearGradient2103"><stop
       style="stop-color:#ffffff;stop-opacity:1;"
       offset="0"
       id="stop2139-2-9" /><stop
       style="stop-color:#1d9dff;stop-opacity:1;"
       offset="1"
       id="stop2140-8-2" /></linearGradient><linearGradient
     id="linearGradient2107"><stop
       style="stop-color:#5ed7ff;stop-opacity:0.7294;"
       offset="0"
       id="stop2145-3-3" /><stop
       style="stop-color:#005f8d;stop-opacity:0.7098;"
       offset="1"
       id="stop2146-6-7" /></linearGradient><linearGradient
     x1="0"
     y1="0"
     x2="1"
     y2="0"
     id="linearGradient2109"
     xlink:href="#linearGradient2086"
     gradientUnits="objectBoundingBox"
     spreadMethod="pad" /><radialGradient
     cx="0.49999943"
     cy="0.97656167"
     r="0.70301467"
     fx="0.49999943"
     fy="0.97656167"
     id="radialGradient2143"
     xlink:href="#linearGradient607" /><radialGradient
     cx="0.49999928"
     cy="0.55468845"
     r="0.48581648"
     fx="0.49999928"
     fy="0.55468845"
     id="radialGradient2145"
     xlink:href="#linearGradient649" /><radialGradient
     cx="0.99137914"
     cy="0.50781262"
     r="1.8118888"
     fx="0.99137914"
     fy="0.50781262"
     id="radialGradient2147"
     xlink:href="#linearGradient717" /><linearGradient
     x1="0.48333815"
     y1="-2.9551026e-07"
     x2="0.48333344"
     y2="0.875"
     id="linearGradient2111"
     xlink:href="#linearGradient637" /><radialGradient
     cx="1.1206894"
     cy="0.51562464"
     r="1.592037"
     fx="1.1206894"
     fy="0.51562464"
     id="radialGradient2150"
     xlink:href="#linearGradient717" /><radialGradient
     cx="0.49999917"
     cy="0.55468839"
     r="0.48581648"
     fx="0.49999917"
     fy="0.55468839"
     id="radialGradient2152"
     xlink:href="#linearGradient638" /><radialGradient
     cx="0.50704247"
     cy="0.92968756"
     r="0.7386201"
     fx="0.50704247"
     fy="0.92968756"
     id="radialGradient2154"
     xlink:href="#linearGradient717" /><linearGradient
     x1="0.46323583"
     y1="0.039062586"
     x2="0.45588252"
     y2="0.76562494"
     id="linearGradient2113"
     xlink:href="#linearGradient641" /><radialGradient
     cx="0.49999943"
     cy="0.97656167"
     r="0.70301467"
     fx="0.49999943"
     fy="0.97656167"
     id="radialGradient2186"
     xlink:href="#linearGradient607"
     style="fill:url(#radialGradient610-6)" /><radialGradient
     cx="0.49999928"
     cy="0.55468845"
     r="0.48581648"
     fx="0.49999928"
     fy="0.55468845"
     id="radialGradient2188"
     xlink:href="#linearGradient649"
     style="fill:url(#radialGradient610-6)" /><radialGradient
     cx="0.99137914"
     cy="0.50781262"
     r="1.8118888"
     fx="0.99137914"
     fy="0.50781262"
     id="radialGradient2190"
     xlink:href="#linearGradient717"
     style="fill:url(#radialGradient610-6)" /><radialGradient
     cx="1.1206894"
     cy="0.51562464"
     r="1.592037"
     fx="1.1206894"
     fy="0.51562464"
     id="radialGradient2194"
     xlink:href="#linearGradient717"
     style="fill:url(#radialGradient610-6)" /><radialGradient
     cx="0.49999917"
     cy="0.55468839"
     r="0.48581648"
     fx="0.49999917"
     fy="0.55468839"
     id="radialGradient2196"
     xlink:href="#linearGradient638"
     style="fill:url(#radialGradient610-6)" /><radialGradient
     cx="0.50704247"
     cy="0.92968756"
     r="0.7386201"
     fx="0.50704247"
     fy="0.92968756"
     id="radialGradient2198"
     xlink:href="#linearGradient717"
     style="fill:url(#radialGradient610-6)" /><linearGradient
     inkscape:collect="always"
     xlink:href="#m"
     id="linearGradient2"
     x1="10.707617"
     y1="31.534513"
     x2="37.173615"
     y2="31.534513"
     gradientUnits="userSpaceOnUse"
     gradientTransform="matrix(0.49119626,0,0,0.49119636,-3.75954,-7.489638)" /><linearGradient
     id="m"
     x1="68.210472"
     x2="148.52051"
     y1="177.75131"
     y2="258.06134"
     gradientUnits="userSpaceOnUse"
     gradientTransform="matrix(0.37626177,0,0,0.37626188,-88.51834,-65.826173)"><stop
       stop-color="#59f"
       offset="0"
       id="stop3371" /><stop
       stop-color="#06f"
       offset="1"
       id="stop3373" /></linearGradient><linearGradient
     id="b"
     gradientUnits="userSpaceOnUse"
     x1="4"
     x2="4"
     y1="3"
     y2="45"
     gradientTransform="translate(65.328009,-28.976284)"><stop
       offset="0"
       stop-color="#21c9fb"
       id="stop7" /><stop
       offset="1"
       stop-color="#197cf1"
       id="stop9" /></linearGradient><radialGradient
     inkscape:collect="always"
     xlink:href="#linearGradient3198"
     id="radialGradient3142-3-9-1"
     cx="56.617783"
     cy="53.387711"
     fx="56.617783"
     fy="53.387711"
     r="6.0582042"
     gradientTransform="matrix(0.08265157,-3.8869532e-4,-0.03026123,0.56507671,4.5409697,-23.370748)"
     gradientUnits="userSpaceOnUse" /><radialGradient
     inkscape:collect="always"
     xlink:href="#linearGradient3198"
     id="radialGradient3186-8-1-2"
     cx="56.530136"
     cy="53.387711"
     fx="55.982952"
     fy="56.927387"
     r="6.7226977"
     gradientTransform="matrix(0.08240209,-0.01265743,0.06388715,0.67185831,-0.47128907,-28.378008)"
     gradientUnits="userSpaceOnUse" /><radialGradient
     inkscape:collect="always"
     xlink:href="#linearGradient3198"
     id="radialGradient3130-5-2-6"
     cx="64.505707"
     cy="63.379086"
     fx="64.505707"
     fy="63.379086"
     r="45.848412"
     gradientTransform="matrix(0.09676129,-4.5505539e-4,-4.592605e-4,0.00857608,1.5345128,7.5749104)"
     gradientUnits="userSpaceOnUse" /><radialGradient
     inkscape:collect="always"
     xlink:href="#linearGradient3198"
     id="radialGradient3196-8-7-5"
     cx="64.680992"
     cy="63.379086"
     fx="58.185638"
     fy="64.542931"
     r="46.600548"
     gradientTransform="matrix(0.12643412,-0.01096529,2.4863317e-4,0.00887666,-0.42962445,8.2356685)"
     gradientUnits="userSpaceOnUse" /><linearGradient
     inkscape:collect="always"
     xlink:href="#linearGradient3270"
     id="linearGradient14"
     gradientUnits="userSpaceOnUse"
     gradientTransform="matrix(0.07742793,0.01359851,-0.01372016,0.07674146,3.943715,2.5727991)"
     x1="27.054956"
     y1="63.925987"
     x2="131.27696"
     y2="13.462614" /><linearGradient
     inkscape:collect="always"
     xlink:href="#linearGradient3198"
     id="linearGradient15"
     gradientUnits="userSpaceOnUse"
     gradientTransform="matrix(0.08265157,-3.8869532e-4,-0.00444939,0.0830844,3.1629324,2.3617253)"
     x1="26.194651"
     y1="55.315872"
     x2="35.331177"
     y2="55.315872" /><linearGradient
     inkscape:collect="always"
     xlink:href="#linearGradient3198"
     id="linearGradient16"
     gradientUnits="userSpaceOnUse"
     gradientTransform="matrix(0.08265157,-3.8869532e-4,-0.00444939,0.0830844,3.1629324,2.3617253)"
     x1="38.464756"
     y1="54.439438"
     x2="49.003582"
     y2="54.439438" /><linearGradient
     inkscape:collect="always"
     xlink:href="#linearGradient2979"
     id="linearGradient17"
     gradientUnits="userSpaceOnUse"
     gradientTransform="matrix(0.08265157,-3.8869532e-4,-0.00444939,0.0830844,3.1629324,2.3617253)"
     x1="26.994236"
     y1="91.863266"
     x2="62.675987"
     y2="53.387733" /><linearGradient
     inkscape:collect="always"
     xlink:href="#linearGradient3198"
     id="linearGradient18"
     gradientUnits="userSpaceOnUse"
     gradientTransform="matrix(0.08265157,-3.8869532e-4,-0.00444939,0.0830844,3.1629324,2.3617253)"
     x1="62.479111"
     y1="52.423634"
     x2="76.173103"
     y2="52.423634" /><linearGradient
     inkscape:collect="always"
     xlink:href="#linearGradient3198"
     id="linearGradient19"
     gradientUnits="userSpaceOnUse"
     gradientTransform="matrix(0.08265157,-3.8869532e-4,-0.00444939,0.0830844,3.1629324,2.3617253)"
     x1="74.398643"
     y1="51.196621"
     x2="90.020798"
     y2="51.196621" /><linearGradient
     inkscape:collect="always"
     xlink:href="#linearGradient3198"
     id="linearGradient20"
     gradientUnits="userSpaceOnUse"
     gradientTransform="matrix(0.09676129,-4.5505539e-4,-0.00520897,0.09726795,1.9101814,-0.0256644)"
     x1="20.41017"
     y1="83.537117"
     x2="115.08688"
     y2="83.537117" /><linearGradient
     inkscape:collect="always"
     xlink:href="#linearGradient3198"
     id="linearGradient21"
     gradientUnits="userSpaceOnUse"
     gradientTransform="matrix(0.09676129,-4.5505539e-4,-0.00520897,0.09726795,1.9101814,-0.0256644)"
     x1="19.358446"
     y1="73.282814"
     x2="112.98343"
     y2="73.282814" /><linearGradient
     inkscape:collect="always"
     xlink:href="#linearGradient2979"
     id="linearGradient22"
     gradientUnits="userSpaceOnUse"
     gradientTransform="matrix(0.09676129,-4.5505539e-4,-0.00520897,0.09726795,1.8355416,1.9536957)"
     x1="26.994236"
     y1="91.863266"
     x2="62.675987"
     y2="53.387733" /><linearGradient
     inkscape:collect="always"
     xlink:href="#linearGradient2979"
     id="linearGradient23"
     gradientUnits="userSpaceOnUse"
     gradientTransform="matrix(0.09676129,-4.5505539e-4,-0.00520897,0.09726795,1.8355416,1.9536957)"
     x1="26.994236"
     y1="91.863266"
     x2="62.675987"
     y2="53.387733" /><linearGradient
     inkscape:collect="always"
     xlink:href="#linearGradient3198"
     id="linearGradient24"
     gradientUnits="userSpaceOnUse"
     gradientTransform="matrix(0.09676129,-4.5505539e-4,-0.00520897,0.09726795,1.8355416,1.9536957)"
     x1="17.430286"
     y1="53.212425"
     x2="108.25067"
     y2="53.212425" /><linearGradient
     inkscape:collect="always"
     xlink:href="#linearGradient3198"
     id="linearGradient25"
     gradientUnits="userSpaceOnUse"
     gradientTransform="matrix(0.09676129,-4.5505539e-4,-0.00520897,0.09726795,1.8355416,1.9536957)"
     x1="16.729137"
     y1="43.133408"
     x2="105.62136"
     y2="43.133408" /></defs><sodipodi:namedview
   inkscape:window-height="994"
   inkscape:window-width="1920"
   inkscape:pageshadow="2"
   inkscape:pageopacity="0.0"
   borderopacity="1.0"
   bordercolor="#666666"
   pagecolor="#ffffff"
   id="base"
   inkscape:zoom="31.76766"
   inkscape:cx="13.5043"
   inkscape:cy="7.161371"
   inkscape:window-x="0"
   inkscape:window-y="0"
   inkscape:current-layer="Livello_1"
   showguides="true"
   inkscape:guide-bbox="true"
   inkscape:showpageshadow="2"
   inkscape:pagecheckerboard="0"
   inkscape:deskcolor="#d1d1d1"
   showgrid="false"
   inkscape:window-maximized="1"><sodipodi:guide
     orientation="horizontal"
     position="0,532.53683"
     id="guide1993"
     inkscape:locked="false" /></sodipodi:namedview>&#10;&#10;&#10;&#10;&#10;<path
   id="circle2"
   style="opacity:0.99;fill:url(#linearGradient2);fill-opacity:1;stroke-width:0.491197"
   d="M 14.499999,7.999999 A 6.4999991,6.5000003 0 0 1 8,14.499998 6.4999991,6.5000003 0 0 1 1.500001,7.999999 6.4999991,6.5000003 0 0 1 8,1.499999 a 6.4999991,6.5000003 0 0 1 6.499999,6.5 z" /><path
   id="circle858"
   style="fill:#1c202f;fill-opacity:1;stroke-width:0.417883"
   d="M 13.529826,7.999999 A 5.5298258,5.529827 0 0 1 8,13.529827 5.5298258,5.529827 0 0 1 2.470174,7.999999 5.5298258,5.529827 0 0 1 8,2.470173 5.5298258,5.529827 0 0 1 13.529826,7.999999 Z" /><path
   style="fill:url(#linearGradient14);fill-opacity:1;fill-rule:evenodd;stroke:none;stroke-width:0.195177;stroke-linecap:butt;stroke-linejoin:miter;stroke-miterlimit:4;stroke-dasharray:none;stroke-opacity:1"
   d="M 11.068563,4.2263462 C 10.989403,5.1120635 10.860306,6.6427198 10.193812,7.2881328 8.8054744,8.6325682 6.8558734,8.6350771 5.491984,9.8971658 4.8581761,10.482916 4.625933,11.293135 4.4774803,11.672176 l 0.2382333,-0.02534 C 4.8302025,11.32783 5.0220482,10.655092 5.5490131,10.067048 6.6143396,8.8782352 8.9334839,8.7294325 10.321569,7.3852425 10.955794,6.7710805 11.102177,5.430344 11.155016,4.7021069 Z"
   id="path3251-4-5-3-4"
   sodipodi:nodetypes="cssccsscc" /><ellipse
   transform="matrix(0.99998894,-0.00470252,-0.05347594,0.99856914,0,0)"
   id="path2088-8-6-9"
   style="opacity:1;fill:#fafbfb;fill-opacity:1;fill-rule:nonzero;stroke:none;stroke-width:0.0770702;stroke-linecap:round;stroke-linejoin:round;stroke-miterlimit:4;stroke-dasharray:none;stroke-dashoffset:4;stroke-opacity:1"
   cx="10.454632"
   cy="3.1946173"
   rx="0.088751823"
   ry="0.064974703" /><ellipse
   style="opacity:1;fill:#fafbfb;fill-opacity:1;fill-rule:nonzero;stroke:none;stroke-width:0.0770702;stroke-linecap:round;stroke-linejoin:round;stroke-miterlimit:4;stroke-dasharray:none;stroke-dashoffset:4;stroke-opacity:1"
   id="path2090-4-0-0"
   transform="matrix(0.99998894,-0.00470252,-0.05347594,0.99856914,0,0)"
   cx="9.4613991"
   cy="3.2668152"
   rx="0.088751823"
   ry="0.064974703" /><ellipse
   transform="matrix(0.99998894,-0.00470252,-0.05347594,0.99856914,0,0)"
   id="path2092-3-6-9"
   style="opacity:1;fill:#fafbfb;fill-opacity:1;fill-rule:nonzero;stroke:none;stroke-width:0.0770702;stroke-linecap:round;stroke-linejoin:round;stroke-miterlimit:4;stroke-dasharray:none;stroke-dashoffset:4;stroke-opacity:1"
   cx="8.4681807"
   cy="3.3390162"
   rx="0.088751823"
   ry="0.064974703" /><ellipse
   style="opacity:1;fill:#fafbfb;fill-opacity:1;fill-rule:nonzero;stroke:none;stroke-width:0.0770702;stroke-linecap:round;stroke-linejoin:round;stroke-miterlimit:4;stroke-dasharray:none;stroke-dashoffset:4;stroke-opacity:1"
   id="path2094-1-2-17"
   transform="matrix(0.99998894,-0.00470252,-0.05347594,0.99856914,0,0)"
   cx="7.474957"
   cy="3.4112146"
   rx="0.088751823"
   ry="0.064974703" /><ellipse
   transform="matrix(0.99998894,-0.00470252,-0.05347594,0.99856914,0,0)"
   id="path2096-4-6-7"
   style="opacity:1;fill:#fafbfb;fill-opacity:1;fill-rule:nonzero;stroke:none;stroke-width:0.0770702;stroke-linecap:round;stroke-linejoin:round;stroke-miterlimit:4;stroke-dasharray:none;stroke-dashoffset:4;stroke-opacity:1"
   cx="6.4817348"
   cy="3.475189"
   rx="0.088751823"
   ry="0.064974703" /><ellipse
   style="opacity:1;fill:#fafbfb;fill-opacity:1;fill-rule:nonzero;stroke:none;stroke-width:0.0770702;stroke-linecap:round;stroke-linejoin:round;stroke-miterlimit:4;stroke-dasharray:none;stroke-dashoffset:4;stroke-opacity:1"
   id="path2098-9-1-1"
   transform="matrix(0.99998894,-0.00470252,-0.05347594,0.99856914,0,0)"
   cx="5.4910746"
   cy="3.5539436"
   rx="0.088751823"
   ry="0.064974703" /><path
   style="opacity:1;fill:#ffffff;fill-opacity:1;fill-rule:evenodd;stroke:url(#linearGradient15);stroke-width:0.0163122;stroke-linecap:butt;stroke-linejoin:miter;stroke-miterlimit:4;stroke-dasharray:none;stroke-opacity:1"
   d="M 5.2744269,3.5030902 5.6444015,10.388216"
   id="path2221-2-8-1" /><path
   style="opacity:1;fill:#ffffff;fill-opacity:1;fill-rule:evenodd;stroke:url(#linearGradient16);stroke-width:0.0163122;stroke-linecap:butt;stroke-linejoin:miter;stroke-miterlimit:4;stroke-dasharray:none;stroke-opacity:1"
   d="M 6.2924691,3.4255031 6.7783469,10.310085"
   id="path2223-0-7-5" /><path
   style="fill:url(#linearGradient17);fill-opacity:1;fill-rule:evenodd;stroke:url(#radialGradient3142-3-9-1);stroke-width:0.0163122;stroke-linecap:butt;stroke-linejoin:miter;stroke-miterlimit:4;stroke-dasharray:none;stroke-opacity:1"
   d="M 7.2952448,3.3625476 7.9146286,10.188256"
   id="path2225-6-9-9" /><path
   style="opacity:0.229508;fill:none;fill-opacity:1;fill-rule:evenodd;stroke:url(#linearGradient18);stroke-width:0.0163122;stroke-linecap:butt;stroke-linejoin:miter;stroke-miterlimit:4;stroke-dasharray:none;stroke-opacity:1"
   d="M 8.2835313,3.2996606 9.0356482,10.081066"
   id="path2227-8-2-7" /><path
   style="opacity:0.229508;fill:none;fill-opacity:1;fill-rule:evenodd;stroke:url(#linearGradient19);stroke-width:0.0163122;stroke-linecap:butt;stroke-linejoin:miter;stroke-miterlimit:4;stroke-dasharray:none;stroke-opacity:1"
   d="M 9.274938,3.1785179 10.184865,9.9883"
   id="path2229-9-0-7" /><path
   style="opacity:0.508197;fill:none;fill-opacity:0.75;fill-rule:evenodd;stroke:url(#radialGradient3186-8-1-2);stroke-width:0.0828573px;stroke-linecap:butt;stroke-linejoin:miter;stroke-opacity:1"
   d="m 7.2678278,3.3335558 0.65973,6.8837632"
   id="path3178-2-2-6" /><ellipse
   style="opacity:1;fill:#fefeff;fill-opacity:1;fill-rule:nonzero;stroke:none;stroke-width:0.115681;stroke-linecap:round;stroke-linejoin:round;stroke-miterlimit:4;stroke-dasharray:none;stroke-dashoffset:4;stroke-opacity:1"
   id="path2072-7-3-7"
   transform="matrix(0.99998894,-0.00470283,-0.05347554,0.99856916,0,0)"
   cx="11.927487"
   cy="8.8296309"
   rx="0.11782757"
   ry="0.11027037" /><ellipse
   transform="matrix(0.99998894,-0.00470283,-0.05347554,0.99856916,0,0)"
   id="path2074-2-7-3"
   style="opacity:1;fill:#d5dee8;fill-opacity:1;fill-rule:nonzero;stroke:none;stroke-width:0.162741;stroke-linecap:round;stroke-linejoin:round;stroke-miterlimit:4;stroke-dasharray:none;stroke-dashoffset:4;stroke-opacity:1"
   cx="10.066644"
   cy="8.4950743"
   rx="0.16576155"
   ry="0.15512997" /><ellipse
   style="opacity:0.66;fill:#d5dee8;fill-opacity:1;fill-rule:nonzero;stroke:none;stroke-width:0.162741;stroke-linecap:round;stroke-linejoin:round;stroke-miterlimit:4;stroke-dasharray:none;stroke-dashoffset:4;stroke-opacity:1"
   id="path2076-7-5-6"
   transform="matrix(0.99998894,-0.00470283,-0.05347554,0.99856916,0,0)"
   cx="8.211628"
   cy="8.6674309"
   rx="0.16576155"
   ry="0.15512997" /><ellipse
   transform="matrix(0.99998894,-0.00470283,-0.05347554,0.99856916,0,0)"
   id="path2078-2-9-5"
   style="opacity:0.66;fill:#d5dee8;fill-opacity:1;fill-rule:nonzero;stroke:none;stroke-width:0.162741;stroke-linecap:round;stroke-linejoin:round;stroke-miterlimit:4;stroke-dasharray:none;stroke-dashoffset:4;stroke-opacity:1"
   cx="6.3566074"
   cy="8.839817"
   rx="0.16576155"
   ry="0.15512997" /><ellipse
   style="opacity:1;fill:#ffffff;fill-opacity:1;fill-rule:nonzero;stroke:none;stroke-width:0.162741;stroke-linecap:round;stroke-linejoin:round;stroke-miterlimit:4;stroke-dasharray:none;stroke-dashoffset:4;stroke-opacity:1"
   id="path2080-2-2-6"
   transform="matrix(0.99998894,-0.00470283,-0.05347554,0.99856916,0,0)"
   cx="4.501543"
   cy="9.012187"
   rx="0.16576155"
   ry="0.15512997" /><ellipse
   transform="matrix(0.99998894,-0.00470283,-0.05347554,0.99856916,0,0)"
   id="path2082-6-2-3"
   style="opacity:1;fill:#ffffff;fill-opacity:1;fill-rule:nonzero;stroke:none;stroke-width:0.115681;stroke-linecap:round;stroke-linejoin:round;stroke-miterlimit:4;stroke-dasharray:none;stroke-dashoffset:4;stroke-opacity:1"
   cx="5.3344302"
   cy="9.4422541"
   rx="0.11782757"
   ry="0.11027037" /><ellipse
   style="opacity:1;fill:#ffffff;fill-opacity:1;fill-rule:nonzero;stroke:none;stroke-width:0.115172;stroke-linecap:round;stroke-linejoin:round;stroke-miterlimit:4;stroke-dasharray:none;stroke-dashoffset:4;stroke-opacity:1"
   id="path2140-6-7-1"
   transform="matrix(-0.99998895,0.00470178,-0.05347553,0.99856916,0,0)"
   cx="-3.5784428"
   cy="6.5198483"
   rx="0.12194624"
   ry="0.1055991" /><ellipse
   transform="matrix(-0.99998894,0.00470327,-0.05347575,0.99856915,0,0)"
   id="path2142-1-3-2"
   style="opacity:1;fill:#ffffff;fill-opacity:1;fill-rule:nonzero;stroke:none;stroke-width:0.116338;stroke-linecap:round;stroke-linejoin:round;stroke-miterlimit:4;stroke-dasharray:none;stroke-dashoffset:4;stroke-opacity:1"
   cx="-3.6457326"
   cy="7.4945965"
   rx="0.12317771"
   ry="0.10666548" /><ellipse
   style="opacity:1;fill:#ffffff;fill-opacity:1;fill-rule:nonzero;stroke:none;stroke-width:0.117514;stroke-linecap:round;stroke-linejoin:round;stroke-miterlimit:4;stroke-dasharray:none;stroke-dashoffset:4;stroke-opacity:1"
   id="path2144-5-6-9"
   transform="matrix(-0.99998894,0.00470292,-0.0534757,0.99856915,0,0)"
   cx="-3.7138052"
   cy="6.5250282"
   rx="0.12442197"
   ry="0.10774311" /><ellipse
   transform="matrix(-0.99998894,0.00470358,-0.05347532,0.99856917,0,0)"
   id="path2146-9-1-3"
   style="opacity:1;fill:#ffffff;fill-opacity:1;fill-rule:nonzero;stroke:none;stroke-width:0.1187;stroke-linecap:round;stroke-linejoin:round;stroke-miterlimit:4;stroke-dasharray:none;stroke-dashoffset:4;stroke-opacity:1"
   cx="-3.8032305"
   cy="7.5198493"
   rx="0.1256787"
   ry="0.10883135" /><ellipse
   style="opacity:1;fill:#ffffff;fill-opacity:1;fill-rule:nonzero;stroke:none;stroke-width:0.119893;stroke-linecap:round;stroke-linejoin:round;stroke-miterlimit:4;stroke-dasharray:none;stroke-dashoffset:4;stroke-opacity:1"
   id="path2148-4-2-9"
   transform="matrix(-0.99998894,0.00470305,-0.053476,0.99856914,0,0)"
   cx="-3.895159"
   cy="8.5272655"
   rx="0.12694825"
   ry="0.10993087" /><ellipse
   transform="matrix(-0.99998894,0.00470305,-0.053476,0.99856914,0,0)"
   id="path2150-9-9-0"
   style="opacity:1;fill:#ffffff;fill-opacity:1;fill-rule:nonzero;stroke:none;stroke-width:0.119893;stroke-linecap:round;stroke-linejoin:round;stroke-miterlimit:4;stroke-dasharray:none;stroke-dashoffset:4;stroke-opacity:1"
   cx="-4.0171909"
   cy="9.5561619"
   rx="0.12694825"
   ry="0.10993087" /><ellipse
   transform="matrix(-0.99055191,0.13713829,0.08560289,0.99632934,0,0)"
   id="path2195-0-3-8"
   style="opacity:1;fill:#fefeff;fill-opacity:1;fill-rule:nonzero;stroke:none;stroke-width:0.114782;stroke-linecap:round;stroke-linejoin:round;stroke-miterlimit:4;stroke-dasharray:none;stroke-dashoffset:4;stroke-opacity:1"
   cx="-11.308688"
   cy="7.3524604"
   rx="0.12390361"
   ry="0.10324025" /><ellipse
   style="opacity:1;fill:#fefeff;fill-opacity:1;fill-rule:nonzero;stroke:none;stroke-width:0.115943;stroke-linecap:round;stroke-linejoin:round;stroke-miterlimit:4;stroke-dasharray:none;stroke-dashoffset:4;stroke-opacity:1"
   id="path2197-9-1-8"
   transform="matrix(-0.99055183,0.1371389,0.0856017,0.99632944,0,0)"
   cx="-11.398511"
   cy="8.3328218"
   rx="0.1251552"
   ry="0.10428315" /><ellipse
   transform="matrix(-0.9905518,0.13713907,0.085603,0.99632933,0,0)"
   id="path2199-1-9-5"
   style="opacity:1;fill:#fefeff;fill-opacity:1;fill-rule:nonzero;stroke:none;stroke-width:0.118296;stroke-linecap:round;stroke-linejoin:round;stroke-miterlimit:4;stroke-dasharray:none;stroke-dashoffset:4;stroke-opacity:1"
   cx="-11.488273"
   cy="9.3131161"
   rx="0.12769635"
   ry="0.10640056" /><ellipse
   style="opacity:1;fill:#fefeff;fill-opacity:1;fill-rule:nonzero;stroke:none;stroke-width:0.118296;stroke-linecap:round;stroke-linejoin:round;stroke-miterlimit:4;stroke-dasharray:none;stroke-dashoffset:4;stroke-opacity:1"
   id="path2201-7-4-0"
   transform="matrix(-0.9905518,0.13713907,0.085603,0.99632933,0,0)"
   cx="-11.822292"
   cy="8.3403931"
   rx="0.12769635"
   ry="0.10640056" /><ellipse
   transform="matrix(-0.9905519,0.13713835,0.0856027,0.99632935,0,0)"
   id="path2203-7-7-9"
   style="opacity:1;fill:#fefeff;fill-opacity:1;fill-rule:nonzero;stroke:none;stroke-width:0.1195;stroke-linecap:round;stroke-linejoin:round;stroke-miterlimit:4;stroke-dasharray:none;stroke-dashoffset:4;stroke-opacity:1"
   cx="-11.912145"
   cy="9.3207273"
   rx="0.12898609"
   ry="0.10747527" /><ellipse
   style="opacity:1;fill:#fefeff;fill-opacity:1;fill-rule:nonzero;stroke:none;stroke-width:0.1195;stroke-linecap:round;stroke-linejoin:round;stroke-miterlimit:4;stroke-dasharray:none;stroke-dashoffset:4;stroke-opacity:1"
   id="path2205-1-8-6"
   transform="matrix(-0.9905519,0.13713835,0.0856027,0.99632935,0,0)"
   cx="-12.001957"
   cy="10.301028"
   rx="0.12898609"
   ry="0.10747527" /><path
   style="opacity:0.401639;fill:none;fill-opacity:1;fill-rule:evenodd;stroke:url(#linearGradient20);stroke-width:0.0190979;stroke-linecap:butt;stroke-linejoin:miter;stroke-miterlimit:4;stroke-dasharray:none;stroke-opacity:1"
   d="m 3.438018,8.4911502 9.184893,-0.8443336 v 0"
   id="path2207-1-4-3" /><path
   style="opacity:0.229508;fill:none;fill-opacity:1;fill-rule:evenodd;stroke:url(#linearGradient21);stroke-width:0.0190979;stroke-linecap:butt;stroke-linejoin:miter;stroke-miterlimit:4;stroke-dasharray:none;stroke-opacity:1"
   d="M 3.3901257,7.4856929 12.472338,6.6588861"
   id="path2209-5-5-8" /><path
   style="fill:url(#linearGradient22);fill-opacity:1;fill-rule:evenodd;stroke:url(#radialGradient3130-5-2-6);stroke-width:0.0190979;stroke-linecap:butt;stroke-linejoin:miter;stroke-miterlimit:4;stroke-dasharray:none;stroke-opacity:1"
   d="M 3.2996868,8.4935301 12.194412,7.6846516"
   id="path2211-9-0-5" /><path
   style="opacity:0.229508;fill:url(#linearGradient23);fill-opacity:1;fill-rule:evenodd;stroke:url(#linearGradient24);stroke-width:0.0190979;stroke-linecap:butt;stroke-linejoin:miter;stroke-miterlimit:4;stroke-dasharray:none;stroke-opacity:1"
   d="M 3.2366569,7.4540478 12.041098,6.747871"
   id="path2213-7-3-6" /><path
   d="M 3.2217667,6.4654773 11.838724,5.7772277"
   id="path2215-7-6-1"
   style="opacity:0.96875;fill:#ffffff;fill-opacity:1;fill-rule:evenodd;stroke:url(#linearGradient25);stroke-width:0.0190979;stroke-linecap:butt;stroke-linejoin:miter;stroke-miterlimit:4;stroke-dasharray:none;stroke-opacity:1" /><path
   style="opacity:0.508197;fill:none;fill-opacity:0.75;fill-rule:evenodd;stroke:url(#radialGradient3196-8-7-5);stroke-width:0.0970018px;stroke-linecap:butt;stroke-linejoin:miter;stroke-opacity:1"
   d="m 3.283639,8.4765632 8.96074,-0.7751008"
   id="path3188-6-1-1" /><path
   style="font-style:normal;font-variant:normal;font-weight:normal;font-stretch:normal;font-size:37.2529px;line-height:125%;font-family:Cotillion;text-align:start;writing-mode:lr-tb;text-anchor:start;fill:#ffffff;fill-opacity:1;stroke:none;stroke-width:0.111988px;stroke-linecap:butt;stroke-linejoin:miter;stroke-opacity:1"
   d="m 7.023515,5.3485782 c 0.017978,0.095808 -0.014738,0.1624583 -0.097866,0.1999456 -0.014358,0.00403 -0.031177,0.00403 -0.050436,0 l -0.00819,-0.025001 -0.017475,-0.062486 c -0.00406,-0.020804 -0.028588,-0.056236 -0.074494,-0.106222 -0.048354,-0.05415 -0.1124652,-0.081234 -0.1923169,-0.081234 -0.050415,2.9e-6 -0.1028826,0.014621 -0.1573348,0.043719 -0.056891,0.025002 -0.1067311,0.072903 -0.1495404,0.1437107 -0.042839,0.070807 -0.081803,0.1770377 -0.1169759,0.3186649 -0.015837,0.066647 -0.027174,0.1228768 -0.034136,0.1687041 -0.023241,0.1332994 -0.042289,0.3061656 -0.057234,0.5186045 l -0.018096,0.2936759 -3.639e-4,0.1937007 h 0.5862869 l 0.0094,0.081237 h -0.605202 l -0.025791,0.3561551 -0.023394,0.3061627 -0.011549,0.1749536 -0.00785,0.1811996 -0.014737,0.093711 -0.048276,0.5123621 C 5.8617581,9.064198 5.7967918,9.3495281 5.7131296,9.5161472 5.6294725,9.6827724 5.4873617,9.8139874 5.2867952,9.9097904 c -0.077248,0.03326 -0.1518497,0.06044 -0.2237634,0.0812 -0.071929,0.02074 -0.137304,0.0313 -0.1961443,0.0313 L 4.7434866,10.01669 H 4.6425911 l -0.072983,-0.0057 c -0.033596,2e-6 -0.072983,-0.0056 -0.1180864,-0.01877 -0.042688,-0.0089 -0.09319,-0.02285 -0.1515675,-0.04374 C 4.1825783,9.8983754 4.1008491,9.8338034 4.054741,9.7546594 4.0231637,9.7004824 4.0181373,9.6484164 4.0394067,9.5984434 l 0.050179,-0.043724 c 0.037128,-0.00862 0.062071,-0.012529 0.07467,-0.012529 0.058831,-5.6e-6 0.1133144,0.025029 0.1634527,0.074966 0.02188,0.03751 0.033104,0.06042 0.033719,0.0687 l -0.013215,0.03129 c -0.010574,0.02503 -0.00632,0.05417 0.01308,0.08746 0.029139,0.05 0.083688,0.08958 0.1637129,0.11875 0.074039,0.03327 0.1615091,0.04997 0.2623757,0.04997 0.126077,-2e-6 0.2381695,-0.0313 0.336258,-0.09371 0.093889,-0.06245 0.1719234,-0.166623 0.2340954,-0.31241 0.024279,-0.066681 0.04091,-0.1353777 0.050111,-0.206198 0.00916,-0.070801 0.020973,-0.2020285 0.035494,-0.3936415 l 0.010682,-0.1437114 0.024592,-0.4123906 0.072183,-0.731047 0.016882,-0.1874454 0.030627,-0.4561272 H 5.194853 l -0.0094,-0.081233 h 0.4160203 l 0.02098,-0.2566552 C 5.6507567,6.4153766 5.6881795,6.1946019 5.7346647,6.0363104 5.7786985,5.873857 5.8388928,5.7426459 5.9151361,5.6426712 6.0610073,5.4385605 6.2238099,5.303183 6.4035301,5.2365309 c 0.095842,-0.037478 0.1899929,-0.056235 0.2824504,-0.056235 0.054638,3.4e-6 0.1117005,0.00403 0.1711887,0.012564 0.063703,0.00833 0.1137391,0.043731 0.1501427,0.106222 0.0049,0.00833 0.010243,0.025003 0.016484,0.049979"
   id="path1992-7-0-5" /><path
   style="font-style:normal;font-variant:normal;font-weight:normal;font-stretch:normal;font-size:37.2529px;line-height:125%;font-family:Cotillion;text-align:start;writing-mode:lr-tb;text-anchor:start;fill:#d5dee8;fill-opacity:1;stroke:none;stroke-width:0.111988px;stroke-linecap:butt;stroke-linejoin:miter;stroke-opacity:1"
   d="m 7.80406,5.8028076 0.0048,0.018777 -0.011677,0.012565 -0.00209,0.018777 -0.094041,0.087475 C 7.667547,5.9695726 7.638678,6.0028816 7.614292,6.0403836 7.587496,6.0737136 7.542556,6.1445325 7.4795619,6.2528292 7.3602083,6.4736065 7.268985,6.7318682 7.2059102,7.0276115 7.1428402,7.32337 7.1111192,7.6441138 7.1107982,7.9898473 c 8.693e-4,0.3915603 0.026324,0.6873194 0.075542,0.8872578 0.053426,0.199948 0.112899,0.3561538 0.1784141,0.4686214 l 0.039997,0.068719 -0.00209,0.018783 c 0.00307,0.012529 3.669e-4,0.018769 -0.00805,0.018769 -0.015037,-0.00382 -0.027907,-0.00862 -0.038757,-0.012529 -0.013228,-0.0086 -0.035901,-0.029181 -0.067933,-0.062463 C 7.2214269,9.3061683 7.1505938,9.2061834 7.0753663,9.0770542 6.9152412,8.8020942 6.8097328,8.5271736 6.7588552,8.252243 6.7055563,7.9731581 6.7078487,7.6524124 6.7656537,7.2900114 6.8012763,7.1275581 6.8436805,6.9838464 6.8927582,6.8588769 6.9418516,6.7339126 7.0250324,6.588124 7.1423117,6.4215004 7.2048295,6.3340285 7.2524809,6.2715469 7.2852886,6.2340506 7.3431256,6.1673957 7.4051644,6.100755 7.4714231,6.0341077 l 0.087697,-0.087489 0.068119,-0.056236 0.1066526,-0.087476 0.039528,-0.018757 0.029824,0.018757"
   id="path1990-3-6-9" /><path
   style="font-style:normal;font-variant:normal;font-weight:normal;font-stretch:normal;font-size:37.2529px;line-height:125%;font-family:Cotillion;text-align:start;writing-mode:lr-tb;text-anchor:start;fill:#d5dee8;fill-opacity:1;stroke:none;stroke-width:0.111988px;stroke-linecap:butt;stroke-linejoin:miter;stroke-opacity:1"
   d="m 10.114054,7.7416693 0.0015,0.025003 -0.0179,0.043729 -0.0044,0.025002 -0.08128,0.1437107 -0.05468,0.087476 -0.04634,0.093729 -0.05656,0.081233 -0.07832,0.1124583 c -0.06253,0.095822 -0.116106,0.1666236 -0.160634,0.2124422 -0.04455,0.045808 -0.11448,0.097888 -0.209712,0.1562132 -0.09532,0.058313 -0.187033,0.087477 -0.275292,0.087477 -0.235355,0 -0.413704,-0.1270528 -0.535055,-0.3811493 -0.01879,-0.033306 -0.03265,-0.06457 -0.041832,-0.093712 -0.010574,-0.033316 -0.017516,-0.056241 -0.021453,-0.068728 l -0.022227,0.049999 -0.028527,0.049979 c -0.070507,0.13747 -0.1556726,0.2416005 -0.255459,0.3124124 -0.1039747,0.070812 -0.2063983,0.1062188 -0.3072615,0.1062188 -0.1008684,0 -0.1649524,-0.043729 -0.192266,-0.131218 -0.00392,-0.012563 -0.0073,-0.043729 -0.010243,-0.093729 -0.00405,-0.054153 0.020527,-0.095809 0.074472,-0.1249658 0.049742,-0.029155 0.08721,-0.04373 0.1124322,-0.04373 0.029432,2.8e-6 0.053697,0.010306 0.072785,0.03127 l 0.011677,0.03749 c 0.018471,0.045821 0.073038,0.079139 0.1635958,0.099982 0.03074,0.0039 0.06174,-0.00403 0.093061,-0.025002 0.027155,-0.020799 0.065208,-0.060394 0.114251,-0.1187118 L 8.4217518,8.316566 8.4827098,8.229091 8.5069328,8.185373 C 8.4821002,8.1062296 8.4660193,8.0479031 8.4585352,8.0104185 8.4496667,7.96877 8.431172,7.8417135 8.4025855,7.629272 l -0.026544,-0.2061914 -0.014237,-0.106222 -0.00382,-0.093729 -0.011788,-0.1187245 -0.03182,0.099981 -0.038602,0.118725 -0.042502,0.106221 -0.078214,0.1936945 c -0.031219,0.074985 -0.05119,0.1187092 -0.0599,0.1312045 -0.00872,0.012565 -0.028429,0.016696 -0.059126,0.012565 l 3.579e-4,-0.018745 -0.00131,-0.024986 0.061873,-0.1249646 0.110502,-0.312411 0.045819,-0.1562134 0.038109,-0.099982 0.090205,0.00628 c 0.071453,1.6e-6 0.1361092,-0.00833 0.1939299,-0.025002 0.05782,-0.016682 0.115835,-0.039562 0.173977,-0.068727 l -0.0039,0.087476 0.0013,0.2061958 c 0.0034,0.1457944 0.0093,0.2645063 0.01666,0.3561481 0.0078,0.09165 0.02149,0.1832862 0.04169,0.2749245 l 0.0614,-0.1062222 0.05899,-0.093727 0.07884,-0.1312046 c 0.170909,-0.2332852 0.307069,-0.3894897 0.408448,-0.4686351 0.104308,-0.083315 0.19845,-0.1249655 0.282507,-0.1249655 0.06858,0.0039 0.12401,0.027064 0.166449,0.068726 0.04536,0.037477 0.0667,0.079137 0.0642,0.1249644 l -0.01235,0.081232 c -0.04161,0.095822 -0.08328,0.1437108 -0.125322,0.1437108 -0.02528,0 -0.05902,-0.020781 -0.10145,-0.062485 -0.01941,-0.00833 -0.03334,-0.012567 -0.04179,-0.012567 -0.05008,-0.012567 -0.09617,-0.018762 -0.138191,-0.018762 -0.02527,0 -0.06124,0.012566 -0.1081,0.037477 -0.04385,0.02078 -0.08365,0.041648 -0.119128,0.062483 -0.0685,0.050002 -0.132251,0.1083063 -0.191248,0.1749572 -0.07359,0.087476 -0.144024,0.1916145 -0.211375,0.312414 l -0.04876,0.1062024 c 0.0124,0.066654 0.02703,0.1270501 0.04397,0.1811983 0.0071,0.020797 0.01308,0.041636 0.01947,0.062489 0.01885,0.033316 0.03073,0.058331 0.03603,0.074985 0.07283,0.2332655 0.182775,0.3499075 0.329872,0.3499075 0.06298,0 0.133676,-0.022904 0.211801,-0.068742 0.04385,-0.020814 0.08312,-0.049981 0.117654,-0.087472 0.03453,-0.037467 0.08079,-0.097888 0.138894,-0.1812018 l 0.09095,-0.1124617 0.03921,-0.056236 0.05657,-0.081232 0.1300317,-0.2499352 c 0.0097,-0.037477 0.01896,-0.060393 0.02902,-0.068727 0.0039,0 0.0083,-0.00239 0.01068,-0.00628 l 0.03308,0.024985"
   id="path1988-6-3-8" /><path
   style="font-style:normal;font-variant:normal;font-weight:normal;font-stretch:normal;font-size:37.2529px;line-height:125%;font-family:Cotillion;text-align:start;writing-mode:lr-tb;text-anchor:start;opacity:1;fill:#d5dee8;fill-opacity:1;stroke:none;stroke-width:0.111988px;stroke-linecap:butt;stroke-linejoin:miter;stroke-opacity:1"
   d="m 10.810691,6.3963943 c 0.102649,0.2124377 0.168934,0.4415461 0.198623,0.6873104 0.03413,0.2749238 0.02707,0.5623426 -0.02087,0.8622627 -0.02791,0.1541268 -0.06906,0.2999177 -0.123509,0.4373781 -0.05688,0.1332957 -0.143303,0.2770051 -0.259501,0.4311269 -0.07847,0.1249644 -0.185207,0.2520179 -0.320138,0.3811472 l -0.09676,0.093724 -0.05908,0.04997 -0.112922,0.087459 c -0.01546,0.016686 -0.02744,0.025016 -0.03586,0.025016 -0.01079,-0.00382 -0.01747,-0.00862 -0.01996,-0.012529 l -0.0089,-0.025029 0.0017,-0.018768 0.01158,-0.012529 0.09406,-0.087478 c 0.02812,-0.016687 0.05953,-0.045806 0.09406,-0.087491 0.02793,-0.045817 0.07039,-0.120791 0.127454,-0.2249388 0.09148,-0.1749518 0.177313,-0.4207156 0.257676,-0.7372959 0.06975,-0.2915848 0.10192,-0.6331595 0.09659,-1.0247197 -7.5e-4,-0.3915094 -0.02704,-0.6851736 -0.07804,-0.8809546 -0.05342,-0.1999425 -0.110491,-0.3519879 -0.17115,-0.4561291 l -0.0364,-0.062478 -0.009,-0.025 c 0.01108,-0.016682 0.02688,-0.018762 0.04689,-0.00628 0.03975,0.025003 0.08176,0.06457 0.12594,0.1187249 0.04839,0.054153 0.105266,0.1374712 0.170809,0.2499298 0.02181,0.037491 0.04363,0.074985 0.06543,0.1124607 0.02313,0.054153 0.04318,0.095808 0.06013,0.1249659"
   id="path1986-5-2-4" /><path
   style="font-style:normal;font-variant:normal;font-weight:normal;font-stretch:normal;font-size:37.2529px;line-height:125%;font-family:Cotillion;text-align:start;writing-mode:lr-tb;text-anchor:start;opacity:1;fill:#fefeff;fill-opacity:1;stroke:none;stroke-width:0.0796039px;stroke-linecap:butt;stroke-linejoin:miter;stroke-opacity:1"
   d="M 12.833784,8.0814081 H 11.662565 V 7.9081883 h 1.171219 v 0.1732198"
   id="path1984-6-0-8" /><path
   style="font-style:normal;font-variant:normal;font-weight:normal;font-stretch:normal;font-size:37.2529px;line-height:125%;font-family:Cotillion;text-align:start;writing-mode:lr-tb;text-anchor:start;opacity:1;fill:#fefeff;fill-opacity:1;stroke:none;stroke-width:0.0796039px;stroke-linecap:butt;stroke-linejoin:miter;stroke-opacity:1"
   d="M 12.833784,8.8675423 H 11.662565 V 8.6943257 h 1.171219 v 0.1732166"
   id="text1977-3-6-1" /><ellipse
   style="fill:#ffffff;fill-opacity:1;fill-rule:nonzero;stroke:none;stroke-width:0.115681;stroke-linecap:round;stroke-linejoin:round;stroke-miterlimit:4;stroke-dasharray:none;stroke-dashoffset:4;stroke-opacity:1"
   id="path2080-2-2-6-0"
   transform="matrix(0.99998894,-0.00470283,-0.05347554,0.99856916,0,0)"
   cx="10.065154"
   cy="11.781933"
   rx="0.11782757"
   ry="0.11027037" /><ellipse
   transform="matrix(0.99998894,-0.00470283,-0.05347554,0.99856916,0,0)"
   id="path2082-6-2-3-3"
   style="fill:#ffffff;fill-opacity:1;fill-rule:nonzero;stroke:none;stroke-width:0.115681;stroke-linecap:round;stroke-linejoin:round;stroke-miterlimit:4;stroke-dasharray:none;stroke-dashoffset:4;stroke-opacity:1"
   cx="8.7465324"
   cy="11.904451"
   rx="0.11782757"
   ry="0.11027037" /><ellipse
   style="fill:#ffffff;fill-opacity:1;fill-rule:nonzero;stroke:none;stroke-width:0.119893;stroke-linecap:round;stroke-linejoin:round;stroke-miterlimit:4;stroke-dasharray:none;stroke-dashoffset:4;stroke-opacity:1"
   id="path2148-4-2-9-0"
   transform="matrix(-0.99998894,0.00470305,-0.053476,0.99856914,0,0)"
   cx="-7.3072581"
   cy="10.989461"
   rx="0.12694825"
   ry="0.10993087" /><ellipse
   transform="matrix(-0.99998894,0.00470305,-0.053476,0.99856914,0,0)"
   id="path2150-9-9-0-4"
   style="fill:#ffffff;fill-opacity:1;fill-rule:nonzero;stroke:none;stroke-width:0.119893;stroke-linecap:round;stroke-linejoin:round;stroke-miterlimit:4;stroke-dasharray:none;stroke-dashoffset:4;stroke-opacity:1"
   cx="-7.4292932"
   cy="12.018362"
   rx="0.12694825"
   ry="0.10993087" /></svg>
