<?xml version="1.0" encoding="UTF-8" standalone="no"?>
<svg
   width="18"
   height="18"
   version="1.1"
   id="svg95"
   sodipodi:docname="konversation.svg"
   inkscape:version="1.3 (0e150ed6c4, 2023-07-21)"
   xmlns:inkscape="http://www.inkscape.org/namespaces/inkscape"
   xmlns:sodipodi="http://sodipodi.sourceforge.net/DTD/sodipodi-0.dtd"
   xmlns:xlink="http://www.w3.org/1999/xlink"
   xmlns="http://www.w3.org/2000/svg"
   xmlns:svg="http://www.w3.org/2000/svg">
  <sodipodi:namedview
     id="namedview97"
     pagecolor="#ffffff"
     bordercolor="#666666"
     borderopacity="1.0"
     inkscape:showpageshadow="2"
     inkscape:pageopacity="0.0"
     inkscape:pagecheckerboard="0"
     inkscape:deskcolor="#d1d1d1"
     showgrid="false"
     inkscape:zoom="9.8333334"
     inkscape:cx="18.610169"
     inkscape:cy="32.694915"
     inkscape:window-width="1920"
     inkscape:window-height="994"
     inkscape:window-x="0"
     inkscape:window-y="0"
     inkscape:window-maximized="1"
     inkscape:current-layer="svg95" />
  <defs
     id="defs15">
    <linearGradient
       id="linearGradient1"
       inkscape:collect="always">
      <stop
         style="stop-color:#ffdd55;stop-opacity:1"
         offset="0"
         id="stop1" />
      <stop
         style="stop-color:#00ffff;stop-opacity:1"
         offset="1"
         id="stop3" />
    </linearGradient>
    <linearGradient
       id="a"
       y1="44"
       y2="4"
       gradientUnits="userSpaceOnUse"
       x2="0"
       gradientTransform="matrix(-1,0,0,1,432.57,499.8)">
      <stop
         stop-color="#197cf1"
         id="stop2"
         style="stop-color:#2ad4ff;stop-opacity:1" />
      <stop
         offset="1"
         stop-color="#20bcfa"
         id="stop4" />
    </linearGradient>
    <linearGradient
       id="b"
       y1="655.51001"
       y2="662.23999"
       x2="0"
       gradientUnits="userSpaceOnUse"
       gradientTransform="translate(3.346,-3.716)">
      <stop
         stop-color="#172525"
         id="stop7" />
      <stop
         offset="1"
         stop-color="#172525"
         stop-opacity="0"
         id="stop9" />
    </linearGradient>
    <linearGradient
       xlink:href="#b"
       id="c"
       y1="655.51001"
       y2="662.23999"
       x2="0"
       gradientUnits="userSpaceOnUse"
       gradientTransform="translate(6.02,-6.688)" />
    <linearGradient
       xlink:href="#b"
       id="d"
       y1="655.51001"
       y2="662.23999"
       x2="0"
       gradientUnits="userSpaceOnUse"
       gradientTransform="translate(10.04,-11.147)" />
    <linearGradient
       xlink:href="#b"
       id="e"
       y1="655.51001"
       y2="662.23999"
       x2="0"
       gradientUnits="userSpaceOnUse"
       gradientTransform="translate(0.669,-0.743)" />
    <linearGradient
       id="a-3"
       x1="428.81601"
       x2="388.86499"
       y1="547.63397"
       y2="499.67899"
       gradientTransform="matrix(1.0500004,0,0,1.0500004,-404.99863,-525.9902)"
       gradientUnits="userSpaceOnUse">
      <stop
         stop-color="#bdc3c7"
         offset="0"
         id="stop2193"
         style="stop-color:#031c3f;stop-opacity:1;" />
      <stop
         stop-color="#eff0f1"
         offset="1"
         id="stop2195"
         style="stop-color:#6e757e;stop-opacity:1;" />
    </linearGradient>
    <linearGradient
       gradientUnits="userSpaceOnUse"
       x2="0"
       y2="13"
       y1="34"
       id="b-3"
       gradientTransform="translate(318.46974,493.89969)">
      <stop
         id="stop4156"
         stop-color="#2a2c2f" />
      <stop
         id="stop4158"
         stop-color="#424649"
         offset="1" />
    </linearGradient>
    <linearGradient
       gradientUnits="userSpaceOnUse"
       x2="0"
       y2="503.79999"
       y1="543.79999"
       id="a-6"
       gradientTransform="translate(-66.100265,-5.9003051)">
      <stop
         id="stop4151"
         stop-color="#faae2a" />
      <stop
         id="stop4153"
         stop-color="#ffc35a"
         offset="1" />
    </linearGradient>
    <linearGradient
       id="a-3-3"
       x1="428.81601"
       x2="388.86499"
       y1="547.63397"
       y2="499.67899"
       gradientTransform="matrix(1.0500004,0,0,1.0500004,-489.81219,-552.56317)"
       gradientUnits="userSpaceOnUse">
      <stop
         stop-color="#bdc3c7"
         offset="0"
         id="stop2193-6" />
      <stop
         stop-color="#eff0f1"
         offset="1"
         id="stop2195-7" />
    </linearGradient>
    <linearGradient
       id="f"
       y1="42"
       x1="41"
       y2="10"
       x2="5"
       gradientUnits="userSpaceOnUse"
       gradientTransform="translate(38,-40.04)">
      <stop
         stop-color="#2e5d89"
         id="stop23" />
      <stop
         offset="1"
         stop-color="#1b92f4"
         id="stop25" />
    </linearGradient>
    <linearGradient
       id="g"
       y1="42"
       x1="41"
       y2="10"
       x2="5"
       gradientUnits="userSpaceOnUse"
       gradientTransform="translate(-106.4344,-56.0605)">
      <stop
         stop-color="#06a370"
         id="stop28" />
      <stop
         offset="1"
         stop-color="#22d1b0"
         id="stop30" />
    </linearGradient>
    <linearGradient
       inkscape:collect="always"
       xlink:href="#linearGradient1"
       id="linearGradient3"
       x1="0.5"
       y1="16.999998"
       x2="17.789352"
       y2="1"
       gradientUnits="userSpaceOnUse"
       gradientTransform="matrix(0.81456382,0,0,0.81250005,1.5510482,1.6875)" />
  </defs>
  <path
     d="m 15.526286,9.792405 -0.0028,-0.0026 c -0.07995,0.08042 -0.191039,0.130543 -0.314406,0.130543 -0.243048,0 -0.440097,-0.194028 -0.440097,-0.4333364 0,-0.1252615 0.05483,-0.237196 0.141185,-0.316333 0.154515,-0.1563461 0.250558,-0.3692276 0.250558,-0.6047122 0,-0.23549 -0.09603,-0.44815 -0.250769,-0.6045 -0.08634,-0.07911 -0.141134,-0.1910483 -0.141134,-0.3163116 0,-0.2393062 0.197058,-0.4333347 0.440109,-0.4333347 0.123341,0 0.234437,0.050154 0.314406,0.1305392 l 0.0028,-0.0027 c 0.318469,0.3137876 0.515531,0.747119 0.515531,1.2257377 0,0.4786153 -0.197062,0.9119492 -0.515531,1.225739 z m -2.125134,4.840926 c -0.486088,0 -0.8802,-0.38805 -0.8802,-0.866686 v -0.0064 c -2.07e-4,-2.2e-4 -3.69e-4,0 -3.69e-4,-3.73e-4 -0.309021,-0.720895 -1.152081,-1.353538 -2.331216,-1.813761 l 0.0028,-0.0064 c -0.180964,-0.06344 -0.3111815,-0.231844 -0.3111815,-0.431803 0,-0.25433 0.2092995,-0.46041 0.4676185,-0.46041 0.0748,0 0.144627,0.01885 0.207372,0.04977 1.406281,0.517534 2.415416,1.249014 2.774961,2.08753 0.09516,0.222197 0.07092,-3.7520715 0.07092,-3.7520715 V 7.4835317 c 0,0 0.02432,-3.7575943 -0.07096,-3.5354292 -0.704418,1.6436395 -3.8898378,2.8843822 -7.7128326,2.8843822 -0.071758,0 -0.1334621,3.7e-4 -0.1904008,8.756e-4 H 5.0390923 c -0.2430497,-4.57e-5 -0.440109,0.1939655 -0.440109,0.4332714 0,0.239316 -0.1970587,0.433341 -0.4401085,0.433341 H 3.7187693 c -0.4861014,0 -0.8802174,0.38805 -0.8802174,0.866659 0,0.4786321 0.394116,0.8666819 0.8802174,0.8666819 h 0.4401055 c 0.2430498,0 0.4401085,0.1940084 0.4401085,0.4333204 0,0.239317 0.1970593,0.43334 0.440109,0.43334 h 0.4115275 c 0.050939,3.6e-4 0.1050772,9.44e-4 0.1667469,9.44e-4 0.052644,0 0.1042222,0.0031 0.1566476,0.0039 0.6169783,0.02144 1.1408935,0.397583 1.3665279,0.929719 l 1.3356053,3.291597 C 8.6944896,15.063508 8.3790026,15.5 7.7715079,15.5 H 6.9394231 c -0.6077349,0 -1.2775517,-0.436492 -1.495901,-0.975 l -0.771479,-1.900699 0.00195,-7.11e-4 c -0.021925,-0.05081 -0.033946,-0.106669 -0.033946,-0.165265 0,-0.234649 0.1931789,-0.424885 0.4315248,-0.424885 0.1873768,0 0.3455395,0.118484 0.4050916,0.282884 L 6.2538603,14.2 c 0.098857,0.2393 0.3758486,0.433348 0.6188971,0.433348 h 0.3118249 c 0.2430494,0 0.3601725,-0.194048 0.2613081,-0.433348 L 6.3731288,11.599985 C 6.2742686,11.360686 5.9972747,11.166646 5.754227,11.166646 H 5.479158 5.442413 4.818998 c -0.4166699,0 -0.7781368,-0.228706 -0.9648802,-0.564731 -7.603e-4,-0.0047 -0.00196,-0.007 -0.00325,-0.01108 -0.026644,-0.04931 -0.049636,-0.10073 -0.069191,-0.153615 -0.010527,-0.02931 -0.027951,-0.05713 -0.051801,-0.08063 -0.039546,-0.03911 -0.090687,-0.06007 -0.1427051,-0.06305 0,0 0,-2.15e-4 -2.2e-4,-2.15e-4 -0.9104476,-0.06633 -1.6286202,-0.813229 -1.6286202,-1.7266795 0,-0.9134256 0.7181726,-1.6603427 1.6287022,-1.7267762 2.19e-4,0 2.19e-4,-2.134e-4 2.19e-4,-2.134e-4 0.052012,-0.00359 0.1031481,-0.023995 0.1427054,-0.06305 0.024067,-0.023467 0.041259,-0.05122 0.051808,-0.080628 2.182e-4,-3.646e-4 6.515e-4,-3.646e-4 7.59e-4,-0.00102 C 3.9320742,6.2717874 4.3382117,5.9668878 4.8189473,5.9668878 h 0.6601614 0.1046636 c 3.4381268,0 6.3029147,-1.115699 6.9364237,-2.5938547 2.18e-4,-2.164e-4 3.82e-4,-2.164e-4 3.82e-4,-3.739e-4 v -0.00551 C 12.520953,2.88805 12.915066,2.5 13.401151,2.5 c 0.486111,0 0.880229,0.38805 0.880229,0.8666591 V 6.6166583 6.8333413 7.6999994 8.5666585 9.4333432 10.3 v 0.216655 3.249996 c 0,0.478646 -0.394117,0.866696 -0.880229,0.866696 z M 8.3399327,10.949986 c 0,-0.239302 0.1970434,-0.433341 0.4400908,-0.433341 0.243058,0 0.4401165,0.194039 0.4401165,0.433341 0,0.239301 -0.1970585,0.433343 -0.4401165,0.433343 -0.2430474,0 -0.4400908,-0.194042 -0.4400908,-0.433343 z"
     id="path2-3"
     style="color:#077285;fill:url(#linearGradient3);fill-opacity:1;stroke-width:0.0272948"
     class="ColorScheme-Highlight" />
</svg>
