<?xml version="1.0" encoding="UTF-8" standalone="no"?>
<svg
   style="isolation:isolate"
   width="16"
   height="16"
   viewBox="0 0 16 16"
   version="1.1"
   id="svg22"
   sodipodi:docname="kphotoalbum.svg"
   inkscape:version="1.3 (0e150ed6c4, 2023-07-21)"
   xmlns:inkscape="http://www.inkscape.org/namespaces/inkscape"
   xmlns:sodipodi="http://sodipodi.sourceforge.net/DTD/sodipodi-0.dtd"
   xmlns:xlink="http://www.w3.org/1999/xlink"
   xmlns="http://www.w3.org/2000/svg"
   xmlns:svg="http://www.w3.org/2000/svg">
  <sodipodi:namedview
     id="namedview22"
     pagecolor="#ffffff"
     bordercolor="#000000"
     borderopacity="0.25"
     inkscape:showpageshadow="2"
     inkscape:pageopacity="0.0"
     inkscape:pagecheckerboard="0"
     inkscape:deskcolor="#d1d1d1"
     showgrid="true"
     inkscape:zoom="48.181147"
     inkscape:cx="6.8906621"
     inkscape:cy="8.8312551"
     inkscape:window-width="1920"
     inkscape:window-height="994"
     inkscape:window-x="0"
     inkscape:window-y="0"
     inkscape:window-maximized="1"
     inkscape:current-layer="svg22">
    <inkscape:grid
       id="grid28"
       units="px"
       originx="0"
       originy="0"
       spacingx="1"
       spacingy="1"
       empcolor="#0099e5"
       empopacity="0.30196078"
       color="#0099e5"
       opacity="0.14901961"
       empspacing="5"
       dotted="false"
       gridanglex="30"
       gridanglez="30"
       visible="true" />
  </sodipodi:namedview>
  <defs
     id="defs22">
    <style
       id="current-color-scheme"
       type="text/css">&#10;   .ColorScheme-Text { color:#d5c289; } .ColorScheme-Highlight { color:#5294e2; }&#10;  </style>
    <linearGradient
       id="arrongin"
       x1="0%"
       x2="0%"
       y1="0%"
       y2="100%">
      <stop
         offset="0%"
         style="stop-color:#dd9b44; stop-opacity:1"
         id="stop1" />
      <stop
         offset="100%"
         style="stop-color:#ad6c16; stop-opacity:1"
         id="stop2" />
    </linearGradient>
    <linearGradient
       id="aurora"
       x1="0%"
       x2="0%"
       y1="0%"
       y2="100%">
      <stop
         offset="0%"
         style="stop-color:#09D4DF; stop-opacity:1"
         id="stop3" />
      <stop
         offset="100%"
         style="stop-color:#9269F4; stop-opacity:1"
         id="stop4" />
    </linearGradient>
    <linearGradient
       id="fitdance"
       x1="0%"
       x2="0%"
       y1="0%"
       y2="100%">
      <stop
         offset="0%"
         style="stop-color:#1AD6AB; stop-opacity:1"
         id="stop5" />
      <stop
         offset="100%"
         style="stop-color:#329DB6; stop-opacity:1"
         id="stop6" />
    </linearGradient>
    <linearGradient
       id="oomox"
       x1="0%"
       x2="0%"
       y1="0%"
       y2="100%">
      <stop
         offset="0%"
         style="stop-color:#303b3d; stop-opacity:1"
         id="stop7" />
      <stop
         offset="100%"
         style="stop-color:#bc985d; stop-opacity:1"
         id="stop8" />
    </linearGradient>
    <linearGradient
       id="rainblue"
       x1="0%"
       x2="0%"
       y1="0%"
       y2="100%">
      <stop
         offset="0%"
         style="stop-color:#00F260; stop-opacity:1"
         id="stop9" />
      <stop
         offset="100%"
         style="stop-color:#0575E6; stop-opacity:1"
         id="stop10" />
    </linearGradient>
    <linearGradient
       id="sunrise"
       x1="0%"
       x2="0%"
       y1="0%"
       y2="100%">
      <stop
         offset="0%"
         style="stop-color: #FF8501; stop-opacity:1"
         id="stop11" />
      <stop
         offset="100%"
         style="stop-color: #FFCB01; stop-opacity:1"
         id="stop12" />
    </linearGradient>
    <linearGradient
       id="telinkrin"
       x1="0%"
       x2="0%"
       y1="0%"
       y2="100%">
      <stop
         offset="0%"
         style="stop-color: #b2ced6; stop-opacity:1"
         id="stop13" />
      <stop
         offset="100%"
         style="stop-color: #6da5b7; stop-opacity:1"
         id="stop14" />
    </linearGradient>
    <linearGradient
       id="60spsycho"
       x1="0%"
       x2="0%"
       y1="0%"
       y2="100%">
      <stop
         offset="0%"
         style="stop-color: #df5940; stop-opacity:1"
         id="stop15" />
      <stop
         offset="25%"
         style="stop-color: #d8d15f; stop-opacity:1"
         id="stop16" />
      <stop
         offset="50%"
         style="stop-color: #e9882a; stop-opacity:1"
         id="stop17" />
      <stop
         offset="100%"
         style="stop-color: #279362; stop-opacity:1"
         id="stop18" />
    </linearGradient>
    <linearGradient
       id="90ssummer"
       x1="0%"
       x2="0%"
       y1="0%"
       y2="100%">
      <stop
         offset="0%"
         style="stop-color: #f618c7; stop-opacity:1"
         id="stop19" />
      <stop
         offset="20%"
         style="stop-color:#ab37c8;stop-opacity:1"
         id="stop20" />
      <stop
         offset="50%"
         style="stop-color:#8d5fd3;stop-opacity:1"
         id="stop21" />
      <stop
         offset="100%"
         style="stop-color: #0f83ae; stop-opacity:1"
         id="stop22" />
    </linearGradient>
    <linearGradient
       inkscape:collect="always"
       xlink:href="#90ssummer"
       id="linearGradient24"
       x1="0"
       y1="256"
       x2="511.99799"
       y2="256"
       gradientUnits="userSpaceOnUse" />
    <linearGradient
       inkscape:collect="always"
       xlink:href="#90ssummer"
       id="linearGradient25"
       gradientUnits="userSpaceOnUse"
       x1="0"
       y1="256"
       x2="511.99799"
       y2="256"
       gradientTransform="matrix(1.4193488,0,0,1.4102538,-109.00594,-110.4946)" />
    <linearGradient
       inkscape:collect="always"
       xlink:href="#90ssummer"
       id="linearGradient26"
       gradientUnits="userSpaceOnUse"
       x1="0"
       y1="256"
       x2="511.99799"
       y2="256" />
    <linearGradient
       inkscape:collect="always"
       xlink:href="#90ssummer"
       id="linearGradient27"
       gradientUnits="userSpaceOnUse"
       x1="0"
       y1="256"
       x2="511.99799"
       y2="256" />
    <linearGradient
       inkscape:collect="always"
       xlink:href="#90ssummer"
       id="linearGradient28"
       gradientUnits="userSpaceOnUse"
       x1="0"
       y1="256"
       x2="511.99799"
       y2="256" />
  </defs>
  <g
     id="g4"
     transform="matrix(0.03027356,0,0,0.0304688,0.24999891,0.1999872)"
     style="fill:url(#linearGradient24);fill-opacity:1">&#10;	<g
   id="g3"
   style="fill:url(#linearGradient28);fill-opacity:1">&#10;		<g
   id="g2"
   style="fill:url(#linearGradient27);fill-opacity:1">&#10;			<path
   d="m 254.34735,190.35908 c -50.17253,0 -90.8383,40.40519 -90.8383,90.25621 0,49.85111 40.66577,90.25631 90.8383,90.25631 50.1726,0 90.83838,-40.4052 90.83838,-90.25631 0,-49.85102 -40.66578,-90.25621 -90.83838,-90.25621 z"
   id="path1"
   style="fill:url(#linearGradient25);fill-opacity:1;stroke-width:1.41478" />
&#10;			<path
   d="M 458.667,106.667 H 382.87 c -5.227,-36.096 -36.032,-64 -73.536,-64 H 202.667 c -37.504,0 -68.352,27.904 -73.579,64 H 85.333 v -32 C 85.333,68.779 80.555,64 74.667,64 H 53.333 c -5.888,0 -10.667,4.779 -10.667,10.667 v 33.088 C 18.347,112.704 0,134.251 0,160 v 213.333 c 0,29.397 23.936,53.333 53.333,53.333 h 82.261 c 32.96,26.624 74.837,42.667 120.405,42.667 45.568,0 87.445,-16.043 120.405,-42.667 h 82.261 c 29.397,0 53.333,-23.936 53.333,-53.333 V 160 C 512,130.603 488.064,106.667 458.667,106.667 Z m -33.003,188.821 c -0.171,1.685 -0.533,3.328 -0.768,4.992 -0.576,4.288 -1.216,8.555 -2.112,12.736 -0.427,1.984 -1.024,3.925 -1.515,5.888 -0.96,3.776 -1.941,7.531 -3.136,11.221 -0.704,2.155 -1.536,4.245 -2.325,6.379 -1.259,3.371 -2.539,6.699 -4.011,9.984 -1.003,2.24 -2.091,4.416 -3.179,6.613 -1.515,3.029 -3.093,6.016 -4.779,8.96 -1.28,2.219 -2.603,4.395 -3.968,6.549 -1.771,2.795 -3.648,5.525 -5.589,8.213 -1.493,2.069 -3.008,4.139 -4.587,6.144 -2.155,2.709 -4.437,5.333 -6.763,7.915 -1.579,1.749 -3.115,3.563 -4.757,5.248 -2.901,2.965 -5.973,5.781 -9.088,8.555 C 338.88,431.616 299.371,448 256,448 c -43.371,0 -82.88,-16.384 -113.024,-43.136 -3.115,-2.773 -6.208,-5.589 -9.088,-8.555 -1.643,-1.685 -3.179,-3.477 -4.757,-5.248 -2.325,-2.581 -4.608,-5.205 -6.763,-7.915 -1.6,-2.005 -3.093,-4.075 -4.587,-6.144 -1.941,-2.688 -3.819,-5.419 -5.589,-8.213 -1.365,-2.155 -2.709,-4.331 -3.968,-6.549 -1.685,-2.944 -3.264,-5.931 -4.779,-8.96 -1.088,-2.176 -2.176,-4.373 -3.179,-6.613 -1.472,-3.285 -2.752,-6.613 -4.011,-9.984 -0.789,-2.112 -1.621,-4.224 -2.325,-6.379 -1.216,-3.691 -2.197,-7.445 -3.136,-11.221 -0.491,-1.963 -1.088,-3.904 -1.515,-5.888 -0.896,-4.203 -1.536,-8.469 -2.112,-12.736 -0.235,-1.685 -0.576,-3.307 -0.768,-4.992 -0.704,-5.973 -1.067,-12.032 -1.067,-18.133 0,-7.104 0.576,-14.123 1.451,-21.056 0.256,-1.984 0.597,-3.925 0.896,-5.888 0.832,-5.184 1.899,-10.304 3.179,-15.339 0.469,-1.856 0.896,-3.755 1.451,-5.589 1.877,-6.443 4.075,-12.779 6.677,-18.923 0.555,-1.28 1.237,-2.496 1.813,-3.776 2.197,-4.821 4.608,-9.515 7.232,-14.08 1.28,-2.219 2.624,-4.395 3.989,-6.549 2.368,-3.733 4.928,-7.36 7.595,-10.923 1.429,-1.92 2.773,-3.883 4.288,-5.739 3.925,-4.8 8.149,-9.387 12.608,-13.76 1.728,-1.707 3.584,-3.285 5.397,-4.907 3.435,-3.093 6.976,-6.059 10.667,-8.896 1.835,-1.408 3.648,-2.816 5.525,-4.139 5.483,-3.84 11.157,-7.509 17.173,-10.731 0.917,-0.491 1.899,-0.875 2.816,-1.365 5.035,-2.581 10.155,-4.949 15.403,-6.997 1.045,-0.405 2.091,-0.768 3.136,-1.152 37.952,-13.867 80.789,-13.867 118.741,0 1.045,0.384 2.112,0.747 3.136,1.152 5.248,2.048 10.389,4.416 15.403,6.997 0.939,0.469 1.899,0.875 2.816,1.365 5.995,3.221 11.669,6.891 17.173,10.731 1.877,1.323 3.712,2.731 5.525,4.139 3.691,2.816 7.232,5.803 10.667,8.896 1.813,1.621 3.669,3.2 5.397,4.907 4.459,4.373 8.683,8.96 12.608,13.76 1.515,1.856 2.859,3.819 4.288,5.739 2.667,3.541 5.205,7.168 7.595,10.923 1.365,2.155 2.709,4.331 3.989,6.549 2.624,4.587 5.035,9.28 7.232,14.08 0.576,1.28 1.259,2.475 1.813,3.776 2.603,6.144 4.8,12.48 6.677,18.923 0.533,1.835 0.96,3.712 1.451,5.589 1.301,5.056 2.347,10.155 3.179,15.339 0.32,1.963 0.661,3.904 0.896,5.888 0.875,6.933 1.451,13.952 1.451,21.056 0.002,6.101 -0.361,12.159 -1.001,18.154 z"
   id="path2"
   style="fill:url(#linearGradient26);fill-opacity:1" />
&#10;		</g>
&#10;	</g>
&#10;</g>
</svg>
