<?xml version="1.0" encoding="UTF-8" standalone="no"?>
<svg
   width="16"
   height="16"
   version="1.1"
   id="svg1"
   sodipodi:docname="krdc.svg"
   inkscape:version="1.3 (0e150ed6c4, 2023-07-21)"
   xmlns:inkscape="http://www.inkscape.org/namespaces/inkscape"
   xmlns:sodipodi="http://sodipodi.sourceforge.net/DTD/sodipodi-0.dtd"
   xmlns:xlink="http://www.w3.org/1999/xlink"
   xmlns="http://www.w3.org/2000/svg"
   xmlns:svg="http://www.w3.org/2000/svg">
  <defs
     id="defs1">
    <linearGradient
       id="linearGradient4"
       x1="0"
       x2="0"
       y1="0"
       y2="1">
      <stop
         offset="0"
         style="stop-color:#4bc0c8;stop-opacity:1;"
         id="stop1" />
      <stop
         offset="0.52062726"
         style="stop-color:#c779d0;stop-opacity:1;"
         id="stop4" />
      <stop
         offset="100%"
         style="stop-color:#ffe680;stop-opacity:1"
         id="stop2" />
    </linearGradient>
    <linearGradient
       inkscape:collect="always"
       xlink:href="#linearGradient4"
       id="linearGradient26"
       x1="15.5"
       y1="15"
       x2="0.49999961"
       y2="1.0000001"
       gradientUnits="userSpaceOnUse"
       gradientTransform="matrix(0.86666667,0,0,0.85714286,1.066667,1.142857)" />
    <linearGradient
       id="aurora"
       x1="0"
       x2="0"
       y1="0"
       y2="1">
      <stop
         offset="0%"
         style="stop-color:#09D4DF; stop-opacity:1"
         id="stop3-6" />
      <stop
         offset="100%"
         style="stop-color:#9269F4; stop-opacity:1"
         id="stop4-9" />
    </linearGradient>
    <linearGradient
       id="oomox"
       x1="0"
       x2="0"
       y1="0"
       y2="1">
      <stop
         offset="0%"
         style="stop-color:#303b3d; stop-opacity:1"
         id="stop7" />
      <stop
         offset="100%"
         style="stop-color:#bc985d; stop-opacity:1"
         id="stop8" />
    </linearGradient>
    <linearGradient
       inkscape:collect="always"
       xlink:href="#oomox"
       id="linearGradient3"
       x1="1008.6049"
       y1="-282.08596"
       x2="1008.6049"
       y2="-268.24778"
       gradientTransform="scale(1.0644753,0.93942996)"
       gradientUnits="userSpaceOnUse" />
    <linearGradient
       inkscape:collect="always"
       xlink:href="#linearGradient4"
       id="linearGradient2"
       x1="1073.635"
       y1="-258.5"
       x2="1088.3654"
       y2="-258.5"
       gradientUnits="userSpaceOnUse" />
  </defs>
  <sodipodi:namedview
     id="namedview1"
     pagecolor="#ffffff"
     bordercolor="#000000"
     borderopacity="0.25"
     inkscape:showpageshadow="2"
     inkscape:pageopacity="0.0"
     inkscape:pagecheckerboard="0"
     inkscape:deskcolor="#d1d1d1"
     inkscape:zoom="23.96875"
     inkscape:cx="-2.3363755"
     inkscape:cy="7.7809648"
     inkscape:window-width="1920"
     inkscape:window-height="994"
     inkscape:window-x="0"
     inkscape:window-y="0"
     inkscape:window-maximized="1"
     inkscape:current-layer="svg1" />
  <path
     class="ColorScheme-Text"
     d="M 2.892856,2 C 2.129571,2 1.5,2.678 1.5,3.5 v 9 c 0,0.822994 0.629571,1.5 1.392856,1.5 H 13.107141 C 13.870429,14 14.5,13.322994 14.5,12.5 v -9 C 14.5,2.678 13.870429,2 13.107141,2 Z m 0,0.999999 h 3.249999 0.928571 v 0 h 3.528573 v 0 0 0 h 2.507141 c 0.265565,0 0.464277,0.215001 0.464277,0.500001 v 9 c 0,0.285994 0.05258,-0.5 0.05258,-0.5 H 2 c 0,0 0.422118,0.778974 0.42857,0.5 v -9 c 0,-0.285 0.198716,-0.500001 0.464286,-0.500001 z m 4.17857,0 H 8.92857 v 0 0 z"
     font-family="sans-serif"
     font-weight="400"
     overflow="visible"
     id="path22"
     sodipodi:nodetypes="sssssssssscccccccssscccssccccc"
     style="color:#d5c289;fill:url(#linearGradient26);stroke-width:0.861892" />
  <g
     label="status"
     transform="matrix(0.53846154,0,0,0.53846154,-574.07703,146.73404)"
     style="color:#d5c289;fill:url(#linearGradient3)"
     class="ColorScheme-Text"
     id="g22">
    <path
       d="m 1081.0002,-265 c -2.6669,0 -5.3334,1.01507 -7.3652,3.04688 l 0.7363,0.73828 c 3.6655,-3.66553 9.5923,-3.66553 13.2578,0 l 0.7363,-0.73828 c -2.0318,-2.03181 -4.6982,-3.04688 -7.3652,-3.04688 z m 0,2.98242 c -1.9205,0 -3.8404,0.73108 -5.3027,2.19336 l 0.7363,0.73633 c 2.5265,-2.5265 6.6063,-2.5265 9.1328,0 l 0.7363,-0.73633 c -1.4623,-1.46228 -3.3822,-2.19336 -5.3027,-2.19336 z m 0,2.99805 c -1.1741,0 -2.3475,0.44512 -3.2402,1.33789 l 0.7363,0.73828 c 1.3875,-1.38747 3.6203,-1.38746 5.0078,0 l 0.7363,-0.73828 c -0.8927,-0.89277 -2.0661,-1.33789 -3.2402,-1.33789 z m 0,3.01953 a 2,1.9999999 0 0 0 -2,2 2,1.9999999 0 0 0 2,2 2,1.9999999 0 0 0 2,-2 2,1.9999999 0 0 0 -2,-2 z"
       id="path22-7"
       style="fill:url(#linearGradient2);fill-opacity:1" />
  </g>
</svg>
