<?xml version="1.0" encoding="UTF-8" standalone="no"?>
<svg
   style="isolation:isolate"
   width="16"
   height="16"
   viewBox="0 0 16 16"
   version="1.1"
   id="svg22"
   sodipodi:docname="kshisen.svg"
   inkscape:version="1.3 (0e150ed6c4, 2023-07-21)"
   xmlns:inkscape="http://www.inkscape.org/namespaces/inkscape"
   xmlns:sodipodi="http://sodipodi.sourceforge.net/DTD/sodipodi-0.dtd"
   xmlns:xlink="http://www.w3.org/1999/xlink"
   xmlns="http://www.w3.org/2000/svg"
   xmlns:svg="http://www.w3.org/2000/svg">
  <sodipodi:namedview
     id="namedview22"
     pagecolor="#ffffff"
     bordercolor="#000000"
     borderopacity="0.25"
     inkscape:showpageshadow="2"
     inkscape:pageopacity="0.0"
     inkscape:pagecheckerboard="0"
     inkscape:deskcolor="#d1d1d1"
     inkscape:zoom="23.96875"
     inkscape:cx="8.5945241"
     inkscape:cy="10.325945"
     inkscape:window-width="1920"
     inkscape:window-height="994"
     inkscape:window-x="0"
     inkscape:window-y="0"
     inkscape:window-maximized="1"
     inkscape:current-layer="svg22" />
  <defs
     id="defs22">
    <linearGradient
       id="linearGradient22"
       inkscape:collect="always">
      <stop
         style="stop-color:#ffb380;stop-opacity:1"
         offset="0"
         id="stop23" />
      <stop
         style="stop-color:#ff5555;stop-opacity:1"
         offset="1"
         id="stop24" />
    </linearGradient>
    <style
       id="current-color-scheme"
       type="text/css">&#10;   .ColorScheme-Text { color:#d5c289; } .ColorScheme-Highlight { color:#5294e2; }&#10;  </style>
    <linearGradient
       id="arrongin"
       x1="0%"
       x2="0%"
       y1="0%"
       y2="100%">
      <stop
         offset="0%"
         style="stop-color:#dd9b44; stop-opacity:1"
         id="stop1" />
      <stop
         offset="100%"
         style="stop-color:#ad6c16; stop-opacity:1"
         id="stop2" />
    </linearGradient>
    <linearGradient
       id="aurora"
       x1="0%"
       x2="0%"
       y1="0%"
       y2="100%">
      <stop
         offset="0%"
         style="stop-color:#09D4DF; stop-opacity:1"
         id="stop3" />
      <stop
         offset="100%"
         style="stop-color:#9269F4; stop-opacity:1"
         id="stop4" />
    </linearGradient>
    <linearGradient
       id="fitdance"
       x1="0%"
       x2="0%"
       y1="0%"
       y2="100%">
      <stop
         offset="0%"
         style="stop-color:#1AD6AB; stop-opacity:1"
         id="stop5" />
      <stop
         offset="100%"
         style="stop-color:#329DB6; stop-opacity:1"
         id="stop6" />
    </linearGradient>
    <linearGradient
       id="oomox"
       x1="5.6569029"
       x2="5.6569029"
       y1="0"
       y2="11.313611"
       gradientTransform="matrix(0.70711248,0,0,1.1490587,-6.7212582e-5,1.5)"
       gradientUnits="userSpaceOnUse">
      <stop
         offset="0%"
         style="stop-color:#303b3d; stop-opacity:1"
         id="stop7" />
      <stop
         offset="100%"
         style="stop-color:#bc985d; stop-opacity:1"
         id="stop8" />
    </linearGradient>
    <linearGradient
       id="rainblue"
       x1="0%"
       x2="0%"
       y1="0%"
       y2="100%">
      <stop
         offset="0%"
         style="stop-color:#00F260; stop-opacity:1"
         id="stop9" />
      <stop
         offset="100%"
         style="stop-color:#0575E6; stop-opacity:1"
         id="stop10" />
    </linearGradient>
    <linearGradient
       id="sunrise"
       x1="0%"
       x2="0%"
       y1="0%"
       y2="100%">
      <stop
         offset="0%"
         style="stop-color: #FF8501; stop-opacity:1"
         id="stop11" />
      <stop
         offset="100%"
         style="stop-color: #FFCB01; stop-opacity:1"
         id="stop12" />
    </linearGradient>
    <linearGradient
       id="telinkrin"
       x1="0%"
       x2="0%"
       y1="0%"
       y2="100%">
      <stop
         offset="0%"
         style="stop-color: #b2ced6; stop-opacity:1"
         id="stop13" />
      <stop
         offset="100%"
         style="stop-color: #6da5b7; stop-opacity:1"
         id="stop14" />
    </linearGradient>
    <linearGradient
       id="60spsycho"
       x1="0%"
       x2="0%"
       y1="0%"
       y2="100%">
      <stop
         offset="0%"
         style="stop-color: #df5940; stop-opacity:1"
         id="stop15" />
      <stop
         offset="25%"
         style="stop-color: #d8d15f; stop-opacity:1"
         id="stop16" />
      <stop
         offset="50%"
         style="stop-color: #e9882a; stop-opacity:1"
         id="stop17" />
      <stop
         offset="100%"
         style="stop-color: #279362; stop-opacity:1"
         id="stop18" />
    </linearGradient>
    <linearGradient
       id="90ssummer"
       x1="0%"
       x2="0%"
       y1="0%"
       y2="100%">
      <stop
         offset="0%"
         style="stop-color: #f618c7; stop-opacity:1"
         id="stop19" />
      <stop
         offset="20%"
         style="stop-color: #94ffab; stop-opacity:1"
         id="stop20" />
      <stop
         offset="50%"
         style="stop-color: #fbfd54; stop-opacity:1"
         id="stop21" />
      <stop
         offset="100%"
         style="stop-color: #0f83ae; stop-opacity:1"
         id="stop22" />
    </linearGradient>
    <linearGradient
       inkscape:collect="always"
       xlink:href="#linearGradient22"
       id="linearGradient24"
       x1="4.0000005"
       y1="11.003911"
       x2="12"
       y2="1.5"
       gradientUnits="userSpaceOnUse" />
  </defs>
  <path
     class="ColorScheme-Text"
     d="m 6.0060335,1.6064375 c -0.1190029,0.085313 -0.1490021,0.2136875 -0.1490021,0.364 0,0.277875 0.1190043,0.6199375 0.1790027,0.7483125 0,0 0.2350034,1.4373122 0.265004,1.6079372 C 6.032034,4.348625 5.7010289,4.36975 5.5220254,4.4128128 H 5.2830209 C 4.776013,4.4339368 4.2980052,4.4550628 4.0890014,4.605375 l -0.089001,0.063375 0.089,0.086124 C 4.239002,4.883249 4.2980034,5.2464364 4.3580048,5.6315614 4.5070071,6.422124 4.6860099,7.465374 5.5810249,7.8496864 L 5.76003,7.9138754 v -0.1495 c 0,0 0.029999,-0.06419 0.029999,-0.1495 0,-0.064188 -0.029999,-0.1714378 -0.05901,-0.3209378 0.2380038,0.02194 0.6000099,0.064191 0.7790135,0.064191 C 6.5400425,7.5295622 7.4610577,14.5 7.4610577,14.5 h 0.2980057 c 0,0 0.4380072,-6.8843122 0.4380072,-7.0988122 0.2080032,0 1.0240173,0.021938 1.2930217,0.043063 -0.060001,0.128375 -0.2990056,0.663 -0.2990056,0.663 L 9.6090945,7.829375 C 9.728096,7.765187 12.32414,6.0166872 11.966138,4.904375 11.847135,4.5411878 11.429124,4.2844378 10.743115,4.1560628 h -0.06001 c -0.388008,0 -1.4720247,0.021938 -2.3670401,0.064188 C 8.3460732,3.6645 8.3460732,3.424 8.3460732,3.2745 V 3.0819378 C 8.3460732,2.9755 8.3860732,2.826 8.5050751,2.71875 8.6240777,2.590375 8.77408,2.4839375 8.77408,2.3555625 8.77408,2.3125 8.74408,2.2694375 8.714079,2.2271875 8.5350755,2.034625 6.9310493,1.5430625 6.3640395,1.5 6.1850364,1.521125 6.0660346,1.5430625 6.0060335,1.60725 Z M 6.1820366,5.053875 h 0.1490021 c 0,0.1925628 0.089004,1.599 0.1190041,1.7915628 C 6.2110367,6.8235 5.7900301,6.78125 5.6110273,6.78125 5.5220254,6.5025628 5.4920249,6.2035622 5.4620245,5.9045622 5.4320238,5.6478122 5.4020234,5.33175 5.3430222,5.0969378 c 0.2680051,0 0.8390144,-0.043064 0.8390144,-0.043063 z m 2.0740345,0.7223122 c 0,0 0.030001,-0.5728122 0.030001,-0.7434372 0.3880065,0.04225 0.7860133,0.06419 1.2630214,0.06419 h 0.5380105 c 0,0.08531 -0.02998,0.1925621 -0.02998,0.1925621 -0.06,0.4704379 -0.1500039,1.0855 -0.4180088,1.64125 -0.1790027,0 -1.1740195,-0.043062 -1.4130234,-0.064187 0,-0.1495 0.030001,-1.090375 0.030001,-1.090375 z"
     id="path22"
     style="fill:url(#linearGradient24);fill-opacity:1" />
</svg>
