<?xml version="1.0" encoding="UTF-8" standalone="no"?>
<svg
   width="16"
   height="16"
   version="1.1"
   id="svg12"
   sodipodi:docname="kteatime.svg"
   inkscape:version="1.3 (0e150ed6c4, 2023-07-21)"
   xmlns:inkscape="http://www.inkscape.org/namespaces/inkscape"
   xmlns:sodipodi="http://sodipodi.sourceforge.net/DTD/sodipodi-0.dtd"
   xmlns:xlink="http://www.w3.org/1999/xlink"
   xmlns="http://www.w3.org/2000/svg"
   xmlns:svg="http://www.w3.org/2000/svg"
   xmlns:rdf="http://www.w3.org/1999/02/22-rdf-syntax-ns#"
   xmlns:cc="http://creativecommons.org/ns#"
   xmlns:dc="http://purl.org/dc/elements/1.1/">
  <metadata
     id="metadata18">
    <rdf:RDF>
      <cc:Work
         rdf:about="">
        <dc:format>image/svg+xml</dc:format>
        <dc:type
           rdf:resource="http://purl.org/dc/dcmitype/StillImage" />
      </cc:Work>
    </rdf:RDF>
  </metadata>
  <defs
     id="defs16">
    <linearGradient
       id="linearGradient7"
       inkscape:collect="always">
      <stop
         style="stop-color:#ffe680;stop-opacity:1;"
         offset="0"
         id="stop7" />
      <stop
         style="stop-color:#c779d0;stop-opacity:1;"
         offset="0.52004939"
         id="stop9" />
      <stop
         style="stop-color:#4bc0c8;stop-opacity:1;"
         offset="1"
         id="stop8" />
    </linearGradient>
    <linearGradient
       inkscape:collect="always"
       xlink:href="#linearGradient7"
       id="linearGradient8"
       x1="4.074615"
       y1="3.0486693"
       x2="14.324615"
       y2="12.006037"
       gradientUnits="userSpaceOnUse" />
  </defs>
  <sodipodi:namedview
     pagecolor="#ffffff"
     bordercolor="#000000"
     borderopacity="1"
     objecttolerance="10"
     gridtolerance="10"
     guidetolerance="10"
     inkscape:pageopacity="0"
     inkscape:pageshadow="2"
     inkscape:window-width="1920"
     inkscape:window-height="994"
     id="namedview14"
     showgrid="true"
     inkscape:zoom="27.753942"
     inkscape:cx="11.637986"
     inkscape:cy="7.6926009"
     inkscape:window-x="0"
     inkscape:window-y="0"
     inkscape:window-maximized="1"
     inkscape:current-layer="svg12"
     inkscape:document-rotation="0"
     inkscape:lockguides="false"
     inkscape:pagecheckerboard="false"
     inkscape:showpageshadow="false"
     inkscape:deskcolor="#ffffff">
    <inkscape:grid
       id="grid1"
       units="px"
       originx="0"
       originy="0"
       spacingx="1"
       spacingy="1"
       empcolor="#0099e5"
       empopacity="0.30196078"
       color="#0099e5"
       opacity="0.14901961"
       empspacing="5"
       dotted="false"
       gridanglex="30"
       gridanglez="30"
       visible="true" />
  </sodipodi:namedview>
  <g
     id="g6"
     transform="translate(-1.0746148,0.95133076)"
     style="fill:url(#linearGradient8)">
    <path
       d="m 7.303286,3.9176266 c 0,0 -0.73638,-0.193142 -0.216611,-0.7081921 C 7.606542,2.694387 8.049622,2.1206537 8.039361,1.7501317 8.029191,1.3427919 7.874282,1.0455002 7.570717,0.787874 7.267969,0.5304516 6.805381,0.5489621 6.805381,0.5489621 c 0,0 0.71421,0.02146 0.801267,0.6220453 0.08644,0.6009912 -0.303256,0.7724706 -0.628181,1.0299949 -0.324609,0.2574234 -0.69316,0.6435063 -0.606304,1.0515578 0.07166,0.3390923 0.237962,0.4291051 0.498309,0.5791225 0.259936,0.1501204 0.432814,0.085944 0.432814,0.085944 z"
       id="path2"
       style="fill:url(#linearGradient8);fill-opacity:1;stroke-width:0.102184" />
    <path
       d="m 7.830357,4.7260369 c 0,0 -0.181299,-0.2133847 0.113951,-0.5623426 C 8.239459,3.8143286 8.483377,3.4330248 8.457097,3.202657 8.427537,2.9494041 8.305571,2.7837229 8.111132,2.6286172 c 0,0 0.06786,0.063466 0.09629,0.3023783 C 8.235742,3.1672627 8.008677,3.3632528 7.820399,3.5411397 7.632942,3.7194338 7.424849,3.9799086 7.501638,4.2293978 7.565798,4.436882 7.830356,4.7260369 7.830357,4.7260369 Z"
       id="path4-3"
       style="fill:url(#linearGradient8);fill-opacity:1;stroke-width:0.102184" />
    <path
       id="g987"
       d="m 12.957528,6.2686694 h -0.734832 c 0,-0.4780339 -0.461868,-1.0226325 -0.995555,-1.0226325 H 4.977203 c -0.635553,0 -1.152588,0.4071449 -1.152588,1.0226325 V 8.466711 c 0,1.591637 1.006416,2.959787 2.435304,3.539324 v 0 0 0 l 3.683708,2e-6 v 0 0 0 c 0.862599,-0.349713 1.571383,-0.986503 1.997732,-1.786747 h 0.977769 c 0.774971,0 1.406647,-0.610607 1.405485,-1.3611085 l -0.0024,-1.5495121 c -0.0012,-0.7963166 -0.524902,-1.04 -1.36471,-1.04 z M 8.102171,10.515237 c 0,0 -2.028936,-1.0642986 -2.028936,-2.4198419 C 6.073235,7.4904125 6.579635,7 7.204343,7 7.570195,7 7.895414,7.1682444 8.102171,7.4291638 8.308931,7.1682444 8.634146,7 9,7 c 0.624705,0 1.13111,0.4904125 1.13111,1.0953951 0,1.3678527 -2.028939,2.4198419 -2.028939,2.4198419 z m 5.695165,-1.6465676 c -0.03622,0.4867034 -0.52488,0.7842885 -0.938228,0.7826 l -0.636412,-0.0026 V 8.4105525 6.7886694 h 0.720659 c 0.580382,0 0.853981,0.1972563 0.853981,0.52 z"
       sodipodi:nodetypes="scsssscccccccccssssccscssccscccssc"
       style="fill:url(#linearGradient8);fill-opacity:1;stroke-width:0.0300677" />
    <path
       d="m 9.780554,4.7260369 c 0,0 -0.73638,-0.1931421 -0.21661,-0.7081927 C 10.083811,3.5027969 10.526892,2.9290637 10.51663,2.5585416 10.50646,2.1512018 10.351551,1.85391 10.047986,1.5962839 9.745238,1.3388615 9.282651,1.3573719 9.282651,1.3573719 c 0,0 0.71421,0.021461 0.801266,0.6220455 0.08644,0.6009911 -0.303257,0.7724705 -0.628181,1.0299948 -0.324609,0.2574235 -0.69316,0.6435063 -0.606305,1.0515576 0.07166,0.3390926 0.237963,0.4291051 0.49831,0.579123 0.259937,0.1501199 0.432813,0.085944 0.432813,0.085944 z"
       id="path2-3"
       style="fill:url(#linearGradient8);fill-opacity:1;stroke-width:0.102184" />
    <path
       style="fill:url(#linearGradient8);fill-opacity:1;stroke:none;stroke-width:0.467279"
       d="m 4.244519,12.50867 c -0.231907,0 -0.419904,0.232811 -0.419904,0.519999 0,0.287189 0.187997,0.52 0.419904,0.52 h 7.558273 c 0.231906,0 0.419904,-0.232811 0.419904,-0.52 0,-0.287188 -0.187998,-0.519999 -0.419904,-0.519999 z"
       id="rect3769" />
  </g>
</svg>
