<?xml version="1.0" encoding="UTF-8" standalone="no"?>
<svg
   width="16"
   version="1.1"
   height="16"
   viewBox="0 0 16 16"
   id="svg80"
   sodipodi:docname="kronometer.svg"
   inkscape:version="1.3 (0e150ed6c4, 2023-07-21)"
   xmlns:inkscape="http://www.inkscape.org/namespaces/inkscape"
   xmlns:sodipodi="http://sodipodi.sourceforge.net/DTD/sodipodi-0.dtd"
   xmlns:xlink="http://www.w3.org/1999/xlink"
   xmlns="http://www.w3.org/2000/svg"
   xmlns:svg="http://www.w3.org/2000/svg">
  <sodipodi:namedview
     id="namedview82"
     pagecolor="#ffffff"
     bordercolor="#666666"
     borderopacity="1.0"
     inkscape:showpageshadow="2"
     inkscape:pageopacity="0.0"
     inkscape:pagecheckerboard="0"
     inkscape:deskcolor="#d1d1d1"
     showgrid="false"
     inkscape:zoom="19.666667"
     inkscape:cx="1.6271186"
     inkscape:cy="12.381356"
     inkscape:window-width="1920"
     inkscape:window-height="994"
     inkscape:window-x="0"
     inkscape:window-y="0"
     inkscape:window-maximized="1"
     inkscape:current-layer="svg80"
     showguides="false" />
  <defs
     id="defs28">
    <linearGradient
       id="linearGradient5032">
      <stop
         id="stop2" />
      <stop
         offset="1"
         style="stop-opacity:0"
         id="stop4" />
    </linearGradient>
    <linearGradient
       id="linearGradient4918">
      <stop
         style="stop-color:#3daefd"
         id="stop7" />
      <stop
         offset="1"
         style="stop-color:#24a058"
         id="stop9" />
    </linearGradient>
    <linearGradient
       id="linearGradient4909">
      <stop
         style="stop-color:#2c3e50"
         id="stop12" />
      <stop
         offset="1"
         style="stop-color:#0d352d"
         id="stop14" />
    </linearGradient>
    <linearGradient
       id="linearGradient4303">
      <stop
         style="stop-color:#c6cdd1"
         id="stop17" />
      <stop
         offset="1"
         style="stop-color:#e0e5e7"
         id="stop19" />
    </linearGradient>
    <linearGradient
       xlink:href="#linearGradient4303"
       id="linearGradient4174-5"
       y1="543.79797"
       y2="503.798"
       x2="0"
       gradientUnits="userSpaceOnUse"
       gradientTransform="translate(-817.14285)" />
    <linearGradient
       xlink:href="#linearGradient4909"
       id="linearGradient4915"
       y1="509.548"
       x1="-398.634"
       y2="539.17297"
       x2="-416.57101"
       gradientUnits="userSpaceOnUse" />
    <linearGradient
       xlink:href="#linearGradient4918"
       id="linearGradient4924"
       y1="12.42"
       x1="9.2679996"
       y2="38.819"
       x2="35.667"
       gradientUnits="userSpaceOnUse" />
    <linearGradient
       xlink:href="#linearGradient4303"
       id="linearGradient4982"
       y1="500.798"
       y2="503.798"
       x2="0"
       gradientUnits="userSpaceOnUse" />
    <linearGradient
       xlink:href="#linearGradient4303"
       id="linearGradient4990"
       x1="411.57101"
       x2="405.57101"
       gradientUnits="userSpaceOnUse" />
    <linearGradient
       xlink:href="#linearGradient5032"
       id="linearGradient5038"
       y1="10"
       x1="10"
       y2="22"
       x2="22"
       gradientUnits="userSpaceOnUse" />
    <linearGradient
       id="linearGradient1902"
       x1="32"
       x2="32"
       y1="2.0005"
       y2="61.905998"
       gradientUnits="userSpaceOnUse"
       gradientTransform="matrix(0.7,0,0,0.7,-57.247299,37.125426)">
      <stop
         stop-color="#f5f5f5"
         offset="0"
         id="stop311" />
      <stop
         stop-color="#dcdcdc"
         offset="1"
         id="stop313" />
    </linearGradient>
    <linearGradient
       id="c"
       gradientUnits="userSpaceOnUse"
       x1="4"
       x2="4"
       y1="3"
       y2="45"
       gradientTransform="translate(-63.371835,-19.854889)">
      <stop
         offset="0"
         stop-color="#21c9fb"
         id="stop12-3" />
      <stop
         offset="1"
         stop-color="#197cf1"
         id="stop14-6" />
    </linearGradient>
    <linearGradient
       xlink:href="#linearGradient4303"
       id="linearGradient4982-7"
       y1="500.798"
       y2="503.798"
       x2="0"
       gradientUnits="userSpaceOnUse"
       gradientTransform="matrix(0.4119693,0,0,0.4119693,-168.16239,-201.39951)" />
    <linearGradient
       xlink:href="#linearGradient4303"
       id="linearGradient4990-5"
       x1="411.57101"
       x2="405.57101"
       gradientUnits="userSpaceOnUse"
       gradientTransform="matrix(0.4119693,0,0,0.4119693,-157.00879,-213.70661)" />
    <linearGradient
       xlink:href="#linearGradient4303"
       id="linearGradient4174-5-6"
       y1="543.79797"
       y2="503.798"
       x2="0"
       gradientUnits="userSpaceOnUse"
       gradientTransform="matrix(1.0499627,0,0,1.05,-456.9855,-521.98999)" />
    <linearGradient
       xlink:href="#linearGradient4909"
       id="linearGradient4915-2"
       y1="509.548"
       x1="-398.634"
       y2="539.17297"
       x2="-416.57101"
       gradientUnits="userSpaceOnUse"
       gradientTransform="matrix(1.0499627,0,0,1.05,509.71067,-519.1045)" />
    <linearGradient
       xlink:href="#linearGradient4918"
       id="linearGradient4924-2"
       y1="12.42"
       x1="9.2679996"
       y2="38.819"
       x2="35.667"
       gradientUnits="userSpaceOnUse"
       gradientTransform="matrix(0.41179548,0,0,0.4121429,-1.8894556,-1.8922469)" />
    <linearGradient
       xlink:href="#linearGradient5032"
       id="linearGradient5038-9"
       y1="10"
       x1="10"
       y2="22"
       x2="22"
       gradientUnits="userSpaceOnUse"
       gradientTransform="matrix(1.0499627,0,0,1.05,-105.92501,5.6833956)" />
  </defs>
  <rect
     width="2.4718161"
     x="10.073612"
     y="-7.3924599"
     rx="0.41196907"
     height="0.82393813"
     style="fill:url(#linearGradient4990-5);stroke-width:0.82394;stroke-linecap:round;stroke-linejoin:round"
     id="rect38-7"
     transform="matrix(0.7068086,0.70740484,-0.7068086,0.70740484,0,0)" />
  <path
     style="fill:url(#linearGradient4924-2);stroke-width:1.15347;stroke-opacity:0.550265"
     d="m 7.9936304,1.4048962 c -0.2091935,0 -0.4143638,0.015716 -0.6176936,0.03704 v 1.2428687 c 0.2029661,-0.024931 0.4077147,-0.043485 0.6176936,-0.043485 0.2093989,0 0.4146951,0.014742 0.6176933,0.037826 V 1.4354862 C 8.4078115,1.4166899 8.202204,1.4048943 7.9936304,1.4048962 Z M 9.0930927,1.5030892 8.771376,2.703296 c 0.4159155,0.06025 0.8164497,0.1659111 1.1951783,0.3155463 L 10.28746,1.8210562 C 9.9047283,1.6794016 9.5060375,1.5721233 9.0930927,1.5030892 Z m 1.6447683,0.5023025 -0.619303,1.0730204 c 0.382521,0.1648971 0.738317,0.3768949 1.068093,0.6222406 L 11.808366,2.6219988 C 11.473373,2.3839803 11.115626,2.178162 10.737861,2.0053917 Z M 7.1097181,2.3048407 C 6.7010269,2.3681637 6.3003299,2.4753031 5.9145449,2.6244126 L 6.0207108,3.019652 C 6.4058131,2.8683028 6.8071521,2.7621418 7.2166851,2.7033016 Z M 5.6644119,2.7258396 C 5.2872375,2.8935884 4.9291532,3.1013866 4.5963171,3.3456643 L 4.8030196,3.7038736 C 5.1345977,3.4574637 5.4935529,3.2502825 5.872721,3.0864648 Z m 6.5348441,0.1899707 -0.8815,0.8822453 c 0.324089,0.2568301 0.61684,0.5498311 0.87345,0.8741929 L 13.072712,3.790005 C 12.809524,3.4718566 12.517129,3.1792207 12.199256,2.9158103 Z M 4.3807669,3.5090711 C 4.0584575,3.7674321 3.7648168,4.0597019 3.5048979,4.3808504 L 3.8008751,4.6770791 C 4.0558568,4.3517419 4.3476111,4.0570417 4.6703121,3.7988599 Z m 8.9855041,0.672148 -1.077745,0.6222394 c 0.245001,0.3298675 0.457001,0.6855961 0.62172,1.0681911 L 13.982367,5.2526292 C 13.809749,4.8745534 13.604093,4.5164947 13.366271,4.1812191 Z M 3.3440397,4.5989967 C 3.1007056,4.9327327 2.8938901,5.2916585 2.7271512,5.6696016 L 3.0810365,5.8748679 C 3.2463419,5.4957102 3.4549742,5.1369886 3.7027513,4.8058729 Z M 14.166545,5.7034107 12.969762,6.024592 c 0.149513,0.3790408 0.255074,0.7799157 0.315274,1.1961812 L 14.484232,6.8987866 C 14.415255,6.4854924 14.308085,6.0864676 14.166545,5.7034107 Z M 2.6169632,5.9175323 C 2.4691275,6.3035083 2.3631537,6.7042682 2.3008771,7.1129065 L 2.7038264,7.2207642 C 2.763268,6.8113673 2.8698671,6.4102362 3.0215191,6.0253892 Z m 3.5235864,0.4330714 c -0.1140705,0 -0.205898,0.091926 -0.205898,0.2060716 0,0.1141589 0.091821,0.2060714 0.205898,0.2060714 h 0.4117952 c 0.1140659,0 0.2058975,-0.091926 0.2058975,-0.2060714 0,-0.1141601 -0.091813,-0.2060716 -0.2058975,-0.2060716 z m 3.2943654,0 c -0.1140688,0 -0.2058979,0.091926 -0.2058979,0.2060716 0,0.1141589 0.091826,0.2060714 0.2058979,0.2060714 h 0.4117963 c 0.114064,0 0.2058957,-0.091926 0.2058957,-0.2060714 0,-0.1141601 -0.09183,-0.2060716 -0.2058957,-0.2060716 z m 2.058981,0 c -0.114126,0 -0.205903,0.091926 -0.205903,0.2060716 0,0.1141589 0.09189,0.2060714 0.205903,0.2060714 h 0.411791 c 0.114134,0 0.205895,-0.091926 0.205895,-0.2060714 0,-0.1141601 -0.09188,-0.2060716 -0.205895,-0.2060716 z m -6.5887336,0.412143 c -0.1140677,0 -0.2058969,0.091923 -0.2058969,0.2060731 v 0.4121413 c 0,0.1141617 0.091815,0.2060715 0.2058969,0.2060715 0.1140671,0 0.2058982,-0.091896 0.2058982,-0.2060715 V 6.9688198 c 0,-0.1141614 -0.09182,-0.2060731 -0.2058982,-0.2060731 z m 2.0589779,0 c -0.1140666,0 -0.205898,0.091923 -0.205898,0.2060731 v 0.4121413 c 0,0.1141617 0.091821,0.2060715 0.205898,0.2060715 0.1140646,0 0.2058975,-0.091896 0.2058975,-0.2060715 V 6.9688198 c 0,-0.1141614 -0.09182,-0.2060731 -0.2058975,-0.2060731 z m 1.0294901,0 A 0.41179552,0.41214289 0 0 0 7.5818335,7.1748903 0.41179552,0.41214289 0 0 0 7.9936304,7.5870326 0.41179552,0.41214289 0 0 0 8.4054264,7.1748903 0.41179552,0.41214289 0 0 0 7.9936304,6.7627467 Z m 2.2648786,0 c -0.1141,0 -0.205902,0.091923 -0.205902,0.2060731 v 0.4121413 c 0,0.1141617 0.09185,0.2060715 0.205902,0.2060715 0.11409,0 0.205891,-0.091896 0.205891,-0.2060715 V 6.9688198 c 0,-0.1141614 -0.09186,-0.2060731 -0.205891,-0.2060731 z m 2.058972,0 c -0.114134,0 -0.205899,0.091923 -0.205899,0.2060731 v 0.4121413 c 0,0.1141617 0.09186,0.2060715 0.205899,0.2060715 0.114137,0 0.205899,-0.091896 0.205899,-0.2060715 V 6.9688198 c 0,-0.1141614 -0.09187,-0.2060731 -0.205899,-0.2060731 z M 2.2687065,7.3809611 c -0.024469,0.205202 -0.037882,0.4115715 -0.040223,0.6182163 7.444e-4,0.2065549 0.01259,0.4129204 0.035391,0.6182156 h 0.419034 c -0.026108,-0.2050765 -0.04034,-0.4114969 -0.042635,-0.6182156 0.0012,-0.2066613 0.01428,-0.413078 0.039418,-0.6182163 z m 11.0404685,0 c 0.02324,0.2031701 0.03779,0.4086388 0.03779,0.6182163 0,0.2095769 -0.01451,0.4150419 -0.03779,0.6182156 h 1.242619 c 0.01869,-0.203685 0.03065,-0.4094637 0.03065,-0.6182156 0,-0.2087515 -0.01242,-0.4145323 -0.03065,-0.6182163 z M 6.1405496,7.5870326 c -0.1140705,0 -0.205898,0.091923 -0.205898,0.2060715 0,0.1141584 0.091821,0.2060733 0.205898,0.2060733 h 0.4117952 c 0.1140659,0 0.2058975,-0.091926 0.2058975,-0.2060733 0,-0.1141612 -0.091813,-0.2060715 -0.2058975,-0.2060715 z m 3.2943654,0 c -0.1140688,0 -0.2058979,0.091923 -0.2058979,0.2060715 0,0.1141584 0.091826,0.2060733 0.2058979,0.2060733 h 0.4117963 c 0.114064,0 0.2058957,-0.091926 0.2058957,-0.2060733 0,-0.1141612 -0.09183,-0.2060715 -0.2058957,-0.2060715 z M 4.9051624,7.9991774 c -0.1140677,0 -0.2058969,0.091905 -0.2058969,0.2060736 v 0.412142 c 0,0.114176 0.091815,0.2060692 0.2058969,0.2060692 0.1140671,0 0.2058982,-0.09195 0.2058982,-0.2060692 V 8.205251 c 0,-0.1141663 -0.09182,-0.2060736 -0.2058982,-0.2060736 z m 2.0589779,0 c -0.1140666,0 -0.205898,0.091905 -0.205898,0.2060736 v 0.412142 c 0,0.114176 0.091821,0.2060692 0.205898,0.2060692 0.1140646,0 0.2058975,-0.09195 0.2058975,-0.2060692 V 8.205251 c 0,-0.1141663 -0.091819,-0.2060736 -0.2058975,-0.2060736 z m 1.0294901,0 A 0.41179552,0.41214289 0 0 0 7.5818335,8.4113213 0.41179552,0.41214289 0 0 0 7.9936304,8.8234622 0.41179552,0.41214289 0 0 0 8.4054264,8.4113213 0.41179552,0.41214289 0 0 0 7.9936304,7.9991774 Z m 2.2648786,0 c -0.1141,0 -0.205902,0.091905 -0.205902,0.2060736 v 0.412142 c 0,0.114176 0.09185,0.2060692 0.205902,0.2060692 0.11409,0 0.205891,-0.09195 0.205891,-0.2060692 V 8.205251 c 0,-0.1141663 -0.09186,-0.2060736 -0.205891,-0.2060736 z m 2.058972,0 c -0.114134,0 -0.205899,0.091905 -0.205899,0.2060736 v 0.412142 c 0,0.114176 0.09186,0.2060692 0.205899,0.2060692 0.114137,0 0.205899,-0.09195 0.205899,-0.2060692 V 8.205251 c 0,-0.1141663 -0.09187,-0.2060736 -0.205899,-0.2060736 z M 2.7022175,8.7775763 2.3040948,8.8846017 c 0.063328,0.4087615 0.1703604,0.809517 0.319302,1.1953733 L 3.0183032,9.9737157 C 2.8671454,9.5885877 2.7610705,9.1871827 2.7022175,8.7775763 Z m 10.5828185,0 c -0.06019,0.4162732 -0.16576,0.8171424 -0.315274,1.1961814 l 1.196783,0.3211833 c 0.141503,-0.3830563 0.248721,-0.7820793 0.317687,-1.1953776 z m -7.1444864,0.04593 c -0.1140705,0 -0.205898,0.091971 -0.205898,0.2060744 0,0.1141963 0.091821,0.2060722 0.205898,0.2060722 h 0.4117952 c 0.1140659,0 0.2058975,-0.091969 0.2058975,-0.2060722 0,-0.1141941 -0.091813,-0.2060744 -0.2058975,-0.2060744 z m 3.2943654,0 c -0.1140688,0 -0.2058979,0.091971 -0.2058979,0.2060744 0,0.1141963 0.091826,0.2060722 0.2058979,0.2060722 h 0.4117963 c 0.114064,0 0.2058957,-0.091969 0.2058957,-0.2060722 0,-0.1141941 -0.09183,-0.2060744 -0.2058957,-0.2060744 z M 3.0850584,10.121913 2.7247378,10.330405 c 0.167596,0.377483 0.3752302,0.735867 0.6193019,1.06899 l 0.3579092,-0.20691 C 3.455745,10.860626 3.248739,10.501368 3.0850584,10.12188 Z m 9.8251876,0.0033 c -0.164768,0.382821 -0.376577,0.738911 -0.62172,1.068971 l 1.077745,0.622243 c 0.237822,-0.335307 0.443467,-0.693362 0.616096,-1.071439 z m -9.1133916,1.19949 -0.2895434,0.28979 c 0.258142,0.322577 0.5501656,0.616466 0.8710438,0.876614 L 4.6743316,12.19502 C 4.3492702,11.94025 4.0548182,11.648249 3.7968544,11.325278 Z m 8.3943516,8.21e-4 c -0.25661,0.324368 -0.549361,0.617366 -0.87345,0.874196 l 0.8815,0.882247 c 0.317873,-0.263417 0.610268,-0.556051 0.873456,-0.874195 z m -7.3897954,0.971109 -0.6209109,1.075434 c 0.3347407,0.238156 0.690056,0.449771 1.0672903,0.623043 l 0.6225193,-1.078408 c -0.38199,-0.165296 -0.739335,-0.37454 -1.0688987,-0.619847 z m 6.3852404,8.26e-4 c -0.329587,0.245198 -0.685017,0.457385 -1.067292,0.622235 l 0.618502,1.072996 c 0.377765,-0.172766 0.735512,-0.378588 1.070505,-0.616603 z m -5.1651359,0.67947 -0.3225188,1.202624 c 0.3822355,0.142178 0.781022,0.250969 1.1935624,0.320382 L 7.2150795,13.296573 C 6.7990802,13.235984 6.4001496,13.127291 6.0215151,12.97704 Z m 3.9450392,0.0014 c -0.3789678,0.150143 -0.7797852,0.255706 -1.1959827,0.315945 l 0.3217159,1.200205 c 0.4132239,-0.0689 0.8121968,-0.17618 1.1951725,-0.317932 z m -2.5906175,0.33824 v 1.245276 c 0.203356,0.01891 0.4091887,0.03068 0.6176936,0.03068 0.2085736,0 0.4141811,-0.01243 0.6176933,-0.03068 v -1.243574 c -0.2029982,0.02329 -0.4082944,0.03782 -0.6176933,0.03782 -0.2094683,0 -0.4147224,-0.01588 -0.6176936,-0.03934 z"
     id="path48-2" />
  <rect
     width="0.82359117"
     x="3.8750834"
     y="6.3514271"
     rx="0.20589779"
     height="0.41214287"
     style="fill:#192629;stroke-width:0.823939;stroke-linecap:round;stroke-linejoin:round"
     id="rect50-3" />
  <rect
     width="0.41179559"
     x="3.4632959"
     y="6.7635703"
     rx="0.20589779"
     height="0.82428575"
     ry="0.20607147"
     style="fill:#192629;stroke-width:0.823939;stroke-linecap:round;stroke-linejoin:round"
     id="rect52-7" />
  <rect
     width="0.41179559"
     x="3.4632959"
     y="8"
     rx="0.20589779"
     height="0.82428575"
     ry="0.20607147"
     style="fill:#192629;stroke-width:0.823939;stroke-linecap:round;stroke-linejoin:round"
     id="rect54-5" />
  <rect
     width="0.82359117"
     x="3.8750834"
     y="7.5878611"
     rx="0.20589779"
     height="0.41214287"
     style="fill:#192629;stroke-width:0.823939;stroke-linecap:round;stroke-linejoin:round"
     id="rect56-9" />
  <rect
     width="0.82359117"
     x="3.8750834"
     y="8.8242807"
     rx="0.20589779"
     height="0.41214287"
     style="fill:#192629;stroke-width:0.823939;stroke-linecap:round;stroke-linejoin:round"
     id="rect58-2" />
  <rect
     width="0.41179559"
     x="5.5222731"
     y="6.7635703"
     rx="0.20589779"
     height="0.82428575"
     ry="0.20607147"
     style="fill:#192629;stroke-width:0.823939;stroke-linecap:round;stroke-linejoin:round"
     id="rect60-2" />
  <rect
     width="0.41179559"
     x="5.5222731"
     y="8"
     rx="0.20589779"
     height="0.82428575"
     ry="0.20607147"
     style="fill:#192629;stroke-width:0.823939;stroke-linecap:round;stroke-linejoin:round"
     id="rect62-8" />
  <rect
     width="0.41179559"
     x="8.8166351"
     y="6.7635703"
     rx="0.20589779"
     height="0.82428575"
     ry="0.20607147"
     style="fill:#192629;stroke-width:0.823939;stroke-linecap:round;stroke-linejoin:round"
     id="rect64-9" />
  <rect
     width="0.41179559"
     x="8.8166351"
     y="8"
     rx="0.20589779"
     height="0.82428575"
     ry="0.20607147"
     style="fill:#192629;stroke-width:0.823939;stroke-linecap:round;stroke-linejoin:round"
     id="rect66-7" />
  <rect
     width="0.41179559"
     x="10.875622"
     y="6.7635703"
     rx="0.20589779"
     height="0.82428575"
     ry="0.20607147"
     style="fill:#192629;stroke-width:0.823939;stroke-linecap:round;stroke-linejoin:round"
     id="rect68-3" />
  <rect
     width="0.41179559"
     x="10.875622"
     y="8"
     rx="0.20589779"
     height="0.82428575"
     ry="0.20607147"
     style="fill:#192629;stroke-width:0.823939;stroke-linecap:round;stroke-linejoin:round"
     id="rect70-6" />
  <rect
     width="0.82359117"
     x="11.287404"
     y="7.5878611"
     rx="0.20589779"
     height="0.41214287"
     style="fill:#192629;stroke-width:0.823939;stroke-linecap:round;stroke-linejoin:round"
     id="rect72-1" />
  <rect
     width="0.82359117"
     x="11.287404"
     y="8.8242807"
     rx="0.20589779"
     height="0.41214287"
     style="fill:#192629;stroke-width:0.823939;stroke-linecap:round;stroke-linejoin:round"
     id="rect74-2" />
</svg>
