<?xml version="1.0" encoding="UTF-8" standalone="no"?>
<svg
   width="16"
   height="16"
   viewBox="0 0 16 16"
   version="1.1"
   id="svg1069"
   sodipodi:docname="kwalletmanager.svg"
   inkscape:version="1.3 (0e150ed6c4, 2023-07-21)"
   xmlns:inkscape="http://www.inkscape.org/namespaces/inkscape"
   xmlns:sodipodi="http://sodipodi.sourceforge.net/DTD/sodipodi-0.dtd"
   xmlns:xlink="http://www.w3.org/1999/xlink"
   xmlns="http://www.w3.org/2000/svg"
   xmlns:svg="http://www.w3.org/2000/svg">
  <sodipodi:namedview
     id="namedview1071"
     pagecolor="#ffffff"
     bordercolor="#666666"
     borderopacity="1.0"
     inkscape:showpageshadow="2"
     inkscape:pageopacity="0.0"
     inkscape:pagecheckerboard="0"
     inkscape:deskcolor="#d1d1d1"
     showgrid="false"
     inkscape:zoom="19.666667"
     inkscape:cx="9.9406778"
     inkscape:cy="13.652542"
     inkscape:window-width="1920"
     inkscape:window-height="994"
     inkscape:window-x="0"
     inkscape:window-y="0"
     inkscape:window-maximized="1"
     inkscape:current-layer="svg1069">
    <inkscape:grid
       type="xygrid"
       id="grid1884"
       originx="-45"
       originy="14"
       spacingy="1"
       spacingx="1"
       units="px"
       visible="false" />
  </sodipodi:namedview>
  <defs
     id="defs1021">
    <linearGradient
       id="linearGradient1"
       inkscape:collect="always">
      <stop
         style="stop-color:#b380ff;stop-opacity:1"
         offset="0"
         id="stop1" />
      <stop
         style="stop-color:#55ddff;stop-opacity:1"
         offset="1"
         id="stop2" />
    </linearGradient>
    <linearGradient
       id="a"
       y1="33.02"
       x1="32.987999"
       y2="41.591"
       x2="39.562"
       gradientUnits="userSpaceOnUse"
       gradientTransform="matrix(1.01162,0,0,1.0097,384.29,499.57)">
      <stop
         id="stop995" />
      <stop
         offset="1"
         stop-opacity="0"
         id="stop997" />
    </linearGradient>
    <linearGradient
       id="b"
       y1="271.69"
       x1="617.03003"
       y2="238.67"
       x2="597.96002"
       gradientUnits="userSpaceOnUse"
       gradientTransform="matrix(0.50545339,0,0,0.50499403,-340.94831,-142.86743)">
      <stop
         stop-color="#2f74c8"
         id="stop1000" />
      <stop
         offset="1"
         stop-color="#4699d7"
         id="stop1002" />
    </linearGradient>
    <linearGradient
       id="c"
       y1="535.75"
       x1="391.28"
       y2="501.10999"
       x2="411.28"
       gradientUnits="userSpaceOnUse"
       gradientTransform="matrix(0.50545339,0,0,0.50499403,-206.67603,-298.70077)">
      <stop
         stop-color="#e3dfd6"
         id="stop1005" />
      <stop
         offset="1"
         stop-color="#f4f1e8"
         id="stop1007" />
    </linearGradient>
    <linearGradient
       id="d"
       y1="669.44"
       x1="77.987"
       y2="650.39001"
       x2="88.999001"
       gradientUnits="userSpaceOnUse"
       gradientTransform="matrix(0.49989738,0,0,0.49989737,-45.845179,-363.04685)">
      <stop
         stop-color="#d35400"
         id="stop1010" />
      <stop
         offset="1"
         stop-color="#d35400"
         id="stop1012" />
    </linearGradient>
    <linearGradient
       id="e"
       y1="548.92999"
       x1="427.75"
       y2="529.53998"
       gradientUnits="userSpaceOnUse"
       x2="438.95001"
       gradientTransform="matrix(0.43795511,-0.2523682,0.2528531,0.43712027,-347.13605,-152.87066)">
      <stop
         stop-color="#f5955f"
         id="stop1015" />
      <stop
         offset="1"
         stop-color="#facebe"
         id="stop1017" />
    </linearGradient>
    <linearGradient
       xlink:href="#a"
       id="f"
       x1="398.57001"
       x2="419.25"
       gradientUnits="userSpaceOnUse"
       gradientTransform="matrix(0.4998974,0,0,0.4998974,-221.50685,-291.36721)" />
    <linearGradient
       xlink:href="#a"
       id="f-6"
       x1="398.57001"
       x2="419.25"
       gradientUnits="userSpaceOnUse"
       gradientTransform="matrix(0.4998974,0,0,0.4998974,-179.62094,-245.80941)" />
    <linearGradient
       id="b-3"
       y1="271.69"
       x1="617.03003"
       y2="238.67"
       x2="597.96002"
       gradientUnits="userSpaceOnUse"
       gradientTransform="matrix(1.01111,0,0,1.0102,-6.636,-2.024)">
      <stop
         stop-color="#2f74c8"
         id="stop305" />
      <stop
         offset="1"
         stop-color="#4699d7"
         id="stop307" />
    </linearGradient>
    <linearGradient
       id="c-6"
       y1="535.75"
       x1="391.28"
       y2="501.10999"
       x2="411.28"
       gradientUnits="userSpaceOnUse"
       gradientTransform="matrix(1.01111,0,0,1.0102,-321.72,128.72)">
      <stop
         stop-color="#e3dfd6"
         id="stop310" />
      <stop
         offset="1"
         stop-color="#f4f1e8"
         id="stop312" />
    </linearGradient>
    <linearGradient
       xlink:href="#a"
       id="f-7"
       x1="398.57001"
       x2="419.25"
       gradientUnits="userSpaceOnUse"
       gradientTransform="translate(-384.57,-499.8)" />
    <linearGradient
       id="d-5"
       y1="669.44"
       x1="77.987"
       y2="650.39001"
       x2="88.999001"
       gradientUnits="userSpaceOnUse">
      <stop
         stop-color="#d35400"
         id="stop315" />
      <stop
         offset="1"
         stop-color="#d35400"
         id="stop317" />
    </linearGradient>
    <linearGradient
       id="e-3"
       y1="548.92999"
       x1="427.75"
       y2="529.53998"
       gradientUnits="userSpaceOnUse"
       x2="438.95001"
       gradientTransform="matrix(0.87609,-0.50484,0.50581,0.87442,-251.31,277.05)">
      <stop
         stop-color="#f5955f"
         id="stop320" />
      <stop
         offset="1"
         stop-color="#facebe"
         id="stop322" />
    </linearGradient>
    <linearGradient
       id="b-3-5"
       y1="271.69"
       x1="617.03003"
       y2="238.67"
       x2="597.96002"
       gradientUnits="userSpaceOnUse"
       gradientTransform="matrix(1.01111,0,0,1.0102,-6.636,-2.024)">
      <stop
         stop-color="#2f74c8"
         id="stop305-6" />
      <stop
         offset="1"
         stop-color="#4699d7"
         id="stop307-2" />
    </linearGradient>
    <linearGradient
       id="c-6-7"
       y1="535.75"
       x1="391.28"
       y2="501.10999"
       x2="411.28"
       gradientUnits="userSpaceOnUse"
       gradientTransform="matrix(1.01111,0,0,1.0102,-321.72,128.72)">
      <stop
         stop-color="#e3dfd6"
         id="stop310-0" />
      <stop
         offset="1"
         stop-color="#f4f1e8"
         id="stop312-9" />
    </linearGradient>
    <linearGradient
       xlink:href="#a"
       id="f-7-3"
       x1="398.57001"
       x2="419.25"
       gradientUnits="userSpaceOnUse"
       gradientTransform="translate(-384.57,-499.8)" />
    <linearGradient
       id="d-5-6"
       y1="669.44"
       x1="77.987"
       y2="650.39001"
       x2="88.999001"
       gradientUnits="userSpaceOnUse">
      <stop
         stop-color="#d35400"
         id="stop315-0" />
      <stop
         offset="1"
         stop-color="#d35400"
         id="stop317-6" />
    </linearGradient>
    <linearGradient
       id="e-3-2"
       y1="548.92999"
       x1="427.75"
       y2="529.53998"
       gradientUnits="userSpaceOnUse"
       x2="438.95001"
       gradientTransform="matrix(0.87609,-0.50484,0.50581,0.87442,-251.31,277.05)">
      <stop
         stop-color="#f5955f"
         id="stop320-6" />
      <stop
         offset="1"
         stop-color="#facebe"
         id="stop322-1" />
    </linearGradient>
    <radialGradient
       fx="3.4194869e-14"
       fy="-8.0830308e-14"
       cx="3.4194869e-14"
       cy="-8.0830308e-14"
       gradientTransform="matrix(-0.00459665,1.9356142,-1.7978457,-0.00614806,6.999999,7.0000001)"
       xlink:href="#linearGradient4143"
       id="radialGradient4171-3"
       r="24"
       gradientUnits="userSpaceOnUse" />
    <linearGradient
       id="linearGradient4143">
      <stop
         offset="0"
         style="stop-color:#ff8086;stop-opacity:0.62405294;"
         id="stop4145" />
      <stop
         offset="0.41728804"
         style="stop-color:#ffb682;stop-opacity:0.67960149;"
         id="stop4151" />
      <stop
         offset="0.59519094"
         style="stop-color:#fbff8b;stop-opacity:0.59999996;"
         id="stop4169" />
      <stop
         offset="0.75742298"
         style="stop-color:#7affa5;stop-opacity:0.58443707;"
         id="stop4157" />
      <stop
         offset="0.86629128"
         style="stop-color:#7bd9ff;stop-opacity:0.65176088;"
         id="stop4153" />
      <stop
         offset="1"
         style="stop-color:#d594ff;stop-opacity:0.61247098;"
         id="stop4147" />
    </linearGradient>
    <linearGradient
       xlink:href="#a"
       id="f-7-3-7"
       x1="398.57001"
       x2="419.25"
       gradientUnits="userSpaceOnUse"
       gradientTransform="translate(-384.57,-499.8)" />
    <linearGradient
       inkscape:collect="always"
       xlink:href="#linearGradient1"
       id="linearGradient4"
       x1="1.7499998"
       y1="14"
       x2="14.25"
       y2="1.9999999"
       gradientUnits="userSpaceOnUse" />
  </defs>
  <path
     id="rect915"
     d="m -106.33059,-29.875893 c 0,0 -0.57786,-2.9e-4 -1.00078,0.325391 -0.30097,0.231764 -0.63728,0.619202 -0.94336,1.155273 -0.6321,1.107064 -0.9543,1.650195 -0.9543,1.650195 h -3.05156 -22.69942 c -0.12456,0 -0.24298,0.02153 -0.36367,0.03555 a 21,21 0 0 0 -2.23945,9.433595 21,21 0 0 0 21,21 21,21 0 0 0 20.999993,-21 21,21 0 0 0 -4.20136,-12.6 z"
     style="fill:#aaccff" />
  <path
     id="rect1044"
     style="fill:#0000ff;fill-opacity:1;stroke:none;stroke-width:0.35;stroke-linecap:round;stroke-linejoin:round;paint-order:stroke fill markers"
     d="m -107.07845,-15.401479 -1.95781,0.16543 -0.0752,7.869531 1.93867,-0.269336 0.0314,-3.353711 2.57032,3.744727 2.04667,-0.613867 -2.6332,-3.602539 2.7207,-3.350977 -2.07812,-0.483984 -2.6168,3.350976 z m -4.45429,1.877149 c -0.0222,0.0015 -0.0474,0.008 -0.0643,0.02461 l -0.77656,0.74375 c -0.0326,0.03138 -0.0361,0.07913 -0.0137,0.117578 l 0.88456,1.457422 c -0.16214,0.260456 -0.29417,0.539688 -0.38828,0.836719 l -1.65566,0.319921 c -0.046,0.009 -0.0802,0.05113 -0.0807,0.09707 l -0.01,1.060937 c -4.3e-4,0.04481 0.0348,0.08461 0.0793,0.0957 l 1.59824,0.39375 c 0.0824,0.345632 0.21056,0.676772 0.38281,0.978906 l -0.94062,1.371288 c -0.0263,0.03839 -0.0222,0.08894 0.0123,0.121681 l 0.76289,0.758788 c 0.0322,0.03177 0.0811,0.03569 0.12031,0.01367 l 1.46426,-0.847655 c 0.28392,0.16345 0.59125,0.295412 0.91602,0.384179 l 0.32402,1.594141 c 0.009,0.04508 0.0486,0.0775 0.0957,0.07793 l 1.08691,0.01094 c 0.0458,4.17e-4 0.0856,-0.03025 0.0971,-0.07383 l 0.41699,-1.595513 c 0.33662,-0.08526 0.65441,-0.213161 0.94883,-0.378711 l 1.42598,0.931055 c 0.0393,0.02546 0.0907,0.02083 0.12441,-0.01231 l 0.77246,-0.74375 c 0.0327,-0.03139 0.042,-0.08069 0.0191,-0.118945 l -0.51543,-0.844922 -0.17089,0.05195 c -0.0249,0.0073 -0.0524,-0.005 -0.067,-0.02598 -1e-5,1e-6 -0.32553,-0.476915 -0.75058,-1.096485 -0.52476,0.979441 -1.58258,1.643412 -2.79316,1.632422 -1.72019,-0.01563 -3.10314,-1.390736 -3.08711,-3.069336 0.0114,-1.2348 0.77949,-2.288893 1.86757,-2.754883 l 0.007,-0.783398 c -0.19784,0.06551 -0.3895,0.146048 -0.57148,0.240625 -3.3e-4,-2.1e-4 3.1e-4,-0.0041 0,-0.0041 l -1.45879,-0.951562 c -0.0196,-0.0133 -0.0406,-0.01533 -0.0629,-0.01367 z" />
  <path
     d="m 13.654762,12 v 0.666667 C 13.654762,13.4 13.059523,14 12.332011,14 H 3.0727517 C 2.3386248,14 1.7499998,13.4 1.7499998,12.666667 V 3.3333332 c 0,-0.7333333 0.588625,-1.3333333 1.3227519,-1.3333333 h 9.2592593 c 0.727512,0 1.322751,0.6 1.322751,1.3333333 V 3.9999999 H 7.7023806 c -0.734127,0 -1.322751,0.5999999 -1.322751,1.3333333 V 10.666667 C 6.3796296,11.4 6.9682536,12 7.7023806,12 Z M 7.7023806,9.6 c 0,0.645366 0.4135753,1 0.9920634,1 h 4.563492 C 13.853174,10.6 14.25,10.2 14.25,9.6 V 6.3999999 c 0,-0.6000001 -0.396826,-1.0000001 -0.992064,-1.0000001 H 8.694444 c -0.5952381,0 -0.9920634,0.3583 -0.9920634,1.0000001 z M 10.347884,9 C 9.7989422,9 9.3558204,8.5533334 9.3558204,7.9999999 c 0,-0.5533335 0.4431218,-1 0.9920636,-1 0.548941,0 0.992063,0.4466665 0.992063,1 C 11.339947,8.5533334 10.896825,9 10.347884,9 Z"
     id="path1"
     sodipodi:nodetypes="csssssssscssssccccccccccsssss"
     style="stroke-width:0.664014;fill:url(#linearGradient4);fill-opacity:1" />
</svg>
