<?xml version="1.0" encoding="UTF-8" standalone="no"?>
<!-- Created with Inkscape (http://www.inkscape.org/) -->

<svg
   width="16"
   height="16"
   id="svg2"
   version="1.1"
   inkscape:version="1.3 (0e150ed6c4, 2023-07-21)"
   viewBox="0 0 16 16"
   sodipodi:docname="kxstitch.svg"
   inkscape:export-filename="/home/yurchor/Install/Ukrainization/kde4doc/extragear-graphics/kxstitch-icon/128-apps-kxstitch.png"
   inkscape:export-xdpi="359.8009"
   inkscape:export-ydpi="359.8009"
   xmlns:inkscape="http://www.inkscape.org/namespaces/inkscape"
   xmlns:sodipodi="http://sodipodi.sourceforge.net/DTD/sodipodi-0.dtd"
   xmlns:xlink="http://www.w3.org/1999/xlink"
   xmlns="http://www.w3.org/2000/svg"
   xmlns:svg="http://www.w3.org/2000/svg"
   xmlns:rdf="http://www.w3.org/1999/02/22-rdf-syntax-ns#"
   xmlns:cc="http://creativecommons.org/ns#"
   xmlns:dc="http://purl.org/dc/elements/1.1/">
  <defs
     id="defs4">
    <linearGradient
       inkscape:collect="always"
       id="linearGradient5580">
      <stop
         style="stop-color:#313031;stop-opacity:1;"
         offset="0"
         id="stop5576" />
      <stop
         style="stop-color:#8d8d8d;stop-opacity:1"
         offset="1"
         id="stop5578" />
    </linearGradient>
    <linearGradient
       id="a-3"
       y1="543.79999"
       y2="503.79999"
       x2="0"
       gradientUnits="userSpaceOnUse"
       gradientTransform="matrix(1.0499472,0,0,1.0499996,-1036.978,347.49749)">
      <stop
         stop-color="#c6cdd1"
         id="stop2-6" />
      <stop
         offset="1"
         stop-color="#e0e5e7"
         id="stop4-7" />
    </linearGradient>
    <linearGradient
       id="a-1"
       y1="510.79999"
       y2="527.14001"
       gradientUnits="userSpaceOnUse"
       x2="0">
      <stop
         stop-color="#7cbaf8"
         id="stop2-2" />
      <stop
         offset="1"
         stop-color="#f4fcff"
         id="stop4-70" />
    </linearGradient>
    <linearGradient
       id="c-9"
       y1="503.79999"
       x1="400.57001"
       y2="519.79999"
       x2="416.57001"
       gradientUnits="userSpaceOnUse">
      <stop
         stop-color="#292c2f"
         id="stop12-3" />
      <stop
         offset="1"
         stop-opacity="0"
         id="stop14-6" />
    </linearGradient>
    <linearGradient
       id="b-0"
       y1="542.79999"
       x1="408.57001"
       y2="521.79999"
       x2="387.57001"
       gradientUnits="userSpaceOnUse"
       gradientTransform="translate(-384.57,-499.8)">
      <stop
         stop-color="#197cf1"
         id="stop7-6" />
      <stop
         offset="1"
         stop-color="#20bcfa"
         id="stop9-2" />
    </linearGradient>
    <linearGradient
       id="a-7"
       y1="543.79999"
       y2="503.79999"
       x2="0"
       gradientUnits="userSpaceOnUse"
       gradientTransform="matrix(1.0499472,0,0,1.0499996,-1103.228,341.99748)">
      <stop
         stop-color="#c6cdd1"
         id="stop2-5" />
      <stop
         offset="1"
         stop-color="#e0e5e7"
         id="stop4-3" />
    </linearGradient>
    <linearGradient
       id="linearGradient2257">
      <stop
         id="stop2259"
         offset="0"
         style="stop-color:#b4942a;stop-opacity:1;" />
      <stop
         id="stop2261"
         offset="1"
         style="stop-color:#e4dcc9;stop-opacity:1" />
    </linearGradient>
    <linearGradient
       id="linearGradient2598">
      <stop
         style="stop-color:#252525;stop-opacity:1;"
         offset="0"
         id="stop2600" />
      <stop
         id="stop2606"
         offset="0.5"
         style="stop-color:#252525;stop-opacity:1;" />
      <stop
         style="stop-color:#252525;stop-opacity:1;"
         offset="0.75"
         id="stop2608" />
      <stop
         style="stop-color:#000000;stop-opacity:1;"
         offset="1"
         id="stop2602" />
    </linearGradient>
    <linearGradient
       id="linearGradient3311">
      <stop
         id="stop3313"
         offset="0"
         style="stop-color:#2d2d2d;stop-opacity:1;" />
      <stop
         style="stop-color:#000000;stop-opacity:1;"
         offset="0.5"
         id="stop3319" />
      <stop
         id="stop3315"
         offset="1"
         style="stop-color:#000000;stop-opacity:1;" />
    </linearGradient>
    <linearGradient
       id="linearGradient3303">
      <stop
         id="stop3305"
         offset="0"
         style="stop-color:#ffffff;stop-opacity:0.68345326;" />
      <stop
         id="stop3307"
         offset="1"
         style="stop-color:#ffffff;stop-opacity:0;" />
    </linearGradient>
    <linearGradient
       id="linearGradient3225">
      <stop
         id="stop3227"
         offset="0"
         style="stop-color:#ffffff;stop-opacity:1;" />
      <stop
         id="stop3229"
         offset="1"
         style="stop-color:#aeaeae;stop-opacity:1;" />
    </linearGradient>
    <linearGradient
       id="linearGradient3207">
      <stop
         id="stop3209"
         offset="0"
         style="stop-color:#ffffff;stop-opacity:1;" />
      <stop
         id="stop3211"
         offset="1"
         style="stop-color:#252525;stop-opacity:0;" />
    </linearGradient>
    <linearGradient
       id="linearGradient3251">
      <stop
         style="stop-color:#000000;stop-opacity:1;"
         offset="0"
         id="stop3253" />
      <stop
         id="stop14161"
         offset="0.7087912"
         style="stop-color:#090909;stop-opacity:0.67870039;" />
      <stop
         style="stop-color:#131313;stop-opacity:0;"
         offset="1"
         id="stop3255" />
    </linearGradient>
    <linearGradient
       id="linearGradient3273">
      <stop
         id="stop3275"
         offset="0"
         style="stop-color:#ffffff;stop-opacity:0.55035973;" />
      <stop
         id="stop3277"
         offset="1"
         style="stop-color:#ffffff;stop-opacity:0;" />
    </linearGradient>
    <linearGradient
       id="linearGradient3259">
      <stop
         style="stop-color:#ffffff;stop-opacity:0.55035973;"
         offset="0"
         id="stop3261" />
      <stop
         style="stop-color:#000000;stop-opacity:0;"
         offset="1"
         id="stop3263" />
    </linearGradient>
    <linearGradient
       id="a-3-3"
       y1="543.79999"
       y2="503.79999"
       x2="0"
       gradientUnits="userSpaceOnUse"
       gradientTransform="matrix(1.0499472,0,0,1.0499996,-1103.2269,341.99747)">
      <stop
         stop-color="#c6cdd1"
         id="stop2-6-6" />
      <stop
         offset="1"
         stop-color="#e0e5e7"
         id="stop4-7-7" />
    </linearGradient>
    <linearGradient
       inkscape:collect="always"
       xlink:href="#linearGradient5580"
       id="linearGradient5582-0-5"
       x1="11"
       y1="13"
       x2="10.34375"
       y2="10.96875"
       gradientUnits="userSpaceOnUse" />
  </defs>
  <sodipodi:namedview
     id="base"
     pagecolor="#ffffff"
     bordercolor="#666666"
     borderopacity="1.0"
     inkscape:pageopacity="0.0"
     inkscape:pageshadow="2"
     inkscape:zoom="22.627417"
     inkscape:cx="1.7235728"
     inkscape:cy="9.3028736"
     inkscape:document-units="px"
     inkscape:current-layer="layer1"
     showgrid="false"
     inkscape:window-width="1920"
     inkscape:window-height="994"
     inkscape:window-x="0"
     inkscape:window-y="0"
     inkscape:window-maximized="1"
     fit-margin-top="0"
     fit-margin-left="0"
     fit-margin-right="0"
     fit-margin-bottom="0"
     inkscape:showpageshadow="2"
     inkscape:pagecheckerboard="0"
     inkscape:deskcolor="#d1d1d1">
    <inkscape:grid
       type="xygrid"
       id="grid6718"
       originx="-62.25"
       originy="9.4999809"
       spacingy="1"
       spacingx="1"
       units="px"
       visible="false" />
  </sodipodi:namedview>
  <metadata
     id="metadata7">
    <rdf:RDF>
      <cc:Work
         rdf:about="">
        <dc:format>image/svg+xml</dc:format>
        <dc:type
           rdf:resource="http://purl.org/dc/dcmitype/StillImage" />
      </cc:Work>
    </rdf:RDF>
  </metadata>
  <g
     inkscape:label="Layer 1"
     inkscape:groupmode="layer"
     id="layer1"
     transform="translate(-646.25,-863.98737)">
    <path
       style="fill:#cdc6cd;fill-opacity:1;fill-rule:evenodd;stroke:none;stroke-width:0.38015px;stroke-linecap:butt;stroke-linejoin:miter;stroke-opacity:1"
       d="m 651.43926,869.02282 c -0.41507,-1.15165 -0.78011,-1.92298 -1.07455,-2.85025 0.4754,-0.16837 0.89124,-0.28441 1.46896,-0.49461 1.49438,0.003 0.90794,0.0176 1.81423,-0.003 0.4063,0.67893 0.75789,1.93657 1.02851,2.63568 -0.58647,0.11224 -0.33747,0.0725 -1.10473,0.24029 -1.86223,0.40735 -2.13242,0.47186 -2.13242,0.47186 z"
       id="path6525-5-9"
       inkscape:connector-curvature="0"
       sodipodi:nodetypes="cccccsc" />
    <path
       style="fill:#cdc6cd;fill-opacity:1;fill-rule:evenodd;stroke:none;stroke-width:0.38015px;stroke-linecap:butt;stroke-linejoin:miter;stroke-opacity:1"
       d="m 660.32229,871.83133 c -0.79804,0.043 -1.98522,0.33833 -3.07875,0.76471 v 0.36827 c 0.2607,0.73393 0.53846,1.27776 0.90025,2.2816 0,0 0.25229,-0.0188 2.1145,-0.42608 0.23182,-0.0507 0.41066,-0.0752 0.55725,-0.0919 l 0.008,-1.96738 c -0.17259,-0.3566 -0.36101,-0.69411 -0.50172,-0.92922 z"
       id="path6611-6-1"
       inkscape:connector-curvature="0"
       sodipodi:nodetypes="cccccccc" />
    <path
       sodipodi:nodetypes="ccccsc"
       inkscape:connector-curvature="0"
       id="path6659-2-2"
       d="m 656.99263,871.79592 c -0.41505,-1.15165 -0.51876,-1.30174 -0.81327,-2.22903 1.12413,-0.45077 1.92765,-0.84424 2.75348,-0.88883 0.4063,0.67897 0.76384,1.88911 1.17735,2.54672 -0.58653,0.11229 -0.97437,0.16735 -1.74162,0.33518 -1.86224,0.4073 -1.37594,0.23596 -1.37594,0.23596 z"
       style="fill:#cdc6cd;fill-opacity:1;fill-rule:evenodd;stroke:none;stroke-width:0.38015px;stroke-linecap:butt;stroke-linejoin:miter;stroke-opacity:1" />
    <path
       sodipodi:nodetypes="ccccsc"
       inkscape:connector-curvature="0"
       id="path6663-9-7"
       d="m 653.65903,875.99784 c -0.41507,-1.15167 -0.7212,-1.68113 -1.01567,-2.60844 1.12413,-0.24328 2.61813,-0.60718 3.44395,-0.65168 0.23371,0.68491 0.5615,1.94843 0.97498,2.606 -0.58653,0.11226 -0.93333,0.18154 -1.70592,0.32331 -1.38014,0.25325 -1.69734,0.33081 -1.69734,0.33081 z"
       style="fill:#cdc6cd;fill-opacity:1;fill-rule:evenodd;stroke:none;stroke-width:0.38015px;stroke-linecap:butt;stroke-linejoin:miter;stroke-opacity:1" />
    <path
       style="fill:#cdc6cd;fill-opacity:1;fill-rule:evenodd;stroke:none;stroke-width:0.38015px;stroke-linecap:butt;stroke-linejoin:miter;stroke-opacity:1"
       d="m 652.44789,872.76177 c -0.41509,-1.15171 -0.66756,-1.78194 -0.96209,-2.70921 1.12415,-0.45078 2.76101,-0.68421 3.58679,-0.72877 0.40637,0.67895 0.62101,2.06099 1.03448,2.71865 -0.58643,0.11226 -0.72435,0.0254 -1.49162,0.19285 -1.86224,0.40741 -2.16756,0.52648 -2.16756,0.52648 z"
       id="path6661-1-0"
       inkscape:connector-curvature="0"
       sodipodi:nodetypes="ccccsc" />
    <path
       sodipodi:nodetypes="ccccsc"
       inkscape:connector-curvature="0"
       id="path6667-2-9"
       d="m 649.22103,876.92727 c -0.41507,-1.15162 -0.72117,-1.68111 -1.01566,-2.60843 1.12415,-0.45073 2.64789,-0.70789 3.47369,-0.75252 0.40633,0.67903 0.73409,2.08482 1.14759,2.74243 -0.58649,0.11225 -0.72436,0.0254 -1.49163,0.19287 -1.86228,0.40735 -2.11399,0.42565 -2.11399,0.42565 z"
       style="fill:#cdc6cd;fill-opacity:1;fill-rule:evenodd;stroke:none;stroke-width:0.38015px;stroke-linecap:butt;stroke-linejoin:miter;stroke-opacity:1" />
    <path
       style="fill:#cdc6cd;fill-opacity:1;fill-rule:evenodd;stroke:none;stroke-width:0.38015px;stroke-linecap:butt;stroke-linejoin:miter;stroke-opacity:1"
       d="m 650.20812,870.08766 c -0.63086,0.0339 -1.50558,0.22443 -2.38461,0.5128 v 2.36384 c 0.0669,0.1699 0.13297,0.33507 0.20612,0.53802 0,0 0.25149,-0.0186 2.11373,-0.42614 0.76726,-0.16786 0.60949,-0.11237 1.19598,-0.22461 -0.31664,-0.68277 -0.72492,-2.08492 -1.13122,-2.76391 z"
       id="path6669-7-3"
       inkscape:connector-curvature="0"
       sodipodi:nodetypes="ccccccc" />
    <path
       style="fill:#838183;fill-opacity:1;fill-rule:evenodd;stroke:none;stroke-width:0.38015px;stroke-linecap:butt;stroke-linejoin:miter;stroke-opacity:1"
       d="m 657.79002,870.83883 c -0.33976,-0.81663 -0.61905,-1.61241 -0.61905,-1.61241 0,0 0.57142,-0.35866 1.76187,-0.54836 0.26639,0.45888 0.54119,1.15703 0.93744,1.77255 -0.84569,0.14585 -1.29437,0.2464 -1.95229,0.45049 z"
       id="path6681-0-6"
       inkscape:connector-curvature="0"
       sodipodi:nodetypes="cccccc" />
    <path
       style="fill:#838183;fill-opacity:1;fill-rule:evenodd;stroke:none;stroke-width:0.38015px;stroke-linecap:butt;stroke-linejoin:miter;stroke-opacity:1"
       d="m 652.84511,871.98737 c -0.33968,-0.81675 -0.53568,-1.8674 -0.53568,-1.8674 0,0 0.59519,-0.26379 1.78566,-0.4535 0.26641,0.45889 0.5412,1.25189 0.93751,1.86738 -0.84574,0.14587 -1.16944,0.13972 -1.82736,0.34383 z"
       id="path6683-9-0"
       inkscape:connector-curvature="0"
       sodipodi:nodetypes="cccccc" />
    <path
       style="fill:#838183;fill-opacity:1;fill-rule:evenodd;stroke:none;stroke-width:0.38015px;stroke-linecap:butt;stroke-linejoin:miter;stroke-opacity:1"
       d="m 658.57778,874.50231 c -0.33973,-0.81665 -0.61903,-1.61239 -0.61903,-1.61239 0,0 0.59523,-0.26381 1.78567,-0.45354 0.2664,0.4589 0.51737,1.06217 0.91366,1.6777 -0.84571,0.14583 -1.29438,0.24641 -1.9523,0.4505 z"
       id="path6689-3-6"
       inkscape:connector-curvature="0"
       sodipodi:nodetypes="cccccc" />
    <path
       sodipodi:nodetypes="ccccc"
       inkscape:connector-curvature="0"
       id="path6695-6-2"
       d="m 653.49448,873.78257 c 0,0 0.59524,-0.26379 1.78562,-0.4535 0.26639,0.4589 0.51742,1.06219 0.91368,1.67761 -0.84571,0.14593 -1.59794,0.44806 -2.2559,0.65217 -0.53404,-0.49247 -0.58821,-1.19333 -0.4434,-1.87628 z"
       style="fill:#838183;fill-opacity:1;fill-rule:evenodd;stroke:none;stroke-width:0.38015px;stroke-linecap:butt;stroke-linejoin:miter;stroke-opacity:1" />
    <path
       style="fill:#838183;fill-opacity:1;fill-rule:evenodd;stroke:none;stroke-width:0.38015px;stroke-linecap:butt;stroke-linejoin:miter;stroke-opacity:1"
       d="m 649.73836,876.2572 c -0.33973,-0.81671 -0.64848,-1.69217 -0.64848,-1.69217 0,0 0.82736,-0.16887 2.0178,-0.35857 0.26636,0.4589 0.28526,0.9673 0.68147,1.58276 -0.84566,0.14592 -1.16808,0.1836 -1.82602,0.3877 z"
       id="path6697-0-6"
       inkscape:connector-curvature="0"
       sodipodi:nodetypes="cccccc" />
    <path
       style="fill:#838183;fill-opacity:1;fill-rule:evenodd;stroke:none;stroke-width:0.38015px;stroke-linecap:butt;stroke-linejoin:miter;stroke-opacity:1"
       d="m 651.9115,868.20947 c -0.33981,-0.81668 -0.61906,-1.61246 -0.61906,-1.61246 0,0 0.59526,-0.26379 1.78563,-0.4535 0.2664,0.45889 0.38647,1.05034 0.67556,1.68952 -0.84565,0.14587 -1.05623,0.2346 -1.71416,0.43871 z"
       id="path6527-62-1"
       inkscape:connector-curvature="0"
       sodipodi:nodetypes="cccccc" />
    <path
       style="fill:#cdc6cd;fill-opacity:1;fill-rule:evenodd;stroke:none;stroke-width:0.38015px;stroke-linecap:butt;stroke-linejoin:miter;stroke-opacity:1"
       d="m 654.5167,865.67932 c 0.38328,0.75905 0.75633,1.42215 0.98584,2.44907 0,0 0.69865,-0.13504 1.7395,-0.44759 0.75214,-0.22581 0.70066,-0.12636 1.28717,-0.23859 -0.29467,-0.4687 -0.64261,-1.1582 -0.96571,-1.76289 z"
       id="path6655-6-8"
       inkscape:connector-curvature="0" />
    <path
       style="fill:#838183;fill-opacity:1;fill-rule:evenodd;stroke:none;stroke-width:0.38015px;stroke-linecap:butt;stroke-linejoin:miter;stroke-opacity:1"
       d="m 655.33363,865.67932 c -0.1079,0.0386 -0.18006,0.0667 -0.18006,0.0667 0,0 0.27929,0.79576 0.6191,1.61244 l 0.12794,0.0623 c 0.6579,-0.2041 1.10659,-0.30467 1.95224,-0.45053 -0.29799,-0.46298 -0.5092,-0.89797 -0.71123,-1.29087 z"
       id="path6685-1-7"
       inkscape:connector-curvature="0" />
    <path
       style="fill:#cdc6cd;fill-opacity:1;fill-rule:evenodd;stroke:none;stroke-width:0.278206px;stroke-linecap:butt;stroke-linejoin:miter;stroke-opacity:1"
       d="m 648.67104,869.57246 c -0.30378,-0.84277 -0.57086,-1.4072 -0.7864,-2.0858 0.34791,-0.12318 0.65224,-0.20808 1.07503,-0.36196 1.09356,0.003 0.66441,0.0129 1.32765,-0.003 0.29734,0.49684 0.55458,1.41717 0.75261,1.92872 -0.42913,0.0822 -0.24692,0.053 -0.80842,0.17588 -1.36276,0.29812 -1.56047,0.34534 -1.56047,0.34534 z"
       id="path6525-3-8-9"
       inkscape:connector-curvature="0"
       sodipodi:nodetypes="cccccsc" />
    <path
       style="fill:#838183;fill-opacity:1;fill-rule:evenodd;stroke:none;stroke-width:0.278206px;stroke-linecap:butt;stroke-linejoin:miter;stroke-opacity:1"
       d="m 649.01659,868.97724 c -0.24862,-0.59761 -0.453,-1.17994 -0.453,-1.17994 0,0 0.43559,-0.19308 1.30672,-0.33191 0.19494,0.33584 0.2828,0.76865 0.4944,1.23639 -0.61887,0.10676 -0.773,0.17168 -1.25447,0.32104 z"
       id="path6527-6-7-2"
       inkscape:connector-curvature="0"
       sodipodi:nodetypes="cccccc" />
    <path
       style="fill:#cdc6cd;fill-opacity:1;fill-rule:evenodd;stroke:none;stroke-width:0.38015px;stroke-linecap:butt;stroke-linejoin:miter;stroke-opacity:1"
       d="m 653.65307,876.22613 c 0.38328,0.75912 0.75633,1.42218 0.98585,2.44913 0,0 0.69866,-0.13509 1.7395,-0.44757 0.7521,-0.22583 0.70072,-0.12638 1.28718,-0.23861 -0.29469,-0.46872 -0.64256,-1.15821 -0.96576,-1.76295 z"
       id="path6655-5-9-0"
       inkscape:connector-curvature="0" />
    <path
       style="fill:#838183;fill-opacity:1;fill-rule:evenodd;stroke:none;stroke-width:0.38015px;stroke-linecap:butt;stroke-linejoin:miter;stroke-opacity:1"
       d="m 654.47004,876.22613 c -0.10797,0.0386 -0.18008,0.0667 -0.18008,0.0667 0,0 0.2793,0.79576 0.61902,1.61248 l 0.12799,0.0622 c 0.65792,-0.20411 1.10662,-0.3047 1.95228,-0.45057 -0.298,-0.46292 -0.50915,-0.89798 -0.71125,-1.29089 z"
       id="path6685-3-2-2"
       inkscape:connector-curvature="0" />
    <g
       transform="matrix(0.36408361,0,0,0.36261777,648.4052,865.88248)"
       id="g6318-7-3">
      <path
         style="fill:url(#linearGradient5582-0-5);fill-opacity:1"
         d="M 29.5,5 C 30.394021,4.7647422 31.587765,4.8368738 31.804966,4.8449792 31.137786,5.4977278 30.645092,5.757392 29.968294,6.060879 22.034188,9.319426 10.203578,13.079821 3.2901786,15.970982 2.5368092,16.082708 2.0736607,15.786458 1.7477678,15.446429 1.1941964,14.707589 1.2455357,14.749346 0.94419643,13.5 0.81361876,11.969952 1.8710547,11.346308 2.625,11.125"
         id="path6456-5-7"
         inkscape:connector-curvature="0"
         sodipodi:nodetypes="ccccccc" />
      <path
         style="fill:#cdc6cd;fill-opacity:1"
         d="M 26.28125,9.28125 26.1875,9.4375 26.234375,9.359375 26.28125,9.28125"
         id="path6514-9-5"
         inkscape:connector-curvature="0"
         sodipodi:nodetypes="cccc" />
      <path
         style="fill:#ff0000;fill-opacity:1"
         d="m 24,10.5 c 0.166667,-0.166667 0.375,-0.291667 0.625,-0.375 C 24.875,10.041667 25.166667,10 25.5,10 H 26 l 0.375,0.125 c 0.25,0.08333 0.458333,0.208333 0.625,0.375 l 0.5,0.5 c 0.166667,0.166667 0.291667,0.375 0.375,0.625 L 28,12 27.875,12.375 c -0.08333,0.25 -0.25,0.416667 -0.5,0.5 l -0.75,0.25 c -1.304687,0.544541 -2.300021,1.037125 -2.929405,1.680309 0.456218,0.208568 1.646446,0.865508 1.929405,1.069691 1.641094,1.285957 1.860131,1.186233 3.75,2.25 0.25,0.08333 0.416667,0.25 0.5,0.5 C 29.95833,18.875 30,19.166667 30,19.5 v 1 c 0,0.333333 -0.166667,0.5 -0.5,0.5 h -0.5 -0.5 -1 -1 c -0.333333,0 -0.625,-0.04167 -0.875,-0.125 -0.25,-0.08333 -0.621745,-0.25 -0.705078,-0.5 -4.132018,-3.325598 -7.26765,-5.009111 -11.294922,-6.5 -0.25,-0.08333 -0.416667,-0.25 -0.5,-0.5 -0.08333,-0.25 -0.08333,-0.5 0,-0.75 0.08333,-0.25 0.208251,-0.439643 0.456055,-0.529297 l 0.771972,-0.279297 C 15.539792,11.379496 16.08139,11.209768 17.18457,10.802734 17.48584,11.054521 17.833333,11.333333 18,11.5 c 0.166667,0.166667 0.375,0.291667 0.625,0.375 l 0.75,0.25 c 0.25,0.08333 1.333333,0.688802 1.542969,0.792969 0.143609,-0.115126 0.319328,-0.09783 0.621089,-0.355469 C 21.84082,12.304866 22.833333,11.666667 23,11.5 L 23.5,11 24,10.5"
         id="path6568-2-9"
         inkscape:connector-curvature="0"
         sodipodi:nodetypes="csscsssscssccccsssscccssccsssccsssczscc" />
      <path
         style="fill:#ff0000;fill-opacity:1"
         d="m 4,12.5 c 0.1666667,-0.166667 0.375,-0.291667 0.625,-0.375 0.25,-0.08333 0.5,-0.08333 0.75,0 0.25,0.08333 0.4166667,0.25 0.5,0.5 0.4984038,0.831301 0.8061239,1.34354 1.125,1.875 0.6035569,1.443751 0.6942543,1.655914 0.90625,2.59375 L 8,18.5 v 1 c 0,1.666667 -0.46875,1.897786 -0.46875,3.564453 0,0.333333 -0.041667,0.625 -0.125,0.875 -0.083333,0.25 -0.2083332,0.458333 -0.375,0.625 l -0.5,0.5 c -0.1666669,0.166667 -0.375,0.291667 -0.625,0.375 -0.25,0.08333 -0.375,-0.04167 -0.375,-0.375 v -1 -1 C 5.53125,21.397786 6,21.166667 6,19.5 v -1 C 6,18.166667 5.9583333,17.875 5.875,17.625 5.2232143,16.104911 4.7706237,15.364989 4.296875,14.470982 L 3.625,13.875 C 3.4278598,13.700128 3.25,13.666667 3.25,13.5 3.25,13.333333 3.3333333,13.166667 3.5,13 L 4,12.5"
         id="path6576-2-2"
         inkscape:connector-curvature="0"
         sodipodi:nodetypes="cssccccccssssscccsccsssc" />
      <path
         style="fill:#c50000;fill-opacity:1"
         d="m 20.917969,12.917969 c 0.172256,-0.134951 0.276209,-0.127605 0.50582,-0.260114 1.147004,0.26424 2.803292,1.654887 2.271806,2.147454"
         id="path6590-8-2"
         inkscape:connector-curvature="0"
         sodipodi:nodetypes="ccc" />
      <path
         style="fill:#ff0000;fill-opacity:1"
         d="m 1.2945303,14.775383 0.4532375,0.671046 0.4409529,0.311872 c 0.272145,0.192479 0.5912998,0.242798 1.170166,0.185058 L 3.1025391,16.996338 3,17.5 C 2.0839014,20.558871 1.7398727,22.45373 1.4350364,25.075322 1.1346541,27.127112 1,29.5 1,31.5 V 32 H 0.5 0 C 0,27.666667 0,23.333333 0,19 l 0.33035714,-0.861607"
         id="path6618-9-8"
         inkscape:connector-curvature="0"
         sodipodi:nodetypes="ccscccccccccc" />
      <path
         style="fill:#c50000;fill-opacity:1"
         d="m 18.047454,15.800193 c 1.093446,0.500667 1.827568,0.915476 2.543648,1.373505 C 20.366083,17.647581 20.25185,17.511146 20,18 17.366457,16.518996 17.97265,16.97516 17.444107,16.495126"
         id="path6624-7-9"
         inkscape:connector-curvature="0"
         sodipodi:nodetypes="cccc" />
      <path
         style="fill:#cdc6cd;fill-opacity:1"
         d="M 30,16.5 V 16 H 30.5 31 V 16.5 17 H 30.5 30 v -0.5"
         id="path6634-3-7"
         inkscape:connector-curvature="0" />
      <path
         style="fill:#ff0000;fill-opacity:1"
         d="M 17.444107,16.495126 C 19.094003,17.543995 18.82255,17.323656 20,18 c -0.166667,0.166667 -0.791667,1.375 -0.875,1.625 L 19,20 l 0.125,0.375 c 0.08333,0.25 0.208333,0.458333 0.375,0.625 0.166667,0.166667 0.291667,0.375 0.375,0.625 0.08333,0.25 0.08333,0.5 0,0.75 -0.08333,0.25 -0.25,0.416667 -0.5,0.5 -0.679863,0.516016 -1.406477,0.643886 -2,1 C 16.778952,24.078379 16.126622,24 15.5,24 14.697933,23.756374 13.958191,23.546004 14,22.5 c 0.299213,-1.375151 1.183089,-3.057117 1.831456,-4.18501"
         id="path6642-6-3"
         inkscape:connector-curvature="0"
         sodipodi:nodetypes="ccscssssccccc" />
    </g>
  </g>
</svg>
