<?xml version="1.0" encoding="UTF-8" standalone="no"?>
<svg
   width="16"
   height="16"
   version="1.1"
   id="svg22"
   sodipodi:docname="mendeleydesktop.svg"
   inkscape:version="1.3 (0e150ed6c4, 2023-07-21)"
   xmlns:inkscape="http://www.inkscape.org/namespaces/inkscape"
   xmlns:sodipodi="http://sodipodi.sourceforge.net/DTD/sodipodi-0.dtd"
   xmlns:xlink="http://www.w3.org/1999/xlink"
   xmlns="http://www.w3.org/2000/svg"
   xmlns:svg="http://www.w3.org/2000/svg">
  <sodipodi:namedview
     id="namedview22"
     pagecolor="#ffffff"
     bordercolor="#000000"
     borderopacity="0.25"
     inkscape:showpageshadow="2"
     inkscape:pageopacity="0.0"
     inkscape:pagecheckerboard="0"
     inkscape:deskcolor="#d1d1d1"
     inkscape:zoom="23.96875"
     inkscape:cx="8.5945241"
     inkscape:cy="8.0730117"
     inkscape:window-width="1920"
     inkscape:window-height="994"
     inkscape:window-x="0"
     inkscape:window-y="0"
     inkscape:window-maximized="1"
     inkscape:current-layer="svg22" />
  <defs
     id="defs22">
    <style
       id="current-color-scheme"
       type="text/css">&#10;   .ColorScheme-Text { color:#d5c289; } .ColorScheme-Highlight { color:#5294e2; }&#10;  </style>
    <linearGradient
       id="arrongin"
       x1="0%"
       x2="0%"
       y1="0%"
       y2="100%">
      <stop
         offset="0%"
         style="stop-color:#dd9b44; stop-opacity:1"
         id="stop1" />
      <stop
         offset="100%"
         style="stop-color:#ad6c16; stop-opacity:1"
         id="stop2" />
    </linearGradient>
    <linearGradient
       id="aurora"
       x1="0%"
       x2="0%"
       y1="0%"
       y2="100%">
      <stop
         offset="0%"
         style="stop-color:#09D4DF; stop-opacity:1"
         id="stop3" />
      <stop
         offset="100%"
         style="stop-color:#9269F4; stop-opacity:1"
         id="stop4" />
    </linearGradient>
    <linearGradient
       id="fitdance"
       x1="0%"
       x2="0%"
       y1="0%"
       y2="100%">
      <stop
         offset="0%"
         style="stop-color:#1AD6AB; stop-opacity:1"
         id="stop5" />
      <stop
         offset="100%"
         style="stop-color:#329DB6; stop-opacity:1"
         id="stop6" />
    </linearGradient>
    <linearGradient
       id="oomox"
       x1="0.43324349"
       x2="0.43324349"
       y1="2.5828508"
       y2="15.580154"
       gradientTransform="matrix(1.2310276,0,0,0.92326843,-0.53333446,-0.14665806)"
       gradientUnits="userSpaceOnUse">
      <stop
         offset="0%"
         style="stop-color:#303b3d; stop-opacity:1"
         id="stop7" />
      <stop
         offset="100%"
         style="stop-color:#bc985d; stop-opacity:1"
         id="stop8" />
    </linearGradient>
    <linearGradient
       id="rainblue"
       x1="0%"
       x2="0%"
       y1="0%"
       y2="100%">
      <stop
         offset="0%"
         style="stop-color:#ff2a2a;stop-opacity:1"
         id="stop9" />
      <stop
         offset="100%"
         style="stop-color:#e9afaf;stop-opacity:1"
         id="stop10" />
    </linearGradient>
    <linearGradient
       id="sunrise"
       x1="0%"
       x2="0%"
       y1="0%"
       y2="100%">
      <stop
         offset="0%"
         style="stop-color: #FF8501; stop-opacity:1"
         id="stop11" />
      <stop
         offset="100%"
         style="stop-color: #FFCB01; stop-opacity:1"
         id="stop12" />
    </linearGradient>
    <linearGradient
       id="telinkrin"
       x1="0%"
       x2="0%"
       y1="0%"
       y2="100%">
      <stop
         offset="0%"
         style="stop-color: #b2ced6; stop-opacity:1"
         id="stop13" />
      <stop
         offset="100%"
         style="stop-color: #6da5b7; stop-opacity:1"
         id="stop14" />
    </linearGradient>
    <linearGradient
       id="60spsycho"
       x1="0%"
       x2="0%"
       y1="0%"
       y2="100%">
      <stop
         offset="0%"
         style="stop-color: #df5940; stop-opacity:1"
         id="stop15" />
      <stop
         offset="25%"
         style="stop-color: #d8d15f; stop-opacity:1"
         id="stop16" />
      <stop
         offset="50%"
         style="stop-color: #e9882a; stop-opacity:1"
         id="stop17" />
      <stop
         offset="100%"
         style="stop-color: #279362; stop-opacity:1"
         id="stop18" />
    </linearGradient>
    <linearGradient
       id="90ssummer"
       x1="0%"
       x2="0%"
       y1="0%"
       y2="100%">
      <stop
         offset="0%"
         style="stop-color: #f618c7; stop-opacity:1"
         id="stop19" />
      <stop
         offset="20%"
         style="stop-color: #94ffab; stop-opacity:1"
         id="stop20" />
      <stop
         offset="50%"
         style="stop-color: #fbfd54; stop-opacity:1"
         id="stop21" />
      <stop
         offset="100%"
         style="stop-color: #0f83ae; stop-opacity:1"
         id="stop22" />
    </linearGradient>
    <linearGradient
       inkscape:collect="always"
       xlink:href="#rainblue"
       id="linearGradient24"
       x1="-2.2935716e-09"
       y1="8.2380066"
       x2="15.999996"
       y2="8.2380066"
       gradientUnits="userSpaceOnUse" />
  </defs>
  <path
     class="ColorScheme-Text"
     d="M 3.4786434,2.2394591 C 2.7820314,2.2636225 2.1093401,2.5829797 1.5940815,3.0697476 1.0704249,3.5644086 0.69515888,4.244442 0.6190815,4.9756614 0.58110555,5.3409286 0.61796607,5.7148137 0.73476187,6.0616366 0.85156244,6.4083794 1.0489893,6.7280981 1.3112973,6.9750063 1.6205621,7.2657704 2.0075871,7.4496926 2.3627732,7.6774713 2.5404456,7.7910388 2.7109986,7.9178954 2.8581115,8.0721374 3.005221,8.2255738 3.1281822,8.4084081 3.1955405,8.6139172 3.2554537,8.795946 3.2690591,8.9928762 3.242661,9.1829199 3.2154479,9.37381 3.1477789,9.5586582 3.0486684,9.7215182 2.8505158,10.047722 2.5307699,10.284883 2.179986,10.411941 c -0.4067848,0.146994 -0.8546848,0.154243 -1.24682975,0.339493 -0.31030508,0.146994 -0.57157549,0.402761 -0.73436804,0.713622 -0.1627119,0.310901 -0.22703098,0.75667 -0.18743299,1.108286 0.04647496,0.413149 0.23782995,0.80552 0.52341809,1.09721 0.28550719,0.291571 0.66333159,0.481854 1.05931559,0.544961 0.5806953,0.09183 1.4013984,-0.100687 1.8231402,-0.524986 0.2111903,-0.21183 0.3711848,-0.477102 0.4615805,-0.767947 0.089605,-0.289958 0.1079999,-0.68398 0.049604,-0.982837 C 3.88362,11.7114 3.79722,11.494614 3.7164205,11.277266 3.6348309,11.060603 3.5572284,10.838544 3.5380262,10.606818 3.5036378,10.196848 3.4538523,9.7805164 3.7162391,9.4720731 3.9778274,9.1635892 4.3450132,8.7607077 4.7313965,8.671183 4.9809868,8.61279 5.2401759,8.599506 5.492165,8.642989 c 0.251989,0.044697 0.4959795,0.1477976 0.6999698,0.3068729 0.2039913,0.1598795 0.3671851,0.5763327 0.4575803,0.8248516 0.091189,0.2476725 0.1072002,0.5274035 0.034391,0.7815595 -0.073595,0.260559 -0.4321719,0.485037 -0.593766,0.699202 -0.1607927,0.214249 -0.330385,0.42914 -0.4263816,0.68245 -0.105597,0.279086 -0.1159984,0.592965 -0.04399,0.883045 0.072792,0.289956 0.2247902,0.55539 0.425582,0.771128 0.2215917,0.238813 0.7025621,0.417138 1.0073486,0.514636 0.3055871,0.09827 0.6167733,0.115984 0.9359591,0.115984 0.3191877,0 0.6527737,-0.01608 0.9583613,-0.115984 0.3047886,-0.09744 0.7854387,-0.275863 1.0070288,-0.514636 0.2007917,-0.215858 0.3527837,-0.48105 0.4255807,-0.771128 0.07202,-0.289958 0.06158,-0.604162 -0.04402,-0.883045 -0.096,-0.25331 -0.265588,-0.468285 -0.4263812,-0.68245 C 9.7478644,11.041228 9.3896073,10.816752 9.3160094,10.556273 9.2432174,10.302155 9.2592129,10.022466 9.3504165,9.7747135 9.4408045,9.5262351 9.6040043,9.1097011 9.8079963,8.9498619 10.011988,8.7907866 10.255977,8.6876901 10.507968,8.642989 c 0.251987,-0.045507 0.511176,-0.032221 0.760767,0.028194 0.386384,0.089408 0.75357,0.4924062 1.015157,0.800889 0.262387,0.3084837 0.212692,0.724775 0.178292,1.134745 -0.0192,0.231567 -0.09683,0.453866 -0.178391,0.670449 -0.08076,0.21747 -0.167193,0.43393 -0.211993,0.662476 -0.05844,0.298819 -0.03997,0.692718 0.04957,0.982837 0.09037,0.290764 0.25039,0.556158 0.461583,0.767947 0.421581,0.424307 1.242444,0.616889 1.823221,0.524986 0.395982,-0.06325 0.773566,-0.253311 1.059155,-0.544961 0.285587,-0.291569 0.476782,-0.684062 0.523178,-1.09721 0.03997,-0.351575 -0.02481,-0.797427 -0.187188,-1.108286 -0.163185,-0.310902 -0.423971,-0.566546 -0.734356,-0.713622 -0.391984,-0.18525 -0.839967,-0.192499 -1.247147,-0.339493 -0.350383,-0.126855 -0.670369,-0.364461 -0.868761,-0.6904228 -0.0984,-0.1631016 -0.166393,-0.3475475 -0.193593,-0.5385982 -0.0264,-0.1900841 -0.01287,-0.3866117 0.04718,-0.5690028 0.0672,-0.2053875 0.190391,-0.3882228 0.337587,-0.5417796 0.147206,-0.1542422 0.317607,-0.2810989 0.495197,-0.3946663 0.355187,-0.2279395 0.74237,-0.4115805 1.05116,-0.7024651 0.262398,-0.2468675 0.45999,-0.5665471 0.576784,-0.9133696 0.116799,-0.346742 0.153598,-0.7207891 0.115999,-1.0859753 C 15.305368,4.244442 14.929384,3.5644086 14.406208,3.0697476 13.89103,2.5828589 13.218258,2.2616089 12.521487,2.2394591 12.173502,2.2273765 11.823917,2.2906048 11.50313,2.4315566 11.182342,2.5721063 10.890355,2.7911857 10.668766,3.0699085 10.414375,3.3896684 10.254381,3.7771255 10.107988,4.1622875 9.9615881,4.5480928 9.8232011,4.9430414 9.6016111,5.2874474 9.2360253,5.85641 8.658449,6.2334372 8.0000777,6.2334372 7.3417046,6.2334372 6.7641284,5.8564909 6.3985447,5.2874474 6.1769531,4.9431213 6.0385602,4.548294 5.8921657,4.1622875 5.7457651,3.7772868 5.5857802,3.3895477 5.3313884,3.0699085 5.1097965,2.7912263 4.8178105,2.5721464 4.4970249,2.4315566 4.1762379,2.2910076 3.8266531,2.2285858 3.478666,2.2394591 Z m 4.5214087,4.7930955 c 0.4418081,0 0.7999661,0.3576164 0.7999661,0.7991181 0,0.4413417 -0.3581583,0.7991181 -0.7999661,0.7991181 -0.4418094,0 -0.7999661,-0.3576155 -0.7999661,-0.7991181 0,-0.4413408 0.3581566,-0.7991181 0.7999661,-0.7991181 z"
     id="path22"
     style="fill:url(#linearGradient24)" />
</svg>
