<?xml version="1.0" encoding="UTF-8" standalone="no"?>
<svg
   width="16"
   height="16"
   viewBox="0 0 16 16"
   fill="none"
   version="1.1"
   id="svg5"
   sodipodi:docname="media-floppy.svg"
   inkscape:version="1.3.2 (091e20ef0f, 2023-11-25)"
   xmlns:inkscape="http://www.inkscape.org/namespaces/inkscape"
   xmlns:sodipodi="http://sodipodi.sourceforge.net/DTD/sodipodi-0.dtd"
   xmlns:xlink="http://www.w3.org/1999/xlink"
   xmlns="http://www.w3.org/2000/svg"
   xmlns:svg="http://www.w3.org/2000/svg">
  <sodipodi:namedview
     id="namedview5"
     pagecolor="#ffffff"
     bordercolor="#000000"
     borderopacity="0.25"
     inkscape:showpageshadow="2"
     inkscape:pageopacity="0.0"
     inkscape:pagecheckerboard="0"
     inkscape:deskcolor="#d1d1d1"
     inkscape:zoom="16.948466"
     inkscape:cx="11.328459"
     inkscape:cy="14.780099"
     inkscape:window-width="1920"
     inkscape:window-height="994"
     inkscape:window-x="0"
     inkscape:window-y="0"
     inkscape:window-maximized="1"
     inkscape:current-layer="svg5" />
  <path
     d="M 11.459677,14.290323 V 10.41129 c 0,-0.347404 -0.281628,-0.629032 -0.629032,-0.629032 H 5.1693548 c -0.347404,0 -0.6290322,0.281628 -0.6290322,0.629032 v 3.879033"
     stroke-width="1.25806"
     id="path1"
     style="stroke:url(#linearGradient7);stroke-opacity:1" />
  <path
     d="m 4.75,13.416702 h 6.5 l -0.338545,0.846363 H 4.75 Z m 7.583298,0 h 1.083404 V 5.8333298 c 0,-0.078985 -0.0282,-0.1876088 -0.08471,-0.3258387 -0.0564,-0.1382403 -0.112807,-0.2355726 -0.16921,-0.2919967 L 10.784506,2.8372387 C 10.728081,2.7808145 10.632165,2.7243903 10.496744,2.6679661 10.361324,2.6115419 10.251306,2.5833298 10.16667,2.5833298 v 3.5208404 c 0,0.2256863 -0.079,0.4175306 -0.2369883,0.5755121 C 9.771701,6.8376742 9.579856,6.9166702 9.3541702,6.9166702 h -4.875 c -0.2256968,0 -0.4175412,-0.078996 -0.5755226,-0.2369879 C 3.7456556,6.5217008 3.6666702,6.3298565 3.6666702,6.1041702 V 2.5833298 H 2.5833298 V 13.416702 H 3.6666702 4.75 c 0.3046823,0 -1.2413218,0.42879 -1.0833298,0.270798 0.1579814,-0.157992 0.3498258,-0.236935 0.5755121,-0.236935 h 7.0416697 c 0.225697,0 0.417542,0.07894 0.575471,0.236935 C 12.017315,13.845492 10.911455,13.416702 11.25,13.416702 Z M 9.0833298,5.5625 V 2.8541702 c 0,-0.073356 -0.026797,-0.1368355 -0.080401,-0.1904291 C 8.949325,2.6101371 8.8858556,2.5833298 8.8125,2.5833298 h -1.625 c -0.073356,0 -0.136825,0.026807 -0.190429,0.080411 C 6.943467,2.7173348 6.91667,2.7808142 6.91667,2.8541699 V 5.5625 c 0,0.073356 0.026797,0.136825 0.080401,0.190429 C 7.050675,5.806533 7.1141444,5.83333 7.1875,5.83333 h 1.625 c 0.073356,0 0.136825,-0.026797 0.190429,-0.080401 C 9.056533,5.699325 9.08333,5.6358556 9.0833298,5.5625 Z M 14.5,5.8333298 V 13.6875 c 0,0.225718 -0.07894,0.417573 -0.236935,0.575565 C 14.105073,14.421056 13.913218,14.5 13.6875,14.5 H 2.3125 C 2.0868053,14.5 1.8949652,14.42106 1.7369795,14.263065 1.5789928,14.105073 1.5,13.913218 1.5,13.6875 V 2.3125 C 1.5,2.0868053 1.578993,1.8949652 1.7369795,1.7369795 1.8949652,1.5789928 2.0868053,1.5 2.3125,1.5 h 7.85417 c 0.225686,0 0.473955,0.056423 0.744785,0.1692705 0.27084,0.1128473 0.485246,0.2482643 0.643227,0.40625 l 2.369753,2.3697972 c 0.157992,0.1579815 0.293444,0.3723871 0.40625,0.6432275 C 14.443597,5.359375 14.5,5.6076435 14.5,5.8333298 Z"
     fill="url(#paint1_linear)"
     id="path2"
     style="fill:url(#paint1_linear);stroke-width:0.104839" />
  <defs
     id="defs5">
    <linearGradient
       id="paint0_linear"
       x1="42.962502"
       y1="118.924"
       x2="80.487297"
       y2="68.669899"
       gradientUnits="userSpaceOnUse"
       gradientTransform="matrix(0.10483871,0,0,0.10483871,1.2903226,1.2903226)">
      <stop
         stop-color="#FE0844"
         id="stop2" />
      <stop
         offset="1"
         stop-color="#FEB302"
         id="stop3" />
    </linearGradient>
    <linearGradient
       id="paint1_linear"
       x1="2"
       y1="126"
       x2="151.62199"
       y2="60.786201"
       gradientUnits="userSpaceOnUse"
       gradientTransform="matrix(0.10483871,0,0,0.10483871,1.2903226,1.2903226)">
      <stop
         stop-color="#0357D1"
         id="stop4" />
      <stop
         offset="1"
         stop-color="#27CDFC"
         id="stop5" />
    </linearGradient>
    <linearGradient
       inkscape:collect="always"
       xlink:href="#paint1_linear"
       id="linearGradient7"
       x1="3.9112926"
       y1="11.721776"
       x2="12.088707"
       y2="11.721776"
       gradientUnits="userSpaceOnUse" />
  </defs>
</svg>
