<?xml version="1.0" encoding="UTF-8" standalone="no"?>
<svg
   style="isolation:isolate"
   width="16"
   height="16"
   viewBox="0 0 16 16"
   version="1.1"
   id="svg22"
   sodipodi:docname="reddit.svg"
   inkscape:version="1.3 (0e150ed6c4, 2023-07-21)"
   xmlns:inkscape="http://www.inkscape.org/namespaces/inkscape"
   xmlns:sodipodi="http://sodipodi.sourceforge.net/DTD/sodipodi-0.dtd"
   xmlns:xlink="http://www.w3.org/1999/xlink"
   xmlns="http://www.w3.org/2000/svg"
   xmlns:svg="http://www.w3.org/2000/svg">
  <sodipodi:namedview
     id="namedview22"
     pagecolor="#ffffff"
     bordercolor="#000000"
     borderopacity="0.25"
     inkscape:showpageshadow="2"
     inkscape:pageopacity="0.0"
     inkscape:pagecheckerboard="0"
     inkscape:deskcolor="#d1d1d1"
     inkscape:zoom="23.96875"
     inkscape:cx="8.1773142"
     inkscape:cy="8.6988266"
     inkscape:window-width="1920"
     inkscape:window-height="994"
     inkscape:window-x="0"
     inkscape:window-y="0"
     inkscape:window-maximized="1"
     inkscape:current-layer="svg22" />
  <defs
     id="defs22">
    <linearGradient
       id="linearGradient22"
       inkscape:collect="always">
      <stop
         style="stop-color:#c83737;stop-opacity:1"
         offset="0"
         id="stop23" />
      <stop
         style="stop-color:#ff2a7f;stop-opacity:1"
         offset="1"
         id="stop24" />
    </linearGradient>
    <style
       id="current-color-scheme"
       type="text/css">&#10;   .ColorScheme-Text { color:#d5c289; } .ColorScheme-Highlight { color:#5294e2; }&#10;  </style>
    <linearGradient
       id="arrongin"
       x1="0%"
       x2="0%"
       y1="0%"
       y2="100%">
      <stop
         offset="0%"
         style="stop-color:#dd9b44; stop-opacity:1"
         id="stop1" />
      <stop
         offset="100%"
         style="stop-color:#ad6c16; stop-opacity:1"
         id="stop2" />
    </linearGradient>
    <linearGradient
       id="aurora"
       x1="0%"
       x2="0%"
       y1="0%"
       y2="100%">
      <stop
         offset="0%"
         style="stop-color:#09D4DF; stop-opacity:1"
         id="stop3" />
      <stop
         offset="100%"
         style="stop-color:#9269F4; stop-opacity:1"
         id="stop4" />
    </linearGradient>
    <linearGradient
       id="fitdance"
       x1="0%"
       x2="0%"
       y1="0%"
       y2="100%">
      <stop
         offset="0%"
         style="stop-color:#1AD6AB; stop-opacity:1"
         id="stop5" />
      <stop
         offset="100%"
         style="stop-color:#329DB6; stop-opacity:1"
         id="stop6" />
    </linearGradient>
    <linearGradient
       id="oomox"
       x1="0"
       x2="0"
       y1="0.45678357"
       y2="16.006483"
       gradientTransform="matrix(0.96464908,0,0,0.90033895,0.5,0.58873997)"
       gradientUnits="userSpaceOnUse">
      <stop
         offset="0%"
         style="stop-color:#303b3d; stop-opacity:1"
         id="stop7" />
      <stop
         offset="100%"
         style="stop-color:#bc985d; stop-opacity:1"
         id="stop8" />
    </linearGradient>
    <linearGradient
       id="rainblue"
       x1="0%"
       x2="0%"
       y1="0%"
       y2="100%">
      <stop
         offset="0%"
         style="stop-color:#00F260; stop-opacity:1"
         id="stop9" />
      <stop
         offset="100%"
         style="stop-color:#0575E6; stop-opacity:1"
         id="stop10" />
    </linearGradient>
    <linearGradient
       id="sunrise"
       x1="0%"
       x2="0%"
       y1="0%"
       y2="100%">
      <stop
         offset="0%"
         style="stop-color: #FF8501; stop-opacity:1"
         id="stop11" />
      <stop
         offset="100%"
         style="stop-color: #FFCB01; stop-opacity:1"
         id="stop12" />
    </linearGradient>
    <linearGradient
       id="telinkrin"
       x1="0%"
       x2="0%"
       y1="0%"
       y2="100%">
      <stop
         offset="0%"
         style="stop-color: #b2ced6; stop-opacity:1"
         id="stop13" />
      <stop
         offset="100%"
         style="stop-color: #6da5b7; stop-opacity:1"
         id="stop14" />
    </linearGradient>
    <linearGradient
       id="60spsycho"
       x1="0%"
       x2="0%"
       y1="0%"
       y2="100%">
      <stop
         offset="0%"
         style="stop-color: #df5940; stop-opacity:1"
         id="stop15" />
      <stop
         offset="25%"
         style="stop-color: #d8d15f; stop-opacity:1"
         id="stop16" />
      <stop
         offset="50%"
         style="stop-color: #e9882a; stop-opacity:1"
         id="stop17" />
      <stop
         offset="100%"
         style="stop-color: #279362; stop-opacity:1"
         id="stop18" />
    </linearGradient>
    <linearGradient
       id="90ssummer"
       x1="0%"
       x2="0%"
       y1="0%"
       y2="100%">
      <stop
         offset="0%"
         style="stop-color: #f618c7; stop-opacity:1"
         id="stop19" />
      <stop
         offset="20%"
         style="stop-color: #94ffab; stop-opacity:1"
         id="stop20" />
      <stop
         offset="50%"
         style="stop-color: #fbfd54; stop-opacity:1"
         id="stop21" />
      <stop
         offset="100%"
         style="stop-color: #0f83ae; stop-opacity:1"
         id="stop22" />
    </linearGradient>
    <linearGradient
       inkscape:collect="always"
       xlink:href="#linearGradient22"
       id="linearGradient24"
       x1="0.5"
       y1="0.99999994"
       x2="15.5"
       y2="15"
       gradientUnits="userSpaceOnUse" />
  </defs>
  <path
     class="ColorScheme-Text"
     d="M 8.8400022,1.0000667 C 8.6309397,0.99636107 8.4518768,1.1473662 8.4218767,1.3521032 L 7.7075018,5.9517367 C 6.0659387,5.9999105 4.5087506,6.458484 3.334063,7.2385227 3.0228127,6.9355863 2.60375,6.7660528 2.1668757,6.7660528 1.2462502,6.7660528 0.5,7.5034767 0.5,8.4122866 0.5,9.0264973 0.84687508,9.5897557 1.3981252,9.8732374 1.3568754,10.07149 1.3353127,10.271593 1.3334377,10.471699 1.3334377,12.973008 4.3184381,15 8.000002,15 c 3.68156,0 6.666564,-2.026992 6.666564,-4.528301 -0.003,-0.200106 -0.0253,-0.399283 -0.06655,-0.5975351 C 15.153131,9.5916085 15.5,9.0274238 15.5,8.4122866 c 0,-0.9088099 -0.746244,-1.6462338 -1.666869,-1.6462338 -0.437816,0 -0.857815,0.1704595 -1.170004,0.4743231 C 11.553129,6.4992463 10.096252,6.0462311 8.5456271,5.9582217 L 9.1784394,1.9116561 11.345004,2.3878312 c 0.0769,0.6179165 0.607499,1.0829757 1.238437,1.0839019 0.689996,0 1.24969,-0.5530683 1.24969,-1.234907 0,-0.6827653 -0.559694,-1.2358329 -1.24969,-1.2358329 -0.430311,9.264e-4 -0.829686,0.2195595 -1.058443,0.5790069 L 8.926252,1.0111837 C 8.898128,1.0046977 8.869065,1.0000667 8.8400022,1.0000667 Z M 5.9168763,8.4122866 c 0.6900004,0 1.249688,0.5530675 1.249688,1.2358329 0,0.6818355 -0.5596876,1.2349075 -1.249688,1.2349075 -0.6909376,0 -1.2506257,-0.553072 -1.2506257,-1.2349075 0,-0.6827654 0.5596881,-1.2358329 1.2506257,-1.2358329 z m 4.1662517,0 c 0.69094,0 1.250621,0.5530675 1.250621,1.2358329 0,0.6818355 -0.559681,1.2349075 -1.250621,1.2349075 -0.6900009,0 -1.2496884,-0.553072 -1.2496884,-1.2349075 0,-0.6827654 0.5596875,-1.2358329 1.2496884,-1.2358329 z m 0.810939,3.6917454 c 0.387187,-0.03244 0.605622,0.42986 0.33187,0.702229 0,0 -0.272808,0.286259 -0.792184,0.52342 -0.5203133,0.236229 -1.318126,0.455791 -2.443126,0.437266 -1.1193757,-0.01945 -1.9031259,-0.23809 -2.417813,-0.46228 -0.5137506,-0.223269 -0.7875003,-0.487295 -0.7875003,-0.487295 -0.2550006,-0.24735 -0.097502,-0.676277 0.25875,-0.704074 0.014066,-9.22e-4 0.027187,-0.002 0.041252,-0.002 0.1125004,0.002 0.2203132,0.04822 0.297188,0.128772 0,0 0.1190627,0.132477 0.5296874,0.310349 0.4096876,0.178795 1.0809379,0.370564 2.0971881,0.389091 1.010625,0.01756 1.6678132,-0.174166 2.0718748,-0.358522 0.404997,-0.183429 0.524063,-0.327949 0.524063,-0.327949 0.07218,-0.08614 0.17625,-0.139888 0.28875,-0.149152 z"
     id="path22"
     style="fill:url(#linearGradient24)" />
</svg>
