<?xml version="1.0" encoding="UTF-8" standalone="no"?>
<svg
   width="16"
   height="16"
   viewBox="0 0 16 16"
   fill="none"
   version="1.1"
   id="svg26"
   sodipodi:docname="ksnip.svg"
   inkscape:version="1.3.2 (091e20ef0f, 2023-11-25)"
   xmlns:inkscape="http://www.inkscape.org/namespaces/inkscape"
   xmlns:sodipodi="http://sodipodi.sourceforge.net/DTD/sodipodi-0.dtd"
   xmlns:xlink="http://www.w3.org/1999/xlink"
   xmlns="http://www.w3.org/2000/svg"
   xmlns:svg="http://www.w3.org/2000/svg">
  <sodipodi:namedview
     id="namedview26"
     pagecolor="#ffffff"
     bordercolor="#000000"
     borderopacity="0.25"
     inkscape:showpageshadow="2"
     inkscape:pageopacity="0.0"
     inkscape:pagecheckerboard="0"
     inkscape:deskcolor="#d1d1d1"
     inkscape:zoom="11.984375"
     inkscape:cx="11.306389"
     inkscape:cy="5.7574967"
     inkscape:window-width="1920"
     inkscape:window-height="990"
     inkscape:window-x="0"
     inkscape:window-y="0"
     inkscape:window-maximized="1"
     inkscape:current-layer="svg26" />
  <path
     d="m 11.369293,3.788555 c 0.465175,0 0.84227,0.382579 0.84227,0.854514 v 1.317479 c 0,0.199361 -0.161626,0.360975 -0.360975,0.360975 -0.199361,0 -0.360974,-0.161614 -0.360974,-0.360975 V 4.643069 c 0,-0.06742 -0.05388,-0.12207 -0.120321,-0.12207 h -1.318378 c -0.202244,0 -0.36621,-0.163965 -0.36621,-0.366234 0,-0.202244 0.163966,-0.36621 0.36621,-0.36621 z"
     fill="url(#paint0_linear_614_91)"
     id="path1"
     style="fill:url(#paint0_linear_614_91);stroke-width:0.118182" />
  <path
     d="m 12.211563,11.356931 c 0,0.471935 -0.377095,0.85449 -0.84227,0.85449 h -1.318378 c -0.202244,0 -0.36621,-0.163942 -0.36621,-0.36621 0,-0.202245 0.163966,-0.36621 0.36621,-0.36621 h 1.318378 c 0.06644,0 0.120321,-0.05465 0.120321,-0.12207 v -1.317479 c 0,-0.199373 0.161613,-0.360998 0.360974,-0.360998 0.199349,0 0.360975,0.161625 0.360975,0.360998 z"
     fill="url(#paint1_linear_614_91)"
     id="path2"
     style="fill:url(#paint1_linear_614_91);stroke-width:0.118182" />
  <path
     d="m 4.630967,12.211421 c -0.465175,0 -0.842293,-0.382555 -0.842293,-0.85449 v -1.317479 c 0,-0.199373 0.161613,-0.360998 0.360974,-0.360998 0.199385,0 0.360998,0.161625 0.360998,0.360998 v 1.317479 c 0,0.06742 0.05386,0.12207 0.120321,0.12207 h 1.318354 c 0.202268,0 0.36621,0.163965 0.36621,0.36621 0,0.202268 -0.163942,0.36621 -0.36621,0.36621 z"
     fill="url(#paint2_linear_614_91)"
     id="path3"
     style="fill:url(#paint2_linear_614_91);stroke-width:0.118182" />
  <path
     d="m 3.788674,4.643069 c 0,-0.471935 0.377118,-0.854514 0.842293,-0.854514 h 1.318354 c 0.202268,0 0.36621,0.163966 0.36621,0.36621 0,0.202269 -0.163942,0.366234 -0.36621,0.366234 H 4.630967 c -0.06647,0 -0.120321,0.05465 -0.120321,0.12207 v 1.317479 c 0,0.199361 -0.161613,0.360975 -0.360998,0.360975 -0.199361,0 -0.360974,-0.161614 -0.360974,-0.360975 z"
     fill="url(#paint3_linear_614_91)"
     id="path4"
     style="fill:url(#paint3_linear_614_91);stroke-width:0.118182" />
  <path
     d="m 11.369293,3.788555 c 0.465175,0 0.84227,0.382579 0.84227,0.854514 v 1.317479 c 0,0.199361 -0.161626,0.360975 -0.360975,0.360975 -0.199361,0 -0.360974,-0.161614 -0.360974,-0.360975 V 4.643069 c 0,-0.06742 -0.05388,-0.12207 -0.120321,-0.12207 h -1.318378 c -0.202244,0 -0.36621,-0.163965 -0.36621,-0.366234 0,-0.202244 0.163966,-0.36621 0.36621,-0.36621 z"
     stroke="url(#paint4_linear_614_91)"
     stroke-width="0.709091"
     id="path5"
     style="stroke:url(#paint4_linear_614_91);stroke-width:0.209;stroke-dasharray:none" />
  <path
     d="m 12.211563,11.356931 c 0,0.471935 -0.377095,0.85449 -0.84227,0.85449 h -1.318378 c -0.202244,0 -0.36621,-0.163942 -0.36621,-0.36621 0,-0.202245 0.163966,-0.36621 0.36621,-0.36621 h 1.318378 c 0.06644,0 0.120321,-0.05465 0.120321,-0.12207 v -1.317479 c 0,-0.199373 0.161613,-0.360998 0.360974,-0.360998 0.199349,0 0.360975,0.161625 0.360975,0.360998 z"
     stroke="url(#paint5_linear_614_91)"
     stroke-width="0.709091"
     id="path6"
     style="stroke:url(#paint5_linear_614_91);stroke-width:0.209;stroke-dasharray:none" />
  <path
     d="m 4.630967,12.211421 c -0.465175,0 -0.842293,-0.382555 -0.842293,-0.85449 v -1.317479 c 0,-0.199373 0.161613,-0.360998 0.360974,-0.360998 0.199385,0 0.360998,0.161625 0.360998,0.360998 v 1.317479 c 0,0.06742 0.05386,0.12207 0.120321,0.12207 h 1.318354 c 0.202268,0 0.36621,0.163965 0.36621,0.36621 0,0.202268 -0.163942,0.36621 -0.36621,0.36621 z"
     stroke="url(#paint6_linear_614_91)"
     stroke-width="0.709091"
     id="path7"
     style="stroke:url(#paint6_linear_614_91);stroke-width:0.209;stroke-dasharray:none" />
  <path
     d="m 3.788674,4.643069 c 0,-0.471935 0.377118,-0.854514 0.842293,-0.854514 h 1.318354 c 0.202268,0 0.36621,0.163966 0.36621,0.36621 0,0.202269 -0.163942,0.366234 -0.36621,0.366234 H 4.630967 c -0.06647,0 -0.120321,0.05465 -0.120321,0.12207 v 1.317479 c 0,0.199361 -0.161613,0.360975 -0.360998,0.360975 -0.199361,0 -0.360974,-0.161614 -0.360974,-0.360975 z"
     stroke="url(#paint7_linear_614_91)"
     stroke-width="0.709091"
     id="path8"
     style="stroke:url(#paint7_linear_614_91);stroke-width:0.209;stroke-dasharray:none" />
  <path
     fill-rule="evenodd"
     clip-rule="evenodd"
     d="m 3.845862,2.868415 c -0.539819,0 -0.977447,0.437628 -0.977447,0.977447 v 8.308276 c 0,0.539807 0.437628,0.977435 0.977447,0.977435 h 8.308276 c 0.539807,0 0.977435,-0.437628 0.977435,-0.977435 V 3.845862 c 0,-0.539819 -0.437628,-0.977447 -0.977435,-0.977447 z M 1.5,3.845862 C 1.5,2.550282 2.550282,1.5 3.845862,1.5 h 8.308276 C 13.449718,1.5 14.5,2.550282 14.5,3.845862 v 8.308276 C 14.5,13.449718 13.449718,14.5 12.154138,14.5 H 3.845862 C 2.550282,14.5 1.5,13.449718 1.5,12.154138 Z"
     id="path9"
     style="fill:url(#linearGradient28);fill-opacity:1" />
  <defs
     id="defs26">
    <linearGradient
       id="linearGradient26"
       inkscape:collect="always">
      <stop
         style="stop-color:#2ad4ff;stop-opacity:1"
         offset="0"
         id="stop27" />
      <stop
         style="stop-color:#2a7fff;stop-opacity:1"
         offset="1"
         id="stop28" />
    </linearGradient>
    <linearGradient
       id="paint0_linear_614_91"
       x1="64"
       y1="100"
       x2="64.002296"
       y2="28"
       gradientUnits="userSpaceOnUse"
       gradientTransform="matrix(0.11818182,0,0,0.11818182,0.4363636,0.4363636)">
      <stop
         stop-color="#5558FF"
         id="stop9" />
      <stop
         offset="1"
         stop-color="#00FFFF"
         id="stop10" />
    </linearGradient>
    <linearGradient
       id="paint1_linear_614_91"
       x1="64"
       y1="100"
       x2="64.002296"
       y2="28"
       gradientUnits="userSpaceOnUse"
       gradientTransform="matrix(0.11818182,0,0,0.11818182,0.4363636,0.4363636)">
      <stop
         stop-color="#5558FF"
         id="stop11" />
      <stop
         offset="1"
         stop-color="#00FFFF"
         id="stop12" />
    </linearGradient>
    <linearGradient
       id="paint2_linear_614_91"
       x1="64"
       y1="100"
       x2="64.002296"
       y2="28"
       gradientUnits="userSpaceOnUse"
       gradientTransform="matrix(0.11818182,0,0,0.11818182,0.4363636,0.4363636)">
      <stop
         stop-color="#5558FF"
         id="stop13" />
      <stop
         offset="1"
         stop-color="#00FFFF"
         id="stop14" />
    </linearGradient>
    <linearGradient
       id="paint3_linear_614_91"
       x1="64"
       y1="100"
       x2="64.002296"
       y2="28"
       gradientUnits="userSpaceOnUse"
       gradientTransform="matrix(0.11818182,0,0,0.11818182,0.4363636,0.4363636)">
      <stop
         stop-color="#5558FF"
         id="stop15" />
      <stop
         offset="1"
         stop-color="#00FFFF"
         id="stop16" />
    </linearGradient>
    <linearGradient
       id="paint4_linear_614_91"
       x1="64"
       y1="100"
       x2="64"
       y2="28"
       gradientUnits="userSpaceOnUse"
       gradientTransform="matrix(0.11818182,0,0,0.11818182,0.4363636,0.4363636)">
      <stop
         stop-color="#5558FF"
         id="stop17" />
      <stop
         offset="1"
         stop-color="#00FFFF"
         id="stop18" />
    </linearGradient>
    <linearGradient
       id="paint5_linear_614_91"
       x1="64"
       y1="100"
       x2="64"
       y2="28"
       gradientUnits="userSpaceOnUse"
       gradientTransform="matrix(0.11818182,0,0,0.11818182,0.4363636,0.4363636)">
      <stop
         stop-color="#5558FF"
         id="stop19" />
      <stop
         offset="1"
         stop-color="#00FFFF"
         id="stop20" />
    </linearGradient>
    <linearGradient
       id="paint6_linear_614_91"
       x1="64"
       y1="100"
       x2="64"
       y2="28"
       gradientUnits="userSpaceOnUse"
       gradientTransform="matrix(0.11818182,0,0,0.11818182,0.4363636,0.4363636)">
      <stop
         stop-color="#5558FF"
         id="stop21" />
      <stop
         offset="1"
         stop-color="#00FFFF"
         id="stop22" />
    </linearGradient>
    <linearGradient
       id="paint7_linear_614_91"
       x1="64"
       y1="100"
       x2="64"
       y2="28"
       gradientUnits="userSpaceOnUse"
       gradientTransform="matrix(0.11818182,0,0,0.11818182,0.4363636,0.4363636)">
      <stop
         stop-color="#5558FF"
         id="stop23" />
      <stop
         offset="1"
         stop-color="#00FFFF"
         id="stop24" />
    </linearGradient>
    <linearGradient
       id="paint8_linear_614_91"
       x1="66.5"
       y1="93.5"
       x2="67"
       y2="17.5"
       gradientUnits="userSpaceOnUse"
       gradientTransform="matrix(0.11818182,0,0,0.11818182,0.4363636,0.4363636)">
      <stop
         stop-color="#5558FF"
         id="stop25" />
      <stop
         offset="1"
         stop-color="#00FFFF"
         id="stop26" />
    </linearGradient>
    <linearGradient
       inkscape:collect="always"
       xlink:href="#linearGradient26"
       id="linearGradient28"
       x1="1.5"
       y1="8"
       x2="14.5"
       y2="8"
       gradientUnits="userSpaceOnUse" />
    <linearGradient
       id="paint0_linear_501:68"
       x1="32"
       y1="62"
       x2="32"
       y2="1.5"
       gradientUnits="userSpaceOnUse"
       gradientTransform="matrix(0.1157025,0,0,0.1157025,4.2975104,4.3264454)">
      <stop
         stop-color="#5558FF"
         id="stop1" />
      <stop
         offset="1"
         stop-color="#00C0FF"
         id="stop2" />
    </linearGradient>
    <linearGradient
       inkscape:collect="always"
       xlink:href="#linearGradient26"
       id="linearGradient4"
       x1="5.1331215"
       y1="8"
       x2="10.866879"
       y2="8"
       gradientUnits="userSpaceOnUse" />
  </defs>
  <path
     fill-rule="evenodd"
     clip-rule="evenodd"
     d="m 9.9597105,4.5970884 c 0.1061335,0.1193992 0.095358,0.3022295 -0.023999,0.4083637 L 9.5281072,5.3677686 h 0.8750568 c 0.399553,0 0.611352,0.4722742 0.345594,0.7706364 L 8.4628024,8.7047791 v 1.9037369 c 0,0.06388 -0.0518,0.115695 -0.1156979,0.115695 H 7.652892 c -0.063887,0 -0.1156985,-0.0518 -0.1156985,-0.115695 V 8.7047791 L 5.2512474,6.138405 C 4.9854821,5.8400428 5.1972774,5.3677686 5.5968374,5.3677686 H 8.6573045 L 9.5513504,4.573066 C 9.6707424,4.4669343 9.8535796,4.477687 9.9597105,4.5970884 Z M 6.7272642,10.805788 c -0.191702,0 -0.3471068,0.1554 -0.3471068,0.347104 0,0.191708 0.1554048,0.347108 0.3471068,0.347108 H 9.272719 c 0.19171,0 0.34711,-0.1554 0.34711,-0.347108 0,-0.191704 -0.1554,-0.347104 -0.34711,-0.347104 z M 7.9999884,8.180635 6.1128494,6.0619837 h 3.7742881 z"
     id="path1-3"
     style="fill:url(#linearGradient4);fill-opacity:1" />
</svg>
