<?xml version="1.0" encoding="UTF-8" standalone="no"?>
<!-- Generator: Gravit.io -->

<svg
   style="isolation:isolate"
   viewBox="0 0 16 16"
   width="16pt"
   height="16pt"
   version="1.1"
   id="svg2"
   sodipodi:docname="org.kde.kalendar.svg"
   inkscape:version="1.3 (0e150ed6c4, 2023-07-21)"
   xmlns:inkscape="http://www.inkscape.org/namespaces/inkscape"
   xmlns:sodipodi="http://sodipodi.sourceforge.net/DTD/sodipodi-0.dtd"
   xmlns:xlink="http://www.w3.org/1999/xlink"
   xmlns="http://www.w3.org/2000/svg"
   xmlns:svg="http://www.w3.org/2000/svg">
  <defs
     id="defs2">
    <linearGradient
       id="linearGradient2"
       inkscape:collect="always">
      <stop
         style="stop-color:#feac5e;stop-opacity:1;"
         offset="0"
         id="stop3" />
      <stop
         style="stop-color:#c779d0;stop-opacity:1;"
         offset="0.49997827"
         id="stop5" />
      <stop
         style="stop-color:#4bc0c8;stop-opacity:1;"
         offset="1"
         id="stop4" />
    </linearGradient>
    <linearGradient
       inkscape:collect="always"
       xlink:href="#linearGradient2"
       id="linearGradient4"
       x1="0"
       y1="1.428944"
       x2="15.000652"
       y2="15.071708"
       gradientUnits="userSpaceOnUse" />
  </defs>
  <sodipodi:namedview
     id="namedview2"
     pagecolor="#ffffff"
     bordercolor="#000000"
     borderopacity="0.25"
     inkscape:showpageshadow="2"
     inkscape:pageopacity="0.0"
     inkscape:pagecheckerboard="0"
     inkscape:deskcolor="#d1d1d1"
     inkscape:document-units="pt"
     showgrid="true"
     inkscape:zoom="11.984375"
     inkscape:cx="10.764016"
     inkscape:cy="2.7953064"
     inkscape:window-width="1920"
     inkscape:window-height="994"
     inkscape:window-x="0"
     inkscape:window-y="0"
     inkscape:window-maximized="1"
     inkscape:current-layer="svg2">
    <inkscape:grid
       id="grid4"
       units="px"
       originx="0"
       originy="0"
       spacingx="0.74999998"
       spacingy="0.74999998"
       empcolor="#0099e5"
       empopacity="0.30196078"
       color="#0099e5"
       opacity="0.14901961"
       empspacing="5"
       dotted="false"
       gridanglex="30"
       gridanglez="30"
       visible="true" />
  </sodipodi:namedview>
  <linearGradient
     id="_lgradient_27"
     x1="0.5819639"
     y1="0.77831072"
     x2="0.27618945"
     y2="0.32136112"
     gradientTransform="matrix(13,0,0,13,1.5,1.5)"
     gradientUnits="userSpaceOnUse">
    <stop
       offset="0%"
       stop-opacity="1"
       style="stop-color:rgb(27,206,137)"
       id="stop1" />
    <stop
       offset="100%"
       stop-opacity="1"
       style="stop-color:rgb(78,142,213)"
       id="stop2" />
  </linearGradient>
  <path
     d="m 6.5341622,13.369565 v 0 H 2.9054054 c -0.1551567,0 -0.281081,-0.126608 -0.281081,-0.282608 V 9.1940217 L 3.2674379,8.3535435 Z M 8.1307028,10.269348 8.8362164,9.4130435 9.0526488,9.593913 8.335892,10.461522 c -0.050595,0.06217 -0.1264865,0.09891 -0.2051892,0.101739 -0.081514,-0.0028 -0.1574054,-0.03957 -0.2051892,-0.101739 l -0.312,-0.37587 L 7.829946,9.9047826 Z M 12.251352,9.1304348 V 10.826087 H 10.564865 V 9.1304348 Z m 0,-3.1086957 V 7.7173913 H 10.564865 V 6.0217391 Z m -3.0918924,0 V 7.7173913 H 7.4729731 V 6.0217391 Z m 3.0918924,2.5434783 c 0.148972,0 0.292324,0.059348 0.396324,0.1667391 0.10681,0.1045652 0.165838,0.2486957 0.165838,0.3984783 v 1.6956522 c 0,0.149783 -0.05903,0.293913 -0.165838,0.398478 -0.104,0.107392 -0.247352,0.166739 -0.396324,0.166739 h -1.686487 c -0.148973,0 -0.292324,-0.05935 -0.396324,-0.166739 C 10.06173,11.12 10.002703,10.97587 10.002703,10.826087 V 9.1304348 c 0,-0.1497826 0.05903,-0.2939131 0.165838,-0.3984783 0.104,-0.1073913 0.247351,-0.1667391 0.396324,-0.1667391 z M 9.1594596,9.1304348 V 10.826087 H 7.4729731 V 9.1304348 Z M 12.251352,5.4565217 c 0.148972,0 0.292324,0.059348 0.396324,0.1667392 0.10681,0.1045652 0.165838,0.2486956 0.165838,0.3984782 v 1.6956522 c 0,0.1497826 -0.05903,0.293913 -0.165838,0.3984783 -0.104,0.1073913 -0.247352,0.1667391 -0.396324,0.1667391 h -1.686487 c -0.148973,0 -0.292324,-0.059348 -0.396324,-0.1667391 C 10.06173,8.0113043 10.002703,7.8671739 10.002703,7.7173913 V 6.0217391 c 0,-0.1497826 0.05903,-0.293913 0.165838,-0.3984782 0.104,-0.1073913 0.247351,-0.1667392 0.396324,-0.1667392 z m -3.0918924,0 c 0.148973,0 0.2923243,0.059348 0.3963243,0.1667392 0.1068108,0.1045652 0.1658378,0.2486956 0.1658378,0.3984782 v 1.6956522 c 0,0.1497826 -0.059027,0.293913 -0.1658378,0.3984783 -0.104,0.1073913 -0.2473513,0.1667391 -0.3963243,0.1667391 H 7.4729731 c -0.148973,0 -0.2923244,-0.059348 -0.3963244,-0.1667391 C 6.9698379,8.0113043 6.9108109,7.8671739 6.9108109,7.7173913 V 6.0217391 c 0,-0.1497826 0.059027,-0.293913 0.1658378,-0.3984782 0.104,-0.1073913 0.2473514,-0.1667392 0.3963244,-0.1667392 z m 0,3.1086957 c 0.148973,0 0.2923243,0.059348 0.3963243,0.1667391 0.1068108,0.1045652 0.1658378,0.2486957 0.1658378,0.3984783 v 1.6956522 c 0,0.149783 -0.059027,0.293913 -0.1658378,0.398478 -0.104,0.107392 -0.2473513,0.166739 -0.3963243,0.166739 H 7.4729731 c -0.148973,0 -0.2923244,-0.05935 -0.3963244,-0.166739 C 6.9698379,11.12 6.9108109,10.97587 6.9108109,10.826087 V 9.1304348 c 0,-0.1497826 0.059027,-0.2939131 0.1658378,-0.3984783 0.104,-0.1073913 0.2473514,-0.1667391 0.3963244,-0.1667391 z M 8.0950055,13.369565 h 4.9995895 c 0.155157,0 0.28108,-0.126608 0.28108,-0.282608 V 2.9130435 c 0,-0.156 -0.125923,-0.2826087 -0.28108,-0.2826087 H 8.0351352 7.964865 7.6458379 L 4.1317622,7.2236739 Z M 7.964865,1.5 h 0.07027 5.34054 C 13.996302,1.5 14.5,2.0064348 14.5,2.6304348 V 13.369565 C 14.5,13.993565 13.996302,14.5 13.375675,14.5 H 8.0351352 7.964865 2.6243244 C 2.0036973,14.5 1.5,13.993565 1.5,13.369565 V 2.6304348 C 1.5,2.0064348 2.0036973,1.5 2.6243244,1.5 Z M 7.191892,4.326087 c -0.1557189,0 -0.2810811,0.1260434 -0.2810811,0.2826087 v 0.2826086 c 0,0.1565653 0.1253622,0.2826087 0.2810811,0.2826087 h 2.2486487 c 0.1557189,0 0.281081,-0.1260434 0.281081,-0.2826087 V 4.6086957 c 0,-0.1565653 -0.1253621,-0.2826087 -0.281081,-0.2826087 H 7.191892 Z m 3.091892,0 c -0.155719,0 -0.281081,0.1260434 -0.281081,0.2826087 v 0.2826086 c 0,0.1565653 0.125362,0.2826087 0.281081,0.2826087 h 2.248648 c 0.15572,0 0.281082,-0.1260434 0.281082,-0.2826087 V 4.6086957 c 0,-0.1565653 -0.125362,-0.2826087 -0.281082,-0.2826087 z"
     fill-rule="evenodd"
     id="path2"
     style="fill:url(#linearGradient4)" />
</svg>
