<?xml version="1.0" encoding="UTF-8" standalone="no"?>
<svg
   id="svg24"
   version="1.1"
   viewBox="0 0 16 16"
   sodipodi:docname="org.kde.kontrast.svg"
   width="16"
   height="16"
   inkscape:version="1.3 (0e150ed6c4, 2023-07-21)"
   xmlns:inkscape="http://www.inkscape.org/namespaces/inkscape"
   xmlns:sodipodi="http://sodipodi.sourceforge.net/DTD/sodipodi-0.dtd"
   xmlns:xlink="http://www.w3.org/1999/xlink"
   xmlns="http://www.w3.org/2000/svg"
   xmlns:svg="http://www.w3.org/2000/svg">
  <sodipodi:namedview
     id="namedview16"
     pagecolor="#ffffff"
     bordercolor="#000000"
     borderopacity="0.25"
     inkscape:showpageshadow="2"
     inkscape:pageopacity="0.0"
     inkscape:pagecheckerboard="0"
     inkscape:deskcolor="#d1d1d1"
     showgrid="false"
     inkscape:zoom="13.906433"
     inkscape:cx="15.676198"
     inkscape:cy="14.705424"
     inkscape:window-width="1920"
     inkscape:window-height="994"
     inkscape:window-x="0"
     inkscape:window-y="0"
     inkscape:window-maximized="1"
     inkscape:current-layer="svg24" />
  <defs
     id="defs14">
    <linearGradient
       id="linearGradient4225"
       x1="15.233"
       x2="39.609001"
       y1="11.995"
       y2="36.369999"
       gradientUnits="userSpaceOnUse">
      <stop
         id="stop2"
         offset="0" />
      <stop
         id="stop4"
         stop-opacity="0"
         offset="1" />
    </linearGradient>
    <linearGradient
       id="linearGradient6454"
       x1="24"
       x2="24"
       y1="294"
       y2="257"
       gradientTransform="matrix(0.27779165,0,0,0.27077144,20.070049,-61.483453)"
       gradientUnits="userSpaceOnUse">
      <stop
         stop-color="#2c3e50"
         offset="0"
         id="stop2-3" />
      <stop
         stop-color="#34495e"
         offset="1"
         id="stop4-6" />
    </linearGradient>
    <radialGradient
       id="radialGradient6568-9"
       cx="178.52753"
       cy="17.337982"
       r="16.220705"
       gradientTransform="matrix(-0.00210224,2.1045321,-2.2050381,-0.00219605,51.950135,-353.5432)"
       gradientUnits="userSpaceOnUse">
      <stop
         stop-color="#17222d"
         offset="0"
         id="stop7-1" />
      <stop
         stop-color="#17222d"
         stop-opacity="0"
         offset="1"
         id="stop9-2" />
    </radialGradient>
    <linearGradient
       id="linearGradient2162"
       x1="79.999855"
       x2="120"
       y1="152.00008"
       y2="152.00008"
       gradientTransform="matrix(0.06944764,0,0,0.0693437,19.792299,-1.0155452)"
       gradientUnits="userSpaceOnUse">
      <stop
         stop-color="#deeff8"
         offset="0"
         id="stop12" />
      <stop
         stop-color="#c0e2f4"
         offset="1"
         id="stop14" />
    </linearGradient>
    <linearGradient
       id="linearGradient2154"
       x1="60.000046"
       x2="140.00034"
       y1="191.93718"
       y2="191.93718"
       gradientTransform="matrix(0.06250295,0,0,0.0624093,20.486748,0.18110401)"
       gradientUnits="userSpaceOnUse">
      <stop
         stop-color="#eef6fa"
         offset="0"
         id="stop17" />
      <stop
         stop-color="#b0dbf2"
         offset="1"
         id="stop19" />
    </linearGradient>
    <linearGradient
       id="linearGradient6769"
       x1="170.07874"
       x2="585.82678"
       y1="472.44095"
       y2="472.44095"
       gradientTransform="matrix(0.01670433,0,0,0.01630872,20.117677,6.5660018)"
       gradientUnits="userSpaceOnUse">
      <stop
         stop-color="#f39c1f"
         offset="0"
         id="stop27" />
      <stop
         stop-color="#fdbc4b"
         offset="1"
         id="stop29" />
    </linearGradient>
    <linearGradient
       id="linearGradient4225-7"
       x1="15.233"
       x2="39.609001"
       y1="11.995"
       y2="36.369999"
       gradientUnits="userSpaceOnUse">
      <stop
         id="stop2-5"
         offset="0" />
      <stop
         id="stop4-3"
         stop-opacity="0"
         offset="1" />
    </linearGradient>
    <linearGradient
       inkscape:collect="always"
       xlink:href="#linearGradient4"
       id="linearGradient2"
       x1="10.707617"
       y1="31.534513"
       x2="37.173615"
       y2="31.534513"
       gradientUnits="userSpaceOnUse"
       gradientTransform="matrix(0.49119628,0,0,0.49119635,-3.759541,-7.4896383)" />
    <linearGradient
       id="linearGradient4"
       inkscape:collect="always">
      <stop
         style="stop-color:#00b1b1;stop-opacity:1;"
         offset="0"
         id="stop3" />
      <stop
         style="stop-color:#9955ff;stop-opacity:1"
         offset="1"
         id="stop4-2" />
    </linearGradient>
  </defs>
  <path
     id="circle2"
     style="opacity:0.99;fill:url(#linearGradient2);fill-opacity:1;stroke-width:0.491199"
     d="M 14.499998,8.000001 A 6.4999993,6.5000004 0 0 1 7.999999,14.499999 6.4999993,6.5000004 0 0 1 1.5,8.000001 6.4999993,6.5000004 0 0 1 7.999999,1.5 6.4999993,6.5000004 0 0 1 14.499998,8.000001 Z" />
  <path
     id="circle858"
     style="fill:#1c202f;fill-opacity:1;stroke-width:0.417883"
     d="M 13.529825,8.000001 A 5.5298259,5.5298271 0 0 1 7.999999,13.529825 5.5298259,5.5298271 0 0 1 2.470173,8.000001 5.5298259,5.5298271 0 0 1 7.999999,2.470174 5.5298259,5.5298271 0 0 1 13.529825,8.000001 Z" />
  <g
     id="g13-5-3"
     transform="matrix(0.27649995,0,0,0.27615858,1.3640002,1.3655397)">
    <path
       id="circle16-6-6"
       d="M 23.986328,44 A 20,20 0 0 0 24,44 20,20 0 0 0 44,24 20,20 0 0 0 24,4 20,20 0 0 0 23.988281,4 Z"
       fill="#39fea0" />
    <path
       id="path915-2-1"
       d="m 23.986328,44 0.002,-40 A 20,20 0 0 0 4,24 20,20 0 0 0 23.986328,44 Z"
       fill="#1f4855" />
    <path
       id="path22-1-9"
       d="M 43.978516,23.417969 A 20,20 0 0 1 24,43 20,20 0 0 1 4.0214844,23.582031 20,20 0 0 0 4,24 20,20 0 0 0 24,44 20,20 0 0 0 44,24 20,20 0 0 0 43.978516,23.417969 Z"
       opacity="0.2" />
    <g
       id="flowRoot853-2-3"
       transform="translate(2.36321,-3.8828224)"
       aria-label="A">
      <path
         id="path869-7-1"
         transform="translate(-1.2548115,3.8828224)"
         d="m 22.789062,28.310547 h 4.769532 l 2.867187,7.367187 h 3.09961 l -9.267579,-23.90039 h -1.46875 v 3.351562 c 0.02238,-0.08504 0.04828,-0.166575 0.07031,-0.251953 0.08889,0.266667 0.198698,0.654905 0.332031,1.166016 0.155556,0.488888 0.311242,0.966927 0.466797,1.433593 0.155555,0.466666 0.267318,0.789019 0.333985,0.966797 l 2.666015,7.199219 h -3.869141 z"
         fill="#1f4855" />
      <path
         id="path875-0-9"
         transform="translate(-1.2548115,3.8828224)"
         d="m 22.878119,28.307248 -1e-6,-2.66467 H 19.125 l 2.701172,-7.199219 c 0.133333,-0.377777 0.289019,-0.888759 0.466797,-1.533203 0.175213,-0.584042 0.408246,-1.432104 0.566403,-2.033203 l 0.02088,-3.099609 h -1.321658 l -9.300782,23.90039 h 3.035157 L 18.125,28.310547 Z"
         fill="#39fea0" />
    </g>
  </g>
</svg>
