<?xml version="1.0" encoding="UTF-8" standalone="no"?>
<svg
   id="svg24"
   version="1.1"
   viewBox="0 0 16 16"
   sodipodi:docname="org.upscayl.Upscayl.svg"
   width="16"
   height="16"
   inkscape:version="1.4 (e7c3feb100, 2024-10-09)"
   xmlns:inkscape="http://www.inkscape.org/namespaces/inkscape"
   xmlns:sodipodi="http://sodipodi.sourceforge.net/DTD/sodipodi-0.dtd"
   xmlns:xlink="http://www.w3.org/1999/xlink"
   xmlns="http://www.w3.org/2000/svg"
   xmlns:svg="http://www.w3.org/2000/svg">
  <sodipodi:namedview
     id="namedview16"
     pagecolor="#ffffff"
     bordercolor="#000000"
     borderopacity="0.25"
     inkscape:showpageshadow="2"
     inkscape:pageopacity="0.0"
     inkscape:pagecheckerboard="0"
     inkscape:deskcolor="#d1d1d1"
     showgrid="false"
     inkscape:zoom="27.812866"
     inkscape:cx="7.8201218"
     inkscape:cy="7.1909166"
     inkscape:window-width="1920"
     inkscape:window-height="994"
     inkscape:window-x="0"
     inkscape:window-y="0"
     inkscape:window-maximized="1"
     inkscape:current-layer="svg24" />
  <defs
     id="defs14">
    <linearGradient
       id="linearGradient4225"
       x1="15.233"
       x2="39.609001"
       y1="11.995"
       y2="36.369999"
       gradientUnits="userSpaceOnUse">
      <stop
         id="stop2"
         offset="0" />
      <stop
         id="stop4"
         stop-opacity="0"
         offset="1" />
    </linearGradient>
    <linearGradient
       id="linearGradient6454"
       x1="24"
       x2="24"
       y1="294"
       y2="257"
       gradientTransform="matrix(0.27779165,0,0,0.27077144,20.070049,-61.483453)"
       gradientUnits="userSpaceOnUse">
      <stop
         stop-color="#2c3e50"
         offset="0"
         id="stop2-3" />
      <stop
         stop-color="#34495e"
         offset="1"
         id="stop4-6" />
    </linearGradient>
    <radialGradient
       id="radialGradient6568-9"
       cx="178.52753"
       cy="17.337982"
       r="16.220705"
       gradientTransform="matrix(-0.00210224,2.1045321,-2.2050381,-0.00219605,51.950135,-353.5432)"
       gradientUnits="userSpaceOnUse">
      <stop
         stop-color="#17222d"
         offset="0"
         id="stop7-1" />
      <stop
         stop-color="#17222d"
         stop-opacity="0"
         offset="1"
         id="stop9-2" />
    </radialGradient>
    <linearGradient
       id="linearGradient2162"
       x1="79.999855"
       x2="120"
       y1="152.00008"
       y2="152.00008"
       gradientTransform="matrix(0.06944764,0,0,0.0693437,19.792299,-1.0155452)"
       gradientUnits="userSpaceOnUse">
      <stop
         stop-color="#deeff8"
         offset="0"
         id="stop12" />
      <stop
         stop-color="#c0e2f4"
         offset="1"
         id="stop14" />
    </linearGradient>
    <linearGradient
       id="linearGradient2154"
       x1="60.000046"
       x2="140.00034"
       y1="191.93718"
       y2="191.93718"
       gradientTransform="matrix(0.06250295,0,0,0.0624093,20.486748,0.18110401)"
       gradientUnits="userSpaceOnUse">
      <stop
         stop-color="#eef6fa"
         offset="0"
         id="stop17" />
      <stop
         stop-color="#b0dbf2"
         offset="1"
         id="stop19" />
    </linearGradient>
    <linearGradient
       id="linearGradient6769"
       x1="170.07874"
       x2="585.82678"
       y1="472.44095"
       y2="472.44095"
       gradientTransform="matrix(0.01670433,0,0,0.01630872,20.117677,6.5660018)"
       gradientUnits="userSpaceOnUse">
      <stop
         stop-color="#f39c1f"
         offset="0"
         id="stop27" />
      <stop
         stop-color="#fdbc4b"
         offset="1"
         id="stop29" />
    </linearGradient>
    <linearGradient
       id="linearGradient4225-7"
       x1="15.233"
       x2="39.609001"
       y1="11.995"
       y2="36.369999"
       gradientUnits="userSpaceOnUse">
      <stop
         id="stop2-5"
         offset="0" />
      <stop
         id="stop4-3"
         stop-opacity="0"
         offset="1" />
    </linearGradient>
    <linearGradient
       inkscape:collect="always"
       xlink:href="#linearGradient4"
       id="linearGradient2"
       x1="10.707617"
       y1="31.534513"
       x2="37.173615"
       y2="31.534513"
       gradientUnits="userSpaceOnUse"
       gradientTransform="matrix(0.49119628,0,0,0.49119635,-3.759541,-7.4896383)" />
    <linearGradient
       id="linearGradient4"
       inkscape:collect="always">
      <stop
         style="stop-color:#00b1b1;stop-opacity:1;"
         offset="0"
         id="stop3" />
      <stop
         style="stop-color:#9955ff;stop-opacity:1"
         offset="1"
         id="stop4-2" />
    </linearGradient>
  </defs>
  <path
     id="circle2"
     style="opacity:0.99;fill:url(#linearGradient2);fill-opacity:1;stroke-width:0.491199"
     d="M 14.499998,8.000001 A 6.4999993,6.5000004 0 0 1 7.999999,14.499999 6.4999993,6.5000004 0 0 1 1.5,8.000001 6.4999993,6.5000004 0 0 1 7.999999,1.5 6.4999993,6.5000004 0 0 1 14.499998,8.000001 Z" />
  <path
     id="circle858"
     style="fill:#1c202f;fill-opacity:1;stroke-width:0.417883"
     d="M 13.529825,8.000001 A 5.5298259,5.5298271 0 0 1 7.999999,13.529825 5.5298259,5.5298271 0 0 1 2.470173,8.000001 5.5298259,5.5298271 0 0 1 7.999999,2.470174 5.5298259,5.5298271 0 0 1 13.529825,8.000001 Z" />
  <path
     id="circle16-6-6"
     d="m 7.9962187,13.516517 a 5.529999,5.5231716 0 0 0 0.00378,0 5.529999,5.5231716 0 0 0 5.5299993,-5.5231714 5.529999,5.5231716 0 0 0 -5.5299993,-5.5231716 5.529999,5.5231716 0 0 0 -0.00324,0 z"
     fill="#39fea0"
     style="stroke-width:0.276329;fill:#4791ce;fill-opacity:1" />
  <path
     id="path915-2-1"
     d="M 7.9962187,13.516517 7.9967717,2.470174 A 5.529999,5.5231716 0 0 0 2.47,7.9933456 5.529999,5.5231716 0 0 0 7.9962187,13.516517 Z"
     fill="#1f4855"
     style="stroke-width:0.276329;fill:#92bee2;fill-opacity:1" />
  <path
     id="path22-1-9"
     d="M 13.524058,7.8326128 A 5.529999,5.5231716 0 0 1 7.999999,13.240359 5.529999,5.5231716 0 0 1 2.4759404,7.8779199 5.529999,5.5231716 0 0 0 2.47,7.9933456 5.529999,5.5231716 0 0 0 7.999999,13.516517 5.529999,5.5231716 0 0 0 13.529998,7.9933456 5.529999,5.5231716 0 0 0 13.524058,7.8326128 Z"
     opacity="0.2"
     style="stroke-width:0.276329" />
  <rect
     style="opacity:0.2;stroke-width:0.21305"
     width="1.2779418"
     height="12.786882"
     x="7.3944335"
     y="1.8131181"
     rx="0.63897091"
     ry="0.63934374"
     id="rect3" />
  <rect
     style="fill:#304059;stroke-width:0.21305"
     width="1.2779418"
     height="12.786882"
     x="7.3944335"
     y="1.6"
     rx="0.63897091"
     ry="0.63934374"
     id="rect4" />
  <ellipse
     style="opacity:0.2;stroke-width:0.219074"
     cx="8.033"
     cy="8.1061668"
     id="circle4"
     rx="2.654"
     ry="2.6039984" />
  <ellipse
     style="fill:#375179;stroke-width:0.219074"
     cx="8.033"
     cy="7.8891716"
     id="circle5"
     rx="2.654"
     ry="2.6039984" />
  <path
     style="fill:#9fc8ff;stroke-width:0.219074"
     d="M 8.6965042,6.8041684 V 8.9741579 L 10.24467,7.8891666 Z m -1.3270004,0 V 8.9741579 L 5.8213352,7.8891666 Z"
     id="path5" />
</svg>
