<?xml version="1.0" encoding="UTF-8" standalone="no"?>
<svg
   width="16"
   height="16"
   viewBox="0 0 16 16"
   fill="none"
   version="1.1"
   id="svg11"
   sodipodi:docname="java.svg"
   inkscape:version="1.3.2 (091e20ef0f, 2023-11-25)"
   xmlns:inkscape="http://www.inkscape.org/namespaces/inkscape"
   xmlns:sodipodi="http://sodipodi.sourceforge.net/DTD/sodipodi-0.dtd"
   xmlns:xlink="http://www.w3.org/1999/xlink"
   xmlns="http://www.w3.org/2000/svg"
   xmlns:svg="http://www.w3.org/2000/svg">
  <sodipodi:namedview
     id="namedview11"
     pagecolor="#ffffff"
     bordercolor="#999999"
     borderopacity="1"
     inkscape:showpageshadow="2"
     inkscape:pageopacity="0"
     inkscape:pagecheckerboard="0"
     inkscape:deskcolor="#d1d1d1"
     inkscape:zoom="23.8125"
     inkscape:cx="5.9212598"
     inkscape:cy="14.656168"
     inkscape:window-width="1920"
     inkscape:window-height="994"
     inkscape:window-x="0"
     inkscape:window-y="0"
     inkscape:window-maximized="1"
     inkscape:current-layer="svg11" />
  <path
     d="m 13.870977,8.0000314 c 0,0.7038043 -0.123878,1.3785893 -0.351064,2.0039536 -0.157908,0.434682 -0.365657,0.84563 -0.616809,1.225755 -0.105174,0.159837 -0.218295,0.314181 -0.338357,0.462507 -0.38436,0.474711 -0.841122,0.888069 -1.35391,1.223575 -0.188836,0.123647 -0.385094,0.236768 -0.588293,0.338126 -0.7890589,0.394865 -1.679791,0.617019 -2.6225651,0.617019 -0.9426902,0 -1.8334433,-0.222154 -2.6225655,-0.61704 C 5.1742146,13.152548 4.9777046,13.039448 4.7888688,12.915822 4.2695809,12.575787 3.8073673,12.155908 3.4198827,11.673334 3.2996075,11.523813 3.1867358,11.368043 3.0815299,11.206801 2.8371002,10.832988 2.6346311,10.429651 2.4798323,10.003376 2.2526842,9.3781594 2.1290226,8.7036259 2.1290226,8.0000104 c 0,-3.2425408 2.6284155,-5.8709772 5.8709562,-5.8709772 1.6276026,0 3.1002742,0.6623427 4.1638852,1.7320221 0.306486,0.3081425 0.578962,0.6503575 0.810866,1.020313 0.21926,0.3484214 0.402581,0.7217526 0.545162,1.1144791 0.227207,0.6254478 0.351085,1.3002537 0.351085,2.0039743 z"
     stroke-width="1.25807"
     id="path1"
     style="stroke:url(#linearGradient2)" />
  <defs
     id="defs11">
    <linearGradient
       id="linearGradient1"
       inkscape:collect="always">
      <stop
         style="stop-color:#d38d5f;stop-opacity:1"
         offset="0"
         id="stop1" />
      <stop
         style="stop-color:#ffb380;stop-opacity:1"
         offset="1"
         id="stop2" />
    </linearGradient>
    <linearGradient
       id="paint0_linear_642_2"
       x1="32"
       y1="59.999901"
       x2="32"
       y2="4"
       gradientUnits="userSpaceOnUse"
       gradientTransform="matrix(0.20967776,0,0,0.20967776,1.2903116,1.2903221)">
      <stop
         stop-color="#5558FF"
         id="stop4"
         style="stop-color:#d38d5f;stop-opacity:1" />
      <stop
         offset="1"
         stop-color="#00C0FF"
         id="stop5"
         style="stop-color:#ffb380;stop-opacity:1" />
    </linearGradient>
    <linearGradient
       id="paint1_linear_642_2"
       x1="31.2307"
       y1="48.638"
       x2="31.2307"
       y2="18.1665"
       gradientUnits="userSpaceOnUse">
      <stop
         stop-color="#5570FF"
         id="stop6" />
      <stop
         offset="1"
         stop-color="#4DD3FF"
         id="stop7" />
    </linearGradient>
    <linearGradient
       id="paint2_linear_642_2"
       x1="31.2307"
       y1="48.638"
       x2="31.2307"
       y2="18.1665"
       gradientUnits="userSpaceOnUse">
      <stop
         stop-color="#5570FF"
         id="stop8" />
      <stop
         offset="1"
         stop-color="#4DD3FF"
         id="stop9" />
    </linearGradient>
    <linearGradient
       id="paint3_linear_642_2"
       x1="31.2307"
       y1="48.638"
       x2="31.2307"
       y2="18.1665"
       gradientUnits="userSpaceOnUse">
      <stop
         stop-color="#5570FF"
         id="stop10" />
      <stop
         offset="1"
         stop-color="#4DD3FF"
         id="stop11" />
    </linearGradient>
    <linearGradient
       inkscape:collect="always"
       xlink:href="#linearGradient1"
       id="linearGradient2"
       x1="7.999979"
       y1="2.1290331"
       x2="7.999979"
       y2="13.870967"
       gradientUnits="userSpaceOnUse" />
  </defs>
  <path
     fill="#ff7f28"
     d="m 8.1426344,7.3704902 c 0.4532897,0.498935 -0.1210192,0.9479816 -0.1210192,0.9479816 0,0 1.1486193,-0.5700643 0.6242038,-1.2802565 C 8.1500655,6.3736729 7.7732078,6.0456495 9.8188542,4.9044601 c 0,0 -3.2091274,0.768576 -1.6772811,2.4628463"
     id="path2"
     style="fill-rule:evenodd;stroke-width:0.92891" />
  <path
     d="m 10.56938,10.749472 c 0,0 0.2654,0.209128 -0.29193,0.371548 C 9.2180055,11.426747 5.8687498,11.52017 4.9377528,11.13126 4.60442,10.991159 5.2318068,10.800077 5.428199,10.75762 5.635204,10.71518 5.7519766,10.72261 5.7519766,10.72261 5.3814891,10.469974 3.3485821,11.217321 4.7201313,11.42857 8.462167,12.011364 11.540724,11.167416 10.56938,10.749155 M 6.6490043,8.0169877 c 0,0 -1.7038196,0.3874738 -0.6040334,0.5297255 0.4670916,0.05944 1.3906569,0.04565 2.2547761,-0.02229 0.7059441,-0.057334 1.4129512,-0.1794065 1.4129512,-0.1794065 0,0 -0.24947,0.102973 -0.4288753,0.2208055 C 7.5555862,9.0010652 4.213761,8.7983082 5.1734208,8.3524488 5.9876464,7.9755887 6.6490043,8.019117 6.6490043,8.019117 m 3.0573229,1.6380032 c 1.7579578,-0.87686 0.9447948,-1.7186847 0.3779178,-1.605099 -0.1380038,0.027601 -0.2016958,0.05096 -0.2016958,0.05096 0,0 0.05094,-0.077486 0.1486188,-0.1103987 1.125261,-0.3779141 1.987258,1.1167747 -0.3609348,1.7080677 0,0 0.02654,-0.02335 0.03504,-0.04457"
     id="path3"
     style="fill:#ffb380;fill-rule:evenodd;stroke-width:0.92891" />
  <path
     fill="#ff7f28"
     d="m 8.6447572,3.0711272 c 0,0 0.973461,0.9341824 -0.9256891,2.3704865 C 6.1988977,6.5934179 7.3740572,7.2515903 7.7190681,8 6.832656,7.2335437 6.1797902,6.5562659 6.6171584,5.9267517 7.258346,5.0031862 9.0375385,4.556265 8.6447572,3.0711272"
     id="path4"
     style="fill-rule:evenodd;stroke-width:0.92891" />
  <path
     d="m 6.8220407,12.030786 c 1.6878972,0.104079 4.2802553,-0.05838 4.3418263,-0.822721 0,0 -0.117825,0.288748 -1.3959688,0.520168 -1.44055,0.259027 -3.2176192,0.229305 -4.2717587,0.06374 0,0 0.2154975,0.169851 1.3259012,0.238858 m 0.077487,-2.4586018 c 0,0 -1.3811035,0.315287 -0.4893835,0.4299358 0.3779186,0.04773 1.1252653,0.03716 1.8259014,-0.01908 0.5732473,-0.04569 1.1464966,-0.144369 1.1464966,-0.144369 0,0 -0.2027603,0.08386 -0.3481955,0.1783438 -1.4012716,0.353483 -4.1082761,0.188946 -3.3312065,-0.1719878 0.660296,-0.305739 1.1963899,-0.270705 1.1963899,-0.270705"
     id="path5"
     style="fill:#ffb380;fill-rule:evenodd;stroke-width:0.92891" />
</svg>
