<?xml version="1.0" encoding="UTF-8" standalone="no"?>
<!-- Created with Inkscape (http://www.inkscape.org/) -->

<svg
   width="16"
   height="16"
   viewBox="0 0 16 16"
   id="svg8694"
   version="1.1"
   inkscape:version="1.3.2 (091e20ef0f, 2023-11-25)"
   sodipodi:docname="org.kde.dolphin.svg"
   xmlns:inkscape="http://www.inkscape.org/namespaces/inkscape"
   xmlns:sodipodi="http://sodipodi.sourceforge.net/DTD/sodipodi-0.dtd"
   xmlns:xlink="http://www.w3.org/1999/xlink"
   xmlns="http://www.w3.org/2000/svg"
   xmlns:svg="http://www.w3.org/2000/svg"
   xmlns:rdf="http://www.w3.org/1999/02/22-rdf-syntax-ns#"
   xmlns:cc="http://creativecommons.org/ns#"
   xmlns:dc="http://purl.org/dc/elements/1.1/">
  <style
     id="current-color-scheme"
     type="text/css">.ColorScheme-Highlight { color:#3daee9; }
</style>
  <defs
     id="defs8696">
    <linearGradient
       id="linearGradient12"
       inkscape:collect="always">
      <stop
         style="stop-color:#00ccff;stop-opacity:1"
         offset="0"
         id="stop10" />
      <stop
         style="stop-color:#37abc8;stop-opacity:1"
         offset="0.52216792"
         id="stop11" />
      <stop
         style="stop-color:#80b3ff;stop-opacity:1"
         offset="1"
         id="stop12" />
    </linearGradient>
    <linearGradient
       id="linearGradient3"
       x1="32"
       x2="32"
       y1="2"
       y2="62"
       gradientTransform="matrix(-0.53332428,0,0,0.53332428,-116.81218,1001.364)"
       gradientUnits="userSpaceOnUse">
      <stop
         stop-color="#b757e4"
         offset="0"
         id="stop1"
         style="stop-color:#a3be8c;stop-opacity:1;" />
      <stop
         stop-color="#ce63fe"
         offset="0.48232591"
         id="stop2"
         style="stop-color:#b48ead;stop-opacity:1;" />
      <stop
         stop-color="#bc67e5"
         offset="1"
         id="stop3"
         style="stop-color:#88c0d0;stop-opacity:1;" />
    </linearGradient>
    <linearGradient
       gradientTransform="matrix(1.049963,0,0,1.0499041,-452.98501,510.42443)"
       gradientUnits="userSpaceOnUse"
       x2="426.69501"
       y2="499.92099"
       y1="547.67499"
       id="a-6"
       x1="389.32001">
      <stop
         stop-color="#18222a"
         style="stop-color:#1e2b35;stop-opacity:1"
         id="stop216" />
      <stop
         stop-color="#566069"
         offset="1"
         style="stop-color:#6d7983;stop-opacity:1"
         id="stop218" />
    </linearGradient>
    <linearGradient
       id="b-36"
       x1="32"
       x2="32"
       y1="2"
       y2="62"
       gradientUnits="userSpaceOnUse"
       gradientTransform="matrix(0.53332428,0,0,0.53332428,-150.94493,1001.364)">
      <stop
         stop-color="#b757e4"
         offset="0"
         id="stop680" />
      <stop
         stop-color="#ce63fe"
         offset=".22539"
         id="stop682" />
      <stop
         stop-color="#a43dde"
         offset=".22539"
         id="stop684" />
      <stop
         stop-color="#a147e8"
         offset=".46111"
         id="stop686" />
      <stop
         stop-color="#782dc4"
         offset=".46111"
         id="stop688"
         style="stop-color:#008080;stop-opacity:1" />
      <stop
         stop-color="#69369f"
         offset=".75362"
         id="stop690" />
      <stop
         stop-color="#5e338b"
         offset=".75414"
         id="stop692"
         style="stop-color:#008080;stop-opacity:1" />
      <stop
         stop-color="#5b4770"
         offset="1"
         id="stop694"
         style="stop-color:#00dbdb;stop-opacity:1;" />
    </linearGradient>
    <linearGradient
       id="a-3"
       x1="32"
       x2="32"
       y1="2"
       y2="62"
       gradientTransform="matrix(-0.53332428,0,0,0.53332428,-116.81218,1001.364)"
       gradientUnits="userSpaceOnUse">
      <stop
         stop-color="#b757e4"
         offset="0"
         id="stop697" />
      <stop
         stop-color="#ce63fe"
         offset=".22539"
         id="stop699" />
      <stop
         stop-color="#bc67e5"
         offset="1"
         id="stop701" />
    </linearGradient>
    <linearGradient
       id="b-7"
       x1="32"
       x2="32"
       y1="2"
       y2="62"
       gradientTransform="matrix(0.69999995,0,0,0.69999995,1102.6968,62.642238)"
       gradientUnits="userSpaceOnUse">
      <stop
         stop-color="#58baff"
         offset="0"
         id="stop221"
         style="stop-color:#002743;stop-opacity:1;" />
      <stop
         stop-color="#50b7ff"
         offset="0.22539"
         id="stop223"
         style="stop-color:#0069b2;stop-opacity:1;" />
      <stop
         stop-color="#4592e5"
         offset=".22539"
         id="stop225" />
      <stop
         stop-color="#3b8de4"
         offset=".46111"
         id="stop227" />
      <stop
         stop-color="#376dc4"
         offset=".46111"
         id="stop229" />
      <stop
         stop-color="#3366b7"
         offset=".75362"
         id="stop231" />
      <stop
         stop-color="#294a96"
         offset=".75362"
         id="stop233" />
      <stop
         stop-color="#27468e"
         offset="1"
         id="stop235" />
    </linearGradient>
    <linearGradient
       id="linearGradient24"
       x1="0"
       x2="0"
       y1="0"
       y2="1">
      <stop
         offset="0%"
         style="stop-color:#008080;stop-opacity:1"
         id="stop23" />
      <stop
         offset="100%"
         style="stop-color:#aa87de;stop-opacity:1"
         id="stop24" />
    </linearGradient>
    <linearGradient
       inkscape:collect="always"
       xlink:href="#linearGradient12"
       id="linearGradient5"
       x1="0"
       y1="1051.3622"
       x2="16"
       y2="1037.3622"
       gradientUnits="userSpaceOnUse"
       gradientTransform="matrix(0.87500007,0,0,0.85746821,1,148.85259)" />
    <linearGradient
       id="paint3_linear"
       x1="29"
       y1="49.2537"
       x2="29"
       y2="25"
       gradientUnits="userSpaceOnUse"
       gradientTransform="translate(2.0700092e-7,1036.3623)">
      <stop
         stop-color="#5570FF"
         id="stop10-3" />
      <stop
         offset="1"
         stop-color="#4DD3FF"
         id="stop11-6" />
    </linearGradient>
    <linearGradient
       inkscape:collect="always"
       xlink:href="#linearGradient12"
       id="linearGradient6"
       x1="1.6798433"
       y1="1044.7928"
       x2="12.935431"
       y2="1044.7928"
       gradientUnits="userSpaceOnUse" />
  </defs>
  <sodipodi:namedview
     id="base"
     pagecolor="#ffffff"
     bordercolor="#666666"
     borderopacity="1.0"
     inkscape:pageopacity="0.0"
     inkscape:pageshadow="2"
     inkscape:zoom="22.512993"
     inkscape:cx="7.3735198"
     inkscape:cy="17.456586"
     inkscape:document-units="px"
     inkscape:current-layer="layer1"
     showgrid="true"
     units="px"
     inkscape:snap-bbox="true"
     inkscape:bbox-nodes="true"
     inkscape:object-nodes="true"
     inkscape:snap-global="true"
     inkscape:showpageshadow="true"
     showborder="true"
     inkscape:window-width="1920"
     inkscape:window-height="996"
     inkscape:window-x="0"
     inkscape:window-y="0"
     inkscape:window-maximized="1"
     inkscape:pagecheckerboard="0"
     inkscape:deskcolor="#d1d1d1">
    <inkscape:grid
       id="grid1"
       units="px"
       originx="0"
       originy="0"
       spacingx="1"
       spacingy="1"
       empcolor="#0099e5"
       empopacity="0.30196078"
       color="#0099e5"
       opacity="0.14902"
       empspacing="5"
       dotted="false"
       gridanglex="30"
       gridanglez="30"
       visible="true" />
  </sodipodi:namedview>
  <metadata
     id="metadata8699">
    <rdf:RDF>
      <cc:Work
         rdf:about="">
        <dc:format>image/svg+xml</dc:format>
        <dc:type
           rdf:resource="http://purl.org/dc/dcmitype/StillImage" />
      </cc:Work>
    </rdf:RDF>
  </metadata>
  <g
     inkscape:label="Livello 1"
     inkscape:groupmode="layer"
     id="layer1"
     transform="translate(0,-1036.3622)">
    <path
       fill-rule="evenodd"
       clip-rule="evenodd"
       d="m 14.999991,1041.0268 c 9e-6,-0.8718 -0.570161,-1.3343 -1.273115,-1.3344 l -5.5702502,-4e-4 c 0.025506,-10e-5 -0.1380601,-0.012 -0.1939348,-0.079 -0.013745,-0.02 -0.03023,-0.041 -0.050195,-0.063 -0.019502,-0.028 -0.074203,-0.099 -0.1221778,-0.1641 -0.034151,-0.05 -0.064951,-0.084 -0.077462,-0.1041 -0.4555937,-0.6023 -0.8115534,-0.9196 -1.6219861,-0.9196 H 2.2727259 C 1.5698153,1038.3573 1,1038.9564 1,1039.6925 v 9.336 c 0,0.7365 0.5698153,1.3337 1.2727244,1.3337 H 13.727238 c 0.702954,0 1.272762,-0.5972 1.272762,-1.3337 z m -1.818239,-0.5497 c 0.488112,0 0.943249,-0.011 0.943249,0.7804 v 7.3899 c 0,0.857 -0.404526,0.857 -0.875,0.857 H 2.7500003 c -0.4399077,0 -0.8750002,0 -0.8750002,-0.857 v -8.575 c 0,-0.47 0,-0.857 0.8750002,-0.857 h 3.1850004 c 0.2446371,0 0.5094448,-0.061 0.7805852,0.2514 0.0076,0.011 0.028793,0.041 0.055529,0.074 0.051273,0.07 0.1217495,0.165 0.1506585,0.2024 0.1672806,0.2083 0.4405319,0.7239 1.0746555,0.7452 z"
       id="path1"
       style="fill:url(#linearGradient5);stroke-width:0.796184"
       sodipodi:nodetypes="cscccccscssssccccccccccsccccc" />
    <path
       d="m 1.7528133,1041.5422 c -0.024628,0.044 -0.049288,0.095 -0.07297,0.145 0.3748954,0.2082 1.4552672,0.7503 1.9681187,1.0724 0.6481625,0.397 1.5242491,1.2062 1.5932297,1.3425 -0.6741573,1.1747 -0.3682454,2.2138 -0.4478918,2.3244 -0.057308,0.093 -0.5871393,0.6739 -0.4165367,0.7601 0.1692896,0.088 0.438539,-0.045 0.479219,-0.077 0.084631,-0.047 0.1719434,-0.1271 0.1352819,0.027 -0.07166,0.3056 -0.3968932,1.0416 0.051987,0.8853 0.05464,-0.033 0.7770912,-0.8271 0.8644293,-0.8545 1.4372581,0.374 3.0448242,0.203 3.3424008,0.063 0.1549522,0.017 0.5935167,0.2864 0.8434168,0.4183 0.249956,0.1303 0.930785,0.4564 0.729149,-0.1367 -0.06264,-0.1874 -0.510199,-0.667 -0.43755,-0.6984 0.159967,-0.063 0.555867,0.166 0.708139,0.2085 0.455558,0.1273 0.516873,-0.045 0.229293,-0.4384 -0.283936,-0.3898 -0.326599,-0.3296 -0.416563,-0.5086 -0.07035,-0.1453 0,-0.3043 0.05196,-0.3433 0.09233,-0.073 1.452617,-0.8255 1.771551,-1.1154 0.47252,-0.4293 0,-0.9649 -0.115987,-1.0413 -0.980066,-0.7048 -1.98645,-0.554 -1.999475,-0.6658 -0.0067,-0.1281 -0.0036,-0.4963 -0.02102,-0.6233 -0.09763,-0.8644 -0.497176,-0.6478 -0.551846,-0.6478 -0.3995445,0.062 -0.2525786,0.6744 -0.083323,1.2504 0.013027,0.1465 -0.1392739,0.085 -0.2292649,-0.076 -0.3072242,-0.8236 -0.4362075,-0.8088 -0.5208385,-0.8332 -0.082008,-0.022 -0.3708988,0.1567 -0.365914,0.4899 0.00137,0.096 0.114646,0.549 0.114646,0.6874 -0.1886112,0.1659 -0.1979375,0.54 -0.3959019,0.6767 -0.5765004,0.1205 -1.9617686,-0.2846 -2.1347297,-0.3023 -0.5988241,-0.1127 -0.8604362,0.337 -0.9567252,0.2292 -0.7771452,-0.8904 -1.9644724,-1.5527 -2.4786648,-1.6664 -0.1992781,-0.036 -0.872087,-0.3407 -1.1143533,-0.4902 -0.038987,-0.028 -0.083316,-0.034 -0.1263021,-0.061 z m 8.6639587,2.0722 c 0.0067,-0.012 0.01434,0 0.02196,0.015 0.05734,0.1903 0.12097,0.3709 0.498541,0.4166 0.04432,0.01 -0.209596,0.1542 -0.383894,0.061 -0.158971,-0.097 -0.173283,-0.4473 -0.136623,-0.4898 z m 0.979049,0.9567 c 0.03498,-0.01 0.06,-0.01 0.08465,0 0.09233,0.031 -0.669788,0.4205 -0.72912,0.3666 -0.0363,-0.036 0.40622,-0.3222 0.645803,-0.3666 z m 0.199277,0.2512 c 0.0793,0.012 -0.441218,0.5458 -0.499882,0.4895 -0.04297,-0.034 0.337265,-0.5025 0.499882,-0.4895 z"
       id="path4"
       style="fill:url(#linearGradient6)" />
  </g>
</svg>
