<?xml version="1.0" encoding="UTF-8" standalone="no"?>
<svg
   width="16"
   height="16"
   viewBox="0 0 16 16"
   fill="none"
   version="1.1"
   id="svg2"
   sodipodi:docname="org.gnome.Extensions.svg"
   inkscape:version="1.3 (0e150ed6c4, 2023-07-21)"
   xmlns:inkscape="http://www.inkscape.org/namespaces/inkscape"
   xmlns:sodipodi="http://sodipodi.sourceforge.net/DTD/sodipodi-0.dtd"
   xmlns:xlink="http://www.w3.org/1999/xlink"
   xmlns="http://www.w3.org/2000/svg"
   xmlns:svg="http://www.w3.org/2000/svg">
  <sodipodi:namedview
     id="namedview2"
     pagecolor="#ffffff"
     bordercolor="#000000"
     borderopacity="0.25"
     inkscape:showpageshadow="2"
     inkscape:pageopacity="0.0"
     inkscape:pagecheckerboard="0"
     inkscape:deskcolor="#d1d1d1"
     inkscape:zoom="16.948466"
     inkscape:cx="11.888982"
     inkscape:cy="7.5818073"
     inkscape:window-width="1920"
     inkscape:window-height="994"
     inkscape:window-x="0"
     inkscape:window-y="0"
     inkscape:window-maximized="1"
     inkscape:current-layer="svg2" />
  <g
     id="g1"
     transform="matrix(-0.14992135,0.15073059,0.15066,0.14999162,7.9763632,-1.6231107)"
     style="fill:none;fill-opacity:1">
    <path
       d="M 27.4297,53.2568 28.0521,50.25 H 24.9816 12 V 37.4463 c 2.0735,0.5243 3.9431,0.8037 5,0.8037 3.448,0 6.25,-2.802 6.25,-6.25 0,-3.448 -2.802,-6.25 -6.25,-6.25 -1.0569,0 -2.9265,0.2794 -5,0.8037 V 13.75 h 12.9816 3.0705 L 27.4297,10.7432 C 27.1381,9.3343 27,8.18818 27,7.5 c 0,-2.75566 2.2443,-5 5,-5 2.7557,0 5,2.24434 5,5 0,0.68818 -0.1381,1.8343 -0.4297,3.2432 L 35.9479,13.75 H 39.0184 52 V 26.5537 C 49.9265,26.0294 48.0569,25.75 47,25.75 c -3.448,0 -6.25,2.802 -6.25,6.25 0,3.448 2.802,6.25 6.25,6.25 1.0569,0 2.9265,-0.2794 5,-0.8037 V 50.25 H 39.0184 35.9481 l 0.6221,3.0066 C 36.8618,54.6658 37,55.8119 37,56.5 c 0,2.7557 -2.2443,5 -5,5 -2.7557,0 -5,-2.2443 -5,-5 0,-0.6882 0.1381,-1.8343 0.4297,-3.2432 z"
       stroke-width="5"
       id="path1"
       style="stroke:url(#linearGradient5);fill-opacity:1;stroke-opacity:1" />
  </g>
  <defs
     id="defs2">
    <linearGradient
       id="linearGradient4"
       inkscape:collect="always">
      <stop
         style="stop-color:#ffcc00;stop-opacity:1"
         offset="0"
         id="stop4" />
      <stop
         style="stop-color:#ab37c8;stop-opacity:1"
         offset="1"
         id="stop5" />
    </linearGradient>
    <linearGradient
       id="paint0_linear"
       x1="32"
       y1="64"
       x2="32"
       y2="0"
       gradientUnits="userSpaceOnUse">
      <stop
         stop-color="#02AA93"
         id="stop1"
         style="stop-color:#bc5fd3;stop-opacity:1" />
      <stop
         offset="1"
         stop-color="#67FF80"
         id="stop2"
         style="stop-color:#ffcc00;stop-opacity:1" />
    </linearGradient>
    <clipPath
       id="clip0">
      <rect
         width="64"
         height="64"
         fill="#ffffff"
         id="rect2"
         x="0"
         y="0" />
    </clipPath>
    <linearGradient
       inkscape:collect="always"
       xlink:href="#linearGradient4"
       id="linearGradient5"
       x1="9.5"
       y1="32"
       x2="54.5"
       y2="32"
       gradientUnits="userSpaceOnUse" />
  </defs>
</svg>
