<?xml version="1.0" encoding="UTF-8" standalone="no"?>
<svg
   width="16"
   height="16"
   version="1.1"
   id="svg2"
   sodipodi:docname="org.gajim.Gajim.svg"
   inkscape:version="1.3 (0e150ed6c4, 2023-07-21)"
   xmlns:inkscape="http://www.inkscape.org/namespaces/inkscape"
   xmlns:sodipodi="http://sodipodi.sourceforge.net/DTD/sodipodi-0.dtd"
   xmlns:xlink="http://www.w3.org/1999/xlink"
   xmlns="http://www.w3.org/2000/svg"
   xmlns:svg="http://www.w3.org/2000/svg">
  <defs
     id="defs2">
    <linearGradient
       id="linearGradient2"
       inkscape:collect="always">
      <stop
         style="stop-color:#ff37ff;stop-opacity:1;"
         offset="0"
         id="stop2" />
      <stop
         style="stop-color:#ffb380;stop-opacity:1"
         offset="1"
         id="stop3" />
    </linearGradient>
    <linearGradient
       inkscape:collect="always"
       xlink:href="#linearGradient2"
       id="linearGradient3"
       x1="1275.3951"
       y1="-314.03745"
       x2="1282.5424"
       y2="-321.69583"
       gradientUnits="userSpaceOnUse" />
    <linearGradient
       inkscape:collect="always"
       xlink:href="#linearGradient2"
       id="linearGradient969"
       gradientUnits="userSpaceOnUse"
       gradientTransform="matrix(0.32500045,0,0,0.32500045,-1.1000119,-0.39448677)"
       x1="43"
       y1="18"
       x2="19.5854"
       y2="-11.2683" />
    <linearGradient
       id="paint2_linear"
       x1="43"
       y1="18"
       x2="19.5854"
       y2="-11.2683"
       gradientUnits="userSpaceOnUse"
       gradientTransform="matrix(0.66000112,0,0,0.66000112,53.889208,39.578291)">
      <stop
         stop-color="#D1D5D9"
         id="stop239" />
      <stop
         offset="1"
         stop-color="#FCFFFF"
         id="stop241" />
    </linearGradient>
    <linearGradient
       inkscape:collect="always"
       xlink:href="#linearGradient2"
       id="linearGradient971"
       gradientUnits="userSpaceOnUse"
       gradientTransform="matrix(0.32500045,0,0,0.32500045,-1.1000119,-0.39448677)"
       x1="38"
       y1="25"
       x2="14.02"
       y2="0.020815801" />
    <linearGradient
       id="paint3_linear"
       x1="38"
       y1="25"
       x2="14.02"
       y2="0.020815801"
       gradientUnits="userSpaceOnUse"
       gradientTransform="matrix(0.66000112,0,0,0.66000112,53.889208,39.578291)">
      <stop
         stop-color="#D1D5D9"
         id="stop244" />
      <stop
         offset="1"
         stop-color="#FCFFFF"
         id="stop246" />
    </linearGradient>
    <linearGradient
       id="paint4_linear"
       x1="33"
       y1="32"
       x2="9.3934402"
       y2="12.3279"
       gradientUnits="userSpaceOnUse"
       gradientTransform="matrix(0.66000112,0,0,0.66000112,53.889208,39.578291)">
      <stop
         stop-color="#D1D5D9"
         id="stop249" />
      <stop
         offset="1"
         stop-color="#FCFFFF"
         id="stop251" />
    </linearGradient>
    <linearGradient
       inkscape:collect="always"
       xlink:href="#linearGradient2"
       id="linearGradient4"
       x1="3.1249804"
       y1="9.3555336"
       x2="9.6249866"
       y2="9.3555336"
       gradientUnits="userSpaceOnUse" />
  </defs>
  <sodipodi:namedview
     id="namedview2"
     pagecolor="#ffffff"
     bordercolor="#000000"
     borderopacity="0.25"
     inkscape:showpageshadow="2"
     inkscape:pageopacity="0.0"
     inkscape:pagecheckerboard="0"
     inkscape:deskcolor="#d1d1d1"
     inkscape:zoom="23.96875"
     inkscape:cx="2.7535854"
     inkscape:cy="10.910039"
     inkscape:window-width="1920"
     inkscape:window-height="994"
     inkscape:window-x="0"
     inkscape:window-y="0"
     inkscape:window-maximized="1"
     inkscape:current-layer="svg2" />
  <g
     transform="matrix(0.93796898,0,0,0.92857143,-1193.5345,304.21429)"
     id="g2">
    <path
       d="m 1276.994,-326 c -1.258,0.015 -2.178,-0.03 -2.931,0.385 a 1.88,1.88 0 0 0 -0.838,0.998 c -0.165,0.438 -0.225,0.96 -0.225,1.617 v 6 c 0,0.658 0.06,1.179 0.225,1.617 0.165,0.439 0.461,0.79 0.838,0.998 0.753,0.416 1.673,0.37 2.931,0.385 h 8.004 c 1.258,-0.015 2.18,0.03 2.932,-0.385 a 1.88,1.88 0 0 0 0.838,-0.998 c 0.164,-0.438 0.224,-0.96 0.224,-1.617 v -6 c 0,-0.658 -0.06,-1.179 -0.224,-1.617 a 1.88,1.88 0 0 0 -0.838,-0.998 c -0.753,-0.416 -1.674,-0.37 -2.932,-0.385 z m 0.01,1 h 8 c 1.259,0.015 2.088,0.06 2.454,0.262 0.183,0.1 0.289,0.212 0.386,0.472 0.097,0.26 0.16,0.674 0.16,1.266 v 6 c 0,0.592 -0.063,1.006 -0.16,1.266 -0.098,0.26 -0.203,0.371 -0.387,0.472 -0.366,0.202 -1.194,0.247 -2.453,0.262 H 1277 c -1.258,-0.015 -2.089,-0.06 -2.455,-0.262 -0.183,-0.1 -0.287,-0.212 -0.385,-0.472 -0.098,-0.26 -0.16,-0.674 -0.16,-1.266 v -6 c 0,-0.592 0.063,-1.006 0.16,-1.266 0.098,-0.26 0.202,-0.371 0.385,-0.472 0.366,-0.202 1.197,-0.247 2.455,-0.262 z"
       font-family="sans-serif"
       overflow="visible"
       id="path1"
       style="fill:url(#linearGradient3);fill-opacity:1" />
    <path
       font-size="15px"
       letter-spacing="0"
       text-anchor="middle"
       word-spacing="0"
       id="path2"
       font-weight="400"
       d="m 1280,-312 3.5,-2.5 -0.5,-0.5 h -6 l -0.5,0.5 z"
       style="fill:url(#linearGradient3);fill-opacity:1" />
  </g>
  <rect
     x="3.1249804"
     y="4.1555195"
     width="9.7500296"
     height="1.3000019"
     rx="0.65000093"
     id="rect217-2"
     style="fill:url(#linearGradient969);stroke-width:0.324997" />
  <rect
     x="3.1249804"
     y="6.4305253"
     width="8.1250257"
     height="1.3000019"
     rx="0.65000093"
     id="rect221-2"
     style="fill:url(#linearGradient971);stroke-width:0.324997" />
  <rect
     x="3.1249804"
     y="8.705533"
     width="6.5000067"
     height="1.3000019"
     rx="0.65000093"
     id="rect225-7"
     style="fill:url(#linearGradient4);stroke-width:0.324997;stroke:none;stroke-opacity:1;fill-opacity:1" />
</svg>
