<?xml version="1.0" encoding="UTF-8" standalone="no"?>
<svg
   width="16"
   height="16"
   viewBox="0 0 16 16"
   fill="none"
   version="1.1"
   id="svg5"
   sodipodi:docname="application-x-clementine.svg"
   inkscape:version="1.3 (0e150ed6c4, 2023-07-21)"
   xmlns:inkscape="http://www.inkscape.org/namespaces/inkscape"
   xmlns:sodipodi="http://sodipodi.sourceforge.net/DTD/sodipodi-0.dtd"
   xmlns:xlink="http://www.w3.org/1999/xlink"
   xmlns="http://www.w3.org/2000/svg"
   xmlns:svg="http://www.w3.org/2000/svg">
  <sodipodi:namedview
     id="namedview5"
     pagecolor="#ffffff"
     bordercolor="#000000"
     borderopacity="0.25"
     inkscape:showpageshadow="2"
     inkscape:pageopacity="0.0"
     inkscape:pagecheckerboard="0"
     inkscape:deskcolor="#d1d1d1"
     inkscape:zoom="33.896931"
     inkscape:cx="8.0095747"
     inkscape:cy="10.074658"
     inkscape:window-width="1920"
     inkscape:window-height="994"
     inkscape:window-x="0"
     inkscape:window-y="0"
     inkscape:window-maximized="1"
     inkscape:current-layer="svg5" />
  <path
     d="M 10.561112,6.3843592 C 10.852708,6.8364276 10.425345,7.5089881 9.8907805,7.4332631 9.3746155,7.4206606 9.0711596,6.7422065 9.3990705,6.3352424 9.6716905,5.9319949 10.340065,5.9530402 10.561112,6.3843592 Z"
     id="path1"
     style="fill:url(#paint0_linear);stroke-width:0.123955" />
  <path
     fill-rule="evenodd"
     clip-rule="evenodd"
     d="m 13.969642,12.573626 c 0.20253,0.461248 -0.08188,1.034614 -0.562477,1.234431 -1.512103,0.640812 -3.225435,0.847927 -4.84523,0.573546 -0.442285,-0.06888 -0.8255092,-0.41611 -0.8562385,-0.846406 -0.042972,-0.243886 0.067925,-0.475411 0.1724813,-0.693833 l 0.00933,-0.01935 C 8.154263,12.26263 8.4159187,11.701214 8.6775419,11.139845 9.0265847,10.390912 9.3756012,9.6420725 9.7366725,8.8982274 9.9707737,8.4485991 10.701409,8.3811633 11.014191,8.7767815 c 0.492582,0.6162104 0.981011,1.2351605 1.469469,1.8541515 l 2.6e-5,2e-5 c 0.384124,0.486775 0.768278,0.97357 1.154494,1.459128 0.01864,0.02398 0.03735,0.04795 0.05628,0.07207 0.102467,0.130434 0.2058,0.26209 0.275241,0.411487 z M 10.501943,9.9115801 C 10.105428,10.672478 9.7474096,11.452441 9.3895197,12.23208 9.216668,12.608751 9.04382,12.985203 8.8666959,13.359534 c 1.3324231,0.189034 2.7306221,0.04278 3.9791771,-0.468961 -0.48979,-0.636336 -0.988793,-1.265904 -1.487756,-1.895369 l -2e-6,-1.2e-5 C 11.072136,10.634412 10.78616,10.273634 10.501945,9.9116024 Z M 8.4276394,5.5243781 C 8.6896499,5.9410956 8.3343226,6.542383 7.8204271,6.5773712 6.7049463,6.7113984 5.5884572,6.8409957 4.4721796,6.9705691 l -9.74e-5,1.12e-5 C 4.0256466,7.0224076 3.5792821,7.0742178 3.1329516,7.1263178 2.5379236,7.2243419 1.9097346,6.7387601 1.9680596,6.1587544 2.1141236,4.6596005 2.7760086,3.2082748 3.7872959,2.0331108 4.0144396,1.7289263 4.3710246,1.475701 4.7817646,1.5018613 c 0.3451675,0.00169 0.660291,0.1872011 0.8449869,0.4531332 0.3770992,0.4859547 0.7604785,0.967772 1.1438328,1.4495688 l 2.97e-5,3.11e-5 c 0.5589173,0.7024143 1.1177678,1.404769 1.6570244,2.1197757 z M 4.752442,2.6213296 C 3.8244006,3.5626723 3.2934846,4.815687 3.1030019,6.0700312 3.5475036,6.0181445 3.9919726,5.9663593 4.4363666,5.914583 5.3250364,5.8110451 6.2135705,5.7075341 7.1024167,5.6031766 L 6.9063089,5.3569064 6.9062541,5.3568351 C 6.1832322,4.4489324 5.4601194,3.5409075 4.752442,2.6213296 Z M 8.6927995,8.648702 C 8.8138091,8.4211932 8.8394507,8.1414203 8.6970431,7.9205501 8.5453889,7.6775481 8.2381932,7.5276936 7.936233,7.5709764 6.3432668,7.7506719 4.7509136,7.9356556 3.1606699,8.1302175 2.5832666,8.208335 2.1562646,8.8224543 2.3373586,9.3450464 2.8636556,10.84785 3.9180316,12.174736 5.2828931,13.088637 5.7866458,13.426167 6.5785334,13.206106 6.8116299,12.65745 7.1459091,11.950426 7.4773218,11.241937 7.8087475,10.533437 8.1027658,9.9048925 8.3968024,9.2763234 8.6928422,8.6487044 Z M 5.7280696,8.8874671 C 6.2925046,8.8214706 6.8569256,8.755476 7.4212222,8.689988 7.1304846,9.3979861 6.7993793,10.091696 6.4682275,10.785461 6.2528536,11.23669 6.0374596,11.687934 5.8331598,12.14317 4.7594946,11.389018 3.9182043,10.342621 3.4649056,9.1509246 4.2191886,9.0639323 4.9736536,8.9757014 5.7280696,8.8874671 Z"
     id="path2"
     style="fill:url(#linearGradient7);fill-opacity:1;stroke-width:0.108464" />
  <defs
     id="defs5">
    <linearGradient
       id="linearGradient5"
       inkscape:collect="always">
      <stop
         style="stop-color:#ff9955;stop-opacity:1"
         offset="0"
         id="stop6" />
      <stop
         style="stop-color:#ffd52c;stop-opacity:1;"
         offset="1"
         id="stop7" />
    </linearGradient>
    <linearGradient
       id="paint0_linear"
       x1="50.426014"
       y1="46.241409"
       x2="62.539597"
       y2="35.924961"
       gradientUnits="userSpaceOnUse"
       gradientTransform="matrix(0.01380093,0.12760705,-0.11880819,0.01482306,14.060791,-1.0738659)"
       xlink:href="#paint1_linear">
      <stop
         stop-color="#FD5900"
         id="stop2"
         offset="0"
         style="stop-color:#ff9955;stop-opacity:1;" />
      <stop
         offset="1"
         stop-color="#FFDE00"
         id="stop3" />
    </linearGradient>
    <linearGradient
       id="paint1_linear"
       x1="92.661682"
       y1="93.996132"
       x2="61.775009"
       y2="44.310684"
       gradientUnits="userSpaceOnUse"
       gradientTransform="matrix(0.01344433,0.11630583,-0.11573833,0.01351025,14.334146,-0.39377399)">
      <stop
         stop-color="#FD5900"
         id="stop4"
         style="stop-color:#ff9955;stop-opacity:1" />
      <stop
         offset="1"
         stop-color="#FFDE00"
         id="stop5"
         style="stop-color:#ffcc00;stop-opacity:1" />
    </linearGradient>
    <linearGradient
       inkscape:collect="always"
       xlink:href="#linearGradient5"
       id="linearGradient7"
       x1="5.2161722"
       y1="10.96602"
       x2="11.903895"
       y2="4.0763412"
       gradientUnits="userSpaceOnUse"
       gradientTransform="matrix(0.92857142,0,0,0.92857142,0.57142889,0.57142852)" />
  </defs>
</svg>
