<?xml version="1.0" encoding="UTF-8" standalone="no"?>
<svg
   width="16"
   height="16"
   version="1.1"
   id="svg1"
   sodipodi:docname="wireshark.svg"
   inkscape:version="1.3.2 (091e20ef0f, 2023-11-25)"
   xmlns:inkscape="http://www.inkscape.org/namespaces/inkscape"
   xmlns:sodipodi="http://sodipodi.sourceforge.net/DTD/sodipodi-0.dtd"
   xmlns:xlink="http://www.w3.org/1999/xlink"
   xmlns="http://www.w3.org/2000/svg"
   xmlns:svg="http://www.w3.org/2000/svg">
  <defs
     id="defs1">
    <linearGradient
       inkscape:collect="always"
       xlink:href="#aurora-1"
       id="linearGradient26-3"
       x1="0.5"
       y1="15"
       x2="15.5"
       y2="1"
       gradientUnits="userSpaceOnUse"
       gradientTransform="matrix(0.86666668,0,0,0.92857136,1.0666655,0.5714282)" />
    <linearGradient
       id="aurora-1"
       x1="0"
       x2="0"
       y1="0"
       y2="1">
      <stop
         offset="0"
         style="stop-color:#0066ff;stop-opacity:1"
         id="stop3-4" />
      <stop
         offset="0.5049538"
         style="stop-color:#00d4aa;stop-opacity:1"
         id="stop1-9" />
      <stop
         offset="1"
         style="stop-color:#00a5cf;stop-opacity:1;"
         id="stop4-9" />
    </linearGradient>
    <linearGradient
       id="oomox"
       x1="0"
       x2="0"
       y1="1347.5631"
       y2="1359.8875"
       gradientTransform="scale(1.2982352,0.77027643)"
       gradientUnits="userSpaceOnUse">
      <stop
         offset="0%"
         style="stop-color:#303b3d; stop-opacity:1"
         id="stop7" />
      <stop
         offset="100%"
         style="stop-color:#bc985d; stop-opacity:1"
         id="stop8" />
    </linearGradient>
    <linearGradient
       inkscape:collect="always"
       xlink:href="#aurora-1"
       id="linearGradient2"
       x1="0"
       y1="1042.7427"
       x2="27.661427"
       y2="1048.0502"
       gradientUnits="userSpaceOnUse" />
  </defs>
  <sodipodi:namedview
     id="namedview1"
     pagecolor="#ffffff"
     bordercolor="#000000"
     borderopacity="0.25"
     inkscape:showpageshadow="2"
     inkscape:pageopacity="0.0"
     inkscape:pagecheckerboard="0"
     inkscape:deskcolor="#d1d1d1"
     inkscape:zoom="16.948466"
     inkscape:cx="5.8412366"
     inkscape:cy="-2.4485992"
     inkscape:window-width="1920"
     inkscape:window-height="994"
     inkscape:window-x="0"
     inkscape:window-y="0"
     inkscape:window-maximized="1"
     inkscape:current-layer="svg1" />
  <path
     class="ColorScheme-Text"
     d="M 2.8928558,1.5 C 2.1295705,1.5 1.5,2.2345 1.5,3.125 v 9.75 c 0,0.891574 0.6295705,1.625 1.3928558,1.625 H 13.107141 C 13.870435,14.5 14.5,13.766574 14.5,12.875 V 3.125 C 14.5,2.2345 13.870436,1.5 13.107141,1.5 Z m 0,1.083332 h 3.2500001 0.9285708 v 0 h 3.5285723 v 0 0 0 h 2.507141 c 0.265565,0 0.462474,0.232925 0.464281,0.541668 l -4.16e-4,9.20833 H 12.999996 2.9999999 2.3746375 L 2.4285687,3.125 C 2.430364,2.816257 2.627284,2.583332 2.8928538,2.583332 Z m 4.1785709,0 h 1.8571446 v 0 0 z"
     font-family="sans-serif"
     font-weight="400"
     overflow="visible"
     id="path22-2"
     sodipodi:nodetypes="sssssssssscccccccssccccssccccc"
     style="color:#d5c289;fill:url(#linearGradient26-3);stroke-width:0.897079" />
  <g
     transform="matrix(0.78930082,0,0,0.78930082,1.7171506,-813.6646)"
     id="g22">
    <path
       style="color:#d5c289;fill:none;stroke:url(#linearGradient2);stroke-opacity:1"
       class="ColorScheme-Text"
       stroke-width="1"
       d="m 0,1046.9893 h 4.06701 c 0,0 0.6566,-8.3634 7.95786,-8.4786 -2.35524,3.686 -0.14777,8.4786 -0.14777,8.4786 H 16"
       id="path22" />
  </g>
</svg>
