<?xml version="1.0" encoding="UTF-8" standalone="no"?>
<svg
   width="16"
   height="16"
   viewBox="0 0 16 16"
   fill="none"
   version="1.1"
   id="svg5"
   sodipodi:docname="kcachegrind.svg"
   inkscape:version="1.3 (0e150ed6c4, 2023-07-21)"
   xmlns:inkscape="http://www.inkscape.org/namespaces/inkscape"
   xmlns:sodipodi="http://sodipodi.sourceforge.net/DTD/sodipodi-0.dtd"
   xmlns="http://www.w3.org/2000/svg"
   xmlns:svg="http://www.w3.org/2000/svg">
  <sodipodi:namedview
     id="namedview5"
     pagecolor="#ffffff"
     bordercolor="#000000"
     borderopacity="0.25"
     inkscape:showpageshadow="2"
     inkscape:pageopacity="0.0"
     inkscape:pagecheckerboard="0"
     inkscape:deskcolor="#d1d1d1"
     inkscape:zoom="11.984375"
     inkscape:cx="3.4211213"
     inkscape:cy="7.9687093"
     inkscape:window-width="1920"
     inkscape:window-height="994"
     inkscape:window-x="0"
     inkscape:window-y="0"
     inkscape:window-maximized="1"
     inkscape:current-layer="svg5" />
  <path
     d="m 8.8442666,7.999978 -0.844243,0.859227 3.3627164,3.154496 0.847295,-0.859239 z"
     fill="url(#paint0_linear_714_6)"
     id="path1"
     style="fill:url(#paint0_linear_714_6);stroke-width:0.116071" />
  <path
     fill-rule="evenodd"
     clip-rule="evenodd"
     d="m 7.3344496,1.5333126 c 0.22693,-0.022974 0.455033,-0.034239 0.683124,-0.03325 0.21689,7.997e-4 0.433537,0.012603 0.649267,0.035064 0.0681,0.00711 0.131926,0.036606 0.181477,0.083865 0.04955,0.047258 0.08204,0.109614 0.09238,0.1773054 l 0.113646,0.7436088 c 0.02895,0.00527 0.05794,0.010342 0.08694,0.015426 0.09992,0.017504 0.199886,0.035019 0.298163,0.060148 0.0016,3.946e-4 0.0032,7.892e-4 0.0048,0.00121 0.100785,0.02752 0.199167,0.062632 0.297548,0.097732 h 1.2e-5 c 0.02573,0.00918 0.05148,0.018362 0.07725,0.027416 L 10.284548,2.1602525 c 0.04286,-0.053486 0.102282,-0.091232 0.168907,-0.1073192 0.06663,-0.016076 0.136708,-0.0096 0.199259,0.018444 0.406898,0.1819877 0.794042,0.4050413 1.155254,0.6662242 0.05555,0.040172 0.09619,0.097639 0.115561,0.1633932 0.01936,0.065766 0.01635,0.1360932 -0.0086,0.1999555 L 11.638657,3.810701 c 0.195557,0.17095 0.377869,0.355445 0.547751,0.551964 l 0.714533,-0.278698 c 0.06372,-0.02483 0.13383,-0.02784 0.199526,-0.0086 0.06558,0.01926 0.122919,0.05968 0.163196,0.115004 0.261508,0.360574 0.485525,0.747172 0.667988,1.153501 0.02809,0.06255 0.03447,0.132635 0.01845,0.199271 -0.01613,0.06663 -0.05386,0.126042 -0.107365,0.168907 l -0.599623,0.480626 c 0.08427,0.245386 0.151241,0.495519 0.200687,0.75026 l 0.761658,0.116686 c 0.06779,0.01038 0.130231,0.04296 0.177472,0.09262 0.04724,0.04968 0.07672,0.113645 0.08369,0.181848 0.04504,0.443032 0.04446,0.889557 -0.0019,1.33246 -0.0071,0.06802 -0.03645,0.131776 -0.08357,0.181327 -0.04713,0.04954 -0.109339,0.08209 -0.176892,0.09254 l -0.744247,0.11426 c -0.0052,0.02874 -0.01022,0.05753 -0.01532,0.08632 v 1.16e-4 1.16e-4 c -0.01753,0.09986 -0.03505,0.199747 -0.06024,0.297943 l -6.97e-4,0.0029 -4.64e-4,0.0019 c -0.02716,0.09945 -0.06187,0.196484 -0.09657,0.293531 -0.0098,0.02728 -0.01962,0.05457 -0.02913,0.0819 l 0.581516,0.466118 c 0.05339,0.04284 0.091,0.102142 0.107133,0.168651 0.01602,0.0665 0.0096,0.136453 -0.01822,0.198934 -0.181999,0.406934 -0.405088,0.794088 -0.666248,1.155324 -0.04016,0.05554 -0.09762,0.09619 -0.163427,0.115549 -0.0657,0.01937 -0.136036,0.01637 -0.199875,-0.0085 l -0.709774,-0.276284 c -0.17081,0.195441 -0.354875,0.377974 -0.551291,0.547705 l 0.278698,0.714649 c 0.02497,0.06372 0.02807,0.134062 0.0088,0.199758 -0.01924,0.06581 -0.05978,0.123267 -0.115212,0.163544 -0.36076,0.261508 -0.747532,0.484945 -1.154059,0.667408 -0.06254,0.02809 -0.132623,0.03459 -0.199247,0.01845 -0.06664,-0.01602 -0.126042,-0.05386 -0.168907,-0.107249 L 9.8068736,13.243721 c -0.245177,0.08427 -0.495101,0.151241 -0.749622,0.200687 l -0.117278,0.761774 c -0.01048,0.06767 -0.04312,0.129883 -0.09277,0.177124 -0.04967,0.04712 -0.113564,0.07649 -0.181686,0.08345 -0.442788,0.04492 -0.889116,0.04434 -1.331787,-0.0019 -0.06802,-0.0071 -0.131764,-0.03645 -0.181315,-0.08357 -0.04954,-0.04712 -0.08207,-0.109339 -0.09253,-0.177008 l -0.114158,-0.744089 c -0.0292,-0.0053 -0.05845,-0.01045 -0.0877,-0.01567 -0.09967,-0.01741 -0.199375,-0.03482 -0.297385,-0.05989 l -0.0024,-6.96e-4 -0.0024,-5.81e-4 c -0.09986,-0.02728 -0.197112,-0.06198 -0.294484,-0.09669 h -1.1e-5 c -0.02674,-0.0095 -0.0535,-0.01903 -0.08031,-0.02844 l -0.466094,0.581516 c -0.04284,0.05339 -0.102143,0.091 -0.16864,0.107133 -0.0665,0.01602 -0.136453,0.0096 -0.198922,-0.01822 -0.406911,-0.181999 -0.794042,-0.405088 -1.155267,-0.666248 -0.05554,-0.04016 -0.09619,-0.09762 -0.115548,-0.163427 -0.01936,-0.0657 -0.01635,-0.136036 0.0086,-0.199875 l 0.276272,-0.709774 c -0.195637,-0.17088 -0.378391,-0.354898 -0.548319,-0.55136 l -0.7145563,0.278698 c -0.063793,0.02497 -0.1340736,0.02808 -0.1998162,0.0088 -0.065754,-0.01926 -0.1232558,-0.05978 -0.1635092,-0.115223 -0.2615312,-0.360784 -0.4849446,-0.747567 -0.6673966,-1.154106 -0.028194,-0.06262 -0.034763,-0.132843 -0.018676,-0.199607 0.016087,-0.06675 0.053915,-0.126274 0.1075398,-0.169185 L 2.7569232,9.806739 C 2.6726673,9.561527 2.6055666,9.311638 2.5562249,9.057083 L 1.794509,8.940408 C 1.726728,8.930038 1.6643064,8.897458 1.6170399,8.847798 1.5697739,8.798118 1.5403379,8.734153 1.5333519,8.665938 1.4883849,8.222907 1.4889199,7.776382 1.5351719,7.33349 c 0.00708,-0.06803 0.036487,-0.131787 0.083623,-0.181326 0.047136,-0.04955 0.1093505,-0.08209 0.1769328,-0.09254 l 0.7441776,-0.11426 c 0.00525,-0.0288 0.010307,-0.05763 0.015368,-0.08646 v -2.4e-5 c 0.017527,-0.09988 0.035065,-0.199804 0.060206,-0.298023 3.83e-4,-0.0016 7.777e-4,-0.0032 0.0012,-0.0048 0.027068,-0.099 0.061692,-0.195591 0.096316,-0.292185 v 0 l 2.32e-5,-7e-5 c 0.00985,-0.02751 0.019721,-0.05502 0.029401,-0.08257 L 2.1602487,5.714459 c -0.053346,-0.04283 -0.091,-0.102131 -0.1070755,-0.16864 -0.016076,-0.0665 -0.00968,-0.136453 0.018211,-0.198934 0.1819761,-0.406921 0.4050297,-0.794076 0.6662011,-1.155312 0.04016,-0.05555 0.097627,-0.09619 0.1633815,-0.115561 0.065754,-0.01936 0.1360816,-0.01635 0.1999323,0.0086 L 3.8112306,4.361499 C 3.9820986,4.166047 4.1661526,3.983526 4.3625676,3.81376 L 4.0838696,3.0991242 c -0.02497,-0.063793 -0.02807,-0.1340736 -0.0088,-0.1998279 0.01926,-0.065754 0.05978,-0.1232557 0.115212,-0.1635092 0.36076,-0.2615543 0.747532,-0.4849678 1.154059,-0.6674314 0.06254,-0.028043 0.132622,-0.034531 0.199247,-0.018444 0.06664,0.016076 0.126042,0.053822 0.168907,0.1073076 l 0.480603,0.5997272 c 0.245177,-0.084302 0.495101,-0.1513218 0.749621,-0.20071 l 0.117279,-0.7623542 c 0.01049,-0.067678 0.04312,-0.1299647 0.09278,-0.1771139 0.04967,-0.047149 0.113564,-0.0765 0.181686,-0.083456 z m 0.665574,11.1095054 c 1.27771,0 2.4348794,-0.516122 3.2743754,-1.351264 2.66e-4,-2.21e-4 5.33e-4,-4.64e-4 7.89e-4,-7.2e-4 0.844788,-0.840795 1.367676,-2.004731 1.367676,-3.290798 0,-2.354291 -1.752301,-4.299316 -4.0238334,-4.6019362 V 7.042984 c 0.479501,0.220071 0.812497,0.704423 0.812497,1.266555 0,0.769249 -0.623603,1.392852 -1.392852,1.392852 -0.769249,0 -1.392852,-0.623603 -1.392852,-1.392852 0,-0.562132 0.332996,-1.046484 0.812497,-1.266555 V 3.3883963 C 5.1493786,3.656648 3.3571843,5.619049 3.3571843,7.999978 c 0,2.564171 2.0786693,4.64284 4.6428393,4.64284 z"
     fill="url(#paint1_linear_714_6)"
     id="path2"
     style="fill:url(#paint1_linear_714_6);stroke-width:0.116071" />
  <defs
     id="defs5">
    <linearGradient
       id="paint0_linear_714_6"
       x1="99.045197"
       y1="64.988403"
       x2="86.023804"
       y2="99.283302"
       gradientUnits="userSpaceOnUse"
       gradientTransform="matrix(0.11607099,0,0,0.11607099,0.57148061,0.57143459)">
      <stop
         stop-color="#FE0F7C"
         id="stop2" />
      <stop
         offset="1"
         stop-color="#DF0066"
         id="stop3" />
    </linearGradient>
    <linearGradient
       id="paint1_linear_714_6"
       x1="64"
       y1="120.001"
       x2="64"
       y2="8"
       gradientUnits="userSpaceOnUse"
       gradientTransform="matrix(0.11607099,0,0,0.11607099,0.57148061,0.57143459)">
      <stop
         stop-color="#5570FF"
         id="stop4" />
      <stop
         offset="1"
         stop-color="#4DD3FF"
         id="stop5" />
    </linearGradient>
  </defs>
</svg>
