<?xml version="1.0" encoding="UTF-8" standalone="no"?>
<svg
   version="1.1"
   viewBox="0 0 16 16"
   id="svg28"
   sodipodi:docname="org.kde.knights.svg"
   inkscape:version="1.3 (0e150ed6c4, 2023-07-21)"
   width="16"
   height="16"
   xmlns:inkscape="http://www.inkscape.org/namespaces/inkscape"
   xmlns:sodipodi="http://sodipodi.sourceforge.net/DTD/sodipodi-0.dtd"
   xmlns:xlink="http://www.w3.org/1999/xlink"
   xmlns="http://www.w3.org/2000/svg"
   xmlns:svg="http://www.w3.org/2000/svg">
  <sodipodi:namedview
     id="namedview30"
     pagecolor="#ffffff"
     bordercolor="#666666"
     borderopacity="1.0"
     inkscape:showpageshadow="2"
     inkscape:pageopacity="0.0"
     inkscape:pagecheckerboard="0"
     inkscape:deskcolor="#d1d1d1"
     showgrid="false"
     inkscape:zoom="39.333334"
     inkscape:cx="8.1355932"
     inkscape:cy="8.0466101"
     inkscape:window-width="1920"
     inkscape:window-height="994"
     inkscape:window-x="0"
     inkscape:window-y="0"
     inkscape:window-maximized="1"
     inkscape:current-layer="svg28" />
  <defs
     id="defs12">
    <linearGradient
       id="b"
       x1="15.425"
       x2="31.702721"
       y1="13.05"
       y2="30.814844"
       gradientTransform="matrix(1.0041687,0,0,0.94967539,386.73655,504.5339)"
       gradientUnits="userSpaceOnUse">
      <stop
         offset="0"
         id="stop2" />
      <stop
         stop-opacity="0"
         offset="1"
         id="stop4" />
    </linearGradient>
    <linearGradient
       id="a"
       x1="30.207001"
       x2="14"
       y1="43"
       y2="10"
       gradientTransform="matrix(-1,0,0,1,432.30321,499.798)"
       gradientUnits="userSpaceOnUse">
      <stop
         stop-color="#cebee5"
         offset="0"
         id="stop7" />
      <stop
         stop-color="#f1f1f1"
         offset="1"
         id="stop9" />
    </linearGradient>
    <linearGradient
       id="linearGradient4416">
      <stop
         style="stop-color:#ffffff;stop-opacity:0"
         offset="0"
         id="stop2-5" />
      <stop
         style="stop-color:#ffffff;stop-opacity:1"
         offset="1"
         id="stop4-3" />
    </linearGradient>
    <linearGradient
       inkscape:collect="always"
       xlink:href="#linearGradient4"
       id="linearGradient2"
       x1="10.707617"
       y1="31.534513"
       x2="37.173615"
       y2="31.534513"
       gradientUnits="userSpaceOnUse"
       gradientTransform="matrix(0.49119628,0,0,0.49119635,-3.7595399,-7.4896383)" />
    <linearGradient
       id="linearGradient4"
       inkscape:collect="always">
      <stop
         style="stop-color:#00b1b1;stop-opacity:1;"
         offset="0"
         id="stop3" />
      <stop
         style="stop-color:#9955ff;stop-opacity:1"
         offset="1"
         id="stop4-2" />
    </linearGradient>
    <linearGradient
       id="a-9">
      <stop
         offset="0"
         id="stop1433" />
      <stop
         offset="1"
         stop-opacity="0"
         id="stop1435" />
    </linearGradient>
    <linearGradient
       inkscape:collect="always"
       xlink:href="#linearGradient4"
       id="linearGradient6"
       x1="4.6999998"
       y1="8"
       x2="10.700076"
       y2="8"
       gradientUnits="userSpaceOnUse" />
  </defs>
  <path
     id="circle2"
     style="opacity:0.99;fill:url(#linearGradient2);fill-opacity:1;stroke-width:0.491199"
     d="M 14.499999,8.0000008 A 6.4999993,6.5000004 0 0 1 8.0000001,14.5 6.4999993,6.5000004 0 0 1 1.5000011,8.0000008 6.4999993,6.5000004 0 0 1 8.0000001,1.4999997 6.4999993,6.5000004 0 0 1 14.499999,8.0000008 Z" />
  <path
     id="circle858"
     style="fill:#1c202f;fill-opacity:1;stroke-width:0.417883"
     d="M 13.529826,8.0000008 A 5.5298259,5.5298271 0 0 1 8.0000001,13.529826 5.5298259,5.5298271 0 0 1 2.4701741,8.0000008 5.5298259,5.5298271 0 0 1 8.0000001,2.4701737 5.5298259,5.5298271 0 0 1 13.529826,8.0000008 Z" />
  <path
     id="ellipse913-0-2"
     d="m 7.7497497,4.0004785 c -0.01923,-2.35e-4 -0.03741,0.0027 -0.05051,0.0132 -0.01246,0.0097 -0.01889,0.02631 -0.01489,0.04624 v 9.84e-4 c 0.02046,0.076 0.03745,0.155362 0.05401,0.235188 l -0.18314,-0.06152 v -2.14e-4 c -0.01787,-0.0063 -0.03865,-0.0074 -0.05935,-0.0065 -0.02052,0.0012 -0.04075,0.0071 -0.05772,0.0141 -0.01692,0.0075 -0.03105,0.01812 -0.03712,0.03211 -0.0064,0.01414 -0.0019,0.03101 0.01166,0.04689 l 2.49e-4,2.05e-4 c 0.04657,0.04547 0.09218,0.09393 0.137617,0.142738 -0.549552,0.0417 -0.764134,0.336149 -1.179946,0.619926 a 0.16026258,1.51332 57.677204 0 0 -0.340386,0.206218 c -0.40255,0.219782 -0.807162,0.3865 -1.219007,0.769687 -0.111027,0.09263 -0.140097,0.211085 -0.08193,0.356835 l 0.05619,0.128246 c 0.03529,0.06283 0.05649,0.117309 0.158512,0.125479 l 0.128427,0.0014 a 0.45786413,0.31816499 26.707981 0 0 0.222451,0.05282 l -0.125904,0.118443 c -0.03938,0.13938 0.42964,0.348011 0.706174,-0.127611 a 0.38596019,0.07798607 67.66524 0 0 9.91e-4,9.97e-4 c 0.01042,-0.01818 0.02086,-0.03724 0.03083,-0.05733 1.09e-4,-2.11e-4 1.43e-4,-9.39e-4 2.47e-4,-9.82e-4 4.03e-4,-9.96e-4 9.91e-4,-0.0011 9.91e-4,-0.0019 0.03283,2.4e-5 0.06504,-9.85e-4 0.09708,-0.0011 a 0.38596019,0.07798607 67.66524 0 0 -4.34e-4,-9.96e-4 c 0.03095,-9.97e-4 0.06231,-0.0011 0.09234,-0.0032 0,0 2.45e-4,0 2.45e-4,0 0.04732,-0.0029 0.09315,-0.0085 0.137636,-0.01496 0.0062,-9.96e-4 0.01151,-9.96e-4 0.01764,-0.0015 0.01015,-0.0011 0.01876,-0.0048 0.02839,-0.0061 0.0061,-9.97e-4 0.01112,-0.0015 0.0169,-0.0024 0.0041,-9.97e-4 0.0084,-0.0019 0.0133,-0.0027 0.0074,-0.0011 0.01434,-0.0023 0.02141,-0.0033 0.0175,-0.0032 0.03484,-0.0085 0.05175,-0.01328 0.01394,-0.0032 0.02776,-0.0083 0.04123,-0.01273 0.01316,-0.0032 0.027,-0.009 0.0401,-0.01448 0.02627,-0.0099 0.05151,-0.02181 0.0756,-0.03473 0.01151,-0.0067 0.02393,-0.01336 0.03536,-0.02049 0.01123,-0.0073 0.02267,-0.01449 0.03355,-0.02232 0.0066,-0.0066 0.01229,-0.01052 0.02024,-0.01513 0.02144,-0.01252 0.04682,-0.01723 0.07207,-0.01615 l -9.91e-4,0.01496 c 0.02921,0.0032 0.05709,0.01591 0.0772,0.03431 0.09483,0.07646 0.198335,0.168529 0.369259,0.177456 a 0.63546879,0.58672469 26.812886 0 0 0.25007,-0.0082 0.63546879,0.58672469 26.812886 0 0 0.16174,-0.06374 0.13404419,0.5660582 13.017764 0 0 0.0133,0.126752 c -0.0064,0.02314 -0.0107,0.04647 -0.01847,0.06947 a 0.75128204,0.49400158 0 0 0 0.01123,-0.0048 c -0.0015,0.0073 -0.0024,0.01494 -0.0066,0.02219 -7.1e-5,2.1e-4 -1.76e-4,9.37e-4 -2.47e-4,9.88e-4 0,0 -2.48e-4,2.11e-4 -2.48e-4,2.11e-4 -2.44e-4,9.97e-4 -4.36e-4,9.97e-4 -9.91e-4,0.0017 -9.91e-4,0.0015 -9.91e-4,0.0048 -0.0014,0.0066 -0.0024,0.0094 -0.0073,0.01917 -0.01042,0.02871 -0.01365,0.03672 -0.02886,0.07337 -0.04557,0.109662 -0.206472,0.452296 -0.606501,0.880268 -0.671342,1.3849321 a 1.688127,0.72347828 0 0 0 -0.190352,0.3336129 1.688127,0.72347828 0 0 0 9.91e-4,0.02409 c -2.41e-4,-3.51e-4 -4.41e-4,-9.97e-4 -9.91e-4,-9.97e-4 l -0.0064,0.71814 c 4.45e-4,9.97e-4 9.91e-4,0.0015 0.0011,0.0023 a 2.4028587,1.1538315 0 0 0 -0.740267,0.8327525 2.4028587,1.1538315 0 0 0 9.91e-4,0.03209 2.4028587,1.1538315 0 0 0 0,9.97e-4 l -9.91e-4,0.531302 c 0,0.637241 1.075882,1.153791 2.402946,1.153791 1.327058,0 2.4029343,-0.51655 2.4029343,-1.153791 l 9.91e-4,-0.57306 c 5.1e-5,-0.02176 -0.0015,-0.04258 -0.0064,-0.0629 -6.1e-5,-3.65e-4 -1.84e-4,-9.97e-4 -2.48e-4,-9.97e-4 A 2.4028587,1.1538315 0 0 0 10.007882,9.4724924 l 9.91e-4,-0.720695 a 1.688127,0.72347828 0 0 0 0.0024,-0.04645 1.688127,0.72347828 0 0 0 -0.193866,-0.336737 c 0.07731,-0.8714211 0.226857,-1.1751011 0.270721,-1.632474 0,0 0,-2.11e-4 0,-2.11e-4 0.02143,-0.2231571 0.01758,-0.483624 -0.03239,-0.865989 -0.0059,-0.0338 -0.01132,-0.06655 -0.01889,-0.09905 -9.1e-5,-9.84e-4 -1.53e-4,-9.97e-4 -2.45e-4,-9.97e-4 -9.91e-4,-0.003 -9.91e-4,-0.0072 -0.0015,-0.0097 -0.0056,-0.01848 -0.01015,-0.03608 -0.01437,-0.05414 -1.68e-4,-9.86e-4 -3.39e-4,-9.97e-4 -4.35e-4,-0.0015 -0.0019,-0.0091 -0.0056,-0.01913 -0.0076,-0.02856 -4.36e-4,-0.0016 -9.91e-4,-0.0048 -0.0011,-0.0068 0,0 0,-2.1e-4 0,-2.1e-4 -0.0095,-0.03187 -0.01957,-0.06297 -0.03061,-0.09334 -1.62e-4,-9.88e-4 -3.46e-4,-9.96e-4 -4.4e-4,-9.96e-4 -0.0059,-0.01501 -0.01098,-0.02987 -0.01713,-0.04456 -0.0024,-0.0088 -0.008,-0.01806 -0.01111,-0.02709 -1.8e-4,-9.84e-4 -3.1e-4,-9.96e-4 -4.35e-4,-9.96e-4 -9.5e-5,-2.17e-4 -1.64e-4,-9.86e-4 -2.56e-4,-9.86e-4 -0.01707,-0.04037 -0.03557,-0.07957 -0.05579,-0.1171821 -4.37e-4,-9.97e-4 -9.91e-4,-0.0015 -9.91e-4,-0.0024 -0.0015,-0.0048 -0.0024,-0.0073 -0.0061,-0.01051 -4.41e-4,-9.96e-4 -9.91e-4,-0.0019 -0.0015,-0.0032 -3.1e-4,-9.85e-4 -4.38e-4,-9.961e-4 -9.91e-4,-0.0014 -7.6e-5,-1.471e-4 -1.65e-4,-2.951e-4 -2.51e-4,-9.4e-4 -2.2e-4,-9.85e-4 -2.69e-4,-9.96e-4 -4.31e-4,-9.96e-4 -9.91e-4,-0.0014 -0.0015,-0.0024 -0.0024,-0.0054 -0.02416,-0.0431 -0.05037,-0.08425 -0.07817,-0.1237721 -0.0056,-0.0065 -0.0081,-0.01211 -0.01198,-0.01784 0,0 -2.45e-4,-2.14e-4 -2.45e-4,-2.14e-4 -1.61e-4,-2.221e-4 -3.47e-4,-9.41e-4 -4.43e-4,-9.82e-4 -1.56e-4,-2.171e-4 -3.37e-4,-9.411e-4 -4.35e-4,-9.9e-4 -2.55e-4,-3.44e-4 -4.38e-4,-9.97e-4 -9.91e-4,-9.97e-4 -0.0183,-0.02505 -0.03717,-0.04943 -0.05679,-0.0731 -3.42e-4,-9.361e-4 -4.46e-4,-9.96e-4 -9.91e-4,-9.96e-4 -0.0069,-0.0081 -0.01409,-0.01545 -0.02088,-0.02338 0,0 -2.48e-4,0 -2.48e-4,0 0,0 0,-2.199e-4 0,-2.199e-4 -3.06e-4,-3.63e-4 -4.39e-4,-9.97e-4 -9.91e-4,-9.97e-4 -0.0285,-0.03272 -0.0586,-0.06355 -0.08939,-0.09351 -0.008,-0.0076 -0.01487,-0.01657 -0.02294,-0.02409 0,0 -2.52e-4,-2.069e-4 -2.52e-4,-2.069e-4 -0.0056,-0.0048 -0.0081,-0.0078 -0.01227,-0.0114 -0.04288,-0.03927 -0.0877,-0.07607 -0.134137,-0.110519 -0.01042,-0.0078 -0.0218,-0.0145 -0.03257,-0.0222 -0.03726,-0.02632 -0.07492,-0.05177 -0.113901,-0.07515 0,0 -2.51e-4,-2.09e-4 -2.51e-4,-2.09e-4 0,0 -2.47e-4,-2.189e-4 -2.47e-4,-2.189e-4 -0.0019,-9.97e-4 -0.0041,-0.0027 -0.0074,-0.0054 -2.43e-4,-1.441e-4 -4.41e-4,-2.841e-4 -9.91e-4,-9.4e-4 -0.0014,-9.961e-4 -0.0041,-0.0024 -0.0066,-0.0032 -0.01151,-0.0072 -0.0248,-0.0126 -0.03672,-0.01931 -0.03427,-0.01928 -0.06869,-0.03805 -0.103711,-0.05513 -0.0073,-0.0032 -0.0133,-0.0074 -0.02064,-0.01051 -2.62e-4,-1.239e-4 -4.44e-4,-2.839e-4 -9.91e-4,-9.85e-4 -9.91e-4,-9.829e-4 -0.0011,-9.97e-4 -0.0019,-9.97e-4 -0.01042,-0.0056 -0.02146,-0.0088 -0.0321,-0.01366 -0.03419,-0.01545 -0.06833,-0.03007 -0.103002,-0.04371 -0.01958,-0.0076 -0.03902,-0.0157 -0.05876,-0.02288 -0.03559,-0.01294 -0.07148,-0.02464 -0.107251,-0.03581 -0.01042,-0.003 -0.02112,-0.0073 -0.03165,-0.01 -3.4e-4,-1.06e-4 -4.4e-4,-3.16e-4 -9.91e-4,-9.85e-4 -0.0061,-0.0014 -0.01053,-0.003 -0.01653,-0.0056 -1.44e-4,-3.59e-5 -3.36e-4,4.61e-5 -4.32e-4,0 -0.0011,-9.809e-4 -0.0024,-9.959e-4 -0.0056,-9.959e-4 -3.51e-4,-9.21e-5 -4.45e-4,-1.161e-4 -9.91e-4,-2.09e-4 -0.04639,-0.0133 -0.09252,-0.02493 -0.138617,-0.03531 -3.42e-4,-7.6e-5 -9.92e-4,-1.381e-4 -9.92e-4,-2.1e-4 -9.91e-4,-1.731e-4 -9.91e-4,-9.871e-4 -0.0015,-9.871e-4 -0.0056,-9.97e-4 -0.01042,-0.0024 -0.01597,-0.0048 -4.23e-4,-8.99e-5 -9.91e-4,-1.19e-4 -9.91e-4,-2.109e-4 -3.43e-4,-7.6e-5 -9.92e-4,-1.39e-4 -9.92e-4,-2.15e-4 -9.91e-4,-1.61e-4 -9.91e-4,-2.61e-4 -0.0014,-9.87e-4 -0.0069,-9.97e-4 -0.01225,-0.0019 -0.01925,-0.0048 0,0 -2.46e-4,0 -2.46e-4,0 -0.04447,-0.0088 -0.08842,-0.01743 -0.131865,-0.02409 -0.0041,-9.97e-4 -0.0083,-0.0015 -0.0128,-0.0019 -0.01316,-0.0014 -0.02626,-0.0024 -0.03955,-0.005 -9.91e-4,-8.9e-5 -9.91e-4,-1.239e-4 -0.0014,-2.129e-4 -9.91e-4,-1.541e-4 -0.0015,-2.641e-4 -0.0024,-9.861e-4 -0.03214,-0.0048 -0.06409,-0.0083 -0.09527,-0.01051 -0.01151,-9.969e-4 -0.02416,-0.0019 -0.0361,-0.0027 L 7.85762,4.0399286 c -0.01211,-0.01226 -0.02984,-0.02225 -0.04868,-0.02926 -0.01893,-0.0072 -0.03953,-0.01038 -0.05876,-0.01051 z"
     style="fill:url(#linearGradient6)" />
  <g
     id="g2011-3-2"
     style="opacity:0.472631"
     transform="matrix(1.1621484,0,0,0.99496715,-5.6051263,-3.4692425)">
    <path
       id="path1966-7-8"
       style="fill:#161616;fill-opacity:0.139457;stroke:none;stroke-width:0.131314;stroke-linecap:round;stroke-linejoin:round;stroke-miterlimit:4;stroke-dasharray:none;stroke-dashoffset:1;stroke-opacity:1"
       d="m 43.433594,28.373047 v 0.002 c -0.06229,-8.97e-4 -0.121467,0.0128 -0.164063,0.05078 -0.04237,0.03785 -0.06198,0.100208 -0.04883,0.175781 v 0.002 c 0.06667,0.288852 0.122262,0.589341 0.175781,0.892578 l -0.595703,-0.234375 c -0.05817,-0.02207 -0.126536,-0.02933 -0.193359,-0.02344 -0.06679,0.0059 -0.132205,0.02608 -0.1875,0.05469 -0.0553,0.02884 -0.101478,0.06756 -0.121094,0.121093 -0.01965,0.05354 -0.0066,0.117348 0.04102,0.177735 v 0.002 c 0.151184,0.172592 0.299358,0.355398 0.447265,0.541016 -1.787302,0.158709 -2.485579,1.27749 -3.83789,2.355468 a 0.57929702,5.1722946 53.431278 0 0 -1.105469,0.783204 c -1.309201,0.834896 -2.625424,1.468193 -3.964844,2.923828 -0.361048,0.351867 -0.455032,0.80181 -0.265625,1.355468 l 0.181641,0.488282 c 0.09275,0.193082 0.162531,0.360392 0.359375,0.435546 -0.110911,-0.08924 -0.172677,-0.220374 -0.244141,-0.36914 l -0.18164,-0.488281 c -0.189408,-0.553659 -0.09542,-1.003601 0.265625,-1.355469 1.33942,-1.455634 2.655641,-2.088932 3.964843,-2.923828 a 0.57929702,5.1722946 53.431278 0 1 1.107422,-0.783203 c 1.352312,-1.077979 2.048636,-2.19676 3.835938,-2.355469 -0.147907,-0.185618 -0.296082,-0.368424 -0.447266,-0.541016 v -0.002 c -0.04758,-0.06039 -0.05872,-0.1242 -0.03906,-0.177734 0.01962,-0.05354 0.06385,-0.09226 0.11914,-0.121094 0.0553,-0.02861 0.122668,-0.04883 0.189453,-0.05469 0.06682,-0.0059 0.133239,0.0014 0.191407,0.02344 L 43.511719,29.5625 C 43.4582,29.259263 43.40261,28.958774 43.335938,28.669922 v -0.002 c -0.01315,-0.07557 0.0065,-0.137933 0.04883,-0.175781 0.0426,-0.03798 0.101774,-0.05168 0.164062,-0.05078 v -0.002 c 0.052,7.52e-4 0.107369,0.01646 0.160156,0.03516 -0.02807,-0.01997 -0.05135,-0.04464 -0.08398,-0.05859 -0.06164,-0.02615 -0.129194,-0.04207 -0.191406,-0.04297 z m 1.753906,1.736328 0.04883,0.05859 c 0.03874,0.0036 0.07796,0.0095 0.117188,0.01367 0.101747,0.0108 0.204087,0.02525 0.308593,0.04102 0.0034,5.72e-4 0.008,0.0014 0.01172,0.002 0.0023,3.34e-4 0.0037,-3.38e-4 0.0059,0 0.04335,0.0067 0.08521,0.0099 0.128906,0.01758 0.01406,0.0027 0.02898,0.0072 0.04297,0.0098 0.141429,0.02533 0.285232,0.05469 0.429688,0.08984 0.0209,0.0054 0.04133,0.01018 0.0625,0.01563 0.0023,6.13e-4 0.0053,-6.22e-4 0.0078,0 0.0011,2.79e-4 0.0028,0.0017 0.0039,0.002 0,0 0.002,0 0.002,0 0.01701,0.0045 0.03573,0.01113 0.05273,0.01563 0.0023,6.4e-4 0.0053,0.0013 0.0078,0.002 0,0 0.002,0.002 0.002,0.002 0.149676,0.03942 0.300328,0.08438 0.451172,0.134766 0.0011,3.56e-4 0.0028,-3.56e-4 0.0039,0 0.0053,0.0019 0.01033,0.0021 0.01563,0.0039 0,0 0.002,0 0.002,0 0.01788,0.0059 0.03497,0.01322 0.05273,0.01953 0.0013,3.92e-4 0.0028,0.0016 0.0039,0.002 0.03428,0.01172 0.06912,0.02648 0.103515,0.03906 0.116563,0.04241 0.231661,0.08742 0.347657,0.136719 0.0641,0.02722 0.127644,0.05664 0.191406,0.08594 0.112632,0.052 0.22294,0.107118 0.333984,0.166016 0.02171,0.01154 0.04452,0.02074 0.06641,0.03125 -0.02187,-0.01278 -0.04456,-0.02646 -0.06641,-0.03906 0,0 -0.002,-0.002 -0.002,-0.002 -0.0027,-0.0016 -0.0048,-0.0042 -0.0078,-0.0059 -0.03439,-0.01894 -0.07085,-0.03238 -0.105469,-0.05078 -0.111045,-0.0589 -0.221352,-0.114012 -0.333985,-0.166016 -0.06376,-0.02929 -0.127304,-0.05872 -0.191406,-0.08594 -0.115996,-0.0493 -0.233046,-0.09431 -0.349609,-0.136719 -0.03439,-0.01259 -0.06728,-0.02734 -0.101563,-0.03906 -0.0011,-3.96e-4 -0.0027,-0.0016 -0.0039,-0.002 -0.01776,-0.0063 -0.03486,-0.01364 -0.05273,-0.01953 0,0 -0.002,0 -0.002,0 -0.0053,-0.0018 -0.01033,-0.002 -0.01563,-0.0039 -0.0011,-3.56e-4 -0.0028,3.56e-4 -0.0039,0 -0.150844,-0.05038 -0.301495,-0.09534 -0.451171,-0.134766 -0.0011,-2.84e-4 -0.0028,-0.0017 -0.0039,-0.002 -0.0025,-6.53e-4 -0.0036,-0.0013 -0.0059,-0.002 -0.01701,-0.0045 -0.03573,-0.01109 -0.05273,-0.01563 -0.0014,-3.47e-4 -0.0028,3.42e-4 -0.0039,0 0,0 -0.002,-0.002 -0.002,-0.002 -0.0025,-6.22e-4 -0.0055,6.12e-4 -0.0078,0 -0.02117,-0.0054 -0.0416,-0.01018 -0.0625,-0.01563 -0.144457,-0.03515 -0.288259,-0.06452 -0.429688,-0.08984 -0.01398,-0.0025 -0.02891,-0.0071 -0.04297,-0.0098 -0.04369,-0.0076 -0.08555,-0.01085 -0.128906,-0.01758 -0.0022,-3.38e-4 -0.0036,3.34e-4 -0.0059,0 -0.0038,-5.85e-4 -0.0083,-0.0014 -0.01172,-0.002 -0.104506,-0.01576 -0.2088,-0.03021 -0.310547,-0.04102 -0.01635,-0.0017 -0.03249,-0.0041 -0.04883,-0.0059 z m -5.041016,7.707031 c -0.02336,-0.0011 -0.04329,0.01495 -0.06641,0.01758 0.02279,0.0068 0.04111,0.02101 0.0625,0.03125 z m 0.154297,0.136719 c 0.172719,0.163321 0.3578,0.336514 0.583985,0.466797 -0.183384,-0.125617 -0.341585,-0.277943 -0.490235,-0.417969 -0.02429,-0.02607 -0.06341,-0.02992 -0.09375,-0.04883 z m 2.63086,0.451172 a 2.2855473,2.0153953 74.667132 0 1 -0.109375,0.06836 0.43888375,2.135901 11.023266 0 0 0.04102,0.345703 c -0.01965,0.08807 -0.03655,0.176363 -0.06055,0.263672 a 2.44336,1.8765734 0 0 0 0.03906,-0.01172 c -0.0079,0.02721 -0.01317,0.05643 -0.02148,0.08398 0,0 0,0.002 0,0.002 l -0.002,0.002 c -7.93e-4,0.0027 -0.0012,0.0048 -0.002,0.0078 -0.0023,0.0079 -0.0036,0.0155 -0.0059,0.02344 -0.01096,0.03666 -0.02344,0.07305 -0.03516,0.109375 -0.04505,0.139619 -0.09439,0.277871 -0.148438,0.416016 -0.67151,1.718127 -1.972726,3.344629 -2.183594,5.261718 a 5.4902181,2.7482916 0 0 0 -0.61914,1.267579 5.4902181,2.7482916 0 0 0 0.0039,0.08984 c -7.75e-4,-0.0013 -0.0031,-0.0028 -0.0039,-0.0039 l -0.01758,2.728516 c 0.0019,0.0033 0.004,0.0064 0.0059,0.0098 a 7.8147065,4.3830819 0 0 0 -2.40625,3.164063 7.8147065,4.3830819 0 0 0 0.0039,0.121094 7.8147065,4.3830819 0 0 0 0,0.0039 l -0.0039,2.019531 c 0,1.218033 0.888264,2.317025 2.318359,3.111328 -1.361502,-0.788782 -2.203125,-1.860338 -2.203125,-3.044922 l 0.0039,-2.019531 a 7.8147065,4.3830819 0 0 1 0,-0.0039 7.8147065,4.3830819 0 0 1 -0.0039,-0.121094 7.8147065,4.3830819 0 0 1 2.40625,-3.164062 c -0.0019,-0.0034 -0.004,-0.0065 -0.0059,-0.0098 l 0.01953,-2.728516 c 7.83e-4,0.0011 0.0012,0.0026 0.002,0.0039 a 5.4902181,2.7482916 0 0 1 -0.0039,-0.08984 5.4902181,2.7482916 0 0 1 0.619141,-1.267578 c 0.210868,-1.91709 1.512083,-3.543591 2.183594,-5.261719 0.05405,-0.138144 0.103384,-0.276397 0.148437,-0.416016 0.01172,-0.03632 0.02419,-0.07271 0.03516,-0.109375 0.0023,-0.0079 0.0035,-0.0155 0.0059,-0.02344 7.86e-4,-0.003 0.0031,-0.0051 0.0039,-0.0078 v -0.002 c 0,0 0,-0.002 0,-0.002 0.0083,-0.02755 0.01355,-0.05677 0.02148,-0.08398 a 2.44336,1.8765734 0 0 1 -0.03711,0.01172 c 0.024,-0.08731 0.03894,-0.175608 0.05859,-0.263672 a 0.43888375,2.135901 11.023266 0 1 -0.04492,-0.480469 2.2855473,2.0153953 74.667132 0 0 -0.002,0 z m -7.525391,0.371094 -0.363281,0.398437 c -0.04839,0.200135 0.140455,0.437871 0.441406,0.558594 -0.226292,-0.129464 -0.367471,-0.321382 -0.326172,-0.492188 l 0.410156,-0.449218 a 1.5585447,1.1547592 39.50147 0 1 -0.162109,-0.01563 z"
       transform="scale(0.26457812)" />
    <path
       id="path1971-5-9"
       style="fill:#000000;fill-opacity:0.0844244;stroke:none;stroke-width:0.131314;stroke-linecap:round;stroke-linejoin:round;stroke-miterlimit:4;stroke-dasharray:none;stroke-dashoffset:1;stroke-opacity:1"
       d="m 43.433594,28.373047 v 0.002 c -0.06229,-8.97e-4 -0.121467,0.0128 -0.164063,0.05078 -0.04237,0.03785 -0.06198,0.100208 -0.04883,0.175781 v 0.002 c 0.06667,0.288852 0.122262,0.589341 0.175781,0.892578 l -0.595703,-0.234375 c -0.05817,-0.02207 -0.126536,-0.02933 -0.193359,-0.02344 -0.06679,0.0059 -0.132205,0.02608 -0.1875,0.05469 -0.0553,0.02884 -0.101478,0.06756 -0.121094,0.121093 -0.01965,0.05354 -0.0066,0.117348 0.04102,0.177735 v 0.002 c 0.151184,0.172592 0.299358,0.355398 0.447265,0.541016 -1.787302,0.158709 -2.485579,1.27749 -3.83789,2.355468 a 0.57929702,5.1722946 53.431278 0 0 -1.105469,0.783204 c -1.309201,0.834896 -2.625424,1.468193 -3.964844,2.923828 -0.361048,0.351867 -0.455032,0.80181 -0.265625,1.355468 l 0.181641,0.488282 c 0.09793,0.20386 0.172313,0.377698 0.396484,0.445312 -0.05742,-0.0797 -0.102814,-0.170332 -0.152344,-0.273437 l -0.183593,-0.486329 c -0.189407,-0.553658 -0.09542,-1.003601 0.265625,-1.355468 1.33942,-1.455635 2.655644,-2.088932 3.964844,-2.923828 a 0.57929702,5.1722946 53.431278 0 1 1.107421,-0.785157 c 1.352312,-1.077978 2.050589,-2.194806 3.837891,-2.353515 -0.147907,-0.185618 -0.296082,-0.370377 -0.447266,-0.542969 h -0.002 c -0.04758,-0.06039 -0.05872,-0.1242 -0.03906,-0.177734 0.01962,-0.05354 0.0658,-0.09421 0.121093,-0.123047 0.0553,-0.02861 0.120715,-0.04688 0.1875,-0.05273 0.06682,-0.0059 0.133239,-5.88e-4 0.191407,0.02148 v 0.002 l 0.595703,0.232422 c -0.05352,-0.303237 -0.109109,-0.603726 -0.175781,-0.892578 v -0.002 c -0.01315,-0.07557 0.0065,-0.137933 0.04883,-0.175782 0.0426,-0.03798 0.101774,-0.05168 0.164062,-0.05078 0.04955,7.17e-4 0.101819,0.01612 0.152344,0.0332 l -0.04492,-0.05273 c -0.04101,-0.04682 -0.09656,-0.08497 -0.158203,-0.111328 -0.06164,-0.02615 -0.129194,-0.04207 -0.191406,-0.04297 z m 1.792968,1.740234 0.136719,0.16211 c 0.03874,0.0036 0.07796,0.0076 0.117188,0.01172 0.101747,0.0108 0.206041,0.02525 0.310547,0.04102 0.0034,5.72e-4 0.006,0.0014 0.0098,0.002 0.0023,3.34e-4 0.0056,-3.38e-4 0.0078,0 0.04335,0.0067 0.08326,0.0099 0.126953,0.01758 0.01406,0.0027 0.02898,0.0072 0.04297,0.0098 0.141429,0.02533 0.285231,0.05665 0.429687,0.0918 0.0209,0.0054 0.04133,0.0082 0.0625,0.01367 0.0023,6.12e-4 0.0053,0.0013 0.0078,0.002 0.0011,2.79e-4 0.0028,-2.8e-4 0.0039,0 0.0011,3.42e-4 0.0025,-3.47e-4 0.0039,0 0.01701,0.0045 0.03377,0.01113 0.05078,0.01563 0.0023,6.4e-4 0.0053,0.0033 0.0078,0.0039 0,0 0.002,0 0.002,0 0.149676,0.03943 0.300328,0.08438 0.451172,0.134766 0.0011,3.56e-4 0.0028,-3.56e-4 0.0039,0 0.0053,0.0019 0.01033,0.004 0.01563,0.0059 0,0 0.002,0 0.002,0 0.01788,0.0059 0.03497,0.01127 0.05273,0.01758 0.0013,3.92e-4 0.0028,0.0016 0.0039,0.002 0.03428,0.01172 0.06912,0.02648 0.103516,0.03906 0.116562,0.04241 0.23166,0.08742 0.347656,0.136718 0.0641,0.02722 0.127644,0.05665 0.191406,0.08594 0.112632,0.052 0.224893,0.107118 0.335938,0.166016 0.03462,0.0184 0.06912,0.0338 0.103515,0.05273 0.003,0.0016 0.0051,0.0023 0.0078,0.0039 9.37e-4,4.73e-4 0.0031,0.0015 0.0039,0.002 0.0226,0.01304 0.04373,0.02794 0.06641,0.04102 0.114257,0.0653 0.226544,0.137753 0.337891,0.210937 0.0084,0.0055 0.01683,0.01045 0.02539,0.01563 -0.03414,-0.02542 -0.06691,-0.05372 -0.101562,-0.07813 l -0.002,-0.002 c -0.0079,-0.0054 -0.0155,-0.01172 -0.02344,-0.01758 0,0 -0.002,-0.002 -0.002,-0.002 -0.0068,-0.005 -0.01273,-0.01109 -0.01953,-0.01563 -0.03919,-0.02702 -0.08167,-0.04831 -0.121094,-0.07422 C 48.218731,31.1358 48.108398,31.065296 47.994141,31 c -0.02268,-0.01308 -0.04576,-0.02798 -0.06836,-0.04102 0,0 -0.002,-0.002 -0.002,-0.002 -0.0027,-0.0016 -0.0048,-0.0042 -0.0078,-0.0059 -0.03439,-0.01894 -0.07085,-0.03238 -0.105469,-0.05078 -0.111045,-0.0589 -0.221352,-0.114012 -0.333985,-0.166016 -0.06376,-0.02929 -0.127304,-0.05872 -0.191406,-0.08594 -0.115996,-0.0493 -0.233046,-0.09431 -0.349609,-0.136719 -0.03439,-0.01259 -0.06728,-0.02734 -0.101563,-0.03906 -0.0011,-3.96e-4 -0.0027,-0.0016 -0.0039,-0.002 -0.01776,-0.0063 -0.03486,-0.01364 -0.05273,-0.01953 0,0 -0.002,0 -0.002,0 -0.0053,-0.0018 -0.01033,-0.002 -0.01563,-0.0039 -0.0011,-3.56e-4 -0.0028,3.56e-4 -0.0039,0 -0.150844,-0.05038 -0.301495,-0.09534 -0.451171,-0.134766 -0.0011,-2.84e-4 -0.0028,-0.0017 -0.0039,-0.002 -0.0025,-6.53e-4 -0.0036,-0.0013 -0.0059,-0.002 -0.01701,-0.0045 -0.03573,-0.01109 -0.05273,-0.01563 -0.0014,-3.47e-4 -0.0028,3.42e-4 -0.0039,0 0,0 -0.002,-0.002 -0.002,-0.002 -0.0025,-6.22e-4 -0.0055,6.12e-4 -0.0078,0 -0.02117,-0.0054 -0.0416,-0.01018 -0.0625,-0.01563 -0.144457,-0.03515 -0.288259,-0.06452 -0.429688,-0.08984 -0.01398,-0.0025 -0.02891,-0.0071 -0.04297,-0.0098 -0.04369,-0.0076 -0.08555,-0.01085 -0.128906,-0.01758 -0.0022,-3.38e-4 -0.0036,3.34e-4 -0.0059,0 -0.0038,-5.85e-4 -0.0083,-0.0014 -0.01172,-0.002 -0.104506,-0.01576 -0.2088,-0.03021 -0.310547,-0.04102 -0.0033,-3.49e-4 -0.0065,-0.0016 -0.0098,-0.002 z m -4.953124,7.808594 c -0.0048,-2.31e-4 -0.0088,0.004 -0.01367,0.0039 0.0036,0.0035 0.0102,0.0023 0.01367,0.0059 z m 0.148437,0.134766 c 0.142323,0.133268 0.289697,0.264241 0.470703,0.367187 -0.129347,-0.103555 -0.258646,-0.208529 -0.371094,-0.314453 -0.02582,-0.02771 -0.06703,-0.03314 -0.09961,-0.05273 z m 2.638672,0.455078 a 2.2855473,2.0153953 74.667132 0 1 -0.226563,0.128906 0.43888375,2.135901 11.023266 0 0 0.0293,0.177734 c -0.01965,0.08807 -0.03655,0.176363 -0.06055,0.263672 a 2.44336,1.8765734 0 0 0 0.03906,-0.01172 c -0.0079,0.02721 -0.01317,0.05643 -0.02148,0.08398 0,0 0,0.002 0,0.002 l -0.002,0.002 c -7.93e-4,0.0027 -0.0012,0.0048 -0.002,0.0078 -0.0023,0.0079 -0.0036,0.0155 -0.0059,0.02344 -0.01096,0.03666 -0.02344,0.07305 -0.03516,0.109375 -0.04505,0.139619 -0.09439,0.277871 -0.148438,0.416016 -0.67151,1.718127 -1.972726,3.344629 -2.183594,5.261718 a 5.4902181,2.7482916 0 0 0 -0.61914,1.267579 5.4902181,2.7482916 0 0 0 0.0039,0.08984 c -7.75e-4,-0.0013 -0.0031,-0.0028 -0.0039,-0.0039 l -0.01758,2.728516 c 0.0019,0.0033 0.004,0.0064 0.0059,0.0098 a 7.8147065,4.3830819 0 0 0 -2.40625,3.164063 7.8147065,4.3830819 0 0 0 0.0039,0.121094 7.8147065,4.3830819 0 0 0 0,0.0039 l -0.0039,2.019531 c 0,1.083651 0.70345,2.072901 1.865234,2.837891 -1.013824,-0.739247 -1.623046,-1.661266 -1.623046,-2.666016 l 0.0039,-2.019531 a 7.8147065,4.3830819 0 0 0 0,-0.002 7.8147065,4.3830819 0 0 1 -0.0039,-0.123047 7.8147065,4.3830819 0 0 1 2.408203,-3.162109 c -0.0019,-0.0034 -0.0059,-0.0084 -0.0078,-0.01172 l 0.01953,-2.726563 c 7.83e-4,0.0011 0.0012,0.0026 0.002,0.0039 a 5.4902181,2.7482916 0 0 1 -0.0039,-0.0918 5.4902181,2.7482916 0 0 1 0.619141,-1.267578 c 0.210868,-1.91709 1.512083,-3.543592 2.183594,-5.261719 0.05405,-0.138145 0.103384,-0.276397 0.148437,-0.416016 0.01172,-0.03632 0.0242,-0.07271 0.03516,-0.109375 0.0023,-0.0079 0.0055,-0.0155 0.0078,-0.02344 7.86e-4,-0.003 0.0012,-0.0051 0.002,-0.0078 v -0.002 c 0,0 0.002,-0.002 0.002,-0.002 0.0083,-0.02755 0.01159,-0.05677 0.01953,-0.08398 a 2.44336,1.8765734 0 0 1 -0.03711,0.01367 c 0.024,-0.08731 0.03894,-0.175607 0.05859,-0.263671 a 0.43888375,2.135901 11.023266 0 1 -0.04492,-0.480469 z m -7.716797,0.330078 -0.300781,0.332031 c -0.04481,0.185348 0.120202,0.398358 0.382812,0.525391 -0.106666,-0.111142 -0.168669,-0.237531 -0.140625,-0.353516 l 0.410156,-0.449219 a 1.5585447,1.1547592 39.50147 0 1 -0.351562,-0.05469 z m 15.689453,10.462891 v 0.02539 a 7.8147065,4.3830819 0 0 1 0.417969,0.257813 7.8147065,4.3830819 0 0 0 -0.417969,-0.283203 z"
       transform="scale(0.26457812)" />
    <path
       id="path1976-9-7"
       style="fill:#0d0d0d;fill-opacity:0.169832;stroke:none;stroke-width:0.131314;stroke-linecap:round;stroke-linejoin:round;stroke-miterlimit:4;stroke-dasharray:none;stroke-dashoffset:1;stroke-opacity:1"
       d="m 43.433594,28.373047 v 0.002 c -0.06229,-8.97e-4 -0.121467,0.0128 -0.164063,0.05078 -0.04237,0.03785 -0.06198,0.100208 -0.04883,0.175781 v 0.002 c 0.06667,0.288852 0.122262,0.589341 0.175781,0.892578 l -0.595703,-0.234375 c -0.05817,-0.02207 -0.126536,-0.02933 -0.193359,-0.02344 -0.06679,0.0059 -0.132205,0.02608 -0.1875,0.05469 -0.0553,0.02884 -0.101478,0.06756 -0.121094,0.121093 -0.01965,0.05354 -0.0066,0.117348 0.04102,0.177735 v 0.002 c 0.151184,0.172592 0.299358,0.355398 0.447265,0.541016 -1.787302,0.158709 -2.485579,1.27749 -3.83789,2.355468 a 0.57929702,5.1722946 53.431278 0 0 -1.105469,0.783204 c -1.309201,0.834896 -2.625424,1.468193 -3.964844,2.923828 -0.361048,0.351867 -0.455032,0.80181 -0.265625,1.355468 l 0.181641,0.488282 c 0.108539,0.225945 0.183351,0.41831 0.472656,0.464843 -0.01305,-0.02764 -0.02913,-0.04736 -0.04297,-0.07617 l -0.18164,-0.486329 c -0.189407,-0.55366 -0.09542,-1.003601 0.265625,-1.355468 1.33942,-1.455635 2.655643,-2.088932 3.964844,-2.923829 a 0.57929702,5.1722946 53.431278 0 1 1.105468,-0.783203 c 1.352312,-1.077978 2.050589,-2.196759 3.837891,-2.355468 -0.147907,-0.185618 -0.296082,-0.370377 -0.447266,-0.542969 -0.04758,-0.06039 -0.06067,-0.1242 -0.04102,-0.177734 0.01962,-0.05354 0.0658,-0.09421 0.121093,-0.123047 0.0553,-0.02861 0.120715,-0.04688 0.1875,-0.05273 0.06682,-0.0059 0.135192,0.0014 0.19336,0.02344 l 0.595703,0.234375 c -0.05352,-0.303237 -0.109109,-0.605679 -0.175781,-0.894531 v -0.002 c -0.01315,-0.07557 0.0065,-0.135979 0.04883,-0.173828 0.0426,-0.03798 0.101774,-0.05168 0.164062,-0.05078 v -0.002 c 0.0476,6.88e-4 0.0978,0.01541 0.146485,0.03125 l -0.226563,-0.267578 c -0.04101,-0.04682 -0.09656,-0.08497 -0.158203,-0.111328 -0.06164,-0.02615 -0.129194,-0.04207 -0.191406,-0.04297 z m 1.794922,1.742187 0.320312,0.376954 c 0.03874,0.0036 0.07796,0.0076 0.117188,0.01172 0.101747,0.0108 0.206041,0.02721 0.310546,0.04297 0.0034,5.72e-4 0.008,-5.85e-4 0.01172,0 0.0023,3.34e-4 0.0037,0.0016 0.0059,0.002 0.04335,0.0067 0.08521,0.0099 0.128906,0.01758 0.01406,0.0027 0.02898,0.0053 0.04297,0.0078 0.141429,0.02533 0.285231,0.05665 0.429687,0.0918 0.0209,0.0054 0.04133,0.0082 0.0625,0.01367 0.0023,6.12e-4 0.0053,0.0013 0.0078,0.002 0,0 0.002,0 0.002,0 0.0011,3.42e-4 0.0025,0.0016 0.0039,0.002 0.01701,0.0045 0.03573,0.01113 0.05273,0.01563 0.0023,6.4e-4 0.0034,0.0013 0.0059,0.002 0.0011,2.79e-4 0.0028,-2.84e-4 0.0039,0 0.149676,0.03943 0.300328,0.08438 0.451172,0.134766 0.0011,3.56e-4 0.0028,0.0016 0.0039,0.002 0.0053,0.0019 0.01033,0.0021 0.01563,0.0039 0,0 0.002,0 0.002,0 0.01788,0.0059 0.03497,0.01322 0.05273,0.01953 0.0013,3.92e-4 0.0028,-3.96e-4 0.0039,0 0.03428,0.01172 0.06717,0.02843 0.101562,0.04102 0.116563,0.04241 0.233614,0.08546 0.34961,0.134765 0.0641,0.02722 0.127644,0.0586 0.191406,0.08789 0.112632,0.052 0.22294,0.107118 0.333984,0.166016 0.03462,0.0184 0.07108,0.03185 0.105469,0.05078 0.003,0.0016 0.0051,0.0043 0.0078,0.0059 0,0 0.002,0 0.002,0 0.0226,0.01304 0.04568,0.02989 0.06836,0.04297 0.114257,0.0653 0.224591,0.1358 0.335938,0.208984 0.03942,0.02591 0.0819,0.04719 0.121093,0.07422 0.0068,0.0045 0.01273,0.01067 0.01953,0.01563 0,0 0.002,0 0.002,0 0.0079,0.0059 0.0155,0.01413 0.02344,0.01953 h 0.002 c 0.116042,0.08171 0.228461,0.172443 0.339844,0.263672 -0.09661,-0.09644 -0.191245,-0.195127 -0.292969,-0.283203 -0.03439,-0.02975 -0.07058,-0.0551 -0.105468,-0.08398 -0.121212,-0.100175 -0.244515,-0.196022 -0.371094,-0.285157 l -0.002,-0.002 c -0.0079,-0.0054 -0.0155,-0.01172 -0.02344,-0.01758 0,0 -0.002,-0.002 -0.002,-0.002 -0.0068,-0.005 -0.01273,-0.01109 -0.01953,-0.01563 -0.03919,-0.02702 -0.08167,-0.04831 -0.121094,-0.07422 C 48.218731,31.1358 48.108398,31.065296 47.994141,31 c -0.02268,-0.01308 -0.04576,-0.02798 -0.06836,-0.04102 0,0 -0.002,-0.002 -0.002,-0.002 -0.0027,-0.0016 -0.0048,-0.0042 -0.0078,-0.0059 -0.03439,-0.01894 -0.07085,-0.03238 -0.105469,-0.05078 -0.111045,-0.0589 -0.221352,-0.114012 -0.333985,-0.166016 -0.06376,-0.02929 -0.127304,-0.05872 -0.191406,-0.08594 -0.115996,-0.0493 -0.233046,-0.09431 -0.349609,-0.136719 -0.03439,-0.01259 -0.06728,-0.02734 -0.101563,-0.03906 -0.0011,-3.96e-4 -0.0027,-0.0016 -0.0039,-0.002 -0.01776,-0.0063 -0.03486,-0.01364 -0.05273,-0.01953 0,0 -0.002,0 -0.002,0 -0.0053,-0.0018 -0.01033,-0.002 -0.01563,-0.0039 -0.0011,-3.56e-4 -0.0028,3.56e-4 -0.0039,0 -0.150844,-0.05038 -0.301495,-0.09534 -0.451171,-0.134766 -0.0011,-2.84e-4 -0.0028,-0.0017 -0.0039,-0.002 -0.0025,-6.53e-4 -0.0036,-0.0013 -0.0059,-0.002 -0.01701,-0.0045 -0.03573,-0.01109 -0.05273,-0.01563 -0.0014,-3.47e-4 -0.0028,3.42e-4 -0.0039,0 0,0 -0.002,-0.002 -0.002,-0.002 -0.0025,-6.22e-4 -0.0055,6.12e-4 -0.0078,0 -0.02117,-0.0054 -0.0416,-0.01018 -0.0625,-0.01563 -0.144457,-0.03515 -0.288259,-0.06452 -0.429688,-0.08984 -0.01398,-0.0025 -0.02891,-0.0071 -0.04297,-0.0098 -0.04369,-0.0076 -0.08555,-0.01085 -0.128906,-0.01758 -0.0022,-3.38e-4 -0.0036,3.34e-4 -0.0059,0 -0.0038,-5.85e-4 -0.0083,-0.0014 -0.01172,-0.002 -0.104506,-0.01576 -0.2088,-0.03021 -0.310547,-0.04102 -0.0026,-2.73e-4 -0.0052,2.76e-4 -0.0078,0 z m -1.980469,8.611328 a 2.2855473,2.0153953 74.667132 0 1 -0.412109,0.207032 c -0.01058,0.04954 -0.01971,0.09935 -0.0332,0.148437 a 2.44336,1.8765734 0 0 0 0.03906,-0.01172 c -0.0079,0.02721 -0.01317,0.05643 -0.02148,0.08398 0,0 0,0.002 0,0.002 l -0.002,0.002 c -7.93e-4,0.0027 -0.0012,0.0048 -0.002,0.0078 -0.0023,0.0079 -0.0036,0.0155 -0.0059,0.02344 -0.01096,0.03666 -0.02344,0.07305 -0.03516,0.109375 -0.04505,0.139619 -0.09439,0.277871 -0.148438,0.416016 -0.67151,1.718127 -1.972726,3.344629 -2.183594,5.261718 a 5.4902181,2.7482916 0 0 0 -0.61914,1.267579 5.4902181,2.7482916 0 0 0 0.0039,0.08984 c -7.75e-4,-0.0013 -0.0031,-0.0028 -0.0039,-0.0039 l -0.01758,2.728516 c 0.0019,0.0033 0.004,0.0064 0.0059,0.0098 a 7.8147065,4.3830819 0 0 0 -2.40625,3.164063 7.8147065,4.3830819 0 0 0 0.0039,0.121094 7.8147065,4.3830819 0 0 0 0,0.0039 l -0.0039,2.019531 c 0,0.919016 0.505306,1.770044 1.367188,2.474609 -0.599105,-0.62007 -0.9375,-1.331118 -0.9375,-2.085937 l 0.002,-2.017578 a 7.8147065,4.3830819 0 0 1 0,-0.0039 7.8147065,4.3830819 0 0 1 -0.002,-0.121094 7.8147065,4.3830819 0 0 1 2.40625,-3.164063 c -0.0019,-0.0034 -0.004,-0.0065 -0.0059,-0.0098 l 0.01758,-2.728516 c 7.83e-4,0.0011 0.0031,0.0026 0.0039,0.0039 a 5.4902181,2.7482916 0 0 1 -0.0039,-0.0918 5.4902181,2.7482916 0 0 1 0.619141,-1.267578 c 0.210868,-1.917089 1.512083,-3.541638 2.183594,-5.259765 0.05405,-0.138145 0.103384,-0.278351 0.148437,-0.417969 0.01172,-0.03632 0.02224,-0.07271 0.0332,-0.109375 0.0023,-0.0079 0.0055,-0.01355 0.0078,-0.02148 7.86e-4,-0.003 0.0012,-0.0071 0.002,-0.0098 h 0.002 c 0,0 0,-0.002 0,-0.002 0.0083,-0.02755 0.01355,-0.05872 0.02148,-0.08594 a 2.44336,1.8765734 0 0 1 -0.03906,0.01367 c 0.024,-0.08731 0.04089,-0.175607 0.06055,-0.263672 a 0.43888375,2.135901 11.023266 0 1 -0.04492,-0.482422 z m -8.005859,0.228516 -0.199219,0.21875 c -0.04886,0.202088 0.145066,0.440966 0.451172,0.560547 -0.01969,-0.05732 -0.03475,-0.115065 -0.02148,-0.169922 l 0.408203,-0.451172 a 1.5585447,1.1547592 39.50147 0 1 -0.638671,-0.158203 z m 15.976562,10.46875 v 0.125 a 7.8147065,4.3830819 0 0 1 0.861328,0.583984 7.8147065,4.3830819 0 0 0 -0.861328,-0.708984 z"
       transform="scale(0.26457812)" />
    <path
       id="path1981-2-3"
       style="fill:#0e0e0e;fill-opacity:0.129873;stroke:none;stroke-width:0.131314;stroke-linecap:round;stroke-linejoin:round;stroke-miterlimit:4;stroke-dasharray:none;stroke-dashoffset:1;stroke-opacity:1"
       d="m 43.433594,28.373047 v 0.002 c -0.06229,-8.97e-4 -0.121467,0.0128 -0.164063,0.05078 -0.04237,0.03785 -0.06198,0.100208 -0.04883,0.175781 v 0.002 c 0.06667,0.288852 0.122262,0.589341 0.175781,0.892578 l -0.595703,-0.234375 c -0.05817,-0.02207 -0.126536,-0.02933 -0.193359,-0.02344 -0.06679,0.0059 -0.132205,0.02608 -0.1875,0.05469 -0.0553,0.02884 -0.101478,0.06756 -0.121094,0.121093 -0.01965,0.05354 -0.0066,0.117348 0.04102,0.177735 v 0.002 c 0.151184,0.172592 0.299358,0.355398 0.447265,0.541016 -1.787302,0.158709 -2.485579,1.27749 -3.83789,2.355468 a 0.57929702,5.1722946 53.431278 0 0 -1.105469,0.783204 c -1.309201,0.834896 -2.625424,1.468193 -3.964844,2.923828 -0.361048,0.351867 -0.455032,0.80181 -0.265625,1.355468 l 0.181641,0.488282 c 0.114548,0.238455 0.183534,0.445535 0.515625,0.476562 l 0.212891,0.0039 -0.126954,-0.341796 c -0.189407,-0.553659 -0.09542,-1.003602 0.265625,-1.355469 1.33942,-1.455635 2.655644,-2.088932 3.964844,-2.923828 a 0.57929702,5.1722946 53.431278 0 1 1.107422,-0.783203 c 1.352311,-1.077979 2.048636,-2.19676 3.835937,-2.355469 -0.147907,-0.185618 -0.296081,-0.370377 -0.447265,-0.542969 -0.04758,-0.06039 -0.05872,-0.1242 -0.03906,-0.177734 0.01962,-0.05354 0.06385,-0.09421 0.119141,-0.123047 0.0553,-0.02861 0.120714,-0.04688 0.1875,-0.05273 0.06682,-0.0059 0.135191,-5.88e-4 0.193359,0.02148 v 0.002 l 0.595704,0.232422 c -0.05352,-0.303237 -0.10911,-0.603726 -0.175782,-0.892578 v -0.002 c -0.01315,-0.07557 0.0065,-0.137932 0.04883,-0.175781 0.03599,-0.03209 0.08709,-0.03789 0.138672,-0.04102 L 43.78321,28.527473 c -0.04101,-0.04682 -0.09656,-0.08497 -0.158203,-0.111328 -0.06164,-0.02615 -0.129194,-0.04207 -0.191406,-0.04297 z m 1.96875,1.763672 0.501953,0.591797 c 0.03874,0.0036 0.07796,0.0076 0.117187,0.01172 0.101747,0.0108 0.204088,0.02525 0.308594,0.04102 0.0034,5.72e-4 0.008,0.0014 0.01172,0.002 0.0023,3.34e-4 0.0037,0.0016 0.0059,0.002 0.04335,0.0067 0.08521,0.008 0.128906,0.01563 0.01406,0.0027 0.02898,0.0072 0.04297,0.0098 0.141429,0.02533 0.285231,0.05665 0.429688,0.0918 0.0209,0.0054 0.04133,0.0082 0.0625,0.01367 0.0023,6.12e-4 0.0053,0.0013 0.0078,0.002 0,0 0.002,0 0.002,0 0.0011,3.42e-4 0.0025,0.0016 0.0039,0.002 0.01701,0.0045 0.03573,0.0092 0.05273,0.01367 0.0023,6.4e-4 0.0053,0.0033 0.0078,0.0039 0,0 0.002,0 0.002,0 0.149676,0.03943 0.300328,0.08438 0.451171,0.134766 0.0011,3.56e-4 0.0028,-3.56e-4 0.0039,0 0.0053,0.0019 0.01033,0.004 0.01563,0.0059 0,0 0.002,0 0.002,0 0.01788,0.0059 0.03497,0.01127 0.05273,0.01758 0.0013,3.92e-4 0.0028,0.0016 0.0039,0.002 0.03428,0.01172 0.06717,0.02648 0.101562,0.03906 0.116563,0.04241 0.233613,0.08742 0.349609,0.136719 0.0641,0.02722 0.127645,0.05664 0.191407,0.08594 0.112632,0.052 0.222939,0.107118 0.333984,0.166016 0.03462,0.0184 0.07107,0.0338 0.105469,0.05273 0.003,0.0016 0.0051,0.0023 0.0078,0.0039 0,0 0.002,0.002 0.002,0.002 0.0226,0.01304 0.04568,0.02794 0.06836,0.04102 0.114257,0.0653 0.226543,0.137753 0.33789,0.210938 0.01014,0.0067 0.02094,0.01141 0.03125,0.01758 -0.05759,-0.05419 -0.112558,-0.112704 -0.171875,-0.164063 -0.03439,-0.02975 -0.07058,-0.0551 -0.105468,-0.08398 -0.121212,-0.100175 -0.244515,-0.196022 -0.371094,-0.285157 l -0.002,-0.002 c -0.0079,-0.0054 -0.0155,-0.01172 -0.02344,-0.01758 0,0 -0.002,-0.002 -0.002,-0.002 -0.0068,-0.005 -0.01273,-0.01109 -0.01953,-0.01563 -0.03919,-0.02702 -0.08167,-0.04831 -0.121094,-0.07422 C 48.218731,31.1358 48.108398,31.065296 47.994141,31 c -0.02268,-0.01308 -0.04576,-0.02798 -0.06836,-0.04102 0,0 -0.002,-0.002 -0.002,-0.002 -0.0027,-0.0016 -0.0048,-0.0042 -0.0078,-0.0059 -0.03439,-0.01894 -0.07085,-0.03238 -0.105469,-0.05078 -0.111045,-0.0589 -0.221352,-0.114012 -0.333985,-0.166016 -0.06376,-0.02929 -0.127304,-0.05872 -0.191406,-0.08594 -0.115996,-0.0493 -0.233046,-0.09431 -0.349609,-0.136719 -0.03439,-0.01259 -0.06728,-0.02734 -0.101563,-0.03906 -0.0011,-3.96e-4 -0.0027,-0.0016 -0.0039,-0.002 -0.01776,-0.0063 -0.03486,-0.01364 -0.05273,-0.01953 0,0 -0.002,0 -0.002,0 -0.0053,-0.0018 -0.01033,-0.002 -0.01563,-0.0039 -0.0011,-3.56e-4 -0.0028,3.56e-4 -0.0039,0 -0.150844,-0.05038 -0.301495,-0.09534 -0.451171,-0.134766 -0.0011,-2.84e-4 -0.0028,-0.0017 -0.0039,-0.002 -0.0025,-6.53e-4 -0.0036,-0.0013 -0.0059,-0.002 -0.01701,-0.0045 -0.03573,-0.01109 -0.05273,-0.01563 -0.0014,-3.47e-4 -0.0028,3.42e-4 -0.0039,0 0,0 -0.002,-0.002 -0.002,-0.002 -0.0025,-6.22e-4 -0.0055,6.12e-4 -0.0078,0 -0.02117,-0.0054 -0.0416,-0.01018 -0.0625,-0.01563 -0.144457,-0.03515 -0.288259,-0.06452 -0.429688,-0.08984 -0.01398,-0.0025 -0.02891,-0.0071 -0.04297,-0.0098 -0.04369,-0.0076 -0.08555,-0.01085 -0.128906,-0.01758 -0.0022,-3.38e-4 -0.0036,3.34e-4 -0.0059,0 -0.0038,-5.85e-4 -0.0083,-0.0014 -0.01172,-0.002 -0.04866,-0.0073 -0.09634,-0.01279 -0.144531,-0.01953 z M 40.814453,38.375 c -0.0042,-2e-4 -0.0075,0.004 -0.01172,0.0039 0.0036,0.0023 0.0081,0.0035 0.01172,0.0059 z m 2.787109,0.587891 a 2.2855473,2.0153953 74.667132 0 1 -0.52539,0.242187 2.2855473,2.0153953 74.667132 0 1 -0.28711,0.05273 c -0.0044,0.01367 -0.0093,0.02735 -0.01367,0.04102 -0.04505,0.139619 -0.09439,0.277871 -0.148438,0.416016 -0.67151,1.718127 -1.972726,3.344629 -2.183594,5.261718 a 5.4902181,2.7482916 0 0 0 -0.61914,1.267579 5.4902181,2.7482916 0 0 0 0.0039,0.08984 c -7.75e-4,-0.0013 -0.0031,-0.0028 -0.0039,-0.0039 l -0.01758,2.728516 c 0.0019,0.0033 0.004,0.0064 0.0059,0.0098 a 7.8147065,4.3830819 0 0 0 -2.40625,3.164063 7.8147065,4.3830819 0 0 0 0.0039,0.121094 7.8147065,4.3830819 0 0 0 0,0.0039 l -0.0039,2.019531 c 0,1.07827 0.696198,2.062743 1.847656,2.826172 -0.672529,-0.647338 -1.064453,-1.397931 -1.064453,-2.201172 l 0.0039,-2.017578 a 7.8147065,4.3830819 0 0 1 0,-0.0039 7.8147065,4.3830819 0 0 1 -0.0039,-0.123047 7.8147065,4.3830819 0 0 1 2.40625,-3.16211 c -0.0019,-0.0034 -0.004,-0.0065 -0.0059,-0.0098 l 0.01953,-2.728516 c 7.82e-4,0.0011 0.0012,0.0026 0.002,0.0039 a 5.4902181,2.7482916 0 0 1 -0.0039,-0.0918 5.4902181,2.7482916 0 0 1 0.61914,-1.267579 c 0.210868,-1.917089 1.512084,-3.541637 2.183594,-5.259765 0.05405,-0.138145 0.103385,-0.27835 0.148438,-0.417969 0.01172,-0.03632 0.02419,-0.07271 0.03516,-0.109375 0.0023,-0.0079 0.0035,-0.0155 0.0059,-0.02344 7.87e-4,-0.003 0.0031,-0.0051 0.0039,-0.0078 2.38e-4,-8.12e-4 -2.42e-4,-0.0031 0,-0.0039 0.0083,-0.02755 0.01355,-0.05677 0.02148,-0.08398 a 2.44336,1.8765734 0 0 1 -0.03906,0.01367 c 0.024,-0.08731 0.04089,-0.175607 0.06055,-0.263672 a 0.43888375,2.135901 11.023266 0 1 -0.04492,-0.482421 z m -8.52539,0.175781 -0.0332,0.03516 c -0.06492,0.268496 0.295042,0.60227 0.783203,0.632813 4.09e-4,-0.0019 -4.5e-4,-0.004 0,-0.0059 l 0.410156,-0.451172 a 1.5585447,1.1547592 39.50147 0 1 -0.724609,-0.201171 l -0.417969,-0.0059 c -0.0071,-6.63e-4 -0.01072,-0.0031 -0.01758,-0.0039 z m 16.498047,10.542969 v 0.101562 a 7.8147065,4.3830819 0 0 1 0.408203,0.253906 7.8147065,4.3830819 0 0 0 -0.408203,-0.355468 z"
       transform="scale(0.26457812)" />
  </g>
</svg>
