<?xml version="1.0" encoding="UTF-8" standalone="no"?>
<svg
   width="16"
   height="16"
   version="1.1"
   id="svg2280"
   sodipodi:docname="org.fedoraproject.AnacondaInstaller.svg"
   inkscape:version="1.3 (0e150ed6c4, 2023-07-21)"
   xmlns:inkscape="http://www.inkscape.org/namespaces/inkscape"
   xmlns:sodipodi="http://sodipodi.sourceforge.net/DTD/sodipodi-0.dtd"
   xmlns:xlink="http://www.w3.org/1999/xlink"
   xmlns="http://www.w3.org/2000/svg"
   xmlns:svg="http://www.w3.org/2000/svg"
   xmlns:rdf="http://www.w3.org/1999/02/22-rdf-syntax-ns#"
   xmlns:cc="http://creativecommons.org/ns#"
   xmlns:dc="http://purl.org/dc/elements/1.1/">
  <sodipodi:namedview
     id="namedview2282"
     pagecolor="#ffffff"
     bordercolor="#666666"
     borderopacity="1.0"
     inkscape:showpageshadow="2"
     inkscape:pageopacity="0.0"
     inkscape:pagecheckerboard="0"
     inkscape:deskcolor="#d1d1d1"
     showgrid="false"
     inkscape:zoom="27.812867"
     inkscape:cx="10.678511"
     inkscape:cy="10.804352"
     inkscape:window-width="1920"
     inkscape:window-height="994"
     inkscape:window-x="0"
     inkscape:window-y="0"
     inkscape:window-maximized="1"
     inkscape:current-layer="svg2280" />
  <metadata
     id="metadata2191">
    <rdf:RDF>
      <cc:Work
         rdf:about="">
        <dc:format>image/svg+xml</dc:format>
        <dc:type
           rdf:resource="http://purl.org/dc/dcmitype/StillImage" />
      </cc:Work>
    </rdf:RDF>
  </metadata>
  <defs
     id="defs2218">
    <linearGradient
       id="a"
       x1="428.81601"
       x2="388.86499"
       y1="547.63397"
       y2="499.67899"
       gradientTransform="matrix(1.0500004,0,0,1.0500004,-330.42236,-498.39697)"
       gradientUnits="userSpaceOnUse">
      <stop
         stop-color="#bdc3c7"
         offset="0"
         id="stop2193" />
      <stop
         stop-color="#eff0f1"
         offset="1"
         id="stop2195" />
    </linearGradient>
    <linearGradient
       id="c"
       x1="406.50101"
       x2="419.974"
       y1="527.01398"
       y2="539.82501"
       gradientTransform="translate(-391.5697,-499.8)"
       gradientUnits="userSpaceOnUse">
      <stop
         stop-color="#292c2f"
         offset="0"
         id="stop2198" />
      <stop
         stop-opacity="0"
         offset="1"
         id="stop2200" />
    </linearGradient>
    <linearGradient
       id="linearGradient70363"
       x1="24"
       x2="24"
       y1="37"
       y2="12"
       gradientUnits="userSpaceOnUse"
       gradientTransform="matrix(0.75675649,0,0,0.75675649,5.4594659,5.4594629)">
      <stop
         stop-color="#2c3e50"
         offset="0"
         id="stop2203" />
      <stop
         stop-color="#34495e"
         offset="1"
         id="stop2205" />
    </linearGradient>
    <linearGradient
       id="linearGradient70391"
       x1="24"
       x2="24"
       y1="51"
       y2="4"
       gradientUnits="userSpaceOnUse"
       gradientTransform="matrix(0.75675649,0,0,0.75675649,5.4594659,5.4594629)">
      <stop
         stop-color="#7f8c8d"
         stop-opacity="0"
         offset="0"
         id="stop2208" />
      <stop
         stop-color="#7f8c8d"
         offset="1"
         id="stop2210" />
    </linearGradient>
    <linearGradient
       id="linearGradient70552"
       x1="18.474609"
       x2="34"
       y1="13"
       y2="28.525391"
       gradientUnits="userSpaceOnUse"
       xlink:href="#c"
       gradientTransform="matrix(0.75675649,0,0,0.75675649,5.4594659,5.4594629)" />
    <linearGradient
       id="linearGradient70571"
       x1="7"
       x2="11.933349"
       y1="37"
       y2="41.93335"
       gradientTransform="matrix(0.75675649,0,0,0.75675649,5.4594659,-17.243229)"
       gradientUnits="userSpaceOnUse"
       xlink:href="#c" />
    <linearGradient
       id="linearGradient70575"
       x1="7"
       x2="11.933349"
       y1="37"
       y2="41.93335"
       gradientTransform="matrix(0.75675649,0,0,0.75675649,29.675707,-17.243229)"
       gradientUnits="userSpaceOnUse"
       xlink:href="#c" />
    <linearGradient
       id="linearGradient70579"
       x1="7"
       x2="11.933349"
       y1="37"
       y2="41.93335"
       gradientTransform="matrix(0.75675649,0,0,0.75675649,29.675707,5.4594629)"
       gradientUnits="userSpaceOnUse"
       xlink:href="#c" />
    <linearGradient
       id="linearGradient70596"
       x1="7"
       x2="11.933349"
       y1="37"
       y2="41.93335"
       gradientUnits="userSpaceOnUse"
       xlink:href="#c"
       gradientTransform="matrix(0.75675649,0,0,0.75675649,5.4594659,5.4594629)" />
    <linearGradient
       id="paint1_linear"
       x1="13.26"
       y1="11.1229"
       x2="44.327"
       y2="43.688099"
       gradientUnits="userSpaceOnUse"
       gradientTransform="matrix(0.92777775,0,0,0.92777775,76.081826,27.869997)">
      <stop
         offset="0.046875"
         stop-color="#00022F"
         stop-opacity="0.4"
         id="stop25" />
      <stop
         offset="0.630208"
         stop-color="#00022F"
         stop-opacity="0"
         id="stop27" />
    </linearGradient>
    <linearGradient
       id="paint2_linear"
       x1="18"
       y1="36"
       x2="18"
       y2="40"
       gradientUnits="userSpaceOnUse"
       gradientTransform="matrix(0.92777775,0,0,0.92777775,76.081826,27.869997)">
      <stop
         stop-color="#5DC6FF"
         id="stop30" />
      <stop
         offset="1"
         stop-color="#3DAEE9"
         id="stop32" />
    </linearGradient>
    <linearGradient
       id="linearGradient4763">
      <stop
         style="stop-color:#f2f2f2;stop-opacity:1"
         offset="0"
         id="stop267" />
      <stop
         style="stop-color:#cccccc;stop-opacity:1"
         offset="1"
         id="stop269" />
    </linearGradient>
    <linearGradient
       id="linearGradient4143">
      <stop
         id="stop1180"
         offset="0"
         style="stop-color:#197cf1;stop-opacity:1" />
      <stop
         id="stop1182"
         offset="1"
         style="stop-color:#20bcfa;stop-opacity:1" />
    </linearGradient>
    <linearGradient
       id="linearGradient4227">
      <stop
         offset="0"
         style="stop-color:#292c2f;stop-opacity:1"
         id="stop1324" />
      <stop
         offset="1"
         style="stop-color:#000000;stop-opacity:0;"
         id="stop1326" />
    </linearGradient>
    <linearGradient
       inkscape:collect="always"
       xlink:href="#paint2_linear"
       id="linearGradient913"
       gradientUnits="userSpaceOnUse"
       gradientTransform="matrix(0.39710592,0,0,0.39391536,-1.5305375,-1.2513229)"
       x1="18"
       y1="36"
       x2="18"
       y2="40" />
  </defs>
  <path
     style="fill:#ffffff;stroke-width:0.395506"
     d="M 4.4260525,3.8695751 V 10.172222 H 10.779741 V 3.8695751 Z"
     id="path8-1" />
  <path
     d="m 1.6463055,13.71746 c 0,-0.43512 0.284464,-0.787833 0.635373,-0.787833 H 13.71833 c 0.35091,0 0.63536,0.352713 0.63536,0.787833 0,0.435119 -0.28445,0.787831 -0.63536,0.787831 H 2.2816785 c -0.350909,0 -0.635373,-0.352712 -0.635373,-0.787831 z"
     fill="#152940"
     fill-opacity="0.2"
     id="path10-2"
     style="stroke-width:0.395506" />
  <path
     d="M 13.71833,12.73267 H 2.2816785 c -0.499621,0 -0.833924,0.484202 -0.833924,0.984789 0,0.500587 0.334303,0.984787 0.833924,0.984787 H 13.71833 c 0.49959,0 0.833921,-0.484199 0.833921,-0.984787 0,-0.500587 -0.33433,-0.984789 -0.833921,-0.984789 z"
     stroke="#000000"
     stroke-opacity="0.02"
     style="fill:#e1dedb;fill-opacity:1;stroke-width:0.395506"
     id="path12-7" />
  <path
     d="m 1.6463055,13.71746 c 0,-0.43512 0.296318,-0.787833 0.661848,-0.787833 h 6.618417 c 0.36554,0 0.66185,0.352713 0.66185,0.787833 0,0.435119 -0.29631,0.787831 -0.66185,0.787831 h -6.618417 c -0.183014,0 -0.348681,-0.08844 -0.468488,-0.231347 -0.119481,-0.142519 -0.19336,-0.339239 -0.19336,-0.556484 z"
     fill="url(#paint2_linear)"
     id="path14-0"
     style="fill:url(#linearGradient913);stroke-width:0.395506" />
  <path
     style="fill:#51a2da;stroke-width:0.395506"
     d="m 8.0000305,1.9 c -2.630621,0 -4.763288,2.1145161 -4.765301,4.7269852 v 3.6634108 c 0,0.58372 0.485713,1.063572 1.072189,1.063572 0,0 0,-1.81e-4 0,-1.81e-4 v 1.81e-4 h 3.693082 C 10.63259,11.352568 12.765271,9.2370933 12.765271,6.6270462 12.765271,4.0164181 10.63179,1.9 7.9999705,1.9 Z m 1.19141,1.9449361 v 0.02465 c 0.80026,0 1.6064595,0.584107 1.6064595,1.42244 0,0.07777 -8.5e-4,0.155074 -0.0134,0.243535 -0.0222,0.222965 -0.22743,0.3350931 -0.4511,0.3036001 -0.22389,-0.03182 -0.32543,-0.1643981 -0.3343195,-0.4148211 0.003,-0.02484 0.005,-0.06448 0.005,-0.132314 0,-0.475228 -0.4418585,-0.658936 -0.8128385,-0.658936 -0.37076,0 -0.79301,0.305481 -0.79428,0.655067 v 1.3388371 l 0.68788,-0.005 c 0.53701,-0.01118 0.54251,0.79186 0.005,0.788085 l -0.69338,0.0037 -0.005,1.1289121 c -0.0829,0.886037 -0.893443,1.5976527 -1.807027,1.5976527 -0.968297,0 -1.767107,-0.7857617 -1.767107,-1.7486447 0.02915,-0.9905361 0.827085,-1.7694281 1.829457,-1.7600961 l 0.558354,-0.0037 v 0.786889 l -0.563003,0.005 c -0.551026,0.01617 -1.022158,0.386806 -1.031181,0.9720791 0,0.53358 0.434765,0.960571 0.973784,0.960571 0.538499,0 1.018414,-0.391557 1.018414,-0.962405 V 5.2847431 c 2.57e-4,-0.05516 0.003,-0.09937 0.0093,-0.160315 0.09051,-0.728293 0.835039,-1.254842 1.578249,-1.254842 z"
     id="path27-9" />
</svg>
