<?xml version="1.0" encoding="UTF-8" standalone="no"?>
<svg
   style="isolation:isolate"
   width="16"
   height="16"
   viewBox="0 0 16 16"
   version="1.1"
   id="svg23"
   sodipodi:docname="kiten.svg"
   inkscape:version="1.3 (0e150ed6c4, 2023-07-21)"
   xmlns:inkscape="http://www.inkscape.org/namespaces/inkscape"
   xmlns:sodipodi="http://sodipodi.sourceforge.net/DTD/sodipodi-0.dtd"
   xmlns:xlink="http://www.w3.org/1999/xlink"
   xmlns="http://www.w3.org/2000/svg"
   xmlns:svg="http://www.w3.org/2000/svg">
  <sodipodi:namedview
     id="namedview23"
     pagecolor="#ffffff"
     bordercolor="#000000"
     borderopacity="0.25"
     inkscape:showpageshadow="2"
     inkscape:pageopacity="0.0"
     inkscape:pagecheckerboard="0"
     inkscape:deskcolor="#d1d1d1"
     inkscape:zoom="23.96875"
     inkscape:cx="4.2555411"
     inkscape:cy="5.2359844"
     inkscape:window-width="1920"
     inkscape:window-height="994"
     inkscape:window-x="0"
     inkscape:window-y="0"
     inkscape:window-maximized="1"
     inkscape:current-layer="svg23" />
  <defs
     id="defs22">
    <style
       id="current-color-scheme"
       type="text/css">&#10;   .ColorScheme-Text { color:#d5c289; } .ColorScheme-Highlight { color:#5294e2; }&#10;  </style>
    <linearGradient
       id="arrongin"
       x1="0%"
       x2="0%"
       y1="0%"
       y2="100%">
      <stop
         offset="0%"
         style="stop-color:#dd9b44; stop-opacity:1"
         id="stop1" />
      <stop
         offset="100%"
         style="stop-color:#ad6c16; stop-opacity:1"
         id="stop2" />
    </linearGradient>
    <linearGradient
       id="aurora"
       x1="0%"
       x2="0%"
       y1="0%"
       y2="100%">
      <stop
         offset="0%"
         style="stop-color:#09D4DF; stop-opacity:1"
         id="stop3" />
      <stop
         offset="100%"
         style="stop-color:#9269F4; stop-opacity:1"
         id="stop4" />
    </linearGradient>
    <linearGradient
       id="fitdance"
       x1="0%"
       x2="0%"
       y1="0%"
       y2="100%">
      <stop
         offset="0%"
         style="stop-color:#1AD6AB; stop-opacity:1"
         id="stop5" />
      <stop
         offset="100%"
         style="stop-color:#329DB6; stop-opacity:1"
         id="stop6" />
    </linearGradient>
    <linearGradient
       id="oomox"
       x1="0%"
       x2="0%"
       y1="0%"
       y2="100%">
      <stop
         offset="0%"
         style="stop-color:#303b3d; stop-opacity:1"
         id="stop7" />
      <stop
         offset="100%"
         style="stop-color:#bc985d; stop-opacity:1"
         id="stop8" />
    </linearGradient>
    <linearGradient
       id="rainblue"
       x1="0%"
       x2="0%"
       y1="0%"
       y2="100%">
      <stop
         offset="0%"
         style="stop-color:#00F260; stop-opacity:1"
         id="stop9" />
      <stop
         offset="100%"
         style="stop-color:#0575E6; stop-opacity:1"
         id="stop10" />
    </linearGradient>
    <linearGradient
       id="sunrise"
       x1="0%"
       x2="0%"
       y1="0%"
       y2="100%">
      <stop
         offset="0%"
         style="stop-color: #FF8501; stop-opacity:1"
         id="stop11" />
      <stop
         offset="100%"
         style="stop-color: #FFCB01; stop-opacity:1"
         id="stop12" />
    </linearGradient>
    <linearGradient
       id="telinkrin"
       x1="0%"
       x2="0%"
       y1="0%"
       y2="100%">
      <stop
         offset="0%"
         style="stop-color: #b2ced6; stop-opacity:1"
         id="stop13" />
      <stop
         offset="100%"
         style="stop-color: #6da5b7; stop-opacity:1"
         id="stop14" />
    </linearGradient>
    <linearGradient
       id="60spsycho"
       x1="0%"
       x2="0%"
       y1="0%"
       y2="100%">
      <stop
         offset="0%"
         style="stop-color: #df5940; stop-opacity:1"
         id="stop15" />
      <stop
         offset="25%"
         style="stop-color: #d8d15f; stop-opacity:1"
         id="stop16" />
      <stop
         offset="50%"
         style="stop-color: #e9882a; stop-opacity:1"
         id="stop17" />
      <stop
         offset="100%"
         style="stop-color: #279362; stop-opacity:1"
         id="stop18" />
    </linearGradient>
    <linearGradient
       id="90ssummer"
       x1="0%"
       x2="0%"
       y1="0%"
       y2="100%">
      <stop
         offset="0%"
         style="stop-color: #f618c7; stop-opacity:1"
         id="stop19" />
      <stop
         offset="20%"
         style="stop-color: #94ffab; stop-opacity:1"
         id="stop20" />
      <stop
         offset="50%"
         style="stop-color: #fbfd54; stop-opacity:1"
         id="stop21" />
      <stop
         offset="100%"
         style="stop-color: #0f83ae; stop-opacity:1"
         id="stop22" />
    </linearGradient>
    <linearGradient
       inkscape:collect="always"
       xlink:href="#oomox"
       id="linearGradient23"
       x1="15.065212"
       y1="-0.10209615"
       x2="15.065212"
       y2="3.9749433"
       gradientTransform="scale(1.1344016,0.88152204)"
       gradientUnits="userSpaceOnUse" />
    <clipPath
       clipPathUnits="userSpaceOnUse"
       id="clipPath24">
      <g
         id="g25">
        <rect
           width="16"
           height="16"
           id="rect24"
           x="0"
           y="0" />
      </g>
    </clipPath>
    <clipPath
       clipPathUnits="userSpaceOnUse"
       id="clipPath25">
      <g
         id="g26">
        <rect
           width="16"
           height="16"
           id="rect25"
           x="0"
           y="0" />
      </g>
    </clipPath>
    <linearGradient
       inkscape:collect="always"
       xlink:href="#aurora"
       id="linearGradient27"
       x1="0"
       y1="8"
       x2="16"
       y2="8"
       gradientUnits="userSpaceOnUse" />
  </defs>
  <rect
     style="fill:url(#linearGradient23)"
     class="ColorScheme-Text"
     width="4.625"
     height="3.5940001"
     x="17.09"
     y="-0.090000004"
     id="rect23"
     clip-path="url(#clipPath25)" />
  <path
     class="ColorScheme-Text"
     fill-rule="evenodd"
     d="M 3.237,1.864 3.303,2.106 H 7.349 C 7.466,2.106 7.541,2.065 7.566,1.973 7.308,1.731 6.891,1.389 6.891,1.389 L 6.515,1.864 H 5.597 V 1.072 C 5.781,1.039 5.856,0.964 5.873,0.855 L 5.055,0.772 V 1.864 Z M 3.921,2.273 C 4.096,2.674 4.313,3.283 4.346,3.766 4.847,4.234 5.414,3.191 4.029,2.24 Z M 0.859,7.353 V 5.301 H 2.561 V 7.353 Z M 2.786,4.726 2.478,5.059 H 1.994 V 3.508 h 1.46 c 0.108,0 0.191,-0.042 0.216,-0.134 -0.266,-0.25 -0.7,-0.6 -0.7,-0.6 L 2.594,3.258 h -0.6 V 1.681 C 2.403,1.564 2.778,1.439 3.07,1.314 3.27,1.372 3.412,1.364 3.479,1.289 L 2.778,0.755 C 2.194,1.172 1.026,1.681 0,1.931 L 0.05,2.065 C 0.517,2.015 0.993,1.931 1.452,1.823 V 3.258 H 0.008 l 0.059,0.25 H 1.452 V 5.059 H 0.901 L 0.334,4.801 v 3.47 h 0.083 c 0.225,0 0.442,-0.125 0.442,-0.175 V 7.595 h 1.702 v 0.451 h 0.083 c 0.176,0 0.443,-0.125 0.451,-0.184 V 5.41 C 3.27,5.368 3.404,5.301 3.462,5.243 Z M 7.533,4.309 C 7.641,4.309 7.725,4.267 7.75,4.175 7.491,3.933 7.066,3.6 7.066,3.6 L 6.699,4.067 H 5.731 C 6.123,3.633 6.498,3.057 6.724,2.624 6.899,2.632 6.991,2.565 7.024,2.482 L 6.156,2.215 C 6.031,2.774 5.789,3.533 5.547,4.067 H 3.145 L 3.212,4.309 H 5.055 V 5.718 H 3.437 l 0.058,0.251 h 1.56 v 2.419 h 0.092 c 0.275,0 0.45,-0.134 0.45,-0.175 V 5.969 h 1.736 c 0.125,0 0.2,-0.042 0.225,-0.134 C 7.299,5.585 6.874,5.251 6.874,5.251 L 6.498,5.718 H 5.597 V 4.309 Z m 2.719,10.244 V 13.86 h 3.804 v 0.693 z m 3.804,-1.594 v 0.659 H 10.252 V 12.959 Z M 13.973,12.726 H 10.302 L 9.718,12.459 v 2.786 h 0.067 c 0.234,0 0.467,-0.125 0.467,-0.175 v -0.267 h 3.804 v 0.425 h 0.084 c 0.175,0 0.45,-0.125 0.459,-0.175 v -1.985 c 0.166,-0.034 0.3,-0.1 0.358,-0.167 l -0.684,-0.517 z m -1.602,-2.62 V 9.439 h 1.627 v 0.667 z m 0,-1.551 h 1.627 v 0.65 h -1.627 z m 1.702,2.119 c 0.184,0 0.45,-0.126 0.459,-0.184 V 9.439 h 1.259 C 15.908,9.439 15.975,9.406 16,9.314 15.758,9.08 15.341,8.747 15.341,8.747 l -0.35,0.458 H 14.532 V 8.647 C 14.69,8.613 14.815,8.546 14.874,8.488 L 14.215,7.979 13.914,8.304 H 12.371 V 7.937 c 0.2,-0.033 0.276,-0.116 0.301,-0.233 L 11.829,7.612 V 8.304 H 9.385 L 9.46,8.555 h 2.369 v 0.65 h -3.47 l 0.066,0.234 h 3.404 v 0.667 H 9.335 l 0.075,0.251 h 2.419 v 0.634 H 9.084 l 0.059,0.25 h 2.686 V 11.9 H 8.417 l 0.075,0.242 h 7.216 c 0.117,0 0.2,-0.042 0.225,-0.134 -0.283,-0.25 -0.7,-0.567 -0.7,-0.567 L 14.849,11.9 h -2.478 v -0.659 h 2.828 c 0.1,0 0.184,-0.042 0.209,-0.134 -0.259,-0.242 -0.676,-0.55 -0.676,-0.55 l -0.359,0.434 h -2.002 v -0.634 h 1.627 v 0.317 z"
     id="path23"
     clip-path="url(#clipPath24)"
     transform="matrix(0.875,0,0,0.89717046,1,0.82263632)"
     style="fill:url(#linearGradient27)" />
</svg>
