<?xml version="1.0" encoding="UTF-8" standalone="no"?>
<svg
   width="16"
   height="16"
   version="1.1"
   id="svg47"
   sodipodi:docname="krename.svg"
   inkscape:version="1.3 (0e150ed6c4, 2023-07-21)"
   xmlns:inkscape="http://www.inkscape.org/namespaces/inkscape"
   xmlns:sodipodi="http://sodipodi.sourceforge.net/DTD/sodipodi-0.dtd"
   xmlns:xlink="http://www.w3.org/1999/xlink"
   xmlns="http://www.w3.org/2000/svg"
   xmlns:svg="http://www.w3.org/2000/svg">
  <sodipodi:namedview
     id="namedview49"
     pagecolor="#ffffff"
     bordercolor="#666666"
     borderopacity="1.0"
     inkscape:showpageshadow="2"
     inkscape:pageopacity="0.0"
     inkscape:pagecheckerboard="0"
     inkscape:deskcolor="#d1d1d1"
     showgrid="false"
     inkscape:zoom="27.812867"
     inkscape:cx="4.9976869"
     inkscape:cy="9.0785319"
     inkscape:window-width="1920"
     inkscape:window-height="994"
     inkscape:window-x="0"
     inkscape:window-y="0"
     inkscape:window-maximized="1"
     inkscape:current-layer="svg47" />
  <defs
     id="defs27">
    <linearGradient
       id="a"
       y1="35"
       x1="23"
       y2="13"
       x2="5"
       gradientUnits="userSpaceOnUse"
       gradientTransform="translate(-79.064419,-59.059262)">
      <stop
         stop-color="#c61423"
         id="stop2" />
      <stop
         offset="1"
         stop-color="#dc2b41"
         id="stop4" />
    </linearGradient>
    <linearGradient
       id="b"
       y1="35"
       x1="42"
       y2="12"
       x2="22"
       gradientUnits="userSpaceOnUse"
       gradientTransform="translate(-75.064419,-59.059262)">
      <stop
         stop-color="#197cf1"
         id="stop7" />
      <stop
         offset="1"
         stop-color="#20bcfa"
         id="stop9" />
    </linearGradient>
    <linearGradient
       id="c"
       y1="513.38"
       x1="399.98999"
       y2="537.38"
       x2="424.98999"
       gradientUnits="userSpaceOnUse"
       gradientTransform="translate(-464.04842,-560.44526)">
      <stop
         stop-color="#292c2f"
         id="stop12" />
      <stop
         offset="1"
         stop-opacity="0"
         id="stop14" />
    </linearGradient>
    <linearGradient
       id="d"
       y1="543.79999"
       y2="503.79999"
       x2="0"
       gradientUnits="userSpaceOnUse"
       gradientTransform="matrix(1.05,0,0,0.85,-404.999,-421.23)">
      <stop
         stop-color="#e3dfd6"
         id="stop17" />
      <stop
         offset="1"
         stop-color="#f4f1e8"
         id="stop19" />
    </linearGradient>
    <linearGradient
       id="e"
       y1="543.79999"
       y2="503.79999"
       x2="0"
       gradientUnits="userSpaceOnUse"
       gradientTransform="matrix(1.5,0,0,1,-588.86,-499.8)">
      <stop
         stop-color="#bd8d48"
         id="stop22" />
      <stop
         offset="1"
         stop-color="#e8b971"
         id="stop24" />
    </linearGradient>
    <linearGradient
       id="linearGradient1902"
       x1="32"
       x2="32"
       y1="2.0005"
       y2="61.905998"
       gradientUnits="userSpaceOnUse"
       gradientTransform="matrix(0.7,0,0,0.7,-43.135112,42.820342)">
      <stop
         stop-color="#f5f5f5"
         offset="0"
         id="stop311" />
      <stop
         stop-color="#dcdcdc"
         offset="1"
         id="stop313" />
    </linearGradient>
    <linearGradient
       id="linearGradient2684-6"
       x1="121.63"
       x2="121.63"
       y1="9.125"
       y2="6.4109001"
       gradientTransform="matrix(2.131851,0,-3.4848601e-8,2.1476892,-230.46593,13.966837)"
       gradientUnits="userSpaceOnUse">
      <stop
         stop-color="#4100c3"
         offset="0"
         id="stop8903" />
      <stop
         stop-color="#8214dc"
         offset="1"
         id="stop8905" />
    </linearGradient>
    <linearGradient
       id="linearGradient2688-1"
       x1="121.63"
       x2="121.63"
       y1="9.125"
       y2="6.4109001"
       gradientTransform="matrix(2.131851,0,-3.4848601e-8,2.1476892,-230.46593,22.203871)"
       gradientUnits="userSpaceOnUse">
      <stop
         stop-color="#1982e1"
         offset="0"
         id="stop8908" />
      <stop
         stop-color="#1eaff0"
         offset="1"
         id="stop8910" />
    </linearGradient>
    <linearGradient
       xlink:href="#linearGradient4816"
       id="linearGradient4503-0"
       y1="37"
       y2="4"
       x2="0"
       gradientUnits="userSpaceOnUse"
       gradientTransform="matrix(0.65999998,0,0,0.65999998,-33.100406,51.5095)" />
    <linearGradient
       id="linearGradient4816">
      <stop
         style="stop-color:#da4453"
         id="stop1439" />
      <stop
         offset="1"
         style="stop-color:#ff7336"
         id="stop1441" />
    </linearGradient>
    <linearGradient
       xlink:href="#linearGradient4279"
       id="linearGradient4503-6-9"
       y1="22.313"
       x1="20.438"
       y2="25.406"
       x2="23.531"
       gradientUnits="userSpaceOnUse"
       gradientTransform="matrix(0.65999998,0,0,0.65999998,-33.100406,51.5095)" />
    <linearGradient
       id="linearGradient4279">
      <stop
         id="stop1432" />
      <stop
         offset="1"
         style="stop-opacity:0"
         id="stop1434" />
    </linearGradient>
    <linearGradient
       xlink:href="#linearGradient4816"
       id="linearGradient4503-0-3"
       y1="37"
       y2="4"
       x2="0"
       gradientUnits="userSpaceOnUse"
       gradientTransform="matrix(0.22499999,0,0,0.22499999,-10.647484,1.5507279)" />
    <linearGradient
       inkscape:collect="always"
       xlink:href="#linearGradient4"
       id="linearGradient26"
       x1="15.5"
       y1="15"
       x2="0.49999961"
       y2="1.0000001"
       gradientUnits="userSpaceOnUse"
       gradientTransform="matrix(0.86666667,0,0,0.85714286,1.0666668,1.142857)" />
    <linearGradient
       id="linearGradient4"
       x1="0"
       x2="0"
       y1="0"
       y2="1">
      <stop
         offset="0"
         style="stop-color:#4bc0c8;stop-opacity:1;"
         id="stop1" />
      <stop
         offset="0.52062726"
         style="stop-color:#c779d0;stop-opacity:1;"
         id="stop4-7" />
      <stop
         offset="100%"
         style="stop-color:#ffe680;stop-opacity:1"
         id="stop2-5" />
    </linearGradient>
    <linearGradient
       id="oomox"
       x1="0"
       x2="0"
       y1="0"
       y2="1">
      <stop
         offset="0%"
         style="stop-color:#303b3d; stop-opacity:1"
         id="stop7-9" />
      <stop
         offset="100%"
         style="stop-color:#bc985d; stop-opacity:1"
         id="stop8" />
    </linearGradient>
    <linearGradient
       xlink:href="#linearGradient4"
       id="linearGradient4503-0-3-2"
       y1="37"
       y2="4"
       x2="0"
       gradientUnits="userSpaceOnUse"
       gradientTransform="matrix(0.22499999,0,0,0.22499999,2.5063567,2.8519385)" />
    <linearGradient
       inkscape:collect="always"
       xlink:href="#linearGradient4"
       id="linearGradient10"
       x1="4.9892702"
       y1="7.526"
       x2="10.156347"
       y2="7.526"
       gradientUnits="userSpaceOnUse" />
    <linearGradient
       inkscape:collect="always"
       xlink:href="#linearGradient4"
       id="linearGradient11"
       x1="9.6813736"
       y1="6.8342423"
       x2="12.647279"
       y2="6.8342423"
       gradientUnits="userSpaceOnUse" />
    <linearGradient
       inkscape:collect="always"
       xlink:href="#linearGradient4"
       id="linearGradient15"
       x1="3.5150001"
       y1="6.8342423"
       x2="7.1383562"
       y2="6.8342423"
       gradientUnits="userSpaceOnUse" />
  </defs>
  <path
     d="M 9.6813732,4.8569704 V 8.8115146 H 11.411488 A 1.2357951,1.2357951 0 0 0 12.647279,7.5757198 1.2357951,1.2357951 0 0 0 11.939112,6.4596425 0.98863885,0.98863885 0 0 0 12.152968,5.8456055 0.98863885,0.98863885 0 0 0 11.164326,4.8569704 h -0.988638 z m 0.4943148,0.4943171 h 0.988638 a 0.49431826,0.49431826 0 0 1 0.494316,0.494318 0.49431826,0.49431826 0 0 1 -0.494316,0.4943178 h -0.988638 z m 0,1.4829566 h 1.2358 a 0.74147585,0.7414796 0 0 1 0.74148,0.7414757 0.74147585,0.7414796 0 0 1 -0.74148,0.7414774 h -1.2358 V 7.5757198 Z m 0,0.7414757 a 1.2357951,1.2357951 0 0 0 8.49e-4,0.018828 v -0.047703 a 1.2357951,1.2357951 0 0 0 -8.49e-4,0.028974"
     id="path35-2-8"
     style="fill:url(#linearGradient11);fill-opacity:1" />
  <path
     d="M 5.0248932,4.8569704 3.515,8.8115146 H 4.0792625 L 4.4302326,7.8228795 H 6.231281 L 6.5822457,8.8115146 H 7.138356 L 5.6311776,4.8569704 Z M 5.3266775,5.3841596 6.0464046,7.3285615 H 4.6096655 Z"
     id="path37-9-7"
     style="fill:url(#linearGradient15);fill-opacity:1" />
  <path
     class="ColorScheme-Text"
     d="m 2.8928558,2 c -0.763285,0 -1.392856,0.678 -1.392856,1.5 v 9 c 0,0.822994 0.629571,1.5 1.392856,1.5 H 13.107141 C 13.870429,14 14.5,13.322994 14.5,12.5 v -9 C 14.5,2.678 13.870429,2 13.107141,2 Z m 0,0.999999 h 3.249999 0.928571 v 0 h 3.5285732 v 0 0 0 h 2.507141 c 0.265565,0 0.464277,0.215001 0.464277,0.500001 v 9 c 0,0.285994 0.05258,-0.5 0.05258,-0.5 H 1.9999998 c 0,0 0.422118,0.778974 0.42857,0.5 v -9 c 0,-0.285 0.198716,-0.500001 0.464286,-0.500001 z m 4.17857,0 h 1.857144 v 0 0 z"
     font-family="sans-serif"
     font-weight="400"
     overflow="visible"
     id="path22"
     sodipodi:nodetypes="sssssssssscccccccssscccssccccc"
     style="color:#d5c289;fill:url(#linearGradient26);stroke-width:0.861892" />
  <path
     style="fill:url(#linearGradient4503-0-3-2);fill-rule:evenodd;stroke-width:0.225"
     d="M 10.155942,3.7519387 9.6316954,4.0091885 c -0.524629,0.2574364 -1.078763,0.8438046 -1.078763,0.8438046 l 0.08243,0.6624002 c -0.03111,0.045129 -0.06373,0.093353 -0.0966,0.1415785 L 8.305617,5.2391833 7.9262838,5.7113318 8.1941993,6.170843 c -0.00168,0.00217 -0.00376,0.00519 -0.0052,0.00763 L 7.8534564,5.7972818 c 0,0 -0.2184203,0.2572241 -0.8887719,1.2154542 C 6.2943284,7.9709647 5.7403676,9.0865363 5.7403676,9.0865363 l 0.025787,0.757844 c -0.036074,0.05338 -0.074231,0.111218 -0.1094939,0.1630697 L 5.5510401,9.3867633 5.3178968,9.7729543 5.2592978,10.145239 5.1285535,10.302625 c 0,0 -0.2164771,0.809743 -0.1749961,0.956107 0.041475,0.146368 0.590405,-0.141377 0.590405,-0.141377 l 0.028978,-0.19278 0.444387,-0.142848 -0.4946149,-0.0986 c 0.011906,-0.01996 0.02654,-0.04425 0.038629,-0.06446 0.059181,0.01826 0.1288594,0.03872 0.2595466,0.06256 0.3133183,0.05719 0.5242474,-0.0569 0.5242474,-0.0569 L 6.5711874,10.33801 c 0,0 -0.1748726,0.121628 -0.3716091,0.157384 -0.1938117,0.0352 -0.5233381,-0.0462 -0.5332625,-0.04867 0.017315,-0.02868 0.035878,-0.05941 0.053465,-0.08849 0.083207,-0.02121 0.8330711,-0.216811 1.273904,-0.5277667 0.4663318,-0.328948 1.3917625,-1.3443965 1.3917625,-1.3443965 0,0 -0.2232232,-0.00193 -0.7041291,-0.00914 -0.4531445,-0.00675 -0.8536731,-0.00371 -0.8999996,0 0.020925,-0.033434 0,-0.2250001 0,-0.2250001 L 8.7132618,7.9494818 c 0,0 0.124197,-0.2359926 0.313644,-0.6149966 0.189451,-0.378996 0.679413,-1.3325255 0.679413,-1.3325255 0,0 -0.329054,-0.00937 -0.622735,-0.049792 -0.280312,-0.038641 -0.545669,-0.1061459 -0.5706177,-0.1125183 0.0031,-0.00518 0.0069,-0.010608 0.01031,-0.015814 0.04078,-0.018855 0.3028067,-0.1394708 0.4984867,-0.2003624 0.211247,-0.065737 0.855286,-0.1567523 0.855286,-0.1567523 0,0 0.005,-0.091018 0.05153,-0.2781068 0.04636,-0.1870903 0.1391162,-0.6168924 0.1391162,-0.6168924 L 8.9470558,5.2031558 c 0.04717,-0.064909 0.09174,-0.1226345 0.137824,-0.1839311 L 10.108895,4.4200269 c 0,0 0.0103,-0.1314675 0.03088,-0.3033902 0.02062,-0.1719145 0.01611,-0.3646936 0.01611,-0.3646926 z"
     id="path6622-6-6" />
  <path
     d="m 10.155911,3.7519373 -0.1590756,0.1986344 -0.57975,0.7419842 -0.8937377,1.131405 c 0.04078,-0.018862 0.3026637,-0.139495 0.4983427,-0.2003887 0.211246,-0.065737 0.855177,-0.1568863 0.855177,-0.1568863 0,0 0.0052,-0.091084 0.05182,-0.2781731 0.04636,-0.1870951 0.1388656,-0.616995 0.1388656,-0.616995 L 9.0999994,5.1135057 c 0.04717,-0.064912 0.0919,-0.1223989 0.137982,-0.183691 L 10.108882,4.4199106 c 0,0 0.01016,-0.1313071 0.03082,-0.3032245 0.02062,-0.1719206 0.01626,-0.3647501 0.01626,-0.3647488 z M 8.5233477,5.8239609 6.7813581,8.2519376 8.7131894,7.9495963 c 0,0 0.124326,-0.2362334 0.313773,-0.6152335 0.189438,-0.3790035 0.679395,-1.3324254 0.679395,-1.3324254 0,0 -0.329026,-0.00921 -0.622705,-0.049655 -0.280314,-0.038634 -0.545908,-0.1061297 -0.5708537,-0.1125006 0.0031,-0.00517 0.0072,-0.01064 0.01057,-0.015796 z M 6.7813581,8.2519376 4.98927,11.293832 c 0.1305901,0.04588 0.5545879,-0.176659 0.5545879,-0.176659 l 0.028985,-0.192481 0.4447259,-0.142821 -0.4948217,-0.09888 c 0.011916,-0.01998 0.026569,-0.04395 0.038655,-0.06418 0.059175,0.01828 0.1290243,0.03855 0.2597214,0.06242 0.3133121,0.05719 0.5238246,-0.05668 0.5238246,-0.05668 l 0.226323,-0.286522 c 0,0 -0.1750468,0.121569 -0.3717828,0.157324 -0.1938083,0.03523 -0.5231313,-0.04631 -0.5330573,-0.04878 0.017316,-0.02867 0.035565,-0.05926 0.053178,-0.08833 0.083209,-0.02121 0.8331414,-0.216821 1.2739724,-0.5277807 0.4663362,-0.328945 1.3917506,-1.3442829 1.3917506,-1.3442829 0,0 -0.2231008,-0.00204 -0.7040083,-0.00924 -0.4531378,-0.00675 -0.8536691,-0.00371 -0.8999936,0 0.020916,-0.033431 0,-0.225 0,-0.225 z"
     id="path6626-6-1"
     style="fill:url(#linearGradient10);fill-opacity:1" />
  <path
     d="m 10.851226,3.1259999 c 0,0 -1.0809985,1.0869355 -2.1575151,2.480399 -1.0765252,1.393468 -2.1681941,2.969852 -3.2598216,4.7695991 -0.9479473,1.56286 -0.6049142,1.549999 -0.6049142,1.549999 0,0 0.1075021,-0.260415 0.8603201,-1.487499 C 6.4088768,9.2655869 7.3192028,7.7509999 8.8415678,5.6634999 9.5671572,4.6685512 10.851225,3.1260006 10.851226,3.1259999 Z"
     id="path6624-2-9-1"
     style="fill:#ffffff;fill-opacity:1;stroke-width:1.0083" />
</svg>
