<?xml version="1.0" encoding="UTF-8" standalone="no"?>
<svg
   version="1.1"
   viewBox="0 0 16 16"
   id="svg28"
   sodipodi:docname="parley.svg"
   inkscape:version="1.3 (0e150ed6c4, 2023-07-21)"
   width="16"
   height="16"
   xmlns:inkscape="http://www.inkscape.org/namespaces/inkscape"
   xmlns:sodipodi="http://sodipodi.sourceforge.net/DTD/sodipodi-0.dtd"
   xmlns:xlink="http://www.w3.org/1999/xlink"
   xmlns="http://www.w3.org/2000/svg"
   xmlns:svg="http://www.w3.org/2000/svg">
  <sodipodi:namedview
     id="namedview30"
     pagecolor="#ffffff"
     bordercolor="#666666"
     borderopacity="1.0"
     inkscape:showpageshadow="2"
     inkscape:pageopacity="0.0"
     inkscape:pagecheckerboard="0"
     inkscape:deskcolor="#d1d1d1"
     showgrid="false"
     inkscape:zoom="13.906434"
     inkscape:cx="4.2426406"
     inkscape:cy="14.058241"
     inkscape:window-width="1920"
     inkscape:window-height="994"
     inkscape:window-x="0"
     inkscape:window-y="0"
     inkscape:window-maximized="1"
     inkscape:current-layer="svg28" />
  <defs
     id="defs12">
    <linearGradient
       id="b"
       x1="15.425"
       x2="31.702721"
       y1="13.05"
       y2="30.814844"
       gradientTransform="matrix(1.0041687,0,0,0.94967539,386.73655,504.5339)"
       gradientUnits="userSpaceOnUse">
      <stop
         offset="0"
         id="stop2" />
      <stop
         stop-opacity="0"
         offset="1"
         id="stop4" />
    </linearGradient>
    <linearGradient
       id="a"
       x1="30.207001"
       x2="14"
       y1="43"
       y2="10"
       gradientTransform="matrix(-1,0,0,1,432.30321,499.798)"
       gradientUnits="userSpaceOnUse">
      <stop
         stop-color="#cebee5"
         offset="0"
         id="stop7" />
      <stop
         stop-color="#f1f1f1"
         offset="1"
         id="stop9" />
    </linearGradient>
    <linearGradient
       id="linearGradient4416">
      <stop
         style="stop-color:#ffffff;stop-opacity:0"
         offset="0"
         id="stop2-5" />
      <stop
         style="stop-color:#ffffff;stop-opacity:1"
         offset="1"
         id="stop4-3" />
    </linearGradient>
    <linearGradient
       inkscape:collect="always"
       xlink:href="#linearGradient4"
       id="linearGradient2"
       x1="10.707617"
       y1="31.534513"
       x2="37.173615"
       y2="31.534513"
       gradientUnits="userSpaceOnUse"
       gradientTransform="matrix(0.49119628,0,0,0.49119635,-3.7595399,-7.4896383)" />
    <linearGradient
       id="linearGradient4"
       inkscape:collect="always">
      <stop
         style="stop-color:#ffdd55;stop-opacity:1"
         offset="0"
         id="stop3" />
      <stop
         style="stop-color:#bc5fd3;stop-opacity:1"
         offset="1"
         id="stop4-2" />
    </linearGradient>
    <linearGradient
       id="a-9">
      <stop
         offset="0"
         id="stop1433" />
      <stop
         offset="1"
         stop-opacity="0"
         id="stop1435" />
    </linearGradient>
  </defs>
  <path
     id="circle2"
     style="opacity:0.99;fill:url(#linearGradient2);fill-opacity:1;stroke-width:0.491199"
     d="M 14.499999,8.0000008 A 6.4999993,6.5000004 0 0 1 8.0000001,14.5 6.4999993,6.5000004 0 0 1 1.5000011,8.0000008 6.4999993,6.5000004 0 0 1 8.0000001,1.4999997 6.4999993,6.5000004 0 0 1 14.499999,8.0000008 Z" />
  <path
     id="circle858"
     style="fill:#1c202f;fill-opacity:1;stroke-width:0.417883"
     d="M 13.529826,8.0000008 A 5.5298259,5.5298271 0 0 1 8.0000001,13.529826 5.5298259,5.5298271 0 0 1 2.4701741,8.0000008 5.5298259,5.5298271 0 0 1 8.0000001,2.4701737 5.5298259,5.5298271 0 0 1 13.529826,8.0000008 Z" />
  <path
     id="path4531"
     d="M 5.7500064,5.023549 V 5.7735661 H 4.2500092 v 0.7499873 h 2.2207027 c -0.088673,0.1593084 -0.1951414,0.3333823 -0.341311,0.5170968 -0.0077,0.00853 -0.017299,0.017031 -0.02491,0.028327 C 5.9419197,6.9286626 5.8291009,6.8229318 5.8291009,6.8229318 L 5.2959,7.3502873 c 0,0 0.097766,0.096664 0.256339,0.2358435 C 5.2072995,7.8386959 4.7887972,8.0241375 4.2499913,8.0241375 V 8.774126 c 0.8016704,0 1.4278736,-0.3178183 1.9072251,-0.7133666 C 6.6510921,8.4060502 7.2938742,8.774126 7.9999827,8.774126 V 8.0241367 c -0.385829,0 -0.8809684,-0.2315894 -1.2963818,-0.5024427 0.0037,-0.00569 0.00932,-0.00853 0.013047,-0.014164 C 7.0466988,7.0927096 7.2110095,6.7526381 7.3084442,6.5246185 H 7.9998506 V 5.7746339 H 6.4998374 V 5.024618 Z"
     style="line-height:normal;text-indent:0;text-align:start;text-decoration:none;text-decoration-line:none;text-decoration-style:solid;text-decoration-color:#000000;text-transform:none;isolation:auto;mix-blend-mode:normal;fill:#ffffff;fill-opacity:1;stroke-width:0.75"
     inkscape:connector-curvature="0"
     sodipodi:nodetypes="ccccccccccccccccccccccc" />
  <path
     sodipodi:nodetypes="ccccccccccccccccc"
     inkscape:connector-curvature="0"
     style="line-height:normal;text-indent:0;text-align:start;text-decoration:none;text-decoration-line:none;text-decoration-style:solid;text-decoration-color:#000000;text-transform:none;isolation:auto;mix-blend-mode:normal;fill:#ffffff;fill-opacity:1;stroke-width:0.75"
     d="M 9.5571259,7.2735416 8.0000001,10.179786 v 0.843763 h 0.7499974 v -0.656251 l 0.04981,-0.09382 h 2.1503855 l 0.04981,0.09382 v 0.656251 h 0.75 V 10.179786 L 10.192874,7.2735416 Z M 9.8749961,8.2667173 10.548825,9.5235378 H 9.2011699 Z"
     id="path843" />
</svg>
