<?xml version="1.0" encoding="UTF-8" standalone="no"?>
<svg
   width="16"
   height="16"
   viewBox="0 0 16 16"
   version="1.1"
   id="svg30"
   sodipodi:docname="plank.svg"
   inkscape:version="1.3 (0e150ed6c4, 2023-07-21)"
   xmlns:inkscape="http://www.inkscape.org/namespaces/inkscape"
   xmlns:sodipodi="http://sodipodi.sourceforge.net/DTD/sodipodi-0.dtd"
   xmlns:xlink="http://www.w3.org/1999/xlink"
   xmlns="http://www.w3.org/2000/svg"
   xmlns:svg="http://www.w3.org/2000/svg">
  <sodipodi:namedview
     id="namedview32"
     pagecolor="#ffffff"
     bordercolor="#666666"
     borderopacity="1.0"
     inkscape:showpageshadow="2"
     inkscape:pageopacity="0.0"
     inkscape:pagecheckerboard="0"
     inkscape:deskcolor="#d1d1d1"
     showgrid="false"
     inkscape:zoom="19.666667"
     inkscape:cx="7.6779661"
     inkscape:cy="14.262712"
     inkscape:window-width="1920"
     inkscape:window-height="994"
     inkscape:window-x="0"
     inkscape:window-y="0"
     inkscape:window-maximized="1"
     inkscape:current-layer="svg30" />
  <defs
     id="defs18">
    <linearGradient
       id="linearGradient1"
       inkscape:collect="always">
      <stop
         style="stop-color:#00ffcc;stop-opacity:1"
         offset="0"
         id="stop1" />
      <stop
         style="stop-color:#bc5fd3;stop-opacity:1"
         offset="1"
         id="stop3" />
    </linearGradient>
    <linearGradient
       id="linearGradient4146">
      <stop
         style="stop-color:#e4f2f6;stop-opacity:1;"
         offset="0"
         id="stop2" />
      <stop
         style="stop-color:#b1caee;stop-opacity:1"
         offset="1"
         id="stop4" />
    </linearGradient>
    <linearGradient
       id="a"
       y1="543.79999"
       y2="503.79999"
       x2="0"
       gradientUnits="userSpaceOnUse"
       gradientTransform="translate(-384.5705,504.5622)">
      <stop
         stop-color="#2f74c8"
         id="stop7" />
      <stop
         offset="1"
         stop-color="#4699d7"
         id="stop9" />
    </linearGradient>
    <linearGradient
       id="b"
       y1="15.968"
       x1="18.437"
       y2="33.629002"
       x2="36.098"
       gradientUnits="userSpaceOnUse"
       gradientTransform="translate(-5.0357628e-4,1004.3622)">
      <stop
         stop-color="#292c2f"
         style="stop-color:#000000;stop-opacity:1"
         id="stop12" />
      <stop
         offset="1"
         stop-opacity="0"
         id="stop14" />
    </linearGradient>
    <linearGradient
       xlink:href="#linearGradient4146"
       id="linearGradient4152"
       x1="21.051001"
       y1="1016.939"
       x2="28.563999"
       y2="1040.1071"
       gradientUnits="userSpaceOnUse" />
    <linearGradient
       xlink:href="#linearGradient4298"
       id="linearGradient4304-3"
       x1="26.929001"
       y1="5.9949999"
       x2="47.120998"
       y2="37.126999"
       gradientUnits="userSpaceOnUse"
       gradientTransform="matrix(0.9,0,0,0.9,6.4000038,6.4000032)" />
    <linearGradient
       id="linearGradient4298">
      <stop
         style="stop-color:#000000;stop-opacity:1;"
         offset="0"
         id="stop4300" />
      <stop
         style="stop-color:#000000;stop-opacity:0;"
         offset="1"
         id="stop4302" />
    </linearGradient>
    <linearGradient
       id="a-3"
       y1="543.79999"
       y2="503.79999"
       x2="0"
       gradientUnits="userSpaceOnUse"
       gradientTransform="translate(-384.5705,504.5622)">
      <stop
         stop-color="#2f74c8"
         id="stop7-6" />
      <stop
         offset="1"
         stop-color="#4699d7"
         id="stop9-7" />
    </linearGradient>
    <linearGradient
       xlink:href="#linearGradient4146"
       id="linearGradient4152-5"
       x1="21.051001"
       y1="1016.939"
       x2="28.563999"
       y2="1040.1071"
       gradientUnits="userSpaceOnUse" />
    <linearGradient
       inkscape:collect="always"
       xlink:href="#linearGradient1"
       id="linearGradient3"
       x1="2.5000005"
       y1="8.0000001"
       x2="13.5"
       y2="8.0000001"
       gradientUnits="userSpaceOnUse" />
  </defs>
  <path
     class="cls-1"
     d="m 13.1978,13.77654 -0.96092,-0.92031 c -1.05736,1.009127 -2.5894305,1.643771 -4.2941105,1.643771 -1.67393,0 -3.181388,-0.611889 -4.236252,-1.589384 l -0.90432,0.865923 a 0.3023465,0.28923717 0 0 1 -0.302197,-0.289399 v -2.778079 a 0.3023465,0.28923717 0 0 1 0.302197,-0.289396 h 2.901108 a 0.3023465,0.28923717 0 0 1 0.302166,0.289396 l -0.902572,0.864316 c 0.536094,0.444031 1.21122,0.765814 1.96442,0.912526 V 8.1263392 h -1.838268 a 0.86135655,0.82400937 0 0 1 0,-1.6480185 h 1.838268 v -0.908098 a 2.2164466,2.1203446 0 1 1 1.74144,0 v 0.908098 H 10.58396 a 0.86135655,0.82400937 0 0 1 0,1.6480185 H 8.8086395 v 4.3799558 c 0.8011,-0.13627 1.5194605,-0.469487 2.0829305,-0.938238 L 9.9945295,10.709062 A 0.3023465,0.28923717 0 0 1 10.29675,10.419666 H 13.1978 A 0.3023465,0.28923717 0 0 1 13.5,10.709062 v 2.778079 A 0.3023465,0.28923717 0 0 1 13.1978,13.77654 Z M 7.9376795,2.906171 a 0.7436308,0.71138802 0 1 0 0.74259,0.7113884 0.74315342,0.71093134 0 0 0 -0.74259,-0.7113884 z"
     id="path1"
     style="fill-rule:evenodd;stroke-width:0.0203009;fill:url(#linearGradient3);fill-opacity:1" />
</svg>
