<?xml version="1.0" encoding="UTF-8" standalone="no"?>
<svg
   height="16"
   width="16"
   version="1.1"
   id="svg6"
   sodipodi:docname="portal-revolution.svg"
   inkscape:version="1.4.1 (unknown)"
   xmlns:inkscape="http://www.inkscape.org/namespaces/inkscape"
   xmlns:sodipodi="http://sodipodi.sourceforge.net/DTD/sodipodi-0.dtd"
   xmlns:xlink="http://www.w3.org/1999/xlink"
   xmlns="http://www.w3.org/2000/svg"
   xmlns:svg="http://www.w3.org/2000/svg"
   xmlns:rdf="http://www.w3.org/1999/02/22-rdf-syntax-ns#"
   xmlns:cc="http://creativecommons.org/ns#"
   xmlns:dc="http://purl.org/dc/elements/1.1/">
  <metadata
     id="metadata12">
    <rdf:RDF>
      <cc:Work
         rdf:about="">
        <dc:format>image/svg+xml</dc:format>
        <dc:type
           rdf:resource="http://purl.org/dc/dcmitype/StillImage" />
      </cc:Work>
    </rdf:RDF>
  </metadata>
  <defs
     id="defs10">
    <linearGradient
       id="linearGradient1"
       inkscape:collect="always">
      <stop
         style="stop-color:#9955ff;stop-opacity:1"
         offset="0"
         id="stop1" />
      <stop
         style="stop-color:#c83771;stop-opacity:1"
         offset="1"
         id="stop2" />
    </linearGradient>
    <marker
       style="overflow:visible"
       id="DotL"
       refX="0"
       refY="0"
       orient="auto"
       inkscape:stockid="DotL"
       inkscape:isstock="true">
      <path
         transform="matrix(0.8,0,0,0.8,5.92,0.8)"
         style="fill:#000000;fill-opacity:1;fill-rule:evenodd;stroke:#000000;stroke-width:1pt;stroke-opacity:1"
         d="m -2.5,-1 c 0,2.76 -2.24,5 -5,5 -2.76,0 -5,-2.24 -5,-5 0,-2.76 2.24,-5 5,-5 2.76,0 5,2.24 5,5 z"
         id="path898" />
    </marker>
    <linearGradient
       inkscape:collect="always"
       xlink:href="#linearGradient1"
       id="linearGradient2"
       x1="1.500001"
       y1="14.5"
       x2="14.499999"
       y2="1.5000001"
       gradientUnits="userSpaceOnUse" />
  </defs>
  <sodipodi:namedview
     pagecolor="#ffffff"
     bordercolor="#666666"
     borderopacity="1"
     objecttolerance="10"
     gridtolerance="10"
     guidetolerance="10"
     inkscape:pageopacity="0"
     inkscape:pageshadow="2"
     inkscape:window-width="1920"
     inkscape:window-height="998"
     id="namedview8"
     showgrid="false"
     inkscape:zoom="45.254834"
     inkscape:cx="9.3139221"
     inkscape:cy="9.4906988"
     inkscape:window-x="0"
     inkscape:window-y="0"
     inkscape:window-maximized="1"
     inkscape:current-layer="svg6"
     inkscape:document-rotation="0"
     inkscape:pagecheckerboard="0"
     inkscape:showpageshadow="2"
     inkscape:deskcolor="#d1d1d1" />
  <path
     id="circle2"
     d="M 14.499999,7.9999999 A 6.4999991,6.5000002 0 0 1 8.0000001,14.5 6.4999991,6.5000002 0 0 1 1.500001,7.9999999 6.4999991,6.5000002 0 0 1 8.0000001,1.5000001 6.4999991,6.5000002 0 0 1 14.499999,7.9999999 Z"
     style="fill:url(#linearGradient2);fill-opacity:1" />
  <path
     id="circle858"
     style="opacity:1;fill:#1c202f;fill-opacity:1;stroke-width:0.417883"
     d="M 13.529826,7.9999997 A 5.5298258,5.5298269 0 0 1 8.0000001,13.529827 5.5298258,5.5298269 0 0 1 2.4701742,7.9999997 5.5298258,5.5298269 0 0 1 8.0000001,2.4701728 5.5298258,5.5298269 0 0 1 13.529826,7.9999997 Z" />
  <path
     d="M 7.5496489,12.483832 C 7.1316593,12.442334 6.7203104,12.35021 6.4482849,12.235684 A 2.4880137,2.4897431 0 0 1 6.3247125,12.182564 6.6347066,6.6393176 0 0 1 6.2757835,11.920313 L 6.1920225,11.453072 C 6.0609861,10.745151 5.9199972,9.9011283 5.9299467,9.8911723 c 0.00497,-0.0058 0.8110933,0.5344607 1.7432738,1.1668587 0.8533895,0.579277 1.0192564,0.692144 1.4082145,0.952742 0.3897887,0.262251 0.3665663,0.243997 0.3474917,0.254784 A 3.3173549,3.3196598 0 0 1 9.0275265,12.39585 4.9760306,4.9794845 0 0 1 8.4337243,12.48963 7.4640435,7.4692341 0 0 1 7.5496488,12.48383 M 9.5997729,12.035661 A 17.416104,17.428205 0 0 1 8.7347728,11.439784 15.757427,15.768379 0 0 0 8.1816008,11.057193 1.6586768,1.6598295 0 0 1 7.9178703,10.874615 c -0.056392,-0.04813 -0.081273,-0.08631 -0.056392,-0.08631 0.014898,0 0.7629895,-0.139426 1.310358,-0.243995 0.6344384,-0.121168 1.8004897,-0.350225 2.5883627,-0.507077 0.144307,-0.02905 0.265385,-0.0498 0.270363,-0.04482 0.0083,0.0083 -0.05639,0.1352757 -0.164211,0.3161977 a 4.3954899,4.3985448 0 0 1 -1.079797,1.230766 6.6347066,6.6393176 0 0 1 -0.563951,0.379266 4.9760306,4.9794845 0 0 1 -0.444525,0.222418 c -0.00832,0 -0.08874,-0.0473 -0.1783046,-0.104569 z M 5.8337434,11.940221 A 3.8149579,3.817606 0 0 1 4.8277578,11.199939 4.6442961,4.6475235 0 0 1 4.112867,10.280393 5.8053675,5.8094013 0 0 1 3.8765066,9.8405413 c 0,-0.01243 0.3541305,-0.543596 0.6535175,-0.980129 0.2479742,-0.362671 0.4959476,-0.733648 0.6269837,-0.940293 0.015747,-0.02322 0.030685,-0.03984 0.034001,-0.03652 0.016611,0.01664 0.2289008,1.045696 0.4072028,1.974369 0.1575785,0.8199537 0.1890899,0.9834517 0.2504645,1.2905197 0.070492,0.356032 0.1608879,0.797544 0.1741572,0.848999 q 0.00751,0.03071 -0.00495,0.03071 c -0.00668,0 -0.089568,-0.03983 -0.1841136,-0.08797 m 4.0181404,-1.821663 c -0.00411,-0.0116 0.00832,-0.03569 0.034832,-0.06556 0.022374,-0.02655 0.1542569,-0.2174377 0.2919279,-0.4257507 0.222263,-0.335282 0.380667,-0.564336 0.721527,-1.048177 a 57.224316,57.264102 0 0 0 1.262252,-1.839925 1.6586768,1.6598295 0 0 1 0.09786,-0.143572 c 0.01406,-0.002 0.09206,0.224906 0.134353,0.388397 0.08127,0.315371 0.106158,0.551895 0.105327,0.980966 q -0.0033,0.926182 -0.276997,1.642399 l -0.03317,0.08631 -0.05805,0.0116 -0.233876,0.04565 -1.008475,0.192535 A 72.152436,72.202572 0 0 1 9.8900698,10.130168 q -0.032341,0.0083 -0.038149,-0.0116 M 3.7048371,9.3376143 c -0.1434756,-0.364333 -0.2040138,-0.751074 -0.204846,-1.305454 0,-0.44816 0.028218,-0.716218 0.1185918,-1.121215 0.035664,-0.162666 0.1393304,-0.488823 0.1617203,-0.511229 0.00832,-0.0083 0.1094763,-0.03071 0.2264166,-0.05063 0.2114781,-0.03651 0.6079004,-0.109544 1.0532569,-0.194198 0.7447456,-0.141085 1.0731634,-0.196688 1.0988728,-0.18673 0.00832,0.0033 0.016611,0.01575 0.016611,0.02741 0,0.02405 0.00328,0.01747 -0.2098242,0.317856 l -0.2587577,0.36599 -0.3615891,0.512892 a 92.05655,92.120534 0 0 0 -1.3874991,1.998425 4.9760306,4.9794845 0 0 1 -0.1932366,0.278847 0.82933795,0.82991428 0 0 1 -0.05971,-0.132781 z m 7.0618099,-1.190098 a 7.4640435,7.4692341 0 0 0 -0.04147,-0.244827 l -0.07878,-0.445662 -0.298562,-1.769378 c -0.0481,-0.294623 -0.204847,-1.184286 -0.259585,-1.470609 A 1.1610736,1.1618803 0 0 1 10.05839,4.0004352 c 0.01324,-0.013251 0.245484,0.117012 0.453647,0.2556107 a 4.3954899,4.3985448 0 0 1 1.269714,1.2905144 c 0.132698,0.207481 0.305197,0.526997 0.364914,0.677213 l 0.02155,0.05643 -0.06966,0.109551 c -0.07547,0.119506 -0.180795,0.267227 -0.489309,0.691313 -0.110298,0.15271 -0.269534,0.37844 -0.353294,0.502096 -0.211486,0.310395 -0.448674,0.624101 -0.474382,0.624101 -0.0041,0 -0.01078,-0.02655 -0.01491,-0.05975 M 10.050109,6.1739793 A 9.1227176,9.1290599 0 0 0 9.6105654,5.8669093 129.37675,129.46666 0 0 1 6.7866668,3.9182736 2.4880137,2.4897431 0 0 1 6.5469903,3.7190938 c 0,-0.00832 0.2396765,-0.082991 0.3599291,-0.1112145 0.120255,-0.028233 0.3864716,-0.074691 0.5407292,-0.092949 0.077949,-0.00996 0.262061,-0.014931 0.5407196,-0.014931 0.3707147,0 0.4445273,0.0041 0.6029309,0.024873 0.281975,0.039008 0.4810139,0.078018 0.6759103,0.1344513 0.1741632,0.04979 0.4561382,0.1568528 0.4561382,0.1726199 l 0.045611,0.2655735 c 0.024852,0.1410822 0.082932,0.4913093 0.1302069,0.7768003 0.082936,0.512886 0.1343505,0.813315 0.1924045,1.135322 0.02739,0.153534 0.02904,0.201667 0.0067,0.201667 a 0.16586768,0.16598295 0 0 1 -0.04814,-0.03733 M 3.9445292,6.0469973 A 4.3457322,4.3487556 0 0 1 5.6844779,4.1315576 c 0.1882613,-0.112869 0.49097,-0.2655741 0.5266337,-0.2655741 0.02655,0 0.090396,0.043986 0.9205633,0.6274124 0.4917997,0.3444134 0.6352708,0.4431764 0.8003137,0.5485744 0.1426458,0.0913 0.2819741,0.200838 0.2819741,0.222421 0,0.005 -0.014064,0.01243 -0.030684,0.01573 a 228.89729,229.05633 0 0 1 -2.5775883,0.484676 l -1.6528674,0.30707 c -0.01746,0.005 -0.018282,0.002 -0.00832,-0.02487"
     style="fill:#c83771;fill-opacity:1;stroke-width:0.0112705"
     id="path1-3" />
</svg>
