<?xml version="1.0" encoding="UTF-8" standalone="no"?>
<svg
   width="16"
   height="16"
   viewBox="0 0 16 16"
   fill="none"
   version="1.1"
   id="svg23"
   sodipodi:docname="portal-2.svg"
   inkscape:version="1.4.1 (unknown)"
   xmlns:inkscape="http://www.inkscape.org/namespaces/inkscape"
   xmlns:sodipodi="http://sodipodi.sourceforge.net/DTD/sodipodi-0.dtd"
   xmlns:xlink="http://www.w3.org/1999/xlink"
   xmlns="http://www.w3.org/2000/svg"
   xmlns:svg="http://www.w3.org/2000/svg">
  <sodipodi:namedview
     id="namedview23"
     pagecolor="#ffffff"
     bordercolor="#000000"
     borderopacity="0.25"
     inkscape:showpageshadow="2"
     inkscape:pageopacity="0.0"
     inkscape:pagecheckerboard="0"
     inkscape:deskcolor="#d1d1d1"
     inkscape:zoom="31.958333"
     inkscape:cx="7.2907432"
     inkscape:cy="11.843546"
     inkscape:window-width="1920"
     inkscape:window-height="998"
     inkscape:window-x="0"
     inkscape:window-y="0"
     inkscape:window-maximized="1"
     inkscape:current-layer="svg23" />
  <path
     style="color:#d6dbf1;fill:url(#linearGradient2);fill-opacity:1;stroke-width:0.8125"
     class="ColorScheme-Text "
     d="M 8,1.5 C 4.4055,1.5 1.5,4.4055 1.5,8 c 0,3.594501 2.9055,6.500001 6.5,6.500001 3.594498,0 6.499996,-2.9055 6.499996,-6.500001 C 14.499996,4.4055 11.594498,1.5 8,1.5 Z m 0,0.8125 c 3.144377,0 5.687496,2.54312 5.687496,5.6875 0,3.144371 -2.543121,5.687501 -5.687496,5.687501 C 4.855626,13.687501 2.3125,11.144371 2.3125,8 2.3125,4.85562 4.855626,2.3125 8,2.3125 Z m 0.609375,4.64669 v 0 0 0 0 0 c 0,0 -0.02761,0.006 0,0 z m -0.634569,3.656251 z"
     id="path58-9"
     sodipodi:nodetypes="ssssssssssccccccccccccccccc" />
  <defs
     id="defs23">
    <linearGradient
       id="linearGradient7"
       x1="169.86"
       y1="7.7666602"
       x2="-5.1536398"
       y2="162.661"
       gradientUnits="userSpaceOnUse"
       gradientTransform="matrix(0.08102633,0,0,0.08102633,-30.116839,-21.769306)">
      <stop
         stop-color="#FE7970"
         id="stop3"
         style="stop-color:#ff8080;stop-opacity:1" />
      <stop
         offset="1"
         stop-color="#DC3282"
         id="stop4"
         style="stop-color:#ff2a2a;stop-opacity:1" />
    </linearGradient>
    <linearGradient
       id="paint0_linear"
       x1="169.86"
       y1="7.7666602"
       x2="-5.1536398"
       y2="162.661"
       gradientUnits="userSpaceOnUse"
       gradientTransform="matrix(0.08102633,0,0,0.08102633,-30.116839,-21.769306)">
      <stop
         stop-color="#FE7970"
         id="stop8" />
      <stop
         offset="1"
         stop-color="#DC3282"
         id="stop9" />
    </linearGradient>
    <linearGradient
       id="paint1_linear"
       x1="169.86"
       y1="7.7666602"
       x2="-5.1536398"
       y2="162.661"
       gradientUnits="userSpaceOnUse"
       gradientTransform="matrix(0.07643993,0,0,0.07643993,-29.649441,-21.21261)">
      <stop
         stop-color="#FE7970"
         id="stop10" />
      <stop
         offset="1"
         stop-color="#DC3282"
         id="stop11" />
    </linearGradient>
    <linearGradient
       id="paint2_linear"
       x1="169.86"
       y1="7.7666602"
       x2="-5.1536398"
       y2="162.661"
       gradientUnits="userSpaceOnUse"
       gradientTransform="matrix(0.08102633,0,0,0.08102633,-30.116839,-21.769306)">
      <stop
         stop-color="#FE7970"
         id="stop12" />
      <stop
         offset="1"
         stop-color="#DC3282"
         id="stop13" />
    </linearGradient>
    <linearGradient
       id="paint3_linear"
       x1="169.86"
       y1="7.7666602"
       x2="-5.1536398"
       y2="162.661"
       gradientUnits="userSpaceOnUse"
       gradientTransform="matrix(0.08102633,0,0,0.08102633,-30.116839,-21.769306)">
      <stop
         stop-color="#FE7970"
         id="stop14" />
      <stop
         offset="1"
         stop-color="#DC3282"
         id="stop15" />
    </linearGradient>
    <linearGradient
       id="paint4_linear"
       x1="99.9562"
       y1="172.27"
       x2="99.9562"
       y2="18.075899"
       gradientUnits="userSpaceOnUse"
       gradientTransform="translate(-104.43423,-20.178818)">
      <stop
         stop-color="#FD5900"
         id="stop16" />
      <stop
         offset="1"
         stop-color="#FFDE00"
         id="stop17" />
    </linearGradient>
    <linearGradient
       id="paint5_linear"
       x1="99.9562"
       y1="172.27"
       x2="99.9562"
       y2="18.075899"
       gradientUnits="userSpaceOnUse"
       gradientTransform="translate(-216.92401,-62.362344)">
      <stop
         stop-color="#FD5900"
         id="stop18" />
      <stop
         offset="1"
         stop-color="#FFDE00"
         id="stop19" />
    </linearGradient>
    <linearGradient
       id="paint6_linear"
       x1="99.9562"
       y1="172.27"
       x2="99.9562"
       y2="18.075899"
       gradientUnits="userSpaceOnUse"
       gradientTransform="translate(-78.129252,-17.700717)">
      <stop
         stop-color="#FD5900"
         id="stop20" />
      <stop
         offset="1"
         stop-color="#FFDE00"
         id="stop21" />
    </linearGradient>
    <linearGradient
       id="paint7_linear"
       x1="99.9562"
       y1="172.27"
       x2="99.9562"
       y2="18.075899"
       gradientUnits="userSpaceOnUse"
       gradientTransform="translate(-100.57873,-39.31)">
      <stop
         stop-color="#FD5900"
         id="stop22" />
      <stop
         offset="1"
         stop-color="#FFDE00"
         id="stop23" />
    </linearGradient>
    <linearGradient
       inkscape:collect="always"
       xlink:href="#linearGradient1"
       id="linearGradient2"
       x1="1.5"
       y1="13.568481"
       x2="10.699604"
       y2="5.7835612"
       gradientUnits="userSpaceOnUse"
       gradientTransform="translate(0,-1.5e-5)" />
    <linearGradient
       id="linearGradient1"
       inkscape:collect="always">
      <stop
         style="stop-color:#ff5555;stop-opacity:1"
         offset="0"
         id="stop1" />
      <stop
         style="stop-color:#ffd42a;stop-opacity:1"
         offset="1"
         id="stop2" />
    </linearGradient>
    <filter
       id="filter4905"
       x="-0.23759954"
       y="-0.12022185"
       width="1.4751887"
       height="1.2404154"
       color-interpolation-filters="sRGB">
      <feGaussianBlur
         stdDeviation="0.12690267"
         id="feGaussianBlur6" />
    </filter>
  </defs>
  <path
     d="M 7.5496753,12.483666 C 7.131696,12.442182 6.7203522,12.350048 6.4483332,12.235525 A 2.48797,2.4896986 0 0 1 6.3247639,12.18241 6.6345871,6.639199 0 0 1 6.2758309,11.920164 L 6.1920685,11.452926 C 6.0610353,10.745021 5.9200491,9.9010151 5.9300019,9.8910632 c 0.00496,-0.00554 0.8110775,0.5344468 1.7432373,1.1668328 0.8533736,0.579267 1.0192388,0.692133 1.4081912,0.952725 0.3897807,0.262248 0.3665583,0.243994 0.3474843,0.254779 a 3.3172946,3.3195991 0 0 1 -0.4013908,0.130307 4.9759406,4.9793958 0 0 1 -0.5937949,0.09377 7.4639074,7.4690975 0 0 1 -0.8840589,-0.0055 M 9.5997582,12.035439 A 17.415788,17.427892 0 0 1 8.734774,11.439596 15.757142,15.768096 0 0 0 8.1816158,11.05701 1.6586467,1.6597996 0 0 1 7.9178905,10.874432 c -0.05639,-0.04813 -0.081274,-0.08632 -0.05639,-0.08632 0.014919,0 0.7629785,-0.139419 1.3103323,-0.243986 0.6344299,-0.121197 1.8004552,-0.350223 2.5883132,-0.507069 0.144304,-0.02909 0.265379,-0.049804 0.270359,-0.044797 0.0083,0.00834 -0.05634,0.1352701 -0.164208,0.3161871 a 4.3954118,4.3984677 0 0 1 -1.079776,1.230705 6.6345871,6.639199 0 0 1 -0.563939,0.379263 4.9759406,4.9793958 0 0 1 -0.4445178,0.22241 c -0.00822,0 -0.088739,-0.04727 -0.1783039,-0.104548 z M 5.8337993,11.939915 A 3.8148882,3.817538 0 0 1 4.8278331,11.199701 4.6442111,4.6474394 0 0 1 4.1129561,10.280168 5.8052646,5.8092973 0 0 1 3.8765999,9.840323 c 0,-0.012339 0.3541197,-0.5435831 0.653506,-0.9801062 0.2479676,-0.3626699 0.4959352,-0.7336371 0.626969,-0.940279 0.015758,-0.023236 0.030687,-0.039837 0.034,-0.036532 0.016586,0.016666 0.2288938,1.0456789 0.4071973,1.9743278 0.1575717,0.8199454 0.1890865,0.9834384 0.2504555,1.2904964 0.070493,0.356029 0.1608886,0.797528 0.1741579,0.84899 q 0.00747,0.03072 -0.00495,0.03072 c -0.00668,0 -0.089566,-0.03989 -0.1841108,-0.08798 M 9.8519,10.118298 c -0.00446,-0.0113 0.00822,-0.03563 0.034811,-0.06554 0.022369,-0.02655 0.154253,-0.2174443 0.291917,-0.4257565 C 10.400896,9.29172 10.559296,9.06267 10.900151,8.5788371 a 57.223286,57.263081 0 0 0 1.262204,-1.8399508 1.6586467,1.6597996 0 0 1 0.09785,-0.1435726 c 0.01403,-0.00204 0.09206,0.2249044 0.134356,0.3883916 0.0813,0.3153621 0.10615,0.5518824 0.105319,0.9809456 q -0.0038,0.9261642 -0.276993,1.6423715 l -0.03316,0.086317 -0.05802,0.011317 -0.23387,0.045624 -1.008458,0.1925403 A 72.151118,72.201289 0 0 1 9.8900583,10.129693 q -0.032338,0.0083 -0.038175,-0.01131 M 3.7049395,9.3374997 C 3.5614658,8.9731773 3.5009254,8.5864401 3.5000955,8.0320696 c 0,-0.4481485 0.0282,-0.716206 0.1185952,-1.1211957 C 3.6543567,6.7482137 3.7580173,6.422063 3.7804091,6.399656 3.7886891,6.391366 3.8898759,6.368944 4.0068149,6.348994 4.2182927,6.312494 4.6147097,6.2394554 5.0600561,6.1547974 5.8047841,6.0137192 6.1331955,5.958119 6.1589052,5.9680754 c 0.00829,0.00352 0.016589,0.015742 0.016589,0.027411 0,0.024038 0.00329,0.017476 -0.2098191,0.3178502 L 5.7069212,6.6793218 5.3453368,7.1922028 A 92.054911,92.118863 0 0 0 3.9578777,9.1905993 4.9759406,4.9793958 0 0 1 3.7646448,9.4694425 0.82932289,0.82989945 0 0 1 3.7049362,9.3366608 Z M 10.766619,8.1474281 A 7.4639074,7.4690975 0 0 0 10.725153,7.9026103 L 10.646366,7.4569534 10.34781,5.6876099 C 10.299712,5.3929908 10.14297,4.503341 10.088233,4.2170247 a 1.1610528,1.1618597 0 0 1 -0.02987,-0.2166036 c 0.01324,-0.013273 0.245481,0.1170126 0.45364,0.2556084 a 4.3954118,4.3984677 0 0 1 1.269691,1.2904914 c 0.132695,0.2074762 0.305193,0.5269894 0.364906,0.6772033 l 0.02156,0.056414 -0.06969,0.1095453 c -0.07542,0.1195108 -0.180769,0.2672235 -0.489277,0.6913059 -0.1103,0.1527028 -0.269532,0.378436 -0.353289,0.5020895 -0.211481,0.3103842 -0.448665,0.6240871 -0.474374,0.6240871 -0.0047,0 -0.01077,-0.026573 -0.01489,-0.059736 M 10.050085,6.1739291 A 9.1225526,9.1288979 0 0 0 9.6105448,5.8668639 129.37444,129.46435 0 0 1 6.7866989,3.918261 2.48797,2.4896986 0 0 1 6.5470248,3.7190854 c 0,-0.0083 0.2396742,-0.082989 0.359926,-0.1112101 0.120251,-0.028212 0.3864653,-0.07469 0.540719,-0.092951 0.07796,-0.00995 0.2620671,-0.014924 0.5407191,-0.014924 0.3707087,0 0.4445182,0.0041 0.6029193,0.024892 0.2819684,0.039007 0.4810057,0.078011 0.6758983,0.1344446 0.174158,0.049796 0.4561292,0.1568509 0.4561292,0.1726181 l 0.045584,0.2655688 c 0.024851,0.1410824 0.082938,0.4913023 0.130206,0.7767875 0.082938,0.5128784 0.1343493,0.813304 0.1924043,1.1353039 0.02738,0.1535314 0.02905,0.2016637 0.0065,0.2016637 a 0.16586467,0.16597996 0 0 1 -0.04806,-0.03734 M 3.9446047,6.0469553 A 4.3456547,4.3486765 0 0 1 5.6845256,4.1315446 C 5.8727823,4.018679 6.1754849,3.865975 6.2111466,3.865975 c 0.026538,0 0.090391,0.043985 0.9205485,0.6274041 0.4917888,0.3444077 0.635262,0.4431678 0.8002974,0.5485641 0.1426428,0.091288 0.2819694,0.2008343 0.2819694,0.2224144 0,0.00488 -0.01409,0.012441 -0.030687,0.015754 A 228.89321,229.05223 0 0 1 5.6057407,5.7647914 l -1.6528413,0.30706 c -0.017421,0.0045 -0.018249,0.00204 -0.00829,-0.024848"
     style="fill:#ff9955;fill-opacity:1;stroke-width:0.0112706"
     id="path1" />
</svg>
