<?xml version="1.0" encoding="UTF-8" standalone="no"?>
<svg
   height="16"
   width="16"
   version="1.1"
   id="svg220"
   sodipodi:docname="portal-stories-mel.svg"
   inkscape:version="1.4.1 (unknown)"
   xmlns:inkscape="http://www.inkscape.org/namespaces/inkscape"
   xmlns:sodipodi="http://sodipodi.sourceforge.net/DTD/sodipodi-0.dtd"
   xmlns:xlink="http://www.w3.org/1999/xlink"
   xmlns="http://www.w3.org/2000/svg"
   xmlns:svg="http://www.w3.org/2000/svg">
  <defs
     id="defs224">
    <linearGradient
       id="b-3"
       gradientTransform="matrix(0.77019253,0,0,0.57051057,-35.963383,-17.968177)"
       gradientUnits="userSpaceOnUse"
       x1="17.444"
       x2="17.444"
       y1="35.000999"
       y2="3.8">
      <stop
         offset="0"
         stop-color="#c0392b"
         id="stop7" />
      <stop
         offset="1"
         stop-color="#e74c3c"
         id="stop9" />
    </linearGradient>
    <linearGradient
       gradientTransform="matrix(1.0499636,0,0,1.0499041,-504.98598,-505.93779)"
       gradientUnits="userSpaceOnUse"
       x2="426.69501"
       y2="499.92099"
       y1="547.67499"
       id="a-6"
       x1="389.32001">
      <stop
         stop-color="#18222a"
         style="stop-color:#1e2b35;stop-opacity:1"
         id="stop216" />
      <stop
         stop-color="#566069"
         offset="1"
         style="stop-color:#6d7983;stop-opacity:1"
         id="stop218" />
    </linearGradient>
    <filter
       id="d-7"
       x="-0.035999998"
       y="-0.036000062"
       width="1.072"
       height="1.0720001"
       color-interpolation-filters="sRGB">
      <feGaussianBlur
         stdDeviation="9"
         id="feGaussianBlur238-5" />
    </filter>
    <linearGradient
       inkscape:collect="always"
       xlink:href="#linearGradient1"
       id="linearGradient2"
       x1="10.707618"
       y1="18.301517"
       x2="37.173615"
       y2="44.767513"
       gradientUnits="userSpaceOnUse"
       gradientTransform="matrix(0.49119628,0,0,0.49119634,-3.759542,-7.489638)" />
    <linearGradient
       id="linearGradient1"
       inkscape:collect="always">
      <stop
         style="stop-color:#ffd42a;stop-opacity:1"
         offset="0"
         id="stop1" />
      <stop
         style="stop-color:#c779d0;stop-opacity:1;"
         offset="0.46874997"
         id="stop6" />
      <stop
         style="stop-color:#4bc0c8;stop-opacity:1;"
         offset="1"
         id="stop2-9" />
    </linearGradient>
    <linearGradient
       id="paint3_linear"
       x1="69.25"
       y1="28.75"
       x2="75.501099"
       y2="35.5"
       gradientUnits="userSpaceOnUse"
       gradientTransform="matrix(0.642,0,0,0.642,-67.471,-33.235)">
      <stop
         id="stop67" />
      <stop
         offset="1"
         stop-opacity="0"
         id="stop69" />
    </linearGradient>
    <linearGradient
       inkscape:collect="always"
       xlink:href="#linearGradient1-6"
       id="linearGradient2-3"
       x1="28.998468"
       y1="50.928097"
       x2="28.545103"
       y2="11.066361"
       gradientUnits="userSpaceOnUse"
       gradientTransform="matrix(0.75000004,0,0,0.75000004,-76.101131,16.493106)" />
    <linearGradient
       id="linearGradient1-6"
       inkscape:collect="always">
      <stop
         style="stop-color:#3498cb;stop-opacity:1;"
         offset="0"
         id="stop1-7" />
      <stop
         style="stop-color:#f37b21;stop-opacity:1;"
         offset="1"
         id="stop2" />
    </linearGradient>
    <linearGradient
       inkscape:collect="always"
       xlink:href="#linearGradient4"
       id="linearGradient23"
       gradientUnits="userSpaceOnUse"
       gradientTransform="matrix(0.47857143,0,0,0.47857143,18.078575,10.670677)"
       x1="18.5"
       y1="30.479174"
       x2="18.5"
       y2="26.479174" />
    <linearGradient
       id="linearGradient4"
       inkscape:collect="always">
      <stop
         style="stop-color:#80e5ff;stop-opacity:1"
         offset="0"
         id="stop3" />
      <stop
         style="stop-color:#f37b21;stop-opacity:1;"
         offset="1"
         id="stop4" />
    </linearGradient>
    <linearGradient
       inkscape:collect="always"
       xlink:href="#linearGradient4"
       id="linearGradient24"
       gradientUnits="userSpaceOnUse"
       gradientTransform="matrix(0.47857143,0,0,0.47857143,18.078575,10.670677)"
       x1="27"
       y1="38.479176"
       x2="27"
       y2="34.479176" />
    <linearGradient
       inkscape:collect="always"
       xlink:href="#linearGradient4"
       id="linearGradient25"
       gradientUnits="userSpaceOnUse"
       gradientTransform="matrix(0.47857143,0,0,0.47857143,18.078575,10.670677)"
       x1="27"
       y1="46.479176"
       x2="27"
       y2="42.479176" />
    <linearGradient
       inkscape:collect="always"
       xlink:href="#linearGradient4"
       id="linearGradient26"
       gradientUnits="userSpaceOnUse"
       gradientTransform="matrix(0.47857143,0,0,0.47857143,18.078575,10.670677)"
       x1="22.5"
       y1="54.479176"
       x2="22.5"
       y2="50.479176" />
  </defs>
  <sodipodi:namedview
     id="namedview222"
     pagecolor="#ffffff"
     bordercolor="#000000"
     borderopacity="1"
     inkscape:showpageshadow="2"
     inkscape:pageopacity="0.0"
     inkscape:pagecheckerboard="0"
     inkscape:deskcolor="#d1d1d1"
     showgrid="false"
     inkscape:zoom="29.5"
     inkscape:cx="7.7966102"
     inkscape:cy="8.0508475"
     inkscape:window-width="1920"
     inkscape:window-height="998"
     inkscape:window-x="0"
     inkscape:window-y="0"
     inkscape:window-maximized="1"
     inkscape:current-layer="svg220" />
  <linearGradient
     id="a"
     gradientUnits="userSpaceOnUse"
     x1="16"
     x2="16"
     y1="46"
     y2="18"
     gradientTransform="translate(-48.939445,-42.101695)">
    <stop
       offset="0"
       stop-color="#afb0b3"
       id="stop200" />
    <stop
       offset="1"
       stop-color="#bdc3c7"
       id="stop202" />
  </linearGradient>
  <linearGradient
     id="b"
     gradientTransform="matrix(1.125,0,0,0.83333,-51.564445,-26.268695)"
     gradientUnits="userSpaceOnUse"
     x1="17.444"
     x2="17.444"
     y1="35.000999"
     y2="3.8">
    <stop
       offset="0"
       stop-color="#c0392b"
       id="stop205" />
    <stop
       offset="1"
       stop-color="#e74c3c"
       id="stop207" />
  </linearGradient>
  <path
     id="circle2"
     style="opacity:0.99;fill:url(#linearGradient2);fill-opacity:1;stroke-width:0.491196"
     d="m 14.499999,8 a 6.4999994,6.5000002 0 0 1 -6.5,6.5 A 6.4999994,6.5000002 0 0 1 1.5,8 6.4999994,6.5000002 0 0 1 7.999999,1.5 a 6.4999994,6.5000002 0 0 1 6.5,6.5 z" />
  <path
     id="circle858"
     style="fill:#1c202f;fill-opacity:1;stroke-width:0.417883"
     d="M 13.529825,8 A 5.5298259,5.529827 0 0 1 7.999999,13.529827 5.5298259,5.529827 0 0 1 2.470173,8 5.5298259,5.529827 0 0 1 7.999999,2.470173 5.5298259,5.529827 0 0 1 13.529825,8 Z" />
  <g
     id="g1"
     transform="matrix(0.29999996,0,0,0.29999996,23.855336,-3.9229306)">
    <path
       d="m -54.352278,54.689206 c -1.393292,-0.138324 -2.764459,-0.445398 -3.67121,-0.827156 a 8.293379,8.2991433 0 0 1 -0.411906,-0.17705 22.115687,22.131057 0 0 1 -0.163098,-0.874173 l -0.279209,-1.55747 c -0.436781,-2.359734 -0.906746,-5.173141 -0.873575,-5.206334 0.01655,-0.0194 2.703645,1.781542 5.810901,3.889529 2.844629,1.930931 3.397522,2.307154 4.694053,3.175807 1.299297,0.874174 1.22189,0.813323 1.158308,0.84928 a 11.057849,11.065528 0 0 1 -1.338,0.434317 16.586764,16.598286 0 0 1 -1.97935,0.312601 24.880145,24.897441 0 0 1 -2.946914,-0.01937 m 6.833745,-1.493859 a 58.053677,58.094017 0 0 1 -2.883335,-1.98626 52.524755,52.561257 0 0 0 -1.843896,-1.275306 5.5289218,5.5327642 0 0 1 -0.8791,-0.608596 c -0.187983,-0.16045 -0.270913,-0.287714 -0.187983,-0.287714 0.04971,0 2.543308,-0.46475 4.367853,-0.81331 2.114808,-0.403891 6.001641,-1.167414 8.627879,-1.690255 0.481021,-0.09684 0.884625,-0.165985 0.901214,-0.14939 0.02767,0.02771 -0.18798,0.45092 -0.547363,1.053994 a 14.651637,14.661821 0 0 1 -3.599327,4.102545 22.115687,22.131057 0 0 1 -1.879836,1.26423 16.586764,16.598286 0 0 1 -1.481749,0.741393 c -0.02765,0 -0.295794,-0.157678 -0.594357,-0.348566 z M -60.071954,52.87719 a 12.716522,12.725355 0 0 1 -3.353288,-2.467614 15.480981,15.491742 0 0 1 -2.382966,-3.06515 19.351225,19.364673 0 0 1 -0.787872,-1.466181 c 0,-0.04148 1.180428,-1.811986 2.178396,-3.267094 0.826575,-1.208909 1.65315,-2.445491 2.089936,-3.134314 0.05251,-0.07745 0.102284,-0.132792 0.11334,-0.121725 0.05532,0.0554 0.762998,3.485647 1.357349,6.581225 0.525252,2.733184 0.630299,3.27817 0.834872,4.30173 0.234978,1.186774 0.536299,2.658486 0.580533,2.829996 q 0.02495,0.102363 -0.01653,0.102363 c -0.0222,0 -0.298563,-0.13278 -0.613715,-0.293236 m 13.393788,-6.072213 c -0.0138,-0.0387 0.02765,-0.118954 0.116108,-0.218539 0.07464,-0.08852 0.514191,-0.724794 0.973089,-1.419165 0.740874,-1.117615 1.268888,-1.881127 2.405081,-3.49393 a 190.74775,190.88034 0 0 0 4.207514,-6.133074 5.5289218,5.5327642 0 0 1 0.326204,-0.478583 c 0.04696,-0.0064 0.306852,0.74969 0.447845,1.294663 0.270912,1.051232 0.353851,1.839647 0.351084,3.269876 q -0.01102,3.087275 -0.923332,5.474665 l -0.110575,0.2877 -0.193514,0.0387 -0.779584,0.152151 -3.36158,0.641795 a 240.50809,240.67521 0 0 1 -3.331175,0.622445 q -0.107813,0.02769 -0.127166,-0.0387 m -20.490202,-2.603165 c -0.478249,-1.214445 -0.68005,-2.50358 -0.682819,-4.351516 0,-1.493858 0.09401,-2.387395 0.395312,-3.737382 0.118876,-0.542219 0.464434,-1.629407 0.539071,-1.704096 0.02769,-0.02769 0.364912,-0.10236 0.754707,-0.168754 0.704932,-0.121715 2.026344,-0.365156 3.510862,-0.647331 2.482486,-0.470283 3.577211,-0.65563 3.66291,-0.622437 0.02769,0.01103 0.05532,0.05253 0.05532,0.09131 0,0.08021 0.01102,0.05817 -0.69941,1.059526 l -0.862515,1.219964 -1.2053,1.709636 a 306.85515,307.06842 0 0 0 -4.624955,6.661441 16.586764,16.598286 0 0 1 -0.644118,0.929495 2.7644604,2.7663814 0 0 1 -0.199039,-0.442611 z m 23.539375,-3.966994 a 24.880145,24.897441 0 0 0 -0.138225,-0.816081 l -0.262623,-1.485547 -0.995204,-5.897927 c -0.160337,-0.982071 -0.68282,-3.947627 -0.865277,-4.90203 a 3.870245,3.8729343 0 0 1 -0.09952,-0.722021 c 0.04422,-0.04422 0.818283,0.390049 1.512161,0.852039 a 14.651637,14.661821 0 0 1 4.232385,4.301723 c 0.442318,0.691595 1.017323,1.756652 1.216368,2.257371 l 0.07187,0.188115 -0.232213,0.365168 c -0.251564,0.398355 -0.602652,0.890766 -1.631032,2.304383 -0.367672,0.509026 -0.89845,1.26147 -1.177658,1.673658 -0.704938,1.034637 -1.495575,2.080328 -1.581273,2.080328 -0.0138,0 -0.03594,-0.08852 -0.04973,-0.199179 m -2.388518,-6.578455 a 30.409064,30.430199 0 0 0 -1.465164,-1.023566 431.25584,431.55556 0 0 1 -9.412989,-6.495459 8.293379,8.2991433 0 0 1 -0.798928,-0.663932 c 0,-0.02769 0.798928,-0.276636 1.199774,-0.370702 0.400847,-0.09407 1.288239,-0.248973 1.802429,-0.309833 0.259861,-0.03321 0.873573,-0.04977 1.802429,-0.04977 1.235717,0 1.481753,0.01377 2.009766,0.08298 0.939913,0.130027 1.603384,0.260053 2.253032,0.448164 0.580539,0.165978 1.520457,0.522847 1.520457,0.5754 l 0.152041,0.885248 c 0.08294,0.470284 0.276447,1.637697 0.434025,2.589335 0.276447,1.709622 0.447841,2.711054 0.641352,3.784407 0.09123,0.511781 0.09676,0.672229 0.02215,0.672229 a 0.55289218,0.55327642 0 0 1 -0.160369,-0.124501 m -20.351969,-0.42326 a 14.485775,14.495846 0 0 1 5.799843,-6.384805 c 0.627528,-0.376229 1.636559,-0.885248 1.755436,-0.885248 0.08846,0 0.301322,0.146623 3.068545,2.091383 1.639327,1.148048 2.117581,1.477254 2.667708,1.828583 0.475484,0.304308 0.939915,0.669463 0.939915,0.741395 0,0.01653 -0.04696,0.04147 -0.102283,0.0525 a 762.99091,763.52105 0 0 1 -8.591951,1.615598 l -5.509562,1.023562 c -0.05812,0.0166 -0.06088,0.0064 -0.0277,-0.08298"
       style="fill:url(#linearGradient2-3);fill-opacity:1;stroke-width:0.0375678"
       id="path1" />
    <g
       id="g2"
       transform="matrix(0.75000004,0,0,0.75000004,-76.101127,16.842542)">
      <path
         d="m 23.342856,24.3 c 0,-0.528818 0.428326,-0.957144 0.957144,-0.957144 h 5.26428 c 0.528826,0 0.957152,0.428326 0.957152,0.957144 0,0.528825 -0.428326,0.957137 -0.957152,0.957137 H 24.3 c -0.528818,0 -0.957144,-0.428312 -0.957144,-0.957137 z"
         id="path527-8"
         style="fill:url(#linearGradient23);stroke-width:0.478576" />
      <path
         d="m 23.342856,28.128575 c 0,-0.528825 0.428326,-0.957143 0.957144,-0.957143 h 13.4 c 0.528825,0 0.957137,0.428318 0.957137,0.957143 0,0.528812 -0.428312,0.957137 -0.957137,0.957137 H 24.3 c -0.528818,0 -0.957144,-0.428325 -0.957144,-0.957137 z"
         id="path528-97"
         style="fill:url(#linearGradient24);stroke-width:0.478576"
         sodipodi:nodetypes="sssssss" />
      <path
         d="M 23.342856,31.957137 C 23.342856,31.428325 23.771182,31 24.3,31 h 13.4 c 0.528825,0 0.957137,0.428325 0.957137,0.957137 0,0.528825 -0.428312,0.957143 -0.957137,0.957143 H 24.3 c -0.528818,0 -0.957144,-0.428318 -0.957144,-0.957143 z"
         id="path529-3"
         style="fill:url(#linearGradient25);stroke-width:0.478576"
         sodipodi:nodetypes="sssssss" />
      <path
         d="m 23.342856,35.7857 c 0,-0.528813 0.428326,-0.957125 0.957144,-0.957125 h 9.092856 c 0.528826,0 0.957144,0.428312 0.957144,0.957125 0,0.528848 -0.428318,0.957156 -0.957144,0.957156 H 24.3 c -0.528818,0 -0.957144,-0.428308 -0.957144,-0.957156 z"
         id="path530-6"
         style="fill:url(#linearGradient26);stroke-width:0.478576" />
    </g>
  </g>
</svg>
