<?xml version="1.0" encoding="UTF-8" standalone="no"?>
<svg
   height="16"
   width="16"
   version="1.1"
   id="svg6"
   sodipodi:docname="portal-reloaded.svg"
   inkscape:version="1.4.1 (unknown)"
   xmlns:inkscape="http://www.inkscape.org/namespaces/inkscape"
   xmlns:sodipodi="http://sodipodi.sourceforge.net/DTD/sodipodi-0.dtd"
   xmlns:xlink="http://www.w3.org/1999/xlink"
   xmlns="http://www.w3.org/2000/svg"
   xmlns:svg="http://www.w3.org/2000/svg"
   xmlns:rdf="http://www.w3.org/1999/02/22-rdf-syntax-ns#"
   xmlns:cc="http://creativecommons.org/ns#"
   xmlns:dc="http://purl.org/dc/elements/1.1/">
  <metadata
     id="metadata12">
    <rdf:RDF>
      <cc:Work
         rdf:about="">
        <dc:format>image/svg+xml</dc:format>
        <dc:type
           rdf:resource="http://purl.org/dc/dcmitype/StillImage" />
      </cc:Work>
    </rdf:RDF>
  </metadata>
  <defs
     id="defs10">
    <linearGradient
       id="linearGradient1"
       inkscape:collect="always">
      <stop
         style="stop-color:#37c871;stop-opacity:1"
         offset="0"
         id="stop1" />
      <stop
         style="stop-color:#00ffff;stop-opacity:1"
         offset="1"
         id="stop2" />
    </linearGradient>
    <marker
       style="overflow:visible"
       id="DotL"
       refX="0"
       refY="0"
       orient="auto"
       inkscape:stockid="DotL"
       inkscape:isstock="true">
      <path
         transform="matrix(0.8,0,0,0.8,5.92,0.8)"
         style="fill:#000000;fill-opacity:1;fill-rule:evenodd;stroke:#000000;stroke-width:1pt;stroke-opacity:1"
         d="m -2.5,-1 c 0,2.76 -2.24,5 -5,5 -2.76,0 -5,-2.24 -5,-5 0,-2.76 2.24,-5 5,-5 2.76,0 5,2.24 5,5 z"
         id="path898" />
    </marker>
    <linearGradient
       inkscape:collect="always"
       xlink:href="#linearGradient1"
       id="linearGradient2"
       x1="10.707617"
       y1="31.534513"
       x2="37.173615"
       y2="31.534513"
       gradientUnits="userSpaceOnUse"
       gradientTransform="matrix(0.49119628,0,0,0.49119634,-3.7595407,-7.4896376)" />
  </defs>
  <sodipodi:namedview
     pagecolor="#ffffff"
     bordercolor="#666666"
     borderopacity="1"
     objecttolerance="10"
     gridtolerance="10"
     guidetolerance="10"
     inkscape:pageopacity="0"
     inkscape:pageshadow="2"
     inkscape:window-width="1920"
     inkscape:window-height="998"
     id="namedview8"
     showgrid="false"
     inkscape:zoom="22.627417"
     inkscape:cx="9.6122328"
     inkscape:cy="15.843611"
     inkscape:window-x="0"
     inkscape:window-y="0"
     inkscape:window-maximized="1"
     inkscape:current-layer="svg6"
     inkscape:document-rotation="0"
     inkscape:pagecheckerboard="0"
     inkscape:showpageshadow="2"
     inkscape:deskcolor="#d1d1d1" />
  <path
     id="circle2"
     style="opacity:0.99;fill:url(#linearGradient2);fill-opacity:1;stroke-width:0.491196"
     d="M 14.5,7.9999999 A 6.4999994,6.5000002 0 0 1 8.0000003,14.5 6.4999994,6.5000002 0 0 1 1.5000009,7.9999999 6.4999994,6.5000002 0 0 1 8.0000003,1.5000002 6.4999994,6.5000002 0 0 1 14.5,7.9999999 Z" />
  <path
     id="circle858"
     style="opacity:1;fill:#1c202f;fill-opacity:1;stroke-width:0.417883"
     d="M 13.529826,7.9999999 A 5.5298259,5.529827 0 0 1 7.9999999,13.529827 5.5298259,5.529827 0 0 1 2.4701739,7.9999999 5.5298259,5.529827 0 0 1 7.9999999,2.4701729 5.5298259,5.529827 0 0 1 13.529826,7.9999999 Z" />
  <path
     d="M 7.5496479,12.483825 C 7.1316609,12.442328 6.720313,12.350204 6.448285,12.235678 a 2.4880108,2.4897401 0 0 1 -0.1235699,-0.05312 6.6346976,6.6393101 0 0 1 -0.048927,-0.262251 l -0.083763,-0.467239 c -0.131034,-0.707921 -0.272025,-1.5519432 -0.262074,-1.5618992 0.00495,-0.0058 0.8110919,0.5344632 1.7432697,1.1668572 0.8533889,0.579277 1.0192559,0.692144 1.4082148,0.952741 0.3897869,0.262252 0.3665639,0.243997 0.3474899,0.254784 a 3.3173526,3.3196551 0 0 1 -0.4013999,0.130294 4.9760237,4.9794785 0 0 1 -0.5938019,0.09378 7.4640343,7.4692255 0 0 1 -0.8840758,-0.0058 M 9.5997724,12.03568 A 17.416083,17.428183 0 0 1 8.7347706,11.439799 15.75741,15.768359 0 0 0 8.1816008,11.057208 1.6586747,1.6598275 0 0 1 7.9178708,10.87463 c -0.056391,-0.04813 -0.08127,-0.08631 -0.056391,-0.08631 0.01491,0 0.7629869,-0.139425 1.3103548,-0.243994 0.6344368,-0.121169 1.8004884,-0.350225 2.5883574,-0.507077 0.144309,-0.02905 0.265386,-0.0498 0.270366,-0.04482 0.0083,0.0083 -0.05639,0.1352762 -0.164211,0.3161992 a 4.3954858,4.3985407 0 0 1 -1.079799,1.23076 6.6346976,6.6393101 0 0 1 -0.563949,0.379268 4.9760237,4.9794785 0 0 1 -0.4445216,0.222419 c -0.00831,0 -0.08874,-0.0473 -0.178305,-0.104569 z M 5.8337472,11.94022 A 3.8149535,3.8176013 0 0 1 4.8277624,11.199936 4.6442895,4.6475175 0 0 1 4.1128728,10.280392 5.8053607,5.8093945 0 0 1 3.8765118,9.8405398 c 0,-0.01244 0.3541296,-0.543594 0.6535178,-0.980128 0.2479731,-0.362671 0.4959461,-0.733645 0.6269819,-0.940292 0.015735,-0.02323 0.030685,-0.03984 0.034001,-0.03652 0.016599,0.01663 0.2289005,1.045695 0.4072016,1.974365 0.157578,0.8199532 0.18909,0.9834522 0.250467,1.2905182 0.070488,0.356032 0.1608869,0.797544 0.1741559,0.849 q 0.0075,0.0307 -0.00495,0.0307 c -0.00666,0 -0.089568,-0.03983 -0.1841159,-0.08797 m 4.0181362,-1.821662 c -0.00411,-0.01161 0.00831,-0.03569 0.034833,-0.06556 0.02238,-0.02656 0.1542567,-0.2174382 0.2919297,-0.4257522 0.222261,-0.335281 0.380664,-0.564334 0.721524,-1.048175 a 57.224242,57.264028 0 0 0 1.262253,-1.839913 1.6586747,1.6598275 0 0 1 0.09786,-0.143572 c 0.01407,-0.002 0.09206,0.224906 0.134352,0.388397 0.08127,0.315369 0.106158,0.551894 0.105327,0.980963 q -0.0033,0.926182 -0.276999,1.642398 l -0.03317,0.08631 -0.05805,0.01161 -0.233877,0.04565 -1.008474,0.192534 A 72.152356,72.202486 0 0 1 9.8900583,10.130174 q -0.03234,0.0083 -0.038148,-0.01161 M 3.7048426,9.3376128 c -0.143475,-0.364334 -0.2040144,-0.751075 -0.2048457,-1.305454 0,-0.448159 0.028197,-0.716218 0.1185927,-1.121214 0.035663,-0.162666 0.1393302,-0.488822 0.1617203,-0.511228 0.00831,-0.0083 0.1094751,-0.03071 0.2264145,-0.05063 0.2114784,-0.03651 0.6079007,-0.109544 1.0532566,-0.194199 0.7447442,-0.141083 1.0731631,-0.196687 1.0988701,-0.18673 0.00831,0.0033 0.01662,0.01576 0.01662,0.0274 0,0.02405 0.0033,0.01746 -0.209823,0.317857 l -0.2587559,0.365987 -0.3615891,0.512893 a 92.05644,92.120421 0 0 0 -1.3874865,1.998429 4.9760237,4.9794785 0 0 1 -0.1932369,0.278849 0.82933706,0.82991336 0 0 1 -0.05971,-0.132784 z m 7.0618004,-1.190098 a 7.4640343,7.4692255 0 0 0 -0.04147,-0.244825 l -0.07878,-0.445664 -0.29856,-1.769374 c -0.04811,-0.294624 -0.204849,-1.184286 -0.259587,-1.470608 a 1.1610722,1.1618789 0 0 1 -0.02985,-0.216606 c 0.01326,-0.01326 0.245484,0.117012 0.453645,0.255612 a 4.3954858,4.3985407 0 0 1 1.269714,1.290512 c 0.132699,0.20748 0.305199,0.526997 0.364914,0.677213 l 0.02157,0.05644 -0.06967,0.109551 c -0.07546,0.119505 -0.180792,0.267226 -0.489306,0.691311 -0.110301,0.152711 -0.269535,0.378441 -0.353295,0.502097 -0.211485,0.310393 -0.448674,0.624099 -0.474381,0.624099 -0.0041,0 -0.01077,-0.02656 -0.01491,-0.05975 M 10.050129,6.1739788 A 9.1227097,9.129049 0 0 0 9.6105814,5.8669108 129.3766,129.46651 0 0 1 6.786688,3.9182768 2.4880108,2.4897401 0 0 1 6.547009,3.7190968 c 0,-0.0083 0.239679,-0.08299 0.3599279,-0.111212 0.120255,-0.02821 0.386472,-0.07469 0.5407289,-0.09295 0.077961,-0.01 0.262074,-0.01493 0.540729,-0.01493 0.3707159,0 0.4445279,0.0041 0.6029309,0.02488 0.2819759,0.03901 0.4810139,0.07802 0.6759088,0.134451 0.174165,0.04979 0.4561379,0.156854 0.4561379,0.17262 l 0.045612,0.265574 c 0.02487,0.141083 0.082932,0.491309 0.130206,0.7768 0.082935,0.512885 0.1343516,0.813315 0.1924046,1.135319 0.02736,0.153535 0.02904,0.201668 0.0067,0.201668 a 0.16586747,0.16598275 0 0 1 -0.04813,-0.03734 M 3.9445266,6.0469998 a 4.3457272,4.3487506 0 0 1 1.7399466,-1.915438 c 0.1882619,-0.112868 0.4909709,-0.265574 0.5266349,-0.265574 0.02655,0 0.090396,0.04399 0.9205618,0.627413 0.491799,0.344413 0.6352739,0.443176 0.8003099,0.548575 0.142647,0.09129 0.2819759,0.200837 0.2819759,0.222419 0,0.005 -0.01407,0.01243 -0.030684,0.01575 a 228.89702,229.05605 0 0 1 -2.5775845,0.484674 l -1.6528668,0.307067 c -0.017448,0.005 -0.018273,0.002 -0.00831,-0.02488"
     style="fill:#00ff66;fill-opacity:1;stroke-width:0.0112704"
     id="path1" />
</svg>
