<?xml version="1.0" encoding="UTF-8" standalone="no"?>
<svg
   width="16"
   height="16"
   viewBox="0 0 16 16"
   fill="none"
   version="1.1"
   id="svg7"
   sodipodi:docname="protonmail.svg"
   inkscape:version="1.3.2 (091e20ef0f, 2023-11-25)"
   xmlns:inkscape="http://www.inkscape.org/namespaces/inkscape"
   xmlns:sodipodi="http://sodipodi.sourceforge.net/DTD/sodipodi-0.dtd"
   xmlns="http://www.w3.org/2000/svg"
   xmlns:svg="http://www.w3.org/2000/svg">
  <sodipodi:namedview
     id="namedview7"
     pagecolor="#ffffff"
     bordercolor="#000000"
     borderopacity="0.25"
     inkscape:showpageshadow="2"
     inkscape:pageopacity="0.0"
     inkscape:pagecheckerboard="0"
     inkscape:deskcolor="#d1d1d1"
     inkscape:zoom="11.984375"
     inkscape:cx="16.43807"
     inkscape:cy="28.829205"
     inkscape:window-width="1920"
     inkscape:window-height="994"
     inkscape:window-x="0"
     inkscape:window-y="0"
     inkscape:window-maximized="1"
     inkscape:current-layer="svg7" />
  <g
     id="g1">
    <path
       d="m 1.3784157,2.9369725 c -1.248e-4,-0.058593 0.016266,-0.116008 0.047263,-0.1655035 0.030997,-0.049479 0.0753,-0.089006 0.1277091,-0.1138965 0.052422,-0.02489 0.110768,-0.034146 0.1682009,-0.026651 0.057419,0.0075 0.1115427,0.031415 0.1560072,0.068951 l 5.2468112,4.4100869 c 0.245986,0.2067297 0.5556763,0.3198928 0.875424,0.3198928 0.3197607,0 0.629451,-0.1131631 0.8754371,-0.3198928 l 5.2474628,-4.410084 c 0.04447,-0.037438 0.09856,-0.061264 0.155917,-0.0687 0.05751,-0.0074 0.115694,0.0018 0.168039,0.02671 0.05235,0.024889 0.09659,0.064348 0.127558,0.1137828 0.031,0.049438 0.04747,0.1067657 0.04734,0.1653014 v 9.0483464 c -1.24e-4,0.36768 -0.144549,0.720295 -0.401418,0.980227 -0.256991,0.259926 -0.605438,0.405946 -0.96875,0.405946 H 2.7486102 C 2.3852723,13.37149 2.0368144,13.22547 1.7798589,12.965544 1.5229038,12.70561 1.3785032,12.352994 1.3784157,11.985314 Z"
       stroke="url(#paint0_linear_730_67)"
       stroke-width="1.25683"
       stroke-linecap="round"
       stroke-linejoin="round"
       id="path1"
       style="stroke:url(#paint0_linear_730_67)" />
    <path
       d="m 9.7880483,6.3430408 6.876e-4,6.825e-4 -2.6426026,2.362088 C 6.9282963,8.9005697 6.6487896,9.010054 6.3581272,9.0144652 6.0674765,9.0188988 5.7848472,8.9179269 5.5613371,8.7298578 L 1.3784157,5.2094119 M 11.805822,4.6472508 v 8.7243652"
       stroke="url(#paint1_linear_730_67)"
       stroke-width="1.25683"
       stroke-linecap="round"
       stroke-linejoin="round"
       id="path2"
       style="stroke:url(#paint1_linear_730_67)" />
  </g>
  <defs
     id="defs7">
    <linearGradient
       id="paint0_linear_730_67"
       x1="11"
       y1="79.5"
       x2="117"
       y2="78"
       gradientUnits="userSpaceOnUse"
       gradientTransform="matrix(0.12493567,0,0,0.12642508,0.00412337,-0.15295751)">
      <stop
         offset="0.195531"
         stop-color="#6D4AFF"
         id="stop2" />
      <stop
         offset="0.669518"
         stop-color="#8062FF"
         id="stop3" />
      <stop
         offset="1"
         stop-color="#B6A4FF"
         id="stop4" />
    </linearGradient>
    <linearGradient
       id="paint1_linear_730_67"
       x1="11"
       y1="80"
       x2="117"
       y2="80.5"
       gradientUnits="userSpaceOnUse"
       gradientTransform="matrix(0.12493567,0,0,0.12642508,0.00412337,-0.15295751)">
      <stop
         stop-color="#6D4AFF"
         id="stop5" />
      <stop
         offset="0.721604"
         stop-color="#876AFF"
         id="stop6" />
      <stop
         offset="1"
         stop-color="#B6A4FF"
         id="stop7" />
    </linearGradient>
  </defs>
</svg>
