<?xml version="1.0" encoding="UTF-8" standalone="no"?>
<svg
   style="isolation:isolate"
   width="16"
   height="16"
   viewBox="0 0 16 16"
   version="1.1"
   id="svg22"
   sodipodi:docname="protondrive.svg"
   inkscape:version="1.3.2 (091e20ef0f, 2023-11-25)"
   xmlns:inkscape="http://www.inkscape.org/namespaces/inkscape"
   xmlns:sodipodi="http://sodipodi.sourceforge.net/DTD/sodipodi-0.dtd"
   xmlns:xlink="http://www.w3.org/1999/xlink"
   xmlns="http://www.w3.org/2000/svg"
   xmlns:svg="http://www.w3.org/2000/svg">
  <sodipodi:namedview
     id="namedview22"
     pagecolor="#ffffff"
     bordercolor="#000000"
     borderopacity="0.25"
     inkscape:showpageshadow="2"
     inkscape:pageopacity="0.0"
     inkscape:pagecheckerboard="0"
     inkscape:deskcolor="#d1d1d1"
     inkscape:zoom="23.96875"
     inkscape:cx="6.8005215"
     inkscape:cy="7.2803129"
     inkscape:window-width="1920"
     inkscape:window-height="994"
     inkscape:window-x="0"
     inkscape:window-y="0"
     inkscape:window-maximized="1"
     inkscape:current-layer="svg22" />
  <defs
     id="defs22">
    <style
       id="current-color-scheme"
       type="text/css">
   .ColorScheme-Text { color:#d5c289; } .ColorScheme-Highlight { color:#5294e2; }
  </style>
    <linearGradient
       id="arrongin"
       x1="0%"
       x2="0%"
       y1="0%"
       y2="100%">
      <stop
         offset="0%"
         style="stop-color:#dd9b44; stop-opacity:1"
         id="stop1" />
      <stop
         offset="100%"
         style="stop-color:#ad6c16; stop-opacity:1"
         id="stop2" />
    </linearGradient>
    <linearGradient
       id="aurora"
       x1="0%"
       x2="0%"
       y1="0%"
       y2="100%">
      <stop
         offset="0%"
         style="stop-color:#09D4DF; stop-opacity:1"
         id="stop3" />
      <stop
         offset="100%"
         style="stop-color:#9269F4; stop-opacity:1"
         id="stop4" />
    </linearGradient>
    <linearGradient
       id="fitdance"
       x1="0%"
       x2="0%"
       y1="0%"
       y2="100%">
      <stop
         offset="0%"
         style="stop-color:#1AD6AB; stop-opacity:1"
         id="stop5" />
      <stop
         offset="100%"
         style="stop-color:#329DB6; stop-opacity:1"
         id="stop6" />
    </linearGradient>
    <linearGradient
       id="oomox"
       x1="0"
       x2="0"
       y1="0"
       y2="16"
       gradientUnits="userSpaceOnUse"
       gradientTransform="matrix(0.75,0,0,0.75,2,2)">
      <stop
         offset="0%"
         style="stop-color:#303b3d; stop-opacity:1"
         id="stop7" />
      <stop
         offset="100%"
         style="stop-color:#bc985d; stop-opacity:1"
         id="stop8" />
    </linearGradient>
    <linearGradient
       id="rainblue"
       x1="0%"
       x2="0%"
       y1="0%"
       y2="100%">
      <stop
         offset="0%"
         style="stop-color:#00F260; stop-opacity:1"
         id="stop9" />
      <stop
         offset="100%"
         style="stop-color:#0575E6; stop-opacity:1"
         id="stop10" />
    </linearGradient>
    <linearGradient
       id="sunrise"
       x1="0%"
       x2="0%"
       y1="0%"
       y2="100%">
      <stop
         offset="0%"
         style="stop-color: #FF8501; stop-opacity:1"
         id="stop11" />
      <stop
         offset="100%"
         style="stop-color: #FFCB01; stop-opacity:1"
         id="stop12" />
    </linearGradient>
    <linearGradient
       id="telinkrin"
       x1="0%"
       x2="0%"
       y1="0%"
       y2="100%">
      <stop
         offset="0%"
         style="stop-color: #b2ced6; stop-opacity:1"
         id="stop13" />
      <stop
         offset="100%"
         style="stop-color: #6da5b7; stop-opacity:1"
         id="stop14" />
    </linearGradient>
    <linearGradient
       id="60spsycho"
       x1="0%"
       x2="0%"
       y1="0%"
       y2="100%">
      <stop
         offset="0%"
         style="stop-color: #df5940; stop-opacity:1"
         id="stop15" />
      <stop
         offset="25%"
         style="stop-color: #d8d15f; stop-opacity:1"
         id="stop16" />
      <stop
         offset="50%"
         style="stop-color: #e9882a; stop-opacity:1"
         id="stop17" />
      <stop
         offset="100%"
         style="stop-color: #279362; stop-opacity:1"
         id="stop18" />
    </linearGradient>
    <linearGradient
       id="90ssummer"
       x1="0%"
       x2="0%"
       y1="0%"
       y2="100%">
      <stop
         offset="0%"
         style="stop-color: #f618c7; stop-opacity:1"
         id="stop19" />
      <stop
         offset="20%"
         style="stop-color: #94ffab; stop-opacity:1"
         id="stop20" />
      <stop
         offset="50%"
         style="stop-color: #fbfd54; stop-opacity:1"
         id="stop21" />
      <stop
         offset="100%"
         style="stop-color: #0f83ae; stop-opacity:1"
         id="stop22" />
    </linearGradient>
    <linearGradient
       inkscape:collect="always"
       xlink:href="#linearGradient12"
       id="linearGradient5"
       x1="0"
       y1="1051.3622"
       x2="16"
       y2="1037.3622"
       gradientUnits="userSpaceOnUse"
       gradientTransform="matrix(0.87500008,0,0,0.85746821,1,-887.50958)" />
    <linearGradient
       id="linearGradient12"
       inkscape:collect="always">
      <stop
         style="stop-color:#ffb380;stop-opacity:1"
         offset="0"
         id="stop10-3" />
      <stop
         style="stop-color:#8787de;stop-opacity:1"
         offset="0.40085706"
         id="stop11-6" />
      <stop
         style="stop-color:#5858d1;stop-opacity:1;"
         offset="1"
         id="stop12-7" />
    </linearGradient>
    <linearGradient
       inkscape:collect="always"
       xlink:href="#linearGradient12"
       id="linearGradient1"
       gradientUnits="userSpaceOnUse"
       gradientTransform="matrix(0.61249855,0,0,0.6002263,1.2099087,-617.39968)"
       x1="0"
       y1="1051.3622"
       x2="22.74349"
       y2="1032.9832" />
  </defs>
  <path
     fill-rule="evenodd"
     clip-rule="evenodd"
     d="m 14.999991,4.6646298 c 9e-6,-0.8718 -0.570161,-1.3343 -1.273115,-1.3344 l -5.5702501,-4e-4 c 0.025506,-1e-4 -0.1380601,-0.012 -0.1939348,-0.079 -0.013745,-0.02 -0.03023,-0.041 -0.050195,-0.063 -0.019502,-0.028 -0.074203,-0.099 -0.1221778,-0.1641 -0.034151,-0.05 -0.064951,-0.084 -0.077462,-0.1041 -0.4555937,-0.6023 -0.8115534,-0.9196 -1.6219861,-0.9196 H 2.2727259 C 1.5698153,1.9951298 1,2.5942298 1,3.3303298 V 12.66633 c 0,0.7365 0.5698153,1.3337 1.2727244,1.3337 H 13.727238 C 14.430192,14.00003 15,13.40283 15,12.66633 Z m -1.818239,-0.5497 c 0.488112,0 0.943249,-0.011 0.943249,0.7804 V 12.28523 c 0,0.857 -0.404526,0.857 -0.875,0.857 H 2.7500003 c -0.4399077,0 -0.8750002,0 -0.8750002,-0.857 V 3.7102298 c 0,-0.47 0,-0.857 0.8750002,-0.857 h 3.1850005 c 0.2446371,0 0.5094448,-0.061 0.7805852,0.2514 0.0076,0.011 0.028793,0.041 0.055529,0.074 0.051273,0.07 0.1217495,0.165 0.1506585,0.2024 0.1672806,0.2083 0.4405319,0.7239 1.0746555,0.7452 z"
     id="path1"
     style="fill:url(#linearGradient5);stroke-width:0.796184"
     sodipodi:nodetypes="cscccccscssssccccccccccsccccc" />
  <path
     fill-rule="evenodd"
     clip-rule="evenodd"
     d="M 11.00988,7.1207772 C 11.009889,6.5105193 10.610766,6.18677 10.118702,6.1867004 L 6.2195348,6.1864193 c 0.017854,-6.93e-5 -0.096642,-0.0084 -0.1357547,-0.055297 -0.00962,-0.014003 -0.021158,-0.028703 -0.035132,-0.0441 -0.01365,-0.019598 -0.05194,-0.0693 -0.085525,-0.1148705 -0.023907,-0.035002 -0.045466,-0.0588 -0.054223,-0.07287 C 5.5899818,5.4776717 5.3408108,5.2555627 4.7735096,5.2555627 H 2.1008148 C 1.6087785,5.2521347 1.2099087,5.671501 1.2099087,6.18677 v 6.535179 c 0,0.515555 0.3988698,0.933593 0.8909053,0.933593 h 8.018142 c 0.492064,0 0.890933,-0.418038 0.890933,-0.933593 z M 9.7371167,6.7359884 c 0.3416733,0 0.6602713,-0.00774 0.6602713,0.5462783 v 5.1729193 c 0,0.599896 -0.28317,0.599896 -0.612497,0.599896 H 2.4349059 c -0.3079342,0 -0.6124986,0 -0.6124986,-0.599896 V 6.452699 c 0,-0.3289983 0,-0.5998983 0.6124986,-0.5998983 H 4.664401 c 0.1712458,0 0.3566103,-0.042701 0.546408,0.17598 0.00534,0.00774 0.020153,0.028698 0.038868,0.051798 0.035893,0.049001 0.085226,0.1154996 0.105461,0.14168 0.1170961,0.1458092 0.3083716,0.506729 0.7522573,0.5216389 z"
     id="path1-5"
     style="isolation:isolate;fill:url(#linearGradient1);stroke-width:0.557322"
     sodipodi:nodetypes="cscccccscssssccccccccccsccccc" />
</svg>
