<?xml version="1.0" encoding="UTF-8" standalone="no"?>
<svg
   width="16"
   height="16"
   viewBox="0 0 16 16"
   fill="none"
   version="1.1"
   id="svg3"
   sodipodi:docname="protonvpngui-disconnected.svg"
   inkscape:version="1.3.2 (091e20ef0f, 2023-11-25)"
   xmlns:inkscape="http://www.inkscape.org/namespaces/inkscape"
   xmlns:sodipodi="http://sodipodi.sourceforge.net/DTD/sodipodi-0.dtd"
   xmlns="http://www.w3.org/2000/svg"
   xmlns:svg="http://www.w3.org/2000/svg">
  <sodipodi:namedview
     id="namedview3"
     pagecolor="#ffffff"
     bordercolor="#000000"
     borderopacity="0.25"
     inkscape:showpageshadow="2"
     inkscape:pageopacity="0.0"
     inkscape:pagecheckerboard="0"
     inkscape:deskcolor="#d1d1d1"
     inkscape:zoom="22.512993"
     inkscape:cx="10.393998"
     inkscape:cy="10.149694"
     inkscape:window-width="1920"
     inkscape:window-height="994"
     inkscape:window-x="0"
     inkscape:window-y="0"
     inkscape:window-maximized="1"
     inkscape:current-layer="svg3" />
  <path
     d="m 6.2708653,12.335178 c 0.036952,0.06761 0.090543,0.124476 0.1556135,0.165156 0.065076,0.04068 0.1394243,0.0637 0.2158739,0.06699 0.076461,0.0032 0.1524524,-0.01351 0.2206385,-0.04859 0.068187,-0.03507 0.1262744,-0.08733 0.1686671,-0.151637 L 7.4884742,11.673794 10.957817,6.3413713 c 0.06955,-0.1068766 0.110845,-0.2299395 0.119977,-0.3574845 0.0091,-0.1275459 -0.01425,-0.2553219 -0.06786,-0.3711877 C 10.956324,5.4968464 10.874226,5.3967668 10.771476,5.3219953 10.668726,5.247222 10.548727,5.200235 10.422911,5.1855105 L 1.8124788,4.1798536 m 4.4583865,8.1553244 0.4706169,0.861223 c 0.079722,0.146766 0.185762,0.277332 0.3127232,0.384999 0.144829,0.121675 0.3134714,0.211195 0.494902,0.262472 0.1814186,0.05127 0.3715478,0.06332 0.5579004,0.03532 0.1863645,-0.02801 0.3647668,-0.09537 0.5235176,-0.19792 0.1587498,-0.102427 0.2942777,-0.237499 0.3977139,-0.396566 L 14.175035,5.3659741 C 14.300138,5.1734631 14.374332,4.9518422 14.390497,4.7222067 14.406788,4.4925593 14.364565,4.2625466 14.267807,4.0540556 14.17117,3.8455645 14.023148,3.6655241 13.838087,3.5310852 13.652905,3.3966462 13.436839,3.3122785 13.210276,3.2860188 L 3.094388,2.1148551 C 2.8506954,2.0866425 2.6040104,2.1267003 2.3813691,2.2306587 2.1587399,2.3346002 1.9687438,2.4984163 1.8322034,2.704143 1.695675,2.9098699 1.6178621,3.1495769 1.6073182,3.3969943 c -0.010544,0.2474054 0.046579,0.492972 0.165108,0.7097817 l 0.040052,0.073073 m 4.458387,8.155324 -4.4583869,-8.1553241"
     stroke-width="1.21217"
     stroke-linecap="round"
     stroke-linejoin="round"
     id="path1"
     style="stroke:#c83771;stroke-opacity:1" />
  <defs
     id="defs3">
    <linearGradient
       id="paint0_linear_731_2"
       x1="13.3545"
       y1="76.706596"
       x2="147.979"
       y2="77.2817"
       gradientUnits="userSpaceOnUse"
       gradientTransform="matrix(0.12064008,0,0,0.1217965,-0.00500032,-0.05676517)">
      <stop
         stop-color="#670BDB"
         id="stop1" />
      <stop
         offset="0.336165"
         stop-color="#7230FF"
         id="stop2" />
      <stop
         offset="0.716395"
         stop-color="#64F6FF"
         id="stop3" />
    </linearGradient>
  </defs>
</svg>
