<?xml version="1.0" encoding="UTF-8" standalone="no"?>
<svg
   width="16"
   height="16"
   viewBox="0 0 16 16"
   fill="none"
   version="1.1"
   id="svg7"
   sodipodi:docname="protonmail-notification.svg"
   inkscape:version="1.3.2 (091e20ef0f, 2023-11-25)"
   xmlns:inkscape="http://www.inkscape.org/namespaces/inkscape"
   xmlns:sodipodi="http://sodipodi.sourceforge.net/DTD/sodipodi-0.dtd"
   xmlns:xlink="http://www.w3.org/1999/xlink"
   xmlns="http://www.w3.org/2000/svg"
   xmlns:svg="http://www.w3.org/2000/svg">
  <sodipodi:namedview
     id="namedview7"
     pagecolor="#ffffff"
     bordercolor="#000000"
     borderopacity="0.25"
     inkscape:showpageshadow="2"
     inkscape:pageopacity="0.0"
     inkscape:pagecheckerboard="0"
     inkscape:deskcolor="#d1d1d1"
     inkscape:zoom="16.948466"
     inkscape:cx="5.42822"
     inkscape:cy="17.258199"
     inkscape:window-width="1920"
     inkscape:window-height="994"
     inkscape:window-x="0"
     inkscape:window-y="0"
     inkscape:window-maximized="1"
     inkscape:current-layer="svg7" />
  <path
     d="m 7.999977,2.068335 c 1.241651,0 2.432446,0.4967426 3.310425,1.3809711 0.877989,0.8842172 1.371261,2.0834734 1.371261,3.3339374 v 6.5400795 c 0,0.161296 -0.06366,0.31609 -0.176921,0.430161 -0.113379,0.11407 -0.266966,0.178178 -0.427238,0.178178 H 3.922415 c -0.160214,0 -0.313859,-0.06411 -0.427147,-0.178178 C 3.38198,13.639413 3.318335,13.484619 3.318335,13.323323 V 6.7832435 c 0,-1.250464 0.493238,-2.4497202 1.371217,-3.3339374 C 5.56753,2.5650776 6.758325,2.068335 7.999977,2.068335 Z"
     stroke-width="1.13667"
     stroke-linecap="round"
     stroke-linejoin="round"
     id="path1"
     style="stroke:url(#linearGradient11);stroke-opacity:1" />
  <path
     d="m 3.318335,8.9125735 4.077563,2.5490975 c 0.192687,0.122078 0.415695,0.186859 0.643348,0.186859 0.227641,0 0.450661,-0.06478 0.643348,-0.186859 L 12.681663,8.9125735 M 7.999977,3.9664788 c 0.755402,0 1.479871,0.3022183 2.01402,0.8401627 0.53415,0.537945 0.834236,1.267563 0.834236,2.028333 v 0.526241 H 5.151732 v -0.526241 c 0,-0.76077 0.300074,-1.490388 0.834223,-2.028333 0.534161,-0.5379444 1.25862,-0.8401627 2.014022,-0.8401627 z"
     stroke-width="1.13667"
     stroke-linecap="round"
     stroke-linejoin="round"
     id="path2"
     style="stroke:url(#linearGradient9);stroke-opacity:1" />
  <defs
     id="defs7">
    <linearGradient
       id="linearGradient7"
       inkscape:collect="always">
      <stop
         style="stop-color:#3737c8;stop-opacity:1;"
         offset="0"
         id="stop8" />
      <stop
         style="stop-color:#bc5fd3;stop-opacity:1;"
         offset="1"
         id="stop9" />
    </linearGradient>
    <linearGradient
       id="paint0_linear_730_70"
       x1="22.667"
       y1="75.344299"
       x2="108.985"
       y2="71.648102"
       gradientUnits="userSpaceOnUse"
       gradientTransform="matrix(0.1132656,0,0,0.11407045,0.75094403,0.69948963)">
      <stop
         stop-color="#6D4AFF"
         id="stop2" />
      <stop
         offset="0.721604"
         stop-color="#876AFF"
         id="stop3" />
      <stop
         offset="1"
         stop-color="#B6A4FF"
         id="stop4" />
    </linearGradient>
    <linearGradient
       id="paint1_linear_730_70"
       x1="22.667"
       y1="69.658501"
       x2="108.5"
       y2="68.512001"
       gradientUnits="userSpaceOnUse"
       gradientTransform="matrix(0.1132656,0,0,0.11407045,0.75094403,0.69948963)">
      <stop
         stop-color="#6D4AFF"
         id="stop5" />
      <stop
         offset="0.721604"
         stop-color="#876AFF"
         id="stop6" />
      <stop
         offset="1"
         stop-color="#B6A4FF"
         id="stop7" />
    </linearGradient>
    <linearGradient
       inkscape:collect="always"
       xlink:href="#linearGradient7"
       id="linearGradient9"
       x1="5.4641099"
       y1="11.701662"
       x2="12.718977"
       y2="9.3415661"
       gradientUnits="userSpaceOnUse" />
    <linearGradient
       inkscape:collect="always"
       xlink:href="#linearGradient7"
       id="linearGradient11"
       x1="2.75"
       y1="7.9999986"
       x2="13.249998"
       y2="7.9999986"
       gradientUnits="userSpaceOnUse" />
  </defs>
  <circle
     style="color:#5294e2;fill:#00dfdf;stroke-width:0.65;fill-opacity:1"
     class="ColorScheme-Highlight"
     cx="13.740381"
     cy="2.2574358"
     r="1.3000003"
     id="circle1" />
</svg>
