<?xml version="1.0" encoding="UTF-8" standalone="no"?>
<!-- Generator: Gravit.io -->

<svg
   style="isolation:isolate"
   viewBox="0 0 16 16"
   width="16pt"
   height="16pt"
   version="1.1"
   id="svg3"
   sodipodi:docname="pulseeffects.svg"
   inkscape:version="1.3.2 (091e20ef0f, 2023-11-25)"
   xmlns:inkscape="http://www.inkscape.org/namespaces/inkscape"
   xmlns:sodipodi="http://sodipodi.sourceforge.net/DTD/sodipodi-0.dtd"
   xmlns="http://www.w3.org/2000/svg"
   xmlns:svg="http://www.w3.org/2000/svg">
  <defs
     id="defs3" />
  <sodipodi:namedview
     id="namedview3"
     pagecolor="#ffffff"
     bordercolor="#999999"
     borderopacity="1"
     inkscape:showpageshadow="2"
     inkscape:pageopacity="0"
     inkscape:pagecheckerboard="0"
     inkscape:deskcolor="#d1d1d1"
     inkscape:document-units="pt"
     inkscape:zoom="16.882174"
     inkscape:cx="12.379922"
     inkscape:cy="17.118648"
     inkscape:window-width="1920"
     inkscape:window-height="996"
     inkscape:window-x="0"
     inkscape:window-y="0"
     inkscape:window-maximized="1"
     inkscape:current-layer="svg3" />
  <linearGradient
     id="_lgradient_9"
     x1="-0.06461899"
     y1="0.10017001"
     x2="0.2902008"
     y2="0.10622804"
     gradientTransform="matrix(44.000002,0,0,44.000002,2,2)"
     gradientUnits="userSpaceOnUse">
    <stop
       offset="0%"
       stop-opacity="1"
       style="stop-color:#cd87de;stop-opacity:1"
       id="stop1" />
    <stop
       offset="0.45524371"
       stop-opacity="1"
       style="stop-color:#00ccff;stop-opacity:1"
       id="stop2" />
    <stop
       offset="0.88044012"
       stop-opacity="1"
       style="stop-color:#ffb380;stop-opacity:1"
       id="stop3" />
  </linearGradient>
  <path
     d="m 10.363636,8.7282956 v 0 2.5217044 0 c 0,0.327364 0.263546,0.590909 0.59091,0.590909 0.327363,0 0.590909,-0.263545 0.590909,-0.590909 V 8.7282956 c 0.353363,-0.2044546 0.590909,-0.5861819 0.590909,-1.0237501 0,-0.4375681 -0.237546,-0.8192954 -0.590909,-1.02375 V 5.3409091 C 11.545455,5.0135455 11.281909,4.75 10.954546,4.75 v 0 c -0.327364,0 -0.59091,0.2635455 -0.59091,0.5909091 v 1.3398864 c -0.353363,0.2044546 -0.590909,0.5861819 -0.590909,1.02375 0,0.4375682 0.237546,0.8192955 0.590909,1.0237501 z M 7.409091,10.501023 v 0 0.748977 0 c 0,0.327364 0.2635455,0.590909 0.5909091,0.590909 0.3273636,0 0.5909091,-0.263545 0.5909091,-0.590909 v -0.748977 c 0.3533636,-0.204455 0.5909091,-0.586182 0.5909091,-1.0237502 0,-0.4375681 -0.2375455,-0.8192954 -0.5909091,-1.02375 V 5.3409091 C 8.5909092,5.0135455 8.3273637,4.75 8.0000001,4.75 v 0 C 7.6726365,4.75 7.409091,5.0135455 7.409091,5.3409091 v 3.1126137 c -0.3533636,0.2044546 -0.5909091,0.5861819 -0.5909091,1.02375 0,0.4375682 0.2375455,0.8192952 0.5909091,1.0237502 z M 4.4545455,6.0898864 V 5.3409091 C 4.4545455,5.0135455 4.718091,4.75 5.0454546,4.75 v 0 c 0.3273636,0 0.5909091,0.2635455 0.5909091,0.5909091 v 0.7489773 c 0.3533636,0.2044546 0.5909091,0.5861819 0.5909091,1.02375 0,0.4375682 -0.2375455,0.8192955 -0.5909091,1.0237501 V 11.25 c 0,0.327364 -0.2635455,0.590909 -0.5909091,0.590909 v 0 c -0.3273636,0 -0.5909091,-0.263545 -0.5909091,-0.590909 v 0 -3.1126135 0 C 4.1011819,7.9329319 3.8636364,7.5512046 3.8636364,7.1136364 c 0,-0.4375681 0.2375455,-0.8192954 0.5909091,-1.02375 z M 2.7379546,10.110432 v 0 c 0,0.341545 -0.2771364,0.618977 -0.6189773,0.618977 v 0 C 1.7774318,10.729409 1.5,10.451977 1.5,10.110432 v 0 -7.0628411 C 1.5,2.1934318 2.1934318,1.5 3.0475909,1.5 H 12.277 v 0 c 0.341841,0 0.618977,0.2774318 0.618977,0.6189773 v 0 c 0,0.3418409 -0.277136,0.6189773 -0.618977,0.6189773 v 0 H 3.6665682 c -0.5123182,0 -0.9286136,0.4162954 -0.9286136,0.9286136 z M 13.262046,6.1992046 v 0 c 0,-0.3418409 0.277136,-0.6189773 0.618977,-0.6189773 v 0 c 0.341545,0 0.618977,0.2771364 0.618977,0.6189773 v 0 6.7532044 C 14.5,13.806568 13.806568,14.5 12.952409,14.5 H 5.312841 v 0 c -0.3418409,0 -0.6189773,-0.277432 -0.6189773,-0.618977 v 0 c 0,-0.341841 0.2771364,-0.618977 0.6189773,-0.618977 v 0 h 7.020591 c 0.512318,0 0.928614,-0.416296 0.928614,-0.928614 z"
     fill-rule="evenodd"
     fill="url(#_lgradient_9)"
     id="path3"
     style="fill:url(#_lgradient_9);stroke-width:1" />
</svg>
