<?xml version="1.0" encoding="UTF-8" standalone="no"?>
<svg
   width="16"
   height="16"
   viewBox="0 0 16 16"
   fill="none"
   version="1.1"
   id="svg13"
   sodipodi:docname="QOwnNotes.svg"
   inkscape:version="1.3 (0e150ed6c4, 2023-07-21)"
   xmlns:inkscape="http://www.inkscape.org/namespaces/inkscape"
   xmlns:sodipodi="http://sodipodi.sourceforge.net/DTD/sodipodi-0.dtd"
   xmlns:xlink="http://www.w3.org/1999/xlink"
   xmlns="http://www.w3.org/2000/svg"
   xmlns:svg="http://www.w3.org/2000/svg">
  <sodipodi:namedview
     id="namedview13"
     pagecolor="#ffffff"
     bordercolor="#000000"
     borderopacity="0.25"
     inkscape:showpageshadow="2"
     inkscape:pageopacity="0.0"
     inkscape:pagecheckerboard="0"
     inkscape:deskcolor="#d1d1d1"
     inkscape:zoom="23.96875"
     inkscape:cx="6.8422425"
     inkscape:cy="12.954368"
     inkscape:window-width="1920"
     inkscape:window-height="994"
     inkscape:window-x="0"
     inkscape:window-y="0"
     inkscape:window-maximized="1"
     inkscape:current-layer="svg13" />
  <defs
     id="defs13">
    <linearGradient
       id="paint0_linear_730_2"
       x1="40.728199"
       y1="53.416801"
       x2="110.698"
       y2="44.080502"
       gradientUnits="userSpaceOnUse">
      <stop
         stop-color="#0357D1"
         id="stop4" />
      <stop
         offset="1"
         stop-color="#27CDFC"
         id="stop5" />
    </linearGradient>
    <linearGradient
       id="paint1_linear_730_2"
       x1="86.715103"
       y1="26.2222"
       x2="86.715103"
       y2="84.582199"
       gradientUnits="userSpaceOnUse"
       gradientTransform="translate(2.6701433,-47.4022)">
      <stop
         stop-color="#189CFC"
         id="stop6" />
      <stop
         offset="1"
         stop-color="#1E78FF"
         id="stop7" />
    </linearGradient>
    <linearGradient
       id="paint2_linear_730_2"
       x1="86.715103"
       y1="26.2222"
       x2="86.715103"
       y2="84.582199"
       gradientUnits="userSpaceOnUse"
       gradientTransform="translate(2.6701433,-47.4022)">
      <stop
         stop-color="#189CFC"
         id="stop8" />
      <stop
         offset="1"
         stop-color="#1E78FF"
         id="stop9" />
    </linearGradient>
    <linearGradient
       id="paint3_linear_730_2"
       x1="33.0382"
       y1="65.8386"
       x2="58.0546"
       y2="63.816299"
       gradientUnits="userSpaceOnUse"
       gradientTransform="translate(2.6701433,-47.4022)">
      <stop
         stop-color="#0357D1"
         id="stop10" />
      <stop
         offset="1"
         stop-color="#27CDFC"
         id="stop11" />
    </linearGradient>
    <linearGradient
       id="paint4_linear_730_2"
       x1="33.0382"
       y1="65.8386"
       x2="58.0546"
       y2="63.816299"
       gradientUnits="userSpaceOnUse"
       gradientTransform="translate(2.6701433,-47.4022)">
      <stop
         stop-color="#0357D1"
         id="stop12" />
      <stop
         offset="1"
         stop-color="#27CDFC"
         id="stop13" />
    </linearGradient>
    <linearGradient
       inkscape:collect="always"
       xlink:href="#linearGradient1"
       id="linearGradient2"
       x1="10.707618"
       y1="18.301517"
       x2="37.173615"
       y2="44.767513"
       gradientUnits="userSpaceOnUse"
       gradientTransform="matrix(0.49119628,0,0,0.49119634,-3.759541,-7.48964)" />
    <linearGradient
       id="linearGradient1"
       inkscape:collect="always">
      <stop
         style="stop-color:#ffd42a;stop-opacity:1"
         offset="0"
         id="stop1" />
      <stop
         style="stop-color:#c779d0;stop-opacity:1;"
         offset="0.46874997"
         id="stop6-8" />
      <stop
         style="stop-color:#4bc0c8;stop-opacity:1;"
         offset="1"
         id="stop2-9" />
    </linearGradient>
    <linearGradient
       id="paint3_linear"
       x1="69.25"
       y1="28.75"
       x2="75.501099"
       y2="35.5"
       gradientUnits="userSpaceOnUse"
       gradientTransform="matrix(0.642,0,0,0.642,-67.471,-33.235)">
      <stop
         id="stop67" />
      <stop
         offset="1"
         stop-opacity="0"
         id="stop69" />
    </linearGradient>
    <linearGradient
       inkscape:collect="always"
       xlink:href="#linearGradient1"
       id="linearGradient14"
       x1="4.8852673"
       y1="23.704302"
       x2="11.818604"
       y2="23.704302"
       gradientUnits="userSpaceOnUse"
       gradientTransform="matrix(1.153846,0,0,1.153846,-1.6368472,-19.351119)" />
  </defs>
  <path
     id="circle2"
     style="opacity:0.99;fill:url(#linearGradient2);fill-opacity:1;stroke-width:0.491196"
     d="M 14.5,8 A 6.4999994,6.5000002 0 0 1 8,14.5 6.4999994,6.5000002 0 0 1 1.5,8 6.4999994,6.5000002 0 0 1 8,1.5 6.4999994,6.5000002 0 0 1 14.5,8 Z" />
  <path
     id="circle858"
     style="fill:#1c202f;fill-opacity:1;stroke-width:0.417883"
     d="M 13.529826,8 A 5.5298259,5.529827 0 0 1 8,13.52983 5.5298259,5.529827 0 0 1 2.470174,8 5.5298259,5.529827 0 0 1 8,2.47017 5.5298259,5.529827 0 0 1 13.529826,8 Z" />
  <path
     d="M 10.279999,7.04 C 10.080001,6.4000032 9.6799974,5.84 9.1199997,5.4400032 8.6399997,5.1599978 8.1199996,5 7.5999997,5 c -0.96,0 -1.84,0.48 -2.3599998,1.2800032 C 4.9199996,6.8 4.7599997,7.4 4.7999997,8 c -0.48,0.2799968 -0.8,0.8000042 -0.8,1.4000042 C 3.9999997,10.28 4.7199997,11 5.5999998,11 H 9.9999993 C 11.12,11 12,10.120002 12,8.9999968 12,8 11.279999,7.16 10.279999,7.04 Z M 9.9999993,10.199999 H 5.5999998 c -0.4400003,0 -0.8000001,-0.360001 -0.8000001,-0.7999948 0,-0.36 0.2399999,-0.6800042 0.5600002,-0.7600084 l 0.3599998,-0.12 -0.079999,-0.359999 c -0.079999,-0.5199968 0,-1.0399926 0.2800001,-1.439999 0.36,-0.5599946 0.9999998,-0.9199946 1.68,-0.9199946 0.3999998,0 0.7599999,0.12 1.08,0.3199946 0.36,0.24 0.64,0.5600022 0.8000019,0.959999 C 9.12,7.1999968 8.76,7.4 8.52,7.6799978 8.3599998,7.8400032 8.4,8.0800042 8.559998,8.24 c 0.079999,0.080022 0.1599999,0.080022 0.2799999,0.080022 0.12,0 0.24,-0.039968 0.3200001,-0.12 0.2400007,-0.24 0.5600013,-0.4000042 0.879998,-0.4000042 v 0 c 0.680001,0 1.200003,0.5200052 1.200003,1.1999988 0,0.6800034 -0.560002,1.1999994 -1.2400027,1.1999994 z"
     id="path1-9"
     style="fill:url(#linearGradient14);stroke-width:0.4" />
</svg>
