<?xml version="1.0" encoding="UTF-8" standalone="no"?>
<svg
   height="16"
   width="16"
   version="1.1"
   id="svg10"
   sodipodi:docname="distributor-logo-rhel.svg"
   inkscape:version="1.3 (0e150ed6c4, 2023-07-21)"
   xmlns:inkscape="http://www.inkscape.org/namespaces/inkscape"
   xmlns:sodipodi="http://sodipodi.sourceforge.net/DTD/sodipodi-0.dtd"
   xmlns="http://www.w3.org/2000/svg"
   xmlns:svg="http://www.w3.org/2000/svg"
   xmlns:rdf="http://www.w3.org/1999/02/22-rdf-syntax-ns#"
   xmlns:cc="http://creativecommons.org/ns#"
   xmlns:dc="http://purl.org/dc/elements/1.1/">
  <metadata
     id="metadata16">
    <rdf:RDF>
      <cc:Work
         rdf:about="">
        <dc:format>image/svg+xml</dc:format>
        <dc:type
           rdf:resource="http://purl.org/dc/dcmitype/StillImage" />
      </cc:Work>
    </rdf:RDF>
  </metadata>
  <defs
     id="defs14">
    <linearGradient
       id="c"
       x1="31.458"
       x2="31.458"
       y1="51.726002"
       y2="62.897999"
       gradientTransform="matrix(0.36079,0,0,0.36079,-2.8832,-9.4399)"
       gradientUnits="userSpaceOnUse">
      <stop
         stop-color="#1776ff"
         offset="0"
         id="stop292" />
      <stop
         stop-color="#2fceff"
         offset="1"
         id="stop294" />
    </linearGradient>
    <linearGradient
       id="d"
       x1="31.458"
       x2="31.458"
       y1="36.897999"
       y2="59.897999"
       gradientTransform="matrix(0.36079,0,0,0.36079,-2.8832,-9.4399)"
       gradientUnits="userSpaceOnUse">
      <stop
         stop-color="#ff5514"
         offset="0"
         id="stop297" />
      <stop
         stop-color="#ff9014"
         offset="1"
         id="stop299" />
    </linearGradient>
    <linearGradient
       id="a"
       x1="31.458"
       x2="31.458"
       y1="46.897999"
       y2="56.897999"
       gradientTransform="matrix(0.36079,0,0,0.36079,-2.8832,-9.4399)"
       gradientUnits="userSpaceOnUse">
      <stop
         stop-color="#c0e5fb"
         offset="0"
         id="stop302" />
      <stop
         stop-color="#c3faff"
         offset="1"
         id="stop304" />
    </linearGradient>
    <linearGradient
       gradientTransform="matrix(1.0394952,0,0,1.0394363,-448.49881,-520.66414)"
       gradientUnits="userSpaceOnUse"
       x2="426.69501"
       y2="499.92099"
       y1="547.67499"
       id="a-6"
       x1="389.32001">
      <stop
         stop-color="#18222a"
         style="stop-color:#436077;stop-opacity:1;"
         id="stop216"
         offset="0" />
      <stop
         stop-color="#566069"
         offset="1"
         style="stop-color:#6d7983;stop-opacity:1"
         id="stop218" />
    </linearGradient>
    <linearGradient
       id="e"
       x1="8.4461002"
       x2="24.603001"
       y1="6.2688999"
       y2="24.570999"
       gradientUnits="userSpaceOnUse"
       gradientTransform="translate(0.254427,-38.49298)">
      <stop
         stop-opacity=".2088"
         offset="0"
         id="stop4" />
      <stop
         stop-opacity="0"
         offset="1"
         id="stop6" />
    </linearGradient>
    <linearGradient
       id="d-3"
       x1="7.8488002"
       x2="14.108"
       y1="3.5121"
       y2="14.183"
       gradientUnits="userSpaceOnUse"
       gradientTransform="translate(0.254427,-38.49298)">
      <stop
         stop-opacity=".2088"
         offset="0"
         id="stop14" />
      <stop
         stop-opacity="0"
         offset="1"
         id="stop16" />
    </linearGradient>
    <linearGradient
       id="c-6"
       x1="31.458"
       x2="31.458"
       y1="51.726002"
       y2="62.897999"
       gradientTransform="matrix(0.36079,0,0,0.36079,-2.8832,-9.4399)"
       gradientUnits="userSpaceOnUse">
      <stop
         stop-color="#1776ff"
         offset="0"
         id="stop292-7"
         style="stop-color:#55ddff;stop-opacity:1" />
      <stop
         stop-color="#2fceff"
         offset="1"
         id="stop294-5"
         style="stop-color:#00ccff;stop-opacity:1" />
    </linearGradient>
    <linearGradient
       id="d-35"
       x1="31.458"
       x2="31.458"
       y1="36.897999"
       y2="59.897999"
       gradientTransform="matrix(0.36079,0,0,0.36079,-2.8832,-9.4399)"
       gradientUnits="userSpaceOnUse">
      <stop
         stop-color="#ff5514"
         offset="0"
         id="stop297-6"
         style="stop-color:#ffccaa;stop-opacity:1" />
      <stop
         stop-color="#ff9014"
         offset="1"
         id="stop299-2"
         style="stop-color:#ff9955;stop-opacity:1" />
    </linearGradient>
    <linearGradient
       id="a-9"
       x1="31.458"
       x2="31.458"
       y1="46.897999"
       y2="56.897999"
       gradientTransform="matrix(0.36079,0,0,0.36079,-2.8832,-9.4399)"
       gradientUnits="userSpaceOnUse">
      <stop
         stop-color="#c0e5fb"
         offset="0"
         id="stop302-1"
         style="stop-color:#e3d7f4;stop-opacity:1" />
      <stop
         stop-color="#c3faff"
         offset="1"
         id="stop304-2"
         style="stop-color:#aa87de;stop-opacity:1" />
    </linearGradient>
    <filter
       id="filter5877"
       x="-2.357507"
       y="-2.3296077"
       width="5.715014"
       height="5.6592155"
       color-interpolation-filters="sRGB">
      <feGaussianBlur
         stdDeviation="0.28543518"
         id="feGaussianBlur1374" />
    </filter>
    <filter
       id="filter2488"
       x="-2.357507"
       y="-2.3296077"
       width="5.715014"
       height="5.6592155"
       color-interpolation-filters="sRGB">
      <feGaussianBlur
         stdDeviation="0.28543518"
         id="feGaussianBlur2486" />
    </filter>
    <filter
       id="filter2492"
       x="-2.357507"
       y="-2.3296077"
       width="5.715014"
       height="5.6592155"
       color-interpolation-filters="sRGB">
      <feGaussianBlur
         stdDeviation="0.28543518"
         id="feGaussianBlur2490" />
    </filter>
    <filter
       id="filter2496"
       x="-2.357507"
       y="-2.3296077"
       width="5.715014"
       height="5.6592155"
       color-interpolation-filters="sRGB">
      <feGaussianBlur
         stdDeviation="0.28543518"
         id="feGaussianBlur2494" />
    </filter>
    <filter
       id="filter2500"
       x="-2.357507"
       y="-2.3296077"
       width="5.715014"
       height="5.6592155"
       color-interpolation-filters="sRGB">
      <feGaussianBlur
         stdDeviation="0.28543518"
         id="feGaussianBlur2498" />
    </filter>
    <filter
       id="filter2504"
       x="-2.357507"
       y="-2.3296077"
       width="5.715014"
       height="5.6592155"
       color-interpolation-filters="sRGB">
      <feGaussianBlur
         stdDeviation="0.28543518"
         id="feGaussianBlur2502" />
    </filter>
    <filter
       id="filter2508"
       x="-2.357507"
       y="-2.3296077"
       width="5.715014"
       height="5.6592155"
       color-interpolation-filters="sRGB">
      <feGaussianBlur
         stdDeviation="0.28543518"
         id="feGaussianBlur2506" />
    </filter>
    <filter
       id="filter2512"
       x="-2.357507"
       y="-2.3296077"
       width="5.715014"
       height="5.6592155"
       color-interpolation-filters="sRGB">
      <feGaussianBlur
         stdDeviation="0.28543518"
         id="feGaussianBlur2510" />
    </filter>
    <filter
       id="filter2516"
       x="-2.357507"
       y="-2.3296077"
       width="5.715014"
       height="5.6592155"
       color-interpolation-filters="sRGB">
      <feGaussianBlur
         stdDeviation="0.28543518"
         id="feGaussianBlur2514" />
    </filter>
    <filter
       id="filter2520"
       x="-2.357507"
       y="-2.3296077"
       width="5.715014"
       height="5.6592155"
       color-interpolation-filters="sRGB">
      <feGaussianBlur
         stdDeviation="0.28543518"
         id="feGaussianBlur2518" />
    </filter>
    <filter
       id="filter2524"
       x="-2.357507"
       y="-2.3296077"
       width="5.715014"
       height="5.6592155"
       color-interpolation-filters="sRGB">
      <feGaussianBlur
         stdDeviation="0.28543518"
         id="feGaussianBlur2522" />
    </filter>
    <filter
       id="filter2528"
       x="-2.357507"
       y="-2.3296077"
       width="5.715014"
       height="5.6592155"
       color-interpolation-filters="sRGB">
      <feGaussianBlur
         stdDeviation="0.28543518"
         id="feGaussianBlur2526" />
    </filter>
    <filter
       id="filter2532"
       x="-2.357507"
       y="-2.3296077"
       width="5.715014"
       height="5.6592155"
       color-interpolation-filters="sRGB">
      <feGaussianBlur
         stdDeviation="0.28543518"
         id="feGaussianBlur2530" />
    </filter>
    <filter
       id="filter2536"
       x="-2.357507"
       y="-2.3296077"
       width="5.715014"
       height="5.6592155"
       color-interpolation-filters="sRGB">
      <feGaussianBlur
         stdDeviation="0.28543518"
         id="feGaussianBlur2534" />
    </filter>
    <filter
       id="filter2540"
       x="-2.357507"
       y="-2.3296077"
       width="5.715014"
       height="5.6592155"
       color-interpolation-filters="sRGB">
      <feGaussianBlur
         stdDeviation="0.28543518"
         id="feGaussianBlur2538" />
    </filter>
    <linearGradient
       id="linearGradient1566"
       x1="8.3549995"
       x2="8.3996"
       y1="16.007"
       y2="0.79374999"
       gradientTransform="matrix(2.7849621,0,0,2.7849621,0.42101663,0.42102106)"
       gradientUnits="userSpaceOnUse">
      <stop
         stop-color="#2e3440"
         stop-opacity=".2"
         offset="0"
         id="stop1366"
         style="stop-color:#4f5a6f;stop-opacity:0.54245424;" />
      <stop
         stop-color="#d8dee9"
         offset="1"
         id="stop1368" />
    </linearGradient>
    <filter
       id="filter5815"
       x="-0.05500596"
       y="-0.11783287"
       width="1.1100119"
       height="1.2356657"
       color-interpolation-filters="sRGB">
      <feGaussianBlur
         stdDeviation="0.19020097"
         id="feGaussianBlur1371" />
    </filter>
    <filter
       id="filter5877-3"
       x="-2.357507"
       y="-2.3296077"
       width="5.715014"
       height="5.6592155"
       color-interpolation-filters="sRGB">
      <feGaussianBlur
         stdDeviation="0.28543518"
         id="feGaussianBlur1374-6" />
    </filter>
    <filter
       id="filter919"
       x="-2.357507"
       y="-2.3296077"
       width="5.715014"
       height="5.6592155"
       color-interpolation-filters="sRGB">
      <feGaussianBlur
         stdDeviation="0.28543518"
         id="feGaussianBlur917" />
    </filter>
    <filter
       id="filter923"
       x="-2.357507"
       y="-2.3296077"
       width="5.715014"
       height="5.6592155"
       color-interpolation-filters="sRGB">
      <feGaussianBlur
         stdDeviation="0.28543518"
         id="feGaussianBlur921" />
    </filter>
    <filter
       id="filter927"
       x="-2.357507"
       y="-2.3296077"
       width="5.715014"
       height="5.6592155"
       color-interpolation-filters="sRGB">
      <feGaussianBlur
         stdDeviation="0.28543518"
         id="feGaussianBlur925" />
    </filter>
    <filter
       id="filter931"
       x="-2.357507"
       y="-2.3296077"
       width="5.715014"
       height="5.6592155"
       color-interpolation-filters="sRGB">
      <feGaussianBlur
         stdDeviation="0.28543518"
         id="feGaussianBlur929" />
    </filter>
    <filter
       id="filter935"
       x="-2.357507"
       y="-2.3296077"
       width="5.715014"
       height="5.6592155"
       color-interpolation-filters="sRGB">
      <feGaussianBlur
         stdDeviation="0.28543518"
         id="feGaussianBlur933" />
    </filter>
    <filter
       id="filter939"
       x="-2.357507"
       y="-2.3296077"
       width="5.715014"
       height="5.6592155"
       color-interpolation-filters="sRGB">
      <feGaussianBlur
         stdDeviation="0.28543518"
         id="feGaussianBlur937" />
    </filter>
    <filter
       id="filter943"
       x="-2.357507"
       y="-2.3296077"
       width="5.715014"
       height="5.6592155"
       color-interpolation-filters="sRGB">
      <feGaussianBlur
         stdDeviation="0.28543518"
         id="feGaussianBlur941" />
    </filter>
    <filter
       id="filter947"
       x="-2.357507"
       y="-2.3296077"
       width="5.715014"
       height="5.6592155"
       color-interpolation-filters="sRGB">
      <feGaussianBlur
         stdDeviation="0.28543518"
         id="feGaussianBlur945" />
    </filter>
    <filter
       id="filter951"
       x="-2.357507"
       y="-2.3296077"
       width="5.715014"
       height="5.6592155"
       color-interpolation-filters="sRGB">
      <feGaussianBlur
         stdDeviation="0.28543518"
         id="feGaussianBlur949" />
    </filter>
    <filter
       id="filter955"
       x="-2.357507"
       y="-2.3296077"
       width="5.715014"
       height="5.6592155"
       color-interpolation-filters="sRGB">
      <feGaussianBlur
         stdDeviation="0.28543518"
         id="feGaussianBlur953" />
    </filter>
    <filter
       id="filter959"
       x="-2.357507"
       y="-2.3296077"
       width="5.715014"
       height="5.6592155"
       color-interpolation-filters="sRGB">
      <feGaussianBlur
         stdDeviation="0.28543518"
         id="feGaussianBlur957" />
    </filter>
    <filter
       id="filter963"
       x="-2.357507"
       y="-2.3296077"
       width="5.715014"
       height="5.6592155"
       color-interpolation-filters="sRGB">
      <feGaussianBlur
         stdDeviation="0.28543518"
         id="feGaussianBlur961" />
    </filter>
    <filter
       id="filter967"
       x="-2.357507"
       y="-2.3296077"
       width="5.715014"
       height="5.6592155"
       color-interpolation-filters="sRGB">
      <feGaussianBlur
         stdDeviation="0.28543518"
         id="feGaussianBlur965" />
    </filter>
    <filter
       id="filter971"
       x="-2.357507"
       y="-2.3296077"
       width="5.715014"
       height="5.6592155"
       color-interpolation-filters="sRGB">
      <feGaussianBlur
         stdDeviation="0.28543518"
         id="feGaussianBlur969" />
    </filter>
    <filter
       id="filter5815-3"
       x="-0.05500596"
       y="-0.11783287"
       width="1.1100119"
       height="1.2356657"
       color-interpolation-filters="sRGB">
      <feGaussianBlur
         stdDeviation="0.19020097"
         id="feGaussianBlur1371-5" />
    </filter>
    <linearGradient
       id="a-6-3-9"
       y1="543.79999"
       y2="503.79999"
       x2="0"
       gradientUnits="userSpaceOnUse"
       gradientTransform="matrix(1.0499472,0,0,1.0499996,-383.27623,-532.2274)">
      <stop
         stop-color="#c6cdd1"
         id="stop2-6-7" />
      <stop
         offset="1"
         stop-color="#e0e5e7"
         id="stop4-7-3" />
    </linearGradient>
    <filter
       color-interpolation-filters="sRGB"
       height="1.1685905"
       width="1.1361635"
       y="-0.084295303"
       x="-0.068081729"
       id="c-9">
      <feGaussianBlur
         id="feGaussianBlur1093"
         stdDeviation="1.1062912" />
    </filter>
    <filter
       color-interpolation-filters="sRGB"
       height="1.1685905"
       width="1.1361635"
       y="-0.084295303"
       x="-0.068081729"
       id="filter1">
      <feGaussianBlur
         id="feGaussianBlur1"
         stdDeviation="1.1062912" />
    </filter>
    <linearGradient
       gradientUnits="userSpaceOnUse"
       gradientTransform="matrix(0.0841213,0,0,0.08288539,21.99282,-47.188605)"
       y2="269.48999"
       y1="235.14999"
       x2="657.65002"
       x1="319.20999"
       id="a-12">
      <stop
         id="stop1076"
         offset="0"
         stop-color="#e54c18" />
      <stop
         id="stop1078"
         offset="1"
         stop-color="#fec350" />
    </linearGradient>
  </defs>
  <sodipodi:namedview
     pagecolor="#ffffff"
     bordercolor="#666666"
     borderopacity="1"
     objecttolerance="10"
     gridtolerance="10"
     guidetolerance="10"
     inkscape:pageopacity="0"
     inkscape:pageshadow="2"
     inkscape:window-width="1920"
     inkscape:window-height="994"
     id="namedview12"
     showgrid="false"
     inkscape:zoom="5.6715855"
     inkscape:cx="40.288558"
     inkscape:cy="23.891027"
     inkscape:window-x="0"
     inkscape:window-y="0"
     inkscape:window-maximized="1"
     inkscape:current-layer="svg10"
     inkscape:document-rotation="0"
     inkscape:showpageshadow="2"
     inkscape:pagecheckerboard="0"
     inkscape:deskcolor="#d1d1d1">
    <inkscape:grid
       type="xygrid"
       id="grid3007"
       originx="0"
       originy="0"
       spacingy="1"
       spacingx="1"
       units="px"
       visible="false" />
  </sodipodi:namedview>
  <path
     style="opacity:0.2;stroke-width:0.263752"
     d="m 8.1505686,2.2608704 c -0.4840522,0 -0.6279107,0.6090471 -1.2166172,0.6090471 -0.5625497,0 -0.9816719,-0.4567829 -1.504976,-0.4567829 -0.510215,0 -0.8366599,0.3295362 -1.0852266,1.014866 0,0 -0.7067146,1.9289867 -0.7982987,2.2081978 C 3.5323432,5.6869574 3.21845,6.3343589 3.2315333,6.385123 1.8316942,6.4485829 0,6.7022684 0,8.2632937 0,10.82694 6.2665437,13.999786 11.237914,13.999786 15.044952,13.999786 16,12.325064 16,11.017858 16,9.9644909 15.070873,8.7969401 13.396302,8.0862398 L 13.213067,7.3242113 12.585225,4.6847143 C 12.441314,4.1009186 12.323878,3.8343814 11.264207,3.3267214 10.453076,2.9206067 8.6738759,2.2608704 8.1505686,2.2608704 Z"
     id="path1-3" />
  <path
     style="fill:#e73232;stroke-width:0.263752"
     d="M 8.1505686,2 C 7.6665164,2 7.5226579,2.6090682 6.9339514,2.6090682 c -0.5625497,0 -0.9816719,-0.4567969 -1.504976,-0.4567969 -0.510215,0 -0.8366599,0.3295371 -1.0852266,1.0148669 0,0 -0.7067146,1.9289788 -0.7982987,2.2081938 C 3.5323432,5.426091 3.21845,6.0734936 3.2315333,6.1242746 1.8316942,6.1877266 0,6.441401 0,8.0024313 0,10.566074 6.2665437,13.738916 11.237914,13.738916 15.044952,13.738916 16,12.064202 16,10.756993 16,9.703619 15.070873,8.5360748 13.396302,7.8253704 L 13.213067,7.0633459 12.585225,4.4238429 C 12.441314,3.8400513 12.323878,3.573515 11.264207,3.065857 10.453076,2.6597443 8.6738759,2 8.1505686,2 Z"
     id="path2-5" />
  <path
     style="opacity:0.2;fill:#ffffff;stroke-width:0.263752"
     d="M 8.1505142,2 C 7.6664598,2 7.5225651,2.6088622 6.9338513,2.6088622 c -0.5625501,0 -0.9813781,-0.456532 -1.5046796,-0.456532 -0.5102335,0 -0.8368562,0.3296052 -1.0854229,1.014935 0,0 -0.7068546,1.9289708 -0.7984373,2.2081808 C 3.5322061,5.426205 3.2186873,6.0736556 3.2317705,6.1244217 1.831929,6.1878826 0,6.4414081 0,8.0024383 0,8.0454525 0.00660517,8.0890307 0.00985112,8.1323669 0.11273438,6.6911945 1.8731467,6.4468739 3.2317335,6.385284 3.2186279,6.334544 3.532185,5.6870755 3.5452774,5.6363124 3.6368444,5.3571013 4.3437147,3.4281306 4.3437147,3.4281306 c 0.2485604,-0.6853308 0.5751948,-1.01493 1.0854099,-1.01493 0.5233005,0 0.9421411,0.4565219 1.5046949,0.4565219 0.5887099,0 0.7326008,-0.6088521 1.2166581,-0.6088521 0.5233042,0 2.3024314,0.6597513 3.1135384,1.065869 1.059694,0.50766 1.177445,0.7740283 1.321357,1.3578288 l 0.627606,2.6397312 0.183327,0.7617054 c 1.612049,0.6841598 2.530331,1.7914772 2.596877,2.8129552 0.0022,-0.04748 0.0063,-0.09552 0.0063,-0.142151 0,-1.0533819 -0.929075,-2.2209662 -2.603642,-2.9316716 L 13.213092,7.063429 12.585487,4.4237009 C 12.441578,3.8399043 12.323831,3.573528 11.264138,3.065889 10.453014,2.6597533 8.6738976,2 8.1505951,2 Z"
     id="path3-6" />
  <path
     style="opacity:0.1;stroke-width:0.263752"
     d="m 13.412417,8.2458369 c 0.14465,0.6782829 0.14465,0.7422699 0.14465,0.8318602 0,1.1518229 -1.344653,1.7917089 -3.093482,1.7917089 -3.9447037,0 -7.4526506,-2.2524427 -7.4526506,-3.7369973 0,-0.2047743 0.039414,-0.4095366 0.1314926,-0.6015112 L 3.4579947,5.7886167 c -0.013168,0.051199 -0.026242,0.1023911 -0.013168,0.1535752 0,0.7550856 3.1003341,3.2378844 7.2159803,3.2378844 1.051907,0 2.606945,-0.2175641 2.606945,-1.4333735 0,-0.089577 0,-0.1919696 -0.02626,-0.281545 z"
     id="path4-2" />
  <path
     style="fill:#3f3f3f;stroke-width:0.263752"
     d="m 13.412417,7.9849666 c 0.14465,0.6782809 0.14465,0.7422728 0.14465,0.8318672 0,1.1518156 -1.344653,1.7917032 -3.093482,1.7917032 -3.9447037,0 -7.4526506,-2.252422 -7.4526506,-3.7369906 0,-0.2047614 0.039414,-0.4095417 0.1314926,-0.6015113 L 3.4579947,5.5277653 c -0.013168,0.051189 -0.026242,0.1023782 -0.013168,0.1535622 0,0.7550887 3.1003341,3.2378814 7.2159803,3.2378814 1.051907,0 2.606945,-0.2175641 2.606945,-1.4333695 0,-0.089584 0,-0.1919715 -0.02626,-0.2815489 z"
     id="path5-9" />
</svg>
