<?xml version="1.0" encoding="UTF-8" standalone="no"?>
<svg
   width="16"
   height="16"
   version="1.1"
   id="svg22"
   sodipodi:docname="rosegarden.svg"
   inkscape:version="1.3 (0e150ed6c4, 2023-07-21)"
   xmlns:inkscape="http://www.inkscape.org/namespaces/inkscape"
   xmlns:sodipodi="http://sodipodi.sourceforge.net/DTD/sodipodi-0.dtd"
   xmlns:xlink="http://www.w3.org/1999/xlink"
   xmlns="http://www.w3.org/2000/svg"
   xmlns:svg="http://www.w3.org/2000/svg">
  <sodipodi:namedview
     id="namedview22"
     pagecolor="#ffffff"
     bordercolor="#000000"
     borderopacity="0.25"
     inkscape:showpageshadow="2"
     inkscape:pageopacity="0.0"
     inkscape:pagecheckerboard="0"
     inkscape:deskcolor="#d1d1d1"
     inkscape:zoom="23.96875"
     inkscape:cx="6.8005215"
     inkscape:cy="11.869622"
     inkscape:window-width="1920"
     inkscape:window-height="994"
     inkscape:window-x="0"
     inkscape:window-y="0"
     inkscape:window-maximized="1"
     inkscape:current-layer="svg22" />
  <defs
     id="defs22">
    <linearGradient
       id="linearGradient22"
       inkscape:collect="always">
      <stop
         style="stop-color:#ff0707;stop-opacity:1;"
         offset="0"
         id="stop23" />
      <stop
         style="stop-color:#d220ff;stop-opacity:1;"
         offset="0.52583843"
         id="stop25" />
      <stop
         style="stop-color:#ffdd55;stop-opacity:1"
         offset="1"
         id="stop24" />
    </linearGradient>
    <style
       id="current-color-scheme"
       type="text/css">&#10;   .ColorScheme-Text { color:#d5c289; } .ColorScheme-Highlight { color:#5294e2; }&#10;  </style>
    <linearGradient
       id="arrongin"
       x1="0%"
       x2="0%"
       y1="0%"
       y2="100%">
      <stop
         offset="0%"
         style="stop-color:#dd9b44; stop-opacity:1"
         id="stop1" />
      <stop
         offset="100%"
         style="stop-color:#ad6c16; stop-opacity:1"
         id="stop2" />
    </linearGradient>
    <linearGradient
       id="aurora"
       x1="0%"
       x2="0%"
       y1="0%"
       y2="100%">
      <stop
         offset="0%"
         style="stop-color:#09D4DF; stop-opacity:1"
         id="stop3" />
      <stop
         offset="100%"
         style="stop-color:#9269F4; stop-opacity:1"
         id="stop4" />
    </linearGradient>
    <linearGradient
       id="fitdance"
       x1="0%"
       x2="0%"
       y1="0%"
       y2="100%">
      <stop
         offset="0%"
         style="stop-color:#1AD6AB; stop-opacity:1"
         id="stop5" />
      <stop
         offset="100%"
         style="stop-color:#329DB6; stop-opacity:1"
         id="stop6" />
    </linearGradient>
    <linearGradient
       id="oomox"
       x1="0%"
       x2="0%"
       y1="0%"
       y2="100%">
      <stop
         offset="0%"
         style="stop-color:#303b3d; stop-opacity:1"
         id="stop7" />
      <stop
         offset="100%"
         style="stop-color:#bc985d; stop-opacity:1"
         id="stop8" />
    </linearGradient>
    <linearGradient
       id="rainblue"
       x1="0%"
       x2="0%"
       y1="0%"
       y2="100%">
      <stop
         offset="0%"
         style="stop-color:#00F260; stop-opacity:1"
         id="stop9" />
      <stop
         offset="100%"
         style="stop-color:#0575E6; stop-opacity:1"
         id="stop10" />
    </linearGradient>
    <linearGradient
       id="sunrise"
       x1="0%"
       x2="0%"
       y1="0%"
       y2="100%">
      <stop
         offset="0%"
         style="stop-color: #FF8501; stop-opacity:1"
         id="stop11" />
      <stop
         offset="100%"
         style="stop-color: #FFCB01; stop-opacity:1"
         id="stop12" />
    </linearGradient>
    <linearGradient
       id="telinkrin"
       x1="0%"
       x2="0%"
       y1="0%"
       y2="100%">
      <stop
         offset="0%"
         style="stop-color: #b2ced6; stop-opacity:1"
         id="stop13" />
      <stop
         offset="100%"
         style="stop-color: #6da5b7; stop-opacity:1"
         id="stop14" />
    </linearGradient>
    <linearGradient
       id="60spsycho"
       x1="0%"
       x2="0%"
       y1="0%"
       y2="100%">
      <stop
         offset="0%"
         style="stop-color: #df5940; stop-opacity:1"
         id="stop15" />
      <stop
         offset="25%"
         style="stop-color: #d8d15f; stop-opacity:1"
         id="stop16" />
      <stop
         offset="50%"
         style="stop-color: #e9882a; stop-opacity:1"
         id="stop17" />
      <stop
         offset="100%"
         style="stop-color: #279362; stop-opacity:1"
         id="stop18" />
    </linearGradient>
    <linearGradient
       id="90ssummer"
       x1="0%"
       x2="0%"
       y1="0%"
       y2="100%">
      <stop
         offset="0%"
         style="stop-color: #f618c7; stop-opacity:1"
         id="stop19" />
      <stop
         offset="20%"
         style="stop-color: #94ffab; stop-opacity:1"
         id="stop20" />
      <stop
         offset="50%"
         style="stop-color: #fbfd54; stop-opacity:1"
         id="stop21" />
      <stop
         offset="100%"
         style="stop-color: #0f83ae; stop-opacity:1"
         id="stop22" />
    </linearGradient>
    <linearGradient
       inkscape:collect="always"
       xlink:href="#linearGradient22"
       id="linearGradient24"
       x1="19.315428"
       y1="276.03259"
       x2="51.524117"
       y2="244.28937"
       gradientUnits="userSpaceOnUse" />
  </defs>
  <g
     transform="matrix(0.35433441,0,0,0.35433441,-3.9246292,-85.060129)"
     style="fill:url(#oomox)"
     class="ColorScheme-Text"
     id="g22">
    <path
       d="m 34.105828,280.90586 c -1.898523,-0.31859 -3.534807,-1.54392 -4.529603,-3.39219 -0.457291,-0.84953 -0.884167,-2.23047 -0.775903,-2.50994 0.05774,-0.14906 0.563188,-0.19811 2.62412,-0.25631 3.662817,-0.10315 5.254785,-0.40638 7.443099,-1.42144 3.325092,-1.54217 5.847422,-3.65808 7.371212,-6.18378 0.75693,-1.25459 1.14479,-2.48533 1.391943,-4.41724 0.168271,-1.31538 0.320568,-1.92322 0.765386,-3.05604 0.737854,-1.87888 0.994805,-2.78633 0.908193,-3.20806 -0.03917,-0.19195 -0.129914,-0.93635 -0.201361,-1.65397 -0.106398,-1.07113 -0.199428,-1.42787 -0.517306,-1.98571 -0.436876,-0.76684 -0.473688,-1.00373 -0.191675,-1.23532 0.161067,-0.13275 0.345416,-0.10209 1.036727,0.193 1.338841,0.56362 2.27892,1.24145 3.210239,2.3149 1.269095,1.46285 1.474892,1.96727 1.473594,3.61201 -0.0019,2.50771 -0.241383,6.2914 -0.439557,6.94579 -0.254262,0.83936 -0.780338,1.44699 -1.881884,2.17228 l -0.903967,0.5953 0.22076,0.33695 c 0.121457,0.18484 0.438837,0.5953 0.705375,0.91084 0.814053,0.9639 0.94985,1.67297 0.505551,2.64218 -0.28912,0.63104 -1.260007,1.69676 -2.012523,2.20963 -0.858495,0.58508 -2.687326,1.4472 -5.129527,2.41774 -3.218302,1.27904 -3.387247,1.37993 -5.53903,3.30806 -1.403142,1.25727 -2.277432,1.65803 -3.754999,1.72126 -0.624537,0.0308 -1.425009,-1.1e-4 -1.778925,-0.0611 z m -9.652212,-8.03795 c -0.637013,-0.13275 -1.418865,-0.33697 -1.737394,-0.45335 -1.028109,-0.37681 -3.231364,-1.68472 -5.301935,-3.14855 -2.473167,-1.74852 -3.371525,-2.50865 -3.852138,-3.25912 -0.331296,-0.51772 -0.369445,-0.68722 -0.369445,-1.64787 0,-0.94551 0.05361,-1.19325 0.454817,-2.10979 0.301084,-0.68718 0.544836,-1.55593 0.720844,-2.56812 0.279426,-1.6069 0.738782,-2.92943 1.460583,-4.2058 0.956448,-1.69123 2.033702,-2.48146 3.386083,-2.4839 0.880457,-0.002 1.256342,0.33288 1.376003,1.2253 0.04535,0.34206 0.254061,1.28097 0.462756,2.08702 0.980269,3.78652 0.978927,3.72434 0.124969,5.45357 -0.711356,1.44057 -0.856224,1.97591 -0.667637,2.46705 0.07116,0.18381 0.573603,0.84037 1.117579,1.45821 0.54401,0.61777 1.504437,1.88597 2.134418,2.81811 1.362961,2.01667 2.487232,3.23065 3.635176,3.9251 0.463479,0.2808 0.844676,0.55241 0.847255,0.6055 0.009,0.18993 -2.643122,0.0715 -3.791964,-0.16335 z m 7.721765,-0.051 c -1.005115,-0.2277 -2.25984,-0.73723 -3.043374,-1.23549 -0.915926,-0.58206 -1.634221,-1.44199 -2.422003,-2.89961 -1.097357,-2.03056 -1.443395,-2.41971 -2.69781,-3.0343 -1.50152,-0.73517 -1.719599,-1.19128 -1.061148,-2.2176 1.008005,-1.57103 2.739861,-2.32511 4.647158,-2.02337 0.459355,0.0716 2.198398,0.58302 3.864482,1.13484 3.544736,1.17342 4.235511,1.3565 5.555402,1.47309 0.74796,0.0611 1.161813,0.0308 1.737393,-0.12967 1.249271,-0.35737 2.485313,-1.07744 3.393846,-1.97734 1.269575,-1.25745 1.762232,-2.21283 2.513957,-4.87502 0.113844,-0.4033 0.257969,-0.73314 0.320466,-0.73314 0.435846,0 0.655676,3.75181 0.328611,5.60767 -0.572362,3.24807 -2.302415,6.12439 -5.115731,8.50561 -2.331915,1.97373 -5.600844,2.95339 -8.021238,2.40384 z m 5.352111,-11.00214 c -0.520601,-0.41764 -0.289428,-0.80463 1.654834,-2.77219 2.284361,-2.31166 2.485786,-2.67383 2.555767,-4.59602 l 0.05158,-1.4073 -0.511015,-0.45744 c -0.794262,-0.71067 -1.783458,-1.03019 -3.392448,-1.09615 -1.016562,-0.0409 -1.551383,-0.003 -2.082761,0.15012 -1.676672,0.48296 -3.111253,2.27611 -2.864148,3.58053 0.11744,0.61984 0.882002,1.40535 1.806848,1.85626 0.720739,0.35125 0.902213,0.39005 1.469771,0.31246 1.14444,-0.15624 2.443852,-1.23012 2.721054,-2.24955 0.430483,-1.58322 -1.411319,-2.88021 -3.154105,-2.22111 -0.625259,0.23691 -1.35498,0.95984 -1.35498,1.34326 0,0.13376 -0.06391,0.28181 -0.142497,0.3298 -0.180339,0.11029 -0.0402,-0.59938 0.233338,-1.18383 0.795289,-1.69709 4.749361,-1.66684 5.318415,0.041 0.414502,1.24383 -0.236226,2.79556 -2.030186,4.84142 -0.619794,0.70663 -1.40012,1.60403 -1.73399,1.99377 -0.806219,0.94146 -1.455851,1.24534 -2.660495,1.24534 -1.594124,0 -3.645622,-0.82606 -4.362741,-1.75751 -0.284893,-0.36961 -0.348924,-0.58611 -0.348924,-1.17762 0,-0.64532 0.102078,-0.92509 0.935413,-2.56744 0.773325,-1.52337 1.123014,-2.05361 2.017595,-3.05908 2.178458,-2.44869 3.305677,-2.93351 6.026709,-2.59255 2.358136,0.2951 3.835197,0.87099 4.871494,1.89689 0.628867,0.62286 0.925618,1.17536 1.205459,2.24487 0.234072,0.89448 0.183738,1.64628 -0.183739,2.7494 -0.494723,1.48496 -2.430512,3.79325 -3.685774,4.39498 -0.862102,0.41354 -1.950799,0.48604 -2.36031,0.15724 z m 9.175257,-3.32173 c -0.405121,-0.25833 -0.661967,-1.19733 -1.138554,-4.16423 -0.235606,-1.46688 -0.609069,-2.3621 -1.302216,-3.12188 -1.043423,-1.14375 -3.069029,-2.2937 -4.815269,-2.73366 -3.350147,-0.84446 -6.377107,0.13579 -8.680872,2.80922 -1.025224,1.18986 -1.729342,2.5175 -2.329019,4.39139 -0.548443,1.71371 -0.807043,2.0279 -1.669321,2.0279 -0.805495,0 -0.875919,-0.18787 -0.8057,-2.15337 0.04744,-1.31478 0.120638,-1.78896 0.406048,-2.61256 0.80075,-2.31076 2.140036,-3.90395 4.263185,-5.07169 1.293691,-0.71168 3.748141,-2.04298 4.826105,-2.61807 0.911285,-0.48604 2.271637,-0.36557 5.276543,0.46562 1.309474,0.36248 2.670435,0.79134 3.024349,0.95267 0.902522,0.41048 1.878573,1.32966 2.356942,2.21841 0.735483,1.36654 1.187292,4.00476 1.176598,6.87053 -0.0075,2.06907 -0.204474,2.98448 -0.588863,2.73982 z M 22.903864,257.7895 c -0.174669,-0.37779 -0.547618,-1.82807 -0.843956,-3.28171 -0.452448,-2.21921 -0.533594,-2.85967 -0.548648,-4.32543 -0.01648,-1.64927 -0.0022,-1.75394 0.356965,-2.52406 0.432651,-0.92818 0.719915,-1.18682 1.727393,-1.55695 0.401098,-0.14705 1.255097,-0.58202 1.89772,-0.96494 0.806114,-0.48094 1.380497,-0.73007 1.852484,-0.80463 0.626394,-0.10208 2.062912,-0.0101 2.839608,0.17154 0.174256,0.0409 0.862516,0.12866 1.529401,0.19503 0.81364,0.0818 1.279315,0.18792 1.415659,0.32474 0.185392,0.18685 0.172813,0.23075 -0.144457,0.50338 -0.431619,0.37167 -1.504272,0.77707 -2.93416,1.11097 -3.275672,0.76376 -4.272807,1.48393 -5.535916,3.99859 -0.745072,1.48345 -0.913555,2.3865 -0.99099,5.31275 -0.03815,1.43637 -0.118474,2.5171 -0.187456,2.5171 -0.06601,0 -0.261591,-0.30429 -0.433679,-0.67701 z m 13.103684,-2.2509 c -0.512663,-0.30938 -0.637941,-0.74029 -0.366556,-1.26043 0.281697,-0.53914 0.683001,-0.74336 0.947891,-0.48094 0.164457,0.16235 0.173431,0.25833 0.04948,0.5279 -0.356349,0.77502 0.04433,1.13341 0.956035,0.85671 0.558546,-0.16953 0.56855,0.0202 0.01856,0.3543 -0.530604,0.32064 -1.076901,0.32166 -1.605247,0.002 z"
       id="path22"
       style="fill:url(#linearGradient24);fill-opacity:1;stroke-width:0.961964" />
  </g>
</svg>
