<?xml version="1.0" encoding="UTF-8" standalone="no"?>
<svg
   height="16"
   width="16"
   version="1.1"
   id="svg60"
   sodipodi:docname="passwordsafe.svg"
   inkscape:version="1.3.2 (091e20ef0f, 2023-11-25)"
   xmlns:inkscape="http://www.inkscape.org/namespaces/inkscape"
   xmlns:sodipodi="http://sodipodi.sourceforge.net/DTD/sodipodi-0.dtd"
   xmlns:xlink="http://www.w3.org/1999/xlink"
   xmlns="http://www.w3.org/2000/svg"
   xmlns:svg="http://www.w3.org/2000/svg"
   xmlns:rdf="http://www.w3.org/1999/02/22-rdf-syntax-ns#"
   xmlns:cc="http://creativecommons.org/ns#"
   xmlns:dc="http://purl.org/dc/elements/1.1/">
  <metadata
     id="metadata66">
    <rdf:RDF>
      <cc:Work
         rdf:about="">
        <dc:format>image/svg+xml</dc:format>
        <dc:type
           rdf:resource="http://purl.org/dc/dcmitype/StillImage" />
      </cc:Work>
    </rdf:RDF>
  </metadata>
  <defs
     id="defs64">
    <linearGradient
       id="c-6"
       x1="44.968544"
       x2="3.1977069"
       y1="4.6742558"
       y2="46.445091"
       gradientTransform="matrix(1.0054862,0,0,1.0054862,-0.21525017,-1.6998999)"
       gradientUnits="userSpaceOnUse">
      <stop
         stop-color="#76dd38"
         offset="0"
         id="stop973"
         style="stop-color:#adc596;stop-opacity:1;" />
      <stop
         stop-color="#42c440"
         offset="0.99989998"
         id="stop975"
         style="stop-color:#88c0d0;stop-opacity:1;" />
      <stop
         stop-color="#14ab4b"
         offset="1"
         id="stop977"
         style="stop-color:#88c0d0;stop-opacity:1;" />
    </linearGradient>
    <filter
       id="h-7"
       x="-0.036000054"
       y="-0.036000054"
       width="1.0720001"
       height="1.0720001"
       color-interpolation-filters="sRGB">
      <feGaussianBlur
         stdDeviation="7.5294119"
         id="feGaussianBlur970" />
    </filter>
    <linearGradient
       id="c-3"
       x1="520.03003"
       x2="520.03003"
       y1="766.34491"
       y2="260.66919"
       gradientTransform="matrix(0.05567956,0,0,-0.05567956,-7.5083345,0.3809898)"
       gradientUnits="userSpaceOnUse">
      <stop
         stop-color="#fff"
         offset="0"
         id="stop965" />
      <stop
         stop-color="#e1e1e1"
         offset="1"
         id="stop967" />
    </linearGradient>
    <linearGradient
       id="linearGradient7587"
       gradientUnits="userSpaceOnUse"
       x1="42"
       x2="62"
       y1="24"
       y2="44"
       gradientTransform="translate(126.86138,-58)">
      <stop
         offset="0"
         stop-color="#292c2f"
         id="stop28-6" />
      <stop
         offset="1"
         stop-opacity="0"
         id="stop30-1" />
    </linearGradient>
    <linearGradient
       id="linearGradient7589"
       gradientUnits="userSpaceOnUse"
       x1="44"
       x2="44"
       xlink:href="#d-2"
       y1="44"
       y2="13"
       gradientTransform="translate(126.86138,-58)" />
    <linearGradient
       id="d-2"
       gradientUnits="userSpaceOnUse"
       x2="0"
       y1="30"
       y2="8">
      <stop
         offset="0"
         stop-color="#cfd2d5"
         id="stop17-9" />
      <stop
         offset="1"
         stop-color="#eff0f1"
         id="stop19-3" />
    </linearGradient>
    <linearGradient
       id="linearGradient7697"
       gradientTransform="translate(-283.5673,-582.40584)"
       gradientUnits="userSpaceOnUse"
       x1="411.57001"
       x2="411.57001"
       xlink:href="#b"
       y1="512.80103"
       y2="503.80099">
      <stop
         offset="0"
         stop-color="#ebc69a"
         id="stop11-4" />
      <stop
         offset="1"
         stop-color="#f4e0c8"
         stop-opacity="0"
         id="stop13-7" />
    </linearGradient>
    <linearGradient
       id="linearGradient7701"
       gradientTransform="matrix(0.66667,0,0,-0.37037,-256.38,197.926)"
       gradientUnits="userSpaceOnUse"
       x1="408.57001"
       x2="408.57001"
       y1="512.79797"
       y2="504.698">
      <stop
         offset="0"
         stop-color="#ebc69a"
         id="stop33-8" />
      <stop
         offset="1"
         stop-color="#73ba25"
         stop-opacity="0"
         id="stop35-4" />
    </linearGradient>
    <linearGradient
       id="linearGradient7703"
       gradientTransform="matrix(1,0,0,-0.55556,-283.5673,215.28516)"
       gradientUnits="userSpaceOnUse"
       x1="408.57001"
       x2="408.57001"
       xlink:href="#b"
       y1="512.79797"
       y2="505.59799" />
    <filter
       id="h-5"
       x="-0.036000054"
       y="-0.036000054"
       width="1.0720001"
       height="1.0720001"
       color-interpolation-filters="sRGB">
      <feGaussianBlur
         stdDeviation="7.5294119"
         id="feGaussianBlur970-3" />
    </filter>
    <linearGradient
       id="c-36"
       x1="520.03003"
       x2="520.03003"
       y1="766.34491"
       y2="260.66919"
       gradientTransform="matrix(-0.07689074,0,0,0.07689074,71.261954,-8.176262)"
       gradientUnits="userSpaceOnUse">
      <stop
         stop-color="#fff"
         offset="0"
         id="stop965-7" />
      <stop
         stop-color="#e1e1e1"
         offset="1"
         id="stop967-5" />
    </linearGradient>
    <linearGradient
       inkscape:collect="always"
       xlink:href="#linearGradient33"
       id="linearGradient23"
       x1="269.39932"
       y1="343.16342"
       x2="254.43269"
       y2="358.13007"
       gradientTransform="scale(1.069045,0.93541435)"
       gradientUnits="userSpaceOnUse" />
    <linearGradient
       id="linearGradient33"
       x1="0"
       x2="0"
       y1="0"
       y2="1">
      <stop
         offset="0"
         style="stop-color:#00d4aa;stop-opacity:1"
         id="stop29" />
      <stop
         offset="100%"
         style="stop-color:#2a7fff;stop-opacity:1"
         id="stop30-3" />
    </linearGradient>
    <linearGradient
       id="oomox"
       x1="0"
       x2="0"
       y1="0"
       y2="1">
      <stop
         offset="0%"
         style="stop-color:#303b3d; stop-opacity:1"
         id="stop7" />
      <stop
         offset="100%"
         style="stop-color:#bc985d; stop-opacity:1"
         id="stop8" />
    </linearGradient>
    <linearGradient
       inkscape:collect="always"
       xlink:href="#linearGradient33"
       id="linearGradient3"
       x1="3.0001538"
       y1="8"
       x2="12.999846"
       y2="8"
       gradientUnits="userSpaceOnUse" />
  </defs>
  <sodipodi:namedview
     pagecolor="#ffffff"
     bordercolor="#666666"
     borderopacity="1"
     objecttolerance="10"
     gridtolerance="10"
     guidetolerance="10"
     inkscape:pageopacity="0"
     inkscape:pageshadow="2"
     inkscape:window-width="1920"
     inkscape:window-height="996"
     id="namedview62"
     showgrid="false"
     inkscape:window-x="0"
     inkscape:window-y="0"
     inkscape:window-maximized="1"
     inkscape:current-layer="svg60"
     inkscape:showpageshadow="2"
     inkscape:pagecheckerboard="0"
     inkscape:deskcolor="#d1d1d1"
     inkscape:zoom="22.627417"
     inkscape:cx="-0.35355339"
     inkscape:cy="12.197592">
    <inkscape:grid
       type="xygrid"
       id="grid873"
       originx="-42.677967"
       originy="29.830511"
       spacingy="1"
       spacingx="1"
       units="px"
       visible="false" />
  </sodipodi:namedview>
  <linearGradient
     id="a">
    <stop
       offset="0"
       stop-color="#cea476"
       id="stop2" />
    <stop
       offset="1"
       stop-color="#dab58b"
       id="stop4" />
  </linearGradient>
  <linearGradient
     id="c"
     gradientUnits="userSpaceOnUse"
     x2="0"
     xlink:href="#a"
     y1="543.79999"
     y2="512.79999" />
  <linearGradient
     id="h"
     gradientUnits="userSpaceOnUse"
     x1="21"
     x2="21"
     xlink:href="#a"
     y1="13"
     y2="4" />
  <linearGradient
     id="j"
     gradientTransform="matrix(1,0,0,-0.55556,-283.5673,215.28516)"
     gradientUnits="userSpaceOnUse"
     x1="408.57001"
     x2="408.57001"
     xlink:href="#b"
     y1="512.79797"
     y2="505.59799" />
  <linearGradient
     id="e"
     gradientTransform="translate(-384.57,-499.8)"
     gradientUnits="userSpaceOnUse"
     x2="0"
     xlink:href="#c"
     y1="543.79999"
     y2="512.79999" />
  <linearGradient
     id="i"
     gradientTransform="translate(-283.5673,-582.40584)"
     gradientUnits="userSpaceOnUse"
     x1="411.57001"
     x2="411.57001"
     xlink:href="#b"
     y1="512.80103"
     y2="503.80099">
    <stop
       offset="0"
       stop-color="#ebc69a"
       id="stop11" />
    <stop
       offset="1"
       stop-color="#f4e0c8"
       stop-opacity="0"
       id="stop13" />
  </linearGradient>
  <linearGradient
     id="f"
     gradientTransform="matrix(1.41667,0,0,1.4091,1.167,1.727)"
     gradientUnits="userSpaceOnUse"
     x2="0"
     xlink:href="#d"
     y1="30"
     y2="8" />
  <linearGradient
     id="d"
     gradientUnits="userSpaceOnUse"
     x2="0"
     y1="30"
     y2="8">
    <stop
       offset="0"
       stop-color="#cfd2d5"
       id="stop17" />
    <stop
       offset="1"
       stop-color="#eff0f1"
       id="stop19" />
  </linearGradient>
  <linearGradient
     id="g"
     gradientTransform="matrix(0.50313,0,0,1,-171.625,-499.8)"
     gradientUnits="userSpaceOnUse"
     x1="411.427"
     x2="411.427"
     y1="543.79999"
     y2="512.79999">
    <stop
       offset="0"
       stop-color="#73ba25"
       id="stop22" />
    <stop
       offset="1"
       stop-color="#81c13b"
       stop-opacity=".85"
       id="stop24" />
  </linearGradient>
  <linearGradient
     id="l"
     gradientUnits="userSpaceOnUse"
     x1="44"
     x2="44"
     xlink:href="#d"
     y1="44"
     y2="13"
     gradientTransform="translate(126.86138,-58)" />
  <linearGradient
     id="k"
     gradientUnits="userSpaceOnUse"
     x1="42"
     x2="62"
     y1="24"
     y2="44"
     gradientTransform="translate(126.86138,-58)">
    <stop
       offset="0"
       stop-color="#292c2f"
       id="stop28" />
    <stop
       offset="1"
       stop-opacity="0"
       id="stop30" />
  </linearGradient>
  <linearGradient
     id="b"
     gradientTransform="matrix(0.66667,0,0,-0.37037,-256.38,197.926)"
     gradientUnits="userSpaceOnUse"
     x1="408.57001"
     x2="408.57001"
     y1="512.79797"
     y2="504.698">
    <stop
       offset="0"
       stop-color="#ebc69a"
       id="stop33" />
    <stop
       offset="1"
       stop-color="#73ba25"
       stop-opacity="0"
       id="stop35" />
  </linearGradient>
  <g
     transform="matrix(0.8125,0,0,0.85714286,-219.5,-273.14286)"
     id="g23">
    <path
       style="color:#d5c289;fill:url(#linearGradient23)"
       class="ColorScheme-Text"
       d="m 275.99414,321 c -1.2582,0.0145 -2.17889,-0.0306 -2.93164,0.38477 -0.37637,0.20766 -0.67323,0.55938 -0.83789,0.99804 C 272.05994,322.82148 272,323.34239 272,324 v 8 c 0,0.65761 0.0599,1.17853 0.22461,1.61719 0.16467,0.43866 0.46152,0.79039 0.83789,0.99804 0.75275,0.41532 1.67345,0.3702 2.93164,0.38477 h 0.004 8.0039 0.004 c 1.25819,-0.0145 2.17889,0.0306 2.93164,-0.38477 0.37637,-0.20766 0.67322,-0.55938 0.83789,-0.99804 C 287.94006,333.17852 288,332.65761 288,332 v -8 c 0,-0.65761 -0.0599,-1.17852 -0.22461,-1.61719 -0.16466,-0.43866 -0.46152,-0.79038 -0.83789,-0.99804 -0.75275,-0.41534 -1.67344,-0.37025 -2.93164,-0.38477 h -0.004 -8.0039 z m 0.006,1 h 8 c 1.25852,0.0147 2.08717,0.0598 2.45312,0.26172 0.18341,0.1012 0.28916,0.21274 0.38672,0.47266 C 286.93741,322.99429 287,323.40761 287,324 v 8 c 0,0.59239 -0.0626,1.00572 -0.16016,1.26562 -0.0976,0.25991 -0.20331,0.37147 -0.38672,0.47266 C 286.08717,333.94019 285.25852,333.98529 284,334 H 276.00586 276 c -1.25853,-0.0147 -2.08912,-0.0598 -2.45508,-0.26172 -0.18341,-0.10119 -0.2872,-0.21275 -0.38476,-0.47266 C 273.06259,333.00572 273,332.59239 273,332 v -8 c 0,-0.59239 0.0626,-1.00572 0.16016,-1.26562 0.0976,-0.25991 0.20135,-0.37147 0.38476,-0.47266 C 273.91088,322.05981 274.74147,322.01471 276,322 Z"
       id="path22" />
  </g>
  <path
     style="opacity:0.2;stroke-width:0.545453"
     d="m 3.0078358,7.972359 a 2.857107,2.9090701 0 0 0 -0.0076,0.209459 2.857107,2.9090701 0 0 0 2.857105,2.909068 2.857107,2.9090701 0 0 0 2.646464,-1.818165 H 10.143071 V 8.909079 H 8.5038828 a 2.857107,2.9090701 0 0 1 -2.646393,1.818176 2.857107,2.9090701 0 0 1 -2.849434,-2.754896 z m 8.9205972,0.93672 v 0.363642 h 1.071413 V 8.909079 Z M 10.14274,9.999986 v 0.363631 h 1.785693 V 9.999986 Z"
     id="path1-7" />
  <path
     style="fill:url(#linearGradient3);stroke-width:0.545453"
     d="m 5.8571858,5.09093 a 2.8570347,2.9090701 0 0 0 -2.857032,2.909073 2.8570347,2.9090701 0 0 0 2.857032,2.909067 2.8570347,2.9090701 0 0 0 2.646403,-1.818171 h 1.6392242 v 1.0909 h 1.785645 v -1.0909 h 1.071388 V 6.909098 H 8.5042998 A 2.8570347,2.9090701 0 0 0 5.8572268,5.09093 Z"
     id="path2-5" />
  <ellipse
     style="opacity:0.2;stroke-width:0.545453"
     cx="5.8572111"
     cy="8.1817894"
     id="circle2-3"
     rx="1.0713966"
     ry="1.0909101" />
  <ellipse
     style="fill:#f9f9f9;stroke-width:0.545453"
     cx="5.8572111"
     cy="7.999979"
     id="circle3-5"
     rx="1.0713966"
     ry="1.0909101" />
  <path
     style="opacity:0.2;fill:#ffffff;stroke-width:0.545453"
     d="m 5.8572058,5.090886 a 2.8570347,2.9090701 0 0 0 -2.849378,2.699571 2.8570347,2.9090701 0 0 1 -0.0037,-0.07814 2.8570347,2.9090701 0 0 0 -0.0037,0.105826 2.8570347,2.9090701 0 0 0 0.0076,0.154122 2.8570347,2.9090701 0 0 1 2.849381,-2.699572 2.8570347,2.9090701 0 0 1 2.647019,1.818183 H 13.000154 V 6.909066 H 8.5041278 A 2.8570347,2.9090701 0 0 0 5.8571018,5.090889 Z"
     id="path3-6" />
</svg>
