<?xml version="1.0" encoding="UTF-8" standalone="no"?>
<!-- Created with Inkscape (http://www.inkscape.org/) -->

<svg
   width="16"
   version="1.1"
   height="16"
   id="svg1"
   sodipodi:docname="scanner.svg"
   inkscape:version="1.3.1 (91b66b0783, 2023-11-16)"
   xmlns:inkscape="http://www.inkscape.org/namespaces/inkscape"
   xmlns:sodipodi="http://sodipodi.sourceforge.net/DTD/sodipodi-0.dtd"
   xmlns:xlink="http://www.w3.org/1999/xlink"
   xmlns="http://www.w3.org/2000/svg"
   xmlns:svg="http://www.w3.org/2000/svg">
  <sodipodi:namedview
     id="namedview1"
     pagecolor="#ffffff"
     bordercolor="#000000"
     borderopacity="0.25"
     inkscape:showpageshadow="2"
     inkscape:pageopacity="0.0"
     inkscape:pagecheckerboard="0"
     inkscape:deskcolor="#d1d1d1"
     inkscape:zoom="23.96875"
     inkscape:cx="6.7588005"
     inkscape:cy="10.242503"
     inkscape:window-width="1920"
     inkscape:window-height="994"
     inkscape:window-x="0"
     inkscape:window-y="0"
     inkscape:window-maximized="1"
     inkscape:current-layer="layer1" />
  <defs
     id="defs5455">
    <linearGradient
       id="linearGradient18235"
       x1="-42.855999"
       x2="-42.855999"
       y1="36.222"
       y2="6.4275999"
       gradientUnits="userSpaceOnUse"
       gradientTransform="translate(71.723,-1.37305)">
      <stop
         stop-color="#1f94d2"
         offset="0"
         id="stop31176" />
      <stop
         stop-color="#43b4e6"
         offset="1"
         id="stop31178" />
    </linearGradient>
    <linearGradient
       inkscape:collect="always"
       xlink:href="#linearGradient12534"
       id="linearGradient32989"
       gradientUnits="userSpaceOnUse"
       x1="31.591999"
       y1="25.597"
       x2="31.591999"
       y2="45.622002"
       gradientTransform="matrix(0.24821716,0,0,0.24025428,376.62845,492.10984)" />
    <linearGradient
       id="linearGradient12534"
       x1="31.591999"
       x2="31.591999"
       y1="25.597"
       y2="45.622002"
       gradientUnits="userSpaceOnUse">
      <stop
         stop-color="#64bae7"
         offset="0"
         id="stop31181" />
      <stop
         stop-color="#1f94d2"
         offset="1"
         id="stop31183" />
    </linearGradient>
    <linearGradient
       inkscape:collect="always"
       xlink:href="#linearGradient18235"
       id="linearGradient3"
       gradientUnits="userSpaceOnUse"
       gradientTransform="matrix(0.24821716,0,0,0.24025428,394.43134,491.77997)"
       x1="-42.855999"
       y1="36.222"
       x2="-42.855999"
       y2="6.4275999" />
    <linearGradient
       inkscape:collect="always"
       xlink:href="#linearGradient18235"
       id="linearGradient4"
       gradientUnits="userSpaceOnUse"
       gradientTransform="matrix(1.0331436,0,0,1,446.16563,486.97959)"
       x1="-42.855999"
       y1="36.222"
       x2="-42.855999"
       y2="6.4275999" />
  </defs>
  <metadata
     id="metadata5458" />
  <g
     inkscape:label="Capa 1"
     inkscape:groupmode="layer"
     id="layer1"
     transform="translate(-376.57144,-491.79797)">
    <path
       id="path31188"
       style="fill:#00ccff;stroke-width:0.244203;-inkscape-stroke:none"
       d="m 388.29468,501.14988 h 1.48932 v -2.01916 a 0.74400611,0.72013818 0 0 0 0,-4.7e-4 0.74400611,0.72013818 0 0 0 -0.74419,-0.71936 0.74400611,0.72013818 0 0 0 -0.74368,0.71936 h -9.9e-4 z" />
    <path
       id="path33770"
       style="fill:url(#linearGradient3);stroke-width:0.244203;-inkscape-stroke:none"
       d="m 388.29468,501.63039 h 1.48932 v -0.48051 h -1.48932 z" />
    <path
       id="path33768"
       style="fill:#9955ff;fill-opacity:1;stroke-width:0.244203;-inkscape-stroke:none"
       d="m 380.84817,501.63039 h -1.48932 v 3.94684 c 4e-5,0.39805 0.33342,0.72071 0.74466,0.72076 h 8.93583 c 0.41123,-4e-5 0.74461,-0.32271 0.74466,-0.72076 v -3.94684 h -1.48932 v 3.22607 h -7.44651 z" />
    <path
       id="path33766"
       style="fill:url(#linearGradient4);stroke-width:0.244203;-inkscape-stroke:none"
       d="m 380.84817,501.14988 h -1.48932 v 0.48051 h 1.48932 z" />
    <path
       id="path33764"
       style="fill:#00ccff;stroke-width:0.244203;-inkscape-stroke:none"
       d="m 380.10351,493.32426 c -0.41124,4e-5 -0.74461,0.32271 -0.74466,0.72076 v 7.10486 h 1.48932 v -6.3841 h 2.94564 v -0.001 a 0.74400611,0.72013818 0 0 0 0.74369,-0.71982 0.74400611,0.72013818 0 0 0 -0.74369,-0.72029 z" />
    <path
       d="m 389.03955,497.42343 a 0.74472592,0.72083491 0 0 0 0.52649,-1.23037 l -2.77307,-2.68412 a 0.74472592,0.72083491 0 0 0 -1.27116,0.50961 v 2.68412 a 0.74472592,0.72083491 0 0 0 0.74467,0.72076 z"
       color="#000000"
       fill="#2094d2"
       stroke-linecap="round"
       stroke-linejoin="round"
       style="stroke-width:0.244203;-inkscape-stroke:none;fill:#00ccff"
       id="path31190" />
    <rect
       x="381.59286"
       y="498.26685"
       width="5.957212"
       height="0.48050857"
       ry="0.24025428"
       style="font-variation-settings:'wght' 700;fill:#00ccff;fill-rule:evenodd;stroke-width:0.239318;stroke-linecap:round;stroke-linejoin:round;paint-order:stroke fill markers"
       id="rect31194" />
    <rect
       x="381.59286"
       y="499.70837"
       width="5.957212"
       height="0.48050857"
       ry="0.24025428"
       style="font-variation-settings:'wght' 700;fill:url(#linearGradient32989);fill-rule:evenodd;stroke-width:0.239318;stroke-linecap:round;stroke-linejoin:round;paint-order:stroke fill markers"
       id="rect31196" />
    <rect
       x="381.59286"
       y="501.1499"
       width="5.957212"
       height="0.48050857"
       ry="0.24025428"
       style="font-variation-settings:'wght' 700;fill:#cf1726;fill-opacity:1;fill-rule:evenodd;stroke-width:0.239318;stroke-linecap:round;stroke-linejoin:round;paint-order:stroke fill markers"
       id="rect31198" />
    <rect
       x="381.59286"
       y="502.59143"
       width="3.9714746"
       height="0.48050857"
       ry="0.24025428"
       style="font-variation-settings:'wght' 700;fill:#d35f8d;fill-opacity:1;fill-rule:evenodd;stroke-width:0.239318;stroke-linecap:round;stroke-linejoin:round;paint-order:stroke fill markers"
       id="rect31200" />
    <rect
       x="378.07144"
       y="501.1499"
       width="13"
       height="0.48050857"
       ry="0.24025428"
       style="font-variation-settings:'wght' 700;fill:#c83771;fill-opacity:1;fill-rule:evenodd;stroke-width:0.353531;stroke-linecap:round;stroke-linejoin:round;paint-order:stroke fill markers"
       id="rect33760" />
  </g>
</svg>
