<?xml version="1.0" encoding="UTF-8" standalone="no"?>
<svg
   width="16"
   height="16"
   version="1"
   id="svg5"
   sodipodi:docname="slimjet.svg"
   inkscape:version="1.4 (unknown)"
   xmlns:inkscape="http://www.inkscape.org/namespaces/inkscape"
   xmlns:sodipodi="http://sodipodi.sourceforge.net/DTD/sodipodi-0.dtd"
   xmlns:xlink="http://www.w3.org/1999/xlink"
   xmlns="http://www.w3.org/2000/svg"
   xmlns:svg="http://www.w3.org/2000/svg">
  <defs
     id="defs5">
    <linearGradient
       id="linearGradient6"
       inkscape:collect="always">
      <stop
         style="stop-color:#ff8080;stop-opacity:1"
         offset="0"
         id="stop6" />
      <stop
         style="stop-color:#8d5fd3;stop-opacity:1"
         offset="1"
         id="stop7" />
    </linearGradient>
    <linearGradient
       inkscape:collect="always"
       xlink:href="#linearGradient6"
       id="linearGradient7"
       x1="76.7742"
       y1="235.7129"
       x2="539.3142"
       y2="235.7129"
       gradientUnits="userSpaceOnUse" />
  </defs>
  <sodipodi:namedview
     id="namedview5"
     pagecolor="#ffffff"
     bordercolor="#000000"
     borderopacity="0.25"
     inkscape:showpageshadow="2"
     inkscape:pageopacity="0.0"
     inkscape:pagecheckerboard="0"
     inkscape:deskcolor="#d1d1d1"
     inkscape:zoom="24.21875"
     inkscape:cx="10.446452"
     inkscape:cy="9.9303226"
     inkscape:window-width="1920"
     inkscape:window-height="998"
     inkscape:window-x="0"
     inkscape:window-y="0"
     inkscape:window-maximized="1"
     inkscape:current-layer="svg5" />
  <g
     id="g6"
     transform="matrix(0.45313283,0,0,0.44828471,-6.5003992,-6.5695537)">
    <g
       id="g5">
      <g
         id="g2"
         transform="matrix(-0.04252739,-0.04258139,-0.04262939,0.04268139,51.491321,36.070356)"
         style="opacity:0.2">
        <path
           d="m 76.784,5.2979 94.375,163.83 39.378,297 54.998,-202.85 117.26,93.553 0.0582,93.773 46.94,-93.744 93.968,-46.828 -93.997,-0.058 -94.37,-117.56 203.92,-54.29 -297.65,-39.223 -164.89,-93.589 z"
           id="path2" />
      </g>
      <g
         id="g4"
         transform="matrix(-0.04252739,-0.04258139,-0.04262939,0.04268139,51.491321,35.070385)"
         style="fill:#ffffff">
        <path
           d="m 76.784,5.2979 94.375,163.83 39.378,297 54.998,-202.85 117.26,93.553 0.0582,93.773 46.94,-93.744 93.968,-46.828 -93.997,-0.058 -94.37,-117.56 203.92,-54.29 -297.65,-39.223 -164.89,-93.589 z"
           id="path3"
           style="fill:url(#linearGradient7)" />
      </g>
    </g>
  </g>
</svg>
