<?xml version="1.0" encoding="UTF-8" standalone="no"?>
<svg
   style="isolation:isolate"
   width="16"
   height="16"
   viewBox="0 0 16 16"
   version="1.1"
   id="svg22"
   sodipodi:docname="smtube.svg"
   inkscape:version="1.3 (0e150ed6c4, 2023-07-21)"
   xmlns:inkscape="http://www.inkscape.org/namespaces/inkscape"
   xmlns:sodipodi="http://sodipodi.sourceforge.net/DTD/sodipodi-0.dtd"
   xmlns:xlink="http://www.w3.org/1999/xlink"
   xmlns="http://www.w3.org/2000/svg"
   xmlns:svg="http://www.w3.org/2000/svg">
  <sodipodi:namedview
     id="namedview22"
     pagecolor="#ffffff"
     bordercolor="#000000"
     borderopacity="0.25"
     inkscape:showpageshadow="2"
     inkscape:pageopacity="0.0"
     inkscape:pagecheckerboard="0"
     inkscape:deskcolor="#d1d1d1"
     inkscape:zoom="16.727495"
     inkscape:cx="10.282472"
     inkscape:cy="15.15469"
     inkscape:window-width="1920"
     inkscape:window-height="994"
     inkscape:window-x="0"
     inkscape:window-y="0"
     inkscape:window-maximized="1"
     inkscape:current-layer="svg22" />
  <defs
     id="defs22">
    <linearGradient
       id="linearGradient26"
       inkscape:collect="always">
      <stop
         style="stop-color:#de8787;stop-opacity:1"
         offset="0"
         id="stop24" />
      <stop
         style="stop-color:#e580ff;stop-opacity:1"
         offset="0.64943111"
         id="stop25" />
      <stop
         style="stop-color:#ff2a2a;stop-opacity:1"
         offset="1"
         id="stop26" />
    </linearGradient>
    <style
       id="current-color-scheme"
       type="text/css">&#10;   .ColorScheme-Text { color:#d5c289; } .ColorScheme-Highlight { color:#5294e2; }&#10;  </style>
    <linearGradient
       id="arrongin"
       x1="0%"
       x2="0%"
       y1="0%"
       y2="100%">
      <stop
         offset="0%"
         style="stop-color:#dd9b44; stop-opacity:1"
         id="stop1" />
      <stop
         offset="100%"
         style="stop-color:#ad6c16; stop-opacity:1"
         id="stop2" />
    </linearGradient>
    <linearGradient
       id="aurora"
       x1="0%"
       x2="0%"
       y1="0%"
       y2="100%">
      <stop
         offset="0%"
         style="stop-color:#09D4DF; stop-opacity:1"
         id="stop3" />
      <stop
         offset="100%"
         style="stop-color:#9269F4; stop-opacity:1"
         id="stop4" />
    </linearGradient>
    <linearGradient
       id="fitdance"
       x1="0%"
       x2="0%"
       y1="0%"
       y2="100%">
      <stop
         offset="0%"
         style="stop-color:#1AD6AB; stop-opacity:1"
         id="stop5" />
      <stop
         offset="100%"
         style="stop-color:#329DB6; stop-opacity:1"
         id="stop6" />
    </linearGradient>
    <linearGradient
       id="oomox"
       x1="0"
       x2="0"
       y1="1.069045"
       y2="16.035675"
       gradientTransform="matrix(1.069045,0,0,1.0022297,0,-0.57142857)"
       gradientUnits="userSpaceOnUse">
      <stop
         offset="0%"
         style="stop-color:#303b3d; stop-opacity:1"
         id="stop7" />
      <stop
         offset="100%"
         style="stop-color:#bc985d; stop-opacity:1"
         id="stop8" />
    </linearGradient>
    <linearGradient
       id="rainblue"
       x1="0%"
       x2="0%"
       y1="0%"
       y2="100%">
      <stop
         offset="0%"
         style="stop-color:#00F260; stop-opacity:1"
         id="stop9" />
      <stop
         offset="100%"
         style="stop-color:#0575E6; stop-opacity:1"
         id="stop10" />
    </linearGradient>
    <linearGradient
       id="sunrise"
       x1="0%"
       x2="0%"
       y1="0%"
       y2="100%">
      <stop
         offset="0%"
         style="stop-color: #FF8501; stop-opacity:1"
         id="stop11" />
      <stop
         offset="100%"
         style="stop-color: #FFCB01; stop-opacity:1"
         id="stop12" />
    </linearGradient>
    <linearGradient
       id="telinkrin"
       x1="0%"
       x2="0%"
       y1="0%"
       y2="100%">
      <stop
         offset="0%"
         style="stop-color: #b2ced6; stop-opacity:1"
         id="stop13" />
      <stop
         offset="100%"
         style="stop-color: #6da5b7; stop-opacity:1"
         id="stop14" />
    </linearGradient>
    <linearGradient
       id="60spsycho"
       x1="0%"
       x2="0%"
       y1="0%"
       y2="100%">
      <stop
         offset="0%"
         style="stop-color: #df5940; stop-opacity:1"
         id="stop15" />
      <stop
         offset="25%"
         style="stop-color: #d8d15f; stop-opacity:1"
         id="stop16" />
      <stop
         offset="50%"
         style="stop-color: #e9882a; stop-opacity:1"
         id="stop17" />
      <stop
         offset="100%"
         style="stop-color: #279362; stop-opacity:1"
         id="stop18" />
    </linearGradient>
    <linearGradient
       id="90ssummer"
       x1="0%"
       x2="0%"
       y1="0%"
       y2="100%">
      <stop
         offset="0%"
         style="stop-color: #f618c7; stop-opacity:1"
         id="stop19" />
      <stop
         offset="20%"
         style="stop-color: #94ffab; stop-opacity:1"
         id="stop20" />
      <stop
         offset="50%"
         style="stop-color: #fbfd54; stop-opacity:1"
         id="stop21" />
      <stop
         offset="100%"
         style="stop-color: #0f83ae; stop-opacity:1"
         id="stop22" />
    </linearGradient>
    <linearGradient
       inkscape:collect="always"
       xlink:href="#linearGradient26"
       id="linearGradient24-8"
       x1="592"
       y1="67"
       x2="606.45312"
       y2="55.259766"
       gradientUnits="userSpaceOnUse" />
    <linearGradient
       xlink:href="#linearGradient4210"
       id="linearGradient4216-5"
       x1="410.767"
       y1="531.30298"
       x2="406.75201"
       y2="515.91803"
       gradientUnits="userSpaceOnUse"
       gradientTransform="matrix(0.31248901,0,0,0.31249999,-118.34876,-155.6875)" />
    <linearGradient
       id="linearGradient4210">
      <stop
         style="stop-color:#cd1d31;stop-opacity:1;"
         offset="0"
         id="stop7-8" />
      <stop
         style="stop-color:#e54456;stop-opacity:1"
         offset="1"
         id="stop9-9" />
    </linearGradient>
  </defs>
  <g
     transform="matrix(0.875,0,0,1,-517,-52.5)"
     id="g22">
    <path
       d="m 595.99414,54 c -1.25819,0.0145 -2.17883,-0.0306 -2.93164,0.384766 -0.37641,0.20768 -0.67518,0.559426 -0.83984,0.998046 C 592.05801,55.821442 592,56.34241 592,57 v 7 c 0,0.65759 0.058,1.178558 0.22266,1.617188 0.16466,0.43862 0.46343,0.790366 0.83984,0.998046 0.75281,0.41535 1.67345,0.370226 2.93164,0.384766 h 0.004 8.0039 0.004 c 1.25819,-0.0145 2.17883,0.0306 2.93164,-0.384766 0.37641,-0.20768 0.67324,-0.559426 0.83789,-0.998046 C 607.93972,65.178558 608,64.65759 608,64 v -7 c 0,-0.65759 -0.06,-1.178558 -0.22461,-1.617188 -0.16465,-0.43862 -0.46148,-0.790366 -0.83789,-0.998046 C 606.18469,53.969406 605.26405,54.01454 604.00586,54 h -0.004 -8.00586 z M 596,55 h 8 c 1.25957,0.0147 2.08706,0.0578 2.45312,0.259766 0.1834,0.10118 0.28915,0.214649 0.38672,0.474609 C 606.9373,55.994315 607,56.40759 607,57 v 7 c 0,0.59241 -0.0626,1.005675 -0.16016,1.265625 -0.0976,0.25995 -0.20334,0.373429 -0.38672,0.474609 C 606.08705,65.942214 605.25957,65.98531 604,66 H 603.994 596 Z m -2.16602,0 h 0.33204 c 0.667,0 0.83398,0.2 0.83398,1 0,0.8 -0.16698,1 -0.83398,1 h -0.33204 C 593.16684,57 593,56.8 593,56 c 0,-0.8 0.16698,-1 0.83398,-1 z m 0,3 h 0.33204 c 0.667,0 0.83398,0.2 0.83398,1 0,0.8 -0.16698,1 -0.83398,1 h -0.33204 C 593.16684,60 593,59.8 593,59 c 0,-0.8 0.16698,-1 0.83398,-1 z m 0,3 h 0.33204 c 0.667,0 0.83398,0.2 0.83398,1 0,0.8 -0.16698,1 -0.83398,1 h -0.33204 C 593.16684,63 593,62.8 593,62 c 0,-0.8 0.16698,-1 0.83398,-1 z m 0,3 h 0.33204 c 0.667,0 0.83398,0.2 0.83398,1 0,0.8 -0.16698,1 -0.83398,1 h -0.33204 C 593.16684,66 593,65.8 593,65 c 0,-0.8 0.16698,-1 0.83398,-1 z"
       id="path22-3"
       style="fill:url(#linearGradient24-8)" />
  </g>
  <rect
     style="fill:url(#linearGradient4216-5);fill-opacity:1;stroke-width:0.312497"
     ry="0.82156235"
     rx="0.94559175"
     y="5.5"
     x="6.1999998"
     height="5"
     width="6.2497807"
     id="rect56-2" />
  <path
     style="color:#000000;font-style:normal;font-variant:normal;font-weight:normal;font-stretch:normal;font-size:medium;line-height:normal;font-family:sans-serif;text-indent:0;text-align:start;text-decoration:none;text-decoration-line:none;text-decoration-style:solid;text-decoration-color:#000000;letter-spacing:normal;word-spacing:normal;text-transform:none;writing-mode:lr-tb;direction:ltr;baseline-shift:baseline;text-anchor:start;white-space:normal;clip-rule:nonzero;display:inline;overflow:visible;visibility:visible;isolation:auto;mix-blend-mode:normal;color-interpolation:sRGB;color-interpolation-filters:linearRGB;solid-color:#000000;solid-opacity:1;fill:#fff8eb;fill-opacity:1;fill-rule:nonzero;stroke:none;stroke-width:0.700054;stroke-linecap:round;stroke-linejoin:round;stroke-miterlimit:4;stroke-dasharray:none;stroke-dashoffset:0;stroke-opacity:1;color-rendering:auto;image-rendering:auto;shape-rendering:auto;text-rendering:auto;enable-background:accumulate"
     d="M 8.4326822,6.437138 C 8.2367607,6.4332368 8.0757916,6.5909052 8.0756416,6.7868708 V 9.211796 c -2.44e-4,0.2692078 0.29078,0.4379288 0.5242722,0.3039578 L 10.712269,8.3029816 c 0.234482,-0.1345268 0.234482,-0.4727758 0,-0.6072998 L 8.5999138,6.4835258 C 8.5489474,6.454277 8.4914355,6.4383204 8.4326822,6.437138 Z"
     id="path58-3" />
</svg>
