<?xml version="1.0" encoding="UTF-8" standalone="no"?>
<svg
   version="1.1"
   viewBox="0 0 16 16"
   id="svg2256"
   sodipodi:docname="smw.svg"
   width="16"
   height="16"
   inkscape:version="1.3 (0e150ed6c4, 2023-07-21)"
   xmlns:inkscape="http://www.inkscape.org/namespaces/inkscape"
   xmlns:sodipodi="http://sodipodi.sourceforge.net/DTD/sodipodi-0.dtd"
   xmlns:xlink="http://www.w3.org/1999/xlink"
   xmlns="http://www.w3.org/2000/svg"
   xmlns:svg="http://www.w3.org/2000/svg">
  <sodipodi:namedview
     id="namedview2258"
     pagecolor="#ffffff"
     bordercolor="#666666"
     borderopacity="1.0"
     inkscape:showpageshadow="2"
     inkscape:pageopacity="0.0"
     inkscape:pagecheckerboard="0"
     inkscape:deskcolor="#d1d1d1"
     showgrid="false"
     inkscape:zoom="29.5"
     inkscape:cx="6.9152542"
     inkscape:cy="8.6271186"
     inkscape:window-width="1920"
     inkscape:window-height="994"
     inkscape:window-x="0"
     inkscape:window-y="0"
     inkscape:window-maximized="1"
     inkscape:current-layer="svg2256" />
  <defs
     id="defs2218">
    <linearGradient
       id="b"
       x1="434.57144"
       x2="384.57144"
       y1="543.79797"
       y2="503.798"
       gradientTransform="matrix(0.8749997,0,0,1.0499999,-276.822,-542.69814)"
       gradientUnits="userSpaceOnUse">
      <stop
         stop-color="#343b40"
         offset="0"
         id="stop2203" />
      <stop
         stop-color="#555e63"
         offset="1"
         id="stop2205" />
    </linearGradient>
    <linearGradient
       id="a"
       x2="0"
       y1="43.999973"
       y2="4"
       gradientTransform="matrix(0.66666621,0,0,0.69999959,384.57143,514.998)"
       gradientUnits="userSpaceOnUse">
      <stop
         stop-color="#bd8d48"
         offset="0"
         id="stop2208" />
      <stop
         stop-color="#e8b971"
         offset="1"
         id="stop2210" />
    </linearGradient>
    <linearGradient
       id="c"
       x1="37.581001"
       x2="53.580002"
       y1="17.139999"
       y2="33.139999"
       gradientTransform="matrix(1.4902446,0,0,1.4902444,7.7649691,-36.619686)"
       gradientUnits="userSpaceOnUse">
      <stop
         stop-color="#383e51"
         offset="0"
         id="stop2213" />
      <stop
         stop-color="#655c6f"
         stop-opacity="0"
         offset="1"
         id="stop2215" />
    </linearGradient>
    <linearGradient
       gradientTransform="matrix(1.0499636,0,0,1.0499041,-393.59543,-549.88348)"
       gradientUnits="userSpaceOnUse"
       x2="426.69501"
       y2="499.92099"
       y1="547.67499"
       id="a-6"
       x1="389.32001">
      <stop
         stop-color="#18222a"
         style="stop-color:#1e2b35;stop-opacity:1"
         id="stop216" />
      <stop
         stop-color="#566069"
         offset="1"
         style="stop-color:#6d7983;stop-opacity:1"
         id="stop218" />
    </linearGradient>
    <filter
       id="filter1032-7-5"
       x="-0.18000001"
       y="-0.18000001"
       width="1.36"
       height="1.36"
       color-interpolation-filters="sRGB">
      <feGaussianBlur
         stdDeviation="0.6"
         id="feGaussianBlur566-5-6" />
    </filter>
    <filter
       id="filter499"
       x="-0.18000001"
       y="-0.18000001"
       width="1.36"
       height="1.36"
       color-interpolation-filters="sRGB">
      <feGaussianBlur
         stdDeviation="0.6"
         id="feGaussianBlur497" />
    </filter>
    <filter
       id="filter503"
       x="-0.18000001"
       y="-0.18000001"
       width="1.36"
       height="1.36"
       color-interpolation-filters="sRGB">
      <feGaussianBlur
         stdDeviation="0.6"
         id="feGaussianBlur501" />
    </filter>
    <filter
       id="filter507"
       x="-0.18000001"
       y="-0.18000001"
       width="1.36"
       height="1.36"
       color-interpolation-filters="sRGB">
      <feGaussianBlur
         stdDeviation="0.6"
         id="feGaussianBlur505" />
    </filter>
    <filter
       id="filter511"
       x="-0.18000001"
       y="-0.18000001"
       width="1.36"
       height="1.36"
       color-interpolation-filters="sRGB">
      <feGaussianBlur
         stdDeviation="0.6"
         id="feGaussianBlur509" />
    </filter>
    <filter
       id="filter515"
       x="-0.18000001"
       y="-0.18000001"
       width="1.36"
       height="1.36"
       color-interpolation-filters="sRGB">
      <feGaussianBlur
         stdDeviation="0.6"
         id="feGaussianBlur513" />
    </filter>
    <linearGradient
       id="linearGradient1058">
      <stop
         stop-color="#136de2"
         offset="0"
         id="stop570" />
      <stop
         stop-color="#26bbcf"
         offset="1"
         id="stop572" />
    </linearGradient>
    <linearGradient
       id="linearGradient1042">
      <stop
         stop-color="#ffb636"
         offset="0"
         id="stop577" />
      <stop
         stop-color="#eeed51"
         offset="1"
         id="stop579" />
    </linearGradient>
    <linearGradient
       inkscape:collect="always"
       xlink:href="#linearGradient4"
       id="linearGradient2"
       x1="10.707617"
       y1="31.534513"
       x2="37.173615"
       y2="31.534513"
       gradientUnits="userSpaceOnUse"
       gradientTransform="matrix(0.49119626,0,0,0.49119635,-3.7595401,-7.4896378)" />
    <linearGradient
       id="linearGradient4"
       inkscape:collect="always">
      <stop
         style="stop-color:#ffd42a;stop-opacity:1"
         offset="0"
         id="stop3" />
      <stop
         style="stop-color:#ff00ff;stop-opacity:1"
         offset="1"
         id="stop4" />
    </linearGradient>
    <linearGradient
       inkscape:collect="always"
       xlink:href="#linearGradient4"
       id="linearGradient11"
       x1="4.4476051"
       y1="10.578368"
       x2="5.8443937"
       y2="10.578368"
       gradientUnits="userSpaceOnUse" />
  </defs>
  <path
     id="circle2"
     style="opacity:0.99;fill:url(#linearGradient2);fill-opacity:1;stroke-width:0.491197"
     d="M 14.499999,8 A 6.4999991,6.5000002 0 0 1 8,14.5 6.4999991,6.5000002 0 0 1 1.5000009,8 6.4999991,6.5000002 0 0 1 8,1.5 6.4999991,6.5000002 0 0 1 14.499999,8 Z" />
  <path
     id="circle858"
     style="fill:#1c202f;fill-opacity:1;stroke-width:0.417883"
     d="M 13.529826,8 A 5.5298258,5.5298269 0 0 1 8,13.529827 5.5298258,5.5298269 0 0 1 2.4701741,8 5.5298258,5.5298269 0 0 1 8,2.470173 5.5298258,5.5298269 0 0 1 13.529826,8 Z" />
  <ellipse
     style="opacity:0.2;stroke-width:0.13552"
     cx="0.95667356"
     cy="11.065752"
     rx="0.7055155"
     ry="1.1226455"
     transform="matrix(0.85217298,-0.52326018,0.4209333,0.90709159,0,0)"
     id="ellipse1" />
  <ellipse
     style="opacity:0.2;stroke-width:0.13552"
     cx="-13.581965"
     cy="2.6789761"
     rx="0.7055155"
     ry="1.1226455"
     transform="matrix(-0.85217298,-0.52326018,-0.4209333,0.90709159,0,0)"
     id="ellipse2" />
  <path
     style="opacity:0.2;stroke-width:0.13552"
     d="M 5.6571176,7.3078285 V 9.0806243 C 5.5135126,9.350587 5.2505586,9.718124 5.2505586,10.22007 c 0,1.038281 1.2134569,1.87993 2.7103428,1.87993 1.4968854,0 2.7104446,-0.841649 2.7104446,-1.87993 0,-0.460466 -0.262966,-0.807839 -0.406559,-1.070656 V 7.3078285 L 7.9609524,6.4385677 Z"
     id="path2" />
  <path
     style="fill:#ea2028;stroke-width:0.13552"
     d="m 11.077905,7.216953 c 0,1.7214464 -1.3955072,3.116954 -3.1169526,3.116954 -1.7214459,0 -3.1169528,-1.3955076 -3.1169528,-3.116954 C 4.8439996,5.4955068 6.7313335,4.1 7.9609524,4.1 c 1.2296189,0 3.1169526,1.3955068 3.1169526,3.116953 z"
     id="path3" />
  <ellipse
     style="fill:#e5b493;stroke-width:0.13552"
     cx="-13.524501"
     cy="2.5627003"
     rx="0.7055155"
     ry="1.1226455"
     transform="matrix(-0.85217298,-0.52326018,-0.4209333,0.90709159,0,0)"
     id="ellipse3" />
  <path
     style="opacity:0.1;stroke-width:0.13552"
     d="m 10.748354,8.5633827 c 0.131356,2.481e-4 0.246481,0.1017931 0.281557,0.2483664 -0.09026,-0.06976 -0.155926,-0.1326339 -0.289376,-0.1327755 -0.0621,6.23e-5 -0.185202,0.031825 -0.242633,0.048597 0.05287,-0.1017666 0.147888,-0.1640591 0.250452,-0.1641879 z"
     id="path4" />
  <path
     style="opacity:0.1;stroke-width:0.13552"
     d="m 10.787118,9.277034 c 0.051,0.121052 0.0024,0.266664 -0.118944,0.356108 0.02905,-0.110312 0.06135,-0.195296 0.0094,-0.318242 -0.02427,-0.05716 -0.101511,-0.15814 -0.139346,-0.204487 0.114324,0.009 0.208732,0.07222 0.248838,0.166621 z"
     id="path5" />
  <path
     style="fill:#a84e37;stroke-width:0.13552"
     d="M 10.604092,7.5035604 H 9.9952868 V 9.838951 C 10.390937,9.703608 10.636865,9.499992 10.675412,9.109124 c 0.01811,-0.2206804 -0.120417,-0.4791843 -0.13233,-0.7330129 -0.01889,-0.402438 0.03539,-0.5047296 0.06101,-0.8725507 z"
     id="path6" />
  <ellipse
     style="fill:#e5b493;stroke-width:0.13552"
     cx="1.0141381"
     cy="10.94948"
     rx="0.7055155"
     ry="1.1226455"
     transform="matrix(0.85217298,-0.52326018,0.4209333,0.90709159,0,0)"
     id="ellipse6" />
  <path
     style="opacity:0.1;stroke-width:0.13552"
     d="m 5.1711646,8.5633827 c -0.131357,2.481e-4 -0.246482,0.1017931 -0.281558,0.2483664 0.09026,-0.06976 0.155925,-0.1326339 0.289376,-0.1327755 0.0621,6.23e-5 0.185202,0.031825 0.242633,0.048597 C 5.3687456,8.625804 5.2737286,8.5635115 5.1711646,8.5633827 Z"
     id="path7" />
  <path
     style="opacity:0.1;stroke-width:0.13552"
     d="m 5.1323996,9.277034 c -0.051,0.121052 -0.0024,0.266664 0.118944,0.356108 -0.02905,-0.110312 -0.06135,-0.195296 -0.0094,-0.318242 0.02427,-0.05716 0.101512,-0.15814 0.139347,-0.204487 -0.114325,0.009 -0.208733,0.07222 -0.248839,0.166621 z"
     id="path8" />
  <path
     style="fill:#a84e37;stroke-width:0.13552"
     d="M 5.3386996,7.5035604 H 5.9475035 V 9.838951 C 5.5518536,9.703608 5.2891046,9.499992 5.2505586,9.109124 c -0.01811,-0.2206804 0.137238,-0.4791843 0.149151,-0.7330129 0.01889,-0.402438 -0.03539,-0.5047296 -0.06101,-0.8725507 z"
     id="path9" />
  <path
     style="fill:#f0c3a5;stroke-width:0.13552"
     d="M 5.6571176,7.1723087 V 8.9451045 C 5.5135126,9.215068 5.2505586,9.582604 5.2505586,10.08455 c 0,1.038281 1.2134569,1.87993 2.7103428,1.87993 1.4968854,0 2.7104446,-0.841649 2.7104446,-1.87993 0,-0.460465 -0.262966,-0.807839 -0.406559,-1.0706558 V 7.1723087 L 7.9609524,6.3030476 Z"
     id="path10" />
  <path
     style="opacity:0.1;stroke-width:0.13552"
     d="m 7.1319054,11.035282 a 1.004659,0.46621433 0 0 0 0.869814,0.234022 1.004659,0.46621433 0 0 0 0.7926789,-0.180852 1.5496696,0.46621433 0 0 1 -0.6942019,0.0498 1.5496696,0.46621433 0 0 1 -0.968291,-0.102971 z m 0.386418,0.310781 a 0.50561264,0.19042561 0 0 0 -0.009,0.0352 0.50561264,0.19042561 0 0 0 0.505487,0.190213 0.50561264,0.19042561 0 0 0 0.5054879,-0.190213 0.50561264,0.19042561 0 0 0 -0.0064,-0.02958 0.72887021,0.19042561 0 0 1 -0.4860169,0.04905 0.72887021,0.19042561 0 0 1 -0.509606,-0.05467 z"
     id="path11" />
  <ellipse
     style="opacity:0.2;stroke-width:0.13552"
     cx="6.8767982"
     cy="8.6687822"
     rx="0.6775983"
     ry="0.77435982"
     id="ellipse11" />
  <path
     style="fill:#5b4b53;stroke-width:0.13552"
     d="M 9.9197198,9.254086 C 9.4696328,9.658537 8.7233833,9.900417 7.9256934,9.900404 7.1428374,9.899629 6.4091195,9.665963 5.9572185,9.273381 5.8596086,9.493338 5.8308616,9.69635 5.7926376,9.906518 c -1.4e-5,0.226795 0.1815179,0.410655 0.4054539,0.410659 0.06543,-5.4e-5 0.129884,-0.01614 0.187845,-0.0469 -0.0036,0.02159 -0.0055,0.04344 -0.0057,0.06534 3.9e-5,0.226757 0.181555,0.41056 0.405455,0.410563 0.153683,-2.04e-4 0.2940469,-0.08838 0.3624999,-0.22773 -0.0026,0.01862 -0.0039,0.03738 -0.004,0.05617 3e-5,0.243685 0.199958,0.441217 0.446577,0.441227 0.148478,-5.2e-5 0.287221,-0.07301 0.370194,-0.19468 0.08297,0.121666 0.221717,0.194628 0.3701939,0.19468 0.246656,3.9e-5 0.446639,-0.197507 0.446668,-0.441227 -1.6e-4,-0.01882 -0.0015,-0.03762 -0.0041,-0.05626 0.06843,0.139389 0.208796,0.227608 0.3625,0.227825 0.2239,-3e-6 0.4054155,-0.183807 0.4054545,-0.410564 -1.75e-4,-0.0219 -0.0021,-0.04375 -0.0057,-0.06534 0.05796,0.03075 0.12241,0.04685 0.187844,0.0469 0.223937,-4e-6 0.4054682,-0.183865 0.4054552,-0.410659 C 10.079648,9.680715 10.000333,9.45275 9.9197268,9.25409 Z"
     id="path12" />
  <path
     style="fill:#5d4e55;stroke-width:0.13552"
     d="m 6.8603195,6.8526916 a 0.62257888,0.77670722 0 0 0 -0.622564,0.7767838 0.62257888,0.77670722 0 0 0 0.0059,0.099535 A 0.71567473,0.77670722 0 0 1 6.8952395,7.2718769 0.71567473,0.77670722 0 0 1 7.4822544,7.60584 0.62257888,0.77670722 0 0 0 6.8603255,6.8526919 Z"
     id="path13" />
  <ellipse
     style="fill:#ffffff;stroke-width:0.13552"
     cx="7.9609509"
     cy="5.5918021"
     rx="1.0841572"
     ry="0.81311852"
     id="ellipse13" />
  <path
     style="fill:#ed475f;stroke-width:0.13552"
     d="m 8.3396313,4.9646169 -0.3896189,0.427381 -0.368797,-0.4072645 -0.435499,0.927815 0.380004,0.1164035 0.118666,-0.6221317 0.305273,0.3366817 0.3310349,-0.3631499 0.196368,0.5921344 0.299126,-0.1199338 z"
     id="path14" />
  <ellipse
     style="opacity:0.2;stroke-width:0.13552"
     cx="-9.0451107"
     cy="8.6687822"
     rx="0.6775983"
     ry="0.77435982"
     transform="scale(-1,1)"
     id="ellipse14" />
  <ellipse
     style="fill:#ffffff;stroke-width:0.13552"
     cx="6.8767982"
     cy="8.5332623"
     rx="0.6775983"
     ry="0.77435982"
     id="ellipse15" />
  <path
     style="fill:#2784cf;stroke-width:0.13552"
     d="M 7.2280724,7.9062872 A 0.44820531,0.60383229 0 0 0 6.7799955,8.5101513 0.44820531,0.60383229 0 0 0 7.2280724,9.114017 0.44820531,0.60383229 0 0 0 7.3441564,9.093221 0.67759842,0.77439827 0 0 0 7.5543934,8.533219 0.67759842,0.77439827 0 0 0 7.2779844,7.9104477 a 0.44820531,0.60383229 0 0 0 -0.04991,-0.00416 z"
     id="path15" />
  <ellipse
     style="fill:#3f3f3f;stroke-width:0.13552"
     cx="7.215589"
     cy="8.5072355"
     rx="0.24203812"
     ry="0.33879918"
     id="ellipse16" />
  <path
     style="fill:#5d4e55;stroke-width:0.13552"
     d="m 9.0659853,6.8526916 a 0.62257888,0.77670722 0 0 1 0.6225635,0.7767838 0.62257888,0.77670722 0 0 1 -0.0059,0.099535 A 0.71567473,0.77670722 0 0 0 9.0310653,7.2718769 0.71567473,0.77670722 0 0 0 8.4440503,7.60584 0.62257888,0.77670722 0 0 1 9.0659793,6.8526919 Z"
     id="path16" />
  <ellipse
     style="fill:#ffffff;stroke-width:0.13552"
     cx="-9.0451107"
     cy="8.5332623"
     rx="0.6775983"
     ry="0.77435982"
     transform="scale(-1,1)"
     id="ellipse17" />
  <path
     style="fill:#2784cf;stroke-width:0.13552"
     d="m 8.6938333,7.9062872 a 0.44820536,0.60383234 0 0 1 0.448077,0.6038641 0.44820536,0.60383234 0 0 1 -0.448077,0.6038657 0.44820536,0.60383234 0 0 1 -0.116085,-0.020799 0.67759849,0.77439832 0 0 1 -0.210237,-0.5600018 0.67759849,0.77439832 0 0 1 0.276409,-0.6227716 0.44820536,0.60383234 0 0 1 0.04991,-0.00416 z"
     id="path17" />
  <ellipse
     style="fill:#3f3f3f;stroke-width:0.13552"
     cx="-8.7063122"
     cy="8.5072355"
     rx="0.24203812"
     ry="0.33879918"
     transform="scale(-1,1)"
     id="ellipse18" />
  <ellipse
     style="opacity:0.2;stroke-width:0.13552"
     cx="7.9609509"
     cy="9.7283974"
     rx="1.0841572"
     ry="0.88087815"
     id="ellipse19" />
  <ellipse
     style="fill:#ffd0ae;stroke-width:0.13552"
     cx="7.9609509"
     cy="9.5928755"
     rx="1.0841572"
     ry="0.88087815"
     id="ellipse20" />
  <path
     style="opacity:0.1;stroke-width:0.13552"
     d="M 7.9609524,6.283297 C 6.8942645,6.300955 5.7788036,6.5328189 5.3281016,7.4501884 c -0.08956,0.1822988 -0.131584,0.4042393 0.0431,0.4949647 0.160562,0.076833 0.231363,-0.019111 0.343301,-0.1194878 0.6677679,-0.57944 1.3570328,-0.8855662 2.2464498,-0.8855662 0.8894179,0 1.5786814,0.3061262 2.2464496,0.8855662 0.111938,0.1003783 0.182739,0.1963209 0.343301,0.1194878 0.174684,-0.090725 0.132664,-0.3126659 0.0431,-0.4949647 C 10.143101,6.5328189 9.0276403,6.3009547 7.9609524,6.283297 Z"
     id="path20" />
  <path
     style="fill:#ff3137;stroke-width:0.13552"
     d="M 7.9609524,6.1477772 C 6.8942645,6.1654342 5.7788036,6.397299 5.3281016,7.3146686 c -0.08956,0.182299 -0.131584,0.4042392 0.0431,0.4949647 0.160562,0.076833 0.231363,-0.019111 0.343301,-0.1194878 0.6677679,-0.57944 1.3570328,-0.8855664 2.2464498,-0.8855664 0.8894179,0 1.5786814,0.3061264 2.2464496,0.8855664 0.111938,0.1003782 0.182739,0.1963212 0.343301,0.1194878 0.174684,-0.090725 0.132664,-0.3126657 0.0431,-0.4949647 C 10.1431,6.397299 9.0276393,6.1654349 7.9609524,6.1477772 Z"
     id="path21" />
  <path
     style="opacity:0.2;fill:#ffffff;stroke-width:0.13552"
     d="m 7.9609524,4.100102 c -1.2296189,0 -3.1169528,1.3955081 -3.1169528,3.1169532 0,0.026541 0.0013,0.052758 0.0019,0.079142 0.0407,-1.6953309 1.8989859,-3.0605762 3.1150998,-3.0605762 1.2161139,0 3.0744016,1.3652453 3.1151006,3.0605762 7.25e-4,-0.026384 0.0019,-0.052601 0.0019,-0.079142 0,-1.7214451 -1.8873347,-3.1169532 -3.1169526,-3.1169532 z"
     id="path22" />
  <path
     style="opacity:0.2;fill:#ffffff;stroke-width:0.13552"
     d="m 7.9609524,8.7120076 a 1.0841577,0.88087813 0 0 0 -1.0841569,0.8808774 1.0841577,0.88087813 0 0 0 0.004,0.07067 1.0841577,0.88087813 0 0 1 1.0801869,-0.8160294 1.0841577,0.88087813 0 0 1 1.0801879,0.8102064 1.0841577,0.88087813 0 0 0 0.004,-0.06485 1.0841577,0.88087813 0 0 0 -1.0841569,-0.8808781 z"
     id="path23" />
  <path
     style="opacity:0.2;fill:#ffffff;stroke-width:0.13552"
     d="m 7.9609524,6.1477202 c -1.0666879,0.017657 -2.1821378,0.2496343 -2.6328408,1.1670049 -0.0558,0.1135661 -0.09294,0.2423874 -0.07094,0.3454157 0.01156,-0.069624 0.03781,-0.1424727 0.07094,-0.2098961 C 5.7788146,6.5328744 6.8942645,6.3008984 7.9609524,6.28324 9.0276403,6.300897 10.14309,6.5328744 10.593793,7.4502447 c 0.03313,0.067423 0.05938,0.1402716 0.07094,0.2098961 0.02201,-0.1030283 -0.01514,-0.2318496 -0.07094,-0.3454157 C 10.14309,6.3973545 9.0276403,6.1653786 7.9609524,6.1477202 Z"
     id="path24" />
</svg>
