<?xml version="1.0" encoding="UTF-8" standalone="no"?>
<svg
   version="1.1"
   viewBox="0 0 16 16"
   id="svg28"
   sodipodi:docname="soundconverter-logo.svg"
   inkscape:version="1.3 (0e150ed6c4, 2023-07-21)"
   width="16"
   height="16"
   xmlns:inkscape="http://www.inkscape.org/namespaces/inkscape"
   xmlns:sodipodi="http://sodipodi.sourceforge.net/DTD/sodipodi-0.dtd"
   xmlns:xlink="http://www.w3.org/1999/xlink"
   xmlns="http://www.w3.org/2000/svg"
   xmlns:svg="http://www.w3.org/2000/svg">
  <sodipodi:namedview
     id="namedview30"
     pagecolor="#ffffff"
     bordercolor="#666666"
     borderopacity="1.0"
     inkscape:showpageshadow="2"
     inkscape:pageopacity="0.0"
     inkscape:pagecheckerboard="0"
     inkscape:deskcolor="#d1d1d1"
     showgrid="false"
     inkscape:zoom="9.8333334"
     inkscape:cx="10.169491"
     inkscape:cy="19.169491"
     inkscape:window-width="1920"
     inkscape:window-height="994"
     inkscape:window-x="0"
     inkscape:window-y="0"
     inkscape:window-maximized="1"
     inkscape:current-layer="svg28">
    <inkscape:grid
       type="xygrid"
       id="grid1420"
       originx="80"
       originy="25"
       spacingy="1"
       spacingx="1"
       units="px"
       visible="false" />
  </sodipodi:namedview>
  <defs
     id="defs12">
    <linearGradient
       id="b"
       x1="15.425"
       x2="31.702721"
       y1="13.05"
       y2="30.814844"
       gradientTransform="matrix(1.0041687,0,0,0.94967539,386.73655,504.5339)"
       gradientUnits="userSpaceOnUse">
      <stop
         offset="0"
         id="stop2" />
      <stop
         stop-opacity="0"
         offset="1"
         id="stop4" />
    </linearGradient>
    <linearGradient
       id="a"
       x1="30.207001"
       x2="14"
       y1="43"
       y2="10"
       gradientTransform="matrix(-1,0,0,1,432.30321,499.798)"
       gradientUnits="userSpaceOnUse">
      <stop
         stop-color="#cebee5"
         offset="0"
         id="stop7" />
      <stop
         stop-color="#f1f1f1"
         offset="1"
         id="stop9" />
    </linearGradient>
    <linearGradient
       id="linearGradient4165">
      <stop
         stop-color="#282629"
         offset="0"
         id="stop12" />
      <stop
         stop-color="#424242"
         offset="1"
         id="stop14" />
    </linearGradient>
    <linearGradient
       xlink:href="#linearGradient4226"
       id="linearGradient4232-7"
       x1="20.586"
       y1="18.733"
       x2="35.314999"
       y2="33.463001"
       gradientUnits="userSpaceOnUse" />
    <linearGradient
       id="linearGradient4226">
      <stop
         style="stop-color:#000000;stop-opacity:1;"
         offset="0"
         id="stop2-3" />
      <stop
         style="stop-color:#000000;stop-opacity:0;"
         offset="1"
         id="stop4-6" />
    </linearGradient>
    <linearGradient
       xlink:href="#linearGradient4210"
       id="linearGradient4216-5"
       x1="410.767"
       y1="531.30298"
       x2="406.75201"
       y2="515.91803"
       gradientUnits="userSpaceOnUse" />
    <linearGradient
       id="linearGradient4210">
      <stop
         style="stop-color:#cd1d31;stop-opacity:1;"
         offset="0"
         id="stop7-7" />
      <stop
         style="stop-color:#e54456;stop-opacity:1"
         offset="1"
         id="stop9-5" />
    </linearGradient>
  </defs>
  <path
     fill="#4c8fd8"
     d="m 7.7844681,1.5045582 a 6.5059098,6.5028676 0 0 0 -4.386159,1.898236 6.5059098,6.5028676 0 0 0 -0.530251,8.5802778 l 1.366367,-1.365728 a 4.5929969,4.5908493 0 0 1 0.517714,-5.8613518 4.5929969,4.5908493 0 0 1 4.778523,-1.076294 v 1.642632 L 11.985107,2.8690332 A 6.5059098,6.5028676 0 0 0 7.7844681,1.5033052 Z"
     style="stroke-width:1.25326;paint-order:stroke markers fill"
     id="path1" />
  <path
     fill="#6ddce7"
     d="m 13.132101,4.0192512 -1.366363,1.365727 a 4.5929969,4.5908493 0 0 1 -0.520225,5.8626058 4.5929969,4.5908493 0 0 1 -4.7772679,1.07504 v -1.643885 l -1.623343,1.623838 -0.831102,0.82946 a 6.5059098,6.5028676 0 0 0 8.5867979,-0.531256 6.5059098,6.5028676 0 0 0 0.53025,-8.5827828 z"
     style="stroke-width:1.25326;paint-order:stroke markers fill"
     id="path2" />
  <path
     style="opacity:0.2;stroke-width:0.153864"
     d="m 14.315492,11.901224 a 2.4999897,2.4242331 0 0 1 -2.493426,2.295749 2.4999897,2.4242331 0 0 1 -2.4934321,-2.249687 2.4999897,2.4242331 0 0 0 -0.0066,0.128481 2.4999897,2.4242331 0 0 0 2.4999901,2.424234 2.4999897,2.4242331 0 0 0 2.499988,-2.424234 2.4999897,2.4242331 0 0 0 -0.0067,-0.174595 z"
     id="path985-1-2" />
  <ellipse
     style="fill:#9d7ed5;stroke-width:0.153864"
     cx="11.822061"
     cy="11.924243"
     id="circle989-2-8"
     rx="2.5"
     ry="2.424243" />
  <path
     style="fill:#ffffff;stroke-width:0.153864"
     d="m 13.072049,10.712419 -1.874985,-2.64e-4 v 1.59681 c -0.09495,-0.05341 -0.20273,-0.08163 -0.312499,-0.08181 -0.345175,0 -0.624997,0.271337 -0.624997,0.606055 0,0.334717 0.279822,0.606058 0.624997,0.606058 0.345175,0 0.625001,-0.271341 0.625001,-0.606058 l -1.4e-5,-1.515014 h 1.249995 l 10e-6,0.990609 c -0.09495,-0.05341 -0.202726,-0.08163 -0.312496,-0.08182 -0.345179,0 -0.624995,0.271343 -0.624995,0.606058 0,0.334718 0.279816,0.606057 0.624995,0.606057 0.345175,0 0.624994,-0.271339 0.624994,-0.606057 l -6e-6,-2.120906 z"
     id="path991-7-9" />
</svg>
