<?xml version="1.0" encoding="UTF-8" standalone="no"?>
<svg
   width="16"
   height="16"
   version="1.1"
   id="svg22"
   sodipodi:docname="spectacle.svg"
   inkscape:version="1.3 (0e150ed6c4, 2023-07-21)"
   xmlns:inkscape="http://www.inkscape.org/namespaces/inkscape"
   xmlns:sodipodi="http://sodipodi.sourceforge.net/DTD/sodipodi-0.dtd"
   xmlns="http://www.w3.org/2000/svg"
   xmlns:svg="http://www.w3.org/2000/svg">
  <sodipodi:namedview
     id="namedview22"
     pagecolor="#ffffff"
     bordercolor="#000000"
     borderopacity="0.25"
     inkscape:showpageshadow="2"
     inkscape:pageopacity="0.0"
     inkscape:pagecheckerboard="0"
     inkscape:deskcolor="#d1d1d1"
     inkscape:zoom="24.090573"
     inkscape:cx="8.9246528"
     inkscape:cy="13.843589"
     inkscape:window-width="1920"
     inkscape:window-height="994"
     inkscape:window-x="0"
     inkscape:window-y="0"
     inkscape:window-maximized="1"
     inkscape:current-layer="svg22"
     showgrid="true">
    <inkscape:grid
       id="grid1"
       units="px"
       originx="0"
       originy="0"
       spacingx="1"
       spacingy="1"
       empcolor="#0099e5"
       empopacity="0.30196078"
       color="#0099e5"
       opacity="0.14902"
       empspacing="5"
       dotted="false"
       gridanglex="30"
       gridanglez="30"
       visible="true" />
  </sodipodi:namedview>
  <defs
     id="defs22">
    <style
       id="current-color-scheme"
       type="text/css">&#10;   .ColorScheme-Text { color:#d5c289; } .ColorScheme-Highlight { color:#5294e2; }&#10;  </style>
    <linearGradient
       id="arrongin"
       x1="0%"
       x2="0%"
       y1="0%"
       y2="100%">
      <stop
         offset="0%"
         style="stop-color:#dd9b44; stop-opacity:1"
         id="stop1" />
      <stop
         offset="100%"
         style="stop-color:#ad6c16; stop-opacity:1"
         id="stop2" />
    </linearGradient>
    <linearGradient
       id="aurora"
       x1="0%"
       x2="0%"
       y1="0%"
       y2="100%">
      <stop
         offset="0%"
         style="stop-color:#09D4DF; stop-opacity:1"
         id="stop3" />
      <stop
         offset="100%"
         style="stop-color:#9269F4; stop-opacity:1"
         id="stop4" />
    </linearGradient>
    <linearGradient
       id="fitdance"
       x1="0%"
       x2="0%"
       y1="0%"
       y2="100%">
      <stop
         offset="0%"
         style="stop-color:#1AD6AB; stop-opacity:1"
         id="stop5" />
      <stop
         offset="100%"
         style="stop-color:#329DB6; stop-opacity:1"
         id="stop6" />
    </linearGradient>
    <linearGradient
       id="oomox"
       x1="335.31628"
       x2="349.73846"
       y1="200.80147"
       y2="215.22368"
       gradientTransform="scale(1.1094004,0.90138782)"
       gradientUnits="userSpaceOnUse">
      <stop
         offset="0"
         style="stop-color:#ff54ff;stop-opacity:1;"
         id="stop7" />
      <stop
         offset="100%"
         style="stop-color:#5599ff;stop-opacity:1"
         id="stop8" />
    </linearGradient>
    <linearGradient
       id="rainblue"
       x1="0%"
       x2="0%"
       y1="0%"
       y2="100%">
      <stop
         offset="0%"
         style="stop-color:#00F260; stop-opacity:1"
         id="stop9" />
      <stop
         offset="100%"
         style="stop-color:#0575E6; stop-opacity:1"
         id="stop10" />
    </linearGradient>
    <linearGradient
       id="sunrise"
       x1="0%"
       x2="0%"
       y1="0%"
       y2="100%">
      <stop
         offset="0%"
         style="stop-color: #FF8501; stop-opacity:1"
         id="stop11" />
      <stop
         offset="100%"
         style="stop-color: #FFCB01; stop-opacity:1"
         id="stop12" />
    </linearGradient>
    <linearGradient
       id="telinkrin"
       x1="0%"
       x2="0%"
       y1="0%"
       y2="100%">
      <stop
         offset="0%"
         style="stop-color: #b2ced6; stop-opacity:1"
         id="stop13" />
      <stop
         offset="100%"
         style="stop-color: #6da5b7; stop-opacity:1"
         id="stop14" />
    </linearGradient>
    <linearGradient
       id="60spsycho"
       x1="0%"
       x2="0%"
       y1="0%"
       y2="100%">
      <stop
         offset="0%"
         style="stop-color: #df5940; stop-opacity:1"
         id="stop15" />
      <stop
         offset="25%"
         style="stop-color: #d8d15f; stop-opacity:1"
         id="stop16" />
      <stop
         offset="50%"
         style="stop-color: #e9882a; stop-opacity:1"
         id="stop17" />
      <stop
         offset="100%"
         style="stop-color: #279362; stop-opacity:1"
         id="stop18" />
    </linearGradient>
    <linearGradient
       id="90ssummer"
       x1="0%"
       x2="0%"
       y1="0%"
       y2="100%">
      <stop
         offset="0%"
         style="stop-color: #f618c7; stop-opacity:1"
         id="stop19" />
      <stop
         offset="20%"
         style="stop-color: #94ffab; stop-opacity:1"
         id="stop20" />
      <stop
         offset="50%"
         style="stop-color: #fbfd54; stop-opacity:1"
         id="stop21" />
      <stop
         offset="100%"
         style="stop-color: #0f83ae; stop-opacity:1"
         id="stop22" />
    </linearGradient>
  </defs>
  <g
     transform="matrix(0.875,0,0,0.87877128,-324.5,-156.48163)"
     id="g22">
    <path
       style="fill:url(#oomox)"
       class="ColorScheme-Text"
       d="m 375,181 -3e-5,1 h 0.99417 c -0.99416,-0.015 -2.17889,-0.0306 -2.93164,0.38477 -0.37637,0.20766 -0.67323,0.55938 -0.83789,0.99804 C 372.05994,183.82148 372,184.34239 372,185 v 6 c 0,0.65761 0.0599,1.17853 0.22461,1.61719 0.16467,0.43866 0.46152,0.79039 0.83789,0.99804 0.75275,0.41532 1.67345,0.3702 2.93164,0.38477 h 0.004 8.0039 0.004 c 1.25819,-0.0145 2.17889,0.0306 2.93164,-0.38477 0.37637,-0.20766 0.67322,-0.55938 0.83789,-0.99804 C 387.93988,192.17852 388,191.65761 388,191 v -6 c 0,-0.65761 -0.0599,-1.17852 -0.22461,-1.61719 -0.16466,-0.43866 -0.46152,-0.79038 -0.83789,-0.99804 -0.75275,-0.41534 -1.67344,-0.37025 -2.93164,-0.38477 h -0.004 H 377 v -1 c -3e-5,-0.87661 -2.00003,-0.8712 -2,0 z m 1,2 h 8 c 1.25852,0.0147 2.08717,0.0598 2.45312,0.26172 0.18341,0.1012 0.28916,0.21274 0.38672,0.47266 C 386.93727,183.99429 387,184.40761 387,185 v 6 c 0,0.59239 -0.0626,1.00573 -0.16016,1.26562 -0.0976,0.25991 -0.20331,0.37147 -0.38672,0.47266 C 386.08718,192.94019 385.25852,192.98529 384,193 H 376.00586 376 c -1.25853,-0.0147 -2.08912,-0.0598 -2.45508,-0.26172 -0.18341,-0.10119 -0.2872,-0.21274 -0.38476,-0.47266 C 373.06259,192.00572 373,191.59239 373,191 v -6 c 0,-0.59239 0.0626,-1.00572 0.16016,-1.26562 0.0976,-0.25991 0.20135,-0.37147 0.38476,-0.47266 C 373.91088,183.05981 374.74147,183.01471 376,183 Z m 4,1 c -2.20914,0 -4,1.79086 -4,4 0,2.20914 1.79086,4 4,4 2.20914,0 4,-1.79086 4,-4 0,-2.20914 -1.79086,-4 -4,-4 z m 5.5,0 c -0.27614,0 -0.5,0.22386 -0.5,0.5 0,0.27614 0.22386,0.5 0.5,0.5 0.27614,0 0.5,-0.22386 0.5,-0.5 0,-0.27614 -0.22386,-0.5 -0.5,-0.5 z m -5.5,1 c 1.65685,0 3,1.34315 3,3 0,1.65685 -1.34315,3 -3,3 -1.65685,0 -3,-1.34315 -3,-3 0,-1.65685 1.34315,-3 3,-3 z m -0.084,1.00391 c -1.07012,0.045 -1.91485,0.92502 -1.916,1.99609 0,1.10457 0.89543,2 2,2 1.10457,0 2,-0.89543 2,-2 -0.002,-1.06454 -0.83716,-1.94112 -1.90039,-1.99414 0.51082,0.0511 0.89993,0.48077 0.90039,0.99414 0,0.55228 -0.44772,1 -1,1 -0.55228,0 -1,-0.44772 -1,-1 2e-4,-0.51958 0.39827,-0.95246 0.91602,-0.99609 z"
       id="path22"
       sodipodi:nodetypes="cccccssccccccccsscccccccccscsscccccccsscccsssssssssssssssscscccsccs" />
  </g>
</svg>
