<?xml version="1.0" encoding="UTF-8" standalone="no"?>
<svg
   width="16"
   height="16"
   viewBox="0 0 16 16"
   version="1.1"
   id="svg4164"
   sodipodi:docname="distributor-logo-pop-os.svg"
   inkscape:version="1.3 (0e150ed6c4, 2023-07-21)"
   xmlns:inkscape="http://www.inkscape.org/namespaces/inkscape"
   xmlns:sodipodi="http://sodipodi.sourceforge.net/DTD/sodipodi-0.dtd"
   xmlns="http://www.w3.org/2000/svg"
   xmlns:svg="http://www.w3.org/2000/svg">
  <defs
     id="defs4168" />
  <sodipodi:namedview
     id="namedview4166"
     pagecolor="#ffffff"
     bordercolor="#000000"
     borderopacity="0.25"
     inkscape:showpageshadow="2"
     inkscape:pageopacity="0.0"
     inkscape:pagecheckerboard="0"
     inkscape:deskcolor="#d1d1d1"
     showgrid="false"
     inkscape:zoom="13.906433"
     inkscape:cx="3.4875944"
     inkscape:cy="5.7167785"
     inkscape:window-width="1920"
     inkscape:window-height="994"
     inkscape:window-x="0"
     inkscape:window-y="0"
     inkscape:window-maximized="1"
     inkscape:current-layer="svg4164" />
  <path
     style="fill:#9cd9de;fill-opacity:1;fill-rule:nonzero;stroke:none;stroke-width:0.385517"
     d="m 7.2765555,12.490036 c -0.034902,-0.04334 -0.03339,-0.04334 0.010622,-0.01046 0.025804,0.02092 0.048561,0.04334 0.048561,0.04782 0,0.02242 -0.022767,0.009 -0.059183,-0.03736 z M 8.611994,12.276338 c 0.0015,-0.03138 0.0092,-0.03736 0.0167,-0.01644 0.0092,0.01943 0.0077,0.04334 -0.0015,0.0523 -0.0092,0.009 -0.01517,-0.0075 -0.01517,-0.03586 z m 0,-0.327273 c 0.0015,-0.03138 0.0092,-0.03885 0.0167,-0.01644 0.0092,0.01943 0.0077,0.04334 -0.0015,0.0523 -0.0092,0.009 -0.01517,-0.0075 -0.01517,-0.03586 z M 7.4662478,8.7689896 c 0.019731,-0.019425 0.040975,-0.026897 0.050084,-0.019425 0.00915,0.00897 -0.00761,0.023911 -0.034902,0.034369 -0.039452,0.014944 -0.042488,0.011953 -0.015172,-0.014944 z M 8.637791,8.106972 c 0,-0.00598 0.02277,-0.026897 0.04856,-0.047821 0.04401,-0.034369 0.04552,-0.032878 0.01062,0.010458 -0.03642,0.044832 -0.05917,0.059776 -0.05917,0.037359 z M 9.109748,7.6422145 c 0,-0.00598 0.02124,-0.026897 0.04856,-0.04782 0.04401,-0.032878 0.04401,-0.032878 0.0092,0.010458 -0.0349,0.046326 -0.05767,0.059776 -0.05767,0.037359 z M 6.7378274,6.9084663 6.6285649,6.7933974 6.7469334,6.900994 c 0.1092625,0.1001247 0.1305086,0.1240352 0.1092625,0.1240352 -0.00456,0 -0.057669,-0.052304 -0.1183685,-0.1165629 z m 0.9363245,-0.688917 c 0,-0.044832 0.0061,-0.059776 0.013658,-0.032878 0.0061,0.026897 0.0061,0.062765 -0.00151,0.082192 -0.00761,0.017934 -0.013658,-0.00449 -0.012136,-0.049315 z M 7.6422859,5.890782 c 0.00151,-0.032878 0.00761,-0.038855 0.016694,-0.016439 0.00761,0.019425 0.00761,0.043338 -0.00151,0.052304 -0.00915,0.00897 -0.016694,-0.00747 -0.015172,-0.035865 z M 9.973232,5.769736 c 0,-0.037363 0.0062,-0.052304 0.01366,-0.034369 0.0077,0.019425 0.0077,0.049315 0,0.068742 -0.0077,0.01793 -0.01366,0.00298 -0.01366,-0.034369 z m 0,-0.449813 c 0.0015,-0.044832 0.0077,-0.06127 0.01366,-0.034369 0.0077,0.026897 0.0077,0.064259 0,0.082192 -0.0077,0.01793 -0.01366,-0.00298 -0.01366,-0.047821 z M 5.6467162,4.4980047 c 0.00151,-0.031383 0.00761,-0.037363 0.016694,-0.016439 0.00915,0.019425 0.00761,0.043337 -0.00151,0.052304 -0.00915,0.00897 -0.016694,-0.00598 -0.015171,-0.035864 z M 6.971531,4.4397237 c -0.034902,-0.043338 -0.033389,-0.044832 0.010622,-0.010458 0.045525,0.035864 0.060706,0.058281 0.037938,0.058281 -0.0061,0 -0.027316,-0.022416 -0.048561,-0.04782 z m -0.2200432,-0.2465755 -0.066769,-0.074719 0.075878,0.065753 c 0.071327,0.062765 0.088013,0.085181 0.066769,0.085181 -0.00456,0 -0.039452,-0.034369 -0.075878,-0.076214 z M 5.6467162,4.1707322 c 0.00151,-0.031383 0.00761,-0.038855 0.016694,-0.016439 0.00915,0.019425 0.00761,0.043337 -0.00151,0.052304 -0.00915,0.00897 -0.016694,-0.00747 -0.015171,-0.035864 z M 6.5284093,4.001865 c -0.034902,-0.041843 -0.03339,-0.043337 0.010622,-0.00897 0.045524,0.034369 0.060706,0.056787 0.037938,0.056787 -0.0061,0 -0.027317,-0.02092 -0.048561,-0.047821 z M 3.4417273,3.613321 c 0.091048,-0.089664 0.1699643,-0.1628892 0.1775521,-0.1628892 0.00761,0 -0.059184,0.073225 -0.1502364,0.1628892 -0.091048,0.089664 -0.1699655,0.1643837 -0.1775532,0.1643837 -0.00761,0 0.059183,-0.07472 0.1502375,-0.1643837 z M 9.161345,3.184429 c -0.0349,-0.043337 -0.03339,-0.044832 0.01062,-0.010458 0.0258,0.019425 0.04856,0.041843 0.04856,0.047821 0,0.022416 -0.02277,0.00747 -0.05917,-0.037359 z M 8.745539,2.7749646 c -0.0349,-0.043337 -0.03339,-0.044832 0.01062,-0.010458 0.04553,0.035864 0.06071,0.058282 0.03794,0.058282 -0.0062,0 -0.02732,-0.022416 -0.04856,-0.047821 z M 6.3872777,2.0666207 c 0.021244,-0.00747 0.044011,-0.00747 0.053111,0.00151 0.010622,0.010462 -0.0061,0.016439 -0.036425,0.014944 -0.031866,-0.00151 -0.037939,-0.00747 -0.016694,-0.016439 z m 0.6935169,0 c 0.019721,-0.00747 0.044011,-0.00747 0.053111,0.00151 0.00915,0.010462 -0.00761,0.016439 -0.036425,0.014944 -0.031866,-0.00151 -0.039452,-0.00747 -0.016694,-0.016439 z m 0,0"
     id="path4155-7" />
  <path
     style="fill:#4cb5ab;fill-opacity:1;fill-rule:nonzero;stroke:none;stroke-width:0.385517"
     d="m 10.358686,12.2599 c -0.327791,-0.138979 -0.450711,-0.60822 -0.24736,-0.932504 0.200316,-0.319801 0.591841,-0.419926 0.839201,-0.215193 0.04401,0.03586 0.107746,0.130012 0.14265,0.209215 0.05312,0.119552 0.06071,0.177834 0.05008,0.367622 -0.01516,0.279452 -0.106228,0.446824 -0.295921,0.545454 -0.139614,0.07323 -0.353588,0.08369 -0.488648,0.02541 z m 0.48713,-2.003986 c -0.274675,-0.07621 -0.28985,-1.1596514 -0.04097,-3.1158164 0.133543,-1.0535493 0.198799,-1.3315071 0.371798,-1.5855545 0.110782,-0.1628893 0.230667,-0.2361144 0.473473,-0.2869244 0.418842,-0.086675 0.921149,0.019425 1.276254,0.2704859 0.399114,0.2809466 0.45678,0.5125779 0.261018,1.0565385 C 12.994659,7.1311314 12.522703,8.06214 11.98701,8.9692383 11.508985,9.774718 11.231275,10.1528 11.055239,10.234992 c -0.101676,0.04782 -0.107745,0.04782 -0.209421,0.02093 z m 0,0"
     id="path4157-5" />
  <path
     style="fill:#4cb5ab;fill-opacity:1;fill-rule:nonzero;stroke:none;stroke-width:0.385517"
     d="M 6.7833538,1.5002456 C 6.422179,1.4957656 6.0518982,1.5525496 5.6801004,1.6721015 4.7619867,1.9650027 3.3764699,2.9572818 3.0926896,3.5251528 c -0.08195,0.1643837 -0.094085,0.2166876 -0.092572,0.3810709 0.00151,0.2630136 0.050074,0.3870488 0.4491923,1.1745957 1.1017365,2.1743467 2.4174454,4.5997516 3.1322085,5.7728526 0.6176406,1.01619 0.8619642,1.300125 1.2064464,1.406228 0.1547899,0.04782 0.2306674,0.04782 0.4021488,-0.0015 C 8.5012107,12.16724 8.627166,11.926643 8.602886,11.470853 8.584678,11.121164 8.5755687,11.094265 7.9670351,9.543081 7.6923596,8.8451984 7.4662458,8.2579007 7.4632116,8.2369794 7.4616882,8.2160584 7.5588197,8.1592704 7.6969131,8.0994949 8.4875524,7.7617609 9.141614,7.1744635 9.599911,6.3854222 9.880657,5.9057209 9.968674,5.5664929 9.968674,4.9612626 9.968674,4.1632546 9.778982,3.5116978 9.376834,2.9169281 9.052078,2.4357197 8.631719,2.0666038 8.1248594,1.8200283 7.6999473,1.6123073 7.2492378,1.5062051 6.7833518,1.5002276 Z m -0.7709114,1.711084 c 0.2306663,0 0.44464,0.1195516 0.7511836,0.419925 0.4188414,0.4094649 0.7011047,0.8816942 0.8407192,1.4062271 0.091048,0.3377336 0.103193,0.8562894 0.027317,1.1013705 -0.051597,0.1673725 -0.173,0.3257782 -0.2989562,0.3900372 C 7.2279948,6.5826874 7.0656182,6.5767104 6.9472496,6.5154364 6.7363113,6.4063454 6.391829,5.9640044 6.1596447,5.5082131 5.8515839,4.9029828 5.6785842,4.3530447 5.6543029,3.8942651 5.6269863,3.4026089 5.7271439,3.211326 6.0124434,3.211326 Z m 0,0"
     id="path4159-3" />
  <path
     style="fill:#4cb5ab;fill-opacity:1;fill-rule:nonzero;stroke:none;stroke-width:0.385517"
     d="m 4.827241,13.361269 h 8.094574 c 0.318684,0 0.578185,0.255542 0.578185,0.569365 C 13.5,14.244458 13.240499,14.5 12.921815,14.5 H 4.827241 c -0.3186837,0 -0.5781838,-0.255542 -0.5781838,-0.569366 0,-0.313823 0.2595001,-0.569365 0.5781838,-0.569365 z m 0,0"
     id="path4161-5" />
</svg>
