<?xml version="1.0" encoding="UTF-8" standalone="no"?>
<svg
   width="16"
   height="16"
   viewBox="0 0 16 16"
   fill="none"
   version="1.1"
   id="svg26"
   sodipodi:docname="strawberry.svg"
   inkscape:version="1.3 (0e150ed6c4, 2023-07-21)"
   xmlns:inkscape="http://www.inkscape.org/namespaces/inkscape"
   xmlns:sodipodi="http://sodipodi.sourceforge.net/DTD/sodipodi-0.dtd"
   xmlns="http://www.w3.org/2000/svg"
   xmlns:svg="http://www.w3.org/2000/svg">
  <sodipodi:namedview
     id="namedview26"
     pagecolor="#ffffff"
     bordercolor="#000000"
     borderopacity="0.25"
     inkscape:showpageshadow="2"
     inkscape:pageopacity="0.0"
     inkscape:pagecheckerboard="0"
     inkscape:deskcolor="#d1d1d1"
     inkscape:zoom="23.96875"
     inkscape:cx="9.26206"
     inkscape:cy="9.0743155"
     inkscape:window-width="1920"
     inkscape:window-height="994"
     inkscape:window-x="0"
     inkscape:window-y="0"
     inkscape:window-maximized="1"
     inkscape:current-layer="svg26" />
  <path
     d="m 8.86501,2.0225583 c -0.15084,-0.002 -0.345464,0.01313 -0.611076,0.04253 -1.880419,0.208056 -3.449085,1.413829 -5.243513,4.029945 -0.54182,0.789918 -1.238204,1.804458 -1.547468,2.254637 -1.30282903,1.8964317 -1.24670303,3.8426637 0.134429,4.6610567 0.892626,0.528918 1.755172,0.738666 3.12061,0.759234 0.686286,0.01035 1.691122,0.06116 2.23294,0.112856 1.511714,0.144192 1.700986,0.140838 2.7650296,-0.05112 1.1909074,-0.214817 2.1095934,-0.662239 2.8473754,-1.386186 0.579281,-0.568418 1.406519,-2.141833 1.536189,-2.8297377 1.086368,-3.345213 -2.755375,-7.423862 -5.234516,-7.593223 z"
     stroke="url(#paint0_linear)"
     stroke-width="1.04473"
     id="path1"
     style="stroke:url(#paint0_linear)" />
  <path
     d="m 9.7736226,1.5022983 c -0.06988,0 -0.09011,0.133293 -0.04707,0.309313 0,0 0.123821,0.56166 0.9545464,0.973041 0.57776,0.267396 0.576737,0.421937 -0.0038,0.582304 -0.253019,0.06987 -0.560472,0.202413 -0.6831654,0.294442 -0.202362,0.151783 -0.128516,0.214375 0.7946024,0.674929 0.559712,0.279255 1.121365,0.589168 1.247992,0.688841 0.219835,0.173003 0.209813,0.197238 -0.219099,0.532819 -0.478808,0.374612 -1.045288,1.250447 -1.045288,1.616033 0,0.197656 0.09346,0.2137 0.882039,0.151369 0.485131,-0.03835 1.018923,-0.08662 1.186211,-0.107239 l 0.304174,-0.03755 -0.0435,0.994231 c -0.02387,0.546783 -0.09378,1.130203 -0.155405,1.2965 -0.06161,0.166268 -0.08731,0.327725 -0.05702,0.358774 0.12752,0.1307987 0.647644,-0.157868 1.004416,-0.557445 0.364773,-0.408468 0.387962,-0.416867 0.465508,-0.166215 0.261177,0.449346 0.376787,0.8429397 0.782064,1.2367157 0.09051,0.0083 0.159548,-0.100036 0.21763,-0.323409 0.178752,-0.6877237 0.08301,-1.3533957 -0.293471,-2.0408867 -0.202862,-0.37045 -0.401577,-0.954262 -0.44174,-1.29746 -0.04017,-0.343199 -0.106324,-0.74241 -0.146854,-0.887226 -0.06157,-0.22007 0.05782,-0.348503 0.726896,-0.781935 0.761811,-0.493527 0.958428,-0.774316 0.670309,-0.956967 -0.07156,-0.04536 -0.448614,0.09177 -0.838071,0.304687 -0.389457,0.212946 -0.784687,0.387067 -0.878259,0.387067 -0.09357,0 -0.387177,-0.266565 -0.652263,-0.592289 -0.460734,-0.56613 -0.481902,-0.630828 -0.481902,-1.466383 0,-0.793916 -0.0235,-0.8775 -0.256404,-0.911606 -0.188223,-0.02757 -0.297275,0.06369 -0.410129,0.343188 -0.08458,0.209409 -0.196409,0.38075 -0.24856,0.38075 -0.05213,0 -0.57107,-0.224648 -1.153184,-0.499205 -0.582062,-0.274551 -1.1136774,-0.499188 -1.1811764,-0.499188 z"
     fill="url(#paint1_linear)"
     id="path2"
     style="fill:url(#paint1_linear);stroke-width:0.261182" />
  <path
     d="m 8.836101,5.4209213 c -0.302704,0.300084 -0.768973,0.324398 -1.04143,0.05435 -0.272433,-0.270076 -0.247904,-0.732267 0.05483,-1.032326 0.302705,-0.300085 0.923093,-0.477171 1.195525,-0.207095 0.272457,0.27005 0.09382,0.885015 -0.208922,1.185074 z"
     fill="url(#paint2_linear)"
     id="path3"
     style="fill:url(#paint2_linear);stroke-width:0.261182" />
  <path
     d="m 7.786774,8.0213043 c -0.302704,0.300084 -0.768973,0.324398 -1.04143,0.05434 -0.272433,-0.270076 -0.247904,-0.732269 0.05483,-1.032328 0.302705,-0.300083 0.923094,-0.477169 1.195525,-0.207093 0.272457,0.27005 0.09382,0.885014 -0.208922,1.185072 z"
     fill="url(#paint3_linear)"
     id="path4"
     style="fill:url(#paint3_linear);stroke-width:0.261182" />
  <path
     d="m 11.459419,9.5815343 c -0.302704,0.3000838 -0.768972,0.3243968 -1.041431,0.05434 -0.272431,-0.270075 -0.247904,-0.732267 0.05483,-1.032325 0.302704,-0.300084 0.923093,-0.47717 1.195524,-0.207094 0.272458,0.27005 0.09382,0.885013 -0.208922,1.185072 z"
     fill="url(#paint4_linear)"
     id="path5"
     style="fill:url(#paint4_linear);stroke-width:0.261182" />
  <path
     d="m 10.410092,12.181918 c -0.302705,0.300084 -0.7689734,0.324398 -1.041432,0.05435 -0.272431,-0.270076 -0.247903,-0.732269 0.05483,-1.032327 0.3027036,-0.300084 0.923093,-0.47717 1.195524,-0.207095 0.272458,0.27005 0.09382,0.885016 -0.208921,1.185075 z"
     fill="url(#paint5_linear)"
     id="path6"
     style="fill:url(#paint5_linear);stroke-width:0.261182" />
  <path
     d="m 7.26211,11.661841 c -0.302704,0.300084 -0.768972,0.324398 -1.04143,0.05435 -0.272432,-0.270077 -0.247904,-0.732269 0.05483,-1.032327 0.302705,-0.300085 0.923094,-0.477171 1.195524,-0.207096 0.272458,0.27005 0.09382,0.885016 -0.208921,1.185074 z"
     fill="url(#paint6_linear)"
     id="path7"
     style="fill:url(#paint6_linear);stroke-width:0.261182" />
  <path
     d="M 4.11413,10.621688 C 3.811425,10.921772 3.345157,10.946086 3.0727,10.676028 2.800268,10.405953 2.824796,9.9437591 3.12753,9.6437013 3.430235,9.3436173 4.050623,9.1665313 4.323055,9.4366073 4.595513,9.7066563 4.416875,10.321621 4.114134,10.62168 Z"
     fill="url(#paint7_linear)"
     id="path8"
     style="fill:url(#paint7_linear);stroke-width:0.261182" />
  <path
     d="m 5.163457,7.5012283 c -0.302705,0.300083 -0.768973,0.324397 -1.04143,0.05434 -0.272432,-0.270076 -0.247904,-0.732268 0.05483,-1.032326 0.302705,-0.300084 0.923093,-0.47717 1.195525,-0.207094 0.272458,0.27005 0.09382,0.885014 -0.208921,1.185073 z"
     fill="url(#paint8_linear)"
     id="path9"
     style="fill:url(#paint8_linear);stroke-width:0.261182" />
  <defs
     id="defs26">
    <linearGradient
       id="paint0_linear"
       x1="2.99231"
       y1="32.318501"
       x2="55.464802"
       y2="32.318501"
       gradientUnits="userSpaceOnUse"
       gradientTransform="matrix(0.26233176,0,0,0.26003835,-0.26458103,-0.57800666)">
      <stop
         stop-color="#FD3A84"
         id="stop9" />
      <stop
         offset="1"
         stop-color="#FFA68D"
         id="stop10" />
    </linearGradient>
    <linearGradient
       id="paint1_linear"
       x1="50"
       y1="42"
       x2="50"
       y2="8"
       gradientUnits="userSpaceOnUse"
       gradientTransform="matrix(0.26233176,0,0,0.26003835,-0.26458103,-0.57800666)">
      <stop
         stop-color="#00B59C"
         id="stop11" />
      <stop
         offset="1"
         stop-color="#9CFFAC"
         id="stop12" />
    </linearGradient>
    <linearGradient
       id="paint2_linear"
       x1="29.9991"
       y1="20.9111"
       x2="35.998699"
       y2="20.9111"
       gradientUnits="userSpaceOnUse"
       gradientTransform="matrix(0.26233176,0,0,0.26003835,-0.26458103,-0.57800666)">
      <stop
         stop-color="#FD3A84"
         id="stop13" />
      <stop
         offset="1"
         stop-color="#FFA68D"
         id="stop14" />
    </linearGradient>
    <linearGradient
       id="paint3_linear"
       x1="25.9991"
       y1="30.9111"
       x2="31.998699"
       y2="30.9111"
       gradientUnits="userSpaceOnUse"
       gradientTransform="matrix(0.26233176,0,0,0.26003835,-0.26458103,-0.57800666)">
      <stop
         stop-color="#FD3A84"
         id="stop15" />
      <stop
         offset="1"
         stop-color="#FFA68D"
         id="stop16" />
    </linearGradient>
    <linearGradient
       id="paint4_linear"
       x1="39.9991"
       y1="36.911098"
       x2="45.998699"
       y2="36.911098"
       gradientUnits="userSpaceOnUse"
       gradientTransform="matrix(0.26233176,0,0,0.26003835,-0.26458103,-0.57800666)">
      <stop
         stop-color="#FD3A84"
         id="stop17" />
      <stop
         offset="1"
         stop-color="#FFA68D"
         id="stop18" />
    </linearGradient>
    <linearGradient
       id="paint5_linear"
       x1="35.9991"
       y1="46.911098"
       x2="41.998699"
       y2="46.911098"
       gradientUnits="userSpaceOnUse"
       gradientTransform="matrix(0.26233176,0,0,0.26003835,-0.26458103,-0.57800666)">
      <stop
         stop-color="#FD3A84"
         id="stop19" />
      <stop
         offset="1"
         stop-color="#FFA68D"
         id="stop20" />
    </linearGradient>
    <linearGradient
       id="paint6_linear"
       x1="23.9991"
       y1="44.911098"
       x2="29.998699"
       y2="44.911098"
       gradientUnits="userSpaceOnUse"
       gradientTransform="matrix(0.26233176,0,0,0.26003835,-0.26458103,-0.57800666)">
      <stop
         stop-color="#FD3A84"
         id="stop21" />
      <stop
         offset="1"
         stop-color="#FFA68D"
         id="stop22" />
    </linearGradient>
    <linearGradient
       id="paint7_linear"
       x1="11.9991"
       y1="40.911098"
       x2="17.998699"
       y2="40.911098"
       gradientUnits="userSpaceOnUse"
       gradientTransform="matrix(0.26233176,0,0,0.26003835,-0.26458103,-0.57800666)">
      <stop
         stop-color="#FD3A84"
         id="stop23" />
      <stop
         offset="1"
         stop-color="#FFA68D"
         id="stop24" />
    </linearGradient>
    <linearGradient
       id="paint8_linear"
       x1="15.9991"
       y1="28.9111"
       x2="21.998699"
       y2="28.9111"
       gradientUnits="userSpaceOnUse"
       gradientTransform="matrix(0.26233176,0,0,0.26003835,-0.26458103,-0.57800666)">
      <stop
         stop-color="#FD3A84"
         id="stop25" />
      <stop
         offset="1"
         stop-color="#FFA68D"
         id="stop26" />
    </linearGradient>
  </defs>
</svg>
