<?xml version="1.0" encoding="UTF-8" standalone="no"?>
<svg
   viewBox="0 0 16 16"
   version="1.1"
   id="svg20"
   sodipodi:docname="symboleditor.svg"
   inkscape:version="1.3 (0e150ed6c4, 2023-07-21)"
   width="16"
   height="16"
   xmlns:inkscape="http://www.inkscape.org/namespaces/inkscape"
   xmlns:sodipodi="http://sodipodi.sourceforge.net/DTD/sodipodi-0.dtd"
   xmlns:xlink="http://www.w3.org/1999/xlink"
   xmlns="http://www.w3.org/2000/svg"
   xmlns:svg="http://www.w3.org/2000/svg">
  <defs
     id="defs24">
    <linearGradient
       gradientTransform="matrix(1.049963,0,0,1.0499041,-513.12043,-496.92081)"
       gradientUnits="userSpaceOnUse"
       x2="426.69501"
       y2="499.92099"
       y1="547.67499"
       id="a-6"
       x1="389.32001">
      <stop
         stop-color="#18222a"
         style="stop-color:#1e2b35;stop-opacity:1"
         id="stop216-3" />
      <stop
         stop-color="#566069"
         offset="1"
         style="stop-color:#6d7983;stop-opacity:1"
         id="stop218" />
    </linearGradient>
    <linearGradient
       id="d"
       gradientUnits="userSpaceOnUse"
       x1="27"
       x2="25.42725"
       y1="28"
       y2="32.71825"
       gradientTransform="translate(-58.575692,-29.333333)">
      <stop
         offset="0"
         stop-color="#b1621e"
         id="stop231" />
      <stop
         offset="1"
         stop-color="#ffa21d"
         id="stop233" />
    </linearGradient>
    <linearGradient
       id="c"
       gradientTransform="matrix(2.0428665,-6.8308524,5.7819337,2.3633129,-33.356582,5.3194785)"
       gradientUnits="userSpaceOnUse"
       x1="24"
       x2="24"
       y1="35"
       y2="13">
      <stop
         offset="0"
         stop-color="#cd7223"
         id="stop224" />
      <stop
         offset=".53"
         stop-color="#f48e00"
         id="stop226" />
      <stop
         offset="1"
         stop-color="#ffa92d"
         id="stop228" />
    </linearGradient>
    <linearGradient
       inkscape:collect="always"
       xlink:href="#linearGradient1"
       id="linearGradient2"
       x1="10.707618"
       y1="18.301517"
       x2="37.173615"
       y2="44.767513"
       gradientUnits="userSpaceOnUse"
       gradientTransform="matrix(0.49119628,0,0,0.49119634,-3.759541,-7.48964)" />
    <linearGradient
       id="linearGradient1"
       inkscape:collect="always">
      <stop
         style="stop-color:#ffd42a;stop-opacity:1"
         offset="0"
         id="stop1" />
      <stop
         style="stop-color:#c779d0;stop-opacity:1;"
         offset="0.46874997"
         id="stop6-8" />
      <stop
         style="stop-color:#4bc0c8;stop-opacity:1;"
         offset="1"
         id="stop2-9" />
    </linearGradient>
    <linearGradient
       inkscape:collect="always"
       xlink:href="#linearGradient1"
       id="linearGradient6"
       x1="4.7500005"
       y1="8"
       x2="11.25"
       y2="8"
       gradientUnits="userSpaceOnUse" />
  </defs>
  <sodipodi:namedview
     id="namedview22"
     pagecolor="#ffffff"
     bordercolor="#666666"
     borderopacity="1.0"
     inkscape:showpageshadow="2"
     inkscape:pageopacity="0.0"
     inkscape:pagecheckerboard="0"
     inkscape:deskcolor="#d1d1d1"
     showgrid="false"
     inkscape:zoom="15.91909"
     inkscape:cx="10.113644"
     inkscape:cy="9.3284228"
     inkscape:window-width="1920"
     inkscape:window-height="994"
     inkscape:window-x="0"
     inkscape:window-y="0"
     inkscape:window-maximized="1"
     inkscape:current-layer="svg20" />
  <linearGradient
     id="a"
     gradientUnits="userSpaceOnUse"
     x1="4"
     x2="4"
     y1="3"
     y2="45"
     gradientTransform="translate(-67.596829,-16.220337)">
    <stop
       offset="0"
       stop-color="#2a2c2f"
       id="stop2" />
    <stop
       offset="1"
       stop-color="#536161"
       id="stop4" />
  </linearGradient>
  <linearGradient
     id="b"
     gradientUnits="userSpaceOnUse"
     x1="4"
     x2="4"
     y1="3"
     y2="45"
     gradientTransform="translate(-67.596829,-16.220337)">
    <stop
       offset="0"
       stop-color="#292c2f"
       id="stop7" />
    <stop
       offset="1"
       stop-opacity="0"
       id="stop9" />
  </linearGradient>
  <path
     id="circle2"
     style="opacity:0.99;fill:url(#linearGradient2);fill-opacity:1;stroke-width:0.491196"
     d="M 14.5,8 A 6.4999994,6.5000002 0 0 1 8,14.5 6.4999994,6.5000002 0 0 1 1.5,8 6.4999994,6.5000002 0 0 1 8,1.5 6.4999994,6.5000002 0 0 1 14.5,8 Z" />
  <path
     id="circle858"
     style="fill:#1c202f;fill-opacity:1;stroke-width:0.417883"
     d="M 13.529826,8 A 5.5298259,5.529827 0 0 1 8,13.52983 5.5298259,5.529827 0 0 1 2.470174,8 5.5298259,5.529827 0 0 1 8,2.47017 5.5298259,5.529827 0 0 1 13.529826,8 Z" />
  <path
     d="m 4.7500005,4.75 v 2.84375 h 2.843749 V 4.75 Z m 4.0117171,0 L 8.4062495,5.1054687 9.4726565,6.171875 8.4062495,7.2382812 8.7617176,7.59375 9.8281245,6.5273437 10.894532,7.59375 11.25,7.2382812 10.183595,6.171875 11.25,5.1054687 10.894532,4.75 9.8281245,5.8164062 Z M 5.1562505,5.15625 h 2.031249 V 7.1875 h -2.031249 z m 0.812499,3.25 V 9.625 h -1.218749 v 0.40625 h 1.218749 V 11.25 h 0.40625 v -1.21875 h 1.21875 V 9.625 h -1.21875 V 8.40625 Z m 3.859375,0 A 1.421875,1.421875 0 0 0 8.4062495,9.828125 1.421875,1.421875 0 0 0 9.8281245,11.25 1.421875,1.421875 0 0 0 11.25,9.828125 1.421875,1.421875 0 0 0 9.8281245,8.40625 Z m 0,0.40625 A 1.015625,1.015625 0 0 1 10.84375,9.828125 1.015625,1.015625 0 0 1 9.8281245,10.84375 1.015625,1.015625 0 0 1 8.8124995,9.828125 1.015625,1.015625 0 0 1 9.8281245,8.8125 Z"
     id="path16-3-5-9"
     style="fill:url(#linearGradient6);fill-opacity:1" />
</svg>
