<?xml version="1.0" encoding="UTF-8" standalone="no"?>
<svg
   width="16"
   height="16"
   viewBox="0 0 16 16"
   fill="none"
   version="1.1"
   id="svg2"
   sodipodi:docname="synfig_icon.svg"
   inkscape:version="1.3 (0e150ed6c4, 2023-07-21)"
   xmlns:inkscape="http://www.inkscape.org/namespaces/inkscape"
   xmlns:sodipodi="http://sodipodi.sourceforge.net/DTD/sodipodi-0.dtd"
   xmlns="http://www.w3.org/2000/svg"
   xmlns:svg="http://www.w3.org/2000/svg">
  <sodipodi:namedview
     id="namedview2"
     pagecolor="#ffffff"
     bordercolor="#000000"
     borderopacity="0.25"
     inkscape:showpageshadow="2"
     inkscape:pageopacity="0.0"
     inkscape:pagecheckerboard="0"
     inkscape:deskcolor="#d1d1d1"
     inkscape:zoom="11.984375"
     inkscape:cx="13.934811"
     inkscape:cy="23.906128"
     inkscape:window-width="1920"
     inkscape:window-height="994"
     inkscape:window-x="0"
     inkscape:window-y="0"
     inkscape:window-maximized="1"
     inkscape:current-layer="svg2" />
  <path
     fill-rule="evenodd"
     clip-rule="evenodd"
     d="m 8.0194591,1.5000588 c 0,0 0,0 0,0 -0.04851,-0.0013 -0.095292,0.015601 -0.1288778,0.045755 -0.3837887,0.3444838 -0.7677173,0.7213326 -1.1333611,1.0942486 -0.048324,0.049315 -0.06936,0.1166549 -0.057139,0.1824123 l 1.0731432,5.7781461 c 0.044589,0.2400916 0.4154602,0.2398314 0.4596787,-3.035e-4 L 9.2949918,2.8324175 C 9.3069318,2.7675095 9.2864918,2.7010674 9.2394418,2.651861 8.8817738,2.2780084 8.5211673,1.905344 8.1410173,1.548359 8.1097663,1.518899 8.0658253,1.501295 8.0194625,1.500059 c 0,0 0,0 0,0 z M 8.6700993,8.736732 C 8.5420141,8.9495493 8.8308817,9.1664859 9.0277209,9.0053119 L 11.900537,6.6535245 c 0.07638,-0.06257 0.100566,-0.1641225 0.05795,-0.250108 C 11.747638,5.9777819 11.502664,5.5524074 11.230869,5.1327133 11.139814,4.9920796 10.92059,4.9975388 10.834391,5.1407833 Z M 9.4060052,9.2277121 C 9.1639681,9.3339906 9.2738615,9.6737265 9.5388005,9.6383437 L 12.730524,9.2119286 C 12.866633,9.1937606 12.956516,9.0705273 12.922186,8.9467741 12.838318,8.6443724 12.74741,8.3539383 12.648944,8.0702253 12.606167,7.9470358 12.456395,7.8881511 12.330502,7.9434368 Z M 9.5461713,10.053485 C 9.2811388,10.017365 9.1704052,10.357231 9.4124883,10.4639 l 3.9022077,1.719146 c 0.009,0.0039 0.01849,0.0055 0.02816,0.0047 v 0 c 0.08896,-0.0063 0.15719,-0.07068 0.157143,-0.147428 v -0.0483 c 0,-0.116251 -0.03235,-0.355823 -0.07589,-0.653281 -0.02193,-0.14977 -0.04936,-0.294944 -0.07517,-0.449917 l -0.05656,-0.193435 c -0.02433,-0.08321 -0.09943,-0.14513 -0.19124,-0.157618 z m -0.4649038,0.721403 c -0.1944594,-0.168155 -0.4916763,0.04822 -0.3627051,0.264027 l 1.1881194,1.987986 c 0.02792,0.04679 0.08811,0.06808 0.1424072,0.05039 v 0 c 0.0077,-0.0025 0.01487,-0.0056 0.02176,-0.0095 0.249405,-0.138453 0.493868,-0.257263 0.741595,-0.358945 0.159244,-0.06535 0.20155,-0.26277 0.07409,-0.372951 z m -0.8536353,0.231636 c -0.045569,-0.2371 -0.410842,-0.238661 -0.4587923,-0.002 l -0.5655611,2.792555 c -0.015487,0.07645 0.014275,0.15467 0.078271,0.204752 0.064135,0.05021 0.1290177,0.101119 0.2008034,0.160307 0.104483,0.08612 0.2015962,0.163993 0.2752937,0.221793 0.036805,0.02892 0.06773,0.05273 0.091981,0.07055 0.012082,0.0088 0.021971,0.01635 0.032885,0.0235 0.00546,0.0035 0.010914,0.007 0.020149,0.01214 v 0 c 0.00344,0.0018 0.00739,0.0028 0.011239,0.0034 l 0.02351,0.0039 c 0.042959,0.0071 0.087226,-5.2e-4 0.1246335,-0.02133 l 0.1987971,-0.1108 c 0.010509,-0.0059 0.020477,-0.01244 0.029849,-0.01973 0.074395,-0.05797 0.1625552,-0.127136 0.2605078,-0.207007 0.056206,-0.04588 0.098327,-0.07775 0.1396063,-0.108967 0.064135,-0.04848 0.093847,-0.125618 0.079296,-0.201283 z m -0.9653953,0.07016 C 7.3924677,10.860136 7.0926852,10.642939 6.8985988,10.813219 l -1.8848085,1.653584 c -0.065242,0.05728 -0.0428,0.156317 0.04019,0.187971 v 0 c 0.06264,0.02393 0.1203934,0.04575 0.1631429,0.06166 0.02138,0.0079 0.038393,0.01422 0.051701,0.01908 0.00616,0.0022 0.012103,0.0039 0.01713,0.0057 2.098e-4,8.7e-5 3.92e-4,1.74e-4 5.459e-4,3.47e-4 v 0 c 2.659e-4,2.6e-4 6.437e-4,3.9e-4 0.00104,3.9e-4 h 3.26e-5 7.91e-5 c 3.778e-4,0 7.465e-4,8.7e-5 0.00109,2.6e-4 0.0013,6.07e-4 0.0025,0.0013 0.00445,0.0021 5.925e-4,2.6e-4 0.00103,-2.6e-4 4.06e-4,-4.77e-4 v 0 c 9.515e-4,3.04e-4 0.00148,3.04e-4 0.00266,6.51e-4 0.00215,6.5e-4 0.0042,0.0018 0.00944,0.0032 0.00121,3.03e-4 0.00249,7.8e-4 0.00395,0.0013 3.267e-4,1.3e-4 9.35e-5,0.0011 -2.796e-4,0.0011 v 0 c -3.732e-4,0 -6.999e-4,0.0013 -3.266e-4,0.0015 0.011334,0.0052 0.024767,0.01179 0.042353,0.02008 0.045896,0.02172 0.1084948,0.0513 0.1772016,0.08455 0.1014993,0.04904 0.199124,0.09873 0.2944647,0.14977 0.1150245,0.06153 0.2631201,0.02602 0.3279087,-0.08169 z M 6.8471036,10.408528 c 0.2305157,-0.11261 0.1193159,-0.4384269 -0.13886,-0.406903 l -3.816014,0.466091 c -0.1007922,0.01232 -0.1814973,0.08386 -0.1986017,0.177044 -0.050215,0.273567 -0.098608,0.566776 -0.1338267,0.81593 -0.022879,0.161825 -0.040964,0.303616 -0.051029,0.408637 -0.00489,0.05147 -0.0079,0.09323 -0.00873,0.127743 -1.89e-5,6.93e-4 1.38e-5,0.002 0,0.0024 -2.055e-4,0.01427 3.449e-4,0.02719 0.00204,0.04262 9.843e-4,0.0091 0.00142,0.01847 0.00671,0.03491 0.00527,0.01652 0.00101,0.05 0.077882,0.09089 0.04148,0.02207 0.047444,0.01756 0.057737,0.01969 0.010268,0.0021 0.017822,0.0039 0.026186,0.0051 0.016739,0.0023 0.034764,0.0039 0.055051,0.0058 0.040581,0.0036 0.090609,0.007 0.1436736,0.0095 0.056582,0.0027 0.1197683,0.0077 0.1841607,0.0134 0.045428,0.004 0.091155,-0.0042 0.1315459,-0.02394 z M 6.4029573,9.6108092 C 6.6691559,9.6494872 6.7821282,9.3074102 6.5384588,9.2005245 L 3.6719436,7.94322 C 3.5461116,7.888021 3.3964815,7.94682 3.3537276,8.0698784 3.2611716,8.3363336 3.1754485,8.609163 3.0959858,8.8925725 c -0.034456,0.122886 0.05372,0.2457286 0.1886944,0.2653279 z M 6.9364272,8.9254837 C 7.1310268,9.092815 7.4272643,8.8766589 7.2987128,8.6611532 L 5.1820312,5.1132267 C 5.0963365,4.9695924 4.8770668,4.9635261 4.7860639,5.1043116 4.5354072,5.4920918 4.3095142,5.8865063 4.1058654,6.2884657 c -0.042922,0.084728 -0.02106,0.1853262 0.052886,0.2488939 z"
     fill="url(#paint0_linear)"
     id="path1"
     style="fill:url(#paint0_linear);stroke-width:0.449729" />
  <defs
     id="defs2">
    <linearGradient
       id="paint0_linear"
       x1="15.7913"
       y1="31"
       x2="15.7913"
       y2="1"
       gradientUnits="userSpaceOnUse"
       gradientTransform="matrix(0.46644218,0,0,0.4336131,0.63423507,1.0663764)">
      <stop
         stop-color="#5570FF"
         id="stop1" />
      <stop
         offset="1"
         stop-color="#4DD3FF"
         id="stop2" />
    </linearGradient>
  </defs>
</svg>
