<?xml version="1.0" encoding="UTF-8" standalone="no"?>
<svg
   style="isolation:isolate"
   width="16"
   height="16"
   viewBox="0 0 16 16"
   version="1.1"
   id="svg1"
   sodipodi:docname="tigervnc.svg"
   inkscape:version="1.3 (0e150ed6c4, 2023-07-21)"
   xmlns:inkscape="http://www.inkscape.org/namespaces/inkscape"
   xmlns:sodipodi="http://sodipodi.sourceforge.net/DTD/sodipodi-0.dtd"
   xmlns:xlink="http://www.w3.org/1999/xlink"
   xmlns="http://www.w3.org/2000/svg"
   xmlns:svg="http://www.w3.org/2000/svg">
  <defs
     id="defs1">
    <linearGradient
       id="linearGradient1"
       inkscape:collect="always">
      <stop
         style="stop-color:#fc5252;stop-opacity:1;"
         offset="0"
         id="stop1" />
      <stop
         style="stop-color:#ffe031;stop-opacity:1;"
         offset="1"
         id="stop2" />
    </linearGradient>
    <linearGradient
       inkscape:collect="always"
       xlink:href="#linearGradient1"
       id="linearGradient2"
       x1="0"
       y1="16"
       x2="16"
       y2="16"
       gradientUnits="userSpaceOnUse"
       gradientTransform="matrix(0.81249843,0,0,0.81522087,1.5,1.4782611)" />
  </defs>
  <sodipodi:namedview
     id="namedview1"
     pagecolor="#ffffff"
     bordercolor="#000000"
     borderopacity="0.25"
     inkscape:showpageshadow="2"
     inkscape:pageopacity="0.0"
     inkscape:pagecheckerboard="0"
     inkscape:deskcolor="#d1d1d1"
     inkscape:zoom="16.727495"
     inkscape:cx="5.9781814"
     inkscape:cy="14.437308"
     inkscape:window-width="1920"
     inkscape:window-height="994"
     inkscape:window-x="0"
     inkscape:window-y="0"
     inkscape:window-maximized="1"
     inkscape:current-layer="svg1" />
  <path
     d="m 3.7343708,2.0000025 c -0.8035609,0 -1.7387467,0.5567957 -1.7387467,2.1358788 0,0.4769039 0.254312,1.1894072 0.6824987,1.671203 0.02437,-0.035867 0.052813,-0.069299 0.073128,-0.097827 C 3.064872,4.3674039 3.6750582,3.3508239 4.5062444,2.7255492 4.4477444,2.6497338 4.388432,2.5812546 4.3518697,2.5298958 4.1284324,2.223373 3.9667451,2.0000025 3.7343708,2.0000025 Z m 8.5556092,0 c -0.229938,0 -0.387561,0.2152183 -0.609375,0.5135892 -0.04139,0.056246 -0.104809,0.1361421 -0.170629,0.2201098 0.824692,0.626905 1.426754,1.6410393 1.738748,2.9755562 0.02443,0.033422 0.05201,0.070925 0.08123,0.1141307 0.437951,-0.482611 0.698766,-1.2048965 0.698766,-1.6875071 7e-6,-1.5790831 -0.935177,-2.1358788 -1.73874,-2.1358788 z M 6.7487398,2.5217443 c -1.7631214,0 -3.0436193,1.2399507 -3.5173055,3.4076223 -0.058503,0.077451 -0.1714372,0.240491 -0.3176876,0.4728287 0.073131,0.1100548 0.1690003,0.2413048 0.2681252,0.3586975 0,0 0.4566239,0.4915778 1.2512475,0.7255466 0.138125,0.040758 0.2193745,0.1875008 0.1787496,0.3260883 C 4.5785558,7.924213 4.4761818,8.0000285 4.3599946,8.0000285 4.3356218,8.0008436 4.3104299,7.998375 4.2868673,7.9918997 3.3427463,7.7138858 2.8146224,7.1277418 2.7918725,7.1032853 2.7423101,7.0454042 2.6789352,6.9761108 2.6212482,6.8994802 2.5204982,7.0894264 2.4254355,7.2826337 2.3368733,7.4782868 2.4530606,7.6494835 2.5798105,7.8019296 2.6456229,7.869593 c 0.00657,0.00568 0.011378,0.009 0.016246,0.016301 0.00566,0.00659 0.605312,0.7288074 2.0312467,1.1657658 0.1373122,0.041577 0.2209991,0.188316 0.1787494,0.3260881 -0.034129,0.1133158 -0.1397498,0.1875009 -0.2518745,0.1875009 -0.025184,0 -0.047932,0 -0.073128,-0.0081 C 3.0372466,9.0956853 2.3612483,8.3350838 2.2718735,8.2282901 2.2458736,8.2005728 2.1784362,8.1263876 2.1012489,8.0326371 1.9964365,8.3024753 1.9038117,8.5772047 1.8249994,8.8560101 c 0.089375,0.1508162 0.1925621,0.2926643 0.3087494,0.4239149 0.010563,0.010597 0.5833739,0.6211999 1.7956214,1.084245 0.134875,0.04973 0.2039374,0.19891 0.1543748,0.334242 -0.038188,0.101897 -0.1348748,0.169564 -0.2437493,0.171196 -0.030879,0 -0.060934,-0.0059 -0.089378,-0.01629 C 2.4270604,10.347866 1.7941244,9.6834592 1.7518745,9.638622 1.7469995,9.6337311 1.7136871,9.5937852 1.6624996,9.5326439 1.5560624,10.058458 1.501625,10.594061 1.5,11.130478 c 0,0.07985 0.03575,0.154887 0.0975,0.203804 0.562249,0.445926 2.2059332,0.877995 3.5587432,1.067938 -0.012185,-0.123094 -0.015439,-0.201359 -0.016247,-0.211957 v -0.01627 c 0,-2.1962012 0.9311235,-3.9619695 1.389372,-4.6956682 C 6.3628038,7.5214961 6.1873041,7.5125287 6.0256169,7.4538326 4.9336187,7.0894264 5.1399929,5.9130627 5.1399929,5.9130627 L 7.114364,7.086981 c 0.010566,0.00737 0.023563,0.015491 0.032497,0.024451 0.0975,0.097827 0.098312,0.2559792 0.00807,0.3586973 -0.049568,0.067659 -1.4925595,2.0910413 -1.4949971,4.6956737 0.00322,0.04812 0.017876,0.301636 0.065003,0.595118 0.156812,0.04888 0.3258116,0.09052 0.4793741,0.122284 0.00412,8.09e-4 0.012185,0.0068 0.016246,0.0078 0.00412,8.14e-4 0.00412,-8.15e-4 0.00807,0 0.1771244,0.05058 0.6833108,0.02529 1.0643726,-0.260874 0.2941247,-0.222551 0.4468742,-0.549455 0.4468742,-0.978264 0,-0.14429 0.116187,-0.260868 0.2599995,-0.260868 0.1438121,0 0.2599996,0.116578 0.2599996,0.260868 0,0.428809 0.1527497,0.757341 0.4468741,0.978264 0.3656243,0.275547 0.8458106,0.303266 1.0399976,0.260874 0.00805,-0.0035 0.015438,-0.006 0.024378,-0.0078 0.1616892,-0.03424 0.3404394,-0.07832 0.5037484,-0.130435 0.04471,-0.286146 0.06173,-0.53479 0.06502,-0.586967 C 10.337543,9.5285675 8.8604235,7.4880697 8.8449861,7.4701345 8.7434236,7.3682318 8.7515484,7.2051877 8.8531108,7.1032853 c 0.030062,-0.027717 0.066626,-0.047283 0.105625,-0.057065 L 10.859981,5.9130625 c 0,0 0.206377,1.1763637 -0.8856224,1.5407674 -0.1616872,0.058699 -0.3371869,0.067659 -0.5037488,0.024452 0.4582473,0.7336995 1.3893712,2.4994688 1.3893712,4.6956711 v 0.01627 c -8.12e-4,0.01055 -0.0042,0.08886 -0.01622,0.211955 1.352807,-0.189944 2.996489,-0.622005 3.55874,-1.067932 0.0617,-0.04979 0.0975,-0.124734 0.0975,-0.20381 0,-0.542122 -0.05441,-1.082614 -0.162499,-1.6141407 -0.05444,0.068475 -0.09749,0.1133156 -0.105626,0.122283 -0.02687,0.028528 -0.65731,0.7035357 -1.998747,1.2146807 -0.02839,0.01141 -0.05848,0.01714 -0.08935,0.01628 -0.104809,0 -0.203938,-0.06769 -0.243751,-0.171195 -0.0252,-0.06358 -0.02443,-0.135329 0.0035,-0.1981 0.02765,-0.06279 0.07878,-0.111685 0.143001,-0.136141 1.217905,-0.4646734 1.79803,-1.0777193 1.803716,-1.0842413 0.0035,-0.00323 0.162503,-0.1744572 0.316876,-0.440219 C 14.085,8.5502495 13.997219,8.2706288 13.898907,8.0162795 13.815227,8.118182 13.74047,8.1988894 13.712036,8.228237 c -0.08936,0.105979 -0.764565,0.8657645 -2.275,1.3288103 -0.0252,0.0081 -0.04796,0.0081 -0.07316,0.0081 -0.112124,0 -0.216934,-0.075811 -0.251874,-0.1875008 -0.04232,-0.1369481 0.03407,-0.2828726 0.170579,-0.3260793 1.44056,-0.4410344 2.025557,-1.1584288 2.031248,-1.1657658 0.0055,-0.00737 0.01864,-0.010601 0.02442,-0.016301 0.09345,-0.09538 0.212061,-0.2486423 0.31687,-0.4076103 -0.08856,-0.1964685 -0.183622,-0.3888603 -0.284372,-0.5788067 -0.06015,0.079075 -0.119437,0.1597832 -0.170624,0.2201094 -0.02765,0.030982 -0.559814,0.6106005 -1.503123,0.8885909 -0.02353,0.00659 -0.04871,0.00899 -0.07316,0.0081 -0.112936,0 -0.218563,-0.074188 -0.251876,-0.1875008 -0.03992,-0.139372 0.03974,-0.2852966 0.17866,-0.3260576 C 12.346723,7.250799 12.804968,6.7575908 12.809851,6.7526995 12.90988,6.6345076 13.00494,6.5057028 13.07807,6.3940176 12.93585,6.1690199 12.826162,6.0051602 12.769288,5.9293449 12.29476,3.7624989 11.015076,2.521733 9.2511412,2.521733 8.6409545,2.521733 8.3021431,2.617112 7.9998937,2.717385 7.697738,2.6171244 7.3589262,2.5217443 6.7487398,2.5217443 Z M 6.4399904,3.5652267 c 0.429812,0 0.9855606,0.06196 1.5599972,0.4809804 0.5744364,-0.4190235 1.1301853,-0.4809804 1.5599969,-0.4809804 0.1438123,0 0.2600001,0.1165762 0.2600001,0.2608707 0,0.1442939 -0.1161878,0.2608703 -0.2600001,0.2608703 -0.5768736,0 -0.9904357,0.1483705 -1.3893724,0.4891326 -0.012997,0.011416 -0.026005,0.016301 -0.040621,0.024451 -0.00896,0.00491 -0.022756,0.012226 -0.032498,0.016301 -0.030879,0.012226 -0.064185,0.017939 -0.0975,0.016301 -0.033313,0.00168 -0.066626,-0.00413 -0.0975,-0.016301 -0.011378,-0.00491 -0.021941,-0.010599 -0.0325,-0.016301 -0.014627,-0.00812 -0.027622,-0.01304 -0.040619,-0.024452 C 7.4304272,4.2353382 7.01524,4.0869677 6.4399913,4.0869677 c -0.1429996,0 -0.2599997,-0.1173917 -0.2599997,-0.2608703 0,-0.143479 0.1170001,-0.2608707 0.2599988,-0.2608707 z m -1.039998,0.7826121 c 0.4476867,0 1.8484339,0.069297 2.5999952,0.8967431 0.7515608,-0.8274494 2.1523074,-0.8967431 2.5999954,-0.8967431 0.143814,0 0.259998,0.1165765 0.259998,0.2608705 0,0.1442941 -0.116184,0.2608708 -0.259998,0.2608708 -0.427377,0 -1.8581842,0.064399 -2.3724961,0.9375042 -0.00322,0.00491 -0.012997,0.011416 -0.016246,0.016301 -0.00412,0.00659 -0.011378,0.010601 -0.016246,0.016301 -0.017874,0.022831 -0.03331,0.043208 -0.056871,0.057063 -0.00245,8.15e-4 -0.00566,0.00737 -0.00807,0.0081 -0.014627,0.0081 -0.025182,0.011416 -0.040621,0.016301 l -0.024372,0.0081 c -0.016246,0.00413 -0.032496,0.00737 -0.048745,0.0081 h -0.016263 c -0.00566,0 -0.010566,8.153e-4 -0.016246,0 -0.016246,-0.00168 -0.032496,-0.00413 -0.048746,-0.0081 -0.00734,-0.00168 -0.017058,-0.00659 -0.02437,-0.0081 -0.015439,-0.00491 -0.027624,-0.0081 -0.040621,-0.016301 -0.00245,-8.153e-4 -0.00565,-0.00737 -0.00807,-0.0081 -0.02437,-0.015491 -0.046314,-0.034243 -0.064999,-0.057063 -0.0049,-0.00659 -0.00412,-0.010601 -0.00807,-0.016301 -0.00328,-0.00491 -0.013031,-0.011415 -0.016285,-0.016301 -0.512795,-0.8731019 -1.9452301,-0.9375042 -2.372604,-0.9375042 -0.1429993,0 -0.2599997,-0.1173918 -0.2599997,-0.2608708 0,-0.1434787 0.1170004,-0.2608705 0.2599997,-0.2608705 z m 2.5999952,4.695672 c 0.7799985,0.00569 1.5599969,0.1532617 1.5599969,0.4402196 v 0.2608707 c 0,0.1304351 -0.1787495,0.3130439 -0.4387491,0.5217399 0,-0.02608 -0.00657,-0.02362 -0.032498,-0.04889 -0.1299998,-0.130441 -0.3355622,-0.153268 -0.4387492,-0.0489 -0.1031872,0.104351 -0.079623,0.285328 0.024373,0.415763 -0.2664997,0.155707 -0.6223741,0.289405 -0.6743737,0.326091 -0.050377,-0.03752 -0.4062492,-0.172013 -0.6499987,-0.350549 0.078004,-0.130435 0.1031869,-0.286954 0,-0.391305 -0.1031873,-0.10435 -0.3087495,-0.08153 -0.4387489,0.0489 v 0.02448 C 6.6512398,10.033189 6.4399904,9.8750362 6.4399904,9.8750362 V 9.4592737 c 0,-0.2861426 0.7799988,-0.4214696 1.5599972,-0.4157629 z m 0,3.5788222 c -0.1023747,0.167115 -0.2348124,0.313041 -0.3899995,0.432061 -0.3729367,0.280436 -0.830373,0.375 -1.1781222,0.375 -0.1226875,0 -0.2291254,-0.01055 -0.3168752,-0.03266 -0.00412,-8.11e-4 -0.012185,8.15e-4 -0.016246,0 -0.02437,-0.0055 -0.056874,-0.01301 -0.1056252,-0.02451 0.4257488,0.366904 1.02781,0.627772 2.0068706,0.627772 0.9855606,0 1.5884342,-0.264944 2.0149939,-0.635871 -0.031661,0.0068 -0.057699,0.01143 -0.081248,0.01625 -0.00509,0.003 -0.011363,0.0068 -0.016236,0.0078 -0.090187,0.02694 -0.212062,0.04075 -0.3493744,0.04075 -0.3477491,0 -0.8051859,-0.09455 -1.1781228,-0.375002 -0.1552032,-0.11855 -0.2868284,-0.265286 -0.3900153,-0.431591 z"
     id="path1"
     style="fill:url(#linearGradient2);stroke-width:0.813859" />
</svg>
