<?xml version="1.0" encoding="UTF-8" standalone="no"?>
<svg
   height="16"
   width="16"
   version="1.1"
   id="svg6"
   sodipodi:docname="timeshift.svg"
   inkscape:version="1.3.2 (091e20ef0f, 2023-11-25)"
   xmlns:inkscape="http://www.inkscape.org/namespaces/inkscape"
   xmlns:sodipodi="http://sodipodi.sourceforge.net/DTD/sodipodi-0.dtd"
   xmlns:xlink="http://www.w3.org/1999/xlink"
   xmlns="http://www.w3.org/2000/svg"
   xmlns:svg="http://www.w3.org/2000/svg"
   xmlns:rdf="http://www.w3.org/1999/02/22-rdf-syntax-ns#"
   xmlns:cc="http://creativecommons.org/ns#"
   xmlns:dc="http://purl.org/dc/elements/1.1/">
  <metadata
     id="metadata12">
    <rdf:RDF>
      <cc:Work
         rdf:about="">
        <dc:format>image/svg+xml</dc:format>
        <dc:type
           rdf:resource="http://purl.org/dc/dcmitype/StillImage" />
      </cc:Work>
    </rdf:RDF>
  </metadata>
  <defs
     id="defs10">
    <linearGradient
       id="linearGradient1"
       inkscape:collect="always">
      <stop
         style="stop-color:#2a7fff;stop-opacity:1"
         offset="0"
         id="stop1" />
      <stop
         style="stop-color:#00ffff;stop-opacity:1"
         offset="1"
         id="stop2" />
    </linearGradient>
    <marker
       style="overflow:visible"
       id="DotL"
       refX="0"
       refY="0"
       orient="auto"
       inkscape:stockid="DotL"
       inkscape:isstock="true">
      <path
         transform="matrix(0.8,0,0,0.8,5.92,0.8)"
         style="fill:#000000;fill-opacity:1;fill-rule:evenodd;stroke:#000000;stroke-width:1pt;stroke-opacity:1"
         d="m -2.5,-1 c 0,2.76 -2.24,5 -5,5 -2.76,0 -5,-2.24 -5,-5 0,-2.76 2.24,-5 5,-5 2.76,0 5,2.24 5,5 z"
         id="path898" />
    </marker>
    <linearGradient
       inkscape:collect="always"
       xlink:href="#linearGradient1"
       id="linearGradient2"
       x1="10.707617"
       y1="31.534513"
       x2="37.173615"
       y2="31.534513"
       gradientUnits="userSpaceOnUse"
       gradientTransform="matrix(0.49119626,0,0,0.49119635,-3.7595404,-7.4896377)" />
    <linearGradient
       inkscape:collect="always"
       xlink:href="#linearGradient1"
       id="linearGradient5"
       x1="3.5"
       y1="8.5614986"
       x2="12.000001"
       y2="8.5614986"
       gradientUnits="userSpaceOnUse" />
  </defs>
  <sodipodi:namedview
     pagecolor="#ffffff"
     bordercolor="#666666"
     borderopacity="1"
     objecttolerance="10"
     gridtolerance="10"
     guidetolerance="10"
     inkscape:pageopacity="0"
     inkscape:pageshadow="2"
     inkscape:window-width="1920"
     inkscape:window-height="994"
     id="namedview8"
     showgrid="false"
     inkscape:zoom="32"
     inkscape:cx="6.75"
     inkscape:cy="9.828125"
     inkscape:window-x="0"
     inkscape:window-y="0"
     inkscape:window-maximized="1"
     inkscape:current-layer="svg6"
     inkscape:document-rotation="0"
     inkscape:pagecheckerboard="0"
     inkscape:showpageshadow="2"
     inkscape:deskcolor="#d1d1d1" />
  <path
     id="circle2"
     style="opacity:0.99;fill:url(#linearGradient2);fill-opacity:1;stroke-width:0.491197"
     d="M 14.499999,7.9999999 A 6.4999991,6.5000002 0 0 1 8.0000001,14.5 6.4999991,6.5000002 0 0 1 1.500001,7.9999999 6.4999991,6.5000002 0 0 1 8.0000001,1.5000001 6.4999991,6.5000002 0 0 1 14.499999,7.9999999 Z" />
  <path
     id="circle858"
     style="opacity:1;fill:#1c202f;fill-opacity:1;stroke-width:0.417883"
     d="M 13.529826,7.9999997 A 5.5298258,5.5298269 0 0 1 8.0000001,13.529827 5.5298258,5.5298269 0 0 1 2.4701742,7.9999997 5.5298258,5.5298269 0 0 1 8.0000001,2.4701728 5.5298258,5.5298269 0 0 1 13.529826,7.9999997 Z" />
  <path
     d="M 7.0497687,7.6857348 C 6.3288714,7.7422566 5.7992219,7.7041909 5.4262889,7.6379876 Q 3.6742477,7.1890375 4.1151803,5.9999218 C 4.35849,5.7194669 4.589049,5.548934 4.9853571,5.618786 6.5843999,5.8987336 8.0591315,6.4277988 9.3362367,6.4375564 10.361539,6.4452885 11.267838,6.0204658 11.947305,5.6074919 12.07852,5.3491196 11.962683,5.1883395 11.622181,5.1472505 11.111664,5.4477419 10.639917,5.6121087 10.229799,5.6634772 8.466069,5.8319601 6.2151855,4.5976371 4.8923894,4.8441921 Q 3.5695919,5.0912625 3.5,6.5721371 c 0.1248417,1.1320979 1.5145748,1.6395948 3.2443045,1.591308 q -0.00367,0.00656 -0.00687,0.012866 c -0.4409593,0.5275238 -0.60352,1.2343163 -0.6380499,1.9971009 -0.029745,0.650288 0.3192775,1.215312 0.8005833,1.694042 q 0.9397703,0.662105 1.9257599,0.33696 Q 10.473637,11.688188 10.833292,9.9715402 10.787121,8.9396049 9.8239257,8.7937268 8.5239739,8.8270988 7.7350775,10.487766 c 0.050473,0.317956 0.1779663,0.392438 0.4526201,0.269159 C 8.5659432,9.8498057 9.3596232,9.0854822 9.8818387,9.2986509 10.404043,9.5118185 10.148521,11.026082 8.6982249,11.766775 Q 7.7818274,12.035911 7.3292073,11.452393 6.4893111,10.256086 7.8041373,8.0699616 C 8.3327291,7.9929121 8.8740636,7.8711711 9.4058359,7.7052607 9.6050546,7.5573306 9.7543283,7.604587 9.652332,7.3713849 9.5508658,7.1386991 9.4701162,7.2619781 9.2087479,7.2676257 Q 8.6243811,7.4535689 8.1420102,7.5439761 8.4485422,7.0940075 8.8374051,6.6060367 8.5659431,6.4971425 8.4081606,6.4935484 8.1760094,6.6168221 7.7233884,6.7627021 7.3026431,7.3205314 7.0497727,7.6857463 Z"
     id="path2-3"
     style="isolation:isolate;stroke-width:0.522375;fill:url(#linearGradient5);fill-opacity:1" />
</svg>
