<?xml version="1.0" encoding="UTF-8" standalone="no"?>
<svg
   height="16"
   width="16"
   version="1.1"
   id="svg6"
   sodipodi:docname="tinder.svg"
   inkscape:version="1.3 (0e150ed6c4, 2023-07-21)"
   xmlns:inkscape="http://www.inkscape.org/namespaces/inkscape"
   xmlns:sodipodi="http://sodipodi.sourceforge.net/DTD/sodipodi-0.dtd"
   xmlns:xlink="http://www.w3.org/1999/xlink"
   xmlns="http://www.w3.org/2000/svg"
   xmlns:svg="http://www.w3.org/2000/svg"
   xmlns:rdf="http://www.w3.org/1999/02/22-rdf-syntax-ns#"
   xmlns:cc="http://creativecommons.org/ns#"
   xmlns:dc="http://purl.org/dc/elements/1.1/">
  <metadata
     id="metadata12">
    <rdf:RDF>
      <cc:Work
         rdf:about="">
        <dc:format>image/svg+xml</dc:format>
        <dc:type
           rdf:resource="http://purl.org/dc/dcmitype/StillImage" />
      </cc:Work>
    </rdf:RDF>
  </metadata>
  <defs
     id="defs10">
    <linearGradient
       id="linearGradient4"
       inkscape:collect="always">
      <stop
         style="stop-color:#ffdfdf;stop-opacity:1;"
         offset="0"
         id="stop3" />
      <stop
         style="stop-color:#f0c8c8;stop-opacity:1;"
         offset="1"
         id="stop4" />
    </linearGradient>
    <linearGradient
       id="linearGradient1"
       inkscape:collect="always">
      <stop
         style="stop-color:#ff2a2a;stop-opacity:1"
         offset="0"
         id="stop1" />
      <stop
         style="stop-color:#de8787;stop-opacity:1"
         offset="1"
         id="stop2" />
    </linearGradient>
    <marker
       style="overflow:visible"
       id="DotL"
       refX="0"
       refY="0"
       orient="auto"
       inkscape:stockid="DotL"
       inkscape:isstock="true">
      <path
         transform="matrix(0.8,0,0,0.8,5.92,0.8)"
         style="fill:#000000;fill-opacity:1;fill-rule:evenodd;stroke:#000000;stroke-width:1pt;stroke-opacity:1"
         d="m -2.5,-1 c 0,2.76 -2.24,5 -5,5 -2.76,0 -5,-2.24 -5,-5 0,-2.76 2.24,-5 5,-5 2.76,0 5,2.24 5,5 z"
         id="path898" />
    </marker>
    <linearGradient
       inkscape:collect="always"
       xlink:href="#linearGradient4"
       id="linearGradient2"
       x1="10.707617"
       y1="31.534513"
       x2="37.173615"
       y2="31.534513"
       gradientUnits="userSpaceOnUse"
       gradientTransform="matrix(0.49119626,0,0,0.49119635,-3.7595404,-7.4896377)" />
    <linearGradient
       inkscape:collect="always"
       xlink:href="#linearGradient1"
       id="linearGradient3"
       x1="4.7179499"
       y1="7.7948718"
       x2="11.282051"
       y2="7.5448718"
       gradientUnits="userSpaceOnUse" />
  </defs>
  <sodipodi:namedview
     pagecolor="#ffffff"
     bordercolor="#666666"
     borderopacity="1"
     objecttolerance="10"
     gridtolerance="10"
     guidetolerance="10"
     inkscape:pageopacity="0"
     inkscape:pageshadow="2"
     inkscape:window-width="1920"
     inkscape:window-height="994"
     id="namedview8"
     showgrid="false"
     inkscape:zoom="16"
     inkscape:cx="5"
     inkscape:cy="16.21875"
     inkscape:window-x="0"
     inkscape:window-y="0"
     inkscape:window-maximized="1"
     inkscape:current-layer="svg6"
     inkscape:document-rotation="0"
     inkscape:pagecheckerboard="0"
     inkscape:showpageshadow="2"
     inkscape:deskcolor="#d1d1d1" />
  <path
     id="circle2"
     style="opacity:0.99;fill:url(#linearGradient2);fill-opacity:1;stroke-width:0.491197"
     d="M 14.499999,7.9999999 A 6.4999991,6.5000002 0 0 1 8.0000001,14.5 6.4999991,6.5000002 0 0 1 1.500001,7.9999999 6.4999991,6.5000002 0 0 1 8.0000001,1.5000001 6.4999991,6.5000002 0 0 1 14.499999,7.9999999 Z" />
  <path
     id="circle858"
     style="opacity:1;fill:#1c202f;fill-opacity:1;stroke-width:0.417883"
     d="M 13.529826,7.9999997 A 5.5298258,5.5298269 0 0 1 8.0000001,13.529827 5.5298258,5.5298269 0 0 1 2.4701742,7.9999997 5.5298258,5.5298269 0 0 1 8.0000001,2.4701728 5.5298258,5.5298269 0 0 1 13.529826,7.9999997 Z" />
  <path
     style="opacity:0.1;stroke-width:0.205128"
     d="m 6.6771488,7.2462214 c 1.472316,-0.51292 1.722923,-1.849046 1.534968,-3.077522 0,-0.04433 0.03759,-0.07599 0.07518,-0.06332 1.409664,0.696558 2.9947542,2.216322 2.9947542,4.495968 0,1.7477276 -1.3407482,3.2928206 -3.2892172,3.2928206 A 3.1325871,3.1661745 0 0 1 6.2260548,6.0240814 c 0.03759,-0.02533 0.08771,0 0.08771,0.04433 0.01879,0.234297 0.08145,0.823206 0.33832,1.177817 z"
     id="path2" />
  <path
     d="m 6.6771488,7.0410934 c 1.472316,-0.51292 1.722923,-1.849046 1.534968,-3.077522 0,-0.04433 0.03759,-0.07599 0.07518,-0.06332 1.409664,0.696558 2.9947542,2.216322 2.9947542,4.495968 0,1.7477276 -1.3407482,3.2928206 -3.2892172,3.2928206 A 3.1325871,3.1661745 0 0 1 6.2260548,5.8189534 c 0.03759,-0.02533 0.08771,0 0.08771,0.04433 0.01879,0.234297 0.08145,0.823206 0.33832,1.177817 z"
     id="path3"
     style="fill:url(#linearGradient3);fill-opacity:1" />
</svg>
