<?xml version="1.0" encoding="UTF-8" standalone="no"?>
<svg
   width="16"
   height="16"
   x="0"
   y="0"
   version="1.1"
   viewBox="0 0 16 16"
   xml:space="preserve"
   id="svg25"
   sodipodi:docname="torrent.svg"
   inkscape:version="1.3 (0e150ed6c4, 2023-07-21)"
   xmlns:inkscape="http://www.inkscape.org/namespaces/inkscape"
   xmlns:sodipodi="http://sodipodi.sourceforge.net/DTD/sodipodi-0.dtd"
   xmlns:xlink="http://www.w3.org/1999/xlink"
   xmlns="http://www.w3.org/2000/svg"
   xmlns:svg="http://www.w3.org/2000/svg"><sodipodi:namedview
   id="namedview25"
   pagecolor="#ffffff"
   bordercolor="#000000"
   borderopacity="0.25"
   inkscape:showpageshadow="2"
   inkscape:pageopacity="0.0"
   inkscape:pagecheckerboard="0"
   inkscape:deskcolor="#d1d1d1"
   inkscape:zoom="33.896931"
   inkscape:cx="8.3635889"
   inkscape:cy="8.8061069"
   inkscape:window-width="1920"
   inkscape:window-height="994"
   inkscape:window-x="0"
   inkscape:window-y="0"
   inkscape:window-maximized="1"
   inkscape:current-layer="svg25" />&#10;<defs
   id="defs22"><linearGradient
   id="linearGradient29"
   inkscape:collect="always"><stop
     style="stop-color:#2ca05a;stop-opacity:1"
     offset="0"
     id="stop29" /><stop
     style="stop-color:#008080;stop-opacity:1"
     offset="1"
     id="stop30" /></linearGradient>&#10;  <style
   id="current-color-scheme"
   type="text/css">&#10;   .ColorScheme-Text { color:#d5c289; } .ColorScheme-Highlight { color:#5294e2; }&#10;  </style>&#10;  <linearGradient
   id="arrongin"
   x1="0%"
   x2="0%"
   y1="0%"
   y2="100%">&#10;   <stop
   offset="0%"
   style="stop-color:#dd9b44; stop-opacity:1"
   id="stop1" />&#10;   <stop
   offset="100%"
   style="stop-color:#ad6c16; stop-opacity:1"
   id="stop2" />&#10;  </linearGradient>&#10;  <linearGradient
   id="aurora"
   x1="0%"
   x2="0%"
   y1="0%"
   y2="100%">&#10;   <stop
   offset="0%"
   style="stop-color:#09D4DF; stop-opacity:1"
   id="stop3" />&#10;   <stop
   offset="100%"
   style="stop-color:#9269F4; stop-opacity:1"
   id="stop4" />&#10;  </linearGradient>&#10;  <linearGradient
   id="fitdance"
   x1="0%"
   x2="0%"
   y1="0%"
   y2="100%">&#10;   <stop
   offset="0%"
   style="stop-color:#1AD6AB; stop-opacity:1"
   id="stop5" />&#10;   <stop
   offset="100%"
   style="stop-color:#329DB6; stop-opacity:1"
   id="stop6" />&#10;  </linearGradient>&#10;  <linearGradient
   id="oomox"
   x1="0%"
   x2="0%"
   y1="0%"
   y2="100%">&#10;   <stop
   offset="0%"
   style="stop-color:#303b3d; stop-opacity:1"
   id="stop7" />&#10;   <stop
   offset="100%"
   style="stop-color:#bc985d; stop-opacity:1"
   id="stop8" />&#10;  </linearGradient>&#10;  <linearGradient
   id="rainblue"
   x1="0%"
   x2="0%"
   y1="0%"
   y2="100%">&#10;   <stop
   offset="0%"
   style="stop-color:#00F260; stop-opacity:1"
   id="stop9" />&#10;   <stop
   offset="100%"
   style="stop-color:#0575E6; stop-opacity:1"
   id="stop10" />&#10;  </linearGradient>&#10;  <linearGradient
   id="sunrise"
   x1="0%"
   x2="0%"
   y1="0%"
   y2="100%">&#10;   <stop
   offset="0%"
   style="stop-color: #FF8501; stop-opacity:1"
   id="stop11" />&#10;   <stop
   offset="100%"
   style="stop-color: #FFCB01; stop-opacity:1"
   id="stop12" />&#10;  </linearGradient>&#10;  <linearGradient
   id="telinkrin"
   x1="0%"
   x2="0%"
   y1="0%"
   y2="100%">&#10;   <stop
   offset="0%"
   style="stop-color: #b2ced6; stop-opacity:1"
   id="stop13" />&#10;   <stop
   offset="100%"
   style="stop-color: #6da5b7; stop-opacity:1"
   id="stop14" />&#10;  </linearGradient>&#10;  <linearGradient
   id="60spsycho"
   x1="0%"
   x2="0%"
   y1="0%"
   y2="100%">&#10;   <stop
   offset="0%"
   style="stop-color: #df5940; stop-opacity:1"
   id="stop15" />&#10;   <stop
   offset="25%"
   style="stop-color: #d8d15f; stop-opacity:1"
   id="stop16" />&#10;   <stop
   offset="50%"
   style="stop-color: #e9882a; stop-opacity:1"
   id="stop17" />&#10;   <stop
   offset="100%"
   style="stop-color: #279362; stop-opacity:1"
   id="stop18" />&#10;  </linearGradient>&#10;  <linearGradient
   id="90ssummer"
   x1="0%"
   x2="0%"
   y1="0%"
   y2="100%">&#10;   <stop
   offset="0%"
   style="stop-color: #f618c7; stop-opacity:1"
   id="stop19" />&#10;   <stop
   offset="20%"
   style="stop-color: #94ffab; stop-opacity:1"
   id="stop20" />&#10;   <stop
   offset="50%"
   style="stop-color: #fbfd54; stop-opacity:1"
   id="stop21" />&#10;   <stop
   offset="100%"
   style="stop-color: #0f83ae; stop-opacity:1"
   id="stop22" />&#10;  </linearGradient>&#10; <linearGradient
   inkscape:collect="always"
   xlink:href="#linearGradient29"
   id="linearGradient30"
   x1="10.004872"
   y1="51.450001"
   x2="989.88"
   y2="779.5"
   gradientUnits="userSpaceOnUse" /></defs>&#10; <g
   transform="matrix(0.01428587,0,0,0.0144913,0.85707177,0.75442246)"
   id="g25"
   style="fill:url(#linearGradient30)">&#10;  <g
   transform="matrix(0.1,0,0,-0.1,0,227)"
   style="fill:url(#linearGradient30)"
   class="ColorScheme-Text"
   id="g24">&#10;   <path
   d="M 4001.9,1679.8 C 2913.5,1452.5 2056.2,926.2 1254.8,-18.8 708.6,-660.7 281.9,-1637.5 150.4,-2550.6 c -179.4,-1267.9 119.6,-2468 913,-3656.2 223.3,-334.9 271.1,-382.8 506.4,-502.4 454.5,-239.2 885.1,-374.8 1547,-482.5 67.8,-12 127.6,-15.9 127.6,-7.9 0,7.9 -99.7,91.7 -227.3,183.4 -358.8,271.2 -937,881.2 -1196.1,1264 -641.9,937 -841.3,1630.7 -797.4,2763.1 16,458.5 43.9,645.9 123.6,905.1 530.2,1734.3 1969.6,2922.5 3556.5,2938.4 l 326.9,4 23.9,259.2 c 16,143.5 35.9,342.9 51.9,450.5 l 23.9,187.4 -394.7,-4 c -219.3,0 -546.3,-35.9 -733.7,-71.7 z"
   id="path22"
   style="fill:url(#linearGradient30);fill-opacity:1" />&#10;   <path
   d="m 4500.3,563.4 c -1252,-203.3 -2324.5,-1012.7 -2870.7,-2165 -498.4,-1044.6 -450.5,-2392.3 123.6,-3520.6 414.7,-813.4 1124.4,-1515.1 1965.6,-1937.7 l 315,-155.5 h 1395.5 c 1503.2,0 1762.3,23.9 2360.4,223.3 287.1,91.7 542.2,215.3 322.9,155.5 -191.4,-55.8 -1766.3,-27.9 -2212.9,35.9 -2312.5,338.9 -3704,1710.4 -3704,3652.2 0,450.5 12,534.3 119.6,845.3 223.3,649.9 630,1184.2 1160.2,1523.1 522.3,334.9 1024.7,478.5 1662.6,470.5 466.5,0 841.3,-75.8 1251.9,-243.2 163.5,-67.8 303,-115.6 307,-111.7 8,4 95.7,179.4 195.4,382.8 211.3,426.6 211.3,426.6 -139.6,562.2 -518.3,203.3 -917,283.1 -1495.2,299 -306.7,7.8 -645.7,-0.2 -757.3,-16.1 z"
   id="path23"
   style="fill:url(#linearGradient30);fill-opacity:1" />&#10;   <path
   d="m 4639.9,-620.8 c -350.9,-67.8 -937,-342.9 -1196.1,-558.2 -626,-518.3 -933,-1212.1 -933,-2089.2 0,-546.3 63.8,-837.3 299,-1303.8 458.5,-913 1423.4,-1535 2886.7,-1850 350.9,-79.7 554.2,-91.7 1722.4,-107.7 l 1327.7,-16 187.4,111.6 c 179.4,103.7 1000.7,877.2 964.8,909.1 -7.9,4 -159.5,0 -334.9,-19.9 -175.4,-16 -725.7,-51.9 -1220.1,-75.8 -1889.9,-87.7 -3018.2,95.7 -3931.3,645.9 -267.1,163.5 -685.8,594.1 -801.4,833.3 -410.7,853.3 -175.4,1858 550.2,2344.4 857.2,570.2 2029.4,350.9 2583.7,-486.4 l 99.7,-147.5 382.8,203.3 c 211.3,115.6 390.8,211.3 398.7,219.3 47.9,39.9 -171.4,346.9 -454.5,633.9 -263.2,271.1 -382.8,358.8 -697.7,514.3 -594.1,291.2 -1168.3,367 -1834.1,239.4 z"
   id="path24"
   style="fill:url(#linearGradient30);fill-opacity:1" />&#10;  </g>&#10; </g>&#10;</svg>
