<?xml version="1.0" encoding="UTF-8" standalone="no"?>
<svg
   width="16"
   height="16"
   version="1.1"
   id="svg3539"
   sodipodi:docname="unity-webapps-amazoncloudreader.svg"
   inkscape:version="1.3.2 (091e20ef0f, 2023-11-25)"
   xmlns:inkscape="http://www.inkscape.org/namespaces/inkscape"
   xmlns:sodipodi="http://sodipodi.sourceforge.net/DTD/sodipodi-0.dtd"
   xmlns:xlink="http://www.w3.org/1999/xlink"
   xmlns="http://www.w3.org/2000/svg"
   xmlns:svg="http://www.w3.org/2000/svg">
  <sodipodi:namedview
     id="namedview3541"
     pagecolor="#ffffff"
     bordercolor="#666666"
     borderopacity="1.0"
     inkscape:showpageshadow="2"
     inkscape:pageopacity="0.0"
     inkscape:pagecheckerboard="0"
     inkscape:deskcolor="#d1d1d1"
     showgrid="false"
     inkscape:zoom="13.906433"
     inkscape:cx="15.676198"
     inkscape:cy="6.0763245"
     inkscape:window-width="1920"
     inkscape:window-height="994"
     inkscape:window-x="0"
     inkscape:window-y="0"
     inkscape:window-maximized="1"
     inkscape:current-layer="svg3539" />
  <defs
     id="defs3519">
    <linearGradient
       id="linearGradient1"
       inkscape:collect="always">
      <stop
         style="stop-color:#ff7f2a;stop-opacity:1"
         offset="0"
         id="stop1" />
      <stop
         style="stop-color:#ffcc00;stop-opacity:1"
         offset="1"
         id="stop2" />
    </linearGradient>
    <linearGradient
       id="linearGradient4191">
      <stop
         style="stop-color:#ffa92d;stop-opacity:1"
         offset="0"
         id="stop3490" />
      <stop
         style="stop-color:#ffdaa5;stop-opacity:1"
         offset="1"
         id="stop3492" />
    </linearGradient>
    <linearGradient
       id="0">
      <stop
         offset="0"
         stop-color="#ffffff"
         id="stop3495" />
      <stop
         offset="1"
         stop-color="#ffffff"
         stop-opacity="0"
         id="stop3497" />
    </linearGradient>
    <linearGradient
       xlink:href="#2"
       id="1"
       y1="543.79797"
       x2="0"
       y2="503.798"
       gradientUnits="userSpaceOnUse"
       gradientTransform="matrix(1.3125029,0,0,1.0500004,-403.64087,-546.63213)" />
    <linearGradient
       id="2">
      <stop
         stop-color="#426467"
         id="stop3501" />
      <stop
         offset="1"
         stop-color="#525b58"
         id="stop3503" />
    </linearGradient>
    <linearGradient
       xlink:href="#0"
       id="5"
       y1="527.79797"
       x2="0"
       y2="504.798"
       gradientUnits="userSpaceOnUse"
       gradientTransform="matrix(1,0,0,1.0047847,-278.96126,-523.8526)" />
    <linearGradient
       id="6"
       y1="-0.88300002"
       x1="-41.259998"
       y2="37.956001"
       x2="-2.994"
       gradientUnits="userSpaceOnUse"
       gradientTransform="translate(-1.01,-1.022)">
      <stop
         stop-color="#21c9fb"
         id="stop3507" />
      <stop
         offset="1"
         stop-color="#1a86f2"
         id="stop3509" />
    </linearGradient>
    <linearGradient
       xlink:href="#6"
       id="7"
       x1="45"
       y1="36"
       x2="14"
       y2="12"
       gradientUnits="userSpaceOnUse"
       gradientTransform="matrix(1,0,0,1.0047847,105.61017,-21.663207)" />
    <linearGradient
       xlink:href="#linearGradient4191"
       id="linearGradient4197"
       x1="13.813"
       y1="20.941999"
       x2="13.813"
       y2="4.1020002"
       gradientUnits="userSpaceOnUse"
       gradientTransform="matrix(1,0,0,1.0047847,103.61017,-21.663207)" />
    <linearGradient
       id="b"
       y1="4"
       x1="8"
       y2="18"
       gradientUnits="userSpaceOnUse"
       x2="22"
       gradientTransform="matrix(1,0,0,1.0047847,105.61017,-21.663207)">
      <stop
         stop-color="#292c2f"
         id="stop3514" />
      <stop
         offset="1"
         stop-opacity="0"
         id="stop3516" />
    </linearGradient>
    <linearGradient
       id="linearGradient4717">
      <stop
         style="stop-color:#12375a;stop-opacity:1"
         offset="0"
         id="stop7-3" />
      <stop
         style="stop-color:#537596;stop-opacity:1"
         offset="1"
         id="stop9-6" />
    </linearGradient>
    <linearGradient
       id="linearGradient927"
       x1="22.676001"
       x2="23.372999"
       y1="47.124001"
       y2="5.5176001"
       gradientTransform="matrix(0.31633,0,0,0.31633,-30.168695,-10.86469)"
       gradientUnits="userSpaceOnUse">
      <stop
         stop-color="#ff9913"
         offset="0"
         id="stop360" />
      <stop
         stop-color="#faee18"
         offset="1"
         id="stop362" />
    </linearGradient>
    <linearGradient
       id="linearGradient935"
       x1="24.677"
       x2="24.989"
       y1="45.613998"
       y2="25.618999"
       gradientTransform="matrix(0.31633,0,0,0.31633,-30.168795,-10.86469)"
       gradientUnits="userSpaceOnUse">
      <stop
         stop-color="#fade17"
         offset="0"
         id="stop365" />
      <stop
         stop-color="#fade17"
         stop-opacity="0"
         offset="1"
         id="stop367" />
    </linearGradient>
    <linearGradient
       xlink:href="#2"
       id="1-3"
       y1="543.79797"
       x2="0"
       y2="503.798"
       gradientUnits="userSpaceOnUse"
       gradientTransform="matrix(1.3125029,0,0,1.0500004,-508.25104,-521.98806)" />
    <linearGradient
       xlink:href="#0"
       id="5-5"
       y1="527.79797"
       x2="0"
       y2="504.798"
       gradientUnits="userSpaceOnUse"
       gradientTransform="matrix(1,0,0,1.0047847,-383.57143,-499.20853)" />
    <linearGradient
       inkscape:collect="always"
       xlink:href="#linearGradient1"
       id="linearGradient2"
       x1="0.49999976"
       y1="1.499993"
       x2="13.917998"
       y2="14.500007"
       gradientUnits="userSpaceOnUse"
       gradientTransform="matrix(0.89999998,0,0,1,0.8000001,0)" />
    <linearGradient
       id="b-4"
       gradientUnits="userSpaceOnUse"
       x1="6.6925826"
       x2="38.486023"
       xlink:href="#a"
       y1="37.946854"
       y2="37.946854" />
    <linearGradient
       id="a">
      <stop
         offset="0"
         stop-color="#ff6a00"
         id="stop1-3" />
      <stop
         offset="1"
         stop-color="#ff0038"
         id="stop2-1" />
    </linearGradient>
    <linearGradient
       id="c"
       gradientUnits="userSpaceOnUse"
       x1="13.706519"
       x2="35.153316"
       xlink:href="#a"
       y1="20.417351"
       y2="20.417351"
       gradientTransform="translate(7.5755174,-24.552602)" />
  </defs>
  <path
     d="m 14.013866,12.127412 -4.785147,2.118955 c -0.3814267,0.162862 -0.794978,0.25364 -1.2286044,0.25364 -0.4372627,0 -0.8545211,-0.09172 -1.2379193,-0.257461 L 1.9887278,12.129097 C 1.5512517,11.885489 1.2499999,11.39257 1.2499999,10.820612 V 5.180087 4.198783 c 0,-0.27114 0.2019378,-0.490524 0.450005,-0.490524 0.2487314,0 0.4501892,0.219384 0.4501892,0.490524 v 0.398803 0.582501 5.57179 c 0,0.176993 0.088755,0.32838 0.2179746,0.414589 l 4.5946448,2.119242 c 0.01009,0.0046 0.018642,0.0064 0.028841,0.01101 0.3098029,0.142989 0.6508131,0.221997 1.0085347,0.221997 0.3554096,0 0.6942337,-0.07808 1.0027034,-0.21936 0.010118,-0.0052 0.018842,-0.0065 0.029006,-0.01144 l 4.5996854,-2.121384 c 0.129208,-0.0862 0.218419,-0.237598 0.218419,-0.414584 V 7.141986 6.559485 6.160689 c 0,-0.270647 0.201709,-0.490034 0.449993,-0.490034 0.248745,0 0.450004,0.219387 0.450004,0.490034 v 0.981271 3.678688 c 2.8e-5,0.571038 -0.300122,1.062059 -0.736055,1.306834 z m 0.286082,-7.437856 c -0.248283,0 -0.450004,-0.220123 -0.450004,-0.490773 0,-0.27114 0.201721,-0.490524 0.450004,-0.490524 0.248732,0 0.449993,0.219384 0.449993,0.490524 0,0.27065 -0.201261,0.490773 -0.449993,0.490773 z m -2.177008,6.016792 -2.122554,0.964051 v -0.0014 c -0.057583,0.02825 -0.1212756,0.044 -0.1881011,0.044 -0.2548673,0 -0.4622938,-0.225394 -0.4622938,-0.503709 0,-0.21556 0.1243721,-0.397608 0.2988346,-0.470174 L 11.810894,9.707778 c 0.140179,-0.08243 0.239059,-0.241434 0.239059,-0.428504 V 2.856748 c 0,-0.135322 -0.100629,-0.245264 -0.224998,-0.245264 -0.03254,0 -0.06377,0.0073 -0.09228,0.02135 V 2.63234 L 8.6895132,4.084278 C 8.548011,4.166698 8.4504454,4.325704 8.4504454,4.512049 v 5.817301 0.981055 c 0,0.541786 -0.4033091,0.981302 -0.900329,0.981302 -0.1245913,0 -0.2425794,-0.02758 -0.3506893,-0.0776 L 3.8745855,10.703987 C 3.3896573,10.480032 3.0501905,9.957647 3.0501905,9.348835 V 2.481266 c 0,-0.54179 0.4031957,-0.981273 0.899995,-0.981273 0.1225969,0 0.2386108,0.02702 0.345628,0.07592 l 2.0651776,0.937715 c 0.1696251,0.07761 0.2891593,0.26059 0.2891593,0.473507 0,0.283843 -0.210943,0.513737 -0.4708689,0.513737 -0.078654,0 -0.1518178,-0.02316 -0.2168703,-0.06013 L 4.267687,2.632377 c -0.00128,0 0,4.88e-4 -0.00128,4.88e-4 -0.028071,-0.01362 -0.058916,-0.02132 -0.091626,-0.02132 -0.1248217,0 -0.2252274,0.109941 -0.2252274,0.245266 v 6.422585 c 0,0.187072 0.09844,0.34609 0.2392895,0.428498 l 3.0433921,1.451449 c 4.506e-4,0 0,-4.91e-4 4.506e-4,-4.91e-4 0.027715,0.01365 0.059104,0.02136 0.091856,0.02136 0.1241438,0 0.225001,-0.109447 0.225001,-0.245273 V 4.688921 4.443411 c 0,-0.609819 0.3401437,-1.133372 0.8256043,-1.35613 L 11.703522,1.575932 c 0.107212,-0.04877 0.223258,-0.07592 0.345857,-0.07592 0.497016,0 0.90044,0.439477 0.90044,0.981266 v 6.86758 c -2e-5,0.609791 -0.341934,1.133374 -0.82752,1.356838 z"
     id="path2"
     style="fill:url(#linearGradient2);stroke-width:0.948685" />
  <path
     d="m 10.767639,7.1053542 c 0,0.3000367 0.0062,0.5501451 -0.14435,0.816719 -0.122369,0.2168277 -0.317105,0.3499179 -0.533417,0.3499179 -0.295587,0 -0.468611,-0.2248973 -0.468611,-0.558298 0,-0.6557144 0.588853,-0.7749208 1.146387,-0.7749208 z m 0.7771,1.8772016 c -0.05111,0.045651 -0.124784,0.048814 -0.182235,0.017879 C 11.10639,8.7879655 11.060563,8.6896719 10.920723,8.4873915 10.497738,8.9178878 10.198044,9.0470006 9.65011,9.0470006 c -0.6489216,0 -1.1534739,-0.3999244 -1.1534739,-1.1999331 0,-0.6250267 0.3387516,-1.0499626 0.8218099,-1.2583522 0.418149,-0.1833647 1.002236,-0.2166227 1.44918,-0.2667 v -0.100012 c 0,-0.1832235 0.0142,-0.3999907 -0.09376,-0.5582972 -0.09375,-0.1416856 -0.273998,-0.1999578 -0.432515,-0.1999578 -0.293924,0 -0.555337,0.15042 -0.619438,0.4622442 -0.0135,0.069463 -0.064032,0.1380366 -0.1340103,0.1416274 L 8.7409738,5.9867719 C 8.6779218,5.9726335 8.6077568,5.9220039 8.6260175,5.825834 8.7975833,4.9205351 9.616002,4.647 10.349397,4.647 c 0.374915,0 0.86517,0.100012 1.160764,0.3833394 0.374914,0.3500534 0.338888,0.8167184 0.338888,1.3250812 v 1.1994077 c 0,0.3607685 0.149912,0.5191339 0.290822,0.713732 0.04925,0.069855 0.06037,0.1531992 -0.0018,0.2042664 -0.157476,0.1318962 -0.437303,0.3746658 -0.591197,0.5114628 z"
     id="path1"
     style="color:#d5c289;fill:#ff9955;fill-rule:evenodd;stroke-width:0.293332" />
  <path
     d="m 6.248003,7.1055367 c 0,0.3000367 0.0062,0.5501451 -0.14435,0.816719 -0.122369,0.2168277 -0.317105,0.3499179 -0.533417,0.3499179 -0.295587,0 -0.468611,-0.2248973 -0.468611,-0.558298 0,-0.6557144 0.588853,-0.7749208 1.146387,-0.7749208 z m 0.7771,1.8772016 C 6.973993,9.0283893 6.900319,9.0315523 6.842868,9.0006173 6.586754,8.788148 6.540927,8.6898544 6.401087,8.487574 5.978102,8.9180703 5.678408,9.0471831 5.130474,9.0471831 4.481552,9.0471831 3.977,8.6472587 3.977,7.84725 3.977,7.2222233 4.315752,6.7972874 4.79881,6.5888978 5.216959,6.4055331 5.801046,6.3722751 6.24799,6.3221978 v -0.100012 c 0,-0.1832235 0.0142,-0.3999907 -0.09376,-0.5582972 C 6.06048,5.522203 5.880232,5.4639308 5.721715,5.4639308 c -0.293924,0 -0.555337,0.15042 -0.619438,0.4622442 -0.0135,0.069463 -0.06403,0.1380366 -0.13401,0.1416274 L 4.221338,5.9869544 C 4.158286,5.9728164 4.088121,5.9221864 4.106381,5.8260165 c 0.171566,-0.9052989 0.989985,-1.178834 1.72338,-1.178834 0.374915,0 0.86517,0.100012 1.160764,0.3833394 0.374914,0.3500534 0.338888,0.8167184 0.338888,1.3250812 v 1.1994077 c 0,0.3607685 0.149912,0.5191339 0.290822,0.713732 0.04925,0.069855 0.06037,0.1531992 -0.0018,0.2042664 C 7.460959,8.6049054 7.181132,8.847675 7.027238,8.984472 Z"
     id="path1-8"
     style="color:#d5c289;fill:#ff9955;fill-rule:evenodd;stroke-width:0.293332" />
  <g
     fill-rule="evenodd"
     id="g4"
     transform="matrix(0.27932807,0,0,0.27932807,1.3514157,-1.1046343)">
    <path
       d="m 38.201,37.2 c -3.818,2.879 -9.347,4.42 -14.113,4.42 -6.677,0 -12.69,-2.531 -17.241,-6.745 -0.357,-0.33 -0.037,-0.78 0.392,-0.524 4.908,2.927 10.983,4.687 17.253,4.687 4.225,0 8.881,-0.896 13.156,-2.761 0.65,-0.277 1.19,0.435 0.555,0.918"
       id="path3"
       style="fill:#ff2a2a" />
    <path
       d="m 39.79,35.338 c -0.488,-0.64 -3.227,-0.305 -4.452,-0.152 -0.377,0.046 -0.435,-0.289 -0.094,-0.53 2.179,-1.571 5.761,-1.12 6.175,-0.591 0.419,0.53 -0.106,4.206 -2.158,5.96 -0.314,0.271 -0.613,0.126 -0.472,-0.231 0.456,-1.179 1.492,-3.819 1,-4.457"
       id="path4"
       style="fill:#ff2a2a" />
  </g>
</svg>
