<?xml version="1.0" encoding="UTF-8" standalone="no"?>
<svg
   height="16"
   width="16"
   version="1.1"
   id="svg786"
   sodipodi:docname="utilities-log-viewer.svg"
   inkscape:version="1.3 (0e150ed6c4, 2023-07-21)"
   xmlns:inkscape="http://www.inkscape.org/namespaces/inkscape"
   xmlns:sodipodi="http://sodipodi.sourceforge.net/DTD/sodipodi-0.dtd"
   xmlns:xlink="http://www.w3.org/1999/xlink"
   xmlns="http://www.w3.org/2000/svg"
   xmlns:svg="http://www.w3.org/2000/svg">
  <defs
     id="defs790">
    <linearGradient
       id="linearGradient3"
       inkscape:collect="always">
      <stop
         style="stop-color:#bc5fd3;stop-opacity:1"
         offset="0"
         id="stop3" />
      <stop
         style="stop-color:#4bc0c8;stop-opacity:1;"
         offset="0.51038259"
         id="stop1" />
      <stop
         style="stop-color:#ffb380;stop-opacity:1"
         offset="1"
         id="stop5" />
    </linearGradient>
    <linearGradient
       id="linearGradient4903"
       x1="13.286"
       x2="13.275"
       y1="1.9581"
       y2="2.8476"
       gradientUnits="userSpaceOnUse">
      <stop
         stop-color="#a3be8c"
         offset="0"
         id="stop4899" />
      <stop
         stop-color="#97b67c"
         offset="1"
         id="stop4901"
         style="stop-color:#64844a;stop-opacity:1;" />
    </linearGradient>
    <linearGradient
       id="a-3"
       x1="428.81601"
       x2="388.86499"
       y1="547.63397"
       y2="499.67899"
       gradientTransform="matrix(0.4500002,0,0,0.44685936,-172.85657,-223.00208)"
       gradientUnits="userSpaceOnUse">
      <stop
         stop-color="#bdc3c7"
         offset="0"
         id="stop2193"
         style="stop-color:#ff99ff;stop-opacity:1;" />
      <stop
         stop-color="#eff0f1"
         offset="1"
         id="stop2195"
         style="stop-color:#ffccaa;stop-opacity:1" />
    </linearGradient>
    <linearGradient
       id="c-3"
       y1="521.15002"
       x1="394.22"
       y2="533.40997"
       gradientUnits="userSpaceOnUse"
       x2="416.85001"
       gradientTransform="translate(-12.764,-10.07)">
      <stop
         stop-color="#292c2f"
         id="stop225" />
      <stop
         offset="1"
         stop-opacity="0"
         id="stop227" />
    </linearGradient>
    <linearGradient
       id="linearGradient1889"
       gradientUnits="userSpaceOnUse"
       x1="19.915001"
       x2="33.915001"
       y1="-5.5933328"
       y2="8.4066668"
       gradientTransform="translate(-43.932612,-24.930416)">
      <stop
         offset="0"
         stop-color="#292c2f"
         id="stop743-6" />
      <stop
         offset="1"
         stop-opacity="0"
         id="stop745-7" />
    </linearGradient>
    <linearGradient
       id="linearGradient1893"
       gradientUnits="userSpaceOnUse"
       x1="6.9150009"
       x2="6.9150009"
       y1="18.041945"
       y2="9.8719463"
       gradientTransform="translate(-43.932612,-28.932366)">
      <stop
         offset="0"
         stop-color="#eff0f1"
         id="stop738-5" />
      <stop
         offset="1"
         stop-color="#fcfcfc"
         id="stop740-3" />
    </linearGradient>
    <linearGradient
       id="a-2"
       gradientUnits="userSpaceOnUse"
       x1="9.7101107"
       x2="16.78154"
       y1="7.142858"
       y2="14.214287">
      <stop
         offset="0"
         stop-color="#292c2f"
         id="stop204" />
      <stop
         offset="1"
         stop-opacity="0"
         id="stop206" />
    </linearGradient>
    <linearGradient
       id="b-7"
       gradientUnits="userSpaceOnUse"
       x1="8"
       x2="8"
       y1="13"
       y2="5">
      <stop
         offset="0"
         stop-color="#eff0f1"
         id="stop209" />
      <stop
         offset="1"
         stop-color="#fcfcfc"
         id="stop211" />
    </linearGradient>
    <linearGradient
       id="linearGradient6495"
       x1="12.05"
       x2="12.066"
       y1="1.9716001"
       y2="2.8515"
       gradientUnits="userSpaceOnUse">
      <stop
         stop-color="#ebcb8b"
         offset="0"
         id="stop15-9" />
      <stop
         stop-color="#eac57b"
         offset="1"
         id="stop17-3"
         style="stop-color:#ba861e;stop-opacity:1;" />
    </linearGradient>
    <linearGradient
       id="linearGradient6567"
       x1="13.286"
       x2="13.275"
       y1="1.9581"
       y2="2.8476"
       gradientUnits="userSpaceOnUse">
      <stop
         stop-color="#a3be8c"
         offset="0"
         id="stop20" />
      <stop
         stop-color="#97b67c"
         offset="1"
         id="stop22" />
    </linearGradient>
    <linearGradient
       id="linearGradient6639"
       x1="14.461"
       x2="14.467"
       y1="1.9502"
       y2="2.8203001"
       gradientUnits="userSpaceOnUse">
      <stop
         stop-color="#bf616a"
         offset="0"
         id="stop25" />
      <stop
         stop-color="#b54a55"
         offset="1"
         id="stop27" />
    </linearGradient>
    <filter
       id="filter30427"
       x="-0.1339518"
       y="-0.3388412"
       width="1.2679036"
       height="1.6776824"
       color-interpolation-filters="sRGB">
      <feGaussianBlur
         stdDeviation="0.48299559"
         id="feGaussianBlur37" />
    </filter>
    <linearGradient
       id="linearGradient29728"
       x1="8.9888"
       x2="8.9888"
       y1="6.2073998"
       y2="12.653"
       gradientUnits="userSpaceOnUse"
       gradientTransform="matrix(1.1275838,0,0,1.1275838,1.2427669,1.4742125)">
      <stop
         stop-color="#2e3440"
         offset="0"
         id="stop32" />
      <stop
         stop-color="#4c566a"
         offset="1"
         id="stop34" />
    </linearGradient>
    <linearGradient
       gradientTransform="matrix(0.44998122,0,0,0.44995571,-194.84947,-224.68601)"
       gradientUnits="userSpaceOnUse"
       x2="426.69501"
       y2="499.92099"
       y1="547.67499"
       id="a-6"
       x1="389.32001"
       xlink:href="#linearGradient6567">
      <stop
         stop-color="#18222a"
         style="stop-color:#1e2b35;stop-opacity:1"
         id="stop216" />
      <stop
         stop-color="#566069"
         offset="1"
         style="stop-color:#6d7983;stop-opacity:1"
         id="stop218" />
    </linearGradient>
    <linearGradient
       id="paint0_linear-3"
       x1="51"
       y1="10"
       x2="11"
       y2="50"
       gradientUnits="userSpaceOnUse"
       gradientTransform="matrix(0.28285562,0,0,0.28285562,35.144175,-10.240405)">
      <stop
         stop-color="#6EB4D9"
         id="stop229" />
      <stop
         offset="1"
         stop-color="#004E6E"
         id="stop231" />
    </linearGradient>
    <linearGradient
       id="paint1_linear-6"
       x1="8"
       y1="8"
       x2="48"
       y2="48"
       gradientUnits="userSpaceOnUse"
       gradientTransform="matrix(0.28285562,0,0,0.28285562,35.144175,-10.240405)">
      <stop
         stop-color="#44F0D3"
         id="stop234" />
      <stop
         offset="1"
         stop-color="#3DAEE9"
         id="stop236" />
    </linearGradient>
    <linearGradient
       id="A"
       y1="520.79797"
       x1="393.57101"
       y2="534.79797"
       x2="407.57101"
       gradientUnits="userSpaceOnUse"
       gradientTransform="translate(-425.56706,-545.39021)">
      <stop
         stop-color="#383e51"
         id="stop2" />
      <stop
         offset="1"
         stop-color="#655c6f"
         stop-opacity="0"
         id="stop4" />
    </linearGradient>
    <linearGradient
       id="D"
       x1="400.57101"
       y1="542.79797"
       x2="400.57101"
       y2="517.79797"
       gradientUnits="userSpaceOnUse"
       gradientTransform="translate(-425.56706,-545.39021)">
      <stop
         stop-color="#7cbaf8"
         id="stop17" />
      <stop
         offset="1"
         stop-color="#f4fcff"
         id="stop19" />
    </linearGradient>
    <linearGradient
       id="c-36"
       gradientUnits="userSpaceOnUse"
       x1="11.072659"
       x2="10.958864"
       y1="19.88957"
       y2="1.993852"
       gradientTransform="matrix(1.888889,0,0,1.888889,-119.04897,29.730695)">
      <stop
         offset="0"
         stop-color="#197cf1"
         id="stop12" />
      <stop
         offset="1"
         stop-color="#21c9fb"
         id="stop14" />
    </linearGradient>
    <linearGradient
       id="linearGradient6495-3"
       x1="12.05"
       x2="12.066"
       y1="1.9716001"
       y2="2.8515"
       gradientUnits="userSpaceOnUse">
      <stop
         stop-color="#ebcb8b"
         offset="0"
         id="stop15-9-6" />
      <stop
         stop-color="#eac57b"
         offset="1"
         id="stop17-3-7" />
    </linearGradient>
    <linearGradient
       inkscape:collect="always"
       xlink:href="#linearGradient3"
       id="linearGradient5"
       x1="4.8099999"
       y1="52.959999"
       x2="61.456795"
       y2="6.4213896"
       gradientUnits="userSpaceOnUse" />
  </defs>
  <sodipodi:namedview
     id="namedview788"
     pagecolor="#ffffff"
     bordercolor="#666666"
     borderopacity="1.0"
     inkscape:showpageshadow="2"
     inkscape:pageopacity="0.0"
     inkscape:pagecheckerboard="0"
     inkscape:deskcolor="#d1d1d1"
     showgrid="true"
     inkscape:zoom="32"
     inkscape:cx="7.578125"
     inkscape:cy="8.046875"
     inkscape:window-width="1920"
     inkscape:window-height="994"
     inkscape:window-x="0"
     inkscape:window-y="0"
     inkscape:window-maximized="1"
     inkscape:current-layer="svg786">
    <inkscape:grid
       id="grid1"
       units="px"
       originx="0"
       originy="0"
       spacingx="1"
       spacingy="1"
       empcolor="#0099e5"
       empopacity="0.30196078"
       color="#0099e5"
       opacity="0.14901961"
       empspacing="5"
       dotted="false"
       gridanglex="30"
       gridanglez="30"
       visible="true" />
  </sodipodi:namedview>
  <linearGradient
     id="a"
     gradientTransform="matrix(0.41666647,0,0,0.54999974,-188.65687,-279.08879)"
     gradientUnits="userSpaceOnUse"
     x1="418.16971"
     x2="384.57144"
     y1="503.07938"
     y2="531.45813">
    <stop
       offset="0"
       stop-color="#1abc9c"
       id="stop719" />
    <stop
       offset="1"
       stop-color="#2980b9"
       id="stop721" />
  </linearGradient>
  <linearGradient
     id="b"
     gradientUnits="userSpaceOnUse"
     x1="29.85095"
     x2="54.317608"
     y1="22.348566"
     y2="28.506302"
     gradientTransform="matrix(0.45454545,0,0,0.58333277,-4.4545431,-1.5000305)">
    <stop
       offset="0"
       stop-color="#cc4a5e"
       id="stop724" />
    <stop
       offset="1"
       stop-color="#aa478a"
       id="stop726" />
  </linearGradient>
  <linearGradient
     id="c"
     gradientUnits="userSpaceOnUse"
     x1="24.393862"
     x2="20.645596"
     xlink:href="#d"
     y1="41.223652"
     y2="25.34318"
     gradientTransform="matrix(0.45454545,0,0,0.58333277,-4.4545431,-1.5000305)" />
  <linearGradient
     id="d">
    <stop
       offset="0"
       stop-color="#334545"
       id="stop730" />
    <stop
       offset="1"
       stop-color="#536161"
       id="stop732" />
  </linearGradient>
  <linearGradient
     id="e"
     gradientTransform="matrix(-0.41666647,0,0,0.53472146,212.28397,-306.82071)"
     gradientUnits="userSpaceOnUse"
     x1="430.57141"
     x2="440.17142"
     xlink:href="#d"
     y1="569.97992"
     y2="562.49939" />
  <linearGradient
     id="f"
     gradientTransform="matrix(-0.41666647,0,0,0.53472146,190.40467,-283.78051)"
     gradientUnits="userSpaceOnUse"
     x1="430.57141"
     x2="440.17142"
     xlink:href="#d"
     y1="569.97992"
     y2="562.49939" />
  <linearGradient
     id="g"
     gradientTransform="matrix(-0.41666647,0,0,0.53472146,194.40467,-286.3305)"
     gradientUnits="userSpaceOnUse"
     x1="430.57141"
     x2="440.17142"
     xlink:href="#d"
     y1="569.97992"
     y2="562.49939" />
  <linearGradient
     id="h"
     gradientUnits="userSpaceOnUse"
     x1="6.9150009"
     x2="6.9150009"
     y1="18.041945"
     y2="9.8719463"
     gradientTransform="translate(-43.932612,-28.932366)">
    <stop
       offset="0"
       stop-color="#eff0f1"
       id="stop738" />
    <stop
       offset="1"
       stop-color="#fcfcfc"
       id="stop740" />
  </linearGradient>
  <linearGradient
     id="i"
     gradientUnits="userSpaceOnUse"
     x1="19.915001"
     x2="33.915001"
     y1="-5.5933328"
     y2="8.4066668"
     gradientTransform="translate(-43.932612,-24.930416)">
    <stop
       offset="0"
       stop-color="#292c2f"
       id="stop743" />
    <stop
       offset="1"
       stop-opacity="0"
       id="stop745" />
  </linearGradient>
  <g
     id="g2"
     transform="matrix(0.21875,0,0,0.22705771,1,0.73528857)">
    <path
       d="M 58.53,5.57 H 5.48 C 2.46,5.57 0,8.02 0,11.04 v 41.91 c 0,3.02 2.46,5.47 5.48,5.47 h 53.05 c 3.02,0 5.47,-2.46 5.47,-5.47 V 11.04 C 64,8.02 61.54,5.57 58.53,5.57 Z M 4.81,19.38 h 54.38 v 33.58 c 0,0.37 -0.3,0.67 -0.66,0.67 H 5.48 c -0.37,0 -0.67,-0.3 -0.67,-0.67 V 19.38 Z M 7.16,12.9 c 0,-0.52 0.42,-0.92 0.92,-0.92 h 2.25 c 0.51,0 0.92,0.41 0.92,0.92 0,0.51 -0.42,0.92 -0.92,0.92 H 8.08 c -0.5,0 -0.92,-0.41 -0.92,-0.92 z m 5.1,0 c 0,-0.52 0.41,-0.92 0.92,-0.92 h 2.25 c 0.52,0 0.92,0.41 0.92,0.92 0,0.51 -0.41,0.92 -0.92,0.92 h -2.25 c -0.51,0 -0.92,-0.41 -0.92,-0.92 z m 5.11,0 c 0,-0.52 0.42,-0.92 0.92,-0.92 h 2.25 c 0.51,0 0.92,0.41 0.92,0.92 0,0.51 -0.42,0.92 -0.92,0.92 h -2.25 c -0.5,0 -0.92,-0.41 -0.92,-0.92 z"
       id="path1"
       style="fill:url(#linearGradient5)" />
  </g>
  <path
     style="fill:#ee514f;fill-opacity:1;fill-rule:nonzero;stroke:none;stroke-width:0.446783"
     d="m 6.0992054,6 h 1.4618838 c 0.081216,0 0.1468795,0.066978 0.1468795,0.1498226 0,0.082844 -0.065663,0.1498228 -0.1468795,0.1498228 H 6.0992054 c -0.081216,0 -0.1468792,-0.066978 -0.1468792,-0.1498228 C 5.9523262,6.0669792 6.0179882,6 6.0992054,6 Z m 0,0"
     id="path3" />
  <path
     d="m 6.131528,9.3084416 h 4.411577 c 0.0743,0 0.134775,0.059928 0.134775,0.1357218 0,0.07579 -0.06048,0.1374833 -0.134775,0.1374833 H 6.131528 c -0.0743,0 -0.134783,-0.061692 -0.134783,-0.1374833 0,-0.075791 0.060481,-0.1357218 0.134783,-0.1357218 z m 0,0"
     id="path4"
     style="fill:#e6e6e6;fill-opacity:1" />
  <path
     d="m 6.0983423,11.590443 h 3.8033223 c 0.081218,0 0.1468724,0.06695 0.1468724,0.148056 0,0.08284 -0.065655,0.149825 -0.1468724,0.149825 H 6.0983423 c -0.081216,0 -0.1468792,-0.06695 -0.1468792,-0.149825 0,-0.08108 0.065662,-0.148056 0.1468792,-0.148056 z m 0,0"
     id="path5"
     style="fill:#e6e6e6;fill-opacity:1" />
  <path
     style="fill:#3fa3f5;fill-opacity:1;fill-rule:nonzero;stroke:none;stroke-width:0.446783"
     d="m 4.782473,8.388353 c 0.3231351,0 0.5840624,0.2679181 0.5840624,0.5975289 0,0.3296091 -0.2609273,0.5957648 -0.5840624,0.5957648 -0.323135,0 -0.5857904,-0.2661557 -0.5857904,-0.5957648 0,-0.3296108 0.2626554,-0.5975289 0.5857904,-0.5975289 z m 0,0"
     id="path6" />
  <path
     style="fill:#3fa3f5;fill-opacity:1;fill-rule:nonzero;stroke:none;stroke-width:0.446783"
     d="m 4.782473,10.776704 c 0.3231351,0 0.5840624,0.266157 0.5840624,0.595763 0,0.329617 -0.2609273,0.597533 -0.5840624,0.597533 -0.323135,0 -0.5857904,-0.267916 -0.5857904,-0.597533 0,-0.329606 0.2626554,-0.595763 0.5857904,-0.595763 z m 0,0"
     id="path7" />
  <path
     d="m 6.0992054,7 h 2.9254963 c 0.081216,0 0.1468793,0.066979 0.1468793,0.1498225 0,0.082844 -0.065663,0.1498229 -0.1468793,0.1498229 H 6.0992054 c -0.081216,0 -0.1468792,-0.066978 -0.1468792,-0.1498229 C 5.9523262,7.0669785 6.0179882,7 6.0992054,7 Z m 0,0"
     id="path9"
     style="fill:#e6e6e6;fill-opacity:1" />
  <path
     style="fill:#3fa3f5;fill-opacity:1;fill-rule:nonzero;stroke:none;stroke-width:0.446783"
     d="m 6.0992054,8.388353 h 1.4618838 c 0.081216,0 0.1468795,0.066978 0.1468795,0.1498227 0,0.081082 -0.065663,0.1480594 -0.1468795,0.1480594 H 6.0992054 c -0.081216,0 -0.1468792,-0.066978 -0.1468792,-0.1480594 0,-0.082845 0.065662,-0.1498227 0.1468792,-0.1498227 z m 0,0"
     id="path10" />
  <path
     style="fill:#3fa3f5;fill-opacity:1;fill-rule:nonzero;stroke:none;stroke-width:0.446783"
     d="m 6.0992054,10.6 h 1.4618838 c 0.081216,0 0.1468795,0.06696 0.1468795,0.148066 0,0.08283 -0.065663,0.149815 -0.1468795,0.149815 H 6.0992054 c -0.081216,0 -0.1468792,-0.06696 -0.1468792,-0.149815 0,-0.08107 0.065662,-0.148066 0.1468792,-0.148066 z m 0,0"
     id="path11" />
  <path
     d="m 8.14688,8.6862351 h 2.925495 c 0.08121,0 0.146879,-0.066978 0.146879,-0.1480594 0,-0.082845 -0.06564,-0.1498227 -0.146879,-0.1498227 H 8.14688 C 8.065664,8.388353 8,8.4553307 8,8.5381757 8,8.6192575 8.065662,8.6862351 8.14688,8.6862351 Z m 0,0"
     id="path12"
     style="fill:#e6e6e6;fill-opacity:1" />
  <path
     d="m 8.14688,6.2996454 h 2.925495 c 0.08121,0 0.146879,-0.066978 0.146879,-0.1498228 C 11.219254,6.0669792 11.153614,6 11.072375,6 H 8.14688 C 8.065664,6 8,6.0669778 8,6.1498226 8,6.2326661 8.065662,6.2996454 8.14688,6.2996454 Z m 0,0"
     id="path13"
     style="fill:#e6e6e6;fill-opacity:1" />
  <path
     d="m 8.14688,10.897881 h 2.925495 c 0.08121,0 0.146879,-0.06696 0.146879,-0.149815 0,-0.08107 -0.06564,-0.148066 -0.146879,-0.148066 H 8.14688 C 8.065664,10.6 8,10.666958 8,10.748066 c 0,0.08283 0.065662,0.149815 0.14688,0.149815 z m 0,0"
     id="path14"
     style="fill:#e6e6e6;fill-opacity:1" />
  <path
     style="fill:#ff5555;fill-opacity:1;fill-rule:nonzero;stroke:none;stroke-width:0.446783"
     d="m 4.782473,6 c 0.3231351,0 0.5840624,0.2679181 0.5840624,0.5975289 0,0.3296091 -0.2609273,0.5957648 -0.5840624,0.5957648 -0.323135,0 -0.5857904,-0.2661557 -0.5857904,-0.5957648 C 4.1966826,6.2679181 4.459338,6 4.782473,6 Z m 0,0"
     id="path6-3" />
</svg>
