<?xml version="1.0" encoding="UTF-8" standalone="no"?>
<svg
   height="16"
   width="16"
   version="1.1"
   id="svg23"
   sodipodi:docname="utilities-energy-monitor.svg"
   inkscape:version="1.3 (0e150ed6c4, 2023-07-21)"
   xmlns:inkscape="http://www.inkscape.org/namespaces/inkscape"
   xmlns:sodipodi="http://sodipodi.sourceforge.net/DTD/sodipodi-0.dtd"
   xmlns:xlink="http://www.w3.org/1999/xlink"
   xmlns="http://www.w3.org/2000/svg"
   xmlns:svg="http://www.w3.org/2000/svg">
  <defs
     id="defs27">
    <linearGradient
       id="linearGradient1"
       inkscape:collect="always">
      <stop
         style="stop-color:#00d455;stop-opacity:1"
         offset="0"
         id="stop1" />
      <stop
         style="stop-color:#2aff80;stop-opacity:1"
         offset="1"
         id="stop3" />
    </linearGradient>
    <linearGradient
       id="linearGradient4167">
      <stop
         style="stop-color:#009467;stop-opacity:1"
         offset="0"
         id="stop2-3" />
      <stop
         style="stop-color:#87d770;stop-opacity:1"
         offset="1"
         id="stop4-6" />
    </linearGradient>
    <linearGradient
       id="a-7"
       gradientTransform="matrix(1.4999984,0,0,1.4999984,-572.85645,-843.52287)"
       gradientUnits="userSpaceOnUse"
       x2="0"
       y1="545.79797"
       y2="517.79797">
      <stop
         offset="0"
         stop-color="#42a603"
         id="stop2-5" />
      <stop
         offset="1"
         stop-color="#78da06"
         id="stop4-3" />
    </linearGradient>
    <linearGradient
       id="linearGradient647"
       gradientUnits="userSpaceOnUse"
       x1="6.4999962"
       x2="15.500013"
       y1="6.5000162"
       y2="15.500014"
       gradientTransform="translate(52.889896,26.462872)">
      <stop
         offset="0"
         stop-color="#292c2f"
         id="stop7-5" />
      <stop
         offset="1"
         stop-opacity="0"
         id="stop9-6" />
    </linearGradient>
    <linearGradient
       id="linearGradient651"
       gradientUnits="userSpaceOnUse"
       x1="11"
       x2="11"
       y1="17"
       y2="5"
       gradientTransform="translate(52.889896,26.462872)">
      <stop
         offset="0"
         stop-color="#bcfd93"
         id="stop12-2" />
      <stop
         offset="1"
         stop-color="#fafff5"
         id="stop14-9" />
    </linearGradient>
    <linearGradient
       inkscape:collect="always"
       xlink:href="#linearGradient1"
       id="linearGradient3"
       x1="81.108002"
       y1="182.127"
       x2="227.03659"
       y2="88.049583"
       gradientUnits="userSpaceOnUse" />
    <linearGradient
       inkscape:collect="always"
       xlink:href="#linearGradient1"
       id="linearGradient2"
       gradientUnits="userSpaceOnUse"
       x1="81.108002"
       y1="182.127"
       x2="227.03659"
       y2="88.049583" />
    <linearGradient
       inkscape:collect="always"
       xlink:href="#linearGradient1"
       id="linearGradient4"
       gradientUnits="userSpaceOnUse"
       x1="81.108002"
       y1="182.127"
       x2="227.03659"
       y2="88.049583" />
    <linearGradient
       inkscape:collect="always"
       xlink:href="#linearGradient1"
       id="linearGradient5"
       gradientUnits="userSpaceOnUse"
       x1="81.108002"
       y1="182.127"
       x2="227.03659"
       y2="88.049583" />
  </defs>
  <sodipodi:namedview
     id="namedview25"
     pagecolor="#ffffff"
     bordercolor="#000000"
     borderopacity="0.25"
     inkscape:showpageshadow="2"
     inkscape:pageopacity="0.0"
     inkscape:pagecheckerboard="0"
     inkscape:deskcolor="#d1d1d1"
     showgrid="false"
     inkscape:zoom="7.5853275"
     inkscape:cx="-24.850608"
     inkscape:cy="-1.2524179"
     inkscape:window-width="1920"
     inkscape:window-height="994"
     inkscape:window-x="0"
     inkscape:window-y="0"
     inkscape:window-maximized="1"
     inkscape:current-layer="svg23" />
  <linearGradient
     id="a"
     gradientTransform="matrix(0.64285698,0,0,0.64285698,-193.62025,-304.40717)"
     gradientUnits="userSpaceOnUse"
     x2="0"
     y1="545.79797"
     y2="517.79797">
    <stop
       offset="0"
       stop-color="#42a603"
       id="stop2" />
    <stop
       offset="1"
       stop-color="#78da06"
       id="stop4" />
  </linearGradient>
  <linearGradient
     id="b"
     gradientUnits="userSpaceOnUse"
     x1="6.4999962"
     x2="15.500013"
     y1="6.5000162"
     y2="15.500014"
     gradientTransform="translate(52.889896,26.462872)">
    <stop
       offset="0"
       stop-color="#292c2f"
       id="stop7" />
    <stop
       offset="1"
       stop-opacity="0"
       id="stop9" />
  </linearGradient>
  <linearGradient
     id="c"
     gradientUnits="userSpaceOnUse"
     x1="11"
     x2="11"
     y1="17"
     y2="5"
     gradientTransform="translate(52.889896,26.462872)">
    <stop
       offset="0"
       stop-color="#bcfd93"
       id="stop12" />
    <stop
       offset="1"
       stop-color="#fafff5"
       id="stop14" />
  </linearGradient>
  <g
     id="g3"
     transform="matrix(0.04654129,0,0,0.04497826,1.0154323,1.2500001)"
     style="fill:url(#linearGradient3)">
    <path
       d="m 49.126,150.126 c 0,-42.346 26.212,-78.68 63.26,-93.643 L 131.29,18.512 C 66.847,27.667 17.126,83.194 17.126,150.126 c 0,60.895 41.157,112.355 97.113,128.035 l 3.636,-32.354 C 77.952,232.337 49.126,194.535 49.126,150.126 Z"
       id="path1"
       style="fill:url(#linearGradient2)" />
    <path
       d="m 283.019,150.126 c 0,-60.883 -41.139,-112.333 -97.076,-128.025 l -3.718,32.33 c 39.946,13.457 68.794,51.27 68.794,95.695 0,42.099 -25.907,78.255 -62.613,93.379 l -19.428,38.217 c 64.383,-9.207 114.041,-64.707 114.041,-131.596 z"
       id="path2"
       style="fill:url(#linearGradient4)" />
    <path
       d="m 226.169,134.015 c 1.26,-2.479 1.141,-5.202 -0.314,-7.572 -1.454,-2.371 -4.036,-3.316 -6.818,-3.316 H 158.216 L 171.309,9.3 C 171.755,5.441 169.363,1.443 165.637,0.337 164.868,0.109 164.089,0 163.32,0 c -2.954,0 -5.746,1.681 -7.121,4.442 L 73.946,169.718 c -1.234,2.479 -1.098,5.78 0.36,8.136 1.459,2.355 4.031,4.273 6.802,4.273 h 60.019 L 128.823,291.67 c -0.43,3.844 1.951,7.077 5.657,8.185 0.761,0.228 1.532,0.29 2.293,0.29 2.948,0 5.74,-1.637 7.133,-4.378 z"
       id="path3"
       style="fill:url(#linearGradient5)" />
  </g>
</svg>
