<?xml version="1.0" encoding="UTF-8" standalone="no"?>
<svg
   width="16"
   height="16"
   version="1.1"
   id="svg10"
   sodipodi:docname="acroread.svg"
   inkscape:version="1.4 (e7c3feb100, 2024-10-09)"
   xmlns:inkscape="http://www.inkscape.org/namespaces/inkscape"
   xmlns:sodipodi="http://sodipodi.sourceforge.net/DTD/sodipodi-0.dtd"
   xmlns:xlink="http://www.w3.org/1999/xlink"
   xmlns="http://www.w3.org/2000/svg"
   xmlns:svg="http://www.w3.org/2000/svg">
  <defs
     id="defs14">
    <linearGradient
       id="linearGradient1067"
       x1="10.232"
       x2="34.965"
       y1="4.618"
       y2="46.168999"
       gradientUnits="userSpaceOnUse"
       gradientTransform="matrix(0.23214118,0,0,0.23214118,0.57169742,0.57143599)">
      <stop
         stop-color="#fea51d"
         offset="0"
         id="stop259"
         style="stop-color:#ffcc00;stop-opacity:1" />
      <stop
         stop-color="#ff0a76"
         offset="1"
         id="stop261"
         style="stop-color:#ff00cc;stop-opacity:1" />
    </linearGradient>
    <linearGradient
       inkscape:collect="always"
       xlink:href="#linearGradient7"
       id="linearGradient8"
       x1="32.616634"
       y1="49.714283"
       x2="32.42321"
       y2="14.279902"
       gradientUnits="userSpaceOnUse"
       gradientTransform="matrix(0.28879673,0,0,0.28888885,-9.8879678,9.1111118)" />
    <linearGradient
       id="linearGradient7"
       inkscape:collect="always">
      <stop
         style="stop-color:#a8cbfe;stop-opacity:1"
         offset="0"
         id="stop7" />
      <stop
         style="stop-color:#cbbbe9;stop-opacity:1"
         offset="1"
         id="stop8" />
    </linearGradient>
  </defs>
  <sodipodi:namedview
     id="namedview12"
     pagecolor="#ffffff"
     bordercolor="#666666"
     borderopacity="1.0"
     inkscape:showpageshadow="2"
     inkscape:pageopacity="0.0"
     inkscape:pagecheckerboard="0"
     inkscape:deskcolor="#d1d1d1"
     showgrid="false"
     inkscape:zoom="14.75"
     inkscape:cx="7.661017"
     inkscape:cy="18.61017"
     inkscape:window-width="1920"
     inkscape:window-height="998"
     inkscape:window-x="0"
     inkscape:window-y="0"
     inkscape:window-maximized="1"
     inkscape:current-layer="svg10">
    <inkscape:grid
       type="xygrid"
       id="grid243"
       originx="0"
       originy="0"
       spacingy="1"
       spacingx="1"
       units="px"
       visible="false" />
  </sodipodi:namedview>
  <g
     id="g1"
     transform="matrix(0.98370538,0,0,0.99999554,8.6359383,-10.499916)">
    <path
       style="opacity:0.2;stroke-width:0.288843"
       d="m -0.6453443,12.288841 c -0.5604323,0 -0.8118532,0.02143 -1.22513,0.106075 -0.3416014,0.06998 -0.8949734,0.227524 -0.9713043,0.276477 -0.019356,0.0124 0.2031916,0.243625 1.0739629,1.118315 0.6038707,0.606586 1.1090001,1.103646 1.1224714,1.103646 0.0134791,0 0.51860505,-0.49706 1.12247136,-1.103646 C 1.3478984,12.915018 1.5704434,12.683801 1.5510908,12.671393 1.4747607,12.62244 0.92139061,12.464899 0.57978573,12.394916 0.16651323,12.31026 -0.08491117,12.288841 -0.6453443,12.288841 Z m 3.7927131,1.236804 c -0.026315,-0.01074 -2.58901757,2.554992 -2.58901678,2.5921 0,0.0269 1.28310248,1.323699 1.30973808,1.323699 0.00909,0 0.1299287,-0.115177 0.2684902,-0.255036 0.1385666,-0.139858 0.4183575,-0.416093 0.6215899,-0.613888 l 0.3688929,-0.358854 0.067687,0.102691 c 0.1651214,0.254903 0.3769611,0.742589 0.477191,1.095746 0.1233451,0.434598 0.1635767,0.741472 0.1635767,1.245834 0,0.429512 -0.012123,0.573601 -0.082352,0.911804 -0.075896,0.365498 -0.1860415,0.692615 -0.3406898,1.019011 -0.1103533,0.232905 -0.2630424,0.494271 -0.2887966,0.494271 -0.010864,0 -0.862992,-0.846965 -1.8941009,-1.882291 l -1.8749226,-1.882292 -1.8749226,1.882292 c -1.0311042,1.035326 -1.8832246,1.882291 -1.8941001,1.882291 -0.025751,0 -0.1784437,-0.261366 -0.2887971,-0.494271 -0.1979375,-0.417775 -0.3332762,-0.878393 -0.4016078,-1.367708 -0.028887,-0.206895 -0.028887,-0.919315 0,-1.126215 0.048508,-0.347349 0.1315287,-0.68641 0.2493128,-1.01224 0.076294,-0.211064 0.2692636,-0.610689 0.3700208,-0.766232 l 0.067687,-0.102691 0.353099,0.343056 c 0.1942843,0.188807 0.4740757,0.46505 0.62159,0.613888 0.1475181,0.148838 0.2752798,0.270834 0.2842848,0.270834 0.026637,0 1.3097381,-1.296796 1.3097381,-1.323699 0,-0.01353 -0.5781795,-0.60506 -1.2849201,-1.314669 -1.2422915,-1.247337 -1.2866966,-1.289421 -1.3221473,-1.267274 -0.071969,0.04497 -0.3498865,0.278156 -0.5155474,0.432205 -1.4957295,1.39089 -2.2397586,3.459867 -1.9753244,5.491144 0.1349448,1.036559 0.5219501,2.02658 1.1269842,2.882119 0.2154436,0.304649 0.3748613,0.491959 0.6915329,0.809114 0.2787092,0.279131 0.6583792,0.610675 0.7005574,0.611632 0.00885,1.98e-4 0.8583303,-0.844681 1.8873318,-1.877778 1.028996,-1.033097 1.8818461,-1.878906 1.8952284,-1.878906 0.0134007,0 0.8595395,0.838452 1.8794349,1.863107 1.019895,1.024659 1.8665725,1.870962 1.8828196,1.880035 0.073212,0.04088 0.8599598,-0.694138 1.1957994,-1.117187 0.577335,-0.727263 0.9938192,-1.57975 1.2127204,-2.479253 0.2166217,-0.890161 0.240051,-1.864329 0.06543,-2.743316 C 5.3276289,16.083692 4.6594932,14.88297 3.6730698,13.962365 3.5076383,13.807972 3.1873385,13.541965 3.1473688,13.525645 Z m -3.7927131,8.905902 c -0.0134399,0 -0.5100087,0.489061 -1.1032936,1.087847 l -1.0784755,1.088976 0.094762,0.03611 c 0.4453927,0.168348 1.1685235,0.311215 1.7316525,0.341926 0.33964962,0.0185 0.35188945,0.01774 0.67235427,0 0.35193418,-0.01943 0.59840839,-0.0501 0.93520539,-0.116232 C 0.85568705,24.82132 1.263404,24.71117 1.4439198,24.643354 L 1.5364248,24.608366 0.45794927,23.51939 C -0.13533132,22.920606 -0.63192554,22.431545 -0.6453443,22.431545 Z"
       id="path2" />
    <path
       style="fill:#3485fd;stroke-width:0.288843"
       d="m -0.32804775,24.697944 c 0.35193379,-0.01943 0.59852836,-0.05005 0.93532536,-0.11618 0.24882659,-0.04886 0.65602289,-0.159514 0.83653909,-0.22733 l 0.09273,-0.03482 -1.07869515,-1.088699 c -0.59328059,-0.598786 -1.08967486,-1.088704 -1.10309362,-1.088704 -0.0134399,0 -0.50981303,0.489918 -1.10309793,1.088704 l -1.0786943,1.088699 0.094573,0.03575 c 0.4453927,0.168349 1.1683793,0.311043 1.7315078,0.341754 0.33965007,0.0185 0.35244074,0.01854 0.67290595,8.23e-4 z"
       id="path3" />
    <path
       style="fill:url(#linearGradient8);stroke-width:0.288843"
       d="m -2.5403578,21.595021 c 1.0289959,-1.033097 1.88185428,-1.878361 1.89523658,-1.878361 0.0134007,0 0.85878909,0.838361 1.87868452,1.863016 1.019895,1.024659 1.8676479,1.870439 1.883895,1.879512 0.073212,0.04088 0.85926,-0.693525 1.1950992,-1.116574 0.5773357,-0.727263 0.9944422,-1.57945 1.213343,-2.478954 C 5.7425226,18.9735 5.7656661,17.998614 5.591045,17.119627 5.327814,15.794602 4.6599327,14.594416 3.6735093,13.673811 3.5080778,13.519419 3.1872338,13.252769 3.1472645,13.23645 c -0.026315,-0.01074 -2.58878781,2.555603 -2.58878781,2.592712 0,0.0269 1.28293661,1.323135 1.30957231,1.323135 0.00909,0 0.1299117,-0.114435 0.2684736,-0.254294 0.1385666,-0.139858 0.4182176,-0.416118 0.6214504,-0.613913 l 0.3695119,-0.359623 0.067036,0.103488 c 0.1651215,0.254903 0.3775273,0.741642 0.4777576,1.094798 0.1233447,0.434598 0.1637335,0.74203 0.1637335,1.246391 0,0.429513 -0.013158,0.573343 -0.083388,0.911546 -0.075896,0.365496 -0.1851504,0.693383 -0.3397986,1.019779 -0.1103533,0.232905 -0.2630581,0.494207 -0.2888124,0.494207 -0.010864,0 -0.8634088,-0.847089 -1.8945176,-1.882416 L -0.64524197,17.029843 -2.5199835,18.91226 c -1.0311041,1.035327 -1.883637,1.882416 -1.8945129,1.882416 -0.025751,0 -0.1784633,-0.261302 -0.2888166,-0.494207 -0.1979372,-0.417775 -0.3331842,-0.878503 -0.4015153,-1.367819 -0.028887,-0.206895 -0.028887,-0.920116 0,-1.127016 0.048507,-0.347348 0.1321445,-0.685947 0.249929,-1.011777 0.076294,-0.211064 0.2691339,-0.610355 0.3698911,-0.765898 l 0.067036,-0.103484 0.3532491,0.343292 c 0.194284,0.188808 0.4739432,0.465072 0.6214575,0.613909 0.1475181,0.148838 0.2755833,0.270621 0.2845878,0.270621 0.026641,0 1.3097142,-1.296084 1.3097142,-1.322986 0,-0.01353 -0.578241,-0.605204 -1.2849816,-1.314814 -1.2422915,-1.247336 -1.2862002,-1.289442 -1.3216514,-1.267294 -0.071969,0.04497 -0.3504408,0.278186 -0.5161017,0.432235 -1.4957296,1.390891 -2.2401583,3.459909 -1.9757242,5.491187 0.1349451,1.036559 0.521976,2.026193 1.12701,2.881731 0.2154435,0.304649 0.3757089,0.491926 0.6923801,0.80908 0.2787096,0.279131 0.6584862,0.610621 0.7006644,0.611578 0.00885,1.98e-4 0.8580085,-0.844896 1.8870102,-1.877993 z"
       id="path4" />
    <path
       style="fill:#984ee5;stroke-width:0.288843"
       d="M 0.477189,13.501375 C 1.3479603,12.626686 1.570087,12.395251 1.5507336,12.382842 1.4744035,12.333889 0.92124907,12.17648 0.5796442,12.106497 0.16637169,12.021841 -0.08480885,12 -0.64524197,12 c -0.56043273,0 -0.81161293,0.02185 -1.22488973,0.106497 -0.3416017,0.06998 -0.8947554,0.227392 -0.9710858,0.276345 -0.019356,0.0124 0.2027697,0.243844 1.073541,1.118533 0.6038706,0.606586 1.10896323,1.102885 1.12243453,1.102885 0.0134831,0 0.51856467,-0.496299 1.12243097,-1.102885 z"
       id="path5" />
    <path
       style="opacity:0.2;fill:#ffffff;stroke-width:0.288843"
       d="m -0.6453443,12 c -0.5604323,0 -0.8118528,0.02144 -1.2251296,0.106077 -0.3416014,0.06998 -0.8949738,0.227522 -0.9713047,0.276475 -0.00777,0.005 0.073725,0.09428 0.1912149,0.217796 0.2107725,-0.06737 0.5427491,-0.15676 0.7800898,-0.205382 0.4132768,-0.08464 0.6646973,-0.106077 1.2251296,-0.106077 0.56043313,0 0.81185753,0.02142 1.22513003,0.106077 0.23734306,0.04862 0.56931767,0.138011 0.78008977,0.205382 C 1.4773652,12.476836 1.5588603,12.387534 1.5510904,12.382552 1.4747603,12.333599 0.92139061,12.176058 0.57978573,12.106077 0.16651323,12.02142 -0.08491117,12 -0.6453443,12 Z m 3.7927135,1.236806 c -0.026315,-0.01074 -2.58901836,2.554991 -2.58901758,2.5921 0,0.0029 0.0820091,0.08413 0.13988589,0.141623 0.37263159,-0.401037 2.42511159,-2.454641 2.44913169,-2.444835 0.03997,0.01632 0.3602687,0.282327 0.5257002,0.436719 0.9864234,0.920606 1.6545595,2.121329 1.9177909,3.446354 0.066063,0.332552 0.098388,0.679138 0.1060426,1.029166 0.00872,-0.448026 -0.021834,-0.894157 -0.1060426,-1.318055 C 5.3276289,15.794853 4.6594928,14.59413 3.6730694,13.673524 3.5076379,13.519133 3.1873389,13.253125 3.1473692,13.236806 Z m -7.5876829,0.0073 c -0.00703,-0.0015 -0.011362,5.3e-5 -0.015796,0.0028 -0.071969,0.04497 -0.3498868,0.278156 -0.5155473,0.432205 -1.3288551,1.235713 -2.0521243,3.007009 -2.0136806,4.811241 0.040567,-1.702978 0.7559394,-3.352769 2.0136806,-4.522352 0.1656605,-0.154049 0.4435786,-0.387239 0.5155473,-0.432205 0.03545,-0.02215 0.079857,0.01994 1.3221473,1.267274 0.6285201,0.631071 1.0338576,1.048291 1.1427779,1.169097 0.059229,-0.05855 0.1421422,-0.1404 0.1421422,-0.143316 0,-0.01353 -0.5781795,-0.605061 -1.2849201,-1.314669 -1.0870045,-1.09142 -1.2571204,-1.259824 -1.3063538,-1.270096 z m 3.7949694,3.78546 -1.8749223,1.882291 c -1.0311045,1.035327 -1.8832249,1.882292 -1.8941004,1.882292 -0.025751,0 -0.1784437,-0.261366 -0.2887971,-0.494271 -0.1979375,-0.417775 -0.3332762,-0.878393 -0.4016078,-1.367708 -0.00703,-0.05038 -0.00654,-0.178502 -0.010154,-0.274219 -0.00668,0.177053 -0.00733,0.373931 -0.00395,0.55013 0.00122,-0.08913 9.017e-4,-0.180145 0.00395,-0.261241 0.00361,0.09572 0.00314,0.223842 0.010154,0.274218 0.068332,0.489316 0.2036703,0.949934 0.4016078,1.367709 0.1103534,0.232905 0.2630448,0.494271 0.2887971,0.494271 0.010876,0 0.8629959,-0.846965 1.8941004,-1.882292 l 1.8749223,-1.882291 1.8749226,1.882291 c 1.0311089,1.035327 1.883236,1.882292 1.8941009,1.882292 0.025755,0 0.1784429,-0.261366 0.2887966,-0.494271 0.1546479,-0.326397 0.2647938,-0.653514 0.3406898,-1.01901 0.043612,-0.210012 0.061263,-0.365406 0.071071,-0.540539 0.00114,0.03618 0.00306,0.07136 0.00564,0.104384 0.00118,-0.06441 0.00564,-0.104962 0.00564,-0.186762 0,-0.08026 -0.00907,-0.13494 -0.01128,-0.206511 -0.00981,0.175134 -0.02746,0.330527 -0.071071,0.540539 -0.075896,0.365497 -0.186042,0.692614 -0.3406898,1.01901 -0.1103537,0.232905 -0.2630428,0.494271 -0.2887967,0.494271 -0.010864,0 -0.862992,-0.846965 -1.8941008,-1.882292 z m 0,5.113107 c -0.0134399,0 -0.5100087,0.489061 -1.1032936,1.087847 l -1.0784751,1.088975 0.094761,0.03611 c 0.034784,0.01315 0.079889,0.02464 0.1184518,0.03724 l 0.865262,-0.873437 c 0.5932849,-0.598786 1.08985288,-1.087847 1.1032936,-1.087847 0.0134164,0 0.51001298,0.489061 1.10329397,1.087847 l 0.86074983,0.868923 c 0.041219,-0.01085 0.09822,-0.02371 0.1252203,-0.03385 L 1.5364248,24.319525 0.45794967,23.23055 C -0.13533132,22.631764 -0.63192554,22.142702 -0.6453443,22.142702 Z"
       id="path6" />
  </g>
</svg>
