<?xml version="1.0" encoding="UTF-8" standalone="no"?>
<svg
   style="isolation:isolate"
   width="16"
   height="16"
   viewBox="0 0 16 16"
   version="1.1"
   id="svg22"
   sodipodi:docname="wayland.svg"
   inkscape:version="1.3 (0e150ed6c4, 2023-07-21)"
   xmlns:inkscape="http://www.inkscape.org/namespaces/inkscape"
   xmlns:sodipodi="http://sodipodi.sourceforge.net/DTD/sodipodi-0.dtd"
   xmlns:xlink="http://www.w3.org/1999/xlink"
   xmlns="http://www.w3.org/2000/svg"
   xmlns:svg="http://www.w3.org/2000/svg">
  <sodipodi:namedview
     id="namedview22"
     pagecolor="#ffffff"
     bordercolor="#000000"
     borderopacity="0.25"
     inkscape:showpageshadow="2"
     inkscape:pageopacity="0.0"
     inkscape:pagecheckerboard="0"
     inkscape:deskcolor="#d1d1d1"
     inkscape:zoom="23.96875"
     inkscape:cx="9.178618"
     inkscape:cy="8.2398957"
     inkscape:window-width="1920"
     inkscape:window-height="994"
     inkscape:window-x="0"
     inkscape:window-y="0"
     inkscape:window-maximized="1"
     inkscape:current-layer="svg22" />
  <defs
     id="defs22">
    <style
       id="current-color-scheme"
       type="text/css">&#10;   .ColorScheme-Text { color:#d5c289; } .ColorScheme-Highlight { color:#5294e2; }&#10;  </style>
    <linearGradient
       id="arrongin"
       x1="0%"
       x2="0%"
       y1="0%"
       y2="100%">
      <stop
         offset="0%"
         style="stop-color:#dd9b44; stop-opacity:1"
         id="stop1" />
      <stop
         offset="100%"
         style="stop-color:#ad6c16; stop-opacity:1"
         id="stop2" />
    </linearGradient>
    <linearGradient
       id="aurora"
       x1="0%"
       x2="0%"
       y1="0%"
       y2="100%">
      <stop
         offset="0%"
         style="stop-color:#09D4DF; stop-opacity:1"
         id="stop3" />
      <stop
         offset="100%"
         style="stop-color:#9269F4; stop-opacity:1"
         id="stop4" />
    </linearGradient>
    <linearGradient
       id="fitdance"
       x1="0%"
       x2="0%"
       y1="0%"
       y2="100%">
      <stop
         offset="0%"
         style="stop-color:#1AD6AB; stop-opacity:1"
         id="stop5" />
      <stop
         offset="100%"
         style="stop-color:#329DB6; stop-opacity:1"
         id="stop6" />
    </linearGradient>
    <linearGradient
       id="oomox"
       x1="1.3965945"
       x2="1.3965945"
       y1="0"
       y2="14.664242"
       gradientTransform="matrix(0.75012398,0,0,0.88651032,1.452381,1.5)"
       gradientUnits="userSpaceOnUse">
      <stop
         offset="0%"
         style="stop-color:#303b3d; stop-opacity:1"
         id="stop7" />
      <stop
         offset="100%"
         style="stop-color:#bc985d; stop-opacity:1"
         id="stop8" />
    </linearGradient>
    <linearGradient
       id="rainblue"
       x1="0%"
       x2="0%"
       y1="0%"
       y2="100%">
      <stop
         offset="0%"
         style="stop-color:#00F260; stop-opacity:1"
         id="stop9" />
      <stop
         offset="100%"
         style="stop-color:#0575E6; stop-opacity:1"
         id="stop10" />
    </linearGradient>
    <linearGradient
       id="sunrise"
       x1="0%"
       x2="0%"
       y1="0%"
       y2="100%">
      <stop
         offset="0%"
         style="stop-color: #FF8501; stop-opacity:1"
         id="stop11" />
      <stop
         offset="100%"
         style="stop-color: #FFCB01; stop-opacity:1"
         id="stop12" />
    </linearGradient>
    <linearGradient
       id="telinkrin"
       x1="0%"
       x2="0%"
       y1="0%"
       y2="100%">
      <stop
         offset="0%"
         style="stop-color: #b2ced6; stop-opacity:1"
         id="stop13" />
      <stop
         offset="100%"
         style="stop-color: #6da5b7; stop-opacity:1"
         id="stop14" />
    </linearGradient>
    <linearGradient
       id="60spsycho"
       x1="0%"
       x2="0%"
       y1="0%"
       y2="100%">
      <stop
         offset="0%"
         style="stop-color: #df5940; stop-opacity:1"
         id="stop15" />
      <stop
         offset="25%"
         style="stop-color: #d8d15f; stop-opacity:1"
         id="stop16" />
      <stop
         offset="50%"
         style="stop-color: #e9882a; stop-opacity:1"
         id="stop17" />
      <stop
         offset="100%"
         style="stop-color: #279362; stop-opacity:1"
         id="stop18" />
    </linearGradient>
    <linearGradient
       id="90ssummer"
       x1="0%"
       x2="0%"
       y1="0%"
       y2="100%">
      <stop
         offset="0%"
         style="stop-color: #f618c7; stop-opacity:1"
         id="stop19" />
      <stop
         offset="20%"
         style="stop-color: #94ffab; stop-opacity:1"
         id="stop20" />
      <stop
         offset="50%"
         style="stop-color: #fbfd54; stop-opacity:1"
         id="stop21" />
      <stop
         offset="100%"
         style="stop-color: #0f83ae; stop-opacity:1"
         id="stop22" />
    </linearGradient>
    <linearGradient
       inkscape:collect="always"
       xlink:href="#aurora"
       id="linearGradient24"
       x1="2.5"
       y1="3.6547501"
       x2="9.847249"
       y2="10.34"
       gradientUnits="userSpaceOnUse" />
  </defs>
  <path
     class="ColorScheme-Text"
     d="M 13.067038,1.5 C 13.325669,1.5 13.469717,1.7015 13.5,2.1053125 L 13.174256,4.007375 h 0.07936 L 13.424702,3.866 h 0.04505 v 0.04225 c -0.234929,0.17875 -0.463277,0.6670625 -0.68344,1.4649375 -0.08349,0.68575 -0.223438,1.3195 -0.421503,1.90125 -0.174331,0.60125 -0.261905,1.155375 -0.261905,1.662375 L 11.773066,9.937 c 0,0.0845 0.125222,0.169 0.37567,0.2535 -0.04584,0.196625 -0.113765,0.29575 -0.205433,0.29575 v 0.05608 h 0.08023 v 0.04226 c 0,0.103188 -0.129322,0.155188 -0.387135,0.155188 l 0.04505,0.05608 v 0.197434 h -0.07936 c 0.05316,0.196623 0.166964,0.295751 0.341292,0.295751 v 0.09831 h -0.341305 v 0.0561 c 0.113767,0 0.171055,0.0845 0.171055,0.2535 l -0.478793,0.197442 0.04584,0.05609 v 0.04223 c 0,0.06578 -0.05728,0.09913 -0.171055,0.09913 v 0.05609 c 0.144049,0 0.216072,0.0325 0.216072,0.0983 -0.204628,0.0845 -0.474714,0.50294 -0.808642,1.25369 C 10.235193,14.166875 9.9389148,14.5 9.6876483,14.5 H 9.5968006 C 9.4069197,14.349687 9.2514137,13.852437 9.1302827,13.007437 8.6441221,11.720437 8.4010416,10.964812 8.4010416,10.73975 c 0,-0.582564 -0.1563243,-1.0985 -0.4673363,-1.7558125 -0.083482,-0.290875 -0.1407737,-0.7995 -0.1710565,-1.2415 H 7.5580357 C 7.0415923,8.710125 6.7715029,9.4486875 6.7494048,9.9930636 6.6045387,10.312375 6.4907738,10.6975 6.4072916,11.147624 c 0.311012,0.103188 0.4673363,0.202313 0.4673363,0.29575 v 0.05685 C 6.6315476,11.462875 6.4604911,11.392188 6.3614584,11.289 6.2550595,11.5425 6.1151042,12.090125 5.9399553,13.2455 5.8032738,13.780937 5.6330357,13.98 5.4276042,13.98 4.8505952,13.745187 4.3685268,13.428313 3.9805803,12.893687 c -0.060567,0 -0.1587797,-0.268124 -0.2954613,-0.803562 -0.084301,0 -0.1407738,-0.267312 -0.1710565,-0.80275 C 3.2251488,10.526875 3.0279018,9.8143127 2.9215029,8.8376875 v -1.464125 h -0.045834 l -0.2046131,0.056065 v -0.056065 c 0,-0.065814 0.067932,-0.099126 0.2046131,-0.099126 l -0.045011,-0.845 V 5.76725 L 2.5,3.65475 V 2.8576875 c 0.1440476,-0.563875 0.3953125,-0.845 0.7521577,-0.845 L 3.3888393,2.15325 3.2521577,2.111 C 3.80625,2.8625625 4.1328125,3.3923125 4.2318452,3.90825 h 0.387128 V 4.007375 H 4.3226934 V 4.1195 c 0.113765,0.43225 0.1972471,0.648375 0.2504465,0.648375 h 0.091666 L 4.8694197,4.711 4.9152529,4.767876 4.9602653,4.711 5.0060987,4.767876 v 0.04225 C 4.853869,4.92225 4.7515625,5.0774375 4.6983631,5.274875 h -0.033557 v 0.098313 h 0.079391 c 0.1063988,1.5681249 0.3036459,2.964 0.5925596,3.771625 L 5.506994,9.3 H 5.59866 C 5.7124256,9.3 5.9514137,8.684125 6.3164434,7.585625 6.5513393,7.088375 6.7223958,6.7235625 6.8287947,6.3481875 L 6.7829613,6.193 C 7.0186756,5.8265625 7.261756,5.66 7.5122024,5.66 h 0.080208 c 0.1587798,0 0.2733631,0.086938 0.3412942,0.2933125 0.2127976,0.310375 0.3838546,0.7028125 0.5123513,1.32275 l 0.6383928,1.308125 c 0.083484,0.104 0.1252236,0.221 0.1252236,0.352625 C 9.4453869,9.4909375 9.6573661,10.16125 9.8472486,10.34 H 9.983929 c 0.159597,0 0.372396,-0.9904375 0.638393,-2.361125 0.04503,0 0.171056,-0.3664375 0.375669,-1.0985 V 6.8235 l -0.21689,-0.098313 -0.170238,0.056875 h -0.21689 V 6.669125 l 0.432961,-0.04225 h 0.342114 C 11.495609,5.4154375 11.795164,4.4761875 12.068527,3.8099375 12.160193,2.43925 12.285416,1.7535 12.445014,1.7535 Z"
     id="path22"
     style="fill:url(#linearGradient24);fill-opacity:1" />
</svg>
