<?xml version="1.0" encoding="UTF-8" standalone="no"?>
<svg
   width="16"
   height="16"
   version="1.1"
   id="svg4"
   sodipodi:docname="viber.svg"
   inkscape:version="1.4.2 (unknown)"
   xmlns:inkscape="http://www.inkscape.org/namespaces/inkscape"
   xmlns:sodipodi="http://sodipodi.sourceforge.net/DTD/sodipodi-0.dtd"
   xmlns:xlink="http://www.w3.org/1999/xlink"
   xmlns="http://www.w3.org/2000/svg"
   xmlns:svg="http://www.w3.org/2000/svg">
  <sodipodi:namedview
     id="namedview4"
     pagecolor="#ffffff"
     bordercolor="#000000"
     borderopacity="0.25"
     inkscape:showpageshadow="2"
     inkscape:pageopacity="0.0"
     inkscape:pagecheckerboard="0"
     inkscape:deskcolor="#d1d1d1"
     inkscape:zoom="15.91909"
     inkscape:cx="9.5168757"
     inkscape:cy="22.394496"
     inkscape:window-width="1920"
     inkscape:window-height="994"
     inkscape:window-x="0"
     inkscape:window-y="0"
     inkscape:window-maximized="1"
     inkscape:current-layer="svg4" />
  <defs
     id="defs2">
    <linearGradient
       id="linearGradient1100"
       x1="399.57001"
       x2="399.57001"
       y1="545.79999"
       y2="517.79999"
       gradientTransform="matrix(2.1429,0,0,2.1429,-826.36,-1107.5)"
       gradientUnits="userSpaceOnUse">
      <stop
         stop-color="#3889e9"
         offset="0"
         id="stop1" />
      <stop
         stop-color="#5ea5fb"
         offset="1"
         id="stop2" />
    </linearGradient>
    <linearGradient
       inkscape:collect="always"
       xlink:href="#linearGradient1"
       id="linearGradient2"
       x1="10.707618"
       y1="18.301517"
       x2="37.173615"
       y2="44.767513"
       gradientUnits="userSpaceOnUse"
       gradientTransform="matrix(0.49119628,0,0,0.49119634,-3.759541,-7.48964)" />
    <linearGradient
       id="linearGradient1"
       inkscape:collect="always">
      <stop
         style="stop-color:#ffd42a;stop-opacity:1"
         offset="0"
         id="stop1-22" />
      <stop
         style="stop-color:#c779d0;stop-opacity:1;"
         offset="0.46874997"
         id="stop6-8" />
      <stop
         style="stop-color:#4bc0c8;stop-opacity:1;"
         offset="1"
         id="stop2-9" />
    </linearGradient>
    <linearGradient
       id="linear0"
       gradientUnits="userSpaceOnUse"
       x1="275.16666"
       y1="-20.499998"
       x2="275.16666"
       y2="106.5"
       gradientTransform="matrix(0.0429687,0,0,0.0429687,0,9.238281)">
      <stop
         offset="0"
         style="stop-color:rgb(87.843138%,87.843138%,87.843138%);stop-opacity:1;"
         id="stop1-2" />
      <stop
         offset="1"
         style="stop-color:rgb(93.333334%,93.333334%,93.333334%);stop-opacity:1;"
         id="stop2-2" />
    </linearGradient>
    <linearGradient
       id="linear1"
       gradientUnits="userSpaceOnUse"
       x1="269.875"
       y1="-20.500025"
       x2="269.875"
       y2="106.50002"
       gradientTransform="matrix(0.0859375,0,0,0.0859375,-10.914055,7.390627)">
      <stop
         offset="0"
         style="stop-color:rgb(87.843138%,87.843138%,87.843138%);stop-opacity:1;"
         id="stop3" />
      <stop
         offset="1"
         style="stop-color:rgb(93.333334%,93.333334%,93.333334%);stop-opacity:1;"
         id="stop4-8" />
    </linearGradient>
  </defs>
  <circle
     cx="32.02"
     cy="32.043999"
     r="0"
     fill="url(#linearGradient1100)"
     stroke-width="1.5715"
     id="circle2"
     style="fill:url(#linearGradient1100)" />
  <path
     id="circle2-8"
     style="opacity:0.99;fill:url(#linearGradient2);fill-opacity:1;stroke-width:0.491196"
     d="M 14.5,8 A 6.4999994,6.5000002 0 0 1 8,14.5 6.4999994,6.5000002 0 0 1 1.5,8 6.4999994,6.5000002 0 0 1 8,1.5 6.4999994,6.5000002 0 0 1 14.5,8 Z" />
  <path
     id="circle858"
     style="fill:#1c202f;fill-opacity:1;stroke-width:0.417883"
     d="M 13.529826,8 A 5.5298259,5.529827 0 0 1 8,13.52983 5.5298259,5.529827 0 0 1 2.470174,8 5.5298259,5.529827 0 0 1 8,2.47017 5.5298259,5.529827 0 0 1 13.529826,8 Z" />
  <path
     style="fill:#ffffff;stroke-width:0.0161937"
     d="M 7.7051673,12.492101 7.541866,12.469021 C 6.9996016,12.393371 6.4392252,12.144453 6.0064896,11.787352 5.3365844,11.234737 4.9417741,10.463522 4.8860192,9.5994172 l -0.011283,-0.175769 0.1451885,0.0072 c 1.0233952,0.05145 1.9245266,0.5592938 2.4888656,1.4019868 0.2595282,0.387691 0.451981,0.923062 0.485377,1.349974 0.00565,0.06978 0.015284,0.12682 0.021513,0.12682 0.00625,0 0.015848,-0.05702 0.021513,-0.12682 0.023776,-0.303147 0.1406601,-0.70614 0.2960375,-1.020413 0.3829237,-0.775355 1.0791491,-1.3557868 1.9284882,-1.6077568 0.182547,-0.05423 0.424528,-0.100097 0.583867,-0.110428 0.07415,-0.005 0.174624,-0.01255 0.223018,-0.0167 l 0.0883,-0.0084 -0.01159,0.181328 C 11.077384,10.659203 10.490685,11.58227 9.5496485,12.1118 a 3.1024501,3.0487035 0 0 1 -1.1235941,0.367097 c -0.1545285,0.02028 -0.6133012,0.02865 -0.7208487,0.01303 z M 7.2656399,10.058593 c -0.084905,-0.04364 -0.096229,-0.08067 -0.1565096,-0.5097858 -0.031697,-0.225275 -0.061414,-0.425519 -0.065942,-0.445542 -0.0059,-0.02642 -0.048681,-0.05614 -0.1590567,-0.110429 A 2.8924504,2.8423418 0 0 1 6.603377,8.8309812 l -0.1301882,-0.0879 -0.4409429,0.17243 C 5.5924346,9.0873902 5.5907364,9.0879442 5.5267745,9.0654172 5.4650765,9.0437072 5.4503605,9.0217672 5.111869,8.4491112 4.7394162,7.8183462 4.7147938,7.7630002 4.77536,7.6898582 c 0.016697,-0.0203 0.1884902,-0.15797 0.3815089,-0.305927 L 5.508095,7.1149922 5.500475,6.9876142 a 2.0835831,2.0474873 0 0 1 0.00368,-0.384635 L 5.516312,6.4583602 5.1469732,6.1774612 C 4.9239571,6.0080902 4.7711273,5.8807092 4.7617872,5.8565162 a 0.17915079,0.1760472 0 0 1 -0.00708,-0.08232 c 0.013305,-0.06564 0.6752821,-1.188392 0.7299049,-1.237895 0.026609,-0.02449 0.067073,-0.04421 0.089719,-0.04421 0.022641,0 0.234339,0.07648 0.4700936,0.169651 l 0.4290565,0.16965 0.1548112,-0.101237 c 0.084905,-0.05591 0.2114148,-0.126819 0.2804713,-0.157691 0.069339,-0.03116 0.1290562,-0.06704 0.1330187,-0.08035 0.00426,-0.01335 0.035374,-0.21888 0.069056,-0.456669 0.058018,-0.406882 0.064527,-0.435808 0.1061338,-0.481696 l 0.044434,-0.04893 0.716037,-0.0038 c 0.5482069,-0.0031 0.7253763,5.08e-4 0.7553767,0.01586 0.084904,0.04362 0.096229,0.08067 0.1567921,0.509785 0.031695,0.225275 0.061131,0.425518 0.06566,0.445541 0.00624,0.02643 0.048966,0.05591 0.1593395,0.110101 0.082921,0.04085 0.2094338,0.114049 0.2810377,0.162143 l 0.1301883,0.08817 0.440094,-0.172988 0.4400945,-0.172431 0.06509,0.02224 c 0.06255,0.02224 0.07585,0.04172 0.41547,0.616863 0.372454,0.630759 0.397076,0.686106 0.336793,0.759256 -0.01697,0.02002 -0.188491,0.157965 -0.381791,0.30648 -0.296604,0.228056 -0.350661,0.276171 -0.347264,0.308711 0.0088,0.09119 0.0065,0.543439 -0.0028,0.572917 -0.0088,0.02696 0.04727,0.07674 0.358301,0.316495 0.202641,0.156304 0.375565,0.297584 0.38434,0.313439 a 0.19415076,0.19078731 0 0 1 0.01586,0.07482 c 0,0.05701 -0.665095,1.196171 -0.73585,1.260695 -0.02689,0.0242 -0.06708,0.04421 -0.08943,0.04421 -0.02236,0 -0.233491,-0.07648 -0.4692453,-0.169929 L 9.5266862,8.7439922 9.3710258,8.8455242 c -0.085753,0.05562 -0.2122637,0.126819 -0.2816035,0.157691 -0.069057,0.03085 -0.1287734,0.06702 -0.1330188,0.08035 a 17.844323,17.53519 0 0 0 -0.068775,0.456664 C 8.8296105,9.946833 8.8233865,9.975758 8.7814944,10.021925 l -0.044433,0.04866 -0.7160373,0.005 c -0.5482069,0.0031 -0.7250936,-5.1e-4 -0.7553765,-0.01614 z M 8.2117707,8.0005362 a 1.2124519,1.1914474 0 0 0 0.670188,-0.34542 C 9.0871471,7.4534832 9.2046,7.2187552 9.2433735,6.9325722 9.2784658,6.6742032 9.2122415,6.3771752 9.0670531,6.1413342 8.9878094,6.0128442 8.7877134,5.8162182 8.6569589,5.7386232 8.4163934,5.5953922 8.1149785,5.5305922 7.84979,5.5653582 c -0.1783017,0.02335 -0.3922639,0.09901 -0.5283959,0.186337 -0.1313205,0.08457 -0.3135844,0.266989 -0.3894336,0.389639 -0.1454713,0.235008 -0.211698,0.532592 -0.1766036,0.791238 0.037922,0.281733 0.1556604,0.520077 0.3532072,0.714757 0.1389623,0.136833 0.2680187,0.221938 0.4324522,0.28507 0.2255664,0.08623 0.4443394,0.108486 0.6707544,0.06843 z"
     id="path1-6" />
</svg>
