<?xml version="1.0" encoding="UTF-8" standalone="no"?>
<svg
   width="16"
   height="16"
   viewBox="0 0 16 16"
   fill="none"
   version="1.1"
   id="svg4"
   sodipodi:docname="wire.svg"
   inkscape:version="1.4.2 (unknown)"
   xmlns:inkscape="http://www.inkscape.org/namespaces/inkscape"
   xmlns:sodipodi="http://sodipodi.sourceforge.net/DTD/sodipodi-0.dtd"
   xmlns:xlink="http://www.w3.org/1999/xlink"
   xmlns="http://www.w3.org/2000/svg"
   xmlns:svg="http://www.w3.org/2000/svg">
  <sodipodi:namedview
     id="namedview4"
     pagecolor="#ffffff"
     bordercolor="#000000"
     borderopacity="0.25"
     inkscape:showpageshadow="2"
     inkscape:pageopacity="0.0"
     inkscape:pagecheckerboard="0"
     inkscape:deskcolor="#d1d1d1"
     inkscape:zoom="16.683301"
     inkscape:cx="18.251784"
     inkscape:cy="20.469571"
     inkscape:current-layer="svg4" />
  <path
     d="m 2.2591397,10.321317 -3.751e-4,-0.0019 -4.354e-4,-0.0019 C 2.1722059,9.9508375 2.1753173,9.5769285 2.1785543,9.1878755 c 8.479e-4,-0.102988 0.00178,-0.207059 9.097e-4,-0.312332 -7.498e-4,-0.89437 -4.237e-4,-1.789006 -8.46e-5,-2.683642 4.718e-4,-1.277259 9.095e-4,-2.554558 -0.00179,-3.831187 0.016541,-0.310129 -0.1917809,-0.621604 -0.4945512,-0.68887 -0.205603,-0.05781 -0.410488,0.01245 -0.5556101,0.141965 -0.1450504,0.12942 -0.2413668,0.326955 -0.22576309,0.543292 -0.001874,1.714043 -0.001619,3.428118 -0.001206,5.142102 1.492e-4,0.686163 2.98e-4,1.372307 2.98e-4,2.058434 C 0.89986485,10.5972 1.2245017,11.634176 1.8176271,12.46343 c 0.7333038,1.041162 1.8841222,1.747165 3.1105454,1.86277 1.0857769,0.119485 2.1959349,-0.216771 3.0737437,-0.896688 1.3313909,1.061059 3.2334078,1.225182 4.7013828,0.378958 1.425592,-0.791645 2.377879,-2.439913 2.394705,-4.1474825 v -0.0013 c 0.0012,-2.433122 0.0012,-4.865264 0,-7.297411 0.02638,-0.33576 -0.222619,-0.670594 -0.555582,-0.703812 -0.200593,-0.036 -0.389942,0.04647 -0.521452,0.178787 -0.131512,0.132364 -0.215719,0.324258 -0.200597,0.527519 -0.0039,1.252514 -0.0031,2.50806 -0.0025,3.763387 6.05e-4,1.177902 0.0013,2.355598 -0.0016,3.530413 -0.0225,1.3550925 -0.866751,2.6414825 -2.048423,3.1157425 l -0.0011,2.42e-4 -0.0011,3.64e-4 C 10.8446,13.161523 9.7497122,13.040577 8.9255734,12.454794 9.5024175,11.621446 9.8243991,10.59608 9.8190992,9.5593005 c 0.00294,-1.976406 0.00294,-3.952828 0.00108,-5.929194 0.011222,-0.644561 -0.298162,-1.2838 -0.8083647,-1.641877 -0.5767931,-0.420948 -1.3825094,-0.435683 -1.9723811,-0.03644 -0.5409475,0.351102 -0.8733013,1.012274 -0.8620825,1.679364 -0.00107,1.972411 -0.00215,3.944943 0.00107,5.9175 -0.00529,1.0392415 0.313483,2.0753355 0.8982461,2.9092255 -0.7972117,0.550725 -1.8279114,0.697995 -2.7246808,0.36489 v 0 l -0.00164,-6.12e-4 C 3.3135799,12.453597 2.4911451,11.469054 2.2591397,10.321317 Z M 7.4640219,3.6256535 v -0.0042 l -2.266e-4,-0.0042 c -0.020668,-0.336105 0.2738793,-0.629603 0.5664641,-0.600138 l 0.00372,3.39e-4 0.00382,1.44e-4 c 0.2701761,0.01213 0.5143162,0.291862 0.4982222,0.599798 l -1.56e-4,0.0037 v 0.0037 c 0.00187,2.011727 0.00294,4.023392 0.00107,6.035032 C 8.5341856,10.303911 8.3319713,10.934729 8.0068536,11.480629 7.6201453,10.907738 7.4459601,10.174433 7.462318,9.4606175 l 3.72e-5,-0.0014 v -0.0014 c 0.00147,-0.971961 0.00147,-1.943917 0.00147,-2.915892 0,-0.972002 0,-1.944027 0.00147,-2.916281 z"
     stroke-width="2"
     id="path1"
     fill="url(#paint0_linear)"
     style="fill:url(#linearGradient6);fill-opacity:1" />
  <defs
     id="defs4">
    <linearGradient
       id="linearGradient4"
       inkscape:collect="always">
      <stop
         style="stop-color:#5a9cfe;stop-opacity:1"
         offset="0"
         id="stop5" />
      <stop
         style="stop-color:#9d7ed5;stop-opacity:1"
         offset="1"
         id="stop6" />
    </linearGradient>
    <linearGradient
       id="paint0_linear"
       x1="63.6838"
       y1="115.692"
       x2="63.6838"
       y2="13"
       gradientUnits="userSpaceOnUse"
       gradientTransform="translate(0)">
      <stop
         stop-color="#A93AFF"
         id="stop1" />
      <stop
         offset="1"
         stop-color="#FF81FF"
         id="stop2" />
    </linearGradient>
    <linearGradient
       id="paint1_linear"
       x1="63.6838"
       y1="115.692"
       x2="63.6838"
       y2="13"
       gradientUnits="userSpaceOnUse"
       gradientTransform="translate(0)">
      <stop
         stop-color="#A93AFF"
         id="stop3" />
      <stop
         offset="1"
         stop-color="#FF81FF"
         id="stop4" />
    </linearGradient>
    <linearGradient
       inkscape:collect="always"
       xlink:href="#linearGradient4"
       id="linearGradient6"
       x1="7.3136106"
       y1="14.349954"
       x2="8.2068005"
       y2="0"
       gradientUnits="userSpaceOnUse" />
  </defs>
</svg>
