<?xml version="1.0" encoding="UTF-8" standalone="no"?>
<svg
   style="isolation:isolate"
   width="16"
   height="16"
   viewBox="0 0 16 16"
   version="1.1"
   id="svg22"
   sodipodi:docname="kaffeine.svg"
   inkscape:version="1.3.2 (091e20ef0f, 2023-11-25)"
   xmlns:inkscape="http://www.inkscape.org/namespaces/inkscape"
   xmlns:sodipodi="http://sodipodi.sourceforge.net/DTD/sodipodi-0.dtd"
   xmlns:xlink="http://www.w3.org/1999/xlink"
   xmlns="http://www.w3.org/2000/svg"
   xmlns:svg="http://www.w3.org/2000/svg">
  <sodipodi:namedview
     id="namedview22"
     pagecolor="#ffffff"
     bordercolor="#000000"
     borderopacity="0.25"
     inkscape:showpageshadow="2"
     inkscape:pageopacity="0.0"
     inkscape:pagecheckerboard="0"
     inkscape:deskcolor="#d1d1d1"
     inkscape:zoom="16.727495"
     inkscape:cx="10.282472"
     inkscape:cy="15.184581"
     inkscape:window-width="1920"
     inkscape:window-height="944"
     inkscape:window-x="0"
     inkscape:window-y="0"
     inkscape:window-maximized="1"
     inkscape:current-layer="svg22" />
  <defs
     id="defs22">
    <style
       id="current-color-scheme"
       type="text/css">
   .ColorScheme-Text { color:#d5c289; } .ColorScheme-Highlight { color:#5294e2; }
  </style>
    <linearGradient
       id="arrongin"
       x1="0%"
       x2="0%"
       y1="0%"
       y2="100%">
      <stop
         offset="0%"
         style="stop-color:#dd9b44; stop-opacity:1"
         id="stop1" />
      <stop
         offset="100%"
         style="stop-color:#ad6c16; stop-opacity:1"
         id="stop2" />
    </linearGradient>
    <linearGradient
       id="aurora"
       x1="0%"
       x2="0%"
       y1="0%"
       y2="100%">
      <stop
         offset="0%"
         style="stop-color:#09D4DF; stop-opacity:1"
         id="stop3" />
      <stop
         offset="100%"
         style="stop-color:#9269F4; stop-opacity:1"
         id="stop4" />
    </linearGradient>
    <linearGradient
       id="fitdance"
       x1="0%"
       x2="0%"
       y1="0%"
       y2="100%">
      <stop
         offset="0%"
         style="stop-color:#1AD6AB; stop-opacity:1"
         id="stop5" />
      <stop
         offset="100%"
         style="stop-color:#329DB6; stop-opacity:1"
         id="stop6" />
    </linearGradient>
    <linearGradient
       id="oomox"
       x1="0"
       x2="0"
       y1="1.069045"
       y2="16.035675"
       gradientTransform="matrix(1.069045,0,0,1.0022297,0,-0.57142857)"
       gradientUnits="userSpaceOnUse">
      <stop
         offset="0%"
         style="stop-color:#303b3d; stop-opacity:1"
         id="stop7" />
      <stop
         offset="100%"
         style="stop-color:#bc985d; stop-opacity:1"
         id="stop8" />
    </linearGradient>
    <linearGradient
       id="rainblue"
       x1="0%"
       x2="0%"
       y1="0%"
       y2="100%">
      <stop
         offset="0%"
         style="stop-color:#00F260; stop-opacity:1"
         id="stop9" />
      <stop
         offset="100%"
         style="stop-color:#0575E6; stop-opacity:1"
         id="stop10" />
    </linearGradient>
    <linearGradient
       id="sunrise"
       x1="0%"
       x2="0%"
       y1="0%"
       y2="100%">
      <stop
         offset="0%"
         style="stop-color: #FF8501; stop-opacity:1"
         id="stop11" />
      <stop
         offset="100%"
         style="stop-color: #FFCB01; stop-opacity:1"
         id="stop12" />
    </linearGradient>
    <linearGradient
       id="telinkrin"
       x1="0%"
       x2="0%"
       y1="0%"
       y2="100%">
      <stop
         offset="0%"
         style="stop-color: #b2ced6; stop-opacity:1"
         id="stop13" />
      <stop
         offset="100%"
         style="stop-color: #6da5b7; stop-opacity:1"
         id="stop14" />
    </linearGradient>
    <linearGradient
       id="60spsycho"
       x1="0%"
       x2="0%"
       y1="0%"
       y2="100%">
      <stop
         offset="0%"
         style="stop-color: #df5940; stop-opacity:1"
         id="stop15" />
      <stop
         offset="25%"
         style="stop-color: #d8d15f; stop-opacity:1"
         id="stop16" />
      <stop
         offset="50%"
         style="stop-color: #e9882a; stop-opacity:1"
         id="stop17" />
      <stop
         offset="100%"
         style="stop-color: #279362; stop-opacity:1"
         id="stop18" />
    </linearGradient>
    <linearGradient
       id="90ssummer"
       x1="0%"
       x2="0%"
       y1="0%"
       y2="100%">
      <stop
         offset="0%"
         style="stop-color: #f618c7; stop-opacity:1"
         id="stop19" />
      <stop
         offset="20%"
         style="stop-color: #94ffab; stop-opacity:1"
         id="stop20" />
      <stop
         offset="50%"
         style="stop-color: #fbfd54; stop-opacity:1"
         id="stop21" />
      <stop
         offset="100%"
         style="stop-color: #0f83ae; stop-opacity:1"
         id="stop22" />
    </linearGradient>
    <linearGradient
       inkscape:collect="always"
       xlink:href="#linearGradient22"
       id="linearGradient24-8"
       x1="592"
       y1="67"
       x2="606.45312"
       y2="55.259766"
       gradientUnits="userSpaceOnUse"
       gradientTransform="matrix(1.0769232,0,0,1.0750212,-46.153802,-4.588649)" />
    <linearGradient
       id="linearGradient22"
       inkscape:collect="always">
      <stop
         style="stop-color:#37abc8;stop-opacity:1"
         offset="0"
         id="stop23" />
      <stop
         style="stop-color:#e580ff;stop-opacity:1"
         offset="0.64943111"
         id="stop25-9" />
      <stop
         style="stop-color:#ffdd55;stop-opacity:1"
         offset="1"
         id="stop24-7" />
    </linearGradient>
    <linearGradient
       inkscape:collect="always"
       xlink:href="#linearGradient22"
       id="linearGradient25"
       x1="7.125"
       y1="7.9999995"
       x2="11.475"
       y2="7.9999995"
       gradientUnits="userSpaceOnUse"
       gradientTransform="translate(0,0.0999995)" />
  </defs>
  <g
     transform="matrix(0.8125,0,0,0.93021427,-479.5,-48.231571)"
     id="g22"
     style="stroke-width:1.07596">
    <path
       d="m 595.99414,54 c -1.25819,0.0145 -2.17883,-0.0306 -2.93164,0.384766 -0.37641,0.20768 -0.67518,0.559426 -0.83984,0.998046 C 592.05801,55.821442 592,56.34241 592,57 v 7 c 0,0.65759 0.058,1.178558 0.22266,1.617188 0.16466,0.43862 0.46343,0.790366 0.83984,0.998046 0.75281,0.41535 1.67345,0.370226 2.93164,0.384766 h 0.004 8.0039 0.004 c 1.25819,-0.0145 2.17883,0.0306 2.93164,-0.384766 0.37641,-0.20768 0.67324,-0.559426 0.83789,-0.998046 C 607.93972,65.178558 608,64.65759 608,64 v -7 c 0,-0.65759 -0.06,-1.178558 -0.22461,-1.617188 -0.16465,-0.43862 -0.46148,-0.790366 -0.83789,-0.998046 C 606.18469,53.969406 605.26405,54.01454 604.00586,54 h -0.004 -8.00586 z M 596,55 h 8 c 1.25957,0.0147 2.08706,0.0578 2.45312,0.259766 0.1834,0.10118 0.28915,0.214649 0.38672,0.474609 C 606.9373,55.994315 607,56.40759 607,57 v 7 c 0,0.59241 -0.0626,1.005675 -0.16016,1.265625 -0.0976,0.25995 -0.20334,0.373429 -0.38672,0.474609 C 606.08705,65.942214 605.25957,65.98531 604,66 H 603.994 596 Z m -2.16602,0 h 0.33204 c 0.667,0 0.83398,0.2 0.83398,1 0,0.8 -0.16698,1 -0.83398,1 h -0.33204 C 593.16684,57 593,56.8 593,56 c 0,-0.8 0.16698,-1 0.83398,-1 z m 0,3 h 0.33204 c 0.667,0 0.83398,0.2 0.83398,1 0,0.8 -0.16698,1 -0.83398,1 h -0.33204 C 593.16684,60 593,59.8 593,59 c 0,-0.8 0.16698,-1 0.83398,-1 z m 0,3 h 0.33204 c 0.667,0 0.83398,0.2 0.83398,1 0,0.8 -0.16698,1 -0.83398,1 h -0.33204 C 593.16684,63 593,62.8 593,62 c 0,-0.8 0.16698,-1 0.83398,-1 z m 0,3 h 0.33204 c 0.667,0 0.83398,0.2 0.83398,1 0,0.8 -0.16698,1 -0.83398,1 h -0.33204 C 593.16684,66 593,65.8 593,65 c 0,-0.8 0.16698,-1 0.83398,-1 z"
       id="path22-3"
       style="fill:url(#linearGradient24-8);stroke-width:1.07596" />
  </g>
  <path
     d="M 7.37136,5.4769984 C 7.2585706,5.5322348 7.1875271,5.6436391 7.1874707,5.7653595 v 4.7476065 c 2.219e-4,0.264707 0.312735,0.417297 0.5351015,0.261272 L 11.088908,8.4004397 c 0.183798,-0.1293443 0.183798,-0.3932117 0,-0.5225562 L 7.7225722,5.5040821 C 7.6201509,5.4321585 7.4843905,5.4216921 7.37136,5.4769984 Z"
     id="path3173"
     sodipodi:nodetypes="cccccccc"
     style="fill:url(#linearGradient25);fill-opacity:1;stroke-width:0.999991" />
</svg>
