<?xml version="1.0" encoding="UTF-8" standalone="no"?>
<svg
   viewBox="0 0 23.9 23.9"
   width="23.9"
   height="23.9"
   version="1.1"
   id="svg1"
   sodipodi:docname="appointment-new.svg"
   inkscape:version="1.3.2 (091e20ef0f, 2023-11-25)"
   xmlns:inkscape="http://www.inkscape.org/namespaces/inkscape"
   xmlns:sodipodi="http://sodipodi.sourceforge.net/DTD/sodipodi-0.dtd"
   xmlns:xlink="http://www.w3.org/1999/xlink"
   xmlns="http://www.w3.org/2000/svg"
   xmlns:svg="http://www.w3.org/2000/svg">
  <sodipodi:namedview
     id="namedview1"
     pagecolor="#ffffff"
     bordercolor="#999999"
     borderopacity="1"
     inkscape:showpageshadow="2"
     inkscape:pageopacity="0"
     inkscape:pagecheckerboard="0"
     inkscape:deskcolor="#d1d1d1"
     inkscape:zoom="7.9375"
     inkscape:cx="15.11811"
     inkscape:cy="8.3149606"
     inkscape:window-width="1920"
     inkscape:window-height="994"
     inkscape:window-x="0"
     inkscape:window-y="0"
     inkscape:window-maximized="1"
     inkscape:current-layer="svg1" />
  <defs
     id="defs3051">
    <style
       type="text/css"
       id="current-color-scheme">
      .ColorScheme-Text {
        color:#d8d8d8;
      }
      </style>
    <linearGradient
       inkscape:collect="always"
       xlink:href="#linearGradient4"
       id="linearGradient2-3"
       x1="36"
       y1="-103.00001"
       x2="55"
       y2="-86.000008"
       gradientUnits="userSpaceOnUse"
       gradientTransform="rotate(90,-28.500004,-54.500004)" />
    <linearGradient
       inkscape:collect="always"
       id="linearGradient4">
      <stop
         style="stop-color:#aa87de;stop-opacity:1"
         offset="0"
         id="stop2" />
      <stop
         style="stop-color:#ff80e5;stop-opacity:1"
         offset="1"
         id="stop3" />
    </linearGradient>
    <linearGradient
       inkscape:collect="always"
       xlink:href="#linearGradient4"
       id="linearGradient2"
       x1="15"
       y1="15.000006"
       x2="22"
       y2="15.000006"
       gradientUnits="userSpaceOnUse" />
  </defs>
  <g
     id="view-history"
     transform="scale(0.746875)">
    <rect
       ry="0.91472864"
       y="0"
       x="0"
       height="32"
       width="32"
       id="rect817-5"
       style="clip-rule:evenodd;fill:#ffff96;fill-opacity:0;fill-rule:evenodd;stroke-width:1.04154;stroke-linejoin:round;stroke-miterlimit:1.41421;stroke-dasharray:none"
       rx="0.91472864" />
    <path
       d="M 3,15.985308 C 3,15.290113 3.06043,14.594926 3.181303,13.89974 4.329551,6.8269349 11.007525,2.0210539 18.078321,3.1696309 c 3.41453,0.544058 6.436239,2.418049 8.460779,5.229042 2.02454,2.8109841 2.84041,6.2567011 2.2965,9.6722011 -1.14825,7.072804 -7.826219,11.908908 -14.897018,10.760329 -1.359769,-0.211576 -2.659103,-0.634735 -3.867786,-1.269474 -0.302171,-0.151127 -0.574125,-0.302254 -0.846079,-0.48361 -0.423038,-0.272034 -0.574124,-0.816092 -0.30217,-1.239253 0.271954,-0.423163 0.815861,-0.57429 1.2389,-0.302254 0.241737,0.151126 0.483473,0.272024 0.72521,0.42316 1.02738,0.54406 2.17563,0.906763 3.323879,1.088118 6.073634,0.967219 11.845094,-3.173694 12.812034,-9.279268 0.48348,-2.96212 -0.21152,-5.894 -1.96411,-8.3422811 C 23.30587,7.0082919 20.73742,5.4063349 17.77615,4.9227249 11.702518,3.9252739 5.931056,8.0964089 4.964111,14.171764 4.541072,16.77117 5.054761,19.431026 6.384313,21.66773 6.62605,22.090883 6.505181,22.66517 6.082141,22.906976 5.659103,23.148781 5.084979,23.027883 4.843242,22.604722 3.634559,20.609832 3,18.312679 3,15.985308 Z"
       id="path2-53"
       style="fill:url(#linearGradient2-3)" />
    <path
       d="m 20.865,22.000011 c -0.289052,0 -0.591906,-0.160928 -0.810995,-0.381905 L 15.331392,17.302253 C 15.127035,17.096255 15,16.809739 15,16.493266 v 0 -0.0037 -7.3386561 C 15,8.3294063 15.414433,8 16.038556,8 c 0.62412,0 1.038557,0.3504135 1.038557,1.1509099 V 16.015803 L 21.445518,20 c 0.44001,0.44757 0.705591,1.140125 0.289482,1.61 -0.345373,0.39 -0.560213,0.39 -0.87,0.390001"
       id="path6"
       style="color:#d1d5e9;fill:url(#linearGradient2);stroke-width:0.0185679"
       sodipodi:nodetypes="cccsccsssccsc"
       class="ColorScheme-Text" />
  </g>
</svg>
