<?xml version="1.0" encoding="UTF-8" standalone="no"?>
<svg
   width="120"
   height="40"
   version="1.1"
   viewBox="0 0 120 40"
   id="svg96"
   sodipodi:docname="menubaritem.svg"
   inkscape:version="1.4.1 (unknown)"
   xmlns:inkscape="http://www.inkscape.org/namespaces/inkscape"
   xmlns:sodipodi="http://sodipodi.sourceforge.net/DTD/sodipodi-0.dtd"
   xmlns:xlink="http://www.w3.org/1999/xlink"
   xmlns="http://www.w3.org/2000/svg"
   xmlns:svg="http://www.w3.org/2000/svg">
  <defs
     id="defs100" />
  <sodipodi:namedview
     id="namedview98"
     pagecolor="#262626"
     bordercolor="#000000"
     borderopacity="1"
     inkscape:pageshadow="2"
     inkscape:pageopacity="0.0"
     inkscape:pagecheckerboard="0"
     showgrid="true"
     inkscape:zoom="4.1037448"
     inkscape:cx="56.046371"
     inkscape:cy="39.719819"
     inkscape:window-width="1920"
     inkscape:window-height="998"
     inkscape:window-x="0"
     inkscape:window-y="0"
     inkscape:window-maximized="1"
     inkscape:current-layer="svg96"
     inkscape:showpageshadow="2"
     inkscape:deskcolor="#343434">
    <inkscape:grid
       type="xygrid"
       id="grid355"
       originx="0"
       originy="0"
       spacingy="1"
       spacingx="1"
       units="px"
       visible="true" />
  </sodipodi:namedview>
  <style
     id="current-color-scheme"
     type="text/css">.ColorScheme-ButtonBackground {
            color:#eff0f1;
            stop-color:#eff0f1;
        }
        .ColorScheme-ButtonHover {
            color:#93cee9;
            stop-color:#93cee9;
        }
        .ColorScheme-ButtonFocus{
            color:#3daee9;
            stop-color:#3daee9;
        }</style>
  <g
     id="normal-left"
     transform="matrix(0,-1,-2.5,0,78,35)">
    <path
       d="M 26,30.4 H 4 V 28 h 22 z"
       fill="transparent"
       id="path19"
       style="stroke-width:1.09545" />
  </g>
  <use
     x="0"
     y="0"
     xlink:href="#normal-top"
     id="normal-bottom"
     transform="rotate(180,20,20)" />
  <g
     id="normal-right"
     transform="matrix(0,1,2.5,0,-38,5)">
    <path
       d="M 26,30.4 H 4 V 28 h 22 z"
       fill="transparent"
       id="path21"
       style="stroke-width:1.09545" />
  </g>
  <g
     id="normal-center"
     transform="translate(-171,-59)">
    <path
       d="m 180,68 h 22 v 22 h -22 z"
       fill="transparent"
       fill-rule="evenodd"
       id="path3" />
  </g>
  <g
     id="normal-topleft"
     transform="matrix(2.5,0,0,-2.5,3,78)">
    <path
       d="m -0.4,28 v 3.6 H 2 V 28 Z"
       id="path16"
       style="stroke-width:1.22474;fill:none" />
    <path
       d="m -0.4,28 c 0,1.3296 1.0704,2.4 2.4,2.4 V 28 Z"
       fill="transparent"
       id="path12" />
  </g>
  <g
     id="normal-top"
     transform="matrix(1,0,0,-2.5,5,78)">
    <path
       d="M 26,31.6 H 4 V 28 h 22 z"
       id="path17"
       style="fill:none" />
    <path
       d="M 26,30.4 H 4 V 28 h 22 z"
       fill="transparent"
       id="path15"
       style="stroke-width:1.09545" />
  </g>
  <g
     id="hover-center"
     transform="translate(-69,-135)">
    <path
       class="ColorScheme-Text"
       d="m 118,144 h 22 v 22 h -22 z"
       fill="currentColor"
       id="path34"
       style="opacity:0.15" />
  </g>
  <g
     id="hover-topleft"
     transform="matrix(2.5,0,0,-2.5,43,78)">
    <path
       d="M 2,31.6 H -0.4 V 28 H 2 Z"
       id="path1"
       style="fill:none" />
    <path
       class="ColorScheme-Text"
       d="M 2,30.4 C 0.6704,30.4 -0.4,29.3296 -0.4,28 H 2 Z"
       fill="currentColor"
       id="path43"
       style="opacity:0.15" />
  </g>
  <g
     id="hover-top"
     transform="matrix(1,0,0,-2.5,45,78)">
    <path
       d="M 26,31.6 H 4 V 28 h 22 z"
       id="path2"
       style="fill:none" />
    <path
       class="ColorScheme-Text"
       d="M 26,30.4 H 4 V 28 h 22 z"
       fill="currentColor"
       id="path46"
       style="opacity:0.15" />
  </g>
  <g
     id="pressed-center"
     transform="translate(-29,-135)">
    <path
       class="ColorScheme-Text"
       d="m 118,144 h 22 v 22 h -22 z"
       fill="currentColor"
       id="path65"
       style="opacity:0.25" />
  </g>
  <g
     id="pressed-topleft"
     transform="matrix(2.5,0,0,-2.5,83,78)">
    <path
       class="ColorScheme-Text"
       d="M 2,30.4 C 0.6704,30.4 -0.4,29.3296 -0.4,28 H 2 Z"
       fill="currentColor"
       id="path74"
       style="opacity:0.25" />
    <path
       d="M 2,31.6 H -0.4 V 28 H 2 Z"
       id="path8"
       style="fill:none" />
  </g>
  <g
     id="pressed-top"
     transform="matrix(1,0,0,-2.5,85,78)">
    <path
       d="M 26,31.6 H 4 V 28 h 22 z"
       id="path9"
       style="fill:none" />
    <path
       class="ColorScheme-Text"
       d="M 26,30.4 H 4 V 28 h 22 z"
       fill="currentColor"
       id="path77"
       style="opacity:0.25" />
  </g>
  <use
     x="0"
     y="0"
     xlink:href="#normal-topleft"
     id="normal-topright"
     transform="matrix(-1,0,0,1,40,0)" />
  <use
     x="0"
     y="0"
     xlink:href="#normal-topleft"
     id="normal-bottomright"
     transform="rotate(180,20,20)" />
  <use
     x="0"
     y="0"
     xlink:href="#normal-topleft"
     id="normal-bottomleft"
     transform="matrix(1,0,0,-1,0,40)" />
  <use
     x="0"
     y="0"
     xlink:href="#hover-topleft"
     id="hover-topright"
     transform="matrix(-1,0,0,1,120,0)" />
  <use
     x="0"
     y="0"
     xlink:href="#hover-topleft"
     id="hover-bottomright"
     transform="rotate(180,60,20)" />
  <use
     x="0"
     y="0"
     xlink:href="#hover-topleft"
     id="hover-bottomleft"
     transform="matrix(1,0,0,-1,0,40)" />
  <g
     id="hover-right"
     transform="matrix(0,1,2.5,0,2,5)">
    <path
       class="ColorScheme-Text"
       d="M 26,30.4 H 4 V 28 h 22 z"
       fill="currentColor"
       id="path7"
       style="opacity:0.15" />
  </g>
  <use
     x="0"
     y="0"
     xlink:href="#hover-top"
     id="hover-bottom"
     transform="rotate(180,60,20)" />
  <g
     id="hover-left"
     transform="matrix(0,-1,-2.5,0,118,35)">
    <path
       class="ColorScheme-Text"
       d="M 26,30.4 H 4 V 28 h 22 z"
       fill="currentColor"
       id="path5"
       style="opacity:0.15" />
  </g>
  <use
     x="0"
     y="0"
     xlink:href="#pressed-topleft"
     id="pressed-topright"
     transform="matrix(-1,0,0,1,200,0)" />
  <use
     x="0"
     y="0"
     xlink:href="#pressed-topleft"
     id="pressed-bottomright"
     transform="rotate(180,100,20)" />
  <use
     x="0"
     y="0"
     xlink:href="#pressed-topleft"
     id="pressed-bottomleft"
     transform="matrix(1,0,0,-1,0,40)" />
  <g
     id="pressed-right"
     transform="matrix(0,1,2.5,0,42,5)">
    <path
       class="ColorScheme-Text"
       d="M 26,30.4 H 4 V 28 h 22 z"
       fill="currentColor"
       id="path14"
       style="opacity:0.25" />
  </g>
  <use
     x="0"
     y="0"
     xlink:href="#pressed-top"
     id="pressed-bottom"
     transform="rotate(180,100,20)" />
  <g
     id="pressed-left"
     transform="matrix(0,-1,-2.5,0,158,35)">
    <path
       class="ColorScheme-Text"
       d="M 26,30.4 H 4 V 28 h 22 z"
       fill="currentColor"
       id="path11"
       style="opacity:0.25" />
  </g>
  <path
     id="normal-hint-top-margin"
     d="m 19,0 h 2 v 9 h -2 z"
     fill="#ed333b"
     fill-rule="evenodd"
     style="stroke-width:1.22474;fill:#008080;opacity:0.01" />
  <path
     id="normal-hint-bottom-margin"
     d="m 19,31 h 2 v 9 h -2 z"
     fill="#ed333b"
     fill-rule="evenodd"
     style="stroke-width:1.22474;fill:#008080;opacity:0.01" />
  <path
     id="normal-hint-left-margin"
     d="m 0,19 h 9 v 2 H 0 Z"
     fill="#ed333b"
     fill-rule="evenodd"
     style="stroke-width:1.22474;fill:#008080;opacity:0.01" />
  <path
     id="normal-hint-right-margin"
     d="m 31,19 h 9 v 2 h -9 z"
     fill="#ed333b"
     fill-rule="evenodd"
     style="stroke-width:1.22474;fill:#008080;opacity:0.01" />
  <path
     id="hover-hint-top-margin"
     d="m 59,0 h 2 v 9 h -2 z"
     fill="#ed333b"
     fill-rule="evenodd"
     style="stroke-width:1.22474;fill:#008080;opacity:0.01" />
  <path
     id="hover-hint-bottom-margin"
     d="m 59,31 h 2 v 9 h -2 z"
     fill="#ed333b"
     fill-rule="evenodd"
     style="stroke-width:1.22474;fill:#008080;opacity:0.01" />
  <path
     id="hover-hint-left-margin"
     d="m 40,19 h 9 v 2 h -9 z"
     fill="#ed333b"
     fill-rule="evenodd"
     style="stroke-width:1.22474;fill:#008080;opacity:0.01" />
  <path
     id="hover-hint-right-margin"
     d="m 71,19 h 9 v 2 h -9 z"
     fill="#ed333b"
     fill-rule="evenodd"
     style="stroke-width:1.22474;fill:#008080;opacity:0.01" />
  <path
     id="pressed-hint-top-margin"
     d="m 99,0 h 2 v 9 h -2 z"
     fill="#ed333b"
     fill-rule="evenodd"
     style="stroke-width:1.22474;fill:#008080;opacity:0.01" />
  <path
     id="pressed-hint-bottom-margin"
     d="m 99,31 h 2 v 9 h -2 z"
     fill="#ed333b"
     fill-rule="evenodd"
     style="stroke-width:1.22474;fill:#008080;opacity:0.01" />
  <path
     id="pressed-hint-left-margin"
     d="m 80,19 h 9 v 2 h -9 z"
     fill="#ed333b"
     fill-rule="evenodd"
     style="stroke-width:1.22474;fill:#008080;opacity:0.01" />
  <path
     id="pressed-hint-right-margin"
     d="m 111,19 h 9 v 2 h -9 z"
     fill="#ed333b"
     fill-rule="evenodd"
     style="stroke-width:1.22474;fill:#008080;opacity:0.01" />
</svg>
