<?xml version="1.0" encoding="UTF-8" standalone="no"?>
<svg
   width="116"
   height="38"
   version="1.1"
   id="svg140"
   sodipodi:docname="menubaritem.svg"
   inkscape:version="1.3 (0e150ed6c4, 2023-07-21)"
   xmlns:inkscape="http://www.inkscape.org/namespaces/inkscape"
   xmlns:sodipodi="http://sodipodi.sourceforge.net/DTD/sodipodi-0.dtd"
   xmlns="http://www.w3.org/2000/svg"
   xmlns:svg="http://www.w3.org/2000/svg">
  <sodipodi:namedview
     id="namedview142"
     pagecolor="#02334b"
     bordercolor="#000000"
     borderopacity="1"
     inkscape:pageshadow="2"
     inkscape:pageopacity="0"
     inkscape:pagecheckerboard="true"
     showgrid="true"
     inkscape:showpageshadow="true"
     inkscape:zoom="4.2669041"
     inkscape:cx="60.699747"
     inkscape:cy="29.178064"
     inkscape:window-width="1920"
     inkscape:window-height="994"
     inkscape:window-x="0"
     inkscape:window-y="0"
     inkscape:window-maximized="1"
     inkscape:current-layer="svg140"
     inkscape:lockguides="true"
     inkscape:deskcolor="#02334b">
    <inkscape:grid
       type="xygrid"
       id="grid1509"
       originx="0"
       originy="0"
       spacingy="1"
       spacingx="1"
       units="px"
       visible="true" />
  </sodipodi:namedview>
  <defs
     id="1987">
    <style
       id="current-color-scheme"
       type="text/css">.ColorScheme-Text { stop-color:#20212b;    color:#20212b; }&#10;</style>
  </defs>
  <path
     id="normal-center"
     fill="transparent"
     d="M 30,8 V 30 H 8 V 8 Z"
     style="fill:#24273a;fill-opacity:1" />
  <g
     id="normal-left"
     transform="translate(2,2)">
    <path
       style="opacity:0.00100002"
       d="M 0,6 H 6 V 28 H 0 Z"
       id="path46" />
    <path
       fill="transparent"
       d="M 2,6 H 6 V 28 H 2 Z"
       id="path48"
       style="fill:#24273a;fill-opacity:1" />
  </g>
  <g
     id="normal-topleft"
     transform="translate(2,2)">
    <path
       style="opacity:0.00100002"
       d="M 0,0 H 6 V 6 H 0 Z"
       id="path51" />
    <path
       fill="transparent"
       d="M 6,2 V 6 H 2 C 2,2 6,2 6,2 Z"
       id="path53"
       style="fill:#24273a;fill-opacity:1" />
  </g>
  <g
     id="normal-right"
     transform="translate(2,2)">
    <path
       style="opacity:0.00100002"
       d="m 28,6 h 6 v 22 h -6 z"
       id="path56" />
    <path
       fill="transparent"
       d="m 28,6 h 4 v 22 h -4 z"
       id="path58"
       style="fill:#24273a;fill-opacity:1" />
  </g>
  <g
     id="normal-top"
     transform="translate(2,2)">
    <path
       style="opacity:0.00100002"
       d="M 28,0 V 6 H 6 V 0 Z"
       id="path61" />
    <path
       fill="transparent"
       d="M 28,2 V 6 H 6 V 2 Z"
       id="path63"
       style="fill:#24273a;fill-opacity:1" />
  </g>
  <g
     id="normal-bottom"
     transform="translate(2,2)">
    <path
       style="opacity:0.00100002"
       d="m 28,28 v 6 H 6 v -6 z"
       id="path66" />
    <path
       fill="transparent"
       d="m 28,28 v 4 H 6 v -4 z"
       id="path68"
       style="fill:#24273a;fill-opacity:1" />
  </g>
  <g
     id="normal-bottomright"
     transform="translate(2,2)">
    <path
       style="opacity:0.00100002"
       d="m 28,28 h 6 v 6 h -6 z"
       id="path71" />
    <path
       fill="transparent"
       d="m 28,32 v -4 h 4 c 0,4 -4,4 -4,4 z"
       id="path73"
       style="fill:#24273a;fill-opacity:1" />
  </g>
  <g
     id="normal-topright"
     transform="translate(2,2)">
    <path
       style="opacity:0.00100002"
       d="m 28,0 h 6 v 6 h -6 z"
       id="path76" />
    <path
       fill="transparent"
       d="m 28,2 v 4 h 4 C 32,2 28,2 28,2 Z"
       id="path78"
       style="fill:#24273a;fill-opacity:1" />
  </g>
  <g
     id="normal-bottomleft"
     transform="translate(2,2)">
    <path
       style="opacity:0.00100002"
       d="m 0,28 h 6 v 6 H 0 Z"
       id="path81" />
    <path
       fill="transparent"
       d="M 6,32 V 28 H 2 c 0,4 4,4 4,4 z"
       id="path83"
       style="fill:#24273a;fill-opacity:1" />
  </g>
  <path
     id="pressed-center"
     style="opacity:1;fill:#3b3f5e;fill-opacity:1"
     class="ColorScheme-Text"
     d="m 108,7.999995 v 22.00001 H 86 V 7.999995 Z" />
  <g
     id="pressed-left"
     transform="translate(80,1.999995)"
     style="opacity:1">
    <path
       style="opacity:0.00100002"
       d="M 0,6 H 6 V 28 H 0 Z"
       id="path87" />
    <path
       style="opacity:1;fill:#3b3f5e;fill-opacity:1"
       class="ColorScheme-Text"
       d="M 2,6 H 6 V 28 H 2 Z"
       id="path89" />
  </g>
  <g
     id="pressed-topleft"
     transform="translate(80,1.999995)"
     style="opacity:1">
    <path
       style="opacity:0.00100002"
       d="M 0,0 H 6 V 6 H 0 Z"
       id="path92" />
    <path
       style="opacity:1;fill:#3b3f5e;fill-opacity:1"
       class="ColorScheme-Text"
       d="M 6,2 V 6 H 2 C 2,2 6,2 6,2 Z"
       id="path94" />
  </g>
  <g
     id="pressed-right"
     transform="translate(80,1.999995)"
     style="opacity:1">
    <path
       style="opacity:0.00100002"
       d="m 28,6 h 6 v 22 h -6 z"
       id="path97" />
    <path
       style="opacity:1;fill:#3b3f5e;fill-opacity:1"
       class="ColorScheme-Text"
       d="m 28,6 h 4 v 22 h -4 z"
       id="path99" />
  </g>
  <g
     id="pressed-top"
     transform="translate(80,1.999995)"
     style="opacity:1">
    <path
       style="opacity:0.00100002"
       d="M 28,0 V 6 H 6 V 0 Z"
       id="path102" />
    <path
       style="opacity:1;fill:#3b3f5e;fill-opacity:1"
       class="ColorScheme-Text"
       d="M 28,2 V 6 H 6 V 2 Z"
       id="path104" />
  </g>
  <g
     id="pressed-bottom"
     transform="translate(80,1.999995)"
     style="opacity:1">
    <path
       style="opacity:0.00100002"
       d="m 28,28 v 6 H 6 v -6 z"
       id="path107" />
    <path
       style="opacity:1;fill:#3b3f5e;fill-opacity:1"
       class="ColorScheme-Text"
       d="m 28,28 v 4 H 6 v -4 z"
       id="path109" />
  </g>
  <g
     id="pressed-bottomright"
     transform="translate(80,1.999995)"
     style="opacity:1">
    <path
       style="opacity:0.00100002"
       d="m 28,28 h 6 v 6 h -6 z"
       id="path112" />
    <path
       style="opacity:1;fill:#3b3f5e;fill-opacity:1"
       class="ColorScheme-Text"
       d="m 28,32 v -4 h 4 c 0,4 -4,4 -4,4 z"
       id="path114" />
  </g>
  <g
     id="pressed-topright"
     transform="translate(80,1.999995)"
     style="opacity:1">
    <path
       style="opacity:0.00100002"
       d="m 28,0 h 6 v 6 h -6 z"
       id="path117" />
    <path
       style="opacity:1;fill:#3b3f5e;fill-opacity:1"
       class="ColorScheme-Text"
       d="m 28,2 v 4 h 4 C 32,2 28,2 28,2 Z"
       id="path119" />
  </g>
  <g
     id="pressed-bottomleft"
     transform="translate(80,1.999995)"
     style="opacity:1">
    <path
       style="opacity:0.00100002"
       d="m 0,28 h 6 v 6 H 0 Z"
       id="path122" />
    <path
       style="opacity:1;fill:#3b3f5e;fill-opacity:1"
       class="ColorScheme-Text"
       d="M 6,32 V 28 H 2 c 0,4 4,4 4,4 z"
       id="path124" />
  </g>
  <path
     id="normal-hint-top-margin"
     style="opacity:0.01;fill:#008080"
     d="m 18,2 h 2 v 6 h -2 z" />
  <path
     id="normal-hint-bottom-margin"
     style="opacity:0.01;fill:#008080"
     d="m 18,30 h 2 v 6 h -2 z" />
  <path
     id="normal-hint-left-margin"
     style="opacity:0.01;fill:#008080"
     d="m 2,18 h 6.0000002 v 2 H 2 Z" />
  <path
     id="normal-hint-right-margin"
     style="opacity:0.01;fill:#008080"
     d="m 30,18 h 6 v 2 h -6 z" />
  <path
     id="pressed-hint-top-margin"
     style="opacity:0.01;fill:#008080"
     d="m 96,1.999995 h 2 v 6 h -2 z" />
  <path
     id="pressed-hint-bottom-margin"
     style="opacity:0.01;fill:#008080"
     d="m 96,30.000005 h 2 v 6 h -2 z" />
  <path
     id="pressed-hint-left-margin"
     style="opacity:0.01;fill:#008080"
     d="m 80,17.999995 h 6 v 2 h -6 z" />
  <path
     id="pressed-hint-right-margin"
     style="opacity:0.01;fill:#008080"
     d="m 108,17.999995 h 6 v 2 h -6 z" />
  <rect
     id="hint-stretch-borders"
     style="opacity:0.01;fill:#008080"
     width="2"
     height="2"
     x="38"
     y="2" />
  <g
     id="hover-center"
     transform="translate(40,-38)">
    <path
       id="hover-center-3"
       style="opacity:1;fill:#31354f;fill-opacity:1"
       class="ColorScheme-Text"
       d="M 30,46 V 68 H 8 V 46 Z" />
  </g>
  <g
     id="hover-left"
     transform="translate(40,-38)">
    <path
       style="opacity:0.00100002"
       d="M 2,46 H 8 V 68 H 2 Z"
       id="path5-7" />
    <path
       style="fill:#31354f;fill-opacity:1"
       class="ColorScheme-Text"
       d="M 4,46 H 8 V 68 H 4 Z"
       id="path7-5" />
  </g>
  <g
     id="hover-topleft"
     transform="translate(40,-38)">
    <path
       style="opacity:0.00100002"
       d="m 2,40 h 6 v 6 H 2 Z"
       id="path10-5" />
    <path
       style="fill:#31354f;fill-opacity:1"
       class="ColorScheme-Text"
       d="m 8,42 v 4 H 4 c 0,-4 4,-4 4,-4 z"
       id="path12-6" />
  </g>
  <g
     id="hover-right"
     transform="translate(40,-38)">
    <path
       style="opacity:0.00100002"
       d="m 30,46 h 6 v 22 h -6 z"
       id="path15-9" />
    <path
       style="fill:#31354f;fill-opacity:1"
       class="ColorScheme-Text"
       d="m 30,46 h 4 v 22 h -4 z"
       id="path17-1" />
  </g>
  <g
     id="hover-top"
     transform="translate(40,-38)">
    <path
       style="opacity:0.00100002"
       d="m 30,40 v 6 H 8 v -6 z"
       id="path20-7" />
    <path
       style="fill:#31354f;fill-opacity:1"
       class="ColorScheme-Text "
       d="m 30,42 v 4 H 8 v -4 z"
       id="path22-0" />
  </g>
  <g
     id="hover-bottom"
     transform="translate(40,-38)">
    <path
       style="opacity:0.00100002"
       d="m 30,68 v 6 H 8 v -6 z"
       id="path25-3" />
    <path
       style="fill:#31354f;fill-opacity:1"
       class="ColorScheme-Text"
       d="m 30,68 v 4 H 8 v -4 z"
       id="path27-6" />
  </g>
  <g
     id="hover-bottomright"
     transform="translate(40,-38)">
    <path
       style="opacity:0.00100002"
       d="m 30,68 h 6 v 6 h -6 z"
       id="path30-6" />
    <path
       style="fill:#31354f;fill-opacity:1"
       class="ColorScheme-Text"
       d="m 30,72 v -4 h 4 c 0,4 -4,4 -4,4 z"
       id="path32-2" />
  </g>
  <g
     id="hover-topright"
     transform="translate(40,-38)">
    <path
       style="opacity:0.00100002"
       d="m 30,40 h 6 v 6 h -6 z"
       id="path35-1" />
    <path
       style="fill:#31354f;fill-opacity:1"
       class="ColorScheme-Text"
       d="m 30,42 v 4 h 4 c 0,-4 -4,-4 -4,-4 z"
       id="path37-8" />
  </g>
  <g
     id="hover-bottomleft"
     transform="translate(40,-38)">
    <path
       style="opacity:0.00100002"
       d="m 2,68 h 6 v 6 H 2 Z"
       id="path40-9" />
    <path
       style="fill:#31354f;fill-opacity:1"
       class="ColorScheme-Text"
       d="M 8,72 V 68 H 4 c 0,4 4,4 4,4 z"
       id="path42-2" />
  </g>
  <path
     id="hover-hint-top-margin-0"
     style="opacity:0.01;fill:#008080"
     d="m 58,2 h 2 v 6 h -2 z" />
  <path
     id="hover-hint-bottom-margin-2"
     style="opacity:0.01;fill:#008080"
     d="m 58,30 h 2 v 6 h -2 z" />
  <path
     id="hover-hint-left-margin-3"
     style="opacity:0.01;fill:#008080"
     d="m 42,18 h 6 v 2 h -6 z" />
  <path
     id="hover-hint-right-margin-7"
     style="opacity:0.01;fill:#008080"
     d="m 70,18 h 6 v 2 h -6 z" />
</svg>
