<?xml version="1.0" encoding="UTF-8" standalone="no"?>
<svg
   inkscape:version="1.3.2 (091e20ef0f, 2023-11-25)"
   sodipodi:docname="panel-background.svg"
   id="svg200"
   viewBox="0 0 173 68.000183"
   version="1.1"
   height="68.000183"
   width="173"
   xmlns:inkscape="http://www.inkscape.org/namespaces/inkscape"
   xmlns:sodipodi="http://sodipodi.sourceforge.net/DTD/sodipodi-0.dtd"
   xmlns:xlink="http://www.w3.org/1999/xlink"
   xmlns="http://www.w3.org/2000/svg"
   xmlns:svg="http://www.w3.org/2000/svg"
   xmlns:rdf="http://www.w3.org/1999/02/22-rdf-syntax-ns#"
   xmlns:cc="http://creativecommons.org/ns#"
   xmlns:dc="http://purl.org/dc/elements/1.1/">
  <style
     id="style2457">
.ColorScheme-Background { 
    color:#1e2431;
}
</style>
  <metadata
     id="metadata204">
    <rdf:RDF>
      <cc:Work
         rdf:about="">
        <dc:format>image/svg+xml</dc:format>
        <dc:type
           rdf:resource="http://purl.org/dc/dcmitype/StillImage" />
      </cc:Work>
    </rdf:RDF>
  </metadata>
  <sodipodi:namedview
     inkscape:document-rotation="0"
     inkscape:guide-bbox="true"
     showguides="true"
     inkscape:current-layer="svg200"
     inkscape:window-maximized="1"
     inkscape:window-y="0"
     inkscape:window-x="0"
     inkscape:cy="41.523795"
     inkscape:cx="74.469904"
     inkscape:zoom="10.259178"
     showgrid="false"
     id="namedview202"
     inkscape:window-height="996"
     inkscape:window-width="1920"
     inkscape:pageshadow="2"
     inkscape:pageopacity="1"
     guidetolerance="10"
     gridtolerance="10"
     objecttolerance="10"
     borderopacity="1"
     bordercolor="#030303"
     pagecolor="#ffffff"
     inkscape:showpageshadow="true"
     inkscape:pagecheckerboard="false"
     inkscape:deskcolor="#d1d1d1">
    <inkscape:grid
       type="xygrid"
       id="grid866"
       originx="0"
       originy="0"
       spacingy="1"
       spacingx="1"
       units="px"
       visible="false" />
  </sodipodi:namedview>
  <defs
     id="defs24">
    <style
       type="text/css"
       id="current-color-scheme" />
    <radialGradient
       xlink:href="#a"
       gradientUnits="userSpaceOnUse"
       gradientTransform="matrix(2.1666e-7,1,-0.99999,2.1665e-7,1058.1,-6.2502)"
       r="6"
       cy="945.10999"
       cx="54.25"
       id="b" />
    <radialGradient
       xlink:href="#a"
       gradientUnits="userSpaceOnUse"
       gradientTransform="rotate(-179.99991,40.320888,499.17997)"
       r="6"
       cy="950.35999"
       cx="7.6429"
       id="c" />
    <radialGradient
       xlink:href="#a"
       gradientUnits="userSpaceOnUse"
       gradientTransform="translate(59.107,-903.77)"
       r="6"
       cy="911.76001"
       cx="53.893002"
       id="d" />
    <radialGradient
       xlink:href="#a"
       gradientUnits="userSpaceOnUse"
       gradientTransform="rotate(-90,-405.39,435.58995)"
       r="6"
       cy="913.96997"
       cx="22.200001"
       id="e" />
    <linearGradient
       xlink:href="#a"
       gradientUnits="userSpaceOnUse"
       y2="932.35999"
       y1="932.35999"
       x2="61"
       x1="55"
       id="f" />
    <linearGradient
       id="a">
      <stop
         id="stop8"
         offset="0"
         stop-opacity=".66663" />
      <stop
         id="stop10"
         offset="1"
         stop-opacity="0" />
    </linearGradient>
    <linearGradient
       xlink:href="#a"
       gradientUnits="userSpaceOnUse"
       y2="932.35999"
       y1="932.35999"
       x2="-9"
       x1="-15"
       id="g" />
    <linearGradient
       xlink:href="#a"
       gradientUnits="userSpaceOnUse"
       gradientTransform="translate(58)"
       y2="54"
       y1="48"
       x2="51"
       x1="51"
       id="i" />
    <linearGradient
       xlink:href="#a"
       gradientUnits="userSpaceOnUse"
       y2="44"
       y1="44"
       x2="61"
       x1="55"
       id="h" />
    <linearGradient
       xlink:href="#a"
       gradientUnits="userSpaceOnUse"
       gradientTransform="translate(58)"
       y2="54"
       y1="48"
       x2="19"
       x1="19"
       id="k" />
    <linearGradient
       xlink:href="#a"
       gradientUnits="userSpaceOnUse"
       y2="44"
       y1="44"
       x2="9"
       x1="15"
       id="j" />
    <linearGradient
       xlink:href="#a"
       gradientUnits="userSpaceOnUse"
       y2="-35"
       y1="-35"
       x2="958.35999"
       x1="952.35999"
       id="l" />
    <linearGradient
       xlink:href="#a"
       gradientUnits="userSpaceOnUse"
       y2="12"
       y1="12"
       x2="61"
       x1="55"
       id="n" />
    <linearGradient
       xlink:href="#a"
       gradientUnits="userSpaceOnUse"
       gradientTransform="translate(58)"
       y2="2"
       y1="8"
       x2="51"
       x1="51"
       id="m" />
    <linearGradient
       xlink:href="#a"
       gradientUnits="userSpaceOnUse"
       y2="12"
       y1="12"
       x2="9"
       x1="15"
       id="p" />
    <linearGradient
       xlink:href="#a"
       gradientUnits="userSpaceOnUse"
       gradientTransform="translate(58)"
       y2="2"
       y1="8"
       x2="19"
       x1="19"
       id="o" />
    <linearGradient
       xlink:href="#a"
       gradientUnits="userSpaceOnUse"
       y2="-35"
       y1="-35"
       x2="-906.35999"
       x1="-912.35999"
       id="q" />
    <radialGradient
       gradientTransform="matrix(-3.5113632e-7,-1.8333334,1.8333333,-3.5113629e-7,55.000064,153.16665)"
       gradientUnits="userSpaceOnUse"
       r="6"
       fy="11.99998"
       fx="77"
       cy="11.99998"
       cx="77"
       id="radialGradient1033"
       xlink:href="#linearGradient4270"
       inkscape:collect="always" />
    <linearGradient
       inkscape:collect="always"
       id="linearGradient4270">
      <stop
         style="stop-color:#000000;stop-opacity:0.66663194"
         offset="0"
         id="stop4272" />
      <stop
         style="stop-color:#000000;stop-opacity:0;"
         offset="1"
         id="stop4274" />
    </linearGradient>
    <radialGradient
       gradientTransform="matrix(-3.5113632e-7,-1.8333334,1.8333333,-3.5113629e-7,55.000064,153.16665)"
       gradientUnits="userSpaceOnUse"
       r="6"
       fy="11.99998"
       fx="77"
       cy="11.99998"
       cx="77"
       id="radialGradient984"
       xlink:href="#linearGradient4270"
       inkscape:collect="always" />
    <radialGradient
       gradientTransform="matrix(-3.5113632e-7,-1.8333334,1.8333333,-3.5113629e-7,55.000064,153.16665)"
       gradientUnits="userSpaceOnUse"
       r="6"
       fy="11.99998"
       fx="77"
       cy="11.99998"
       cx="77"
       id="radialGradient992"
       xlink:href="#linearGradient4270"
       inkscape:collect="always" />
    <radialGradient
       gradientTransform="matrix(-3.5113632e-7,-1.8333334,1.8333333,-3.5113629e-7,55.000064,153.16665)"
       gradientUnits="userSpaceOnUse"
       r="6"
       fy="11.99998"
       fx="77"
       cy="11.99998"
       cx="77"
       id="radialGradient1000"
       xlink:href="#linearGradient4270"
       inkscape:collect="always" />
    <radialGradient
       gradientTransform="matrix(-3.5113632e-7,-1.8333334,1.8333333,-3.5113629e-7,55.000064,153.16665)"
       gradientUnits="userSpaceOnUse"
       r="6"
       fy="11.99998"
       fx="77"
       cy="11.99998"
       cx="77"
       id="radialGradient1029"
       xlink:href="#linearGradient4270"
       inkscape:collect="always" />
    <radialGradient
       r="6"
       fy="11.99998"
       fx="77"
       cy="11.99998"
       cx="77"
       gradientTransform="matrix(2.160942e-5,4.2777818,-3.5000066,1.7680452e-5,113.9983,-295.38937)"
       gradientUnits="userSpaceOnUse"
       id="radialGradient1031"
       xlink:href="#linearGradient4270"
       inkscape:collect="always" />
    <radialGradient
       r="6"
       fy="11.99998"
       fx="77"
       cy="11.99998"
       cx="77"
       gradientTransform="matrix(-2.1609406e-5,4.2777788,3.5000042,1.768044e-5,18.001707,-295.38908)"
       gradientUnits="userSpaceOnUse"
       id="radialGradient1025"
       xlink:href="#linearGradient4270"
       inkscape:collect="always" />
    <radialGradient
       r="6"
       fy="11.99998"
       fx="77"
       cy="11.99998"
       cx="77"
       gradientTransform="matrix(2.1609328e-5,-4.2777634,-3.4999916,-1.7680377e-5,113.99822,351.38781)"
       gradientUnits="userSpaceOnUse"
       id="radialGradient1019"
       xlink:href="#linearGradient4270"
       inkscape:collect="always" />
    <linearGradient
       gradientTransform="matrix(0.85714472,0,0,1,8.9998803,0)"
       y2="932.362"
       x2="59.499985"
       y1="932.362"
       x1="48.999989"
       gradientUnits="userSpaceOnUse"
       id="linearGradient4950"
       xlink:href="#linearGradient4270"
       inkscape:collect="always" />
    <linearGradient
       gradientTransform="matrix(0.85714301,0,0,1,-0.99999929,0)"
       y2="932.362"
       x2="-10.500002"
       y1="932.362"
       x1="-21.000002"
       gradientUnits="userSpaceOnUse"
       id="linearGradient4948"
       xlink:href="#linearGradient4270"
       inkscape:collect="always" />
    <linearGradient
       gradientTransform="matrix(0.857139,0,0,1,137.1983,0)"
       y2="-34.999985"
       x2="958.86218"
       y1="-34.999985"
       x1="946.36212"
       gradientUnits="userSpaceOnUse"
       id="linearGradient4934"
       xlink:href="#linearGradient4270"
       inkscape:collect="always" />
    <radialGradient
       r="6"
       fy="11.99998"
       fx="77"
       cy="11.99998"
       cx="77"
       gradientTransform="matrix(-2.1609313e-5,-4.2777605,3.4999892,-1.7680365e-5,18.001767,351.38762)"
       gradientUnits="userSpaceOnUse"
       id="radialGradient994"
       xlink:href="#linearGradient4270"
       inkscape:collect="always" />
    <linearGradient
       gradientTransform="matrix(1.2857281,0,0,1,264.40173,0)"
       y2="-34.999985"
       x2="-905.86224"
       y1="-34.999985"
       x1="-918.36206"
       gradientUnits="userSpaceOnUse"
       id="linearGradient4920"
       xlink:href="#linearGradient4270"
       inkscape:collect="always" />
  </defs>
  <g
     style="opacity:0.25"
     transform="matrix(1.1666636,0,0,1.1666636,64.666609,-1080.753)"
     id="shadow-topleft">
    <path
       id="path4828"
       transform="matrix(0.85714511,0,0,0.85714511,-55.428668,931.50502)"
       d="M 32,-6 V 22 H 44 C 44,13.13604 51.136035,6 60,6 V -6 Z"
       style="opacity:1;fill:url(#radialGradient994);fill-opacity:1;fill-rule:evenodd;stroke:none;stroke-width:2.33332px;stroke-linecap:butt;stroke-linejoin:miter;stroke-opacity:1" />
  </g>
  <g
     style="opacity:0.25"
     id="shadow-topright"
     transform="matrix(-1.1666644,0,0,1.1666644,67.333351,-1080.7536)">
    <path
       id="path1015"
       transform="matrix(-0.85714452,0,0,0.85714452,57.714413,931.50507)"
       d="M 72,-6 V 6 c 8.863966,0 16,7.136037 16,16 h 12 V -6 Z"
       style="opacity:1;fill:url(#radialGradient1019);fill-opacity:1;fill-rule:evenodd;stroke:none;stroke-width:2.33333px;stroke-linecap:butt;stroke-linejoin:miter;stroke-opacity:1" />
  </g>
  <g
     style="opacity:0.25"
     id="shadow-bottomright"
     transform="matrix(-1.1666694,0,0,-1.1666694,67.333228,1148.7586)">
    <path
       id="path1027"
       transform="matrix(-0.85714085,0,0,-0.85714085,57.71406,979.50491)"
       d="m 88,34 c 0,8.863958 -7.136035,16 -16,16 v 12 h 28 V 34 Z"
       style="opacity:1;fill:url(#radialGradient1031);fill-opacity:1;fill-rule:evenodd;stroke:none;stroke-width:2.33334px;stroke-linecap:butt;stroke-linejoin:miter;stroke-opacity:1" />
  </g>
  <g
     style="opacity:0.25"
     id="shadow-bottomleft"
     transform="matrix(1.1666686,0,0,-1.1666686,64.666749,1148.7579)">
    <path
       transform="matrix(0.85714144,0,0,-0.85714144,-55.42855,979.50498)"
       id="path1021"
       d="M 32,34 V 62 H 60 V 50 C 51.136035,50 44,42.863958 44,34 Z"
       style="opacity:1;fill:url(#radialGradient1025);fill-opacity:1;fill-rule:evenodd;stroke:none;stroke-width:2.33333px;stroke-linecap:butt;stroke-linejoin:miter;stroke-opacity:1" />
  </g>
  <rect
     id="hint-tile-center"
     y="6.0001397"
     width="5"
     height="5"
     x="0"
     style="fill:#ff9955;opacity:0.01" />
  <g
     id="center">
    <rect
       style="stroke-width:0.375003;stroke:none;fill-opacity:1;fill:#161826;opacity:0.75"
       id="rect2292"
       width="12.000099"
       height="12.000099"
       x="59.999954"
       y="28.000154"
       class="ColorScheme-Background" />
  </g>
  <g
     style="opacity:0.25"
     transform="matrix(0.37500332,0,0,1.5555601,52.874889,-1397.4563)"
     id="shadow-top">
    <rect
       y="-50.999985"
       x="-916.36218"
       height="32"
       width="6"
       id="rect4820"
       style="opacity:1;fill:none;fill-opacity:1;stroke:none"
       transform="matrix(0,-1,-1,0,0,0)" />
    <rect
       y="-50.999985"
       x="-906.07654"
       height="32"
       width="7.7143688"
       id="rect4822"
       style="opacity:1;fill:url(#linearGradient4920);fill-opacity:1;stroke:none;stroke-width:1.1339"
       transform="matrix(0,-1,-1,0,0,0)" />
    <rect
       transform="matrix(0,-1,-1,0,0,0)"
       style="opacity:1;fill:none;fill-opacity:1;stroke:none"
       id="rect4824"
       width="0.99997741"
       height="32"
       x="-911.36218"
       y="-50.999985" />
  </g>
  <g
     style="opacity:0.25"
     transform="matrix(0.37500332,0,0,2.3333314,52.874889,-2172.8431)"
     id="shadow-bottom">
    <rect
       transform="rotate(90)"
       style="opacity:1;fill:none;fill-opacity:1;stroke:none"
       id="rect4856"
       width="6"
       height="32"
       x="948.36218"
       y="-50.999985" />
    <rect
       transform="rotate(90)"
       style="opacity:1;fill:url(#linearGradient4934);fill-opacity:1;stroke:none;stroke-width:0.925818"
       id="rect4858"
       width="5.1428342"
       height="32"
       x="955.21936"
       y="-50.999985" />
    <rect
       y="-50.999985"
       x="953.36218"
       height="31.999971"
       width="1.0000226"
       id="rect4860"
       style="opacity:1;fill:none;fill-opacity:1;stroke:none"
       transform="rotate(90)" />
  </g>
  <g
     style="opacity:0.25"
     transform="matrix(2.333333,0,0,0.3750037,15.666664,-315.63906)"
     id="shadow-left">
    <rect
       transform="scale(-1,1)"
       style="opacity:1;fill:none;fill-opacity:1;stroke:none"
       id="rect4892"
       width="5.9999995"
       height="32"
       x="-19.000004"
       y="916.36218" />
    <rect
       transform="scale(-1,1)"
       style="opacity:1;fill:url(#linearGradient4948);fill-opacity:1;stroke:none;stroke-width:0.92582"
       id="rect4894"
       width="5.1428576"
       height="32"
       x="-12.14286"
       y="916.36218" />
    <rect
       y="916.36218"
       x="-14.000002"
       height="32.000023"
       width="1.0000019"
       id="rect4896"
       style="opacity:1;fill:none;fill-opacity:1;stroke:none"
       transform="scale(-1,1)" />
  </g>
  <g
     style="opacity:0.25"
     transform="matrix(2.3333292,0,0,0.37500392,-46.999699,-315.63926)"
     id="shadow-right">
    <rect
       y="916.36218"
       x="50.999985"
       height="32"
       width="5.9999995"
       id="rect4900"
       style="opacity:1;fill:none;fill-opacity:1;stroke:none" />
    <rect
       y="916.36218"
       x="57.857117"
       height="32"
       width="5.142868"
       id="rect4902"
       style="opacity:1;fill:url(#linearGradient4950);fill-opacity:1;stroke:none;stroke-width:0.925821" />
    <rect
       style="opacity:1;fill:none;fill-opacity:1;stroke:none"
       id="rect4904"
       width="1"
       height="32.000023"
       x="55.999985"
       y="916.36218" />
  </g>
  <rect
     inkscape:label="#shadow-center"
     y="-16.00005"
     x="58.999992"
     height="12.000099"
     width="12.000099"
     id="shadow-center"
     style="color:#eff0f1;opacity:0.01;fill:#008080;fill-opacity:1;stroke:none;stroke-width:0.375003" />
  <g
     id="topleft">
    <path
       inkscape:connector-curvature="0"
       id="rect4159"
       d="m 60,12.00021 c -8.863966,0 -16,7.136039 -16,15.999999 l 16,-2.13e-4 v 0 2.13e-4 -2.13e-4 -16 z"
       style="stroke-width:2.66667;stroke:none;fill-opacity:1;fill:#161826;opacity:0.75"
       sodipodi:nodetypes="cccccccc"
       class="ColorScheme-Background" />
    <path
       inkscape:connector-curvature="0"
       id="rect4159-3"
       d="M 60,12.00021 V 12 c -8.9,0 -16,7.059472 -16,16 v 2.1e-4 L 45,28 v 0 H 44.9 44.8 44.7 45 c 0,-8 6.2,-15 15,-15 v 0 -0.5 z"
       style="stroke-width:2.66667;stroke:none;fill-opacity:0.50196081;fill:#1e2431"
       sodipodi:nodetypes="ccsccccccccccc"
       class="ColorScheme-Background" />
    <path
       inkscape:connector-curvature="0"
       id="rect4159-3-60"
       d="M 59.999806,13.0002 V 13 C 51.656166,13 45,19.618169 45,27.9998 V 28 l 0.937487,-2e-4 v 0 h -0.0938 -0.09372 -0.09372 H 46 C 46,20.499905 51.750098,14 60,14 v -0.5 l -1.9e-4,-0.03126 z"
       style="fill:#0495e2;fill-opacity:0.10196079;stroke:none;stroke-width:2.49994"
       sodipodi:nodetypes="ccsccccccccccc" />
  </g>
  <g
     id="topright">
    <path
       inkscape:connector-curvature="0"
       id="rect4177"
       d="M 72.000001,12.000306 72,12 v 16 l 10e-7,3.07e-4 L 72,28 v 0 h 16 l 2e-6,3.07e-4 c 0,-8.863963 -7.136035,-16.000001 -16.000001,-16.000001 z"
       style="stroke-width:2.66666;stroke:none;fill-opacity:1;fill:#161826;opacity:0.75"
       sodipodi:nodetypes="ccccccccc"
       class="ColorScheme-Background" />
    <path
       inkscape:connector-curvature="0"
       id="rect4159-3-6"
       d="m 88,28 h 2.1e-4 c 0,-8.9 -7.059472,-16 -16,-16 H 72 l 2.1e-4,1 v 0 -0.1 -0.1 -0.1 0.3 c 8,0 15,6.2 15,15 v 0 h 0.5 z"
       style="stroke-width:2.66667;stroke:none;fill-opacity:0.50196081;fill:#1e2431"
       sodipodi:nodetypes="ccsccccccccccc"
       class="ColorScheme-Background" />
    <path
       inkscape:connector-curvature="0"
       id="rect4159-3-60-2"
       d="M 86.9998,27.999806 H 87 C 87,19.656166 80.381831,13 72.0002,13 H 72 l 2e-4,0.937487 v 0 -0.0938 -0.09372 -0.09372 L 72,14 c 7.499895,0 14,5.749908 14,13.99981 V 28 l 0.531257,-1.9e-4 z"
       style="fill:#0495e2;fill-opacity:0.10196079;stroke:none;stroke-width:2.49994"
       sodipodi:nodetypes="ccsccccccccccc" />
  </g>
  <g
     id="bottomright">
    <path
       inkscape:connector-curvature="0"
       id="rect4177-6"
       d="m 72,40.000275 v -2.8e-4 16 2.8e-4 c 8.863965,0 16,-7.136041 16,-16 v -2.8e-4 H 72 v 0 z"
       style="stroke-width:2.66666;stroke:none;fill-opacity:1;fill:#161826;opacity:0.75"
       sodipodi:nodetypes="ccccccccc"
       class="ColorScheme-Background" />
    <path
       inkscape:connector-curvature="0"
       id="rect4159-3-6-6"
       d="M 72,55.99979 V 56 c 8.9,0 16,-7.059472 16,-16 v -2.1e-4 L 87,40 v 0 h 0.1 0.1 0.1 -0.3 c 0,8 -6.2,15 -15,15 v 0 0.5 z"
       style="stroke-width:2.66667;stroke:none;fill-opacity:0.50196081;fill:#1e2431"
       sodipodi:nodetypes="ccsccccccccccc"
       class="ColorScheme-Background" />
    <path
       inkscape:connector-curvature="0"
       id="rect4159-3-60-2-6"
       d="m 72.000005,54.9997 v 2e-4 c 8.34364,0 14.999806,-6.618169 14.999806,-14.9998 v -2e-4 l -0.937487,2e-4 v 0 h 0.0938 0.09372 0.09372 H 86 C 86,47.499995 80.249902,54 72,54 v 0 0.531157 z"
       style="fill:#0495e2;fill-opacity:0.10196079;stroke:none;stroke-width:2.49994"
       sodipodi:nodetypes="ccsccccccccccc" />
  </g>
  <g
     id="bottomleft">
    <path
       inkscape:connector-curvature="0"
       id="path5048"
       d="m 44,40.000275 c 0,8.863959 7.136035,16 16,16 v -2.8e-4 -16 2.8e-4 -2.8e-4 0 H 44 Z"
       style="stroke-width:2.66666;stroke:none;fill-opacity:1;fill:#161826;opacity:0.75"
       sodipodi:nodetypes="ccccccccc"
       class="ColorScheme-Background" />
    <path
       inkscape:connector-curvature="0"
       id="rect4159-3-6-6-2"
       d="M 44.00021,40 H 44 c 0,8.9 7.059472,16 16,16 h 2.1e-4 L 60,55 v 0 0.1 0.1 0.1 V 55 C 52,55 45,48.8 45,40 v 0 h -0.5 z"
       style="stroke-width:2.66667;stroke:none;fill-opacity:0.50196081;fill:#1e2431"
       sodipodi:nodetypes="ccsccccccccccc"
       class="ColorScheme-Background" />
    <path
       inkscape:connector-curvature="0"
       id="rect4159-3-60-2-6-1"
       d="M 45.0002,40.000005 H 45 c 0,8.34364 6.618169,14.999805 14.9998,14.999805 H 60 l -2e-4,-0.937487 v 0 0.0938 0.09372 0.09372 V 54 C 52.499905,54 46,48.249902 46,40 v 0 h -0.531257 z"
       style="fill:#0495e2;fill-opacity:0.10196079;stroke:none;stroke-width:2.49994"
       sodipodi:nodetypes="ccsccccccccccc" />
  </g>
  <g
     id="top">
    <rect
       transform="matrix(0,-1,-1,0,0,0)"
       style="stroke-width:1;stroke:none;fill-opacity:1;fill:#161826;opacity:0.75"
       id="rect4152"
       width="16.000202"
       height="12"
       x="-28.0002"
       y="-72"
       class="ColorScheme-Background" />
    <rect
       y="-72.000031"
       x="12"
       height="12.000031"
       width="1"
       id="rect4148-1-2"
       style="stroke-width:0.249999;stroke:none;fill-opacity:0.5;fill:#1e2431"
       transform="rotate(90)"
       class="ColorScheme-Background" />
    <rect
       y="-72.000031"
       x="13"
       height="12.000031"
       width="1"
       id="rect4148-1-2-8"
       style="color:#eff0f1;fill:#0495e2;fill-opacity:0.10196079;stroke:none;stroke-width:0.249999"
       transform="rotate(90)" />
  </g>
  <g
     id="bottom">
    <rect
       y="-72"
       x="40.000225"
       height="12.000031"
       width="15.999991"
       id="rect4148"
       style="stroke-width:1;stroke:none;fill-opacity:1;fill:#161826;opacity:0.75"
       transform="rotate(90)"
       class="ColorScheme-Background" />
    <rect
       y="-72.000031"
       x="55"
       height="12.000031"
       width="1"
       id="rect4148-1"
       style="stroke-width:0.249999;stroke:none;fill-opacity:0.50196081;fill:#1e2431"
       transform="rotate(90)"
       class="ColorScheme-Background" />
    <rect
       y="-72.000015"
       x="54"
       height="12.000031"
       width="1"
       id="rect4148-1-2-8-7"
       style="color:#eff0f1;fill:#0495e2;fill-opacity:0.10196079;stroke:none;stroke-width:0.249999"
       transform="rotate(90)" />
  </g>
  <g
     id="left">
    <rect
       y="28.000153"
       x="-60"
       height="12.000102"
       width="15.999996"
       id="rect4144"
       style="stroke-width:1;stroke:none;fill-opacity:1;fill:#161826;opacity:0.75"
       transform="scale(-1,1)"
       class="ColorScheme-Background" />
    <rect
       y="-40.000031"
       x="-45"
       height="12.000031"
       width="1"
       id="rect4148-1-2-7-0"
       style="stroke-width:0.249999;stroke:none;fill-opacity:0.50196081;fill:#1e2431"
       transform="scale(-1)"
       class="ColorScheme-Background" />
    <rect
       y="-40.000031"
       x="-46"
       height="12.000031"
       width="1"
       id="rect4148-1-2-7-9"
       style="color:#eff0f1;fill:#0495e2;fill-opacity:0.10196079;stroke:none;stroke-width:0.249999"
       transform="scale(-1)" />
  </g>
  <g
     id="right">
    <rect
       style="stroke-width:1;stroke:none;fill-opacity:1;fill:#161826;opacity:0.75"
       id="rect4140"
       width="15.999982"
       height="12.000102"
       x="72"
       y="28.000153"
       class="ColorScheme-Background" />
    <rect
       y="-40.000015"
       x="-88"
       height="12.000031"
       width="1"
       id="rect4148-1-2-7"
       style="stroke-width:0.249999;stroke:none;fill-opacity:0.50196081;fill:#1e2431"
       transform="scale(-1)"
       class="ColorScheme-Background" />
    <rect
       y="-40.000015"
       x="-87"
       height="12.000031"
       width="1"
       id="rect4148-1-2-7-9-2"
       style="color:#eff0f1;fill:#0495e2;fill-opacity:0.10196079;stroke:none;stroke-width:0.249999"
       transform="scale(-1)" />
  </g>
  <rect
     style="stroke:none;fill-opacity:1;fill:#182030;opacity:0.9"
     id="thick-center"
     width="32"
     height="32"
     x="223.38127"
     y="13.508359"
     class="ColorScheme-Background" />
  <rect
     id="mask-top"
     height="16"
     width="12"
     x="131.05811"
     y="11.36678"
     style="fill:#182030;fill-opacity:1" />
  <rect
     id="mask-center"
     height="12"
     width="12"
     x="131.05811"
     y="28.366779"
     style="fill:#182030;fill-opacity:1" />
  <rect
     id="mask-bottom"
     height="16"
     transform="scale(1,-1)"
     width="12"
     x="131.05811"
     y="-57.366779"
     style="fill:#182030;fill-opacity:1" />
  <rect
     id="mask-left"
     height="12"
     width="16"
     x="114.05811"
     y="28.366779"
     style="fill:#182030;fill-opacity:1" />
  <rect
     id="mask-right"
     height="12"
     width="16"
     x="144.05811"
     y="28.366779"
     style="fill:#182030;fill-opacity:1" />
  <path
     id="mask-topleft"
     d="m 130.0581,12.366817 c -8.30999,0 -15,6.69001 -15,15 h -1 16 v -15.99998 z"
     style="fill:#182030;fill-opacity:1" />
  <path
     id="mask-topright"
     d="m 159.0581,27.366837 c 0,-8.31 -6.69001,-15 -15,-15 v -1 16 h 15.99998 z"
     style="fill:#182030;fill-opacity:1" />
  <path
     id="mask-bottomleft"
     d="m 130.0581,56.366837 c -8.30999,0 -15,-6.69001 -15,-15 h -1 16 v 15.99998 z"
     style="fill:#182030;fill-opacity:1" />
  <path
     id="mask-bottomright"
     d="m 159.0581,41.366837 c 0,8.31 -6.69001,15 -15,15 v 1 -16 h 15.99998 z"
     style="fill:#182030;fill-opacity:1" />
  <rect
     style="opacity:0.8;fill:#182030;fill-opacity:1;stroke:none;stroke-width:1.2;stroke-linejoin:round;paint-order:fill markers stroke"
     id="floating-center"
     width="33.429161"
     height="33.429161"
     x="65.102417"
     y="-104.89105" />
  <rect
     style="fill:#0066ff;fill-opacity:0.98931;stroke:none;stroke-width:0.584995;stroke-linejoin:round;paint-order:fill markers stroke"
     id="floating-hint-bottom-margin"
     height="9"
     x="5"
     y="-79.453682"
     rx="0"
     ry="0"
     width="4" />
  <rect
     style="fill:#0066ff;fill-opacity:0.98931;stroke:none;stroke-width:0.809333;stroke-linejoin:round;paint-order:fill markers stroke"
     id="floating-hint-top-margin"
     height="9"
     x="4.3784637"
     y="-113.6056"
     rx="0"
     ry="0"
     width="4" />
  <rect
     transform="rotate(90)"
     style="fill:#0066ff;fill-opacity:0.996078;stroke:none;stroke-width:1.34068"
     id="floating-hint-right-margin"
     width="4"
     height="9"
     x="-90.909004"
     y="-32.627335" />
  <rect
     transform="rotate(90)"
     y="6.6215363"
     x="-97.605598"
     height="9"
     width="4"
     id="floating-hint-left-margin"
     style="fill:#0066ff;fill-opacity:0.996078;stroke:none;stroke-width:1.26767" />
  <rect
     id="hint-right-margin"
     height="4"
     style="fill:#ff00ff;stroke-width:0.999996"
     width="4"
     x="-97.810394"
     y="26.999994" />
  <rect
     id="hint-left-margin"
     height="4"
     style="fill:#ff00ff;stroke-width:0.999996"
     width="4"
     x="-137.81039"
     y="26.999994" />
  <rect
     id="hint-left-inset"
     height="4"
     style="fill:#00ff00"
     width="9.9999999e-09"
     x="-137.81039"
     y="26.999994" />
  <rect
     id="hint-right-inset"
     height="4"
     style="fill:#00ff00"
     width="9.9999999e-09"
     x="-93.810394"
     y="26.999994" />
  <rect
     id="hint-top-margin"
     height="4"
     style="fill:#ff00ff;stroke-width:0.999996"
     width="4"
     x="-117.05235"
     y="8.0001354" />
  <rect
     id="hint-bottom-margin"
     height="4"
     style="fill:#ff00ff;stroke-width:0.999996"
     width="4"
     x="-117.05235"
     y="48.000134" />
  <rect
     id="hint-top-inset"
     height="9.9999999e-09"
     style="fill:#00ff00"
     width="4"
     x="-117.05235"
     y="8.0001354" />
  <rect
     id="hint-bottom-inset"
     height="9.9999999e-09"
     style="fill:#00ff00"
     width="4"
     x="-117.05235"
     y="52.000134" />
  <rect
     id="shadow-hint-top-margin"
     height="10"
     style="fill:#ff00ff"
     width="2"
     x="83"
     y="105" />
  <rect
     id="shadow-hint-bottom-margin"
     height="10"
     style="fill:#ff00ff"
     width="2"
     x="83"
     y="159" />
  <rect
     id="shadow-hint-top-inset"
     height="10"
     style="fill:#00ff00"
     width="2"
     x="87"
     y="105" />
  <rect
     id="shadow-hint-bottom-inset"
     height="10"
     style="fill:#00ff00"
     width="2"
     x="87"
     y="159" />
  <rect
     id="shadow-hint-right-margin"
     height="2"
     style="fill:#ff00ff"
     width="10"
     x="108"
     y="138" />
  <rect
     id="shadow-hint-left-margin"
     height="2"
     style="fill:#ff00ff"
     width="10"
     x="54"
     y="134" />
  <rect
     id="shadow-hint-right-inset"
     height="2"
     style="fill:#00ff00"
     width="10"
     x="108"
     y="134" />
  <rect
     id="shadow-hint-left-inset"
     height="2"
     style="fill:#00ff00"
     width="10"
     x="54"
     y="138" />
</svg>
