<?xml version="1.0" encoding="UTF-8" standalone="no"?>
<svg
   width="36"
   version="1.1"
   height="36"
   id="svg15"
   sodipodi:docname="folder-notes.svg"
   inkscape:version="1.3.1 (91b66b0783, 2023-11-16)"
   xmlns:inkscape="http://www.inkscape.org/namespaces/inkscape"
   xmlns:sodipodi="http://sodipodi.sourceforge.net/DTD/sodipodi-0.dtd"
   xmlns:xlink="http://www.w3.org/1999/xlink"
   xmlns="http://www.w3.org/2000/svg"
   xmlns:svg="http://www.w3.org/2000/svg"
   xmlns:rdf="http://www.w3.org/1999/02/22-rdf-syntax-ns#"
   xmlns:cc="http://creativecommons.org/ns#"
   xmlns:dc="http://purl.org/dc/elements/1.1/">
  <sodipodi:namedview
     pagecolor="#ffffff"
     bordercolor="#666666"
     borderopacity="1"
     objecttolerance="10"
     gridtolerance="10"
     guidetolerance="10"
     inkscape:pageopacity="0"
     inkscape:pageshadow="2"
     inkscape:window-width="1920"
     inkscape:window-height="994"
     id="namedview17"
     showgrid="true"
     inkscape:zoom="13.876971"
     inkscape:cx="20.213345"
     inkscape:cy="29.365199"
     inkscape:window-x="0"
     inkscape:window-y="0"
     inkscape:window-maximized="1"
     inkscape:current-layer="layer1"
     inkscape:document-rotation="0"
     inkscape:showpageshadow="2"
     inkscape:pagecheckerboard="0"
     inkscape:deskcolor="#d1d1d1">
    <inkscape:grid
       type="xygrid"
       id="grid919"
       originx="0"
       originy="0"
       spacingy="1"
       spacingx="1"
       units="px"
       visible="true" />
  </sodipodi:namedview>
  <defs
     id="defs5455">
    <linearGradient
       inkscape:collect="always"
       id="linearGradient3">
      <stop
         style="stop-color:#ffc095;stop-opacity:1;"
         offset="0"
         id="stop1" />
      <stop
         style="stop-color:#bc5fd3;stop-opacity:1"
         offset="0.50679404"
         id="stop2" />
      <stop
         style="stop-color:#37abc8;stop-opacity:1"
         offset="1"
         id="stop3" />
    </linearGradient>
    <clipPath
       clipPathUnits="userSpaceOnUse"
       id="clipPath79425-9-5-3">
      <rect
         style="opacity:0.5;fill:#000000;fill-opacity:1;stroke:none;stroke-width:0.855869;stroke-dasharray:none;stroke-opacity:1;paint-order:stroke fill markers"
         id="rect79427-1-9-6"
         width="26.417742"
         height="29.037542"
         x="-16.227774"
         y="-6.4845476" />
    </clipPath>
    <clipPath
       clipPathUnits="userSpaceOnUse"
       id="clipPath79425-9-5-5">
      <rect
         style="opacity:0.5;fill:#000000;fill-opacity:1;stroke:none;stroke-width:0.855869;stroke-dasharray:none;stroke-opacity:1;paint-order:stroke fill markers"
         id="rect79427-1-9-62"
         width="26.417742"
         height="29.037542"
         x="-16.227774"
         y="-6.4845476" />
    </clipPath>
    <linearGradient
       inkscape:collect="always"
       xlink:href="#linearGradient3"
       id="linearGradient2"
       x1="422.54312"
       y1="524.24152"
       x2="440.54266"
       y2="524.24152"
       gradientUnits="userSpaceOnUse"
       gradientTransform="matrix(0.66666406,0,0,0.66666406,117.87667,156.30462)" />
    <linearGradient
       inkscape:collect="always"
       xlink:href="#linearGradient3"
       id="linearGradient17-7"
       x1="392.57144"
       y1="536.79797"
       x2="444.57144"
       y2="507.798"
       gradientUnits="userSpaceOnUse"
       gradientTransform="matrix(0.4937764,0,0,0.86206901,196.23515,51.474265)" />
    <linearGradient
       inkscape:collect="always"
       xlink:href="#linearGradient3"
       id="linearGradient2-9"
       gradientUnits="userSpaceOnUse"
       x1="147"
       y1="462"
       x2="173"
       y2="434"
       gradientTransform="matrix(1.0769231,0,0,1,230.26373,53.798)" />
  </defs>
  <metadata
     id="metadata5458">
    <rdf:RDF>
      <cc:Work
         rdf:about="">
        <dc:format>image/svg+xml</dc:format>
        <dc:type
           rdf:resource="http://purl.org/dc/dcmitype/StillImage" />
      </cc:Work>
    </rdf:RDF>
  </metadata>
  <g
     inkscape:label="Capa 1"
     inkscape:groupmode="layer"
     id="layer1"
     transform="translate(-384.57143,-483.798)">
    <path
       fill-rule="evenodd"
       clip-rule="evenodd"
       d="m 405.75751,502.98414 c 0,-0.20724 0.16788,-0.37496 0.37514,-0.37496 0.20706,0 0.37496,0.16772 0.37496,0.37496 0,0.20676 -0.1679,0.37464 -0.37496,0.37464 -0.20726,0 -0.37514,-0.16788 -0.37514,-0.37464 z m 5.37999,0.0297 -0.15797,0.1578 c -0.002,0.002 -0.004,0.002 -0.007,0.005 -0.28777,0.28801 -0.75085,0.29113 -1.04478,0.0132 l -0.96639,-0.96697 c -0.14631,-0.14626 -0.14631,-0.38372 0,-0.53004 0.14635,-0.14634 0.3838,-0.14634 0.5301,0 l 0.81663,0.81605 c 4.8e-4,0.002 0.002,0 0.003,0.002 0.0734,0.0733 0.19172,0.0733 0.26476,0 0.004,-0.004 0.007,-4.9e-4 0.01,-0.002 l 0.0223,-0.0224 c 0.29315,-0.29277 0.29315,-0.76755 0,-1.06068 l -0.66258,-0.66268 c -0.29314,-0.29317 -0.76795,-0.29317 -1.06073,0 l -1.28657,1.28664 h -1.06112 -3.21542 -2.06263 c -0.51778,0 -0.93744,0.42004 -0.93744,0.93784 v 7.12457 c 0,0.51783 0.41966,0.93749 0.93744,0.93749 h 7.12464 c 0.51797,0 0.93748,-0.41966 0.93748,-0.93749 v -4.82225 c 0,-0.10326 -0.0838,-0.18732 -0.18735,-0.18732 -0.0515,0 -0.0987,0.0214 -0.13231,0.0548 -6.2e-4,5.2e-4 -4.9e-4,-0.004 -0.002,-0.003 l -2.08364,2.08335 c -0.22586,0.22595 -0.50576,0.36271 -0.79823,0.41435 -0.0552,0.0134 -0.11252,0.0218 -0.17166,0.0218 h -0.053 c -0.0251,5.1e-4 -0.05,5.1e-4 -0.0747,0 h -1.37255 c -0.41398,0 -0.74957,-0.33561 -0.74957,-0.74959 v -1.37262 c -4e-4,-0.0251 -4e-4,-0.05 0,-0.0745 v -0.053 c 0,-0.059 0.01,-0.11666 0.0217,-0.17196 0.0518,-0.2922 0.18859,-0.57271 0.41457,-0.7985 l 0.79645,-0.79662 0.003,0.003 c 0.0676,-0.0683 0.16186,-0.10997 0.26531,-0.10997 0.20727,0 0.375,0.16788 0.375,0.37524 0,0.11362 -0.0521,0.21479 -0.13203,0.28334 l -0.77634,0.77637 c -0.16347,0.16319 -0.23212,0.38228 -0.21346,0.5958 -3.6e-4,0.0104 -0.005,0.0212 -0.005,0.0317 v 0.56231 c -2e-5,0.41395 0.3361,0.75017 0.7501,0.75017 h 0.56238 c 0.0104,0 0.0211,-0.004 0.0317,-0.005 0.21365,0.0186 0.43261,-0.05 0.59576,-0.2137 l 2.40818,-2.40814 c 0.13529,-0.13294 0.32133,-0.18767 0.52655,-0.18767 0.41435,0 0.7502,0.33564 0.7502,0.74996 v 5.43717 c 0,0.8285 -0.67145,1.50031 -1.4998,1.50031 h -7.49888 c -0.82857,0 -1.50017,-0.67181 -1.50017,-1.50031 v -7.49998 c 0,-0.82849 0.6716,-1.49977 1.50017,-1.49977 h 6.21513 l 1.0674,-1.06747 c 0.29285,-0.29297 0.67675,-0.43247 1.06068,-0.43247 0.38391,0 0.76778,0.1395 1.06076,0.43247 l 0.663,0.66298 c 0.29325,0.29327 0.4329,0.68268 0.43249,1.0671 -4.2e-4,0.38333 -0.14001,0.7617 -0.43249,1.05436 z"
       id="path2-1-5-4"
       style="fill:url(#linearGradient2);fill-opacity:1;stroke-width:0.0234371" />
    <path
       inkscape:connector-curvature="0"
       id="fill-3-8"
       d="m 390.57142,490.43808 2e-5,22.71983 c -0.0461,0.49262 -0.11376,0.78207 -0.318,1.07328 l 24.51303,-10e-6 c 0.62105,0 0.98756,-0.17715 0.98756,-1.71864 v -8.28136 l -2,-4 v -7 -2 c 0,-0.57519 -1.22689,-2 -2,-2 h -20.19948 c -0.48934,0 -0.98311,0 -0.98313,1.2069 z"
       style="color:#1e92ff;opacity:0.4;fill:url(#linearGradient17-7);fill-opacity:0.4;fill-rule:nonzero;stroke:none;stroke-width:5.29537"
       sodipodi:nodetypes="cccccccccccc" />
    <path
       d="m 414.41758,499.505 v -7.707 c 0,-0.796 -0.34031,-1.559 -0.94662,-2.121 -0.60523,-0.563 -1.42692,-0.879 -2.28415,-0.879 h -9.15385 v 0.028 L 401.7702,488.6 c -0.5977,-0.516 -1.38277,-0.802 -2.198,-0.802 h -7.77001 c -1.78446,0 -3.23076,1.343 -3.23076,3 v 22 c 0,0.796 0.3403,1.559 0.94661,2.121 0.60523,0.563 1.42692,0.879 2.28415,0.879 h 21.53847 c 0.85723,0 1.67892,-0.316 2.28415,-0.879 0.60631,-0.562 0.94662,-1.325 0.94662,-2.121 V 502.67 c 0,-0.834 -0.3737,-1.631 -1.03277,-2.198 z m 0.15385,3.165 v 10.128 c 0,0.265 -0.26693,0.52 -0.46939,0.707 -0.20138,0.188 -0.476,0.293 -0.76138,0.293 h -21.53847 c -0.28538,0 -0.56,-0.105 -0.76138,-0.293 -0.20246,-0.187 -0.46938,-0.442 -0.46938,-0.707 v -22 c 0,-0.552 0.6363,-1 1.23077,-1 h 7.77 c 0.27138,0 0.53307,0.095 0.7323,0.267 l 13.76846,11.872 c 0.2197,0.19 0.49847,0.455 0.49847,0.733 z m -19,-8.872 z m 8.74784,-3 7.94446,6.85 v -5.85 c 0,-0.265 -0.11307,-0.52 -0.31553,-0.707 -0.20139,-0.188 -0.476,-0.293 -0.76139,-0.293 z m -10.36323,3 h 5.38462 c 0.59446,0 1.07692,-0.448 1.07692,-1 0,-0.552 -0.48246,-1 -1.07692,-1 h -5.38462 c -0.59446,0 -1.07692,0.448 -1.07692,1 0,0.552 0.48246,1 1.07692,1 z"
       id="path1-0-1"
       style="fill:url(#linearGradient2-9);stroke-width:1.03775"
       sodipodi:nodetypes="cscscccsssscsscssccsscsscssssccscscscccccscscsssssss" />
  </g>
</svg>
