<?xml version="1.0" encoding="UTF-8" standalone="no"?>
<svg
   width="36"
   version="1.1"
   height="36"
   id="svg16"
   sodipodi:docname="folder-java.svg"
   inkscape:version="1.3.1 (91b66b0783, 2023-11-16)"
   xmlns:inkscape="http://www.inkscape.org/namespaces/inkscape"
   xmlns:sodipodi="http://sodipodi.sourceforge.net/DTD/sodipodi-0.dtd"
   xmlns:xlink="http://www.w3.org/1999/xlink"
   xmlns="http://www.w3.org/2000/svg"
   xmlns:svg="http://www.w3.org/2000/svg"
   xmlns:rdf="http://www.w3.org/1999/02/22-rdf-syntax-ns#"
   xmlns:cc="http://creativecommons.org/ns#"
   xmlns:dc="http://purl.org/dc/elements/1.1/">
  <sodipodi:namedview
     pagecolor="#ffffff"
     bordercolor="#666666"
     borderopacity="1"
     objecttolerance="10"
     gridtolerance="10"
     guidetolerance="10"
     inkscape:pageopacity="0"
     inkscape:pageshadow="2"
     inkscape:window-width="1920"
     inkscape:window-height="994"
     id="namedview18"
     showgrid="true"
     inkscape:zoom="13.876971"
     inkscape:cx="16.033759"
     inkscape:cy="20.429531"
     inkscape:window-x="0"
     inkscape:window-y="0"
     inkscape:window-maximized="1"
     inkscape:current-layer="layer1-2"
     inkscape:document-rotation="0"
     inkscape:showpageshadow="2"
     inkscape:pagecheckerboard="0"
     inkscape:deskcolor="#d1d1d1">
    <inkscape:grid
       type="xygrid"
       id="grid1438"
       originx="0"
       originy="0"
       spacingy="1"
       spacingx="1"
       units="px"
       visible="true" />
  </sodipodi:namedview>
  <defs
     id="defs5455">
    <linearGradient
       id="linearGradient4172-0">
      <stop
         style="stop-color:#f89406"
         id="stop4174-4" />
      <stop
         style="stop-color:#ffcc00;stop-opacity:1"
         id="stop1"
         offset="0.55395103" />
      <stop
         offset="1"
         style="stop-color:#fcc67b;stop-opacity:1;"
         id="stop4176-5" />
    </linearGradient>
    <clipPath
       clipPathUnits="userSpaceOnUse"
       id="clipPath79425-9-5-3">
      <rect
         style="opacity:0.5;fill:#000000;fill-opacity:1;stroke:none;stroke-width:0.855869;stroke-dasharray:none;stroke-opacity:1;paint-order:stroke fill markers"
         id="rect79427-1-9-6"
         width="26.417742"
         height="29.037542"
         x="-16.227774"
         y="-6.4845476" />
    </clipPath>
    <clipPath
       clipPathUnits="userSpaceOnUse"
       id="clipPath79425-9-5-5">
      <rect
         style="opacity:0.5;fill:#000000;fill-opacity:1;stroke:none;stroke-width:0.855869;stroke-dasharray:none;stroke-opacity:1;paint-order:stroke fill markers"
         id="rect79427-1-9-62"
         width="26.417742"
         height="29.037542"
         x="-16.227774"
         y="-6.4845476" />
    </clipPath>
    <linearGradient
       inkscape:collect="always"
       xlink:href="#linearGradient4172-0"
       id="linearGradient3"
       x1="426.66748"
       y1="522.81891"
       x2="437.38965"
       y2="522.81891"
       gradientUnits="userSpaceOnUse"
       gradientTransform="matrix(0.64312105,0,0,0.66595298,129.03872,157.87313)" />
    <linearGradient
       inkscape:collect="always"
       xlink:href="#linearGradient4172-0"
       id="linearGradient6"
       x1="420.63684"
       y1="525.72369"
       x2="438.50717"
       y2="525.72369"
       gradientUnits="userSpaceOnUse"
       gradientTransform="matrix(0.64312105,0,0,0.66595298,129.03872,157.87313)" />
    <linearGradient
       inkscape:collect="always"
       xlink:href="#linearGradient4172-0"
       id="linearGradient7"
       x1="425.10385"
       y1="516.11749"
       x2="436.2728"
       y2="516.11749"
       gradientUnits="userSpaceOnUse"
       gradientTransform="matrix(0.64312105,0,0,0.66595298,129.03872,157.87313)" />
    <linearGradient
       inkscape:collect="always"
       xlink:href="#linearGradient4172-0"
       id="linearGradient8"
       x1="420.63626"
       y1="519.28204"
       x2="438.50659"
       y2="519.28204"
       gradientUnits="userSpaceOnUse"
       gradientTransform="matrix(0.64312105,0,0,0.66595298,129.03872,157.87313)" />
    <linearGradient
       inkscape:collect="always"
       xlink:href="#linearGradient4172-0"
       id="linearGradient10"
       x1="435.37903"
       y1="525.0575"
       x2="441.18958"
       y2="525.0575"
       gradientUnits="userSpaceOnUse"
       gradientTransform="matrix(0.64312105,0,0,0.66595298,129.03872,157.87313)" />
    <linearGradient
       inkscape:collect="always"
       xlink:href="#linearGradient4172-0"
       id="linearGradient11"
       x1="420.18948"
       y1="530.8606"
       x2="438.95331"
       y2="530.8606"
       gradientUnits="userSpaceOnUse"
       gradientTransform="matrix(0.64312105,0,0,0.66595298,129.03872,157.87313)" />
    <linearGradient
       inkscape:collect="always"
       xlink:href="#linearGradient4172-0"
       id="linearGradient17-0"
       x1="392.57144"
       y1="536.79797"
       x2="444.57144"
       y2="507.798"
       gradientUnits="userSpaceOnUse"
       gradientTransform="matrix(0.4937764,0,0,0.86206901,196.23515,51.474275)" />
    <linearGradient
       inkscape:collect="always"
       xlink:href="#linearGradient4172-0"
       id="linearGradient2"
       gradientUnits="userSpaceOnUse"
       x1="147"
       y1="462"
       x2="173"
       y2="434"
       gradientTransform="matrix(1.0769231,0,0,1,230.26373,53.79801)" />
  </defs>
  <metadata
     id="metadata5458">
    <rdf:RDF>
      <cc:Work
         rdf:about="">
        <dc:format>image/svg+xml</dc:format>
        <dc:type
           rdf:resource="http://purl.org/dc/dcmitype/StillImage" />
      </cc:Work>
    </rdf:RDF>
  </metadata>
  <g
     inkscape:label="Capa 1"
     inkscape:groupmode="layer"
     id="layer1-2"
     transform="translate(-384.57143,-483.79801)">
    <path
       d="m 411.05153,511.79801 h -11.49284 c -0.15824,0 -0.28726,-0.23275 -0.28726,-0.39664 0,-0.16401 0.12902,-0.39679 0.28726,-0.39679 h 11.49284 c 0.15827,0 0.28738,0.23278 0.28738,0.39679 0,0.16389 -0.1291,0.39664 -0.28738,0.39664 z"
       id="path2-3-2-4-4"
       style="color:#eff0f1;fill:url(#linearGradient11);stroke-width:0.029238"
       sodipodi:nodetypes="sssssss"
       class="ColorScheme-Text" />
    <path
       d="m 409.32855,509.61616 h -0.002 c -0.15171,0 -0.27755,-0.12279 -0.28654,-0.27995 -0.01,-0.16358 0.11156,-0.30471 0.26988,-0.3144 h 2.3e-4 c 0.002,-3.3e-4 0.007,-6.9e-4 0.01,-7.9e-4 0.014,-0.002 0.0286,-0.004 0.0437,-0.007 0.0373,-0.006 0.0977,-0.0142 0.1761,-0.03 0.14047,-0.0295 0.36117,-0.0863 0.61513,-0.19345 0.65282,-0.27667 1.18466,-0.72831 1.57997,-1.34211 0.44024,-0.67744 0.46755,-1.00944 0.46547,-1.09521 -6e-4,-0.0783 -0.0163,-0.11595 -0.0304,-0.14245 -0.0184,-0.0306 -0.0431,-0.054 -0.0831,-0.0776 -0.0856,-0.052 -0.24971,-0.0839 -0.42957,-0.0839 -0.006,0 -0.01,0 -0.0134,0 h -0.009 c -0.3534,0 -0.76421,0.10506 -0.83028,0.12558 -0.004,5.4e-4 -0.004,5.4e-4 -0.004,5.4e-4 -0.0261,0.01 -0.0519,0.0115 -0.0786,0.0115 -0.12755,0 -0.24104,-0.0889 -0.27609,-0.21576 -0.0208,-0.0768 -0.0125,-0.15677 0.0252,-0.22638 0.0375,-0.0691 0.0986,-0.11959 0.1724,-0.14162 6e-4,0 0.007,-0.002 0.0102,-0.004 0.156,-0.0433 0.5643,-0.1452 0.98694,-0.14673 0.21519,6.3e-4 0.38852,0.0262 0.54562,0.0792 0.14657,0.0504 0.34732,0.15467 0.47233,0.37066 0.0744,0.12704 0.11323,0.28239 0.11261,0.44869 -0.006,0.38353 -0.17754,0.82293 -0.56202,1.42512 -0.25255,0.3927 -0.55993,0.73367 -0.9134,1.01371 -0.28355,0.22459 -0.59557,0.40935 -0.92735,0.54948 -0.53646,0.22636 -0.94934,0.26593 -1.02663,0.27161 h -0.002 c -0.008,3e-4 -0.011,5.7e-4 -0.0167,5.7e-4 z"
       id="path6-6-9-5-5"
       style="color:#eff0f1;fill:url(#linearGradient10);stroke-width:0.029238"
       class="ColorScheme-Text" />
    <path
       d="m 410.76427,504.85581 h -6.03376 c -0.15827,0 -0.28734,-0.1336 -0.28734,-0.29749 0,-0.16389 0.12906,-0.29751 0.28734,-0.29751 h 5.50695 v -0.89253 h -9.86457 v 0.89253 h 1.48449 c 0.15827,0 0.28726,0.13362 0.28726,0.29751 0,0.16389 -0.12899,0.29749 -0.28726,0.29749 h -2.01133 c -0.0754,0 -0.1497,-0.0313 -0.20318,-0.0872 -0.0529,-0.0549 -0.0844,-0.13207 -0.0844,-0.21038 v -1.48757 c 0,-0.0783 0.0304,-0.40292 0.0844,-0.45816 0.0533,-0.055 0.12762,-0.0875 0.20318,-0.0875 h 10.91823 c 0.0752,0 0.14961,0.0316 0.20302,0.0875 0.0532,0.0548 0.0844,0.37991 0.0844,0.45816 v 1.48757 c 0,0.0785 -0.0304,0.15505 -0.0844,0.21038 -0.0528,0.0548 -0.12757,0.0872 -0.20303,0.0872 z m -7.47031,0 c -0.15862,0 -0.28732,-0.1336 -0.28732,-0.29749 0,-0.16389 0.1287,-0.29751 0.28732,-0.29751 0.15825,0 0.28727,0.13362 0.28727,0.29751 0,0.16389 -0.12902,0.29749 -0.28727,0.29749 z"
       id="path10-7-3-0-0"
       style="color:#eff0f1;fill:url(#linearGradient8);stroke-width:0.029238"
       sodipodi:nodetypes="ssssccccsssssssssscsscssssss"
       class="ColorScheme-Text" />
    <path
       d="m 404.73051,503.36828 c -0.15827,0 -0.28733,-0.13365 -0.28733,-0.29753 v -0.595 c 0,-0.23839 0.0894,-0.46275 0.25257,-0.63114 0.16267,-0.16832 0.37893,-0.26154 0.60935,-0.26154 h 3.44789 c 0.15807,-2e-4 0.28703,-0.13381 0.28732,-0.29749 -2.9e-4,-0.16359 -0.12925,-0.29719 -0.28732,-0.29748 h -5.45904 c -0.23016,0 -0.44687,-0.0928 -0.60941,-0.26156 -0.16299,-0.16833 -0.25255,-0.39244 -0.25255,-0.63104 0,-0.16388 0.12891,-0.29749 0.2873,-0.29749 0.15827,0 0.28735,0.13361 0.28735,0.29749 2.8e-4,0.16369 0.12927,0.29721 0.28731,0.29751 h 5.45904 c 0.23039,0 0.44682,0.0928 0.60939,0.26153 0.16293,0.16848 0.25253,0.39279 0.25253,0.63104 0,0.23863 -0.0893,0.46271 -0.25253,0.63103 -0.16257,0.16878 -0.379,0.2616 -0.60939,0.2616 h -3.44789 c -0.15796,2.5e-4 -0.28701,0.13387 -0.28729,0.29754 v 0.595 c 0,0.16388 -0.12895,0.29753 -0.2873,0.29753 z"
       id="path14-5-9-3-3"
       style="color:#eff0f1;fill:url(#linearGradient7);stroke-width:0.029238"
       class="ColorScheme-Text" />
    <path
       d="m 406.1895,511.69887 h -1.746 c -0.0205,0 -0.0374,-0.002 -0.0578,-0.008 -0.65248,-0.13856 -1.27887,-0.41919 -1.86158,-0.83359 -0.56509,-0.40231 -1.01417,-0.82985 -1.44776,-1.4438 -0.12785,-0.19604 -0.0319,-0.43097 0.10331,-0.54353 0.0492,-0.0379 0.15358,-0.0864 0.26196,-0.11707 0.10952,-0.0308 0.27404,0.0453 0.32799,0.12202 0.79355,1.12366 1.56824,1.73057 2.70337,1.97902 h 1.68691 c 1.13434,-0.24873 1.95456,-0.7593 2.74391,-1.88715 0.80275,-1.14657 1.27412,-2.60746 1.32783,-4.11285 h -9.85883 c 0.0187,0.51995 0.0928,1.03739 0.20924,1.53779 0.007,0.0231 0.01,0.0467 0.01,0.0704 -0.0443,0.15807 -0.18384,0.24348 -0.31317,0.27565 -0.0217,0.007 -0.0954,0.0207 -0.11778,0.0207 -0.13337,0 -0.34392,-0.0937 -0.37524,-0.22789 -0.12931,-0.55666 -0.20342,-1.1318 -0.22097,-1.70924 -0.004,-0.10085 -0.006,-0.18535 -0.006,-0.26535 0,-0.078 0.0305,-0.15504 0.0844,-0.21038 0.053,-0.0548 0.1275,-0.0873 0.20307,-0.0873 h 10.91816 c 0.0753,0 0.14974,0.0313 0.20317,0.0872 0.053,0.0549 0.0844,0.1321 0.0844,0.21038 0,0.0804 -0.002,0.16508 -0.006,0.26536 -0.0255,0.83483 -0.1658,1.65242 -0.41862,2.42922 -0.24507,0.75276 -0.58814,1.44743 -1.01996,2.06507 -0.4316,0.61676 -0.93641,1.13414 -1.50041,1.53793 -0.58186,0.41652 -1.2079,0.69796 -1.86097,0.83687 -0.0203,0.006 -0.0373,0.008 -0.0578,0.008 z m -5.66045,-3.53305 c -0.11266,0 -0.21523,-0.0686 -0.26176,-0.17444 v -2.9e-4 c -0.032,-0.0724 -0.0344,-0.15322 -0.01,-0.22724 0.0273,-0.0747 0.08,-0.13366 0.15024,-0.16665 0.0377,-0.0179 0.0773,-0.0266 0.11873,-0.0266 0.1123,0 0.21516,0.0683 0.26171,0.1743 v 3.1e-4 c 0.0654,0.14939 0.002,0.3258 -0.14282,0.39359 -0.0377,0.0178 -0.0773,0.0271 -0.11867,0.0271 z"
       id="path22-3-0-6-6"
       style="color:#eff0f1;fill:url(#linearGradient6);stroke-width:0.029238"
       sodipodi:nodetypes="ssccccscccccccccsccsssscscccccssccccscccs"
       class="ColorScheme-Text" />
    <path
       d="m 410.04593,506.34341 h -6.32106 c -0.15827,0 -0.28729,-0.1335 -0.28729,-0.29752 0,-0.16388 0.12902,-0.2975 0.28729,-0.2975 h 6.32106 c 0.15837,0 0.28737,0.13362 0.28737,0.2975 0,0.16402 -0.12902,0.29752 -0.28737,0.29752 z"
       id="path26-5-8-1-1"
       style="color:#eff0f1;fill:url(#linearGradient3);stroke-width:0.029238"
       class="ColorScheme-Text" />
    <path
       inkscape:connector-curvature="0"
       id="fill-3-7"
       d="m 390.57142,490.43809 2e-5,22.71983 c -0.0461,0.49262 -0.11376,0.78207 -0.318,1.07328 l 24.51303,-10e-6 c 0.62105,0 0.98756,-0.17715 0.98756,-1.71864 v -8.28136 l -2,-4 v -7 -2 c 0,-0.57519 -1.22689,-2 -2,-2 h -20.19948 c -0.48934,0 -0.98311,0 -0.98313,1.2069 z"
       style="color:#1e92ff;opacity:0.4;fill:url(#linearGradient17-0);fill-opacity:0.4;fill-rule:nonzero;stroke:none;stroke-width:5.29537"
       sodipodi:nodetypes="cccccccccccc" />
    <path
       d="m 414.41758,499.50501 v -7.707 c 0,-0.796 -0.34031,-1.559 -0.94662,-2.121 -0.60523,-0.563 -1.42692,-0.879 -2.28415,-0.879 h -9.15385 v 0.028 l -0.26276,-0.226 c -0.5977,-0.516 -1.38277,-0.802 -2.198,-0.802 h -7.77001 c -1.78446,0 -3.23076,1.343 -3.23076,3 v 22 c 0,0.796 0.3403,1.559 0.94661,2.121 0.60523,0.563 1.42692,0.879 2.28415,0.879 h 21.53847 c 0.85723,0 1.67892,-0.316 2.28415,-0.879 0.60631,-0.562 0.94662,-1.325 0.94662,-2.121 v -10.128 c 0,-0.834 -0.3737,-1.631 -1.03277,-2.198 z m 0.15385,3.165 v 10.128 c 0,0.265 -0.26693,0.52 -0.46939,0.707 -0.20138,0.188 -0.476,0.293 -0.76138,0.293 h -21.53847 c -0.28538,0 -0.56,-0.105 -0.76138,-0.293 -0.20246,-0.187 -0.46938,-0.442 -0.46938,-0.707 v -22 c 0,-0.552 0.6363,-1 1.23077,-1 h 7.77 c 0.27138,0 0.53307,0.095 0.7323,0.267 l 13.76846,11.872 c 0.2197,0.19 0.49847,0.455 0.49847,0.733 z m -19,-8.872 z m 8.74784,-3 7.94446,6.85 v -5.85 c 0,-0.265 -0.11307,-0.52 -0.31553,-0.707 -0.20139,-0.188 -0.476,-0.293 -0.76139,-0.293 z m -10.36323,3 h 5.38462 c 0.59446,0 1.07692,-0.448 1.07692,-1 0,-0.552 -0.48246,-1 -1.07692,-1 h -5.38462 c -0.59446,0 -1.07692,0.448 -1.07692,1 0,0.552 0.48246,1 1.07692,1 z"
       id="path1-0-1"
       style="fill:url(#linearGradient2);stroke-width:1.03775"
       sodipodi:nodetypes="cscscccsssscsscssccsscsscssssccscscscccccscscsssssss" />
  </g>
</svg>
