<?xml version="1.0" encoding="UTF-8" standalone="no"?>
<svg
   width="36"
   version="1.1"
   height="36"
   id="svg15"
   sodipodi:docname="folder-database.svg"
   inkscape:version="1.3.1 (91b66b0783, 2023-11-16)"
   xmlns:inkscape="http://www.inkscape.org/namespaces/inkscape"
   xmlns:sodipodi="http://sodipodi.sourceforge.net/DTD/sodipodi-0.dtd"
   xmlns:xlink="http://www.w3.org/1999/xlink"
   xmlns="http://www.w3.org/2000/svg"
   xmlns:svg="http://www.w3.org/2000/svg"
   xmlns:rdf="http://www.w3.org/1999/02/22-rdf-syntax-ns#"
   xmlns:cc="http://creativecommons.org/ns#"
   xmlns:dc="http://purl.org/dc/elements/1.1/">
  <sodipodi:namedview
     pagecolor="#ffffff"
     bordercolor="#666666"
     borderopacity="1"
     objecttolerance="10"
     gridtolerance="10"
     guidetolerance="10"
     inkscape:pageopacity="0"
     inkscape:pageshadow="2"
     inkscape:window-width="1920"
     inkscape:window-height="994"
     id="namedview17"
     showgrid="true"
     inkscape:zoom="4.90625"
     inkscape:cx="52.687898"
     inkscape:cy="10.496815"
     inkscape:window-x="0"
     inkscape:window-y="0"
     inkscape:window-maximized="1"
     inkscape:current-layer="layer1"
     inkscape:document-rotation="0"
     showguides="false"
     inkscape:showpageshadow="2"
     inkscape:pagecheckerboard="0"
     inkscape:deskcolor="#d1d1d1">
    <inkscape:grid
       type="xygrid"
       id="grid919"
       originx="0"
       originy="0"
       spacingy="1"
       spacingx="1"
       units="px"
       visible="true" />
  </sodipodi:namedview>
  <defs
     id="defs5455">
    <clipPath
       clipPathUnits="userSpaceOnUse"
       id="clipPath79425-9-5-3">
      <rect
         style="opacity:0.5;fill:#000000;fill-opacity:1;stroke:none;stroke-width:0.855869;stroke-dasharray:none;stroke-opacity:1;paint-order:stroke fill markers"
         id="rect79427-1-9-6"
         width="26.417742"
         height="29.037542"
         x="-16.227774"
         y="-6.4845476" />
    </clipPath>
    <clipPath
       clipPathUnits="userSpaceOnUse"
       id="clipPath79425-9-5-5">
      <rect
         style="opacity:0.5;fill:#000000;fill-opacity:1;stroke:none;stroke-width:0.855869;stroke-dasharray:none;stroke-opacity:1;paint-order:stroke fill markers"
         id="rect79427-1-9-62"
         width="26.417742"
         height="29.037542"
         x="-16.227774"
         y="-6.4845476" />
    </clipPath>
    <linearGradient
       id="linearGradient9"
       inkscape:collect="always">
      <stop
         style="stop-color:#3385ff;stop-opacity:1"
         offset="0"
         id="stop7" />
      <stop
         style="stop-color:#3aacbe;stop-opacity:1;"
         offset="0.48888862"
         id="stop8" />
      <stop
         style="stop-color:#b07bff;stop-opacity:1;"
         offset="1"
         id="stop9" />
    </linearGradient>
    <linearGradient
       inkscape:collect="always"
       xlink:href="#linearGradient9"
       id="linearGradient2"
       x1="407.57144"
       y1="522.79797"
       x2="425.57339"
       y2="522.79797"
       gradientUnits="userSpaceOnUse"
       gradientTransform="matrix(0.66666564,0,0,0.66666564,127.85752,157.26428)" />
    <linearGradient
       inkscape:collect="always"
       xlink:href="#linearGradient9"
       id="linearGradient17-3"
       x1="392.57144"
       y1="536.79797"
       x2="444.57144"
       y2="507.798"
       gradientUnits="userSpaceOnUse"
       gradientTransform="matrix(0.4937764,0,0,0.86206901,195.80285,51.54108)" />
    <linearGradient
       inkscape:collect="always"
       xlink:href="#linearGradient9"
       id="linearGradient2-1"
       gradientUnits="userSpaceOnUse"
       x1="147"
       y1="462"
       x2="173"
       y2="434"
       gradientTransform="matrix(1.0769231,0,0,1,230.26373,53.798)" />
  </defs>
  <metadata
     id="metadata5458">
    <rdf:RDF>
      <cc:Work
         rdf:about="">
        <dc:format>image/svg+xml</dc:format>
        <dc:type
           rdf:resource="http://purl.org/dc/dcmitype/StillImage" />
      </cc:Work>
    </rdf:RDF>
  </metadata>
  <g
     inkscape:label="Capa 1"
     inkscape:groupmode="layer"
     id="layer1"
     transform="translate(-384.57143,-483.798)">
    <g
       transform="matrix(0.30872123,0,0,0.34545448,401.36492,176.76352)"
       id="g4" />
    <path
       fill-rule="evenodd"
       clip-rule="evenodd"
       d="m 411.19643,509.54596 c -0.20689,0 -0.37527,-0.16808 -0.37527,-0.37511 0,-0.20716 0.16838,-0.3753 0.37527,-0.3753 0.20711,0 0.37497,0.16813 0.37497,0.3753 0,0.20703 -0.16786,0.37511 -0.37497,0.37511 z m 0.36116,-2.80446 c -0.008,0.041 -0.0115,0.0799 -0.0192,0.11928 -0.006,0.0186 -0.01,0.0375 -0.0149,0.0549 -0.01,0.0324 -0.0174,0.0659 -0.0279,0.0975 -0.007,0.0146 -0.01,0.0285 -0.0154,0.0418 -0.0143,0.0369 -0.0277,0.0733 -0.0426,0.10776 -0.007,0.01 -0.01,0.0184 -0.0143,0.029 -0.0179,0.0364 -0.0364,0.0717 -0.0554,0.10618 -0.01,0.0105 -0.0132,0.0212 -0.019,0.0322 -0.0214,0.0353 -0.0451,0.0702 -0.0694,0.10404 -0.006,0.008 -0.01,0.01 -0.0113,0.0154 -0.0295,0.0387 -0.059,0.0751 -0.0917,0.11019 -0.002,0.002 -0.004,0.003 -0.005,0.006 -0.0342,0.038 -0.0707,0.0741 -0.10978,0.10725 -0.26406,0.23258 -0.61006,0.375 -0.99005,0.375 v 0.0186 c -0.0612,-0.0121 -0.12298,-0.0186 -0.18751,-0.0186 h -8.62473 c -0.51785,0 -0.93788,0.41964 -0.93788,0.93752 v 1.12468 c 0,0.51777 0.42002,0.9374 0.93788,0.9374 h 8.62491 c 0.44219,0 0.81993,-0.3518 1.03089,-0.6206 l 0.002,2.8e-4 c 0.0688,-0.0782 0.16804,-0.12927 0.28083,-0.12927 0.20724,0 0.37516,0.16767 0.37516,0.37499 0,0.38882 -0.67157,1.125 -1.5,1.125 h -9.00091 c -0.82839,0 -1.49992,-0.67158 -1.49992,-1.49999 v -1.50053 c 0,-0.82823 0.67154,-1.4996 1.49992,-1.4996 h 0.56247 8.25018 c 0.51787,0 0.93732,-0.41956 0.93732,-0.93751 v -1.12496 c 0,-0.51798 -0.41945,-0.93764 -0.93732,-0.93764 h -8.25009 -0.5625 c -0.82839,0 -1.49991,-0.67171 -1.49991,-1.49974 v -1.50027 c 0,-0.82839 0.67154,-1.49976 1.49991,-1.49976 h 9.00007 c 0.82869,0 1.5,0.67137 1.5,1.49976 v 1.12524 c 0,0.20668 -0.16795,0.37503 -0.37486,0.37503 -0.20709,0 -0.37527,-0.16835 -0.37527,-0.37503 v -0.93747 c 0,-0.51788 -0.41945,-0.9379 -0.93733,-0.9379 h -8.62491 c -0.51783,0 -0.93788,0.42002 -0.93788,0.9379 v 1.12473 c 0,0.51797 0.42003,0.93737 0.93788,0.93737 h 8.62478 c 0.0649,0 0.1266,-0.01 0.18744,-0.0182 v 0.018 c 0.38002,0 0.72602,0.14258 0.99004,0.37528 0.039,0.0333 0.0753,0.0694 0.10972,0.10718 0.002,0.002 0.004,0.004 0.005,0.006 0.0322,0.035 0.0637,0.0719 0.0917,0.11019 0.006,0.007 0.01,0.01 0.0113,0.0155 0.0251,0.0331 0.0477,0.0685 0.0693,0.10382 0.01,0.0102 0.0137,0.0212 0.0188,0.0322 0.0191,0.0339 0.039,0.0694 0.0554,0.10625 0.007,0.01 0.01,0.0183 0.0142,0.029 0.0163,0.0344 0.0301,0.071 0.0426,0.10792 0.008,0.0145 0.0102,0.0285 0.0154,0.0415 0.01,0.0311 0.0188,0.0654 0.0279,0.0975 0.007,0.018 0.01,0.0369 0.0151,0.0549 0.01,0.0392 0.0156,0.0789 0.0192,0.11939 0.002,0.0108 0.005,0.0207 0.007,0.0325 0.009,0.0534 0.01,0.10786 0.01,0.16271 v 1.49991 c 0,0.0543 -0.005,0.10915 -0.01,0.16266 -6.6e-4,0.011 -0.005,0.0212 -0.007,0.0326 z m -11.61116,-1.69547 c 0.20686,0 0.37468,0.16774 0.37468,0.37494 v 0.74954 c 0,0.20735 -0.16782,0.37542 -0.37468,0.37542 -0.20725,0 -0.375,-0.16807 -0.375,-0.37542 v -0.74954 c 0,-0.2072 0.16775,-0.37494 0.375,-0.37494 z"
       id="path2-5-6-3"
       style="fill:url(#linearGradient2);stroke-width:0.023438" />
    <path
       inkscape:connector-curvature="0"
       id="fill-3-9"
       d="m 390.13911,490.5049 2e-5,22.71983 c -0.0461,0.49262 -0.11376,0.78206 -0.31799,1.07327 l 24.51303,0 c 0.62105,0 0.98756,-0.17715 0.98756,-1.71865 v -8.28136 l -2,-4 v -7 -2 c 0,-0.57519 -1.2269,-2 -2,-2 h -20.19948 c -0.48935,0 -0.98312,0 -0.98314,1.20691 z"
       style="color:#1e92ff;opacity:0.4;fill:url(#linearGradient17-3);fill-opacity:0.4;fill-rule:nonzero;stroke:none;stroke-width:5.29537"
       sodipodi:nodetypes="cccccccccccc" />
    <path
       d="m 414.41758,499.505 v -7.707 c 0,-0.796 -0.34031,-1.559 -0.94662,-2.121 -0.60523,-0.563 -1.42692,-0.879 -2.28415,-0.879 h -9.15385 v 0.028 L 401.7702,488.6 c -0.5977,-0.516 -1.38277,-0.802 -2.198,-0.802 h -7.77001 c -1.78446,0 -3.23076,1.343 -3.23076,3 v 22 c 0,0.796 0.3403,1.559 0.94661,2.121 0.60523,0.563 1.42692,0.879 2.28415,0.879 h 21.53847 c 0.85723,0 1.67892,-0.316 2.28415,-0.879 0.60631,-0.562 0.94662,-1.325 0.94662,-2.121 V 502.67 c 0,-0.834 -0.3737,-1.631 -1.03277,-2.198 z m 0.15385,3.165 v 10.128 c 0,0.265 -0.26693,0.52 -0.46939,0.707 -0.20138,0.188 -0.476,0.293 -0.76138,0.293 h -21.53847 c -0.28538,0 -0.56,-0.105 -0.76138,-0.293 -0.20246,-0.187 -0.46938,-0.442 -0.46938,-0.707 v -22 c 0,-0.552 0.6363,-1 1.23077,-1 h 7.77 c 0.27138,0 0.53307,0.095 0.7323,0.267 l 13.76846,11.872 c 0.2197,0.19 0.49847,0.455 0.49847,0.733 z m -19,-8.872 z m 8.74784,-3 7.94446,6.85 v -5.85 c 0,-0.265 -0.11307,-0.52 -0.31553,-0.707 -0.20139,-0.188 -0.476,-0.293 -0.76139,-0.293 z m -10.36323,3 h 5.38462 c 0.59446,0 1.07692,-0.448 1.07692,-1 0,-0.552 -0.48246,-1 -1.07692,-1 h -5.38462 c -0.59446,0 -1.07692,0.448 -1.07692,1 0,0.552 0.48246,1 1.07692,1 z"
       id="path1-0-1"
       style="fill:url(#linearGradient2-1);stroke-width:1.03775"
       sodipodi:nodetypes="cscscccsssscsscssccsscsscssssccscscscccccscscsssssss" />
  </g>
</svg>
