<?xml version="1.0" encoding="UTF-8" standalone="no"?>
<svg
   width="36"
   version="1.1"
   height="36"
   id="svg17"
   sodipodi:docname="folder-calculate.svg"
   inkscape:version="1.3.1 (91b66b0783, 2023-11-16)"
   xmlns:inkscape="http://www.inkscape.org/namespaces/inkscape"
   xmlns:sodipodi="http://sodipodi.sourceforge.net/DTD/sodipodi-0.dtd"
   xmlns:xlink="http://www.w3.org/1999/xlink"
   xmlns="http://www.w3.org/2000/svg"
   xmlns:svg="http://www.w3.org/2000/svg"
   xmlns:rdf="http://www.w3.org/1999/02/22-rdf-syntax-ns#"
   xmlns:cc="http://creativecommons.org/ns#"
   xmlns:dc="http://purl.org/dc/elements/1.1/">
  <sodipodi:namedview
     pagecolor="#ffffff"
     bordercolor="#666666"
     borderopacity="1"
     objecttolerance="10"
     gridtolerance="10"
     guidetolerance="10"
     inkscape:pageopacity="0"
     inkscape:pageshadow="2"
     inkscape:window-width="1920"
     inkscape:window-height="994"
     id="namedview19"
     showgrid="true"
     inkscape:zoom="4.90625"
     inkscape:cx="49.426752"
     inkscape:cy="6.0127389"
     inkscape:window-x="0"
     inkscape:window-y="0"
     inkscape:window-maximized="1"
     inkscape:current-layer="layer1"
     inkscape:document-rotation="0"
     inkscape:showpageshadow="2"
     inkscape:pagecheckerboard="0"
     inkscape:deskcolor="#d1d1d1">
    <inkscape:grid
       type="xygrid"
       id="grid888"
       originx="0"
       originy="0"
       spacingy="1"
       spacingx="1"
       units="px"
       visible="true" />
  </sodipodi:namedview>
  <defs
     id="defs5455">
    <clipPath
       clipPathUnits="userSpaceOnUse"
       id="clipPath79425-9-5-3">
      <rect
         style="opacity:0.5;fill:#000000;fill-opacity:1;stroke:none;stroke-width:0.855869;stroke-dasharray:none;stroke-opacity:1;paint-order:stroke fill markers"
         id="rect79427-1-9-6"
         width="26.417742"
         height="29.037542"
         x="-16.227774"
         y="-6.4845476" />
    </clipPath>
    <clipPath
       clipPathUnits="userSpaceOnUse"
       id="clipPath79425-9-5-5">
      <rect
         style="opacity:0.5;fill:#000000;fill-opacity:1;stroke:none;stroke-width:0.855869;stroke-dasharray:none;stroke-opacity:1;paint-order:stroke fill markers"
         id="rect79427-1-9-62"
         width="26.417742"
         height="29.037542"
         x="-16.227774"
         y="-6.4845476" />
    </clipPath>
    <linearGradient
       id="linearGradient9"
       inkscape:collect="always">
      <stop
         style="stop-color:#3385ff;stop-opacity:1"
         offset="0"
         id="stop7" />
      <stop
         style="stop-color:#3aacbe;stop-opacity:1;"
         offset="0.48888862"
         id="stop8" />
      <stop
         style="stop-color:#b07bff;stop-opacity:1;"
         offset="1"
         id="stop9" />
    </linearGradient>
    <linearGradient
       id="linearGradient12"
       inkscape:collect="always">
      <stop
         style="stop-color:#5398ff;stop-opacity:1;"
         offset="0"
         id="stop10" />
      <stop
         style="stop-color:#47b7c7;stop-opacity:1;"
         offset="0.48888862"
         id="stop11" />
      <stop
         style="stop-color:#b07bff;stop-opacity:1;"
         offset="1"
         id="stop12" />
    </linearGradient>
    <linearGradient
       inkscape:collect="always"
       xlink:href="#linearGradient12"
       id="linearGradient2"
       x1="420.17142"
       y1="522.99805"
       x2="441.77142"
       y2="522.99805"
       gradientUnits="userSpaceOnUse"
       gradientTransform="matrix(0.61111104,0,0,0.61111104,141.60004,186.68804)" />
    <linearGradient
       inkscape:collect="always"
       xlink:href="#linearGradient9"
       id="linearGradient17-3"
       x1="392.57144"
       y1="536.79797"
       x2="444.57144"
       y2="507.798"
       gradientUnits="userSpaceOnUse"
       gradientTransform="matrix(0.4937764,0,0,0.86206901,196.23515,51.474265)" />
    <linearGradient
       inkscape:collect="always"
       xlink:href="#linearGradient9"
       id="linearGradient2-0"
       gradientUnits="userSpaceOnUse"
       x1="147"
       y1="462"
       x2="173"
       y2="434"
       gradientTransform="matrix(1.0769231,0,0,1,230.26373,53.798)" />
  </defs>
  <metadata
     id="metadata5458">
    <rdf:RDF>
      <cc:Work
         rdf:about="">
        <dc:format>image/svg+xml</dc:format>
        <dc:type
           rdf:resource="http://purl.org/dc/dcmitype/StillImage" />
      </cc:Work>
    </rdf:RDF>
  </metadata>
  <g
     inkscape:label="Capa 1"
     inkscape:groupmode="layer"
     id="layer1"
     transform="translate(-384.57143,-483.798)">
    <path
       style="color:#232629;fill:url(#linearGradient2);stroke:none;stroke-width:0.733304"
       d="m 410.83818,500.798 h -5.86675 l -3.256,5.64675 -1.144,-1.98 h -1.46675 v 0.73325 h 1.04999 l 1.59001,2.71325 3.66675,-6.38 h 4.69325 v 0.7335 h 0.7335 z m -3.66675,2.2 c -1.2188,0 -2.2,0.95325 -2.2,2.2 0,1.24675 0.9812,2.2 2.2,2.2 0.56695,0 1.1,-0.22 1.46675,-0.58675 v 0.58675 h 0.73325 v -4.4 h -0.73325 v 0.58675 c -0.3894,-0.36675 -0.8998,-0.58675 -1.46675,-0.58675 z m 0,0.73325 c 0.81245,0 1.46675,0.66 1.46675,1.46675 0,0.80675 -0.6543,1.46675 -1.46675,1.46675 -0.81245,0 -1.46675,-0.66 -1.46675,-1.46675 0,-0.80675 0.6543,-1.46675 1.46675,-1.46675 z m -8.8,5.1335 c 0,0 0,0.16345 0,0.3665 0,0.2033 0,0.36675 0,0.36675 h 13.2 c 0,0 0,-0.16345 0,-0.36675 0,-0.20305 0,-0.3665 0,-0.3665 z m 5.86675,2.2 c 0,0 0,0.16345 0,0.3665 0,0.2033 0,0.36675 0,0.36675 h 1.4665 c 0,0 0,-0.16345 0,-0.36675 0,-0.20305 0,-0.3665 0,-0.3665 z"
       class="ColorScheme-Text"
       id="path3091-3-6-4" />
    <path
       inkscape:connector-curvature="0"
       id="fill-3-4"
       d="m 390.57142,490.43808 2e-5,22.71983 c -0.0461,0.49262 -0.11376,0.78207 -0.318,1.07328 l 24.51303,-10e-6 c 0.62105,0 0.98756,-0.17715 0.98756,-1.71864 v -8.28136 l -2,-4 v -7 -2 c 0,-0.57519 -1.22689,-2 -2,-2 h -20.19948 c -0.48934,0 -0.98311,0 -0.98313,1.2069 z"
       style="color:#1e92ff;opacity:0.4;fill:url(#linearGradient17-3);fill-opacity:0.4;fill-rule:nonzero;stroke:none;stroke-width:5.29537"
       sodipodi:nodetypes="cccccccccccc" />
    <path
       d="m 414.41758,499.505 v -7.707 c 0,-0.796 -0.34031,-1.559 -0.94662,-2.121 -0.60523,-0.563 -1.42692,-0.879 -2.28415,-0.879 h -9.15385 v 0.028 L 401.7702,488.6 c -0.5977,-0.516 -1.38277,-0.802 -2.198,-0.802 h -7.77001 c -1.78446,0 -3.23076,1.343 -3.23076,3 v 22 c 0,0.796 0.3403,1.559 0.94661,2.121 0.60523,0.563 1.42692,0.879 2.28415,0.879 h 21.53847 c 0.85723,0 1.67892,-0.316 2.28415,-0.879 0.60631,-0.562 0.94662,-1.325 0.94662,-2.121 V 502.67 c 0,-0.834 -0.3737,-1.631 -1.03277,-2.198 z m 0.15385,3.165 v 10.128 c 0,0.265 -0.26693,0.52 -0.46939,0.707 -0.20138,0.188 -0.476,0.293 -0.76138,0.293 h -21.53847 c -0.28538,0 -0.56,-0.105 -0.76138,-0.293 -0.20246,-0.187 -0.46938,-0.442 -0.46938,-0.707 v -22 c 0,-0.552 0.6363,-1 1.23077,-1 h 7.77 c 0.27138,0 0.53307,0.095 0.7323,0.267 l 13.76846,11.872 c 0.2197,0.19 0.49847,0.455 0.49847,0.733 z m -19,-8.872 z m 8.74784,-3 7.94446,6.85 v -5.85 c 0,-0.265 -0.11307,-0.52 -0.31553,-0.707 -0.20139,-0.188 -0.476,-0.293 -0.76139,-0.293 z m -10.36323,3 h 5.38462 c 0.59446,0 1.07692,-0.448 1.07692,-1 0,-0.552 -0.48246,-1 -1.07692,-1 h -5.38462 c -0.59446,0 -1.07692,0.448 -1.07692,1 0,0.552 0.48246,1 1.07692,1 z"
       id="path1-0-1"
       style="fill:url(#linearGradient2-0);stroke-width:1.03775"
       sodipodi:nodetypes="cscscccsssscsscssccsscsscssssccscscscccccscscsssssss" />
  </g>
</svg>
