<?xml version="1.0" encoding="UTF-8" standalone="no"?>
<svg
   width="36"
   version="1.1"
   height="36"
   viewBox="0 0 36 36"
   id="svg16"
   sodipodi:docname="folder-podcast.svg"
   inkscape:version="1.3.1 (91b66b0783, 2023-11-16)"
   xmlns:inkscape="http://www.inkscape.org/namespaces/inkscape"
   xmlns:sodipodi="http://sodipodi.sourceforge.net/DTD/sodipodi-0.dtd"
   xmlns:xlink="http://www.w3.org/1999/xlink"
   xmlns="http://www.w3.org/2000/svg"
   xmlns:svg="http://www.w3.org/2000/svg"
   xmlns:rdf="http://www.w3.org/1999/02/22-rdf-syntax-ns#"
   xmlns:cc="http://creativecommons.org/ns#"
   xmlns:dc="http://purl.org/dc/elements/1.1/">
  <sodipodi:namedview
     pagecolor="#ffffff"
     bordercolor="#666666"
     borderopacity="1"
     objecttolerance="10"
     gridtolerance="10"
     guidetolerance="10"
     inkscape:pageopacity="0"
     inkscape:pageshadow="2"
     inkscape:window-width="1920"
     inkscape:window-height="994"
     id="namedview18"
     showgrid="true"
     inkscape:zoom="6.9384852"
     inkscape:cx="-3.6751538"
     inkscape:cy="20.249377"
     inkscape:window-x="0"
     inkscape:window-y="0"
     inkscape:window-maximized="1"
     inkscape:current-layer="layer1"
     inkscape:document-rotation="0"
     inkscape:showpageshadow="2"
     inkscape:pagecheckerboard="0"
     inkscape:deskcolor="#d1d1d1">
    <inkscape:grid
       type="xygrid"
       id="grid547"
       originx="0"
       originy="0"
       spacingy="1"
       spacingx="1"
       units="px"
       visible="true" />
  </sodipodi:namedview>
  <defs
     id="defs5455">
    <linearGradient
       inkscape:collect="always"
       id="linearGradient30880">
      <stop
         style="stop-color:#ff9955;stop-opacity:1"
         offset="0"
         id="stop30876" />
      <stop
         style="stop-color:#ffdd55;stop-opacity:1"
         offset="0.50953245"
         id="stop30882" />
      <stop
         style="stop-color:#ff9955;stop-opacity:1;"
         offset="1"
         id="stop30878" />
    </linearGradient>
    <linearGradient
       id="linearGradient4172">
      <stop
         style="stop-color:#ffccaa;stop-opacity:1"
         id="stop4174" />
      <stop
         offset="1"
         style="stop-color:#ff9955;stop-opacity:1"
         id="stop4176" />
    </linearGradient>
    <clipPath
       clipPathUnits="userSpaceOnUse"
       id="clipPath79425-9-5-3">
      <rect
         style="opacity:0.5;fill:#000000;fill-opacity:1;stroke:none;stroke-width:0.855869;stroke-dasharray:none;stroke-opacity:1;paint-order:stroke fill markers"
         id="rect79427-1-9-6"
         width="26.417742"
         height="29.037542"
         x="-16.227774"
         y="-6.4845476" />
    </clipPath>
    <clipPath
       clipPathUnits="userSpaceOnUse"
       id="clipPath79425-9-5-5">
      <rect
         style="opacity:0.5;fill:#000000;fill-opacity:1;stroke:none;stroke-width:0.855869;stroke-dasharray:none;stroke-opacity:1;paint-order:stroke fill markers"
         id="rect79427-1-9-62"
         width="26.417742"
         height="29.037542"
         x="-16.227774"
         y="-6.4845476" />
    </clipPath>
    <linearGradient
       inkscape:collect="always"
       xlink:href="#linearGradient30880"
       id="linearGradient2"
       x1="420.92615"
       y1="521.21033"
       x2="438.9281"
       y2="521.21033"
       gradientUnits="userSpaceOnUse"
       gradientTransform="matrix(0.66670703,0,0,0.66670703,118.94251,158.30451)" />
    <linearGradient
       inkscape:collect="always"
       xlink:href="#linearGradient30880"
       id="linearGradient17-9"
       x1="392.57144"
       y1="536.79797"
       x2="444.57144"
       y2="507.798"
       gradientUnits="userSpaceOnUse"
       gradientTransform="matrix(0.4937764,0,0,0.86206901,196.23515,51.474265)" />
    <linearGradient
       inkscape:collect="always"
       xlink:href="#linearGradient30880"
       id="linearGradient2-7"
       gradientUnits="userSpaceOnUse"
       x1="147"
       y1="462"
       x2="173"
       y2="434"
       gradientTransform="matrix(1.0769231,0,0,1,230.26373,53.798)" />
  </defs>
  <metadata
     id="metadata5458">
    <rdf:RDF>
      <cc:Work
         rdf:about="">
        <dc:format>image/svg+xml</dc:format>
        <dc:type
           rdf:resource="http://purl.org/dc/dcmitype/StillImage" />
      </cc:Work>
    </rdf:RDF>
  </metadata>
  <g
     inkscape:label="Capa 1"
     inkscape:groupmode="layer"
     id="layer1"
     transform="translate(-384.57143,-483.798)">
    <path
       d="m 411.57891,510.29914 c 0,0.82824 -0.67159,1.49977 -1.5001,1.49977 h -0.75005 c -0.82871,0 -1.50024,-0.67153 -1.50024,-1.49977 0,-0.18418 -0.0108,-0.3659 -0.024,-0.5462 -0.003,-0.0303 -0.006,-0.0609 -0.0108,-0.0906 -0.0164,-0.17102 -0.0389,-0.3406 -0.0678,-0.50802 -0.008,-0.0327 -0.0115,-0.0649 -0.0179,-0.0971 -0.0313,-0.16863 -0.0683,-0.33545 -0.11209,-0.49988 -0.009,-0.024 -0.0138,-0.0461 -0.0201,-0.0698 -0.0466,-0.16939 -0.0987,-0.33678 -0.15859,-0.50082 -6.4e-4,-0.003 -0.003,-0.008 -0.005,-0.0108 -0.0601,-0.16485 -0.12857,-0.326 -0.20145,-0.48454 -0.0108,-0.0226 -0.0195,-0.0458 -0.0299,-0.0691 -0.0714,-0.15134 -0.14891,-0.29893 -0.23096,-0.44403 -0.0144,-0.0262 -0.0292,-0.0506 -0.0433,-0.0765 -0.0842,-0.14415 -0.17323,-0.28549 -0.26752,-0.42267 -0.0134,-0.0186 -0.0266,-0.038 -0.0393,-0.0561 -0.0979,-0.1398 -0.20031,-0.27644 -0.30833,-0.40802 -0.005,-0.006 -0.0108,-0.0108 -0.0108,-0.0115 -0.10865,-0.13113 -0.22272,-0.25693 -0.34028,-0.37958 -0.019,-0.0209 -0.0388,-0.0414 -0.0581,-0.062 -0.1147,-0.1168 -0.2345,-0.22909 -0.35779,-0.33712 -0.0221,-0.0195 -0.0449,-0.0396 -0.0672,-0.0581 -0.12612,-0.10766 -0.25476,-0.21149 -0.38846,-0.30944 -0.0186,-0.0143 -0.0387,-0.027 -0.0576,-0.0417 -0.13917,-0.0998 -0.28083,-0.19639 -0.42802,-0.28594 -0.003,-0.002 -0.007,-0.005 -0.0108,-0.007 -0.14504,-0.0881 -0.29515,-0.16933 -0.44693,-0.24722 -0.0272,-0.0143 -0.0539,-0.0285 -0.0813,-0.0419 -0.1459,-0.0719 -0.29478,-0.13757 -0.44653,-0.19908 -0.0317,-0.0135 -0.0636,-0.0261 -0.0964,-0.0384 -0.15421,-0.0595 -0.31071,-0.11422 -0.47049,-0.16258 -0.0252,-0.0108 -0.0504,-0.0144 -0.0751,-0.0214 -0.59919,-0.17415 -1.23205,-0.26959 -1.8875,-0.26959 -0.41414,0 -0.75002,0.33549 -0.75002,0.74973 v 0.75022 c 0,0.41404 0.33591,0.75005 0.75002,0.75005 0.41174,0 0.809,0.0601 1.1878,0.16352 0.11609,0.0318 0.22999,0.0683 0.34232,0.10894 0.0108,0.003 0.0129,0.008 0.0183,0.0108 0.5555,0.204 1.05882,0.51413 1.48682,0.90572 0.0184,0.0173 0.0382,0.0334 0.0557,0.0507 0.0672,0.0633 0.13205,0.12952 0.19512,0.19726 0.0278,0.0297 0.0551,0.0595 0.0822,0.0906 0.0563,0.0629 0.11013,0.12688 0.16263,0.19335 0.0307,0.0394 0.0615,0.0808 0.091,0.12152 0.0468,0.0643 0.095,0.12795 0.13886,0.19417 0.0317,0.0494 0.0602,0.099 0.0901,0.14887 0.0583,0.0976 0.11435,0.19683 0.16571,0.29903 0.038,0.0746 0.0755,0.14966 0.10932,0.22709 0.0233,0.0539 0.0431,0.10843 0.0655,0.16314 0.0284,0.073 0.0557,0.14544 0.0804,0.21997 0.018,0.0552 0.0344,0.11127 0.0507,0.16731 0.0221,0.0795 0.0431,0.16013 0.0622,0.24087 0.0123,0.053 0.0246,0.10597 0.0341,0.16015 0.0178,0.0901 0.0299,0.18172 0.0418,0.27292 0.009,0.0488 0.0138,0.096 0.0181,0.14465 0.0108,0.0883 0.0108,0.17836 0.0139,0.26789 0.008,0.0511 0.0108,0.10324 0.0108,0.15566 0,0.82826 -0.67146,1.49977 -1.5002,1.49977 h -0.56264 -0.1874 c -0.82839,0 -1.49998,-0.67151 -1.49998,-1.49977 0,-0.41422 -0.33594,-0.75022 -0.7501,-0.75022 -0.41406,0 -0.75002,0.336 -0.75002,0.75022 0,0.41404 0.33599,0.74971 0.75002,0.74971 0.20741,0 0.37511,0.16811 0.37511,0.375 0,0.20728 -0.1677,0.37506 -0.37511,0.37506 -0.82842,-6e-5 -1.49981,-0.67154 -1.49981,-1.49983 0,-0.82869 0.67139,-1.50025 1.49979,-1.50025 0.82845,0 1.50032,0.67153 1.50032,1.50025 0,0.41404 0.33544,0.74972 0.74972,0.74972 h 0.18743 0.56271 c 0.41409,0 0.75011,-0.33568 0.75011,-0.74972 0,-0.56815 -0.12998,-1.10467 -0.35622,-1.58746 -0.0189,-0.0413 -0.0386,-0.0825 -0.059,-0.12358 -0.0278,-0.0539 -0.0573,-0.10762 -0.0875,-0.16055 -0.0224,-0.04 -0.0468,-0.0791 -0.0712,-0.11781 -0.0303,-0.0496 -0.0622,-0.0985 -0.0945,-0.14624 -0.0505,-0.0729 -0.10405,-0.14342 -0.15897,-0.21239 -0.033,-0.0405 -0.067,-0.0788 -0.10108,-0.11818 -0.0406,-0.0458 -0.0815,-0.0927 -0.12401,-0.13663 -0.0343,-0.0355 -0.0697,-0.0704 -0.10603,-0.10512 -0.0456,-0.0439 -0.0938,-0.0863 -0.14173,-0.12818 -0.0303,-0.0267 -0.0615,-0.0538 -0.0927,-0.0796 -0.0799,-0.0644 -0.16191,-0.12709 -0.24687,-0.1852 -0.0252,-0.0171 -0.0512,-0.0304 -0.076,-0.0471 -0.066,-0.0421 -0.13333,-0.0847 -0.2023,-0.12323 -0.035,-0.0195 -0.0707,-0.0384 -0.10692,-0.0567 -0.0651,-0.0339 -0.13204,-0.0661 -0.19932,-0.096 -0.0329,-0.0145 -0.0659,-0.0301 -0.099,-0.0439 -0.0994,-0.0414 -0.20109,-0.0786 -0.30493,-0.11134 -0.0129,-0.006 -0.0261,-0.0108 -0.0385,-0.0108 -0.0935,-0.0283 -0.18881,-0.0537 -0.28505,-0.0737 -0.0357,-0.0108 -0.0731,-0.0145 -0.10931,-0.0212 -0.0786,-0.0148 -0.15779,-0.0265 -0.23758,-0.0363 -0.0341,-0.007 -0.0682,-0.0108 -0.10314,-0.0115 -0.11485,-0.0108 -0.23002,-0.018 -0.34738,-0.018 -0.82832,-3e-5 -1.49971,-0.67173 -1.49971,-1.50035 v -0.75019 c 0,-0.82846 0.67139,-1.49995 1.49973,-1.49995 0.12195,0 0.2427,0.006 0.36328,0.0108 0.0434,0.003 0.0874,0.009 0.13171,0.0108 0.0804,0.008 0.16064,0.0108 0.24004,0.018 0.042,0.007 0.0821,0.0108 0.12363,0.0143 0.0794,0.0108 0.15888,0.0182 0.23759,0.0301 0.0465,0.0108 0.0938,0.015 0.14043,0.0222 0.0662,0.0108 0.1329,0.0223 0.19932,0.035 0.0538,0.0108 0.10597,0.0213 0.15848,0.0329 0.0691,0.0147 0.13758,0.031 0.20518,0.0474 0.0453,0.011 0.0904,0.0223 0.13589,0.0341 0.0669,0.0179 0.13326,0.0378 0.19974,0.0569 0.048,0.0145 0.0967,0.0285 0.14459,0.043 0.0617,0.0188 0.12115,0.0405 0.18216,0.062 0.053,0.0181 0.10547,0.0355 0.15721,0.0549 0.0518,0.0189 0.1035,0.0409 0.15473,0.0615 0.0557,0.0219 0.1127,0.0435 0.16819,0.0677 0.048,0.0207 0.0941,0.0424 0.14173,0.0637 0.119,0.0539 0.23629,0.11061 0.35231,0.17031 0.0362,0.018 0.073,0.0369 0.10848,0.0556 0.0615,0.0327 0.12069,0.0672 0.18034,0.10195 0.0387,0.0217 0.0786,0.0427 0.11658,0.0664 0.0621,0.0375 0.12268,0.0759 0.18374,0.11476 0.0334,0.0214 0.0664,0.0419 0.0998,0.0636 0.059,0.039 0.1177,0.0794 0.1753,0.12014 0.0375,0.0264 0.0744,0.0529 0.11144,0.0795 0.0534,0.0387 0.10557,0.0779 0.1573,0.11774 0.0368,0.0279 0.0727,0.0564 0.10795,0.0851 0.0551,0.0445 0.11019,0.0892 0.16443,0.13494 0.029,0.0246 0.0567,0.0494 0.0851,0.0739 0.058,0.0511 0.11645,0.10196 0.1732,0.15475 0.0188,0.0173 0.0369,0.0344 0.0549,0.0531 0.53026,0.50246 0.98828,1.08147 1.35398,1.71985 0.007,0.0108 0.0108,0.0156 0.0139,0.0231 0.0494,0.0861 0.096,0.17285 0.14124,0.2608 0.009,0.011 0.011,0.022 0.0179,0.0334 0.0457,0.0897 0.0901,0.17957 0.13218,0.27121 0.002,0.007 0.006,0.0108 0.009,0.0144 0.0439,0.0962 0.0866,0.19295 0.12647,0.29131 0,4e-4 0,6.4e-4 4e-4,0.002 0.20637,0.50672 0.3591,1.04103 0.4512,1.59625 0.0666,0.40142 0.10315,0.81305 0.10315,1.23368 0,0.41406 0.33583,0.74971 0.75004,0.74971 h 0.74998 c 0.41423,0 0.74992,-0.33565 0.74992,-0.74971 0,-0.60723 -0.0578,-1.20057 -0.16447,-1.77699 -0.002,-0.0108 -0.003,-0.013 -0.006,-0.019 -0.0266,-0.14086 -0.0556,-0.28095 -0.0881,-0.41954 -0.002,-0.008 -0.003,-0.0108 -0.005,-0.0154 -0.0308,-0.13327 -0.0659,-0.26589 -0.10218,-0.39703 -0.007,-0.0175 -0.0108,-0.0339 -0.0146,-0.0519 -0.038,-0.13074 -0.077,-0.25928 -0.11933,-0.38803 -6.4e-4,-0.003 -0.002,-0.009 -0.003,-0.0108 -0.32077,-0.96534 -0.7881,-1.86316 -1.37628,-2.66836 -0.002,-0.005 -0.005,-0.008 -0.008,-0.0108 -0.0739,-0.10023 -0.14965,-0.1988 -0.2271,-0.29649 -0.0153,-0.0187 -0.0301,-0.0392 -0.0456,-0.0583 -0.0716,-0.0893 -0.14624,-0.17745 -0.22159,-0.26443 -0.0214,-0.0254 -0.043,-0.0501 -0.0649,-0.0743 -0.0748,-0.0855 -0.15314,-0.16936 -0.23114,-0.25228 -0.0213,-0.0224 -0.0431,-0.0456 -0.0655,-0.0689 -0.0761,-0.079 -0.15401,-0.15674 -0.23254,-0.23292 -0.0299,-0.0284 -0.0581,-0.0564 -0.0881,-0.0847 -0.0775,-0.0735 -0.15636,-0.14528 -0.23641,-0.21637 -0.0298,-0.0261 -0.0583,-0.0511 -0.0882,-0.0771 -0.0793,-0.069 -0.15967,-0.13722 -0.24173,-0.20308 -0.0382,-0.0298 -0.0755,-0.0595 -0.11393,-0.0897 -0.077,-0.0601 -0.15419,-0.12101 -0.23324,-0.17913 -0.039,-0.0289 -0.0792,-0.056 -0.11906,-0.0851 -0.0819,-0.0581 -0.16404,-0.11716 -0.24753,-0.17325 -0.0186,-0.0121 -0.0363,-0.0231 -0.0543,-0.035 -0.21185,-0.13962 -0.42892,-0.27117 -0.6517,-0.39439 -0.0116,-0.0108 -0.0231,-0.0142 -0.035,-0.0203 -0.0659,-0.0361 -0.13452,-0.07 -0.20179,-0.10504 -0.0693,-0.0361 -0.13831,-0.0724 -0.20854,-0.10641 -0.0657,-0.0322 -0.13373,-0.0629 -0.20063,-0.0935 -0.0683,-0.0309 -0.1353,-0.0624 -0.20429,-0.0925 -0.073,-0.0312 -0.14593,-0.0609 -0.2195,-0.0908 -0.0698,-0.0285 -0.13875,-0.0556 -0.20942,-0.0821 -0.0673,-0.0257 -0.13541,-0.0498 -0.20312,-0.073 -0.0795,-0.0279 -0.15935,-0.0542 -0.23965,-0.081 -0.0643,-0.0211 -0.12946,-0.0417 -0.19467,-0.0603 -0.081,-0.0246 -0.16186,-0.0466 -0.24345,-0.0691 -0.0699,-0.0185 -0.14044,-0.038 -0.21112,-0.0541 -0.0786,-0.0186 -0.15772,-0.0375 -0.23715,-0.0539 -0.0724,-0.0164 -0.14418,-0.0315 -0.21735,-0.0458 -0.0826,-0.0162 -0.1669,-0.0309 -0.2506,-0.0451 -0.0683,-0.0119 -0.13585,-0.0234 -0.2048,-0.0335 -0.0989,-0.0145 -0.19971,-0.0262 -0.29973,-0.0382 -0.0548,-0.009 -0.10812,-0.0137 -0.16282,-0.0182 -0.11265,-0.0108 -0.22662,-0.0186 -0.3401,-0.0261 -0.0465,-0.005 -0.0934,-0.0108 -0.14086,-0.0108 -0.0375,-0.002 -0.0743,-0.002 -0.11188,-0.005 v -0.007 c -0.0945,-5.7e-4 -0.18874,-0.0375 -0.26111,-0.10932 -0.14629,-0.1463 -0.14629,-0.384 0,-0.53032 0.08,-0.0798 0.18668,-0.11185 0.29098,-0.10472 5.61294,0.21064 10.09998,4.82508 10.09998,10.48993 z m -11.62586,-9.7507 c -0.20698,0 -0.37465,-0.16818 -0.37465,-0.37504 0,-0.2073 0.16767,-0.375 0.37465,-0.375 0.2073,0 0.37507,0.1677 0.37507,0.375 0,0.20686 -0.16777,0.37504 -0.37507,0.37504 z"
       id="path2-36-3-4-9-9-3"
       style="fill:url(#linearGradient2);stroke-width:0.0234389" />
    <path
       inkscape:connector-curvature="0"
       id="fill-3-9"
       d="m 390.57142,490.43808 2e-5,22.71983 c -0.0461,0.49262 -0.11376,0.78207 -0.318,1.07328 l 24.51303,-10e-6 c 0.62105,0 0.98756,-0.17715 0.98756,-1.71864 v -8.28136 l -2,-4 v -7 -2 c 0,-0.57519 -1.22689,-2 -2,-2 h -20.19948 c -0.48934,0 -0.98311,0 -0.98313,1.2069 z"
       style="color:#1e92ff;opacity:0.4;fill:url(#linearGradient17-9);fill-opacity:0.4;fill-rule:nonzero;stroke:none;stroke-width:5.29537"
       sodipodi:nodetypes="cccccccccccc" />
    <path
       d="m 414.41758,499.505 v -7.707 c 0,-0.796 -0.34031,-1.559 -0.94662,-2.121 -0.60523,-0.563 -1.42692,-0.879 -2.28415,-0.879 h -9.15385 v 0.028 L 401.7702,488.6 c -0.5977,-0.516 -1.38277,-0.802 -2.198,-0.802 h -7.77001 c -1.78446,0 -3.23076,1.343 -3.23076,3 v 22 c 0,0.796 0.3403,1.559 0.94661,2.121 0.60523,0.563 1.42692,0.879 2.28415,0.879 h 21.53847 c 0.85723,0 1.67892,-0.316 2.28415,-0.879 0.60631,-0.562 0.94662,-1.325 0.94662,-2.121 V 502.67 c 0,-0.834 -0.3737,-1.631 -1.03277,-2.198 z m 0.15385,3.165 v 10.128 c 0,0.265 -0.26693,0.52 -0.46939,0.707 -0.20138,0.188 -0.476,0.293 -0.76138,0.293 h -21.53847 c -0.28538,0 -0.56,-0.105 -0.76138,-0.293 -0.20246,-0.187 -0.46938,-0.442 -0.46938,-0.707 v -22 c 0,-0.552 0.6363,-1 1.23077,-1 h 7.77 c 0.27138,0 0.53307,0.095 0.7323,0.267 l 13.76846,11.872 c 0.2197,0.19 0.49847,0.455 0.49847,0.733 z m -19,-8.872 z m 8.74784,-3 7.94446,6.85 v -5.85 c 0,-0.265 -0.11307,-0.52 -0.31553,-0.707 -0.20139,-0.188 -0.476,-0.293 -0.76139,-0.293 z m -10.36323,3 h 5.38462 c 0.59446,0 1.07692,-0.448 1.07692,-1 0,-0.552 -0.48246,-1 -1.07692,-1 h -5.38462 c -0.59446,0 -1.07692,0.448 -1.07692,1 0,0.552 0.48246,1 1.07692,1 z"
       id="path1-0-1"
       style="fill:url(#linearGradient2-7);stroke-width:1.03775"
       sodipodi:nodetypes="cscscccsssscsscssccsscsscssssccscscscccccscscsssssss" />
  </g>
</svg>
