<?xml version="1.0" encoding="UTF-8" standalone="no"?>
<svg
   width="36"
   version="1.1"
   height="36"
   id="svg17"
   sodipodi:docname="folder-mac.svg"
   inkscape:version="1.3.1 (91b66b0783, 2023-11-16)"
   xmlns:inkscape="http://www.inkscape.org/namespaces/inkscape"
   xmlns:sodipodi="http://sodipodi.sourceforge.net/DTD/sodipodi-0.dtd"
   xmlns:xlink="http://www.w3.org/1999/xlink"
   xmlns="http://www.w3.org/2000/svg"
   xmlns:svg="http://www.w3.org/2000/svg"
   xmlns:rdf="http://www.w3.org/1999/02/22-rdf-syntax-ns#"
   xmlns:cc="http://creativecommons.org/ns#"
   xmlns:dc="http://purl.org/dc/elements/1.1/">
  <sodipodi:namedview
     pagecolor="#ffffff"
     bordercolor="#666666"
     borderopacity="1"
     objecttolerance="10"
     gridtolerance="10"
     guidetolerance="10"
     inkscape:pageopacity="0"
     inkscape:pageshadow="2"
     inkscape:window-width="1920"
     inkscape:window-height="994"
     id="namedview19"
     showgrid="true"
     inkscape:zoom="11.371212"
     inkscape:cx="20.798136"
     inkscape:cy="29.064625"
     inkscape:window-x="0"
     inkscape:window-y="0"
     inkscape:window-maximized="1"
     inkscape:current-layer="layer1"
     inkscape:document-rotation="0"
     inkscape:lockguides="false"
     inkscape:showpageshadow="2"
     inkscape:pagecheckerboard="0"
     inkscape:deskcolor="#d1d1d1">
    <inkscape:grid
       type="xygrid"
       id="grid903"
       originx="0"
       originy="0"
       spacingy="1"
       spacingx="1"
       units="px"
       visible="true" />
  </sodipodi:namedview>
  <defs
     id="defs5455">
    <clipPath
       clipPathUnits="userSpaceOnUse"
       id="clipPath79425-9-5-3">
      <rect
         style="opacity:0.5;fill:#000000;fill-opacity:1;stroke:none;stroke-width:0.855869;stroke-dasharray:none;stroke-opacity:1;paint-order:stroke fill markers"
         id="rect79427-1-9-6"
         width="26.417742"
         height="29.037542"
         x="-16.227774"
         y="-6.4845476" />
    </clipPath>
    <clipPath
       clipPathUnits="userSpaceOnUse"
       id="clipPath79425-9-5-5">
      <rect
         style="opacity:0.5;fill:#000000;fill-opacity:1;stroke:none;stroke-width:0.855869;stroke-dasharray:none;stroke-opacity:1;paint-order:stroke fill markers"
         id="rect79427-1-9-62"
         width="26.417742"
         height="29.037542"
         x="-16.227774"
         y="-6.4845476" />
    </clipPath>
    <linearGradient
       id="linearGradient9"
       inkscape:collect="always">
      <stop
         style="stop-color:#3385ff;stop-opacity:1"
         offset="0"
         id="stop7" />
      <stop
         style="stop-color:#3aacbe;stop-opacity:1;"
         offset="0.48888862"
         id="stop8" />
      <stop
         style="stop-color:#b07bff;stop-opacity:1;"
         offset="1"
         id="stop9" />
    </linearGradient>
    <linearGradient
       inkscape:collect="always"
       xlink:href="#linearGradient9"
       id="linearGradient2"
       x1="419.64285"
       y1="523.79797"
       x2="440.21429"
       y2="523.79797"
       gradientUnits="userSpaceOnUse"
       gradientTransform="matrix(0.63194834,0,0,0.66666661,133.37879,156.59935)" />
    <linearGradient
       inkscape:collect="always"
       xlink:href="#linearGradient9"
       id="linearGradient3"
       x1="54"
       y1="423"
       x2="793"
       y2="423"
       gradientUnits="userSpaceOnUse" />
    <linearGradient
       inkscape:collect="always"
       xlink:href="#linearGradient9"
       id="linearGradient6"
       gradientUnits="userSpaceOnUse"
       x1="54"
       y1="423"
       x2="793"
       y2="423" />
    <linearGradient
       inkscape:collect="always"
       xlink:href="#linearGradient9"
       id="linearGradient17-7"
       x1="392.57144"
       y1="536.79797"
       x2="444.57144"
       y2="507.798"
       gradientUnits="userSpaceOnUse"
       gradientTransform="matrix(0.4937764,0,0,0.86206901,196.23515,51.474265)" />
    <linearGradient
       inkscape:collect="always"
       xlink:href="#linearGradient9"
       id="linearGradient2-5"
       gradientUnits="userSpaceOnUse"
       x1="147"
       y1="462"
       x2="173"
       y2="434"
       gradientTransform="matrix(1.0769231,0,0,1,230.26373,53.798)" />
  </defs>
  <metadata
     id="metadata5458">
    <rdf:RDF>
      <cc:Work
         rdf:about="">
        <dc:format>image/svg+xml</dc:format>
        <dc:type
           rdf:resource="http://purl.org/dc/dcmitype/StillImage" />
      </cc:Work>
    </rdf:RDF>
  </metadata>
  <g
     inkscape:label="Capa 1"
     inkscape:groupmode="layer"
     id="layer1"
     transform="translate(-384.57143,-483.798)">
    <path
       fill-rule="evenodd"
       clip-rule="evenodd"
       d="m 400.19636,501.94082 c 0,-0.23662 0.18199,-0.42862 0.40632,-0.42862 0.22433,0 0.40622,0.192 0.40622,0.42862 0,0.23668 -0.18189,0.42856 -0.40622,0.42856 -0.22433,0 -0.40632,-0.19188 -0.40632,-0.42856 z m 1.62514,0 c 0,-0.23662 0.18188,-0.42862 0.40621,-0.42862 0.22433,0 0.40633,0.192 0.40633,0.42862 0,0.23668 -0.182,0.42856 -0.40633,0.42856 -0.22433,0 -0.40621,-0.19188 -0.40621,-0.42856 z m 1.62493,0 c 0,-0.23662 0.18185,-0.42862 0.40625,-0.42862 0.22444,0 0.40628,0.192 0.40628,0.42862 0,0.23668 -0.18184,0.42856 -0.40628,0.42856 -0.2244,0 -0.40625,-0.19188 -0.40625,-0.42856 z m 8.125,2.35718 v 5.7858 c 0,0.9467 -0.72754,1.7142 -1.62493,1.7142 h -9.75014 c -0.89742,0 -1.62493,-0.7675 -1.62493,-1.7142 v -4.71442 c 0,-0.23669 0.18184,-0.42856 0.40627,-0.42856 0.22441,0 0.40626,0.19187 0.40626,0.42856 v 4.71442 c 0,0.47323 0.3638,0.85702 0.8124,0.85702 h 9.75012 c 0.44879,0 0.81255,-0.38379 0.81255,-0.85702 v -5.5716 c 0,-0.23653 -0.18187,-0.4284 -0.40626,-0.4284 h -10.76574 c -0.56102,0 -1.0156,-0.47972 -1.0156,-1.0716 v -1.5 c 0,-0.9467 0.72751,-1.7142 1.62493,-1.7142 h 9.75014 c 0.89739,0 1.62493,0.7675 1.62493,1.7142 v 0.42862 c 0,0.23668 -0.18187,0.42856 -0.40611,0.42856 -0.22438,0 -0.40628,-0.19188 -0.40628,-0.42856 v -0.42862 c 0,-0.47322 -0.36377,-0.85702 -0.81254,-0.85702 h -9.75014 c -0.44859,0 -0.81238,0.3838 -0.81238,0.85702 v 1.2858 c 0,0.23672 0.18189,0.42862 0.40627,0.42862 h 10.76559 c 0.56099,0 1.01559,0.47955 1.01559,1.07138 z"
       id="path2-6-2"
       style="fill:url(#linearGradient2);stroke-width:0.0260793" />
    <g
       id="g8-1-0"
       transform="matrix(0.00471598,0,0,0.00497509,402.97507,505.53482)"
       style="fill:url(#linearGradient3);image-rendering:optimizeQuality;shape-rendering:geometricPrecision;text-rendering:geometricPrecision">
      <polygon
         class="fil0"
         points="793,21 511,423 793,825 617,825 423,549 230,825 54,825 335,423 54,21 230,21 423,298 617,21 "
         id="polygon6-5-6"
         style="fill:url(#linearGradient6);fill-opacity:1" />
    </g>
    <path
       inkscape:connector-curvature="0"
       id="fill-3-3"
       d="m 390.57142,490.43808 2e-5,22.71983 c -0.0461,0.49262 -0.11376,0.78207 -0.318,1.07328 l 24.51303,-10e-6 c 0.62105,0 0.98756,-0.17715 0.98756,-1.71864 v -8.28136 l -2,-4 v -7 -2 c 0,-0.57519 -1.22689,-2 -2,-2 h -20.19948 c -0.48934,0 -0.98311,0 -0.98313,1.2069 z"
       style="color:#1e92ff;opacity:0.4;fill:url(#linearGradient17-7);fill-opacity:0.4;fill-rule:nonzero;stroke:none;stroke-width:5.29537"
       sodipodi:nodetypes="cccccccccccc" />
    <path
       d="m 414.41758,499.505 v -7.707 c 0,-0.796 -0.34031,-1.559 -0.94662,-2.121 -0.60523,-0.563 -1.42692,-0.879 -2.28415,-0.879 h -9.15385 v 0.028 L 401.7702,488.6 c -0.5977,-0.516 -1.38277,-0.802 -2.198,-0.802 h -7.77001 c -1.78446,0 -3.23076,1.343 -3.23076,3 v 22 c 0,0.796 0.3403,1.559 0.94661,2.121 0.60523,0.563 1.42692,0.879 2.28415,0.879 h 21.53847 c 0.85723,0 1.67892,-0.316 2.28415,-0.879 0.60631,-0.562 0.94662,-1.325 0.94662,-2.121 V 502.67 c 0,-0.834 -0.3737,-1.631 -1.03277,-2.198 z m 0.15385,3.165 v 10.128 c 0,0.265 -0.26693,0.52 -0.46939,0.707 -0.20138,0.188 -0.476,0.293 -0.76138,0.293 h -21.53847 c -0.28538,0 -0.56,-0.105 -0.76138,-0.293 -0.20246,-0.187 -0.46938,-0.442 -0.46938,-0.707 v -22 c 0,-0.552 0.6363,-1 1.23077,-1 h 7.77 c 0.27138,0 0.53307,0.095 0.7323,0.267 l 13.76846,11.872 c 0.2197,0.19 0.49847,0.455 0.49847,0.733 z m -19,-8.872 z m 8.74784,-3 7.94446,6.85 v -5.85 c 0,-0.265 -0.11307,-0.52 -0.31553,-0.707 -0.20139,-0.188 -0.476,-0.293 -0.76139,-0.293 z m -10.36323,3 h 5.38462 c 0.59446,0 1.07692,-0.448 1.07692,-1 0,-0.552 -0.48246,-1 -1.07692,-1 h -5.38462 c -0.59446,0 -1.07692,0.448 -1.07692,1 0,0.552 0.48246,1 1.07692,1 z"
       id="path1-0-1"
       style="fill:url(#linearGradient2-5);stroke-width:1.03775"
       sodipodi:nodetypes="cscscccsssscsscssccsscsscssssccscscscccccscscsssssss" />
  </g>
</svg>
