<?xml version="1.0" encoding="UTF-8" standalone="no"?>
<svg
   width="36"
   version="1.1"
   height="36"
   id="svg17"
   sodipodi:docname="folder-vivid.svg"
   inkscape:version="1.3.1 (91b66b0783, 2023-11-16)"
   xmlns:inkscape="http://www.inkscape.org/namespaces/inkscape"
   xmlns:sodipodi="http://sodipodi.sourceforge.net/DTD/sodipodi-0.dtd"
   xmlns:xlink="http://www.w3.org/1999/xlink"
   xmlns="http://www.w3.org/2000/svg"
   xmlns:svg="http://www.w3.org/2000/svg"
   xmlns:rdf="http://www.w3.org/1999/02/22-rdf-syntax-ns#"
   xmlns:cc="http://creativecommons.org/ns#"
   xmlns:dc="http://purl.org/dc/elements/1.1/">
  <sodipodi:namedview
     pagecolor="#ffffff"
     bordercolor="#666666"
     borderopacity="1"
     objecttolerance="10"
     gridtolerance="10"
     guidetolerance="10"
     inkscape:pageopacity="0"
     inkscape:pageshadow="2"
     inkscape:window-width="1920"
     inkscape:window-height="994"
     id="namedview19"
     showgrid="true"
     inkscape:zoom="8.1638873"
     inkscape:cx="-0.183736"
     inkscape:cy="24.559379"
     inkscape:window-x="0"
     inkscape:window-y="0"
     inkscape:window-maximized="1"
     inkscape:current-layer="layer1"
     inkscape:document-rotation="0"
     inkscape:showpageshadow="2"
     inkscape:pagecheckerboard="0"
     inkscape:deskcolor="#d1d1d1"
     showguides="true">
    <inkscape:grid
       id="grid1"
       units="px"
       originx="2.7755576e-17"
       originy="0"
       spacingx="1"
       spacingy="1"
       empcolor="#0099e5"
       empopacity="0.30196078"
       color="#0099e5"
       opacity="0.14901961"
       empspacing="5"
       dotted="false"
       gridanglex="30"
       gridanglez="30"
       visible="true" />
  </sodipodi:namedview>
  <defs
     id="defs5455">
    <linearGradient
       id="linearGradient14"
       inkscape:collect="always">
      <stop
         style="stop-color:#ffe680;stop-opacity:1"
         offset="0"
         id="stop14" />
      <stop
         style="stop-color:#9955ff;stop-opacity:1"
         offset="0.36842108"
         id="stop16" />
      <stop
         style="stop-color:#9955ff;stop-opacity:1"
         offset="0.73684216"
         id="stop35" />
      <stop
         style="stop-color:#e580ff;stop-opacity:1"
         offset="1"
         id="stop15" />
    </linearGradient>
    <linearGradient
       id="linearGradient11"
       gradientUnits="userSpaceOnUse"
       x1="263.62869"
       y1="307.53531"
       x2="332.10181"
       y2="188.9364"
       gradientTransform="matrix(0.05523338,0,0,0.05561788,391.26309,495.13116)">
      <stop
         offset="0.0534"
         style="stop-color:#FFDD8B"
         id="stop7" />
      <stop
         offset="0.3102"
         style="stop-color:#EC95FF"
         id="stop8" />
      <stop
         offset="0.6029"
         style="stop-color:#B15DFF"
         id="stop9" />
      <stop
         offset="0.7091"
         style="stop-color:#9D49FF"
         id="stop10" />
      <stop
         offset="0.99599999"
         style="stop-color:#ab7aff;stop-opacity:1;"
         id="stop11" />
    </linearGradient>
    <clipPath
       clipPathUnits="userSpaceOnUse"
       id="clipPath79425-9-5-3">
      <rect
         style="opacity:0.5;fill:#000000;fill-opacity:1;stroke:none;stroke-width:0.855869;stroke-dasharray:none;stroke-opacity:1;paint-order:stroke fill markers"
         id="rect79427-1-9-6"
         width="26.417742"
         height="29.037542"
         x="-16.227774"
         y="-6.4845476" />
    </clipPath>
    <clipPath
       clipPathUnits="userSpaceOnUse"
       id="clipPath79425-9-5-5">
      <rect
         style="opacity:0.5;fill:#000000;fill-opacity:1;stroke:none;stroke-width:0.855869;stroke-dasharray:none;stroke-opacity:1;paint-order:stroke fill markers"
         id="rect79427-1-9-62"
         width="26.417742"
         height="29.037542"
         x="-16.227774"
         y="-6.4845476" />
    </clipPath>
    <linearGradient
       id="New_Gradient_Swatch_3"
       gradientUnits="userSpaceOnUse"
       x1="256"
       x2="256"
       y1="56.152"
       y2="455.849"
       gradientTransform="matrix(0.12406948,0,0,0.11508628,384.80964,486.3357)">
      <stop
         offset="0"
         stop-color="#5ee4ff"
         id="stop1"
         style="stop-color:#b380ff;stop-opacity:1" />
      <stop
         offset=".094"
         stop-color="#5ad9f9"
         id="stop2"
         style="stop-color:#9955ff;stop-opacity:1" />
      <stop
         offset=".26"
         stop-color="#4ebbea"
         id="stop3"
         style="stop-color:#6600ff;stop-opacity:1" />
      <stop
         offset=".479"
         stop-color="#3a8bd1"
         id="stop4"
         style="stop-opacity:1;stop-color:#8d5fd3" />
      <stop
         offset=".739"
         stop-color="#1f49ae"
         id="stop5"
         style="stop-color:#ffb380;stop-opacity:1" />
      <stop
         offset="1"
         stop-color="#020088"
         id="stop6"
         style="stop-color:#ff66ff;stop-opacity:1;" />
    </linearGradient>
    <linearGradient
       id="SVGID_00000086670817252672178700000005496660973634033298_"
       gradientUnits="userSpaceOnUse"
       x1="263.62869"
       y1="307.53531"
       x2="332.10181"
       y2="188.9364"
       gradientTransform="matrix(0.05523338,0,0,0.05561788,391.26309,523.33116)">
      <stop
         offset="0.0534"
         style="stop-color:#FFDD8B"
         id="stop15-5" />
      <stop
         offset="0.3102"
         style="stop-color:#EC95FF"
         id="stop16-9" />
      <stop
         offset="0.6029"
         style="stop-color:#B15DFF"
         id="stop17" />
      <stop
         offset="0.7091"
         style="stop-color:#9D49FF"
         id="stop18" />
      <stop
         offset="0.996"
         style="stop-color:#6C17FF"
         id="stop19" />
    </linearGradient>
    <linearGradient
       id="SVGID_00000134231849669346117570000000698474418945274550_"
       gradientUnits="userSpaceOnUse"
       x1="366.60519"
       y1="232.8376"
       x2="272.9707"
       y2="70.657997"
       gradientTransform="matrix(0.05523338,0,0,0.05561788,391.26309,523.33116)">
      <stop
         offset="0.0534"
         style="stop-color:#FFDD8B"
         id="stop20" />
      <stop
         offset="0.3102"
         style="stop-color:#EC95FF"
         id="stop21" />
      <stop
         offset="0.6029"
         style="stop-color:#B15DFF"
         id="stop22" />
      <stop
         offset="0.7091"
         style="stop-color:#9D49FF"
         id="stop23" />
      <stop
         offset="0.996"
         style="stop-color:#6C17FF"
         id="stop24" />
    </linearGradient>
    <linearGradient
       id="SVGID_00000100379863149350596330000015089054235421011339_"
       gradientUnits="userSpaceOnUse"
       x1="263.62881"
       y1="383.29199"
       x2="332.10181"
       y2="264.69312"
       gradientTransform="matrix(-0.05523338,0,0,-0.05561788,418.87977,548.87831)">
      <stop
         offset="0.0534"
         style="stop-color:#FFDD8B"
         id="stop25" />
      <stop
         offset="0.3102"
         style="stop-color:#EC95FF"
         id="stop26" />
      <stop
         offset="0.6029"
         style="stop-color:#B15DFF"
         id="stop27" />
      <stop
         offset="0.7091"
         style="stop-color:#9D49FF"
         id="stop28" />
      <stop
         offset="0.996"
         style="stop-color:#6C17FF"
         id="stop29" />
    </linearGradient>
    <linearGradient
       id="SVGID_00000002375148197518772430000007419183678848908958_"
       gradientUnits="userSpaceOnUse"
       x1="366.60519"
       y1="308.5943"
       x2="272.9707"
       y2="146.4146"
       gradientTransform="matrix(-0.05523338,0,0,-0.05561788,418.87977,548.87831)">
      <stop
         offset="0.0534"
         style="stop-color:#FFDD8B"
         id="stop30" />
      <stop
         offset="0.3102"
         style="stop-color:#EC95FF"
         id="stop31" />
      <stop
         offset="0.6029"
         style="stop-color:#B15DFF"
         id="stop32" />
      <stop
         offset="0.7091"
         style="stop-color:#9D49FF"
         id="stop33" />
      <stop
         offset="0.996"
         style="stop-color:#6C17FF"
         id="stop34" />
    </linearGradient>
    <linearGradient
       inkscape:collect="always"
       xlink:href="#linearGradient14"
       id="linearGradient17"
       x1="392.57144"
       y1="536.79797"
       x2="444.57144"
       y2="507.798"
       gradientUnits="userSpaceOnUse"
       gradientTransform="matrix(0.4937764,0,0,0.86206901,196.05255,51.04108)" />
    <linearGradient
       inkscape:collect="always"
       xlink:href="#linearGradient14"
       id="linearGradient1"
       gradientUnits="userSpaceOnUse"
       x1="148.85715"
       y1="461"
       x2="166.5"
       y2="441"
       gradientTransform="matrix(1.0769231,0,0,1,230.26373,53.798)" />
    <linearGradient
       inkscape:collect="always"
       xlink:href="#linearGradient15"
       id="linearGradient16"
       x1="95"
       y1="120"
       x2="145"
       y2="195"
       gradientUnits="userSpaceOnUse"
       gradientTransform="matrix(0.06626194,0,0,0.07430801,395.63207,493.88223)" />
    <linearGradient
       id="linearGradient15"
       inkscape:collect="always">
      <stop
         style="stop-color:#ac56be;stop-opacity:1;"
         offset="0"
         id="stop15-2" />
      <stop
         style="stop-color:#642975;stop-opacity:1;"
         offset="1"
         id="stop16-0" />
    </linearGradient>
    <linearGradient
       inkscape:collect="always"
       xlink:href="#linearGradient3"
       id="linearGradient45"
       x1="27"
       y1="3"
       x2="16.043079"
       y2="17.459215"
       gradientUnits="userSpaceOnUse"
       gradientTransform="matrix(0.46153923,0,0,0.49999929,398.18672,497.79794)" />
    <linearGradient
       id="linearGradient3"
       inkscape:collect="always">
      <stop
         style="stop-color:#56bde9;stop-opacity:1;"
         offset="0"
         id="stop44" />
      <stop
         style="stop-color:#55bbe6;stop-opacity:1;"
         offset="0.25400379"
         id="stop48" />
      <stop
         style="stop-color:#2ba9de;stop-opacity:1;"
         offset="0.56403214"
         id="stop47" />
      <stop
         style="stop-color:#1a88b7;stop-opacity:1;"
         offset="0.78841382"
         id="stop46" />
      <stop
         style="stop-color:#136d93;stop-opacity:1;"
         offset="1"
         id="stop45" />
    </linearGradient>
    <linearGradient
       inkscape:collect="always"
       xlink:href="#linearGradient17-8"
       id="linearGradient18"
       x1="145"
       y1="190"
       x2="215"
       y2="265"
       gradientUnits="userSpaceOnUse"
       gradientTransform="matrix(0.06626194,0,0,0.07430801,395.63207,493.88223)" />
    <linearGradient
       id="linearGradient17-8"
       inkscape:collect="always">
      <stop
         style="stop-color:#642975;stop-opacity:1"
         offset="0"
         id="stop17-6" />
      <stop
         style="stop-color:#35163e;stop-opacity:1;"
         offset="1"
         id="stop18-8" />
    </linearGradient>
  </defs>
  <metadata
     id="metadata5458">
    <rdf:RDF>
      <cc:Work
         rdf:about="">
        <dc:format>image/svg+xml</dc:format>
        <dc:type
           rdf:resource="http://purl.org/dc/dcmitype/StillImage" />
      </cc:Work>
    </rdf:RDF>
  </metadata>
  <g
     inkscape:label="Capa 1"
     inkscape:groupmode="layer"
     id="layer1"
     transform="translate(-384.57143,-483.798)">
    <g
       transform="matrix(1.0769231,0,0,1,230.26373,53.798)"
       id="g2" />
    <path
       inkscape:connector-curvature="0"
       id="fill-3"
       d="m 390.38882,490.0049 2e-5,22.71983 c -0.0461,0.49262 -0.11376,0.78207 -0.318,1.07328 l 24.51303,-10e-6 c 0.62105,0 0.98756,-0.17716 0.98756,-1.71864 V 503.798 l -2,-4 v -7 -2 c 0,-0.57519 -1.22689,-2 -2,-2 h -20.19948 c -0.48934,0 -0.98311,0 -0.98313,1.2069 z"
       style="color:#1e92ff;opacity:0.4;fill:url(#linearGradient17);fill-opacity:0.4;fill-rule:nonzero;stroke:none;stroke-width:5.29537"
       sodipodi:nodetypes="cccccccccccc" />
    <path
       d="m 414.41758,499.505 v -7.707 c 0,-0.796 -0.34031,-1.559 -0.94662,-2.121 -0.60523,-0.563 -1.42692,-0.879 -2.28415,-0.879 h -9.15385 v 0.028 L 401.7702,488.6 c -0.5977,-0.516 -1.38277,-0.802 -2.198,-0.802 h -7.77001 c -1.78446,0 -3.23076,1.343 -3.23076,3 v 22 c 0,0.796 0.3403,1.559 0.94661,2.121 0.60523,0.563 1.42692,0.879 2.28415,0.879 h 21.53847 c 0.85723,0 1.67892,-0.316 2.28415,-0.879 0.60631,-0.562 0.94662,-1.325 0.94662,-2.121 V 502.67 c 0,-0.834 -0.3737,-1.631 -1.03277,-2.198 z m 0.15385,3.165 v 10.128 c 0,0.265 -0.26693,0.52 -0.46939,0.707 -0.20138,0.188 -0.476,0.293 -0.76138,0.293 h -21.53847 c -0.28538,0 -0.56,-0.105 -0.76138,-0.293 -0.20246,-0.187 -0.46938,-0.442 -0.46938,-0.707 v -22 c 0,-0.552 0.6363,-1 1.23077,-1 h 7.77 c 0.27138,0 0.53307,0.095 0.7323,0.267 l 13.76846,11.872 c 0.2197,0.19 0.49847,0.455 0.49847,0.733 z m -19,-8.872 z m 8.74784,-3 7.94446,6.85 v -5.85 c 0,-0.265 -0.11307,-0.52 -0.31553,-0.707 -0.20139,-0.188 -0.476,-0.293 -0.76139,-0.293 z m -10.36323,3 h 5.38462 c 0.59446,0 1.07692,-0.448 1.07692,-1 0,-0.552 -0.48246,-1 -1.07692,-1 h -5.38462 c -0.59446,0 -1.07692,0.448 -1.07692,1 0,0.552 0.48246,1 1.07692,1 z"
       id="path1-0-5"
       style="fill:url(#linearGradient1);fill-opacity:1;stroke-width:1.03775"
       sodipodi:nodetypes="cscscccsssscsscssccsscsscssssccscscscccccscscsssssss" />
    <path
       class="cls-1"
       d="m 404.7101,510.08149 c -1.26828,-2.4492 -2.57248,-5.04698 -3.83983,-7.49616 -0.4368,-0.84421 -0.86144,-1.69424 -1.29884,-2.54657 1.31596,-0.60707 2.7102,-0.0426 3.49536,1.42822 0.7573,1.41706 1.47362,2.86172 2.21171,4.29129 0.0899,0.17388 0.20683,0.32989 0.31089,0.49478 0.375,0.36566 0.85598,0.25645 1.25891,0.25425 -0.0794,0.17162 -0.28229,0.0553 -0.35786,0.20953 -0.39153,0.79285 -0.77992,1.5894 -1.21913,2.34968 -0.17233,0.30378 -0.35912,0.79207 -0.56121,1.01498 z"
       id="path1"
       sodipodi:nodetypes="cccccccccc"
       style="fill:url(#linearGradient16);stroke-width:0.0701682" />
    <path
       class="cls-2"
       d="m 406.85024,506.5095 c -0.41745,0.009 -0.88585,0.111 -1.25895,-0.25416 0.81367,-1.56863 1.6162,-3.14464 2.44374,-4.7037 0.75417,-1.42743 1.7175,-1.92081 3.16471,-1.68081 0.12657,0.0212 0.25456,0.0345 0.37169,0.18795 -0.92501,1.80671 -1.85422,3.62131 -2.78762,5.44389 -0.0983,0.12031 -0.14971,0.13508 -0.15777,0.14266 l 0.009,-0.009 c -0.53869,0.43473 -1.08796,0.84268 -1.78374,0.87165 z"
       id="path2"
       sodipodi:nodetypes="ccccccccc"
       style="fill:url(#linearGradient45);stroke-width:0.0701682" />
    <path
       class="cls-3"
       d="m 406.85024,506.5095 c 0.69578,-0.0287 1.24514,-0.43694 1.78386,-0.87175 l 0.14971,-0.13508 c -0.98863,1.94084 -2.15875,4.23397 -3.21236,6.29533 l -0.86135,-1.71651 v 0 l 1.72269,-3.34386 c 0.0737,-0.15232 0.26511,-0.22298 0.41745,-0.22813 z"
       id="path3-8"
       sodipodi:nodetypes="cccccccc"
       style="fill:url(#linearGradient18);fill-opacity:1;stroke-width:0.0701682" />
  </g>
</svg>
