<?xml version="1.0" encoding="UTF-8" standalone="no"?>
<svg
   width="36"
   version="1.1"
   height="36"
   id="svg15"
   sodipodi:docname="folder-crash.svg"
   inkscape:version="1.3.1 (91b66b0783, 2023-11-16)"
   xmlns:inkscape="http://www.inkscape.org/namespaces/inkscape"
   xmlns:sodipodi="http://sodipodi.sourceforge.net/DTD/sodipodi-0.dtd"
   xmlns:xlink="http://www.w3.org/1999/xlink"
   xmlns="http://www.w3.org/2000/svg"
   xmlns:svg="http://www.w3.org/2000/svg"
   xmlns:rdf="http://www.w3.org/1999/02/22-rdf-syntax-ns#"
   xmlns:cc="http://creativecommons.org/ns#"
   xmlns:dc="http://purl.org/dc/elements/1.1/">
  <sodipodi:namedview
     pagecolor="#ffffff"
     bordercolor="#666666"
     borderopacity="1"
     objecttolerance="10"
     gridtolerance="10"
     guidetolerance="10"
     inkscape:pageopacity="0"
     inkscape:pageshadow="2"
     inkscape:window-width="1920"
     inkscape:window-height="994"
     id="namedview17"
     showgrid="true"
     inkscape:zoom="4.90625"
     inkscape:cx="32.917197"
     inkscape:cy="56.56051"
     inkscape:window-x="0"
     inkscape:window-y="0"
     inkscape:window-maximized="1"
     inkscape:current-layer="layer1"
     inkscape:document-rotation="0"
     inkscape:showpageshadow="2"
     inkscape:pagecheckerboard="0"
     inkscape:deskcolor="#d1d1d1">
    <inkscape:grid
       type="xygrid"
       id="grid1384"
       originx="0"
       originy="0"
       spacingy="1"
       spacingx="1"
       units="px"
       visible="true" />
  </sodipodi:namedview>
  <defs
     id="defs5455">
    <linearGradient
       inkscape:collect="always"
       id="linearGradient2">
      <stop
         style="stop-color:#ff5555;stop-opacity:1"
         offset="0"
         id="stop1" />
      <stop
         style="stop-color:#c83771;stop-opacity:1"
         offset="0.57311165"
         id="stop3" />
      <stop
         style="stop-color:#de8787;stop-opacity:1"
         offset="1"
         id="stop2" />
    </linearGradient>
    <clipPath
       clipPathUnits="userSpaceOnUse"
       id="clipPath79425-9-5-3">
      <rect
         style="opacity:0.5;fill:#000000;fill-opacity:1;stroke:none;stroke-width:0.855869;stroke-dasharray:none;stroke-opacity:1;paint-order:stroke fill markers"
         id="rect79427-1-9-6"
         width="26.417742"
         height="29.037542"
         x="-16.227774"
         y="-6.4845476" />
    </clipPath>
    <clipPath
       clipPathUnits="userSpaceOnUse"
       id="clipPath79425-9-5-5">
      <rect
         style="opacity:0.5;fill:#000000;fill-opacity:1;stroke:none;stroke-width:0.855869;stroke-dasharray:none;stroke-opacity:1;paint-order:stroke fill markers"
         id="rect79427-1-9-62"
         width="26.417742"
         height="29.037542"
         x="-16.227774"
         y="-6.4845476" />
    </clipPath>
    <linearGradient
       inkscape:collect="always"
       xlink:href="#linearGradient2"
       id="linearGradient6"
       x1="420.57095"
       y1="523.79797"
       x2="438.57095"
       y2="523.79797"
       gradientUnits="userSpaceOnUse"
       gradientTransform="matrix(0.66666665,0,0,0.66666665,119.19082,156.59936)" />
    <linearGradient
       inkscape:collect="always"
       xlink:href="#linearGradient2"
       id="linearGradient7"
       x1="424.92825"
       y1="520.34058"
       x2="427.17819"
       y2="520.34058"
       gradientUnits="userSpaceOnUse"
       gradientTransform="matrix(0.66666665,0,0,0.66666665,119.19082,156.59936)" />
    <linearGradient
       inkscape:collect="always"
       xlink:href="#linearGradient2"
       id="linearGradient8"
       x1="428.34158"
       y1="522.57117"
       x2="430.59152"
       y2="522.57117"
       gradientUnits="userSpaceOnUse"
       gradientTransform="matrix(0.66666665,0,0,0.66666665,119.19082,156.59936)" />
    <linearGradient
       inkscape:collect="always"
       xlink:href="#linearGradient2"
       id="linearGradient10"
       x1="424.64737"
       y1="527.09021"
       x2="426.89731"
       y2="527.09021"
       gradientUnits="userSpaceOnUse"
       gradientTransform="matrix(0.66666665,0,0,0.66666665,119.19082,156.59936)" />
    <linearGradient
       inkscape:collect="always"
       xlink:href="#linearGradient2"
       id="linearGradient11"
       x1="432.03561"
       y1="527.09021"
       x2="434.28555"
       y2="527.09021"
       gradientUnits="userSpaceOnUse"
       gradientTransform="matrix(0.66666665,0,0,0.66666665,119.19082,156.59936)" />
    <linearGradient
       inkscape:collect="always"
       xlink:href="#linearGradient2"
       id="linearGradient12"
       x1="427.04764"
       y1="525.89075"
       x2="429.29758"
       y2="525.89075"
       gradientUnits="userSpaceOnUse"
       gradientTransform="matrix(0.66666665,0,0,0.66666665,119.19082,156.59936)" />
    <linearGradient
       inkscape:collect="always"
       xlink:href="#linearGradient2"
       id="linearGradient13"
       x1="429.63568"
       y1="525.89075"
       x2="431.88562"
       y2="525.89075"
       gradientUnits="userSpaceOnUse"
       gradientTransform="matrix(0.66666665,0,0,0.66666665,119.19082,156.59936)" />
    <linearGradient
       inkscape:collect="always"
       xlink:href="#linearGradient2"
       id="linearGradient14"
       x1="431.67844"
       y1="520.34058"
       x2="433.92838"
       y2="520.34058"
       gradientUnits="userSpaceOnUse"
       gradientTransform="matrix(0.66666665,0,0,0.66666665,119.19082,156.59936)" />
    <linearGradient
       inkscape:collect="always"
       xlink:href="#linearGradient2"
       id="linearGradient17-5"
       x1="392.57144"
       y1="536.79797"
       x2="444.57144"
       y2="507.798"
       gradientUnits="userSpaceOnUse"
       gradientTransform="matrix(0.4937764,0,0,0.86206901,196.23515,51.474265)" />
    <linearGradient
       inkscape:collect="always"
       xlink:href="#linearGradient2"
       id="linearGradient2-8"
       gradientUnits="userSpaceOnUse"
       x1="147"
       y1="462"
       x2="173"
       y2="434"
       gradientTransform="matrix(1.0769231,0,0,1,230.26373,53.798)" />
  </defs>
  <metadata
     id="metadata5458">
    <rdf:RDF>
      <cc:Work
         rdf:about="">
        <dc:format>image/svg+xml</dc:format>
        <dc:type
           rdf:resource="http://purl.org/dc/dcmitype/StillImage" />
      </cc:Work>
    </rdf:RDF>
  </metadata>
  <g
     inkscape:label="Capa 1"
     inkscape:groupmode="layer"
     id="layer1"
     transform="translate(-384.57143,-483.798)">
    <path
       fill-rule="evenodd"
       clip-rule="evenodd"
       d="m 409.85752,511.798 h -6.42894 c -0.23634,0 -0.42815,-0.19231 -0.42815,-0.42864 0,-0.23676 0.19181,-0.42876 0.42815,-0.42876 h 6.42894 c 0.47342,0 0.85724,-0.38375 0.85724,-0.85709 v -8.57138 c 0,-0.47346 -0.38382,-0.85698 -0.85724,-0.85698 h -8.5716 c -0.47318,0 -0.8572,0.38352 -0.8572,0.85698 v 8.14287 c 0,0.2368 -0.19177,0.42851 -0.42858,0.42851 -0.23647,0 -0.42871,-0.19171 -0.42871,-0.42851 v -8.14287 c 0,-0.94673 0.76783,-1.71413 1.71449,-1.71413 h 8.5716 c 0.94651,0 1.71391,0.7674 1.71391,1.71413 v 8.57138 c 0,0.94674 -0.7674,1.71449 -1.71391,1.71449 z m -8.14292,-0.8574 c 0.23634,0 0.42865,0.192 0.42865,0.42876 0,0.23633 -0.19231,0.42864 -0.42865,0.42864 -0.23697,0 -0.42868,-0.19231 -0.42868,-0.42864 0,-0.23676 0.19171,-0.42876 0.42868,-0.42876 z"
       id="path2-0-1-4"
       style="fill:url(#linearGradient6);fill-opacity:1;stroke-width:0.0267863" />
    <rect
       x="402.4765"
       y="502.74323"
       width="1.4999557"
       height="1.4999591"
       id="rect6-6-2-5"
       style="fill:url(#linearGradient7);fill-opacity:1;stroke-width:0.126685" />
    <rect
       x="404.75174"
       y="504.23004"
       width="1.4999557"
       height="1.4999591"
       id="rect8-3-7-0"
       style="fill:url(#linearGradient8);fill-opacity:1;stroke-width:0.126685" />
    <rect
       x="402.28931"
       y="507.24271"
       width="1.4999557"
       height="1.4999591"
       id="rect10-2-0-3"
       style="fill:url(#linearGradient10);fill-opacity:1;stroke-width:0.126685" />
    <rect
       x="407.21478"
       y="507.24271"
       width="1.4999557"
       height="1.4999591"
       id="rect12-0-9-6"
       style="fill:url(#linearGradient11);fill-opacity:1;stroke-width:0.126685" />
    <rect
       x="403.8894"
       y="506.44287"
       width="1.4999557"
       height="1.4999591"
       id="rect14-6-3-1"
       style="fill:url(#linearGradient12);fill-opacity:1;stroke-width:0.126685" />
    <rect
       x="405.61487"
       y="506.44287"
       width="1.4999557"
       height="1.4999591"
       id="rect16-1-6-0"
       style="fill:url(#linearGradient13);fill-opacity:1;stroke-width:0.126685" />
    <rect
       x="406.97662"
       y="502.74323"
       width="1.4999557"
       height="1.4999591"
       id="rect18-5-0-6"
       style="fill:url(#linearGradient14);fill-opacity:1;stroke-width:0.126685" />
    <path
       inkscape:connector-curvature="0"
       id="fill-3-9"
       d="m 390.57142,490.43808 2e-5,22.71983 c -0.0461,0.49262 -0.11376,0.78207 -0.318,1.07328 l 24.51303,-10e-6 c 0.62105,0 0.98756,-0.17715 0.98756,-1.71864 v -8.28136 l -2,-4 v -7 -2 c 0,-0.57519 -1.22689,-2 -2,-2 h -20.19948 c -0.48934,0 -0.98311,0 -0.98313,1.2069 z"
       style="color:#1e92ff;opacity:0.4;fill:url(#linearGradient17-5);fill-opacity:0.4;fill-rule:nonzero;stroke:none;stroke-width:5.29537"
       sodipodi:nodetypes="cccccccccccc" />
    <path
       d="m 414.41758,499.505 v -7.707 c 0,-0.796 -0.34031,-1.559 -0.94662,-2.121 -0.60523,-0.563 -1.42692,-0.879 -2.28415,-0.879 h -9.15385 v 0.028 L 401.7702,488.6 c -0.5977,-0.516 -1.38277,-0.802 -2.198,-0.802 h -7.77001 c -1.78446,0 -3.23076,1.343 -3.23076,3 v 22 c 0,0.796 0.3403,1.559 0.94661,2.121 0.60523,0.563 1.42692,0.879 2.28415,0.879 h 21.53847 c 0.85723,0 1.67892,-0.316 2.28415,-0.879 0.60631,-0.562 0.94662,-1.325 0.94662,-2.121 V 502.67 c 0,-0.834 -0.3737,-1.631 -1.03277,-2.198 z m 0.15385,3.165 v 10.128 c 0,0.265 -0.26693,0.52 -0.46939,0.707 -0.20138,0.188 -0.476,0.293 -0.76138,0.293 h -21.53847 c -0.28538,0 -0.56,-0.105 -0.76138,-0.293 -0.20246,-0.187 -0.46938,-0.442 -0.46938,-0.707 v -22 c 0,-0.552 0.6363,-1 1.23077,-1 h 7.77 c 0.27138,0 0.53307,0.095 0.7323,0.267 l 13.76846,11.872 c 0.2197,0.19 0.49847,0.455 0.49847,0.733 z m -19,-8.872 z m 8.74784,-3 7.94446,6.85 v -5.85 c 0,-0.265 -0.11307,-0.52 -0.31553,-0.707 -0.20139,-0.188 -0.476,-0.293 -0.76139,-0.293 z m -10.36323,3 h 5.38462 c 0.59446,0 1.07692,-0.448 1.07692,-1 0,-0.552 -0.48246,-1 -1.07692,-1 h -5.38462 c -0.59446,0 -1.07692,0.448 -1.07692,1 0,0.552 0.48246,1 1.07692,1 z"
       id="path1-0-1"
       style="fill:url(#linearGradient2-8);stroke-width:1.03775"
       sodipodi:nodetypes="cscscccsssscsscssccsscsscssssccscscscccccscscsssssss" />
  </g>
</svg>
