<?xml version="1.0" encoding="UTF-8" standalone="no"?>
<svg
   width="36"
   version="1.1"
   height="36"
   id="svg17"
   sodipodi:docname="folder-Arch.svg"
   inkscape:version="1.3.1 (91b66b0783, 2023-11-16)"
   xmlns:inkscape="http://www.inkscape.org/namespaces/inkscape"
   xmlns:sodipodi="http://sodipodi.sourceforge.net/DTD/sodipodi-0.dtd"
   xmlns:xlink="http://www.w3.org/1999/xlink"
   xmlns="http://www.w3.org/2000/svg"
   xmlns:svg="http://www.w3.org/2000/svg"
   xmlns:rdf="http://www.w3.org/1999/02/22-rdf-syntax-ns#"
   xmlns:cc="http://creativecommons.org/ns#"
   xmlns:dc="http://purl.org/dc/elements/1.1/">
  <sodipodi:namedview
     pagecolor="#ffffff"
     bordercolor="#666666"
     borderopacity="1"
     objecttolerance="10"
     gridtolerance="10"
     guidetolerance="10"
     inkscape:pageopacity="0"
     inkscape:pageshadow="2"
     inkscape:window-width="1920"
     inkscape:window-height="994"
     id="namedview19"
     showgrid="true"
     inkscape:zoom="11.256496"
     inkscape:cx="-0.75511953"
     inkscape:cy="17.456587"
     inkscape:window-x="0"
     inkscape:window-y="0"
     inkscape:window-maximized="1"
     inkscape:current-layer="layer1"
     inkscape:document-rotation="0"
     inkscape:lockguides="false"
     inkscape:showpageshadow="2"
     inkscape:pagecheckerboard="0"
     inkscape:deskcolor="#d1d1d1">
    <inkscape:grid
       type="xygrid"
       id="grid844"
       originx="0"
       originy="0"
       spacingy="1"
       spacingx="1"
       units="px"
       visible="true" />
  </sodipodi:namedview>
  <defs
     id="defs5455">
    <linearGradient
       id="linearGradient3"
       inkscape:collect="always">
      <stop
         style="stop-color:#66e0ff;stop-opacity:1;"
         offset="0"
         id="stop1" />
      <stop
         style="stop-color:#2a7fff;stop-opacity:1"
         offset="0.31127694"
         id="stop3" />
      <stop
         style="stop-color:#297eff;stop-opacity:1;"
         offset="1"
         id="stop2" />
    </linearGradient>
    <clipPath
       clipPathUnits="userSpaceOnUse"
       id="clipPath79425-9-5-3">
      <rect
         style="opacity:0.5;fill:#000000;fill-opacity:1;stroke:none;stroke-width:0.855869;stroke-dasharray:none;stroke-opacity:1;paint-order:stroke fill markers"
         id="rect79427-1-9-6"
         width="26.417742"
         height="29.037542"
         x="-16.227774"
         y="-6.4845476" />
    </clipPath>
    <clipPath
       clipPathUnits="userSpaceOnUse"
       id="clipPath79425-9-5-5">
      <rect
         style="opacity:0.5;fill:#000000;fill-opacity:1;stroke:none;stroke-width:0.855869;stroke-dasharray:none;stroke-opacity:1;paint-order:stroke fill markers"
         id="rect79427-1-9-62"
         width="26.417742"
         height="29.037542"
         x="-16.227774"
         y="-6.4845476" />
    </clipPath>
    <linearGradient
       inkscape:collect="always"
       xlink:href="#linearGradient1-2"
       id="linearGradient1"
       gradientUnits="userSpaceOnUse"
       gradientTransform="matrix(0.66691222,0,0,0.66666701,117.75349,155.93249)"
       x1="422.64246"
       y1="532.96173"
       x2="439.57144"
       y2="516.79797" />
    <linearGradient
       id="linearGradient1-2"
       inkscape:collect="always">
      <stop
         style="stop-color:#00ccff;stop-opacity:1"
         offset="0"
         id="stop7" />
      <stop
         style="stop-color:#2a7fff;stop-opacity:1"
         offset="1"
         id="stop8" />
    </linearGradient>
    <linearGradient
       inkscape:collect="always"
       xlink:href="#linearGradient3"
       id="linearGradient17"
       x1="392.57144"
       y1="536.79797"
       x2="444.57144"
       y2="507.798"
       gradientUnits="userSpaceOnUse"
       gradientTransform="matrix(0.4937764,0,0,0.86206901,196.23515,51.474265)" />
    <linearGradient
       id="linearGradient11"
       gradientUnits="userSpaceOnUse"
       x1="263.62869"
       y1="307.53531"
       x2="332.10181"
       y2="188.9364"
       gradientTransform="matrix(0.05523338,0,0,0.05561788,391.26309,495.13116)">
      <stop
         offset="0.0534"
         style="stop-color:#FFDD8B"
         id="stop7-0" />
      <stop
         offset="0.3102"
         style="stop-color:#EC95FF"
         id="stop8-4" />
      <stop
         offset="0.6029"
         style="stop-color:#B15DFF"
         id="stop9" />
      <stop
         offset="0.7091"
         style="stop-color:#9D49FF"
         id="stop10" />
      <stop
         offset="0.99599999"
         style="stop-color:#ab7aff;stop-opacity:1;"
         id="stop11" />
    </linearGradient>
    <linearGradient
       inkscape:collect="always"
       xlink:href="#linearGradient1-2"
       id="linearGradient2"
       gradientUnits="userSpaceOnUse"
       x1="147"
       y1="462"
       x2="173"
       y2="434"
       gradientTransform="matrix(1.0769231,0,0,1,230.26373,53.798)" />
  </defs>
  <metadata
     id="metadata5458">
    <rdf:RDF>
      <cc:Work
         rdf:about="">
        <dc:format>image/svg+xml</dc:format>
        <dc:type
           rdf:resource="http://purl.org/dc/dcmitype/StillImage" />
      </cc:Work>
    </rdf:RDF>
  </metadata>
  <g
     inkscape:label="Capa 1"
     inkscape:groupmode="layer"
     id="layer1"
     transform="translate(-384.57143,-483.798)">
    <path
       d="m 399.94657,511.798 c -0.096,0 -0.1911,-0.0375 -0.26313,-0.10799 -0.12005,-0.11806 -0.14652,-0.30195 -0.0652,-0.44941 2.10173,-3.77401 3.32522,-6.0666 4.09196,-7.6656 0.0292,-0.0608 0.0734,-0.111 0.12699,-0.14796 -0.008,-0.0652 0.008,-0.13044 0.0335,-0.192 0.43063,-0.9196 0.70176,-1.59309 1.04537,-2.4451 l 0.30713,-0.75854 c 0.0568,-0.13996 0.19305,-0.23188 0.34414,-0.2334 0.16503,0.01 0.28857,0.0888 0.34812,0.22799 l 0.29259,0.68941 c 0.82479,1.94908 1.27897,3.02308 3.97498,8.0376 0.0637,0.11796 0.0574,0.25845 -0.01,0.36959 0.01,0.009 0.015,0.012 0.0209,0.0176 0.0965,0.0784 0.18808,0.15346 0.27913,0.22347 0.0418,0.0315 0.0758,0.0727 0.10052,0.11853 l 0.95239,1.7609 c 0.0796,0.14751 0.0531,0.33057 -0.0677,0.44751 -0.12103,0.11753 -0.30405,0.14011 -0.44917,0.0555 -1.86615,-1.07703 -3.1481,-1.632 -4.28701,-1.85454 -0.0991,-0.0189 -0.18661,-0.0777 -0.24161,-0.16243 -0.0548,-0.0846 -0.0746,-0.18805 -0.0531,-0.28651 0.0375,-0.16703 0.0579,-0.34949 0.0637,-0.54203 0.0248,-1.01049 -0.44471,-1.75649 -0.88036,-1.79303 -0.13653,-0.0151 -0.26661,0.0419 -0.39517,0.156 -0.30904,0.27654 -0.51014,0.82854 -0.52566,1.44054 l -0.002,0.0537 c -0.003,0.22605 0.0225,0.45204 0.0747,0.672 0.0225,0.0996 0.007,0.20459 -0.0515,0.29004 -0.0556,0.0858 -0.14455,0.14507 -0.24461,0.16353 -1.15441,0.21802 -2.4514,0.77499 -4.33757,1.86305 -0.0576,0.0339 -0.12309,0.0513 -0.18708,0.0513 z m 7.27813,-2.56296 c 0.87529,0.21396 1.83457,0.60396 3.03562,1.23792 l -0.3052,-0.56495 c -0.0753,-0.0592 -0.15157,-0.12153 -0.22998,-0.186 -0.39075,-0.31801 -0.83332,-0.67801 -1.59059,-1.06649 -0.17022,-0.0878 -0.24766,-0.28856 -0.17908,-0.46757 0.0677,-0.1785 0.26064,-0.27643 0.44463,-0.22936 0.21463,0.0555 0.41623,0.11537 0.60417,0.17942 -2.19778,-4.11753 -2.70602,-5.29006 -3.42373,-6.98553 -0.29202,0.72452 -0.55416,1.37011 -0.9203,2.16656 0.29504,0.30191 0.6643,0.64596 1.21087,1.02792 0.15666,0.10958 0.20613,0.31958 0.11465,0.48758 -0.0914,0.16741 -0.29411,0.23941 -0.47227,0.16642 -0.52058,-0.21396 -0.95841,-0.44242 -1.32488,-0.69156 -0.69231,1.40864 -1.70912,3.31708 -3.27825,6.15156 1.209,-0.63544 2.17573,-1.02501 3.06056,-1.23637 -0.0188,-0.15811 -0.0293,-0.31707 -0.0277,-0.47611 0,-0.003 0,-0.006 0,-0.01 l 0.002,-0.0568 c 0.0207,-0.82352 0.31062,-1.56402 0.77477,-1.98 0.28457,-0.25501 0.61667,-0.374 0.95879,-0.34501 0.91137,0.0771 1.60014,1.20051 1.56765,2.55901 -0.006,0.10852 -0.01,0.2135 -0.0211,0.316 z"
       id="path2-3"
       style="opacity:1;fill:url(#linearGradient1);fill-opacity:1;stroke-width:0.500085" />
    <g
       transform="matrix(1.0769231,0,0,1,230.26373,53.798)"
       id="g2" />
    <path
       inkscape:connector-curvature="0"
       id="fill-3"
       d="m 390.57142,490.43808 2e-5,22.71983 c -0.0461,0.49262 -0.11376,0.78207 -0.318,1.07328 l 24.51303,-10e-6 c 0.62105,0 0.98756,-0.17715 0.98756,-1.71864 v -8.28136 l -2,-4 v -7 -2 c 0,-0.57519 -1.22689,-2 -2,-2 h -20.19948 c -0.48934,0 -0.98311,0 -0.98313,1.2069 z"
       style="color:#1e92ff;opacity:0.6;fill:url(#linearGradient17);fill-opacity:0.4;fill-rule:nonzero;stroke:none;stroke-width:5.29537"
       sodipodi:nodetypes="cccccccccccc" />
    <path
       d="m 414.41758,499.505 v -7.707 c 0,-0.796 -0.34031,-1.559 -0.94662,-2.121 -0.60523,-0.563 -1.42692,-0.879 -2.28415,-0.879 h -9.15385 v 0.028 L 401.7702,488.6 c -0.5977,-0.516 -1.38277,-0.802 -2.198,-0.802 h -7.77001 c -1.78446,0 -3.23076,1.343 -3.23076,3 v 22 c 0,0.796 0.3403,1.559 0.94661,2.121 0.60523,0.563 1.42692,0.879 2.28415,0.879 h 21.53847 c 0.85723,0 1.67892,-0.316 2.28415,-0.879 0.60631,-0.562 0.94662,-1.325 0.94662,-2.121 V 502.67 c 0,-0.834 -0.3737,-1.631 -1.03277,-2.198 z m 0.15385,3.165 v 10.128 c 0,0.265 -0.26693,0.52 -0.46939,0.707 -0.20138,0.188 -0.476,0.293 -0.76138,0.293 h -21.53847 c -0.28538,0 -0.56,-0.105 -0.76138,-0.293 -0.20246,-0.187 -0.46938,-0.442 -0.46938,-0.707 v -22 c 0,-0.552 0.6363,-1 1.23077,-1 h 7.77 c 0.27138,0 0.53307,0.095 0.7323,0.267 l 13.76846,11.872 c 0.2197,0.19 0.49847,0.455 0.49847,0.733 z m -19,-8.872 z m 8.74784,-3 7.94446,6.85 v -5.85 c 0,-0.265 -0.11307,-0.52 -0.31553,-0.707 -0.20139,-0.188 -0.476,-0.293 -0.76139,-0.293 z m -10.36323,3 h 5.38462 c 0.59446,0 1.07692,-0.448 1.07692,-1 0,-0.552 -0.48246,-1 -1.07692,-1 h -5.38462 c -0.59446,0 -1.07692,0.448 -1.07692,1 0,0.552 0.48246,1 1.07692,1 z"
       id="path1-0-1"
       style="fill:url(#linearGradient2);stroke-width:1.03775"
       sodipodi:nodetypes="cscscccsssscsscssccsscsscssssccscscscccccscscsssssss" />
  </g>
</svg>
