<?xml version="1.0" encoding="UTF-8" standalone="no"?>
<svg
   id="svg4306"
   width="22"
   height="22"
   version="1.1"
   style="enable-background:new"
   sodipodi:docname="close.svg"
   inkscape:version="1.3.2 (091e20ef0f, 2023-11-25)"
   xmlns:inkscape="http://www.inkscape.org/namespaces/inkscape"
   xmlns:sodipodi="http://sodipodi.sourceforge.net/DTD/sodipodi-0.dtd"
   xmlns="http://www.w3.org/2000/svg"
   xmlns:svg="http://www.w3.org/2000/svg"
   xmlns:rdf="http://www.w3.org/1999/02/22-rdf-syntax-ns#"
   xmlns:cc="http://creativecommons.org/ns#"
   xmlns:dc="http://purl.org/dc/elements/1.1/">
  <g
     id="active-center"
     transform="translate(-53.16)">
    <rect
       style="opacity:0.00100002;fill:#050505;fill-opacity:1;stroke-width:1.001;enable-background:new"
       id="rect953-2-7-2-75"
       width="22"
       height="22"
       x="0"
       y="0" />
    <path
       id="path839-3"
       style="opacity:0.01;fill:#2b4254;fill-opacity:0.01;stroke-width:1.25;enable-background:new"
       d="M 11,1 C 5.477256,1 1,5.4771574 1,10.999998 1,16.522837 5.477256,21 11,21 16.52276,21 21,16.522837 21,10.999998 21,5.4771574 16.52276,1 11,1 Z m 0,1.2499999 c 4.83243,0 8.75,3.9174965 8.75,8.7499981 C 19.75,15.832476 15.83243,19.75 11,19.75 6.167556,19.75 2.25,15.832476 2.25,10.999998 2.25,6.1674964 6.167556,2.2499999 11,2.2499999 Z m 0,0 z"
       sodipodi:nodetypes="ssssssssssccccc" />
    <rect
       style="opacity:0.01;fill:#ffffff;fill-opacity:0.01;stroke:none;stroke-width:0.44999"
       id="center-3-35-5"
       width="18"
       height="18"
       x="2"
       y="2"
       ry="8.9999809" />
    <path
       d="m 7.14286,15.500004 c -0.16448,0 -0.32897,-0.06278 -0.45452,-0.188337 -0.25112,-0.251116 -0.25112,-0.657924 0,-0.90904 l 7.71429,-7.7142856 c 0.25112,-0.251116 0.65793,-0.251116 0.90904,0 0.25112,0.251116 0.25112,0.657924 0,0.90904 L 7.59738,15.311667 c -0.12556,0.125558 -0.29004,0.188337 -0.45452,0.188337 z"
       id="path2-6-2-9-9-8-3"
       style="fill:#ffffff;fill-opacity:1;stroke-width:0.642857;enable-background:new" />
    <path
       d="m 14.85715,15.500004 c -0.16448,0 -0.32896,-0.06278 -0.45452,-0.188337 L 6.68834,7.5973814 c -0.25112,-0.251116 -0.25112,-0.657924 0,-0.90904 0.25111,-0.251116 0.65792,-0.251116 0.90904,0 l 7.71429,7.7142856 c 0.25112,0.251116 0.25112,0.657924 0,0.90904 -0.12556,0.125558 -0.29004,0.188337 -0.45452,0.188337 z"
       id="path6-7-9-3-2-9-6"
       style="fill:#ffffff;fill-opacity:1;stroke-width:0.642857;enable-background:new" />
  </g>
  <metadata
     id="metadata40">
    <rdf:RDF>
      <cc:Work
         rdf:about="">
        <dc:format>image/svg+xml</dc:format>
        <dc:type
           rdf:resource="http://purl.org/dc/dcmitype/StillImage" />
      </cc:Work>
    </rdf:RDF>
  </metadata>
  <defs
     id="defs38" />
  <sodipodi:namedview
     inkscape:document-rotation="0"
     pagecolor="#ffffff"
     bordercolor="#666666"
     borderopacity="1"
     objecttolerance="10"
     gridtolerance="10"
     guidetolerance="10"
     inkscape:pageopacity="0"
     inkscape:pageshadow="2"
     inkscape:window-width="1920"
     inkscape:window-height="996"
     id="namedview36"
     showgrid="false"
     inkscape:snap-bbox="true"
     inkscape:bbox-nodes="true"
     inkscape:zoom="5.6568545"
     inkscape:cx="-4.7729706"
     inkscape:cy="37.830211"
     inkscape:window-x="0"
     inkscape:window-y="0"
     inkscape:window-maximized="1"
     inkscape:current-layer="svg4306"
     inkscape:lockguides="false"
     showguides="false"
     inkscape:pagecheckerboard="0"
     inkscape:showpageshadow="2"
     inkscape:deskcolor="#d1d1d1">
    <inkscape:grid
       id="grid1"
       units="px"
       originx="0"
       originy="0"
       spacingx="1"
       spacingy="1"
       empcolor="#0099e5"
       empopacity="0.30196078"
       color="#0099e5"
       opacity="0.14901961"
       empspacing="5"
       dotted="false"
       gridanglex="30"
       gridanglez="30"
       visible="false" />
  </sodipodi:namedview>
  <style
     type="text/css"
     id="current-color-scheme" />
  <g
     id="g1546"
     transform="translate(-49.32,-0.16000014)" />
  <g
     id="hover-center"
     transform="translate(-27.16)">
    <rect
       style="opacity:0.00100002;fill:#050505;fill-opacity:1;stroke-width:1.001"
       id="rect953-2-7-2"
       width="22"
       height="22"
       x="0"
       y="0" />
    <rect
       style="fill:#b43164;fill-opacity:1;stroke:none;stroke-width:0.44999;enable-background:new"
       id="center-3-35-5-6"
       width="18"
       height="18"
       x="2"
       y="2"
       ry="8.9999857" />
    <path
       d="m 7.14286,15.500004 c -0.16448,0 -0.32897,-0.06278 -0.45452,-0.188337 -0.25112,-0.251116 -0.25112,-0.657924 0,-0.90904 l 7.71429,-7.7142856 c 0.25112,-0.251116 0.65793,-0.251116 0.90904,0 0.25112,0.251116 0.25112,0.657924 0,0.90904 L 7.59738,15.311667 c -0.12556,0.125558 -0.29004,0.188337 -0.45452,0.188337 z"
       id="path2-6-2-9-9-8-3-7"
       style="fill:#030303;fill-opacity:1;stroke-width:0.642857;enable-background:new" />
    <path
       d="m 14.85715,15.500004 c -0.16448,0 -0.32896,-0.06278 -0.45452,-0.188337 L 6.68834,7.5973814 c -0.25112,-0.251116 -0.25112,-0.657924 0,-0.90904 0.25111,-0.251116 0.65792,-0.251116 0.90904,0 l 7.71429,7.7142856 c 0.25112,0.251116 0.25112,0.657924 0,0.90904 -0.12556,0.125558 -0.29004,0.188337 -0.45452,0.188337 z"
       id="path6-7-9-3-2-9-6-5"
       style="fill:#010101;fill-opacity:1;stroke-width:0.642857;enable-background:new" />
    <path
       id="path839-3-3-1"
       style="fill:#782144;fill-opacity:1;stroke-width:1.25;enable-background:new"
       d="M 11,1.000002 C 5.477256,1.000002 1,5.477159 1,11 1,16.522839 5.477256,21.000002 11,21.000002 16.52276,21.000002 21,16.522839 21,11 21,5.477159 16.52276,1.000002 11,1.000002 Z m 0,1.25 c 4.83243,0 8.75,3.917496 8.75,8.749998 0,4.832478 -3.91757,8.750002 -8.75,8.750002 C 6.167556,19.750002 2.25,15.832478 2.25,11 2.25,6.167498 6.167556,2.250002 11,2.250002 Z m 0,0 z"
       sodipodi:nodetypes="ssssssssssccccc" />
  </g>
  <g
     id="pressed-center">
    <rect
       style="opacity:0.00100002;fill:#050505;fill-opacity:1;stroke-width:1.001"
       id="rect953-2-7-6"
       width="22"
       height="22"
       x="0"
       y="0" />
    <rect
       style="fill:#d35f8d;fill-opacity:1;stroke:none;stroke-width:0.44999;enable-background:new"
       id="center-3-35-5-6-5"
       width="18"
       height="18"
       x="2"
       y="2"
       ry="8.9999847" />
    <path
       d="m 7.14286,15.500004 c -0.16448,0 -0.32897,-0.06278 -0.45452,-0.188337 -0.25112,-0.251116 -0.25112,-0.657924 0,-0.90904 l 7.71429,-7.7142856 c 0.25112,-0.251116 0.65793,-0.251116 0.90904,0 0.25112,0.251116 0.25112,0.657924 0,0.90904 L 7.59738,15.311667 c -0.12556,0.125558 -0.29004,0.188337 -0.45452,0.188337 z"
       id="path2-6-2-9-9-8-3-7-6"
       style="fill:#000000;fill-opacity:1;stroke-width:0.642857;enable-background:new" />
    <path
       d="m 14.85715,15.500004 c -0.16448,0 -0.32896,-0.06278 -0.45452,-0.188337 L 6.68834,7.5973814 c -0.25112,-0.251116 -0.25112,-0.657924 0,-0.90904 0.25111,-0.251116 0.65792,-0.251116 0.90904,0 l 7.71429,7.7142856 c 0.25112,0.251116 0.25112,0.657924 0,0.90904 -0.12556,0.125558 -0.29004,0.188337 -0.45452,0.188337 z"
       id="path6-7-9-3-2-9-6-5-2"
       style="fill:#010101;fill-opacity:1;stroke-width:0.642857;enable-background:new" />
    <path
       id="path839-3-3-3-7"
       style="fill:#a02c5a;fill-opacity:1;stroke-width:1.25;enable-background:new"
       d="M 11,1 C 5.477256,1 1,5.477157 1,10.999998 1,16.522837 5.477256,21 11,21 16.52276,21 21,16.522837 21,10.999998 21,5.477157 16.52276,1 11,1 Z m 0,1.25 c 4.83243,0 8.75,3.917496 8.75,8.749998 C 19.75,15.832473 15.83243,19.75 11,19.75 6.167556,19.75 2.25,15.832473 2.25,10.999998 2.25,6.167496 6.167556,2.25 11,2.25 Z m 0,0 z"
       sodipodi:nodetypes="ssssssssssccccc" />
  </g>
  <g
     id="inactive-center"
     transform="translate(-0.16,-0.16000014)">
    <rect
       style="opacity:0.00100002;fill:#050505;fill-opacity:1;stroke-width:1.001;enable-background:new"
       id="rect953-2-7-2-75-0"
       width="22"
       height="22"
       x="-53"
       y="31.16" />
    <path
       id="path839-3-9"
       style="opacity:0.01;fill:#2b4254;fill-opacity:0.01;stroke-width:1.25;enable-background:new"
       d="m -42,32.16 c -5.522744,0 -10,4.477157 -10,9.999998 0,5.522839 4.477256,10.000002 10,10.000002 5.52276,0 10,-4.477163 10,-10.000002 C -32,36.637157 -36.47724,32.16 -42,32.16 Z m 0,1.25 c 4.83243,0 8.75,3.917496 8.75,8.749998 0,4.832478 -3.91757,8.750002 -8.75,8.750002 -4.832444,0 -8.75,-3.917524 -8.75,-8.750002 0,-4.832502 3.917556,-8.749998 8.75,-8.749998 z m 0,0 z"
       sodipodi:nodetypes="ssssssssssccccc" />
    <rect
       style="opacity:0.01;fill:#ffffff;fill-opacity:0.01;stroke:none;stroke-width:0.44999"
       id="center-3-35-5-63"
       width="18"
       height="18"
       x="-51"
       y="33.16"
       ry="8.9999809" />
    <path
       d="m -45.85714,46.660004 c -0.16448,0 -0.32897,-0.06278 -0.45452,-0.188337 -0.25112,-0.251116 -0.25112,-0.657924 0,-0.90904 l 7.71429,-7.714286 c 0.25112,-0.251116 0.65793,-0.251116 0.90904,0 0.25112,0.251116 0.25112,0.657924 0,0.90904 l -7.71429,7.714286 c -0.12556,0.125558 -0.29004,0.188337 -0.45452,0.188337 z"
       id="path2-6-2-9-9-8-3-8"
       style="fill:#a6a6a6;fill-opacity:1;stroke-width:0.642857;enable-background:new" />
    <path
       d="m -38.14285,46.660004 c -0.16448,0 -0.32896,-0.06278 -0.45452,-0.188337 l -7.71429,-7.714286 c -0.25112,-0.251116 -0.25112,-0.657924 0,-0.90904 0.25111,-0.251116 0.65792,-0.251116 0.90904,0 l 7.71429,7.714286 c 0.25112,0.251116 0.25112,0.657924 0,0.90904 -0.12556,0.125558 -0.29004,0.188337 -0.45452,0.188337 z"
       id="path6-7-9-3-2-9-6-56"
       style="fill:#a6a6a6;fill-opacity:1;stroke-width:0.642857;enable-background:new" />
  </g>
  <g
     id="hover-inactive-center"
     transform="translate(-0.16,-0.16000014)">
    <rect
       style="opacity:0.00100002;fill:#050505;fill-opacity:1;stroke-width:1.001"
       id="rect953-2-7-2-1"
       width="22"
       height="22"
       x="-27"
       y="31.16" />
    <rect
       style="fill:#b43164;fill-opacity:1;stroke:none;stroke-width:0.44999;enable-background:new"
       id="center-3-35-5-6-59"
       width="18"
       height="18"
       x="-25"
       y="33.16"
       ry="8.9999857" />
    <path
       d="m -19.85714,46.660004 c -0.16448,0 -0.32897,-0.06278 -0.45452,-0.188337 -0.25112,-0.251116 -0.25112,-0.657924 0,-0.90904 l 7.71429,-7.714286 c 0.25112,-0.251116 0.65793,-0.251116 0.90904,0 0.25112,0.251116 0.25112,0.657924 0,0.90904 l -7.71429,7.714286 c -0.12556,0.125558 -0.29004,0.188337 -0.45452,0.188337 z"
       id="path2-6-2-9-9-8-3-7-8"
       style="fill:#030303;fill-opacity:1;stroke-width:0.642857;enable-background:new" />
    <path
       d="m -12.14285,46.660004 c -0.16448,0 -0.32896,-0.06278 -0.45452,-0.188337 l -7.71429,-7.714286 c -0.25112,-0.251116 -0.25112,-0.657924 0,-0.90904 0.25111,-0.251116 0.65792,-0.251116 0.90904,0 l 7.71429,7.714286 c 0.25112,0.251116 0.25112,0.657924 0,0.90904 -0.12556,0.125558 -0.29004,0.188337 -0.45452,0.188337 z"
       id="path6-7-9-3-2-9-6-5-4"
       style="fill:#010101;fill-opacity:1;stroke-width:0.642857;enable-background:new" />
    <path
       id="path839-3-3-1-8"
       style="fill:#782144;fill-opacity:1;stroke-width:1.25;enable-background:new"
       d="m -16,32.160002 c -5.522744,0 -10,4.477157 -10,9.999998 0,5.522839 4.477256,10.000002 10,10.000002 5.52276,0 10,-4.477163 10,-10.000002 0,-5.522841 -4.47724,-9.999998 -10,-9.999998 z m 0,1.25 c 4.83243,0 8.75,3.917496 8.75,8.749998 0,4.832478 -3.91757,8.750002 -8.75,8.750002 -4.832444,0 -8.75,-3.917524 -8.75,-8.750002 0,-4.832502 3.917556,-8.749998 8.75,-8.749998 z m 0,0 z"
       sodipodi:nodetypes="ssssssssssccccc" />
  </g>
  <g
     id="pressed-inactive-center"
     transform="translate(-0.16,-0.16000014)">
    <rect
       style="opacity:0.00100002;fill:#050505;fill-opacity:1;stroke-width:1.001"
       id="rect953-2-7-6-0"
       width="22"
       height="22"
       x="0.1600004"
       y="31.16" />
    <rect
       style="fill:#d35f8d;fill-opacity:1;stroke:none;stroke-width:0.44999;enable-background:new"
       id="center-3-35-5-6-5-3"
       width="18"
       height="18"
       x="2.1600003"
       y="33.16"
       ry="8.9999847" />
    <path
       d="m 7.3028604,46.660004 c -0.16448,0 -0.32897,-0.06278 -0.45452,-0.188337 -0.25112,-0.251116 -0.25112,-0.657924 0,-0.90904 L 14.56263,37.848341 c 0.25112,-0.251116 0.65793,-0.251116 0.90904,0 0.25112,0.251116 0.25112,0.657924 0,0.90904 l -7.7142896,7.714286 c -0.12556,0.125558 -0.29004,0.188337 -0.45452,0.188337 z"
       id="path2-6-2-9-9-8-3-7-6-0"
       style="fill:#000000;fill-opacity:1;stroke-width:0.642857;enable-background:new" />
    <path
       d="m 15.01715,46.660004 c -0.16448,0 -0.32896,-0.06278 -0.45452,-0.188337 L 6.8483404,38.757381 c -0.25112,-0.251116 -0.25112,-0.657924 0,-0.90904 0.25111,-0.251116 0.65792,-0.251116 0.90904,0 l 7.7142896,7.714286 c 0.25112,0.251116 0.25112,0.657924 0,0.90904 -0.12556,0.125558 -0.29004,0.188337 -0.45452,0.188337 z"
       id="path6-7-9-3-2-9-6-5-2-4"
       style="fill:#010101;fill-opacity:1;stroke-width:0.642857;enable-background:new" />
    <path
       id="path839-3-3-3-7-4"
       style="fill:#a02c5a;fill-opacity:1;stroke-width:1.25;enable-background:new"
       d="m 11.16,32.16 c -5.5227436,0 -9.9999996,4.477157 -9.9999996,9.999998 0,5.522839 4.477256,10.000002 9.9999996,10.000002 5.52276,0 10,-4.477163 10,-10.000002 0,-5.522841 -4.47724,-9.999998 -10,-9.999998 z m 0,1.25 c 4.83243,0 8.75,3.917496 8.75,8.749998 C 19.91,46.992473 15.99243,50.91 11.16,50.91 6.3275564,50.91 2.4100004,46.992473 2.4100004,42.159998 2.4100004,37.327496 6.3275564,33.41 11.16,33.41 Z m 0,0 z"
       sodipodi:nodetypes="ssssssssssccccc" />
  </g>
  <g
     id="deactivated-center">
    <rect
       style="opacity:0.00100002;fill:#050505;fill-opacity:1;stroke-width:1.001;enable-background:new"
       id="rect953-2-7-2-75-7"
       width="22"
       height="22"
       x="35.972347"
       y="0" />
    <path
       id="path839-3-1"
       style="opacity:0.01;fill:#2b4254;fill-opacity:0.01;stroke-width:1.25;enable-background:new"
       d="m 46.972346,1 c -5.522744,0 -10,4.4771574 -10,9.999998 0,5.522839 4.477256,10.000002 10,10.000002 5.52276,0 10,-4.477163 10,-10.000002 0,-5.5228406 -4.47724,-9.999998 -10,-9.999998 z m 0,1.2499999 c 4.83243,0 8.75,3.9174965 8.75,8.7499981 0,4.832478 -3.91757,8.750002 -8.75,8.750002 -4.832444,0 -8.75,-3.917524 -8.75,-8.750002 0,-4.8325016 3.917556,-8.7499981 8.75,-8.7499981 z m 0,0 z"
       sodipodi:nodetypes="ssssssssssccccc" />
    <rect
       style="opacity:0.01;fill:#ffffff;fill-opacity:0.01;stroke:none;stroke-width:0.44999"
       id="center-3-35-5-7"
       width="18"
       height="18"
       x="37.972347"
       y="2"
       ry="8.9999809" />
    <path
       d="m 43.115206,15.500004 c -0.16448,0 -0.32897,-0.06278 -0.45452,-0.188337 -0.25112,-0.251116 -0.25112,-0.657924 0,-0.90904 l 7.71429,-7.7142856 c 0.25112,-0.251116 0.65793,-0.251116 0.90904,0 0.25112,0.251116 0.25112,0.657924 0,0.90904 l -7.71429,7.7142856 c -0.12556,0.125558 -0.29004,0.188337 -0.45452,0.188337 z"
       id="path2-6-2-9-9-8-3-2"
       style="fill:#ffffff;fill-opacity:0.46;stroke-width:0.642857;enable-background:new" />
    <path
       d="m 50.829496,15.500004 c -0.16448,0 -0.32896,-0.06278 -0.45452,-0.188337 l -7.71429,-7.7142856 c -0.25112,-0.251116 -0.25112,-0.657924 0,-0.90904 0.25111,-0.251116 0.65792,-0.251116 0.90904,0 l 7.71429,7.7142856 c 0.25112,0.251116 0.25112,0.657924 0,0.90904 -0.12556,0.125558 -0.29004,0.188337 -0.45452,0.188337 z"
       id="path6-7-9-3-2-9-6-7"
       style="fill:#ffffff;fill-opacity:0.45;stroke-width:0.642857;enable-background:new" />
  </g>
  <g
     id="deactivated-inactive-center">
    <rect
       style="opacity:0.00100002;fill:#050505;fill-opacity:1;stroke-width:1.001;enable-background:new"
       id="rect953-2-7-2-75-0-2"
       width="22"
       height="22"
       x="35.972347"
       y="31.000004" />
    <path
       id="path839-3-9-6"
       style="opacity:0.01;fill:#2b4254;fill-opacity:0.01;stroke-width:1.25;enable-background:new"
       d="m 46.972346,32.000004 c -5.522744,0 -10,4.477157 -10,9.999998 0,5.522839 4.477256,10.000002 10,10.000002 5.52276,0 10,-4.477163 10,-10.000002 0,-5.522841 -4.47724,-9.999998 -10,-9.999998 z m 0,1.25 c 4.83243,0 8.75,3.917496 8.75,8.749998 0,4.832478 -3.91757,8.750002 -8.75,8.750002 -4.832444,0 -8.75,-3.917524 -8.75,-8.750002 0,-4.832502 3.917556,-8.749998 8.75,-8.749998 z m 0,0 z"
       sodipodi:nodetypes="ssssssssssccccc" />
    <rect
       style="opacity:0.01;fill:#ffffff;fill-opacity:0.01;stroke:none;stroke-width:0.44999"
       id="center-3-35-5-63-1"
       width="18"
       height="18"
       x="37.972347"
       y="33.000004"
       ry="8.9999809" />
    <path
       d="m 43.115206,46.500008 c -0.16448,0 -0.32897,-0.06278 -0.45452,-0.188337 -0.25112,-0.251116 -0.25112,-0.657924 0,-0.90904 l 7.71429,-7.714286 c 0.25112,-0.251116 0.65793,-0.251116 0.90904,0 0.25112,0.251116 0.25112,0.657924 0,0.90904 l -7.71429,7.714286 c -0.12556,0.125558 -0.29004,0.188337 -0.45452,0.188337 z"
       id="path2-6-2-9-9-8-3-8-0"
       style="fill:#a6a6a6;fill-opacity:0.45;stroke-width:0.642857;enable-background:new" />
    <path
       d="m 50.829496,46.500008 c -0.16448,0 -0.32896,-0.06278 -0.45452,-0.188337 l -7.71429,-7.714286 c -0.25112,-0.251116 -0.25112,-0.657924 0,-0.90904 0.25111,-0.251116 0.65792,-0.251116 0.90904,0 l 7.71429,7.714286 c 0.25112,0.251116 0.25112,0.657924 0,0.90904 -0.12556,0.125558 -0.29004,0.188337 -0.45452,0.188337 z"
       id="path6-7-9-3-2-9-6-56-6"
       style="fill:#a6a6a6;fill-opacity:0.45;stroke-width:0.642857;enable-background:new" />
  </g>
</svg>
