<?xml version="1.0" encoding="UTF-8" standalone="no"?>
<svg
   id="svg4306"
   width="22"
   height="22"
   version="1.1"
   style="enable-background:new"
   sodipodi:docname="maximize.svg"
   inkscape:version="1.3.2 (091e20ef0f, 2023-11-25)"
   xmlns:inkscape="http://www.inkscape.org/namespaces/inkscape"
   xmlns:sodipodi="http://sodipodi.sourceforge.net/DTD/sodipodi-0.dtd"
   xmlns="http://www.w3.org/2000/svg"
   xmlns:svg="http://www.w3.org/2000/svg"
   xmlns:rdf="http://www.w3.org/1999/02/22-rdf-syntax-ns#"
   xmlns:cc="http://creativecommons.org/ns#"
   xmlns:dc="http://purl.org/dc/elements/1.1/">
  <metadata
     id="metadata28">
    <rdf:RDF>
      <cc:Work
         rdf:about="">
        <dc:format>image/svg+xml</dc:format>
        <dc:type
           rdf:resource="http://purl.org/dc/dcmitype/StillImage" />
      </cc:Work>
    </rdf:RDF>
  </metadata>
  <defs
     id="defs26" />
  <sodipodi:namedview
     inkscape:document-rotation="0"
     pagecolor="#ffffff"
     bordercolor="#000000"
     borderopacity="1"
     objecttolerance="10"
     gridtolerance="10"
     guidetolerance="10"
     inkscape:pageopacity="0"
     inkscape:pageshadow="2"
     inkscape:window-width="1920"
     inkscape:window-height="996"
     id="namedview24"
     showgrid="false"
     inkscape:zoom="5.6568545"
     inkscape:cx="12.904698"
     inkscape:cy="34.471454"
     inkscape:window-x="0"
     inkscape:window-y="0"
     inkscape:window-maximized="1"
     inkscape:current-layer="svg4306"
     inkscape:snap-bbox="true"
     inkscape:bbox-nodes="true"
     inkscape:lockguides="true"
     inkscape:pagecheckerboard="0"
     inkscape:showpageshadow="2"
     inkscape:deskcolor="#cccccc">
    <inkscape:grid
       id="grid1"
       units="px"
       originx="0"
       originy="0"
       spacingx="1"
       spacingy="1"
       empcolor="#0099e5"
       empopacity="0.30196078"
       color="#0099e5"
       opacity="0.14901961"
       empspacing="5"
       dotted="false"
       gridanglex="30"
       gridanglez="30"
       visible="false" />
  </sodipodi:namedview>
  <style
     type="text/css"
     id="current-color-scheme" />
  <g
     id="active-center"
     transform="translate(-53.360001)">
    <rect
       id="rect4266"
       width="22"
       height="22"
       x="0"
       y="0"
       style="opacity:0.00100002;fill:#000000;fill-opacity:1;fill-rule:nonzero;stroke:none;stroke-width:2;stroke-linecap:round;stroke-linejoin:round;stroke-miterlimit:4;stroke-dasharray:none;stroke-opacity:1" />
    <path
       id="path839-3"
       style="opacity:0.01;fill:#2b4254;fill-opacity:0.01;stroke-width:1.125;enable-background:new"
       d="M 11.000001,2 C 6.02953,2 2,6.029441 2,10.999998 2,15.970557 6.02953,20 11.000001,20 c 4.97048,0 9,-4.029443 9,-9.000002 0,-4.970557 -4.02952,-8.999998 -9,-8.999998 z m 0,1.125 c 4.34919,0 7.875,3.525746 7.875,7.874998 0,4.349234 -3.52581,7.875002 -7.875,7.875002 C 6.6508,18.875 3.125,15.349232 3.125,10.999998 3.125,6.650746 6.6508,3.125 11.000001,3.125 Z m 0,0 z"
       sodipodi:nodetypes="ssssssssssccccc" />
    <rect
       style="opacity:0.01;fill:#4e5a7e;fill-opacity:0.01;stroke:none;stroke-width:0.39374;enable-background:new"
       id="center-3-35-5"
       width="15.749992"
       height="15.749992"
       x="3.1250017"
       y="3.1250014"
       ry="7.8749838" />
    <path
       d="M 16.324043,13.781467 A 0.42633487,0.42633487 0 0 1 16.022768,13.656408 L 10.994855,8.6285027 5.966947,13.656408 A 0.42633487,0.42633487 0 0 1 5.3643946,13.053858 L 10.693586,7.7246774 a 0.42633487,0.42633487 0 0 1 0.602542,0 l 5.329191,5.3291806 a 0.42633487,0.42633487 0 0 1 -0.301276,0.727609 z"
       id="path4-3-1-3"
       style="fill:#ffffff;fill-opacity:1;stroke-width:0.142105;enable-background:new" />
  </g>
  <g
     id="pressed-center">
    <rect
       id="rect4266-3-6"
       width="22"
       height="22"
       x="0"
       y="0"
       style="opacity:0.00100002;fill:#000000;fill-opacity:1;fill-rule:nonzero;stroke:none;stroke-width:2;stroke-linecap:round;stroke-linejoin:round;stroke-miterlimit:4;stroke-dasharray:none;stroke-opacity:1" />
    <rect
       style="fill:#00e5ad;fill-opacity:1;stroke:none;stroke-width:0.44999;enable-background:new"
       id="center-3-35-5-5"
       width="18"
       height="18"
       x="2"
       y="2"
       ry="8.9999847" />
    <path
       d="M 16.324042,13.793847 A 0.4263359,0.42718847 0 0 1 16.022763,13.668533 L 10.994838,8.6305634 5.9669195,13.668533 A 0.4263359,0.42718847 0 0 1 5.3643654,13.064781 L 10.693569,7.7249288 a 0.4263359,0.42718847 0 0 1 0.602547,0 l 5.329203,5.3398522 a 0.4263359,0.42718847 0 0 1 -0.301277,0.729066 z"
       id="path4-3-1-3-6"
       style="fill:#020202;fill-opacity:1;stroke-width:0.142247;enable-background:new" />
    <path
       id="path839-3-3-9"
       style="fill:#009971;fill-opacity:1;stroke-width:1.25;enable-background:new"
       d="M 11,1 C 5.477255,1 0.999999,5.477157 0.999999,10.999998 0.999999,16.522837 5.477255,21 11,21 16.52276,21 21,16.522837 21,10.999998 21,5.477157 16.52276,1 11,1 Z m 0,1.25 c 4.83243,0 8.75,3.917496 8.75,8.749998 C 19.75,15.832474 15.83243,19.75 11,19.75 6.167555,19.75 2.249999,15.832474 2.249999,10.999998 2.249999,6.167496 6.167555,2.25 11,2.25 Z m 0,0 z"
       sodipodi:nodetypes="ssssssssssccccc" />
  </g>
  <g
     id="hover-center"
     transform="translate(-27.360001)">
    <rect
       style="opacity:0.00100002;fill:#000000;fill-opacity:1;fill-rule:nonzero;stroke:none;stroke-width:2;stroke-linecap:round;stroke-linejoin:round;stroke-miterlimit:4;stroke-dasharray:none;stroke-opacity:1"
       y="0"
       x="0"
       height="22"
       width="22"
       id="rect4266-3" />
    <rect
       style="fill:#00cc98;fill-opacity:1;stroke:none;stroke-width:0.44999;enable-background:new"
       id="center-3-35-5-7"
       width="18"
       height="18"
       x="2"
       y="2"
       ry="8.9999838" />
    <path
       d="M 16.324039,13.781483 A 0.42633578,0.42633578 0 0 1 16.022761,13.656418 L 10.994838,8.6285055 5.9669207,13.656418 A 0.42633578,0.42633578 0 0 1 5.3643667,13.053871 L 10.693569,7.7246786 a 0.42633578,0.42633578 0 0 1 0.602545,0 l 5.329202,5.3291924 a 0.42633578,0.42633578 0 0 1 -0.301277,0.727612 z"
       id="path4-3-1-3-5"
       style="fill:#010101;fill-opacity:1;stroke-width:0.142105;enable-background:new" />
    <path
       id="path839-3-6-1"
       style="mix-blend-mode:normal;fill:#00805f;fill-opacity:1;stroke-width:1.25;enable-background:new"
       d="M 11,1 C 5.477255,1 0.999999,5.477157 0.999999,10.999998 0.999999,16.522837 5.477255,21 11,21 16.52276,21 21,16.522837 21,10.999998 21,5.477157 16.52276,1 11,1 Z m 0,1.25 c 4.83243,0 8.75,3.917496 8.75,8.749998 C 19.75,15.832476 15.83243,19.75 11,19.75 6.167555,19.75 2.249999,15.832476 2.249999,10.999998 2.249999,6.167496 6.167555,2.25 11,2.25 Z m 0,0 z"
       sodipodi:nodetypes="ssssssssssccccc" />
  </g>
  <g
     id="inactive-center"
     transform="translate(-27.360001,-0.16000006)">
    <rect
       id="rect4266-31"
       width="22"
       height="22"
       x="-26"
       y="27.16"
       style="opacity:0.00100002;fill:#000000;fill-opacity:1;fill-rule:nonzero;stroke:none;stroke-width:2;stroke-linecap:round;stroke-linejoin:round;stroke-miterlimit:4;stroke-dasharray:none;stroke-opacity:1" />
    <path
       id="path839-3-8"
       style="opacity:0.01;fill:#2b4254;fill-opacity:0.01;stroke-width:1.125;enable-background:new"
       d="M -14.999999,29.16 C -19.97047,29.16 -24,33.189441 -24,38.159998 c 0,4.970559 4.02953,9.000002 9.000001,9.000002 4.97048,0 9,-4.029443 9,-9.000002 0,-4.970557 -4.02952,-8.999998 -9,-8.999998 z m 0,1.125 c 4.34919,0 7.875,3.525746 7.875,7.874998 0,4.349234 -3.52581,7.875002 -7.875,7.875002 -4.349201,0 -7.875001,-3.525768 -7.875001,-7.875002 0,-4.349252 3.5258,-7.874998 7.875001,-7.874998 z m 0,0 z"
       sodipodi:nodetypes="ssssssssssccccc" />
    <rect
       style="opacity:0.01;fill:#4e5a7e;fill-opacity:0.01;stroke:none;stroke-width:0.39374;enable-background:new"
       id="center-3-35-5-9"
       width="15.749992"
       height="15.749992"
       x="-22.874998"
       y="30.285002"
       ry="7.8749838" />
    <path
       d="m -9.675957,40.941467 a 0.42633487,0.42633487 0 0 1 -0.301275,-0.125059 l -5.027913,-5.027905 -5.027908,5.027905 a 0.42633487,0.42633487 0 0 1 -0.602552,-0.60255 l 5.329191,-5.329181 a 0.42633487,0.42633487 0 0 1 0.602542,0 l 5.329191,5.329181 a 0.42633487,0.42633487 0 0 1 -0.301276,0.727609 z"
       id="path4-3-1-3-64"
       style="fill:#a6a6a6;fill-opacity:1;stroke-width:0.142105;enable-background:new" />
  </g>
  <g
     id="g5"
     transform="translate(-27.360001,-0.16000006)">
    <rect
       id="rect4266-3-6-3"
       width="22"
       height="22"
       x="27.360001"
       y="27.16"
       style="opacity:0.00100002;fill:#000000;fill-opacity:1;fill-rule:nonzero;stroke:none;stroke-width:2;stroke-linecap:round;stroke-linejoin:round;stroke-miterlimit:4;stroke-dasharray:none;stroke-opacity:1" />
    <rect
       style="fill:#00e5ad;fill-opacity:1;stroke:none;stroke-width:0.44999;enable-background:new"
       id="center-3-35-5-5-3"
       width="18"
       height="18"
       x="29.360001"
       y="29.16"
       ry="8.9999847" />
    <path
       d="m 43.684042,40.953847 a 0.4263359,0.42718847 0 0 1 -0.301279,-0.125314 l -5.027925,-5.03797 -5.027918,5.03797 a 0.4263359,0.42718847 0 0 1 -0.602555,-0.603752 l 5.329204,-5.339852 a 0.4263359,0.42718847 0 0 1 0.602547,0 l 5.329203,5.339852 a 0.4263359,0.42718847 0 0 1 -0.301277,0.729066 z"
       id="path4-3-1-3-6-8"
       style="fill:#020202;fill-opacity:1;stroke-width:0.142247;enable-background:new" />
    <path
       id="path839-3-3-9-6"
       style="fill:#009971;fill-opacity:1;stroke-width:1.25;enable-background:new"
       d="m 38.36,28.16 c -5.522745,0 -10.000001,4.477157 -10.000001,9.999998 0,5.522839 4.477256,10.000002 10.000001,10.000002 5.52276,0 10,-4.477163 10,-10.000002 0,-5.522841 -4.47724,-9.999998 -10,-9.999998 z m 0,1.25 c 4.83243,0 8.75,3.917496 8.75,8.749998 0,4.832476 -3.91757,8.750002 -8.75,8.750002 -4.832445,0 -8.750001,-3.917526 -8.750001,-8.750002 0,-4.832502 3.917556,-8.749998 8.750001,-8.749998 z m 0,0 z"
       sodipodi:nodetypes="ssssssssssccccc" />
  </g>
  <g
     id="hover-inactive-center"
     transform="translate(-27.360001,-0.16000006)">
    <rect
       style="opacity:0.00100002;fill:#000000;fill-opacity:1;fill-rule:nonzero;stroke:none;stroke-width:2;stroke-linecap:round;stroke-linejoin:round;stroke-miterlimit:4;stroke-dasharray:none;stroke-opacity:1"
       y="27.16"
       x="-5e-07"
       height="22"
       width="22"
       id="rect4266-3-4" />
    <rect
       style="fill:#00cc98;fill-opacity:1;stroke:none;stroke-width:0.44999;enable-background:new"
       id="center-3-35-5-7-8"
       width="18"
       height="18"
       x="1.9999995"
       y="29.16"
       ry="8.9999838" />
    <path
       d="M 16.324038,40.941483 A 0.42633578,0.42633578 0 0 1 16.02276,40.816418 l -5.027923,-5.027913 -5.0279168,5.027913 a 0.42633578,0.42633578 0 0 1 -0.602554,-0.602547 l 5.3292028,-5.329192 a 0.42633578,0.42633578 0 0 1 0.602544,0 l 5.329202,5.329192 a 0.42633578,0.42633578 0 0 1 -0.301277,0.727612 z"
       id="path4-3-1-3-5-8"
       style="fill:#010101;fill-opacity:1;stroke-width:0.142105;enable-background:new" />
    <path
       id="path839-3-6-1-8"
       style="mix-blend-mode:normal;fill:#00805f;fill-opacity:1;stroke-width:1.25;enable-background:new"
       d="M 11,28.16 C 5.4772545,28.16 0.9999985,32.637157 0.9999985,38.159998 0.9999985,43.682837 5.4772545,48.16 11,48.16 16.52276,48.16 21,43.682837 21,38.159998 21,32.637157 16.52276,28.16 11,28.16 Z m 0,1.25 c 4.832429,0 8.75,3.917496 8.75,8.749998 C 19.75,42.992476 15.83243,46.91 11,46.91 6.1675545,46.91 2.2499985,42.992476 2.2499985,38.159998 2.2499985,33.327496 6.1675545,29.41 11,29.41 Z m 0,0 z"
       sodipodi:nodetypes="ssssssssssccccc" />
  </g>
  <g
     id="deactivated-center">
    <rect
       id="rect4266-4"
       width="22"
       height="22"
       x="28"
       y="0"
       style="opacity:0.00100002;fill:#000000;fill-opacity:1;fill-rule:nonzero;stroke:none;stroke-width:2;stroke-linecap:round;stroke-linejoin:round;stroke-miterlimit:4;stroke-dasharray:none;stroke-opacity:1" />
    <path
       id="path839-3-9"
       style="opacity:0.01;fill:#2b4254;fill-opacity:0.01;stroke-width:1.125;enable-background:new"
       d="M 39.000001,2 C 34.02953,2 30,6.029441 30,10.999998 30,15.970557 34.02953,20 39.000001,20 c 4.97048,0 9,-4.029443 9,-9.000002 0,-4.970557 -4.02952,-8.999998 -9,-8.999998 z m 0,1.125 c 4.34919,0 7.875,3.525746 7.875,7.874998 0,4.349234 -3.52581,7.875002 -7.875,7.875002 C 34.6508,18.875 31.125,15.349232 31.125,10.999998 31.125,6.650746 34.6508,3.125 39.000001,3.125 Z m 0,0 z"
       sodipodi:nodetypes="ssssssssssccccc" />
    <rect
       style="opacity:0.01;fill:#4e5a7e;fill-opacity:0.01;stroke:none;stroke-width:0.39374;enable-background:new"
       id="center-3-35-5-2"
       width="15.749992"
       height="15.749992"
       x="31.125002"
       y="3.1250014"
       ry="7.8749838" />
    <path
       d="M 44.324043,13.781467 A 0.42633487,0.42633487 0 0 1 44.022768,13.656408 L 38.994855,8.6285027 33.966947,13.656408 a 0.42633487,0.42633487 0 0 1 -0.602552,-0.60255 l 5.329191,-5.3291806 a 0.42633487,0.42633487 0 0 1 0.602542,0 l 5.329191,5.3291806 a 0.42633487,0.42633487 0 0 1 -0.301276,0.727609 z"
       id="path4-3-1-3-0"
       style="fill:#ffffff;fill-opacity:0.45;stroke-width:0.142105;enable-background:new" />
  </g>
  <g
     id="deactivated-inactive-center">
    <rect
       id="rect4266-31-8"
       width="22"
       height="22"
       x="28"
       y="27"
       style="opacity:0.00100002;fill:#000000;fill-opacity:1;fill-rule:nonzero;stroke:none;stroke-width:2;stroke-linecap:round;stroke-linejoin:round;stroke-miterlimit:4;stroke-dasharray:none;stroke-opacity:1" />
    <path
       id="path839-3-8-9"
       style="opacity:0.01;fill:#2b4254;fill-opacity:0.01;stroke-width:1.125;enable-background:new"
       d="M 39.000001,29 C 34.02953,29 30,33.029441 30,37.999998 30,42.970557 34.02953,47 39.000001,47 c 4.97048,0 9,-4.029443 9,-9.000002 0,-4.970557 -4.02952,-8.999998 -9,-8.999998 z m 0,1.125 c 4.34919,0 7.875,3.525746 7.875,7.874998 0,4.349234 -3.52581,7.875002 -7.875,7.875002 -4.349201,0 -7.875001,-3.525768 -7.875001,-7.875002 0,-4.349252 3.5258,-7.874998 7.875001,-7.874998 z m 0,0 z"
       sodipodi:nodetypes="ssssssssssccccc" />
    <rect
       style="opacity:0.01;fill:#4e5a7e;fill-opacity:0.01;stroke:none;stroke-width:0.39374;enable-background:new"
       id="center-3-35-5-9-2"
       width="15.749992"
       height="15.749992"
       x="31.125002"
       y="30.125002"
       ry="7.8749838" />
    <path
       d="m 44.324043,40.781467 a 0.42633487,0.42633487 0 0 1 -0.301275,-0.125059 l -5.027913,-5.027905 -5.027908,5.027905 a 0.42633487,0.42633487 0 0 1 -0.602552,-0.60255 l 5.329191,-5.329181 a 0.42633487,0.42633487 0 0 1 0.602542,0 l 5.329191,5.329181 a 0.42633487,0.42633487 0 0 1 -0.301276,0.727609 z"
       id="path4-3-1-3-64-6"
       style="fill:#a6a6a6;fill-opacity:0.45;stroke-width:0.142105;enable-background:new" />
  </g>
</svg>
