<?xml version="1.0" encoding="UTF-8" standalone="no"?>
<svg
   width="32"
   height="32"
   version="1.1"
   id="svg42"
   sodipodi:docname="application-vnd.kde.kleopatra.keygroup.svg"
   inkscape:version="1.1.2 (0a00cf5339, 2022-02-04)"
   xmlns:inkscape="http://www.inkscape.org/namespaces/inkscape"
   xmlns:sodipodi="http://sodipodi.sourceforge.net/DTD/sodipodi-0.dtd"
   xmlns:xlink="http://www.w3.org/1999/xlink"
   xmlns="http://www.w3.org/2000/svg"
   xmlns:svg="http://www.w3.org/2000/svg">
  <sodipodi:namedview
     id="namedview44"
     pagecolor="#ffffff"
     bordercolor="#666666"
     borderopacity="1.0"
     inkscape:pageshadow="2"
     inkscape:pageopacity="0.0"
     inkscape:pagecheckerboard="0"
     showgrid="false"
     inkscape:zoom="19.4375"
     inkscape:cx="16"
     inkscape:cy="15.974277"
     inkscape:window-width="1920"
     inkscape:window-height="1013"
     inkscape:window-x="0"
     inkscape:window-y="0"
     inkscape:window-maximized="1"
     inkscape:current-layer="svg42" />
  <defs
     id="defs24">
    <linearGradient
       id="b"
       y1="61"
       y2="3"
       x2="0"
       gradientUnits="userSpaceOnUse"
       gradientTransform="matrix(.5 0 0 -.48276 0 31.45)">
      <stop
         stop-color="#f62459"
         id="stop2" />
      <stop
         offset="1"
         stop-color="#f73768"
         id="stop4" />
    </linearGradient>
    <linearGradient
       id="e"
       y1="518.04"
       y2="524.8"
       x2="0"
       gradientUnits="userSpaceOnUse"
       gradientTransform="translate(-384.57,-515.8)">
      <stop
         stop-color="#ffd6af"
         id="stop7" />
      <stop
         offset="1"
         stop-color="#fffcf9"
         id="stop9" />
    </linearGradient>
    <linearGradient
       id="f"
       y1="524.8"
       x1="404.57"
       y2="531.8"
       x2="411.57"
       gradientUnits="userSpaceOnUse"
       gradientTransform="translate(-384.57,-515.8)">
      <stop
         stop-color="#383e51"
         id="stop12" />
      <stop
         offset="1"
         stop-color="#655c6f"
         stop-opacity="0"
         id="stop14" />
    </linearGradient>
    <linearGradient
       xlink:href="#a"
       id="d"
       x1="2.489"
       y1="-1.697"
       x2="23.917"
       y2="31.822"
       gradientUnits="userSpaceOnUse"
       gradientTransform="translate(-20)" />
    <linearGradient
       id="a"
       y1="392.36"
       y2="365.36"
       x2="0"
       gradientUnits="userSpaceOnUse"
       gradientTransform="translate(309.57 152.44)">
      <stop
         stop-opacity=".2"
         stop-color="#fff"
         offset="0"
         id="stop18" />
      <stop
         stop-opacity="0"
         stop-color="#fff"
         offset="1"
         id="stop20" />
    </linearGradient>
    <linearGradient
       xlink:href="#b"
       id="c"
       x1="25"
       y1="16"
       x2="47"
       y2="16"
       gradientUnits="userSpaceOnUse"
       gradientTransform="translate(-20)" />
  </defs>
  <path
     d="M20 2H8C6.338 2 5 3.338 5 5v22c0 1.662 1.338 3 3 3h16c1.662 0 3-1.338 3-3V9z"
     fill="url(#c)"
     id="path26" />
  <path
     d="M8 2a2.99 2.99 0 00-2.123.877c-.031.031-.02.09-.05.123H20V2z"
     color="#000"
     opacity=".5"
     fill="#fff"
     id="path30" />
  <path
     d="M5.826 29c.03.033.02.092.051.123A2.99 2.99 0 008 30h16a2.99 2.99 0 002.123-.877c.031-.031.02-.09.05-.123z"
     color="#000"
     opacity=".25"
     id="path32" />
  <path
     d="M 20,2 H 7.9999998 c -1.662,0 -3,1.338 -3,3 v 22 c 0,1.662 1.338,3 3,3 H 24 c 1.662,0 3,-1.338 3,-3 V 9 Z"
     opacity="0.4"
     fill="url(#d)"
     id="path34"
     style="fill:url(#d)" />
  <path
     d="M 27,9 20,2 v 7 z"
     fill="url(#e)"
     id="path36"
     style="fill:url(#e);fill-rule:evenodd" />
  <path
     d="M 27,16 20,9 h 7 z"
     opacity="0.2"
     fill="url(#f)"
     id="path38"
     style="fill:url(#f);fill-rule:evenodd" />
  <path
     id="path33"
     d="m 16.144,10.85 c -2.02,0 -3.644,1.625 -3.644,3.644 0,1.178 0.556,2.218 1.417,2.883 v 5.62 l 2.227,-1.62 2.227,1.62 v -5.62 c 0.862,-0.665 1.417,-1.706 1.417,-2.883 0,-2.02 -1.625,-3.644 -3.644,-3.644"
     fill="#fcbcbe" />
</svg>
