<?xml version="1.0" encoding="UTF-8" standalone="no"?>
<svg
   width="32"
   height="32"
   viewBox="0 0 32 32"
   version="1.1"
   id="svg1"
   sodipodi:docname="network-wired.svg"
   inkscape:version="1.3.2 (091e20ef0f, 2023-11-25)"
   xmlns:inkscape="http://www.inkscape.org/namespaces/inkscape"
   xmlns:sodipodi="http://sodipodi.sourceforge.net/DTD/sodipodi-0.dtd"
   xmlns="http://www.w3.org/2000/svg"
   xmlns:svg="http://www.w3.org/2000/svg">
  <defs
     id="defs1" />
  <sodipodi:namedview
     id="namedview1"
     pagecolor="#ffffff"
     bordercolor="#000000"
     borderopacity="0.25"
     inkscape:showpageshadow="2"
     inkscape:pageopacity="0.0"
     inkscape:pagecheckerboard="0"
     inkscape:deskcolor="#d1d1d1"
     inkscape:zoom="7.9895833"
     inkscape:cx="16.146023"
     inkscape:cy="15.833116"
     inkscape:window-width="1920"
     inkscape:window-height="994"
     inkscape:window-x="0"
     inkscape:window-y="0"
     inkscape:window-maximized="1"
     inkscape:current-layer="svg1" />
  <style
     type="text/css"
     id="current-color-scheme">.ColorScheme-Text{color:#31363b;}.ColorScheme-Background{color:#eff0f1;}.ColorScheme-Highlight{color:#3498db;}.ColorScheme-ViewText{color:#31363b;}.ColorScheme-ViewBackground{color:#fcfcfc;}.ColorScheme-ViewHover{color:#93cee9;}.ColorScheme-ViewFocus{color:#3daee9;}.ColorScheme-ButtonText{color:#31363b;}.ColorScheme-ButtonBackground{color:#eff0f1;}.ColorScheme-ButtonHover{color:#93cee9;}.ColorScheme-ButtonFocus{color:#3daee9;}.ColorScheme-NegativeText { color: #e74c3c; } </style>
  <g
     id="network-wired-1">
    <rect
       y="0"
       x="0"
       height="32"
       width="32"
       id="rect1819"
       style="fill:none;fill-opacity:1;stroke:none;stroke-width:1.45455" />
    <path
       style="color:#e5e9ef;fill:#d3dae3;fill-opacity:1;stroke:none;stroke-width:1.42352"
       d="M 6.874994,4 C 5.437489,4 4,5.223532 4,6.63529 V 18.429 C 4,19.84075 5.47222,20.999908 6.875,21 H 11 c 0,0 0.564744,1 2,1 v 0 2 H 5 c -1.004675,0 -1.004675,1 0,1 h 8 v 1.8 c 0,1.7 3,1.7 3,0 V 25 h 9 c 1,0 1,-1 0,-1 h -9 v -2 c 1.43525,0 2,-1 2,-1 v 0 0 0 0 0 L 16.6302,20 18.5,5 c 0.6698,0 0.6698,-1 0,-1 z M 7.1,5 H 15.19494 18.5 L 16.6302,20 18,21 h 2.501 c 0.79929,0 0.79929,-1 0,-1 H 7.1 C 6.1,20 5,19.5 5,18 V 7 C 5,5.58825 6.1,5 7.1,5 Z"
       id="rect4144-9-6-62-9-2"
       class="ColorScheme-Text "
       sodipodi:nodetypes="ccccccccccccccccccccccccccccccccccccccc" />
    <path
       class="ColorScheme-Text"
       d="m 22,3 c -0.59784,0 -1,0.294116 -1,1 v 5 c 0,0.705896 0.40216,1 1,1 h 2 v 3 l 1,2 h -1 v 3.5 c 0,0.988216 1,0.988216 1,0 V 15 l -1,-2 1,1.7e-5 V 10 h 2 c 0.71765,0 1,-0.294104 1,-1 l -10e-6,-4.888242 C 27.99999,3.405874 27.71765,3 27,3 Z m 0,1 h 5 V 4 7 9 H 22 V 7 Z"
       stroke-opacity="0"
       stroke-width="0.47686"
       id="path5-3-9-7-3"
       style="color:#d1d5e9;fill:#d3dae3;fill-opacity:1"
       sodipodi:nodetypes="ssscccccccccccssssscccccccc" />
  </g>
</svg>
