<?xml version="1.0" encoding="UTF-8" standalone="no"?>
<svg
   inkscape:version="1.3.2 (091e20ef0f, 2023-11-25)"
   sodipodi:docname="update-low.svg"
   id="svg11"
   viewBox="0 0 32 32"
   version="1.1"
   width="32"
   height="32"
   xmlns:inkscape="http://www.inkscape.org/namespaces/inkscape"
   xmlns:sodipodi="http://sodipodi.sourceforge.net/DTD/sodipodi-0.dtd"
   xmlns:xlink="http://www.w3.org/1999/xlink"
   xmlns="http://www.w3.org/2000/svg"
   xmlns:svg="http://www.w3.org/2000/svg"
   xmlns:rdf="http://www.w3.org/1999/02/22-rdf-syntax-ns#"
   xmlns:cc="http://creativecommons.org/ns#"
   xmlns:dc="http://purl.org/dc/elements/1.1/">
  <metadata
     id="metadata15">
    <rdf:RDF>
      <cc:Work
         rdf:about="">
        <dc:format>image/svg+xml</dc:format>
        <dc:type
           rdf:resource="http://purl.org/dc/dcmitype/StillImage" />
      </cc:Work>
    </rdf:RDF>
  </metadata>
  <sodipodi:namedview
     inkscape:current-layer="svg11"
     inkscape:window-maximized="1"
     inkscape:window-y="0"
     inkscape:window-x="0"
     inkscape:cy="1.2216995"
     inkscape:cx="12.940965"
     inkscape:zoom="11.05018"
     showgrid="false"
     id="namedview13"
     inkscape:window-height="994"
     inkscape:window-width="1920"
     inkscape:pageshadow="2"
     inkscape:pageopacity="0"
     guidetolerance="10"
     gridtolerance="10"
     objecttolerance="10"
     borderopacity="1"
     bordercolor="#666666"
     pagecolor="#ffffff"
     inkscape:showpageshadow="2"
     inkscape:pagecheckerboard="0"
     inkscape:deskcolor="#d1d1d1" />
  <defs
     id="defs3">
    <style
       id="current-color-scheme"
       type="text/css">.ColorScheme-Text {
        color:#eff0f1;
      }
      .ColorScheme-Highlight {
        color:#3daee9;
      }</style>
    <linearGradient
       inkscape:collect="always"
       xlink:href="#linearGradient13"
       id="linearGradient14"
       x1="26.320484"
       y1="304.39508"
       x2="32.94627"
       y2="298.04507"
       gradientUnits="userSpaceOnUse"
       gradientTransform="matrix(3.7795276,0,0,3.7795276,-95.979,-1122.4696)" />
    <linearGradient
       id="linearGradient13"
       inkscape:collect="always">
      <stop
         style="stop-color:#0066ff;stop-opacity:1"
         offset="0"
         id="stop13" />
      <stop
         style="stop-color:#5599ff;stop-opacity:1"
         offset="1"
         id="stop14" />
    </linearGradient>
  </defs>
  <path
     d="m 23.679525,8.150224 4.862812,2.473171 -1.469318,0.720907 c 0.605613,1.430438 0.945475,3.002495 0.945475,4.655811 C 28.018494,22.625663 22.647166,28 16.018608,28 13.895122,28 11.901954,27.442482 10.171992,26.474129 l 1.213784,-1.213493 c 1.39522,0.699969 2.964197,1.103925 4.632832,1.103925 5.723969,0 10.361911,-4.640542 10.361911,-10.362142 0,-1.535433 -0.3552,-2.982199 -0.955695,-4.29275 z m -7.825248,2.545965 z m 0,0 z m 0.166904,-5.060863 c -5.723966,0 -10.3619104,4.64092 -10.3619104,10.364787 0,1.535471 0.3552,2.981972 0.9556989,4.292523 L 8.3628234,23.849776 3.5,21.376264 4.9693216,20.655508 C 4.3637015,19.224655 4.0238426,17.652976 4.0238426,16.000113 4.0212838,9.373657 9.3951786,4 16.021181,4 c 2.123486,0 4.116658,0.556876 5.84662,1.525304 l -1.213784,1.214022 c -1.395217,-0.70012 -2.966752,-1.104 -4.632836,-1.104 z"
     id="path4-9-3-3-3"
     sodipodi:nodetypes="cccssccsscccccccccccccccccccccccccccsscccccscc"
     style="fill:url(#linearGradient14);fill-opacity:1;stroke-width:0.0255532" />
  <path
     d="m 21.421537,15.025865 -5.000304,-5.00281 c -0.04698,-0.04687 -0.110476,-0.07294 -0.176957,-0.07294 -0.06648,0 -0.129978,0.02646 -0.176958,0.07332 l -4.985337,5.002318 c -0.07147,0.07143 -0.09248,0.178772 -0.05397,0.272504 0.039,0.09335 0.129978,0.153827 0.23093,0.153827 h 2.749069 v 6.247899 c 0,0.137953 0.11195,0.249827 0.249941,0.249827 h 3.998664 c 0.137953,0 0.24994,-0.111874 0.24994,-0.249827 v -6.247899 h 2.738574 c 0.100951,0 0.191925,-0.06085 0.230929,-0.154583 0.039,-0.09335 0.01701,-0.200315 -0.0545,-0.271748 z"
     id="path2-3-7-5-3"
     style="fill:#2a7fff;fill-opacity:1;stroke-width:0.0234296" />
</svg>
