<?xml version="1.0" encoding="UTF-8" standalone="no"?>
<svg
   width="64"
   height="64"
   version="1.1"
   viewBox="0 0 16.934 16.934"
   id="svg74"
   sodipodi:docname="network-rj45-female.svg"
   inkscape:version="1.2.1 (9c6d41e410, 2022-07-14)"
   xmlns:inkscape="http://www.inkscape.org/namespaces/inkscape"
   xmlns:sodipodi="http://sodipodi.sourceforge.net/DTD/sodipodi-0.dtd"
   xmlns:xlink="http://www.w3.org/1999/xlink"
   xmlns="http://www.w3.org/2000/svg"
   xmlns:svg="http://www.w3.org/2000/svg">
  <sodipodi:namedview
     id="namedview76"
     pagecolor="#ffffff"
     bordercolor="#666666"
     borderopacity="1.0"
     inkscape:showpageshadow="2"
     inkscape:pageopacity="0.0"
     inkscape:pagecheckerboard="0"
     inkscape:deskcolor="#d1d1d1"
     showgrid="false"
     inkscape:zoom="3.6875"
     inkscape:cx="32"
     inkscape:cy="32"
     inkscape:window-width="1920"
     inkscape:window-height="1009"
     inkscape:window-x="0"
     inkscape:window-y="0"
     inkscape:window-maximized="1"
     inkscape:current-layer="svg74" />
  <defs
     id="defs13">
    <filter
       id="p"
       x="-0.036000056"
       y="-0.036000056"
       width="1.0720001"
       height="1.0720001"
       color-interpolation-filters="sRGB">
      <feGaussianBlur
         stdDeviation="0.23813437"
         id="feGaussianBlur2" />
    </filter>
    <linearGradient
       id="c"
       x1="8.467"
       x2="8.467"
       y1=".52919"
       y2="16.405"
       gradientTransform="matrix(0.8666683,0,0,0.8666683,20.593423,1.1289158)"
       gradientUnits="userSpaceOnUse">
      <stop
         stop-color="#7f8c8d"
         offset="0"
         id="stop5" />
      <stop
         stop-color="#bdc3c7"
         offset="1"
         id="stop7" />
    </linearGradient>
    <filter
       id="o"
       x="-0.032141728"
       y="-0.040910918"
       width="1.0642835"
       height="1.0818218"
       color-interpolation-filters="sRGB">
      <feGaussianBlur
         stdDeviation="0.198435"
         id="feGaussianBlur10" />
    </filter>
  </defs>
  <linearGradient
     id="b">
    <stop
       stop-color="#232629"
       offset="0"
       id="stop15" />
    <stop
       stop-color="#a2abae"
       offset="1"
       id="stop17" />
  </linearGradient>
  <linearGradient
     id="a">
    <stop
       stop-color="#31363b"
       offset="0"
       id="stop20" />
    <stop
       stop-color="#31363b"
       stop-opacity="0"
       offset="1"
       id="stop22" />
  </linearGradient>
  <linearGradient
     id="d"
     x1="8.467"
     x2="8.467"
     y1="2.646"
     y2="14.288"
     gradientUnits="userSpaceOnUse"
     gradientTransform="matrix(0.74481741,0,0,0.74481741,2.1610036,2.8465462)">
    <stop
       stop-color="#232629"
       offset="0"
       id="stop25" />
    <stop
       stop-color="#292c2f"
       offset="1"
       id="stop27" />
  </linearGradient>
  <linearGradient
     id="e"
     x1="4.234"
     x2="4.234"
     y1="290.65"
     y2="291.18"
     gradientTransform="matrix(2,0,0,3.9999,-1.588,-1159.9)"
     gradientUnits="userSpaceOnUse">
    <stop
       stop-color="#fdbc4b"
       stop-opacity=".8"
       offset="0"
       id="stop30" />
    <stop
       stop-color="#fdbc4b"
       stop-opacity="0"
       offset="1"
       id="stop32" />
  </linearGradient>
  <linearGradient
     id="f"
     x1="4.233"
     x2="4.233"
     y1="295.41"
     y2="294.62"
     gradientTransform="matrix(2.5,0,0,2,-2.116,-576.54)"
     gradientUnits="userSpaceOnUse"
     xlink:href="#a" />
  <linearGradient
     id="g"
     x1="4.587"
     x2="4.587"
     y1="295.41"
     y2="294.62"
     gradientTransform="matrix(0.75,0,0,2,1.852,-578.12)"
     gradientUnits="userSpaceOnUse"
     xlink:href="#a" />
  <linearGradient
     id="h"
     x1="3.88"
     x2="3.88"
     y1="295.41"
     y2="294.62"
     gradientTransform="matrix(0.75,0,0,2,8.732,-578.12)"
     gradientUnits="userSpaceOnUse"
     xlink:href="#a" />
  <linearGradient
     id="i"
     x1="7.411"
     x2="7.411"
     y1="295.41"
     y2="294.62"
     gradientTransform="matrix(0.25,0,0,4,14.552,-1173.2)"
     gradientUnits="userSpaceOnUse"
     xlink:href="#a" />
  <linearGradient
     id="j"
     x1="1.061"
     x2="1.061"
     y1="295.41"
     y2="294.62"
     gradientTransform="matrix(0.25,0,0,4,0.264,-1173.2)"
     gradientUnits="userSpaceOnUse"
     xlink:href="#a" />
  <linearGradient
     id="k"
     x1="4.444"
     x2="4.444"
     y1="295.41"
     y2="294.62"
     gradientTransform="matrix(1.25,0,0,3.3333,-2.38,-973.6)"
     gradientUnits="userSpaceOnUse"
     xlink:href="#a" />
  <linearGradient
     id="l"
     x1="4.021"
     x2="4.021"
     y1="295.41"
     y2="294.62"
     gradientTransform="matrix(1.25,0,0,3.3333,8.732,-973.6)"
     gradientUnits="userSpaceOnUse"
     xlink:href="#a" />
  <radialGradient
     id="m"
     cx="-1.146"
     cy="-291.92"
     r=".265"
     gradientTransform="matrix(-7.9877,3.4e-4,-6e-4,-13.98,-6.686,-4075.8)"
     gradientUnits="userSpaceOnUse"
     xlink:href="#b" />
  <radialGradient
     id="n"
     cx="-1.146"
     cy="-291.92"
     r=".265"
     gradientTransform="matrix(7.9877,1.3e-4,2.3e-4,-13.979,23.513,-4075.5)"
     gradientUnits="userSpaceOnUse"
     xlink:href="#b" />
  <circle
     cx="8.467"
     cy="8.467"
     r="6.8794374"
     fill="url(#c)"
     fill-rule="evenodd"
     stroke-width="0.22931"
     style="fill:url(#c);paint-order:fill markers stroke"
     id="circle46" />
  <path
     d="m 1.5885,3.0188142 v 2.646 h -0.53 v 0.53 h 0.53 v 2.116 h -0.53 v 0.529 h 0.53 v 2.6459998 h 2.645 v 1.587 h 1.588 v 1.587 h 5.292 v -1.587 h 1.587 v -1.588 h 2.645 V 8.8398142 h 0.53 v -0.53 h -0.53 v -2.115 h 0.53 v -0.53 h -0.53 v -2.645 z"
     filter="url(#o)"
     opacity="0.25"
     id="path48"
     transform="matrix(0.74481736,0,0,0.74481736,2.1606312,2.5688677)" />
  <path
     d="M 3.343773,4.8173335 V 6.7881204 H 2.9490206 V 7.1828742 H 3.343773 V 8.758907 H 2.9490206 V 9.1529143 H 3.343773 V 11.1237 h 1.9700432 v 1.182029 h 1.1827689 v 1.182019 h 3.9415729 v -1.182019 h 1.182021 v -1.182771 h 1.970053 V 9.1529143 h 0.394754 V 8.7581618 H 13.590232 V 7.1828742 h 0.394754 V 6.7881204 H 13.590232 V 4.818078 Z"
     fill="url(#d)"
     id="path50"
     style="fill:url(#d);stroke-width:0.744815" />
  <g
     stroke-width="2"
     id="g72"
     transform="matrix(0.74481736,0,0,0.74481736,2.1610036,2.8465462)">
    <path
       d="m 2.646,2.646 h 0.53 v 2.117 h -0.53 z m 1.588,0 h 0.529 v 2.117 h -0.53 z m 1.587,0 h 0.53 v 2.117 h -0.53 z m 7.938,0 h 0.53 v 2.117 h -0.53 z m -1.588,0 h 0.53 v 2.117 h -0.53 z m -1.587,0 h 0.529 v 2.117 h -0.53 z m -1.588,0 h 0.53 v 2.117 h -0.53 z m -1.587,0 h 0.529 v 2.117 h -0.53 z"
       fill="url(#e)"
       id="path52"
       style="fill:url(#e)" />
    <path
       d="m 5.821,12.7 h 5.292 v 1.588 H 5.82 Z"
       fill="url(#f)"
       id="path54"
       style="fill:url(#f)" />
    <path
       d="M 4.234,11.113 H 5.82 V 12.7 H 4.234 Z"
       fill="url(#g)"
       id="path56"
       style="fill:url(#g)" />
    <path
       d="M 11.113,11.113 H 12.7 V 12.7 h -1.588 z"
       fill="url(#h)"
       id="path58"
       style="fill:url(#h)" />
    <path
       d="m 15.346,5.292 v 0.53 h 0.53 v -0.53 z m 0,2.646 v 0.529 h 0.53 v -0.53 z"
       fill="url(#i)"
       id="path60"
       style="fill:url(#i)" />
    <path
       d="m 1.058,5.292 v 0.53 h 0.53 v -0.53 z m 0,2.646 v 0.529 h 0.53 v -0.53 z"
       fill="url(#j)"
       id="path62"
       style="fill:url(#j)" />
    <path
       d="m 1.588,8.467 h 2.646 v 2.646 H 1.588 Z"
       fill="url(#k)"
       id="path64"
       style="fill:url(#k)" />
    <path
       d="m 12.7,8.467 h 2.646 v 2.646 H 12.7 Z"
       fill="url(#l)"
       id="path66"
       style="fill:url(#l)" />
    <path
       d="M 2.117,7.938 H 1.058 V 5.82 h 1.059 z"
       fill="url(#m)"
       id="path68"
       style="fill:url(#m)" />
    <path
       d="m 14.817,7.938 h 1.059 V 5.82 h -1.059 z"
       fill="url(#n)"
       id="path70"
       style="fill:url(#n)" />
  </g>
</svg>
