<?xml version="1.0" encoding="UTF-8" standalone="no"?>
<!-- Created with Inkscape (http://www.inkscape.org/) -->

<svg
   width="64"
   version="1.1"
   height="64"
   id="svg1351"
   sodipodi:docname="video-television.svg"
   inkscape:version="1.2.2 (b0a8486541, 2022-12-01)"
   xmlns:inkscape="http://www.inkscape.org/namespaces/inkscape"
   xmlns:sodipodi="http://sodipodi.sourceforge.net/DTD/sodipodi-0.dtd"
   xmlns:xlink="http://www.w3.org/1999/xlink"
   xmlns="http://www.w3.org/2000/svg"
   xmlns:svg="http://www.w3.org/2000/svg">
  <sodipodi:namedview
     id="namedview1353"
     pagecolor="#ffffff"
     bordercolor="#000000"
     borderopacity="0.25"
     inkscape:showpageshadow="2"
     inkscape:pageopacity="0.0"
     inkscape:pagecheckerboard="0"
     inkscape:deskcolor="#d1d1d1"
     showgrid="false"
     inkscape:zoom="10.429825"
     inkscape:cx="28.619847"
     inkscape:cy="36.290158"
     inkscape:window-width="1920"
     inkscape:window-height="1002"
     inkscape:window-x="0"
     inkscape:window-y="0"
     inkscape:window-maximized="1"
     inkscape:current-layer="layer1" />
  <defs
     id="defs5455">
    <linearGradient
       inkscape:collect="always"
       id="linearGradient4159">
      <stop
         style="stop-color:#2a2c2f"
         id="stop4161" />
      <stop
         offset="1"
         style="stop-color:#424649"
         id="stop4163" />
    </linearGradient>
    <linearGradient
       inkscape:collect="always"
       id="linearGradient4250"
       xlink:href="#linearGradient4159"
       y1="536.79797"
       y2="503.798"
       gradientUnits="userSpaceOnUse"
       x2="0"
       gradientTransform="matrix(1.0833331 0 0 1.0909092 -36.04753 -47.800024)" />
    <linearGradient
       inkscape:collect="always"
       id="linearGradient4272"
       xlink:href="#linearGradient4303"
       y1="547.79797"
       y2="536.79797"
       gradientUnits="userSpaceOnUse"
       x2="0"
       gradientTransform="matrix(0.50000031 0 0 0.72726714 198.2856 146.40233)" />
    <linearGradient
       inkscape:collect="always"
       id="linearGradient4303">
      <stop
         style="stop-color:#c6cdd1"
         id="stop4305" />
      <stop
         offset="1"
         style="stop-color:#e0e5e7"
         id="stop4307" />
    </linearGradient>
    <linearGradient
       inkscape:collect="always"
       id="linearGradient4213">
      <stop
         style="stop-color:#ee6406"
         id="stop4215" />
      <stop
         offset="1"
         style="stop-color:#ffce0d"
         id="stop4217" />
    </linearGradient>
    <linearGradient
       inkscape:collect="always"
       id="linearGradient4176">
      <stop
         style="stop-opacity:0"
         id="stop4178" />
      <stop
         offset="1"
         style="stop-opacity:0.452632"
         id="stop4180" />
    </linearGradient>
    <linearGradient
       inkscape:collect="always"
       id="linearGradient4391">
      <stop
         stop-color="#21c9fb"
         id="stop1320" />
      <stop
         offset="1"
         stop-color="#197cf1"
         id="stop1322" />
    </linearGradient>
    <linearGradient
       inkscape:collect="always"
       xlink:href="#linearGradient4391"
       id="linearGradient4397"
       y1="535.79797"
       y2="505.798"
       x2="0"
       gradientUnits="userSpaceOnUse"
       gradientTransform="matrix(1.1818179 0 0 1.2 -74.28562 -103.1598)" />
    <radialGradient
       cx="408.57145"
       cy="520.79803"
       inkscape:collect="always"
       xlink:href="#linearGradient4176"
       id="radialGradient4182"
       r="22.00001"
       gradientUnits="userSpaceOnUse"
       gradientTransform="matrix(1.1818179 0 0 0.8181816 -74.28562 95.69047)" />
    <linearGradient
       inkscape:collect="always"
       xlink:href="#linearGradient4213"
       id="linearGradient4219"
       y1="21"
       x1="33"
       y2="12"
       x2="24"
       gradientUnits="userSpaceOnUse"
       gradientTransform="matrix(1.2857142 0 0 1.2857143 377.71429 494.79785)" />
    <linearGradient
       inkscape:collect="always"
       xlink:href="#linearGradient4213"
       id="linearGradient4234"
       x1="428.57144"
       x2="388.57144"
       gradientUnits="userSpaceOnUse"
       gradientTransform="matrix(1.2399993 0 0 1 -98.49683 0.499815)" />
    <linearGradient
       inkscape:collect="always"
       xlink:href="#linearGradient4303"
       id="linearGradient4183"
       y1="547.79797"
       y2="536.79797"
       gradientUnits="userSpaceOnUse"
       x2="0"
       gradientTransform="matrix(0.50000031 0 0 0.72726714 210.2856 146.40233)" />
  </defs>
  <metadata
     id="metadata5458" />
  <g
     inkscape:label="Capa 1"
     inkscape:groupmode="layer"
     id="layer1"
     transform="matrix(1 0 0 1 -376.57144 -491.79797)">
    <path
       inkscape:connector-curvature="0"
       style="stroke-opacity:0.550265;fill:url(#linearGradient4183);stroke-width:2.8"
       id="path4181"
       d="m 411.57143,536.79786 0,5.09077 0,1.45455 0,1.45461 6,0 0,-1.45461 0,-1.45455 0,-5.09077 z" />
    <path
       inkscape:connector-curvature="0"
       style="stroke-opacity:0.550265;fill:url(#linearGradient4272);stroke-width:2.8"
       id="rect4254"
       d="m 399.57143,536.79786 0,5.09077 0,1.45455 0,1.45461 6,0 0,-1.45461 0,-1.45455 0,-5.09077 z" />
    <rect
       width="63.999985"
       x="376.57144"
       y="502.798"
       height="34.999859"
       style="fill:url(#linearGradient4250);stroke-width:2.8;stroke-opacity:0.550265"
       id="rect4173"
       ry="5.9998631" />
    <rect
       width="47.999985"
       x="384.57144"
       y="503.79785"
       height="33"
       style="stroke-opacity:0.550265;fill:url(#linearGradient4397);stroke-width:2.8"
       id="rect4304" />
    <rect
       width="47.999985"
       x="384.57144"
       y="503.79785"
       height="33"
       style="stroke-opacity:0.550265;fill:url(#radialGradient4182);opacity:0.85;stroke-width:2.8"
       id="rect4174" />
    <rect
       width="47.999985"
       x="384.57144"
       y="531.79785"
       height="4.799995"
       style="opacity:0.85;fill-opacity:0.621053;stroke-width:0.1"
       id="rect4184" />
    <rect
       width="48"
       x="384.57144"
       y="503.99017"
       height="4.807694"
       style="opacity:0.85;fill-opacity:0.621053;stroke-width:0.1"
       id="rect4186" />
    <path
       inkscape:connector-curvature="0"
       style="fill:url(#linearGradient4234);stroke-width:0.1"
       id="rect4195"
       d="m 385.19145,533.79781 c -0.3435,0 -0.62001,0.223 -0.62001,0.5 0,0.277 0.27651,0.5 0.62001,0.5 l 30.37998,0 0,-1 -30.37998,0 z" />
    <path
       inkscape:connector-curvature="0"
       style="fill:#ffffff;opacity:0.85;fill-opacity:0.452632;stroke-width:0.1"
       id="rect4188"
       d="m 408.57144,512.79785 c -4.98599,0 -9,4.01401 -9,9 0,4.98599 4.01401,9 9,9 4.98599,0 9,-4.01401 9,-9 0,-4.98599 -4.01401,-9 -9,-9 z m 0,1 a 8,8 0 0 1 8,8 8,8 0 0 1 -8,8 8,8 0 0 1 -8,-8 8,8 0 0 1 8,-8 z" />
    <path
       inkscape:connector-curvature="0"
       style="fill:url(#linearGradient4219);opacity:0.85;stroke-width:0.1"
       id="path4197"
       d="m 408.57144,512.79785 0,1 a 8,8 0 0 1 8,8 l 1,0 c 0,-4.98599 -4.01401,-9 -9,-9 z" />
    <g
       id="g4462"
       transform="matrix(1 0 0 1 -0.000011 -2.00012)">
      <rect
         width="5.909074"
         x="405.61691"
         y="520.79797"
         rx="2.954537"
         height="5.999984"
         ry="2.999992"
         style="opacity:0.8;stroke-width:0.1"
         id="rect4190" />
      <path
         inkscape:connector-curvature="0"
         style="fill:#ffffff;fill-rule:evenodd"
         id="path4221"
         d="m 410.34414,523.79796 -2.95454,-1.8 0,3.6 z" />
    </g>
    <path
       inkscape:connector-curvature="0"
       style="fill:#999999;stroke-width:0.1"
       id="rect4223"
       d="m 416.57144,533.79781 0,1 15.38461,0 c 0.34094,0 0.61539,-0.223 0.61539,-0.5 0,-0.277 -0.27445,-0.5 -0.61539,-0.5 l -15.38461,0 z" />
    <rect
       width="3"
       x="414.57144"
       y="532.79785"
       rx="1.5"
       height="3"
       style="fill:#ffffff;stroke-width:0.1"
       id="rect4239" />
    <rect
       width="28"
       x="394.57144"
       y="543.79803"
       height="1.00001"
       style="fill:#99a1a7;stroke-width:2.8;stroke-opacity:0.550265"
       id="rect4295"
       ry="0.50000501" />
    <rect
       width="3.999987"
       x="434.57144"
       y="505.798"
       rx="1.999993"
       height="28"
       style="fill:#1e2426"
       id="rect4185" />
    <rect
       width="3.999987"
       x="378.57144"
       y="505.798"
       rx="1.999993"
       height="28"
       style="fill:#1e2426"
       id="rect4187" />
  </g>
</svg>
