<?xml version="1.0" encoding="UTF-8" standalone="no"?>
<svg
   viewBox="0 0 16 16"
   version="1.1"
   id="svg2"
   sodipodi:docname="audio-on.svg"
   width="16"
   height="16"
   inkscape:version="1.3.2 (091e20ef0f, 2023-11-25)"
   xmlns:inkscape="http://www.inkscape.org/namespaces/inkscape"
   xmlns:sodipodi="http://sodipodi.sourceforge.net/DTD/sodipodi-0.dtd"
   xmlns="http://www.w3.org/2000/svg"
   xmlns:svg="http://www.w3.org/2000/svg">
  <sodipodi:namedview
     id="namedview2"
     pagecolor="#ffffff"
     bordercolor="#000000"
     borderopacity="0.25"
     inkscape:showpageshadow="2"
     inkscape:pageopacity="0.0"
     inkscape:pagecheckerboard="0"
     inkscape:deskcolor="#d1d1d1"
     inkscape:zoom="23.96875"
     inkscape:cx="8.4276402"
     inkscape:cy="13.830508"
     inkscape:window-width="1920"
     inkscape:window-height="994"
     inkscape:window-x="0"
     inkscape:window-y="0"
     inkscape:window-maximized="1"
     inkscape:current-layer="svg2" />
  <defs
     id="defs3051">
    <style
       type="text/css"
       id="current-color-scheme">
      .ColorScheme-Text {
        color:#232629;
      }
      .ColorScheme-PositiveText {
        color:#27ae60;
      }
      </style>
  </defs>
  <path
     style="opacity:1;fill:currentColor;fill-opacity:1;stroke:none"
     d="m 12.523384,21.966102 -0.757812,0.480469 c 1.116583,1.347981 1.710399,2.915898 1.710937,4.517578 -0.0043,1.600289 -0.600802,3.166066 -1.71875,4.511719 l 0.769531,0.490234 c 1.258671,-1.486081 1.93001,-3.224503 1.931641,-5.001953 -0.0038,-1.776427 -0.676438,-3.51341 -1.935547,-4.998047 z m -1.296875,1.460937 -0.767578,0.486329 c 0.698954,0.927128 1.06889,1.981008 1.072266,3.054687 -0.0023,1.074204 -0.371613,2.128792 -1.070313,3.056641 l 0.767578,0.486328 c 0.83771,-1.067993 1.28215,-2.293245 1.285157,-3.542969 -0.0041,-1.249204 -0.449158,-2.473744 -1.28711,-3.541016 z"
     class="ColorScheme-PositiveText"
     id="path1" />
  <path
     style="fill:currentColor;fill-opacity:1;stroke:none"
     class="ColorScheme-Text"
     d="m 8.4589309,20.966102 -4,4 v 4 l 4,4 h 1 v -12 z m -6,4 v 4 h 1 v -4 z"
     id="path2" />
  <path
     id="rect858"
     d="M 0,0 H 16 V 16 H 0 Z"
     fill="none" />
  <path
     d="m 9.8539185,2.77482 c 0,-0.716335 -0.815145,-1.021474 -1.3306455,-0.545503 L 5.6505298,4.881354 C 5.5627208,4.962404 5.4493181,5.006578 5.3318118,5.006578 H 2.9783884 c -0.794776,0 -1.4390672,0.669649 -1.4390672,1.494923 v 2.9871821 c 0,0.8252459 0.6442912,1.4951669 1.4390672,1.4951669 h 2.3533887 c 0.1175149,0 0.2309411,0.04381 0.3187501,0.124948 l 2.8726701,2.65233 c 0.5155752,0.476074 1.3307242,0.211445 1.3307242,-0.535718 z M 9.161037,7.230145 V 2.765109 13.22541 7.230145 v 0 L 5.0037419,7.977313 v 0 z"
     id="path2057-3-3"
     style="fill:#27ae60;fill-opacity:1;stroke-width:0.651777"
     sodipodi:nodetypes="sccssssssccsscccccccccccc" />
  <path
     d="M 12.877321,2.72967 C 13.167447,2.512727 13.576929,2.574303 13.791906,2.867215 14.865083,4.329831 15.5,6.141031 15.5,8.099994 c 0,1.958951 -0.634917,3.770159 -1.708094,5.232798 -0.214978,0.292949 -0.624459,0.354452 -0.914585,0.137534 -0.290232,-0.216921 -0.351167,-0.63024 -0.136265,-0.923199 0.912056,-1.242985 1.451269,-2.7805177 1.451269,-4.44713 0,-1.666543 -0.539209,-3.2041 -1.451269,-4.447132 -0.214902,-0.292912 -0.153967,-0.706241 0.136265,-0.923192 z"
     id="path2059-6-6"
     style="fill:#27ae60;fill-opacity:1;stroke-width:0.875915" />
  <path
     d="m 11.312743,4.906861 c 0.31155,-0.173532 0.700968,-0.0543 0.869652,0.266207 0.458704,0.871722 0.71893,1.869952 0.71893,2.928752 0,1.0588213 -0.260225,2.057082 -0.71893,2.92881 -0.168684,0.320489 -0.558102,0.439731 -0.869652,0.2662 -0.31165,-0.173551 -0.427558,-0.574107 -0.258854,-0.894621 0.359715,-0.6835657 0.564261,-1.466413 0.564261,-2.300389 0,-0.833962 -0.204545,-1.616804 -0.564261,-2.300366 -0.168704,-0.320545 -0.05284,-0.721072 0.258854,-0.894593 z"
     id="path2061-7-7"
     style="fill:#27ae60;fill-opacity:1;stroke-width:0.867678" />
  <path
     d="m 2.5786473,7.977305 c 0,0.619275 -0.4650451,1.1207541 -1.0393242,1.1207541 C 0.96552914,9.0980591 0.5,8.59658 0.5,7.977305 0.5,7.358562 0.96552914,6.856573 1.5393231,6.856573 c 0.5742791,0 1.0393242,0.501989 1.0393242,1.120732 z"
     id="path72-3-7-3-5"
     style="color:#e5e9ef;fill:#27ae60;fill-opacity:1;stroke-width:0.0128482" />
  <path
     d="m 10.5468,7.977305 c 0,0.619275 -0.465039,1.1207541 -1.0393242,1.1207541 -0.3464388,0 -0.3464388,-1.1207541 -0.3464388,-1.1207541 0,0 0,-1.120732 0.3464388,-1.120732 0.5742852,0 1.0393242,0.501989 1.0393242,1.120732 z"
     id="path72-3-7-3-6-35"
     style="color:#e5e9ef;fill:#27ae60;fill-opacity:1;stroke-width:0.0128482"
     sodipodi:nodetypes="sscss" />
</svg>
