<?xml version="1.0" encoding="UTF-8" standalone="no"?>
<!-- Generator: Gravit.io -->

<svg
   style="isolation:isolate"
   viewBox="0 0 16 16"
   width="16pt"
   height="16pt"
   version="1.1"
   id="svg2"
   sodipodi:docname="applications-all.svg"
   inkscape:version="1.3 (0e150ed6c4, 2023-07-21)"
   xmlns:inkscape="http://www.inkscape.org/namespaces/inkscape"
   xmlns:sodipodi="http://sodipodi.sourceforge.net/DTD/sodipodi-0.dtd"
   xmlns:xlink="http://www.w3.org/1999/xlink"
   xmlns="http://www.w3.org/2000/svg"
   xmlns:svg="http://www.w3.org/2000/svg">
  <defs
     id="defs2">
    <linearGradient
       id="linearGradient1"
       inkscape:collect="always">
      <stop
         style="stop-color:#ffd42a;stop-opacity:1"
         offset="0"
         id="stop3" />
      <stop
         style="stop-color:#00d6d6;stop-opacity:1;"
         offset="1"
         id="stop4" />
    </linearGradient>
    <linearGradient
       inkscape:collect="always"
       xlink:href="#linearGradient1"
       id="linearGradient16"
       x1="4.9498773"
       y1="11.446374"
       x2="11.13494"
       y2="5.8295817"
       gradientUnits="userSpaceOnUse" />
  </defs>
  <sodipodi:namedview
     id="namedview2"
     pagecolor="#ffffff"
     bordercolor="#000000"
     borderopacity="0.25"
     inkscape:showpageshadow="2"
     inkscape:pageopacity="0.0"
     inkscape:pagecheckerboard="0"
     inkscape:deskcolor="#d1d1d1"
     inkscape:document-units="pt"
     inkscape:zoom="12.106508"
     inkscape:cx="7.6818187"
     inkscape:cy="12.100929"
     inkscape:window-width="1920"
     inkscape:window-height="994"
     inkscape:window-x="0"
     inkscape:window-y="0"
     inkscape:window-maximized="1"
     inkscape:current-layer="svg2"
     showgrid="false">
    <inkscape:grid
       id="grid15"
       units="px"
       originx="1.0231572e-08"
       originy="3.0798242e-09"
       spacingx="0.74999998"
       spacingy="0.74999998"
       empcolor="#0099e5"
       empopacity="0.30196078"
       color="#0099e5"
       opacity="0.14901961"
       empspacing="5"
       dotted="false"
       gridanglex="30"
       gridanglez="30"
       visible="false" />
  </sodipodi:namedview>
  <linearGradient
     id="_lgradient_3"
     x1="-6.9388939e-18"
     y1="1"
     x2="1"
     y2="-6.9388939e-18"
     gradientTransform="matrix(15,0,0,15,0.5,0.5)"
     gradientUnits="userSpaceOnUse">
    <stop
       offset="0%"
       stop-opacity="1"
       style="stop-color:#000000;stop-opacity:1"
       id="stop1" />
    <stop
       offset="98.26086956521739%"
       stop-opacity="1"
       style="stop-color:rgb(239,98,159)"
       id="stop2" />
  </linearGradient>
  <path
     d="m 9.4550307,2.6328624 c 0.8484363,0.811177 0.9164183,2.217759 0.07037,3.103499 L 8.0448162,7.2864054 6.4586097,5.7698574 c -0.848436,-0.811176 -0.916418,-2.217759 -0.07037,-3.103499 0.8460485,-0.885739 2.1814668,-0.879941 3.0667906,-0.03349 z M 5.753569,6.5079744 7.3028871,7.9892534 5.7870499,9.5762044 C 4.9762534,10.425038 3.5703313,10.493052 2.6850068,9.6466044 1.7996824,8.8001584 1.768589,7.4288464 2.6146378,6.5431064 3.4606864,5.6573654 4.868245,5.6615264 5.7535694,6.5079764 Z m 7.574757,-0.171913 c 0.848436,0.811177 0.916418,2.217759 0.07037,3.103499 -0.846049,0.8857386 -2.218356,0.8446726 -3.066792,0.0335 L 8.7456944,7.9565134 10.22628,6.4064684 c 0.846049,-0.88574 2.216718,-0.916848 3.102043,-0.0704 z m -5.287669,2.358564 1.5862062,1.5165476 c 0.8484368,0.811176 0.9164188,2.217758 0.070369,3.103498 -0.8460481,0.88574 -2.2167184,0.916848 -3.1020427,0.0704 -0.8853244,-0.846442 -0.8811659,-2.254662 -0.070369,-3.103496 z"
     id="path1"
     style="stroke-width:0.510361;fill:url(#linearGradient16)" />
</svg>
