<?xml version="1.0" encoding="UTF-8" standalone="no"?>
<!-- Generator: Gravit.io -->

<svg
   style="isolation:isolate"
   viewBox="0 0 16 16"
   width="16pt"
   height="16pt"
   version="1.1"
   id="svg2"
   sodipodi:docname="applications-system.svg"
   inkscape:version="1.3 (0e150ed6c4, 2023-07-21)"
   xmlns:inkscape="http://www.inkscape.org/namespaces/inkscape"
   xmlns:sodipodi="http://sodipodi.sourceforge.net/DTD/sodipodi-0.dtd"
   xmlns:xlink="http://www.w3.org/1999/xlink"
   xmlns="http://www.w3.org/2000/svg"
   xmlns:svg="http://www.w3.org/2000/svg">
  <defs
     id="defs2">
    <linearGradient
       id="linearGradient1"
       inkscape:collect="always">
      <stop
         style="stop-color:#ffd42a;stop-opacity:1"
         offset="0"
         id="stop3" />
      <stop
         style="stop-color:#2ad4ff;stop-opacity:1"
         offset="0.37094396"
         id="stop6" />
      <stop
         style="stop-color:#ff7eff;stop-opacity:1;"
         offset="0.51873392"
         id="stop5" />
      <stop
         style="stop-color:#ffb380;stop-opacity:1"
         offset="0.64987147"
         id="stop7" />
      <stop
         style="stop-color:#ff0000;stop-opacity:1"
         offset="1"
         id="stop4" />
    </linearGradient>
    <linearGradient
       inkscape:collect="always"
       xlink:href="#linearGradient1"
       id="linearGradient4"
       x1="7.695519"
       y1="22.394566"
       x2="8.3044748"
       y2="-6.3945622"
       gradientUnits="userSpaceOnUse"
       gradientTransform="matrix(0.42545045,0.40782467,-0.40782467,0.42545045,7.8589957,1.3337999)" />
  </defs>
  <sodipodi:namedview
     id="namedview2"
     pagecolor="#ffffff"
     bordercolor="#000000"
     borderopacity="0.25"
     inkscape:showpageshadow="2"
     inkscape:pageopacity="0.0"
     inkscape:pagecheckerboard="0"
     inkscape:deskcolor="#d1d1d1"
     inkscape:document-units="pt"
     inkscape:zoom="11.984375"
     inkscape:cx="15.853977"
     inkscape:cy="18.816167"
     inkscape:window-width="1920"
     inkscape:window-height="994"
     inkscape:window-x="0"
     inkscape:window-y="0"
     inkscape:window-maximized="1"
     inkscape:current-layer="svg2" />
  <linearGradient
     id="_lgradient_3"
     x1="-6.9388939e-18"
     y1="1"
     x2="1"
     y2="-6.9388939e-18"
     gradientTransform="matrix(15,0,0,15,0.5,0.5)"
     gradientUnits="userSpaceOnUse">
    <stop
       offset="0%"
       stop-opacity="1"
       style="stop-color:#000000;stop-opacity:1"
       id="stop1" />
    <stop
       offset="98.26086956521739%"
       stop-opacity="1"
       style="stop-color:rgb(239,98,159)"
       id="stop2" />
  </linearGradient>
  <path
     d="M 7.8858354,2.6026509 9.9163959,4.5490863 7.9699582,6.5796455 5.9393989,4.6332095 Z M 11.366796,5.9393976 13.397352,7.885834 11.450913,9.9163951 9.4203584,7.9699573 Z M 4.5490877,6.0836085 6.5796467,8.0300445 4.6332103,10.060606 2.602652,8.1141682 Z m 3.7538408,-3.916077 2.0305555,1.946435 c 0.240189,0.2302357 0.248264,0.6120275 0.01803,0.8522137 L 8.4050779,6.9967391 C 8.1748427,7.2369252 7.7930507,7.2450006 7.5528644,7.0147647 L 5.5223059,5.0683293 C 5.2821192,4.8380939 5.2740443,4.4563024 5.5042788,4.2161167 L 7.4507157,2.1855569 c 0.230235,-0.2401851 0.612027,-0.2482622 0.8522128,-0.018025 z m 3.4809625,3.3367462 2.030557,1.9464368 c 0.240187,0.2302352 0.248261,0.6120272 0.01798,0.8522102 l -1.94641,2.0305593 c -0.230237,0.240187 -0.612023,0.248262 -0.852212,0.01803 L 9.0032635,8.4050768 C 8.7630783,8.1748416 8.755002,7.7930495 8.985238,7.5528633 L 10.931676,5.5223047 C 11.161909,5.2821182 11.5437,5.274043 11.783891,5.5042777 Z M 4.9661815,5.6484892 6.9967402,7.5949249 C 7.2369264,7.8251603 7.2450017,8.2069523 7.0147652,8.447138 L 5.0683304,10.4777 c -0.2302352,0.240183 -0.612027,0.24826 -0.8522129,0.01802 L 2.1855581,8.5492877 C 1.9453728,8.3190524 1.937296,7.937261 2.1675325,7.6970749 L 4.1139682,5.6665157 C 4.3442033,5.4263293 4.7259952,5.4182535 4.9661815,5.6484892 Z M 8.0300458,9.4203571 10.060607,11.366794 8.1141693,13.39735 6.0836097,11.450912 Z M 8.4471394,8.9852367 10.477701,10.931674 c 0.240183,0.230235 0.24826,0.612025 0.01802,0.852215 l -1.9464363,2.030558 c -0.2302351,0.240186 -0.6120268,0.24826 -0.8522118,0.018 L 5.6665165,11.886037 C 5.4263306,11.655797 5.4182545,11.274013 5.6484905,11.03382 L 7.5949267,9.0032623 C 7.8251614,8.7630771 8.2069536,8.7550008 8.4471394,8.9852367 Z"
     fill-rule="evenodd"
     id="path2"
     style="fill:url(#linearGradient4);fill-opacity:1;stroke-width:0.20091" />
</svg>
