<?xml version="1.0" encoding="UTF-8" standalone="no"?>
<!-- Created with Inkscape (http://www.inkscape.org/) -->

<svg
   id="svg2"
   version="1.1"
   inkscape:version="1.3 (0e150ed6c4, 2023-07-21)"
   width="16"
   height="16"
   sodipodi:docname="applications-other.svg"
   xmlns:inkscape="http://www.inkscape.org/namespaces/inkscape"
   xmlns:sodipodi="http://sodipodi.sourceforge.net/DTD/sodipodi-0.dtd"
   xmlns:xlink="http://www.w3.org/1999/xlink"
   xmlns="http://www.w3.org/2000/svg"
   xmlns:svg="http://www.w3.org/2000/svg"
   xmlns:rdf="http://www.w3.org/1999/02/22-rdf-syntax-ns#"
   xmlns:cc="http://creativecommons.org/ns#"
   xmlns:dc="http://purl.org/dc/elements/1.1/">
  <metadata
     id="metadata8">
    <rdf:RDF>
      <cc:Work
         rdf:about="">
        <dc:format>image/svg+xml</dc:format>
        <dc:type
           rdf:resource="http://purl.org/dc/dcmitype/StillImage" />
      </cc:Work>
    </rdf:RDF>
  </metadata>
  <defs
     id="defs6">
    <linearGradient
       id="linearGradient1"
       inkscape:collect="always">
      <stop
         style="stop-color:#cd87de;stop-opacity:1"
         offset="0"
         id="stop1" />
      <stop
         style="stop-color:#00ccff;stop-opacity:1"
         offset="1"
         id="stop2" />
    </linearGradient>
    <linearGradient
       inkscape:collect="always"
       xlink:href="#linearGradient1"
       id="linearGradient2"
       x1="4.0866222"
       y1="11.820936"
       x2="12.246998"
       y2="3.7550333"
       gradientUnits="userSpaceOnUse"
       gradientTransform="matrix(1.0834561,0,0,1.0833274,-0.63998058,-0.64148378)" />
  </defs>
  <sodipodi:namedview
     pagecolor="#ffffff"
     bordercolor="#666666"
     borderopacity="1"
     objecttolerance="10"
     gridtolerance="10"
     guidetolerance="10"
     inkscape:pageopacity="0"
     inkscape:pageshadow="2"
     inkscape:window-width="1920"
     inkscape:window-height="994"
     id="namedview4"
     showgrid="false"
     inkscape:zoom="16.126272"
     inkscape:cx="5.4259286"
     inkscape:cy="19.502338"
     inkscape:window-x="0"
     inkscape:window-y="0"
     inkscape:window-maximized="1"
     inkscape:current-layer="svg2"
     inkscape:showpageshadow="2"
     inkscape:pagecheckerboard="0"
     inkscape:deskcolor="#d1d1d1" />
  <ellipse
     style="fill:#ffffff;fill-opacity:1;fill-rule:nonzero;stroke:#4169e1;stroke-width:0;stroke-linecap:round;stroke-linejoin:miter;stroke-miterlimit:4;stroke-dasharray:none;stroke-opacity:1"
     id="path3012"
     cx="8.0276699"
     cy="8.0251369"
     rx="4.2399731"
     ry="4.1393228" />
  <path
     inkscape:connector-curvature="0"
     id="path2986"
     d="m 7.1186815,14.459408 c -0.1139839,-0.05087 -0.2352246,-0.181054 -0.2893251,-0.310662 -0.027878,-0.06681 -0.055712,-0.323563 -0.079535,-0.733889 -0.020152,-0.347128 -0.046697,-0.658829 -0.058972,-0.69266 -0.016296,-0.04488 -0.09594,-0.08721 -0.2944778,-0.156534 -0.1496824,-0.05226 -0.37509,-0.146774 -0.5009062,-0.21003 -0.1258174,-0.06326 -0.2561692,-0.115006 -0.2896709,-0.115006 -0.037575,0 -0.2431067,0.167118 -0.5364569,0.436192 -0.2615487,0.2399 -0.517824,0.457869 -0.5695018,0.48437 -0.1063734,0.05455 -0.3457034,0.06345 -0.4692935,0.01737 -0.098271,-0.03657 -1.1378162,-1.060882 -1.204468,-1.186797 -0.066112,-0.124883 -0.059037,-0.358495 0.015132,-0.500018 0.033765,-0.06447 0.2536421,-0.325518 0.4886201,-0.580206 0.2529448,-0.274163 0.427233,-0.486995 0.427233,-0.521716 0,-0.03227 -0.051756,-0.161571 -0.1150178,-0.287375 C 3.578781,9.9766788 3.4844659,9.7518838 3.4324471,9.6029338 3.3804308,9.4539865 3.3165847,9.3210884 3.290572,9.3076074 3.264558,9.2941308 2.9592263,9.2674376 2.6120545,9.248306 2.2082938,9.2260546 1.936542,9.1976605 1.857923,9.1695159 1.7080988,9.1158802 1.5354863,8.9321923 1.5111005,8.8004434 1.5012404,8.7470027 1.4971559,8.3511163 1.5021075,7.9206852 l 0.009,-0.7826001 0.089961,-0.1127469 C 1.7600451,6.8260913 1.8347775,6.8060767 2.5941359,6.7593758 3.0239326,6.7329431 3.2852054,6.7049484 3.3069086,6.683023 3.3257508,6.6639791 3.3901612,6.5162947 3.4500321,6.3548379 3.5099032,6.1933819 3.6034835,5.9724439 3.6579828,5.8638638 3.712481,5.7552842 3.7570758,5.6425814 3.7570758,5.6134129 3.7570758,5.5842489 3.5773043,5.3632142 3.3575846,5.1222344 3.1378634,4.8812545 2.9276945,4.6438907 2.8905425,4.5947599 2.7860545,4.4565767 2.7507139,4.2854635 2.7920563,4.1178294 2.8232712,3.991255 2.8804555,3.9226384 3.3579856,3.4386848 3.6501496,3.1425955 3.9382089,2.8750911 3.9981183,2.8442329 c 0.1390263,-0.07161 0.3600847,-0.072604 0.4981246,-0.00229 0.058127,0.02963 0.3131306,0.2442938 0.5666792,0.4770293 0.253549,0.2327354 0.4781766,0.4329105 0.4991751,0.4448326 0.022123,0.012564 0.1587059,-0.035421 0.324896,-0.1141319 C 6.0446894,3.5749975 6.280641,3.4778547 6.411332,3.4338131 6.5885356,3.3741004 6.6572928,3.3359456 6.6817583,3.2837398 6.6997979,3.2452376 6.7307517,2.9297247 6.7505252,2.5825943 6.7885657,1.915001 6.8114158,1.8094723 6.9490936,1.6657512 7.1022391,1.5058829 7.1903152,1.4927681 8.0463117,1.5023681 l 0.7796658,0.0088 0.1219723,0.08076 c 0.2098524,0.1389456 0.2352552,0.2253331 0.2846771,0.9681305 0.023923,0.359553 0.050026,0.6817369 0.058007,0.7159635 0.011231,0.048163 0.075498,0.083525 0.2844164,0.1564684 0.148444,0.05183 0.386172,0.1526236 0.5282797,0.2239863 0.142109,0.07136 0.269766,0.1297492 0.283684,0.1297492 0.01394,0 0.24208,-0.1989519 0.507025,-0.4421147 0.264952,-0.2431625 0.530752,-0.467734 0.590655,-0.4990455 0.141626,-0.07401 0.352416,-0.07334 0.507294,0.0016 0.07356,0.0356 0.323359,0.2629314 0.637115,0.5797741 0.538588,0.5438791 0.58103,0.6061034 0.581453,0.8524152 2.96e-4,0.1742098 -0.07729,0.2884913 -0.540298,0.7960559 -0.25176,0.2759788 -0.457753,0.5134821 -0.457753,0.5277841 0,0.0143 0.06574,0.1629618 0.146027,0.3303554 0.08033,0.1673935 0.176102,0.4018234 0.212857,0.5209569 0.04565,0.1479996 0.08545,0.2245042 0.125542,0.2415439 0.03232,0.013714 0.356901,0.04356 0.721349,0.06632 0.723253,0.04516 0.839751,0.07492 0.961018,0.2454546 0.114636,0.1612134 0.127966,0.2820357 0.118038,1.0696971 l -0.0098,0.7534584 -0.08848,0.1258025 c -0.158002,0.2246387 -0.197907,0.2361479 -1.00028,0.2884996 -0.392059,0.02558 -0.71971,0.05339 -0.728114,0.06179 -0.0088,0.0084 -0.05709,0.1336978 -0.108161,0.2784273 -0.05105,0.144732 -0.151536,0.379939 -0.223224,0.5226812 -0.07168,0.142745 -0.126309,0.277146 -0.121373,0.298668 0.0046,0.02155 0.200549,0.247956 0.434688,0.503186 0.234138,0.255238 0.455433,0.52268 0.491764,0.594321 0.07714,0.152175 0.08435,0.31331 0.02069,0.465624 -0.05615,0.134413 -1.009559,1.10337 -1.164522,1.18354 -0.12957,0.06708 -0.365595,0.07422 -0.501219,0.01532 -0.05197,-0.02254 -0.312465,-0.240486 -0.578898,-0.484235 -0.266435,-0.243747 -0.505617,-0.44324 -0.531518,-0.443312 -0.02591,-8.1e-5 -0.175982,0.06007 -0.333517,0.133696 -0.1575367,0.07365 -0.3909697,0.168267 -0.5187387,0.21036 -0.1765997,0.0582 -0.235727,0.09119 -0.2465618,0.137707 -0.0078,0.03366 -0.033824,0.35536 -0.057747,0.714914 -0.052626,0.79082 -0.082849,0.876553 -0.358262,1.015998 -0.07986,0.04043 -0.2120173,0.0474 -0.8807738,0.04645 -0.5918483,-8.66e-4 -0.80861,-0.01086 -0.8748656,-0.04046 z m 1.1596861,-3.511314 c 0.7097729,-0.07436 1.3027827,-0.357424 1.8076534,-0.862782 0.38479,-0.3851712 0.63308,-0.8173544 0.782583,-1.3622096 0.09372,-0.3415753 0.0932,-1.0958235 -10e-4,-1.4415676 C 10.581587,6.2323024 9.8304033,5.4597881 8.7921523,5.147211 8.5502295,5.0743792 8.4845394,5.0674675 8.0141342,5.06542 7.5635715,5.0634651 7.4696409,5.0715875 7.250797,5.1312968 6.1580915,5.4295641 5.3223773,6.3074656 5.0940171,7.3969537 4.8888485,8.375796 5.1888393,9.3748915 5.903555,10.093067 c 0.3742195,0.376028 0.8597725,0.65194 1.3858122,0.787464 0.1500021,0.03867 0.3628709,0.06847 0.666049,0.09323 0.024223,0.0018 0.1695491,-0.0098 0.3229502,-0.02566 z M 7.550311,9.7173708 C 6.8016893,9.5143626 6.2777679,8.8773196 6.2313786,8.1136649 6.1989398,7.5797265 6.3707912,7.1279745 6.7500011,6.7503081 7.4406002,6.06252 8.5433439,6.056073 9.2251943,6.7358347 c 0.561608,0.5598921 0.696364,1.356196 0.347784,2.0551718 -0.2968984,0.5953458 -0.8438507,0.9466763 -1.5147019,0.9729583 -0.2283838,0.0091 -0.341342,-0.0014 -0.5079654,-0.0466 z M 8.3878507,8.9771157 C 8.5946208,8.8997659 8.8412533,8.6705482 8.9449813,8.4593328 9.0181798,8.3102886 9.0270094,8.2606733 9.0270206,7.998739 9.0270261,7.7200941 9.0219243,7.6957561 8.9264109,7.5196267 8.7336215,7.1640936 8.4475708,6.9839365 8.0434969,6.9635635 7.7189012,6.9471943 7.5246146,7.0159423 7.2902869,7.2300802 6.993189,7.5015795 6.8749752,7.8790171 6.9703975,8.2514412 7.0529865,8.573793 7.2279708,8.7926715 7.5223015,8.9418025 7.796885,9.0809289 8.0795316,9.0924598 8.3878531,8.9771205 Z"
     style="fill:url(#linearGradient2);stroke-width:1.08336" />
</svg>
