<?xml version="1.0" encoding="UTF-8" standalone="no"?>
<svg
   width="16"
   height="16"
   version="1.1"
   id="svg1"
   sodipodi:docname="notifications.svg"
   inkscape:version="1.3.2 (091e20ef0f, 2023-11-25)"
   xmlns:inkscape="http://www.inkscape.org/namespaces/inkscape"
   xmlns:sodipodi="http://sodipodi.sourceforge.net/DTD/sodipodi-0.dtd"
   xmlns:xlink="http://www.w3.org/1999/xlink"
   xmlns="http://www.w3.org/2000/svg"
   xmlns:svg="http://www.w3.org/2000/svg">
  <defs
     id="defs1">
    <linearGradient
       inkscape:collect="always"
       xlink:href="#linearGradient1"
       id="linearGradient2"
       x1="208.82494"
       y1="710.15692"
       x2="232.84207"
       y2="686.15546"
       gradientUnits="userSpaceOnUse"
       gradientTransform="matrix(0.49964308,0,0,0.50002719,-102.3379,-341.09634)" />
    <linearGradient
       id="linearGradient1"
       inkscape:collect="always">
      <stop
         style="stop-color:#9955ff;stop-opacity:1;"
         offset="0"
         id="stop1" />
      <stop
         style="stop-color:#ccaaff;stop-opacity:1"
         offset="1"
         id="stop2" />
    </linearGradient>
  </defs>
  <sodipodi:namedview
     id="namedview1"
     pagecolor="#ffffff"
     bordercolor="#000000"
     borderopacity="0.25"
     inkscape:showpageshadow="2"
     inkscape:pageopacity="0.0"
     inkscape:pagecheckerboard="0"
     inkscape:deskcolor="#d1d1d1"
     inkscape:zoom="12.326157"
     inkscape:cx="22.148022"
     inkscape:cy="6.5308271"
     inkscape:window-width="1920"
     inkscape:window-height="994"
     inkscape:window-x="0"
     inkscape:window-y="0"
     inkscape:window-maximized="1"
     inkscape:current-layer="svg1" />
  <style
     type="text/css"
     id="style1">.ColorScheme-Text {
            color:#d8dee9;
        }</style>
  <path
     class="ColorScheme-Text"
     d="m -15.527469,-2.5505014 a 2,2 0 0 0 -0.26953,1 2,2 0 0 0 2,1.99999997 2,2 0 0 0 2,-1.99999997 2,2 0 0 0 -0.27148,-1 z m 1.7305,-13.0000006 a 1,1 0 0 0 -1,1 1,1 0 0 0 0.0098,0.12891 4,4 0 0 0 -3.0098,3.871101 c 0,2.9999996 -1,3.9999996 -3,5.9999996 v 1 h 13.9999996 v -1 c -2,-2 -3,-3 -3,-5.9999996 a 4,4 0 0 0 -3.0097996,-3.871101 1,1 0 0 0 0.0098,-0.12891 1,1 0 0 0 -1,-1 z m 0,2 a 3,3 0 0 1 3,3.000001 c 0,2.9999996 0.58594,3.9999996 2.5858996,5.9999996 H -19.383069 c 2,-2 2.5859,-3 2.5859,-5.9999996 a 3,3 0 0 1 3,-3.000001 z"
     fill="currentColor"
     fill-rule="evenodd"
     id="path1" />
  <path
     id="Path_164"
     data-name="Path 164"
     d="M 13.396434,10.025838 12.249681,9.2607955 A 1.1242615,1.1251267 0 0 1 11.747517,8.3232443 V 6.5003954 a 3.7475405,3.7504217 0 0 0 -2.3302089,-3.4676381 1.4892726,1.4904178 0 0 0 -2.8346439,0 3.7475405,3.7504217 0 0 0 -2.330213,3.4676381 v 1.8228489 a 1.1242615,1.1251267 0 0 1 -0.500662,0.9360504 l -1.14826,0.7665433 a 1.3491144,1.350152 0 0 0 0.749522,2.475383 h 3.147931 a 1.4990187,1.500171 0 0 0 2.9980369,0 h 3.1479319 a 1.3491144,1.350152 0 0 0 0.749519,-2.475383 z m -0.749512,1.725094 H 3.3530312 A 0.59960638,0.60006747 0 0 1 3.0202462,10.648369 L 4.1677452,9.883328 A 1.8737696,1.8752105 0 0 0 5.0019532,8.3232443 V 6.5003954 a 2.9980354,3.0003407 0 0 1 5.9960688,0 v 1.8228489 a 1.8737696,1.8752105 0 0 0 0.834204,1.5600837 l 1.148256,0.765793 a 0.59960638,0.60006747 0 0 1 -0.33356,1.101811 z m -4.6469468,1.50008 a 0.74950779,0.75008483 0 0 1 -0.749517,-0.750041 h 1.499006 a 0.74950779,0.75008483 0 0 1 -0.749513,0.750041 z m 0.374757,-8.6259681 a 0.37475403,0.37504215 0 0 1 -0.374757,0.37502 1.4990162,1.5001684 0 0 0 -1.499002,1.5000812 0.37476082,0.3750489 0 0 1 -0.749521,0 2.2485243,2.2502535 0 0 1 2.248523,-2.250122 0.37475403,0.37504215 0 0 1 0.374757,0.3750208 z"
     style="fill:url(#linearGradient2);fill-opacity:1;stroke-width:0.749735" />
</svg>
