<?xml version="1.0" encoding="UTF-8" standalone="no"?>
<svg
   viewBox="0 0 16 16"
   version="1.1"
   id="svg1"
   sodipodi:docname="window-pin.svg"
   inkscape:version="1.3.2 (091e20ef0f, 2023-11-25)"
   xmlns:inkscape="http://www.inkscape.org/namespaces/inkscape"
   xmlns:sodipodi="http://sodipodi.sourceforge.net/DTD/sodipodi-0.dtd"
   xmlns:xlink="http://www.w3.org/1999/xlink"
   xmlns="http://www.w3.org/2000/svg"
   xmlns:svg="http://www.w3.org/2000/svg">
  <defs
     id="defs1">
    <linearGradient
       inkscape:collect="always"
       xlink:href="#linearGradient5"
       id="linearGradient8"
       x1="-44.5"
       y1="50.700001"
       x2="-41"
       y2="48"
       gradientUnits="userSpaceOnUse"
       gradientTransform="matrix(2.0909091,0,0,2.0909091,95.295453,-92.259091)" />
    <linearGradient
       id="linearGradient5"
       inkscape:collect="always">
      <stop
         style="stop-color:#00ccff;stop-opacity:1"
         offset="0"
         id="stop3" />
      <stop
         style="stop-color:#bc5fd3;stop-opacity:1"
         offset="1"
         id="stop4" />
    </linearGradient>
  </defs>
  <sodipodi:namedview
     id="namedview1"
     pagecolor="#ffffff"
     bordercolor="#000000"
     borderopacity="0.25"
     inkscape:showpageshadow="2"
     inkscape:pageopacity="0.0"
     inkscape:pagecheckerboard="0"
     inkscape:deskcolor="#d1d1d1"
     showgrid="true"
     inkscape:zoom="23.96875"
     inkscape:cx="9.011734"
     inkscape:cy="7.5723598"
     inkscape:window-width="1920"
     inkscape:window-height="994"
     inkscape:window-x="0"
     inkscape:window-y="0"
     inkscape:window-maximized="1"
     inkscape:current-layer="svg1">
    <inkscape:grid
       id="grid1"
       units="px"
       originx="0"
       originy="0"
       spacingx="1"
       spacingy="1"
       empcolor="#0099e5"
       empopacity="0.30196078"
       color="#0099e5"
       opacity="0.14901961"
       empspacing="5"
       dotted="false"
       gridanglex="30"
       gridanglez="30"
       visible="true" />
  </sodipodi:namedview>
  <style
     type="text/css"
     id="current-color-scheme">
        .ColorScheme-Text {
            color:#232629;
        }
    </style>
  <path
     d="m 29.232073,-2.0052151 -5.146,5.146 -1.5,-1.5 -0.708,0.708 2.647,2.646 -3.647,3.646 0.708,0.708 3.646,-3.647 2.646,2.647 0.708,-0.708 -1.5,-1.5 5.146,-5.14600002 z"
     class="ColorScheme-Text"
     fill="currentColor"
     id="path1" />
  <path
     style="fill:url(#linearGradient8);fill-opacity:1;stroke-width:1.4375"
     d="M 9.4374289,2.25 C 8.8778807,2.8095398 8.764152,3.8087518 9.4151399,4.9003841 L 6.3604471,6.9443439 C 5.9806648,6.7910803 5.5729898,6.6768351 5.1700298,6.6748049 4.6462299,6.6718776 4.1368238,6.8320203 3.6876025,7.28125 l 2.15625,2.15625 -2.875,2.875 L 2.25,13.75 l 1.4375,-0.71875 2.875,-2.875 2.15625,2.15625 C 9.5143702,11.516879 9.412154,10.510054 9.0556561,9.6396449 L 11.099616,6.5849689 C 12.191248,7.2357748 13.19046,7.1220398 13.75,6.5623869 Z"
     id="path4" />
</svg>
