<?xml version="1.0" encoding="UTF-8" standalone="no"?>
<svg
   viewBox="0 0 22 22"
   version="1.1"
   id="svg1"
   sodipodi:docname="preferences-system-search-symbolic.svg"
   inkscape:version="1.3.2 (091e20ef0f, 2023-11-25)"
   width="22"
   height="22"
   xmlns:inkscape="http://www.inkscape.org/namespaces/inkscape"
   xmlns:sodipodi="http://sodipodi.sourceforge.net/DTD/sodipodi-0.dtd"
   xmlns="http://www.w3.org/2000/svg"
   xmlns:svg="http://www.w3.org/2000/svg">
  <sodipodi:namedview
     id="namedview1"
     pagecolor="#ffffff"
     bordercolor="#000000"
     borderopacity="0.25"
     inkscape:showpageshadow="2"
     inkscape:pageopacity="0.0"
     inkscape:pagecheckerboard="0"
     inkscape:deskcolor="#d1d1d1"
     inkscape:zoom="11.984375"
     inkscape:cx="9.095176"
     inkscape:cy="-0.37548892"
     inkscape:window-width="1920"
     inkscape:window-height="994"
     inkscape:window-x="0"
     inkscape:window-y="0"
     inkscape:window-maximized="1"
     inkscape:current-layer="svg1"
     showgrid="true">
    <inkscape:grid
       id="grid1"
       units="px"
       originx="0"
       originy="0"
       spacingx="1"
       spacingy="1"
       empcolor="#0099e5"
       empopacity="0.30196078"
       color="#0099e5"
       opacity="0.14901961"
       empspacing="5"
       dotted="false"
       gridanglex="30"
       gridanglez="30"
       visible="true" />
  </sodipodi:namedview>
  <defs
     id="defs1">
    <style
       type="text/css"
       id="style1">.ColorScheme-Text {
        color:#d8dee9;
      }</style>
  </defs>
  <path
     d="m 13.25835,3 c -3.17128,3.082e-4 -5.7414276,2.5703293 -5.7417375,5.7413913 1.28e-4,1.3975657 0.5003709,2.6774977 1.3302935,3.6730317 l -1.1778777,1.177822 c -0.0048,0.0046 -0.00604,0.01002 -0.0099,0.01478 -0.5813087,-0.27486 -1.2931285,-0.186859 -1.772686,0.292607 l -2.4284406,2.427347 c -0.6106689,0.610649 -0.6106689,1.60356 0,2.214188 0.6118139,0.611781 1.6024962,0.611781 2.2143023,0 l 2.4284597,-2.427321 c 0.4808052,-0.48078 0.5685672,-1.19241 0.2921407,-1.773909 0.0047,-0.0043 0.0097,-0.005 0.01422,-0.0096 l 1.1778849,-1.177738 c 0.9955827,0.829845 2.2755987,1.330036 3.6732417,1.330161 3.171276,-3.19e-4 5.741391,-2.570326 5.741701,-5.7413412 -2.81e-4,-3.1710965 -2.570405,-5.7411051 -5.741665,-5.7414139 z m 0,9.394959 c -2.016282,-8e-4 -3.6528636,-1.63744 -3.6538377,-3.6535427 0.00143,-2.0161626 1.6375237,-3.6527176 3.6538377,-3.6536312 2.016265,0.0011 3.652853,1.6374427 3.65382,3.6536312 -0.0015,2.0161027 -1.637555,3.6526047 -3.65382,3.6535427 z"
     id="path2-3-6"
     style="fill:#00ccff;fill-opacity:1;stroke-width:0.031251" />
</svg>
