<?xml version="1.0" encoding="UTF-8" standalone="no"?>
<svg
   viewBox="0 0 16 16"
   version="1.1"
   id="svg1"
   sodipodi:docname="system-suspend-hibernate.svg"
   inkscape:version="1.3.2 (091e20ef0f, 2023-11-25)"
   width="16"
   height="16"
   xmlns:inkscape="http://www.inkscape.org/namespaces/inkscape"
   xmlns:sodipodi="http://sodipodi.sourceforge.net/DTD/sodipodi-0.dtd"
   xmlns="http://www.w3.org/2000/svg"
   xmlns:svg="http://www.w3.org/2000/svg">
  <sodipodi:namedview
     id="namedview1"
     pagecolor="#ffffff"
     bordercolor="#000000"
     borderopacity="0.25"
     inkscape:showpageshadow="2"
     inkscape:pageopacity="0.0"
     inkscape:pagecheckerboard="0"
     inkscape:deskcolor="#d1d1d1"
     inkscape:zoom="12.326157"
     inkscape:cx="11.763602"
     inkscape:cy="3.8535936"
     inkscape:window-width="1920"
     inkscape:window-height="994"
     inkscape:window-x="0"
     inkscape:window-y="0"
     inkscape:window-maximized="1"
     inkscape:current-layer="svg1" />
  <defs
     id="defs1">
    <style
       type="text/css"
       id="style1">.ColorScheme-Text {
        color:#d8dee9;
      }</style>
  </defs>
  <path
     d="M 5.9617107,4.3258599 5.5431036,4.567657 6.3386969,5.9482464 5.2519067,5.6570506 5.124496,6.1250425 6.6818761,6.5410455 7.4410565,7.8566707 H 5.9226927 L 4.783913,6.717895 4.4407116,7.061094 5.2363091,7.8566815 H 3.6425264 V 8.3402848 H 5.2363091 L 4.4407116,9.1384736 4.783913,9.479071 5.9226927,8.3402968 H 7.4384585 L 6.6792739,9.6533285 5.124496,10.07193 5.2492967,10.539923 6.3386897,10.246126 5.5405038,11.626712 5.9591007,11.868511 6.7572889,10.487922 7.0484961,11.57731 7.5165012,11.45251 7.0978959,9.895139 7.9975166,8.3403616 h 0.0021 l 0.8996243,1.5600364 -0.4185992,1.554774 0.4679991,0.124802 0.2911945,-1.08679 0.7981917,1.377989 0.4186,-0.241799 -0.7955944,-1.380591 1.0867954,0.291204 0.127401,-0.465399 L 9.3178582,9.6559793 8.558673,8.3403568 h 1.518394 L 11.215842,9.479134 11.55904,9.1385282 10.763447,8.34034 h 1.593792 V 7.8567403 H 10.763647 L 11.559241,7.061154 11.535799,7.03251 h -0.631713 l -0.82681,0.8242093 H 8.5589832 L 9.0373808,7.03251 H 8.4835913 l -0.4835979,0.8242093 -0.0021,-0.0021 L 7.1008683,6.2998454 7.5194712,4.7450663 7.0514727,4.6176676 6.7602727,5.707054 Z m 5.1870173,0.8891717 h 0.728038 l -0.01562,0.3640052 H 10.420724 L 11.148758,4.4896479 H 10.420725 V 4.1282527 h 1.456002 z M 9.2091069,6.1848133 H 9.9371407 L 9.9215227,6.5462181 H 8.4836885 L 9.2090601,5.4594291 H 8.4836885 V 5.0954173 h 1.4534012 z"
     id="path1-0"
     style="fill:#5599ff;fill-opacity:1;stroke-width:0.66561" />
  <path
     d="M 3.754343,3.7624883 C 1.3960921,6.1222381 1.4153845,9.973908 3.812165,12.309231 c 2.2325448,2.175244 5.8301991,2.264164 8.160218,0.193807 2.041582,-1.814051 2.5834,-4.7042157 1.434826,-7.0907671 -0.137854,-0.2864324 -0.498739,-0.3847814 -0.770322,-0.219806 -0.243493,0.1479385 -0.325785,0.4553457 -0.203376,0.712729 0.946363,1.9898672 0.460772,4.4019101 -1.292033,5.8737301 -1.7779089,1.492901 -4.4157582,1.51802 -6.2202724,0.0574 C 2.619764,9.973538 2.4878935,6.5732307 4.5255973,4.5342382 6.0106359,3.0482551 8.2406386,2.6815349 10.100645,3.569014 10.356342,3.6910073 10.661894,3.60706 10.8089,3.3647769 L 10.81,3.3634569 C 10.974165,3.0925634 10.877354,2.7321924 10.592123,2.5945397 8.313772,1.4954308 5.5755421,1.9403059 3.7541948,3.7627955 Z"
     id="path1-0-9-2-6"
     style="fill:#5599ff;fill-opacity:1;stroke-width:0.218218" />
</svg>
