<?xml version="1.0" encoding="UTF-8" standalone="no"?>
<svg
   viewBox="0 0 16 16"
   version="1.1"
   id="svg1"
   sodipodi:docname="system-lock-screen.svg"
   inkscape:version="1.3.2 (091e20ef0f, 2023-11-25)"
   width="16"
   height="16"
   xmlns:inkscape="http://www.inkscape.org/namespaces/inkscape"
   xmlns:sodipodi="http://sodipodi.sourceforge.net/DTD/sodipodi-0.dtd"
   xmlns="http://www.w3.org/2000/svg"
   xmlns:svg="http://www.w3.org/2000/svg">
  <sodipodi:namedview
     id="namedview1"
     pagecolor="#ffffff"
     bordercolor="#000000"
     borderopacity="0.25"
     inkscape:showpageshadow="2"
     inkscape:pageopacity="0.0"
     inkscape:pagecheckerboard="0"
     inkscape:deskcolor="#d1d1d1"
     inkscape:zoom="17.431818"
     inkscape:cx="12.391134"
     inkscape:cy="12.649283"
     inkscape:window-width="1920"
     inkscape:window-height="994"
     inkscape:window-x="0"
     inkscape:window-y="0"
     inkscape:window-maximized="1"
     inkscape:current-layer="svg1" />
  <defs
     id="defs1">
    <style
       type="text/css"
       id="style1">.ColorScheme-Text {
        color:#d8dee9;
      }</style>
  </defs>
  <path
     class="fil0"
     d="M 5.3012532,7.9749676 C 5.8716182,7.4259445 6.7403086,7.334127 7.418823,7.744394 l 2.962225,-2.8514227 c 0.423173,-0.4073093 1.04305,0.2365976 0.619877,0.6440029 l -0.183996,0.1770596 0.407345,0.4231973 c 0.318798,0.3311754 -0.196373,0.8270745 -0.515171,0.4958931 L 10.301764,6.209993 10.13617,6.3693527 10.543521,6.7925079 C 10.880019,7.1420973 10.364854,7.6380322 10.02835,7.288413 L 9.6209991,6.8652758 8.0386999,8.3883788 C 8.4412212,9.0642836 8.3156954,9.96502 7.7453245,10.514019 7.0461698,11.187014 5.9267761,11.165702 5.2537693,10.466619 4.5807625,9.7674404 4.6020984,8.6480224 5.3012292,7.9750336 Z M 5.9211301,8.6189224 C 5.5715527,8.9554558 5.5612267,9.4970869 5.8977301,9.8466402 6.2342275,10.196266 6.7758765,10.206556 7.1254537,9.8699202 7.4750309,9.5333628 7.4853509,8.9917858 7.1488536,8.6421844 6.8123502,8.292565 6.2707074,8.282287 5.9211241,8.6189044 Z"
     id="path1-4-2"
     style="fill:#37c8ab;fill-opacity:1;fill-rule:nonzero;stroke:#37c8ab;stroke-width:0.0255382;stroke-opacity:1;image-rendering:optimizeQuality;shape-rendering:geometricPrecision;text-rendering:geometricPrecision" />
  <path
     d="M 3.7542399,3.7630113 C 1.3961121,6.1226631 1.415408,9.974134 3.8121399,12.30933 6.044562,14.48447 9.6420352,14.573348 11.971939,12.503106 14.013418,10.689153 14.555211,7.7991379 13.406693,5.4127084 13.268849,5.1263049 12.907979,5.0279831 12.63642,5.1929048 12.39294,5.3408165 12.310645,5.648256 12.433044,5.9056015 13.379363,7.8953657 12.893801,10.307283 11.141073,11.779063 9.3632636,13.271896 6.7255426,13.297018 4.9211179,11.836363 2.6197919,9.973666 2.4879242,6.5735623 4.5255326,4.5346519 6.0104939,3.0487186 8.2403836,2.6820472 10.100296,3.5694637 c 0.255678,0.1219857 0.561221,0.03834 0.708221,-0.2042277 l 0.0012,-0.0018 C 10.974087,3.0925425 10.877355,2.7321951 10.592067,2.5945374 8.3138294,1.4954353 5.5757347,1.9403165 3.7544799,3.7627113 Z"
     id="path1-0-9-9-7"
     style="fill:#37c8ab;fill-opacity:1;stroke-width:0.218215" />
</svg>
