<?xml version="1.0" encoding="UTF-8" standalone="no"?>
<svg
   viewBox="0 0 16 16"
   version="1.1"
   id="svg1"
   sodipodi:docname="system-shutdown.svg"
   inkscape:version="1.3.2 (091e20ef0f, 2023-11-25)"
   width="16"
   height="16"
   xmlns:inkscape="http://www.inkscape.org/namespaces/inkscape"
   xmlns:sodipodi="http://sodipodi.sourceforge.net/DTD/sodipodi-0.dtd"
   xmlns="http://www.w3.org/2000/svg"
   xmlns:svg="http://www.w3.org/2000/svg">
  <sodipodi:namedview
     id="namedview1"
     pagecolor="#ffffff"
     bordercolor="#000000"
     borderopacity="0.25"
     inkscape:showpageshadow="2"
     inkscape:pageopacity="0.0"
     inkscape:pagecheckerboard="0"
     inkscape:deskcolor="#d1d1d1"
     inkscape:zoom="12.326157"
     inkscape:cx="0.56789801"
     inkscape:cy="0.44620558"
     inkscape:window-width="1920"
     inkscape:window-height="994"
     inkscape:window-x="0"
     inkscape:window-y="0"
     inkscape:window-maximized="1"
     inkscape:current-layer="svg1" />
  <defs
     id="defs1">
    <style
       type="text/css"
       id="style1">.ColorScheme-Text {
        color:#d8dee9;
      }</style>
  </defs>
  <path
     d="M 3.7542769,3.7627986 C 1.3961031,6.1224701 1.4153973,9.9740283 3.8121615,12.309277 6.0446296,14.484466 9.6421747,14.573374 11.972127,12.503088 14.013646,10.689096 14.555446,7.7990023 13.4069,5.412523 13.269052,5.1261023 12.908182,5.0277644 12.63662,5.1927337 12.393135,5.340655 12.310829,5.6480632 12.433234,5.9054421 13.379567,7.8952359 12.894005,10.30721 11.141247,11.778987 9.3633917,13.271849 6.7256247,13.296961 4.9211572,11.836401 2.6197851,9.9736724 2.487916,6.5734638 4.5255639,4.5345381 c 1.4849926,-1.4859437 3.714931,-1.8526494 5.5748811,-0.9652 0.255682,0.1219921 0.561224,0.03804 0.708227,-0.2042273 l 0.0018,-0.00171 C 10.974386,3.0925261 10.877655,2.7321678 10.592354,2.5945232 8.3140179,1.4954508 5.5758686,1.9402987 3.7545714,3.7627386 Z"
     id="path1-0-4"
     style="fill:#c83771;stroke-width:0.21822" />
  <path
     d="m 5.3485609,8.4078495 c -0.00957,-0.057645 -0.01739,-0.1158119 -0.023462,-0.1745273 0.00385,0.034898 0.00692,0.069178 0.010738,0.1040543 -0.027011,-0.2650623 -0.020334,-0.5327916 0.018688,-0.7962532 -0.00547,0.034655 -0.010408,0.068743 -0.015907,0.1034027 0.040813,-0.2651602 0.1156356,-0.5231154 0.2232061,-0.7692613 -0.01414,0.03271 -0.028294,0.06542 -0.042411,0.096968 0.1099715,-0.2495662 0.2520384,-0.4844344 0.4231393,-0.6983061 -0.022733,0.02844 -0.046043,0.057443 -0.068806,0.085872 0.1728564,-0.2143998 0.3723441,-0.4043949 0.5948984,-0.5665667 -0.029512,0.021283 -0.059599,0.0432 -0.089122,0.064517 C 6.603833,5.695036 6.8482431,5.5629615 7.1068782,5.4648657 c -0.03336,0.012561 -0.066696,0.025032 -0.098894,0.037622 0.2469092,-0.092585 0.5051753,-0.1529989 0.7678686,-0.1814208 -0.03488,0.0042 -0.06915,0.00694 -0.1040189,0.0108 0.2632269,-0.026672 0.5285265,-0.02023 0.7901109,0.019147 -0.034618,-0.00575 -0.06871,-0.01033 -0.1033571,-0.015882 0.2609899,0.03996 0.5153424,0.1133991 0.7584913,0.2178741 -0.032664,-0.014123 -0.06537,-0.02825 -0.096898,-0.04236 0.2534348,0.1105195 0.4921171,0.2543176 0.7074855,0.4271155 -0.028409,-0.022699 -0.057374,-0.046061 -0.085799,-0.068775 0.2142026,0.1727782 0.4039775,0.3722098 0.5659375,0.594738 -0.02128,-0.029479 -0.04312,-0.059581 -0.06446,-0.089112 0.162493,0.2242875 0.294353,0.4687018 0.391631,0.7279331 -0.01253,-0.033329 -0.02494,-0.066707 -0.03753,-0.098905 0.09236,0.2469419 0.15258,0.5052719 0.180207,0.7686116 -0.004,-0.03489 -0.0064,-0.069172 -0.01068,-0.1040539 0.02653,0.2633149 0.01982,0.5287217 -0.01972,0.7904336 0.0059,-0.034629 0.01037,-0.068747 0.01594,-0.103407 -0.04017,0.261119 -0.113712,0.5156257 -0.218879,0.758347 0.01411,-0.032692 0.02823,-0.06539 0.04246,-0.096963 -0.110659,0.2536099 -0.255125,0.4918946 -0.428014,0.7074714 0.02269,-0.028426 0.04611,-0.057409 0.06882,-0.085885 -0.172853,0.2144085 -0.3729011,0.4038077 -0.5948947,0.5665757 0.029473,-0.02128 0.059609,-0.04321 0.089127,-0.06453 -0.2213449,0.159881 -0.4622492,0.290893 -0.7179734,0.388465 0.033346,-0.01253 0.066693,-0.02497 0.098895,-0.03765 -0.2504385,0.09482 -0.5128112,0.15688 -0.7789727,0.18521 0.034879,-0.004 0.069148,-0.0065 0.1040157,-0.01082 -0.2643848,0.0267 -0.5296888,0.02012 -0.7924273,-0.01925 0.034641,0.006 0.068716,0.0103 0.1033577,0.01591 -0.066965,-0.01098 -0.1338958,-0.02305 -0.1996158,-0.0374 0.056289,0.230401 0.1125473,0.460807 0.1682475,0.690618 0.00283,-0.0033 0.0066,-0.006 0.00951,-0.0088 0.075996,-0.0724 0.124514,-0.181944 0.1277066,-0.286815 0.00265,-0.100887 -0.039082,-0.221926 -0.1132519,-0.292728 -0.076426,-0.07319 -0.1770493,-0.12899 -0.286632,-0.127592 -0.1090117,0.0026 -0.2118863,0.03658 -0.2926319,0.113506 -0.00297,0.0031 -0.00659,0.006 -0.00951,0.0089 -0.104492,0.09952 -0.1494212,0.250927 -0.1164099,0.391467 0.031979,0.135891 0.1445822,0.268507 0.2852262,0.299748 0.6081864,0.132465 1.2547957,0.118583 1.8491445,-0.07743 0.5400035,-0.178261 1.0383134,-0.474073 1.4362794,-0.883644 0.397946,-0.408411 0.697352,-0.9096719 0.859963,-1.4571631 0.16762,-0.5636084 0.187432,-1.1719622 0.06324,-1.7461271 C 11.29886,6.6873319 11.031925,6.1653709 10.66322,5.7267563 10.48082,5.5101139 10.267583,5.3217144 10.039937,5.1538259 9.8099961,4.9847156 9.558181,4.8556824 9.2948652,4.7466598 9.0246491,4.6351541 8.7451379,4.5709642 8.4569403,4.5297604 8.1600964,4.4866133 7.865462,4.4945405 7.5690578,4.5266936 7.3127527,4.5547136 7.0602704,4.6152421 6.819217,4.705652 6.5518526,4.8052732 6.297303,4.9255087 6.0608419,5.0873423 5.8267304,5.2480809 5.6078096,5.4271585 5.4176359,5.6388268 5.2280564,5.8499312 5.0577069,6.0800604 4.9233739,6.3301937 4.6449519,6.8499378 4.4935051,7.4377064 4.5002125,8.0287331 c 0.00176,0.1896515 0.02064,0.3808834 0.051328,0.5677608 0.016618,0.1007157 0.1032478,0.2060328 0.187763,0.256791 0.084532,0.050723 0.2091153,0.074654 0.3054315,0.0474 0.1033245,-0.0294 0.2045451,-0.090713 0.2568194,-0.1880234 0.052268,-0.097305 0.064563,-0.1950004 0.047017,-0.3050159 z"
     id="path2-2-8"
     style="fill:#c83771;stroke-width:0.0081961" />
  <path
     d="M 3.2104731,13.11186 7.9161563,8.7799079 C 8.0321883,8.6730955 8.0417868,8.3597927 7.8548612,8.1567383 7.667934,7.9536851 7.3181453,7.9712247 7.2021133,8.0780415 L 2.5331946,12.376152 c -0.1160326,0.106822 -0.1256089,0.420096 0.061321,0.623147 0.1869291,0.203061 0.4999275,0.219386 0.6159587,0.112561 z"
     id="path2653-4-7"
     style="fill:#c83771;fill-opacity:0.986348;stroke-width:0.188973"
     sodipodi:nodetypes="sssssss" />
</svg>
