<?xml version="1.0" encoding="UTF-8" standalone="no"?>
<svg
   viewBox="0 0 16 16"
   version="1.1"
   id="svg1"
   sodipodi:docname="system-suspend.svg"
   inkscape:version="1.3.2 (091e20ef0f, 2023-11-25)"
   width="16"
   height="16"
   xmlns:inkscape="http://www.inkscape.org/namespaces/inkscape"
   xmlns:sodipodi="http://sodipodi.sourceforge.net/DTD/sodipodi-0.dtd"
   xmlns="http://www.w3.org/2000/svg"
   xmlns:svg="http://www.w3.org/2000/svg">
  <sodipodi:namedview
     id="namedview1"
     pagecolor="#ffffff"
     bordercolor="#000000"
     borderopacity="0.25"
     inkscape:showpageshadow="2"
     inkscape:pageopacity="0.0"
     inkscape:pagecheckerboard="0"
     inkscape:deskcolor="#d1d1d1"
     inkscape:zoom="12.326157"
     inkscape:cx="16.469042"
     inkscape:cy="3.8535936"
     inkscape:window-width="1920"
     inkscape:window-height="994"
     inkscape:window-x="0"
     inkscape:window-y="0"
     inkscape:window-maximized="1"
     inkscape:current-layer="svg1" />
  <defs
     id="defs1">
    <style
       type="text/css"
       id="style1">.ColorScheme-Text {
        color:#d8dee9;
      }</style>
  </defs>
  <path
     d="m 8.7266278,9.5521837 c -0.4835671,0 -0.9364549,-0.1318164 -1.3260817,-0.3612697 h -1.875552 c -0.047352,0 -0.085085,-0.038754 -0.085085,-0.085278 0,-0.047418 0.038718,-0.085273 0.085085,-0.085273 H 7.1451393 C 6.5122989,8.5404558 6.1034175,7.7801988 6.1034175,6.9258405 c 0,-0.6276054 0.2246466,-1.2349062 0.6319098,-1.7104644 C 7.0047363,4.9016331 7.3426437,4.65722 7.7183235,4.4999168 5.9200101,4.6440122 4.5000189,6.1567701 4.5000189,7.9945866 c 0,1.9328641 1.5700524,3.5053884 3.4999404,3.5053884 0.8741803,0 1.6745497,-0.322531 2.2879587,-0.855211 H 7.3162599 c -0.047388,0 -0.085153,-0.03872 -0.085153,-0.08528 0,-0.04744 0.038658,-0.0852 0.085153,-0.0852 H 10.47145 c 0.634523,-0.634566 1.028619,-1.5118237 1.028619,-2.4795589 0,-0.3533238 -0.05096,-0.6961473 -0.15181,-1.0257807 -0.02201,1.4283321 -1.190065,2.5832794 -2.6214728,2.5832794 z"
     id="path4-7-1"
     style="color:#d6dbf1;fill:#ffd42a;fill-opacity:1;fill-rule:nonzero;stroke:none;stroke-width:0.018149;stroke-opacity:1"
     class="ColorScheme-Text" />
  <path
     d="m 3.754307,3.7626422 c -2.3582148,2.3597131 -2.33892,6.2113283 0.057888,8.5466138 2.2325053,2.175217 5.8301102,2.264125 8.160096,0.19381 2.041552,-1.814021 2.583368,-4.7041556 1.434805,-7.0906733 -0.137851,-0.286425 -0.49873,-0.3847626 -0.770304,-0.2197944 -0.243486,0.1479258 -0.325785,0.4553418 -0.203377,0.7127214 0.946345,1.9898277 0.460769,4.4018383 -1.292019,5.8736393 -1.7778784,1.49288 -4.4156933,1.517996 -6.2201825,0.05743 C 2.6198036,9.9736255 2.4879344,6.5733699 4.5256131,4.5344084 6.0106287,3.04844 8.2406001,2.6817272 10.100579,3.569192 c 0.255691,0.121995 0.56124,0.038046 0.708245,-0.2042298 l 0.0012,-0.0018 C 10.974197,3.0925382 10.877459,2.7321716 10.592167,2.594525 8.3138343,1.4954456 5.5756443,1.9402994 3.7543202,3.7627724 Z"
     id="path1-0-9-8-0"
     style="fill:#ffd42a;fill-opacity:1;stroke-width:0.218219" />
</svg>
