<?xml version="1.0" encoding="UTF-8" standalone="no"?>
<svg
   viewBox="0 0 16 16"
   version="1.1"
   id="svg1"
   sodipodi:docname="system-search.svg"
   inkscape:version="1.3.2 (091e20ef0f, 2023-11-25)"
   width="100%"
   height="100%"
   xmlns:inkscape="http://www.inkscape.org/namespaces/inkscape"
   xmlns:sodipodi="http://sodipodi.sourceforge.net/DTD/sodipodi-0.dtd"
   xmlns="http://www.w3.org/2000/svg"
   xmlns:svg="http://www.w3.org/2000/svg">
  <sodipodi:namedview
     id="namedview1"
     pagecolor="#ffffff"
     bordercolor="#000000"
     borderopacity="0.25"
     inkscape:showpageshadow="2"
     inkscape:pageopacity="0.0"
     inkscape:pagecheckerboard="0"
     inkscape:deskcolor="#d1d1d1"
     inkscape:zoom="16.948466"
     inkscape:cx="4.8381961"
     inkscape:cy="3.6876494"
     inkscape:window-width="1920"
     inkscape:window-height="994"
     inkscape:window-x="0"
     inkscape:window-y="0"
     inkscape:window-maximized="1"
     inkscape:current-layer="svg1" />
  <defs
     id="defs1">
    <style
       type="text/css"
       id="style1">.ColorScheme-Text {
        color:#d8dee9;
      }</style>
  </defs>
  <path
     d="m 9.9757075,1.0000398 c -2.7748545,2.73e-4 -5.0237228,2.249021 -5.0239938,5.023687 1.1e-4,1.2228667 0.437821,2.3428088 1.164,3.2138967 l -1.030638,1.0305835 c -0.0044,0.004 -0.0056,0.0088 -0.0083,0.01294 -0.508644,-0.240487 -1.131484,-0.163487 -1.551091,0.256046 l -2.124882,2.123921 c -0.53433395,0.534323 -0.53433395,1.403113 0,1.937409 0.535339,0.535308 1.402181,0.535308 1.937504,0 l 2.124894,-2.123894 c 0.420701,-0.420683 0.497498,-1.043352 0.255622,-1.552163 0.0043,-0.0037 0.0081,-0.0044 0.01242,-0.0084 L 6.7619087,9.8834785 C 7.6330416,10.60959 8.7530484,11.047253 9.9759799,11.047363 12.750837,11.04709 14.999677,8.7983447 14.999948,6.0237208 14.999699,3.2490228 12.750855,1.0002678 9.9760121,0.9999998 Z m 0,8.2205483 C 8.2114718,9.2198015 6.7794697,7.7878349 6.7786177,6.0237558 c 0.0012,-1.764133 1.4328286,-3.196123 3.1970898,-3.19692 1.7642275,0.0014 3.1962315,1.432756 3.1970785,3.19692 -0.0013,1.7640791 -1.432851,3.1960125 -3.1970785,3.1968323 z"
     id="path2-3-6"
     style="fill:#058bce;fill-opacity:1;stroke-width:0.0273451" />
</svg>
