<?xml version="1.0" encoding="UTF-8" standalone="no"?>
<svg
   viewBox="0 0 16 16"
   version="1.1"
   id="svg1"
   sodipodi:docname="system-reboot.svg"
   inkscape:version="1.3.2 (091e20ef0f, 2023-11-25)"
   xmlns:inkscape="http://www.inkscape.org/namespaces/inkscape"
   xmlns:sodipodi="http://sodipodi.sourceforge.net/DTD/sodipodi-0.dtd"
   xmlns="http://www.w3.org/2000/svg"
   xmlns:svg="http://www.w3.org/2000/svg">
  <sodipodi:namedview
     id="namedview1"
     pagecolor="#ffffff"
     bordercolor="#000000"
     borderopacity="0.25"
     inkscape:showpageshadow="2"
     inkscape:pageopacity="0.0"
     inkscape:pagecheckerboard="0"
     inkscape:deskcolor="#d1d1d1"
     inkscape:zoom="16.948466"
     inkscape:cx="7.5523061"
     inkscape:cy="3.0386231"
     inkscape:window-width="1920"
     inkscape:window-height="994"
     inkscape:window-x="0"
     inkscape:window-y="0"
     inkscape:window-maximized="1"
     inkscape:current-layer="svg1" />
  <defs
     id="defs1">
    <style
       type="text/css"
       id="style1">.ColorScheme-Text {
        color:#d8dee9;
      }</style>
  </defs>
  <path
     d="m 10.883387,13.010258 v 0 c 0.291376,-0.166544 0.66471,-0.06563 0.833001,0.224871 v 0 c 0.168289,0.290502 0.06827,0.663257 -0.223419,0.831256 v 0 C 10.35926,14.719136 9.0662967,15.040558 7.7613756,14.995931 6.5780791,14.955679 5.4233667,14.614718 4.4057373,14.007468 v 0 C 4.1175696,13.834799 4.023944,13.460299 4.1966114,13.172128 v 0 c 0.1729592,-0.288163 0.5471687,-0.381789 0.8356285,-0.209123 v 0 c 0.8385444,0.50371 1.7911319,0.782839 2.7705524,0.81638 1.0800447,0.03676 2.1455048,-0.228378 3.0805947,-0.769127 z m 2.293091,-7.5897797 v 0 c -0.151084,-0.301002 -0.02948,-0.667337 0.271539,-0.817545 v 0 c 0.301002,-0.150209 0.666466,-0.028 0.816092,0.273 v 0 c 0.521501,1.040962 0.771456,2.197717 0.731794,3.3626391 C 14.965563,9.1267 14.7684,9.9999515 14.411689,10.810205 v 0 c -0.134746,0.308001 -0.494377,0.448584 -0.802379,0.313543 v 0 c -0.308003,-0.134749 -0.44858,-0.494377 -0.313535,-0.802377 v 0 C 13.592684,9.6522851 13.754274,8.9301148 13.77906,8.1971555 13.81201,7.2358173 13.604059,6.2817733 13.176478,5.4204783 Z M 5.4948251,2.7893443 v 0 c -0.3024594,0.144374 -0.6664609,0.01605 -0.8125866,-0.286419 v 0 c -0.1458342,-0.30246 -0.018956,-0.666753 0.2835014,-0.812585 v 0 c 1.0185038,-0.489127 2.1411321,-0.724794 3.2728033,-0.686294 1.0887956,0.03705 2.1571758,0.326375 3.1135538,0.849336 v 0 c 0.295462,0.161292 0.404251,0.532001 0.242962,0.82746 v 0 c -0.161295,0.295168 -0.532002,0.40396 -0.827465,0.242667 v 0 C 9.978343,2.4915503 9.0972144,2.2515073 8.1971268,2.2205903 7.2632062,2.1887903 6.3368696,2.3827573 5.4948251,2.7893443 Z M 2.5136892,9.8348692 v 0 C 2.6207313,10.152787 2.4486452,10.49783 2.1298546,10.60458 v 0 c -0.3187937,0.10675 -0.6644185,-0.06621 -0.771169,-0.385585 v 0 C 1.0964749,9.4274088 0.9757244,8.5949902 1.0040162,7.7614043 1.0416422,6.6603573 1.3371011,5.5803123 1.8726035,4.6148913 v 0 c 0.1612924,-0.293709 0.5311269,-0.399876 0.8257114,-0.236835 v 0 c 0.2945844,0.163044 0.4013344,0.533754 0.2382926,0.827463 v 0 c -0.4412934,0.798001 -0.6848359,1.687881 -0.7160447,2.5973 -0.023331,0.6906692 0.074959,1.3760886 0.2931264,2.0320499 z M 10.365693,2.1666483 Z M 3.730526,12.014211 C 3.7191529,12.34992 3.4374007,12.613297 3.1016913,12.60192 2.7656899,12.590267 2.5026061,12.308503 2.5139811,11.972793 c 0.011374,-0.33571 0.2934176,-0.599084 0.6291271,-0.58771 0.3357085,0.01136 0.5990853,0.293418 0.5874178,0.629128 z m 9.744328,0.332209 c 0.01138,-0.335709 -0.252,-0.61746 -0.587711,-0.629127 -0.33571,-0.01138 -0.617464,0.252 -0.629131,0.58771 -0.01138,0.335709 0.252001,0.617753 0.587718,0.629126 0.335706,0.01137 0.61775,-0.251998 0.629124,-0.587709 z M 4.1689028,3.2679703 c 0.011371,-0.33571 -0.2517089,-0.617752 -0.5874183,-0.629127 -0.3360015,-0.01136 -0.617752,0.252 -0.629127,0.587709 -0.011668,0.33571 0.2517093,0.61746 0.587418,0.629129 0.3360012,0.01136 0.6177521,-0.252002 0.6291273,-0.587711 z"
     fill-rule="evenodd"
     id="path8-4-9"
     style="isolation:isolate;fill:#00ccff;fill-opacity:1;stroke-width:0.291665"
     sodipodi:nodetypes="sssssscsssssscssssssscsssssscsssssssssssssscssssssscsssssscscccccccsscscccsscccs" />
  <path
     d="m 4.4999908,8.0000001 c 0,1.9299482 1.5700664,3.5000089 3.5000082,3.5000089 1.9299527,0 3.50001,-1.5700607 3.50001,-3.5000089 0,-1.9299418 -1.5700573,-3.5000088 -3.50001,-3.5000088 -1.9299413,0 -3.5000082,1.570067 -3.5000082,3.5000088 z M 7.999999,5.4032233 c 1.4318043,0 2.596783,1.164976 2.596783,2.5967768 0,1.431801 -1.1649787,2.5967839 -2.596783,2.5967839 -1.4317986,0 -2.5967779,-1.1649821 -2.5967779,-2.5967839 0,-1.4318028 1.1649793,-2.5967798 2.5967779,-2.5967768 z"
     id="path1-1-9-2"
     style="fill:#00ccff;stroke-width:0.225808" />
  <path
     d="m 11.845863,3.1879343 c -0.02673,0.04209 -0.06912,0.07175 -0.117771,0.08248 l -1.9484856,0.275407 c -0.1880521,0.01512 -0.5424529,-0.192036 -0.3344918,-0.51849 l 0.6419024,-1.006888 0.557354,-0.874271 c 0.07785,-0.122065 0.200516,-0.373936 0.377641,-0.413524 v 0 c 0.177333,-0.0393 0.352905,0.0726 0.392124,0.249938 l 0.456795,2.0638 c 0.01081,0.04862 0.0017,0.09957 -0.02504,0.141565 z"
     id="path4-3-75-3-6-2-6"
     style="color:#d6dbf1;fill:#00ccff;fill-opacity:1;stroke-width:0.093953"
     sodipodi:nodetypes="ccccccssccc" />
</svg>
