<?xml version="1.0" encoding="UTF-8" standalone="no"?>
<svg
   width="16px"
   height="16px"
   version="1.1"
   viewBox="0 0 16 16"
   id="svg1"
   sodipodi:docname="system-suspend.svg"
   inkscape:version="1.3.2 (091e20ef0f, 2023-11-25)"
   xmlns:inkscape="http://www.inkscape.org/namespaces/inkscape"
   xmlns:sodipodi="http://sodipodi.sourceforge.net/DTD/sodipodi-0.dtd"
   xmlns="http://www.w3.org/2000/svg"
   xmlns:svg="http://www.w3.org/2000/svg">
  <defs
     id="defs1" />
  <sodipodi:namedview
     id="namedview1"
     pagecolor="#ffffff"
     bordercolor="#000000"
     borderopacity="0.25"
     inkscape:showpageshadow="2"
     inkscape:pageopacity="0.0"
     inkscape:pagecheckerboard="0"
     inkscape:deskcolor="#d1d1d1"
     inkscape:zoom="16.948466"
     inkscape:cx="1.9470789"
     inkscape:cy="11.35796"
     inkscape:window-width="1920"
     inkscape:window-height="994"
     inkscape:window-x="0"
     inkscape:window-y="0"
     inkscape:window-maximized="1"
     inkscape:current-layer="svg1" />
  <path
     d="m 8.8476774,9.8109449 c -0.564154,0 -1.092528,-0.1537855 -1.547092,-0.4214816 h -2.188141 c -0.05522,0 -0.09927,-0.04521 -0.09927,-0.099491 0,-0.055322 0.04515,-0.099486 0.09927,-0.099486 H 7.0026143 C 6.2643003,8.6305953 5.7872694,7.7436289 5.7872694,6.7468775 c 0,-0.7322058 0.262093,-1.4407236 0.7372339,-1.9955408 0.314305,-0.3660337 0.708529,-0.6511818 1.146816,-0.8347022 -2.098019,0.1681109 -3.754678,1.9329946 -3.754678,4.0771135 0,2.255007 1.831728,4.089618 4.083258,4.089618 1.019877,0 1.953639,-0.376287 2.6692847,-0.997746 H 7.2022544 c -0.05529,0 -0.09935,-0.04517 -0.09935,-0.09949 0,-0.05535 0.04508,-0.0994 0.09935,-0.0994 h 3.6810516 c 0.740279,-0.740327 1.200053,-1.7637931 1.200053,-2.8928174 0,-0.4122112 -0.05943,-0.8121716 -0.177107,-1.196744 -0.02569,1.666387 -1.388416,3.0138251 -3.0583826,3.0138251 z"
     id="path4-7-1"
     style="color:#d6dbf1;fill:#ffd42a;fill-opacity:1;fill-rule:nonzero;stroke:none;stroke-width:0.0211739;stroke-opacity:1"
     class="ColorScheme-Text" />
  <path
     d="m 3.0466434,3.0564823 c -2.75125005,2.7529973 -2.72874005,7.2465467 0.06753,9.9710447 2.604589,2.537752 6.801794,2.64148 9.5201106,0.22611 2.38181,-2.116355 3.013924,-5.4881774 1.673935,-8.2724465 -0.160825,-0.3341628 -0.581847,-0.4488897 -0.898688,-0.256427 -0.284067,0.1725804 -0.380079,0.5312322 -0.237272,0.831508 1.104066,2.3214646 0.537563,5.1354765 -1.507353,6.8525765 -2.0741947,1.741692 -5.1516407,1.770994 -7.2568867,0.067 -2.684967,-2.173226 -2.838816,-6.1401886 -0.461528,-8.518976 1.732518,-1.7336292 4.334158,-2.1614605 6.5041267,-1.1260854 0.298304,0.1423276 0.654778,0.04439 0.826285,-0.2382679 l 0.0014,-0.00211 C 11.469838,2.2746835 11.356973,1.8542558 11.024133,1.6936687 8.3660834,0.41140985 5.1715313,0.93040475 3.0466544,3.0566229 Z"
     id="path1-0-9-8-0"
     style="fill:#ffd42a;fill-opacity:1;stroke-width:0.254588" />
</svg>
