<?xml version="1.0" encoding="UTF-8" standalone="no"?>
<svg
   version="1.1"
   viewBox="0 0 16 16"
   id="svg1"
   sodipodi:docname="system-save-session.svg"
   inkscape:version="1.3.2 (091e20ef0f, 2023-11-25)"
   width="16"
   height="16"
   xmlns:inkscape="http://www.inkscape.org/namespaces/inkscape"
   xmlns:sodipodi="http://sodipodi.sourceforge.net/DTD/sodipodi-0.dtd"
   xmlns="http://www.w3.org/2000/svg"
   xmlns:svg="http://www.w3.org/2000/svg">
  <sodipodi:namedview
     id="namedview1"
     pagecolor="#ffffff"
     bordercolor="#000000"
     borderopacity="0.25"
     inkscape:showpageshadow="2"
     inkscape:pageopacity="0.0"
     inkscape:pagecheckerboard="0"
     inkscape:deskcolor="#d1d1d1"
     inkscape:zoom="12.326157"
     inkscape:cx="8.8429835"
     inkscape:cy="25.595975"
     inkscape:window-width="1920"
     inkscape:window-height="994"
     inkscape:window-x="0"
     inkscape:window-y="0"
     inkscape:window-maximized="1"
     inkscape:current-layer="svg1" />
  <defs
     id="defs1">
    <style
       type="text/css"
       id="style1">.ColorScheme-Text {
        color:#d8dee9;
      }</style>
  </defs>
  <path
     d="M 3.5,2 C 2.669,2 2,2.669 2,3.5 v 9 C 2,13.331 2.669,14 3.5,14 h 9 C 13.331,14 14,13.331 14,12.5 V 5 L 11,2 Z m 0,0.75 H 5 V 5 c 0,0.831 0.669,1.5 1.5,1.5 h 3 C 10.331,6.5 11,5.831 11,5 V 3.0605745 l 2.25,2.25 V 12.5 c 0,0.415492 -0.334508,0.75 -0.75,0.75 v -1.5 c 0,-0.831 -0.669,-1.5 -1.5,-1.5 H 5 c -0.831,0 -1.5,0.669 -1.5,1.5 v 1.5 c -0.4155,0 -0.75,-0.334508 -0.75,-0.75 v -9 C 2.75,3.0845 3.0845,2.75 3.5,2.75 Z m 2.25,0 H 8 v 3 H 6.5 C 6.0845,5.75 5.75,5.4155 5.75,5 Z M 5,11 h 6 c 0.415508,0 0.759828,0.334606 0.75,0.75 v 1.5 h -7.5 v -1.5 C 4.25,11.334508 4.5845,11 5,11 Z"
     id="path1"
     style="fill:#00ccff;stroke-width:0.75" />
</svg>
