<?xml version="1.0" encoding="UTF-8" standalone="no"?>
<svg
   viewBox="0 0 16 16"
   version="1.1"
   id="svg2"
   sodipodi:docname="window-unpin.svg"
   inkscape:version="1.3.2 (091e20ef0f, 2023-11-25)"
   xmlns:inkscape="http://www.inkscape.org/namespaces/inkscape"
   xmlns:sodipodi="http://sodipodi.sourceforge.net/DTD/sodipodi-0.dtd"
   xmlns="http://www.w3.org/2000/svg"
   xmlns:svg="http://www.w3.org/2000/svg">
  <defs
     id="defs2" />
  <sodipodi:namedview
     id="namedview2"
     pagecolor="#ffffff"
     bordercolor="#000000"
     borderopacity="0.25"
     inkscape:showpageshadow="2"
     inkscape:pageopacity="0.0"
     inkscape:pagecheckerboard="0"
     inkscape:deskcolor="#d1d1d1"
     inkscape:zoom="23.96875"
     inkscape:cx="7.2177314"
     inkscape:cy="7.5723598"
     inkscape:window-width="1920"
     inkscape:window-height="994"
     inkscape:window-x="0"
     inkscape:window-y="0"
     inkscape:window-maximized="1"
     inkscape:current-layer="svg2" />
  <style
     type="text/css"
     id="current-color-scheme">
        .ColorScheme-Text {
            color:#232629;
        }
        .ColorScheme-NegativeText {
            color:#da4453;
        }
    </style>
  <path
     d="m 26.895698,-6.7614081 -3.44,3.44 3,3.00000002 3.44,-3.44000002 z m -7.06,4.06 -0.294,0.294 -0.414,0.414 2.648,2.64600002 -3.233,3.23199998 0.708,0.708 3.232,-3.233 2.646,2.647 0.414,-0.414 0.293,-0.293 z"
     class="ColorScheme-Text"
     fill="currentColor"
     id="path1" />
  <path
     d="m 18.602698,-6.7614081 -0.707,0.707 11.293,11.293 0.707,-0.707 z"
     class="ColorScheme-NegativeText"
     fill="currentColor"
     id="path2" />
  <path
     style="fill:#c83771;fill-opacity:1;stroke-width:1.4375"
     d="M 9.4374288,2.25 C 8.8778806,2.8095398 8.7641519,3.8087518 9.4151398,4.9003841 L 6.360447,6.9443439 C 5.9806647,6.7910803 5.5729897,6.6768351 5.1700297,6.6748049 4.6462298,6.6718776 4.136824,6.8320203 3.687602,7.28125 L 5.8438524,9.4375 2.968852,12.3125 2.25,13.75 l 1.4375,-0.71875 2.8749999,-2.875 2.15625,2.15625 C 9.5143701,11.516879 9.4121539,10.510054 9.055656,9.6396449 l 2.04396,-3.054676 C 12.191248,7.2357748 13.19046,7.1220398 13.75,6.5623869 Z"
     id="path4" />
</svg>
