<?xml version="1.0" encoding="UTF-8" standalone="no"?>
<svg
   width="24"
   height="24"
   viewBox="0 0 24 24"
   version="1.1"
   id="svg1"
   sodipodi:docname="applications-all-symbolic.svg"
   inkscape:version="1.3.2 (091e20ef0f, 2023-11-25)"
   xmlns:inkscape="http://www.inkscape.org/namespaces/inkscape"
   xmlns:sodipodi="http://sodipodi.sourceforge.net/DTD/sodipodi-0.dtd"
   xmlns="http://www.w3.org/2000/svg"
   xmlns:svg="http://www.w3.org/2000/svg">
  <defs
     id="defs1" />
  <sodipodi:namedview
     id="namedview1"
     pagecolor="#ffffff"
     bordercolor="#000000"
     borderopacity="0.25"
     inkscape:showpageshadow="2"
     inkscape:pageopacity="0.0"
     inkscape:pagecheckerboard="0"
     inkscape:deskcolor="#d1d1d1"
     inkscape:zoom="7.9895833"
     inkscape:cx="6.7588005"
     inkscape:cy="3.0664928"
     inkscape:window-width="1920"
     inkscape:window-height="994"
     inkscape:window-x="0"
     inkscape:window-y="0"
     inkscape:window-maximized="1"
     inkscape:current-layer="svg1" />
  <style
     type="text/css"
     id="current-color-scheme">.ColorScheme-Text{color:#31363b;}.ColorScheme-Background{color:#E9E8E8;}.ColorScheme-ViewText{color:#31363b;}.ColorScheme-ViewBackground{color:#ffffff;}.ColorScheme-ViewHover{color:#000000;}.ColorScheme-ViewFocus{color:#5a5a5a;}.ColorScheme-ButtonText{color:#31363b;}.ColorScheme-ButtonBackground{color:#E9E8E8;}.ColorScheme-ButtonHover{color:#1489ff;}.ColorScheme-ButtonFocus { color: #2B74C7; } </style>
  <path
     d="m 9.2855297,7.0000501 h -0.286045 c -1.104275,0 -1.999485,0.895352 -1.999485,1.999845 v 0.28609 c 0,0.5304974 0.210782,1.0392799 0.585887,1.4142769 0.375145,0.375069 0.883858,0.585675 1.414276,0.585461 H 11.285651 V 8.9998801 c 0,-0.530497 -0.210679,-1.039279 -0.585816,-1.414419 -0.374966,-0.374819 -0.8834923,-0.585426 -1.4136363,-0.585426 h -7.15e-4"
     stroke-width="0.357149"
     id="path2618-3"
     style="fill:#b44bcd;fill-opacity:1" />
  <path
     d="m 8.9998177,12.714299 c -0.530468,0 -1.039355,0.210775 -1.414353,0.585927 -0.375028,0.375104 -0.585604,0.883848 -0.585457,1.414275 v 0.286045 c 0,0.53024 0.210716,1.038845 0.585713,1.413841 C 7.9607497,16.789318 8.4694267,17 8.9997757,17 h 0.286349 c 0.530495,0 1.0392063,-0.210874 1.4142023,-0.586043 0.374998,-0.375028 0.585499,-0.88378 0.585391,-1.414206 v -2.285482 z"
     stroke-width="0.357149"
     id="path2620-6"
     style="fill:#b44bcd;fill-opacity:1"
     sodipodi:nodetypes="cccscsscccc" />
  <path
     d="m 14.999772,12.714299 h -2.285416 v 2.286199 c 0,0.530422 0.210741,1.038993 0.585894,1.413989 0.375124,0.374989 0.883845,0.585595 1.414276,0.585421 h 0.286029 c 0.530248,0 1.038863,-0.210676 1.41386,-0.585595 0.374919,-0.374988 0.585635,-0.883563 0.585635,-1.413854 v -0.286028 c 0,-0.530596 -0.210491,-1.039357 -0.585635,-1.414567 -0.374989,-0.374919 -0.883645,-0.585557 -1.41386,-0.585595 h -7.05e-4"
     stroke-width="0.357149"
     id="path2622-7"
     style="fill:#b44bcd;fill-opacity:1" />
  <path
     d="m 14.714058,7.0000501 h -4.99e-4 c -0.530387,0 -1.039058,0.210835 -1.414122,0.585961 -0.374972,0.37514 -0.585605,0.883851 -0.585363,1.414204 v 2.2854869 h 2.285852 c 0.530498,0 1.039206,-0.210737 1.41427,-0.58589 0.375107,-0.37514 0.585672,-0.8838505 0.585537,-1.4143479 v -0.286049 c 0,-1.104279 -0.89536,-1.999415 -1.999854,-1.999415 h -0.286078 z"
     stroke-width="0.357149"
     id="path2624-5"
     style="fill:#b44bcd;fill-opacity:1"
     sodipodi:nodetypes="cscccsccsscc" />
  <path
     d="m 4.9238447,4.9377391 c -3.93035497,3.932851 -3.898199,10.3522209 0.09647,14.2443729 3.720844,3.625366 9.7168573,3.773546 13.6001703,0.323017 3.402594,-3.023373 4.305616,-7.840274 2.391345,-11.8177989 -0.229752,-0.47738 -0.83121,-0.641281 -1.283834,-0.366329 -0.405819,0.246544 -0.542981,0.758899 -0.338972,1.18787 1.577247,3.3163749 0.767955,7.3364059 -2.153361,9.7894119 -2.963139,2.488133 -7.3594933,2.529989 -10.3669883,0.09573 -3.835685,-3.104608 -4.05547,-8.7717159 -0.659334,-12.1699879 2.475029,-2.476614 6.1916553,-3.087802 9.2916273,-1.608689 0.426143,0.203318 0.935398,0.06342 1.180407,-0.340386 l 0.002,-0.0025 c 0.273898,-0.451532 0.112676,-1.052145 -0.362821,-1.281556 -3.79724,-1.831825 -8.3609013,-1.090402 -11.3964463,1.947058 z"
     id="path1-0-4"
     style="fill:#b44bcd;fill-opacity:1;stroke-width:0.3637" />
</svg>
