<?xml version="1.0" encoding="UTF-8" standalone="no"?>
<svg
   width="16"
   height="16"
   viewBox="0 0 16 16"
   fill="none"
   version="1.1"
   id="svg49"
   sodipodi:docname="amarok_change_language.svg"
   inkscape:version="1.3 (0e150ed6c4, 2023-07-21)"
   xmlns:inkscape="http://www.inkscape.org/namespaces/inkscape"
   xmlns:sodipodi="http://sodipodi.sourceforge.net/DTD/sodipodi-0.dtd"
   xmlns:xlink="http://www.w3.org/1999/xlink"
   xmlns="http://www.w3.org/2000/svg"
   xmlns:svg="http://www.w3.org/2000/svg">
  <sodipodi:namedview
     id="namedview51"
     pagecolor="#ffffff"
     bordercolor="#666666"
     borderopacity="1.0"
     inkscape:showpageshadow="2"
     inkscape:pageopacity="0.0"
     inkscape:pagecheckerboard="0"
     inkscape:deskcolor="#d1d1d1"
     showgrid="false"
     inkscape:zoom="21.522106"
     inkscape:cx="5.6221263"
     inkscape:cy="13.776533"
     inkscape:window-width="1920"
     inkscape:window-height="994"
     inkscape:window-x="0"
     inkscape:window-y="0"
     inkscape:window-maximized="1"
     inkscape:current-layer="svg49">
    <inkscape:grid
       type="xygrid"
       id="grid12572"
       originx="0"
       originy="0"
       spacingy="1"
       spacingx="1"
       units="px"
       visible="false" />
  </sodipodi:namedview>
  <defs
     id="defs47">
    <linearGradient
       id="linearGradient7"
       inkscape:collect="always">
      <stop
         style="stop-color:#ff00ff;stop-opacity:1"
         offset="0"
         id="stop4" />
      <stop
         style="stop-color:#ffb380;stop-opacity:1"
         offset="1"
         id="stop7" />
    </linearGradient>
    <linearGradient
       id="paint0_linear"
       x1="51"
       y1="10"
       x2="11"
       y2="50"
       gradientUnits="userSpaceOnUse">
      <stop
         stop-color="#6EB4D9"
         id="stop22" />
      <stop
         offset="1"
         stop-color="#004E6E"
         id="stop24" />
    </linearGradient>
    <linearGradient
       id="paint1_linear"
       x1="8"
       y1="8"
       x2="48"
       y2="48"
       gradientUnits="userSpaceOnUse">
      <stop
         stop-color="#44F0D3"
         id="stop27" />
      <stop
         offset="1"
         stop-color="#3DAEE9"
         id="stop29" />
    </linearGradient>
    <linearGradient
       id="paint2_linear"
       x1="43"
       y1="18"
       x2="19.5854"
       y2="-11.2683"
       gradientUnits="userSpaceOnUse">
      <stop
         stop-color="#D1D5D9"
         id="stop32" />
      <stop
         offset="1"
         stop-color="#FCFFFF"
         id="stop34" />
    </linearGradient>
    <linearGradient
       id="paint3_linear"
       x1="38"
       y1="25"
       x2="14.02"
       y2="0.020815801"
       gradientUnits="userSpaceOnUse">
      <stop
         stop-color="#D1D5D9"
         id="stop37" />
      <stop
         offset="1"
         stop-color="#FCFFFF"
         id="stop39" />
    </linearGradient>
    <linearGradient
       id="paint4_linear"
       x1="33"
       y1="32"
       x2="9.3934402"
       y2="12.3279"
       gradientUnits="userSpaceOnUse">
      <stop
         stop-color="#D1D5D9"
         id="stop42" />
      <stop
         offset="1"
         stop-color="#FCFFFF"
         id="stop44" />
    </linearGradient>
    <linearGradient
       gradientTransform="matrix(0.69997078,0,0,0.69993111,-301.98906,-350.62269)"
       gradientUnits="userSpaceOnUse"
       x2="420.52621"
       y2="507.73929"
       y1="539.72559"
       id="a-6"
       x1="396.44348">
      <stop
         stop-color="#18222a"
         style="stop-color:#00d4aa;stop-opacity:1"
         id="stop216"
         offset="0" />
      <stop
         stop-color="#566069"
         offset="1"
         style="stop-color:#008fb2;stop-opacity:1;"
         id="stop218" />
    </linearGradient>
    <linearGradient
       id="paint0_linear-3"
       x1="51"
       y1="10"
       x2="11"
       y2="50"
       gradientUnits="userSpaceOnUse"
       gradientTransform="matrix(0.43999763,0,0,0.43999763,2.7522754,3.7879942)">
      <stop
         stop-color="#6EB4D9"
         id="stop229" />
      <stop
         offset="1"
         stop-color="#004E6E"
         id="stop231" />
    </linearGradient>
    <linearGradient
       id="paint1_linear-6"
       x1="8"
       y1="8"
       x2="48"
       y2="48"
       gradientUnits="userSpaceOnUse"
       gradientTransform="matrix(0.43999763,0,0,0.43999763,2.7522754,3.7879942)">
      <stop
         stop-color="#44F0D3"
         id="stop234" />
      <stop
         offset="1"
         stop-color="#3DAEE9"
         id="stop236" />
    </linearGradient>
    <linearGradient
       id="paint2_linear-7"
       x1="43"
       y1="18"
       x2="19.5854"
       y2="-11.2683"
       gradientUnits="userSpaceOnUse"
       gradientTransform="matrix(0.43999763,0,0,0.43999763,2.7522754,3.7879942)">
      <stop
         stop-color="#D1D5D9"
         id="stop239" />
      <stop
         offset="1"
         stop-color="#FCFFFF"
         id="stop241" />
    </linearGradient>
    <linearGradient
       id="paint3_linear-5"
       x1="38"
       y1="25"
       x2="14.02"
       y2="0.020815801"
       gradientUnits="userSpaceOnUse"
       gradientTransform="matrix(0.43999763,0,0,0.43999763,2.7522754,3.7879942)">
      <stop
         stop-color="#D1D5D9"
         id="stop244" />
      <stop
         offset="1"
         stop-color="#FCFFFF"
         id="stop246" />
    </linearGradient>
    <linearGradient
       id="paint4_linear-3"
       x1="33"
       y1="32"
       x2="9.3934402"
       y2="12.3279"
       gradientUnits="userSpaceOnUse"
       gradientTransform="matrix(0.43999763,0,0,0.43999763,2.7522754,3.7879942)">
      <stop
         stop-color="#D1D5D9"
         id="stop249" />
      <stop
         offset="1"
         stop-color="#FCFFFF"
         id="stop251" />
    </linearGradient>
    <clipPath
       clipPathUnits="userSpaceOnUse"
       id="clipPath977-3">
      <path
         id="path979-6"
         style="fill:url(#linearGradient981);fill-opacity:1;stroke:none;stroke-width:3.77953;stroke-linecap:round;stroke-linejoin:round;stroke-opacity:1"
         d="m 498.58672,331.99279 c -26.19823,0 -47.28906,21.09084 -47.28906,47.28906 v 42.5892 70.06055 23.03125 c 0,13.4388 10.81901,24.25782 24.25781,24.25782 h 23.03125 100.57422 18.61328 c 26.19823,0 47.28906,-21.09084 47.28906,-47.28907 V 379.28185 c 0,-26.19823 -21.09083,-47.28906 -47.28906,-47.28906 z"
         sodipodi:nodetypes="ssccssccsssss" />
    </clipPath>
    <clipPath
       clipPathUnits="userSpaceOnUse"
       id="clipPath977-3-5">
      <path
         id="path979-6-3"
         style="fill:url(#linearGradient981);fill-opacity:1;stroke:none;stroke-width:3.77953;stroke-linecap:round;stroke-linejoin:round;stroke-opacity:1"
         d="m 498.58672,331.99279 c -26.19823,0 -47.28906,21.09084 -47.28906,47.28906 v 42.5892 70.06055 23.03125 c 0,13.4388 10.81901,24.25782 24.25781,24.25782 h 23.03125 100.57422 18.61328 c 26.19823,0 47.28906,-21.09084 47.28906,-47.28907 V 379.28185 c 0,-26.19823 -21.09083,-47.28906 -47.28906,-47.28906 z"
         sodipodi:nodetypes="ssccssccsssss" />
    </clipPath>
    <clipPath
       clipPathUnits="userSpaceOnUse"
       id="clipPath977-3-5-7">
      <path
         id="path979-6-3-5"
         style="fill:url(#linearGradient981);fill-opacity:1;stroke:none;stroke-width:3.77953;stroke-linecap:round;stroke-linejoin:round;stroke-opacity:1"
         d="m 498.58672,331.99279 c -26.19823,0 -47.28906,21.09084 -47.28906,47.28906 v 42.5892 70.06055 23.03125 c 0,13.4388 10.81901,24.25782 24.25781,24.25782 h 23.03125 100.57422 18.61328 c 26.19823,0 47.28906,-21.09084 47.28906,-47.28907 V 379.28185 c 0,-26.19823 -21.09083,-47.28906 -47.28906,-47.28906 z"
         sodipodi:nodetypes="ssccssccsssss" />
    </clipPath>
    <clipPath
       clipPathUnits="userSpaceOnUse"
       id="clipPath977-3-5-7-6">
      <path
         id="path979-6-3-5-1"
         style="fill:url(#linearGradient981);fill-opacity:1;stroke:none;stroke-width:3.77953;stroke-linecap:round;stroke-linejoin:round;stroke-opacity:1"
         d="m 498.58672,331.99279 c -26.19823,0 -47.28906,21.09084 -47.28906,47.28906 v 42.5892 70.06055 23.03125 c 0,13.4388 10.81901,24.25782 24.25781,24.25782 h 23.03125 100.57422 18.61328 c 26.19823,0 47.28906,-21.09084 47.28906,-47.28907 V 379.28185 c 0,-26.19823 -21.09083,-47.28906 -47.28906,-47.28906 z"
         sodipodi:nodetypes="ssccssccsssss" />
    </clipPath>
    <clipPath
       clipPathUnits="userSpaceOnUse"
       id="clipPath977-3-7">
      <path
         id="path979-6-5"
         style="fill:url(#linearGradient981);fill-opacity:1;stroke:none;stroke-width:3.77953;stroke-linecap:round;stroke-linejoin:round;stroke-opacity:1"
         d="m 498.58672,331.99279 c -26.19823,0 -47.28906,21.09084 -47.28906,47.28906 v 42.5892 70.06055 23.03125 c 0,13.4388 10.81901,24.25782 24.25781,24.25782 h 23.03125 100.57422 18.61328 c 26.19823,0 47.28906,-21.09084 47.28906,-47.28907 V 379.28185 c 0,-26.19823 -21.09083,-47.28906 -47.28906,-47.28906 z"
         sodipodi:nodetypes="ssccssccsssss" />
    </clipPath>
    <linearGradient
       id="linearGradient16"
       x1="102.5"
       y1="113.5"
       x2="41"
       y2="39.5"
       gradientUnits="userSpaceOnUse"
       gradientTransform="matrix(0.13157895,0,0,0.13157895,-0.4210525,-0.42106)">
      <stop
         stop-color="#2D30FF"
         id="stop15"
         style="stop-color:#ffb380;stop-opacity:1" />
      <stop
         offset="1"
         stop-color="#00C0FF"
         id="stop16"
         style="stop-color:#ff00ff;stop-opacity:1" />
    </linearGradient>
    <linearGradient
       id="paint1_linear_618_163"
       x1="95.0224"
       y1="99.008598"
       x2="78.916901"
       y2="84.362701"
       gradientUnits="userSpaceOnUse"
       gradientTransform="matrix(0.10526317,0,0,0.10526317,1.2631573,1.2631519)"
       xlink:href="#linearGradient16">
      <stop
         stop-color="#2D30FF"
         id="stop5"
         style="stop-color:#ffb380;stop-opacity:1" />
      <stop
         offset="1"
         stop-color="#00C0FF"
         id="stop6"
         style="stop-color:#ff00ff;stop-opacity:1" />
    </linearGradient>
    <linearGradient
       id="paint4_linear_618_163"
       x1="49.824299"
       y1="52.663898"
       x2="33.7314"
       y2="34.826"
       gradientUnits="userSpaceOnUse"
       gradientTransform="matrix(0.08421054,0,0,0.08421054,2.9105255,2.9105214)">
      <stop
         stop-color="#2D30FF"
         id="stop11"
         style="stop-color:#ffb380;stop-opacity:1" />
      <stop
         offset="1"
         stop-color="#00C0FF"
         id="stop12"
         style="stop-color:#ff00ff;stop-opacity:1" />
    </linearGradient>
    <linearGradient
       inkscape:collect="always"
       xlink:href="#linearGradient7"
       id="linearGradient2"
       x1="9.216011"
       y1="10.337604"
       x2="11.730842"
       y2="10.337604"
       gradientUnits="userSpaceOnUse" />
    <linearGradient
       inkscape:collect="always"
       xlink:href="#linearGradient7"
       id="linearGradient3"
       x1="1.999999"
       y1="8"
       x2="13.894737"
       y2="8.1850252"
       gradientUnits="userSpaceOnUse" />
    <linearGradient
       inkscape:collect="always"
       xlink:href="#linearGradient7"
       id="linearGradient4"
       x1="4.0326834"
       y1="5.4591727"
       x2="7.0519485"
       y2="5.4591727"
       gradientUnits="userSpaceOnUse" />
    <linearGradient
       inkscape:collect="always"
       xlink:href="#linearGradient7"
       id="linearGradient9"
       x1="1.999999"
       y1="8"
       x2="14.000001"
       y2="8"
       gradientUnits="userSpaceOnUse" />
    <linearGradient
       inkscape:collect="always"
       xlink:href="#linearGradient7"
       id="linearGradient13"
       x1="9.216011"
       y1="10.337604"
       x2="11.730842"
       y2="10.337604"
       gradientUnits="userSpaceOnUse" />
    <linearGradient
       inkscape:collect="always"
       xlink:href="#linearGradient7"
       id="linearGradient17"
       x1="4.0326834"
       y1="5.4591727"
       x2="7.0519485"
       y2="5.4591727"
       gradientUnits="userSpaceOnUse" />
  </defs>
  <path
     d="M 10.818832,8.9952094 C 10.781628,8.8710973 10.62854,8.8130653 10.47134,8.8130653 c -0.153077,0 -0.306159,0.058 -0.34337,0.1821441 L 9.3294851,11.597342 c -0.0041,0.01655 -0.00821,0.0331 -0.00821,0.04138 0,0.132421 0.1944108,0.22342 0.3392519,0.22342 0.091012,0 0.1613153,-0.02899 0.1820322,-0.107569 l 0.1570901,-0.550247 h 0.9474317 l 0.157315,0.550241 c 0.02066,0.07863 0.09093,0.107569 0.181941,0.107569 0.14483,0 0.339241,-0.09505 0.339241,-0.223421 0,-0.0124 -0.0041,-0.02489 -0.0085,-0.04137 z m -0.707452,1.7870626 0.359862,-1.2699827 0.360066,1.2699827 z"
     stroke-width="0.210528"
     id="path1"
     style="fill:url(#linearGradient2);stroke:url(#linearGradient13);fill-opacity:1;stroke-opacity:1" />
  <path
     d="M 12.624528,6.9147048 H 9.085201 V 5.4030647 l 1.15023,-0.8215682 c 0.09077,-0.064879 0.144643,-0.1694641 0.144643,-0.281 0,-0.111608 -0.05386,-0.216224 -0.144643,-0.281072 L 9.0713584,3.1879601 C 8.9804213,2.5761281 8.4516216,2.105264 7.8149799,2.105264 H 3.3755793 c -0.7005056,0 -1.2703163,0.5698081 -1.2703163,1.2703123 v 4.4394886 c 0,0.7004244 0.5698107,1.2702325 1.2703163,1.2702325 h 3.539221 v 1.5116416 l -1.1502309,0.821563 c -0.090768,0.0649 -0.1446428,0.169558 -0.1446428,0.281059 0,0.1116 0.05387,0.21623 0.1446428,0.280972 l 1.1640737,0.83147 c 0.090939,0.611897 0.619737,1.082733 1.2563784,1.082733 h 4.4395065 c 0.700315,0 1.270209,-0.569895 1.270209,-1.270314 V 8.185025 c 0,-0.7005122 -0.569893,-1.2703202 -1.270209,-1.2703202 z M 3.3755793,8.3945053 c -0.319579,0 -0.5795267,-0.2599441 -0.5795267,-0.5795282 V 3.3754883 c 0,-0.319488 0.2599477,-0.5794321 0.5795267,-0.5794321 h 4.4394006 c 0.3194943,0 0.5794416,0.2599441 0.5794416,0.5794321 0,0.1116241 0.05387,0.21632 0.1446321,0.281088 L 9.4404011,4.3004084 8.5390536,4.9442566 C 8.4482953,5.0091372 8.3944215,5.1137927 8.3944215,5.2253287 v 1.6893761 h -0.2094 c -0.7004104,0 -1.2702212,0.569808 -1.2702212,1.2702324 v 0.2095681 z m 9.8283147,4.2299167 c 0,0.319581 -0.259892,0.579474 -0.579366,0.579474 H 8.1850215 c -0.3194943,0 -0.5794417,-0.259893 -0.5794417,-0.579474 0,-0.11148 -0.05387,-0.216314 -0.1446317,-0.281053 L 6.5596003,11.699561 7.4609481,11.055743 c 0.090758,-0.06489 0.1446317,-0.169541 0.1446317,-0.28107 V 8.185025 c 0,-0.3195841 0.2599474,-0.5795282 0.5794417,-0.5795282 h 0.5538955 8.66e-4 8.653e-4 3.8838147 c 0.319472,0 0.579366,0.2599441 0.579366,0.5795282 z"
     stroke-width="0.210528"
     id="path2"
     style="fill:url(#linearGradient3);stroke:url(#linearGradient9);fill-opacity:1;stroke-opacity:1" />
  <path
     d="m 6.7289479,5.1170246 c 0.120179,0 0.2177365,-0.09756 0.2177365,-0.217848 0,-0.12028 -0.097557,-0.2178401 -0.2177365,-0.2178401 H 5.7601167 V 4.1525124 c 0,-0.12028 -0.097559,-0.21784 -0.2178431,-0.21784 -0.1201895,0 -0.2177469,0.09756 -0.2177469,0.21784 V 4.6813365 H 4.3556945 c -0.1201889,0 -0.217747,0.09756 -0.217747,0.2178401 0,0.120288 0.097558,0.217848 0.217747,0.217848 h 0.300211 c 0.047968,0.45992 0.2463051,0.8756 0.5446106,1.1975203 -0.2473155,0.148056 -0.5361686,0.233544 -0.8448216,0.233544 -0.1201889,0 -0.217747,0.097448 -0.217747,0.2177438 0,0.1202802 0.097558,0.2178402 0.217747,0.2178402 0.440716,0 0.8495482,-0.1377762 1.1865791,-0.3721122 0.3371161,0.234336 0.7459472,0.3721122 1.1866743,0.3721122 0.120179,0 0.2177365,-0.09756 0.2177365,-0.2178402 0,-0.1202958 -0.097557,-0.2177438 -0.2177365,-0.2177438 -0.3086632,0 -0.597516,-0.08529 -0.8448313,-0.233544 C 6.1824215,5.9926246 6.3807579,5.5769446 6.4287269,5.1170246 Z M 5.5422736,6.0424088 C 5.3040007,5.7950968 5.1421796,5.4739607 5.0948106,5.1170246 H 5.9898215 C 5.9424527,5.4739607 5.7806316,5.7950968 5.5422736,6.0424088 Z"
     stroke-width="0.210528"
     id="path3"
     style="fill:url(#linearGradient4);stroke:url(#linearGradient17);stroke-opacity:1;fill-opacity:1" />
</svg>
