<?xml version="1.0" encoding="UTF-8" standalone="no"?>
<svg
   width="16"
   height="16"
   version="1.1"
   id="svg22"
   sodipodi:docname="night.svg"
   inkscape:version="1.3 (0e150ed6c4, 2023-07-21)"
   xmlns:inkscape="http://www.inkscape.org/namespaces/inkscape"
   xmlns:sodipodi="http://sodipodi.sourceforge.net/DTD/sodipodi-0.dtd"
   xmlns:xlink="http://www.w3.org/1999/xlink"
   xmlns="http://www.w3.org/2000/svg"
   xmlns:svg="http://www.w3.org/2000/svg">
  <sodipodi:namedview
     id="namedview22"
     pagecolor="#ffffff"
     bordercolor="#000000"
     borderopacity="0.25"
     inkscape:showpageshadow="2"
     inkscape:pageopacity="0.0"
     inkscape:pagecheckerboard="0"
     inkscape:deskcolor="#d1d1d1"
     inkscape:zoom="23.96875"
     inkscape:cx="5.9452412"
     inkscape:cy="4.9022164"
     inkscape:window-width="1920"
     inkscape:window-height="994"
     inkscape:window-x="0"
     inkscape:window-y="0"
     inkscape:window-maximized="1"
     inkscape:current-layer="svg22" />
  <defs
     id="defs22">
    <linearGradient
       id="linearGradient23"
       inkscape:collect="always">
      <stop
         style="stop-color:#ffb380;stop-opacity:1"
         offset="0"
         id="stop23" />
      <stop
         style="stop-color:#ffd42a;stop-opacity:1"
         offset="1"
         id="stop24" />
    </linearGradient>
    <style
       id="current-color-scheme"
       type="text/css">&#10;   .ColorScheme-Text { color:#d5c289; } .ColorScheme-Highlight { color:#5294e2; }&#10;  </style>
    <linearGradient
       id="arrongin"
       x1="0%"
       x2="0%"
       y1="0%"
       y2="100%">
      <stop
         offset="0%"
         style="stop-color:#dd9b44; stop-opacity:1"
         id="stop1" />
      <stop
         offset="100%"
         style="stop-color:#ad6c16; stop-opacity:1"
         id="stop2" />
    </linearGradient>
    <linearGradient
       id="aurora"
       x1="0%"
       x2="0%"
       y1="0%"
       y2="100%">
      <stop
         offset="0%"
         style="stop-color:#09D4DF; stop-opacity:1"
         id="stop3" />
      <stop
         offset="100%"
         style="stop-color:#9269F4; stop-opacity:1"
         id="stop4" />
    </linearGradient>
    <linearGradient
       id="fitdance"
       x1="0%"
       x2="0%"
       y1="0%"
       y2="100%">
      <stop
         offset="0%"
         style="stop-color:#1AD6AB; stop-opacity:1"
         id="stop5" />
      <stop
         offset="100%"
         style="stop-color:#329DB6; stop-opacity:1"
         id="stop6" />
    </linearGradient>
    <linearGradient
       id="oomox"
       x1="1126.1196"
       x2="1126.1196"
       y1="94.85315"
       y2="108.75467"
       gradientTransform="scale(1.0069978,0.99305084)"
       gradientUnits="userSpaceOnUse">
      <stop
         offset="0%"
         style="stop-color:#303b3d; stop-opacity:1"
         id="stop7" />
      <stop
         offset="100%"
         style="stop-color:#bc985d; stop-opacity:1"
         id="stop8" />
    </linearGradient>
    <linearGradient
       id="rainblue"
       x1="0%"
       x2="0%"
       y1="0%"
       y2="100%">
      <stop
         offset="0%"
         style="stop-color:#00F260; stop-opacity:1"
         id="stop9" />
      <stop
         offset="100%"
         style="stop-color:#0575E6; stop-opacity:1"
         id="stop10" />
    </linearGradient>
    <linearGradient
       id="sunrise"
       x1="0%"
       x2="0%"
       y1="0%"
       y2="100%">
      <stop
         offset="0%"
         style="stop-color: #FF8501; stop-opacity:1"
         id="stop11" />
      <stop
         offset="100%"
         style="stop-color: #FFCB01; stop-opacity:1"
         id="stop12" />
    </linearGradient>
    <linearGradient
       id="telinkrin"
       x1="0%"
       x2="0%"
       y1="0%"
       y2="100%">
      <stop
         offset="0%"
         style="stop-color: #b2ced6; stop-opacity:1"
         id="stop13" />
      <stop
         offset="100%"
         style="stop-color: #6da5b7; stop-opacity:1"
         id="stop14" />
    </linearGradient>
    <linearGradient
       id="60spsycho"
       x1="0%"
       x2="0%"
       y1="0%"
       y2="100%">
      <stop
         offset="0%"
         style="stop-color: #df5940; stop-opacity:1"
         id="stop15" />
      <stop
         offset="25%"
         style="stop-color: #d8d15f; stop-opacity:1"
         id="stop16" />
      <stop
         offset="50%"
         style="stop-color: #e9882a; stop-opacity:1"
         id="stop17" />
      <stop
         offset="100%"
         style="stop-color: #279362; stop-opacity:1"
         id="stop18" />
    </linearGradient>
    <linearGradient
       id="90ssummer"
       x1="0%"
       x2="0%"
       y1="0%"
       y2="100%">
      <stop
         offset="0%"
         style="stop-color: #f618c7; stop-opacity:1"
         id="stop19" />
      <stop
         offset="20%"
         style="stop-color: #94ffab; stop-opacity:1"
         id="stop20" />
      <stop
         offset="50%"
         style="stop-color: #fbfd54; stop-opacity:1"
         id="stop21" />
      <stop
         offset="100%"
         style="stop-color: #0f83ae; stop-opacity:1"
         id="stop22" />
    </linearGradient>
    <linearGradient
       id="linearGradient1846"
       x1="6.3793998"
       x2="3.302"
       y1="5.6676998"
       y2="8.5085001"
       gradientUnits="userSpaceOnUse"
       gradientTransform="matrix(2.1267812,0,0,2.1267812,-107.5877,-15.225293)">
      <stop
         stop-color="#ebcb8b"
         offset="0"
         id="stop900" />
      <stop
         stop-color="#eac57b"
         offset="1"
         id="stop902" />
    </linearGradient>
    <linearGradient
       inkscape:collect="always"
       xlink:href="#linearGradient23"
       id="linearGradient24"
       x1="2.4181492"
       y1="3.2522819"
       x2="14.749962"
       y2="14.5"
       gradientUnits="userSpaceOnUse" />
  </defs>
  <g
     id="g23"
     style="fill:url(#linearGradient24)">
    <path
       class="ColorScheme-Text"
       d="m 6.0727669,1.500942 -9.643e-4,9.417e-4 C 5.8403542,1.9887392 5.6600174,2.4840699 5.5577943,2.7882369 c -0.3356001,0 -0.8872187,0.012242 -1.4147282,0.079102 v 9.417e-4 h 9.644e-4 C 4.5461721,3.2355412 4.9733872,3.555717 5.2385884,3.7440556 5.1344367,4.0548144 4.9762803,4.5727458 4.8779147,5.0812602 v 0 C 5.3591345,4.8213528 5.8027438,4.5237777 6.0679451,4.3363808 A 11.630281,11.356822 0 0 0 7.2599042,5.0831436 V 5.0822019 A 12.347771,12.057442 0 0 0 6.9021236,3.7468807 11.635103,11.36153 0 0 0 7.9986103,2.8711059 V 2.8701642 H 7.9976459 A 12.332341,12.042375 0 0 0 6.5858108,2.7901203 11.639924,11.366239 0 0 0 6.0708382,1.5000004 Z M 2.6965138,5.2215725 A 9.2579349,9.0402563 0 0 0 2.3107665,6.1868082 8.7101738,8.5053744 0 0 0 1.2499615,6.2470766 C 1.5527731,6.522051 1.8729434,6.7621828 2.0716032,6.9034369 1.9934894,7.1369768 1.8748721,7.5249545 1.8015801,7.907282 a 9.2482912,9.0308393 0 0 0 0.893005,-0.5593659 c 0.2034817,0.1450208 0.544868,0.374794 0.8949337,0.5612493 V 7.9082237 C 3.5104406,7.5127125 3.3966451,7.1341517 3.32046,6.9062619 3.5239417,6.7621828 3.8537557,6.5164009 4.1430661,6.24896 A 9.2540774,9.0364895 0 0 0 3.0832255,6.1886916 8.7545347,8.5486923 0 0 0 2.6974782,5.2215725 Z M 10.215693,2.4897201 a 5.5210081,5.3911945 0 0 1 1.060805,4.7988693 5.5248655,5.3949613 0 0 1 -6.7660076,3.8138586 5.5239012,5.3940196 0 0 1 -2.056033,-1.034921 6.275144,6.1275987 0 0 0 4.3975191,4.223494 6.2741796,6.126657 0 0 0 7.6850505,-4.3317892 6.275144,6.1275987 0 0 0 -4.32037,-7.4695117 z m 2.088821,2.3137406 a 5.2760585,5.1520044 0 0 1 1.473555,3.8863685 5.3686379,5.2424069 0 0 1 -0.173586,1.0264457 5.2943815,5.1698965 0 0 1 -8.8114327,2.3806011 c 3.278852,0.574433 6.5384167,-1.368281 7.4159917,-4.5634463 v -0.00188 a 6.4709108,6.3187624 0 0 0 0.09644,-2.7280856 z"
       overflow="visible"
       id="path22"
       style="stroke-width:0.952963;fill:url(#linearGradient24)" />
    <path
       d="M 7.2111919,9.5585033 6.8121796,8.3896291 5.6151717,8.0000043 6.8121796,7.6103724 7.2111919,6.4414984 7.6102082,7.6103724 8.8072254,8.0000043 7.6102082,8.3896291 Z"
       stroke-width="0.788653"
       id="path920-2"
       style="fill:url(#linearGradient24)" />
  </g>
</svg>
