<?xml version="1.0" encoding="UTF-8" standalone="no"?>
<svg
   width="16"
   height="16"
   viewBox="0 0 16 16"
   fill="none"
   version="1.1"
   id="svg49"
   sodipodi:docname="preferences-desktop-feedback.svg"
   inkscape:version="1.3 (0e150ed6c4, 2023-07-21)"
   xmlns:inkscape="http://www.inkscape.org/namespaces/inkscape"
   xmlns:sodipodi="http://sodipodi.sourceforge.net/DTD/sodipodi-0.dtd"
   xmlns:xlink="http://www.w3.org/1999/xlink"
   xmlns="http://www.w3.org/2000/svg"
   xmlns:svg="http://www.w3.org/2000/svg">
  <sodipodi:namedview
     id="namedview51"
     pagecolor="#ffffff"
     bordercolor="#666666"
     borderopacity="1.0"
     inkscape:showpageshadow="2"
     inkscape:pageopacity="0.0"
     inkscape:pagecheckerboard="0"
     inkscape:deskcolor="#d1d1d1"
     showgrid="false"
     inkscape:zoom="21.522106"
     inkscape:cx="7.666536"
     inkscape:cy="3.6474126"
     inkscape:window-width="1920"
     inkscape:window-height="994"
     inkscape:window-x="0"
     inkscape:window-y="0"
     inkscape:window-maximized="1"
     inkscape:current-layer="svg49">
    <inkscape:grid
       type="xygrid"
       id="grid12572"
       originx="0"
       originy="0"
       spacingy="1"
       spacingx="1"
       units="px"
       visible="false" />
  </sodipodi:namedview>
  <defs
     id="defs47">
    <linearGradient
       id="linearGradient7"
       inkscape:collect="always">
      <stop
         style="stop-color:#b380ff;stop-opacity:1"
         offset="0"
         id="stop7" />
      <stop
         style="stop-color:#2affd5;stop-opacity:1"
         offset="1"
         id="stop8" />
    </linearGradient>
    <linearGradient
       id="linearGradient1"
       inkscape:collect="always">
      <stop
         style="stop-color:#2a7fff;stop-opacity:1"
         offset="0"
         id="stop1" />
      <stop
         style="stop-color:#ccaaff;stop-opacity:1"
         offset="1"
         id="stop6" />
    </linearGradient>
    <linearGradient
       id="paint0_linear"
       x1="51"
       y1="10"
       x2="11"
       y2="50"
       gradientUnits="userSpaceOnUse">
      <stop
         stop-color="#6EB4D9"
         id="stop22" />
      <stop
         offset="1"
         stop-color="#004E6E"
         id="stop24" />
    </linearGradient>
    <linearGradient
       id="paint1_linear"
       x1="8"
       y1="8"
       x2="48"
       y2="48"
       gradientUnits="userSpaceOnUse">
      <stop
         stop-color="#44F0D3"
         id="stop27" />
      <stop
         offset="1"
         stop-color="#3DAEE9"
         id="stop29" />
    </linearGradient>
    <linearGradient
       id="paint2_linear"
       x1="43"
       y1="18"
       x2="19.5854"
       y2="-11.2683"
       gradientUnits="userSpaceOnUse">
      <stop
         stop-color="#D1D5D9"
         id="stop32" />
      <stop
         offset="1"
         stop-color="#FCFFFF"
         id="stop34" />
    </linearGradient>
    <linearGradient
       id="paint3_linear"
       x1="38"
       y1="25"
       x2="14.02"
       y2="0.020815801"
       gradientUnits="userSpaceOnUse">
      <stop
         stop-color="#D1D5D9"
         id="stop37" />
      <stop
         offset="1"
         stop-color="#FCFFFF"
         id="stop39" />
    </linearGradient>
    <linearGradient
       id="paint4_linear"
       x1="33"
       y1="32"
       x2="9.3934402"
       y2="12.3279"
       gradientUnits="userSpaceOnUse">
      <stop
         stop-color="#D1D5D9"
         id="stop42" />
      <stop
         offset="1"
         stop-color="#FCFFFF"
         id="stop44" />
    </linearGradient>
    <linearGradient
       gradientTransform="matrix(0.69997078,0,0,0.69993111,-301.98906,-350.62269)"
       gradientUnits="userSpaceOnUse"
       x2="420.52621"
       y2="507.73929"
       y1="539.72559"
       id="a-6"
       x1="396.44348">
      <stop
         stop-color="#18222a"
         style="stop-color:#00d4aa;stop-opacity:1"
         id="stop216"
         offset="0" />
      <stop
         stop-color="#566069"
         offset="1"
         style="stop-color:#008fb2;stop-opacity:1;"
         id="stop218" />
    </linearGradient>
    <linearGradient
       id="paint0_linear-3"
       x1="51"
       y1="10"
       x2="11"
       y2="50"
       gradientUnits="userSpaceOnUse"
       gradientTransform="matrix(0.43999763,0,0,0.43999763,2.7522754,3.7879942)">
      <stop
         stop-color="#6EB4D9"
         id="stop229" />
      <stop
         offset="1"
         stop-color="#004E6E"
         id="stop231" />
    </linearGradient>
    <linearGradient
       id="paint1_linear-6"
       x1="8"
       y1="8"
       x2="48"
       y2="48"
       gradientUnits="userSpaceOnUse"
       gradientTransform="matrix(0.43999763,0,0,0.43999763,2.7522754,3.7879942)">
      <stop
         stop-color="#44F0D3"
         id="stop234" />
      <stop
         offset="1"
         stop-color="#3DAEE9"
         id="stop236" />
    </linearGradient>
    <linearGradient
       id="paint2_linear-7"
       x1="43"
       y1="18"
       x2="19.5854"
       y2="-11.2683"
       gradientUnits="userSpaceOnUse"
       gradientTransform="matrix(0.43999763,0,0,0.43999763,2.7522754,3.7879942)">
      <stop
         stop-color="#D1D5D9"
         id="stop239" />
      <stop
         offset="1"
         stop-color="#FCFFFF"
         id="stop241" />
    </linearGradient>
    <linearGradient
       id="paint3_linear-5"
       x1="38"
       y1="25"
       x2="14.02"
       y2="0.020815801"
       gradientUnits="userSpaceOnUse"
       gradientTransform="matrix(0.43999763,0,0,0.43999763,2.7522754,3.7879942)">
      <stop
         stop-color="#D1D5D9"
         id="stop244" />
      <stop
         offset="1"
         stop-color="#FCFFFF"
         id="stop246" />
    </linearGradient>
    <linearGradient
       id="paint4_linear-3"
       x1="33"
       y1="32"
       x2="9.3934402"
       y2="12.3279"
       gradientUnits="userSpaceOnUse"
       gradientTransform="matrix(0.43999763,0,0,0.43999763,2.7522754,3.7879942)">
      <stop
         stop-color="#D1D5D9"
         id="stop249" />
      <stop
         offset="1"
         stop-color="#FCFFFF"
         id="stop251" />
    </linearGradient>
    <clipPath
       clipPathUnits="userSpaceOnUse"
       id="clipPath977-3">
      <path
         id="path979-6"
         style="fill:url(#linearGradient981);fill-opacity:1;stroke:none;stroke-width:3.77953;stroke-linecap:round;stroke-linejoin:round;stroke-opacity:1"
         d="m 498.58672,331.99279 c -26.19823,0 -47.28906,21.09084 -47.28906,47.28906 v 42.5892 70.06055 23.03125 c 0,13.4388 10.81901,24.25782 24.25781,24.25782 h 23.03125 100.57422 18.61328 c 26.19823,0 47.28906,-21.09084 47.28906,-47.28907 V 379.28185 c 0,-26.19823 -21.09083,-47.28906 -47.28906,-47.28906 z"
         sodipodi:nodetypes="ssccssccsssss" />
    </clipPath>
    <clipPath
       clipPathUnits="userSpaceOnUse"
       id="clipPath977-3-5">
      <path
         id="path979-6-3"
         style="fill:url(#linearGradient981);fill-opacity:1;stroke:none;stroke-width:3.77953;stroke-linecap:round;stroke-linejoin:round;stroke-opacity:1"
         d="m 498.58672,331.99279 c -26.19823,0 -47.28906,21.09084 -47.28906,47.28906 v 42.5892 70.06055 23.03125 c 0,13.4388 10.81901,24.25782 24.25781,24.25782 h 23.03125 100.57422 18.61328 c 26.19823,0 47.28906,-21.09084 47.28906,-47.28907 V 379.28185 c 0,-26.19823 -21.09083,-47.28906 -47.28906,-47.28906 z"
         sodipodi:nodetypes="ssccssccsssss" />
    </clipPath>
    <clipPath
       clipPathUnits="userSpaceOnUse"
       id="clipPath977-3-5-7">
      <path
         id="path979-6-3-5"
         style="fill:url(#linearGradient981);fill-opacity:1;stroke:none;stroke-width:3.77953;stroke-linecap:round;stroke-linejoin:round;stroke-opacity:1"
         d="m 498.58672,331.99279 c -26.19823,0 -47.28906,21.09084 -47.28906,47.28906 v 42.5892 70.06055 23.03125 c 0,13.4388 10.81901,24.25782 24.25781,24.25782 h 23.03125 100.57422 18.61328 c 26.19823,0 47.28906,-21.09084 47.28906,-47.28907 V 379.28185 c 0,-26.19823 -21.09083,-47.28906 -47.28906,-47.28906 z"
         sodipodi:nodetypes="ssccssccsssss" />
    </clipPath>
    <clipPath
       clipPathUnits="userSpaceOnUse"
       id="clipPath977-3-5-7-6">
      <path
         id="path979-6-3-5-1"
         style="fill:url(#linearGradient981);fill-opacity:1;stroke:none;stroke-width:3.77953;stroke-linecap:round;stroke-linejoin:round;stroke-opacity:1"
         d="m 498.58672,331.99279 c -26.19823,0 -47.28906,21.09084 -47.28906,47.28906 v 42.5892 70.06055 23.03125 c 0,13.4388 10.81901,24.25782 24.25781,24.25782 h 23.03125 100.57422 18.61328 c 26.19823,0 47.28906,-21.09084 47.28906,-47.28907 V 379.28185 c 0,-26.19823 -21.09083,-47.28906 -47.28906,-47.28906 z"
         sodipodi:nodetypes="ssccssccsssss" />
    </clipPath>
    <clipPath
       clipPathUnits="userSpaceOnUse"
       id="clipPath977-3-7">
      <path
         id="path979-6-5"
         style="fill:url(#linearGradient981);fill-opacity:1;stroke:none;stroke-width:3.77953;stroke-linecap:round;stroke-linejoin:round;stroke-opacity:1"
         d="m 498.58672,331.99279 c -26.19823,0 -47.28906,21.09084 -47.28906,47.28906 v 42.5892 70.06055 23.03125 c 0,13.4388 10.81901,24.25782 24.25781,24.25782 h 23.03125 100.57422 18.61328 c 26.19823,0 47.28906,-21.09084 47.28906,-47.28907 V 379.28185 c 0,-26.19823 -21.09083,-47.28906 -47.28906,-47.28906 z"
         sodipodi:nodetypes="ssccssccsssss" />
    </clipPath>
    <linearGradient
       id="paint0_linear-36"
       x1="18.5"
       y1="60"
       x2="18.5"
       y2="12"
       gradientUnits="userSpaceOnUse"
       gradientTransform="matrix(0.2539652,0,0,0.24999997,-0.2537335,-2.99e-6)"
       xlink:href="#paint1_linear">
      <stop
         stop-color="#5570FF"
         id="stop2" />
      <stop
         offset="1"
         stop-color="#4DD3FF"
         id="stop3" />
    </linearGradient>
    <linearGradient
       id="paint1_linear-7"
       x1="48"
       y1="4"
       x2="48"
       y2="38"
       gradientUnits="userSpaceOnUse"
       gradientTransform="matrix(0.2539652,0,0,0.24999997,-0.2537335,-2.99e-6)">
      <stop
         stop-color="#BAFA52"
         id="stop4" />
      <stop
         offset="1"
         stop-color="#3F8F5B"
         id="stop5" />
    </linearGradient>
    <linearGradient
       inkscape:collect="always"
       xlink:href="#linearGradient1"
       id="linearGradient6"
       x1="7.8731513"
       y1="9.5000038"
       x2="16.000034"
       y2="1"
       gradientUnits="userSpaceOnUse"
       gradientTransform="matrix(0.8437483,0,0,0.85714259,1.3000005,1.1428574)" />
    <linearGradient
       inkscape:collect="always"
       xlink:href="#linearGradient7"
       id="linearGradient8"
       x1="0"
       y1="15.000005"
       x2="8.8890095"
       y2="3.0000031"
       gradientUnits="userSpaceOnUse"
       gradientTransform="matrix(0.8437483,0,0,0.85714259,1.3000005,1.1428574)" />
  </defs>
  <path
     d="m 7.2660174,9.1967181 c 0.4068584,0 0.797068,0.1624493 1.0847422,0.451608 0.2876952,0.2891772 0.4493271,0.6813629 0.4493271,1.0903039 v 1.02934 l -0.00554,0.07396 C 8.5831444,13.299624 7.2808859,14 5.0956959,14 2.9186782,14 1.5952872,13.307835 1.30961,11.867341 L 1.3,11.766611 V 10.738635 C 1.3,10.329694 1.461625,9.9375073 1.7493186,9.6483289 2.0370123,9.3591721 2.4272086,9.1967215 2.8340691,9.1967215 Z m 0,1.0279489 H 2.8342646 c -0.1356195,0 -0.2656847,0.05416 -0.3615832,0.150538 -0.095897,0.09638 -0.1497729,0.22712 -0.1497729,0.363425 v 0.973142 c 0.1909071,0.822364 1.0567928,1.260271 2.7729192,1.260271 1.7154184,0 2.5431487,-0.432424 2.6815539,-1.244507 V 10.73863 c 0,-0.136305 -0.053872,-0.267044 -0.1497837,-0.363425 -0.095891,-0.09639 -0.225961,-0.150538 -0.3615805,-0.150538 z M 5.0501419,3.714288 c 0.3133676,0 0.6236919,0.06203 0.9132086,0.1825662 0.2895178,0.1205573 0.5525922,0.2972185 0.774182,0.5199448 0.2215894,0.2227272 0.3973664,0.4871558 0.5172993,0.7781573 0.119913,0.2909972 0.1816484,0.6029141 0.1816484,0.9178926 0,0.3149776 -0.061732,0.6268695 -0.1816484,0.917893 C 7.1348989,7.3217414 6.9591219,7.5861493 6.7375325,7.8088756 6.5159427,8.0316038 6.2528683,8.2082824 5.9633505,8.3288179 5.6738338,8.4493551 5.3635095,8.5114106 5.0501419,8.5114106 4.4172587,8.5114106 3.8102811,8.2587037 3.3627518,7.8088756 2.9152293,7.3590688 2.6638136,6.748977 2.6638136,6.1128489 2.6638136,5.4766986 2.9152293,4.8666271 3.3627518,4.416799 3.8102811,3.9669942 4.4172587,3.714288 5.0501419,3.714288 Z m 0,1.0279455 c -0.3616441,0 -0.7085043,0.1444096 -0.964229,0.4014459 -0.2557242,0.2570342 -0.3993798,0.6056527 -0.3993798,0.9691695 0,0.3635142 0.1436556,0.7121131 0.3993798,0.9691703 0.2557247,0.2570356 0.6025849,0.4014212 0.964229,0.4014212 0.3616457,0 0.7085047,-0.1443856 0.9642291,-0.4014212 C 6.2700957,6.824962 6.4137512,6.4763631 6.4137512,6.1128489 6.4137512,5.7493321 6.2700957,5.4007136 6.014371,5.1436794 5.7586466,4.8866431 5.4117876,4.7422335 5.0501419,4.7422335 Z"
     id="path1"
     style="fill:url(#linearGradient8);fill-opacity:1;stroke-width:0.214282" />
  <path
     fill-rule="evenodd"
     clip-rule="evenodd"
     d="m 13.257165,2 c 0.409195,0 0.801616,0.1644509 1.090962,0.4571778 0.289319,0.2927176 0.451874,0.6897347 0.451874,1.1036995 v 2.4280494 c 0,0.2049849 -0.03983,0.4079575 -0.117449,0.5973434 -0.07751,0.1893626 -0.191179,0.3614349 -0.334425,0.5063794 -0.143274,0.1449386 -0.313353,0.2599263 -0.500544,0.3383563 -0.187179,0.078452 -0.387808,0.1188201 -0.590418,0.1188201 H 12.259467 L 10.774234,9.0351033 C 10.654015,9.1553816 10.501319,9.237003 10.335359,9.2697257 10.169397,9.3024237 9.997589,9.2847264 9.8415442,9.2188798 9.6854824,9.1530331 9.5521773,9.0419654 9.4583652,8.8996579 9.364575,8.7573296 9.3144758,8.5901233 9.3143675,8.419056 V 7.540119 C 8.9372296,7.4974767 8.58885,7.3156548 8.3358448,7.0294979 8.0828415,6.7433397 7.9429789,6.3728622 7.942958,5.9889267 V 3.5608773 c 0,-0.4139648 0.1625552,-0.8109819 0.4518803,-1.1036995 C 8.6841828,2.1644509 9.0765996,2 9.4857947,2 Z m 4.8e-5,1.0406646 H 9.4858354 c -0.1363895,0 -0.267208,0.054811 -0.3636579,0.1523933 -0.09643,0.097586 -0.1506198,0.2299082 -0.1506198,0.3679034 v 2.4280521 c 0,0.2872071 0.2303967,0.5202837 0.5142777,0.5202837 H 10.342278 V 8.0035968 L 11.8378,6.5092971 h 1.420097 c 0.136388,0 0.267216,-0.054793 0.363652,-0.1523776 0.09643,-0.097585 0.150629,-0.2299282 0.150629,-0.3679061 V 3.5609613 c 0,-0.1379952 -0.05418,-0.2703175 -0.150629,-0.3679032 -0.09643,-0.097578 -0.227264,-0.1523935 -0.363652,-0.1523935 z"
     id="path2"
     style="fill:url(#linearGradient6);fill-opacity:1;stroke-width:0.214282" />
</svg>
