<?xml version="1.0" encoding="UTF-8" standalone="no"?>
<svg
   width="16"
   height="16"
   viewBox="0 0 16 16"
   fill="none"
   version="1.1"
   id="svg49"
   sodipodi:docname="preferences-desktop-locale.svg"
   inkscape:version="1.3 (0e150ed6c4, 2023-07-21)"
   xmlns:inkscape="http://www.inkscape.org/namespaces/inkscape"
   xmlns:sodipodi="http://sodipodi.sourceforge.net/DTD/sodipodi-0.dtd"
   xmlns:xlink="http://www.w3.org/1999/xlink"
   xmlns="http://www.w3.org/2000/svg"
   xmlns:svg="http://www.w3.org/2000/svg">
  <sodipodi:namedview
     id="namedview51"
     pagecolor="#ffffff"
     bordercolor="#666666"
     borderopacity="1.0"
     inkscape:showpageshadow="2"
     inkscape:pageopacity="0.0"
     inkscape:pagecheckerboard="0"
     inkscape:deskcolor="#d1d1d1"
     showgrid="false"
     inkscape:zoom="7.6092137"
     inkscape:cx="26.612474"
     inkscape:cy="36.600365"
     inkscape:window-width="1920"
     inkscape:window-height="994"
     inkscape:window-x="0"
     inkscape:window-y="0"
     inkscape:window-maximized="1"
     inkscape:current-layer="svg49">
    <inkscape:grid
       type="xygrid"
       id="grid12572"
       originx="0"
       originy="0"
       spacingy="1"
       spacingx="1"
       units="px"
       visible="false" />
  </sodipodi:namedview>
  <defs
     id="defs47">
    <linearGradient
       id="paint0_linear"
       x1="51"
       y1="10"
       x2="11"
       y2="50"
       gradientUnits="userSpaceOnUse">
      <stop
         stop-color="#6EB4D9"
         id="stop22" />
      <stop
         offset="1"
         stop-color="#004E6E"
         id="stop24" />
    </linearGradient>
    <linearGradient
       id="paint1_linear"
       x1="8"
       y1="8"
       x2="48"
       y2="48"
       gradientUnits="userSpaceOnUse">
      <stop
         stop-color="#44F0D3"
         id="stop27" />
      <stop
         offset="1"
         stop-color="#3DAEE9"
         id="stop29" />
    </linearGradient>
    <linearGradient
       id="paint2_linear"
       x1="43"
       y1="18"
       x2="19.5854"
       y2="-11.2683"
       gradientUnits="userSpaceOnUse">
      <stop
         stop-color="#D1D5D9"
         id="stop32" />
      <stop
         offset="1"
         stop-color="#FCFFFF"
         id="stop34" />
    </linearGradient>
    <linearGradient
       id="paint3_linear"
       x1="38"
       y1="25"
       x2="14.02"
       y2="0.020815801"
       gradientUnits="userSpaceOnUse">
      <stop
         stop-color="#D1D5D9"
         id="stop37" />
      <stop
         offset="1"
         stop-color="#FCFFFF"
         id="stop39" />
    </linearGradient>
    <linearGradient
       id="paint4_linear"
       x1="33"
       y1="32"
       x2="9.3934402"
       y2="12.3279"
       gradientUnits="userSpaceOnUse">
      <stop
         stop-color="#D1D5D9"
         id="stop42" />
      <stop
         offset="1"
         stop-color="#FCFFFF"
         id="stop44" />
    </linearGradient>
    <linearGradient
       gradientTransform="matrix(0.69997078,0,0,0.69993111,-301.98906,-350.62269)"
       gradientUnits="userSpaceOnUse"
       x2="420.52621"
       y2="507.73929"
       y1="539.72559"
       id="a-6"
       x1="396.44348">
      <stop
         stop-color="#18222a"
         style="stop-color:#00d4aa;stop-opacity:1"
         id="stop216"
         offset="0" />
      <stop
         stop-color="#566069"
         offset="1"
         style="stop-color:#008fb2;stop-opacity:1;"
         id="stop218" />
    </linearGradient>
    <linearGradient
       id="paint0_linear-3"
       x1="51"
       y1="10"
       x2="11"
       y2="50"
       gradientUnits="userSpaceOnUse"
       gradientTransform="matrix(0.43999763,0,0,0.43999763,2.7522754,3.7879942)">
      <stop
         stop-color="#6EB4D9"
         id="stop229" />
      <stop
         offset="1"
         stop-color="#004E6E"
         id="stop231" />
    </linearGradient>
    <linearGradient
       id="paint1_linear-6"
       x1="8"
       y1="8"
       x2="48"
       y2="48"
       gradientUnits="userSpaceOnUse"
       gradientTransform="matrix(0.43999763,0,0,0.43999763,2.7522754,3.7879942)">
      <stop
         stop-color="#44F0D3"
         id="stop234" />
      <stop
         offset="1"
         stop-color="#3DAEE9"
         id="stop236" />
    </linearGradient>
    <linearGradient
       id="paint2_linear-7"
       x1="43"
       y1="18"
       x2="19.5854"
       y2="-11.2683"
       gradientUnits="userSpaceOnUse"
       gradientTransform="matrix(0.43999763,0,0,0.43999763,2.7522754,3.7879942)">
      <stop
         stop-color="#D1D5D9"
         id="stop239" />
      <stop
         offset="1"
         stop-color="#FCFFFF"
         id="stop241" />
    </linearGradient>
    <linearGradient
       id="paint3_linear-5"
       x1="38"
       y1="25"
       x2="14.02"
       y2="0.020815801"
       gradientUnits="userSpaceOnUse"
       gradientTransform="matrix(0.43999763,0,0,0.43999763,2.7522754,3.7879942)">
      <stop
         stop-color="#D1D5D9"
         id="stop244" />
      <stop
         offset="1"
         stop-color="#FCFFFF"
         id="stop246" />
    </linearGradient>
    <linearGradient
       id="paint4_linear-3"
       x1="33"
       y1="32"
       x2="9.3934402"
       y2="12.3279"
       gradientUnits="userSpaceOnUse"
       gradientTransform="matrix(0.43999763,0,0,0.43999763,2.7522754,3.7879942)">
      <stop
         stop-color="#D1D5D9"
         id="stop249" />
      <stop
         offset="1"
         stop-color="#FCFFFF"
         id="stop251" />
    </linearGradient>
    <clipPath
       clipPathUnits="userSpaceOnUse"
       id="clipPath977-3">
      <path
         id="path979-6"
         style="fill:url(#linearGradient981);fill-opacity:1;stroke:none;stroke-width:3.77953;stroke-linecap:round;stroke-linejoin:round;stroke-opacity:1"
         d="m 498.58672,331.99279 c -26.19823,0 -47.28906,21.09084 -47.28906,47.28906 v 42.5892 70.06055 23.03125 c 0,13.4388 10.81901,24.25782 24.25781,24.25782 h 23.03125 100.57422 18.61328 c 26.19823,0 47.28906,-21.09084 47.28906,-47.28907 V 379.28185 c 0,-26.19823 -21.09083,-47.28906 -47.28906,-47.28906 z"
         sodipodi:nodetypes="ssccssccsssss" />
    </clipPath>
    <clipPath
       clipPathUnits="userSpaceOnUse"
       id="clipPath977-3-5">
      <path
         id="path979-6-3"
         style="fill:url(#linearGradient981);fill-opacity:1;stroke:none;stroke-width:3.77953;stroke-linecap:round;stroke-linejoin:round;stroke-opacity:1"
         d="m 498.58672,331.99279 c -26.19823,0 -47.28906,21.09084 -47.28906,47.28906 v 42.5892 70.06055 23.03125 c 0,13.4388 10.81901,24.25782 24.25781,24.25782 h 23.03125 100.57422 18.61328 c 26.19823,0 47.28906,-21.09084 47.28906,-47.28907 V 379.28185 c 0,-26.19823 -21.09083,-47.28906 -47.28906,-47.28906 z"
         sodipodi:nodetypes="ssccssccsssss" />
    </clipPath>
    <clipPath
       clipPathUnits="userSpaceOnUse"
       id="clipPath977-3-5-7">
      <path
         id="path979-6-3-5"
         style="fill:url(#linearGradient981);fill-opacity:1;stroke:none;stroke-width:3.77953;stroke-linecap:round;stroke-linejoin:round;stroke-opacity:1"
         d="m 498.58672,331.99279 c -26.19823,0 -47.28906,21.09084 -47.28906,47.28906 v 42.5892 70.06055 23.03125 c 0,13.4388 10.81901,24.25782 24.25781,24.25782 h 23.03125 100.57422 18.61328 c 26.19823,0 47.28906,-21.09084 47.28906,-47.28907 V 379.28185 c 0,-26.19823 -21.09083,-47.28906 -47.28906,-47.28906 z"
         sodipodi:nodetypes="ssccssccsssss" />
    </clipPath>
    <clipPath
       clipPathUnits="userSpaceOnUse"
       id="clipPath977-3-5-7-6">
      <path
         id="path979-6-3-5-1"
         style="fill:url(#linearGradient981);fill-opacity:1;stroke:none;stroke-width:3.77953;stroke-linecap:round;stroke-linejoin:round;stroke-opacity:1"
         d="m 498.58672,331.99279 c -26.19823,0 -47.28906,21.09084 -47.28906,47.28906 v 42.5892 70.06055 23.03125 c 0,13.4388 10.81901,24.25782 24.25781,24.25782 h 23.03125 100.57422 18.61328 c 26.19823,0 47.28906,-21.09084 47.28906,-47.28907 V 379.28185 c 0,-26.19823 -21.09083,-47.28906 -47.28906,-47.28906 z"
         sodipodi:nodetypes="ssccssccsssss" />
    </clipPath>
    <clipPath
       clipPathUnits="userSpaceOnUse"
       id="clipPath977-3-7">
      <path
         id="path979-6-5"
         style="fill:url(#linearGradient981);fill-opacity:1;stroke:none;stroke-width:3.77953;stroke-linecap:round;stroke-linejoin:round;stroke-opacity:1"
         d="m 498.58672,331.99279 c -26.19823,0 -47.28906,21.09084 -47.28906,47.28906 v 42.5892 70.06055 23.03125 c 0,13.4388 10.81901,24.25782 24.25781,24.25782 h 23.03125 100.57422 18.61328 c 26.19823,0 47.28906,-21.09084 47.28906,-47.28907 V 379.28185 c 0,-26.19823 -21.09083,-47.28906 -47.28906,-47.28906 z"
         sodipodi:nodetypes="ssccssccsssss" />
    </clipPath>
    <linearGradient
       id="oomox"
       x1="0"
       x2="0"
       y1="0"
       y2="1">
      <stop
         offset="0%"
         style="stop-color:#303b3d; stop-opacity:1"
         id="stop7" />
      <stop
         offset="100%"
         style="stop-color:#bc985d; stop-opacity:1"
         id="stop8" />
    </linearGradient>
    <linearGradient
       inkscape:collect="always"
       xlink:href="#paint1_linear-6"
       id="linearGradient6"
       x1="1.8243694"
       y1="11.030112"
       x2="7.2515049"
       y2="11.030112"
       gradientUnits="userSpaceOnUse" />
    <linearGradient
       inkscape:collect="always"
       xlink:href="#paint1_linear-6"
       id="linearGradient7"
       x1="10.887671"
       y1="11.658018"
       x2="13.062554"
       y2="11.658018"
       gradientUnits="userSpaceOnUse" />
    <linearGradient
       inkscape:collect="always"
       xlink:href="#paint1_linear-6"
       id="linearGradient8"
       x1="6.039546"
       y1="4.3525958"
       x2="12.061165"
       y2="4.3525958"
       gradientUnits="userSpaceOnUse" />
    <linearGradient
       inkscape:collect="always"
       xlink:href="#paint1_linear-6"
       id="linearGradient9"
       x1="2.0821149"
       y1="8.6339922"
       x2="13.917885"
       y2="8.6339922"
       gradientUnits="userSpaceOnUse" />
  </defs>
  <path
     d="m 7.2514991,13.421496 c 0,0.358411 -0.310649,0.640998 -0.661173,0.566398 -2.546632,-0.541732 -4.501583,-2.683081 -4.763261,-5.322406 -0.033,-0.333073 0.241487,-0.605185 0.576186,-0.605185 h 1.818091 c 0.334699,0 0.606036,0.271324 0.606036,0.606036 0,1.004134 0.813985,1.818091 1.818092,1.818091 0.334711,0 0.606035,0.271324 0.606035,0.606036 z"
     id="path1"
     style="stroke-width:0.606032;fill:url(#linearGradient6)" />
  <path
     d="m 10.887683,12.259129 c 0,0.466761 0.501799,0.748448 0.859535,0.448699 0.479436,-0.401674 0.895772,-0.876135 1.231996,-1.406416 0.233987,-0.368948 -0.05488,-0.816984 -0.491798,-0.816984 h -0.993709 c -0.334712,0 -0.606036,0.271324 -0.606036,0.606035 z"
     id="path2"
     style="stroke-width:0.606032;fill:url(#linearGradient7)" />
  <path
     d="m 7.8575311,2 c 1.54659,0 2.9578529,0.579323 4.0285879,1.532797 0.373136,0.332237 0.1065,0.891323 -0.393074,0.891323 h -0.08775 c -0.955285,0 -1.7296729,0.77441 -1.7296729,1.729673 0,0.196062 -0.110749,0.375286 -0.286111,0.462961 l -0.04887,0.0245 c -0.170599,0.08525 -0.371436,0.08525 -0.542036,0 l -0.04887,-0.0245 c -0.175325,-0.08762 -0.286112,-0.266912 -0.286112,-0.462961 0,-0.955272 -0.774385,-1.729673 -1.729672,-1.729673 h -0.08837 c -0.334698,0 -0.606035,-0.271337 -0.606035,-0.606036 V 2.722313 c 0,-0.26475 0.171224,-0.501911 0.428974,-0.562373 C 6.9144861,2.055336 7.3795531,2 7.8575311,2 Z"
     id="path3"
     style="stroke-width:0.606032;fill:url(#linearGradient8)" />
  <path
     d="m 2.6599561,6.848214 c -0.383148,0 -0.671372,-0.352486 -0.549573,-0.71576 0.363961,-1.085509 1.026847,-2.033906 1.890876,-2.747416 0.345049,-0.284937 0.82621,-0.0145 0.82621,0.433024 v 0 c 0,1.004096 0.813985,1.818091 1.818116,1.818091 h 0.08837 c 0.285862,0 0.517611,0.231737 0.517611,0.517611 0,0.655148 0.370099,1.25409 0.956135,1.547045 l 0.04887,0.0245 c 0.511849,0.255924 1.114309,0.255924 1.626162,0 l 0.04887,-0.0245 C 10.517576,7.40786 10.887738,6.808912 10.887738,6.153764 c 0,-0.285874 0.231749,-0.517611 0.517611,-0.517611 h 1.611677 c 0.240899,0 0.461548,0.14175 0.543248,0.368349 0.23145,0.641898 0.357611,1.334081 0.357611,2.055741 0,0.244712 -0.0145,0.486036 -0.04275,0.723123 -0.034,0.286224 -0.285687,0.488948 -0.573911,0.488948 h -1.807402 c -1.004134,0 -1.8180919,0.814022 -1.8180919,1.818092 v 2.307886 c 0,0.264712 -0.171261,0.501911 -0.429011,0.562336 -0.0405,0.0095 -0.08125,0.01863 -0.122124,0.02737 -0.350524,0.0745 -0.660873,-0.208112 -0.660873,-0.566461 v -2.331143 c 0,-1.004071 -0.814022,-1.818091 -1.818093,-1.818091 -0.334724,0 -0.606048,-0.271324 -0.606048,-0.606036 0,-1.004071 -0.813985,-1.818063 -1.818091,-1.818063 z"
     id="path4"
     style="stroke-width:0.606032;fill:url(#linearGradient9)" />
</svg>
