<?xml version="1.0" encoding="UTF-8" standalone="no"?>
<svg
   width="16"
   height="16"
   version="1.1"
   id="svg22"
   sodipodi:docname="preferences-desktop-cryptography.svg"
   inkscape:version="1.3 (0e150ed6c4, 2023-07-21)"
   xmlns:inkscape="http://www.inkscape.org/namespaces/inkscape"
   xmlns:sodipodi="http://sodipodi.sourceforge.net/DTD/sodipodi-0.dtd"
   xmlns:xlink="http://www.w3.org/1999/xlink"
   xmlns="http://www.w3.org/2000/svg"
   xmlns:svg="http://www.w3.org/2000/svg">
  <sodipodi:namedview
     id="namedview22"
     pagecolor="#ffffff"
     bordercolor="#000000"
     borderopacity="0.25"
     inkscape:showpageshadow="2"
     inkscape:pageopacity="0.0"
     inkscape:pagecheckerboard="0"
     inkscape:deskcolor="#d1d1d1"
     inkscape:zoom="23.96875"
     inkscape:cx="3.6923077"
     inkscape:cy="4.7770535"
     inkscape:window-width="1920"
     inkscape:window-height="994"
     inkscape:window-x="0"
     inkscape:window-y="0"
     inkscape:window-maximized="1"
     inkscape:current-layer="svg22" />
  <defs
     id="defs22">
    <linearGradient
       id="linearGradient22"
       inkscape:collect="always">
      <stop
         style="stop-color:#1ba97f;stop-opacity:1"
         offset="0"
         id="stop23" />
      <stop
         style="stop-color:#ffd556;stop-opacity:1"
         offset="1"
         id="stop24" />
    </linearGradient>
    <style
       id="current-color-scheme"
       type="text/css">&#10;   .ColorScheme-Text { color:#d5c289; } .ColorScheme-Highlight { color:#5294e2; }&#10;  </style>
    <linearGradient
       id="arrongin"
       x1="0%"
       x2="0%"
       y1="0%"
       y2="100%">
      <stop
         offset="0%"
         style="stop-color:#dd9b44; stop-opacity:1"
         id="stop1" />
      <stop
         offset="100%"
         style="stop-color:#ad6c16; stop-opacity:1"
         id="stop2" />
    </linearGradient>
    <linearGradient
       id="aurora"
       x1="0%"
       x2="0%"
       y1="0%"
       y2="100%">
      <stop
         offset="0%"
         style="stop-color:#09D4DF; stop-opacity:1"
         id="stop3" />
      <stop
         offset="100%"
         style="stop-color:#9269F4; stop-opacity:1"
         id="stop4" />
    </linearGradient>
    <linearGradient
       id="fitdance"
       x1="0%"
       x2="0%"
       y1="0%"
       y2="100%">
      <stop
         offset="0%"
         style="stop-color:#1AD6AB; stop-opacity:1"
         id="stop5" />
      <stop
         offset="100%"
         style="stop-color:#329DB6; stop-opacity:1"
         id="stop6" />
    </linearGradient>
    <linearGradient
       id="oomox"
       x1="895.72337"
       x2="895.72337"
       y1="-131.54957"
       y2="-118.90034"
       gradientTransform="scale(1.2648997,0.79057653)"
       gradientUnits="userSpaceOnUse">
      <stop
         offset="0%"
         style="stop-color:#303b3d; stop-opacity:1"
         id="stop7" />
      <stop
         offset="100%"
         style="stop-color:#bc985d; stop-opacity:1"
         id="stop8" />
    </linearGradient>
    <linearGradient
       id="rainblue"
       x1="0%"
       x2="0%"
       y1="0%"
       y2="100%">
      <stop
         offset="0%"
         style="stop-color:#00F260; stop-opacity:1"
         id="stop9" />
      <stop
         offset="100%"
         style="stop-color:#0575E6; stop-opacity:1"
         id="stop10" />
    </linearGradient>
    <linearGradient
       id="sunrise"
       x1="0%"
       x2="0%"
       y1="0%"
       y2="100%">
      <stop
         offset="0%"
         style="stop-color: #FF8501; stop-opacity:1"
         id="stop11" />
      <stop
         offset="100%"
         style="stop-color: #FFCB01; stop-opacity:1"
         id="stop12" />
    </linearGradient>
    <linearGradient
       id="telinkrin"
       x1="0%"
       x2="0%"
       y1="0%"
       y2="100%">
      <stop
         offset="0%"
         style="stop-color: #b2ced6; stop-opacity:1"
         id="stop13" />
      <stop
         offset="100%"
         style="stop-color: #6da5b7; stop-opacity:1"
         id="stop14" />
    </linearGradient>
    <linearGradient
       id="60spsycho"
       x1="0%"
       x2="0%"
       y1="0%"
       y2="100%">
      <stop
         offset="0%"
         style="stop-color: #df5940; stop-opacity:1"
         id="stop15" />
      <stop
         offset="25%"
         style="stop-color: #d8d15f; stop-opacity:1"
         id="stop16" />
      <stop
         offset="50%"
         style="stop-color: #e9882a; stop-opacity:1"
         id="stop17" />
      <stop
         offset="100%"
         style="stop-color: #279362; stop-opacity:1"
         id="stop18" />
    </linearGradient>
    <linearGradient
       id="90ssummer"
       x1="0%"
       x2="0%"
       y1="0%"
       y2="100%">
      <stop
         offset="0%"
         style="stop-color: #f618c7; stop-opacity:1"
         id="stop19" />
      <stop
         offset="20%"
         style="stop-color: #94ffab; stop-opacity:1"
         id="stop20" />
      <stop
         offset="50%"
         style="stop-color: #fbfd54; stop-opacity:1"
         id="stop21" />
      <stop
         offset="100%"
         style="stop-color: #0f83ae; stop-opacity:1"
         id="stop22" />
    </linearGradient>
    <linearGradient
       inkscape:collect="always"
       xlink:href="#linearGradient22"
       id="linearGradient24"
       x1="1133.0002"
       y1="-98.99991"
       x2="1149.0002"
       y2="-98.99991"
       gradientUnits="userSpaceOnUse" />
  </defs>
  <g
     label="status"
     id="g22"
     transform="matrix(0.60313347,0.6720818,-0.68355101,0.59301358,-746.5828,-699.01383)">
    <path
       class="ColorScheme-Text"
       d="m 1135.4455,-104 c -0.5204,0 -0.9408,0.0477 -1.3047,0.19141 -0.3638,0.14368 -0.6621,0.41047 -0.832,0.73437 -0.3398,0.6478 -0.2973,1.40258 -0.3086,2.43164 v 0.004 3.27734 0.004 c 0.012,1.02902 -0.031,1.78385 0.3086,2.43164 0.1698,0.32389 0.4682,0.59068 0.832,0.73437 0.3639,0.1437 0.7843,0.19141 1.3047,0.19141 h 3.1113 c 0.5204,0 0.9409,-0.0477 1.3047,-0.19141 0.3639,-0.14368 0.6602,-0.41047 0.8301,-0.73437 0.2954,-0.56311 0.2967,-1.24151 0.3008,-2.07617 l 1.9453,-0.004 0.5625,-0.49414 0.5,0.5 0.5,-0.5 0.5,0.5 0.5,-0.5 1,1 2.5,-2.5 -2,-2 -6.0078,0.002 c 0,-0.83464 -0.01,-1.51307 -0.3008,-2.07617 -0.1698,-0.3239 -0.4682,-0.59068 -0.832,-0.73437 -0.3639,-0.14384 -0.7824,-0.19155 -1.3028,-0.19155 z m 0,1 h 3.1113 c 0.4518,0 0.7562,0.0522 0.9356,0.12305 0.1794,0.0709 0.2441,0.13346 0.3144,0.26757 0.1407,0.26824 0.1819,0.94434 0.1934,1.97852 v 0.63281 l 6.5859,-0.002 1,1 -1.0859,1.08594 -1,-1 -0.5,0.5 -0.5,-0.5 -0.5,0.5 -0.4551,-0.45508 -0.9844,0.86328 -2.5605,0.0059 v 0.63086 c -0.011,1.03414 -0.053,1.71031 -0.1934,1.97852 -0.07,0.1341 -0.1349,0.1967 -0.3144,0.26757 -0.1795,0.0709 -0.4838,0.12305 -0.9356,0.12305 h -3.1113 c -0.4518,0 -0.7581,-0.0522 -0.9375,-0.12305 -0.1794,-0.0709 -0.2422,-0.13346 -0.3125,-0.26757 -0.1402,-0.26744 -0.1836,-0.94361 -0.1953,-1.97266 v -0.006 -3.26172 -0.006 c 0.012,-1.02902 0.055,-1.70523 0.1953,-1.97266 0.07,-0.13409 0.1331,-0.1967 0.3125,-0.26757 0.1795,-0.0709 0.4857,-0.12305 0.9375,-0.12305 z m 0.5547,3 a 1,1 0 0 0 -1,1 1,1 0 0 0 1,1 1,1 0 0 0 1,-1 1,1 0 0 0 -1,-1 z"
       id="path22"
       style="fill:url(#linearGradient24)" />
  </g>
</svg>
