<?xml version="1.0" encoding="UTF-8" standalone="no"?>
<!-- Created with Inkscape (http://www.inkscape.org/) -->

<svg
   width="16"
   version="1.1"
   height="16"
   id="svg2082"
   sodipodi:docname="preferences-other.svg"
   inkscape:version="1.3 (0e150ed6c4, 2023-07-21)"
   xmlns:inkscape="http://www.inkscape.org/namespaces/inkscape"
   xmlns:sodipodi="http://sodipodi.sourceforge.net/DTD/sodipodi-0.dtd"
   xmlns:xlink="http://www.w3.org/1999/xlink"
   xmlns="http://www.w3.org/2000/svg"
   xmlns:svg="http://www.w3.org/2000/svg">
  <sodipodi:namedview
     id="namedview2084"
     pagecolor="#ffffff"
     bordercolor="#000000"
     borderopacity="0.25"
     inkscape:showpageshadow="2"
     inkscape:pageopacity="0.0"
     inkscape:pagecheckerboard="0"
     inkscape:deskcolor="#d1d1d1"
     showgrid="false"
     inkscape:zoom="22.512993"
     inkscape:cx="6.9515413"
     inkscape:cy="13.61436"
     inkscape:window-width="1920"
     inkscape:window-height="994"
     inkscape:window-x="0"
     inkscape:window-y="0"
     inkscape:window-maximized="1"
     inkscape:current-layer="layer1">
    <inkscape:grid
       type="xygrid"
       id="grid26206"
       originx="0"
       originy="0"
       spacingy="1"
       spacingx="1"
       units="px"
       visible="false" />
  </sodipodi:namedview>
  <defs
     id="defs5455">
    <linearGradient
       id="linearGradient3"
       inkscape:collect="always">
      <stop
         style="stop-color:#ff00ff;stop-opacity:1"
         offset="0"
         id="stop3" />
      <stop
         style="stop-color:#2ad4ff;stop-opacity:1"
         offset="1"
         id="stop12" />
    </linearGradient>
    <linearGradient
       id="linearGradient1"
       inkscape:collect="always">
      <stop
         style="stop-color:#ffdd55;stop-opacity:1"
         offset="0"
         id="stop1" />
      <stop
         style="stop-color:#ff45ff;stop-opacity:1;"
         offset="1"
         id="stop2" />
    </linearGradient>
    <linearGradient
       id="linearGradient11"
       x1="32"
       x2="32"
       y1="2"
       y2="62"
       gradientUnits="userSpaceOnUse"
       gradientTransform="matrix(0.53332428,0,0,0.53332428,395.50503,526.73162)">
      <stop
         stop-color="#b757e4"
         offset="0"
         id="stop4" />
      <stop
         stop-color="#ce63fe"
         offset=".22539"
         id="stop5" />
      <stop
         stop-color="#a43dde"
         offset=".22539"
         id="stop6" />
      <stop
         stop-color="#a147e8"
         offset=".46111"
         id="stop7" />
      <stop
         stop-color="#782dc4"
         offset=".46111"
         id="stop8" />
      <stop
         stop-color="#69369f"
         offset=".75362"
         id="stop9" />
      <stop
         stop-color="#5e338b"
         offset=".75414"
         id="stop10" />
      <stop
         stop-color="#5b4770"
         offset="1"
         id="stop11"
         style="stop-color:#d200d2;stop-opacity:1;" />
    </linearGradient>
    <linearGradient
       id="b-36"
       x1="32"
       x2="32"
       y1="2"
       y2="62"
       gradientUnits="userSpaceOnUse"
       gradientTransform="matrix(0.53332428,0,0,0.53332428,395.50503,526.73162)">
      <stop
         stop-color="#b757e4"
         offset="0"
         id="stop680" />
      <stop
         stop-color="#ce63fe"
         offset=".22539"
         id="stop682" />
      <stop
         stop-color="#a43dde"
         offset=".22539"
         id="stop684" />
      <stop
         stop-color="#a147e8"
         offset=".46111"
         id="stop686" />
      <stop
         stop-color="#782dc4"
         offset=".46111"
         id="stop688" />
      <stop
         stop-color="#69369f"
         offset="0.75362003"
         id="stop690"
         style="stop-color:#ff4aff;stop-opacity:1;" />
      <stop
         stop-color="#5e338b"
         offset="0.75414002"
         id="stop692"
         style="stop-color:#f500f5;stop-opacity:1;" />
      <stop
         stop-color="#5b4770"
         offset="1"
         id="stop694"
         style="stop-color:#ff30ff;stop-opacity:1;" />
    </linearGradient>
    <linearGradient
       id="a-3"
       x1="32"
       x2="32"
       y1="2"
       y2="62"
       gradientTransform="matrix(-0.53332428,0,0,0.53332428,429.63778,526.73162)"
       gradientUnits="userSpaceOnUse">
      <stop
         stop-color="#b757e4"
         offset="0"
         id="stop697"
         style="stop-color:#ffdd55;stop-opacity:1" />
      <stop
         stop-color="#ce63fe"
         offset=".22539"
         id="stop699"
         style="stop-color:#ffd42a;stop-opacity:1" />
      <stop
         stop-color="#bc67e5"
         offset="1"
         id="stop701" />
    </linearGradient>
    <linearGradient
       inkscape:collect="always"
       xlink:href="#linearGradient1"
       id="linearGradient2"
       x1="385.07143"
       y1="521.54241"
       x2="393.71721"
       y2="521.54241"
       gradientUnits="userSpaceOnUse" />
    <linearGradient
       inkscape:collect="always"
       xlink:href="#linearGradient3"
       id="linearGradient12"
       x1="400.07144"
       y1="530.29797"
       x2="393.15479"
       y2="523.5069"
       gradientUnits="userSpaceOnUse" />
  </defs>
  <metadata
     id="metadata5458" />
  <g
     inkscape:label="Capa 1"
     inkscape:groupmode="layer"
     id="layer1"
     transform="translate(-384.57143,-515.798)">
    <path
       d="m 388.96199,517.298 c -0.23943,0 -0.43223,0.18933 -0.43223,0.42438 v 0.57788 a 3.4522966,3.4271374 0 0 0 -0.85117,0.35728 l -0.42379,-0.41615 c -0.0848,-0.0832 -0.1951,-0.1252 -0.30563,-0.1252 -0.11052,0 -0.22095,0.0418 -0.30566,0.1252 l -0.61123,0.60015 c -0.16935,0.16626 -0.16935,0.43388 0,0.60019 l 0.42717,0.41948 a 3.4522966,3.4271374 0 0 0 -0.35882,0.83233 h -0.59698 c -0.23938,0 -0.43222,0.18931 -0.43222,0.42438 v 0.84889 c 0,0.23516 0.19284,0.4245 0.43222,0.4245 h 0.56401 a 3.4522966,3.4271374 0 0 0 0.34199,0.88119 l -0.37737,0.37054 c -0.16935,0.16626 -0.16935,0.43392 0,0.60012 l 0.61123,0.60016 c 0.16933,0.16631 0.44191,0.16631 0.61129,0 l 0.33939,-0.33318 a 3.4522966,3.4271374 0 0 0 0.93557,0.40455 v 0.44763 c 0,0.23514 0.1928,0.4245 0.43223,0.4245 h 0.86457 c 0.23952,0 0.43235,-0.18936 0.43235,-0.4245 v -0.43108 a 3.4522966,3.4271374 0 0 0 0.95995,-0.39706 l 0.31493,0.30914 c 0.16932,0.16631 0.44195,0.16631 0.61123,0 l 0.61124,-0.60016 c 0.16939,-0.1662 0.16939,-0.43386 0,-0.60012 l -0.33852,-0.33248 a 3.4522966,3.4271374 0 0 0 0.36393,-0.91925 h 0.5032 c 0.23947,0 0.43234,-0.18934 0.43234,-0.4245 v -0.84889 c 0,-0.23507 -0.19287,-0.42438 -0.43234,-0.42438 h -0.53444 a 3.4522966,3.4271374 0 0 0 -0.38338,-0.86964 l 0.38921,-0.38217 c 0.16939,-0.16631 0.16939,-0.43393 0,-0.60019 l -0.61124,-0.60015 c -0.16928,-0.16626 -0.44191,-0.16626 -0.61123,0 l -0.40019,0.39296 a 3.4522966,3.4271374 0 0 0 -0.87469,-0.34655 v -0.56542 c 0,-0.23505 -0.19283,-0.42438 -0.43235,-0.42438 z m 0.43235,1.83039 a 2.4586288,2.4139931 0 0 1 2.45862,2.41404 2.4586288,2.4139931 0 0 1 -2.45862,2.414 2.4586288,2.4139931 0 0 1 -2.45866,-2.414 2.4586288,2.4139931 0 0 1 2.45866,-2.41404 z"
       id="path4-3-7-3-6"
       style="fill:url(#linearGradient2)" />
    <path
       d="m 396.39699,523.50692 c -0.23945,0 -0.43229,0.1894 -0.43229,0.42453 v 0.42435 a 2.6757322,2.6271552 0 0 0 -0.72694,0.29603 l -0.30568,-0.30008 c -0.16926,-0.16632 -0.44189,-0.16632 -0.61123,0 l -0.30561,0.30008 c -0.1694,0.16625 -0.1694,0.43393 0,0.60012 l 0.30643,0.30099 a 2.6757322,2.6271552 0 0 0 -0.30137,0.71288 h -0.43315 c -0.23946,0 -0.43237,0.18934 -0.43237,0.4245 v 0.42439 c 0,0.23514 0.19283,0.42444 0.43237,0.42444 h 0.43221 a 2.6757322,2.6271552 0 0 0 0.30149,0.71379 l -0.30561,0.30005 c -0.1694,0.1663 -0.1694,0.43387 0,0.60016 l 0.30561,0.30011 c 0.16934,0.16623 0.44197,0.16623 0.61123,0 l 0.30656,-0.30092 a 2.6757322,2.6271552 0 0 0 0.72606,0.29592 v 0.42536 c 0,0.23505 0.19284,0.42438 0.43229,0.42438 h 0.43229 c 0.23943,0 0.43231,-0.18933 0.43231,-0.42438 v -0.42451 a 2.6757322,2.6271552 0 0 0 0.72696,-0.29596 l 0.30561,0.30011 c 0.16936,0.16623 0.44189,0.16623 0.61126,0 l 0.30565,-0.30011 c 0.1693,-0.16629 0.1693,-0.43386 0,-0.60016 l -0.30648,-0.30093 a 2.6757322,2.6271552 0 0 0 0.30139,-0.71291 h 0.4331 c 0.23951,0 0.43235,-0.1893 0.43235,-0.42444 v -0.42439 c 0,-0.23516 -0.19284,-0.4245 -0.43235,-0.4245 h -0.43222 a 2.6757322,2.6271552 0 0 0 -0.30144,-0.71374 l 0.30565,-0.30013 c 0.1693,-0.16619 0.1693,-0.43387 0,-0.60012 l -0.30565,-0.30008 c -0.16937,-0.16632 -0.4419,-0.16632 -0.61126,0 l -0.3065,0.30087 a 2.6757322,2.6271552 0 0 0 -0.72607,-0.29591 v -0.42526 c 0,-0.23513 -0.19288,-0.42453 -0.43231,-0.42453 z m 0.21611,1.87029 a 1.5535289,1.525325 0 0 1 1.55353,1.52525 1.5535289,1.525325 0 0 1 -1.55353,1.52534 1.5535289,1.525325 0 0 1 -1.5535,-1.52534 1.5535289,1.525325 0 0 1 1.5535,-1.52525 z"
       id="path6-6-5-6-7"
       style="fill:url(#linearGradient12)" />
  </g>
</svg>
