<?xml version="1.0" encoding="UTF-8" standalone="no"?>
<svg
   height="16"
   width="16"
   version="1.1"
   id="svg256"
   sodipodi:docname="preferences-plugin.svg"
   inkscape:version="1.3 (0e150ed6c4, 2023-07-21)"
   xmlns:inkscape="http://www.inkscape.org/namespaces/inkscape"
   xmlns:sodipodi="http://sodipodi.sourceforge.net/DTD/sodipodi-0.dtd"
   xmlns:xlink="http://www.w3.org/1999/xlink"
   xmlns="http://www.w3.org/2000/svg"
   xmlns:svg="http://www.w3.org/2000/svg">
  <defs
     id="defs260">
    <linearGradient
       id="linearGradient1"
       inkscape:collect="always">
      <stop
         style="stop-color:#ff4dff;stop-opacity:1;"
         offset="0"
         id="stop1" />
      <stop
         style="stop-color:#00ccff;stop-opacity:1"
         offset="1"
         id="stop2" />
    </linearGradient>
    <linearGradient
       gradientTransform="matrix(0.84996453,0,0,0.84991636,-362.54275,-477.02652)"
       gradientUnits="userSpaceOnUse"
       x2="426.69501"
       y2="499.92099"
       y1="547.67499"
       id="a-6"
       x1="389.32001">
      <stop
         stop-color="#18222a"
         style="stop-color:#1e2b35;stop-opacity:1"
         id="stop216" />
      <stop
         stop-color="#566069"
         offset="1"
         style="stop-color:#6d7983;stop-opacity:1"
         id="stop218" />
    </linearGradient>
    <linearGradient
       id="a-3">
      <stop
         offset="0"
         stop-color="#292c2f"
         id="stop8" />
      <stop
         offset="1"
         stop-opacity="0"
         id="stop10" />
    </linearGradient>
    <linearGradient
       id="d-6"
       gradientTransform="matrix(0.52174,0,0,0.53846,45.597466,-33.196963)"
       gradientUnits="userSpaceOnUse"
       x1="1.3329999"
       x2="1.3329999"
       y1="48.714001"
       y2="9.7139997">
      <stop
         offset="0"
         stop-color="#eef1f2"
         id="stop19-7" />
      <stop
         offset="1"
         stop-color="#f9fafb"
         id="stop21" />
    </linearGradient>
    <linearGradient
       id="b-3"
       gradientUnits="userSpaceOnUse"
       x1="6"
       x2="20"
       y1="5"
       y2="16"
       gradientTransform="matrix(0.38666491,0,0,0.38666491,-14.932957,-19.595831)">
      <stop
         offset="0"
         stop-color="#31363b"
         id="stop7" />
      <stop
         offset="1"
         stop-color="#232629"
         id="stop9" />
    </linearGradient>
    <linearGradient
       id="c-6"
       gradientUnits="userSpaceOnUse"
       x1="7"
       x2="14"
       y1="7"
       y2="14"
       gradientTransform="matrix(0.38666491,0,0,0.38666491,-14.932957,-19.595831)">
      <stop
         offset="0"
         stop-color="#292c2f"
         id="stop12" />
      <stop
         offset="1"
         stop-opacity="0"
         id="stop14" />
    </linearGradient>
    <linearGradient
       id="linearGradient919"
       gradientUnits="userSpaceOnUse"
       x1="-2.75001"
       x2="12.874999"
       y1="18.874969"
       y2="6.9999781"
       gradientTransform="matrix(0.61111108,0,0,0.61111108,6.3888885,-26.469276)">
      <stop
         offset="0"
         stop-color="#197cf1"
         id="stop225-7" />
      <stop
         offset="1"
         stop-color="#21c9fb"
         id="stop227-5" />
    </linearGradient>
    <linearGradient
       id="linearGradient923"
       gradientUnits="userSpaceOnUse"
       x1="24.749971"
       x2="12.249979"
       y1="18.249971"
       y2="-4.2499962"
       gradientTransform="matrix(0.61111108,0,0,0.61111108,6.3888885,-26.469276)">
      <stop
         offset="0"
         stop-color="#c6cdd1"
         id="stop230-3" />
      <stop
         offset="1"
         stop-color="#e0e5e7"
         id="stop232-5" />
    </linearGradient>
    <linearGradient
       id="linearGradient927"
       gradientTransform="matrix(0.6111107,0,0,0.36666646,3.5319444,-29.906763)"
       gradientUnits="userSpaceOnUse"
       x1="9"
       x2="3.7460971"
       y1="34"
       y2="22.724428">
      <stop
         offset="0"
         stop-color="#7cbaf8"
         id="stop235-6" />
      <stop
         offset="1"
         stop-color="#f4fcff"
         id="stop237-2" />
    </linearGradient>
    <linearGradient
       id="linearGradient4167">
      <stop
         style="stop-color:#a3be8c;stop-opacity:1;"
         offset="0"
         id="stop2-3" />
      <stop
         style="stop-color:#88c0d0;stop-opacity:1;"
         offset="1"
         id="stop4-6" />
    </linearGradient>
    <linearGradient
       id="linearGradient4426"
       x1="39.580002"
       x2="39.580002"
       y1="17.903"
       y2="20.146999"
       gradientUnits="userSpaceOnUse">
      <stop
         stop-color="#2e3440"
         stop-opacity=".25"
         offset="0"
         id="stop29850" />
      <stop
         stop-color="#2e3440"
         stop-opacity="0"
         offset="1"
         id="stop29852" />
    </linearGradient>
    <linearGradient
       id="b-36"
       gradientUnits="userSpaceOnUse"
       x1="12.200004"
       x2="12.200004"
       y1="16.999983"
       y2="4.9999828"
       gradientTransform="translate(0.82392402,-25.565363)">
      <stop
         offset="0"
         stop-color="#999a9c"
         id="stop7-7" />
      <stop
         offset="1"
         stop-color="#dcdfdf"
         id="stop9-5" />
    </linearGradient>
    <linearGradient
       inkscape:collect="always"
       xlink:href="#linearGradient1"
       id="linearGradient2"
       x1="2.000012"
       y1="7.8983491"
       x2="13.999988"
       y2="13.796614"
       gradientUnits="userSpaceOnUse" />
  </defs>
  <sodipodi:namedview
     id="namedview258"
     pagecolor="#ffffff"
     bordercolor="#666666"
     borderopacity="1.0"
     inkscape:showpageshadow="2"
     inkscape:pageopacity="0.0"
     inkscape:pagecheckerboard="0"
     inkscape:deskcolor="#d1d1d1"
     showgrid="false"
     inkscape:zoom="21.454546"
     inkscape:cx="5.9427965"
     inkscape:cy="7.3877117"
     inkscape:window-width="1920"
     inkscape:window-height="994"
     inkscape:window-x="0"
     inkscape:window-y="0"
     inkscape:window-maximized="1"
     inkscape:current-layer="svg256" />
  <linearGradient
     id="a"
     gradientUnits="userSpaceOnUse"
     x1="-2.75001"
     x2="12.874999"
     y1="18.874969"
     y2="6.9999781"
     gradientTransform="matrix(0.61111108,0,0,0.61111108,6.3888885,-26.469276)">
    <stop
       offset="0"
       stop-color="#197cf1"
       id="stop225" />
    <stop
       offset="1"
       stop-color="#21c9fb"
       id="stop227" />
  </linearGradient>
  <linearGradient
     id="b"
     gradientUnits="userSpaceOnUse"
     x1="24.749971"
     x2="12.249979"
     y1="18.249971"
     y2="-4.2499962"
     gradientTransform="matrix(0.61111108,0,0,0.61111108,6.3888885,-26.469276)">
    <stop
       offset="0"
       stop-color="#c6cdd1"
       id="stop230" />
    <stop
       offset="1"
       stop-color="#e0e5e7"
       id="stop232" />
  </linearGradient>
  <linearGradient
     id="c"
     gradientTransform="matrix(0.6111107,0,0,0.36666646,3.5319444,-29.906763)"
     gradientUnits="userSpaceOnUse"
     x1="9"
     x2="3.7460971"
     y1="34"
     y2="22.724428">
    <stop
       offset="0"
       stop-color="#7cbaf8"
       id="stop235" />
    <stop
       offset="1"
       stop-color="#f4fcff"
       id="stop237" />
  </linearGradient>
  <path
     style="opacity:0.2;stroke-width:0.205135"
     d="m 6.9655188,2.2034713 c -0.6877226,0 -1.2413766,0.5442676 -1.2413766,1.2203306 v 1.2203308 h -2.896546 c -0.4584815,0 -0.8275842,0.3628452 -0.8275842,0.8135539 v 2.4406615 h 1.2413768 c 0.6877227,0 1.2413765,0.5442677 1.2413765,1.2203311 0,0.6760632 -0.5536538,1.2203308 -1.2413765,1.2203308 H 2.000012 v 2.847438 C 2.000012,13.637157 2.3691147,14 2.8275962,14 h 2.896546 v -0.813552 c 0,-0.676064 0.553654,-1.220332 1.2413766,-1.220332 0.6877229,0 1.2413766,0.544268 1.2413766,1.220331 v 0.813552 H 10.68965 c 0.458481,0 0.827583,-0.362843 0.827583,-0.813552 v -2.847438 h 1.241378 c 0.687721,0 1.241377,-0.5442666 1.241377,-1.2203298 0,-0.6760634 -0.553656,-1.2203311 -1.241377,-1.2203311 H 11.517233 V 5.4576866 c 0,-0.4507085 -0.369102,-0.8135538 -0.827583,-0.8135538 H 8.2068954 V 3.4238019 c 0,-0.6760629 -0.5536537,-1.2203306 -1.2413766,-1.2203306 z"
     id="path1" />
  <path
     d="m 6.9655188,2.0000842 c -0.6877226,0 -1.2413766,0.5442676 -1.2413766,1.2203308 v 1.2203307 h -2.896546 c -0.4584815,0 -0.8275842,0.3628447 -0.8275842,0.8135538 v 2.4406614 h 1.2413768 c 0.6877227,0 1.2413765,0.5442677 1.2413765,1.220331 0,0.6760636 -0.5536538,1.2203281 -1.2413765,1.2203281 H 2.000012 v 2.847441 c 0,0.450708 0.3691027,0.813553 0.8275842,0.813553 h 2.896546 v -0.813553 c 0,-0.676062 0.553654,-1.220331 1.2413766,-1.220331 0.6877229,0 1.2413766,0.544269 1.2413766,1.220331 v 0.813553 H 10.68965 c 0.458481,0 0.827583,-0.362845 0.827583,-0.813553 V 10.13562 h 1.241378 c 0.687721,0 1.241377,-0.5442645 1.241377,-1.2203281 0,-0.6760633 -0.553656,-1.220331 -1.241377,-1.220331 H 11.517233 V 5.2542995 c 0,-0.4507091 -0.369102,-0.8135538 -0.827583,-0.8135538 H 8.2068954 V 3.220415 c 0,-0.6760631 -0.5536537,-1.2203308 -1.2413766,-1.2203308 z"
     id="path2"
     style="fill:url(#linearGradient2);stroke-width:0.205135" />
  <path
     style="opacity:0.1;fill:#ffffff;stroke-width:0.205135"
     d="M 6.9655532,2 C 6.2778303,2 5.7241678,2.5442761 5.7241678,3.2203393 v 0.2033899 c 0,-0.6760631 0.5536625,-1.2203391 1.2413854,-1.2203391 0.6877229,0 1.2413853,0.544276 1.2413853,1.2203391 V 3.2203393 C 8.2069385,2.5442761 7.6532761,2.0000001 6.9655532,2 Z M 2.8276021,4.4406784 c -0.4584817,0 -0.8275901,0.3628506 -0.8275901,0.8135595 v 0.2033898 c 0,-0.4507089 0.3691084,-0.8135594 0.8275901,-0.8135594 H 5.7241678 V 4.4406784 Z m 5.3793364,0 v 0.2033899 h 2.4827735 c 0.458481,0 0.827586,0.3628506 0.827586,0.8135594 V 5.2542379 c 0,-0.4507089 -0.369105,-0.8135595 -0.827586,-0.8135595 z m 3.3103595,3.254238 v 0.2033895 h 1.241387 c 0.650469,0 1.180161,0.4870987 1.235727,1.1118913 0.0033,-0.031218 0.0056,-0.062659 0.0056,-0.094943 0,-0.6760633 -0.553663,-1.2203389 -1.241387,-1.2203389 z M 4.4617696,9.1186452 C 4.3632868,9.6962684 3.8579477,10.135594 3.2413971,10.135594 H 2.000012 v 0.203391 h 1.2413851 c 0.6165506,0 1.1218897,-0.4393265 1.2203725,-1.0169498 0.00628,0.03696 0.011452,0.074109 0.015355,0.111626 0.00337,-0.0368 0.00566,-0.07394 0.00566,-0.111626 0,-0.069969 -0.00967,-0.1366779 -0.021013,-0.2033901 z"
     id="path3" />
</svg>
