<?xml version="1.0" encoding="UTF-8" standalone="no"?>
<svg
   width="16"
   height="16"
   version="1.1"
   id="svg23"
   sodipodi:docname="preferences-desktop-notification.svg"
   inkscape:version="1.3 (0e150ed6c4, 2023-07-21)"
   xmlns:inkscape="http://www.inkscape.org/namespaces/inkscape"
   xmlns:sodipodi="http://sodipodi.sourceforge.net/DTD/sodipodi-0.dtd"
   xmlns:xlink="http://www.w3.org/1999/xlink"
   xmlns="http://www.w3.org/2000/svg"
   xmlns:svg="http://www.w3.org/2000/svg">
  <sodipodi:namedview
     id="namedview23"
     pagecolor="#ffffff"
     bordercolor="#000000"
     borderopacity="0.25"
     inkscape:showpageshadow="2"
     inkscape:pageopacity="0.0"
     inkscape:pagecheckerboard="0"
     inkscape:deskcolor="#d1d1d1"
     inkscape:zoom="16.948466"
     inkscape:cx="2.9206184"
     inkscape:cy="7.699812"
     inkscape:window-width="1920"
     inkscape:window-height="994"
     inkscape:window-x="0"
     inkscape:window-y="0"
     inkscape:window-maximized="1"
     inkscape:current-layer="svg23" />
  <defs
     id="defs22">
    <linearGradient
       id="linearGradient25"
       inkscape:collect="always">
      <stop
         style="stop-color:#00f5f5;stop-opacity:1;"
         offset="0"
         id="stop25" />
      <stop
         style="stop-color:#ff55dd;stop-opacity:1"
         offset="1"
         id="stop26" />
    </linearGradient>
    <style
       id="current-color-scheme"
       type="text/css">&#10;   .ColorScheme-Text { color:#d5c289; } .ColorScheme-Highlight { color:#5294e2; }&#10;  </style>
    <linearGradient
       id="arrongin"
       x1="0%"
       x2="0%"
       y1="0%"
       y2="100%">
      <stop
         offset="0%"
         style="stop-color:#dd9b44; stop-opacity:1"
         id="stop1" />
      <stop
         offset="100%"
         style="stop-color:#ad6c16; stop-opacity:1"
         id="stop2" />
    </linearGradient>
    <linearGradient
       id="aurora"
       x1="0%"
       x2="0%"
       y1="0%"
       y2="100%">
      <stop
         offset="0%"
         style="stop-color:#09D4DF; stop-opacity:1"
         id="stop3" />
      <stop
         offset="100%"
         style="stop-color:#9269F4; stop-opacity:1"
         id="stop4" />
    </linearGradient>
    <linearGradient
       id="fitdance"
       x1="0%"
       x2="0%"
       y1="0%"
       y2="100%">
      <stop
         offset="0%"
         style="stop-color:#1AD6AB; stop-opacity:1"
         id="stop5" />
      <stop
         offset="100%"
         style="stop-color:#329DB6; stop-opacity:1"
         id="stop6" />
    </linearGradient>
    <linearGradient
       id="oomox"
       x1="0%"
       x2="0%"
       y1="0%"
       y2="100%">
      <stop
         offset="0%"
         style="stop-color:#303b3d; stop-opacity:1"
         id="stop7" />
      <stop
         offset="100%"
         style="stop-color:#bc985d; stop-opacity:1"
         id="stop8" />
    </linearGradient>
    <linearGradient
       id="rainblue"
       x1="0%"
       x2="0%"
       y1="0%"
       y2="100%">
      <stop
         offset="0%"
         style="stop-color:#00F260; stop-opacity:1"
         id="stop9" />
      <stop
         offset="100%"
         style="stop-color:#0575E6; stop-opacity:1"
         id="stop10" />
    </linearGradient>
    <linearGradient
       id="sunrise"
       x1="0%"
       x2="0%"
       y1="0%"
       y2="100%">
      <stop
         offset="0%"
         style="stop-color: #FF8501; stop-opacity:1"
         id="stop11" />
      <stop
         offset="100%"
         style="stop-color: #FFCB01; stop-opacity:1"
         id="stop12" />
    </linearGradient>
    <linearGradient
       id="telinkrin"
       x1="0%"
       x2="0%"
       y1="0%"
       y2="100%">
      <stop
         offset="0%"
         style="stop-color: #b2ced6; stop-opacity:1"
         id="stop13" />
      <stop
         offset="100%"
         style="stop-color: #6da5b7; stop-opacity:1"
         id="stop14" />
    </linearGradient>
    <linearGradient
       id="60spsycho"
       x1="0%"
       x2="0%"
       y1="0%"
       y2="100%">
      <stop
         offset="0%"
         style="stop-color: #df5940; stop-opacity:1"
         id="stop15" />
      <stop
         offset="25%"
         style="stop-color: #d8d15f; stop-opacity:1"
         id="stop16" />
      <stop
         offset="50%"
         style="stop-color: #e9882a; stop-opacity:1"
         id="stop17" />
      <stop
         offset="100%"
         style="stop-color: #279362; stop-opacity:1"
         id="stop18" />
    </linearGradient>
    <linearGradient
       id="90ssummer"
       x1="0%"
       x2="0%"
       y1="0%"
       y2="100%">
      <stop
         offset="0%"
         style="stop-color: #f618c7; stop-opacity:1"
         id="stop19" />
      <stop
         offset="20%"
         style="stop-color: #94ffab; stop-opacity:1"
         id="stop20" />
      <stop
         offset="50%"
         style="stop-color: #fbfd54; stop-opacity:1"
         id="stop21" />
      <stop
         offset="100%"
         style="stop-color: #0f83ae; stop-opacity:1"
         id="stop22" />
    </linearGradient>
    <linearGradient
       inkscape:collect="always"
       xlink:href="#linearGradient25"
       id="linearGradient26"
       x1="327.15875"
       y1="664.04694"
       x2="338.00244"
       y2="653"
       gradientUnits="userSpaceOnUse" />
    <linearGradient
       inkscape:collect="always"
       xlink:href="#linearGradient25"
       id="linearGradient28"
       x1="324"
       y1="653.5"
       x2="331"
       y2="653.5"
       gradientUnits="userSpaceOnUse" />
  </defs>
  <g
     transform="matrix(0.85699288,0,0,0.85427797,-275.66569,-553.28068)"
     class="ColorScheme-Text"
     id="g23">
    <path
       d="m 331.94,653 c 0.0187,0.16677 0.0625,0.32822 0.0625,0.5 0,2.4853 -2.0147,4.5 -4.5,4.5 -0.11769,0 -0.22834,-0.0224 -0.34375,-0.0312 v 2.2188 c 0,1.0041 0.80838,1.8125 1.8125,1.8125 l 1.5451,-5e-5 2,2.0469 2.0625,-2.0469 h 1.6111 c 1.0041,0 1.8125,-0.80838 1.8125,-1.8125 v -5.375 c 0,-1.0041 -0.80837,-1.8125 -1.8125,-1.8125 z"
       id="path22"
       style="fill:url(#linearGradient26)" />
    <path
       class="ColorScheme-Text"
       d="m 327.5,650 c -1.933,0 -3.5,1.567 -3.5,3.5 0,1.933 1.567,3.5 3.5,3.5 1.933,0 3.5,-1.567 3.5,-3.5 0,-1.933 -1.567,-3.5 -3.5,-3.5 z m -0.53125,1 h 1.0312 l -0.0625,1.375 a 0.19952,0.19952 0 0 0 0,0.0625 0.19952,0.19952 0 0 0 0,0.0312 0.19952,0.19952 0 0 0 0.125,0.125 0.19952,0.19952 0 0 0 0.0312,0 0.19952,0.19952 0 0 0 0.0625,0 0.19952,0.19952 0 0 0 0.0625,0 0.19952,0.19952 0 0 0 0.0312,-0.0312 l 1.1562,-0.75 0.5,0.90625 -1.2188,0.625 a 0.19952,0.19952 0 0 0 -0.0312,0 0.19952,0.19952 0 0 0 -0.0312,0.0312 0.19952,0.19952 0 0 0 -0.0312,0.0937 0.19952,0.19952 0 0 0 0,0.0625 0.19952,0.19952 0 0 0 0,0.0312 0.19952,0.19952 0 0 0 0.0312,0.0625 0.19952,0.19952 0 0 0 0.0312,0.0312 0.19952,0.19952 0 0 0 0.0312,0.0312 l 1.25,0.625 -0.53125,0.90625 -1.1562,-0.781 a 0.19952,0.19952 0 0 0 -0.0312,0 0.19952,0.19952 0 0 0 -0.0625,-0.0312 0.19952,0.19952 0 0 0 -0.0625,0 0.19952,0.19952 0 0 0 -0.125,0.0937 0.19952,0.19952 0 0 0 -0.0312,0.0312 0.19952,0.19952 0 0 0 0,0.0312 0.19952,0.19952 0 0 0 0,0.0625 L 327.9999,656 h -1.0312 l 0.0937,-1.375 a 0.19952,0.19952 0 0 0 -0.0312,-0.0937 0.19952,0.19952 0 0 0 -0.0312,-0.0625 0.19952,0.19952 0 0 0 -0.0625,-0.0312 0.19952,0.19952 0 0 0 -0.0625,-0.0312 0.19952,0.19952 0 0 0 -0.0312,0 0.19952,0.19952 0 0 0 -0.0937,0.0312 l -1.1875,0.78125 -0.5,-0.90625 1.25,-0.625 a 0.19952,0.19952 0 0 0 0.0312,-0.0312 0.19952,0.19952 0 0 0 0.0312,-0.0312 0.19952,0.19952 0 0 0 0.0312,-0.0625 0.19952,0.19952 0 0 0 0,-0.0312 0.19952,0.19952 0 0 0 0,-0.0625 0.19952,0.19952 0 0 0 0,-0.0312 0.19952,0.19952 0 0 0 -0.0312,-0.0625 0.19952,0.19952 0 0 0 -0.0312,-0.0312 0.19952,0.19952 0 0 0 -0.0312,0 l -1.25,-0.625 0.5,-0.90625 1.1875,0.75 a 0.19952,0.19952 0 0 0 0.0312,0.0312 0.19952,0.19952 0 0 0 0.0625,0 0.19952,0.19952 0 0 0 0.0625,0 0.19952,0.19952 0 0 0 0.0312,0 0.19952,0.19952 0 0 0 0.0312,-0.0312 0.19952,0.19952 0 0 0 0.0312,-0.0312 0.19952,0.19952 0 0 0 0.0312,-0.0312 0.19952,0.19952 0 0 0 0,-0.0312 0.19952,0.19952 0 0 0 0.0312,-0.0625 0.19952,0.19952 0 0 0 0,-0.0312 l -0.09,-1.38 z"
       id="path23"
       style="fill:url(#linearGradient28)" />
  </g>
</svg>
