<?xml version="1.0" encoding="UTF-8" standalone="no"?>
<svg
   height="16"
   width="16"
   version="1.1"
   id="svg31"
   sodipodi:docname="preferences-system-network-vpn.svg"
   inkscape:version="1.3 (0e150ed6c4, 2023-07-21)"
   xmlns:inkscape="http://www.inkscape.org/namespaces/inkscape"
   xmlns:sodipodi="http://sodipodi.sourceforge.net/DTD/sodipodi-0.dtd"
   xmlns:xlink="http://www.w3.org/1999/xlink"
   xmlns="http://www.w3.org/2000/svg"
   xmlns:svg="http://www.w3.org/2000/svg">
  <defs
     id="defs35">
    <linearGradient
       id="linearGradient1"
       inkscape:collect="always">
      <stop
         style="stop-color:#00ccff;stop-opacity:1"
         offset="0"
         id="stop1" />
      <stop
         style="stop-color:#ff00ff;stop-opacity:1"
         offset="1"
         id="stop3" />
    </linearGradient>
    <linearGradient
       id="a-3"
       gradientTransform="matrix(0.64285741,0,0,0.64285741,138.06113,184.92771)"
       gradientUnits="userSpaceOnUse"
       x2="0"
       y1="545.79797"
       y2="517.79797">
      <stop
         offset="0"
         stop-color="#c6cdd1"
         id="stop2-6" />
      <stop
         offset="1"
         stop-color="#e0e5e7"
         id="stop4-7" />
    </linearGradient>
    <linearGradient
       id="b-5"
       gradientUnits="userSpaceOnUse"
       x1="12.793006"
       x2="20.000004"
       y1="7.706984"
       y2="14.999982">
      <stop
         offset="0"
         stop-color="#292c2f"
         id="stop7-3" />
      <stop
         offset="1"
         stop-opacity="0"
         id="stop9-5" />
    </linearGradient>
    <linearGradient
       id="c-6"
       gradientUnits="userSpaceOnUse"
       x1="7"
       x2="7"
       y1="16"
       y2="6">
      <stop
         offset="0"
         stop-color="#2a2c2f"
         id="stop12-2" />
      <stop
         offset="1"
         stop-color="#424649"
         id="stop14-9" />
    </linearGradient>
    <linearGradient
       id="a-36"
       gradientUnits="userSpaceOnUse"
       x1="24.018"
       x2="24.018"
       y1="18.382999"
       y2="0.38299999">
      <stop
         offset="0"
         stop-color="#a5a5a5"
         id="stop2-7" />
      <stop
         offset="1"
         stop-color="#f5f2f5"
         id="stop4-5" />
    </linearGradient>
    <linearGradient
       id="linearGradient769"
       gradientUnits="userSpaceOnUse"
       x1="7"
       x2="18"
       y1="7"
       y2="18"
       gradientTransform="translate(65.288139,33.68644)">
      <stop
         offset="0"
         stop-color="#292c2f"
         id="stop12-3" />
      <stop
         offset="1"
         stop-opacity="0"
         id="stop14-5" />
    </linearGradient>
    <linearGradient
       id="linearGradient773"
       gradientUnits="userSpaceOnUse"
       x1="5"
       x2="5"
       y1="17"
       y2="5"
       gradientTransform="translate(65.288139,33.68644)">
      <stop
         offset="0"
         stop-color="#ffd42a"
         id="stop7-6" />
      <stop
         offset="1"
         stop-color="#ffdf62"
         id="stop9-2" />
    </linearGradient>
    <linearGradient
       inkscape:collect="always"
       xlink:href="#b"
       id="linearGradient785"
       gradientUnits="userSpaceOnUse"
       gradientTransform="matrix(0.89285706,0,0,0.88663956,-1.821317,-1.677702)"
       x1="5"
       y1="17"
       x2="5"
       y2="5" />
    <linearGradient
       inkscape:collect="always"
       xlink:href="#linearGradient1"
       id="linearGradient3"
       x1="1.7499992"
       y1="8"
       x2="14.250001"
       y2="8"
       gradientUnits="userSpaceOnUse" />
  </defs>
  <sodipodi:namedview
     id="namedview33"
     pagecolor="#ffffff"
     bordercolor="#000000"
     borderopacity="0.25"
     inkscape:showpageshadow="2"
     inkscape:pageopacity="0.0"
     inkscape:pagecheckerboard="0"
     inkscape:deskcolor="#d1d1d1"
     showgrid="false"
     inkscape:zoom="30.341309"
     inkscape:cx="5.4546098"
     inkscape:cy="8.3219877"
     inkscape:window-width="1920"
     inkscape:window-height="994"
     inkscape:window-x="0"
     inkscape:window-y="0"
     inkscape:window-maximized="1"
     inkscape:current-layer="svg31" />
  <linearGradient
     id="a"
     gradientUnits="userSpaceOnUse"
     x1="24.018"
     x2="24.018"
     y1="18.382999"
     y2="0.38299999">
    <stop
       offset="0"
       stop-color="#a5a5a5"
       id="stop2" />
    <stop
       offset="1"
       stop-color="#f5f2f5"
       id="stop4" />
  </linearGradient>
  <linearGradient
     id="b"
     gradientUnits="userSpaceOnUse"
     x1="5"
     x2="5"
     y1="17"
     y2="5"
     gradientTransform="translate(65.288139,33.68644)">
    <stop
       offset="0"
       stop-color="#ffd42a"
       id="stop7" />
    <stop
       offset="1"
       stop-color="#ffdf62"
       id="stop9" />
  </linearGradient>
  <linearGradient
     id="c"
     gradientUnits="userSpaceOnUse"
     x1="7"
     x2="18"
     y1="7"
     y2="18"
     gradientTransform="translate(65.288139,33.68644)">
    <stop
       offset="0"
       stop-color="#292c2f"
       id="stop12" />
    <stop
       offset="1"
       stop-opacity="0"
       id="stop14" />
  </linearGradient>
  <path
     d="M 8.0001065,1.5 7.4054554,2.028174 C 6.0264205,3.251859 4.3267869,4.063963 2.503456,4.371188 L 1.8128942,4.488945 1.7623622,5.183364 c -0.00444,0.06219 -0.00715,0.124764 -0.010443,0.187025 l -0.00192,0.02251 v 0.02424 c 0.00444,3.871836 2.3190148,7.378273 5.8925081,8.927006 L 8.0000048,14.5 8.3574942,14.344145 C 11.930975,12.795412 14.24577,9.288975 14.250001,5.417139 v -0.02424 l -0.0019,-0.02251 c -0.0034,-0.06227 -0.0062,-0.124842 -0.01044,-0.187026 L 14.187094,4.488945 13.496524,4.371188 C 11.673238,4.063963 9.9736048,3.251859 8.5945689,2.028174 Z"
     id="path27-9"
     style="stroke-width:0.889741;fill:url(#linearGradient3)" />
  <path
     d="M 8.0001065,2.689884 A 10.714285,10.639675 0 0 1 2.6534294,5.2459 8.9285704,8.8663955 0 0 0 2.6429867,5.415608 8.9285704,8.8663955 0 0 0 8.0001297,13.53217 8.9285704,8.8663955 0 0 0 13.357271,5.415608 8.9285704,8.8663955 0 0 0 13.346829,5.2459 10.714285,10.639675 0 0 1 8.0001527,2.689884 Z m 0,1.056348 C 9.3005522,4.763349 10.789795,5.475456 12.396383,5.867586 12.226642,8.710354 10.565767,11.221506 8.0001065,12.498334 5.4344562,11.221506 3.7735736,8.710354 3.6038406,5.867586 5.2104282,5.475456 6.6996716,4.763349 8.0001065,3.746232 Z m 0,1.054616 C 6.9490543,5.536763 5.812529,6.092491 4.5873765,6.477151 4.91458,8.576986 6.146841,10.385513 8.0001065,11.4645 9.8533828,10.385513 11.085643,8.576986 11.412846,6.477151 10.187695,6.092491 9.0511696,5.536763 8.0001065,4.800848 Z"
     stroke-width="1.77948"
     id="path29-3"
     style="fill:url(#linearGradient785)" />
</svg>
