<?xml version="1.0" encoding="UTF-8" standalone="no"?>
<svg
   style="isolation:isolate"
   width="16"
   height="16"
   viewBox="0 0 16 16"
   version="1.1"
   id="svg2"
   sodipodi:docname="window-duplicate.svg"
   inkscape:version="1.3 (0e150ed6c4, 2023-07-21)"
   xmlns:inkscape="http://www.inkscape.org/namespaces/inkscape"
   xmlns:sodipodi="http://sodipodi.sourceforge.net/DTD/sodipodi-0.dtd"
   xmlns:xlink="http://www.w3.org/1999/xlink"
   xmlns="http://www.w3.org/2000/svg"
   xmlns:svg="http://www.w3.org/2000/svg">
  <defs
     id="defs2">
    <linearGradient
       id="linearGradient1"
       inkscape:collect="always">
      <stop
         style="stop-color:#ffb380;stop-opacity:1;"
         offset="0"
         id="stop1" />
      <stop
         style="stop-color:#ff42ff;stop-opacity:1;"
         offset="1"
         id="stop2" />
    </linearGradient>
    <linearGradient
       inkscape:collect="always"
       xlink:href="#linearGradient1"
       id="linearGradient2"
       x1="2"
       y1="15"
       x2="14"
       y2="2"
       gradientUnits="userSpaceOnUse" />
  </defs>
  <sodipodi:namedview
     id="namedview2"
     pagecolor="#ffffff"
     bordercolor="#000000"
     borderopacity="0.25"
     inkscape:showpageshadow="2"
     inkscape:pageopacity="0.0"
     inkscape:pagecheckerboard="0"
     inkscape:deskcolor="#d1d1d1"
     inkscape:zoom="16.948466"
     inkscape:cx="12.479005"
     inkscape:cy="5.5167235"
     inkscape:window-width="1920"
     inkscape:window-height="994"
     inkscape:window-x="0"
     inkscape:window-y="0"
     inkscape:window-maximized="1"
     inkscape:current-layer="svg2"
     showgrid="true">
    <inkscape:grid
       id="grid1"
       units="px"
       originx="0"
       originy="0"
       spacingx="1"
       spacingy="1"
       empcolor="#0099e5"
       empopacity="0.30196078"
       color="#0099e5"
       opacity="0.14901961"
       empspacing="5"
       dotted="false"
       gridanglex="30"
       gridanglez="30"
       visible="true" />
  </sodipodi:namedview>
  <path
     d="M 10.876708,5.2127663 H 3.2124013 C 2.819504,5.2127663 2.5,5.5219054 2.5,5.9019391 v 7.4084049 c 0,0.380059 0.319504,0.689173 0.7124013,0.689173 h 7.6643067 c 0.392766,0 0.712375,-0.309139 0.712375,-0.689173 V 5.9017914 c 0,-0.3800337 -0.319633,-0.6890251 -0.712375,-0.6890251 z m -0.482703,0.7844213 c 0.168465,0 0.305048,0.1322351 0.305048,0.2952509 0,0.1632374 -0.136734,0.2953983 -0.305048,0.2953983 -0.168777,0 -0.305332,-0.1321608 -0.305332,-0.2953983 0,-0.1630158 0.136555,-0.2952509 0.305332,-0.2952509 z m -1.0938499,0 c 0.1687736,0 0.3051766,0.1322351 0.3051766,0.2952509 0,0.1632374 -0.136555,0.2953983 -0.3051766,0.2953983 -0.168468,0 -0.3050488,-0.1321608 -0.3050488,-0.2953983 0,-0.1630158 0.1365808,-0.2952509 0.3050488,-0.2952509 z M 10.775169,13.211673 H 3.3140674 V 7.3212112 H 10.774863 V 13.211673 Z M 12.787775,1.9999998 H 5.1233178 c -0.3928208,0 -0.7122478,0.3090897 -0.7122478,0.689173 v 2.026666 H 5.224908 V 4.1085185 h 7.461022 v 5.890511 H 12.421496 V 10.78675 h 0.366129 C 13.180367,10.78675 13.5,10.477439 13.5,10.097577 V 2.6890249 C 13.500151,2.3089425 13.180523,1.9999998 12.787775,1.9999998 Z m -1.576398,1.3750954 c -0.168771,0 -0.305175,-0.1322349 -0.305175,-0.2952507 0,-0.1630897 0.136554,-0.2953247 0.305175,-0.2953247 0.168471,0 0.305049,0.132235 0.305049,0.2953247 0,0.1630158 -0.136578,0.2952507 -0.305049,0.2952507 z m 1.093695,0 c -0.168927,0 -0.305355,-0.1322349 -0.305355,-0.2952507 0,-0.1630897 0.136734,-0.2953247 0.305355,-0.2953247 0.168471,0 0.304898,0.132235 0.304898,0.2953247 3.31e-4,0.1630158 -0.136403,0.2952507 -0.304898,0.2952507 z"
     id="path1-3"
     style="stroke-width:0.0250333;fill:url(#linearGradient2)" />
</svg>
