<?xml version="1.0" encoding="UTF-8" standalone="no"?>
<svg
   width="16"
   height="16"
   viewBox="0 0 16 16"
   fill="none"
   version="1.1"
   id="svg5"
   sodipodi:docname="preferences-desktop-accessibility.svg"
   inkscape:version="1.3 (0e150ed6c4, 2023-07-21)"
   xmlns:inkscape="http://www.inkscape.org/namespaces/inkscape"
   xmlns:sodipodi="http://sodipodi.sourceforge.net/DTD/sodipodi-0.dtd"
   xmlns:xlink="http://www.w3.org/1999/xlink"
   xmlns="http://www.w3.org/2000/svg"
   xmlns:svg="http://www.w3.org/2000/svg">
  <sodipodi:namedview
     id="namedview5"
     pagecolor="#ffffff"
     bordercolor="#000000"
     borderopacity="0.25"
     inkscape:showpageshadow="2"
     inkscape:pageopacity="0.0"
     inkscape:pagecheckerboard="0"
     inkscape:deskcolor="#d1d1d1"
     inkscape:zoom="16.948466"
     inkscape:cx="1.3865562"
     inkscape:cy="16.609173"
     inkscape:window-width="1920"
     inkscape:window-height="994"
     inkscape:window-x="0"
     inkscape:window-y="0"
     inkscape:window-maximized="1"
     inkscape:current-layer="svg5" />
  <defs
     id="defs5">
    <linearGradient
       id="linearGradient9"
       inkscape:collect="always">
      <stop
         style="stop-color:#5599ff;stop-opacity:1"
         offset="0"
         id="stop8" />
      <stop
         style="stop-color:#9955ff;stop-opacity:1"
         offset="1"
         id="stop9" />
    </linearGradient>
    <linearGradient
       id="paint0_linear"
       x1="-1.7536855"
       y1="117.03751"
       x2="122.55104"
       y2="5.6922073"
       gradientUnits="userSpaceOnUse"
       gradientTransform="matrix(0.10229499,0,0,0.10229499,1.4533085,1.4177156)">
      <stop
         stop-color="#5570FF"
         id="stop2"
         style="stop-color:#9955ff;stop-opacity:1" />
      <stop
         offset="1"
         stop-color="#4DD3FF"
         id="stop3"
         style="stop-color:#ffb380;stop-opacity:1" />
    </linearGradient>
    <linearGradient
       id="paint1_linear"
       x1="63.6026"
       y1="105"
       x2="63.6026"
       y2="33"
       gradientUnits="userSpaceOnUse"
       gradientTransform="matrix(0.10229499,0,0,0.10229499,1.4533085,1.4177156)"
       xlink:href="#paint0_linear">
      <stop
         stop-color="#5570FF"
         id="stop4" />
      <stop
         offset="1"
         stop-color="#4DD3FF"
         id="stop5" />
    </linearGradient>
    <linearGradient
       inkscape:collect="always"
       xlink:href="#linearGradient9"
       id="linearGradient6"
       x1="5.3489542"
       y1="3.0982141"
       x2="8"
       y2="3.0982141"
       gradientUnits="userSpaceOnUse"
       gradientTransform="matrix(1.0589565,0,0,1,-0.53449659,0)" />
    <linearGradient
       inkscape:collect="always"
       xlink:href="#linearGradient9"
       id="linearGradient7"
       x1="3.3377165"
       y1="10.062948"
       x2="10.807384"
       y2="10.062948"
       gradientUnits="userSpaceOnUse"
       gradientTransform="matrix(1.0589565,0,0,1,-0.53449659,0)" />
    <linearGradient
       inkscape:collect="always"
       xlink:href="#linearGradient9"
       id="linearGradient8"
       x1="5.6989813"
       y1="8.4720192"
       x2="12.780979"
       y2="8.4720192"
       gradientUnits="userSpaceOnUse"
       gradientTransform="matrix(1.0589565,0,0,1,-0.53449659,0)" />
  </defs>
  <ellipse
     cx="6.5334845"
     cy="3.0982141"
     id="circle1"
     style="fill:url(#linearGradient6);fill-opacity:1;stroke-width:0.0147624"
     rx="1.403671"
     ry="1.3255229" />
  <path
     d="m 7.2641681,13.772691 c 1.0390808,0 2.0401843,-0.357203 2.8195119,-1.005619 0.326611,-0.272564 0.604597,-0.586731 0.826372,-0.932457 l -1.24111,-1.17204 c -0.1503933,0.35003 -0.3858575,0.667065 -0.6912013,0.920994 -0.4739519,0.394501 -1.0816172,0.611118 -1.7135726,0.611118 -1.4294972,0 -2.5931464,-1.098864 -2.5931464,-2.4487602 0,-0.4074123 0.1063394,-0.7961743 0.2977638,-1.1376113 V 6.3532045 C 3.773234,7.0747825 3,8.3400545 3,9.7473468 c 0,1.0759122 0.4435841,2.0858342 1.2487205,2.8475802 0.8051362,0.761744 1.8761046,1.177764 3.0154476,1.177764 z"
     id="path1"
     style="fill:url(#linearGradient7);fill-opacity:1;stroke-width:0.0147624" />
  <path
     d="m 5.5004801,5.3920564 v 0.688584 1.872086 1.6999403 c 0,0.238135 0.2035464,0.4303643 0.4557369,0.4303643 h 3.850981 l 0.02126,0.02006 1.33835,1.263866 0.519555,0.490616 c 0.08962,0.08464 0.205082,0.126254 0.322041,0.126254 0.116956,0 0.233944,-0.0416 0.322037,-0.126254 l 0.536267,-0.506411 c 0.177723,-0.167827 0.177723,-0.440392 0,-0.608219 L 10.632081,8.6312725 C 10.547011,8.5509425 10.43154,8.5050464 10.31001,8.5050464 l -3.1384966,-0.0015 v -1.965331 h 2.8711456 c 0.252175,0 0.455738,-0.192216 0.455738,-0.430365 v -0.717274 c 0,-0.238136 -0.203563,-0.430365 -0.455738,-0.430365 H 5.9562135 c -0.2521902,0.0014 -0.4557365,0.193678 -0.4557365,0.431813 z"
     id="path2"
     style="fill:url(#linearGradient8);fill-opacity:1;stroke-width:0.0147624" />
</svg>
