<?xml version="1.0" encoding="UTF-8" standalone="no"?>
<svg
   height="16"
   width="16"
   version="1.1"
   id="svg2644"
   sodipodi:docname="preferences-system-linux.svg"
   inkscape:version="1.3 (0e150ed6c4, 2023-07-21)"
   xmlns:inkscape="http://www.inkscape.org/namespaces/inkscape"
   xmlns:sodipodi="http://sodipodi.sourceforge.net/DTD/sodipodi-0.dtd"
   xmlns:xlink="http://www.w3.org/1999/xlink"
   xmlns="http://www.w3.org/2000/svg"
   xmlns:svg="http://www.w3.org/2000/svg">
  <defs
     id="defs2648">
    <linearGradient
       id="linearGradient1"
       inkscape:collect="always">
      <stop
         style="stop-color:#ffcc00;stop-opacity:1"
         offset="0"
         id="stop1" />
      <stop
         style="stop-color:#00ccff;stop-opacity:1"
         offset="1"
         id="stop2" />
    </linearGradient>
    <linearGradient
       id="a-2"
       gradientUnits="userSpaceOnUse"
       x1="3"
       x2="3"
       xlink:href="#linearGradient1374"
       y1="21"
       y2="1" />
    <linearGradient
       id="linearGradient1374">
      <stop
         offset="0"
         stop-color="#c6cdd1"
         id="stop283-6" />
      <stop
         offset="1"
         stop-color="#e0e5e7"
         id="stop285-2" />
    </linearGradient>
    <linearGradient
       id="b-1"
       gradientUnits="userSpaceOnUse"
       x1="19"
       x2="3"
       xlink:href="#linearGradient1374"
       y1="21"
       y2="21" />
    <linearGradient
       id="c-9"
       gradientTransform="matrix(0.75,0,0,1,2.75,-1)"
       gradientUnits="userSpaceOnUse"
       x1="3"
       x2="3"
       y1="21"
       y2="19">
      <stop
         offset="0"
         stop-color="#2f3943"
         id="stop265-4" />
      <stop
         offset="1"
         stop-color="#4d5662"
         id="stop267-78" />
    </linearGradient>
    <linearGradient
       id="d-4"
       gradientUnits="userSpaceOnUse"
       x1="11"
       x2="11"
       xlink:href="#linearGradient1374"
       y1="4"
       y2="17" />
    <linearGradient
       id="e-50"
       gradientTransform="matrix(0.625,0,0,0.71429,137.214,166.657)"
       gradientUnits="userSpaceOnUse"
       x1="5"
       x2="5"
       y1="5"
       y2="16">
      <stop
         offset="0"
         stop-color="#2e5d89"
         id="stop271-36" />
      <stop
         offset="1"
         stop-color="#1b92f4"
         id="stop273-1" />
    </linearGradient>
    <linearGradient
       id="f-06"
       gradientTransform="matrix(0.375,0,0,0.66667,-142.2142,357.868)"
       gradientUnits="userSpaceOnUse"
       x1="418.17099"
       x2="418.17099"
       xlink:href="#linearGradient1387"
       y1="-521.79797"
       y2="-518.79797" />
    <linearGradient
       id="linearGradient1387">
      <stop
         offset="0"
         stop-color="#84cbfe"
         id="stop278-6" />
      <stop
         offset="1"
         stop-color="#84cbfe"
         stop-opacity="0"
         id="stop280-2" />
    </linearGradient>
    <linearGradient
       id="g-615"
       gradientTransform="matrix(0.375,0,0,-0.66667,-142.2142,-338.868)"
       gradientUnits="userSpaceOnUse"
       x1="418.17099"
       x2="418.17099"
       xlink:href="#linearGradient1387"
       y1="-521.79797"
       y2="-518.79797" />
    <linearGradient
       id="j"
       gradientTransform="matrix(-6.639062e-4,-0.33908148,0.33113178,-6.4834867e-4,-171.74144,124.51715)"
       gradientUnits="userSpaceOnUse"
       x1="390.57101"
       x2="413.62451"
       y1="507.67401"
       y2="531.28375">
      <stop
         offset="0"
         id="stop288" />
      <stop
         offset="1"
         stop-opacity="0"
         id="stop290" />
    </linearGradient>
    <linearGradient
       id="linearGradient3975"
       gradientUnits="userSpaceOnUse"
       x1="10.355895"
       x2="10.355895"
       y1="18.065456"
       y2="1.9994709"
       gradientTransform="matrix(0.85549446,0,0,0.85549446,-34.342004,-6.4521974)">
      <stop
         offset="0"
         stop-color="#1d1e1e"
         id="stop2610-3" />
      <stop
         offset="1"
         stop-color="#44484c"
         id="stop2612-6" />
    </linearGradient>
    <linearGradient
       id="b-7"
       gradientUnits="userSpaceOnUse"
       x1="11.886601"
       x2="11.661686"
       y1="18.022402"
       y2="9.4762812">
      <stop
         offset="0"
         stop-color="#fcfcfc"
         id="stop2605-5" />
      <stop
         offset="1"
         stop-color="#eff0f1"
         id="stop2607-3" />
    </linearGradient>
    <linearGradient
       id="e-5"
       gradientUnits="userSpaceOnUse"
       x1="7.1428261"
       x2="7.1428261"
       xlink:href="#a"
       y1="19.993298"
       y2="14.209132" />
    <linearGradient
       id="linearGradient3983">
      <stop
         offset="0"
         stop-color="#f39c1f"
         id="stop2600-6" />
      <stop
         offset="1"
         stop-color="#fdbc4b"
         id="stop2602-2" />
    </linearGradient>
    <linearGradient
       id="f-9"
       gradientUnits="userSpaceOnUse"
       x1="9.1779842"
       x2="11.427132"
       y1="7.534945"
       y2="9.7840929">
      <stop
         offset="0"
         id="stop2617-1" />
      <stop
         offset="1"
         stop-opacity="0"
         id="stop2619-2" />
    </linearGradient>
    <linearGradient
       id="linearGradient3988"
       gradientTransform="matrix(0.57860791,0,0,0.51930566,-34.301593,-5.5524368)"
       gradientUnits="userSpaceOnUse"
       x1="16"
       x2="15.731"
       xlink:href="#a"
       y1="12"
       y2="8.1520004" />
    <linearGradient
       gradientTransform="matrix(0.84996453,0,0,0.84991636,-313.13599,-488.65123)"
       gradientUnits="userSpaceOnUse"
       x2="426.69501"
       y2="499.92099"
       y1="547.67499"
       id="a-6"
       x1="389.32001">
      <stop
         stop-color="#18222a"
         style="stop-color:#1e2b35;stop-opacity:1"
         id="stop216" />
      <stop
         stop-color="#566069"
         offset="1"
         style="stop-color:#6d7983;stop-opacity:1"
         id="stop218" />
    </linearGradient>
    <linearGradient
       id="a-3">
      <stop
         offset="0"
         stop-color="#292c2f"
         id="stop8" />
      <stop
         offset="1"
         stop-opacity="0"
         id="stop10" />
    </linearGradient>
    <linearGradient
       id="d-6"
       gradientTransform="matrix(0.52174,0,0,0.53846,45.597466,-33.196963)"
       gradientUnits="userSpaceOnUse"
       x1="1.3329999"
       x2="1.3329999"
       y1="48.714001"
       y2="9.7139997">
      <stop
         offset="0"
         stop-color="#eef1f2"
         id="stop19-7" />
      <stop
         offset="1"
         stop-color="#f9fafb"
         id="stop21" />
    </linearGradient>
    <linearGradient
       id="b-3"
       gradientUnits="userSpaceOnUse"
       x1="6"
       x2="20"
       y1="5"
       y2="16"
       gradientTransform="matrix(0.38666491,0,0,0.38666491,-14.932957,-19.595831)">
      <stop
         offset="0"
         stop-color="#31363b"
         id="stop7" />
      <stop
         offset="1"
         stop-color="#232629"
         id="stop9" />
    </linearGradient>
    <linearGradient
       id="c-6"
       gradientUnits="userSpaceOnUse"
       x1="7"
       x2="14"
       y1="7"
       y2="14"
       gradientTransform="matrix(0.38666491,0,0,0.38666491,-14.932957,-19.595831)">
      <stop
         offset="0"
         stop-color="#292c2f"
         id="stop12" />
      <stop
         offset="1"
         stop-opacity="0"
         id="stop14" />
    </linearGradient>
    <linearGradient
       id="b-7-9"
       gradientUnits="userSpaceOnUse"
       x1="11.886601"
       x2="11.661686"
       y1="18.022402"
       y2="9.4762812">
      <stop
         offset="0"
         stop-color="#fcfcfc"
         id="stop2605-5-1" />
      <stop
         offset="1"
         stop-color="#eff0f1"
         id="stop2607-3-2" />
    </linearGradient>
    <linearGradient
       id="e-5-7"
       gradientUnits="userSpaceOnUse"
       x1="7.1428261"
       x2="7.1428261"
       xlink:href="#linearGradient3983"
       y1="19.993298"
       y2="14.209132" />
    <linearGradient
       id="f-9-3"
       gradientUnits="userSpaceOnUse"
       x1="9.1779842"
       x2="11.427132"
       y1="7.534945"
       y2="9.7840929">
      <stop
         offset="0"
         id="stop2617-1-6" />
      <stop
         offset="1"
         stop-opacity="0"
         id="stop2619-2-0" />
    </linearGradient>
    <linearGradient
       inkscape:collect="always"
       xlink:href="#linearGradient1"
       id="linearGradient2"
       x1="2.7509587"
       y1="2"
       x2="13.25096"
       y2="13.999963"
       gradientUnits="userSpaceOnUse" />
  </defs>
  <sodipodi:namedview
     id="namedview2646"
     pagecolor="#ffffff"
     bordercolor="#666666"
     borderopacity="1.0"
     inkscape:showpageshadow="2"
     inkscape:pageopacity="0.0"
     inkscape:pagecheckerboard="0"
     inkscape:deskcolor="#d1d1d1"
     showgrid="false"
     inkscape:zoom="127.35272"
     inkscape:cx="8.4764583"
     inkscape:cy="4.6916942"
     inkscape:window-width="1920"
     inkscape:window-height="994"
     inkscape:window-x="0"
     inkscape:window-y="0"
     inkscape:window-maximized="1"
     inkscape:current-layer="svg2644" />
  <linearGradient
     id="a">
    <stop
       offset="0"
       stop-color="#f39c1f"
       id="stop2600" />
    <stop
       offset="1"
       stop-color="#fdbc4b"
       id="stop2602" />
  </linearGradient>
  <linearGradient
     id="b"
     gradientUnits="userSpaceOnUse"
     x1="11.886601"
     x2="11.661686"
     y1="18.022402"
     y2="9.4762812">
    <stop
       offset="0"
       stop-color="#fcfcfc"
       id="stop2605" />
    <stop
       offset="1"
       stop-color="#eff0f1"
       id="stop2607" />
  </linearGradient>
  <linearGradient
     id="c"
     gradientUnits="userSpaceOnUse"
     x1="10.355895"
     x2="10.355895"
     y1="18.065456"
     y2="1.9994709"
     gradientTransform="matrix(0.85549446,0,0,0.85549446,-34.342004,-6.4521974)">
    <stop
       offset="0"
       stop-color="#1d1e1e"
       id="stop2610" />
    <stop
       offset="1"
       stop-color="#44484c"
       id="stop2612" />
  </linearGradient>
  <linearGradient
     id="d"
     gradientTransform="matrix(0.57860791,0,0,0.51930566,-34.301593,-5.5524368)"
     gradientUnits="userSpaceOnUse"
     x1="16"
     x2="15.731"
     xlink:href="#a"
     y1="12"
     y2="8.1520004" />
  <linearGradient
     id="e"
     gradientUnits="userSpaceOnUse"
     x1="7.1428261"
     x2="7.1428261"
     xlink:href="#a"
     y1="19.993298"
     y2="14.209132" />
  <linearGradient
     id="f"
     gradientUnits="userSpaceOnUse"
     x1="9.1779842"
     x2="11.427132"
     y1="7.534945"
     y2="9.7840929">
    <stop
       offset="0"
       id="stop2617" />
    <stop
       offset="1"
       stop-opacity="0"
       id="stop2619" />
  </linearGradient>
  <g
     id="g3"
     transform="matrix(0.02401232,0,0,0.02343746,1.8539047,2)">
    <path
       style="fill:#000000;fill-opacity:1"
       d="m 259.345,110.181 c -0.076,-0.789 -0.112,-1.578 -0.112,-2.369 0,-11.578 7.584,-20.997 16.903,-20.997 9.537,0 17.007,9.223 17.007,20.997 0,2.666 -0.401,5.236 -1.148,7.61 2.795,-4.442 4.412,-10.032 4.412,-15.892 0,-14.079 -9,-25.535 -20.06,-25.535 -11.063,0 -20.06,11.455 -20.06,25.535 0,3.461 0.542,6.849 1.615,10.099 0.467,0.178 0.949,0.363 1.443,0.552 z"
       id="path1" />
    <path
       style="fill:#000000;fill-opacity:1"
       d="m 209.407,87.924 c 0.604,-0.092 1.157,-0.134 1.707,-0.134 7.418,0 14.069,7.281 15.812,17.311 0.175,1.1 0.285,2.196 0.334,3.277 0.482,-0.245 0.972,-0.475 1.471,-0.688 0.245,-1.739 0.364,-3.369 0.364,-5.006 0,-12.986 -6.879,-23.957 -15.019,-23.957 -6.933,0 -12.775,7.636 -14.44,17.95 1.896,-4.704 5.357,-8.02 9.771,-8.753 z"
       id="path2" />
  </g>
  <g
     id="g6"
     transform="matrix(0.02401232,0,0,0.02343746,1.7650671,2.0405654)" />
  <path
     d="M 12.925289,11.634973 C 12.56477,11.490904 12.410538,11.29963 12.42545,11.014233 12.44083,10.681139 12.247205,10.437202 12.155262,10.340804 12.210802,10.133687 12.373126,9.417228 12.155431,8.794893 11.921478,8.128801 11.207184,7.111498 10.470173,6.111492 10.16846,5.700821 10.154195,5.254384 10.1377,4.737471 10.1219,4.244441 10.10409,3.685598 9.8223927,3.064342 9.5161177,2.38789 8.9015447,2 8.1362007,2 c -0.455299,0 -0.922649,0.13889 -1.282283,0.381023 -0.736458,0.4961 -0.639112,1.577715 -0.574687,2.293378 0.0089,0.09802 0.01711,0.190593 0.02197,0.269624 0.04289,0.700968 0.0038,1.070436 -0.04716,1.182725 -0.03301,0.07338 -0.195531,0.28221 -0.367533,0.503342 -0.177882,0.228703 -0.379563,0.487875 -0.544863,0.729397 -0.197236,0.290649 -0.356463,0.734882 -0.510429,1.164467 -0.112665,0.314319 -0.219089,0.611249 -0.32268,0.788787 -0.196348,0.341344 -0.147481,0.659648 -0.10671,0.806765 -0.07434,0.05039 -0.181725,0.149671 -0.272371,0.336702 -0.109568,0.228187 -0.331874,0.350789 -0.794136,0.437554 -0.212437,0.04242 -0.358911,0.129609 -0.435511,0.259124 -0.111466,0.188508 -0.05072,0.425343 0.0045,0.587249 0.08183,0.237914 0.03083,0.388523 -0.06188,0.662014 -0.02136,0.06307 -0.0456,0.134555 -0.07014,0.213328 -0.03866,0.124406 -0.0247,0.237445 0.04135,0.336117 0.17457,0.26046 0.684015,0.352335 1.208443,0.412804 0.313121,0.03628 0.655825,0.158507 0.987292,0.276749 0.324766,0.115828 0.660602,0.23564 0.965848,0.271992 0.04638,0.0057 0.09235,0.0085 0.136653,0.0085 0.460892,0 0.669128,-0.298476 0.735161,-0.421101 0.165541,-0.03298 0.736531,-0.138562 1.325024,-0.152765 0.587558,-0.01633 1.156024,0.09691 1.317077,0.13207 0.05061,0.09459 0.184102,0.310616 0.396853,0.421968 0.1169383,0.06239 0.2796713,0.09815 0.4463403,0.09815 4.9e-5,0 0,0 4.9e-5,0 0.178002,0 0.51665,-0.04109 0.784675,-0.316335 0.267329,-0.276468 0.935254,-0.629507 1.422993,-0.887249 0.108847,-0.05751 0.21066,-0.111351 0.299939,-0.15989 0.27398,-0.148242 0.42348,-0.360046 0.410155,-0.581108 -0.01115,-0.183703 -0.135671,-0.344765 -0.324985,-0.420445 z M 8.4895907,3.734254 c 0.265598,0 0.481686,0.268476 0.481686,0.598476 0,0.13732 -0.03883,0.268335 -0.105943,0.372468 0.01789,-0.05564 0.02756,-0.115875 0.02756,-0.178359 0,-0.275953 -0.179371,-0.492116 -0.408378,-0.492116 -0.223795,0 -0.405881,0.220757 -0.405881,0.492116 0,0.01854 9.23e-4,0.03703 0.0026,0.05552 -0.01185,-0.0044 -0.0234,-0.0088 -0.0347,-0.01294 -0.02578,-0.07617 -0.03878,-0.155578 -0.03878,-0.236695 2.4e-5,-0.329976 0.216086,-0.598475 0.481735,-0.598475 z m -0.816805,1.199271 c 0.101196,0.01744 0.350724,0.114657 0.533002,0.185672 0.08423,0.03281 0.157016,0.06117 0.208188,0.07908 0.16124,0.05409 0.245333,0.123304 0.255514,0.149156 -0.0038,0.01671 -0.01197,0.02407 -0.102034,0.0698 -0.04547,0.02308 -0.102052,0.05182 -0.172887,0.09396 l -0.04733,0.02798 C 8.1570607,5.651744 7.7117517,5.915298 7.5908737,5.93072 7.5087437,5.9415 7.4579657,5.91038 7.3437877,5.83467 7.3180277,5.81756 7.2906177,5.79937 7.2614177,5.78109 7.0555597,5.649207 6.9231317,5.504059 6.9081967,5.447294 c 0.06712,-0.05063 0.233472,-0.177375 0.318644,-0.252445 0.172888,-0.156914 0.346857,-0.262359 0.432965,-0.262359 0.0045,-7e-5 0.0088,2.34e-4 0.01299,0.001 z M 6.9942937,3.84509 c 0.195509,0 0.36064,0.257109 0.36064,0.561491 0,0.03839 -0.0028,0.07657 -0.0088,0.117328 -0.01196,0.005 -0.02376,0.01043 -0.03533,0.01612 -0.0012,-0.02538 -0.0038,-0.05102 -0.0081,-0.0768 -0.04184,-0.235078 -0.20156,-0.405726 -0.379684,-0.405726 -0.0132,0 -0.02643,9.9e-4 -0.04099,0.0031 -0.105967,0.01723 -0.189097,0.0949 -0.234649,0.205101 0.04002,-0.24171 0.180333,-0.420656 0.346763,-0.420656 z m -0.595554,9.150076 c -0.04209,0.193148 -0.266128,0.350202 -0.31898,0.384936 -0.01918,0.0042 -0.04294,0.0064 -0.07085,0.0064 -0.306589,0 -0.913501,-0.248976 -1.239565,-0.38271 l -0.04824,-0.01983 c -0.182086,-0.07448 -0.47931,-0.121406 -0.766762,-0.166827 -0.228717,-0.03616 -0.54191,-0.08562 -0.593848,-0.130359 -0.04209,-0.04608 0.0069,-0.195891 0.04978,-0.328008 0.03102,-0.09497 0.06301,-0.193148 0.08054,-0.295944 0.02488,-0.163899 -0.0043,-0.297445 -0.02779,-0.404695 -0.01991,-0.09096 -0.03563,-0.162773 -0.01876,-0.232336 0.01225,-0.05154 0.272924,-0.106734 0.38427,-0.130358 0.156511,-0.03321 0.318401,-0.06748 0.424248,-0.130196 0.143139,-0.08463 0.220651,-0.240702 0.289013,-0.378421 0.04948,-0.09954 0.100607,-0.202546 0.161435,-0.236343 0.0034,-0.002 0.0088,-0.0043 0.01866,-0.0043 0.113962,0 0.353076,0.233789 0.490859,0.443132 0.03493,0.05271 0.09967,0.158437 0.174571,0.280875 0.224011,0.365835 0.530719,0.866881 0.690906,1.034787 0.144337,0.150937 0.378002,0.44121 0.32054,0.690116 z m 3.326092,-2.556815 c -0.0515,0.240069 -0.05696,1.00788 -0.05754,1.18045 -0.105054,0.130266 -0.63628,0.743718 -1.398984,0.854015 -0.310669,0.04406 -0.600762,0.06642 -0.862209,0.06642 -0.223483,0 -0.366091,-0.01685 -0.425306,-0.02557 l -0.383261,-0.428038 c 0.151086,-0.07287 0.302171,-0.226547 0.262382,-0.503835 -0.03409,-0.234493 -0.343158,-0.467063 -0.701063,-0.736383 -0.292638,-0.220171 -0.624344,-0.469733 -0.715736,-0.681139 -0.188855,-0.435984 -0.03997,-1.202693 0.219569,-1.597474 0.128274,-0.19767 0.23304,-0.497459 0.334373,-0.78731 0.1094,-0.313031 0.222545,-0.636702 0.34909,-0.778358 0.200383,-0.221203 0.385566,-0.651585 0.418366,-0.990772 0.187634,0.174797 0.47871,0.396703 0.747624,0.396703 0.04142,0 0.0816,-0.0053 0.11999,-0.01587 0.183982,-0.05187 0.454578,-0.204469 0.716264,-0.352008 0.22562,-0.127242 0.503827,-0.284155 0.60852,-0.298428 0.179491,0.251577 1.2225153,2.504479 1.3290813,3.22797 0.08433,0.572459 -0.0046,1.045685 -0.04953,1.231052 -0.03603,-0.0048 -0.07899,-0.0087 -0.124143,-0.0087 -0.2905503,2.3e-5 -0.3674623,0.154804 -0.3874873,0.247265 z m 2.9152633,1.677746 c -0.06083,0.05426 -0.274916,0.160992 -0.481951,0.264164 -0.367268,0.183 -0.783547,0.390491 -0.970481,0.582421 -0.263224,0.270374 -0.560953,0.451991 -0.740733,0.451991 -0.02165,0 -0.04135,-0.0027 -0.05889,-0.0081 -0.195172,-0.05937 -0.355886,-0.334359 -0.269515,-0.726491 0.09099,-0.400616 0.195773,-0.94549 0.17882,-1.266771 -0.0038,-0.07294 -0.01052,-0.15239 -0.01692,-0.229218 -0.01196,-0.143601 -0.02974,-0.357023 -0.01141,-0.420351 0.0036,-0.0017 0.0078,-0.0031 0.01214,-0.0043 7.67e-4,0.183656 0.04164,0.550007 0.341791,0.677741 0.08943,0.03809 0.191665,0.05738 0.303803,0.05738 0.300657,0 0.634263,-0.14393 0.770916,-0.277336 0.08047,-0.07849 0.148132,-0.174608 0.195532,-0.25071 0.01035,0.02962 0.01674,0.06834 0.01339,0.118219 -0.01787,0.27089 0.117011,0.630256 0.373703,0.762701 l 0.03738,0.01919 c 0.09141,0.04678 0.334252,0.171258 0.338166,0.23025 -1.21e-4,0 -0.0021,0.0069 -0.01569,0.01922 z"
     id="path7"
     style="stroke-width:0.0237232;fill:url(#linearGradient2)" />
</svg>
