<?xml version="1.0" encoding="UTF-8" standalone="no"?>
<svg
   viewBox="0 0 16 16"
   version="1.1"
   id="svg1"
   sodipodi:docname="preferences-system-session-services.svg"
   inkscape:version="1.3 (0e150ed6c4, 2023-07-21)"
   width="16"
   height="16"
   xmlns:inkscape="http://www.inkscape.org/namespaces/inkscape"
   xmlns:sodipodi="http://sodipodi.sourceforge.net/DTD/sodipodi-0.dtd"
   xmlns:xlink="http://www.w3.org/1999/xlink"
   xmlns="http://www.w3.org/2000/svg"
   xmlns:svg="http://www.w3.org/2000/svg">
  <sodipodi:namedview
     id="namedview1"
     pagecolor="#ffffff"
     bordercolor="#000000"
     borderopacity="0.25"
     inkscape:showpageshadow="2"
     inkscape:pageopacity="0.0"
     inkscape:pagecheckerboard="0"
     inkscape:deskcolor="#d1d1d1"
     showgrid="false"
     inkscape:zoom="15.979167"
     inkscape:cx="0.28161668"
     inkscape:cy="20.432855"
     inkscape:window-width="1920"
     inkscape:window-height="994"
     inkscape:window-x="0"
     inkscape:window-y="0"
     inkscape:window-maximized="1"
     inkscape:current-layer="svg1">
    <inkscape:grid
       id="grid1"
       units="px"
       originx="0"
       originy="0"
       spacingx="1"
       spacingy="1"
       empcolor="#0099e5"
       empopacity="0.30196078"
       color="#0099e5"
       opacity="0.14902"
       empspacing="5"
       dotted="false"
       gridanglex="30"
       gridanglez="30"
       visible="false" />
  </sodipodi:namedview>
  <defs
     id="defs1">
    <linearGradient
       id="linearGradient3"
       inkscape:collect="always">
      <stop
         style="stop-color:#ff00ff;stop-opacity:1"
         offset="0"
         id="stop3" />
      <stop
         style="stop-color:#00ffff;stop-opacity:1"
         offset="1"
         id="stop4" />
    </linearGradient>
    <linearGradient
       id="linearGradient1"
       inkscape:collect="always">
      <stop
         style="stop-color:#ff45ff;stop-opacity:1;"
         offset="0"
         id="stop1" />
      <stop
         style="stop-color:#00ccff;stop-opacity:1"
         offset="1"
         id="stop2" />
    </linearGradient>
    <style
       type="text/css"
       id="style1">.ColorScheme-Text {&#10;        color:#d8dee9;&#10;      }</style>
    <linearGradient
       inkscape:collect="always"
       xlink:href="#linearGradient1"
       id="linearGradient2"
       x1="7"
       y1="17"
       x2="15.650587"
       y2="10"
       gradientUnits="userSpaceOnUse"
       gradientTransform="translate(-30.976532,2)" />
    <linearGradient
       id="oomox"
       x1="0"
       x2="0"
       y1="0"
       y2="1">
      <stop
         offset="0%"
         style="stop-color:#303b3d; stop-opacity:1"
         id="stop7" />
      <stop
         offset="100%"
         style="stop-color:#bc985d; stop-opacity:1"
         id="stop8" />
    </linearGradient>
    <linearGradient
       inkscape:collect="always"
       xlink:href="#linearGradient3"
       id="linearGradient4"
       x1="287.03925"
       y1="25.036352"
       x2="293.0394"
       y2="25.036352"
       gradientUnits="userSpaceOnUse" />
    <linearGradient
       inkscape:collect="always"
       xlink:href="#linearGradient3"
       id="linearGradient6"
       x1="289.05408"
       y1="31.990417"
       x2="298.96481"
       y2="31.990417"
       gradientUnits="userSpaceOnUse" />
  </defs>
  <path
     d="m -26.976532,8 v 12 c 0,2 0,2 1.976532,2 h 11.953064 c 2.070404,0 2.070404,0 2.070404,-2 V 8 c 0,-1 -1,-2 -2.101695,-2 H -25 c -0.976532,0 -1.976532,1 -1.976532,2 z m 1,2 h 14 v 11 h -14 z m 5,0 z"
     id="path1"
     sodipodi:nodetypes="cccccccccccccccccc"
     style="fill:url(#linearGradient2)" />
  <g
     transform="matrix(1.0062421,0,0,1.0048707,-286.83097,-21.670588)"
     id="g23"
     style="enable-background:new">
    <path
       d="m 292.75946,26.990418 -0.11022,1.316964 a 3.9285714,3.9285714 0 0 0 -1.14815,0.664065 l -1.19699,-0.563615 -1.25,2.165172 1.08677,0.75475 a 3.9285714,3.9285714 0 0 0 -0.06,0.662664 3.9285714,3.9285714 0 0 0 0.0572,0.665457 l -1.08399,0.751957 1.25,2.165172 1.1942,-0.562215 a 3.9285714,3.9285714 0 0 0 1.15094,0.659872 l 0.11022,1.319757 h 2.5 l 0.11021,-1.316964 a 3.9285714,3.9285714 0 0 0 1.14816,-0.664065 l 1.19698,0.563615 1.25,-2.165172 -1.08677,-0.75475 a 3.9285714,3.9285714 0 0 0 0.06,-0.662664 3.9285714,3.9285714 0 0 0 -0.0572,-0.665457 l 1.08398,-0.751957 -1.25,-2.165172 -1.1942,0.562215 a 3.9285714,3.9285714 0 0 0 -1.15094,-0.659872 l -0.1102,-1.319757 z m 1.25,3.571429 a 1.4285714,1.4285714 0 0 1 1.42857,1.428571 1.4285714,1.4285714 0 0 1 -1.42857,1.428571 1.4285714,1.4285714 0 0 1 -1.42857,-1.428571 1.4285714,1.4285714 0 0 1 1.42857,-1.428571 z"
       class="ColorScheme-Text"
       id="path22"
       style="fill:url(#linearGradient6)" />
    <path
       d="m 292.18879,27.259573 -0.33784,-0.71736 a 2.3571428,2.3571428 0 0 0 0.39738,-0.689498 l 0.79106,-0.0662 -3e-5,-1.500061 -0.79113,-0.0661 a 2.3571428,2.3571428 0 0 0 -0.16762,-0.36233 2.3571428,2.3571428 0 0 0 -0.22934,-0.32863 l 0.3377,-0.715903 -1.29908,-0.750061 -0.45184,0.650411 a 2.3571428,2.3571428 0 0 0 -0.796,0.002 l -0.45317,-0.652716 -1.29903,0.75 0.33783,0.717366 a 2.3571428,2.3571428 0 0 0 -0.39738,0.689504 l -0.79106,0.0662 4e-5,1.500053 0.79113,0.0661 a 2.3571428,2.3571428 0 0 0 0.16763,0.36233 2.3571428,2.3571428 0 0 0 0.22934,0.32863 l -0.3377,0.715903 1.29908,0.750062 0.45184,-0.650412 a 2.3571428,2.3571428 0 0 0 0.796,-0.002 l 0.45317,0.652721 1.29904,-0.75 z m -1.72094,-1.480758 a 0.85714284,0.85714284 0 0 1 -1.17088,-0.313741 0.85714284,0.85714284 0 0 1 0.31373,-1.17088 0.85714284,0.85714284 0 0 1 1.17088,0.31374 0.85714284,0.85714284 0 0 1 -0.31373,1.170881 z"
       class="ColorScheme-Text"
       id="path23"
       style="fill:url(#linearGradient4)" />
  </g>
</svg>
