<?xml version="1.0" encoding="UTF-8" standalone="no"?>
<svg
   style="isolation:isolate"
   width="16"
   height="16"
   viewBox="0 0 16 16"
   version="1.1"
   id="svg26"
   sodipodi:docname="preferences-web-browser-adblock.svg"
   inkscape:version="1.3 (0e150ed6c4, 2023-07-21)"
   xmlns:inkscape="http://www.inkscape.org/namespaces/inkscape"
   xmlns:sodipodi="http://sodipodi.sourceforge.net/DTD/sodipodi-0.dtd"
   xmlns:xlink="http://www.w3.org/1999/xlink"
   xmlns="http://www.w3.org/2000/svg"
   xmlns:svg="http://www.w3.org/2000/svg">
  <sodipodi:namedview
     id="namedview26"
     pagecolor="#ffffff"
     bordercolor="#000000"
     borderopacity="0.25"
     inkscape:showpageshadow="2"
     inkscape:pageopacity="0.0"
     inkscape:pagecheckerboard="0"
     inkscape:deskcolor="#d1d1d1"
     inkscape:zoom="23.96875"
     inkscape:cx="6.2372881"
     inkscape:cy="5.7783572"
     inkscape:window-width="1920"
     inkscape:window-height="994"
     inkscape:window-x="0"
     inkscape:window-y="0"
     inkscape:window-maximized="1"
     inkscape:current-layer="svg26" />
  <defs
     id="defs22">
    <linearGradient
       id="linearGradient36"
       inkscape:collect="always">
      <stop
         style="stop-color:#ffdd55;stop-opacity:1"
         offset="0"
         id="stop36" />
      <stop
         style="stop-color:#ff2a2a;stop-opacity:1"
         offset="1"
         id="stop37" />
    </linearGradient>
    <style
       id="current-color-scheme"
       type="text/css">&#10;   .ColorScheme-Text { color:#d5c289; } .ColorScheme-Highlight { color:#5294e2; }&#10;  </style>
    <linearGradient
       id="arrongin"
       x1="0%"
       x2="0%"
       y1="0%"
       y2="100%">
      <stop
         offset="0%"
         style="stop-color:#dd9b44; stop-opacity:1"
         id="stop1" />
      <stop
         offset="100%"
         style="stop-color:#ad6c16; stop-opacity:1"
         id="stop2" />
    </linearGradient>
    <linearGradient
       id="aurora"
       x1="0%"
       x2="0%"
       y1="0%"
       y2="100%">
      <stop
         offset="0%"
         style="stop-color:#09D4DF; stop-opacity:1"
         id="stop3" />
      <stop
         offset="100%"
         style="stop-color:#9269F4; stop-opacity:1"
         id="stop4" />
    </linearGradient>
    <linearGradient
       id="fitdance"
       x1="0%"
       x2="0%"
       y1="0%"
       y2="100%">
      <stop
         offset="0%"
         style="stop-color:#1AD6AB; stop-opacity:1"
         id="stop5" />
      <stop
         offset="100%"
         style="stop-color:#329DB6; stop-opacity:1"
         id="stop6" />
    </linearGradient>
    <linearGradient
       id="oomox"
       x1="0.46474099"
       x2="0.46474099"
       y1="1.3954009"
       y2="15.741026"
       gradientTransform="scale(1.0758681,0.92948199)"
       gradientUnits="userSpaceOnUse"
       xlink:href="#linearGradient36">
      <stop
         offset="0%"
         style="stop-color:#303b3d; stop-opacity:1"
         id="stop7" />
      <stop
         offset="100%"
         style="stop-color:#bc985d; stop-opacity:1"
         id="stop8" />
    </linearGradient>
    <linearGradient
       id="rainblue"
       x1="0%"
       x2="0%"
       y1="0%"
       y2="100%">
      <stop
         offset="0%"
         style="stop-color:#00F260; stop-opacity:1"
         id="stop9" />
      <stop
         offset="100%"
         style="stop-color:#0575E6; stop-opacity:1"
         id="stop10" />
    </linearGradient>
    <linearGradient
       id="sunrise"
       x1="0%"
       x2="0%"
       y1="0%"
       y2="100%">
      <stop
         offset="0%"
         style="stop-color: #FF8501; stop-opacity:1"
         id="stop11" />
      <stop
         offset="100%"
         style="stop-color: #FFCB01; stop-opacity:1"
         id="stop12" />
    </linearGradient>
    <linearGradient
       id="telinkrin"
       x1="0%"
       x2="0%"
       y1="0%"
       y2="100%">
      <stop
         offset="0%"
         style="stop-color: #b2ced6; stop-opacity:1"
         id="stop13" />
      <stop
         offset="100%"
         style="stop-color: #6da5b7; stop-opacity:1"
         id="stop14" />
    </linearGradient>
    <linearGradient
       id="60spsycho"
       x1="0%"
       x2="0%"
       y1="0%"
       y2="100%">
      <stop
         offset="0%"
         style="stop-color: #df5940; stop-opacity:1"
         id="stop15" />
      <stop
         offset="25%"
         style="stop-color: #d8d15f; stop-opacity:1"
         id="stop16" />
      <stop
         offset="50%"
         style="stop-color: #e9882a; stop-opacity:1"
         id="stop17" />
      <stop
         offset="100%"
         style="stop-color: #279362; stop-opacity:1"
         id="stop18" />
    </linearGradient>
    <linearGradient
       id="90ssummer"
       x1="0%"
       x2="0%"
       y1="0%"
       y2="100%">
      <stop
         offset="0%"
         style="stop-color: #f618c7; stop-opacity:1"
         id="stop19" />
      <stop
         offset="20%"
         style="stop-color: #94ffab; stop-opacity:1"
         id="stop20" />
      <stop
         offset="50%"
         style="stop-color: #fbfd54; stop-opacity:1"
         id="stop21" />
      <stop
         offset="100%"
         style="stop-color: #0f83ae; stop-opacity:1"
         id="stop22" />
    </linearGradient>
    <clipPath
       clipPathUnits="userSpaceOnUse"
       id="clipPath27">
      <g
         id="g28">
        <rect
           width="16"
           height="16"
           id="rect27"
           x="0"
           y="0" />
      </g>
    </clipPath>
    <clipPath
       clipPathUnits="userSpaceOnUse"
       id="clipPath28">
      <g
         id="g29">
        <rect
           width="16"
           height="16"
           id="rect28"
           x="0"
           y="0" />
      </g>
    </clipPath>
    <clipPath
       clipPathUnits="userSpaceOnUse"
       id="clipPath30">
      <g
         id="g31">
        <rect
           width="16"
           height="16"
           id="rect30"
           x="0"
           y="0" />
      </g>
    </clipPath>
    <clipPath
       clipPathUnits="userSpaceOnUse"
       id="clipPath31">
      <g
         id="g32">
        <rect
           width="16"
           height="16"
           id="rect31"
           x="0"
           y="0" />
      </g>
    </clipPath>
    <clipPath
       clipPathUnits="userSpaceOnUse"
       id="clipPath33">
      <g
         id="g35">
        <g
           id="g34">
          <rect
             width="16"
             height="16"
             id="rect33"
             x="0"
             y="0" />
        </g>
      </g>
    </clipPath>
    <linearGradient
       inkscape:collect="always"
       xlink:href="#linearGradient36"
       id="linearGradient37"
       x1="0"
       y1="15"
       x2="15.934"
       y2="1.2970001"
       gradientUnits="userSpaceOnUse" />
    <linearGradient
       inkscape:collect="always"
       xlink:href="#linearGradient36"
       id="linearGradient39"
       x1="0.5"
       y1="7.9640002"
       x2="15.934"
       y2="7.9640002"
       gradientUnits="userSpaceOnUse" />
  </defs>
  <rect
     style="fill:#000000"
     fill-opacity="0"
     width="16"
     height="16"
     id="rect23"
     x="0"
     y="0"
     clip-path="url(#clipPath31)" />
  <path
     class="ColorScheme-Text"
     d="M 3.994,1 C 2.736,1.015 1.815,0.97 1.062,1.385 0.673,1.607 0.376,1.961 0.225,2.383 0.06,2.821 0,3.343 0,4 v 8 c 0,0.658 0.06,1.179 0.225,1.617 0.164,0.439 0.461,0.79 0.837,0.998 0.753,0.416 1.674,0.37 2.932,0.385 h 8.012 c 1.258,-0.015 2.179,0.03 2.932,-0.385 0.389,-0.222 0.687,-0.576 0.838,-0.998 C 15.94,13.179 16,12.657 16,12 V 4 C 16,3.342 15.94,2.821 15.775,2.383 15.624,1.961 15.327,1.607 14.938,1.385 14.185,0.969 13.264,1.015 12.006,1 H 3.998 Z M 4,2 h 8 c 1.259,0.015 2.087,0.06 2.453,0.262 0.184,0.1 0.29,0.212 0.387,0.472 C 14.937,2.994 15,3.408 15,4 v 8 c 0,0.592 -0.063,1.006 -0.16,1.266 -0.098,0.26 -0.203,0.371 -0.387,0.472 C 14.087,13.94 13.259,13.985 12,14 H 4 C 2.741,13.985 1.91,13.94 1.545,13.738 1.362,13.638 1.258,13.526 1.16,13.266 1.063,13.006 1,12.592 1,12 V 4 C 1,3.408 1.063,2.994 1.16,2.734 1.258,2.474 1.362,2.363 1.545,2.262 1.911,2.06 2.741,2.015 4,2 Z"
     id="path23"
     clip-path="url(#clipPath30)"
     transform="matrix(0.9375,0,0,0.92857143,0.55,0.57142857)"
     style="fill:url(#linearGradient37)" />
  <path
     style="opacity:0.5;fill:url(#linearGradient39);fill-opacity:1"
     class="ColorScheme-Text"
     fill-rule="evenodd"
     d="m 12.316,1.297 -1,0.021 c 0.02,0.936 -0.075,1.85 -0.22,2.75 0.13,-0.037 0.263,-0.064 0.404,-0.064 0.214,0 0.416,0.048 0.602,0.13 0.143,-0.928 0.234,-1.871 0.214,-2.837 z M 4.383,1.559 C 4.269,2.933 4.24,4.312 4.297,5.689 4.508,5.575 4.745,5.504 5,5.504 5.101,5.504 5.2,5.516 5.297,5.535 5.247,4.276 5.267,2.979 5.379,1.643 Z M 0.516,3.406 0.5,3.428 V 4.619 C 1.45,5.299 2.417,5.957 3.398,6.592 2.386,7.01 1.416,7.522 0.5,8.122 V 9.291 L 0.516,9.313 C 1.487,8.627 2.532,8.053 3.631,7.6 3.545,7.411 3.501,7.207 3.5,7 3.5,6.523 3.733,6.099 4.086,5.824 2.874,5.051 1.683,4.245 0.516,3.406 Z M 15.912,4.629 C 14.872,4.652 13.832,4.695 12.793,4.758 12.921,4.978 13,5.229 13,5.5 13,5.585 12.988,5.667 12.975,5.748 13.961,5.69 14.947,5.65 15.934,5.628 Z M 10.098,4.986 C 8.631,5.153 7.211,5.401 5.848,5.77 6.146,5.976 6.364,6.288 6.453,6.648 7.619,6.354 8.835,6.148 10.093,6 10.033,5.84 10.002,5.671 10,5.5 10,5.32 10.038,5.147 10.098,4.986 Z M 11.5,5.004 C 11.367,5.001 11.239,5.053 11.145,5.146 11.051,5.24 10.998,5.367 11,5.5 c -0.003,0.179 0.092,0.345 0.247,0.434 0.155,0.088 0.347,0.085 0.499,-0.008 0.01,-0.036 0.022,-0.07 0.031,-0.106 0.034,-0.003 0.07,-0.003 0.104,-0.006 C 12.007,5.668 12.036,5.461 11.954,5.286 11.872,5.111 11.694,5 11.501,5.004 Z M 5,6.504 C 4.867,6.501 4.739,6.553 4.645,6.646 4.551,6.74 4.498,6.867 4.5,7 4.498,7.133 4.551,7.26 4.645,7.354 4.739,7.447 4.867,7.499 5,7.496 5.133,7.499 5.261,7.447 5.355,7.354 5.449,7.26 5.502,7.133 5.5,7 5.502,6.867 5.449,6.74 5.355,6.646 5.261,6.553 5.133,6.501 5,6.504 Z m 5.498,0.1 C 10.346,7.077 10.175,7.544 9.986,8.002 L 10,8 c 0.351,0 0.673,0.127 0.93,0.332 C 11.11,7.891 11.274,7.444 11.422,6.988 11.079,6.97 10.752,6.834 10.498,6.603 Z M 6.477,7.23 C 6.422,7.572 6.25,7.884 5.99,8.113 6.81,8.558 7.651,8.971 8.516,9.342 8.553,8.989 8.708,8.671 8.949,8.434 8.107,8.071 7.282,7.669 6.477,7.23 Z M 5.586,8.373 C 5.405,8.451 5.208,8.496 5,8.496 4.843,8.496 4.695,8.463 4.553,8.418 4.687,9.241 4.878,10.034 5.119,10.797 5.368,10.615 5.671,10.504 6,10.504 c 0.027,0 0.052,0.006 0.078,0.008 C 5.866,9.811 5.701,9.096 5.586,8.373 Z M 10,9 C 9.867,8.997 9.739,9.049 9.645,9.142 9.551,9.236 9.498,9.363 9.5,9.496 c 0,0.207 0.12,0.38 0.299,0.455 0.019,-0.02 0.041,-0.037 0.06,-0.058 0.08,0.029 0.164,0.051 0.245,0.08 C 10.334,9.931 10.501,9.73 10.5,9.496 10.502,9.363 10.449,9.236 10.355,9.142 10.261,9.049 10.133,8.997 10,9 Z m 1.486,0.365 c 0.004,0.044 0.014,0.086 0.014,0.131 0,0.313 -0.099,0.603 -0.266,0.844 1.502,0.437 3.06,0.713 4.678,0.748 l 0.022,-1 C 14.407,10.055 12.924,9.787 11.486,9.365 Z M 8.531,9.797 c -0.48,0.419 -1.009,0.775 -1.57,1.066 0.26,0.22 0.445,0.519 0.51,0.864 C 8.04,11.428 8.574,11.068 9.066,10.654 8.794,10.439 8.605,10.136 8.531,9.797 Z M 6,11.504 C 5.867,11.501 5.739,11.553 5.645,11.646 5.551,11.74 5.498,11.867 5.5,12 5.498,12.133 5.551,12.26 5.645,12.354 5.739,12.447 5.867,12.499 6,12.496 6.133,12.499 6.261,12.447 6.355,12.354 6.449,12.26 6.502,12.133 6.5,12 6.502,11.867 6.449,11.74 6.355,11.646 6.261,11.553 6.133,11.501 6,11.504 Z m -1.473,0.24 C 4.382,11.781 4.234,11.832 4.092,11.861 3.164,12.052 2.298,12.123 1.635,12.119 1.361,12.119 1.087,12.101 0.816,12.064 0.612,12.034 0.469,11.97 0.512,11.996 L 0.5,12.016 v 1.007 c 0.056,0.01 0.107,0.022 0.17,0.032 0.268,0.04 0.59,0.062 0.959,0.064 0.738,0.004 1.664,-0.072 2.664,-0.277 0.133,-0.028 0.274,-0.077 0.41,-0.11 C 4.572,12.51 4.502,12.258 4.5,12 c 0,-0.088 0.013,-0.173 0.027,-0.256 z m 2.618,1.207 c -0.222,0.269 -0.531,0.452 -0.874,0.518 0.236,0.402 0.49,0.792 0.776,1.162 l 0.79,-0.613 C 7.581,13.68 7.35,13.323 7.145,12.951 Z"
     id="path24"
     transform="matrix(0.9375,0,0,0.92857143,0.55,0.57142857)" />
  <path
     fill-rule="evenodd"
     d="M 8.283,10.418 H 7.547 L 7.166,9.322 H 5.238 L 4.849,10.418 H 4.114 L 5.837,5.65 H 6.566 Z M 5.456,8.695 H 6.948 L 6.369,7.074 v 0 Q 6.246,6.74 6.205,6.535 v 0 0 Q 6.144,6.781 6.042,7.074 v 0 z m 4.898,1.805 v 0 0 q -0.661,0 -1.053,-0.487 v 0 0 Q 8.909,9.526 8.909,8.674 v 0 0 q 0,-0.844 0.399,-1.331 v 0 0 Q 9.706,6.856 10.354,6.856 v 0 0 q 0.51,0 0.824,0.327 v 0 -1.356 L 11.886,5.5 v 4.918 h -0.708 v -0.245 0 Q 10.885,10.5 10.354,10.5 Z m 0.102,-0.668 v 0 0 q 0.477,0 0.722,-0.395 v 0 -1.532 0 Q 11.082,7.748 10.895,7.636 v 0 0 Q 10.708,7.523 10.456,7.523 v 0 0 q -0.402,0 -0.62,0.3 v 0 0 q -0.218,0.3 -0.218,0.851 v 0 0 q 0,0.518 0.225,0.838 v 0 0 q 0.224,0.32 0.613,0.32 z"
     id="path25"
     transform="matrix(0.9375,0,0,0.92857143,0.55,0.57142857)"
     style="fill:#f9f9f9" />
  <path
     fill="#df2020"
     fill-rule="evenodd"
     d="M 11.524,4.635 C 11.498,4.608 11.472,4.581 11.445,4.555 10.532,3.642 9.287,3.123 8,3.123 6.703,3.123 5.468,3.642 4.555,4.555 3.631,5.468 3.123,6.713 3.123,8 v 0 c 0,0.938 0.266,1.844 0.762,2.619 l 7.623,-5.971 z m 0.399,0.475 c 0.614,0.833 0.954,1.848 0.954,2.89 0,1.297 -0.519,2.532 -1.432,3.445 C 10.532,12.369 9.287,12.877 8,12.877 6.703,12.877 5.468,12.369 4.555,11.445 4.449,11.341 4.348,11.232 4.254,11.119 L 11.892,5.136 Z M 2.5,8 C 2.5,6.547 3.081,5.146 4.108,4.108 5.136,3.081 6.537,2.5 8,2.5 9.453,2.5 10.854,3.081 11.892,4.108 12.919,5.146 13.5,6.547 13.5,8 c 0,1.463 -0.581,2.864 -1.608,3.892 C 10.854,12.919 9.453,13.5 8,13.5 6.537,13.5 5.136,12.919 4.108,11.892 3.081,10.864 2.5,9.463 2.5,8 Z"
     id="path26"
     clip-path="url(#clipPath27)"
     transform="matrix(0.9375,0,0,0.92857143,0.55,0.57142857)" />
</svg>
