<?xml version="1.0" encoding="UTF-8" standalone="no"?>
<svg
   height="16"
   width="16"
   version="1.1"
   id="svg42"
   sodipodi:docname="preferences-document.svg"
   inkscape:version="1.3 (0e150ed6c4, 2023-07-21)"
   xmlns:inkscape="http://www.inkscape.org/namespaces/inkscape"
   xmlns:sodipodi="http://sodipodi.sourceforge.net/DTD/sodipodi-0.dtd"
   xmlns:xlink="http://www.w3.org/1999/xlink"
   xmlns="http://www.w3.org/2000/svg"
   xmlns:svg="http://www.w3.org/2000/svg">
  <defs
     id="defs46">
    <linearGradient
       id="linearGradient12600"
       x1="23.999912"
       x2="23.999912"
       y1="43"
       y2="4"
       gradientTransform="matrix(0.849996,0,0,0.84999972,53.049841,-49.62013)"
       gradientUnits="userSpaceOnUse">
      <stop
         stop-color="#bdc3c7"
         offset="0"
         id="stop2656" />
      <stop
         stop-color="#eef0f1"
         offset="1"
         id="stop2658" />
    </linearGradient>
    <linearGradient
       id="linearGradient6022"
       x1="24"
       x2="24"
       y1="29"
       y2="-19.999998"
       gradientUnits="userSpaceOnUse"
       gradientTransform="matrix(-0.00468342,-0.66968017,0.66964241,-0.01007284,60.3552,-12.966609)">
      <stop
         stop-color="#da4453"
         offset="0"
         id="stop2671" />
      <stop
         stop-color="#edeff0"
         offset="1"
         id="stop2673" />
    </linearGradient>
    <linearGradient
       id="linearGradient6095"
       x1="6.3499999"
       x2="6.3499999"
       y1="6.8791666"
       y2="7.6729169"
       gradientUnits="userSpaceOnUse"
       gradientTransform="matrix(-0.01065122,-2.5311145,2.5311143,-0.01065122,60.370572,-13.106694)">
      <stop
         stop-color="#c0392b"
         offset="0"
         id="stop2686" />
      <stop
         stop-color="#c0392b"
         offset="1"
         id="stop2688" />
    </linearGradient>
    <linearGradient
       id="linearGradient6051"
       x1="24"
       x2="24"
       y1="20.000002"
       y2="-19.999998"
       gradientUnits="userSpaceOnUse"
       gradientTransform="matrix(-0.00281815,-0.66969062,0.66969056,-0.00281813,60.370572,-13.106694)">
      <stop
         stop-color="#1d99f3"
         offset="0"
         id="stop2676" />
      <stop
         stop-color="#edeff0"
         offset="1"
         id="stop2678" />
    </linearGradient>
    <linearGradient
       id="g-3"
       gradientUnits="userSpaceOnUse"
       x1="6"
       x2="16"
       xlink:href="#c"
       y1="8.9980469"
       y2="19" />
    <linearGradient
       id="linearGradient1202">
      <stop
         offset="0"
         stop-color="#292c2f"
         id="stop12-6" />
      <stop
         offset="1"
         stop-opacity="0"
         id="stop14-7" />
    </linearGradient>
    <linearGradient
       id="h-5"
       gradientUnits="userSpaceOnUse"
       x1="11"
       x2="11"
       y1="22.001953"
       y2="11">
      <stop
         offset="0"
         stop-color="#7cbaf8"
         id="stop21-3" />
      <stop
         offset="1"
         stop-color="#f4fcff"
         id="stop23-5" />
    </linearGradient>
    <linearGradient
       gradientTransform="matrix(0.84996457,0,0,0.84991644,-295.42372,-447.44861)"
       gradientUnits="userSpaceOnUse"
       x2="426.69501"
       y2="499.92099"
       y1="547.67499"
       id="a-6"
       x1="389.32001">
      <stop
         stop-color="#18222a"
         style="stop-color:#1e2b35;stop-opacity:1"
         id="stop216" />
      <stop
         stop-color="#566069"
         offset="1"
         style="stop-color:#6d7983;stop-opacity:1"
         id="stop218" />
    </linearGradient>
    <linearGradient
       id="d-6"
       gradientTransform="matrix(0.52174,0,0,0.53846,45.597466,-33.196963)"
       gradientUnits="userSpaceOnUse"
       x1="1.3329999"
       x2="1.3329999"
       y1="48.714001"
       y2="9.7139997">
      <stop
         offset="0"
         stop-color="#eef1f2"
         id="stop19-7" />
      <stop
         offset="1"
         stop-color="#f9fafb"
         id="stop21-36" />
    </linearGradient>
    <linearGradient
       id="linearGradient1060"
       gradientUnits="userSpaceOnUse"
       x1="5"
       x2="5"
       y1="0"
       y2="8"
       gradientTransform="translate(-7,-36.353955)">
      <stop
         offset="0"
         stop-color="#da4453"
         id="stop12-5" />
      <stop
         offset="1"
         stop-color="#c72737"
         id="stop14-6" />
    </linearGradient>
    <linearGradient
       id="g-3-2"
       gradientUnits="userSpaceOnUse"
       x1="6"
       x2="16"
       xlink:href="#linearGradient1202"
       y1="8.9980469"
       y2="19" />
    <linearGradient
       id="h-5-9"
       gradientUnits="userSpaceOnUse"
       x1="11"
       x2="11"
       y1="22.001953"
       y2="11">
      <stop
         offset="0"
         stop-color="#7cbaf8"
         id="stop21-3-3" />
      <stop
         offset="1"
         stop-color="#f4fcff"
         id="stop23-5-6" />
    </linearGradient>
    <linearGradient
       inkscape:collect="always"
       xlink:href="#linearGradient6022"
       id="linearGradient1014"
       gradientUnits="userSpaceOnUse"
       gradientTransform="matrix(-0.00266985,-0.35045669,0.38173787,-0.00527129,0.42932245,16.505783)"
       x1="24"
       y1="29"
       x2="24"
       y2="-19.999998" />
    <linearGradient
       inkscape:collect="always"
       xlink:href="#linearGradient6095"
       id="linearGradient1016"
       gradientUnits="userSpaceOnUse"
       gradientTransform="matrix(-0.00607188,-1.3245817,1.4428929,-0.005574,0.43808445,16.432475)"
       x1="6.3499999"
       y1="6.8791666"
       x2="6.3499999"
       y2="7.6729169" />
    <linearGradient
       inkscape:collect="always"
       xlink:href="#linearGradient6051"
       id="linearGradient1018"
       gradientUnits="userSpaceOnUse"
       gradientTransform="matrix(-0.00160652,-0.35046217,0.38176534,-0.00147476,0.43808445,16.432475)"
       x1="24"
       y1="20.000002"
       x2="24"
       y2="-19.999998" />
  </defs>
  <sodipodi:namedview
     id="namedview44"
     pagecolor="#ffffff"
     bordercolor="#666666"
     borderopacity="1.0"
     inkscape:showpageshadow="2"
     inkscape:pageopacity="0.0"
     inkscape:pagecheckerboard="0"
     inkscape:deskcolor="#d1d1d1"
     showgrid="false"
     inkscape:zoom="30.34131"
     inkscape:cx="8.190154"
     inkscape:cy="10.365406"
     inkscape:window-width="1920"
     inkscape:window-height="994"
     inkscape:window-x="0"
     inkscape:window-y="0"
     inkscape:window-maximized="1"
     inkscape:current-layer="svg42" />
  <linearGradient
     id="a"
     gradientTransform="matrix(0.44545485,0,0,0.4500002,-171.09104,-224.70921)"
     gradientUnits="userSpaceOnUse"
     x2="0"
     y1="543.79797"
     y2="503.798">
    <stop
       offset="0"
       stop-color="#197cf1"
       id="stop2" />
    <stop
       offset="1"
       stop-color="#21c9fb"
       id="stop4" />
  </linearGradient>
  <linearGradient
     id="b"
     gradientTransform="matrix(0.64285714,0,0,0.64285714,-246.51021,-330.87014)"
     gradientUnits="userSpaceOnUse"
     x2="0"
     y1="545.79797"
     y2="517.79797">
    <stop
       offset="0"
       stop-color="#42a603"
       id="stop7" />
    <stop
       offset="1"
       stop-color="#78da06"
       id="stop9" />
  </linearGradient>
  <linearGradient
     id="c">
    <stop
       offset="0"
       stop-color="#292c2f"
       id="stop12" />
    <stop
       offset="1"
       stop-opacity="0"
       id="stop14" />
  </linearGradient>
  <linearGradient
     id="d"
     xlink:href="#c" />
  <linearGradient
     id="e"
     gradientTransform="matrix(0.71428731,0,0,0.68486008,-275.83739,-352.4132)"
     gradientUnits="userSpaceOnUse"
     x1="401.57144"
     x2="408.57147"
     xlink:href="#d"
     y1="524.79797"
     y2="531.79797" />
  <linearGradient
     id="f"
     gradientTransform="matrix(0.71428731,0,0,0.68486008,-271.83739,-352.4132)"
     gradientUnits="userSpaceOnUse"
     x1="401.57144"
     x2="408.57147"
     xlink:href="#d"
     y1="524.79797"
     y2="531.79797" />
  <linearGradient
     id="g"
     gradientUnits="userSpaceOnUse"
     x1="6"
     x2="16"
     xlink:href="#c"
     y1="8.9980469"
     y2="19" />
  <linearGradient
     id="h"
     gradientUnits="userSpaceOnUse"
     x1="11"
     x2="11"
     y1="22.001953"
     y2="11">
    <stop
       offset="0"
       stop-color="#7cbaf8"
       id="stop21" />
    <stop
       offset="1"
       stop-color="#f4fcff"
       id="stop23" />
  </linearGradient>
  <path
     d="m 3.0747905,12.964318 c 0.0041,0.582461 0.518774,1.044316 1.153224,1.035559 L 11.862773,13.89445 c 0.634446,-0.0088 1.141641,-0.484726 1.137199,-1.067186 l -0.06408,-8.4109638 -2.690853,-2.4163 -6.1078095,0.084339 c -0.634443,0.00877 -1.141637,0.4847221 -1.137202,1.0671918 z"
     style="fill:url(#linearGradient1014);stroke-width:0.365769;paint-order:normal"
     id="path2716-2" />
  <path
     d="m 3.4761385,12.916054 c 0.0022,0.582473 2.806222,1.040567 3.440715,1.038117 l 2.672356,-0.01031 c 0.6344875,-0.0022 1.1431435,-0.473341 1.1404755,-1.055812 l -0.03855,-8.4110906 -2.6836065,-2.4429167 -1.145298,0.00442 c -0.63449,0.00221 -3.433738,0.4821892 -3.431065,1.0646655 z"
     fill="url(#linearGradient6095)"
     opacity="0.6"
     style="fill:url(#linearGradient1016);stroke-width:1.38251;paint-order:normal"
     id="path2718-6" />
  <path
     d="m 3.0943785,12.917529 c 0.0022,0.582471 0.51562,1.049416 1.150114,1.046965 l 4.962952,-0.01916 c 0.634499,-0.0022 1.1431415,-0.473345 1.1404735,-1.055812 L 10.309348,4.4784186 C 10.449145,4.6056784 8.6480655,2.9661425 7.6257465,2.0355011 l -3.43589,0.013282 c -0.634494,0.00221 -1.143149,0.4733368 -1.140474,1.0558137 z"
     style="fill:url(#linearGradient1018);stroke-width:0.365769;paint-order:normal"
     id="path2720-1" />
  <path
     d="m 10.322386,4.4941482 -2.6966215,-2.4586496 -0.0068,1.3934277 c -0.0023,0.5824726 0.515876,1.0636478 1.150118,1.0469656 0.640616,0.00282 1.5531035,0.01826 1.5531035,0.01826 z"
     fill="#2980b9"
     style="stroke-width:1.38251;paint-order:normal"
     id="path2722-8" />
  <path
     d="m 12.935897,4.4163005 -2.690854,-2.4163007 -0.01548,1.370621 c -0.0068,0.5825265 0.518831,1.031423 1.153225,1.0355573 z"
     fill="#c0392b"
     style="stroke-width:1.38251;paint-order:normal"
     id="path2724-7" />
  <path
     d="m 3.0943785,12.917529 c 0.0022,0.582471 0.51562,1.049416 1.150114,1.046965 L 4.1898425,2.0487728 c -0.634492,0.00221 -1.143147,0.4733382 -1.140475,1.0558167 z"
     fill="#3498db"
     opacity="0.6"
     style="stroke-width:0.365769;paint-order:normal"
     id="path2726-9" />
  <g
     stroke-width="0.5"
     transform="matrix(1.0166667,0,0,1,-3.9333336,-5.501953)"
     id="g40-6-2">
    <path
       d="m 9.5,11.001953 a 0.5,0.5 0 0 0 -0.5,0.5 0.5,0.5 0 0 0 0.5,0.5 0.5,0.5 0 0 0 0.5,-0.5 0.5,0.5 0 0 0 -0.5,-0.5 z m 2.5,0 -0.75,0.75 1.25,1.25 -1.25,1.25 0.75,0.75 2,-2 z m -3.375,2.25 a 0.625,0.625 0 0 0 -0.625,0.625 0.625,0.625 0 0 0 0.625,0.625 0.625,0.625 0 0 0 0.625,-0.625 0.625,0.625 0 0 0 -0.625,-0.625 z m 1.625,2.25 a 0.75,0.75 0 0 0 -0.75,0.75 0.75,0.75 0 0 0 0.75,0.75 0.75,0.75 0 0 0 0.75,-0.75 0.75,0.75 0 0 0 -0.75,-0.75 z"
       id="path38-9-2"
       style="fill:url(#h-5-9)" />
  </g>
</svg>
