<?xml version="1.0" encoding="UTF-8" standalone="no"?>
<svg
   width="16"
   height="16"
   version="1.1"
   id="svg2"
   sodipodi:docname="vokoscreen.svg"
   inkscape:version="1.3 (0e150ed6c4, 2023-07-21)"
   xmlns:inkscape="http://www.inkscape.org/namespaces/inkscape"
   xmlns:sodipodi="http://sodipodi.sourceforge.net/DTD/sodipodi-0.dtd"
   xmlns:xlink="http://www.w3.org/1999/xlink"
   xmlns="http://www.w3.org/2000/svg"
   xmlns:svg="http://www.w3.org/2000/svg">
  <defs
     id="defs2">
    <linearGradient
       id="linearGradient2"
       inkscape:collect="always">
      <stop
         style="stop-color:#00ccff;stop-opacity:1"
         offset="0"
         id="stop2" />
      <stop
         style="stop-color:#00d4aa;stop-opacity:1"
         offset="1"
         id="stop3" />
    </linearGradient>
    <linearGradient
       inkscape:collect="always"
       xlink:href="#linearGradient2"
       id="linearGradient3"
       x1="392"
       y1="188"
       x2="404"
       y2="188"
       gradientUnits="userSpaceOnUse" />
    <linearGradient
       inkscape:collect="always"
       xlink:href="#linearGradient2"
       id="linearGradient5"
       x1="403"
       y1="188"
       x2="408"
       y2="188"
       gradientUnits="userSpaceOnUse" />
  </defs>
  <sodipodi:namedview
     id="namedview2"
     pagecolor="#ffffff"
     bordercolor="#000000"
     borderopacity="0.25"
     inkscape:showpageshadow="2"
     inkscape:pageopacity="0.0"
     inkscape:pagecheckerboard="0"
     inkscape:deskcolor="#d1d1d1"
     inkscape:zoom="23.96875"
     inkscape:cx="8.8239896"
     inkscape:cy="5.6114733"
     inkscape:window-width="1920"
     inkscape:window-height="994"
     inkscape:window-x="0"
     inkscape:window-y="0"
     inkscape:window-maximized="1"
     inkscape:current-layer="svg2" />
  <g
     transform="translate(-391.99991,-179.99994)"
     id="g2">
    <path
       d="m 395,183 c -0.65761,0 -1.17853,0.0599 -1.61719,0.22461 -0.43866,0.16467 -0.79039,0.46152 -0.99804,0.83789 -0.41532,0.75275 -0.3702,1.67345 -0.38477,2.93164 v 0.004 2.0039 0.004 c 0.0145,1.25819 -0.0306,2.17889 0.38477,2.93164 0.20766,0.37637 0.55938,0.67322 0.99804,0.83789 C 393.82148,192.94006 394.34239,193 395,193 h 6 c 0.65761,0 1.17852,-0.0599 1.61719,-0.22461 0.43866,-0.16466 0.79038,-0.46152 0.99804,-0.83789 0.41534,-0.75275 0.37025,-1.67344 0.38477,-2.93164 v -0.004 -2.0039 -0.004 c -0.0145,-1.2582 0.0306,-2.17889 -0.38477,-2.93164 -0.20766,-0.37637 -0.55938,-0.67323 -0.99804,-0.83789 C 402.17852,183.05994 401.65761,183 401,183 Z m 0,1 h 6 c 0.59239,0 1.00572,0.0626 1.26562,0.16016 0.25991,0.0976 0.37147,0.20135 0.47266,0.38476 0.20191,0.36596 0.24701,1.19655 0.26172,2.45508 v 1.99414 c -0.0146,1.26353 -0.0593,2.09217 -0.26172,2.45898 -0.1012,0.18341 -0.21274,0.28916 -0.47266,0.38672 C 402.00571,191.93741 401.59239,192 401,192 h -6 c -0.59239,0 -1.00572,-0.0626 -1.26562,-0.16016 -0.25991,-0.0976 -0.37147,-0.20331 -0.47266,-0.38672 C 393.05981,191.08717 393.01471,190.25852 393,189 v -0.006 -1.98828 V 187 c 0.0147,-1.25853 0.0598,-2.08912 0.26172,-2.45508 0.10119,-0.18341 0.21275,-0.2872 0.47266,-0.38476 C 393.99428,184.06259 394.40761,184 395,184 Z"
       id="path1"
       style="fill:url(#linearGradient3)" />
    <path
       d="m 408,184.71875 c -1.23971,0.58734 -2.98131,1.54153 -5,2.71094 v 1.14258 c 1.99268,1.15764 3.73306,2.10927 5,2.70898 z"
       id="path2"
       style="fill:url(#linearGradient5)" />
  </g>
</svg>
