<?xml version="1.0" encoding="UTF-8" standalone="no"?>
<svg
   height="16"
   width="16"
   version="1.1"
   id="svg41"
   sodipodi:docname="yast-disk.svg"
   inkscape:version="1.3 (0e150ed6c4, 2023-07-21)"
   xmlns:inkscape="http://www.inkscape.org/namespaces/inkscape"
   xmlns:sodipodi="http://sodipodi.sourceforge.net/DTD/sodipodi-0.dtd"
   xmlns:xlink="http://www.w3.org/1999/xlink"
   xmlns="http://www.w3.org/2000/svg"
   xmlns:svg="http://www.w3.org/2000/svg">
  <defs
     id="defs45">
    <linearGradient
       id="linearGradient22"
       inkscape:collect="always">
      <stop
         style="stop-color:#00ffff;stop-opacity:1;"
         offset="0"
         id="stop22" />
      <stop
         style="stop-color:#ff00ff;stop-opacity:1"
         offset="1"
         id="stop23" />
    </linearGradient>
    <linearGradient
       id="linearGradient19"
       x1="155.33499"
       y1="129.60361"
       x2="156.33499"
       y2="80.816811"
       gradientUnits="userSpaceOnUse"
       gradientTransform="matrix(0.10699765,0,0,0.10699765,-1.7753055,-7.3314365)"
       spreadMethod="pad">
      <stop
         stop-color="#FD0F00"
         id="stop18"
         style="stop-color:#00ffff;stop-opacity:1" />
      <stop
         offset="1"
         stop-color="#FFF500"
         id="stop19" />
    </linearGradient>
    <linearGradient
       id="linearGradient17"
       x1="155.33499"
       y1="129.60361"
       x2="156.33499"
       y2="80.816811"
       gradientUnits="userSpaceOnUse"
       gradientTransform="matrix(0.10699765,0,0,0.10699765,-1.7753055,-7.3314365)"
       spreadMethod="pad">
      <stop
         stop-color="#FD0F00"
         id="stop16"
         style="stop-color:#00ffff;stop-opacity:1" />
      <stop
         offset="1"
         stop-color="#FFF500"
         id="stop17" />
    </linearGradient>
    <linearGradient
       id="linearGradient15"
       x1="155.33499"
       y1="129.60361"
       x2="156.33499"
       y2="80.816811"
       gradientUnits="userSpaceOnUse"
       gradientTransform="matrix(0.10699765,0,0,0.10699765,-1.7753055,-7.3314365)"
       spreadMethod="pad">
      <stop
         stop-color="#FD0F00"
         id="stop13"
         style="stop-color:#00ffff;stop-opacity:1" />
      <stop
         offset="1"
         stop-color="#FFF500"
         id="stop15" />
    </linearGradient>
    <linearGradient
       id="linearGradient11"
       x1="155.33499"
       y1="129.60361"
       x2="156.33499"
       y2="80.816811"
       gradientUnits="userSpaceOnUse"
       gradientTransform="matrix(0.10699765,0,0,0.10699765,-1.7753055,-7.3314365)">
      <stop
         stop-color="#FD0F00"
         id="stop6"
         style="stop-color:#00ffff;stop-opacity:1" />
      <stop
         offset="1"
         stop-color="#FFF500"
         id="stop11" />
    </linearGradient>
    <linearGradient
       gradientTransform="matrix(0.44998122,0,0,0.44995572,-227.84946,-238.21652)"
       gradientUnits="userSpaceOnUse"
       x2="426.69501"
       y2="499.92099"
       y1="547.67499"
       id="a-6"
       x1="389.32001">
      <stop
         stop-color="#18222a"
         style="stop-color:#1e2b35;stop-opacity:1"
         id="stop216" />
      <stop
         stop-color="#566069"
         offset="1"
         style="stop-color:#6d7983;stop-opacity:1"
         id="stop218" />
    </linearGradient>
    <linearGradient
       id="a-3">
      <stop
         offset="0"
         stop-color="#292c2f"
         id="stop8" />
      <stop
         offset="1"
         stop-opacity="0"
         id="stop10" />
    </linearGradient>
    <linearGradient
       id="d-6"
       gradientTransform="matrix(0.52174,0,0,0.53846,45.597466,-33.196963)"
       gradientUnits="userSpaceOnUse"
       x1="1.3329999"
       x2="1.3329999"
       y1="48.714001"
       y2="9.7139997">
      <stop
         offset="0"
         stop-color="#eef1f2"
         id="stop19-7" />
      <stop
         offset="1"
         stop-color="#f9fafb"
         id="stop21" />
    </linearGradient>
    <linearGradient
       id="b-3"
       gradientUnits="userSpaceOnUse"
       x1="6"
       x2="20"
       y1="5"
       y2="16"
       gradientTransform="matrix(0.38666491,0,0,0.38666491,-14.932957,-19.595831)">
      <stop
         offset="0"
         stop-color="#31363b"
         id="stop7-6" />
      <stop
         offset="1"
         stop-color="#232629"
         id="stop9-7" />
    </linearGradient>
    <linearGradient
       id="c-5"
       gradientUnits="userSpaceOnUse"
       x1="7"
       x2="14"
       y1="7"
       y2="14"
       gradientTransform="matrix(0.38666491,0,0,0.38666491,-14.932957,-19.595831)">
      <stop
         offset="0"
         stop-color="#292c2f"
         id="stop12-3" />
      <stop
         offset="1"
         stop-opacity="0"
         id="stop14-5" />
    </linearGradient>
    <linearGradient
       id="paint0_linear_618_79"
       x1="155.33499"
       y1="129.60361"
       x2="156.33499"
       y2="80.816811"
       gradientUnits="userSpaceOnUse"
       gradientTransform="matrix(0.10699765,0,0,0.10699765,-1.7753055,-7.3314365)"
       xlink:href="#linearGradient19">
      <stop
         stop-color="#FD0F00"
         id="stop3" />
      <stop
         offset="1"
         stop-color="#FFF500"
         id="stop4-2" />
    </linearGradient>
    <linearGradient
       id="paint2_linear_618_79"
       x1="58.026001"
       y1="119.152"
       x2="58.026001"
       y2="23.7896"
       gradientUnits="userSpaceOnUse"
       gradientTransform="matrix(0.10699765,0,0,0.10699765,5.3580141,8.0370212)">
      <stop
         stop-color="#9000FF"
         id="stop7-8" />
      <stop
         offset="1"
         stop-color="#FF81FF"
         id="stop8-9" />
    </linearGradient>
    <linearGradient
       inkscape:collect="always"
       xlink:href="#linearGradient22"
       id="linearGradient1"
       gradientUnits="userSpaceOnUse"
       gradientTransform="matrix(0.10699765,0,0,0.10699765,1.7913545,0.3527925)"
       x1="58.026001"
       y1="119.152"
       x2="58.026001"
       y2="23.7896" />
    <linearGradient
       inkscape:collect="always"
       xlink:href="#linearGradient22"
       id="linearGradient23"
       x1="9.1245555"
       y1="4.1489835"
       x2="14.845174"
       y2="4.1489835"
       gradientUnits="userSpaceOnUse" />
  </defs>
  <sodipodi:namedview
     id="namedview43"
     pagecolor="#ffffff"
     bordercolor="#666666"
     borderopacity="1.0"
     inkscape:showpageshadow="2"
     inkscape:pageopacity="0.0"
     inkscape:pagecheckerboard="0"
     inkscape:deskcolor="#d1d1d1"
     showgrid="false"
     inkscape:zoom="42.909092"
     inkscape:cx="8.8209744"
     inkscape:cy="7.8188557"
     inkscape:window-width="1920"
     inkscape:window-height="994"
     inkscape:window-x="0"
     inkscape:window-y="0"
     inkscape:window-maximized="1"
     inkscape:current-layer="svg41" />
  <linearGradient
     id="a"
     gradientTransform="matrix(0.36685,0,0,0.34615286,-142.9925,-173.08407)"
     gradientUnits="userSpaceOnUse"
     x1="388.423"
     x2="388.423"
     y1="557.79797"
     y2="505.798">
    <stop
       offset="0"
       stop-color="#7f8c8d"
       id="stop2" />
    <stop
       offset="1"
       stop-color="#afb0b3"
       id="stop4" />
  </linearGradient>
  <linearGradient
     id="b"
     gradientTransform="matrix(0.33540428,0,0,0.34615286,-21.018857,-0.076429)"
     gradientUnits="userSpaceOnUse"
     x1="3"
     x2="3"
     y1="17"
     y2="3">
    <stop
       offset="0"
       stop-color="#eef1f2"
       id="stop7" />
    <stop
       offset="1"
       stop-color="#f9fafb"
       id="stop9" />
  </linearGradient>
  <linearGradient
     id="c"
     gradientUnits="userSpaceOnUse"
     x1="6"
     x2="18"
     y1="6"
     y2="18">
    <stop
       offset="0"
       stop-color="#292c2f"
       id="stop12" />
    <stop
       offset="1"
       stop-opacity="0"
       id="stop14" />
  </linearGradient>
  <path
     d="m 9.4806015,1.4227695 c -0.19664,0 -0.356046,0.151947 -0.356046,0.339364 v 4.773711 c 0,0.187417 0.159406,0.339353 0.356046,0.339353 h 5.0084845 c 0.196661,0 0.356088,-0.151936 0.356088,-0.339353 0,-2.813953 -2.412444,-5.113075 -5.3645725,-5.113075 z m 0.356045,4.773721 v -4.082142 c 2.2821535,0.165386 4.1094265,1.907008 4.2828705,4.082142 z"
     stroke-width="0.213995"
     id="path1"
     style="fill:url(#linearGradient23)" />
  <path
     fill-rule="evenodd"
     clip-rule="evenodd"
     d="M 12.996576,7.6493045 H 8.3679225 v -4.411727 c 0,-0.187417 -0.159405,-0.339354 -0.356046,-0.339354 -2.945559,0 -5.364541,2.278879 -5.364541,5.090435 0,2.8100575 2.416799,5.1131175 5.364541,5.1131175 2.9459015,0 5.3407885,-2.301541 5.3407885,-5.1131175 0,-0.187396 -0.159427,-0.339354 -0.356089,-0.339354 z M 8.0118985,12.42309 c -2.565376,0 -4.652429,-1.989279 -4.652429,-4.4343885 0,-2.319067 1.896704,-4.225915 4.296362,-4.398952 v 4.398952 c 0,0.187417 0.159426,0.339353 0.356067,0.339118 H 12.627221 C 12.445645,10.615236 10.445003,12.42309 8.0118985,12.42309 Z"
     id="path2"
     style="fill:url(#linearGradient1);stroke-width:0.106998" />
  <path
     d="m 8.3679225,7.6493045 h -0.213996 v 0.213995 h 0.213996 z m -0.712091,-4.059555 h 0.213995 v -0.229981 l -0.229381,0.01654 z m 0.356067,4.73807 v -0.213995 h -2.57e-4 z m 4.6153225,0 0.213245,0.01695 0.0184,-0.230943 h -0.23165 z m -4.2592985,-0.46452 h 4.6286535 v -0.42799 H 8.3679225 Z m -0.213996,-4.625722 v 4.411727 h 0.427991 v -4.411727 z m -0.14205,-0.125358 c 0.08825,0 0.14205,0.0657 0.14205,0.125358 h 0.427991 c 0,-0.315172 -0.265012,-0.553349 -0.570041,-0.553349 z m -5.150545,4.876439 c 0,-2.682495 2.311983,-4.876439 5.150545,-4.876439 v -0.427991 c -3.052578,0 -5.578536,2.363813 -5.578536,5.30443 z m 5.150545,4.8991215 c -2.839375,0 -5.150545,-2.216841 -5.150545,-4.8991215 h -0.427991 c 0,2.9378125 2.522405,5.3271135 5.578536,5.3271135 z M 13.138669,7.9886585 c 0,2.6849345 -2.290434,4.8991215 -5.1267925,4.8991215 v 0.427991 c 3.0554465,0 5.5547835,-2.388894 5.5547835,-5.3271125 z m -0.142092,-0.125359 c 0.08827,0 0.142092,0.0657 0.142092,0.125359 h 0.427991 c 0,-0.315151 -0.265034,-0.553349 -0.570083,-0.553349 z m -9.8511035,0.125402 c 0,2.5728445 2.19266,4.6483845 4.866425,4.6483845 v -0.427991 c -2.456987,0 -4.438434,-1.903038 -4.438434,-4.2203935 z m 4.494972,-4.612391 c -2.500942,0.180334 -4.494972,2.170747 -4.494972,4.612391 h 0.427991 c 0,-2.196491 1.799379,-4.019774 4.097775,-4.185513 z m 0.229381,4.612391 v -4.398952 h -0.42799 v 4.398952 z m 0.141815,0.125123 c -0.08802,1.07e-4 -0.141815,-0.06542 -0.141815,-0.125123 h -0.42799 c 0,0.31515 0.265054,0.553477 0.570297,0.553113 z m 4.6155785,0 H 8.0118985 v 0.42799 H 12.62722 Z M 8.0118985,12.637085 c 2.5379405,0 4.6376835,-1.887032 4.8285675,-4.2923175 l -0.4266,-0.03388 c -0.172202,2.1695055 -2.0737,3.8982015 -4.4019675,3.8982015 z"
     id="path3"
     style="fill:none;stroke-width:0.106998" />
</svg>
