<?xml version="1.0" encoding="UTF-8" standalone="no"?>
<svg
   width="16"
   height="16"
   version="1.1"
   id="svg22"
   sodipodi:docname="preferences-system-network-server-dns.svg"
   inkscape:version="1.3 (0e150ed6c4, 2023-07-21)"
   xmlns:inkscape="http://www.inkscape.org/namespaces/inkscape"
   xmlns:sodipodi="http://sodipodi.sourceforge.net/DTD/sodipodi-0.dtd"
   xmlns:xlink="http://www.w3.org/1999/xlink"
   xmlns="http://www.w3.org/2000/svg"
   xmlns:svg="http://www.w3.org/2000/svg">
  <sodipodi:namedview
     id="namedview22"
     pagecolor="#ffffff"
     bordercolor="#000000"
     borderopacity="0.25"
     inkscape:showpageshadow="2"
     inkscape:pageopacity="0.0"
     inkscape:pagecheckerboard="0"
     inkscape:deskcolor="#d1d1d1"
     showgrid="true"
     inkscape:zoom="23.96875"
     inkscape:cx="6.3624511"
     inkscape:cy="10.409387"
     inkscape:window-width="1920"
     inkscape:window-height="994"
     inkscape:window-x="0"
     inkscape:window-y="0"
     inkscape:window-maximized="1"
     inkscape:current-layer="svg22">
    <inkscape:grid
       id="grid22"
       units="px"
       originx="0"
       originy="0"
       spacingx="1"
       spacingy="1"
       empcolor="#0099e5"
       empopacity="0.30196078"
       color="#0099e5"
       opacity="0.14902"
       empspacing="5"
       dotted="false"
       gridanglex="30"
       gridanglez="30"
       visible="true" />
  </sodipodi:namedview>
  <defs
     id="defs22">
    <style
       id="current-color-scheme"
       type="text/css">&#10;   .ColorScheme-Text { color:#d5c289; } .ColorScheme-Highlight { color:#5294e2; }&#10;  </style>
    <linearGradient
       id="arrongin"
       x1="0%"
       x2="0%"
       y1="0%"
       y2="100%">
      <stop
         offset="0%"
         style="stop-color:#dd9b44; stop-opacity:1"
         id="stop1" />
      <stop
         offset="100%"
         style="stop-color:#ad6c16; stop-opacity:1"
         id="stop2" />
    </linearGradient>
    <linearGradient
       id="aurora"
       x1="0%"
       x2="0%"
       y1="0%"
       y2="100%">
      <stop
         offset="0%"
         style="stop-color:#09D4DF; stop-opacity:1"
         id="stop3" />
      <stop
         offset="100%"
         style="stop-color:#9269F4; stop-opacity:1"
         id="stop4" />
    </linearGradient>
    <linearGradient
       id="fitdance"
       x1="0%"
       x2="0%"
       y1="0%"
       y2="100%">
      <stop
         offset="0%"
         style="stop-color:#1AD6AB; stop-opacity:1"
         id="stop5" />
      <stop
         offset="100%"
         style="stop-color:#329DB6; stop-opacity:1"
         id="stop6" />
    </linearGradient>
    <linearGradient
       id="oomox"
       x1="0.9258201"
       x2="0.9258201"
       y1="2.1980512"
       y2="15.159533"
       gradientTransform="matrix(1.157274,0,0,1.0801235,-0.57142812,-1.3741667)"
       gradientUnits="userSpaceOnUse">
      <stop
         offset="0%"
         style="stop-color:#303b3d; stop-opacity:1"
         id="stop7" />
      <stop
         offset="100%"
         style="stop-color:#bc985d; stop-opacity:1"
         id="stop8" />
    </linearGradient>
    <linearGradient
       id="rainblue"
       x1="0%"
       x2="0%"
       y1="0%"
       y2="100%">
      <stop
         offset="0%"
         style="stop-color:#00F260; stop-opacity:1"
         id="stop9" />
      <stop
         offset="100%"
         style="stop-color:#0575E6; stop-opacity:1"
         id="stop10" />
    </linearGradient>
    <linearGradient
       id="sunrise"
       x1="0%"
       x2="0%"
       y1="0%"
       y2="100%">
      <stop
         offset="0%"
         style="stop-color: #FF8501; stop-opacity:1"
         id="stop11" />
      <stop
         offset="100%"
         style="stop-color: #FFCB01; stop-opacity:1"
         id="stop12" />
    </linearGradient>
    <linearGradient
       id="telinkrin"
       x1="0%"
       x2="0%"
       y1="0%"
       y2="100%">
      <stop
         offset="0%"
         style="stop-color: #b2ced6; stop-opacity:1"
         id="stop13" />
      <stop
         offset="100%"
         style="stop-color: #6da5b7; stop-opacity:1"
         id="stop14" />
    </linearGradient>
    <linearGradient
       id="60spsycho"
       x1="0%"
       x2="0%"
       y1="0%"
       y2="100%">
      <stop
         offset="0%"
         style="stop-color: #df5940; stop-opacity:1"
         id="stop15" />
      <stop
         offset="25%"
         style="stop-color: #d8d15f; stop-opacity:1"
         id="stop16" />
      <stop
         offset="50%"
         style="stop-color: #e9882a; stop-opacity:1"
         id="stop17" />
      <stop
         offset="100%"
         style="stop-color: #279362; stop-opacity:1"
         id="stop18" />
    </linearGradient>
    <linearGradient
       id="90ssummer"
       x1="0%"
       x2="0%"
       y1="0%"
       y2="100%">
      <stop
         offset="0%"
         style="stop-color: #f618c7; stop-opacity:1"
         id="stop19" />
      <stop
         offset="20%"
         style="stop-color: #94ffab; stop-opacity:1"
         id="stop20" />
      <stop
         offset="50%"
         style="stop-color: #fbfd54; stop-opacity:1"
         id="stop21" />
      <stop
         offset="100%"
         style="stop-color: #0f83ae; stop-opacity:1"
         id="stop22" />
    </linearGradient>
    <linearGradient
       id="linearGradient24"
       x1="0"
       x2="0"
       y1="0"
       y2="1">
      <stop
         offset="0%"
         style="stop-color:#febc85;stop-opacity:1"
         id="stop23" />
      <stop
         offset="1"
         style="stop-color:#8660cb;stop-opacity:1"
         id="stop24" />
    </linearGradient>
    <linearGradient
       inkscape:collect="always"
       xlink:href="#aurora"
       id="linearGradient26"
       x1="0.5"
       y1="15"
       x2="15.5"
       y2="1"
       gradientUnits="userSpaceOnUse"
       gradientTransform="matrix(0.86666667,0,0,0.85714286,1.0666667,1.1428572)" />
    <linearGradient
       id="c-6">
      <stop
         offset="0"
         stop-color="#c6cdd1"
         id="stop226" />
      <stop
         offset="1"
         stop-color="#e0e5e7"
         id="stop228" />
    </linearGradient>
    <linearGradient
       id="e-3">
      <stop
         offset="0"
         id="stop232" />
      <stop
         offset="1"
         stop-opacity="0"
         id="stop234" />
    </linearGradient>
    <linearGradient
       inkscape:collect="always"
       xlink:href="#rainblue"
       id="linearGradient28"
       x1="7"
       y1="7.5"
       x2="12"
       y2="7.5"
       gradientUnits="userSpaceOnUse" />
    <linearGradient
       inkscape:collect="always"
       xlink:href="#aurora"
       id="linearGradient30"
       x1="4"
       y1="7.5"
       x2="6"
       y2="7.5"
       gradientUnits="userSpaceOnUse" />
    <linearGradient
       inkscape:collect="always"
       xlink:href="#aurora"
       id="linearGradient27"
       x1="9"
       y1="10"
       x2="13"
       y2="10"
       gradientUnits="userSpaceOnUse" />
  </defs>
  <path
     class="ColorScheme-Text"
     d="M 2.8928565,2 C 2.1295708,2 1.5,2.678 1.5,3.5 v 9 c 0,0.822994 0.6295708,1.5 1.3928565,1.5 H 13.107141 C 13.870429,14 14.5,13.322994 14.5,12.5 v -9 C 14.5,2.678 13.870429,2 13.107141,2 Z m 0,0.9999994 h 3.249999 0.9285709 v 0 H 10.6 v 0 0 0 h 2.507141 c 0.265565,0 0.464277,0.2150006 0.464277,0.5000006 v 9 c 0,0.285994 -0.198712,0.500006 -0.464277,0.500006 H 2.8928565 C 2.6338146,13.006906 2.4221185,12.778974 2.4285704,12.5 v -9 c 0,-0.285 0.1987156,-0.5000006 0.4642861,-0.5000006 z m 4.1785699,0 h 1.8571437 v 0 0 z"
     font-family="sans-serif"
     font-weight="400"
     overflow="visible"
     id="path22"
     sodipodi:nodetypes="sssssssssscccccccssssccssccccc"
     style="fill:url(#linearGradient26);stroke-width:0.861892" />
  <path
     d="M 7.0000002,4 H 12 V 5 H 7 Z M 7,10 h 5 v 1 H 7 Z M 7,6 h 5 L 11.95828,7 H 7 Z m 0,2 h 5 V 9 H 7 Z"
     stroke-width="1.08988"
     id="path269-9-1-8"
     sodipodi:nodetypes="cccccccccccccccccccc"
     style="fill:url(#linearGradient28)" />
  <path
     d="M 4,4 H 6 V 5 L 4,4.9818178 Z M 4,6 H 6 V 7 H 4 Z M 4,8 H 6 V 9 H 4 Z m 0,2 h 2 v 1 H 4 Z"
     id="path279-2-0-2"
     style="stroke-width:0.77069;fill:url(#linearGradient30)"
     sodipodi:nodetypes="cccccccccccccccccccc" />
  <path
     d="m 9.364022,8 h 3.273029 C 12.837856,8 13,8.16322 13,8.364022 v 3.273029 C 13,11.837856 12.837856,12 12.637051,12 H 9.364022 C 9.16322,12 9,11.837856 9,11.637051 V 8.364022 C 9,8.16322 9.16322,8 9.364022,8 Z m 0,0"
     id="path15"
     style="fill:url(#linearGradient27)" />
  <path
     d="m 10.724569,9.990869 c 0,0.131008 0.02787,0.2341 0.08269,0.310342 0.05691,0.07516 0.133157,0.11382 0.228725,0.11382 0.09556,0 0.170732,-0.03862 0.227643,-0.11382 0.05692,-0.07732 0.08485,-0.180402 0.08485,-0.310342 0,-0.128849 -0.029,-0.230869 -0.08699,-0.30604 -0.05583,-0.07516 -0.13208,-0.112747 -0.228724,-0.112747 -0.09342,0 -0.168583,0.03756 -0.225499,0.112747 -0.05473,0.07516 -0.08269,0.177191 -0.08269,0.30604 z m 0.6561,0.481072 c -0.0322,0.07624 -0.08376,0.13531 -0.1557,0.178264 -0.0698,0.04081 -0.15248,0.06227 -0.24806,0.06227 -0.183618,0 -0.332887,-0.06658 -0.447778,-0.198661 C 10.4153,10.380659 10.35839,10.206699 10.35839,9.994088 c 0,-0.213693 0.05691,-0.386588 0.172881,-0.519733 0.114909,-0.133156 0.263098,-0.199736 0.445638,-0.199736 0.09558,0 0.178262,0.02041 0.24806,0.06338 0.07192,0.04299 0.123491,0.102016 0.1557,0.177185 v -0.2094 h 0.33396 v 1.109264 c 0.13208,-0.02041 0.23624,-0.08377 0.311412,-0.191143 0.07622,-0.10738 0.113819,-0.244834 0.113819,-0.412352 0,-0.106305 -0.01498,-0.206169 -0.04617,-0.298522 C 12.06258,9.418541 12.01637,9.33263 11.953018,9.255311 11.852082,9.125384 11.724295,9.024445 11.571814,8.954645 11.42041,8.883735 11.256108,8.848341 11.080004,8.848341 c -0.124567,0 -0.242687,0.01713 -0.355434,0.05049 -0.112755,0.0311 -0.217991,0.07946 -0.313559,0.141752 -0.157854,0.10416 -0.281348,0.240532 -0.369397,0.405904 C 9.953554,9.611856 9.91061,9.791183 9.91061,9.98447 c 0,0.158925 0.02789,0.308193 0.08484,0.447791 0.05692,0.138522 0.1396,0.260934 0.248054,0.368322 0.10631,0.10416 0.228725,0.183619 0.366173,0.238385 0.138523,0.05474 0.285634,0.08269 0.442422,0.08269 0.134224,0 0.269526,-0.02468 0.403756,-0.07515 0.134224,-0.05049 0.249126,-0.118122 0.343617,-0.202955 l 0.170748,0.258793 c -0.133159,0.103087 -0.278121,0.182551 -0.435979,0.237313 -0.156777,0.05475 -0.316777,0.08269 -0.47893,0.08269 -0.196504,0 -0.383354,-0.0354 -0.558383,-0.105237 -0.173962,-0.0698 -0.329668,-0.170737 -0.467117,-0.303891 C 9.89343,10.880067 9.790348,10.725435 9.7184,10.550406 9.64648,10.374294 9.611021,10.186375 9.611021,9.984496 c 0,-0.194365 0.03652,-0.379061 0.10845,-0.555169 0.07302,-0.176106 0.17611,-0.330736 0.31034,-0.463892 0.135299,-0.132081 0.291009,-0.234094 0.469259,-0.307109 0.17933,-0.07193 0.365106,-0.108462 0.55624,-0.108462 0.23947,0 0.45638,0.04508 0.651817,0.13745 0.19436,0.0902 0.357583,0.221212 0.488585,0.39302 0.08055,0.105233 0.140676,0.217992 0.181478,0.341476 0.04081,0.121343 0.06227,0.24913 0.06227,0.383357 0,0.28886 -0.08698,0.513288 -0.260935,0.673288 -0.17396,0.16 -0.418791,0.240537 -0.735571,0.240537 h -0.06228 z m 0,0"
     id="path16"
     style="fill:#f9f9f9" />
</svg>
