<?xml version="1.0" encoding="UTF-8" standalone="no"?>
<svg
   width="16"
   height="16"
   viewBox="0 0 16 16"
   fill="none"
   version="1.1"
   id="svg16"
   sodipodi:docname="preferences-system-backup.svg"
   inkscape:version="1.3 (0e150ed6c4, 2023-07-21)"
   xmlns:inkscape="http://www.inkscape.org/namespaces/inkscape"
   xmlns:sodipodi="http://sodipodi.sourceforge.net/DTD/sodipodi-0.dtd"
   xmlns:xlink="http://www.w3.org/1999/xlink"
   xmlns="http://www.w3.org/2000/svg"
   xmlns:svg="http://www.w3.org/2000/svg">
  <sodipodi:namedview
     id="namedview16"
     pagecolor="#ffffff"
     bordercolor="#000000"
     borderopacity="0.25"
     inkscape:showpageshadow="2"
     inkscape:pageopacity="0.0"
     inkscape:pagecheckerboard="0"
     inkscape:deskcolor="#d1d1d1"
     inkscape:zoom="23.96875"
     inkscape:cx="8.3233377"
     inkscape:cy="11.452412"
     inkscape:window-width="1920"
     inkscape:window-height="994"
     inkscape:window-x="0"
     inkscape:window-y="0"
     inkscape:window-maximized="1"
     inkscape:current-layer="svg16" />
  <path
     d="m 8.0000002,2.218182 c -3.175713,0 -5.7818182,2.6061052 -5.7818182,5.7818182 0,3.1757128 2.6061052,5.7818178 5.7818182,5.7818178 3.1757138,0 5.7818188,-2.606105 5.7818188,-5.7818178 0,-3.175713 -2.606105,-5.7818182 -5.7818188,-5.7818182 z m 0,10.886073 c -2.802196,0 -5.1042545,-2.302059 -5.1042545,-5.1042548 0,-2.802196 2.3020585,-5.1042545 5.1042545,-5.1042545 2.8021958,0 5.1042558,2.3020585 5.1042558,5.1042545 0,2.8021958 -2.302059,5.1042548 -5.1042558,5.1042548 z"
     fill="url(#paint0_linear_616_144)"
     stroke="url(#paint1_linear_616_144)"
     stroke-width="0.436364"
     id="path1"
     style="fill:url(#linearGradient19);stroke:url(#paint1_linear_616_144)" />
  <defs
     id="defs16">
    <linearGradient
       id="linearGradient1"
       inkscape:collect="always">
      <stop
         style="stop-color:#800080;stop-opacity:1"
         offset="0"
         id="stop1" />
      <stop
         style="stop-color:#ff00ff;stop-opacity:1"
         offset="1"
         id="stop2" />
    </linearGradient>
    <linearGradient
       id="paint0_linear_616_144"
       x1="18.5714"
       y1="64"
       x2="104.593"
       y2="54.494099"
       gradientUnits="userSpaceOnUse"
       gradientTransform="matrix(0.10909091,0,0,0.10909091,1.018182,1.018182)">
      <stop
         stop-color="#A000B8"
         id="stop5" />
      <stop
         offset="1"
         stop-color="#FF00D2"
         id="stop6" />
    </linearGradient>
    <linearGradient
       id="paint1_linear_616_144"
       x1="18.5714"
       y1="64"
       x2="110.78901"
       y2="64"
       gradientUnits="userSpaceOnUse"
       gradientTransform="matrix(0.10909091,0,0,0.10909091,1.018182,1.018182)">
      <stop
         stop-color="#A000B8"
         id="stop7" />
      <stop
         offset="1"
         stop-color="#FF00D2"
         id="stop8" />
    </linearGradient>
    <linearGradient
       id="paint2_linear_616_144"
       x1="49.622002"
       y1="83.237297"
       x2="92.883301"
       y2="45.4911"
       gradientUnits="userSpaceOnUse"
       gradientTransform="matrix(0.10909091,0,0,0.10909091,1.018182,1.018182)"
       xlink:href="#paint0_linear_616_144">
      <stop
         stop-color="#FE0844"
         id="stop9" />
      <stop
         offset="1"
         stop-color="#FEB302"
         id="stop10" />
    </linearGradient>
    <linearGradient
       id="paint3_linear_616_144"
       x1="56.298199"
       y1="64.913803"
       x2="72.612602"
       y2="63.111"
       gradientUnits="userSpaceOnUse"
       gradientTransform="matrix(-0.0072167,-0.10885194,0.10885194,-0.0072167,1.7026011,15.469274)">
      <stop
         stop-color="#A000B8"
         id="stop11" />
      <stop
         offset="1"
         stop-color="#FF00D2"
         id="stop12" />
    </linearGradient>
    <linearGradient
       id="paint4_linear_616_144"
       x1="41.6889"
       y1="90.684097"
       x2="106.546"
       y2="32.654099"
       gradientUnits="userSpaceOnUse"
       gradientTransform="matrix(0.10909091,0,0,0.10909091,1.018182,1.018182)">
      <stop
         stop-color="#FE0844"
         id="stop13" />
      <stop
         offset="1"
         stop-color="#FEB302"
         id="stop14"
         style="stop-color:#a000b8;stop-opacity:1;" />
    </linearGradient>
    <linearGradient
       id="paint5_linear_616_144"
       x1="41.6889"
       y1="90.684097"
       x2="106.546"
       y2="32.654099"
       gradientUnits="userSpaceOnUse"
       gradientTransform="matrix(0.10909091,0,0,0.10909091,1.018182,1.018182)">
      <stop
         stop-color="#FE0844"
         id="stop15" />
      <stop
         offset="1"
         stop-color="#FEB302"
         id="stop16"
         style="stop-color:#e327ff;stop-opacity:1;" />
    </linearGradient>
    <linearGradient
       inkscape:collect="always"
       xlink:href="#paint0_linear_616_144"
       id="linearGradient19"
       gradientUnits="userSpaceOnUse"
       gradientTransform="matrix(0.10909091,0,0,0.10909091,1.018182,1.018182)"
       x1="18.5714"
       y1="64"
       x2="110.78901"
       y2="64" />
    <linearGradient
       id="paint1_linear_715_22"
       x1="60.132099"
       y1="94.334999"
       x2="60.132099"
       y2="32.125999"
       gradientUnits="userSpaceOnUse"
       gradientTransform="matrix(0.10178279,0,0,0.10448646,1.5795812,1.3432714)"
       xlink:href="#paint5_linear_616_144">
      <stop
         stop-color="#A93AFF"
         id="stop4" />
      <stop
         offset="1"
         stop-color="#FF81FF"
         id="stop5-8" />
    </linearGradient>
    <linearGradient
       inkscape:collect="always"
       xlink:href="#linearGradient1"
       id="linearGradient2"
       x1="4.1999998"
       y1="11.2"
       x2="11.199993"
       y2="4.6999998"
       gradientUnits="userSpaceOnUse" />
  </defs>
  <path
     d="M 6.9817832,10.98546 C 8.2307496,11.509168 9.7593841,11.04326 10.558111,9.9233731 11.12985,9.1551697 11.335476,8.1155923 11.110884,7.1740332 10.913517,6.3022511 10.347037,5.5326974 9.5923483,5.1027469 8.6482824,4.5515173 7.4284977,4.5668041 6.4982942,5.1444444 5.6284685,5.6689663 5.0427499,6.6477957 4.9649376,7.6884383 l -0.013731,-1.569e-4 c -0.1414877,-0.00172 -0.2939892,-0.00357 -0.4413097,0.012016 l -0.00879,9.21e-4 -0.00864,0.00195 C 4.357393,7.7339254 4.2652191,7.8376295 4.2249027,7.9497122 4.1853607,8.0596215 4.1888747,8.1960598 4.2648657,8.3088315 4.564666,8.8264477 4.8685998,9.3411055 5.1759633,9.8534985 5.2474233,10.00034 5.3919776,10.062303 5.5211496,10.058178 5.6486638,10.054278 5.7871893,9.985054 5.8531143,9.8414804 6.1589601,9.3314069 6.4613158,8.8185144 6.7601605,8.3042214 6.9031753,8.0860647 6.7881707,7.7868047 6.5585394,7.7094324 l -0.01451,-0.00487 -0.01516,-0.00185 C 6.3784808,7.6844157 6.2231702,7.6860248 6.0791476,7.6881941 6.1498422,7.1495976 6.4159161,6.6409886 6.8243096,6.3082933 l 0.0011,-9.207e-4 0.00101,-9.209e-4 C 7.3211927,5.8881947 8.0142824,5.7417672 8.6247544,5.9280144 l 0.00153,4.495e-4 0.00153,4.173e-4 c 0.8809935,0.2490019 1.5316176,1.1898609 1.4571746,2.1432049 l -2.54e-4,0.00325 -1.23e-4,0.00325 C 10.046644,9.0796814 9.2201147,9.9642334 8.2665424,10.03683 l -0.00607,4.71e-4 -0.00602,0.0011 C 8.0967116,10.063551 7.93733,10.049071 7.7678314,10.017471 7.6834944,10.001751 7.5990243,9.982321 7.5110639,9.962083 l -0.00163,-3.968e-4 C 7.4219248,9.9415219 7.3309106,9.9206036 7.2392138,9.9037401 l -0.01335,-0.0026 h -0.013559 c -0.2857449,0 -0.4615341,0.2263179 -0.5101662,0.4485699 -0.048555,0.221918 0.015487,0.503646 0.2705287,0.63142 l 0.00453,0.0025 z"
     id="path2"
     style="fill:url(#linearGradient2);fill-opacity:1" />
</svg>
