<?xml version="1.0" encoding="UTF-8" standalone="no"?>
<svg
   inkscape:version="1.2.1 (9c6d41e410, 2022-07-14)"
   height="24"
   width="24"
   sodipodi:docname="redshift-status-on.svg"
   id="svg30"
   xml:space="preserve"
   enable-background="new 0 0 1000 1000"
   viewBox="0 0 23.999999 24"
   y="0px"
   x="0px"
   version="1.1"
   xmlns:inkscape="http://www.inkscape.org/namespaces/inkscape"
   xmlns:sodipodi="http://sodipodi.sourceforge.net/DTD/sodipodi-0.dtd"
   xmlns="http://www.w3.org/2000/svg"
   xmlns:svg="http://www.w3.org/2000/svg"
   xmlns:rdf="http://www.w3.org/1999/02/22-rdf-syntax-ns#"
   xmlns:cc="http://creativecommons.org/ns#"
   xmlns:dc="http://purl.org/dc/elements/1.1/"><defs
   id="defs1721" /><style
   id="style288">
   <style
   type="text/css"
   id="current-color-scheme">.ColorScheme-Text { color:#d1d5e9; }
</style><metadata
   id="metadata18"><rdf:RDF><cc:Work
       rdf:about=""><dc:format>image/svg+xml</dc:format><dc:type
         rdf:resource="http://purl.org/dc/dcmitype/StillImage" /></cc:Work></rdf:RDF></metadata><defs
   id="defs34" /><sodipodi:namedview
   inkscape:document-rotation="0"
   inkscape:current-layer="svg30"
   inkscape:window-maximized="1"
   inkscape:window-y="0"
   inkscape:window-x="0"
   inkscape:cy="18.047425"
   inkscape:cx="-2.8984087"
   inkscape:zoom="12.938134"
   showgrid="true"
   id="namedview32"
   inkscape:window-height="1004"
   inkscape:window-width="1920"
   inkscape:pageshadow="2"
   inkscape:pageopacity="0"
   guidetolerance="10"
   gridtolerance="10"
   objecttolerance="10"
   borderopacity="1"
   bordercolor="#666666"
   pagecolor="#ffffff"
   inkscape:showpageshadow="2"
   inkscape:pagecheckerboard="0"
   inkscape:deskcolor="#d1d1d1"><inkscape:grid
     type="xygrid"
     id="grid294" /></sodipodi:namedview>

<ellipse
   cx="12.024994"
   cy="10.341656"
   id="circle2-36"
   style="stroke-width:0.127548;fill-opacity:1;fill:currentColor;"
   class="ColorScheme-Text "
   rx="1.5687985"
   ry="1.5687916" /><path
   d="m 11.46656,8.63256 0.204069,-0.0765 -0.255091,-0.714248 c -0.02549,-0.06371 -0.08928,-0.08928 -0.140299,-0.06371 -0.05097,0.02548 -0.08928,0.08928 -0.06372,0.140297 z"
   id="path4-7"
   style="color:#d1d5e9;fill:#e5e9ef;fill-opacity:1;stroke-width:0.127548"
   class="ColorScheme-Text" /><path
   d="M 12.12752,7.114798 C 12.12752,7.051048 12.07655,7 12.012723,7 11.948983,7 11.910688,7.05097 11.910688,7.114798 v 1.415727 h 0.229581 V 7.114798 Z"
   id="path6-5"
   style="color:#d1d5e9;fill:#e5e9ef;fill-opacity:1;stroke-width:0.127548"
   class="ColorScheme-Text" /><path
   d="m 11.910688,13.56852 c 0,0.06377 0.05097,0.114789 0.114787,0.114789 0.06373,0 0.114794,-0.05101 0.114794,-0.114789 v -1.415739 h -0.229581 z"
   id="path8-3"
   style="color:#d1d5e9;fill:#e5e9ef;fill-opacity:1;stroke-width:0.127548"
   class="ColorScheme-Text" /><path
   d="m 12.649964,12.025238 -0.204063,0.07653 0.267846,0.714245 c 0.02549,0.06377 0.08928,0.08928 0.140294,0.06377 0.06376,-0.02552 0.08928,-0.08928 0.06376,-0.1403 z"
   id="path10-5"
   style="color:#d1d5e9;fill:#e5e9ef;fill-opacity:1;stroke-width:0.127548"
   class="ColorScheme-Text" /><path
   d="m 10.622013,9.181006 0.140294,-0.16581 -0.573949,-0.497417 c -0.05097,-0.03822 -0.114787,-0.03822 -0.153049,0.01274 -0.03822,0.05097 -0.03822,0.114796 0.01274,0.153062 z"
   id="path12-6"
   style="color:#d1d5e9;fill:#e5e9ef;fill-opacity:1;stroke-width:0.127548"
   class="ColorScheme-Text" /><path
   d="M 10.979139,8.862151 11.170449,8.747352 10.456199,7.51017 C 10.430709,7.4592 10.354168,7.43366 10.303151,7.47195 c -0.05097,0.02548 -0.07652,0.102042 -0.03822,0.153058 z"
   id="path14-3-29"
   style="color:#d1d5e9;fill:#e5e9ef;fill-opacity:1;stroke-width:0.127548"
   class="ColorScheme-Text" /><path
   d="m 13.070872,11.821166 -0.191327,0.114791 0.714252,1.224422 c 0.02549,0.05101 0.102043,0.07653 0.153058,0.03826 0.05097,-0.02552 0.07651,-0.102036 0.03822,-0.153053 z"
   id="path16-1"
   style="color:#d1d5e9;fill:#e5e9ef;fill-opacity:1;stroke-width:0.127548"
   class="ColorScheme-Text" /><path
   d="m 13.402482,11.489551 -0.140293,0.165808 0.586699,0.497422 c 0.05097,0.03827 0.114792,0.03827 0.153047,-0.01275 0.03822,-0.05101 0.03822,-0.114789 -0.01274,-0.153053 z"
   id="path18-2"
   style="color:#d1d5e9;fill:#e5e9ef;fill-opacity:1;stroke-width:0.127548"
   class="ColorScheme-Text" /><path
   d="m 9.51237,9.678429 c -0.06372,-0.01274 -0.114781,0.02549 -0.127546,0.08928 -0.01274,0.06375 0.02549,0.114781 0.08928,0.127546 l 0.752511,0.127545 0.03822,-0.216827 z"
   id="path20-7"
   style="color:#d1d5e9;fill:#e5e9ef;fill-opacity:1;stroke-width:0.127548"
   class="ColorScheme-Text" /><path
   d="M 9.142497,8.874904 10.366919,9.589149 10.481715,9.397837 9.25728,8.683588 c -0.05097,-0.02548 -0.127537,-0.01274 -0.153053,0.03822 -0.03822,0.05097 -0.01274,0.114784 0.03822,0.153051 z"
   id="path22-0"
   style="color:#d1d5e9;fill:#e5e9ef;fill-opacity:1;stroke-width:0.127548"
   class="ColorScheme-Text" /><path
   d="m 14.907514,11.808412 -1.224436,-0.714252 -0.114787,0.191322 1.224425,0.714246 c 0.05097,0.02551 0.127551,0.01275 0.153046,-0.03826 0.02549,-0.05101 0.01274,-0.127545 -0.03823,-0.153053 z"
   id="path24-9"
   style="color:#d1d5e9;fill:#e5e9ef;fill-opacity:1;stroke-width:0.127548"
   class="ColorScheme-Text" /><path
   d="m 14.512121,10.992129 c 0.06372,0.01275 0.114785,-0.02551 0.127549,-0.08928 0.01274,-0.06375 -0.02549,-0.114785 -0.08928,-0.127547 l -0.752516,-0.127542 -0.03822,0.216823 z"
   id="path26-3"
   style="color:#d1d5e9;fill:#e5e9ef;fill-opacity:1;stroke-width:0.127548"
   class="ColorScheme-Text" /><path
   d="m 9.448601,11.157939 c 0.02549,0.06375 0.08928,0.08928 0.140303,0.06375 l 0.714247,-0.267843 -0.07652,-0.204066 -0.714247,0.267844 c -0.05097,0.02552 -0.07651,0.08928 -0.06372,0.140296 z"
   id="path28-60"
   style="color:#d1d5e9;fill:#e5e9ef;fill-opacity:1;stroke-width:0.127548"
   class="ColorScheme-Text" /><path
   d="M 10.213869,10.27788 H 8.79812 c -0.06375,0 -0.114783,0.05099 -0.114783,0.114794 0,0.06374 0.05097,0.114785 0.114783,0.114785 h 1.415749 z"
   id="path30-6"
   style="color:#d1d5e9;fill:#e5e9ef;fill-opacity:1;stroke-width:0.127548"
   class="ColorScheme-Text" /><path
   d="m 15.251875,10.175849 h -1.415738 v 0.229577 h 1.415738 c 0.06373,0 0.114794,-0.05099 0.114794,-0.114786 0,-0.06376 -0.05097,-0.114791 -0.114794,-0.114791 z"
   id="path32-2"
   style="color:#d1d5e9;fill:#e5e9ef;fill-opacity:1;stroke-width:0.127548"
   class="ColorScheme-Text" /><path
   d="m 14.575889,9.525366 c -0.02549,-0.06372 -0.08928,-0.08928 -0.140299,-0.06372 l -0.714252,0.267842 0.07651,0.204066 0.714248,-0.267842 c 0.05097,-0.02549 0.07651,-0.08928 0.06372,-0.140299 z"
   id="path34-6"
   style="color:#d1d5e9;fill:#e5e9ef;fill-opacity:1;stroke-width:0.127548"
   class="ColorScheme-Text" /><path
   d="m 10.851588,11.731885 -0.165811,-0.140297 -0.497419,0.586703 c -0.03822,0.05102 -0.03822,0.114789 0.01274,0.153051 0.05097,0.03827 0.114781,0.03827 0.153047,-0.01275 z"
   id="path36-1"
   style="color:#d1d5e9;fill:#e5e9ef;fill-opacity:1;stroke-width:0.127548"
   class="ColorScheme-Text" /><path
   d="m 10.430697,11.196202 -1.224435,0.714246 c -0.05097,0.02551 -0.0765,0.102035 -0.03822,0.153052 0.03822,0.05102 0.102043,0.07653 0.153061,0.03826 l 1.224418,-0.714246 z"
   id="path38-8"
   style="color:#d1d5e9;fill:#e5e9ef;fill-opacity:1;stroke-width:0.127548"
   class="ColorScheme-Text" /><path
   d="m 13.619309,9.487117 1.224422,-0.714248 c 0.05097,-0.02549 0.07652,-0.102045 0.03823,-0.153062 -0.03823,-0.05097 -0.102029,-0.07651 -0.153046,-0.03822 L 13.50448,9.29583 Z"
   id="path40-7"
   style="color:#d1d5e9;fill:#e5e9ef;fill-opacity:1;stroke-width:0.127548"
   class="ColorScheme-Text" /><path
   d="m 13.172906,8.951432 0.165811,0.140293 0.49742,-0.586699 c 0.03822,-0.05097 0.03822,-0.114798 -0.01274,-0.153062 -0.05097,-0.03823 -0.114782,-0.03823 -0.153047,0.01274 z"
   id="path42-9"
   style="color:#d1d5e9;fill:#e5e9ef;fill-opacity:1;stroke-width:0.127548"
   class="ColorScheme-Text" /><path
   d="m 11.279798,12.841519 c -0.01274,0.06377 0.02549,0.114791 0.08928,0.127545 0.06374,0.01275 0.114782,-0.02552 0.127547,-0.08928 l 0.127535,-0.752511 -0.216817,-0.03826 z"
   id="path44-2"
   style="color:#d1d5e9;fill:#e5e9ef;fill-opacity:1;stroke-width:0.127548"
   class="ColorScheme-Text" /><path
   d="m 10.354168,13.109362 c -0.02549,0.05101 -0.01274,0.127543 0.03822,0.153052 0.05097,0.02551 0.127542,0.01275 0.153047,-0.03826 l 0.714249,-1.224422 -0.191315,-0.114791 z"
   id="path46-0"
   style="color:#d1d5e9;fill:#e5e9ef;fill-opacity:1;stroke-width:0.127548"
   class="ColorScheme-Text" /><path
   d="m 13.683078,7.573951 c 0.02549,-0.05097 0.01274,-0.127546 -0.03822,-0.153063 -0.05097,-0.02548 -0.127546,-0.01274 -0.15305,0.03822 l -0.714249,1.224425 0.191312,0.114785 z"
   id="path48-2"
   style="color:#d1d5e9;fill:#e5e9ef;fill-opacity:1;stroke-width:0.127548"
   class="ColorScheme-Text" /><path
   d="m 12.675481,7.854541 c 0.01274,-0.06372 -0.02549,-0.114781 -0.08928,-0.127542 -0.06372,-0.01274 -0.114799,0.02548 -0.127547,0.08928 l -0.127551,0.752511 0.216833,0.03822 z"
   id="path50-3"
   style="color:#d1d5e9;fill:#e5e9ef;fill-opacity:1;stroke-width:0.127548"
   class="ColorScheme-Text" /><path
   d="m 12.054275,4 c 3.511204,0 6.304394,2.832906 6.304394,6.304275 0,2.553567 -1.5162,4.82799 -3.870349,5.825417 v 1.436369 C 14.48832,18.882802 13.410953,20 12.05434,20 10.697715,20 9.620349,18.882802 9.620349,17.566061 V 16.129692 C 7.26617,15.132152 5.75,12.857699 5.75,10.304275 5.75,6.832856 8.582958,4 12.054397,4 Z m -1.635973,13 h 3.272059 v -1.149678 c 0,-0.159597 0.119753,-0.419379 0.27936,-0.459322 C 16.12432,14.593001 17.461,12.618283 17.461,10.304 17.461,7.271715 15.087102,4.898 12.054549,4.898 9.022209,4.898 6.648,7.271542 6.648,10.304045 c 0,2.314169 1.336562,4.288956 3.49136,5.086955 0.159605,0.03995 0.27936,0.299733 0.27936,0.459322 V 17 Z M 12,18 Z"
   id="path396-7"
   style="stroke-width:0.0285715;fill-opacity:1;fill:currentColor;"
   sodipodi:nodetypes="cscssscsccccscssscscccccc"
   class="ColorScheme-Text" /></style>
<ellipse
   cx="12.024993"
   cy="10.341655"
   id="circle2-36-3"
   style="color:#d1d5e9;fill:#e5e9ef;fill-opacity:1;stroke-width:0.127548"
   class="ColorScheme-Text"
   rx="1.5687985"
   ry="1.5687916" /><path
   d="m 11.46656,8.63256 0.204069,-0.0765 -0.255091,-0.714248 c -0.02549,-0.06371 -0.08928,-0.08928 -0.140299,-0.06371 -0.05097,0.02548 -0.08928,0.08928 -0.06372,0.140297 z"
   id="path4-7-6"
   style="color:#d1d5e9;fill:#e5e9ef;fill-opacity:1;stroke-width:0.127548"
   class="ColorScheme-Text" /><path
   d="M 12.12752,7.114798 C 12.12752,7.051048 12.07655,7 12.012723,7 11.948983,7 11.910688,7.05097 11.910688,7.114798 v 1.415727 h 0.229581 V 7.114798 Z"
   id="path6-5-7"
   style="color:#d1d5e9;fill:#e5e9ef;fill-opacity:1;stroke-width:0.127548"
   class="ColorScheme-Text" /><path
   d="m 11.910688,13.56852 c 0,0.06377 0.05097,0.114789 0.114787,0.114789 0.06373,0 0.114794,-0.05101 0.114794,-0.114789 v -1.415739 h -0.229581 z"
   id="path8-3-5"
   style="color:#d1d5e9;fill:#e5e9ef;fill-opacity:1;stroke-width:0.127548"
   class="ColorScheme-Text" /><path
   d="m 12.649964,12.025238 -0.204063,0.07653 0.267846,0.714245 c 0.02549,0.06377 0.08928,0.08928 0.140294,0.06377 0.06376,-0.02552 0.08928,-0.08928 0.06376,-0.1403 z"
   id="path10-5-3"
   style="color:#d1d5e9;fill:#e5e9ef;fill-opacity:1;stroke-width:0.127548"
   class="ColorScheme-Text" /><path
   d="m 10.622013,9.181006 0.140294,-0.16581 -0.573949,-0.497417 c -0.05097,-0.03822 -0.114787,-0.03822 -0.153049,0.01274 -0.03822,0.05097 -0.03822,0.114796 0.01274,0.153062 z"
   id="path12-6-5"
   style="color:#d1d5e9;fill:#e5e9ef;fill-opacity:1;stroke-width:0.127548"
   class="ColorScheme-Text" /><path
   d="M 10.979139,8.862151 11.170449,8.747352 10.456199,7.51017 C 10.430709,7.4592 10.354168,7.43366 10.303151,7.47195 c -0.05097,0.02548 -0.07652,0.102042 -0.03822,0.153058 z"
   id="path14-3-29-6"
   style="color:#d1d5e9;fill:#e5e9ef;fill-opacity:1;stroke-width:0.127548"
   class="ColorScheme-Text" /><path
   d="m 13.070872,11.821166 -0.191327,0.114791 0.714252,1.224422 c 0.02549,0.05101 0.102043,0.07653 0.153058,0.03826 0.05097,-0.02552 0.07651,-0.102036 0.03822,-0.153053 z"
   id="path16-1-2"
   style="color:#d1d5e9;fill:#e5e9ef;fill-opacity:1;stroke-width:0.127548"
   class="ColorScheme-Text" /><path
   d="m 13.402482,11.489551 -0.140293,0.165808 0.586699,0.497422 c 0.05097,0.03827 0.114792,0.03827 0.153047,-0.01275 0.03822,-0.05101 0.03822,-0.114789 -0.01274,-0.153053 z"
   id="path18-2-9"
   style="color:#d1d5e9;fill:#e5e9ef;fill-opacity:1;stroke-width:0.127548"
   class="ColorScheme-Text" /><path
   d="m 9.51237,9.678429 c -0.06372,-0.01274 -0.114781,0.02549 -0.127546,0.08928 -0.01274,0.06375 0.02549,0.114781 0.08928,0.127546 l 0.752511,0.127545 0.03822,-0.216827 z"
   id="path20-7-1"
   style="color:#d1d5e9;fill:#e5e9ef;fill-opacity:1;stroke-width:0.127548"
   class="ColorScheme-Text" /><path
   d="M 9.142497,8.874904 10.366919,9.589149 10.481715,9.397837 9.25728,8.683588 c -0.05097,-0.02548 -0.127537,-0.01274 -0.153053,0.03822 -0.03822,0.05097 -0.01274,0.114784 0.03822,0.153051 z"
   id="path22-0-2"
   style="color:#d1d5e9;fill:#e5e9ef;fill-opacity:1;stroke-width:0.127548"
   class="ColorScheme-Text" /><path
   d="m 14.907514,11.808412 -1.224436,-0.714252 -0.114787,0.191322 1.224425,0.714246 c 0.05097,0.02551 0.127551,0.01275 0.153046,-0.03826 0.02549,-0.05101 0.01274,-0.127545 -0.03823,-0.153053 z"
   id="path24-9-7"
   style="color:#d1d5e9;fill:#e5e9ef;fill-opacity:1;stroke-width:0.127548"
   class="ColorScheme-Text" /><path
   d="m 14.512121,10.992129 c 0.06372,0.01275 0.114785,-0.02551 0.127549,-0.08928 0.01274,-0.06375 -0.02549,-0.114785 -0.08928,-0.127547 l -0.752516,-0.127542 -0.03822,0.216823 z"
   id="path26-3-0"
   style="color:#d1d5e9;fill:#e5e9ef;fill-opacity:1;stroke-width:0.127548"
   class="ColorScheme-Text" /><path
   d="m 9.448601,11.157939 c 0.02549,0.06375 0.08928,0.08928 0.140303,0.06375 l 0.714247,-0.267843 -0.07652,-0.204066 -0.714247,0.267844 c -0.05097,0.02552 -0.07651,0.08928 -0.06372,0.140296 z"
   id="path28-60-9"
   style="color:#d1d5e9;fill:#e5e9ef;fill-opacity:1;stroke-width:0.127548"
   class="ColorScheme-Text" /><path
   d="M 10.213869,10.27788 H 8.79812 c -0.06375,0 -0.114783,0.05099 -0.114783,0.114794 0,0.06374 0.05097,0.114785 0.114783,0.114785 h 1.415749 z"
   id="path30-6-3"
   style="color:#d1d5e9;fill:#e5e9ef;fill-opacity:1;stroke-width:0.127548"
   class="ColorScheme-Text" /><path
   d="m 15.251875,10.175849 h -1.415738 v 0.229577 h 1.415738 c 0.06373,0 0.114794,-0.05099 0.114794,-0.114786 0,-0.06376 -0.05097,-0.114791 -0.114794,-0.114791 z"
   id="path32-2-6"
   style="color:#d1d5e9;fill:#e5e9ef;fill-opacity:1;stroke-width:0.127548"
   class="ColorScheme-Text" /><path
   d="m 14.575889,9.525366 c -0.02549,-0.06372 -0.08928,-0.08928 -0.140299,-0.06372 l -0.714252,0.267842 0.07651,0.204066 0.714248,-0.267842 c 0.05097,-0.02549 0.07651,-0.08928 0.06372,-0.140299 z"
   id="path34-6-0"
   style="color:#d1d5e9;fill:#e5e9ef;fill-opacity:1;stroke-width:0.127548"
   class="ColorScheme-Text" /><path
   d="m 10.851588,11.731885 -0.165811,-0.140297 -0.497419,0.586703 c -0.03822,0.05102 -0.03822,0.114789 0.01274,0.153051 0.05097,0.03827 0.114781,0.03827 0.153047,-0.01275 z"
   id="path36-1-6"
   style="color:#d1d5e9;fill:#e5e9ef;fill-opacity:1;stroke-width:0.127548"
   class="ColorScheme-Text" /><path
   d="m 10.430697,11.196202 -1.224435,0.714246 c -0.05097,0.02551 -0.0765,0.102035 -0.03822,0.153052 0.03822,0.05102 0.102043,0.07653 0.153061,0.03826 l 1.224418,-0.714246 z"
   id="path38-8-2"
   style="color:#d1d5e9;fill:#e5e9ef;fill-opacity:1;stroke-width:0.127548"
   class="ColorScheme-Text" /><path
   d="m 13.619309,9.487117 1.224422,-0.714248 c 0.05097,-0.02549 0.07652,-0.102045 0.03823,-0.153062 -0.03823,-0.05097 -0.102029,-0.07651 -0.153046,-0.03822 L 13.50448,9.29583 Z"
   id="path40-7-6"
   style="color:#d1d5e9;fill:#e5e9ef;fill-opacity:1;stroke-width:0.127548"
   class="ColorScheme-Text" /><path
   d="m 13.172906,8.951432 0.165811,0.140293 0.49742,-0.586699 c 0.03822,-0.05097 0.03822,-0.114798 -0.01274,-0.153062 -0.05097,-0.03823 -0.114782,-0.03823 -0.153047,0.01274 z"
   id="path42-9-1"
   style="color:#d1d5e9;fill:#e5e9ef;fill-opacity:1;stroke-width:0.127548"
   class="ColorScheme-Text" /><path
   d="m 11.279798,12.841519 c -0.01274,0.06377 0.02549,0.114791 0.08928,0.127545 0.06374,0.01275 0.114782,-0.02552 0.127547,-0.08928 l 0.127535,-0.752511 -0.216817,-0.03826 z"
   id="path44-2-8"
   style="color:#d1d5e9;fill:#e5e9ef;fill-opacity:1;stroke-width:0.127548"
   class="ColorScheme-Text" /><path
   d="m 10.354168,13.109362 c -0.02549,0.05101 -0.01274,0.127543 0.03822,0.153052 0.05097,0.02551 0.127542,0.01275 0.153047,-0.03826 l 0.714249,-1.224422 -0.191315,-0.114791 z"
   id="path46-0-7"
   style="color:#d1d5e9;fill:#e5e9ef;fill-opacity:1;stroke-width:0.127548"
   class="ColorScheme-Text" /><path
   d="m 13.683078,7.573951 c 0.02549,-0.05097 0.01274,-0.127546 -0.03822,-0.153063 -0.05097,-0.02548 -0.127546,-0.01274 -0.15305,0.03822 l -0.714249,1.224425 0.191312,0.114785 z"
   id="path48-2-9"
   style="color:#d1d5e9;fill:#e5e9ef;fill-opacity:1;stroke-width:0.127548"
   class="ColorScheme-Text" /><path
   d="m 12.675481,7.854541 c 0.01274,-0.06372 -0.02549,-0.114781 -0.08928,-0.127542 -0.06372,-0.01274 -0.114799,0.02548 -0.127547,0.08928 l -0.127551,0.752511 0.216833,0.03822 z"
   id="path50-3-2"
   style="color:#d1d5e9;fill:#e5e9ef;fill-opacity:1;stroke-width:0.127548"
   class="ColorScheme-Text" /><path
   d="m 12.054275,4 c 3.511204,0 6.304394,2.832906 6.304394,6.304275 0,2.553567 -1.5162,4.82799 -3.870349,5.825417 v 1.436369 C 14.48832,18.882802 13.410953,20 12.05434,20 10.697715,20 9.620349,18.882802 9.620349,17.566061 V 16.129692 C 7.26617,15.132152 5.75,12.857699 5.75,10.304275 5.75,6.832856 8.582958,4 12.054397,4 Z m -1.635973,13 h 3.272059 v -1.149678 c 0,-0.159597 0.119753,-0.419379 0.27936,-0.459322 C 16.12432,14.593001 17.461,12.618283 17.461,10.304 17.461,7.271715 15.087102,4.898 12.054549,4.898 9.022209,4.898 6.648,7.271542 6.648,10.304045 c 0,2.314169 1.336562,4.288956 3.49136,5.086955 0.159605,0.03995 0.27936,0.299733 0.27936,0.459322 V 17 Z M 12,18 Z"
   id="path396-7-0"
   style="fill:#e5e9ef;fill-opacity:1;stroke-width:0.0285715"
   sodipodi:nodetypes="cscssscsccccscssscscccccc" /></svg>
