<?xml version="1.0" encoding="UTF-8" standalone="no"?>
<svg
   width="22"
   height="22"
   version="1.1"
   id="svg1"
   sodipodi:docname="preferences-desktop-display-randr-symbolic.svg"
   inkscape:version="1.3.2 (091e20ef0f, 2023-11-25)"
   xmlns:inkscape="http://www.inkscape.org/namespaces/inkscape"
   xmlns:sodipodi="http://sodipodi.sourceforge.net/DTD/sodipodi-0.dtd"
   xmlns:xlink="http://www.w3.org/1999/xlink"
   xmlns="http://www.w3.org/2000/svg"
   xmlns:svg="http://www.w3.org/2000/svg">
  <defs
     id="defs1">
    <linearGradient
       inkscape:collect="always"
       xlink:href="#linearGradient1"
       id="linearGradient5"
       x1="2"
       y1="11.000142"
       x2="20"
       y2="11.000142"
       gradientUnits="userSpaceOnUse" />
    <linearGradient
       id="linearGradient1"
       inkscape:collect="always">
      <stop
         style="stop-color:#8660cb;stop-opacity:1"
         offset="0"
         id="stop1" />
      <stop
         style="stop-color:#e77681;stop-opacity:1"
         offset="1"
         id="stop2" />
    </linearGradient>
    <linearGradient
       inkscape:collect="always"
       xlink:href="#linearGradient1"
       id="linearGradient8"
       x1="3.9285712"
       y1="10.000124"
       x2="8.498642"
       y2="10.000124"
       gradientUnits="userSpaceOnUse" />
    <linearGradient
       inkscape:collect="always"
       xlink:href="#linearGradient1"
       id="linearGradient10"
       x1="13.571426"
       y1="7.3334103"
       x2="18.141499"
       y2="7.3334103"
       gradientUnits="userSpaceOnUse" />
  </defs>
  <sodipodi:namedview
     id="namedview1"
     pagecolor="#ffffff"
     bordercolor="#000000"
     borderopacity="0.25"
     inkscape:showpageshadow="2"
     inkscape:pageopacity="0.0"
     inkscape:pagecheckerboard="0"
     inkscape:deskcolor="#d1d1d1"
     inkscape:zoom="12.326157"
     inkscape:cx="13.061654"
     inkscape:cy="2.2310279"
     inkscape:window-width="1920"
     inkscape:window-height="994"
     inkscape:window-x="0"
     inkscape:window-y="0"
     inkscape:window-maximized="1"
     inkscape:current-layer="svg1" />
  <style
     type="text/css"
     id="current-color-scheme">.ColorScheme-Text {
            color:#232629;
        }
        .ColorScheme-Background {
            color:#eff0f1;
        }
        .ColorScheme-ViewBackground {
            color:#fcfcfc;
        }
        .ColorScheme-ButtonFocus {
            color:#3daee9;
        }
        .ColorScheme-PositiveText {
            color:#27ae60;
        }
        .ColorScheme-NeutralText {
            color:#f67400;
        }
        .ColorScheme-NegativeText {
            color:#da4453;
        }</style>
  <g
     id="22-22-preferences-desktop-display-randr"
     transform="translate(-0.45856253,-24.167497)">
    <rect
       id="rect3832"
       x="1"
       y="1"
       width="22"
       height="22"
       fill-opacity="0" />
    <path
       id="rect7235"
       class="ColorScheme-Text"
       d="m 7,19 h 10 v 1 H 7 Z m 3,-2 h 4 v 2 H 10 Z M 4,4 V 17 H 20 V 4 Z m 1,1 h 14 v 9 H 5 Z"
       fill="currentColor" />
    <path
       id="rect3018"
       class="ColorScheme-Text"
       d="m 6,9 4,4 H 6 Z"
       fill="currentColor" />
    <path
       id="path3028"
       class="ColorScheme-Text"
       d="M 18,10 14,6 h 4 z"
       fill="currentColor" />
  </g>
  <g
     id="22-22-preferences-desktop-display-randr-1">
    <rect
       id="rect3832-2"
       x="0"
       y="0"
       width="22"
       height="22"
       fill-opacity="0" />
    <path
       d="M 18.938038,3 H 3.0619629 C 2.4764682,3 2,3.4147327 2,4.0066846 V 15.768895 c 0,0.631234 0.3144613,1.231354 1.0619629,1.231354 h 5.8433416 c -0.1823293,0.597112 -0.6112433,1.342885 -1.4757976,1.342885 v 0.65715 h 7.1409871 v -0.65715 c -0.864555,0 -1.293469,-0.745773 -1.475798,-1.342885 h 5.779017 C 19.782127,17.000249 20,16.400129 20,15.768895 V 4.0734405 C 19.999999,3.4814886 19.523532,3 18.938038,3 Z M 19,15.502 C 19,15.60613 18.793341,16 18.374,16 H 3.562 C 3.1428946,16 3,15.606131 3,15.502 V 15 H 19 Z M 19,14 H 3 V 4.64 C 3,4.0333225 3.4227747,4 3.526,4 H 18.374 C 18.476997,4 19,3.9666546 19,4.64 Z"
       id="path2-3-3"
       style="fill:url(#linearGradient5);fill-opacity:1;stroke-width:0.233246"
       sodipodi:nodetypes="sssssccccccsssssscsccscccsssc" />
    <path
       sodipodi:nodetypes="cccc"
       inkscape:connector-curvature="0"
       id="path11753-6"
       style="color:#bebebe;fill:url(#linearGradient8);fill-opacity:1;stroke-width:0.543956"
       d="M 3.9285712,7.6667497 V 12.333499 H 8.4986419 Z" />
    <path
       sodipodi:nodetypes="cccc"
       inkscape:connector-curvature="0"
       id="path11753-3-7"
       style="color:#bebebe;fill:url(#linearGradient10);fill-opacity:1;stroke-width:0.543956"
       d="M 18.141498,9.6667854 V 5.0000356 h -4.570072 z" />
  </g>
</svg>
