<?xml version="1.0" encoding="UTF-8" standalone="no"?>
<svg
   width="32"
   height="32"
   version="1.1"
   id="svg12"
   sodipodi:docname="applications.svg"
   inkscape:version="1.3.1 (91b66b0783, 2023-11-16)"
   xmlns:inkscape="http://www.inkscape.org/namespaces/inkscape"
   xmlns:sodipodi="http://sodipodi.sourceforge.net/DTD/sodipodi-0.dtd"
   xmlns="http://www.w3.org/2000/svg"
   xmlns:svg="http://www.w3.org/2000/svg"
   xmlns:rdf="http://www.w3.org/1999/02/22-rdf-syntax-ns#"
   xmlns:cc="http://creativecommons.org/ns#"
   xmlns:dc="http://purl.org/dc/elements/1.1/">
  <metadata
     id="metadata18">
    <rdf:RDF>
      <cc:Work
         rdf:about="">
        <dc:format>image/svg+xml</dc:format>
        <dc:type
           rdf:resource="http://purl.org/dc/dcmitype/StillImage" />
      </cc:Work>
    </rdf:RDF>
  </metadata>
  <defs
     id="defs16" />
  <sodipodi:namedview
     pagecolor="#02334b"
     bordercolor="#000000"
     borderopacity="1"
     objecttolerance="10"
     gridtolerance="10"
     guidetolerance="10"
     inkscape:pageopacity="0"
     inkscape:pageshadow="2"
     inkscape:window-width="1920"
     inkscape:window-height="994"
     id="namedview14"
     showgrid="true"
     inkscape:zoom="6.9384855"
     inkscape:cx="7.6385546"
     inkscape:cy="13.475563"
     inkscape:window-x="0"
     inkscape:window-y="0"
     inkscape:window-maximized="1"
     inkscape:current-layer="svg12"
     inkscape:document-rotation="0"
     showguides="false"
     inkscape:lockguides="false"
     inkscape:showpageshadow="2"
     inkscape:pagecheckerboard="true"
     inkscape:deskcolor="#02334b">
    <inkscape:grid
       type="xygrid"
       id="grid942"
       originx="0"
       originy="-3e-07"
       spacingy="1"
       spacingx="1"
       units="px"
       visible="true" />
  </sodipodi:namedview>
  <g
     id="applications-other">
    <path
       style="clip-rule:evenodd;fill:#ffffc1;fill-opacity:0;fill-rule:evenodd;stroke-width:1.00213;stroke-linejoin:round;stroke-miterlimit:1.41421"
       d="M 0,0 V 32 H 32 V 0 Z"
       id="rect817"
       inkscape:connector-curvature="0" />
    <path
       d="m 12.742642,10.00006 h -0.34326 C 11.074252,10.00006 10,11.074482 10,12.399874 v 0.343308 c 0,0.636596 0.252938,1.24713 0.703067,1.697127 0.450177,0.450094 1.060632,0.702821 1.697122,0.702559 h 2.742591 v -2.743013 c 0,-0.636595 -0.25282,-1.247134 -0.702971,-1.697301 -0.449972,-0.449785 -1.060192,-0.702512 -1.69637,-0.702512 H 12.7426"
       stroke-width="0.428579"
       id="path2618-3-2"
       style="fill:#b44bcd;fill-opacity:1" />
    <path
       d="m 12.399782,16.857159 c -0.636562,0 -1.247233,0.252931 -1.697224,0.703111 -0.450033,0.45013 -0.702725,1.060619 -0.702548,1.697131 v 0.343252 c 0,0.636293 0.252859,1.246618 0.702852,1.696614 C 11.1529,21.747178 11.763319,22 12.399731,22 h 0.343619 c 0.636595,0 1.247053,-0.253051 1.697049,-0.703254 0.449993,-0.45003 0.702593,-1.060529 0.702462,-1.697046 v -2.742581 z"
       stroke-width="0.428579"
       id="path2620-6-0"
       style="fill:#b44bcd;fill-opacity:1"
       sodipodi:nodetypes="cccscsscccc" />
    <path
       d="m 19.599721,16.857159 h -2.742496 v 2.743439 c 0,0.636502 0.252892,1.246793 0.703075,1.696789 0.450149,0.449988 1.060615,0.702715 1.697131,0.702501 h 0.343233 c 0.636299,0 1.246634,-0.252809 1.696631,-0.702715 0.449906,-0.449987 0.702764,-1.060276 0.702764,-1.696625 v -0.34323 c 0,-0.636716 -0.252591,-1.247225 -0.702764,-1.697485 -0.449986,-0.449901 -1.060376,-0.702666 -1.696631,-0.702714 h -8.39e-4"
       stroke-width="0.428579"
       id="path2622-7-6"
       style="fill:#b44bcd;fill-opacity:1" />
    <path
       d="m 19.256867,10.00006 h -5.99e-4 c -0.636466,0 -1.246867,0.253004 -1.696944,0.703151 -0.44997,0.450169 -0.702722,1.060618 -0.702435,1.697047 v 2.742584 h 2.743021 c 0.636595,0 1.247049,-0.252889 1.697126,-0.703067 0.450127,-0.450175 0.702801,-1.060628 0.702644,-1.697224 V 12.399298 C 21.99968,11.07417 20.925242,10 19.599859,10 h -0.343298 z"
       stroke-width="0.428579"
       id="path2624-5-8"
       style="fill:#b44bcd;fill-opacity:1"
       sodipodi:nodetypes="cscccsccsscc" />
    <path
       d="m 7.5085836,7.5254475 c -4.716385,4.7193815 -4.677798,12.4225535 0.115759,17.0930905 4.4649734,4.350407 11.6601294,4.52822 16.3200594,0.387626 4.083077,-3.628021 5.166692,-9.408252 2.869588,-14.181245 -0.275697,-0.572846 -0.997441,-0.769523 -1.540581,-0.439586 -0.486977,0.295855 -0.651575,0.910669 -0.406768,1.425426 1.892679,3.979621 0.921547,8.803616 -2.584012,11.747197 C 18.7269,26.543691 13.451318,26.59392 9.8423556,23.672829 5.2395736,19.947334 4.9758336,13.146865 9.0511616,9.0689695 12.021171,6.0970645 16.481085,5.3636475 20.201013,7.1385675 c 0.51137,0.243975 1.122468,0.07613 1.416486,-0.408462 l 0.002,-0.0032 c 0.328743,-0.541829 0.135279,-1.262562 -0.435316,-1.537847 -4.556606,-2.198173 -10.032948,-1.308474 -13.6755704,2.336442 z"
       id="path1-0"
       style="fill:#b44bcd;fill-opacity:1;stroke-width:0.436438" />
  </g>
  <g
     id="22-22-applications-other">
    <path
       style="clip-rule:evenodd;fill:#ffffc1;fill-opacity:0;fill-rule:evenodd;stroke-width:0.688964;stroke-linejoin:round;stroke-miterlimit:1.41421"
       d="M 32,9.9999997 V 32 H 54 V 9.9999997 Z"
       id="rect817-5"
       inkscape:connector-curvature="0" />
    <path
       d="M 40.28553,16.00005 H 39.999485 C 38.89521,16.00005 38,16.895402 38,17.999895 v 0.28609 c 0,0.530497 0.210782,1.03928 0.585887,1.414277 0.375145,0.375069 0.883858,0.585675 1.414276,0.585461 h 2.285488 V 17.99988 c 0,-0.530497 -0.210679,-1.039279 -0.585816,-1.414419 -0.374966,-0.374819 -0.883492,-0.585426 -1.413636,-0.585426 h -7.15e-4"
       stroke-width="0.357149"
       id="path2618-3"
       style="fill:#b44bcd;fill-opacity:1" />
    <path
       d="m 39.999818,21.714299 c -0.530468,0 -1.039355,0.210775 -1.414353,0.585927 -0.375028,0.375104 -0.585604,0.883848 -0.585457,1.414275 v 0.286045 c 0,0.53024 0.210716,1.038845 0.585713,1.413841 C 38.96075,25.789318 39.469427,26 39.999776,26 h 0.286349 c 0.530495,0 1.039206,-0.210874 1.414202,-0.586043 0.374998,-0.375028 0.585499,-0.88378 0.585391,-1.414206 v -2.285482 z"
       stroke-width="0.357149"
       id="path2620-6"
       style="fill:#b44bcd;fill-opacity:1"
       sodipodi:nodetypes="cccscsscccc" />
    <path
       d="m 45.999772,21.714299 h -2.285416 v 2.286199 c 0,0.530422 0.210741,1.038993 0.585894,1.413989 0.375124,0.374989 0.883845,0.585595 1.414276,0.585421 h 0.286029 c 0.530248,0 1.038863,-0.210676 1.41386,-0.585595 0.374919,-0.374988 0.585635,-0.883563 0.585635,-1.413854 v -0.286028 c 0,-0.530596 -0.210491,-1.039357 -0.585635,-1.414567 -0.374989,-0.374919 -0.883645,-0.585557 -1.41386,-0.585595 h -7.05e-4"
       stroke-width="0.357149"
       id="path2622-7"
       style="fill:#b44bcd;fill-opacity:1" />
    <path
       d="m 45.714058,16.00005 h -4.99e-4 c -0.530387,0 -1.039058,0.210835 -1.414122,0.585961 -0.374972,0.37514 -0.585605,0.883851 -0.585363,1.414204 v 2.285487 h 2.285852 c 0.530498,0 1.039206,-0.210737 1.41427,-0.58589 0.375107,-0.37514 0.585672,-0.883851 0.585537,-1.414348 V 17.999415 C 47.999733,16.895136 47.104373,16 45.999879,16 h -0.286078 z"
       stroke-width="0.357149"
       id="path2624-5"
       style="fill:#b44bcd;fill-opacity:1"
       sodipodi:nodetypes="cscccsccsscc" />
    <path
       d="m 35.923845,13.937739 c -3.930355,3.932851 -3.898199,10.352221 0.09647,14.244373 3.720844,3.625366 9.716857,3.773546 13.60017,0.323017 3.402594,-3.023373 4.305616,-7.840274 2.391345,-11.817799 -0.229752,-0.47738 -0.83121,-0.641281 -1.283834,-0.366329 -0.405819,0.246544 -0.542981,0.758899 -0.338972,1.18787 1.577247,3.316375 0.767955,7.336406 -2.153361,9.789412 -2.963139,2.488133 -7.359493,2.529989 -10.366988,0.09573 -3.835685,-3.104608 -4.05547,-8.771716 -0.659334,-12.169988 2.475029,-2.476614 6.191655,-3.087802 9.291627,-1.608689 0.426143,0.203318 0.935398,0.06342 1.180407,-0.340386 l 0.002,-0.0025 c 0.273898,-0.451532 0.112676,-1.052145 -0.362821,-1.281556 -3.79724,-1.831825 -8.360901,-1.090402 -11.396446,1.947058 z"
       id="path1-0-4"
       style="fill:#b44bcd;fill-opacity:1;stroke-width:0.3637" />
  </g>
</svg>
