<?xml version="1.0" encoding="UTF-8" standalone="no"?>
<!-- Created with Inkscape (http://www.inkscape.org/) -->

<svg
   width="32"
   height="32"
   viewBox="0 0 32 32"
   version="1.1"
   id="svg12"
   sodipodi:docname="battery.svg"
   inkscape:version="1.3.1 (91b66b0783, 2023-11-16)"
   xmlns:inkscape="http://www.inkscape.org/namespaces/inkscape"
   xmlns:sodipodi="http://sodipodi.sourceforge.net/DTD/sodipodi-0.dtd"
   xmlns="http://www.w3.org/2000/svg"
   xmlns:svg="http://www.w3.org/2000/svg">
  <sodipodi:namedview
     id="namedview1926"
     pagecolor="#02334b"
     bordercolor="#000000"
     borderopacity="1"
     inkscape:showpageshadow="true"
     inkscape:pageopacity="0"
     inkscape:pagecheckerboard="true"
     inkscape:deskcolor="#02334b"
     inkscape:document-units="px"
     showgrid="true"
     inkscape:zoom="2.0101652"
     inkscape:cx="185.05942"
     inkscape:cy="1.7411504"
     inkscape:window-width="1920"
     inkscape:window-height="994"
     inkscape:window-x="0"
     inkscape:window-y="0"
     inkscape:window-maximized="1"
     inkscape:current-layer="layer1"
     showguides="false">
    <sodipodi:guide
       position="95.999969,130"
       orientation="0,22"
       id="guide3958"
       inkscape:locked="false" />
    <sodipodi:guide
       position="117.99997,130"
       orientation="22,0"
       id="guide3960"
       inkscape:locked="false" />
    <sodipodi:guide
       position="117.99997,108"
       orientation="0,-22"
       id="guide3962"
       inkscape:locked="false" />
    <sodipodi:guide
       position="95.999969,108"
       orientation="-22,0"
       id="guide3964"
       inkscape:locked="false" />
    <inkscape:grid
       id="grid1"
       units="px"
       originx="-3.5156248e-08"
       originy="0"
       spacingx="1"
       spacingy="1"
       empcolor="#0099e5"
       empopacity="0.30196078"
       color="#0099e5"
       opacity="0.14901961"
       empspacing="5"
       dotted="false"
       gridanglex="30"
       gridanglez="30"
       visible="true" />
  </sodipodi:namedview>
  <defs
     id="defs1921" />
  <g
     inkscape:label="Layer 1"
     inkscape:groupmode="layer"
     id="layer1"
     transform="translate(-38.000061,-60)">
    <g
       id="Fill10">
      <rect
         style="opacity:0.00100002;stroke-width:0.999999"
         width="32"
         height="32"
         x="375"
         y="2"
         id="rect1138-32" />
      <path
         d="m 384.71437,30.000001 h 12.57138 c 0.94512,0 1.71431,-0.734175 1.71431,-1.636392 V 9.818211 C 399.00006,8.91605 398.23093,8 397.28575,8 H 395 l 5e-5,-0.909091 C 394.99999,6.488214 394.48859,6 393.85719,6 h -5.71426 c -0.6314,0 -1.14285,0.488214 -1.14285,1.090909 L 387.00002,8 h -2.28565 c -0.94518,0 -1.71431,0.915993 -1.71431,1.818211 v 18.545455 c 0,0.90216 0.76913,1.636335 1.71431,1.636335 z M 384,9.718 C 384,9.416938 384.3999,8.974985 384.71431,9 h 3.42856 5.71426 3.42856 C 397.60109,9 398,9.416938 398,9.718 V 28.364 C 398,28.665063 397.60109,29 397.28569,29 H 384.71437 C 384.39897,29 384,28.665062 384,28.364 Z"
         id="path412-06-3"
         style="fill:#da4453;fill-opacity:1;stroke-width:0.0583849"
         sodipodi:nodetypes="sssssccssscsssscsccssssssc" />
      <rect
         id="rect24700-0-6"
         width="11.999999"
         height="1"
         x="385.00006"
         y="27"
         style="color:#333333;opacity:1;fill:#da4453;fill-opacity:1;stroke-width:0.327327"
         ry="0.5"
         rx="0.50000101" />
    </g>
    <g
       id="Fill20"
       style="fill:#bac8df;fill-opacity:1">
      <rect
         style="opacity:0.00100002;fill:#bac8df;fill-opacity:1;stroke-width:0.999999"
         width="32"
         height="32"
         x="338"
         y="2"
         id="rect1138-3" />
      <path
         d="m 347.71437,30.000001 h 12.57138 c 0.94512,0 1.71431,-0.734175 1.71431,-1.636392 V 9.818211 C 362.00006,8.91605 361.23093,8 360.28575,8 H 358 l 5e-5,-0.909091 C 357.99999,6.488214 357.48859,6 356.85719,6 h -5.71426 c -0.6314,0 -1.14285,0.488214 -1.14285,1.090909 L 350.00002,8 h -2.28565 c -0.94518,0 -1.71431,0.915993 -1.71431,1.818211 v 18.545455 c 0,0.90216 0.76913,1.636335 1.71431,1.636335 z M 347,9.718 C 347,9.416938 347.3999,8.974985 347.71431,9 h 3.42856 5.71426 3.42856 C 360.60109,9 361,9.416938 361,9.718 V 28.464 C 361,28.765063 360.60109,29 360.28569,29 H 347.71437 C 347.39897,29 347,28.765062 347,28.464 Z"
         id="path412-50-0"
         style="fill:#bac8df;fill-opacity:1;stroke-width:0.0583849"
         sodipodi:nodetypes="sssssccssscsssscsccssssssc" />
      <rect
         id="rect24700-6-9"
         width="12"
         height="2"
         x="348.00006"
         y="26"
         style="color:#333333;opacity:0.45;fill:#bac8df;fill-opacity:1;stroke-width:0.46291"
         ry="1"
         rx="1.000061" />
    </g>
    <g
       id="Fill30"
       style="fill:#d3dae3;fill-opacity:1">
      <rect
         style="opacity:0.00100002;fill:#d3dae3;fill-opacity:1;stroke-width:0.999999"
         width="32"
         height="32"
         x="302"
         y="2"
         id="rect1138-4" />
      <path
         d="m 311.71437,30.000001 h 12.57138 c 0.94512,0 1.71431,-0.734175 1.71431,-1.636392 V 9.818211 C 326.00006,8.91605 325.23093,8 324.28575,8 H 322 l 5e-5,-0.909091 C 321.99999,6.488214 321.48859,6 320.85719,6 h -5.71426 c -0.6314,0 -1.14285,0.488214 -1.14285,1.090909 L 314.00002,8 h -2.28565 c -0.94518,0 -1.71431,0.915993 -1.71431,1.818211 v 18.545455 c 0,0.90216 0.76913,1.636335 1.71431,1.636335 z M 311,9.718 C 311,9.416938 311.3999,8.974985 311.71431,9 h 3.42856 5.71426 3.42856 C 324.60109,9 325,9.416938 325,9.718 V 28.464 C 325,28.765063 324.60109,29 324.28569,29 H 311.71437 C 311.39897,29 311,28.765062 311,28.464 Z"
         id="path412-9-2"
         style="fill:#d3dae3;fill-opacity:1;stroke-width:0.0583849"
         sodipodi:nodetypes="sssssccssscsssscsccssssssc" />
      <rect
         id="rect24700-78-7"
         width="12"
         height="4"
         x="312.00006"
         y="24"
         style="color:#333333;opacity:0.45;fill:#d3dae3;fill-opacity:1;stroke-width:0.654654"
         ry="1"
         rx="1.000061" />
    </g>
    <g
       id="Fill40"
       style="fill:#d3dae3;fill-opacity:1">
      <rect
         style="opacity:0.00100002;fill:#d3dae3;fill-opacity:1;stroke-width:0.999999"
         width="32"
         height="32"
         x="262"
         y="2"
         id="rect1138-61" />
      <path
         d="m 271.71437,30.000001 h 12.57138 c 0.94512,0 1.71431,-0.734175 1.71431,-1.636392 V 9.818211 C 286.00006,8.91605 285.23093,8 284.28575,8 H 282 l 5e-5,-0.909091 C 281.99999,6.488214 281.48859,6 280.85719,6 h -5.71426 c -0.6314,0 -1.14285,0.488214 -1.14285,1.090909 L 274.00002,8 h -2.28565 c -0.94518,0 -1.71431,0.915993 -1.71431,1.818211 v 18.545455 c 0,0.90216 0.76913,1.636335 1.71431,1.636335 z M 271,9.718 C 271,9.416938 271.3999,8.974985 271.71431,9 h 3.42856 5.71426 3.42856 C 284.60109,9 285,9.416938 285,9.718 V 28.464 C 285,28.765063 284.60109,29 284.28569,29 H 271.71437 C 271.39897,29 271,28.765062 271,28.464 Z"
         id="path412-3-9"
         style="fill:#d3dae3;fill-opacity:1;stroke-width:0.0583849"
         sodipodi:nodetypes="sssssccssscsssscsccssssssc" />
      <rect
         id="rect24700-29-1"
         width="12"
         height="6"
         x="272.00006"
         y="22"
         style="color:#333333;opacity:0.45;fill:#d3dae3;fill-opacity:1;stroke-width:0.801784"
         ry="1"
         rx="1.000061" />
    </g>
    <g
       id="Fill50"
       style="fill:#d3dae3;fill-opacity:1">
      <rect
         style="opacity:0.00100002;fill:#d3dae3;fill-opacity:1;stroke-width:0.999999"
         width="32"
         height="32"
         x="224"
         y="2"
         id="rect1138-92" />
      <path
         d="m 233.71431,30.000001 h 12.57138 c 0.94512,0 1.71431,-0.734175 1.71431,-1.636392 V 9.818211 C 248,8.91605 247.23087,8 246.28569,8 h -2.28575 l 5e-5,-0.909091 C 243.99993,6.488214 243.48853,6 242.85713,6 h -5.71426 c -0.6314,0 -1.14285,0.488214 -1.14285,1.090909 L 235.99996,8 h -2.28565 C 232.76913,8 232,8.915993 232,9.818211 v 18.545455 c 0,0.90216 0.76913,1.636335 1.71431,1.636335 z M 232.99994,9.718 c 0,-0.301062 0.3999,-0.743015 0.71431,-0.718 h 3.42856 5.71426 3.42856 c 0.3154,0 0.71431,0.416938 0.71431,0.718 v 18.746 c 0,0.301063 -0.39891,0.536 -0.71431,0.536 h -12.57132 c -0.3154,0 -0.71437,-0.234938 -0.71437,-0.536 z"
         id="path412-5-6"
         style="fill:#d3dae3;fill-opacity:1;stroke-width:0.0583849"
         sodipodi:nodetypes="sssssccssscsssscsccssssssc" />
      <rect
         id="rect24700-28-2"
         width="12"
         height="8"
         x="234"
         y="20"
         style="color:#333333;opacity:0.45;fill:#d3dae3;fill-opacity:1;stroke-width:0.92582"
         ry="1"
         rx="1" />
    </g>
    <g
       id="Fill60"
       style="fill:#d3dae3;fill-opacity:1">
      <rect
         style="opacity:0.00100002;fill:#d3dae3;fill-opacity:1;stroke-width:0.999999"
         width="32"
         height="32"
         x="183"
         y="2"
         id="rect1138-02" />
      <path
         d="m 192.71431,30.000001 h 12.57138 c 0.94512,0 1.71431,-0.734175 1.71431,-1.636392 V 9.818211 C 207,8.91605 206.23087,8 205.28569,8 h -2.28575 l 5e-5,-0.909091 C 202.99993,6.488214 202.48853,6 201.85713,6 h -5.71426 c -0.6314,0 -1.14285,0.488214 -1.14285,1.090909 L 194.99996,8 h -2.28565 C 191.76913,8 191,8.915993 191,9.818211 v 18.545455 c 0,0.90216 0.76913,1.636335 1.71431,1.636335 z M 191.99994,9.718 c 0,-0.301062 0.3999,-0.743015 0.71431,-0.718 h 3.42856 5.71426 3.42856 c 0.3154,0 0.71431,0.416938 0.71431,0.718 v 18.746 c 0,0.301063 -0.39891,0.536 -0.71431,0.536 h -12.57132 c -0.3154,0 -0.71437,-0.234938 -0.71437,-0.536 z"
         id="path412-2-3"
         style="fill:#d3dae3;fill-opacity:1;stroke-width:0.0583849"
         sodipodi:nodetypes="sssssccssscsssscsccssssssc" />
      <rect
         id="rect24700-3-5"
         width="12"
         height="10"
         x="193"
         y="18"
         style="color:#333333;opacity:0.45;fill:#d3dae3;fill-opacity:1;stroke-width:1.0351"
         ry="1"
         rx="1" />
    </g>
    <g
       id="Fill70"
       style="fill:#d3dae3;fill-opacity:1">
      <rect
         style="opacity:0.00100002;fill:#d3dae3;fill-opacity:1;stroke-width:0.999999"
         width="32"
         height="32"
         x="146"
         y="2"
         id="rect1138-8" />
      <path
         d="m 155.71437,30.000001 h 12.57138 c 0.94512,0 1.71431,-0.734175 1.71431,-1.636392 V 9.818211 C 170.00006,8.91605 169.23093,8 168.28575,8 H 166 l 5e-5,-0.909091 C 165.99999,6.488214 165.48859,6 164.85719,6 h -5.71426 c -0.6314,0 -1.14285,0.488214 -1.14285,1.090909 L 158.00002,8 h -2.28565 c -0.94518,0 -1.71431,0.915993 -1.71431,1.818211 v 18.545455 c 0,0.90216 0.76913,1.636335 1.71431,1.636335 z M 155,9.718 C 155,9.416938 155.3999,8.974985 155.71431,9 h 3.42856 5.71426 3.42856 C 168.60109,9 169,9.416938 169,9.718 V 28.464 C 169,28.765063 168.60109,29 168.28569,29 H 155.71437 C 155.39897,29 155,28.765062 155,28.464 Z"
         id="path412-1-7"
         style="fill:#d3dae3;fill-opacity:1;stroke-width:0.0583849"
         sodipodi:nodetypes="sssssccssscsssscsccssssssc" />
      <rect
         id="rect24700-7-5"
         width="12"
         height="12"
         x="156.00006"
         y="16"
         style="color:#333333;opacity:0.45;fill:#d3dae3;fill-opacity:1;stroke-width:1.13389"
         ry="1"
         rx="1.000061" />
    </g>
    <g
       id="Fill100"
       style="fill:#d3dae3;fill-opacity:1">
      <rect
         style="opacity:0.00100002;fill:#d3dae3;fill-opacity:1;stroke-width:0.999999"
         width="32"
         height="32"
         x="38"
         y="2"
         id="rect1138-7" />
      <path
         d="m 47.71437,30.000001 h 12.571383 c 0.945116,0 1.714307,-0.734175 1.714307,-1.636392 V 9.818211 C 62.00006,8.91605 61.230928,8 60.285753,8 h -2.285752 l 4.5e-5,-0.909091 C 57.999986,6.488214 57.488586,6 56.857193,6 H 51.142927 C 50.511533,6 50.000075,6.488214 50.000075,7.090909 L 50.000017,8 H 47.71437 c -0.945177,0 -1.714311,0.915993 -1.714311,1.818211 v 18.545455 c 0,0.90216 0.769134,1.636335 1.714311,1.636335 z M 47,9.718 C 47,9.416938 47.399903,8.974985 47.714309,9 h 3.428559 5.714264 3.428561 c 0.315396,0 0.714309,0.416938 0.714309,0.718 v 18.746 c 0,0.301063 -0.398913,0.536 -0.714309,0.536 H 47.71437 C 47.398972,29 47,28.765062 47,28.464 Z"
         id="path412-6-5"
         style="fill:#d3dae3;fill-opacity:1;stroke-width:0.0583849"
         sodipodi:nodetypes="sssssccssscsssscsccssssssc" />
      <rect
         id="rect24700-5-5"
         width="12"
         height="18"
         x="48.000061"
         y="10"
         style="color:#333333;opacity:0.45;fill:#d3dae3;fill-opacity:1;stroke-width:1.38873"
         ry="1"
         rx="1.000061" />
    </g>
    <g
       id="Fill80"
       style="fill:#d3dae3;fill-opacity:1">
      <rect
         style="opacity:0.00100002;fill:#d3dae3;fill-opacity:1;stroke-width:0.999999"
         width="32"
         height="32"
         x="109"
         y="2"
         id="rect1138-6" />
      <path
         d="m 118.71437,30.000001 h 12.57138 c 0.94512,0 1.71431,-0.734175 1.71431,-1.636392 V 9.818211 C 133.00006,8.91605 132.23093,8 131.28575,8 H 129 l 5e-5,-0.909091 C 128.99999,6.488214 128.48859,6 127.85719,6 h -5.71426 c -0.6314,0 -1.14285,0.488214 -1.14285,1.090909 L 121.00002,8 h -2.28565 c -0.94518,0 -1.71431,0.915993 -1.71431,1.818211 v 18.545455 c 0,0.90216 0.76913,1.636335 1.71431,1.636335 z M 118,9.718 C 118,9.416938 118.3999,8.974985 118.71431,9 h 3.42856 5.71426 3.42856 C 131.60109,9 132,9.416938 132,9.718 V 28.464 C 132,28.765063 131.60109,29 131.28569,29 H 118.71437 C 118.39897,29 118,28.765062 118,28.464 Z"
         id="path412-0-3"
         style="fill:#d3dae3;fill-opacity:1;stroke-width:0.0583849"
         sodipodi:nodetypes="sssssccssscsssscsccssssssc" />
      <rect
         id="rect24700-2-6"
         width="12"
         height="14"
         x="119"
         y="14"
         style="color:#333333;opacity:0.45;fill:#d3dae3;fill-opacity:1;stroke-width:1.22474"
         ry="1"
         rx="1" />
    </g>
    <g
       id="Fill0">
      <rect
         style="opacity:0.00100002;stroke-width:0.999999"
         width="32"
         height="32"
         x="411"
         y="2"
         id="rect1138-9" />
      <path
         d="m 420.71437,30.000001 h 12.57138 c 0.94512,0 1.71431,-0.734175 1.71431,-1.636392 V 9.818211 C 435.00006,8.91605 434.23093,8 433.28575,8 H 431 l 5e-5,-0.909091 C 430.99999,6.488214 430.48859,6 429.85719,6 h -5.71426 c -0.6314,0 -1.14285,0.488214 -1.14285,1.090909 L 423.00002,8 h -2.28565 c -0.94518,0 -1.71431,0.915993 -1.71431,1.818211 v 18.545455 c 0,0.90216 0.76913,1.636335 1.71431,1.636335 z M 420,9.718 C 420,9.416938 420.3999,8.974985 420.71431,9 h 3.42856 5.71426 3.42856 C 433.60109,9 434,9.416938 434,9.718 V 28.464 C 434,28.765063 433.60109,29 433.28569,29 H 420.71437 C 420.39897,29 420,28.765062 420,28.464 Z"
         id="path412-62-0"
         style="fill:#da4453;fill-opacity:1;stroke-width:0.0583849"
         sodipodi:nodetypes="sssssccssscsssscsccssssssc" />
    </g>
    <g
       id="battery-ups"
       style="fill:#00b2b2;fill-opacity:1">
      <rect
         style="opacity:0.00100002;fill:#00b2b2;fill-opacity:1;stroke-width:0.999999"
         width="32"
         height="32"
         x="38.000061"
         y="60"
         id="rect1138-7-2" />
      <path
         d="m 47.71443,88.000001 h 12.571383 c 0.945116,0 1.714307,-0.734175 1.714307,-1.636392 V 67.818211 C 62.00012,66.91605 61.230988,66 60.285813,66 h -2.285752 l 4.5e-5,-0.909091 C 58.000046,64.488214 57.488646,64 56.857253,64 h -5.714266 c -0.631394,0 -1.142852,0.488214 -1.142852,1.090909 L 50.000077,66 H 47.71443 c -0.945177,0 -1.714311,0.915993 -1.714311,1.818211 v 18.545455 c 0,0.90216 0.769134,1.636335 1.714311,1.636335 z M 47.00006,67.718 c 0,-0.301062 0.399903,-0.743015 0.714309,-0.718 h 3.428559 5.714264 3.428561 c 0.315396,0 0.714309,0.416938 0.714309,0.718 v 18.746 c 0,0.301063 -0.398913,0.536 -0.714309,0.536 H 47.71443 c -0.315398,0 -0.71437,-0.234938 -0.71437,-0.536 z"
         id="path412-6-5-6"
         style="fill:#00b2b2;fill-opacity:1;stroke-width:0.0583849"
         sodipodi:nodetypes="sssssccssscsssscsccssssssc" />
      <rect
         id="rect24700-5-5-1"
         width="12"
         height="18"
         x="48.000122"
         y="68"
         style="color:#333333;opacity:0.5;fill:#00b2b2;fill-opacity:1;stroke-width:1.38873"
         ry="1"
         rx="1.000061" />
      <path
         style="fill:#00e5e5;fill-opacity:1;stroke-width:1.24718"
         d="m 54.00006,70 -4,8.166663 h 4 V 84 l 4,-8.166663 h -4 z"
         id="path513" />
    </g>
    <g
       id="AcAdapter"
       style="fill:#00b2b2;fill-opacity:1">
      <rect
         style="opacity:0.00100002;fill:#00b2b2;fill-opacity:1;stroke-width:0.999999"
         width="32"
         height="32"
         x="6.0035156e-05"
         y="60"
         id="rect1138-7-2-7" />
      <path
         d="m 9.714429,88.000001 h 12.571383 c 0.945116,0 1.714307,-0.734175 1.714307,-1.636392 V 67.818211 C 24.000119,66.91605 23.230987,66 22.285812,66 H 20.00006 l 4.5e-5,-0.909091 C 20.000045,64.488214 19.488645,64 18.857252,64 h -5.714266 c -0.631394,0 -1.142852,0.488214 -1.142852,1.090909 L 12.000076,66 H 9.714429 c -0.945177,0 -1.714311,0.915993 -1.714311,1.818211 v 18.545455 c 0,0.90216 0.769134,1.636335 1.714311,1.636335 z M 9.000059,67.718 c 0,-0.301062 0.399903,-0.743015 0.714309,-0.718 h 3.428559 5.714264 3.428561 c 0.315396,0 0.714309,0.416938 0.714309,0.718 v 18.746 c 0,0.301063 -0.398913,0.536 -0.714309,0.536 H 9.714429 c -0.315398,0 -0.71437,-0.234938 -0.71437,-0.536 z"
         id="path412-6-5-6-9"
         style="fill:#00b2b2;fill-opacity:1;stroke-width:0.0583849"
         sodipodi:nodetypes="sssssccssscsssscsccssssssc" />
      <rect
         id="rect24700-5-5-1-2"
         width="12"
         height="18"
         x="10.000121"
         y="68"
         style="color:#333333;opacity:0.5;fill:#00b2b2;fill-opacity:1;stroke-width:1.38873"
         ry="1"
         rx="1.000061" />
      <path
         d="m 12.66863,71.187243 v 4.380569 h -1.270387 c -0.223009,0 -0.398183,0.172286 -0.398183,0.382874 v 1.432127 c 0,0.114911 0.05186,0.225976 0.143343,0.298734 2.098799,1.654254 3.050498,4.488063 2.927183,5.896968 -0.0073,0.107217 0.03184,0.210587 0.10752,0.291047 0.07173,0.08046 0.179174,0.122601 0.290676,0.122601 L 15.599861,83.992 16.146019,84 v 0 0 l 0.250217,-0.008 h 1.135084 c 0.107523,0 0.21501,-0.04216 0.290675,-0.122604 0.07567,-0.08048 0.111503,-0.183828 0.103544,-0.291045 -0.119473,-1.409233 0.828367,-4.242716 2.927185,-5.896968 0.09543,-0.07275 0.147336,-0.183826 0.147336,-0.298734 v -1.432127 c 0,-0.210588 -0.179183,-0.382874 -0.398188,-0.382874 h -1.270384 v -4.380565 c 0,-0.31396 -0.131343,-0.620386 -0.362359,-0.842513 C 18.730108,70.122441 18.427439,70 18.096928,70 c -0.681035,0 -1.234582,0.532258 -1.234582,1.187107 v 4.38057 h -1.728447 v -4.38057 c 0,-0.317807 -0.127506,-0.620386 -0.35835,-0.842511 -0.231012,-0.22213 -0.54169,-0.344571 -0.8722,-0.344571 -0.681026,0 -1.234582,0.532258 -1.234582,1.187107 z"
         id="path3194"
         style="fill:#00e5e5;fill-opacity:1;stroke-width:0.0418407"
         sodipodi:nodetypes="ccssscccccccccssccssscscssccscscc" />
    </g>
    <g
       id="Unavailable">
      <rect
         style="opacity:0.00100002;stroke-width:0.999999"
         width="32"
         height="32"
         x="77.000061"
         y="60"
         id="rect1138-32-3" />
      <path
         d="m 86.71443,88.000001 h 12.57138 c 0.94512,0 1.71431,-0.734175 1.71431,-1.636392 V 67.818211 C 101.00012,66.91605 100.23099,66 99.28581,66 h -2.28575 l 5e-5,-0.909091 C 97.00005,64.488214 96.48865,64 95.85725,64 h -5.71426 c -0.6314,0 -1.14285,0.488214 -1.14285,1.090909 L 89.00008,66 h -2.28565 c -0.94518,0 -1.71431,0.915993 -1.71431,1.818211 v 18.545455 c 0,0.90216 0.76913,1.636335 1.71431,1.636335 z M 86.00006,67.718 c 0,-0.301062 0.3999,-0.743015 0.71431,-0.718 h 3.42856 5.71426 3.42856 c 0.3154,0 0.71431,0.416938 0.71431,0.718 v 18.646 c 0,0.301063 -0.39891,0.636 -0.71431,0.636 H 86.71443 c -0.3154,0 -0.71437,-0.334938 -0.71437,-0.636 z"
         id="path412-06-3-7"
         style="fill:#da4453;fill-opacity:1;stroke-width:0.0583849"
         sodipodi:nodetypes="sssssccssscsssscsccssssssc" />
      <rect
         id="rect24700-0-6-5"
         width="12"
         height="18"
         x="87.000122"
         y="68"
         ry="1"
         rx="1.000061"
         style="fill:#da4453;fill-opacity:0.5" />
      <path
         style="color:#e5e9ef;fill:#de5462;fill-opacity:1;stroke-width:1.45803"
         d="m 88.004058,72.000296 h 1.24953 c 0.0132,-1.56e-4 0.0257,-5.8e-4 0.0389,0 0.31856,0.01455 0.63705,0.160722 0.85901,0.390604 l 2.85045,2.85148 2.88954,-2.85148 c 0.33188,-0.288117 0.55805,-0.38185 0.859,-0.390604 h 1.2496 v 1.249959 c 0,0.358087 -0.0431,0.688298 -0.31241,0.93748 l -2.85037,2.851467 2.81132,2.81243 c 0.23517,0.235193 0.35145,0.566794 0.35146,0.898411 V 82 h -1.24951 c -0.33149,-1.6e-5 -0.66299,-0.116373 -0.89805,-0.35155 l -2.85048,-2.851484 -2.85048,2.851484 C 89.916538,81.883673 89.584988,82 89.253558,82 h -1.24956 v -1.249957 c 0,-0.331601 0.11633,-0.663218 0.35147,-0.898411 l 2.85037,-2.81243 -2.85037,-2.851467 c -0.26335,-0.243285 -0.37888,-0.58656 -0.35147,-0.93748 z"
         id="path20"
         class="ColorScheme-Text" />
    </g>
    <g
       id="profile-performance"
       style="fill:#d3dae3;fill-opacity:1">
      <rect
         style="opacity:0.00100002;fill:#d3dae3;fill-opacity:1;stroke-width:0.687499"
         width="22"
         height="22"
         x="131.00006"
         y="67"
         id="rect1138-2" />
      <path
         d="m 141.99989,70.75 c -2.04703,0 -4.10032,0.786961 -5.65658,2.354366 -3.12434,3.141338 -3.12434,8.250116 0,11.391534 0.23318,0.234711 0.47873,0.450492 0.73093,0.647187 0.22687,0.177609 0.59209,0.126905 0.75572,-0.101404 0.93852,-1.2886 2.45664,-2.126228 4.16987,-2.126228 1.71317,0 3.23136,0.837628 4.17004,2.126228 0.1637,0.228626 0.52883,0.279012 0.756,0.101404 0.25192,-0.196707 0.49775,-0.412495 0.73094,-0.647187 3.12433,-3.141495 3.12433,-8.250109 0,-11.391534 C 146.09412,71.536748 144.04685,70.75 141.99974,70.75 Z m 0,1.07237 c 1.77624,0 3.54616,0.679113 4.90051,2.043484 2.71489,2.735255 2.71489,7.139679 0,9.86808 -0.0881,0.08892 -0.1826,0.158825 -0.27075,0.241139 -1.14001,-1.294536 -2.77794,-2.13221 -4.62982,-2.13221 -1.85177,0 -3.48976,0.837626 -4.62954,2.13221 -0.0882,-0.08232 -0.18261,-0.152256 -0.27086,-0.241139 -2.71494,-2.728682 -2.71494,-7.132866 0,-9.86808 1.35423,-1.364478 3.12442,-2.043484 4.90087,-2.043484 z m 3.76068,2.646375 c -0.13252,0 -0.27087,0.06345 -0.36563,0.158668 l -2.32419,2.335306 c -0.31503,-0.184023 -0.68027,-0.298409 -1.07088,-0.298409 -1.17151,0 -2.13539,0.964536 -2.13539,2.145015 0,1.186756 0.96364,2.151297 2.13539,2.151297 1.17152,0 2.13553,-0.964541 2.13553,-2.151297 0,-0.393529 -0.11359,-0.767846 -0.30253,-1.091584 l 2.3181,-2.32906 c 0.15719,-0.145997 0.20787,-0.393558 0.11949,-0.596522 -0.082,-0.196529 -0.29573,-0.329691 -0.50987,-0.323441 z m -3.76068,3.268238 c 0.59832,0 1.06457,0.47601 1.06457,1.072486 0,0.603082 -0.46625,1.078783 -1.06457,1.078783 -0.5983,0 -1.06454,-0.475852 -1.06454,-1.078783 0,-0.596507 0.46624,-1.072486 1.06454,-1.072486 z"
         id="path4672-8"
         style="fill:#d3dae3;fill-opacity:1;stroke-width:0.0400007" />
    </g>
    <g
       id="profile-powersave"
       style="fill:#d3dae3;fill-opacity:1">
      <rect
         style="opacity:0.00100002;fill:#d3dae3;fill-opacity:1;stroke-width:0.687499"
         width="22"
         height="22"
         x="170.00006"
         y="67.078003"
         id="rect1138-2-7" />
      <path
         d="m 181.00025,70.828 c 2.04703,0 4.10033,0.78696 5.65662,2.35437 3.1244,3.14134 3.12449,8.25012 2.1e-4,11.39153 -0.23318,0.23471 -0.47872,0.4505 -0.73092,0.64719 -0.22687,0.17761 -0.59209,0.12691 -0.75572,-0.1014 -0.93854,-1.2886 -2.45668,-2.12623 -4.16991,-2.12623 -1.71317,0 -3.23134,0.83763 -4.17,2.12623 -0.1637,0.22862 -0.52883,0.27901 -0.756,0.1014 -0.25192,-0.19671 -0.49776,-0.41249 -0.73095,-0.64719 -3.12439,-3.14149 -3.12448,-8.25011 -2.1e-4,-11.39153 1.56266,-1.56762 3.60992,-2.35437 5.65703,-2.35437 z m 2e-5,1.07237 c -1.77624,0 -3.54615,0.67912 -4.90048,2.04349 -2.71484,2.73525 -2.71475,7.13968 1.8e-4,9.86808 0.0881,0.0889 0.18261,0.15882 0.27076,0.24114 1.13999,-1.29454 2.7779,-2.13221 4.62978,-2.13221 1.85177,0 3.48978,0.83762 4.62958,2.13221 0.0882,-0.0823 0.18261,-0.15226 0.27085,-0.24114 2.71491,-2.72868 2.71482,-7.13287 -1.8e-4,-9.86808 -1.35425,-1.36448 -3.12444,-2.04349 -4.9009,-2.04349 z m -3.76063,2.64638 c 0.13252,0 0.27087,0.0634 0.36563,0.15867 l 2.32423,2.3353 c 0.31503,-0.18402 0.68027,-0.29841 1.07088,-0.29841 1.17154,0 2.1354,0.96454 2.13542,2.14502 3e-5,1.18675 -0.9636,2.1513 -2.13535,2.1513 -1.17149,0 -2.1355,-0.96455 -2.13553,-2.1513 0,-0.39353 0.11356,-0.76785 0.30252,-1.09159 l -2.31815,-2.32906 c -0.15718,-0.14599 -0.20786,-0.39355 -0.11949,-0.59652 0.082,-0.19653 0.29574,-0.32969 0.50986,-0.32344 z m 3.76074,3.26824 c -0.59832,0 -1.06457,0.47601 -1.06456,1.07248 2e-5,0.60308 0.46627,1.07879 1.06459,1.07879 0.5983,0 1.06454,-0.47586 1.06452,-1.07879 -1e-5,-0.5965 -0.46625,-1.07248 -1.06455,-1.07248 z"
         id="path4672-6"
         style="fill:#d3dae3;fill-opacity:1;stroke-width:0.0400007" />
    </g>
    <g
       id="22-22-Battery"
       transform="translate(-176.53993,-452.5)"
       style="fill:#d3dae3;fill-opacity:1">
      <rect
         style="opacity:0.00100002;fill:#d3dae3;fill-opacity:1"
         width="22"
         height="22"
         x="214.53999"
         y="404.5"
         id="rect630" />
      <path
         style="color:#eff0f1;opacity:1;fill:#d3dae3;fill-opacity:1;stroke-width:1.03279"
         d="m 224.03572,407.50504 c -0.277,0 -0.5,0.2379 -0.5,0.5333 V 408.5 l -1.5,4e-5 c -0.831,2e-5 -1.5,0.78534 -1.5,1.67174 v 11.7333 c 0,0.8864 0.669,1.6 1.5,1.6 h 7 c 0.831,0 1.5,-0.7136 1.5,-1.6 v -11.7333 c 0,-0.8864 -0.66995,-1.71144 -1.5,-1.67174 l -1.5,-4e-5 v -0.46166 c 0,-0.2954 -0.223,-0.5333 -0.5,-0.5333 z m -2,1.99496 h 7 c 0.29429,0 0.50427,0.35774 0.50427,0.67174 v 11.7333 c 0,0.3139 -0.20998,0.59496 -0.50427,0.59496 h -7 c -0.2943,0 -0.49573,-0.28106 -0.49573,-0.59496 v -11.7333 c 0,-0.314 0.20143,-0.67174 0.49573,-0.67174 z"
         id="path632"
         sodipodi:nodetypes="sscsssssssscssssssssssss" />
    </g>
    <g
       id="22-22-Fill100"
       style="fill:#d3dae3;fill-opacity:1">
      <rect
         style="opacity:0.00100002;fill:#d3dae3;fill-opacity:1"
         width="22"
         height="22"
         x="70.000061"
         y="-48"
         id="rect635" />
      <path
         style="color:#eff0f1;fill:#d3dae3;fill-opacity:1;stroke-width:1.03279"
         d="m 79.50006,-45 c -0.277,0 -0.5,0.2379 -0.5,0.5333 v 0.46166 l -1.5,4e-5 c -0.831,2e-5 -1.5,0.78534 -1.5,1.67174 v 11.7333 c 0,0.8864 0.669,1.6 1.5,1.6 h 7 c 0.831,0 1.5,-0.7136 1.5,-1.6 V -42.533 c 0,-0.8864 -0.569001,-1.471979 -1.4,-1.472 l -1.6,-4e-5 v -0.46166 c 0,-0.2954 -0.223,-0.5333 -0.5,-0.5333 z m -2,1.99496 h 7 c 0.5,0 0.50427,0.35774 0.50427,0.67174 V -30.6 c 0,0.3139 -0.20998,0.59496 -0.50427,0.59496 h -7 c -0.2943,0 -0.49573,-0.28106 -0.49573,-0.59496 v -11.7333 c 0,-0.314 -0.0043,-0.67174 0.49573,-0.67174 z"
         id="path632-3"
         sodipodi:nodetypes="sscsssssssscssssssssssss" />
      <rect
         id="rect24700-5-5-6"
         width="5.999999"
         height="11"
         x="78.000061"
         y="-42"
         style="color:#333333;opacity:0.45;fill:#d3dae3;fill-opacity:1;stroke-width:0.767639"
         ry="1"
         rx="1.0000011" />
    </g>
    <g
       id="22-22-Fill80"
       style="fill:#d3dae3;fill-opacity:1">
      <rect
         style="opacity:0.00100002;fill:#d3dae3;fill-opacity:1"
         width="22"
         height="22"
         x="134.00002"
         y="-48"
         id="rect645" />
      <path
         style="color:#eff0f1;fill:#d3dae3;fill-opacity:1;stroke-width:1.03279"
         d="m 143.50006,-45 c -0.277,0 -0.5,0.2379 -0.5,0.5333 v 0.46166 l -1.5,4e-5 c -0.831,2e-5 -1.5,0.78534 -1.5,1.67174 v 11.7333 c 0,0.8864 0.669,1.6 1.5,1.6 h 7 c 0.831,0 1.5,-0.7136 1.5,-1.6 v -11.7333 c 0,-0.8864 -0.66995,-1.71144 -1.5,-1.67174 l -1.5,-4e-5 v -0.46166 c 0,-0.2954 -0.223,-0.5333 -0.5,-0.5333 z m -2,1.99496 h 7 c 0.29429,0 0.50427,0.35774 0.50427,0.67174 V -30.6 c 0,0.3139 -0.20998,0.59496 -0.50427,0.59496 h -7 c -0.2943,0 -0.49573,-0.28106 -0.49573,-0.59496 v -11.7333 c 0,-0.314 0.20143,-0.67174 0.49573,-0.67174 z"
         id="path632-3-0"
         sodipodi:nodetypes="sscsssssssscssssssssssss" />
      <rect
         id="rect24700-5-5-6-6"
         width="5.999999"
         height="7.9999924"
         x="142.00006"
         y="-39"
         style="color:#333333;opacity:0.45;fill:#d3dae3;fill-opacity:1;stroke-width:0.654644"
         ry="1"
         rx="1.0000011" />
    </g>
    <g
       id="22-22-Fill90"
       style="fill:#d3dae3;fill-opacity:1">
      <rect
         style="opacity:0.00100002;fill:#d3dae3;fill-opacity:1"
         width="22"
         height="22"
         x="102.00005"
         y="-48"
         id="rect640" />
      <path
         style="color:#eff0f1;fill:#d3dae3;fill-opacity:1;stroke-width:1.03279"
         d="m 111.50006,-45 c -0.277,0 -0.5,0.2379 -0.5,0.5333 v 0.46166 l -1.5,4e-5 c -0.831,2e-5 -1.5,0.78534 -1.5,1.67174 v 11.7333 c 0,0.8864 0.669,1.6 1.5,1.6 h 7 c 0.831,0 1.5,-0.7136 1.5,-1.6 v -11.7333 c 0,-0.8864 -0.66995,-1.71144 -1.5,-1.67174 l -1.5,-4e-5 v -0.46166 c 0,-0.2954 -0.223,-0.5333 -0.5,-0.5333 z m -2,1.99496 h 7 c 0.29429,0 0.50427,0.35774 0.50427,0.67174 V -30.6 c 0,0.3139 -0.20998,0.59496 -0.50427,0.59496 h -7 c -0.2943,0 -0.49573,-0.28106 -0.49573,-0.59496 v -11.7333 c 0,-0.314 0.20143,-0.67174 0.49573,-0.67174 z"
         id="path632-3-2"
         sodipodi:nodetypes="sscsssssssscssssssssssss" />
      <rect
         id="rect24700-5-5-6-61"
         width="5.999999"
         height="9.0000114"
         x="110.00006"
         y="-40"
         style="color:#333333;opacity:0.45;fill:#d3dae3;fill-opacity:1;stroke-width:0.694356"
         ry="1"
         rx="1.0000011" />
    </g>
    <g
       id="22-22-Fill70"
       style="fill:#d3dae3;fill-opacity:1">
      <rect
         style="opacity:0.00100002;fill:#d3dae3;fill-opacity:1"
         width="22"
         height="22"
         x="166.00002"
         y="-48"
         id="rect650" />
      <path
         style="color:#eff0f1;fill:#d3dae3;fill-opacity:1;stroke-width:1.03279"
         d="m 175.50002,-45 c -0.277,0 -0.5,0.2379 -0.5,0.5333 v 0.46166 l -1.5,4e-5 c -0.831,2e-5 -1.5,0.78534 -1.5,1.67174 v 11.7333 c 0,0.8864 0.669,1.6 1.5,1.6 h 7 c 0.831,0 1.5,-0.7136 1.5,-1.6 v -11.7333 c 0,-0.8864 -0.66995,-1.71144 -1.5,-1.67174 l -1.5,-4e-5 v -0.46166 c 0,-0.2954 -0.223,-0.5333 -0.5,-0.5333 z m -2,1.99496 h 7 c 0.29429,0 0.50427,0.35774 0.50427,0.67174 V -30.6 c 0,0.3139 -0.20998,0.59496 -0.50427,0.59496 h -7 c -0.2943,0 -0.49573,-0.28106 -0.49573,-0.59496 v -11.7333 c 0,-0.314 0.20143,-0.67174 0.49573,-0.67174 z"
         id="path632-3-8"
         sodipodi:nodetypes="sscsssssssscssssssssssss" />
      <rect
         id="rect24700-5-5-6-7"
         width="5.999999"
         height="7"
         x="174.00008"
         y="-38"
         style="color:#333333;opacity:0.45;fill:#d3dae3;fill-opacity:1;stroke-width:0.612364"
         ry="1"
         rx="1.0000163" />
    </g>
    <g
       id="22-22-Fill50"
       style="fill:#d3dae3;fill-opacity:1">
      <rect
         style="opacity:0.00100002;fill:#d3dae3;fill-opacity:1"
         width="22"
         height="22"
         x="230.00002"
         y="-48"
         id="rect660" />
      <path
         style="color:#eff0f1;fill:#d3dae3;fill-opacity:1;stroke-width:1.03279"
         d="m 239.50002,-45 c -0.277,0 -0.5,0.2379 -0.5,0.5333 v 0.46166 l -1.5,4e-5 c -0.831,2e-5 -1.5,0.78534 -1.5,1.67174 v 11.7333 c 0,0.8864 0.669,1.6 1.5,1.6 h 7 c 0.831,0 1.5,-0.7136 1.5,-1.6 v -11.7333 c 0,-0.8864 -0.66995,-1.71144 -1.5,-1.67174 l -1.5,-4e-5 v -0.46166 c 0,-0.2954 -0.223,-0.5333 -0.5,-0.5333 z m -2,1.99496 h 7 c 0.29429,0 0.50427,0.35774 0.50427,0.67174 V -30.6 c 0,0.3139 -0.20998,0.59496 -0.50427,0.59496 h -7 c -0.2943,0 -0.49573,-0.28106 -0.49573,-0.59496 v -11.7333 c 0,-0.314 0.20143,-0.67174 0.49573,-0.67174 z"
         id="path632-3-9"
         sodipodi:nodetypes="sscsssssssscssssssssssss" />
      <rect
         id="rect24700-5-5-6-2"
         width="5.999999"
         height="5"
         x="238.00006"
         y="-36"
         style="color:#333333;opacity:0.45;fill:#d3dae3;fill-opacity:1;stroke-width:0.517542"
         ry="1"
         rx="1.0000011" />
    </g>
    <g
       id="22-22-Fill60"
       style="fill:#d3dae3;fill-opacity:1">
      <rect
         style="opacity:0.00100002;fill:#d3dae3;fill-opacity:1"
         width="22"
         height="22"
         x="198.00002"
         y="-48"
         id="rect655" />
      <path
         style="color:#eff0f1;fill:#d3dae3;fill-opacity:1;stroke-width:1.03279"
         d="m 207.50001,-45 c -0.277,0 -0.5,0.2379 -0.5,0.5333 v 0.46166 l -1.5,4e-5 c -0.831,2e-5 -1.5,0.78534 -1.5,1.67174 v 11.7333 c 0,0.8864 0.669,1.6 1.5,1.6 h 7 c 0.831,0 1.5,-0.7136 1.5,-1.6 v -11.7333 c 0,-0.8864 -0.66995,-1.71144 -1.5,-1.67174 l -1.5,-4e-5 v -0.46166 c 0,-0.2954 -0.223,-0.5333 -0.5,-0.5333 z m -2,1.99496 h 7 c 0.29429,0 0.50427,0.35774 0.50427,0.67174 V -30.6 c 0,0.3139 -0.20998,0.59496 -0.50427,0.59496 h -7 c -0.2943,0 -0.49573,-0.28106 -0.49573,-0.59496 v -11.7333 c 0,-0.314 0.20143,-0.67174 0.49573,-0.67174 z"
         id="path632-3-02"
         sodipodi:nodetypes="sscsssssssscssssssssssss" />
      <rect
         id="rect24700-5-5-6-3"
         width="5.999999"
         height="6"
         x="206.00006"
         y="-37"
         style="color:#333333;opacity:0.45;fill:#d3dae3;fill-opacity:1;stroke-width:0.566939"
         ry="1"
         rx="1.0000011" />
    </g>
    <g
       id="22-22-Fill40"
       style="fill:#d3dae3;fill-opacity:1">
      <rect
         style="opacity:0.00100002;fill:#d3dae3;fill-opacity:1"
         width="22"
         height="22"
         x="262.00003"
         y="-48"
         id="rect665" />
      <path
         style="color:#eff0f1;fill:#d3dae3;fill-opacity:1;stroke-width:1.03279"
         d="m 271.50006,-45 c -0.277,0 -0.5,0.2379 -0.5,0.5333 v 0.46166 l -1.5,4e-5 c -0.831,2e-5 -1.5,0.78534 -1.5,1.67174 v 11.7333 c 0,0.8864 0.669,1.6 1.5,1.6 h 7 c 0.831,0 1.5,-0.7136 1.5,-1.6 v -11.7333 c 0,-0.8864 -0.66995,-1.71144 -1.5,-1.67174 l -1.5,-4e-5 v -0.46166 c 0,-0.2954 -0.223,-0.5333 -0.5,-0.5333 z m -2,1.99496 h 7 c 0.29429,0 0.50427,0.35774 0.50427,0.67174 V -30.6 c 0,0.3139 -0.20998,0.59496 -0.50427,0.59496 h -7 c -0.2943,0 -0.49573,-0.28106 -0.49573,-0.59496 v -11.7333 c 0,-0.314 0.20143,-0.67174 0.49573,-0.67174 z"
         id="path632-3-7"
         sodipodi:nodetypes="sscsssssssscssssssssssss" />
      <rect
         id="rect24700-5-5-6-5"
         width="5.999999"
         height="3.9999924"
         x="270.00006"
         y="-35"
         style="color:#333333;opacity:0.45;fill:#d3dae3;fill-opacity:1;stroke-width:0.462904"
         ry="1"
         rx="1.0000011" />
    </g>
    <g
       id="22-22-Fill20"
       style="fill:#d3dae3;fill-opacity:1">
      <rect
         style="opacity:0.00100002;fill:#d3dae3;fill-opacity:1"
         width="22"
         height="22"
         x="326.00006"
         y="-48"
         id="rect675" />
      <path
         style="color:#eff0f1;fill:#d3dae3;fill-opacity:1;stroke-width:1.03279"
         d="m 335.50006,-45 c -0.277,0 -0.5,0.2379 -0.5,0.5333 v 0.46166 l -1.5,4e-5 c -0.831,2e-5 -1.5,0.78534 -1.5,1.67174 v 11.7333 c 0,0.8864 0.669,1.6 1.5,1.6 h 7 c 0.831,0 1.5,-0.7136 1.5,-1.6 v -11.7333 c 0,-0.8864 -0.66995,-1.71144 -1.5,-1.67174 l -1.5,-4e-5 v -0.46166 c 0,-0.2954 -0.223,-0.5333 -0.5,-0.5333 z m -2,1.99496 h 7 c 0.29429,0 0.50427,0.35774 0.50427,0.67174 V -30.6 c 0,0.3139 -0.20998,0.59496 -0.50427,0.59496 h -7 c -0.2943,0 -0.49573,-0.28106 -0.49573,-0.59496 v -11.7333 c 0,-0.314 0.20143,-0.67174 0.49573,-0.67174 z"
         id="path632-3-92"
         sodipodi:nodetypes="sscsssssssscssssssssssss" />
      <rect
         id="rect24700-5-5-6-28"
         width="5.999999"
         height="1.9999924"
         x="334.00006"
         y="-33"
         style="color:#333333;opacity:0.45;fill:#d3dae3;fill-opacity:1;stroke-width:0.327322"
         ry="0.99999619"
         rx="1.0000011" />
    </g>
    <g
       id="22-22-Fill30"
       style="fill:#d3dae3;fill-opacity:1">
      <rect
         style="opacity:0.00100002;fill:#d3dae3;fill-opacity:1"
         width="22"
         height="22"
         x="294.00003"
         y="-48"
         id="rect670" />
      <path
         style="color:#eff0f1;fill:#d3dae3;fill-opacity:1;stroke-width:1.03279"
         d="m 303.50004,-45 c -0.277,0 -0.5,0.2379 -0.5,0.5333 v 0.46166 l -1.5,4e-5 c -0.831,2e-5 -1.5,0.78534 -1.5,1.67174 v 11.7333 c 0,0.8864 0.669,1.6 1.5,1.6 h 7 c 0.831,0 1.5,-0.7136 1.5,-1.6 v -11.7333 c 0,-0.8864 -0.66995,-1.71144 -1.5,-1.67174 l -1.5,-4e-5 v -0.46166 c 0,-0.2954 -0.223,-0.5333 -0.5,-0.5333 z m -2,1.99496 h 7 c 0.29429,0 0.50427,0.35774 0.50427,0.67174 V -30.6 c 0,0.3139 -0.20998,0.59496 -0.50427,0.59496 h -7 c -0.2943,0 -0.49573,-0.28106 -0.49573,-0.59496 v -11.7333 c 0,-0.314 0.20143,-0.67174 0.49573,-0.67174 z"
         id="path632-3-97"
         sodipodi:nodetypes="sscsssssssscssssssssssss" />
      <rect
         id="rect24700-5-5-6-36"
         width="5.999999"
         height="2.9999924"
         x="302.00009"
         y="-34"
         style="color:#333333;opacity:0.45;fill:#d3dae3;fill-opacity:1;stroke-width:0.400886"
         ry="1"
         rx="1.0000316" />
    </g>
    <g
       id="22-22-Fill0">
      <rect
         style="opacity:0.00100002"
         width="22"
         height="22"
         x="390.00006"
         y="-48"
         id="rect685" />
      <path
         style="color:#eff0f1;fill:#da4453;fill-opacity:1;stroke-width:1.03279"
         d="m 399.50006,-45 c -0.277,0 -0.5,0.2379 -0.5,0.5333 v 0.46166 l -1.5,4e-5 c -0.831,2e-5 -1.5,0.78534 -1.5,1.67174 v 11.7333 c 0,0.8864 0.669,1.6 1.5,1.6 h 7 c 0.831,0 1.5,-0.7136 1.5,-1.6 v -11.7333 c 0,-0.8864 -0.66995,-1.71144 -1.5,-1.67174 l -1.5,-4e-5 v -0.46166 c 0,-0.2954 -0.223,-0.5333 -0.5,-0.5333 z m -2,1.99496 h 7 c 0.29429,0 0.50427,0.35774 0.50427,0.67174 V -30.6 c 0,0.3139 -0.20998,0.59496 -0.50427,0.59496 h -7 c -0.2943,0 -0.49573,-0.28106 -0.49573,-0.59496 v -11.7333 c 0,-0.314 0.20143,-0.67174 0.49573,-0.67174 z"
         id="path632-3-3"
         sodipodi:nodetypes="sscsssssssscssssssssssss" />
    </g>
    <g
       id="22-22-Fill10">
      <rect
         style="opacity:0.00100002"
         width="22"
         height="22"
         x="358.00006"
         y="-48"
         id="rect680" />
      <path
         style="color:#eff0f1;fill:#da4453;fill-opacity:1;stroke-width:1.03279"
         d="m 367.50006,-45 c -0.277,0 -0.5,0.2379 -0.5,0.5333 v 0.46166 l -1.5,4e-5 c -0.831,2e-5 -1.5,0.78534 -1.5,1.67174 v 11.7333 c 0,0.8864 0.669,1.6 1.5,1.6 h 7 c 0.831,0 1.5,-0.7136 1.5,-1.6 v -11.7333 c 0,-0.8864 -0.66995,-1.71144 -1.5,-1.67174 l -1.5,-4e-5 v -0.46166 c 0,-0.2954 -0.223,-0.5333 -0.5,-0.5333 z m -2,1.99496 h 7 c 0.29429,0 0.50427,0.35774 0.50427,0.67174 V -30.6 c 0,0.3139 -0.20998,0.59496 -0.50427,0.59496 h -7 c -0.2943,0 -0.49573,-0.28106 -0.49573,-0.59496 v -11.7333 c 0,-0.314 0.20143,-0.67174 0.49573,-0.67174 z"
         id="path632-3-1"
         sodipodi:nodetypes="sscsssssssscssssssssssss" />
      <rect
         id="rect24700-0-6-9"
         width="5.999999"
         height="1"
         x="366.00006"
         y="-32"
         style="color:#333333;fill:#da4453;fill-opacity:1;stroke-width:0.231455"
         ry="0.5"
         rx="0.60000712" />
    </g>
    <g
       id="22-22-AcAdapter"
       style="fill:#00b2b2;fill-opacity:1">
      <rect
         style="opacity:0.00100002;fill:#00b2b2;fill-opacity:1"
         width="22"
         height="22"
         x="5.0000601"
         y="118"
         id="rect635-6" />
      <path
         style="color:#eff0f1;fill:#00b2b2;fill-opacity:1;stroke-width:1.03279"
         class="ColorScheme-Text"
         d="m 14.500059,121 c -0.277,0 -0.5,0.2379 -0.5,0.5333 v 0.46166 l -1.5,4e-5 c -0.831,2e-5 -1.5,0.78534 -1.5,1.67174 v 11.7333 c 0,0.8864 0.669,1.6 1.5,1.6 h 7 c 0.831,0 1.5,-0.7136 1.5,-1.6 V 123.467 c 0,-0.8864 -0.569001,-1.47198 -1.4,-1.472 l -1.6,-4e-5 v -0.46166 c 0,-0.2954 -0.223,-0.5333 -0.5,-0.5333 z m -2,1.99496 h 7 c 0.5,0 0.50427,0.35774 0.50427,0.67174 V 135.4 c 0,0.3139 -0.20998,0.59496 -0.50427,0.59496 h -7 c -0.2943,0 -0.49573,-0.28106 -0.49573,-0.59496 v -11.7333 c 0,-0.314 -0.0043,-0.67174 0.49573,-0.67174 z"
         id="path632-3-32"
         sodipodi:nodetypes="sscsssssssscssssssssssss" />
      <rect
         id="rect24700-5-5-6-0"
         width="5.999999"
         height="11"
         x="13.00006"
         y="124"
         style="color:#333333;opacity:0.5;fill:#00b2b2;fill-opacity:1;stroke-width:0.767639"
         ry="1"
         rx="1.0000011" />
      <path
         d="m 14.103179,126.1782 v 2.5022 h -0.725688 c -0.127321,0 -0.227431,0.0984 -0.227431,0.21869 v 0.81807 c 0,0.066 0.0294,0.12899 0.0821,0.17055 1.19886,0.94497 1.742516,2.56365 1.672059,3.36842 -0.006,0.0607 0.0183,0.12029 0.06121,0.16626 0.0414,0.0454 0.102339,0.0697 0.166015,0.0697 l 0.646085,-9e-5 0.311994,0.008 v 0 0 l 0.142949,-0.008 h 0.64835 c 0.06121,0 0.122826,-0.0242 0.166041,-0.0697 0.04361,-0.0454 0.06362,-0.105 0.0596,-0.16627 -0.0679,-0.80493 0.473201,-2.42345 1.67207,-3.3684 0.0542,-0.042 0.0842,-0.10492 0.0842,-0.17058 v -0.81807 c 0,-0.12025 -0.102338,-0.21867 -0.227395,-0.21867 h -0.725689 v -2.50221 c 0,-0.1794 -0.0753,-0.3544 -0.206989,-0.4812 -0.136931,-0.12695 -0.309852,-0.1969 -0.498654,-0.1969 -0.389021,0 -0.705193,0.30413 -0.705193,0.67812 v 2.5022 h -0.987316 v -2.5022 c 0,-0.18155 -0.07309,-0.35442 -0.204695,-0.48119 -0.131954,-0.12698 -0.309425,-0.19691 -0.498202,-0.19691 -0.388985,0 -0.705174,0.30412 -0.705174,0.67811 z"
         id="path3194-3"
         style="fill:#00e5e5;fill-opacity:1;stroke-width:0.0238992"
         sodipodi:nodetypes="ccssscccccccccssccssscscssccscscc" />
    </g>
    <g
       id="22-22-battery-ups"
       style="fill:#00b2b2;fill-opacity:1">
      <rect
         style="opacity:0.00100002;fill:#00b2b2;fill-opacity:1"
         width="22"
         height="22"
         x="42.000061"
         y="118"
         id="rect635-1" />
      <path
         style="color:#eff0f1;fill:#00b2b2;fill-opacity:1;stroke-width:1.03279"
         class="ColorScheme-Text"
         d="m 51.500059,121 c -0.277,0 -0.5,0.2379 -0.5,0.5333 v 0.46166 l -1.5,4e-5 c -0.831,2e-5 -1.5,0.78534 -1.5,1.67174 v 11.7333 c 0,0.8864 0.669,1.6 1.5,1.6 h 7 c 0.831,0 1.5,-0.7136 1.5,-1.6 V 123.467 c 0,-0.8864 -0.569001,-1.47198 -1.4,-1.472 l -1.6,-4e-5 v -0.46166 c 0,-0.2954 -0.223,-0.5333 -0.5,-0.5333 z m -2,1.99496 h 7 c 0.5,0 0.50427,0.35774 0.50427,0.67174 V 135.4 c 0,0.3139 -0.20998,0.59496 -0.50427,0.59496 h -7 c -0.2943,0 -0.49573,-0.28106 -0.49573,-0.59496 v -11.7333 c 0,-0.314 -0.0043,-0.67174 0.49573,-0.67174 z"
         id="path632-3-5"
         sodipodi:nodetypes="sscsssssssscssssssssssss" />
      <rect
         id="rect24700-5-5-6-54"
         width="5.999999"
         height="11"
         x="50.000061"
         y="124"
         style="color:#333333;opacity:0.5;fill:#00b2b2;fill-opacity:1;stroke-width:0.767639"
         ry="1"
         rx="1.0000011" />
      <path
         style="fill:#00e5e5;fill-opacity:1;stroke-width:0.71266"
         d="m 52.98578,125.5 -2.28572,4.6667 h 2.28572 V 133.5 l 2.285707,-4.6667 H 52.98578 Z"
         id="path513-7" />
    </g>
    <g
       id="22-22-Unavailable">
      <rect
         style="opacity:0.00100002;fill:#e5e9ef;fill-opacity:1"
         width="22"
         height="22"
         x="81.000061"
         y="118"
         id="rect635-65" />
      <path
         style="color:#eff0f1;fill:#da4453;fill-opacity:1;stroke-width:1.03279"
         class="ColorScheme-Text"
         d="m 90.500059,121 c -0.277,0 -0.5,0.2379 -0.5,0.5333 v 0.46166 l -1.5,4e-5 c -0.831,2e-5 -1.5,0.78534 -1.5,1.67174 v 11.7333 c 0,0.8864 0.669,1.6 1.5,1.6 h 7 c 0.831,0 1.5,-0.7136 1.5,-1.6 V 123.467 c 0,-0.8864 -0.569001,-1.47198 -1.4,-1.472 l -1.6,-4e-5 v -0.46166 c 0,-0.2954 -0.223,-0.5333 -0.5,-0.5333 z m -2,1.99496 h 7 c 0.5,0 0.50427,0.35774 0.50427,0.67174 V 135.4 c 0,0.3139 -0.20998,0.59496 -0.50427,0.59496 h -7 c -0.2943,0 -0.49573,-0.28106 -0.49573,-0.59496 v -11.7333 c 0,-0.314 -0.0043,-0.67174 0.49573,-0.67174 z"
         id="path632-3-6"
         sodipodi:nodetypes="sscsssssssscssssssssssss" />
      <rect
         id="rect24700-5-5-6-9"
         width="5.999999"
         height="11"
         x="89.000061"
         y="124"
         ry="1"
         rx="1.0000011"
         style="fill:#da4453;fill-opacity:0.5" />
      <path
         style="color:#e5e9ef;fill:#dd5562;fill-opacity:1;stroke-width:0.729037"
         d="m 89.502065,127.00015 h 0.62478 c 0.0068,-6e-5 0.01284,-3e-4 0.01942,0 0.159288,0.008 0.318527,0.0805 0.429517,0.19527 l 1.425246,1.42589 1.444794,-1.42589 c 0.165937,-0.14404 0.279018,-0.19088 0.429513,-0.19527 h 0.624801 v 0.62497 c 0,0.17908 -0.02158,0.3442 -0.156206,0.46876 l -1.425219,1.42573 1.405685,1.40626 c 0.117588,0.1175 0.175735,0.2835 0.17574,0.44917 V 132 h -0.624762 c -0.16574,-2e-5 -0.331491,-0.0576 -0.449039,-0.17563 l -1.425256,-1.4259 -1.425257,1.4259 C 90.458335,131.94187 90.292541,132 90.126819,132 H 89.50203 v -0.62496 c 0,-0.16567 0.05822,-0.33163 0.175734,-0.44917 l 1.425211,-1.40626 -1.425211,-1.42573 c -0.131671,-0.12157 -0.189443,-0.2933 -0.175734,-0.46876 z"
         id="path20-4"
         class="ColorScheme-Text" />
    </g>
    <g
       id="Battery">
      <rect
         style="opacity:0.00100002;fill:#e5e9ef;fill-opacity:1;stroke-width:0.999999"
         width="32"
         height="32"
         x="-5.9999998e-05"
         y="2"
         id="rect1138" />
      <path
         d="m 9.714251,30.000001 h 12.571383 c 0.945116,0 1.714307,-0.734175 1.714307,-1.636392 V 9.818211 C 23.999941,8.91605 23.230809,8 22.285634,8 h -2.285752 l 4.5e-5,-0.909091 C 19.999867,6.488214 19.488467,6 18.857074,6 H 13.142808 C 12.511414,6 11.999956,6.488214 11.999956,7.090909 L 11.999898,8 H 9.714251 C 8.769074,8 7.99994,8.915993 7.99994,9.818211 v 18.545455 c 0,0.90216 0.769134,1.636335 1.714311,1.636335 z M 8.999881,9.718 C 8.999881,9.416938 9.399784,8.974985 9.71419,9 h 3.428559 5.714264 3.428561 c 0.315396,0 0.714309,0.416938 0.714309,0.718 v 18.746 c 0,0.301063 -0.398913,0.536 -0.714309,0.536 H 9.714251 c -0.315398,0 -0.71437,-0.234938 -0.71437,-0.536 z"
         id="path412-6-5-3"
         style="fill:#bac8df;fill-opacity:1;stroke-width:0.0583849"
         sodipodi:nodetypes="sssssccssscsssscsccssssssc" />
    </g>
    <g
       id="Fill90"
       style="fill:#d3dae3;fill-opacity:1">
      <rect
         style="opacity:0.00100002;fill:#d3dae3;fill-opacity:1;stroke-width:0.999999"
         width="32"
         height="32"
         x="75.000061"
         y="2"
         id="rect1138-0" />
      <path
         d="m 84.714371,30.100001 h 12.571384 c 0.945116,0 1.714307,-0.734175 1.714307,-1.636392 V 9.91821 C 99.000062,9.01605 98.23093,8.1 97.285755,8.1 h -2.285753 l 4.5e-5,-0.909091 C 94.999988,6.588214 94.488588,6.1 93.857195,6.1 h -5.714266 c -0.631394,0 -1.142852,0.488214 -1.142852,1.090909 L 87.000019,8.1 h -2.285648 c -0.945177,0 -1.71431,0.915993 -1.71431,1.81821 v 18.545456 c 0,0.90216 0.769133,1.636335 1.71431,1.636335 z M 84.000001,9.818 c 0,-0.301062 0.399904,-0.743015 0.714309,-0.718 h 3.42856 5.714263 3.428561 c 0.315397,0 0.714309,0.416938 0.714309,0.718 v 18.746 c 0,0.301063 -0.398912,0.536 -0.714309,0.536 H 84.714371 c -0.315397,0 -0.71437,-0.234938 -0.71437,-0.536 z"
         id="path412-7-5-5"
         style="fill:#d3dae3;fill-opacity:1;stroke-width:0.0583849"
         sodipodi:nodetypes="sssssccssscsssscsccssssssc" />
      <rect
         id="rect24700-9-3-6"
         width="12"
         height="16"
         x="85.000046"
         y="12.099997"
         style="color:#333333;opacity:0.45;fill:#d3dae3;fill-opacity:1;stroke-width:1.30931"
         ry="1"
         rx="1.000061" />
    </g>
  </g>
</svg>
