<?xml version="1.0" encoding="UTF-8" standalone="no"?>
<svg
   width="32"
   height="32"
   version="1.1"
   id="svg12"
   sodipodi:docname="compass.svg"
   inkscape:version="1.3.1 (91b66b0783, 2023-11-16)"
   xmlns:inkscape="http://www.inkscape.org/namespaces/inkscape"
   xmlns:sodipodi="http://sodipodi.sourceforge.net/DTD/sodipodi-0.dtd"
   xmlns:xlink="http://www.w3.org/1999/xlink"
   xmlns="http://www.w3.org/2000/svg"
   xmlns:svg="http://www.w3.org/2000/svg"
   xmlns:rdf="http://www.w3.org/1999/02/22-rdf-syntax-ns#"
   xmlns:cc="http://creativecommons.org/ns#"
   xmlns:dc="http://purl.org/dc/elements/1.1/">
  <metadata
     id="metadata18">
    <rdf:RDF>
      <cc:Work
         rdf:about="">
        <dc:format>image/svg+xml</dc:format>
        <dc:type
           rdf:resource="http://purl.org/dc/dcmitype/StillImage" />
      </cc:Work>
    </rdf:RDF>
  </metadata>
  <defs
     id="defs16">
    <linearGradient
       id="linearGradient6"
       inkscape:collect="always">
      <stop
         style="stop-color:#bc5fd3;stop-opacity:1;"
         offset="0"
         id="stop1" />
      <stop
         style="stop-color:#2a7fff;stop-opacity:1;"
         offset="1"
         id="stop2" />
    </linearGradient>
    <linearGradient
       id="linearGradient5"
       inkscape:collect="always">
      <stop
         style="stop-color:#6d55aa;stop-opacity:1;"
         offset="0"
         id="stop3" />
      <stop
         style="stop-color:#2a7fff;stop-opacity:1;"
         offset="1"
         id="stop4" />
    </linearGradient>
    <linearGradient
       inkscape:collect="always"
       xlink:href="#linearGradient6"
       id="linearGradient7"
       gradientUnits="userSpaceOnUse"
       x1="4.7037368"
       y1="15.085993"
       x2="28.944054"
       y2="14.515776" />
    <linearGradient
       inkscape:collect="always"
       xlink:href="#linearGradient5"
       id="linearGradient22"
       gradientUnits="userSpaceOnUse"
       x1="0"
       y1="11"
       x2="22"
       y2="11" />
  </defs>
  <sodipodi:namedview
     pagecolor="#02334b"
     bordercolor="#000000"
     borderopacity="1"
     objecttolerance="10"
     gridtolerance="10"
     guidetolerance="10"
     inkscape:pageopacity="0"
     inkscape:pageshadow="2"
     inkscape:window-width="1920"
     inkscape:window-height="994"
     id="namedview14"
     showgrid="true"
     inkscape:zoom="16.000001"
     inkscape:cx="26.874998"
     inkscape:cy="24.031248"
     inkscape:window-x="0"
     inkscape:window-y="0"
     inkscape:window-maximized="1"
     inkscape:current-layer="svg12"
     inkscape:document-rotation="0"
     inkscape:lockguides="true"
     inkscape:pagecheckerboard="true"
     inkscape:showpageshadow="true"
     inkscape:deskcolor="#02334b">
    <inkscape:grid
       type="xygrid"
       id="grid880"
       originx="32"
       originy="10"
       spacingy="1"
       spacingx="1"
       units="px"
       visible="true" />
  </sodipodi:namedview>
  <g
     id="compass">
    <path
       d="m 15.205379,14.255823 c -1.312865,0.598176 -1.613724,2.18877 -0.6024,3.193018 0.807152,0.801545 1.986859,0.801545 2.79399,0 1.011324,-1.004248 0.710423,-2.594842 -0.60238,-3.193018 -0.625645,-0.274431 -0.96296,-0.274431 -1.58921,0 z"
       id="path20"
       style="fill:#00d4aa;fill-opacity:1;stroke-width:0.00625949" />
    <path
       d="m 15.42532,22.53664 c -0.411817,0.130027 -0.623676,0.40691 -0.623676,0.797026 0,0.486225 0.223205,0.678482 1.069788,0.904632 0.257512,0.06786 0.509069,0.169554 0.560686,0.226179 0.125909,0.141259 0.06864,0.316684 -0.142988,0.424001 -0.434778,0.220565 -1.029789,-0.0226 -1.029789,-0.41841 0,-0.101689 -0.03428,-0.118856 -0.28617,-0.118856 H 14.687 v 0.197857 c 0,0.26008 0.114252,0.475019 0.366141,0.695295 0.228885,0.197856 0.492081,0.265666 0.961165,0.254462 0.640666,-0.01688 1.110062,-0.446422 1.058446,-0.972456 -0.04588,-0.452336 -0.326159,-0.678493 -1.052785,-0.864843 -0.560689,-0.141253 -0.646637,-0.186656 -0.646637,-0.356204 0,-0.18105 0.148909,-0.254465 0.509088,-0.254465 0.320476,0 0.520709,0.130077 0.520709,0.333491 0,0.158348 0.08589,0.192255 0.343166,0.146846 0.211558,-0.03387 0.228878,-0.05103 0.228878,-0.220546 0,-0.231782 -0.200245,-0.531361 -0.446118,-0.672601 -0.211268,-0.124098 -0.852246,-0.180747 -1.10379,-0.101413 z"
       id="path22"
       style="fill:#00d4aa;fill-opacity:1;stroke-width:0.0029663" />
    <path
       style="clip-rule:evenodd;fill:url(#linearGradient7);fill-opacity:0;fill-rule:evenodd;stroke-width:1.00213;stroke-linejoin:round;stroke-miterlimit:1.41421"
       d="M 0,0 V 32 H 32 V 0 Z"
       id="rect817"
       inkscape:connector-curvature="0" />
    <path
       d="M 15.042781,6.6403254 C 15.01997,6.6575244 15.003,7.3326929 15.003,8.1403252 v 1.4596745 h 0.284383 0.284391 l 0.0117,-0.9403252 0.017,-0.9345999 0.619793,0.9345999 0.619775,0.9403252 h 0.278756 0.27283 V 8.1000003 6.5999997 h -0.28434 -0.284395 V 7.5634916 8.5326922 L 16.18616,7.5634916 15.555124,6.5999997 h -0.238726 c -0.130792,0 -0.255922,0.017199 -0.273124,0.040342 z"
       id="path6"
       style="fill:#00d4aa;fill-opacity:1;stroke-width:0.00298719" />
    <path
       d="M 22.842,16.000147 V 17.5 H 24.051498 25.261 V 17.211464 16.922929 H 24.361728 23.46244 v -0.345997 -0.346001 h 0.806117 0.806107 V 15.942395 15.653851 H 24.268557 23.46244 V 15.33643 15.019303 h 0.868224 0.868224 V 14.759651 14.5 H 24.020444 22.842 Z"
       id="path16"
       style="fill:#00d4aa;fill-opacity:1;stroke-width:0.00311972" />
    <path
       d="m 6.2001059,14.578828 c 0,0.06905 0.7722837,2.854883 0.808225,2.906522 0.017717,0.02881 0.1484696,0.05194 0.2910106,0.05194 h 0.2615484 l 0.089201,-0.305014 c 0.047348,-0.161205 0.1781938,-0.616019 0.2851,-1.001471 0.1069212,-0.39145 0.207949,-0.707866 0.2259269,-0.707866 0.029788,0 0.1961715,0.569793 0.5466774,1.830325 0.053607,0.184318 0.065379,0.190015 0.3266322,0.172614 l 0.2792214,-0.01745 0.374359,-1.323879 c 0.5169292,-1.847727 0.4989512,-1.640284 0.1425408,-1.640284 -0.3446086,0 -0.2674454,-0.138076 -0.5940917,1.110721 -0.095172,0.374048 -0.1840706,0.690766 -0.1961679,0.707887 -0.01775,0.01177 -0.1425278,-0.391473 -0.2851048,-0.8979 l -0.2553651,-0.926722 -0.3328495,0.01748 -0.326937,0.01717 -0.2733385,0.94983 C 7.4120409,16.040563 7.2756852,16.426325 7.2635878,16.386099 7.2458684,16.340203 7.1386403,15.902466 7.025899,15.42486 L 6.8238296,14.544376 H 6.5148551 C 6.3425578,14.544376 6.2,14.561546 6.2,14.578866 Z"
       id="path18"
       style="fill:#00d4aa;fill-opacity:1;stroke-width:0.00305011" />
    <path
       d="m 20.942936,24.588989 v 0 c 0.499501,-0.285501 1.139501,-0.112506 1.428002,0.385498 v 0 c 0.2885,0.498002 0.117009,1.137002 -0.383002,1.425002 v 0 c -1.943501,1.119001 -4.160003,1.670002 -6.397006,1.593502 -2.028502,-0.06901 -4.008005,-0.653502 -5.7525078,-1.694502 v 0 c -0.494,-0.296001 -0.6545,-0.938001 -0.3585,-1.432002 v 0 c 0.296501,-0.493999 0.9380018,-0.654501 1.4325028,-0.358501 v 0 c 1.437501,0.863502 3.070503,1.342002 4.749505,1.399503 1.851502,0.06299 3.678004,-0.3915 5.281006,-1.3185 z M 24.87394,11.577972 v 0 c -0.259001,-0.516001 -0.0505,-1.144001 0.4655,-1.401502 v 0 c 0.516,-0.2574996 1.142502,-0.048 1.399003,0.468001 v 0 c 0.894,1.784502 1.322501,3.767504 1.2545,5.764507 -0.05201,1.522501 -0.39,3.019502 -1.001501,4.408504 v 0 c -0.231,0.528 -0.847501,0.769 -1.375501,0.537501 v 0 c -0.528,-0.231 -0.769001,-0.847502 -0.537501,-1.375502 v 0 c 0.509,-1.147 0.786,-2.385003 0.828501,-3.641503 0.05649,-1.648002 -0.3,-3.283504 -1.033001,-4.760006 z M 11.705426,7.0674674 v 0 c -0.518501,0.2475 -1.142502,0.0275 -1.393002,-0.491001 v 0 c -0.250002,-0.518501 -0.0325,-1.143001 0.486001,-1.393001 v 0 c 1.746001,-0.838501 3.670504,-1.242502 5.610506,-1.176502 1.866502,0.0635 3.698004,0.559501 5.337506,1.456002 v 0 c 0.5065,0.2765 0.693,0.912001 0.4165,1.418501 v 0 c -0.2765,0.506001 -0.912,0.692501 -1.418501,0.416001 v 0 c -1.353002,-0.740501 -2.863503,-1.152001 -4.406505,-1.205002 -1.601002,-0.0545 -3.189004,0.278001 -4.632505,0.975002 z M 6.5949192,19.14548 v 0 c 0.1835,0.545001 -0.1115,1.136502 -0.658001,1.319502 v 0 c -0.546501,0.183 -1.139001,-0.113501 -1.322001,-0.661002 v 0 c -0.449501,-1.357001 -0.656502,-2.784001 -0.608001,-4.213003 0.0645,-1.887503 0.571,-3.739005 1.489002,-5.394007 v 0 c 0.2765,-0.5034996 0.9105,-0.6855006 1.415501,-0.4059996 v 0 c 0.505001,0.2795006 0.688001,0.9150006 0.408501,1.4185016 v 0 c -0.756501,1.368 -1.174002,2.893503 -1.227502,4.452504 -0.04,1.184001 0.128501,2.359003 0.502501,3.483504 z M 20.055466,5.9999924 Z M 8.6809212,22.881485 c -0.0195,0.5755 -0.5025,1.027002 -1.078001,1.0075 -0.576001,-0.01999 -1.027001,-0.502999 -1.007501,-1.078501 0.0195,-0.575501 0.503,-1.026999 1.078501,-1.007501 0.5755,0.0195 1.027001,0.503001 1.007001,1.078502 z m 16.7045198,0.5695 c 0.0195,-0.5755 -0.432002,-1.0585 -1.007502,-1.078501 -0.575501,-0.0195 -1.058501,0.432 -1.0785,1.007502 -0.0195,0.575499 0.432,1.059 1.007499,1.078501 0.575502,0.01949 1.059002,-0.432 1.078503,-1.007502 z M 9.4324222,7.8879684 c 0.0195,-0.575501 -0.4315,-1.059002 -1.007001,-1.078502 -0.576001,-0.0195 -1.059001,0.432001 -1.078501,1.007501 -0.02,0.575501 0.4315,1.058502 1.007001,1.078502 0.576001,0.0195 1.059001,-0.432001 1.078501,-1.007501 z"
       fill-rule="evenodd"
       id="path8-4"
       style="isolation:isolate;fill:#00d4aa;fill-opacity:1;stroke-width:0.500001"
       sodipodi:nodetypes="sssssscsssssscssssssscsssssscsssssssssssssscssssssscsssssscscccccccsscscccsscccs" />
    <ellipse
       cx="24.037933"
       cy="8.3921309"
       id="circle4-20-6-84-9"
       style="fill:#00d4aa;fill-opacity:1;stroke-width:0.879866"
       rx="1.1"
       ry="1.0996659" />
    <path
       d="m 10.000001,16 c 0,3.308472 2.691535,6 5.999999,6 3.308477,0 6.000001,-2.691528 6.000001,-6 0,-3.308462 -2.691524,-6 -6.000001,-6 -3.308464,0 -5.999999,2.691538 -5.999999,6 z M 16,11.548392 c 2.454517,0 4.45162,1.997097 4.45162,4.451608 0,2.454513 -1.997103,4.451617 -4.45162,4.451617 -2.454505,0 -4.451608,-1.997104 -4.451608,-4.451617 0,-2.454511 1.997103,-4.451608 4.451608,-4.451608 z"
       id="path1-1"
       style="fill:#00d4aa;fill-opacity:1;stroke-width:0.387102" />
  </g>
  <g
     id="22-22-compass"
     transform="translate(32,9.9999997)">
    <path
       style="clip-rule:evenodd;fill:url(#linearGradient22);fill-opacity:0;fill-rule:evenodd;stroke-width:0.688964;stroke-linejoin:round;stroke-miterlimit:1.41421"
       d="M 0,0 V 22 H 22 V 0 Z"
       id="rect817-5"
       inkscape:connector-curvature="0" />
    <path
       d="M 10.404057,9.6505036 C 9.4194219,10.087613 9.1937639,11.249901 9.952242,11.983755 c 0.605361,0.585697 1.49014,0.585697 2.095512,0 0.758487,-0.733854 0.532807,-1.896142 -0.451758,-2.3332514 -0.469238,-0.200671 -0.722238,-0.200671 -1.191939,0 z"
       id="path20-3"
       style="fill:#00d4aa;fill-opacity:1;stroke-width:0.00463387" />
    <path
       d="m 10.716495,16.62959 c -0.328265,0.104866 -0.497139,0.328261 -0.497139,0.642937 0,0.392228 0.177939,0.547317 0.85275,0.729774 0.205253,0.05477 0.405774,0.136804 0.446916,0.182422 0.10039,0.113957 0.05476,0.255465 -0.113981,0.342055 -0.346544,0.177902 -0.820847,-0.01835 -0.820847,-0.337538 0,-0.08208 -0.02736,-0.09594 -0.228115,-0.09594 H 10.128 v 0.159614 c 0,0.209788 0.09106,0.38318 0.291848,0.560877 0.182426,0.159597 0.392236,0.214311 0.766155,0.20526 0.510685,-0.01278 0.884828,-0.36011 0.84368,-0.784461 -0.03657,-0.364861 -0.259982,-0.547316 -0.839171,-0.697643 -0.44694,-0.113948 -0.515445,-0.150563 -0.515445,-0.287326 0,-0.146036 0.118715,-0.205289 0.405787,-0.205289 0.255461,0 0.415058,0.104866 0.415058,0.269029 0,0.127688 0.06845,0.155093 0.27355,0.118518 0.168653,-0.02736 0.182448,-0.04116 0.182448,-0.177932 0,-0.186945 -0.159601,-0.428619 -0.355606,-0.542554 -0.168414,-0.1002 -0.679326,-0.145797 -0.879841,-0.08186 z"
       id="path22-6"
       style="fill:#00d4aa;fill-opacity:1;stroke-width:0.00237858" />
    <path
       d="M 10.19604,3.2320722 C 10.17774,3.2462252 10.164,3.7827261 10.164,4.4250603 V 5.586 h 0.229492 0.22951 l 0.0093,-0.7478824 0.01479,-0.7433191 0.500163,0.7433191 L 11.647344,5.586 h 0.224958 0.220178 V 4.3929961 3.2 H 11.862799 11.633285 V 3.9662869 4.7371297 L 11.119505,3.9662869 10.610246,3.2 h -0.192737 c -0.105514,0 -0.20651,0.014011 -0.220394,0.032145 z"
       id="path6-5"
       style="fill:#00d4aa;fill-opacity:1;stroke-width:0.00239315" />
    <path
       d="M 16.8,11.343123 V 12.586 h 0.932228 0.932224 v -0.239107 -0.239082 h -0.693119 -0.693118 v -0.286723 -0.286741 h 0.621302 0.621318 V 11.295266 11.05616 H 17.899517 17.278215 V 10.793121 10.53033 h 0.669167 0.669182 V 10.315162 10.1 H 17.70829 16.8 Z"
       id="path16-9"
       style="fill:#00d4aa;fill-opacity:1;stroke-width:0.00249321" />
    <path
       d="m 3.0001146,10.26184 c 0,0.05505 0.5957939,2.273673 0.6235202,2.31479 0.014001,0.02301 0.1144994,0.04137 0.224507,0.04137 H 4.049918 l 0.068881,-0.242915 c 0.036453,-0.128351 0.1374353,-0.490593 0.219942,-0.797583 0.082553,-0.311747 0.160431,-0.563747 0.1743009,-0.563747 0.023079,0 0.1513233,0.453784 0.4217458,1.457683 0.041277,0.146798 0.050383,0.151336 0.2519862,0.137531 l 0.2154121,-0.01486 0.2888137,-1.054356 c 0.3987853,-1.471409 0.3849175,-1.306197 0.1098377,-1.306197 -0.2658557,0 -0.2063173,-0.109881 -0.4583191,0.884588 -0.073367,0.297965 -0.1420624,0.550203 -0.1513363,0.563831 -0.014001,0.0094 -0.10985,-0.31177 -0.2199446,-0.7151 l -0.1970013,-0.738068 -0.2567858,0.01413 -0.2522186,0.01413 -0.2108733,0.756449 c -0.1193492,0.412609 -0.2244941,0.71984 -0.233827,0.687792 -0.014,-0.03648 -0.096469,-0.385168 -0.1833691,-0.765534 L 3.4812657,10.234586 H 3.2429037 C 3.1099794,10.234586 3,10.248581 3,10.262004 Z"
       id="path18-1"
       style="fill:#00d4aa;fill-opacity:1;stroke-width:0.00239077" />
    <path
       d="m 15.119111,18.157498 v 0 c 0.416254,-0.237929 0.949594,-0.09375 1.190002,0.321236 v 0 c 0.240418,0.415004 0.09751,0.947509 -0.319164,1.187508 v 0 c -1.619586,0.9325 -3.466656,1.391668 -5.330844,1.327917 -1.6904011,-0.0575 -3.3400021,-0.544585 -4.7937551,-1.412082 v 0 c -0.411649,-0.24667 -0.545415,-0.78167 -0.298742,-1.193344 v 0 c 0.247094,-0.411654 0.781676,-0.545417 1.193745,-0.298747 v 0 c 1.197933,0.719584 2.558751,1.118334 3.9579371,1.166257 1.542909,0.05252 3.065004,-0.326254 4.400821,-1.098745 z M 18.394949,7.3149706 v 0 c -0.215835,-0.430001 -0.0421,-0.953321 0.387932,-1.167908 v 0 c 0.43,-0.214579 0.952069,-0.04 1.165825,0.390001 v 0 c 0.745,1.487075 1.102085,3.1395884 1.045412,4.8037524 -0.04327,1.268742 -0.325,2.516256 -0.834583,3.673745 v 0 c -0.192486,0.44 -0.706235,0.64084 -1.146235,0.447934 v 0 c -0.44,-0.192513 -0.640838,-0.706255 -0.447932,-1.146255 v 0 c 0.424165,-0.95584 0.655,-1.987517 0.69042,-3.034588 0.04711,-1.373348 -0.25,-2.7362594 -0.860839,-3.9666814 z M 7.4211919,3.5562266 v 0 c -0.432089,0.206254 -0.952089,0.02292 -1.16084,-0.4091669 v 0 c -0.208324,-0.432095 -0.02705,-0.9525131 0.405001,-1.160835 v 0 c 1.455001,-0.698747 3.058752,-1.03542197 4.6754251,-0.980422 1.555422,0.0529 3.08168,0.466255 4.447927,1.213328 v 0 c 0.422079,0.2304159 0.577499,0.760001 0.347079,1.1820949 v 0 c -0.230419,0.4216741 -0.76,0.577075 -1.182079,0.346674 v 0 c -1.127504,-0.617094 -2.386248,-0.96 -3.672087,-1.0041889 -1.334163,-0.04536 -2.6575141,0.231675 -3.8604261,0.8125159 z M 3.1624449,13.621239 v 0 c 0.152905,0.454161 -0.09295,0.94707 -0.548344,1.099582 v 0 c -0.455404,0.152488 -0.949172,-0.09461 -1.101658,-0.550842 v 0 c -0.374585,-1.130835 -0.54709604,-2.320001 -0.50668,-3.510837 0.0537,-1.5729093 0.475839,-3.1158394 1.240841,-4.4950063 v 0 c 0.23042,-0.419586 0.758746,-0.571235 1.179581,-0.338326 v 0 c 0.420841,0.2329069 0.573328,0.7624929 0.340421,1.1820919 v 0 c -0.630421,1.14 -0.978328,2.4112384 -1.022908,3.7104024 -0.03326,0.986672 0.107068,1.96584 0.418747,2.902935 z M 14.379554,2.6666656 Z M 4.9007679,16.734564 c -0.0163,0.479582 -0.418741,0.855842 -0.898322,0.839582 -0.480001,-0.01671 -0.855841,-0.419161 -0.839586,-0.898743 0.0163,-0.479581 0.419165,-0.855839 0.898746,-0.839581 0.47958,0.0163 0.855841,0.419161 0.839162,0.898742 z m 13.9204401,0.474582 c 0.0163,-0.479582 -0.360002,-0.882069 -0.839582,-0.898743 -0.479581,-0.0163 -0.882095,0.36 -0.898746,0.839582 -0.0163,0.47958 0.36,0.882511 0.83958,0.898748 0.479587,0.01628 0.882489,-0.359998 0.898748,-0.839587 z M 5.5270279,4.2399676 c 0.0163,-0.479581 -0.35958,-0.882488 -0.839166,-0.898742 -0.480001,-0.0163 -0.882512,0.360001 -0.89876,0.839581 -0.01674,0.4795811 0.359598,0.8820941 0.839179,0.898742 0.480001,0.0163 0.882487,-0.360001 0.898747,-0.839581 z"
       fill-rule="evenodd"
       id="path8-4-6"
       style="isolation:isolate;fill:#00d4aa;fill-opacity:1;stroke-width:0.416675"
       sodipodi:nodetypes="sssssscsssssscssssssscsssssscsssssssssssssscssssssscsssssscscccccccsscscccsscccs" />
    <ellipse
       cx="17.698357"
       cy="4.6601005"
       id="circle4-20-6-84-9-6"
       style="fill:#00d4aa;fill-opacity:1;stroke-width:0.733226"
       rx="0.91666615"
       ry="0.91638875" />
    <path
       d="m 6.0000001,11 c 0,2.757063 2.2429425,5 4.9999999,5 2.757065,0 5,-2.242937 5,-5 C 16,8.242947 13.757065,6 11,6 8.2429426,6 6.0000001,8.242947 6.0000001,11 Z M 11,7.290324 c 2.045423,0 3.709683,1.664252 3.709683,3.709676 0,2.045424 -1.66426,3.70968 -3.709683,3.70968 C 8.9545755,14.70968 7.290324,13.045424 7.290324,11 7.290324,8.954576 8.9545755,7.290324 11,7.290324 Z"
       id="path1-1-4"
       style="fill:#00d4aa;fill-opacity:1;stroke-width:0.322583" />
  </g>
</svg>
