<?xml version="1.0" encoding="UTF-8" standalone="no"?>
<svg
   id="svg2"
   viewBox="0 0 32 32"
   version="1.1"
   sodipodi:docname="configure.svg"
   width="32"
   height="32"
   inkscape:version="1.3 (0e150ed6c4, 2023-07-21)"
   xmlns:inkscape="http://www.inkscape.org/namespaces/inkscape"
   xmlns:sodipodi="http://sodipodi.sourceforge.net/DTD/sodipodi-0.dtd"
   xmlns:xlink="http://www.w3.org/1999/xlink"
   xmlns="http://www.w3.org/2000/svg"
   xmlns:svg="http://www.w3.org/2000/svg">
  <defs
     id="defs15">
    <linearGradient
       id="linearGradient1"
       inkscape:collect="always">
      <stop
         style="stop-color:#058bce;stop-opacity:1;"
         offset="0"
         id="stop1" />
      <stop
         style="stop-color:#00d4aa;stop-opacity:1"
         offset="1"
         id="stop2" />
    </linearGradient>
    <linearGradient
       inkscape:collect="always"
       xlink:href="#linearGradient1"
       id="linearGradient2"
       x1="26"
       y1="25"
       x2="50"
       y2="6"
       gradientUnits="userSpaceOnUse" />
    <linearGradient
       inkscape:collect="always"
       xlink:href="#linearGradient1"
       id="linearGradient4"
       x1="4"
       y1="28"
       x2="18"
       y2="14"
       gradientUnits="userSpaceOnUse" />
    <linearGradient
       inkscape:collect="always"
       xlink:href="#linearGradient1"
       id="linearGradient6"
       x1="2.75"
       y1="27.875"
       x2="17.875"
       y2="14.125"
       gradientUnits="userSpaceOnUse" />
  </defs>
  <sodipodi:namedview
     id="namedview13"
     pagecolor="#02334b"
     bordercolor="#000000"
     borderopacity="1"
     inkscape:pageshadow="2"
     inkscape:pageopacity="0.0"
     inkscape:pagecheckerboard="true"
     showgrid="true"
     inkscape:showpageshadow="true"
     inkscape:lockguides="false"
     inkscape:zoom="9.7681464"
     inkscape:cx="3.4295145"
     inkscape:cy="16.738078"
     inkscape:window-width="1920"
     inkscape:window-height="994"
     inkscape:window-x="0"
     inkscape:window-y="0"
     inkscape:window-maximized="1"
     inkscape:current-layer="svg2"
     inkscape:deskcolor="#02334b">
    <inkscape:grid
       id="grid1"
       units="px"
       originx="0"
       originy="0"
       spacingx="1"
       spacingy="1"
       empcolor="#0099e5"
       empopacity="0.30196078"
       color="#0099e5"
       opacity="0.14901961"
       empspacing="5"
       dotted="false"
       gridanglex="30"
       gridanglez="30"
       visible="true" />
  </sodipodi:namedview>
  <style
     type="text/css"
     id="current-color-scheme" />
  <g
     id="22-22-configure"
     transform="translate(-22)">
    <path
       id="path7"
       d="m 11.5,13 c -1.21321,0 -2.2202619,0.85686 -2.4511719,2 H 3 v 1 h 6.0488281 c 0.23019,1.14407 1.2373119,2 2.4511719,2 1.21386,0 2.219019,-0.85593 2.449219,-2 H 19 V 15 H 13.949219 C 13.718309,13.85686 12.7132,13 11.5,13 Z m -6,11 C 4.115,24 3,25.115 3,26.5 3,27.885 4.115,29 5.5,29 6.71386,29 7.7190188,28.14407 7.9492188,27 H 19 V 26 H 7.9492188 C 7.7183087,24.85686 6.7132,24 5.5,24 Z m 0,1 C 6.331,25 7,25.669 7,26.5 7,27.331 6.331,28 5.5,28 4.669,28 4,27.331 4,26.5 4,25.669 4.669,25 5.5,25 Z"
       style="fill:url(#linearGradient4);fill-opacity:1" />
    <path
       id="path9"
       d="M 0,10 V 32 H 22 V 10 Z"
       fill="none" />
  </g>
  <g
     id="configure"
     transform="translate(-22)">
    <path
       id="path11"
       d="M 40.5,6 A 3.5,3.5 0 0 0 37.041016,9 H 26 v 1 H 37.039062 A 3.5,3.5 0 0 0 40.5,13 3.5,3.5 0 0 0 43.958984,10 H 50 V 9 H 43.960938 A 3.5,3.5 0 0 0 40.5,6 Z m -11,13 A 3.5,3.5 0 0 0 26,22.5 3.5,3.5 0 0 0 29.5,26 3.5,3.5 0 0 0 32.960938,23 H 50 V 22 H 32.958984 A 3.5,3.5 0 0 0 29.5,19 Z m 0,1 A 2.5,2.5 0 0 1 32,22.5 2.5,2.5 0 0 1 29.5,25 2.5,2.5 0 0 1 27,22.5 2.5,2.5 0 0 1 29.5,20 Z"
       style="fill:url(#linearGradient2);fill-opacity:1" />
    <path
       id="path14"
       d="M 22,0 V 32 H 54 V 0 Z"
       fill="none" />
  </g>
  <g
     id="16-16-configure"
     transform="matrix(0.72727273,0,0,0.72727273,-38,8.727273)">
    <path
       id="path9-7"
       d="M 0,10 V 32 H 22 V 10 Z"
       fill="none" />
    <path
       id="path4"
       d="m 13.75,13.4375 c -1.281473,0 -2.358864,0.876289 -2.664063,2.0625 H 2.75 v 1.375 h 8.335937 c 0.305199,1.186212 1.38259,2.0625 2.664063,2.0625 1.281474,0 2.358863,-0.876288 2.664062,-2.0625 H 19.25 V 15.5 H 16.414062 C 16.108863,14.313789 15.031474,13.4375 13.75,13.4375 Z m -6.875,9.625 c -1.281474,0 -2.358864,0.876289 -2.664063,2.0625 H 2.75 V 26.5 h 1.460937 c 0.305199,1.186211 1.382589,2.0625 2.664063,2.0625 1.281474,0 2.358864,-0.876289 2.664062,-2.0625 h 9.71094 V 25.125 H 9.539062 C 9.233864,23.938789 8.156474,23.0625 6.875,23.0625 Z m 0,1.375 c 0.759385,0 1.375,0.615615 1.375,1.375 0,0.759385 -0.615615,1.375 -1.375,1.375 -0.759385,0 -1.375,-0.615615 -1.375,-1.375 0,-0.759385 0.615615,-1.375 1.375,-1.375 z"
       style="fill:url(#linearGradient6);fill-opacity:1" />
  </g>
</svg>
