<?xml version="1.0" encoding="UTF-8" standalone="no"?>
<svg
   width="32"
   height="32"
   version="1.1"
   id="svg78"
   sodipodi:docname="disk.svg"
   inkscape:version="1.3 (0e150ed6c4, 2023-07-21)"
   xmlns:inkscape="http://www.inkscape.org/namespaces/inkscape"
   xmlns:sodipodi="http://sodipodi.sourceforge.net/DTD/sodipodi-0.dtd"
   xmlns:xlink="http://www.w3.org/1999/xlink"
   xmlns="http://www.w3.org/2000/svg"
   xmlns:svg="http://www.w3.org/2000/svg">
  <g
     id="22-22-disk-quota-missing"
     transform="translate(128,-22)">
    <rect
       style="opacity:0.00100002"
       width="22"
       height="22"
       x="0"
       y="0"
       id="rect34" />
    <path
       d="M 16.57143,3 H 5.42859 C 4.64287,3 4,3.6 4,4.333332 V 17.666665 C 4,18.4 4.64287,19 5.42859,19 H 16.57143 C 17.35715,19 18,18.4 18,17.666665 V 4.333332 C 18,3.6 17.35715,3 16.57143,3 Z M 17,17 c 0,1 0,1 -1,1 H 6 C 5,18 5,18 5,17 V 5 C 5,4 5,4 6,4 h 10 c 1,0 1,0 1,1 z"
       id="path2-3-3-3-0-36"
       style="fill:#d3dae3;fill-opacity:0.4;stroke-width:0.345031"
       sodipodi:nodetypes="ssssssssscscccsscc" />
    <path
       d="M 15.354,16 H 6.75513 C 6.44823,16 6.2,16.199407 6.2,16.44439 v 0.111612 C 6.2,16.801302 6.44836,17 6.75513,17 H 15.354 c 0.30652,0 0.555,-0.198695 0.555,-0.443998 V 16.44439 C 15.909,16.199601 15.66052,16 15.354,16 Z M 15.0056,16.99364 7,17.00004 l -0.003,-0.0039 -4e-4,9.06e-4 8.0034,0.003 0.003,-0.0031 -9.7e-4,-0.0033 z"
       id="path79-3-8-1"
       style="fill:#d3dae3;fill-opacity:0.4;stroke-width:0.0292304"
       sodipodi:nodetypes="ssssssssssccccccs" />
    <path
       d="M 11,6 C 9.93922,6 8.92188,6.421585 8.1716,7.171595 7.42159,7.921824 7,8.939157 7,10 7,11.060843 7.42158,12.07812 8.1716,12.828407 8.92183,13.578411 9.93916,14 11,14 c 1.06084,0 2.07812,-0.421585 2.8284,-1.171593 0.75001,-0.750231 1.17161,-1.767566 1.17161,-2.828408 C 14.99901,8.939608 14.57687,7.922953 13.82682,7.173174 13.07699,6.423172 12.06033,6.001356 11,6 Z m 0,7.010693 v 2.27e-4 l -0.008,0.03445 v 0 0 0 0 0 0 0 z"
       id="path74-6-6-2"
       style="fill:#d3dae3;fill-opacity:0.4;stroke-width:0.0565059"
       sodipodi:nodetypes="ccscsccccccccccccccc" />
    <path
       d="M 11,8 C 10.46961,8 9.96094,8.210792 9.5858,8.585797 9.21079,8.960912 9,9.469577 9,9.999999 9,10.530423 9.21079,11.039057 9.5858,11.414204 9.96091,11.789205 10.46958,12 11,12 11.53042,12 12.03906,11.789207 12.4142,11.414204 12.7892,11.039087 13,10.530417 13,9.999999 12.99943,9.469803 12.78843,8.961476 12.41341,8.586586 12.03849,8.211585 11.53016,8.000677 11,8 Z m 0,3.505348 v 1.15e-4 l -0.004,0.01722 v 0 0 0 0 0 0 0 z"
       id="path74-6-7-7-93"
       style="fill:#000000;fill-opacity:0.395793;stroke-width:0.0282529"
       sodipodi:nodetypes="ccscsccccccccccccccc" />
  </g>
  <sodipodi:namedview
     id="namedview80"
     pagecolor="#02334b"
     bordercolor="#000000"
     borderopacity="1"
     inkscape:pageshadow="2"
     inkscape:pageopacity="0.0"
     inkscape:pagecheckerboard="true"
     showgrid="true"
     inkscape:zoom="5.6856054"
     inkscape:cx="80.554306"
     inkscape:cy="19.786811"
     inkscape:window-width="1920"
     inkscape:window-height="994"
     inkscape:window-x="0"
     inkscape:window-y="0"
     inkscape:window-maximized="1"
     inkscape:current-layer="svg78"
     showguides="false"
     inkscape:lockguides="true"
     inkscape:showpageshadow="true"
     inkscape:deskcolor="#02334b">
    <inkscape:grid
       type="xygrid"
       id="grid1005"
       originx="0"
       originy="0"
       spacingy="1"
       spacingx="1"
       units="px"
       visible="true" />
  </sodipodi:namedview>
  <defs
     id="nova">
    <linearGradient
       id="linearGradient1"
       inkscape:collect="always">
      <stop
         style="stop-color:#00aa44;stop-opacity:1"
         offset="0"
         id="stop1" />
      <stop
         style="stop-color:#2aff80;stop-opacity:1"
         offset="1"
         id="stop2" />
    </linearGradient>
    <style
       id="current-color-scheme"
       type="text/css">&#10;   .ColorScheme-Background {color:#181818; } .ColorScheme-ButtonBackground { color:#343434; } .ColorScheme-Highlight { color:#4285f4; } .ColorScheme-Text { color:#dfdfdf; } .ColorScheme-ViewBackground { color:#242424; } .ColorScheme-NegativeText { color:#f44336; } .ColorScheme-PositiveText { color:#4caf50; } .ColorScheme-NeutralText { color:#ff9800; }&#10;  </style>
    <linearGradient
       inkscape:collect="always"
       xlink:href="#linearGradient1"
       id="linearGradient2"
       x1="6"
       y1="25.999996"
       x2="27"
       y2="8.6129236"
       gradientUnits="userSpaceOnUse" />
    <linearGradient
       inkscape:collect="always"
       xlink:href="#linearGradient1"
       id="linearGradient4"
       x1="4"
       y1="-3"
       x2="17"
       y2="-15.221187"
       gradientUnits="userSpaceOnUse" />
    <linearGradient
       inkscape:collect="always"
       xlink:href="#linearGradient1"
       id="linearGradient6"
       x1="8.75"
       y1="24"
       x2="23.31291"
       y2="24"
       gradientUnits="userSpaceOnUse" />
    <linearGradient
       inkscape:collect="always"
       xlink:href="#linearGradient1"
       id="linearGradient8"
       x1="10"
       y1="20"
       x2="19.000008"
       y2="12"
       gradientUnits="userSpaceOnUse" />
    <linearGradient
       inkscape:collect="always"
       xlink:href="#linearGradient1"
       id="linearGradient10"
       x1="6.1999998"
       y1="-5.5"
       x2="15.909"
       y2="-5.5"
       gradientUnits="userSpaceOnUse" />
    <linearGradient
       inkscape:collect="always"
       xlink:href="#linearGradient1"
       id="linearGradient12"
       x1="6.9999952"
       y1="-8"
       x2="13.000002"
       y2="-14"
       gradientUnits="userSpaceOnUse" />
  </defs>
  <g
     transform="matrix(1.5,0,0,1.5,132,4.0003)"
     id="g75" />
  <g
     id="disk-quota">
    <rect
       style="opacity:0.00100002;fill:#d3dae3;fill-opacity:1"
       width="32"
       height="32"
       x="0"
       y="0"
       id="rect41" />
    <path
       d="M 24.755108,4 H 7.244921 C 6.010227,4 5,4.9 5,5.999998 V 25.999997 C 5,27.1 6.010227,28 7.244921,28 H 24.755108 C 25.989803,28 27,27.1 27,25.999997 V 5.999998 C 27,4.9 25.989803,4 24.755108,4 Z M 26,25.999997 c 0,0.549995 -0.627569,0.999995 -1.244892,0.999995 H 7.244921 C 6.627548,26.999992 6,26.549992 6,25.999997 V 5.999998 C 6,5.45 6.627548,5 7.244921,5 H 24.755108 C 25.372431,5 26,5.45 26,5.999998 Z"
       id="path2-3-3-3"
       style="fill:url(#linearGradient2);fill-opacity:1;stroke-width:0.529727"
       sodipodi:nodetypes="ssssssssssssssssss" />
    <path
       d="M 22.48045,23 H 9.58266 C 9.12233,23 8.75,23.398817 8.75,23.888782 v 0.22322 C 8.75,24.602602 9.12252,25 9.58266,25 h 12.89779 c 0.45976,0 0.83246,-0.397387 0.83246,-0.887998 v -0.22322 C 23.31291,23.399203 22.9402,23 22.48045,23 Z M 22,25 H 10 v 0 0 z"
       id="path79-3"
       style="fill:url(#linearGradient6);fill-opacity:1;stroke-width:0.0506274"
       sodipodi:nodetypes="sssssssssccccccc" />
    <path
       d="M 16,9 C 14.408828,9 12.882825,9.632377 11.757396,10.757392 10.632384,11.882736 9.999993,13.408736 9.999993,15 c 0,1.591264 0.632374,3.11718 1.757403,4.242611 C 12.882738,20.367616 14.408741,21 16,21 c 1.591259,0 3.117178,-0.632377 4.242604,-1.757389 1.125012,-1.125347 1.757405,-2.651349 1.757405,-4.242613 -0.0017,-1.590586 -0.63471,-3.115569 -1.759775,-4.240237 C 19.11548,9.634758 17.590498,9.002034 16,9 Z m 0,10.516039 v 3.41e-4 l -0.01144,0.05168 v 0 0 0 0 0 0 0 z"
       id="path74-6"
       style="fill:url(#linearGradient8);fill-opacity:1;stroke-width:0.0847589"
       sodipodi:nodetypes="ccscsccccccccccccccc" />
    <path
       d="M 16.000003,12 C 15.204415,12 14.44142,12.31619 13.878701,12.878697 13.316196,13.44137 13,14.204364 13,15 c 0,0.795636 0.316189,1.558594 0.878701,2.121304 C 14.441374,17.683807 15.204377,18 16.000003,18 c 0.795634,0 1.558593,-0.31619 2.121301,-0.878696 0.562506,-0.562674 0.878703,-1.325669 0.878703,-2.121305 -8.6e-4,-0.795294 -0.317353,-1.557784 -0.87989,-2.120115 C 17.55774,12.317382 16.795251,12.001017 16.000003,12 Z m -0.0058,5.28403 z"
       id="path74-6-3-3"
       style="fill:#000000;fill-opacity:1;stroke-width:0.0423793"
       sodipodi:nodetypes="ccscsccccccccccccc" />
  </g>
  <g
     id="22-22-disk-quota">
    <rect
       style="opacity:0.00100002;fill:#d3dae3;fill-opacity:1"
       width="22"
       height="22"
       x="0"
       y="-22"
       id="rect4" />
    <path
       d="M 16.571432,-19 H 5.428586 C 4.6428722,-19 4,-18.4 4,-17.666668 V -4.333335 C 4,-3.6 4.6428722,-3 5.428586,-3 H 16.571432 C 17.357149,-3 18,-3.6 18,-4.333335 V -17.666668 C 18,-18.4 17.357149,-19 16.571432,-19 Z M 17,-5 c 0,1 0,1 -1,1 H 6 C 5,-4 5,-4 5,-5 v -12 c 0,-1 0,-1 1,-1 h 10 c 1,0 1,0 1,1 z"
       id="path2-3-3-3-0"
       style="fill:url(#linearGradient4);fill-opacity:1;stroke-width:0.345031"
       sodipodi:nodetypes="ssssssssscscccsscc" />
    <path
       d="M 15.354003,-6 H 6.7551294 C 6.44823,-6 6.2,-5.800593 6.2,-5.55561 v 0.111612 C 6.2,-5.198698 6.4483571,-5 6.7551294,-5 H 15.354003 C 15.660523,-5 15.909,-5.198695 15.909,-5.443998 V -5.55561 C 15.909,-5.800399 15.660516,-6 15.354003,-6 Z M 15.005602,-5.00636 7,-5 6.99736,-5.0039 6.9969628,-5.002994 15,-5 l 0.0028,-0.0031 -9.69e-4,-0.0033 z"
       id="path79-3-8"
       style="fill:url(#linearGradient10);fill-opacity:1;stroke-width:0.0292304"
       sodipodi:nodetypes="ssssssssssccccccs" />
    <path
       d="m 11,-16 c -1.0607814,0 -2.0781167,0.421585 -2.8284027,1.171595 -0.750008,0.750229 -1.171602,1.767562 -1.171602,2.828405 0,1.060843 0.4215827,2.07812 1.171602,2.8284073 C 8.9218253,-8.4215893 9.9391606,-8 11,-8 c 1.060839,0 2.078119,-0.4215847 2.828403,-1.1715927 0.750008,-0.7502313 1.171603,-1.7675663 1.171603,-2.8284083 -0.0011,-1.060391 -0.42314,-2.077046 -1.173183,-2.826825 C 13.076987,-15.576828 12.060332,-15.998644 11,-16 Z m 0,7.0106927 v 2.273e-4 l -0.0076,0.034453 v 0 0 0 0 0 0 0 z"
       id="path74-6-6"
       style="fill:url(#linearGradient12);fill-opacity:1;stroke-width:0.0565059"
       sodipodi:nodetypes="ccscsccccccccccccccc" />
    <path
       d="m 11,-14 c -0.530392,0 -1.039056,0.210792 -1.414202,0.585797 -0.375003,0.375115 -0.585801,0.88378 -0.585801,1.414202 0,0.530424 0.210793,1.039058 0.585801,1.414205 C 9.960913,-10.210795 10.469583,-10 11,-10 c 0.530421,0 1.039061,-0.210793 1.414201,-0.585796 0.375003,-0.375117 0.585801,-0.883787 0.585801,-1.414205 -5.73e-4,-0.530196 -0.211569,-1.038523 -0.586592,-1.413413 C 12.038491,-13.788415 11.530165,-13.999323 11,-14 Z m 0,3.505348 v 1.15e-4 l -0.0038,0.01722 v 0 0 0 0 0 0 0 z"
       id="path74-6-7-7"
       style="fill:#000000;fill-opacity:1;stroke-width:0.0282529"
       sodipodi:nodetypes="ccscsccccccccccccccc" />
  </g>
  <g
     id="disk-quota-low"
     transform="translate(32)">
    <rect
       style="opacity:0.00100002"
       width="32"
       height="32"
       x="0"
       y="0"
       id="rect48" />
    <path
       d="M 24.755108,4 H 7.244921 C 6.010227,4 5,4.9 5,5.999998 V 25.999997 C 5,27.1 6.010227,28 7.244921,28 H 24.755108 C 25.989803,28 27,27.1 27,25.999997 V 5.999998 C 27,4.9 25.989803,4 24.755108,4 Z M 26,25.999997 c 0,0.549995 -0.627569,0.999995 -1.244892,0.999995 H 7.244921 C 6.627548,26.999992 6,26.549992 6,25.999997 V 5.999998 C 6,5.45 6.627548,5 7.244921,5 H 24.755108 C 25.372431,5 26,5.45 26,5.999998 Z"
       id="path2-3-3-3-3"
       style="fill:#058bce;fill-opacity:1;stroke-width:0.529727"
       sodipodi:nodetypes="ssssssssssssssssss" />
    <path
       d="M 22.48045,23 H 9.58266 C 9.12233,23 8.75,23.398817 8.75,23.888782 v 0.22322 C 8.75,24.602602 9.12252,25 9.58266,25 h 12.89779 c 0.45976,0 0.83246,-0.397387 0.83246,-0.887998 v -0.22322 C 23.31291,23.399203 22.9402,23 22.48045,23 Z M 22,25 H 10 v 0 0 z"
       id="path79-3-6"
       style="fill:#058bce;fill-opacity:1;stroke-width:0.0506274"
       sodipodi:nodetypes="sssssssssccccccc" />
    <path
       d="M 16,9 C 14.408828,9 12.882825,9.632377 11.757396,10.757392 10.632384,11.882736 9.999993,13.408736 9.999993,15 c 0,1.591264 0.632374,3.11718 1.757403,4.242611 C 12.882738,20.367616 14.408741,21 16,21 c 1.591259,0 3.117178,-0.632377 4.242604,-1.757389 1.125012,-1.125347 1.757405,-2.651349 1.757405,-4.242613 -0.0017,-1.590586 -0.63471,-3.115569 -1.759775,-4.240237 C 19.11548,9.634758 17.590498,9.002034 16,9 Z m 0,10.516039 v 3.41e-4 l -0.01144,0.05168 v 0 0 0 0 0 0 0 z"
       id="path74-6-7"
       style="fill:#058bce;fill-opacity:1;stroke-width:0.0847589"
       sodipodi:nodetypes="ccscsccccccccccccccc" />
    <path
       d="M 16.000003,12 C 15.204415,12 14.44142,12.31619 13.878701,12.878697 13.316196,13.44137 13,14.204364 13,15 c 0,0.795636 0.316189,1.558594 0.878701,2.121304 C 14.441374,17.683807 15.204377,18 16.000003,18 c 0.795634,0 1.558593,-0.31619 2.121301,-0.878696 0.562506,-0.562674 0.878703,-1.325669 0.878703,-2.121305 -8.6e-4,-0.795294 -0.317353,-1.557784 -0.87989,-2.120115 C 17.55774,12.317382 16.795251,12.001017 16.000003,12 Z m -0.0058,5.28403 z"
       id="path74-6-3-3-5"
       style="fill:#000000;fill-opacity:1;stroke-width:0.0423793"
       sodipodi:nodetypes="ccscsccccccccccccc" />
  </g>
  <g
     id="disk-quota-high"
     transform="translate(64)">
    <rect
       style="opacity:0.00100002"
       width="32"
       height="32"
       x="0"
       y="0"
       id="rect55" />
    <path
       d="M 24.755108,4 H 7.244921 C 6.010227,4 5,4.9 5,5.999998 V 25.999997 C 5,27.1 6.010227,28 7.244921,28 H 24.755108 C 25.989803,28 27,27.1 27,25.999997 V 5.999998 C 27,4.9 25.989803,4 24.755108,4 Z M 26,25.999997 c 0,0.549995 -0.627569,0.999995 -1.244892,0.999995 H 7.244921 C 6.627548,26.999992 6,26.549992 6,25.999997 V 5.999998 C 6,5.45 6.627548,5 7.244921,5 H 24.755108 C 25.372431,5 26,5.45 26,5.999998 Z"
       id="path2-3-3-3-35"
       style="fill:#ff9955;fill-opacity:1;stroke-width:0.529727"
       sodipodi:nodetypes="ssssssssssssssssss" />
    <path
       d="M 22.48045,23 H 9.58266 C 9.12233,23 8.75,23.398817 8.75,23.888782 v 0.22322 C 8.75,24.602602 9.12252,25 9.58266,25 h 12.89779 c 0.45976,0 0.83246,-0.397387 0.83246,-0.887998 v -0.22322 C 23.31291,23.399203 22.9402,23 22.48045,23 Z M 22,25 H 10 v 0 0 z"
       id="path79-3-62"
       style="fill:#ff9955;fill-opacity:1;stroke-width:0.0506274"
       sodipodi:nodetypes="sssssssssccccccc" />
    <path
       d="M 16,9 C 14.408828,9 12.882825,9.632377 11.757396,10.757392 10.632384,11.882736 9.999993,13.408736 9.999993,15 c 0,1.591264 0.632374,3.11718 1.757403,4.242611 C 12.882738,20.367616 14.408741,21 16,21 c 1.591259,0 3.117178,-0.632377 4.242604,-1.757389 1.125012,-1.125347 1.757405,-2.651349 1.757405,-4.242613 -0.0017,-1.590586 -0.63471,-3.115569 -1.759775,-4.240237 C 19.11548,9.634758 17.590498,9.002034 16,9 Z m 0,10.516039 v 3.41e-4 l -0.01144,0.05168 v 0 0 0 0 0 0 0 z"
       id="path74-6-91"
       style="fill:#ff9955;fill-opacity:1;stroke-width:0.0847589"
       sodipodi:nodetypes="ccscsccccccccccccccc" />
    <path
       d="M 16.000003,12 C 15.204415,12 14.44142,12.31619 13.878701,12.878697 13.316196,13.44137 13,14.204364 13,15 c 0,0.795636 0.316189,1.558594 0.878701,2.121304 C 14.441374,17.683807 15.204377,18 16.000003,18 c 0.795634,0 1.558593,-0.31619 2.121301,-0.878696 0.562506,-0.562674 0.878703,-1.325669 0.878703,-2.121305 -8.6e-4,-0.795294 -0.317353,-1.557784 -0.87989,-2.120115 C 17.55774,12.317382 16.795251,12.001017 16.000003,12 Z m -0.0058,5.28403 z"
       id="path74-6-3-3-2"
       style="fill:#000000;fill-opacity:1;stroke-width:0.0423793"
       sodipodi:nodetypes="ccscsccccccccccccc" />
  </g>
  <g
     id="disk-quota-critical"
     transform="translate(96)">
    <rect
       style="opacity:0.00100002"
       width="32"
       height="32"
       x="0"
       y="0"
       id="rect64" />
    <path
       d="M 24.75511,4 H 7.24492 C 6.01023,4 5,4.9 5,5.999998 V 25.999997 C 5,27.1 6.01023,28 7.24492,28 H 24.75511 C 25.9898,28 27,27.1 27,25.999997 V 5.999998 C 27,4.9 25.9898,4 24.75511,4 Z M 26,25.999997 c 0,0.549995 -0.62757,0.999995 -1.24489,0.999995 H 7.24492 C 6.62755,26.999992 6,26.549992 6,25.999997 V 5.999998 C 6,5.45 6.62755,5 7.24492,5 H 24.75511 C 25.37243,5 26,5.45 26,5.999998 Z"
       id="path2-3-3-3-70"
       style="fill:#bf616a;fill-opacity:1;stroke-width:0.529727"
       sodipodi:nodetypes="ssssssssssssssssss" />
    <path
       d="M 22.48045,23 H 9.58266 C 9.12233,23 8.75,23.398817 8.75,23.888782 v 0.22322 C 8.75,24.602602 9.12252,25 9.58266,25 h 12.89779 c 0.45976,0 0.83246,-0.397387 0.83246,-0.887998 v -0.22322 C 23.31291,23.399203 22.9402,23 22.48045,23 Z M 22,25 H 10 v 0 0 z"
       id="path79-3-9"
       style="fill:#bf616a;fill-opacity:1;stroke-width:0.0506274"
       sodipodi:nodetypes="sssssssssccccccc" />
    <path
       d="M 16,9 C 14.40883,9 12.88282,9.632377 11.7574,10.757392 10.63238,11.882736 9.99999,13.408736 9.99999,15 c 0,1.591264 0.63238,3.11718 1.75741,4.242611 C 12.88274,20.367616 14.40874,21 16,21 c 1.59126,0 3.11718,-0.632377 4.2426,-1.757389 1.12502,-1.125347 1.75741,-2.651349 1.75741,-4.242613 -0.002,-1.590586 -0.63471,-3.115569 -1.75978,-4.240237 C 19.11548,9.634758 17.5905,9.002034 16,9 Z m 0,10.516039 v 3.41e-4 l -0.0114,0.05168 v 0 0 0 0 0 0 0 z"
       id="path74-6-36"
       style="fill:#bf616a;fill-opacity:1;stroke-width:0.0847589"
       sodipodi:nodetypes="ccscsccccccccccccccc" />
    <path
       d="m 16,12 c -0.79559,0 -1.55858,0.31619 -2.1213,0.878697 C 13.3162,13.44137 13,14.204364 13,15 c 0,0.795636 0.31619,1.558594 0.8787,2.121304 C 14.44137,17.683807 15.20438,18 16,18 c 0.79564,0 1.5586,-0.31619 2.1213,-0.878696 0.56251,-0.562674 0.87871,-1.325669 0.87871,-2.121305 -8.6e-4,-0.795294 -0.31736,-1.557784 -0.87989,-2.120115 C 17.55774,12.317382 16.79525,12.001017 16,12 Z m -0.006,5.28403 z"
       id="path74-6-3-3-0"
       style="fill:#000000;fill-opacity:1;stroke-width:0.0423793"
       sodipodi:nodetypes="ccscsccccccccccccc" />
  </g>
  <g
     id="22-22-disk-quota-low"
     transform="translate(32,-22)">
    <rect
       style="opacity:0.00100002"
       width="22"
       height="22"
       x="0"
       y="0"
       id="rect11" />
    <path
       d="M 16.571432,3 H 5.428586 C 4.642872,3 4,3.6 4,4.333332 V 17.666665 C 4,18.4 4.642872,19 5.428586,19 H 16.571432 C 17.357149,19 18,18.4 18,17.666665 V 4.333332 C 18,3.6 17.357149,3 16.571432,3 Z M 17,17 c 0,1 0,1 -1,1 H 6 C 5,18 5,18 5,17 V 5 C 5,4 5,4 6,4 h 10 c 1,0 1,0 1,1 z"
       id="path2-3-3-3-0-9"
       style="fill:#058bce;fill-opacity:1;stroke-width:0.345031"
       sodipodi:nodetypes="ssssssssscscccsscc" />
    <path
       d="M 15.354003,16 H 6.755129 C 6.44823,16 6.2,16.199407 6.2,16.44439 v 0.111612 C 6.2,16.801302 6.448357,17 6.755129,17 h 8.598874 C 15.660523,17 15.909,16.801305 15.909,16.556002 V 16.44439 C 15.909,16.199601 15.660516,16 15.354003,16 Z M 15.005602,16.99364 7,17.00004 l -0.0026,-0.0039 -3.97e-4,9.06e-4 8.002997,0.003 0.0028,-0.0031 -9.69e-4,-0.0033 z"
       id="path79-3-8-2"
       style="fill:#058bce;fill-opacity:1;stroke-width:0.0292304"
       sodipodi:nodetypes="ssssssssssccccccs" />
    <path
       d="M 11,6 C 9.939219,6 8.921883,6.421585 8.171597,7.171595 7.421589,7.921824 6.999995,8.939157 6.999995,10 c 0,1.060843 0.421583,2.07812 1.171602,2.828407 C 8.921825,13.578411 9.939161,14 11,14 c 1.060839,0 2.078119,-0.421585 2.828403,-1.171593 0.750008,-0.750231 1.171603,-1.767566 1.171603,-2.828408 C 14.998906,8.939608 14.576866,7.922953 13.826823,7.173174 13.076987,6.423172 12.060332,6.001356 11,6 Z m 0,7.010693 v 2.27e-4 l -0.0076,0.03445 v 0 0 0 0 0 0 0 z"
       id="path74-6-6-0"
       style="fill:#058bce;fill-opacity:1;stroke-width:0.0565059"
       sodipodi:nodetypes="ccscsccccccccccccccc" />
    <path
       d="M 11,8 C 10.469608,8 9.960944,8.210792 9.585798,8.585797 9.210795,8.960912 8.999997,9.469577 8.999997,9.999999 c 0,0.530424 0.210793,1.039058 0.585801,1.414205 C 9.960913,11.789205 10.469583,12 11,12 c 0.530421,0 1.039061,-0.210793 1.414201,-0.585796 0.375003,-0.375117 0.585801,-0.883787 0.585801,-1.414205 C 12.999429,9.469803 12.788433,8.961476 12.41341,8.586586 12.038491,8.211585 11.530165,8.000677 11,8 Z m 0,3.505348 v 1.15e-4 l -0.0038,0.01722 v 0 0 0 0 0 0 0 z"
       id="path74-6-7-7-2"
       style="fill:#000000;fill-opacity:1;stroke-width:0.0282529"
       sodipodi:nodetypes="ccscsccccccccccccccc" />
  </g>
  <g
     id="22-22-disk-quota-high"
     transform="translate(64,-22)">
    <rect
       style="opacity:0.00100002"
       width="22"
       height="22"
       x="0"
       y="0"
       id="rect18" />
    <path
       d="M 16.571432,3 H 5.428586 C 4.642872,3 4,3.6 4,4.333332 V 17.666665 C 4,18.4 4.642872,19 5.428586,19 H 16.571432 C 17.357149,19 18,18.4 18,17.666665 V 4.333332 C 18,3.6 17.357149,3 16.571432,3 Z M 17,17 c 0,1 0,1 -1,1 H 6 C 5,18 5,18 5,17 V 5 C 5,4 5,4 6,4 h 10 c 1,0 1,0 1,1 z"
       id="path2-3-3-3-0-3"
       style="fill:#ff9955;fill-opacity:1;stroke-width:0.345031"
       sodipodi:nodetypes="ssssssssscscccsscc" />
    <path
       d="M 15.354003,16 H 6.755129 C 6.44823,16 6.2,16.199407 6.2,16.44439 v 0.111612 C 6.2,16.801302 6.448357,17 6.755129,17 h 8.598874 C 15.660523,17 15.909,16.801305 15.909,16.556002 V 16.44439 C 15.909,16.199601 15.660516,16 15.354003,16 Z M 15.005602,16.99364 7,17 6.9974,16.9961 l -3.97e-4,9.06e-4 8.002997,0.003 0.0028,-0.0031 -9.69e-4,-0.0033 z"
       id="path79-3-8-7"
       style="fill:#ff9955;fill-opacity:1;stroke-width:0.0292304"
       sodipodi:nodetypes="ssssssssssccccccs" />
    <path
       d="M 11,6 C 9.939219,6 8.921883,6.421585 8.171597,7.171595 7.421589,7.921824 6.999995,8.939157 6.999995,10 c 0,1.060843 0.421583,2.07812 1.171602,2.828407 C 8.921825,13.578411 9.939161,14 11,14 c 1.060839,0 2.078119,-0.421585 2.828403,-1.171593 0.750008,-0.750231 1.171603,-1.767566 1.171603,-2.828408 C 14.998906,8.939608 14.576866,7.922953 13.826823,7.173174 13.076987,6.423172 12.060332,6.001356 11,6 Z m 0,7.010693 v 2.27e-4 l -0.0076,0.03445 v 0 0 0 0 0 0 0 z"
       id="path74-6-6-5"
       style="fill:#ff9955;fill-opacity:1;stroke-width:0.0565059"
       sodipodi:nodetypes="ccscsccccccccccccccc" />
    <path
       d="M 11,8 C 10.469608,8 9.960944,8.210792 9.585798,8.585797 9.210795,8.960912 8.999997,9.469577 8.999997,9.999999 c 0,0.530424 0.210793,1.039058 0.585801,1.414205 C 9.960913,11.789205 10.469583,12 11,12 c 0.530421,0 1.039061,-0.210793 1.414201,-0.585796 0.375003,-0.375117 0.585801,-0.883787 0.585801,-1.414205 C 12.999429,9.469803 12.788433,8.961476 12.41341,8.586586 12.038491,8.211585 11.530165,8.000677 11,8 Z m 0,3.505348 v 1.15e-4 l -0.0038,0.01722 v 0 0 0 0 0 0 0 z"
       id="path74-6-7-7-9"
       style="fill:#000000;fill-opacity:1;stroke-width:0.0282529"
       sodipodi:nodetypes="ccscsccccccccccccccc" />
  </g>
  <g
     id="disk-quota-missing"
     transform="translate(128)">
    <rect
       style="opacity:0.00100002"
       width="32"
       height="32"
       x="0"
       y="0"
       id="rect71" />
    <path
       d="M 24.75511,4 H 7.24492 C 6.01023,4 5,4.9 5,5.999998 V 25.999997 C 5,27.1 6.01023,28 7.24492,28 H 24.75511 C 25.9898,28 27,27.1 27,25.999997 V 5.999998 C 27,4.9 25.9898,4 24.75511,4 Z M 26,25.999997 c 0,0.549995 -0.62757,0.999995 -1.24489,0.999995 H 7.24492 C 6.62755,26.999992 6,26.549992 6,25.999997 V 5.999998 C 6,5.45 6.62755,5 7.24492,5 H 24.75511 C 25.37243,5 26,5.45 26,5.999998 Z"
       id="path2-3-3-3-62"
       style="fill:#d3dae3;fill-opacity:0.4;stroke-width:0.529727"
       sodipodi:nodetypes="ssssssssssssssssss" />
    <path
       d="M 22.48045,23 H 9.58266 C 9.12233,23 8.75,23.398817 8.75,23.888782 v 0.22322 C 8.75,24.602602 9.12252,25 9.58266,25 h 12.89779 c 0.45976,0 0.83246,-0.397387 0.83246,-0.887998 v -0.22322 C 23.31291,23.399203 22.9402,23 22.48045,23 Z M 22,25 H 10 v 0 0 z"
       id="path79-3-61"
       style="fill:#d3dae3;fill-opacity:0.4;stroke-width:0.0506274"
       sodipodi:nodetypes="sssssssssccccccc" />
    <path
       d="M 16,9 C 14.40883,9 12.88282,9.632377 11.7574,10.757392 10.63238,11.882736 9.99999,13.408736 9.99999,15 c 0,1.591264 0.63238,3.11718 1.75741,4.242611 C 12.88274,20.367616 14.40874,21 16,21 c 1.59126,0 3.11718,-0.632377 4.2426,-1.757389 1.12502,-1.125347 1.75741,-2.651349 1.75741,-4.242613 -0.002,-1.590586 -0.63471,-3.115569 -1.75978,-4.240237 C 19.11548,9.634758 17.5905,9.002034 16,9 Z m 0,10.516039 v 3.41e-4 l -0.0114,0.05168 v 0 0 0 0 0 0 0 z"
       id="path74-6-8"
       style="fill:#d3dae3;fill-opacity:0.4;stroke-width:0.0847589"
       sodipodi:nodetypes="ccscsccccccccccccccc" />
    <path
       d="m 16,12 c -0.79559,0 -1.55858,0.31619 -2.1213,0.878697 C 13.3162,13.44137 13,14.204364 13,15 c 0,0.795636 0.31619,1.558594 0.8787,2.121304 C 14.44137,17.683807 15.20438,18 16,18 c 0.79564,0 1.5586,-0.31619 2.1213,-0.878696 0.56251,-0.562674 0.87871,-1.325669 0.87871,-2.121305 -8.6e-4,-0.795294 -0.31736,-1.557784 -0.87989,-2.120115 C 17.55774,12.317382 16.79525,12.001017 16,12 Z m -0.006,5.28403 z"
       id="path74-6-3-3-7"
       style="fill:#010101;fill-opacity:0.4;stroke-width:0.0423793"
       sodipodi:nodetypes="ccscsccccccccccccc" />
  </g>
  <g
     id="22-22-disk-quota-critical"
     transform="translate(96,-22)">
    <rect
       style="opacity:0.00100002"
       width="22"
       height="22"
       x="0"
       y="0"
       id="rect27" />
    <path
       d="M 16.57143,3 H 5.42859 C 4.642872,3 4,3.6 4,4.333332 V 17.666665 C 4,18.4 4.642872,19 5.42859,19 H 16.57143 C 17.35715,19 18,18.4 18,17.666665 V 4.333332 C 18,3.6 17.35715,3 16.57143,3 Z M 17,17 c 0,1 0,1 -1,1 H 6 C 5,18 5,18 5,17 V 5 C 5,4 5,4 6,4 h 10 c 1,0 1,0 1,1 z"
       id="path2-3-3-3-0-2"
       style="fill:#bf616a;fill-opacity:1;stroke-width:0.345031"
       sodipodi:nodetypes="ssssssssscscccsscc" />
    <path
       d="M 15.354,16 H 6.75513 C 6.44823,16 6.2,16.199407 6.2,16.44439 v 0.111612 C 6.2,16.801302 6.44836,17 6.75513,17 H 15.354 c 0.30652,0 0.555,-0.198695 0.555,-0.443998 V 16.44439 C 15.909,16.199601 15.66052,16 15.354,16 Z M 15.0056,16.99364 7,17.00004 l -0.003,-0.0039 -4e-4,9.06e-4 8.0034,0.003 0.003,-0.0031 -9.7e-4,-0.0033 z"
       id="path79-3-8-28"
       style="fill:#bf616a;fill-opacity:1;stroke-width:0.0292304"
       sodipodi:nodetypes="ssssssssssccccccs" />
    <path
       d="M 11,6 C 9.93922,6 8.92188,6.421585 8.1716,7.171595 7.42159,7.921824 7,8.939157 7,10 7,11.060843 7.42158,12.07812 8.1716,12.828407 8.92183,13.578411 9.93916,14 11,14 c 1.06084,0 2.07812,-0.421585 2.8284,-1.171593 0.75001,-0.750231 1.17161,-1.767566 1.17161,-2.828408 C 14.99901,8.939608 14.57687,7.922953 13.82682,7.173174 13.07699,6.423172 12.06033,6.001356 11,6 Z m 0,7.010693 v 2.27e-4 l -0.008,0.03445 v 0 0 0 0 0 0 0 z"
       id="path74-6-6-9"
       style="fill:#bf616a;fill-opacity:1;stroke-width:0.0565059"
       sodipodi:nodetypes="ccscsccccccccccccccc" />
    <path
       d="M 11,8 C 10.46961,8 9.96094,8.210792 9.5858,8.585797 9.2108,8.960912 9,9.469577 9,9.999999 9,10.530423 9.21079,11.039057 9.5858,11.414204 9.96091,11.789205 10.46958,12 11,12 11.53042,12 12.03906,11.789207 12.4142,11.414204 12.7892,11.039087 13,10.530417 13,9.999999 12.99943,9.469803 12.78843,8.961476 12.41341,8.586586 12.03849,8.211585 11.53016,8.000677 11,8 Z m 0,3.505348 v 1.15e-4 l -0.004,0.01722 v 0 0 0 0 0 0 0 z"
       id="path74-6-7-7-7"
       style="fill:#000000;fill-opacity:1;stroke-width:0.0282529"
       sodipodi:nodetypes="ccscsccccccccccccccc" />
  </g>
</svg>
