<?xml version="1.0" encoding="UTF-8" standalone="no"?>
<svg
   width="32"
   height="32"
   version="1.1"
   id="svg32"
   sodipodi:docname="document.svg"
   inkscape:version="1.3 (0e150ed6c4, 2023-07-21)"
   xmlns:inkscape="http://www.inkscape.org/namespaces/inkscape"
   xmlns:sodipodi="http://sodipodi.sourceforge.net/DTD/sodipodi-0.dtd"
   xmlns:xlink="http://www.w3.org/1999/xlink"
   xmlns="http://www.w3.org/2000/svg"
   xmlns:svg="http://www.w3.org/2000/svg"
   xmlns:rdf="http://www.w3.org/1999/02/22-rdf-syntax-ns#"
   xmlns:cc="http://creativecommons.org/ns#"
   xmlns:dc="http://purl.org/dc/elements/1.1/">
  <style
     id="current-color-scheme"
     type="text/css">.ColorScheme-Text { color:#d1d5e9; }&#10;</style>
  <metadata
     id="metadata38">
    <rdf:RDF>
      <cc:Work
         rdf:about="">
        <dc:format>image/svg+xml</dc:format>
        <dc:type
           rdf:resource="http://purl.org/dc/dcmitype/StillImage" />
      </cc:Work>
    </rdf:RDF>
  </metadata>
  <defs
     id="defs36">
    <linearGradient
       id="linearGradient10"
       inkscape:collect="always">
      <stop
         style="stop-color:#d3dae3;stop-opacity:1;"
         offset="0"
         id="stop9" />
      <stop
         style="stop-color:#ffd42a;stop-opacity:1"
         offset="1"
         id="stop10" />
    </linearGradient>
    <linearGradient
       id="linearGradient8"
       inkscape:collect="always">
      <stop
         style="stop-color:#cd87de;stop-opacity:1"
         offset="0"
         id="stop7" />
      <stop
         style="stop-color:#ffcc00;stop-opacity:1"
         offset="1"
         id="stop8" />
    </linearGradient>
    <linearGradient
       id="linearGradient1"
       inkscape:collect="always">
      <stop
         style="stop-color:#d3dae3;stop-opacity:1;"
         offset="0"
         id="stop1" />
      <stop
         style="stop-color:#d3dae3;stop-opacity:0;"
         offset="1"
         id="stop2" />
    </linearGradient>
    <linearGradient
       x1="0"
       x2="0"
       y1="0"
       y2="1"
       id="linearGradient13">
      <stop
         offset="0%"
         style="stop-color:#303b3d; stop-opacity:1"
         id="stop18" />
      <stop
         offset="100%"
         style="stop-color:#bc985d; stop-opacity:1"
         id="stop20" />
    </linearGradient>
    <linearGradient
       inkscape:collect="always"
       xlink:href="#linearGradient8"
       id="linearGradient2"
       x1="-64"
       y1="11"
       x2="-42"
       y2="11"
       gradientUnits="userSpaceOnUse" />
    <linearGradient
       inkscape:collect="always"
       xlink:href="#linearGradient1"
       id="linearGradient3"
       x1="0"
       y1="16"
       x2="32"
       y2="16"
       gradientUnits="userSpaceOnUse" />
    <linearGradient
       inkscape:collect="always"
       xlink:href="#linearGradient10"
       id="linearGradient4"
       x1="0"
       y1="16"
       x2="32"
       y2="16"
       gradientUnits="userSpaceOnUse" />
    <linearGradient
       inkscape:collect="always"
       xlink:href="#linearGradient1"
       id="linearGradient5"
       x1="-32"
       y1="11"
       x2="-10"
       y2="11"
       gradientUnits="userSpaceOnUse" />
    <linearGradient
       inkscape:collect="always"
       xlink:href="#linearGradient1"
       id="linearGradient6"
       x1="0"
       y1="11"
       x2="22"
       y2="11"
       gradientUnits="userSpaceOnUse" />
    <linearGradient
       inkscape:collect="always"
       xlink:href="#linearGradient8"
       id="linearGradient7"
       x1="0"
       y1="16"
       x2="32"
       y2="16"
       gradientUnits="userSpaceOnUse" />
    <linearGradient
       inkscape:collect="always"
       xlink:href="#linearGradient8"
       id="linearGradient11"
       gradientUnits="userSpaceOnUse"
       x1="0"
       y1="16"
       x2="32"
       y2="16" />
    <linearGradient
       inkscape:collect="always"
       xlink:href="#linearGradient8"
       id="linearGradient12"
       gradientUnits="userSpaceOnUse"
       x1="0"
       y1="16"
       x2="32"
       y2="16" />
    <linearGradient
       inkscape:collect="always"
       xlink:href="#linearGradient8"
       id="linearGradient14"
       gradientUnits="userSpaceOnUse"
       x1="-64"
       y1="11"
       x2="-42"
       y2="11" />
    <linearGradient
       inkscape:collect="always"
       xlink:href="#linearGradient8"
       id="linearGradient15"
       gradientUnits="userSpaceOnUse"
       x1="-32"
       y1="11"
       x2="-10"
       y2="11" />
    <linearGradient
       inkscape:collect="always"
       xlink:href="#linearGradient8"
       id="linearGradient16"
       gradientUnits="userSpaceOnUse"
       x1="0"
       y1="11"
       x2="22"
       y2="11" />
    <linearGradient
       inkscape:collect="always"
       xlink:href="#linearGradient8"
       id="linearGradient17"
       gradientUnits="userSpaceOnUse"
       x1="0"
       y1="16"
       x2="32"
       y2="16" />
    <linearGradient
       inkscape:collect="always"
       xlink:href="#linearGradient8"
       id="linearGradient18"
       gradientUnits="userSpaceOnUse"
       x1="0"
       y1="16"
       x2="32"
       y2="16" />
    <linearGradient
       inkscape:collect="always"
       xlink:href="#linearGradient8"
       id="linearGradient19"
       gradientUnits="userSpaceOnUse"
       x1="-32"
       y1="11"
       x2="-10"
       y2="11" />
    <linearGradient
       inkscape:collect="always"
       xlink:href="#linearGradient8"
       id="linearGradient20"
       gradientUnits="userSpaceOnUse"
       x1="0"
       y1="11"
       x2="22"
       y2="11" />
  </defs>
  <sodipodi:namedview
     pagecolor="#02334b"
     bordercolor="#000000"
     borderopacity="1"
     objecttolerance="10"
     gridtolerance="10"
     guidetolerance="10"
     inkscape:pageopacity="0"
     inkscape:pageshadow="2"
     inkscape:window-width="1920"
     inkscape:window-height="994"
     id="namedview34"
     showgrid="true"
     inkscape:zoom="5.6856058"
     inkscape:cx="30.427716"
     inkscape:cy="11.872086"
     inkscape:window-x="0"
     inkscape:window-y="0"
     inkscape:window-maximized="1"
     inkscape:current-layer="svg32"
     inkscape:document-rotation="0"
     inkscape:lockguides="false"
     inkscape:showpageshadow="true"
     showguides="false"
     inkscape:pagecheckerboard="true"
     inkscape:deskcolor="#02334b">
    <inkscape:grid
       type="xygrid"
       id="grid886"
       originx="0"
       originy="0"
       spacingy="1"
       spacingx="1"
       units="px"
       visible="true" />
  </sodipodi:namedview>
  <g
     id="22-22-document-open-recent"
     transform="translate(64,-22)"
     style="fill:url(#linearGradient2);fill-opacity:1">
    <rect
       style="opacity:0.00100002;fill:url(#linearGradient2);fill-opacity:1"
       width="22"
       height="22"
       x="-64"
       y="0"
       id="rect7" />
    <path
       d="m -48.204027,3 h -9.591944 C -59.011816,3.0032 -59.99661,3.902558 -60,5.013027 v 11.97354 c 0.0034,1.11047 0.688154,2.009924 1.904,2.013027 h 10.295999 C -46.582759,18.999594 -46,18.098325 -46,16.986567 V 5.013027 C -46,3.90127 -46.986794,3 -48.204027,3 Z M -47,16.9 c 0,0.667065 -0.469661,1.1 -1.2,1.1 h -9.496 C -58.50003,18 -59,17.566645 -59,16.9 V 5 h 12 z"
       id="path2-367-3"
       sodipodi:nodetypes="sccccssssssssccs"
       style="fill:url(#linearGradient14);fill-opacity:1;stroke-width:0.842511" />
    <path
       d="m -56.55763,6.999848 v 0 C -57.181033,7 -57.112899,6.002778 -56.55763,6 h 7.141178 c 0.555268,0.0028 0.555268,0.997069 0,0.999848 z"
       id="path4-6"
       style="fill:url(#linearGradient2);fill-opacity:1;stroke-width:0.91446"
       sodipodi:nodetypes="cccccc" />
    <path
       d="m -56.535037,9.999797 v 0 c -0.619951,-0.0028 -0.619951,-0.997005 0,-0.999797 h 6.070075 c 0.619949,0.0028 0.619949,0.997005 0,0.999797 z"
       id="path6-7"
       style="fill:url(#linearGradient2);fill-opacity:1;stroke-width:0.966298"
       sodipodi:nodetypes="cscccc" />
    <path
       d="m -56.481779,15.999696 v 0 C -57.172741,16 -57.172741,15 -56.481779,15.000005 h 5.967476 c 0.685736,-5e-6 0.685736,0.999995 0,0.999691 z"
       id="path8-5"
       style="fill:url(#linearGradient2);fill-opacity:1;stroke-width:1.35458"
       sodipodi:nodetypes="cccccc" />
    <path
       d="m -56.60146,12.999746 v 0 c -0.531387,-0.0028 -0.531387,-0.996954 0,-0.999746 h 5.202919 c 0.531387,0.0028 0.531387,0.996954 0,0.999746 z"
       id="path6-5-3"
       style="fill:url(#linearGradient2);fill-opacity:1;stroke-width:0.894566"
       sodipodi:nodetypes="cscccc" />
  </g>
  <g
     id="document-encrypt"
     transform="translate(32)"
     style="fill:url(#linearGradient3);fill-opacity:1">
    <rect
       style="opacity:0.00100002;fill:url(#linearGradient3);fill-opacity:1"
       width="32"
       height="32"
       x="0"
       y="0"
       id="rect22" />
    <path
       d="M 22.85138,4 H 9.14861 C 7.41169,4.0047 6.00484,5.353861 6,7.019627 v 17.960745 c 0.005,1.665767 1.41169,3.014983 3.14861,3.019627 H 23 c 1.73893,0 3,-1.351933 3,-3.019627 V 7.019627 C 26,5.351933 24.59032,4 22.85138,4 Z M 25,24.999999 C 25,26.000617 24.04336,27.000006 23,27 L 9.14861,26.999925 C 8,26.999919 7,26 7,24.999999 V 7 h 18 z"
       id="path2-367-7"
       sodipodi:nodetypes="sccccssssssssccs"
       style="fill:url(#linearGradient11);fill-opacity:1;stroke-width:1.23338" />
    <path
       d="m 13.187471,16.142882 c -0.931969,0 -1.687471,0.767505 -1.687471,1.714283 v 3.428556 C 11.5,22.232588 12.255502,23 13.187471,23 h 5.625064 C 19.744506,23 20.5,22.232588 20.5,21.285721 v -3.428556 c 0,-0.946778 -0.755494,-1.714283 -1.687465,-1.714283 V 13.857213 C 18.812535,12.27954 17.553055,11 16.000008,11 c -1.553051,0 -2.812537,1.279487 -2.812537,2.857213 z m 4.499999,0 v -2.285669 c 0,-0.946868 -0.755406,-1.714279 -1.687462,-1.714279 -0.932066,0 -1.687472,0.767411 -1.687472,1.714279 v 2.285669 z"
       fill-rule="evenodd"
       id="path3240"
       style="fill:url(#linearGradient18);fill-opacity:1;stroke-width:0.0242976" />
  </g>
  <g
     id="document-decrypt"
     transform="translate(64)"
     style="fill:url(#linearGradient4);fill-opacity:1">
    <rect
       style="opacity:0.00100002;fill:url(#linearGradient4);fill-opacity:1"
       width="32"
       height="32"
       x="0"
       y="0"
       id="rect27" />
    <path
       d="M 22.85138,4 H 9.14861 C 7.41169,4.0046 6.00484,5.353861 6,7.019627 v 17.960745 c 0.005,1.665767 1.41169,3.014983 3.14861,3.019627 H 23 c 1.73893,0 3,-1.351933 3,-3.019627 V 7.019627 C 26,5.351933 24.59032,4 22.85138,4 Z M 25,24.999999 C 25,26.000617 24.04336,27.000006 23,27 L 9.14861,26.999925 C 8,26.999919 7,26 7,24.999999 V 7 h 18 z"
       id="path2-367-36"
       sodipodi:nodetypes="sccccssssssssccs"
       style="fill:url(#linearGradient12);fill-opacity:1;stroke-width:1.23338" />
    <path
       d="m 17.68747,16.142884 h -4.499998 c -0.931968,0 -1.687472,0.767505 -1.687472,1.714281 v 3.428556 C 11.5,22.232589 12.255504,23 13.187472,23 h 5.625055 C 19.7445,23 20.5,22.232589 20.5,21.285721 v -3.428556 c 0,-0.946776 -0.7555,-1.714281 -1.687473,-1.714281 V 13.857215 C 18.812527,12.279539 17.553058,11 16.000001,11 c -1.553046,0 -2.812529,1.27949 -2.812529,2.857215 0,0.315408 0.251982,0.571394 0.562555,0.571394 0.310465,0 0.562452,-0.255986 0.562452,-0.571394 0,-0.946872 0.755411,-1.714279 1.687469,-1.714279 0.93206,0 1.687473,0.767407 1.687473,1.714279 z"
       fill-rule="evenodd"
       id="path3977"
       style="fill:url(#linearGradient17);stroke-width:0.0242974"
       sodipodi:nodetypes="cssssssscsssssscc" />
  </g>
  <g
     id="22-22-document-encrypt"
     transform="translate(64,-22)"
     style="fill:url(#linearGradient5);fill-opacity:1">
    <rect
       style="opacity:0.00100002;fill:url(#linearGradient5);fill-opacity:1"
       width="22"
       height="22"
       x="-32"
       y="0"
       id="rect2" />
    <path
       d="m -16.204028,3 h -9.591944 c -1.215845,0.0032 -2.200639,0.902558 -2.204029,2.013027 v 11.97354 c 0.0034,1.11047 0.688154,2.009924 1.904,2.013027 h 10.295999 c 1.217242,0 1.800001,-0.901269 1.800001,-2.013027 V 5.013027 C -14.000001,3.90127 -14.986795,3 -16.204028,3 Z m 1.204027,13.9 c 0,0.667065 -0.469661,1.1 -1.2,1.1 h -9.496 c -0.80403,0 -1.304,-0.433355 -1.304,-1.1 V 5 h 12 z"
       id="path2-367-3-3"
       sodipodi:nodetypes="sccccssssssssccs"
       style="fill:url(#linearGradient15);fill-opacity:1;stroke-width:0.842511" />
    <path
       d="M -22.875017,10.928597 C -23.496335,10.928597 -24,11.440265 -24,12.071445 v 2.285711 C -24,14.988389 -23.496335,15.5 -22.875017,15.5 h 3.750034 C -18.503656,15.5 -18,14.988389 -18,14.357156 v -2.285711 c 0,-0.63118 -0.503656,-1.142848 -1.124983,-1.142848 V 9.4048108 C -19.124983,8.353024 -19.964625,7.5 -20.999992,7.5 c -1.035371,0 -1.875025,0.852996 -1.875025,1.9048108 z m 3.000003,0 V 9.4048108 c 0,-0.6312508 -0.503604,-1.1428508 -1.124978,-1.1428508 -0.621383,0 -1.124988,0.5116 -1.124988,1.1428508 v 1.5237862 z"
       fill-rule="evenodd"
       id="path3240-5"
       style="fill:url(#linearGradient19);fill-opacity:1;stroke-width:0.0161978" />
  </g>
  <g
     id="22-22-document-decrypt"
     transform="translate(64,-22)"
     style="fill:url(#linearGradient6);fill-opacity:1">
    <rect
       style="opacity:0.00100002;fill:url(#linearGradient6);fill-opacity:1"
       width="22"
       height="22"
       x="0"
       y="0"
       id="rect12" />
    <path
       d="M 15.795973,3.000406 H 6.204029 C 4.988184,3.003606 4.00339,3.902964 4,5.013433 v 11.97354 C 4.0034,18.097443 4.688154,18.996897 5.904,19 H 16.199999 C 17.417241,19 18,18.098731 18,16.986973 V 5.013433 C 18,3.901676 17.013206,3.000406 15.795973,3.000406 Z M 17,16.900406 c 0,0.667065 -0.469661,1.1 -1.2,1.1 H 6.304 c -0.80403,0 -1.304,-0.433355 -1.304,-1.1 v -11.9 h 12 z"
       id="path2-367-3-5"
       sodipodi:nodetypes="sccccssssssssccs"
       style="fill:url(#linearGradient16);stroke-width:0.842511" />
    <path
       d="M 12.124981,10.928589 H 9.124982 C 8.503665,10.928589 8,11.44026 8,12.071444 v 2.285704 C 8,14.98839 8.503665,15.5 9.124982,15.5 h 3.750035 C 13.496336,15.5 14,14.98839 14,14.357148 V 12.071444 C 14,11.44026 13.496336,10.928589 12.875017,10.928589 V 9.4048101 C 12.875017,8.3530261 12.035375,7.5 11.000001,7.5 9.964635,7.5 9.124982,8.3529936 9.124982,9.4048101 c 0,0.210272 0.167992,0.3809299 0.375039,0.3809299 0.206979,0 0.374968,-0.1706579 0.374968,-0.3809299 0,-0.631248 0.503611,-1.1428531 1.124971,-1.1428531 0.621378,0 1.124985,0.5116051 1.124985,1.1428531 z"
       fill-rule="evenodd"
       id="path3977-6"
       style="fill:url(#linearGradient20);fill-opacity:1;stroke-width:0.016198" />
  </g>
  <g
     id="document-open-recent"
     style="fill:url(#linearGradient7);fill-opacity:1">
    <rect
       style="opacity:0.00100002;fill:url(#linearGradient7);fill-opacity:1"
       width="32"
       height="32"
       x="0"
       y="0"
       id="rect17" />
    <path
       d="M 22.851385,4 H 9.1486147 C 7.411693,4.0046502 6.0048433,5.353861 6.0000002,7.0196275 V 24.980372 c 0.00485,1.665767 1.4116928,3.014983 3.1486145,3.019627 H 23 c 1.738932,0 2.999999,-1.351933 2.999999,-3.019627 V 7.0196275 C 25.999999,5.3519333 24.590317,4 22.851385,4 Z M 25,24.999999 C 25,26.000617 24.043358,27.000006 23,27 L 9.1486147,26.999925 C 8,26.999919 7,26 7,24.999999 V 7 h 18 z"
       id="path2-367"
       sodipodi:nodetypes="sccccssssssssccs"
       style="fill:url(#linearGradient7);fill-opacity:1;stroke-width:1.23338" />
    <path
       d="m 10.60551,13 v 0 a 0.60551008,0.50000001 0 0 1 0,-1 h 10.78898 a 0.60551008,0.50000001 0 0 1 0,1 z"
       id="path4"
       style="fill:url(#linearGradient7);fill-opacity:1;stroke-width:1.10046" />
    <path
       d="m 10.599334,15.999999 v 0 a 0.6001028,0.49999999 0 0 1 0,-0.999999 h 7.801332 a 0.6001028,0.49999999 0 0 1 0,0.999999 z"
       id="path6"
       style="fill:url(#linearGradient7);fill-opacity:1;stroke-width:1.09554" />
    <path
       d="m 10.616438,22 v 0 c -0.8219178,0 -0.8219178,-1 0,-1 h 8.767124 c 0.821917,0 0.821917,1 0,1 z"
       id="path8"
       style="fill:url(#linearGradient7);fill-opacity:1;stroke-width:1.60561"
       sodipodi:nodetypes="ccsssc" />
    <path
       d="m 15.4661,18.999999 v 0 A 0.46675345,0.49999999 0 0 1 15.4661,18 h 6.0678 a 0.46675345,0.49999999 0 0 1 0,0.999999 z"
       id="path6-5"
       style="fill:url(#linearGradient7);fill-opacity:1;stroke-width:0.966179" />
    <path
       d="m 10.4661,24.999999 v 0 A 0.46675345,0.49999999 0 0 1 10.4661,24 h 6.0678 a 0.46675345,0.49999999 0 0 1 0,0.999999 z"
       id="path6-5-36"
       style="fill:url(#linearGradient7);fill-opacity:1;stroke-width:0.966179" />
    <path
       d="m 10.4661,10 v 0 a 0.46675345,0.49999999 0 0 1 0,-0.999999 h 6.0678 a 0.46675345,0.49999999 0 0 1 0,0.999999 z"
       id="path6-5-7"
       style="fill:url(#linearGradient7);fill-opacity:1;stroke-width:0.966179" />
  </g>
</svg>
