<?xml version="1.0" encoding="UTF-8" standalone="no"?>
<svg
   width="32"
   height="32"
   version="1"
   id="svg12"
   sodipodi:docname="juk.svg"
   inkscape:version="1.3.1 (91b66b0783, 2023-11-16)"
   xmlns:inkscape="http://www.inkscape.org/namespaces/inkscape"
   xmlns:sodipodi="http://sodipodi.sourceforge.net/DTD/sodipodi-0.dtd"
   xmlns:xlink="http://www.w3.org/1999/xlink"
   xmlns="http://www.w3.org/2000/svg"
   xmlns:svg="http://www.w3.org/2000/svg"
   xmlns:rdf="http://www.w3.org/1999/02/22-rdf-syntax-ns#"
   xmlns:cc="http://creativecommons.org/ns#"
   xmlns:dc="http://purl.org/dc/elements/1.1/">
  <style
     id="current-color-scheme"
     type="text/css">.ColorScheme-Text { color:#d6dbf1; }
</style>
  <metadata
     id="metadata18">
    <rdf:RDF>
      <cc:Work
         rdf:about="">
        <dc:format>image/svg+xml</dc:format>
        <dc:type
           rdf:resource="http://purl.org/dc/dcmitype/StillImage" />
      </cc:Work>
    </rdf:RDF>
  </metadata>
  <defs
     id="defs16">
    <linearGradient
       id="linearGradient1"
       inkscape:collect="always">
      <stop
         style="stop-color:#b380ff;stop-opacity:1"
         offset="0"
         id="stop1" />
      <stop
         style="stop-color:#bc5fd3;stop-opacity:1"
         offset="1"
         id="stop2" />
    </linearGradient>
    <linearGradient
       inkscape:collect="always"
       xlink:href="#linearGradient1"
       id="linearGradient2"
       x1="5"
       y1="28"
       x2="26"
       y2="6"
       gradientUnits="userSpaceOnUse" />
    <linearGradient
       inkscape:collect="always"
       xlink:href="#linearGradient1"
       id="linearGradient4"
       x1="3"
       y1="11"
       x2="19"
       y2="11"
       gradientUnits="userSpaceOnUse" />
  </defs>
  <sodipodi:namedview
     pagecolor="#02334b"
     bordercolor="#000000"
     borderopacity="1"
     objecttolerance="10"
     gridtolerance="10"
     guidetolerance="10"
     inkscape:pageopacity="0"
     inkscape:pageshadow="2"
     inkscape:window-width="1920"
     inkscape:window-height="994"
     id="namedview14"
     showgrid="true"
     inkscape:zoom="9.8125"
     inkscape:cx="5.4012739"
     inkscape:cy="17.477707"
     inkscape:window-x="0"
     inkscape:window-y="0"
     inkscape:window-maximized="1"
     inkscape:current-layer="svg12"
     inkscape:document-rotation="0"
     inkscape:showpageshadow="true"
     inkscape:lockguides="false"
     inkscape:pagecheckerboard="true"
     inkscape:deskcolor="#02334b">
    <inkscape:grid
       type="xygrid"
       id="grid865"
       originx="0"
       originy="0"
       spacingy="1"
       spacingx="1"
       units="px"
       visible="true" />
  </sodipodi:namedview>
  <g
     id="juk"
     style="fill:#bac8df;fill-opacity:1">
    <rect
       style="opacity:0.00100002;fill:#bac8df;fill-opacity:1"
       width="32"
       height="32"
       x="0"
       y="0"
       id="rect7" />
    <path
       d="M 24.485266,7.5147344 C 22.218812,5.2482344 19.205359,4 16,4 12.794641,4 9.7811875,5.2482344 7.5147344,7.5147344 5.2482344,9.7811875 4,12.794641 4,16 4,19.205359 5.2482344,22.218812 7.5147344,24.485266 9.7811875,26.751766 12.794641,28 16,28 19.205359,28 22.218812,26.751766 24.485266,24.485266 26.751766,22.218812 28,19.205359 28,16 28,12.794641 26.751766,9.7811875 24.485266,7.5147344 Z M 7.2473125,21.471578 9.8943438,18.824547 8.710375,17.640578 6.443125,19.907781 C 5.948125,18.701734 5.574,17.382344 5.574,16 5.574,10.306422 10.306422,5.574 16,5.574 c 2.546063,0 4.979797,1.0272344 6.782,2.5604688 L 18.306812,12.509219 C 17.644937,12.070422 16.852,11.813922 16,11.813922 c -2.308172,0 -4.186031,1.877859 -4.186031,4.186031 0,0.851953 0.256453,1.644891 0.695297,2.306813 L 8.1344219,22.681563 C 7.8105625,22.300937 7.5139375,21.896641 7.2473125,21.471578 Z M 18.511609,16 c 0,1.384922 -1.126734,2.511609 -2.511609,2.511609 -1.384875,0 -2.511609,-1.126687 -2.511609,-2.511609 0,-1.384922 1.126734,-2.511609 2.511609,-2.511609 1.384875,0 2.511609,1.126687 2.511609,2.511609 z M 16,26.426 c -2.546062,0 -4.879359,-0.926672 -6.6815625,-2.46 l 4.3747505,-4.475219 c 0.661875,0.438797 1.454812,0.69525 2.306812,0.69525 2.308172,0 4.186031,-1.877859 4.186031,-4.186031 0,-0.851953 -0.256453,-1.644891 -0.695344,-2.306812 l 4.374797,-4.3747505 c 0.323907,0.3805781 0.620485,0.7849215 0.887203,1.2099845 l -2.647031,2.647031 1.183969,1.183969 2.267203,-2.267203 C 26.051781,13.298266 26.425,14.617656 26.425,16 26.425094,21.693578 21.693578,26.426 16,26.426 Z"
       id="path1790"
       style="fill:url(#linearGradient2);fill-opacity:1;stroke-width:0.046875"
       sodipodi:nodetypes="cscscscscccccssccsscccssssssccsscccccccs" />
    <circle
       cx="16"
       cy="15.987"
       r="2.5869994"
       id="circle1796"
       style="fill:#ff9955;fill-opacity:1;stroke-width:0.144853" />
  </g>
  <g
     id="22-22-juk"
     style="fill:#bac8df;fill-opacity:1"
     transform="translate(32,10)">
    <rect
       style="opacity:0.00100002;fill:#bac8df;fill-opacity:1"
       width="22"
       height="22"
       x="0"
       y="0"
       id="rect2" />
    <path
       d="M 16.656844,5.3431562 C 15.145875,3.8321563 13.136906,3 11,3 8.8630938,3 6.854125,3.8321563 5.3431562,5.3431562 3.8321563,6.854125 3,8.8630938 3,11 3,13.136906 3.8321563,15.145875 5.3431562,16.656844 6.854125,18.167844 8.8630938,19 11,19 13.136906,19 15.145875,18.167844 16.656844,16.656844 18.167844,15.145875 19,13.136906 19,11 19,8.8630938 18.167844,6.854125 16.656844,5.3431562 Z M 5.164875,14.647719 6.9295625,12.883031 6.14025,12.093719 4.62875,13.605188 C 4.29875,12.801156 4.1162812,11.921563 4.1162812,11 c 0,-3.7957188 3.088,-6.8837188 6.8837188,-6.8837188 1.697375,0 3.252906,0.617875 4.454375,1.6400313 l -2.9165,2.9165 C 12.096625,8.3802813 11.568,8.2092813 11,8.2092813 c -1.5387812,0 -2.7906875,1.2519062 -2.7906875,2.7906877 0,0.567969 0.1709688,1.096594 0.4635312,1.537875 L 5.7562812,15.454375 C 5.540375,15.200625 5.342625,14.931094 5.164875,14.647719 Z M 12.674406,11 c 0,0.923281 -0.751156,1.674406 -1.674406,1.674406 -0.92325,0 -1.6744062,-0.751125 -1.6744062,-1.674406 0,-0.923281 0.7511562,-1.6744062 1.6744062,-1.6744062 0.92325,0 1.674406,0.7511252 1.674406,1.6744062 z M 11,17.883719 c -1.697375,0 -3.2529063,-0.617813 -4.454375,-1.640032 l 2.9165,-2.916499 c 0.44125,0.292531 0.969875,0.4635 1.537875,0.4635 1.538781,0 2.790688,-1.251907 2.790688,-2.790688 0,-0.567969 -0.170969,-1.0965937 -0.463563,-1.537875 l 2.916531,-2.9165 c 0.215938,0.2537187 0.413657,0.5232813 0.591469,0.8066562 L 15.070438,9.1169688 15.85975,9.9062812 17.371219,8.3948125 C 17.701187,9.1988438 17.883656,10.078438 17.883656,11 17.883719,14.795719 14.795719,17.883719 11,17.883719 Z"
       id="path1790-7"
       style="fill:url(#linearGradient4);fill-opacity:1;stroke-width:0.03125" />
    <circle
       cx="11"
       cy="10.958"
       r="1.8580002"
       id="circle1796-5"
       style="fill:#ff9955;fill-opacity:1;stroke-width:0.104032" />
  </g>
</svg>
