<?xml version="1.0" encoding="UTF-8" standalone="no"?>
<svg
   width="32"
   height="32"
   version="1.1"
   id="svg32"
   sodipodi:docname="kalarm.svg"
   inkscape:version="1.3 (0e150ed6c4, 2023-07-21)"
   xmlns:inkscape="http://www.inkscape.org/namespaces/inkscape"
   xmlns:sodipodi="http://sodipodi.sourceforge.net/DTD/sodipodi-0.dtd"
   xmlns:xlink="http://www.w3.org/1999/xlink"
   xmlns="http://www.w3.org/2000/svg"
   xmlns:svg="http://www.w3.org/2000/svg"
   xmlns:rdf="http://www.w3.org/1999/02/22-rdf-syntax-ns#"
   xmlns:cc="http://creativecommons.org/ns#"
   xmlns:dc="http://purl.org/dc/elements/1.1/">
  <g
     id="22-22-kalarm-partdisabled"
     transform="translate(64,-22)"
     style="fill:#00ccff">
    <rect
       style="opacity:0.00100002;fill:#00ccff"
       width="22"
       height="22"
       x="0"
       y="0"
       id="rect12" />
    <path
       d="m 17.462228,13.194958 c -0.204287,-0.238329 -0.425595,-0.47666 -0.612849,-0.73202 L 15.555581,10.726532 C 15.334273,10.437127 15.181062,10.096658 15.112966,9.739162 L 14.80654,8.1900121 C 14.534159,6.8621701 13.7681,5.7045651 12.644539,4.9384941 11.861448,4.4107591 10.97622,4.1213641 10.07397,4.0873131 l -0.0681,-0.408569 C 9.92077,3.2191061 9.4611111,2.9297061 9.0184981,3.0148231 l -0.783093,0.153214 c -0.459633,0.0851 -0.749035,0.544751 -0.663918,0.987368 l 0.0851,0.425593 c -2.059855,0.970347 -3.285559,3.251515 -2.842944,5.5837549 l 0.306421,1.549151 c 0.06809,0.357497 0.06809,0.732013 -0.03404,1.072491 L 4.5582881,14.8803 c -0.0851,0.306422 -0.187256,0.612852 -0.2894,0.919278 -0.0851,0.23833 -0.0851,0.459634 -0.03405,0.646892 0.102142,0.56179 0.629871,1.259753 2.502471,1.481056 -0.05103,-0.221303 -0.0851,-0.44261 -0.0851,-0.680943 0,-0.204279 0.01705,-0.408559 0.06811,-0.61285 -0.749042,-0.102146 -1.174628,-0.289404 -1.225702,-0.425589 0.01704,-0.289405 1.038441,-1.157609 3.285563,-1.838552 0.01703,0 0.03405,-0.01706 0.05105,-0.01706 0.0851,-0.01703 0.15321,-0.05104 0.238329,-0.06807 v 1.310816 c -0.663922,0.255359 -1.123564,0.885228 -1.123564,1.634273 -0.01703,0.98737 0.766064,1.770457 1.736411,1.770457 0.9703489,0 1.7534379,-0.783087 1.7534379,-1.753431 0,-0.749045 -0.45964,-1.378919 -1.123562,-1.634274 v -1.668319 c 0.136189,-0.03403 0.272378,-0.06811 0.425592,-0.0851 1.276769,-0.255352 2.349256,-0.340469 3.217467,-0.340469 1.566176,0 2.434381,0.306423 2.53652,0.510704 -0.03404,0.323458 -1.293793,1.327844 -4.017576,2.059867 0.153211,0.357492 0.221306,0.749036 0.221306,1.157608 0,0.03404 0,0.06811 0,0.102157 1.225699,-0.32346 2.315216,-0.732026 3.183422,-1.19166 1.73641,-0.936303 1.974743,-1.804505 1.855574,-2.366292 -0.01702,-0.187259 -0.102142,-0.391541 -0.272376,-0.595817 z m -3.489845,-0.953322 c -1.055466,0 -2.247125,0.119161 -3.472824,0.374521 -1.7023649,0.323451 -3.2685409,0.851181 -4.4091199,1.464034 l 0.238328,-0.953325 c 0.136189,-0.52773 0.153209,-1.089517 0.05104,-1.634269 L 6.0733791,9.943451 c -0.204286,-1.0044029 0.01705,-2.0258199 0.578803,-2.8770049 0.578802,-0.851181 1.429989,-1.429982 2.434383,-1.61724 0.23833,-0.05105 0.493682,-0.06811 0.7490369,-0.06811 0.749044,0 1.481059,0.221309 2.127955,0.646902 0.851184,0.561779 1.42999,1.429985 1.617248,2.434372 l 0.306426,1.5491559 c 0.102146,0.544763 0.340472,1.055471 0.663922,1.498082 l 0.595826,0.800116 c -0.37452,-0.05105 -0.766064,-0.06811 -1.17463,-0.06811 z"
       id="path6-75-6-1"
       style="fill:url(#linearGradient3);fill-opacity:1;stroke-width:0.170234" />
  </g>
  <g
     id="22-22-kalarm-disabled"
     transform="translate(32,-22)">
    <g
       id="g974">
      <rect
         style="opacity:0.00100002"
         width="22"
         height="22"
         x="0"
         y="0"
         id="rect7" />
      <path
         d="m 17.462228,13.194958 c -0.204287,-0.238329 -0.425595,-0.47666 -0.612849,-0.73202 L 15.555581,10.726532 C 15.334273,10.437127 15.181062,10.096658 15.112966,9.7391621 L 14.80654,8.1900121 C 14.534159,6.8621701 13.7681,5.7045651 12.644539,4.9384941 11.861448,4.4107591 10.97622,4.1213641 10.07397,4.0873131 l -0.0681,-0.408569 C 9.92077,3.2191061 9.4611111,2.9297061 9.0184981,3.0148231 l -0.783093,0.153214 c -0.459633,0.0851 -0.749035,0.544751 -0.663918,0.987368 l 0.0851,0.425593 c -2.059855,0.970347 -3.285559,3.251515 -2.842944,5.5837549 l 0.306421,1.549151 c 0.06809,0.357497 0.06809,0.732013 -0.03404,1.072491 L 4.5582881,14.8803 c -0.0851,0.306422 -0.187256,0.612852 -0.2894,0.919278 -0.0851,0.23833 -0.0851,0.459634 -0.03405,0.646892 0.102142,0.56179 0.629871,1.259753 2.502471,1.481056 -0.05103,-0.221303 -0.0851,-0.44261 -0.0851,-0.680943 0,-0.204279 0.01705,-0.408559 0.06811,-0.61285 -0.749042,-0.102146 -1.174628,-0.289404 -1.225702,-0.425589 0.01704,-0.289405 1.038441,-1.157609 3.285563,-1.838552 0.01703,0 0.03405,-0.01706 0.05105,-0.01706 0.0851,-0.01703 0.15321,-0.05104 0.238329,-0.06807 v 1.310816 c -0.663922,0.255359 -1.123564,0.885228 -1.123564,1.634273 -0.01703,0.98737 0.766064,1.770457 1.736411,1.770457 0.9703489,0 1.7534379,-0.783087 1.7534379,-1.753431 0,-0.749045 -0.45964,-1.378919 -1.123562,-1.634274 v -1.668319 c 0.136189,-0.03403 0.272378,-0.06811 0.425592,-0.0851 1.276769,-0.255352 2.349256,-0.340469 3.217467,-0.340469 1.566176,0 2.434381,0.306423 2.53652,0.510704 -0.03404,0.323458 -1.293793,1.327844 -4.017576,2.059867 0.153211,0.357492 0.221306,0.749036 0.221306,1.157608 0,0.03404 0,0.06811 0,0.102157 1.225699,-0.32346 2.315216,-0.732026 3.183422,-1.19166 1.73641,-0.936303 1.974743,-1.804505 1.855574,-2.366292 -0.01702,-0.187259 -0.102142,-0.391541 -0.272376,-0.595817 z m -3.489845,-0.953322 c -1.055466,0 -2.247125,0.119161 -3.472824,0.374521 -1.7023649,0.323451 -3.2685409,0.851181 -4.4091199,1.464034 l 0.238328,-0.953325 c 0.136189,-0.52773 0.153209,-1.089517 0.05104,-1.634269 L 6.0733791,9.9434511 c -0.204286,-1.004403 0.01705,-2.02582 0.578803,-2.877005 0.578802,-0.851181 1.429989,-1.429982 2.434383,-1.61724 0.23833,-0.05105 0.493682,-0.06811 0.7490369,-0.06811 0.749044,0 1.481059,0.221309 2.127955,0.646902 0.851184,0.561779 1.42999,1.429985 1.617248,2.434372 l 0.306426,1.5491559 c 0.102146,0.544763 0.340472,1.055471 0.663922,1.498082 l 0.595826,0.800116 c -0.37452,-0.05105 -0.766064,-0.06811 -1.17463,-0.06811 z"
         id="path6-75-6"
         style="fill:#c83771;fill-opacity:1;stroke-width:0.170234" />
    </g>
  </g>
  <metadata
     id="metadata38">
    <rdf:RDF>
      <cc:Work
         rdf:about="">
        <dc:format>image/svg+xml</dc:format>
        <dc:type
           rdf:resource="http://purl.org/dc/dcmitype/StillImage" />
      </cc:Work>
    </rdf:RDF>
  </metadata>
  <defs
     id="defs36">
    <linearGradient
       id="linearGradient2"
       inkscape:collect="always">
      <stop
         style="stop-color:#00ccff;stop-opacity:1;"
         offset="0"
         id="stop2" />
      <stop
         style="stop-color:#c83771;stop-opacity:1"
         offset="1"
         id="stop3" />
    </linearGradient>
    <linearGradient
       inkscape:collect="always"
       xlink:href="#linearGradient2"
       id="linearGradient3"
       x1="4.2"
       y1="11.000004"
       x2="13.887231"
       y2="10.011526"
       gradientUnits="userSpaceOnUse" />
    <linearGradient
       inkscape:collect="always"
       xlink:href="#linearGradient2"
       id="linearGradient5"
       x1="5.8499999"
       y1="16"
       x2="20.380871"
       y2="14.517295"
       gradientUnits="userSpaceOnUse" />
  </defs>
  <sodipodi:namedview
     pagecolor="#02334b"
     bordercolor="#000000"
     borderopacity="1"
     objecttolerance="10"
     gridtolerance="10"
     guidetolerance="10"
     inkscape:pageopacity="0"
     inkscape:pageshadow="2"
     inkscape:window-width="1920"
     inkscape:window-height="994"
     id="namedview34"
     showgrid="true"
     inkscape:zoom="4.90625"
     inkscape:cx="41.375796"
     inkscape:cy="18.242038"
     inkscape:window-x="0"
     inkscape:window-y="0"
     inkscape:window-maximized="1"
     inkscape:current-layer="svg32"
     inkscape:document-rotation="0"
     inkscape:lockguides="false"
     inkscape:showpageshadow="true"
     inkscape:pagecheckerboard="true"
     inkscape:deskcolor="#02334b">
    <inkscape:grid
       type="xygrid"
       id="grid883"
       originx="0"
       originy="0"
       spacingy="1"
       spacingx="1"
       units="px"
       visible="true" />
  </sodipodi:namedview>
  <g
     id="kalarm-disabled"
     transform="translate(64)">
    <rect
       style="opacity:0.00100002"
       width="32"
       height="32"
       x="-32"
       y="0"
       id="rect22" />
    <path
       d="M -6.256694,19.29242 C -6.56312,18.934924 -6.89508,18.577428 -7.17597,18.194397 l -1.940692,-2.604614 c -0.331961,-0.434102 -0.561779,-0.944811 -0.663921,-1.481055 l -0.459638,-2.323723 c -0.408567,-1.9917639 -1.557661,-3.7281729 -3.242999,-4.8772669 -1.17463,-0.791598 -2.502472,-1.2257 -3.855849,-1.276771 l -0.102142,-0.61285 c -0.127677,-0.689457 -0.817134,-1.123559 -1.481055,-0.995882 l -1.174629,0.229819 c -0.689457,0.127677 -1.123559,0.817134 -0.995882,1.481055 l 0.127677,0.638385 c -3.089786,1.45552 -4.928337,4.8772669 -4.264416,8.3756199 l 0.459638,2.323724 c 0.102141,0.536244 0.102141,1.098023 -0.05107,1.608732 l -0.791598,3.140857 c -0.127678,0.459638 -0.28089,0.919275 -0.434103,1.378913 -0.127677,0.357496 -0.127677,0.689457 -0.05107,0.970346 0.153213,0.842669 0.944811,1.889622 3.753708,2.221582 -0.07661,-0.33196 -0.127677,-0.663921 -0.127677,-1.021417 0,-0.306425 0.02553,-0.61285 0.102142,-0.919275 -1.123559,-0.153213 -1.761945,-0.434102 -1.838551,-0.638386 0.02554,-0.434102 1.557661,-1.736409 4.928337,-2.757826 0.02554,0 0.05107,-0.02553 0.07661,-0.02553 0.127677,-0.02554 0.229818,-0.07661 0.357496,-0.102142 v 1.966228 c -0.995887,0.383026 -1.685344,1.327837 -1.685344,2.451396 C -20.556533,26.825371 -19.381903,28 -17.926384,28 c 1.455519,0 2.630149,-1.174629 2.630149,-2.630149 0,-1.123559 -0.689457,-2.068369 -1.685338,-2.451401 v -2.502471 c 0.204283,-0.05107 0.408567,-0.102142 0.638385,-0.127678 1.915157,-0.383031 3.523889,-0.510708 4.826196,-0.510708 2.349259,0 3.651566,0.459638 3.804778,0.766063 -0.05107,0.485173 -1.940692,1.991763 -6.02636,3.089786 0.229819,0.536244 0.33196,1.123559 0.33196,1.736409 0,0.05107 0,0.102142 0,0.153213 1.838551,-0.485173 3.472818,-1.098024 4.775125,-1.78748 2.604613,-1.404448 2.962109,-2.706755 2.783361,-3.549424 -0.02554,-0.28089 -0.153212,-0.587315 -0.408566,-0.89374 z m -5.234763,-1.429984 c -1.583196,0 -3.370676,0.178748 -5.209227,0.561779 -2.553542,0.485173 -4.902801,1.276772 -6.613675,2.196047 l 0.357496,-1.429984 c 0.204283,-0.791598 0.229819,-1.634267 0.07661,-2.451401 l -0.459637,-2.323724 c -0.306426,-1.50659 0.02553,-3.038715 0.868204,-4.315487 0.868205,-1.2767709 2.144976,-2.1449749 3.651566,-2.4258649 0.357496,-0.07661 0.740527,-0.102142 1.123559,-0.102142 1.123559,0 2.221582,0.331961 3.191928,0.970347 1.276771,0.842669 2.144976,2.1449749 2.425865,3.6515649 l 0.459638,2.323724 c 0.153213,0.817134 0.510709,1.583197 0.995882,2.247118 l 0.89374,1.200165 c -0.56178,-0.07661 -1.149095,-0.102142 -1.761945,-0.102142 z"
       id="path6-7"
       style="fill:#c83771;fill-opacity:1;stroke-width:0.255354" />
  </g>
  <g
     id="kalarm-partdisabled"
     transform="translate(64)">
    <rect
       style="opacity:0.00100002"
       width="32"
       height="32"
       x="0"
       y="0"
       id="rect27" />
    <path
       d="m 25.743309,19.29242 c -0.30643,-0.357496 -0.63839,-0.714992 -0.919279,-1.098023 L 22.883338,15.589783 C 22.551377,15.155681 22.321559,14.644972 22.219417,14.108728 L 21.759779,11.785005 C 21.351212,9.793241 20.202118,8.0568321 18.51678,6.9077381 c -1.17463,-0.791598 -2.502472,-1.2257 -3.855849,-1.276771 l -0.102142,-0.61285 c -0.127677,-0.689457 -0.817134,-1.123559 -1.481055,-0.995882 l -1.174629,0.229819 c -0.689457,0.127677 -1.123559,0.817134 -0.995882,1.481055 L 11.0349,6.3714941 C 7.945114,7.8270141 6.106563,11.248761 6.770484,14.747114 l 0.459638,2.323724 c 0.102141,0.536244 0.102141,1.098023 -0.05107,1.608732 l -0.791598,3.140857 c -0.127678,0.459638 -0.28089,0.919275 -0.434103,1.378913 -0.127677,0.357496 -0.127677,0.689457 -0.05107,0.970346 0.153213,0.842669 0.944811,1.889622 3.753708,2.221582 -0.07661,-0.33196 -0.127677,-0.663921 -0.127677,-1.021417 0,-0.306425 0.02554,-0.61285 0.102142,-0.919275 -1.123559,-0.153213 -1.761945,-0.434102 -1.838551,-0.638386 0.02554,-0.434102 1.557661,-1.736409 4.928337,-2.757826 0.02554,0 0.05107,-0.02553 0.07661,-0.02553 0.127677,-0.02554 0.229818,-0.07661 0.357496,-0.102142 v 1.966228 c -0.995887,0.383026 -1.685343,1.327837 -1.685343,2.451396 C 11.443463,26.825371 12.618097,28 14.073616,28 c 1.455519,0 2.630149,-1.174629 2.630149,-2.630149 0,-1.123559 -0.689457,-2.068369 -1.685338,-2.451401 v -2.502471 c 0.204283,-0.05107 0.408567,-0.102142 0.638385,-0.127678 1.915157,-0.383031 3.523889,-0.510708 4.826196,-0.510708 2.349259,0 3.651566,0.459638 3.804778,0.766063 -0.05107,0.485173 -1.940692,1.991763 -6.02636,3.089786 0.229819,0.536244 0.33196,1.123559 0.33196,1.736409 0,0.05107 0,0.102142 0,0.153213 1.838551,-0.485173 3.472818,-1.098024 4.775125,-1.78748 2.604618,-1.404448 2.962108,-2.706755 2.783358,-3.549424 -0.0255,-0.28089 -0.15321,-0.587315 -0.40856,-0.89374 z m -5.234766,-1.429984 c -1.583196,0 -3.370676,0.178748 -5.209227,0.561779 -2.553542,0.485173 -4.902801,1.276772 -6.613675,2.196047 L 9.043137,19.190278 C 9.24742,18.39868 9.272956,17.556011 9.119747,16.738877 L 8.66011,14.415153 c -0.306426,-1.50659 0.02554,-3.038715 0.868204,-4.315487 0.868205,-1.2767709 2.144976,-2.1449749 3.651566,-2.4258649 0.357496,-0.07661 0.740527,-0.102142 1.123559,-0.102142 1.123559,0 2.221582,0.331961 3.191928,0.970347 1.276771,0.842669 2.144976,2.1449749 2.425865,3.6515649 l 0.459638,2.323724 c 0.153213,0.817134 0.510709,1.583197 0.995882,2.247118 l 0.89374,1.200165 c -0.56178,-0.07661 -1.149095,-0.102142 -1.761945,-0.102142 z"
       id="path6-5"
       style="fill:url(#linearGradient5);fill-opacity:1;stroke-width:0.255354" />
  </g>
  <g
     id="kalarm"
     style="fill:#00ccff;fill-opacity:1"
     transform="translate(64)">
    <rect
       style="opacity:0.00100002;fill:#00ccff;fill-opacity:1"
       width="32"
       height="32"
       x="-64"
       y="0"
       id="rect17" />
    <path
       d="m -36.218632,10.533769 c -0.357496,-1.7619447 -1.200165,-3.3706765 -2.451401,-4.6729832 -0.408567,-0.4341023 -1.098024,-0.4341023 -1.532126,-0.025535 -0.434102,0.4085668 -0.434102,1.0980233 -0.02553,1.5321255 0.970346,0.9703462 1.608732,2.2215821 1.864086,3.5749597 0.280889,1.429983 0.127677,2.885503 -0.459638,4.213345 -0.229819,0.536244 0,1.174629 0.56178,1.429984 0.153212,0.05107 0.280889,0.102141 0.434102,0.102141 0.408567,0 0.817133,-0.229818 0.995881,-0.638385 0.766063,-1.736409 0.970347,-3.651566 0.612851,-5.515652 z"
       id="path2"
       style="fill:#00ccff;fill-opacity:1;stroke-width:0.255354" />
    <path
       d="m -40.738479,9.3080683 c -0.33196,-0.4851731 -0.995882,-0.6383857 -1.481055,-0.3064251 -0.485173,0.3319605 -0.638385,0.9958816 -0.306425,1.4810548 0.229819,0.357496 0.408567,0.766063 0.485173,1.200165 0.102142,0.485173 0.07661,0.995882 -0.05107,1.481055 -0.153213,0.587314 0.204283,1.174629 0.766062,1.302306 0.102142,0.02554 0.178748,0.02554 0.28089,0.02554 0.485173,0 0.919275,-0.331961 1.046952,-0.817134 0.204284,-0.791598 0.229819,-1.634267 0.07661,-2.425865 -0.153213,-0.689457 -0.408567,-1.3533779 -0.817134,-1.9406927 z"
       id="path4"
       style="fill:#00ccff;fill-opacity:1;stroke-width:0.255354" />
    <path
       d="m -40.106693,19.29242 c -0.306426,-0.357496 -0.638386,-0.714992 -0.919276,-1.098023 l -1.940692,-2.604614 c -0.331961,-0.434102 -0.561779,-0.944811 -0.663921,-1.481055 L -44.09022,11.785005 C -44.498787,9.7932414 -45.647881,8.0568324 -47.333219,6.9077382 -48.507849,6.11614 -49.835691,5.6820378 -51.189068,5.6309669 L -51.29121,5.0181167 C -51.418887,4.3286602 -52.108344,3.894558 -52.772265,4.0222351 l -1.174629,0.2298188 c -0.689457,0.1276772 -1.123559,0.8171337 -0.995882,1.4810547 l 0.127677,0.6383857 c -3.089786,1.4555193 -4.928337,4.8772667 -4.264416,8.3756197 l 0.459638,2.323724 c 0.102142,0.536244 0.102142,1.098023 -0.05107,1.608732 l -0.791598,3.140857 c -0.127677,0.459638 -0.28089,0.919275 -0.434103,1.378913 -0.127677,0.357496 -0.127677,0.689457 -0.05107,0.970346 0.153213,0.842669 0.944811,1.889622 3.753708,2.221582 -0.07661,-0.33196 -0.127677,-0.663921 -0.127677,-1.021417 0,-0.306425 0.02553,-0.61285 0.102142,-0.919275 -1.123559,-0.153213 -1.761945,-0.434102 -1.838551,-0.638386 0.02554,-0.434102 1.557661,-1.736409 4.928337,-2.757826 0.02554,0 0.05107,-0.02553 0.07661,-0.02553 0.127677,-0.02554 0.229818,-0.07661 0.357496,-0.102142 v 1.966228 c -0.995885,0.383026 -1.685342,1.327837 -1.685342,2.451396 C -54.406532,26.825371 -53.231902,28 -51.776383,28 c 1.455519,0 2.630149,-1.174629 2.630149,-2.630149 0,-1.123559 -0.689457,-2.068369 -1.685338,-2.451401 v -2.502471 c 0.204283,-0.05107 0.408567,-0.102142 0.638385,-0.127678 1.915157,-0.383031 3.523889,-0.510708 4.826196,-0.510708 2.349259,0 3.651566,0.459638 3.804778,0.766063 -0.05107,0.485173 -1.940692,1.991763 -6.02636,3.089786 0.229819,0.536244 0.33196,1.123559 0.33196,1.736409 0,0.05107 0,0.102142 0,0.153213 1.838551,-0.485173 3.472818,-1.098024 4.775125,-1.78748 2.604613,-1.404448 2.962109,-2.706755 2.783361,-3.549424 -0.02554,-0.28089 -0.153212,-0.587315 -0.408566,-0.89374 z m -5.234763,-1.429984 c -1.583196,0 -3.370676,0.178748 -5.209227,0.561779 -2.553542,0.485173 -4.902801,1.276772 -6.613675,2.196047 l 0.357496,-1.429984 c 0.204283,-0.791598 0.229819,-1.634267 0.07661,-2.451401 l -0.459637,-2.323724 c -0.306425,-1.50659 0.02553,-3.038715 0.868204,-4.315487 0.868205,-1.2767708 2.144976,-2.1449753 3.651566,-2.425865 0.357496,-0.076606 0.740527,-0.1021417 1.123559,-0.1021417 1.123559,0 2.221582,0.3319606 3.191928,0.9703462 1.276771,0.8426691 2.144976,2.1449755 2.425865,3.6515655 l 0.459638,2.323724 c 0.153213,0.817134 0.510709,1.583197 0.995882,2.247118 l 0.89374,1.200165 c -0.56178,-0.07661 -1.149095,-0.102142 -1.761945,-0.102142 z"
       id="path6"
       style="fill:#00ccff;fill-opacity:1;stroke-width:0.255354" />
  </g>
  <g
     id="22-22-kalarm"
     transform="translate(0,-22)"
     style="fill:#00ccff;fill-opacity:1">
    <rect
       style="opacity:0.00100002;fill:#00ccff;fill-opacity:1"
       width="22"
       height="22"
       x="0"
       y="0"
       id="rect2" />
    <path
       d="M 18.854271,7.3558521 C 18.615943,6.1812211 18.054159,5.1087281 17.22,4.2405241 c -0.272374,-0.289401 -0.732015,-0.289401 -1.021419,-0.01705 -0.289398,0.27238 -0.289398,0.732022 -0.01703,1.021422 0.646895,0.646895 1.072487,1.481053 1.242723,2.383308 0.18726,0.953325 0.0851,1.923671 -0.306425,2.8089039 -0.153216,0.357493 0,0.783079 0.374516,0.953319 0.102147,0.03405 0.187266,0.0681 0.289407,0.0681 0.272377,0 0.544755,-0.153217 0.663921,-0.425591 0.510712,-1.1576079 0.646901,-2.4343779 0.408566,-3.6771049 z"
       id="path2-3"
       style="fill:#00ccff;fill-opacity:1;stroke-width:0.170234" />
    <path
       d="m 15.841036,6.5387111 c -0.221307,-0.323446 -0.663924,-0.425586 -0.987369,-0.20428 -0.323448,0.221307 -0.425594,0.663925 -0.204284,0.987374 0.153212,0.23833 0.272376,0.510708 0.323447,0.800105 0.06811,0.32346 0.05106,0.663926 -0.03404,0.987373 -0.102153,0.391546 0.136187,0.78309 0.510708,0.8682079 0.06811,0.01704 0.119163,0.01704 0.187262,0.01704 0.323447,0 0.61285,-0.2213039 0.697968,-0.5447569 0.136186,-0.527735 0.15321,-1.089508 0.05104,-1.617245 -0.102143,-0.459636 -0.272377,-0.902252 -0.544751,-1.293799 z"
       id="path4-6"
       style="fill:#00ccff;fill-opacity:1;stroke-width:0.170234" />
    <path
       d="m 16.262228,13.194958 c -0.204287,-0.238329 -0.425595,-0.47666 -0.612849,-0.73202 L 14.355581,10.726532 C 14.134273,10.437127 13.981062,10.096658 13.912966,9.7391621 L 13.60654,8.1900121 C 13.334159,6.8621701 12.5681,5.7045651 11.444539,4.9384941 10.661448,4.4107591 9.77622,4.1213641 8.8739701,4.0873131 l -0.0681,-0.408569 c -0.0851,-0.459638 -0.544759,-0.749038 -0.987372,-0.663921 l -0.783093,0.153214 c -0.459633,0.0851 -0.749035,0.544751 -0.663918,0.987368 l 0.0851,0.425593 c -2.059855,0.970347 -3.285559,3.251515 -2.842944,5.5837549 l 0.306421,1.549151 c 0.06809,0.357497 0.06809,0.732013 -0.03404,1.072491 L 3.3582881,14.8803 c -0.0851,0.306422 -0.187256,0.612852 -0.2894,0.919278 -0.0851,0.23833 -0.0851,0.459634 -0.03405,0.646892 0.102142,0.56179 0.629871,1.259753 2.502471,1.481056 -0.05103,-0.221303 -0.0851,-0.44261 -0.0851,-0.680943 0,-0.204279 0.01705,-0.408559 0.06811,-0.61285 -0.749042,-0.102146 -1.174628,-0.289404 -1.225702,-0.425589 0.01704,-0.289405 1.038441,-1.157609 3.285563,-1.838552 0.01703,0 0.03405,-0.01706 0.05105,-0.01706 0.0851,-0.01703 0.15321,-0.05104 0.238329,-0.06807 v 1.310816 c -0.663922,0.255359 -1.123564,0.885228 -1.123564,1.634273 -0.01703,0.98737 0.766064,1.770457 1.736411,1.770457 0.9703489,0 1.7534379,-0.783087 1.7534379,-1.753431 0,-0.749045 -0.45964,-1.378919 -1.123562,-1.634274 v -1.668319 c 0.136189,-0.03403 0.272378,-0.06811 0.425592,-0.0851 1.276769,-0.255352 2.349256,-0.340469 3.217467,-0.340469 1.566176,0 2.434381,0.306423 2.53652,0.510704 -0.03404,0.323458 -1.293793,1.327844 -4.017576,2.059867 0.153211,0.357492 0.221306,0.749036 0.221306,1.157608 0,0.03404 0,0.06811 0,0.102157 1.225699,-0.32346 2.315216,-0.732026 3.183422,-1.19166 1.73641,-0.936303 1.974743,-1.804505 1.855574,-2.366292 -0.01702,-0.187259 -0.102142,-0.391541 -0.272376,-0.595817 z m -3.489845,-0.953322 c -1.055466,0 -2.247125,0.119161 -3.472824,0.374521 -1.7023649,0.323451 -3.2685409,0.851181 -4.4091199,1.464034 l 0.238328,-0.953325 c 0.136189,-0.52773 0.153209,-1.089517 0.05104,-1.634269 L 4.8733791,9.943451 c -0.204286,-1.0044029 0.01705,-2.0258199 0.578803,-2.8770049 0.578802,-0.851181 1.429989,-1.429982 2.434383,-1.61724 0.23833,-0.05105 0.493682,-0.06811 0.749037,-0.06811 0.7490439,0 1.4810589,0.221309 2.1279549,0.646902 0.851184,0.561779 1.42999,1.429985 1.617248,2.434372 l 0.306426,1.5491559 c 0.102146,0.544763 0.340472,1.055471 0.663922,1.498082 l 0.595826,0.800116 c -0.37452,-0.05105 -0.766064,-0.06811 -1.17463,-0.06811 z"
       id="path6-75"
       style="fill:#00ccff;fill-opacity:1;stroke-width:0.170234" />
  </g>
</svg>
