<?xml version="1.0" encoding="UTF-8" standalone="no"?>
<svg
   width="32"
   height="32"
   version="1.1"
   id="svg12"
   sodipodi:docname="kruler.svg"
   inkscape:version="1.3 (0e150ed6c4, 2023-07-21)"
   xmlns:inkscape="http://www.inkscape.org/namespaces/inkscape"
   xmlns:sodipodi="http://sodipodi.sourceforge.net/DTD/sodipodi-0.dtd"
   xmlns:xlink="http://www.w3.org/1999/xlink"
   xmlns="http://www.w3.org/2000/svg"
   xmlns:svg="http://www.w3.org/2000/svg"
   xmlns:rdf="http://www.w3.org/1999/02/22-rdf-syntax-ns#"
   xmlns:cc="http://creativecommons.org/ns#"
   xmlns:dc="http://purl.org/dc/elements/1.1/">
  <metadata
     id="metadata18">
    <rdf:RDF>
      <cc:Work
         rdf:about="">
        <dc:format>image/svg+xml</dc:format>
        <dc:type
           rdf:resource="http://purl.org/dc/dcmitype/StillImage" />
      </cc:Work>
    </rdf:RDF>
  </metadata>
  <defs
     id="defs16">
    <linearGradient
       id="linearGradient1"
       inkscape:collect="always">
      <stop
         style="stop-color:#ff9955;stop-opacity:1"
         offset="0"
         id="stop1" />
      <stop
         style="stop-color:#ffd42a;stop-opacity:1"
         offset="1"
         id="stop2" />
    </linearGradient>
    <linearGradient
       inkscape:collect="always"
       xlink:href="#linearGradient1"
       id="linearGradient2"
       x1="1"
       y1="16"
       x2="31"
       y2="16"
       gradientUnits="userSpaceOnUse" />
    <linearGradient
       inkscape:collect="always"
       xlink:href="#linearGradient1"
       id="linearGradient4"
       x1="33"
       y1="21.000002"
       x2="53"
       y2="21.000002"
       gradientUnits="userSpaceOnUse" />
  </defs>
  <sodipodi:namedview
     pagecolor="#02334b"
     bordercolor="#000000"
     borderopacity="1"
     objecttolerance="10"
     gridtolerance="10"
     guidetolerance="10"
     inkscape:pageopacity="0"
     inkscape:pageshadow="2"
     inkscape:window-width="1920"
     inkscape:window-height="994"
     id="namedview14"
     showgrid="true"
     inkscape:zoom="9.8125"
     inkscape:cx="35.261146"
     inkscape:cy="21.146497"
     inkscape:window-x="0"
     inkscape:window-y="0"
     inkscape:window-maximized="1"
     inkscape:current-layer="svg12"
     inkscape:document-rotation="0"
     inkscape:showpageshadow="2"
     inkscape:pagecheckerboard="true"
     inkscape:deskcolor="#02334b"
     inkscape:lockguides="false">
    <inkscape:grid
       type="xygrid"
       id="grid843"
       originx="-1e-06"
       originy="0"
       spacingy="1"
       spacingx="1"
       units="px"
       visible="true" />
  </sodipodi:namedview>
  <g
     id="g890">
    <rect
       style="opacity:0.00100002"
       width="32"
       height="32"
       x="0"
       y="0"
       id="rect7" />
    <path
       d="M 31,24.005891 V 7.9941088 C 31,7.4450755 30.65852,6.9999968 30.237284,6.9999998 H 1.762712 C 1.3414778,6.9999997 0.99999999,7.4450775 1,7.9941088 V 24.005891 C 0.99999999,24.554922 1.3414778,25 1.762712,25 H 30.237284 C 30.65852,25.000003 31,24.554924 31,24.005891 Z M 2.999999,19 V 9 h 1 v 5 c 0,1 1,1 1,0 V 9 h 2 v 2 c 0,1.325478 2,1.325478 2,0 V 9 h 2 v 5 c 0,1 1,1 1,0 V 9 l 2,-2e-7 V 11 c 0,1 1,1 1,0 V 9 h 2 v 5 c 0,1 1,1 1,0 V 9 h 2 l -0.0034,2.022827 c 0.0018,1.323157 1.001602,1.30033 1.00338,-0.02283 V 9 h 2 v 5 c 0,1 1,1 1,0 V 9 h 2.00002 v 2 c 0,1.325484 2,1.325484 2,0 V 9 h 1 v 10 z"
       id="path2"
       style="fill:url(#linearGradient2);fill-opacity:1;stroke-width:0.580505"
       sodipodi:nodetypes="ssccssccscccccccssccccccccccccccccccccccsscccc" />
  </g>
  <g
     id="g895">
    <rect
       style="opacity:0.00100002"
       width="22"
       height="22"
       x="32"
       y="10.000001"
       id="rect2" />
    <path
       d="M 53,26.337266 V 15.662738 c -10e-7,-0.366018 -0.227651,-0.662735 -0.508472,-0.662737 H 33.508476 C 33.227653,15 33.000001,15.296717 33,15.662738 v 10.674528 c 2e-6,0.36602 0.227654,0.662736 0.508476,0.662735 h 18.983052 c 0.28082,-2e-6 0.50847,-0.296717 0.508472,-0.662735 z M 33.999999,23 v -7 h 1 v 3 c 0,0.883665 1,0.883665 1,0 v -3 h 1 v 2 c 0.002,0.881096 0.998043,0.881096 1,0 v -2 h 1 v 3 c 0.0019,0.881145 0.99808,0.881145 1,0 v -3 h 1 v 2 c 0,0.883657 2,0.883657 2,0 v -2 h 1 v 3 c 0.0014,0.881791 0.998574,0.881791 1,0 v -3 h 1 v 2 c 0.0019,0.881195 0.998118,0.881195 1,0 v -2 h 1 v 3 c 0.002,0.881049 0.998007,0.881049 1,0 v -3 h 1 v 2 c 0,0.883662 1,0.883662 1,0 v -2 h 1 v 7 z"
       id="path2-3"
       style="fill:url(#linearGradient4);fill-opacity:1;stroke-width:0.387003"
       sodipodi:nodetypes="ccccccccccccssccccccccccssccccccccccccccsscccc" />
  </g>
</svg>
