<?xml version="1.0" encoding="UTF-8" standalone="no"?>
<svg
   width="32.000004"
   height="32"
   version="1.1"
   id="svg2046"
   sodipodi:docname="lutris.svg"
   inkscape:version="1.3 (0e150ed6c4, 2023-07-21)"
   xmlns:inkscape="http://www.inkscape.org/namespaces/inkscape"
   xmlns:sodipodi="http://sodipodi.sourceforge.net/DTD/sodipodi-0.dtd"
   xmlns:xlink="http://www.w3.org/1999/xlink"
   xmlns="http://www.w3.org/2000/svg"
   xmlns:svg="http://www.w3.org/2000/svg">
  <g
     id="22-22-lutris">
    <rect
       style="fill:none;fill-opacity:1;stroke:none;stroke-width:0.1;stroke-linecap:square;stroke-linejoin:miter;stroke-miterlimit:4;stroke-dasharray:none;stroke-dashoffset:0;stroke-opacity:1"
       id="rect4148"
       width="22"
       height="22"
       x="31.999853"
       y="10" />
    <path
       style="color:#d5c289;fill:url(#linearGradient8);fill-opacity:1;stroke-width:1.25"
       class="ColorScheme-Text"
       d="m 42.999853,11 c -5.53,0 -10,4.47 -10,9.999999 0,5.530002 4.47,10.000002 10,10.000002 5.530001,0 10,-4.47 10,-10.000002 C 52.999853,15.47 48.529854,11 42.999853,11 Z m 0,1.25 c 4.837475,0 8.75,3.912513 8.75,8.749999 0,4.837476 -3.912525,8.750002 -8.75,8.750002 -4.837517,0 -8.75,-3.912526 -8.75,-8.750002 0,-4.837486 3.912483,-8.749999 8.75,-8.749999 z m 0.937477,7.148758 v 0 0 0 0 0 c 0,0 -0.04235,0.01071 0,0 z m -0.97624,5.625004 z"
       id="path58-3"
       sodipodi:nodetypes="ssssssssssccccccccccccccccc" />
    <path
       style="fill:#000000;fill-opacity:0.0954546;stroke:#000000;stroke-width:0;stroke-linecap:round;stroke-linejoin:round;stroke-miterlimit:4;stroke-dasharray:none;stroke-opacity:0.0941176"
       d="m 43.032247,21.318248 v 7.8e-5 c -0.50422,0.0025 -1.008415,0.08485 -1.399795,0.237284 l -5.562951,1.604787 0.0023,1.339543 c 0.001,0.333554 0.222177,0.489955 0.523026,0.617575 l 5.037616,2.136981 c 0.38802,0.164598 0.895296,0.245503 1.402182,0.245503 0.506884,0 1.014163,-0.08089 1.402178,-0.245503 l 5.037622,-2.136981 c 0.300849,-0.12762 0.521995,-0.28402 0.522987,-0.617575 l 0.0024,-1.153474 -5.562951,-1.790856 c -0.399539,-0.128627 -0.895554,-0.234761 -1.399772,-0.237284 v -7.8e-5 c -7.87e-4,3e-6 -0.0015,3.6e-5 -0.0024,3.9e-5 -7.84e-4,-3e-6 -0.0015,-3.6e-5 -0.0024,-3.9e-5 z"
       id="path1025-7-2"
       inkscape:connector-curvature="0"
       sodipodi:nodetypes="ccsccccsccccsccccc" />
    <path
       sodipodi:nodetypes="ccsccccsccccsccccc"
       inkscape:connector-curvature="0"
       id="path940-4-9"
       d="m 42.969902,21.080543 v 7.3e-5 c -0.50422,0.0025 -1.008416,0.08485 -1.399793,0.237286 l -5.562952,1.604789 0.0023,1.339541 c 0.001,0.333556 0.222176,0.489956 0.523027,0.617578 l 5.037615,2.136979 c 0.38802,0.164597 0.895298,0.245506 1.402184,0.245506 0.506882,0 1.014161,-0.08089 1.402179,-0.245506 L 49.41212,24.87981 c 0.300848,-0.127622 0.521994,-0.284022 0.522984,-0.617578 l 0.0024,-1.153475 -5.562952,-1.790855 c -0.399534,-0.128626 -0.895549,-0.234758 -1.399769,-0.237286 v -7.3e-5 c -7.84e-4,3e-6 -0.0015,3.5e-5 -0.0024,3.9e-5 -7.85e-4,-4e-6 -0.0015,-3.6e-5 -0.0024,-3.9e-5 z"
       style="fill:url(#linearGradient12);fill-opacity:1;stroke:#000000;stroke-width:0;stroke-linecap:round;stroke-linejoin:round;stroke-miterlimit:4;stroke-dasharray:none;stroke-opacity:0.0941176" />
    <path
       style="fill:#fff0f3;fill-opacity:0.436364;stroke:#000000;stroke-width:0;stroke-linecap:round;stroke-linejoin:round;stroke-miterlimit:4;stroke-dasharray:none;stroke-opacity:0.0941176"
       d="m 42.969902,19.826298 v 7.5e-5 c -0.50422,0.0025 -1.008416,0.08486 -1.399793,0.237286 l -5.562952,1.604787 0.0023,1.339542 c 0.001,0.333555 0.222176,0.489956 0.523027,0.617578 l 5.037615,2.136978 c 0.38802,0.164597 0.895298,0.245505 1.402184,0.245505 0.506882,0 1.014161,-0.08089 1.402179,-0.245505 l 5.037618,-2.136978 c 0.300848,-0.127622 0.521994,-0.284022 0.522984,-0.617578 l 0.0024,-1.153476 -5.562952,-1.790852 c -0.399555,-0.128628 -0.89557,-0.234762 -1.39979,-0.237287 v -7.5e-5 c -7.85e-4,3e-6 -0.0015,3.6e-5 -0.0024,3.9e-5 -7.86e-4,-3e-6 -0.0015,-3.6e-5 -0.0024,-3.9e-5 z"
       id="path962-5-3"
       inkscape:connector-curvature="0"
       sodipodi:nodetypes="ccsccccsccccsccccc" />
    <path
       style="fill:#404040;fill-opacity:1;stroke:#000000;stroke-width:0;stroke-linecap:round;stroke-linejoin:round;stroke-miterlimit:4;stroke-dasharray:none;stroke-opacity:0.0941176"
       d="m 42.969902,19.735136 v 7.6e-5 c -0.50422,0.0026 -1.008416,0.08486 -1.399793,0.237286 l -5.562952,1.604786 0.0023,1.339542 c 0.001,0.333555 0.222176,0.489956 0.523027,0.617576 l 5.037615,2.13698 c 0.38802,0.164597 0.895298,0.245504 1.402184,0.245504 0.506882,0 1.014161,-0.08089 1.402179,-0.245504 l 5.037618,-2.13698 c 0.300848,-0.12762 0.521994,-0.28402 0.522984,-0.617576 l 0.0024,-1.153474 -5.562952,-1.790854 c -0.399555,-0.128628 -0.89557,-0.234762 -1.39979,-0.237286 v -7.6e-5 c -7.85e-4,4e-6 -0.0015,3.6e-5 -0.0024,3.9e-5 -7.86e-4,-3e-6 -0.0015,-3.5e-5 -0.0024,-3.9e-5 z"
       id="path890-2-1"
       inkscape:connector-curvature="0"
       sodipodi:nodetypes="ccsccccsccccsccccc" />
    <path
       sodipodi:nodetypes="ccccsccccc"
       inkscape:connector-curvature="0"
       id="path936-5-9"
       d="m 36.007157,21.577284 0.0023,0.33196 c 0.001,0.333556 0.222176,0.489956 0.523027,0.617579 l 5.037621,2.136977 c 0.388019,0.164597 0.895297,0.245508 1.402183,0.245508 0.506882,0 1.014161,-0.0809 1.402179,-0.245508 l 5.037618,-2.136977 C 49.712973,22.3992 49.934119,22.2428 49.935109,21.909244 l 0.0024,-0.145892 z"
       style="fill:#000000;fill-opacity:0.113636;stroke:#000000;stroke-width:0;stroke-linecap:round;stroke-linejoin:round;stroke-miterlimit:4;stroke-dasharray:none;stroke-opacity:0.0941176" />
    <path
       sodipodi:nodetypes="sssssssss"
       inkscape:connector-curvature="0"
       id="rect858-4-4"
       d="m 36.451201,21.046275 5.122077,-2.136971 c 0.777921,-0.324556 2.022984,-0.315914 2.804343,0 l 5.037613,2.036779 c 0.631432,0.255297 0.776805,1.197837 0,1.525152 l -5.037613,2.122658 c -0.776803,0.327317 -2.027541,0.327317 -2.804342,0 l -5.037616,-2.122658 c -0.776802,-0.327315 -0.622955,-1.200298 -0.08446,-1.42496 z"
       style="fill:#000000;fill-opacity:1;stroke:#000000;stroke-width:0;stroke-linecap:round;stroke-linejoin:round;stroke-miterlimit:4;stroke-dasharray:none;stroke-opacity:0.0941176" />
    <rect
       style="fill:#ffffff;fill-opacity:0.986364;stroke:#000000;stroke-width:0;stroke-linecap:round;stroke-linejoin:round;stroke-miterlimit:4;stroke-dasharray:none;stroke-opacity:0.0941176"
       id="rect854-7-7"
       width="8.4454098"
       height="8.4454098"
       x="-8.7698097"
       y="46.955574"
       rx="1.5100707"
       ry="1.5100707"
       transform="matrix(0.92153341,-0.38829909,0.92153341,0.38829909,0,0)" />
    <rect
       transform="matrix(0.92153341,-0.38829909,0.92153341,0.38829909,0,0)"
       ry="1.5100707"
       rx="1.5100707"
       y="46.796566"
       x="-8.6108065"
       height="8.4454098"
       width="8.4454098"
       id="rect844-4-8"
       style="fill:url(#linearGradient10);fill-opacity:1;stroke:#000000;stroke-width:0;stroke-linecap:round;stroke-linejoin:round;stroke-miterlimit:4;stroke-dasharray:none;stroke-opacity:0.0941176" />
    <path
       style="fill:url(#linearGradient1445);fill-opacity:1;stroke:#000000;stroke-width:0;stroke-linecap:round;stroke-linejoin:round;stroke-miterlimit:4;stroke-dasharray:none;stroke-opacity:0.0941176"
       d="m 42.198033,17.834086 h 1.54847 v 4.029063 c 0,0.07155 0.0033,0.120461 -0.03947,0.157274 -0.374449,0.314232 -1.092312,0.29474 -1.438605,0.02761 -0.07382,-0.04764 -0.07042,-0.08463 -0.07042,-0.170591 z"
       id="rect1012-4-4"
       inkscape:connector-curvature="0"
       sodipodi:nodetypes="ccccccc" />
    <path
       sodipodi:nodetypes="ccccccc"
       inkscape:connector-curvature="0"
       id="path1048-3-5"
       d="m 42.198033,17.834086 h 1.54847 v 4.029063 c 0,0.07155 0.0033,0.120461 -0.03947,0.157274 -0.374449,0.314232 -1.092312,0.29474 -1.438605,0.02761 -0.07382,-0.04764 -0.07042,-0.08463 -0.07042,-0.170591 z"
       style="fill:#333333;fill-opacity:1;stroke:#000000;stroke-width:0;stroke-linecap:round;stroke-linejoin:round;stroke-miterlimit:4;stroke-dasharray:none;stroke-opacity:0.0941176" />
    <ellipse
       style="fill:url(#radialGradient982-5-2);fill-opacity:1;stroke:#000000;stroke-width:0;stroke-linecap:round;stroke-linejoin:round;stroke-miterlimit:4;stroke-dasharray:none;stroke-opacity:0.0941176"
       id="path974-0-0"
       cx="42.972286"
       cy="16.49884"
       rx="1.9659042"
       ry="1.9988394" />
    <ellipse
       cy="16.49884"
       cx="42.972286"
       id="circle994-7-3"
       style="fill:#d3dae3;fill-opacity:1;stroke:#000000;stroke-width:0;stroke-linecap:round;stroke-linejoin:round;stroke-miterlimit:4;stroke-dasharray:none;stroke-opacity:0.0941176"
       rx="1.9659042"
       ry="1.9988394" />
    <ellipse
       ry="0.45037135"
       rx="1.0501413"
       cy="21.428978"
       cx="38.635731"
       id="path1084-8-6"
       style="fill:#000000;fill-opacity:1;stroke:#000000;stroke-width:0;stroke-linecap:round;stroke-linejoin:round;stroke-miterlimit:4;stroke-dasharray:none;stroke-opacity:0.0941176" />
    <ellipse
       style="fill:#28323e;fill-opacity:1;stroke:#000000;stroke-width:0;stroke-linecap:round;stroke-linejoin:round;stroke-miterlimit:4;stroke-dasharray:none;stroke-opacity:0.0941176"
       id="ellipse1096-6-1"
       cx="38.635731"
       cy="21.403681"
       rx="0.94098336"
       ry="0.39866462" />
  </g>
  <sodipodi:namedview
     id="namedview2048"
     pagecolor="#02334b"
     bordercolor="#000000"
     borderopacity="1"
     inkscape:showpageshadow="true"
     inkscape:pageopacity="0"
     inkscape:pagecheckerboard="true"
     inkscape:deskcolor="#02334b"
     showgrid="true"
     inkscape:zoom="10.429825"
     inkscape:cx="20.230445"
     inkscape:cy="17.497897"
     inkscape:window-width="1920"
     inkscape:window-height="994"
     inkscape:window-x="0"
     inkscape:window-y="0"
     inkscape:window-maximized="1"
     inkscape:current-layer="svg2046">
    <inkscape:grid
       type="xygrid"
       id="grid224"
       originx="19.137858"
       originy="52.721613"
       spacingy="1"
       spacingx="1"
       units="px"
       visible="true" />
  </sodipodi:namedview>
  <defs
     id="l4k1">
    <linearGradient
       id="linearGradient1"
       inkscape:collect="always">
      <stop
         style="stop-color:#ff9955;stop-opacity:1;"
         offset="0"
         id="stop1" />
      <stop
         style="stop-color:#ffdd55;stop-opacity:1"
         offset="1"
         id="stop2" />
    </linearGradient>
    <style
       id="current-color-scheme"
       type="text/css">&#10;   .ColorScheme-Background {color:#181818; } .ColorScheme-ButtonBackground { color:#343434; } .ColorScheme-Highlight { color:#4285f4; } .ColorScheme-Text { color:#dfdfdf; } .ColorScheme-ViewBackground { color:#242424; } .ColorScheme-NegativeText { color:#f44336; } .ColorScheme-PositiveText { color:#4caf50; } .ColorScheme-NeutralText { color:#ff9800; }&#10;  </style>
    <linearGradient
       inkscape:collect="always"
       id="linearGradient1038">
      <stop
         style="stop-color:#ff5f73;stop-opacity:1"
         offset="0"
         id="stop1034" />
      <stop
         id="stop1042"
         offset="0.14546083"
         style="stop-color:#ff95a9;stop-opacity:1" />
      <stop
         style="stop-color:#ff8da4;stop-opacity:1"
         offset="0.25454578"
         id="stop1044" />
      <stop
         id="stop1046"
         offset="0.63634312"
         style="stop-color:#ff465c;stop-opacity:1" />
      <stop
         style="stop-color:#f2465b;stop-opacity:1"
         offset="1"
         id="stop1036" />
    </linearGradient>
    <linearGradient
       inkscape:collect="always"
       id="linearGradient980">
      <stop
         style="stop-color:#fffdfd;stop-opacity:1"
         offset="0"
         id="stop976" />
      <stop
         id="stop992"
         offset="0.33526921"
         style="stop-color:#ffe6e9;stop-opacity:1" />
      <stop
         id="stop990"
         offset="0.59462214"
         style="stop-color:#ffd6db;stop-opacity:1" />
      <stop
         id="stop988"
         offset="0.76555932"
         style="stop-color:#ffb7c1;stop-opacity:1" />
      <stop
         id="stop984"
         offset="0.92580974"
         style="stop-color:#ff9ca8;stop-opacity:1" />
      <stop
         style="stop-color:#ffbec7;stop-opacity:1"
         offset="1"
         id="stop978" />
    </linearGradient>
    <radialGradient
       inkscape:collect="always"
       xlink:href="#linearGradient980"
       id="radialGradient982-56"
       cx="336.2753"
       cy="-262.63675"
       fx="336.2753"
       fy="-262.63675"
       r="26.392866"
       gradientUnits="userSpaceOnUse"
       gradientTransform="matrix(0.10664555,0,0,0.0923909,-20.604615,35.045208)" />
    <linearGradient
       inkscape:collect="always"
       xlink:href="#linearGradient1038"
       id="linearGradient823"
       gradientUnits="userSpaceOnUse"
       gradientTransform="matrix(0.0877876,0,0,0.08738548,-13.432541,29.948507)"
       x1="321.65744"
       y1="-172.25456"
       x2="342.44727"
       y2="-172.25456" />
    <radialGradient
       inkscape:collect="always"
       xlink:href="#linearGradient980"
       id="radialGradient982-5-2"
       cx="336.2753"
       cy="-262.63675"
       fx="336.2753"
       fy="-262.63675"
       r="26.392866"
       gradientUnits="userSpaceOnUse"
       gradientTransform="matrix(0.09048686,0,0,0.08007212,12.153592,37.505853)" />
    <linearGradient
       inkscape:collect="always"
       xlink:href="#linearGradient1038"
       id="linearGradient1445"
       gradientUnits="userSpaceOnUse"
       gradientTransform="matrix(0.0744862,0,0,0.07573409,18.238969,33.088711)"
       x1="321.65744"
       y1="-172.25456"
       x2="342.44727"
       y2="-172.25456" />
    <linearGradient
       inkscape:collect="always"
       xlink:href="#linearGradient1"
       id="linearGradient2"
       x1="4"
       y1="16"
       x2="28"
       y2="16"
       gradientUnits="userSpaceOnUse" />
    <linearGradient
       inkscape:collect="always"
       xlink:href="#linearGradient1"
       id="linearGradient4"
       x1="-18.216864"
       y1="30.257933"
       x2="-8.2945185"
       y2="30.257933"
       gradientUnits="userSpaceOnUse" />
    <linearGradient
       inkscape:collect="always"
       xlink:href="#linearGradient1"
       id="linearGradient6"
       x1="7.5086069"
       y1="19.659328"
       x2="23.926525"
       y2="19.659328"
       gradientUnits="userSpaceOnUse" />
    <linearGradient
       inkscape:collect="always"
       xlink:href="#linearGradient1"
       id="linearGradient8"
       x1="32.999851"
       y1="21.000002"
       x2="52.999851"
       y2="21.000002"
       gradientUnits="userSpaceOnUse" />
    <linearGradient
       inkscape:collect="always"
       xlink:href="#linearGradient1"
       id="linearGradient10"
       x1="-8.6108074"
       y1="51.019272"
       x2="-0.16539618"
       y2="51.019272"
       gradientUnits="userSpaceOnUse" />
    <linearGradient
       inkscape:collect="always"
       xlink:href="#linearGradient1"
       id="linearGradient12"
       x1="36.007156"
       y1="24.171419"
       x2="49.937504"
       y2="24.171419"
       gradientUnits="userSpaceOnUse" />
  </defs>
  <g
     id="lutris">
    <rect
       y="0"
       x="-1.3415527e-07"
       height="32"
       width="32.000004"
       id="rect4230"
       style="fill:none;fill-opacity:1;stroke:none" />
    <path
       style="color:#d5c289;fill:url(#linearGradient2);fill-opacity:1;stroke-width:1.5"
       class="ColorScheme-Text"
       d="M 16,4 C 9.364,4 4,9.364 4,15.999999 4,22.636 9.364,28 16,28 22.636,28 28,22.636 28,15.999999 28,9.364 22.636,4 16,4 Z m 0,1.5 c 5.80498,0 10.5,4.695 10.5,10.499999 C 26.5,21.80498 21.80498,26.5 16,26.5 10.19498,26.5 5.5,21.80498 5.5,15.999999 5.5,10.195 10.19498,5.5 16,5.5 Z m 1.12498,8.578497 v 0 0 0 0 0 c 0,0 -0.05091,0.012 0,0 z m -1.171491,6.750005 z"
       id="path58"
       sodipodi:nodetypes="ssssssssssccccccccccccccccc" />
    <path
       style="fill:#000000;fill-opacity:0.0954546;stroke:#000000;stroke-width:0;stroke-linecap:round;stroke-linejoin:round;stroke-miterlimit:4;stroke-dasharray:none;stroke-opacity:0.0941176"
       d="m 15.788204,16.367209 v 8.9e-5 c -0.59426,0.0029 -1.188493,0.09791 -1.64976,0.27379 l -6.5563601,1.851678 0.00274,1.545625 c 0.00122,0.384871 0.2618516,0.565334 0.6164268,0.712589 l 5.9372163,2.465747 C 14.595766,23.406646 15.19363,23.5 15.791032,23.5 c 0.597403,0 1.195269,-0.09334 1.652576,-0.283273 l 5.93721,-2.465747 c 0.354573,-0.147255 0.615215,-0.327717 0.616381,-0.712589 l 0.0028,-1.330931 -6.556358,-2.066372 c -0.47091,-0.148417 -1.055502,-0.270877 -1.649763,-0.27379 v -8.9e-5 c -9.25e-4,4e-6 -0.0018,4.1e-5 -0.0028,4.5e-5 -9.26e-4,-4e-6 -0.0018,-4.1e-5 -0.0028,-4.5e-5 z"
       id="path1025-9"
       inkscape:connector-curvature="0"
       sodipodi:nodetypes="ccsccccsccccsccccc" />
    <path
       sodipodi:nodetypes="ccsccccsccccsccccc"
       inkscape:connector-curvature="0"
       id="path940-3"
       d="m 15.714728,16.092932 v 8.8e-5 c -0.594259,0.0029 -1.188496,0.09791 -1.649762,0.273791 l -6.5563588,1.851679 0.00274,1.545623 c 0.00122,0.384872 0.2618508,0.565333 0.6164268,0.712589 l 5.937211,2.465747 c 0.457307,0.189921 1.055171,0.283275 1.652575,0.283275 0.597401,0 1.195266,-0.09334 1.652575,-0.283275 l 5.93721,-2.465747 c 0.354574,-0.147256 0.615212,-0.327716 0.616381,-0.712589 l 0.0028,-1.33093 -6.556359,-2.066372 C 16.899251,16.218395 16.31466,16.095935 15.720401,16.09302 v -8.8e-5 c -9.27e-4,4e-6 -0.0018,4.2e-5 -0.0028,4.7e-5 -9.26e-4,-5e-6 -0.0018,-4.3e-5 -0.0028,-4.7e-5 z"
       style="fill:url(#linearGradient6);fill-opacity:1;stroke:#000000;stroke-width:0;stroke-linecap:round;stroke-linejoin:round;stroke-miterlimit:4;stroke-dasharray:none;stroke-opacity:0.0941176" />
    <path
       style="fill:#fff0f3;fill-opacity:0.436364;stroke:#000000;stroke-width:0;stroke-linecap:round;stroke-linejoin:round;stroke-miterlimit:4;stroke-dasharray:none;stroke-opacity:0.0941176"
       d="m 15.714728,14.645727 v 8.6e-5 c -0.594259,0.0029 -1.188496,0.09791 -1.649762,0.273791 l -6.5563588,1.85168 0.00274,1.545624 c 0.00122,0.384872 0.2618508,0.565334 0.6164268,0.71259 l 5.937211,2.465746 c 0.457307,0.18992 1.055171,0.283274 1.652575,0.283274 0.597401,0 1.195266,-0.09334 1.652575,-0.283274 l 5.93721,-2.465746 c 0.354574,-0.147256 0.615212,-0.327717 0.616381,-0.71259 l 0.0028,-1.330931 -6.556359,-2.066372 c -0.470894,-0.148416 -1.055485,-0.270877 -1.649745,-0.273792 v -8.5e-5 c -9.25e-4,3e-6 -0.0018,4.1e-5 -0.0028,4.5e-5 -9.25e-4,-4e-6 -0.0018,-4.2e-5 -0.0028,-4.5e-5 z"
       id="path962-6"
       inkscape:connector-curvature="0"
       sodipodi:nodetypes="ccsccccsccccsccccc" />
    <path
       style="fill:#404040;fill-opacity:1;stroke:#000000;stroke-width:0;stroke-linecap:round;stroke-linejoin:round;stroke-miterlimit:4;stroke-dasharray:none;stroke-opacity:0.0941176"
       d="m 15.714728,14.54054 v 8.7e-5 c -0.594259,0.0029 -1.188496,0.09791 -1.649762,0.273792 l -6.5563588,1.851678 0.00274,1.545624 c 0.00122,0.384872 0.2618508,0.565335 0.6164268,0.71259 l 5.937211,2.465744 c 0.457307,0.189922 1.055171,0.283275 1.652575,0.283275 0.597401,0 1.195266,-0.09334 1.652575,-0.283275 l 5.93721,-2.465744 c 0.354574,-0.147255 0.615212,-0.327717 0.616381,-0.71259 l 0.0028,-1.33093 -6.556359,-2.066372 c -0.470899,-0.148417 -1.05549,-0.270879 -1.64975,-0.273792 v -8.7e-5 c -9.26e-4,4e-6 -0.0018,4.2e-5 -0.0028,4.6e-5 -9.25e-4,-4e-6 -0.0018,-4.2e-5 -0.0028,-4.6e-5 z"
       id="path890-0"
       inkscape:connector-curvature="0"
       sodipodi:nodetypes="ccsccccsccccsccccc" />
    <path
       sodipodi:nodetypes="ccccsccccc"
       inkscape:connector-curvature="0"
       id="path936-6"
       d="m 7.5086072,16.666097 0.00274,0.383032 c 0.00122,0.384871 0.2618508,0.565333 0.6164268,0.712589 l 5.937211,2.465744 c 0.457307,0.18992 1.055171,0.283275 1.652574,0.283275 0.597401,0 1.195266,-0.09335 1.652575,-0.283275 l 5.93721,-2.465744 c 0.354574,-0.147256 0.615213,-0.327718 0.616381,-0.712589 l 0.0028,-0.168338 z"
       style="fill:#000000;fill-opacity:0.113636;stroke:#000000;stroke-width:0;stroke-linecap:round;stroke-linejoin:round;stroke-miterlimit:4;stroke-dasharray:none;stroke-opacity:0.0941176" />
    <path
       sodipodi:nodetypes="sssssssss"
       inkscape:connector-curvature="0"
       id="rect858-2"
       d="m 8.0319461,16.053393 6.0367549,-2.465736 c 0.916838,-0.374488 2.384242,-0.364515 3.305128,0 l 5.937211,2.350133 c 0.744186,0.294573 0.91552,1.382119 0,1.75979 l -5.937211,2.449221 c -0.91552,0.377671 -2.389608,0.377671 -3.305127,0 L 8.1314917,17.697579 c -0.9155204,-0.37767 -0.7341996,-1.384958 -0.09955,-1.644186 z"
       style="fill:#000000;fill-opacity:1;stroke:#000000;stroke-width:0;stroke-linecap:round;stroke-linejoin:round;stroke-miterlimit:4;stroke-dasharray:none;stroke-opacity:0.0941176" />
    <rect
       style="fill:#ffffff;fill-opacity:0.986364;stroke:#000000;stroke-width:0;stroke-linecap:round;stroke-linejoin:round;stroke-miterlimit:4;stroke-dasharray:none;stroke-opacity:0.0941176"
       id="rect854-6"
       width="9.9223452"
       height="9.9223452"
       x="-18.403675"
       y="25.483572"
       rx="1.774152"
       ry="1.774152"
       transform="matrix(0.92443183,-0.38134733,0.92443183,0.38134733,0,0)" />
    <rect
       transform="matrix(0.92443183,-0.38134733,0.92443183,0.38134733,0,0)"
       ry="1.774152"
       rx="1.774152"
       y="25.296761"
       x="-18.216864"
       height="9.9223452"
       width="9.9223452"
       id="rect844-1"
       style="fill:url(#linearGradient4);fill-opacity:1;stroke:#000000;stroke-width:0;stroke-linecap:round;stroke-linejoin:round;stroke-miterlimit:4;stroke-dasharray:none;stroke-opacity:0.0941176" />
    <path
       style="fill:url(#linearGradient823);fill-opacity:1;stroke:#000000;stroke-width:0;stroke-linecap:round;stroke-linejoin:round;stroke-miterlimit:4;stroke-dasharray:none;stroke-opacity:0.0941176"
       d="m 14.805023,12.34702 h 1.824989 v 4.648921 c 0,0.08256 0.0039,0.138994 -0.0465,0.181471 -0.441317,0.362573 -1.287372,0.340084 -1.695505,0.03187 -0.087,-0.05495 -0.08297,-0.09765 -0.08297,-0.196836 z"
       id="rect1012-8"
       inkscape:connector-curvature="0"
       sodipodi:nodetypes="ccccccc" />
    <path
       sodipodi:nodetypes="ccccccc"
       inkscape:connector-curvature="0"
       id="path1048-7"
       d="m 14.805023,12.34702 h 1.824989 v 4.648921 c 0,0.08256 0.0039,0.138994 -0.0465,0.181471 -0.441317,0.362573 -1.287372,0.340084 -1.695505,0.03187 -0.087,-0.05495 -0.08297,-0.09765 -0.08297,-0.196836 z"
       style="fill:#333333;fill-opacity:1;stroke:#000000;stroke-width:0;stroke-linecap:round;stroke-linejoin:round;stroke-miterlimit:4;stroke-dasharray:none;stroke-opacity:0.0941176" />
    <ellipse
       style="fill:url(#radialGradient982-56);fill-opacity:1;stroke:#000000;stroke-width:0;stroke-linecap:round;stroke-linejoin:round;stroke-miterlimit:4;stroke-dasharray:none;stroke-opacity:0.0941176"
       id="path974-9"
       cx="15.71754"
       cy="10.806354"
       rx="2.3169665"
       ry="2.3063533" />
    <ellipse
       cy="10.806354"
       cx="15.71754"
       id="circle994-2"
       style="fill:#d3dae3;fill-opacity:1;stroke:#000000;stroke-width:0;stroke-linecap:round;stroke-linejoin:round;stroke-miterlimit:4;stroke-dasharray:none;stroke-opacity:0.0941176"
       rx="2.3169665"
       ry="2.3063533" />
    <ellipse
       ry="0.51965928"
       rx="1.2376708"
       cy="16.494976"
       cx="10.606579"
       id="path1084-0"
       style="fill:#000000;fill-opacity:1;stroke:#000000;stroke-width:0;stroke-linecap:round;stroke-linejoin:round;stroke-miterlimit:4;stroke-dasharray:none;stroke-opacity:0.0941176" />
    <ellipse
       style="fill:#28323e;fill-opacity:1;stroke:#000000;stroke-width:0;stroke-linecap:round;stroke-linejoin:round;stroke-miterlimit:4;stroke-dasharray:none;stroke-opacity:0.0941176"
       id="ellipse1096-2"
       cx="10.606579"
       cy="16.465782"
       rx="1.10902"
       ry="0.45999768" />
  </g>
</svg>
