<?xml version="1.0" encoding="UTF-8" standalone="no"?>
<svg
   width="32"
   height="32"
   viewBox="0 0 32.000001 32.000001"
   version="1.1"
   id="svg881"
   inkscape:version="1.3 (0e150ed6c4, 2023-07-21)"
   sodipodi:docname="notification.svg"
   xmlns:inkscape="http://www.inkscape.org/namespaces/inkscape"
   xmlns:sodipodi="http://sodipodi.sourceforge.net/DTD/sodipodi-0.dtd"
   xmlns:xlink="http://www.w3.org/1999/xlink"
   xmlns="http://www.w3.org/2000/svg"
   xmlns:svg="http://www.w3.org/2000/svg"
   xmlns:rdf="http://www.w3.org/1999/02/22-rdf-syntax-ns#"
   xmlns:cc="http://creativecommons.org/ns#"
   xmlns:dc="http://purl.org/dc/elements/1.1/">
  <defs
     id="defs875">
    <linearGradient
       id="linearGradient5"
       inkscape:collect="always">
      <stop
         style="stop-color:#00ccff;stop-opacity:1;"
         offset="0"
         id="stop5" />
      <stop
         style="stop-color:#007a98;stop-opacity:1;"
         offset="1"
         id="stop6" />
    </linearGradient>
    <linearGradient
       id="linearGradient3"
       inkscape:collect="always">
      <stop
         style="stop-color:#c83771;stop-opacity:1"
         offset="0"
         id="stop3" />
      <stop
         style="stop-color:#de87aa;stop-opacity:1"
         offset="1"
         id="stop4" />
    </linearGradient>
    <linearGradient
       id="linearGradient1"
       inkscape:collect="always">
      <stop
         style="stop-color:#9955ff;stop-opacity:1;"
         offset="0"
         id="stop1" />
      <stop
         style="stop-color:#ccaaff;stop-opacity:1"
         offset="1"
         id="stop2" />
    </linearGradient>
    <linearGradient
       inkscape:collect="always"
       xlink:href="#linearGradient1"
       id="linearGradient2"
       x1="208.82494"
       y1="710.15692"
       x2="232.84207"
       y2="686.15546"
       gradientUnits="userSpaceOnUse" />
    <linearGradient
       inkscape:collect="always"
       xlink:href="#linearGradient3"
       id="linearGradient4"
       x1="208.82494"
       y1="670.24695"
       x2="232.84207"
       y2="646.24548"
       gradientUnits="userSpaceOnUse" />
    <linearGradient
       inkscape:collect="always"
       xlink:href="#linearGradient5"
       id="linearGradient6"
       x1="208.8199"
       y1="750.24695"
       x2="232.84711"
       y2="726.24548"
       gradientUnits="userSpaceOnUse" />
  </defs>
  <sodipodi:namedview
     id="base"
     pagecolor="#02334b"
     bordercolor="#000000"
     borderopacity="1"
     inkscape:pageopacity="0"
     inkscape:pageshadow="2"
     inkscape:zoom="5.6856055"
     inkscape:cx="16.181214"
     inkscape:cy="-26.822121"
     inkscape:document-units="px"
     inkscape:current-layer="layer1"
     showgrid="true"
     inkscape:window-width="1920"
     inkscape:window-height="994"
     inkscape:window-x="0"
     inkscape:window-y="0"
     inkscape:window-maximized="1"
     inkscape:lockguides="false"
     inkscape:document-rotation="0"
     inkscape:pagecheckerboard="true"
     inkscape:showpageshadow="true"
     inkscape:deskcolor="#02334b">
    <inkscape:grid
       type="xygrid"
       id="grid2747"
       originx="0"
       originy="0"
       spacingy="1"
       spacingx="1"
       units="px"
       visible="true" />
  </sodipodi:namedview>
  <metadata
     id="metadata878">
    <rdf:RDF>
      <cc:Work
         rdf:about="">
        <dc:format>image/svg+xml</dc:format>
        <dc:type
           rdf:resource="http://purl.org/dc/dcmitype/StillImage" />
      </cc:Work>
    </rdf:RDF>
  </metadata>
  <g
     inkscape:label="Layer 1"
     inkscape:groupmode="layer"
     id="layer1"
     transform="translate(-204.82493,-721.24546)">
    <g
       id="notification-progress-active"
       transform="translate(248.82493,685.24546)">
      <path
         style="fill:none"
         inkscape:connector-curvature="0"
         id="empty-rectangle"
         d="M 1,1 H 23 V 23 H 1 Z" />
      <circle
         id="circle-blue"
         cx="12"
         cy="12"
         r="8"
         class="ColorScheme-ButtonFocus"
         style="fill:#00aad4;fill-opacity:1" />
    </g>
    <g
       id="notification-progress-inactive"
       transform="translate(248.82493,725.24546)">
      <path
         style="fill:none"
         inkscape:connector-curvature="0"
         id="path10"
         d="M 1,1 H 23 V 23 H 1 Z" />
      <circle
         id="circle-transparent"
         cx="12"
         cy="12"
         r="8"
         class="ColorScheme-Text"
         style="opacity:0.6;fill:#de87aa;fill-opacity:1" />
    </g>
    <path
       inkscape:connector-curvature="0"
       id="expander-bottom"
       d="m 191.82493,709.24546 2,-2 2,2 z"
       class="ColorScheme-Text"
       style="fill:#d3dae3;fill-opacity:1" />
    <path
       inkscape:connector-curvature="0"
       id="expander-top"
       d="m 191.82493,703.24546 2,2 2,-2 z"
       class="ColorScheme-Text"
       style="fill:#d3dae3;fill-opacity:1" />
    <path
       inkscape:connector-curvature="0"
       id="expander-right"
       d="m 196.82493,704.24546 -2,2 2,2 z"
       class="ColorScheme-Text"
       style="fill:#d3dae3;fill-opacity:1"
       sodipodi:nodetypes="cccc" />
    <path
       inkscape:connector-curvature="0"
       id="expander-left"
       d="m 190.82493,704.24546 2,2 -2,2 z"
       class="ColorScheme-Text"
       style="fill:#d3dae3;fill-opacity:1" />
    <g
       id="notification-empty"
       transform="translate(248.82493,645.24546)">
      <path
         style="fill:none"
         inkscape:connector-curvature="0"
         id="path31"
         d="M 1,1 H 23 V 23 H 1 Z" />
      <path
         inkscape:connector-curvature="0"
         id="circle-outline"
         d="m 12,4 a 8,8 0 0 0 -8,8 8,8 0 0 0 8,8 8,8 0 0 0 8,-8 8,8 0 0 0 -8,-8 z m 0,1 a 7,7 0 0 1 7,7 7,7 0 0 1 -7,7 7,7 0 0 1 -7,-7 7,7 0 0 1 7,-7 z"
         class="ColorScheme-Text"
         style="fill:#d3dae3;fill-opacity:1" />
    </g>
    <g
       id="notification-inactive">
      <path
         style="fill:none;stroke-width:1.45455"
         inkscape:connector-curvature="0"
         d="m 204.82493,681.15546 h 32 v 32 h -32 z"
         id="path6" />
      <path
         id="Path_164"
         data-name="Path 164"
         d="m 231.6341,702.20627 -2.29516,-1.53 a 2.2501305,2.2501305 0 0 1 -1.00505,-1.875 v -3.6455 a 7.5004355,7.5004355 0 0 0 -4.66374,-6.9349 2.980673,2.980673 0 0 0 -5.67334,0 7.5004355,7.5004355 0 0 0 -4.66375,6.9349 v 3.6455 a 2.2501305,2.2501305 0 0 1 -1.00205,1.872 l -2.29815,1.533 a 2.700157,2.700157 0 0 0 1.50011,4.9505 h 6.30036 a 3.000175,3.000175 0 0 0 6.00035,0 h 6.30036 a 2.700157,2.700157 0 0 0 1.50011,-4.9505 z m -1.50011,3.45 h -18.60106 a 1.2000695,1.2000695 0 0 1 -0.66605,-2.205 l 2.29665,-1.53 a 3.750218,3.750218 0 0 0 1.6696,-3.12 v -3.6455 a 6.00035,6.00035 0 0 1 12.0007,0 v 3.6455 a 3.750218,3.750218 0 0 0 1.6696,3.12 l 2.29815,1.5315 a 1.2000695,1.2000695 0 0 1 -0.66759,2.2035 z m -9.30054,3 a 1.500087,1.500087 0 0 1 -1.5001,-1.5 h 3.00015 a 1.500087,1.500087 0 0 1 -1.5001,1.5 z m 0.75005,-17.251 a 0.7500435,0.7500435 0 0 1 -0.75005,0.75 3.000174,3.000174 0 0 0 -3.00014,3 0.750055,0.750055 0 0 1 -1.50011,0 4.5002615,4.5002615 0 0 1 4.50025,-4.5 0.7500435,0.7500435 0 0 1 0.75005,0.75 z"
         style="fill:url(#linearGradient2);fill-opacity:1;stroke-width:1.50008" />
    </g>
    <g
       id="notification-disabled">
      <path
         style="fill:none;stroke-width:1.45455"
         inkscape:connector-curvature="0"
         d="m 204.82493,641.24546 h 32 v 32 h -32 z"
         id="path25" />
      <path
         id="Path_164-5"
         data-name="Path 164"
         d="m 231.6341,662.29627 -2.29516,-1.53 a 2.2501305,2.2501305 0 0 1 -1.00505,-1.875 v -3.6455 a 7.5004355,7.5004355 0 0 0 -4.66374,-6.9349 2.980673,2.980673 0 0 0 -5.67334,0 7.5004355,7.5004355 0 0 0 -4.66375,6.9349 v 3.6455 a 2.2501305,2.2501305 0 0 1 -1.00205,1.872 l -2.29815,1.533 a 2.700157,2.700157 0 0 0 1.50011,4.9505 h 6.30036 a 3.000175,3.000175 0 0 0 6.00035,0 h 6.30036 a 2.700157,2.700157 0 0 0 1.50011,-4.9505 z m -1.50011,3.45 h -18.60106 a 1.2000695,1.2000695 0 0 1 -0.66605,-2.205 l 2.29665,-1.53 a 3.750218,3.750218 0 0 0 1.6696,-3.12 v -3.6455 a 6.00035,6.00035 0 0 1 12.0007,0 v 3.6455 a 3.750218,3.750218 0 0 0 1.6696,3.12 l 2.29815,1.5315 a 1.2000695,1.2000695 0 0 1 -0.66759,2.2035 z m -9.30054,3 a 1.500087,1.500087 0 0 1 -1.5001,-1.5 h 3.00015 a 1.500087,1.500087 0 0 1 -1.5001,1.5 z m 0.75005,-17.251 a 0.7500435,0.7500435 0 0 1 -0.75005,0.75 3.000174,3.000174 0 0 0 -3.00014,3 0.750055,0.750055 0 0 1 -1.50011,0 4.5002615,4.5002615 0 0 1 4.50025,-4.5 0.7500435,0.7500435 0 0 1 0.75005,0.75 z"
         style="fill:url(#linearGradient4);fill-opacity:1;stroke-width:1.50008" />
    </g>
    <g
       id="notification-active">
      <path
         style="fill:none;stroke-width:1.45455"
         inkscape:connector-curvature="0"
         d="m 204.82493,721.24546 h 32 v 32 h -32 z"
         id="path14" />
      <path
         id="Path_164-9"
         data-name="Path 164"
         d="m 231.6341,742.29627 -2.29516,-1.53 c -0.62797,-0.41716 -1.0053,-1.1211 -1.00505,-1.875 v -3.6455 c -0.003,-3.0438 -1.84602,-5.78372 -4.66374,-6.9349 -0.88855,-2.75387 -4.78479,-2.75387 -5.67334,0 -2.81772,1.15117 -4.66033,3.89109 -4.66375,6.9349 v 3.6455 c -9e-5,0.75227 -0.37611,1.45474 -1.00205,1.872 l -2.29815,1.533 c -2.23279,1.48058 -1.17896,4.95832 1.50011,4.9505 h 6.30036 c 0,4.00023 6.00035,4.00023 6.00035,0 h 6.30036 c 2.67907,0.008 3.7329,-3.46992 1.50011,-4.9505 z m -1.50011,3.45 h -18.60106 c -1.19866,0.0102 -1.66988,-1.54985 -0.66605,-2.205 l 2.29665,-1.53 c 1.04306,-0.69555 1.66956,-1.8663 1.6696,-3.12 v -3.6455 c 0,-3.3139 2.68645,-6.00035 6.00035,-6.00035 3.3139,0 6.00035,2.68645 6.00035,6.00035 v 3.6455 c 4e-5,1.2537 0.62654,2.42445 1.6696,3.12 l 2.29815,1.5315 c 1.0008,0.65645 0.52925,2.21287 -0.66759,2.2035 z m -9.30054,3 c -0.82845,10e-6 -1.50005,-0.67155 -1.5001,-1.5 h 3.00015 c -5e-5,0.82845 -0.67165,1.50001 -1.5001,1.5 z m 0.75005,-17.251 c -2e-5,0.41422 -0.33583,0.75 -0.75005,0.75 -1.65687,2e-5 -3.00004,1.74332 -3.00014,3.40019 0,1.00007 -1.50011,1.00007 -1.50011,0 1.4e-4,-2.48532 2.01493,-4.90018 4.50025,-4.90019 0.41422,0 0.75003,0.33578 0.75005,0.75 z"
         style="fill:url(#linearGradient6);fill-opacity:1;stroke-width:1.50008"
         sodipodi:nodetypes="cccccccccccccccccccccssscccccccccccccsc" />
      <path
         d="m 230.5574,731.2455 c 0,1.64783 -1.33445,2.98221 -2.98231,2.98221 -1.64648,0 -2.98241,-1.33438 -2.98241,-2.98221 0,-1.64644 1.33593,-2.98229 2.98241,-2.98229 1.64786,0 2.98231,1.33585 2.98231,2.98229 z"
         id="path72-3-7-36-2"
         style="color:#e5e9ef;fill:#00ccff;fill-opacity:1;stroke:#bac8df;stroke-width:0.0355037;stroke-opacity:1"
         class="ColorScheme-Text" />
      <path
         d="m 209.39399,734.04935 0.96228,-0.096 c 0.17402,-0.0173 0.29727,-0.171 0.28874,-0.34363 -0.14287,-2.67758 1.32158,-5.54059 3.63616,-6.91415 0.15059,-0.0889 0.20822,-0.27693 0.12596,-0.43041 l -0.4558,-0.84941 c -0.0853,-0.15874 -0.28735,-0.21881 -0.44372,-0.12722 -2.8722,1.68123 -4.66487,5.15624 -4.46795,8.46584 0.0102,0.17989 0.17482,0.31276 0.3547,0.29487 z"
         id="path1-1"
         style="fill:#00ccff;fill-opacity:1;stroke-width:0.275745"
         sodipodi:nodetypes="cccccccccc" />
      <path
         d="m 206.19552,733.805 0.94676,-0.0994 c 0.17187,-0.0182 0.29509,-0.16896 0.28536,-0.33839 -0.23492,-3.86523 1.84644,-7.74855 5.26017,-9.71184 0.15022,-0.0864 0.20881,-0.27072 0.12828,-0.42037 l -0.44284,-0.82492 c -0.0828,-0.15411 -0.28046,-0.21136 -0.43556,-0.12278 -3.96669,2.2663 -6.37547,6.75005 -6.08989,11.23319 0.0114,0.17503 0.17016,0.304 0.34723,0.28535 z"
         id="path2-2"
         style="fill:#00ccff;fill-opacity:1;stroke-width:0.270279"
         sodipodi:nodetypes="cccccccccc" />
    </g>
  </g>
</svg>
