<?xml version="1.0" encoding="UTF-8" standalone="no"?>
<svg
   width="22"
   height="22"
   version="1.1"
   id="svg12"
   sodipodi:docname="telegram.svg"
   inkscape:version="1.3.2 (091e20ef0f, 2023-11-25)"
   xmlns:inkscape="http://www.inkscape.org/namespaces/inkscape"
   xmlns:sodipodi="http://sodipodi.sourceforge.net/DTD/sodipodi-0.dtd"
   xmlns:xlink="http://www.w3.org/1999/xlink"
   xmlns="http://www.w3.org/2000/svg"
   xmlns:svg="http://www.w3.org/2000/svg"
   xmlns:rdf="http://www.w3.org/1999/02/22-rdf-syntax-ns#"
   xmlns:cc="http://creativecommons.org/ns#"
   xmlns:dc="http://purl.org/dc/elements/1.1/">
  <metadata
     id="metadata18">
    <rdf:RDF>
      <cc:Work
         rdf:about="">
        <dc:format>image/svg+xml</dc:format>
        <dc:type
           rdf:resource="http://purl.org/dc/dcmitype/StillImage" />
      </cc:Work>
    </rdf:RDF>
  </metadata>
  <defs
     id="defs16">
    <linearGradient
       id="linearGradient3"
       inkscape:collect="always">
      <stop
         style="stop-color:#00ccff;stop-opacity:0.5;"
         offset="0"
         id="stop1" />
      <stop
         style="stop-color:#5599ff;stop-opacity:0.5;"
         offset="1"
         id="stop2" />
    </linearGradient>
    <linearGradient
       inkscape:collect="always"
       xlink:href="#linearGradient22"
       id="linearGradient24"
       x1="0.7499975"
       y1="8"
       x2="15.250002"
       y2="8"
       gradientUnits="userSpaceOnUse"
       gradientTransform="matrix(1.2413969,0,0,1.230722,1.0682968,1.1543986)" />
    <linearGradient
       id="linearGradient22"
       inkscape:collect="always">
      <stop
         style="stop-color:#00ccff;stop-opacity:1"
         offset="0"
         id="stop23" />
      <stop
         style="stop-color:#5599ff;stop-opacity:1"
         offset="1"
         id="stop24" />
    </linearGradient>
    <linearGradient
       inkscape:collect="always"
       xlink:href="#linearGradient3"
       id="linearGradient1"
       gradientUnits="userSpaceOnUse"
       gradientTransform="matrix(1.2413978,0,0,1.2307325,-20.931747,1.1543342)"
       x1="0.7499975"
       y1="8"
       x2="15.250002"
       y2="8" />
    <linearGradient
       inkscape:collect="always"
       xlink:href="#linearGradient22"
       id="linearGradient2"
       gradientUnits="userSpaceOnUse"
       gradientTransform="matrix(1.2413997,0,0,1.2307485,1.0682938,1.1543516)"
       x1="0.7499975"
       y1="8"
       x2="15.250002"
       y2="8" />
  </defs>
  <sodipodi:namedview
     pagecolor="#201933"
     bordercolor="#000000"
     borderopacity="1"
     objecttolerance="10"
     gridtolerance="10"
     guidetolerance="10"
     inkscape:pageopacity="0"
     inkscape:pageshadow="2"
     inkscape:window-width="1920"
     inkscape:window-height="994"
     id="namedview14"
     showgrid="true"
     inkscape:zoom="9.9124993"
     inkscape:cx="-11.197983"
     inkscape:cy="17.503154"
     inkscape:window-x="0"
     inkscape:window-y="0"
     inkscape:window-maximized="1"
     inkscape:current-layer="svg12"
     inkscape:document-rotation="0"
     inkscape:pagecheckerboard="true"
     inkscape:lockguides="true"
     inkscape:showpageshadow="2"
     inkscape:deskcolor="#201933">
    <inkscape:grid
       type="xygrid"
       id="grid833"
       originx="-32"
       originy="-10"
       spacingy="1"
       spacingx="1"
       units="px"
       visible="true" />
  </sodipodi:namedview>
  <g
     id="telegram-panel"
     transform="translate(-44)">
    <rect
       style="opacity:0.00100002"
       width="22"
       height="22"
       x="0"
       y="0"
       id="rect2-1" />
    <path
       class="ColorScheme-Text"
       d="m 18.666594,3.0022162 c -0.221621,0.015609 -0.439877,0.066868 -0.645752,0.1525163 h -0.002 c -0.197768,0.076808 -1.136022,0.4675741 -2.562529,1.059825 L 10.344434,6.3453414 C 6.6768971,7.8727349 3.0712432,9.3778644 3.0712432,9.3778644 l 0.042759,-0.01666 c 0,0 -0.2486274,0.081325 -0.5085045,0.2571662 C 2.4457466,9.719673 2.3073696,9.8521611 2.2004946,10.0069 c -0.1282509,0.184802 -0.2306274,0.46868 -0.1923763,0.760355 0.062997,0.49541 0.3870025,0.791532 0.6187542,0.955182 0.2362529,0.165874 0.4601284,0.243803 0.4601284,0.243803 h 0.00551 l 3.3817405,1.126623 c 0.1507497,0.482042 1.0305081,3.340898 1.2408846,3.999951 0.1248755,0.392975 0.2463763,0.639003 0.3982535,0.827148 0.073126,0.09577 0.158626,0.175897 0.2621267,0.240464 0.05401,0.03003 0.1102478,0.05456 0.1698764,0.07241 l -0.033741,-0.0084 c 0.010167,0.0037 0.018012,0.01084 0.025874,0.01448 0.028123,0.0083 0.046132,0.0098 0.082133,0.01553 0.5343618,0.160262 0.9652398,-0.168148 0.9652398,-0.168148 l 0.023597,-0.02007 1.9968886,-1.797905 3.345778,2.539339 0.07651,0.03231 c 0.696387,0.302811 1.402888,0.134702 1.776389,-0.162537 0.375765,-0.299469 0.52201,-0.682431 0.52201,-0.682431 l 0.02477,-0.06235 2.585268,-13.1075419 c 0.07313,-0.3241468 0.09216,-0.62696 0.01094,-0.9208639 C 19.864175,3.6062213 19.670632,3.3501737 19.406259,3.186526 19.184632,3.0529354 18.927005,2.9883563 18.667125,3.0017247 Z m -0.06972,1.4038241 c -0.002,0.043359 0.0057,0.038923 -0.01349,0.1213427 v 0.0068 l -2.561565,12.971698 c -0.01093,0.01892 -0.0292,0.05901 -0.08095,0.0991 -0.05415,0.0423 -0.09675,0.06902 -0.32175,-0.01891 L 11.526361,14.481177 9.0547134,16.711038 9.573343,13.429146 16.260398,7.2616747 C 16.536032,7.0078469 16.443782,6.954414 16.443782,6.954414 16.462932,6.6438073 16.027525,6.86315 16.027525,6.86315 l -8.4319459,5.168867 -0.00217,-0.01333 -4.0410336,-1.347051 v -0.0017 l -0.010176,-0.0018 c 0.00679,-0.0018 0.013501,-0.0045 0.020239,-0.007 l 0.022508,-0.01129 0.021365,-0.007 c 0,0 3.6079057,-1.5051288 7.2765635,-3.0325256 1.836017,-0.7659067 3.686657,-1.5362806 5.109794,-2.1318758 0.843752,-0.350679 1.688639,-0.700245 2.534638,-1.0475765 0.05628,-0.022304 0.02921,-0.022304 0.06973,-0.022304 z"
       id="path22-2-6"
       style="color:#d5c289;isolation:isolate;fill:url(#linearGradient2);fill-opacity:1;stroke-width:1.236" />
  </g>
  <g
     id="telegram-mute-panel">
    <rect
       style="opacity:0.00100002"
       width="22"
       height="22"
       x="-22"
       y="0"
       id="rect2-8" />
    <path
       class="ColorScheme-Text"
       d="m -3.3334743,3.0021747 c -0.2216217,0.015607 -0.4398748,0.066868 -0.6457516,0.1525148 h -0.00182 c -0.197777,0.076808 -1.1360285,0.4675671 -2.5625317,1.0598106 l -5.1120554,2.1307563 c -3.667531,1.5273734 -7.273179,3.0324833 -7.273179,3.0324833 l 0.0428,-0.01666 c 0,0 -0.248627,0.081324 -0.508506,0.2571626 -0.159749,0.1012991 -0.298122,0.2337855 -0.405001,0.3885217 -0.128251,0.184801 -0.230625,0.468676 -0.192373,0.76035 0.06298,0.4954 0.387001,0.79152 0.618748,0.955167 0.236254,0.16587 0.460128,0.243799 0.460128,0.243799 h 0.0057 l 3.381738,1.126612 c 0.150746,0.482032 1.030505,3.340852 1.240882,3.999894 0.124873,0.392973 0.246375,0.639 0.398254,0.827141 0.07316,0.09577 0.158624,0.175892 0.262125,0.240457 0.05404,0.03004 0.110248,0.05456 0.169876,0.07242 l -0.03372,-0.0082 c 0.01022,0.0037 0.01803,0.01081 0.02586,0.01448 0.02817,0.0081 0.04614,0.0096 0.08212,0.01553 0.534363,0.160301 0.965239,-0.168106 0.965239,-0.168106 l 0.02359,-0.02007 1.996882,-1.79788 3.3457717,2.539307 0.076484,0.03231 c 0.6963834,0.302806 1.402884,0.134698 1.7763852,-0.162536 0.3757634,-0.299464 0.522011,-0.68242 0.522011,-0.68242 l 0.024747,-0.06235 2.5852336,-13.107427 c 0.073068,-0.3241467 0.092124,-0.6269559 0.010897,-0.920856 C -2.1358829,3.6062138 -2.3294256,3.3501695 -2.593797,3.1865241 -2.8154249,3.0529352 -3.0730499,2.9883568 -3.3329285,3.0017251 Z m -0.069705,1.4038056 c -0.00182,0.043359 0.00566,0.038926 -0.013494,0.1213411 v 0.0068 L -5.9782429,17.505659 c -0.010969,0.01892 -0.029206,0.05901 -0.080954,0.0991 -0.054129,0.0423 -0.09675,0.06902 -0.3217526,-0.01891 l -4.0927465,-3.104824 -2.471642,2.229832 0.518631,-3.281849 6.6870431,-6.1673911 C -5.4640362,7.0077761 -5.5562885,6.9543441 -5.5562885,6.9543441 -5.5371355,6.6437413 -5.97254,6.8630811 -5.97254,6.8630811 l -8.431932,5.1688019 -0.0024,-0.01334 -4.041028,-1.347037 v -0.0017 l -0.01022,-0.0018 c 0.0071,-0.0018 0.01351,-0.0045 0.02025,-0.0071 l 0.02248,-0.01129 0.02141,-0.0071 c 0,0 3.607899,-1.5051081 7.276549,-3.032485 1.836017,-0.7658944 3.6866532,-1.5362582 5.1097879,-2.1318457 0.8437534,-0.3506744 1.6886373,-0.7002358 2.5346333,-1.0475627 0.056296,-0.022305 0.029216,-0.022305 0.069714,-0.022305 z"
       id="path22-2"
       style="color:#d5c289;isolation:isolate;fill:url(#linearGradient1);fill-opacity:1;stroke-width:1.23598" />
    <path
       d="M -1.500008,13.999991 C -1.500008,15.65766 -2.842362,17 -4.500005,17 -6.156258,17.000001 -7.5,15.65766 -7.5,13.999991 -7.5,12.343739 -6.156258,11 -4.500005,11 c 1.657642,0 2.999997,1.343739 2.999997,2.999991 z"
       id="path72-3"
       style="color:#e5e9ef;fill:#ffffff;fill-opacity:0.60000002;stroke-width:0.0357141"
       class="ColorScheme-Text" />
    <path
       d="m -3.6500045,13.999996 c 0,0.414414 -0.3355815,0.750004 -0.75,0.750004 C -4.814066,14.750001 -5.15,14.41441 -5.15,13.999996 -5.15,13.58593 -4.814066,13.25 -4.4000045,13.25 c 0.4144185,0 0.75,0.33593 0.75,0.749996 z"
       id="path72-3-2"
       style="color:#e5e9ef;fill:#000000;fill-opacity:1;stroke-width:0.00892875"
       class="ColorScheme-Text" />
    <path
       d="m -5.500006,13.999996 c 0,0.414414 -0.3355815,0.750004 -0.75,0.750004 C -6.6640675,14.750001 -7,14.41441 -7,13.999996 -7,13.58593 -6.6640675,13.25 -6.250006,13.25 c 0.4144185,0 0.75,0.33593 0.75,0.749996 z"
       id="path72-3-2-4"
       style="color:#e5e9ef;fill:#000000;fill-opacity:1;stroke-width:0.00892875"
       class="ColorScheme-Text" />
    <path
       d="m -1.8000075,13.999996 c 0,0.414414 -0.3355815,0.750004 -0.75,0.750004 C -2.9640675,14.750001 -3.3,14.41441 -3.3,13.999996 -3.3,13.58593 -2.9640675,13.25 -2.5500075,13.25 c 0.4144185,0 0.75,0.33593 0.75,0.749996 z"
       id="path72-3-2-2"
       style="color:#e5e9ef;fill:#000000;fill-opacity:1;stroke-width:0.00892875"
       class="ColorScheme-Text" />
  </g>
  <g
     id="telegram-attention-panel">
    <rect
       style="opacity:0.00100002"
       width="22"
       height="22"
       x="0"
       y="0"
       id="rect2" />
    <path
       class="ColorScheme-Text"
       d="m 18.666554,3.0022231 c -0.221622,0.015608 -0.439873,0.066869 -0.64575,0.1525135 h -0.002 C 17.821083,3.2315426 16.882832,3.6222994 15.45633,4.2145381 L 10.344405,6.3452756 C 6.6768869,7.8726356 3.0712413,9.3777323 3.0712413,9.3777323 l 0.042759,-0.01666 c 0,0 -0.2486263,0.081322 -0.508503,0.2571603 C 2.4457464,9.7195337 2.3073698,9.852019 2.200495,10.006754 c -0.1282506,0.184799 -0.2306269,0.468672 -0.1923757,0.76034 0.062998,0.495395 0.3870015,0.791513 0.6187527,0.95516 0.2362524,0.165871 0.4601276,0.243797 0.4601276,0.243797 h 0.00554 l 3.381736,1.126599 c 0.1507496,0.48203 1.0305058,3.340825 1.2408817,3.999861 0.1248754,0.392969 0.2463759,0.638991 0.398253,0.827134 0.073125,0.09577 0.1586253,0.17589 0.2621256,0.240456 0.05401,0.03003 0.1102477,0.05456 0.1698762,0.07241 l -0.033745,-0.0081 c 0.010168,0.0037 0.018013,0.01081 0.025874,0.01448 0.028121,0.008 0.04613,0.0096 0.082134,0.01552 0.534364,0.160299 0.9652406,-0.168104 0.9652406,-0.168104 l 0.023595,-0.02006 1.9968843,-1.797865 3.345773,2.539286 0.07653,0.03231 c 0.696382,0.302799 1.402883,0.134695 1.776383,-0.162537 0.375761,-0.299459 0.52201,-0.682414 0.52201,-0.682414 l 0.02478,-0.06235 L 19.93612,4.8253233 C 20.00924,4.5011808 20.028269,4.1983744 19.947036,3.904477 19.864135,3.6062089 19.670591,3.3501665 19.406221,3.1865226 19.184594,3.052935 18.926967,2.9883572 18.66709,3.0017253 Z m -0.06972,1.4037933 c -0.002,0.043359 0.006,0.038925 -0.01352,0.1213403 v 0.0068 L 16.021773,17.505576 c -0.01093,0.01891 -0.0292,0.05901 -0.08095,0.0991 -0.05415,0.0423 -0.09675,0.06902 -0.321752,-0.01891 l -4.092732,-3.104838 -2.4716394,2.22981 0.5186276,-3.281821 6.6870408,-6.167336 c 0.275627,-0.2538182 0.183375,-0.3072498 0.183375,-0.3072498 0.01915,-0.3106 -0.41625,-0.091261 -0.41625,-0.091261 L 7.595566,12.031825 7.593406,12.018515 3.552382,10.671491 v -0.0017 l -0.010176,-0.0018 c 0.00679,-0.0018 0.013503,-0.0045 0.020239,-0.0071 l 0.022509,-0.01129 0.021365,-0.0071 c 0,0 3.6078975,-1.5050951 7.276544,-3.0324586 1.836013,-0.7658777 3.686652,-1.5362352 5.109785,-2.1318176 0.843752,-0.3506712 1.688636,-0.7002296 2.534631,-1.0475535 0.05624,-0.022302 0.02922,-0.022302 0.06973,-0.022302 z"
       id="path22"
       style="color:#d5c289;isolation:isolate;fill:url(#linearGradient24);fill-opacity:1;stroke-width:1.23598" />
    <path
       d="M 20.499993,13.999991 C 20.499993,15.65766 19.157638,17 17.499996,17 15.843742,17.000001 14.5,15.65766 14.5,13.999991 14.5,12.343739 15.843742,11 17.499996,11 c 1.657642,0 2.999997,1.343739 2.999997,2.999991 z"
       id="path72-3-6"
       style="color:#e5e9ef;fill:#00aa7f;fill-opacity:1;stroke-width:0.0357141"
       class="ColorScheme-Text" />
    <path
       id="path4166"
       d="m 19,12.1 1,1 -3,3 -2,-2 1,-1 1,1 z"
       class="ColorScheme-Background"
       fill="currentColor"
       fill-rule="evenodd"
       stroke="none"
       stroke-width="1"
       stroke-linecap="butt"
       stroke-linejoin="miter"
       stroke-opacity="1"
       style="color:#eff0f1;fill:#d3dae3;fill-opacity:1" />
  </g>
</svg>
