<?xml version="1.0" encoding="UTF-8" standalone="no"?>
<svg
   width="32"
   height="32"
   version="1.1"
   id="svg20"
   sodipodi:docname="veracrypt.svg"
   inkscape:version="1.3.1 (91b66b0783, 2023-11-16)"
   xmlns:inkscape="http://www.inkscape.org/namespaces/inkscape"
   xmlns:sodipodi="http://sodipodi.sourceforge.net/DTD/sodipodi-0.dtd"
   xmlns="http://www.w3.org/2000/svg"
   xmlns:svg="http://www.w3.org/2000/svg">
  <defs
     id="defs24" />
  <sodipodi:namedview
     id="namedview22"
     pagecolor="#02334b"
     bordercolor="#000000"
     borderopacity="1"
     inkscape:showpageshadow="2"
     inkscape:pageopacity="0"
     inkscape:pagecheckerboard="true"
     inkscape:deskcolor="#02334b"
     showgrid="true"
     inkscape:lockguides="false"
     inkscape:zoom="7.375"
     inkscape:cx="29.016949"
     inkscape:cy="36.949153"
     inkscape:window-width="1920"
     inkscape:window-height="994"
     inkscape:window-x="0"
     inkscape:window-y="0"
     inkscape:window-maximized="1"
     inkscape:current-layer="svg20">
    <inkscape:grid
       type="xygrid"
       id="grid794"
       originx="0"
       originy="0"
       spacingy="1"
       spacingx="1"
       units="px"
       visible="true" />
  </sodipodi:namedview>
  <g
     id="veracrypt">
    <rect
       style="opacity:0.00100002"
       width="32"
       height="32"
       x="0"
       y="0"
       id="rect11" />
    <path
       fill="#0198c4"
       d="M 3.5,4.000001 9.452381,4 l 6.27262,22.001538 0.423812,1.997958 h -5.505956 z"
       id="path4"
       style="stroke-width:1.19523" />
    <path
       fill="#4dbac2"
       d="M 18.195243,16.605737 13.291669,16.600237 10.642855,28 h 5.357147 c 2.448686,-10.702211 2.195591,-11.3934 2.195591,-11.3934 z"
       id="path5"
       style="stroke-width:1.19523" />
    <path
       fill="#06b788"
       d="m 16.595238,4.000001 -3.571425,12.599736 3.124999,11.399759 h 12.351187 l -2.380952,-5.999873 h -5.35714 l -1.785714,-5.399886 1.785714,-6.599859 h 5.35714 l 2.380952,-5.999877 z"
       id="path6"
       style="stroke-width:1.19523" />
  </g>
  <g
     id="22-22-veracrypt">
    <rect
       style="opacity:0.00100002"
       width="22"
       height="22"
       x="32"
       y="10"
       id="rect2" />
    <path
       fill="#0198c4"
       d="M 34.5,13.000001 38.547616,13 42.813,27.667811 l 0.288191,1.331983 h -3.744049 z"
       id="path4-3"
       style="stroke-width:0.804756" />
    <path
       fill="#4dbac2"
       d="M 44.492765,21.403895 41.158333,21.400095 39.357141,29 h 3.642861 c 1.665106,-7.134863 1.493,-7.59566 1.493,-7.59566 z"
       id="path5-1"
       style="stroke-width:0.804756" />
    <path
       fill="#06b788"
       d="m 43.404761,13.000001 -2.42857,8.399893 2.125,7.5999 h 8.398808 L 49.88095,24.999846 h -3.642854 l -1.214285,-3.599952 1.214285,-4.399945 h 3.642854 l 1.619049,-3.999948 z"
       id="path6-4"
       style="stroke-width:0.804756" />
  </g>
</svg>
