<?xml version="1.0" encoding="UTF-8" standalone="no"?>
<svg
   width="32"
   height="32"
   version="1.1"
   id="svg12"
   sodipodi:docname="video.svg"
   inkscape:version="1.3 (0e150ed6c4, 2023-07-21)"
   xmlns:inkscape="http://www.inkscape.org/namespaces/inkscape"
   xmlns:sodipodi="http://sodipodi.sourceforge.net/DTD/sodipodi-0.dtd"
   xmlns:xlink="http://www.w3.org/1999/xlink"
   xmlns="http://www.w3.org/2000/svg"
   xmlns:svg="http://www.w3.org/2000/svg"
   xmlns:rdf="http://www.w3.org/1999/02/22-rdf-syntax-ns#"
   xmlns:cc="http://creativecommons.org/ns#"
   xmlns:dc="http://purl.org/dc/elements/1.1/">
  <metadata
     id="metadata18">
    <rdf:RDF>
      <cc:Work
         rdf:about="">
        <dc:format>image/svg+xml</dc:format>
        <dc:type
           rdf:resource="http://purl.org/dc/dcmitype/StillImage" />
      </cc:Work>
    </rdf:RDF>
  </metadata>
  <defs
     id="defs16">
    <linearGradient
       id="linearGradient2"
       inkscape:collect="always">
      <stop
         style="stop-color:#ff00ff;stop-opacity:1;"
         offset="0"
         id="stop2" />
      <stop
         style="stop-color:#058bce;stop-opacity:1;"
         offset="1"
         id="stop3" />
    </linearGradient>
    <linearGradient
       inkscape:collect="always"
       xlink:href="#linearGradient2"
       id="linearGradient3"
       x1="-32"
       y1="21"
       x2="-2"
       y2="-7"
       gradientUnits="userSpaceOnUse" />
    <linearGradient
       inkscape:collect="always"
       xlink:href="#linearGradient2"
       id="linearGradient5"
       x1="3"
       y1="19"
       x2="19"
       y2="2.9999998"
       gradientUnits="userSpaceOnUse" />
    <linearGradient
       inkscape:collect="always"
       xlink:href="#linearGradient2"
       id="linearGradient7"
       x1="5"
       y1="14"
       x2="15"
       y2="5"
       gradientUnits="userSpaceOnUse" />
  </defs>
  <sodipodi:namedview
     pagecolor="#02334b"
     bordercolor="#000000"
     borderopacity="1"
     objecttolerance="10"
     gridtolerance="10"
     guidetolerance="10"
     inkscape:pageopacity="0"
     inkscape:pageshadow="2"
     inkscape:window-width="1920"
     inkscape:window-height="994"
     id="namedview14"
     showgrid="true"
     inkscape:zoom="9.8125003"
     inkscape:cx="20.942675"
     inkscape:cy="19.10828"
     inkscape:window-x="0"
     inkscape:window-y="0"
     inkscape:window-maximized="1"
     inkscape:current-layer="svg12"
     inkscape:document-rotation="0"
     inkscape:lockguides="false"
     inkscape:pagecheckerboard="true"
     inkscape:showpageshadow="2"
     inkscape:deskcolor="#02334b">
    <inkscape:grid
       type="xygrid"
       id="grid3840"
       originx="32"
       originy="10.000003"
       spacingy="1"
       spacingx="1"
       units="px"
       visible="true" />
  </sodipodi:namedview>
  <g
     id="video-display-brightness"
     transform="translate(32,10.000003)"
     style="fill:url(#linearGradient3)">
    <rect
       style="opacity:0.00100002;fill:url(#linearGradient3)"
       width="32"
       height="32"
       x="-32"
       y="-10.000003"
       id="rect7" />
    <path
       d="m -12.872827,2.9791297 a 0.76693863,0.76693863 0 0 1 0,-0.9052928 l 0.683208,-0.9292308 a 0.76693863,0.76693863 0 0 0 -0.702011,-1.21617 l -1.144437,0.1247795 a 0.76693863,0.76693863 0 0 1 -0.787418,-0.4560613 l -0.464599,-1.0539001 a 0.76693863,0.76693863 0 0 0 -1.40407,0 l -0.464599,1.0539001 a 0.76693863,0.76693863 0 0 1 -0.784049,0.4526493 l -1.144425,-0.1247951 a 0.76693863,0.76693863 0 0 0 -0.702022,1.2161699 l 0.683256,0.9292207 a 0.76693863,0.76693863 0 0 1 0,0.9052872 l -0.683256,0.9292086 a 0.76693863,0.76693863 0 0 0 0.702022,1.21617 l 1.144425,-0.1246301 a 0.76693863,0.76693863 0 0 1 0.784049,0.4526555 l 0.464599,1.0539 a 0.76693863,0.76693863 0 0 0 1.40407,0 l 0.464599,-1.0539 a 0.76693863,0.76693863 0 0 1 0.784,-0.4526555 l 1.144436,0.1246301 a 0.76693863,0.76693863 0 0 0 0.702011,-1.21617 z m -3.113898,1.5253372 a 1.9779843,1.9779843 0 1 1 1.97288,-1.9780018 1.9779843,1.9779843 0 0 1 -1.97288,1.9780018 z m 2.133441,-5.07821234 -0.536371,-0.30916684 0.635453,-1.10341822 0.536323,0.3091591 z M -19.725771,2.1763241 V 2.7946504 L -21,2.7839733 V 2.1655024 Z m 7.471255,0.7174047 0.0094,-0.6183602 1.274247,0.021246 -0.0094,0.6183354 z m -5.29513,-3.78347815 -0.539751,0.30406743 -0.630277,-1.11028878 0.539741,-0.3040323 z m -0.601228,6.47713465 0.534612,0.3143119 -0.645661,1.0982998 -0.532903,-0.3142866 z m 3.839828,0.2886836 0.529495,-0.321121 0.661046,1.0880373 -0.529543,0.3211291 z"
       id="path4"
       style="fill:url(#linearGradient3);fill-opacity:1;stroke-width:0.170814" />
    <path
       d="M -3.6519407,-6.0000029 H -28.348058 c -0.91077,0 -1.651942,0.6220882 -1.651942,1.5099999 v 17.643 c 0,0.946836 0.489162,1.847 1.651942,1.847 h 9.089644 c -0.283623,0.895651 -0.950823,2.014291 -2.295686,2.014291 v 0.985709 h 11.108201 v -0.985709 c -1.344863,0 -2.012063,-1.11864 -2.295686,-2.014291 H -3.752 c 1.413091,0 1.752,-0.900164 1.752,-1.847 V -4.3898714 c 0,-0.8879117 -0.7411714,-1.6101315 -1.6519407,-1.6101315 z M -2.961,13.052809 c 0.00297,0.156166 -0.1386982,0.947188 -0.791,0.947188 H -28.348058 C -29,13.999997 -29,13.209003 -29,13.052809 V 10.999997 H -3 Z M -3,9.999997 h -26 v -14.09 c 0,-0.9100001 0.591428,-0.882823 0.752,-0.883 l 24.496,-0.027 c 0.1602148,-1.766e-4 0.752,-10e-8 0.752,1.01 z"
       id="path2"
       style="fill:url(#linearGradient3);fill-opacity:1;stroke-width:0.356287"
       sodipodi:nodetypes="sssssccccccsssssscsccscccsssc" />
  </g>
  <g
     id="22-22-video-display-brightness"
     transform="translate(32,10.000003)">
    <g
       id="g893">
      <rect
         style="opacity:0.00100002"
         width="22"
         height="22"
         x="0"
         y="-1.3897704e-07"
         id="rect2" />
      <path
         d="m 12.876301,8.9584745 a 0.46016319,0.46016319 0 0 1 0,-0.5431773 l 0.409932,-0.5575317 a 0.46016319,0.46016319 0 0 0 -0.421211,-0.729702 l -0.686661,0.074833 a 0.46016319,0.46016319 0 0 1 -0.472454,-0.273631 l -0.278761,-0.63234 a 0.46016319,0.46016319 0 0 0 -0.84244,0 l -0.278761,0.63234 A 0.46016319,0.46016319 0 0 1 9.835522,7.2008632 L 9.1488693,7.1260192 A 0.46016319,0.46016319 0 0 0 8.727651,7.8557212 l 0.4099485,0.5575274 a 0.46016319,0.46016319 0 0 1 0,0.5431752 L 8.727651,9.513949 A 0.46016319,0.46016319 0 0 0 9.1488693,10.24365 L 9.835522,10.16888 a 0.46016319,0.46016319 0 0 1 0.470423,0.271591 l 0.278761,0.632341 a 0.46016319,0.46016319 0 0 0 0.84244,0 l 0.278761,-0.632341 a 0.46016319,0.46016319 0 0 1 0.470404,-0.271591 l 0.68666,0.07477 a 0.46016319,0.46016319 0 0 0 0.42121,-0.729699 z M 11.007967,9.873676 A 1.1867907,1.1867907 0 1 1 12.191691,8.6868794 1.1867907,1.1867907 0 0 1 11.007967,9.873676 Z M 12.288028,6.8267543 11.966211,6.6412548 12.347475,5.9791986 12.669273,6.164696 Z M 8.7645438,8.4767904 V 8.8477876 L 8,8.8409026 V 8.4698231 Z m 4.4827482,0.4304414 0.0058,-0.371008 0.764546,0.012833 -0.0058,0.3710032 z M 10.070216,6.6371528 9.746363,6.8195864 9.368193,6.1534198 9.692043,5.970997 Z m -0.360742,3.8862782 0.320772,0.188585 -0.387397,0.658981 -0.319748,-0.188572 z m 2.303894,0.173209 0.317701,-0.192673 0.396626,0.652823 -0.31772,0.192678 z"
         id="path4-5"
         style="fill:url(#linearGradient7);fill-opacity:1;stroke-width:0.102486" />
      <path
         d="M 18.938051,2.999997 H 3.0619676 C 2.4764676,2.999997 2,3.481711 2,4.073658 v 11.828339 c 0,0.591942 0.4764676,1.098 1.0619676,1.098 h 5.8433446 c -0.1823353,0.597101 -0.6112455,1.34286 -1.4757979,1.34286 v 0.65714 h 7.1409797 v -0.65714 c -0.864552,0 -1.293466,-0.745759 -1.475789,-1.34286 h 5.843346 C 19.52354,16.999997 20,16.493939 20,15.901997 V 4.07341 C 20,3.481479 19.52354,2.999997 18.938051,2.999997 Z M 19,15.701872 c 0,0.104129 0,0.298125 -0.262,0.298125 H 3.3 C 3,15.999997 3,15.80583 3,15.701708 v -1.701711 h 16 z m 0,-2.701875 H 3 v -8.627 c 0,-0.104115 0,-0.373 0.262,-0.373 h 15.476 c 0.262,0 0.262,0.268859 0.262,0.373 z"
         id="path2-3"
         style="fill:url(#linearGradient5);fill-opacity:1;stroke-width:0.233238"
         sodipodi:nodetypes="sssssccccccssssssssccsccssssc" />
    </g>
  </g>
</svg>
