<?xml version="1.0" encoding="UTF-8" standalone="no"?>
<svg
   inkscape:version="1.3.1 (91b66b0783, 2023-11-16)"
   sodipodi:docname="view.svg"
   id="svg873"
   version="1.1"
   height="32"
   width="32"
   xmlns:inkscape="http://www.inkscape.org/namespaces/inkscape"
   xmlns:sodipodi="http://sodipodi.sourceforge.net/DTD/sodipodi-0.dtd"
   xmlns:xlink="http://www.w3.org/1999/xlink"
   xmlns="http://www.w3.org/2000/svg"
   xmlns:svg="http://www.w3.org/2000/svg"
   xmlns:rdf="http://www.w3.org/1999/02/22-rdf-syntax-ns#"
   xmlns:cc="http://creativecommons.org/ns#"
   xmlns:dc="http://purl.org/dc/elements/1.1/">
  <metadata
     id="metadata879">
    <rdf:RDF>
      <cc:Work
         rdf:about="">
        <dc:format>image/svg+xml</dc:format>
        <dc:type
           rdf:resource="http://purl.org/dc/dcmitype/StillImage" />
      </cc:Work>
    </rdf:RDF>
  </metadata>
  <defs
     id="defs877">
    <linearGradient
       id="_lgradient_0"
       x1="0"
       y1="0.5"
       x2="1"
       y2="0.5"
       gradientTransform="matrix(27.999994,0,0,27.999998,1.9766191,1.9139856)"
       gradientUnits="userSpaceOnUse">
      <stop
         offset="0%"
         stop-opacity="1"
         style="stop-color:rgb(105,227,255)"
         id="stop33" />
      <stop
         offset="100%"
         stop-opacity="1"
         style="stop-color:rgb(0,255,194)"
         id="stop35" />
    </linearGradient>
    <linearGradient
       y2="0.5"
       x2="1"
       y1="0.5"
       x1="0"
       gradientTransform="matrix(27.999994,0,0,27.999998,1.9766191,1.9139856)"
       gradientUnits="userSpaceOnUse"
       id="linearGradient888"
       xlink:href="#_lgradient_0"
       inkscape:collect="always" />
    <linearGradient
       gradientUnits="userSpaceOnUse"
       y2="499.98923"
       x2="990.013"
       y1="499.98923"
       x1="9.9975004"
       id="linearGradient920"
       xlink:href="#_lgradient_0-3"
       inkscape:collect="always" />
    <linearGradient
       id="_lgradient_0-3"
       x1="0"
       y1="0.5"
       x2="1"
       y2="0.5"
       gradientTransform="matrix(27.999994,0,0,27.999998,1.9766191,1.9139856)"
       gradientUnits="userSpaceOnUse">
      <stop
         offset="0%"
         stop-opacity="1"
         style="stop-color:#ff8fc3;stop-opacity:1"
         id="stop33-6" />
      <stop
         offset="100%"
         stop-opacity="1"
         style="stop-color:rgb(0,255,194)"
         id="stop35-7" />
    </linearGradient>
    <linearGradient
       inkscape:collect="always"
       xlink:href="#_lgradient_0-3"
       id="linearGradient870"
       gradientUnits="userSpaceOnUse"
       x1="9.9975004"
       y1="499.98923"
       x2="990.013"
       y2="499.98923" />
  </defs>
  <sodipodi:namedview
     inkscape:current-layer="svg873"
     inkscape:window-maximized="1"
     inkscape:window-y="0"
     inkscape:window-x="0"
     inkscape:cy="29.186298"
     inkscape:cx="28.066016"
     inkscape:zoom="8.4800067"
     showgrid="true"
     id="namedview875"
     inkscape:window-height="994"
     inkscape:window-width="1920"
     inkscape:pageshadow="2"
     inkscape:pageopacity="0"
     guidetolerance="10"
     gridtolerance="10"
     objecttolerance="10"
     borderopacity="1"
     inkscape:document-rotation="0"
     bordercolor="#000000"
     pagecolor="#02334b"
     inkscape:lockguides="true"
     inkscape:showpageshadow="2"
     inkscape:pagecheckerboard="true"
     inkscape:deskcolor="#02334b">
    <inkscape:grid
       type="xygrid"
       id="grid853"
       originx="0"
       originy="0"
       spacingy="1"
       spacingx="1"
       units="px"
       visible="true" />
  </sodipodi:namedview>
  <g
     style="clip-rule:evenodd;fill:url(#linearGradient920);fill-opacity:1;fill-rule:evenodd;stroke-linejoin:round;stroke-miterlimit:1.41421"
     id="g10"
     transform="matrix(0.02856847,0,0,0.02856847,-24.124545,-5.089149)">
    <g
       style="fill:url(#linearGradient870);fill-opacity:1"
       transform="matrix(0.1,0,0,-0.1,0,511)"
       id="g8" />
  </g>
  <g
     id="view-refresh"
     transform="translate(32,16)">
    <path
       id="path836"
       style="opacity:0.00100002"
       d="M 0,0 H 16 V 16 H 0 Z" />
    <path
       d="m 12.805684,5.5015446 c -0.201978,-0.315589 -0.618559,-0.429207 -0.934152,-0.227223 -0.328212,0.201973 -0.429194,0.618557 -0.227221,0.959391 0.454451,0.744794 0.68167,1.65369 0.593307,2.613087 C 12.035643,10.8792 10.369331,12.495023 8.3242995,12.633878 5.8500799,12.797983 3.7924339,10.828704 3.8176811,8.3797276 c 0.02525,-2.272249 1.8809157,-4.140546 4.1405375,-4.178411 0.1262354,0 0.2398448,0 0.3660809,0.01259 v 0.530193 c 0,0.214591 0.239855,0.340831 0.416585,0.227219 l 1.9692785,-1.224492 c 0.164108,-0.100983 0.164108,-0.353452 0,-0.454448 l -1.9819045,-1.24973 c -0.176726,-0.113623 -0.416574,0.01261 -0.416574,0.227217 v 0.555435 c -0.088348,0 -0.1767379,0 -0.2777216,0 -3.2190186,0 -5.8194793,2.73933 -5.5670071,6.008839 0.2019783,2.7393184 2.4111065,4.9484504 5.1378049,5.1504304 3.2695103,0.23985 6.0214573,-2.347994 6.0214573,-5.5670114 0,-1.073006 -0.302965,-2.070263 -0.820534,-2.916048 z"
       id="path1"
       style="fill:#00ccff;fill-opacity:1;stroke-width:0.126235" />
    <circle
       cx="8.033968"
       cy="8.4176149"
       r="1.8051747"
       id="circle1"
       style="fill:#00ccff;fill-opacity:1;stroke-width:0.126235" />
  </g>
  <g
     id="view-history">
    <rect
       ry="0.91472864"
       y="0"
       x="0"
       height="32"
       width="32"
       id="rect817-5"
       style="clip-rule:evenodd;fill:#ffff96;fill-opacity:0;fill-rule:evenodd;stroke-width:1.04154;stroke-linejoin:round;stroke-miterlimit:1.41421;stroke-dasharray:none"
       rx="0.91472864" />
    <path
       inkscape:connector-curvature="0"
       style="clip-rule:evenodd;opacity:0;isolation:isolate;fill:url(#linearGradient888);fill-rule:evenodd;stroke-width:1.07692;stroke-linejoin:round;stroke-miterlimit:1.41421"
       d="m 16.58508,3.1578315 0.158302,0.00969 c 3.250158,0.1949228 6.306467,1.6240001 8.54,3.9910766 2.234618,2.3724617 3.476309,5.5063079 3.476309,8.7618459 0,3.389077 -1.346151,6.637076 -3.74446,9.034307 -2.397231,2.39723 -5.648462,3.742308 -9.038611,3.742308 -3.390158,0 -6.6413814,-1.345078 -9.0386167,-3.742308 -2.3983075,-2.397231 -3.744461,-5.64523 -3.744461,-9.034307 0,-2.263692 0.6030766,-4.490769 1.7478459,-6.4432304 C 6.0850803,7.5172158 7.7284647,5.8996776 9.7013816,4.786139 v 0 C 9.9932396,4.6213698 10.09662,4.2509089 9.9318486,3.9579856 v 0 C 9.7681596,3.6661389 9.3966196,3.5627543 9.1047746,3.7275235 v 0 C 6.9433883,4.9498315 5.1416955,6.7202928 3.8881574,8.8622926 2.6400031,11.004293 1.9766192,13.438138 1.9766192,15.920446 c 0,3.711076 1.4732301,7.270307 4.1030759,9.892614 2.6233854,2.62877 6.1836869,4.100923 9.8969249,4.100923 3.713229,0 7.27354,-1.472153 9.89692,-4.100923 2.629842,-2.622307 4.10308,-6.181538 4.10308,-9.892614 0,-3.565692 -1.363389,-6.9978454 -3.804771,-9.5953839 C 23.72508,3.7275235 20.378,2.1638314 16.81662,1.9506006 l -0.23154,-0.014 v -0.010769 h -0.17446 l -0.20246,-0.011848 -0.001,0.013997 c -0.469539,0.024771 -0.838921,0.2875384 -0.838921,0.6063078 v 0 13.3861536 c 0,0.670923 0.544921,1.216923 1.216921,1.216923 h 6.696308 v 0 c 0.336,0 0.60846,-0.273539 0.60846,-0.608462 v 0 c 0,-0.336 -0.27246,-0.608461 -0.60846,-0.608461 v 0 h -6.087847 c -0.336,0 -0.608461,-0.273539 -0.608461,-0.608462 z"
       id="path38" />
    <path
       d="m 20.5,22.536969 c -0.32035,0 -0.655992,-0.161353 -0.898802,-0.382913 L 14.36727,17.826806 C 14.14079,17.620264 14,17.332991 14,17.015683 v 0 -0.0037 -7.358034 C 14,9.017437 14.4593,8.5 15.151,8.5 c 0.69169,0 1.132556,0.517704 1.151,1.153949 v 6.88302 l 4.998,3.975528 c 0.48765,0.448752 0.651638,1.284875 0.163988,1.733626 -0.24485,0.225315 -0.643648,0.290846 -0.963988,0.290846"
       id="path6"
       style="color:#d1d5e9;fill:#ffcc00;fill-opacity:1;stroke-width:0.0195731"
       sodipodi:nodetypes="cccsccsssccsc"
       class="ColorScheme-Text" />
    <path
       d="m 7.5085836,7.5254536 c -4.716385,4.7193814 -4.677798,12.4225534 0.115759,17.0930904 4.4649734,4.350407 11.6601294,4.52822 16.3200594,0.387626 4.083077,-3.628021 5.166692,-9.408252 2.869588,-14.181245 -0.275697,-0.572846 -0.997441,-0.769523 -1.540581,-0.439586 -0.486977,0.295855 -0.651575,0.910669 -0.406768,1.425426 1.892679,3.979621 0.921547,8.803616 -2.584012,11.747197 C 18.7269,26.543697 13.451318,26.593926 9.8423556,23.672835 5.2395736,19.94734 4.9758336,13.146871 9.0511616,9.0689756 12.021171,6.0970706 16.481085,5.3636536 20.201013,7.1385736 c 0.51137,0.243975 1.122468,0.07613 1.416486,-0.408462 l 0.002,-0.0032 c 0.328743,-0.541829 0.135279,-1.262562 -0.435316,-1.537847 -4.556606,-2.198173 -10.032948,-1.308474 -13.6755704,2.336442 z"
       id="path1-0"
       style="fill:#ffcc00;stroke-width:0.436438;fill-opacity:1" />
  </g>
</svg>
