<?xml version="1.0" encoding="UTF-8" standalone="no"?>
<!-- Created with Inkscape (http://www.inkscape.org/) -->

<svg
   width="22"
   height="22"
   id="svg3869"
   version="1.1"
   inkscape:version="1.3.2 (091e20ef0f, 2023-11-25)"
   sodipodi:docname="widget.svg"
   viewBox="0 0 22 22"
   xmlns:inkscape="http://www.inkscape.org/namespaces/inkscape"
   xmlns:sodipodi="http://sodipodi.sourceforge.net/DTD/sodipodi-0.dtd"
   xmlns="http://www.w3.org/2000/svg"
   xmlns:svg="http://www.w3.org/2000/svg"
   xmlns:rdf="http://www.w3.org/1999/02/22-rdf-syntax-ns#"
   xmlns:cc="http://creativecommons.org/ns#"
   xmlns:dc="http://purl.org/dc/elements/1.1/">
  <defs
     id="defs3871">
    <style
       type="text/css"
       id="current-color-scheme">
.ColorScheme-Text { 
    color:#d1d5e9;
}
      .ColorScheme-Background {
        color:#eff0f1;
      }
      .ColorScheme-Highlight {
        color:#3daee9;
      }
      .ColorScheme-ViewText {
        color:#31363b;
      }
      .ColorScheme-ViewBackground {
        color:#fcfcfc;
      }
      .ColorScheme-ViewHover {
        color:#93cee9;
      }
      .ColorScheme-ViewFocus{
        color:#3daee9;
      }
      .ColorScheme-ButtonText {
        color:#31363b;
      }
      .ColorScheme-ButtonBackground {
        color:#eff0f1;
      }
      .ColorScheme-ButtonHover {
        color:#93cee9;
      }
      .ColorScheme-ButtonFocus{
        color:#3daee9;
      }
      </style>
  </defs>
  <sodipodi:namedview
     id="base"
     pagecolor="#02334b"
     bordercolor="#000000"
     borderopacity="1"
     inkscape:pageopacity="0"
     inkscape:pageshadow="2"
     inkscape:zoom="16.245207"
     inkscape:cx="12.249767"
     inkscape:cy="12.834555"
     inkscape:document-units="px"
     inkscape:current-layer="layer1"
     showgrid="true"
     fit-margin-top="0"
     fit-margin-left="0"
     fit-margin-right="0"
     fit-margin-bottom="0"
     inkscape:window-width="1920"
     inkscape:window-height="994"
     inkscape:window-x="0"
     inkscape:window-y="0"
     inkscape:window-maximized="1"
     inkscape:showpageshadow="true"
     inkscape:pagecheckerboard="true"
     inkscape:deskcolor="#02334b"
     inkscape:lockguides="true">
    <inkscape:grid
       id="grid1"
       units="px"
       originx="0"
       originy="0"
       spacingx="1"
       spacingy="1"
       empcolor="#0099e5"
       empopacity="0.30196078"
       color="#0099e5"
       opacity="0.14902"
       empspacing="5"
       dotted="false"
       gridanglex="30"
       gridanglez="30"
       visible="true" />
  </sodipodi:namedview>
  <metadata
     id="metadata3874">
    <rdf:RDF>
      <cc:Work
         rdf:about="">
        <dc:format>image/svg+xml</dc:format>
        <dc:type
           rdf:resource="http://purl.org/dc/dcmitype/StillImage" />
      </cc:Work>
    </rdf:RDF>
  </metadata>
  <g
     inkscape:label="Capa 1"
     inkscape:groupmode="layer"
     id="layer1"
     transform="translate(-326,-534.36218)">
    <g
       id="widget-alternatives">
      <rect
         y="534.36218"
         x="326"
         height="22"
         width="22"
         id="rect3906"
         style="opacity:0.001;fill:#8b9395;fill-opacity:1;stroke:none" />
      <path
         d="m 346,538.36217 c 0,1.10511 -0.8949,2.00001 -2,2.00001 -1.10417,0 -1.99999,-0.8949 -1.99999,-2.00001 0,-1.10417 0.89582,-1.99999 1.99999,-1.99999 1.1051,0 2,0.89582 2,1.99999 z"
         id="path72-3"
         style="color:#e5e9ef;fill:#00d455;fill-opacity:1;stroke-width:0.0238098"
         class="ColorScheme-Text" />
      <path
         d="m 346,543.64802 c 0,-0.13503 -0.0628,-0.26225 -0.1709,-0.34325 l -5.14332,-3.85687 c -0.13055,-0.0973 -0.30329,-0.11319 -0.44862,-0.0404 -0.14489,0.0723 -0.23697,0.22114 -0.23697,0.38356 v 1.71416 H 334.857 c -0.23658,0 -0.42858,0.19198 -0.42858,0.42853 0,0.23656 0.19203,0.42854 0.42858,0.42854 h 5.57177 c 0.23652,0 0.42854,-0.192 0.42854,-0.42854 v -1.28561 l 3.99968,2.99977 -3.99968,2.99978 v -1.28562 c 0,-0.23657 -0.19202,-0.42854 -0.42854,-0.42854 h -6.42908 v -1.71416 c 0,-0.16228 -0.0922,-0.31111 -0.23691,-0.38355 -0.14489,-0.0729 -0.3189,-0.0571 -0.44875,0.0404 l -5.14309,3.85686 c -0.10801,0.081 -0.17094,0.20827 -0.17094,0.34326 0,0.13492 0.0628,0.26227 0.17094,0.34326 l 5.143,3.85686 c 0.13055,0.0973 0.3035,0.11319 0.4488,0.0404 0.14484,-0.0723 0.23691,-0.22112 0.23691,-0.38353 v -1.71417 h 5.14327 c 0.23654,0 0.42856,-0.192 0.42856,-0.42854 0,-0.23654 -0.19202,-0.42853 -0.42856,-0.42853 h -5.5718 c -0.23653,0 -0.42854,0.192 -0.42854,0.42853 v 1.28562 l -3.99966,-2.9998 3.99966,-2.99976 v 1.28561 c 0,0.23655 0.19202,0.42855 0.42854,0.42855 h 6.42897 v 1.71415 c 0,0.16229 0.0922,0.3111 0.23697,0.38354 0.14489,0.0729 0.31894,0.0571 0.44868,-0.0404 l 5.14326,-3.85686 c 0.10801,-0.081 0.17094,-0.20827 0.17094,-0.34326 z"
         id="path1-1"
         style="fill:#cd87de;fill-opacity:1;stroke-width:0.428557" />
      <path
         d="m 332,552.36218 c 0,1.10511 -0.8949,2.00001 -2,2.00001 -1.10417,0 -1.99999,-0.8949 -1.99999,-2.00001 0,-1.10417 0.89582,-1.99999 1.99999,-1.99999 1.1051,0 2,0.89582 2,1.99999 z"
         id="path72-3-2"
         style="color:#e5e9ef;fill:#d35f8d;fill-opacity:1;stroke-width:0.0238098"
         class="ColorScheme-Text" />
    </g>
  </g>
</svg>
