<?xml version="1.0" encoding="UTF-8" standalone="no"?>
<svg
   id="svg18"
   width="32"
   height="32"
   version="1"
   sodipodi:docname="yakuake.svg"
   inkscape:version="1.3.1 (91b66b0783, 2023-11-16)"
   xmlns:inkscape="http://www.inkscape.org/namespaces/inkscape"
   xmlns:sodipodi="http://sodipodi.sourceforge.net/DTD/sodipodi-0.dtd"
   xmlns:xlink="http://www.w3.org/1999/xlink"
   xmlns="http://www.w3.org/2000/svg"
   xmlns:svg="http://www.w3.org/2000/svg">
  <style
     id="current-color-scheme"
     type="text/css">.ColorScheme-Text { color:#eceff4; }
</style>
  <sodipodi:namedview
     id="namedview14"
     pagecolor="#02334b"
     bordercolor="#000000"
     borderopacity="1"
     inkscape:pageshadow="2"
     inkscape:pageopacity="0.0"
     inkscape:pagecheckerboard="true"
     showgrid="true"
     inkscape:zoom="9.7681464"
     inkscape:cx="21.498449"
     inkscape:cy="35.472441"
     inkscape:window-width="1920"
     inkscape:window-height="994"
     inkscape:window-x="0"
     inkscape:window-y="0"
     inkscape:window-maximized="1"
     inkscape:current-layer="svg18"
     inkscape:lockguides="true"
     inkscape:showpageshadow="2"
     inkscape:deskcolor="#02334b">
    <inkscape:grid
       type="xygrid"
       id="grid865"
       originx="0"
       originy="0"
       spacingy="1"
       spacingx="1"
       units="px"
       visible="true" />
  </sodipodi:namedview>
  <defs
     id="1987">
    <linearGradient
       id="linearGradient1"
       inkscape:collect="always">
      <stop
         style="stop-color:#00ccff;stop-opacity:1"
         offset="0"
         id="stop1" />
      <stop
         style="stop-color:#bc5fd3;stop-opacity:1"
         offset="1"
         id="stop2" />
    </linearGradient>
    <style
       id="style9"
       type="text/css" />
    <linearGradient
       inkscape:collect="always"
       xlink:href="#linearGradient1"
       id="linearGradient2"
       x1="4"
       y1="28"
       x2="28"
       y2="3"
       gradientUnits="userSpaceOnUse" />
    <linearGradient
       inkscape:collect="always"
       xlink:href="#linearGradient1"
       id="linearGradient4"
       x1="15"
       y1="16"
       x2="23.318226"
       y2="15.999771"
       gradientUnits="userSpaceOnUse" />
    <linearGradient
       inkscape:collect="always"
       xlink:href="#linearGradient1"
       id="linearGradient6"
       x1="4"
       y1="19"
       x2="19"
       y2="3"
       gradientUnits="userSpaceOnUse" />
    <linearGradient
       inkscape:collect="always"
       xlink:href="#linearGradient1"
       id="linearGradient8"
       x1="10.487258"
       y1="10.855871"
       x2="15.878816"
       y2="10.999848"
       gradientUnits="userSpaceOnUse" />
  </defs>
  <g
     id="yakuake">
    <rect
       id="rect11"
       width="32"
       height="32"
       opacity="0.00100002"
       x="0"
       y="0" />
    <path
       d="M 9.725949,10 8.6,11.125949 13.103732,15.62968 8.6,20.133413 9.725949,21.259362 15.355744,15.629566 9.725949,9.999771 Z m 5.629795,10.407266 v 1.592505 h 7.962481 v -1.592505 z"
       id="path7"
       style="fill:url(#linearGradient4);fill-opacity:1;stroke-width:1.59247" />
    <path
       fill-rule="evenodd"
       clip-rule="evenodd"
       d="m 24.572286,28 h -12.858 C 11.241571,28 10.858,27.615357 10.858,27.142857 c 0,-0.473786 0.383571,-0.857571 0.856286,-0.857571 h 12.858 c 0.946714,0 1.714285,-0.767572 1.714285,-1.714286 V 7.428143 c 0,-0.946714 -0.767571,-1.713857 -1.714285,-1.713857 H 7.429 c -0.9465,0 -1.7145,0.767143 -1.7145,1.713857 V 23.713857 C 5.7145,24.187643 5.331143,24.571 4.857357,24.571 4.384429,24.571 4,24.187643 4,23.713857 V 7.428143 C 4,5.534714 5.535786,4 7.429,4 H 24.572286 C 26.465286,4 28,5.534714 28,7.428143 V 24.571 C 28,26.464429 26.465286,28 24.572286,28 Z M 8.286357,26.285286 c 0.472714,0 0.857143,0.383785 0.857143,0.857571 C 9.1435,27.615357 8.759071,28 8.286357,28 7.812571,28 7.429,27.615357 7.429,27.142857 c 0,-0.473786 0.383571,-0.857571 0.857357,-0.857571 z"
       id="path2"
       style="fill:url(#linearGradient2);fill-opacity:1;stroke-width:0.0535714" />
    <path
       d="m 18.458602,10.870899 0.586864,0.600995 c 0.0817,0.08367 0.121421,0.182852 0.120053,0.298439 -0.0014,0.115601 -0.04389,0.214232 -0.127125,0.295492 l -3.807514,3.717981 c -0.08367,0.0817 -0.182853,0.121421 -0.298437,0.120052 -0.115601,-0.0014 -0.213791,-0.04345 -0.295494,-0.12712 l -0.586862,-0.600999 c -0.0817,-0.08367 -0.121421,-0.182851 -0.120053,-0.298436 0.0014,-0.115602 0.04389,-0.214229 0.12712,-0.295494 l 3.807066,-3.71754 c 0.08367,-0.0817 0.182853,-0.121421 0.298435,-0.120051 0.116055,0.0011 0.214242,0.04303 0.295947,0.126681 z"
       id="path6"
       style="opacity:1;fill:#00ccff;fill-opacity:0.4;stroke-width:0.00628747" />
  </g>
  <g
     id="22-22-yakuake"
     transform="translate(32,10)">
    <rect
       id="rect2"
       width="22"
       height="22"
       opacity="0.00100002"
       x="0"
       y="0" />
    <path
       d="m 6.8172989,7 -0.750632,0.750632 3.0024879,3.002488 -3.0024879,3.002489 0.750632,0.750633 3.7531961,-3.753198 -3.7531961,-3.753197 z m 3.7531961,6.938177 v 1.061671 h 5.308321 v -1.061671 z"
       id="path7-36-3"
       style="fill:url(#linearGradient8);fill-opacity:1;stroke-width:1.06165" />
    <path
       fill-rule="evenodd"
       clip-rule="evenodd"
       d="M 16.714856,19 H 8.1428568 c -0.315143,0 -0.5708569,-0.256429 -0.5708569,-0.571429 0,-0.315857 0.2557139,-0.571714 0.5708569,-0.571714 h 8.5719992 c 0.631143,0 1.142857,-0.511715 1.142857,-1.142857 V 5.285428 c 0,-0.631142 -0.511714,-1.142571 -1.142857,-1.142571 H 5.2859999 C 4.6549999,4.142857 4.143,4.654286 4.143,5.285428 V 16.142571 C 4.143,16.458428 3.887429,16.714 3.571571,16.714 3.256286,16.714 3,16.458428 3,16.142571 V 5.285428 C 3,4.023142 4.023857,3 5.2859999,3 H 16.714856 C 17.976856,3 19,4.023142 19,5.285428 V 16.714 C 19,17.976286 17.976856,19 16.714856,19 Z M 5.8575709,17.856857 c 0.315143,0 0.571429,0.255857 0.571429,0.571714 0,0.315 -0.256286,0.571429 -0.571429,0.571429 -0.315857,0 -0.571571,-0.256429 -0.571571,-0.571429 0,-0.315857 0.255714,-0.571714 0.571571,-0.571714 z"
       id="path2-7-6"
       style="fill:url(#linearGradient6);fill-opacity:1;stroke-width:0.0357143" />
    <path
       d="m 12.639067,7.580599 0.391243,0.400663 c 0.05447,0.05578 0.08095,0.121902 0.08004,0.19896 -9.33e-4,0.07707 -0.02926,0.142821 -0.08475,0.196994 l -2.538342,2.478655 c -0.05578,0.05447 -0.121902,0.08095 -0.198958,0.08004 -0.07707,-9.34e-4 -0.142527,-0.02897 -0.196996,-0.08475 L 9.7000628,10.450493 c -0.05447,-0.05578 -0.08095,-0.121901 -0.08003,-0.198958 9.33e-4,-0.07707 0.02926,-0.142819 0.08475,-0.196996 l 2.5380292,-2.47836 c 0.05578,-0.05447 0.121903,-0.08095 0.198957,-0.08003 0.07737,7.33e-4 0.142828,0.02869 0.197298,0.08445 z"
       id="path6-5-7"
       style="fill:#00ccff;fill-opacity:0.4;stroke-width:0.00419165" />
  </g>
</svg>
